<?xml version="1.0" encoding="UTF-8" standalone="no"?>
<svg
   xmlns:dc="http://purl.org/dc/elements/1.1/"
   xmlns:cc="http://creativecommons.org/ns#"
   xmlns:rdf="http://www.w3.org/1999/02/22-rdf-syntax-ns#"
   xmlns:svg="http://www.w3.org/2000/svg"
   xmlns="http://www.w3.org/2000/svg"
   xmlns:sodipodi="http://sodipodi.sourceforge.net/DTD/sodipodi-0.dtd"
   xmlns:inkscape="http://www.inkscape.org/namespaces/inkscape"
   version="1.1"
   viewBox="0 0 32 32"
   id="svg23"
   sodipodi:docname="applications-all.svg"
   inkscape:version="1.0.1 (3bc2e813f5, 2020-09-07)">
  <sodipodi:namedview
     pagecolor="#ffffff"
     bordercolor="#666666"
     borderopacity="1"
     objecttolerance="10"
     gridtolerance="10"
     guidetolerance="10"
     inkscape:pageopacity="0"
     inkscape:pageshadow="2"
     inkscape:window-width="1920"
     inkscape:window-height="958"
     id="namedview25"
     showgrid="false"
     inkscape:zoom="6.4921875"
     inkscape:cx="-5.7586264"
     inkscape:cy="-7.2672163"
     inkscape:window-x="0"
     inkscape:window-y="0"
     inkscape:window-maximized="1"
     inkscape:current-layer="svg23"
     inkscape:document-rotation="0" />
  <metadata
     id="metadata2">
    <rdf:RDF>
      <cc:Work
         rdf:about="">
        <dc:format>image/svg+xml</dc:format>
        <dc:type
           rdf:resource="http://purl.org/dc/dcmitype/StillImage" />
        <dc:title></dc:title>
      </cc:Work>
    </rdf:RDF>
  </metadata>
  <defs
     id="defs9">
    <linearGradient
       id="linearGradient863"
       x1="399.57"
       x2="399.57"
       y1="545.8"
       y2="517.8"
       gradientTransform="translate(-384.57,-561.79403)"
       gradientUnits="userSpaceOnUse">
      <stop
         stop-color="#0578ff"
         offset="0"
         id="stop4" />
      <stop
         stop-color="#42ccff"
         offset="1"
         id="stop6" />
    </linearGradient>
    <linearGradient
       id="linearGradient1005"
       x1=".73911"
       x2="16.388"
       y1="16.296"
       y2=".64687"
       gradientTransform="matrix(1.8897641,0,0,1.8897641,-0.06689318,0.0122765)"
       gradientUnits="userSpaceOnUse">
      <stop
         stop-color="#00a0ff"
         offset="0"
         id="stop852" />
      <stop
         stop-color="#37beff"
         offset="1"
         id="stop854" />
    </linearGradient>
    <linearGradient
       id="linearGradient1072"
       x1="8.397"
       x2="8.397"
       y1="13.274"
       y2="3.3723"
       gradientUnits="userSpaceOnUse"
       gradientTransform="matrix(3.779602,0,0,3.779602,-54.589662,-66.049199)">
      <stop
         stop-color="#b7d8f5"
         offset="0"
         id="stop857" />
      <stop
         stop-color="#f8fcfd"
         offset="1"
         id="stop859" />
    </linearGradient>
    <radialGradient
       id="radialGradient1082"
       cx="8.4727"
       cy="3.9956"
       r="1.8772"
       gradientTransform="matrix(1.1816 1.0623e-7 -1.0451e-7 1.1624 -1.5383 -.64906)"
       gradientUnits="userSpaceOnUse">
      <stop
         stop-color="#fff"
         offset="0"
         id="stop862" />
      <stop
         stop-color="#fff"
         offset=".18"
         id="stop864" />
      <stop
         stop-color="#ddf0fc"
         offset=".6"
         id="stop866" />
      <stop
         stop-color="#badef9"
         offset="1"
         id="stop868" />
    </radialGradient>
    <filter
       id="filter1106"
       x="-.06"
       y="-.06"
       width="1.12"
       height="1.12"
       color-interpolation-filters="sRGB">
      <feGaussianBlur
         stdDeviation="0.093859583"
         id="feGaussianBlur871" />
    </filter>
  </defs>
  <path
     d="m 30.999943,15.999632 c 0,1.798184 -0.316522,3.522212 -0.896956,5.120228 -0.403473,1.110581 -0.93428,2.160611 -1.575925,3.13178 -0.268767,0.408349 -0.557737,0.802675 -0.86449,1.181656 -0.982017,1.212836 -2.149082,2.269085 -3.459093,3.126299 -0.482467,0.315918 -0.983906,0.604907 -1.503054,0.863847 -2.016041,1.008927 -4.291929,1.576473 -6.700482,1.576473 -2.408552,0 -4.68444,-0.567546 -6.700482,-1.576511 C 8.7802761,29.164407 8.2782314,28.875438 7.7957661,28.559557 6.46903,27.690777 5.2879986,26.617974 4.2981196,25.385069 3.9908007,25.003025 3.7023979,24.605072 3.43363,24.193056 2.8091264,23.237989 2.2918118,22.207442 1.8963143,21.118349 1.3159557,19.520956 1,17.79759 1,16.000009 1,7.715685 7.7155996,1.0000854 15.999924,1.0000854 c 4.158509,0 7.921294,1.6922421 10.638451,4.4251596 0.78304,0.7873104 1.479205,1.6616465 2.07179,2.6069818 0.560213,0.8902099 1.028544,1.8440678 1.39284,2.8475532 C 30.683515,12.47774 31,14.201862 31,16.000009 Z"
     fill="url(#linearGradient1005)"
     stroke-width="0.058595"
     id="path878"
     style="fill:url(#linearGradient1005)" />
  <g
     transform="matrix(4.1231678,0,0,4.1231678,-147.52252,-65.260131)"
     fill="#5e4aa6"
     stroke-width="0.26458"
     id="g888">
    <circle
       cx="-330.35001"
       cy="-328.38"
       r="0"
       id="circle880" />
    <circle
       cx="-312.10999"
       cy="-326.25"
       r="0"
       id="circle882" />
    <circle
       cx="-306.01999"
       cy="-333.07001"
       r="0"
       id="circle884" />
    <circle
       cx="-308.84"
       cy="-326.01001"
       r="0"
       id="circle886" />
  </g>
  <g
     id="g1056"
     transform="matrix(1.0714286,0,0,1.0714286,-1.1428575,-2.3897838)">
    <path
       id="path1039"
       style="fill:#ffffff;fill-opacity:1;stroke-width:0.534222;stroke-linecap:round;paint-order:stroke fill markers"
       d="M 15.939453,6.6266311 A 4,4 0 0 0 12,10.626631 a 4,4 0 0 0 4,4 4,4 0 0 0 4,-4 4,4 0 0 0 -4,-3.9999999 4,4 0 0 0 -0.06055,0 z m 0.0098,1 a 3,3 0 0 1 0.05078,0 3,3 0 0 1 3,2.9999999 3,3 0 0 1 -3,3 3,3 0 0 1 -3,-3 3,3 0 0 1 2.94922,-2.9999999 z" />
    <path
       id="path1046"
       style="fill:#ffffff;fill-opacity:1;stroke-width:0.534222;stroke-linecap:round;paint-order:stroke fill markers"
       d="m 15.939453,19.701079 a 4,4 0 0 0 -3.939453,4 4,4 0 0 0 4,4 4,4 0 0 0 4,-4 4,4 0 0 0 -4,-4 4,4 0 0 0 -0.06055,0 z m 0.0098,1 a 3,3 0 0 1 0.05078,0 3,3 0 0 1 3,3 3,3 0 0 1 -3,3 3,3 0 0 1 -3,-3 3,3 0 0 1 2.94922,-3 z" />
    <path
       id="path1048"
       style="fill:#ffffff;fill-opacity:1;stroke-width:0.534222;stroke-linecap:round;paint-order:stroke fill markers"
       d="m 5.4628333,17.224345 a 4,4 0 0 0 3.9999999,3.939453 4,4 0 0 0 3.9999998,-4 4,4 0 0 0 -3.9999998,-4 4,4 0 0 0 -3.9999999,4 4,4 0 0 0 0,0.06055 z m 1,-0.0098 a 3,3 0 0 1 0,-0.05078 3,3 0 0 1 2.9999999,-3 3,3 0 0 1 2.9999998,3 3,3 0 0 1 -2.9999998,3 3,3 0 0 1 -2.9999999,-2.94922 z" />
    <path
       id="path1050"
       style="fill:#ffffff;fill-opacity:1;stroke-width:0.534222;stroke-linecap:round;paint-order:stroke fill markers"
       d="m 18.537281,17.224345 a 4,4 0 0 0 4,3.939453 4,4 0 0 0 4,-4 4,4 0 0 0 -4,-4 4,4 0 0 0 -4,4 4,4 0 0 0 0,0.06055 z m 1,-0.0098 a 3,3 0 0 1 0,-0.05078 3,3 0 0 1 3,-3 3,3 0 0 1 3,3 3,3 0 0 1 -3,3 3,3 0 0 1 -3,-2.94922 z" />
  </g>
</svg>
