<?xml version="1.0" encoding="UTF-8"?>
<!-- Created with Inkscape (http://www.inkscape.org/) -->
<svg width="64" height="64" version="1.1" viewBox="0 0 16.933 16.933" xmlns="http://www.w3.org/2000/svg" xmlns:cc="http://creativecommons.org/ns#" xmlns:dc="http://purl.org/dc/elements/1.1/" xmlns:rdf="http://www.w3.org/1999/02/22-rdf-syntax-ns#">
 <defs>
  <linearGradient id="linearGradient894" x1=".52916" x2="16.404" y1="14.42" y2="2.5135" gradientTransform="translate(-.027245)" gradientUnits="userSpaceOnUse">
   <stop stop-color="#14aa78" offset="0"/>
   <stop stop-color="#32d282" offset="1"/>
  </linearGradient>
 </defs>
 <metadata>
  <rdf:RDF>
   <cc:Work rdf:about="">
    <dc:format>image/svg+xml</dc:format>
    <dc:type rdf:resource="http://purl.org/dc/dcmitype/StillImage"/>
    <dc:title/>
   </cc:Work>
  </rdf:RDF>
 </metadata>
 <circle cx="-302.94" cy="-325.41" r="0" fill="#5e4aa6" stroke-width=".26458"/>
 <circle cx="-302.94" cy="-325.41" r="0" fill="#5e4aa6" stroke-width=".26458"/>
 <g transform="translate(-1.6649e-4,-2e-6)">
  <circle cx="-330.35" cy="-328.38" r="0" fill="#5e4aa6" stroke-width=".26458"/>
  <circle cx="-312.93" cy="-341.25" r="0" fill="#5e4aa6" stroke-width=".26458"/>
  <g transform="translate(.027245)">
   <rect x=".50191" y="2.5135" width="15.875" height="11.906" ry="1.072" fill="url(#linearGradient894)" fill-rule="evenodd" style="paint-order:stroke fill markers"/>
   <path d="m1.5742 2.5135c-0.14543 0-0.28356 0.02963-0.40979 0.081647-0.013902 0.00583-0.026708 0.013333-0.040307 0.019637-0.36707 0.1698-0.62217 0.53856-0.62217 0.97098v0.12816h15.875v-0.12816c0-0.5939-0.47785-1.0723-1.0717-1.0723z" fill="#fff" fill-rule="evenodd" opacity=".35" style="paint-order:stroke fill markers"/>
   <g transform="translate(.65638 .088149)" fill="#0a6e5a">
    <rect x="6.4601" y="2.7531" width="2.6458" height=".52918" ry=".26459" opacity=".35" style="paint-order:stroke markers fill"/>
    <g transform="translate(-.68111 .44286)">
     <rect x="2.5739" y="2.3102" width="1.0583" height=".52918" ry=".26459" opacity=".35" style="paint-order:stroke markers fill"/>
     <g transform="translate(-1.1121)">
      <rect x="14.937" y="2.3102" width=".52917" height=".52918" ry=".26459" opacity=".35" style="paint-order:stroke markers fill"/>
      <rect x="13.879" y="2.3102" width=".79375" height=".52918" ry=".26459" opacity=".35" style="paint-order:stroke markers fill"/>
      <rect x="13.085" y="2.3102" width=".52917" height=".52918" ry=".26459" opacity=".35" style="paint-order:stroke markers fill"/>
     </g>
    </g>
   </g>
   <g transform="translate(.01732 .71122)">
    <path d="m3.9241 12.65c-0.29316 0-0.52916 0.23601-0.52916 0.52916v0.52916h10.054v-0.52916c0-0.29316-0.23601-0.52916-0.52916-0.52916z" fill="#fff" opacity=".35" stroke-width=".26458" style="paint-order:stroke markers fill"/>
    <g transform="translate(-.044563 -280.91)" fill="#0a6e5a">
     <rect x="4.4979" y="292.77" width="1.3229" height="1.3229" ry=".13229" style="paint-order:stroke markers fill"/>
     <rect x="6.7028" y="292.77" width="1.3229" height="1.3229" ry=".13229" style="paint-order:stroke markers fill"/>
     <rect x="8.9076" y="292.77" width="1.3229" height="1.3229" ry=".13229" style="paint-order:stroke markers fill"/>
     <rect x="11.112" y="292.77" width="1.3229" height="1.3229" ry=".13229" style="paint-order:stroke markers fill"/>
    </g>
   </g>
  </g>
 </g>
</svg>
