<?xml version="1.0" encoding="UTF-8"?>
<svg id="Flamingo" width="64" height="64" enable-background="new 0 0 1024 1024" image-rendering="optimizeSpeed" version="1.1" viewBox="0 0 64 64" xmlns="http://www.w3.org/2000/svg" xmlns:cc="http://creativecommons.org/ns#" xmlns:dc="http://purl.org/dc/elements/1.1/" xmlns:rdf="http://www.w3.org/1999/02/22-rdf-syntax-ns#">
 <metadata>
  <rdf:RDF>
   <cc:Work rdf:about="">
    <dc:format>image/svg+xml</dc:format>
    <dc:type rdf:resource="http://purl.org/dc/dcmitype/StillImage"/>
    <dc:title/>
   </cc:Work>
  </rdf:RDF>
 </metadata>
 <defs>
  <linearGradient id="linearGradient1634" x1="-59.235" x2="-59.235" y1=".7041" y2="-11.929" gradientTransform="matrix(4.1232 0 0 4.1232 275.52 59.011)" gradientUnits="userSpaceOnUse">
   <stop stop-color="#d73782" offset="0"/>
   <stop stop-color="#eb554b" offset="1"/>
  </linearGradient>
  <linearGradient id="i" x1="400.4" x2="400.4" y1="545.62" y2="517.62" gradientTransform="matrix(1.5862 0 0 1.5862 -655.15 -673.64)" gradientUnits="userSpaceOnUse">
   <stop stop-color="#d3d3d3" offset="0"/>
   <stop stop-color="#fcf9f9" offset="1"/>
  </linearGradient>
  <linearGradient id="f" x1="400.4" x2="400.4" y1="545.62" y2="517.62" gradientTransform="matrix(1.6382 0 0 1.6382 -729.8 -679.16)" gradientUnits="userSpaceOnUse">
   <stop stop-color="#8d3aff" offset="0"/>
   <stop stop-color="#ff3680" offset="1"/>
  </linearGradient>
  <filter id="filter1189" x="-.028279" y="-.049521" width="1.0566" height="1.099" color-interpolation-filters="sRGB">
   <feGaussianBlur stdDeviation="0.41665383"/>
  </filter>
 </defs>
 <path d="m62 32c0 3.5964-0.63304 7.0445-1.7939 10.24-0.80696 2.2212-1.8685 4.3211-3.1519 6.2636-0.53755 0.81668-1.1155 1.6054-1.729 2.3634-1.9641 2.4256-4.2981 4.538-6.9184 6.2525-0.96491 0.63185-1.9678 1.2098-3.0061 1.7277-4.032 2.0179-8.5838 3.153-13.401 3.153-4.817 0-9.3688-1.1351-13.401-3.1531-1.0384-0.518-2.0425-1.0959-3.0074-1.7277-2.6535-1.7376-5.0155-3.8831-6.9955-6.3489-0.61465-0.76408-1.1915-1.56-1.729-2.3841-1.249-1.9102-2.2836-3.9711-3.0746-6.1494-1.1607-3.1947-1.7927-6.6417-1.7927-10.237 0-16.569 13.431-30 30-30 8.3169 0 15.842 3.3845 21.277 8.8505 1.5661 1.5746 2.9585 3.3234 4.1434 5.2138 1.1205 1.7805 2.0571 3.6882 2.7857 5.695 1.1611 3.1959 1.794 6.6442 1.794 10.24z" fill="url(#linearGradient1634)" stroke-width=".11719"/>
 <g fill="#5e4aa6">
  <circle cx="-1331.1" cy="-1237.8" r="0"/>
  <circle cx="-1262.2" cy="-1229.7" r="0"/>
  <circle cx="-1239.2" cy="-1255.5" r="0"/>
  <circle cx="-1249.8" cy="-1228.8" r="0"/>
 </g>
 <circle cx="-19.783" cy="169.91" r="0" fill="url(#i)" image-rendering="optimizeSpeed"/>
 <circle cx="-73.572" cy="192.07" r="0" fill="none" image-rendering="optimizeSpeed" stroke="url(#f)" stroke-width="2.1297"/>
 <g transform="translate(-.6608 .87611)" filter="url(#filter1189)" opacity=".4">
  <g transform="matrix(3.7796 0 0 3.7796 71.69 12.695)">
   <path d="m-11.078 7.546-0.38497-1.2653h-1.9401l-0.38614 1.2664h-1.2147l1.8779-5.3426h1.3791l1.8849 5.3426h-1.2159m-0.65491-2.2124c-0.3568-1.1479-0.5575-1.7957-0.60327-1.9483-0.03525-0.11756-0.06696-0.23616-0.09507-0.35563-0.07981 0.31103-0.30985 1.0786-0.68778 2.304h1.3861" font-size="24" font-weight="700" letter-spacing="0" stroke-width=".86383" word-spacing="0"/>
  </g>
  <g transform="translate(1.0847 .31991)" style="font-feature-settings:normal;font-variant-caps:normal;font-variant-ligatures:normal;font-variant-numeric:normal" aria-label="a">
   <path d="m43.944 33.674q-2.1354 0-2.9818 0.54688-0.84635 0.54688-0.84635 1.875 0 0.98958 0.58594 1.5755 0.58594 0.58594 1.5885 0.58594 1.5104 0 2.3438-1.1328 0.83333-1.1458 0.83333-3.1901v-0.26042zm5.3125-1.4714v8.3203h-3.7891v-1.6276q-0.6901 0.96354-1.7708 1.4844-1.0807 0.52083-2.3828 0.52083-2.487 0-3.8802-1.3151-1.3802-1.3151-1.3802-3.6719 0-2.5521 1.6536-3.763 1.6536-1.224 5.1172-1.224h2.6432v-0.63802q0-0.92448-0.67708-1.3932-0.66406-0.48177-1.9661-0.48177-1.3672 0-2.6562 0.35156-1.276 0.33854-2.6693 1.0938v-3.2552q1.263-0.52083 2.5651-0.76823t2.7604-0.2474q3.5547 0 4.987 1.4453 1.4453 1.4453 1.4453 5.1693z"/>
  </g>
 </g>
 <g transform="translate(-.6608 .87611)">
  <g transform="matrix(3.7796 0 0 3.7796 71.69 12.695)">
   <path d="m-11.078 7.546-0.38497-1.2653h-1.9401l-0.38614 1.2664h-1.2147l1.8779-5.3426h1.3791l1.8849 5.3426h-1.2159m-0.65491-2.2124c-0.3568-1.1479-0.5575-1.7957-0.60327-1.9483-0.03525-0.11756-0.06696-0.23616-0.09507-0.35563-0.07981 0.31103-0.30985 1.0786-0.68778 2.304h1.3861" fill="#fafafa" font-size="24" font-weight="700" letter-spacing="0" stroke-width=".86383" word-spacing="0"/>
  </g>
  <g transform="translate(1.0847 .31991)" fill="#fafafa" style="font-feature-settings:normal;font-variant-caps:normal;font-variant-ligatures:normal;font-variant-numeric:normal" aria-label="a">
   <path d="m43.944 33.674q-2.1354 0-2.9818 0.54688-0.84635 0.54688-0.84635 1.875 0 0.98958 0.58594 1.5755 0.58594 0.58594 1.5885 0.58594 1.5104 0 2.3438-1.1328 0.83333-1.1458 0.83333-3.1901v-0.26042zm5.3125-1.4714v8.3203h-3.7891v-1.6276q-0.6901 0.96354-1.7708 1.4844-1.0807 0.52083-2.3828 0.52083-2.487 0-3.8802-1.3151-1.3802-1.3151-1.3802-3.6719 0-2.5521 1.6536-3.763 1.6536-1.224 5.1172-1.224h2.6432v-0.63802q0-0.92448-0.67708-1.3932-0.66406-0.48177-1.9661-0.48177-1.3672 0-2.6562 0.35156-1.276 0.33854-2.6693 1.0938v-3.2552q1.263-0.52083 2.5651-0.76823t2.7604-0.2474q3.5547 0 4.987 1.4453 1.4453 1.4453 1.4453 5.1693z"/>
  </g>
 </g>
</svg>
