<?xml version="1.0" encoding="UTF-8"?>
<svg id="Iterm" width="64" height="64" enable-background="new 0 0 1024 1024" image-rendering="optimizeSpeed" version="1.1" viewBox="0 0 64 64" xmlns="http://www.w3.org/2000/svg" xmlns:cc="http://creativecommons.org/ns#" xmlns:dc="http://purl.org/dc/elements/1.1/" xmlns:rdf="http://www.w3.org/1999/02/22-rdf-syntax-ns#" xmlns:xlink="http://www.w3.org/1999/xlink">
 <metadata>
  <rdf:RDF>
   <cc:Work rdf:about="">
    <dc:format>image/svg+xml</dc:format>
    <dc:type rdf:resource="http://purl.org/dc/dcmitype/StillImage"/>
    <dc:title/>
   </cc:Work>
  </rdf:RDF>
 </metadata>
 <defs>
  <linearGradient id="b" x1="-506.45" x2="-506.45" y1="-19.101" y2="1013.6" gradientTransform="matrix(.058824 0 0 .058824 61.791 3.1236)" gradientUnits="userSpaceOnUse">
   <stop stop-color="#333" offset="0"/>
   <stop stop-color="#333" offset=".50769"/>
   <stop stop-color="#4a4a4a" offset="1"/>
  </linearGradient>
  <linearGradient id="c" x1="21.19" x2="27.603" y1="28.362" y2="28.362" gradientTransform="translate(-.0005689 .025541)" gradientUnits="userSpaceOnUse" xlink:href="#b"/>
  <linearGradient id="a" x1="20.5" x2="45.5" y1="40" y2="40" gradientTransform="matrix(1.0833 0 0 1 -3.7506 .02554)" gradientUnits="userSpaceOnUse" xlink:href="#b"/>
  <linearGradient id="linearGradient1005-6" x1=".73911" x2="16.388" y1="16.296" y2=".64687" gradientTransform="matrix(3.4646 0 0 3.4646 2.5461 2.6896)" gradientUnits="userSpaceOnUse">
   <stop stop-color="#cfdef0" offset="0"/>
   <stop stop-color="#f5faff" offset=".49575"/>
   <stop stop-color="#f5faff" offset="1"/>
  </linearGradient>
 </defs>
 <mask>
  <g id="g">
   <path d="m969.75 392.05c-1.1-4.35-2.35-9-3.65-13.6-1-3.4-2-6.85-3.15-10.5-1.6-5.15-3.4-10.5-5.3-15.85-6.45-18.25-14.15-36.05-23.15-53.65-3.8-7.4-7.95-14.95-12.3-22.4-20.3-34.5-45.8-67.2-76.35-97.75-72.6-72.6-157.15-116.65-253.65-132.05-16.25-2.6-32.8-4.4-50.05-5.35-9.7-0.55-19.85-0.85-30.1-0.85-9.35 0-18.6 0.25-27.9 0.75-118.35 6.1-220.3 51.95-305.85 137.5q-138.25 138.25-138.25 333.75c0 130.35 46.1 241.65 138.25 333.8 56.7 56.65 120.55 95.9 191.1 117.55 36.75 11.25 74.8 17.85 114.75 19.95h0.4c8.5 0.45 16.6 0.7 24.5 0.7h3c10.3 0 20.5-0.3 30.1-0.8 2.5-0.15 4.75-0.3 6.95-0.45 20.2-1.45 39.9-4.05 58.7-7.7 7.95-1.55 15.8-3.3 23.4-5.15 80.8-20.3 152.15-61.6 214.65-124.1 48.6-48.6 84.4-102.5 107.35-161.8 18.45-47.65 28.65-98.8 30.55-153.5 0.2-6.05 0.3-12.25 0.3-18.5v-3c-0.2-40.65-4.95-79.5-14.3-117z" fill="#fff"/>
  </g>
 </mask>
 <path d="m59.5 32c0 3.2967-0.58028 6.4574-1.6444 9.387-0.73971 2.0361-1.7128 3.961-2.8892 5.7416-0.49275 0.74863-1.0225 1.4716-1.5849 2.1664-1.8004 2.2235-3.9399 4.1598-6.3418 5.7314-0.8845 0.57919-1.8038 1.109-2.7556 1.5837-3.696 1.8497-7.8684 2.8902-12.284 2.8902s-8.588-1.0405-12.284-2.8903c-0.95186-0.47483-1.8723-1.0046-2.7568-1.5837-2.4324-1.5928-4.5975-3.5595-6.4125-5.8198-0.56342-0.7004-1.0922-1.43-1.5849-2.1854-1.1449-1.751-2.0933-3.6402-2.8184-5.6369-1.064-2.9285-1.6433-6.0882-1.6433-9.3836 0-15.188 12.312-27.5 27.5-27.5 7.6238 0 14.522 3.1024 19.504 8.1129 1.4356 1.4434 2.7119 3.0464 3.7981 4.7793 1.0271 1.6321 1.8857 3.3808 2.5535 5.2204 1.0643 2.9296 1.6445 6.0904 1.6445 9.387z" fill="url(#linearGradient1005-6)" stroke-width=".10742"/>
 <g transform="matrix(3.7796 0 0 3.7796 -82.522 3.3901)" fill="#5e4aa6" stroke-width=".26458">
  <circle cx="-330.35" cy="-328.38" r="0"/>
  <circle cx="-312.11" cy="-326.25" r="0"/>
  <circle cx="-306.02" cy="-333.07" r="0"/>
  <circle cx="-308.84" cy="-326.01" r="0"/>
 </g>
 <g transform="translate(.0005722 -1.7106e-5)">
  <path d="m22.328 22.975c-0.31277 0-0.58082 0.1117-0.80426 0.3351-0.22021 0.22021-0.33199 0.48835-0.33199 0.80113s0.11178 0.5809 0.33199 0.80113l3.4755 3.4755-3.4723 3.4723c-0.2234 0.2234-0.33503 0.49146-0.33822 0.80425 0.0032 0.31277 0.11489 0.5809 0.33511 0.80113 0.2234 0.22021 0.49141 0.33191 0.801 0.33511 0.31596 0 0.58407-0.11171 0.80745-0.33511l3.8617-3.865c0.81064-0.80745 0.81064-1.6182 0-2.4288l-3.865-3.8648c-0.22128-0.22127-0.48822-0.33199-0.801-0.33199z" fill="url(#c)" style="paint-order:stroke markers fill"/>
  <rect x="18.999" y="39.026" width="26" height="2" rx="1" fill="url(#a)" style="paint-order:stroke markers fill"/>
 </g>
</svg>
