<?xml version="1.0" encoding="UTF-8" standalone="no"?>
<svg
   xmlns:dc="http://purl.org/dc/elements/1.1/"
   xmlns:cc="http://creativecommons.org/ns#"
   xmlns:rdf="http://www.w3.org/1999/02/22-rdf-syntax-ns#"
   xmlns:svg="http://www.w3.org/2000/svg"
   xmlns="http://www.w3.org/2000/svg"
   xmlns:xlink="http://www.w3.org/1999/xlink"
   xmlns:sodipodi="http://sodipodi.sourceforge.net/DTD/sodipodi-0.dtd"
   xmlns:inkscape="http://www.inkscape.org/namespaces/inkscape"
   width="64"
   height="64"
   version="1.1"
   viewBox="0 0 64 64"
   id="svg217"
   sodipodi:docname="albert.svg"
   inkscape:version="0.92.4 5da689c313, 2019-01-14">
  <sodipodi:namedview
     pagecolor="#ffffff"
     bordercolor="#666666"
     borderopacity="1"
     objecttolerance="10"
     gridtolerance="10"
     guidetolerance="10"
     inkscape:pageopacity="0"
     inkscape:pageshadow="2"
     inkscape:window-width="1920"
     inkscape:window-height="973"
     id="namedview219"
     showgrid="false"
     inkscape:zoom="7.375"
     inkscape:cx="40.206921"
     inkscape:cy="26.671265"
     inkscape:window-x="0"
     inkscape:window-y="36"
     inkscape:window-maximized="1"
     inkscape:current-layer="svg217" />
  <metadata
     id="metadata2">
    <rdf:RDF>
      <cc:Work
         rdf:about="">
        <dc:format>image/svg+xml</dc:format>
        <dc:type
           rdf:resource="http://purl.org/dc/dcmitype/StillImage" />
        <dc:title></dc:title>
      </cc:Work>
    </rdf:RDF>
  </metadata>
  <defs
     id="defs155">
    <linearGradient
       id="a">
      <stop
         stop-color="#f5f5f5"
         offset="0"
         id="stop4" />
      <stop
         stop-color="#f5f5f5"
         stop-opacity="0"
         offset="1"
         id="stop6" />
    </linearGradient>
    <linearGradient
       id="l"
       x1="122.15"
       x2="143.37"
       y1="269.03"
       y2="275.62"
       gradientTransform="matrix(.11531 0 0 .11457 2.851 9.2379)"
       gradientUnits="userSpaceOnUse">
      <stop
         stop-color="#3f2513"
         offset="0"
         id="stop9" />
      <stop
         stop-color="#95602f"
         offset=".76887"
         id="stop11" />
      <stop
         stop-color="#8a582b"
         offset=".84723"
         id="stop13" />
      <stop
         stop-color="#835327"
         offset=".93007"
         id="stop15" />
      <stop
         stop-color="#784b22"
         offset="1"
         id="stop17" />
    </linearGradient>
    <linearGradient
       id="k"
       x1="-243.09"
       x2="-142.77"
       y1="169.1"
       y2="329.44"
       gradientTransform="matrix(.11531 0 0 .11457 56.525 7.7287)"
       gradientUnits="userSpaceOnUse">
      <stop
         stop-color="#252525"
         offset="0"
         id="stop20"
         style="stop-color:#232323;stop-opacity:1" />
      <stop
         stop-color="#1e1e1e"
         offset="1"
         id="stop22" />
    </linearGradient>
    <radialGradient
       id="d"
       cx="595.34"
       cy="157.46"
       r="158.46"
       gradientTransform="matrix(1.2984 -.024209 .015795 .84707 -957.55 -289.28)"
       gradientUnits="userSpaceOnUse"
       xlink:href="#l">
      <stop
         stop-color="#4b5356"
         offset="0"
         id="stop25"
         style="stop-color:#465555;stop-opacity:1" />
      <stop
         stop-color="#1c1c1c"
         offset="1"
         id="stop27"
         style="stop-color:#1e1e1e;stop-opacity:1" />
    </radialGradient>
    <linearGradient
       id="j"
       x1="469.31"
       x2="783.11"
       y1="221.35"
       y2="221.35"
       gradientTransform="translate(-809.9,-323.66)"
       gradientUnits="userSpaceOnUse">
      <stop
         stop-color="#0098ff"
         offset="0"
         id="stop30" />
      <stop
         stop-color="#0097ff"
         offset=".32725"
         id="stop32" />
      <stop
         stop-color="#0098ff"
         offset=".41756"
         id="stop34" />
      <stop
         stop-color="#009cff"
         offset=".4746"
         id="stop36" />
      <stop
         stop-color="#00a8ff"
         offset=".51975"
         id="stop38" />
      <stop
         stop-color="#00c1ff"
         offset=".71938"
         id="stop40" />
      <stop
         stop-color="#00d2ff"
         offset="1"
         id="stop42" />
    </linearGradient>
    <linearGradient
       id="i"
       x1="148.26"
       x2="172.83"
       y1="179.26"
       y2="185.6"
       gradientTransform="matrix(.11531 0 0 .11457 2.6102 9.5159)"
       gradientUnits="userSpaceOnUse">
      <stop
         stop-color="#5a5a5d"
         offset="0"
         id="stop45" />
      <stop
         stop-color="#bbbdc0"
         offset=".50002"
         id="stop47" />
      <stop
         stop-color="#e0e0e1"
         offset=".72993"
         id="stop49" />
      <stop
         stop-color="#e9e9ea"
         offset=".81208"
         id="stop51" />
      <stop
         stop-color="#b9babb"
         offset="1"
         id="stop53" />
    </linearGradient>
    <linearGradient
       id="h"
       x1="141.36"
       x2="167.9"
       y1="194.37"
       y2="203.04"
       gradientTransform="matrix(.11531 0 0 .11457 -115.39 9.2379)"
       gradientUnits="userSpaceOnUse">
      <stop
         stop-color="#5a5b5d"
         offset="0"
         id="stop56" />
      <stop
         stop-color="#9d9fa2"
         offset=".39982"
         id="stop58" />
      <stop
         stop-color="#babdbf"
         offset=".52763"
         id="stop60" />
      <stop
         stop-color="#d7d7d9"
         offset=".65116"
         id="stop62" />
      <stop
         stop-color="#eaeaeb"
         offset=".85495"
         id="stop64" />
      <stop
         stop-color="#858688"
         offset="1"
         id="stop66" />
    </linearGradient>
    <linearGradient
       id="g"
       x1="326.27"
       x2="277.42"
       y1="11.746"
       y2="152.32"
       gradientUnits="userSpaceOnUse">
      <stop
         stop-color="#a9abae"
         offset="0"
         id="stop69" />
      <stop
         stop-color="#cccdcf"
         offset="1"
         id="stop71" />
    </linearGradient>
    <linearGradient
       id="f"
       x1="277.8"
       x2="287.12"
       y1="41.203"
       y2="142.25"
       gradientTransform="translate(-3.3554,-2.2368)"
       gradientUnits="userSpaceOnUse">
      <stop
         stop-color="#d5d6d7"
         offset="0"
         id="stop74" />
      <stop
         stop-color="#b6b7ba"
         offset=".14189"
         id="stop76" />
      <stop
         stop-color="#cfd0d2"
         offset=".21174"
         id="stop78" />
      <stop
         stop-color="#e0e1e2"
         offset=".31988"
         id="stop80" />
      <stop
         stop-color="#848587"
         offset=".50282"
         id="stop82" />
      <stop
         stop-color="#a9abae"
         offset=".72905"
         id="stop84" />
      <stop
         stop-color="#a2a4a7"
         offset=".83916"
         id="stop86" />
      <stop
         stop-color="#808184"
         offset="1"
         id="stop88" />
    </linearGradient>
    <linearGradient
       id="q"
       x1="312.75"
       x2="313.38"
       y1="149.48"
       y2="20.282"
       gradientUnits="userSpaceOnUse">
      <stop
         stop-color="#979799"
         offset="0"
         id="stop91" />
      <stop
         stop-color="#b2b3b5"
         offset=".19572"
         id="stop93" />
      <stop
         stop-color="#b0b0b2"
         offset=".48145"
         id="stop95" />
      <stop
         stop-color="#d4d5d6"
         offset=".73038"
         id="stop97" />
      <stop
         stop-color="#bfbfc0"
         offset="1"
         id="stop99" />
    </linearGradient>
    <linearGradient
       id="p"
       x1="379.28"
       x2="380.7"
       y1="13.331"
       y2="159.4"
       gradientUnits="userSpaceOnUse">
      <stop
         stop-color="#a9abae"
         offset="0"
         id="stop102" />
      <stop
         stop-color="#d8d9da"
         offset=".12173"
         id="stop104" />
      <stop
         stop-color="#b4b6b9"
         offset=".30587"
         id="stop106" />
      <stop
         stop-color="#e0e1e2"
         offset=".47015"
         id="stop108" />
      <stop
         stop-color="#d4d5d6"
         offset=".52069"
         id="stop110" />
      <stop
         stop-color="#b8b9bb"
         offset=".58029"
         id="stop112" />
      <stop
         stop-color="#969799"
         offset=".61453"
         id="stop114" />
      <stop
         stop-color="#6d6e71"
         offset=".63617"
         id="stop116" />
      <stop
         stop-color="#797a7d"
         offset=".66326"
         id="stop118" />
      <stop
         stop-color="#a5a7aa"
         offset=".78063"
         id="stop120" />
      <stop
         stop-color="#78797c"
         offset=".89044"
         id="stop122" />
      <stop
         stop-color="#7e7f81"
         offset="1"
         id="stop124" />
    </linearGradient>
    <radialGradient
       id="e"
       cx="312.85"
       cy="85.576"
       r="72.339"
       gradientTransform="matrix(1,0,0,1.0902,0,-7.7206)"
       gradientUnits="userSpaceOnUse">
      <stop
         stop-color="#fff"
         stop-opacity="0"
         offset="0"
         id="stop127" />
      <stop
         stop-color="#f5f5f5"
         stop-opacity=".22066"
         offset="1"
         id="stop129" />
    </radialGradient>
    <linearGradient
       id="o"
       x1="82.276"
       x2="109.67"
       y1="95.738"
       y2="95.738"
       gradientTransform="translate(189.31 .52733)"
       gradientUnits="userSpaceOnUse"
       xlink:href="#a" />
    <linearGradient
       id="n"
       x1="82.276"
       x2="109.67"
       y1="95.738"
       y2="95.738"
       gradientTransform="rotate(25.811,317.6,502.73)"
       gradientUnits="userSpaceOnUse"
       xlink:href="#a" />
    <linearGradient
       id="m"
       x1="737.74"
       x2="793.11"
       y1="222.01"
       y2="231.5"
       gradientTransform="matrix(.11531 0 0 .11457 -66.788 10.805)"
       gradientUnits="userSpaceOnUse">
      <stop
         offset="0"
         id="stop134" />
      <stop
         stop-opacity="0"
         offset="1"
         id="stop136" />
    </linearGradient>
    <filter
       id="t"
       x="-.02253"
       y="-.090392"
       width="1.0451"
       height="1.1808"
       color-interpolation-filters="sRGB">
      <feGaussianBlur
         stdDeviation="3.9076748"
         id="feGaussianBlur139" />
    </filter>
    <filter
       id="s"
       x="-.042605"
       y="-.10185"
       width="1.0852"
       height="1.2037"
       color-interpolation-filters="sRGB">
      <feGaussianBlur
         stdDeviation="7.3898119"
         id="feGaussianBlur142" />
    </filter>
    <filter
       id="r"
       x="-.14086"
       y="-.14728"
       width="1.2817"
       height="1.2946"
       color-interpolation-filters="sRGB">
      <feGaussianBlur
         stdDeviation="0.85522795"
         id="feGaussianBlur145" />
    </filter>
    <linearGradient
       id="linearGradient1005-6"
       x1=".73911"
       x2="16.388"
       y1="16.296"
       y2=".64687"
       gradientTransform="matrix(3.4646 0 0 3.4646 2.5458 2.6892)"
       gradientUnits="userSpaceOnUse">
      <stop
         stop-color="#cfdef0"
         offset="0"
         id="stop148" />
      <stop
         stop-color="#f5faff"
         offset=".49575"
         id="stop150" />
      <stop
         stop-color="#f5faff"
         offset="1"
         id="stop152" />
    </linearGradient>
  </defs>
  <path
     d="m59.5 32c0 3.2967-0.58028 6.4574-1.6444 9.387-0.73971 2.0361-1.7128 3.961-2.8892 5.7416-0.49275 0.74863-1.0225 1.4716-1.5849 2.1664-1.8004 2.2235-3.9399 4.1598-6.3418 5.7314-0.8845 0.57919-1.8038 1.109-2.7556 1.5837-3.696 1.8497-7.8684 2.8902-12.284 2.8902s-8.588-1.0405-12.284-2.8903c-0.95186-0.47483-1.8723-1.0046-2.7568-1.5837-2.4324-1.5928-4.5975-3.5595-6.4125-5.8198-0.56342-0.7004-1.0922-1.43-1.5849-2.1854-1.1449-1.751-2.0933-3.6402-2.8184-5.6369-1.064-2.9285-1.6433-6.0882-1.6433-9.3836 0-15.188 12.312-27.5 27.5-27.5 7.6238 0 14.522 3.1024 19.504 8.1129 1.4356 1.4434 2.7119 3.0464 3.7981 4.7793 1.0271 1.6321 1.8857 3.3808 2.5535 5.2204 1.0643 2.9296 1.6445 6.0904 1.6445 9.387z"
     fill="url(#linearGradient1005-6)"
     image-rendering="optimizeSpeed"
     stroke-width=".10742"
     id="path157" />
  <g
     transform="matrix(3.7796 0 0 3.7796 -82.522 3.3896)"
     fill="#5e4aa6"
     image-rendering="optimizeSpeed"
     stroke-width=".26458"
     id="g167">
    <circle
       cx="-330.35"
       cy="-328.38"
       r="0"
       id="circle159" />
    <circle
       cx="-312.11"
       cy="-326.25"
       r="0"
       id="circle161" />
    <circle
       cx="-306.02"
       cy="-333.07"
       r="0"
       id="circle163" />
    <circle
       cx="-308.84"
       cy="-326.01"
       r="0"
       id="circle165" />
  </g>
  <g
     transform="matrix(.87078 0 0 .87078 107.09 4.3094)"
     id="g215">
    <g
       transform="translate(-118.24)"
       id="g177">
      <path
         d="m14.708 48.425c-0.73275 0.65061 1.0931 2.5794 1.7762 1.9844l12.625-11.578-1.8973-2.2457z"
         filter="url(#r)"
         opacity=".35"
         id="path169" />
      <path
         transform="matrix(.11531 0 0 .11457 56.525 7.7287)"
         d="m-358.71 173.18 293.83-0.74576c102.14 47.878 86.752 159.26-140.95 173.76-98.749 6.2883-323.62-69.121-152.88-173.02z"
         filter="url(#s)"
         opacity=".35"
         id="path171" />
      <path
         d="m15.163 26.27 33.881-0.08544c11.777 5.4853 10.003 18.247-16.253 19.908-11.387 0.72045-37.316-7.9192-17.628-19.823z"
         fill="url(#k)"
         id="path173" />
      <path
         transform="matrix(.11531 0 0 .11457 56.525 7.7287)"
         d="m-4.6055 231.46c-1.875 44.747-61.671 90.025-201.22 98.912-72.166 4.5955-211.68-34.443-214.93-96.344-3.457 64.486 141.04 105.52 214.93 100.82 144.21-9.1831 203.26-57.226 201.22-103.39z"
         fill="#7b797d"
         filter="url(#t)"
         id="path175" />
    </g>
    <g
       transform="matrix(.11531 0 0 .11457 -64.632 47.004)"
       stroke-width="2.5947"
       id="g183">
      <path
         d="m-188.7-304.41c-77.491 0.032-140.6 40.86-141.75 91.699l-11.18 118.97c65.929 72.67 227.44 80.599 316.93 0l-24.056-132.58c-11.191-45.009-70.438-78.069-139.94-78.088z"
         fill="url(#d)"
         id="path179" />
      <path
         d="m-336.37-149.66-4.2188 44.891c99.119 60.343 202.7 72.362 313.8-0.48828l-7.6563-42.201c-99.334 64.723-200.13 58.723-301.93-2.2012z"
         fill="url(#j)"
         id="path181" />
    </g>
    <g
       transform="translate(-118.24)"
       id="g191">
      <path
         d="m21.502 28.417 5.1077-0.3625-3.4659 17.037c-2.4428-0.55285-3.8448-1.0023-5.5333-1.4802z"
         fill="url(#m)"
         id="path185" />
      <path
         d="m14.708 48.425c-0.28623 0.93717 2.2773 1.6315 2.5502 0.76772l4.7392-16.461-2.7897-0.92761z"
         fill="url(#l)"
         id="path187" />
      <path
         d="m19.404 31.444 0.79139-2.9597 2.7948 0.42721-0.84988 3.2877-1.6009 0.19405z"
         fill="url(#i)"
         id="path189" />
    </g>
    <path
       d="m-98.752 31.141-0.08085 0.30276 1.1355 0.94923 1.6008-0.19401 0.0768-0.29672c-1.0015 0.10131-1.8769-0.26702-2.7199-0.75634-0.0042-0.0022-0.0082-3e-3 -0.01239-0.0049z"
       fill="#5a5b5d"
       fill-opacity=".12207"
       id="path193" />
    <path
       d="m-99.029 31.804-0.06982 0.25801c0.82516 0.6574 1.7929 0.83314 2.805 0.85905l0.0545-0.18931z"
       fill="#392412"
       id="path195" />
    <path
       d="m-98.777 31.327c-0.3168-0.16702-0.59551 0.37337-0.30403 0.58906 0.85386 0.69916 1.8636 0.87181 2.9187 0.89114 0.30202 0.03193 0.37789-0.71966 0.12161-0.725-1.0084 0.10709-1.8887-0.26319-2.7363-0.75521z"
       fill="url(#h)"
       id="path197" />
    <g
       transform="matrix(.11531 0 0 .11457 -131.1 10.256)"
       stroke-width="2.5947"
       id="g213">
      <path
         d="m327.09 6.7109c-2.4051-3.08e-5 -4.7821 0.13087-7.127 0.38086 36.614 3.8957 65.227 37.545 65.227 78.484 3.9e-4 40.939-28.613 74.589-65.227 78.484 2.3449 0.24998 4.7219 0.38089 7.127 0.38086 39.952-6.6e-4 72.338-35.31 72.338-78.865 4.2e-4 -43.555-32.386-78.865-72.338-78.865z"
         fill="url(#p)"
         id="path199" />
      <path
         d="m312.85 6.7109c-39.952-5.148e-4 -72.34 35.309-72.34 78.865-4.2e-4 43.556 32.388 78.866 72.34 78.865 3.2881-6e-5 6.5235-0.24373 9.6953-0.70704-35.367-5.1651-62.645-38.187-62.645-78.158-3.9e-4 -39.971 27.276-72.99 62.643-78.156-3.1712-0.46312-6.4059-0.70893-9.6934-0.70898z"
         fill="url(#f)"
         id="path201" />
      <path
         d="m326.03 157.73c-36.554 6.4e-4 -66.187-32.305-66.188-72.156 3.1e-4 -39.851 29.634-72.157 66.188-72.156l-11.862-5.654c-34.309 6.1696-60.478 38.658-60.478 77.81-3.8e-4 39.576 26.738 72.343 61.595 78.001"
         fill="url(#q)"
         id="path203" />
      <path
         d="m312.85 6.7109a72.339 78.864 0 0 0-72.34 78.865 72.339 78.864 0 0 0 72.34 78.865 72.339 78.864 0 0 0 72.338-78.865 72.339 78.864 0 0 0-72.338-78.865zm0 6.709a66.186 72.157 0 0 1 66.186 72.156 66.186 72.157 0 0 1-66.186 72.156 66.186 72.157 0 0 1-66.188-72.156 66.186 72.157 0 0 1 66.188-72.156z"
         fill="url(#g)"
         id="path205" />
      <path
         d="m312.85 6.7109a72.339 78.864 0 0 1 5.043 0.19531c-1.6664-0.12515-3.3474-0.19528-5.043-0.19531zm0 0c-15.134-1.941e-4 -29.177 5.074-40.791 13.736a72.339 78.864 0 0 1 40.791-13.736zm5.1523 0.20117a72.339 78.864 0 0 1 7.0059 0.92969c-2.302-0.42499-4.6354-0.74777-7.0059-0.92969zm7.3125 0.98828a72.339 78.864 0 0 1 6.8594 1.6797c-2.245-0.67716-4.5324-1.2388-6.8594-1.6797zm6.916 1.6973a72.339 78.864 0 0 1 6.8066 2.4629c-2.218-0.93982-4.4888-1.7615-6.8066-2.4629zm6.8613 2.4863a72.339 78.864 0 0 1 6.459 3.1523c-2.097-1.1611-4.2504-2.2142-6.459-3.1523zm-26.242 1.3359a66.186 72.157 0 0 0-66.188 72.156 66.186 72.157 0 0 0 66.188 72.156 66.186 72.157 0 0 0 66.186-72.156 66.186 72.157 0 0 0-66.186-72.156zm32.93 1.9434a72.339 78.864 0 0 1 5.9395 3.7148c-1.9203-1.337-3.9014-2.5764-5.9395-3.7148zm6.3496 4.002a72.339 78.864 0 0 1 5.3691 4.1855c-1.7286-1.4811-3.5189-2.8781-5.3691-4.1855zm-80.234 1.209c-1.9009 1.4263-3.7364 2.9477-5.5 4.5605a72.339 78.864 0 0 1 5.5-4.5605zm86.166 3.459a72.339 78.864 0 0 1 4.8594 4.6543c-1.5558-1.628-3.1753-3.1819-4.8594-4.6543zm-92.055 1.4688c-1.6767 1.5555-3.2885 3.1906-4.8281 4.9043a72.339 78.864 0 0 1 4.8281-4.9043zm97.447 3.7402a72.339 78.864 0 0 1 4.4863 5.248c-1.4232-1.8224-2.9188-3.5742-4.4863-5.248zm-102.79 1.7461c-1.4918 1.6945-2.9162 3.4569-4.2656 5.291a72.339 78.864 0 0 1 4.2656-5.291zm107.63 3.9531a72.339 78.864 0 0 1 4.1875 6.0078c-1.3097-2.0762-2.7062-4.0817-4.1875-6.0078zm-112.34 1.959c-1.3579 1.8838-2.6392 3.8352-3.8379 5.8516a72.339 78.864 0 0 1 3.8379-5.8516zm116.62 4.1914a72.339 78.864 0 0 1 12.607 44.484c1.6e-4 -16.505-4.6568-31.82-12.607-44.484zm12.607 44.484a72.339 78.864 0 0 1-0.16602 5.0918c0.0986-1.6852 0.16603-3.3795 0.16602-5.0918zm-133.33-42.383c-1.2347 2.1075-2.3795 4.2819-3.4297 6.5195a72.339 78.864 0 0 1 3.4297-6.5195zm-3.5117 6.6953c-1.0704 2.2949-2.0401 4.6528-2.9043 7.0703a72.339 78.864 0 0 1 2.9043-7.0703zm-2.9297 7.1426c-0.8597 2.412-1.6138 4.8801-2.2559 7.4004a72.339 78.864 0 0 1 2.2559-7.4004zm-2.2773 7.4863c-0.61533 2.426-1.1249 4.8982-1.5273 7.4121a72.339 78.864 0 0 1 1.5273-7.4121zm-1.5977 7.8457c-0.36605 2.3647-0.63236 4.7641-0.80078 7.1953a72.339 78.864 0 0 1 0.80078-7.1953zm-0.86523 8.123c-0.0985 1.6844-0.16603 3.3783-0.16602 5.0898a72.339 78.864 0 0 1 0.16602-5.0898zm-0.16602 5.0898c-1.6e-4 16.498 4.6537 31.806 12.598 44.467a72.339 78.864 0 0 1-12.598-44.467zm144.45 6.0137a72.339 78.864 0 0 1-0.80274 7.2148c0.36743-2.3706 0.63397-4.7773 0.80274-7.2148zm-0.86719 7.6055a72.339 78.864 0 0 1-1.5234 7.4082c0.61407-2.4249 1.122-4.8956 1.5234-7.4082zm-1.5625 7.5605a72.339 78.864 0 0 1-2.252 7.3828c0.85834-2.4064 1.6102-4.8685 2.252-7.3828zm-2.2617 7.4121a72.339 78.864 0 0 1-2.9062 7.0781c1.0708-2.2971 2.0421-4.6582 2.9062-7.0781zm-3.0039 7.2871a72.339 78.864 0 0 1-3.4121 6.4863c1.228-2.0972 2.3668-4.2603 3.4121-6.4863zm-3.6875 6.9551a72.339 78.864 0 0 1-3.8477 5.8633c1.3616-1.8876 2.6459-3.8426 3.8477-5.8633zm-120.34 1.8223c1.304 2.0652 2.694 4.06 4.168 5.9766a72.339 78.864 0 0 1-4.168-5.9766zm116.08 4.6113a72.339 78.864 0 0 1-4.293 5.3281c1.5019-1.7055 2.9354-3.4811 4.293-5.3281zm-111.55 1.8203c1.4215 1.8201 2.913 3.5703 4.4785 5.2422a72.339 78.864 0 0 1-4.4785-5.2422zm106.76 4.0781a72.339 78.864 0 0 1-4.8203 4.8965c1.6739-1.5536 3.2831-3.1852 4.8203-4.8965zm-101.73 1.7324c1.555 1.6265 3.1723 3.1812 4.8555 4.6523a72.339 78.864 0 0 1-4.8555-4.6523zm96.506 3.5488a72.339 78.864 0 0 1-5.5274 4.582c1.911-1.432 3.7549-2.9616 5.5274-4.582zm-91.098 1.5762c1.7262 1.4791 3.5138 2.8737 5.3613 4.1797a72.339 78.864 0 0 1-5.3613-4.1797zm85.463 3.0898a72.339 78.864 0 0 1-40.811 13.752c15.143-2.5e-4 29.193-5.0805 40.811-13.752zm-40.811 13.752a72.339 78.864 0 0 1-5.0391-0.19336c1.6651 0.1249 3.3449 0.19338 5.0391 0.19336zm-38.861-12.361c1.9163 1.3337 3.8941 2.5709 5.9277 3.707a72.339 78.864 0 0 1-5.9277-3.707zm6.1621 3.8379c2.0913 1.1578 4.2391 2.2065 6.4414 3.1426a72.339 78.864 0 0 1-6.4414-3.1426zm6.5215 3.1777c2.2156 0.93837 4.4836 1.7605 6.7988 2.4609a72.339 78.864 0 0 1-6.7988-2.4609zm6.8496 2.4766c2.2414 0.67616 4.5264 1.2351 6.8496 1.6758a72.339 78.864 0 0 1-6.8496-1.6758zm7.1777 1.7402c2.2986 0.42406 4.6273 0.74406 6.9941 0.92578a72.339 78.864 0 0 1-6.9941-0.92578z"
         fill="url(#e)"
         id="path207" />
      <path
         d="m297.42 118.39-17.929 5.8007c-12.027-23.54-6.4341-39.071-3.6913-55.897l22.675 3.164z"
         fill="url(#o)"
         opacity=".252"
         id="path209" />
      <path
         d="m296.58 65.043-18.666-2.5847c-0.57718-26.428 11.22-37.974 21.015-51.928l19.035 12.721z"
         fill="url(#n)"
         opacity=".252"
         id="path211" />
    </g>
  </g>
</svg>
