<?xml version="1.0" encoding="UTF-8"?>
<svg width="64" height="64" version="1.1" xmlns="http://www.w3.org/2000/svg" xmlns:cc="http://creativecommons.org/ns#" xmlns:dc="http://purl.org/dc/elements/1.1/" xmlns:rdf="http://www.w3.org/1999/02/22-rdf-syntax-ns#" xmlns:xlink="http://www.w3.org/1999/xlink">
 <metadata>
  <rdf:RDF>
   <cc:Work rdf:about="">
    <dc:format>image/svg+xml</dc:format>
    <dc:type rdf:resource="http://purl.org/dc/dcmitype/StillImage"/>
    <dc:title/>
   </cc:Work>
  </rdf:RDF>
 </metadata>
 <defs>
  <linearGradient id="b" x1="24" x2="24" y1="26" y2="44" gradientTransform="matrix(1.5,0,0,1.5,-4,-4)" gradientUnits="userSpaceOnUse">
   <stop stop-color="#009632" offset="0"/>
   <stop stop-color="#00783c" offset="1"/>
  </linearGradient>
  <filter id="c" x="-.054049" y="-.067423" width="1.1081" height="1.1348" color-interpolation-filters="sRGB">
   <feGaussianBlur stdDeviation="1.0109576"/>
  </filter>
  <linearGradient id="linearGradient1005-6" x1=".73911" x2="16.388" y1="16.296" y2=".64687" gradientTransform="matrix(3.4646 0 0 3.4646 2.5458 2.6892)" gradientUnits="userSpaceOnUse">
   <stop stop-color="#cfdef0" offset="0"/>
   <stop stop-color="#f5faff" offset=".49575"/>
   <stop stop-color="#f5faff" offset="1"/>
  </linearGradient>
 </defs>
 <path d="m59.5 32c0 3.2967-0.58028 6.4574-1.6444 9.387-0.73971 2.0361-1.7128 3.961-2.8892 5.7416-0.49275 0.74863-1.0225 1.4716-1.5849 2.1664-1.8004 2.2235-3.9399 4.1598-6.3418 5.7314-0.8845 0.57919-1.8038 1.109-2.7556 1.5837-3.696 1.8497-7.8684 2.8902-12.284 2.8902s-8.588-1.0405-12.284-2.8903c-0.95186-0.47483-1.8723-1.0046-2.7568-1.5837-2.4324-1.5928-4.5975-3.5595-6.4125-5.8198-0.56342-0.7004-1.0922-1.43-1.5849-2.1854-1.1449-1.751-2.0933-3.6402-2.8184-5.6369-1.064-2.9285-1.6433-6.0882-1.6433-9.3836 0-15.188 12.312-27.5 27.5-27.5 7.6238 0 14.522 3.1024 19.504 8.1129 1.4356 1.4434 2.7119 3.0464 3.7981 4.7793 1.0271 1.6321 1.8857 3.3808 2.5535 5.2204 1.0643 2.9296 1.6445 6.0904 1.6445 9.387z" fill="url(#linearGradient1005-6)" image-rendering="optimizeSpeed" stroke-width=".10742"/>
 <g transform="matrix(3.7796 0 0 3.7796 -82.522 3.3896)" fill="#5e4aa6" image-rendering="optimizeSpeed" stroke-width=".26458">
  <circle cx="-330.35" cy="-328.38" r="0"/>
  <circle cx="-312.11" cy="-326.25" r="0"/>
  <circle cx="-306.02" cy="-333.07" r="0"/>
  <circle cx="-308.84" cy="-326.01" r="0"/>
 </g>
 <g transform="matrix(.91384 0 0 .89988 2.7177 3.7015)">
  <path d="m45.436 24.81c-0.47961 0.03323-0.93367 0.29824-1.1934 0.74805l-5.2422 9.082c-2.0641-0.5337-4.3642-0.84766-6.959-0.84766s-4.893 0.31396-6.957 0.84766l-5.2422-9.082c-0.31162-0.53985-0.90426-0.81103-1.4844-0.73828-0.19338 0.024-0.38649 0.0861-0.56641 0.18945-0.71966 0.4155-0.96237 1.3291-0.54688 2.0488l4.9297 8.5391c-7.3847 3.0509-10.893 9.4478-12.576 15.045a30 30 0 0 0 22.443 10.15 30 30 0 0 0 22.447-10.139c-1.6818-5.5998-5.1896-12.003-12.578-15.057l4.9316-8.5391c0.4155-0.7197 0.16889-1.6333-0.55078-2.0488-0.26987-0.15581-0.5677-0.21915-0.85547-0.19922z" filter="url(#c)" opacity=".1" stroke-opacity=".55" stroke-width="2.8"/>
  <path d="m45.395 26.018c-0.47961 0.03323-0.93367 0.29824-1.1934 0.74805l-5.2422 9.082c-2.0641-0.5337-4.3642-0.84766-6.959-0.84766s-4.893 0.31396-6.957 0.84766l-5.2422-9.082c-0.31162-0.53985-0.90426-0.81103-1.4844-0.73828-0.19338 0.024-0.38649 0.0861-0.56641 0.18945-0.71966 0.4155-0.96237 1.3291-0.54688 2.0488l4.9297 8.5391c-7.3847 3.0509-10.893 9.4478-12.576 15.045a30 30 0 0 0 22.443 10.15 30 30 0 0 0 22.447-10.139c-1.6818-5.5998-5.1896-12.003-12.578-15.057l4.9316-8.5391c0.4155-0.7197 0.16889-1.6333-0.55078-2.0488-0.26987-0.15581-0.5677-0.21915-0.85547-0.19922z" fill="url(#b)" stroke-opacity=".55" stroke-width="2.8"/>
  <circle cx="23" cy="50" r="3" fill="#fff"/>
  <circle cx="41" cy="50" r="3" fill="#fff"/>
 </g>
 <g transform="translate(-.3709)" fill="#232323" stroke-opacity=".55" stroke-width="2.8">
  <rect x="24.871" y="14" width="5" height="10" ry="1" opacity=".15"/>
  <rect x="34.871" y="14" width="5" height="10" ry="1" opacity=".15"/>
 </g>
</svg>
