<?xml version="1.0" encoding="UTF-8"?>
<!-- Created with Inkscape (http://www.inkscape.org/) -->
<svg width="64" height="64" version="1.1" viewBox="0 0 16.933 16.933" xmlns="http://www.w3.org/2000/svg" xmlns:cc="http://creativecommons.org/ns#" xmlns:dc="http://purl.org/dc/elements/1.1/" xmlns:rdf="http://www.w3.org/1999/02/22-rdf-syntax-ns#" xmlns:xlink="http://www.w3.org/1999/xlink">
 <defs>
  <linearGradient id="SVGID_35_" x1="213.77" x2="213.77" y1="251.43" y2="227.41" gradientTransform="matrix(1.0667 0 0 -1.0667 3.2667 557.53)" gradientUnits="userSpaceOnUse">
   <stop stop-color="#5B6A6A" offset="0"/>
   <stop stop-color="#303033" offset="1"/>
  </linearGradient>
  <linearGradient id="SVGID_36_" x1="260.08" x2="260.08" y1="251.43" y2="227.41" gradientTransform="matrix(1.0667 0 0 -1.0667 3.2667 557.53)" gradientUnits="userSpaceOnUse">
   <stop stop-color="#5B6A6A" offset="0"/>
   <stop stop-color="#303033" offset="1"/>
  </linearGradient>
  <linearGradient id="SVGID_34_" x1="371.26" x2="399.21" y1="306.77" y2="278.82" gradientTransform="matrix(.033305 0 0 -.033305 -2.4712 18.623)" gradientUnits="userSpaceOnUse">
   <stop stop-color="#D63305" offset="0"/>
   <stop stop-color="#960000" offset="1"/>
  </linearGradient>
  <linearGradient id="SVGID_33_" x1="287.97" x2="315.92" y1="306.77" y2="278.82" gradientTransform="matrix(.033305 0 0 -.033305 -2.4712 18.623)" gradientUnits="userSpaceOnUse">
   <stop stop-color="#FFCF95" offset="0"/>
   <stop stop-color="#FFC954" offset=".427"/>
   <stop stop-color="#FFC200" offset="1"/>
  </linearGradient>
  <linearGradient id="SVGID_32_" x1="329.49" x2="357.44" y1="348.29" y2="320.34" gradientTransform="matrix(.033305 0 0 -.033305 -2.4712 18.623)" gradientUnits="userSpaceOnUse">
   <stop stop-color="#7BD101" offset="0"/>
   <stop stop-color="#5CCD0B" offset=".262"/>
   <stop stop-color="#08C126" offset="1"/>
  </linearGradient>
  <linearGradient id="SVGID_31_" x1="320.9" x2="302.86" y1="273.84" y2="291.88" gradientTransform="matrix(.03217 -.00862 -.00862 -.03217 2.4331 18.629)" gradientUnits="userSpaceOnUse">
   <stop stop-color="#5B6A6A" offset="0"/>
   <stop stop-color="#303033" offset="1"/>
  </linearGradient>
  <linearGradient id="SVGID_30_" x1="362.48" x2="344.42" y1="315.31" y2="333.37" gradientTransform="matrix(.03217 -.00862 -.00862 -.03217 2.4331 18.629)" gradientUnits="userSpaceOnUse">
   <stop stop-color="#5B6A6A" offset="0"/>
   <stop stop-color="#303033" offset="1"/>
  </linearGradient>
  <linearGradient id="SVGID_28_" x1="329.49" x2="357.44" y1="265.25" y2="237.3" gradientTransform="matrix(.033305 0 0 -.033305 -2.4712 18.623)" gradientUnits="userSpaceOnUse">
   <stop stop-color="#00A6F9" offset="0"/>
   <stop stop-color="#0071E2" offset="1"/>
  </linearGradient>
  <linearGradient id="SVGID_26_" x1="362.53" x2="344.47" y1="232.22" y2="250.28" gradientTransform="matrix(.03217 -.00862 -.00862 -.03217 2.4331 18.629)" gradientUnits="userSpaceOnUse">
   <stop stop-color="#5B6A6A" offset="0"/>
   <stop stop-color="#303033" offset="1"/>
  </linearGradient>
  <linearGradient id="SVGID_25_" x1="404.14" x2="386.14" y1="273.88" y2="291.89" gradientTransform="matrix(.03217 -.00862 -.00862 -.03217 2.4331 18.629)" gradientUnits="userSpaceOnUse">
   <stop stop-color="#5B6A6A" offset="0"/>
   <stop stop-color="#303033" offset="1"/>
  </linearGradient>
  <linearGradient id="SVGID_23_" x1="358.38" x2="358.38" y1="301.28" y2="228.63" gradientTransform="matrix(.03217 -.00862 -.00862 -.03217 2.4331 18.629)" gradientUnits="userSpaceOnUse">
   <stop stop-color="#5B6A6A" offset="0"/>
   <stop stop-color="#303033" offset="1"/>
  </linearGradient>
  <linearGradient id="SVGID_21_" x1="316.79" x2="316.79" y1="342.86" y2="270.21" gradientTransform="matrix(.03217 -.00862 -.00862 -.03217 2.4331 18.629)" gradientUnits="userSpaceOnUse">
   <stop stop-color="#5B6A6A" offset="0"/>
   <stop stop-color="#303033" offset="1"/>
  </linearGradient>
  <linearGradient id="SVGID_20_" x1="298" x2="298" y1="207.92" y2="149.41" gradientTransform="matrix(.033305 0 0 -.033305 -2.4712 18.623)" gradientUnits="userSpaceOnUse">
   <stop stop-color="#5B6A6A" offset="0"/>
   <stop stop-color="#303033" offset="1"/>
  </linearGradient>
  <linearGradient id="SVGID_18_" x1="298" x2="298" y1="162.49" y2="227.31" gradientTransform="matrix(.033305 0 0 -.033305 -2.4712 18.623)" gradientUnits="userSpaceOnUse">
   <stop stop-color="#97AAAA" offset="0"/>
   <stop stop-color="#E8EFEE" offset="1"/>
  </linearGradient>
  <linearGradient id="SVGID_17_" x1="298" x2="298" y1="223.35" y2="141.16" gradientTransform="matrix(.033305 0 0 -.033305 -2.4712 18.623)" gradientUnits="userSpaceOnUse">
   <stop stop-color="#fff" offset="0"/>
   <stop stop-color="#E8EFEE" offset="1"/>
  </linearGradient>
  <linearGradient id="SVGID_16_" x1="175.85" x2="175.85" y1="207.92" y2="149.41" gradientTransform="matrix(.033305 0 0 -.033305 -2.4712 18.623)" gradientUnits="userSpaceOnUse">
   <stop stop-color="#5B6A6A" offset="0"/>
   <stop stop-color="#303033" offset="1"/>
  </linearGradient>
  <linearGradient id="SVGID_14_" x1="175.85" x2="175.85" y1="162.49" y2="227.31" gradientTransform="matrix(.033305 0 0 -.033305 -2.4712 18.623)" gradientUnits="userSpaceOnUse">
   <stop stop-color="#97AAAA" offset="0"/>
   <stop stop-color="#E8EFEE" offset="1"/>
  </linearGradient>
  <linearGradient id="SVGID_13_" x1="175.85" x2="175.85" y1="223.35" y2="141.16" gradientTransform="matrix(.033305 0 0 -.033305 -2.4712 18.623)" gradientUnits="userSpaceOnUse">
   <stop stop-color="#fff" offset="0"/>
   <stop stop-color="#E8EFEE" offset="1"/>
  </linearGradient>
  <linearGradient id="SVGID_11_" x1="136.53" x2="136.53" y1="332.5" y2="271.22" gradientTransform="matrix(.03217 -.00862 -.00862 -.03217 2.4331 18.629)" gradientUnits="userSpaceOnUse">
   <stop stop-color="#5B6A6A" offset="0"/>
   <stop stop-color="#303033" offset="1"/>
  </linearGradient>
  <linearGradient id="SVGID_9_" x1="136.02" x2="136.02" y1="427.08" y2="205.27" gradientTransform="matrix(.033305 0 0 -.033305 -2.4712 18.623)" gradientUnits="userSpaceOnUse">
   <stop stop-color="#fff" offset="0"/>
   <stop stop-color="#E8EFEE" offset="1"/>
  </linearGradient>
  <linearGradient id="SVGID_7_" x1="337.68" x2="337.68" y1="405.48" y2="212.51" gradientTransform="matrix(.033305 0 0 -.033305 -2.4712 18.623)" gradientUnits="userSpaceOnUse">
   <stop stop-color="#fff" offset="0"/>
   <stop stop-color="#E8EFEE" offset="1"/>
  </linearGradient>
  <linearGradient id="SVGID_5_" x1="415.97" x2="289.99" y1="209.97" y2="284.46" gradientTransform="matrix(.03217 -.00862 -.00862 -.03217 2.4331 18.629)" gradientUnits="userSpaceOnUse">
   <stop stop-color="#C2CECE" stop-opacity="0" offset="0"/>
   <stop stop-color="#AFBCBC" stop-opacity=".179" offset=".179"/>
   <stop stop-color="#5B6A6A" offset="1"/>
  </linearGradient>
  <linearGradient id="SVGID_4_" x1="47.937" x2="218.81" y1="214.76" y2="43.895" gradientTransform="matrix(.03217 -.00862 -.00862 -.03217 2.4331 18.629)" gradientUnits="userSpaceOnUse">
   <stop stop-color="#C2CECE" stop-opacity="0" offset="0"/>
   <stop stop-color="#AFBCBC" stop-opacity=".179" offset=".179"/>
   <stop stop-color="#5B6A6A" offset="1"/>
  </linearGradient>
  <linearGradient id="SVGID_3_" x1="236.94" x2="236.94" y1="499.1" y2="188.45" gradientTransform="matrix(.03217 -.00862 -.00862 -.03217 2.4331 18.629)" gradientUnits="userSpaceOnUse">
   <stop stop-color="#fff" offset="0"/>
   <stop stop-color="#E8EFEE" offset="1"/>
  </linearGradient>
 </defs>
 <metadata>
  <rdf:RDF>
   <cc:Work rdf:about="">
    <dc:format>image/svg+xml</dc:format>
    <dc:type rdf:resource="http://purl.org/dc/dcmitype/StillImage"/>
    <dc:title/>
   </cc:Work>
  </rdf:RDF>
 </metadata>
 <g transform="translate(-21.834 .89695)" fill="#5e4aa6" stroke-width=".26458">
  <circle cx="-330.35" cy="-328.38" r="0"/>
  <circle cx="-312.11" cy="-326.25" r="0"/>
  <circle cx="-306.02" cy="-333.07" r="0"/>
  <circle cx="-308.84" cy="-326.01" r="0"/>
 </g>
 <g stroke-width=".031222">
  <path d="m16.006 8.307c0.12205 0.19938 0.21766 0.41978 0.28133 0.6574 0.23274 0.8686-0.02151 1.753-0.59528 2.3632-0.07223 0.0776-0.15022 0.15041-0.23276 0.21814-0.02065 0.01726-0.04186 0.03427-0.06357 0.05088-0.25377 0.19532-0.54957 0.34501-0.87857 0.43317-0.66557 0.17834-1.3404 0.07112-1.8938-0.24699-0.0017-9.54e-4 -0.0037-0.0021-0.0053-0.0031-5.78e-4 -3.34e-4 -1e-3 -5.86e-4 -0.0017-9.54e-4 -0.0075-0.0044-0.01495-0.0086-0.02245-0.01296-0.0203-0.01172-0.04046-0.023-0.06069-0.03433-0.02016-0.01128-0.04036-0.02262-0.06085-0.03335-0.01804-0.01006-0.03642-0.0196-0.05424-0.02882-0.01158-0.0063-0.02368-0.01264-0.0352-0.01856-0.0048-0.0024-0.0099-0.0046-0.0145-7e-3 -0.0017-9.55e-4 -0.0028-2e-3 -0.0044-0.0025-0.01622-0.0083-0.03232-0.01616-0.04854-0.02445-0.02966-0.01465-0.05932-0.02923-0.08926-0.04336-0.03424-0.01655-0.06922-0.03249-0.1035-0.04768-0.0048-0.0024-0.01017-0.0045-0.01546-0.0072-1e-3 -5.86e-4 -2e-3 -8.74e-4 -0.0026-0.0011 0 0-5.78e-4 -3.34e-4 -1e-3 -5.84e-4 -4.55e-4 1.23e-4 -9.19e-4 -2.41e-4 -0.0021-8.45e-4 -0.01017-0.0045-0.01993-0.0086-0.02962-0.01281-0.0026-0.0011-0.0051-0.0023-0.0077-0.0033-0.021-0.0092-0.0419-0.01813-0.06265-0.02656-0.0026-0.0011-0.0051-0.0023-0.0076-0.0029-0.0057-3e-3 -0.01187-0.0054-0.01791-0.0079-4e-3 -0.0016-0.0081-0.0032-0.01214-0.0049-0.0031-0.0015-0.0056-0.0026-0.0087-0.0035-0.01739-0.0076-0.03494-0.01411-0.05262-0.0211-0.0077-0.0033-0.01567-0.0062-0.02362-9e-3 -0.01377-0.0058-0.02778-0.01107-0.04184-0.01633-4e-3 -0.0016-0.0081-0.0032-0.01203-0.0045-0.01917-0.0075-0.03767-0.01428-0.05719-0.02127-0.0094-0.0032-0.0185-0.0067-0.02787-0.0096-0.0022-0.0011-0.0042-2e-3 -0.0064-0.0024-0.0034-0.0013-0.0065-0.0028-0.01006-4e-3l-4.56e-4 1.23e-4c-0.0464-0.01648-0.093-0.03198-0.13948-0.04706-0.0119-4e-3 -0.02373-0.0077-0.03606-0.01157-0.0099-0.0031-0.02021-0.0063-0.03041-9e-3 -4e-3 -0.0016-0.0076-0.0029-0.01131-0.0033l-1.22e-4 -4.55e-4 -4.56e-4 1.22e-4c-5e-3 -0.0018-0.01041-0.0035-0.01584-0.0052-0.01131-0.0033-0.02252-0.0066-0.03381-0.01-0.01722-0.0053-0.03435-0.01027-0.05178-0.01457-0.0168-0.0054-0.03337-0.01006-0.0504-0.01448-0.0016-4.49e-4 -0.0029-6.31e-4 -0.0044-1e-3 -0.0029-6.31e-4 -0.0063-2e-3 -0.01017-0.0027-0.0058-0.0016-0.01211-0.0031-0.01793-0.0047-0.03697-0.01-0.07373-0.01906-0.11092-0.02807-5.78e-4 -3.34e-4 -0.0015-1.07e-4 -2e-3 -8.74e-4l-4.55e-4 1.23e-4c-0.03758-0.0089-0.07562-0.01766-0.1134-0.02559-0.02207-0.0049-0.04405-0.0094-0.06602-0.01392-0.01868-4e-3 -0.03725-0.0077-0.05625-0.01111-0.0016-4.48e-4 -3e-3 -1e-3 -0.0044-1e-3 1.23e-4 4.56e-4 -4.56e-4 1.22e-4 -4.56e-4 1.22e-4 -0.01433-0.0029-0.02816-0.0055-0.04235-0.0081-9.21e-4 -2.43e-4 -0.0019-3.42e-4 -0.0027-1.27e-4 -0.01046-0.0022-0.02141-0.0041-0.03235-0.0062-0.02313-0.0037-0.04583-0.0076-0.06894-0.01133-0.01046-0.0022-0.0213-0.0037-0.03159-0.0051-0.0089-0.0012-0.01836-0.0028-0.02726-0.0039-0.0016-4.49e-4 -0.0025-7.4e-4 -0.0037-3.9e-4 -6.71e-4 -6.75e-4 -0.0016-4.48e-4 -0.0019-3.68e-4 -0.0052-8.7e-4 -0.01085-0.0016-0.01612-0.0029-0.0093-0.0011-0.01922-0.0026-0.02905-0.0039-0.0047-4.76e-4 -0.0093-0.0011-0.01356-0.0018l-4.56e-4 1.22e-4c-0.0023-2.33e-4 -0.0048-9.76e-4 -0.0067-0.0013l-4.57e-4 1.23e-4c-0.01085-0.0016-0.02151-0.0028-0.03223-4e-3 -0.0061-1e-3 -0.01176-0.0018-0.01781-0.0024-8e-3 -9.72e-4 -0.0159-0.0021-0.02376-0.0027-0.01591-0.0021-0.03178-0.0042-0.04761-0.0058-0.0098-1e-3 -0.02007-0.0024-0.02978-0.0033-0.0027-1.26e-4 -0.0054-2.6e-4 -0.0084-8.65e-4 -0.02872-0.0027-0.05753-0.0058-0.08657-8e-3 -0.0047-4.75e-4 -0.0098-1e-3 -0.01483-0.0013-0.037-0.0032-0.07425-0.0058-0.11153-0.0085-0.01514-8.84e-4 -0.03028-0.0018-0.0454-0.0027-0.02703-0.0013-0.05344-0.0024-0.08036-0.0033l-0.05335-2e-3c-0.02773-7.32e-4 -0.05492-0.0011-0.08264-0.0018-0.0063-1.19e-4 -0.01232-3.5e-4 -0.01809-9.3e-5 -0.02626-1.6e-4 -0.052466-3.87e-4 -0.078475 2.76e-4l-4.555e-4 1.22e-4c-0.00101-5.84e-4 -0.00187-3.51e-4 -0.0027-1.18e-4 -5.779e-4 -3.34e-4 -9.202e-4 -2.43e-4 -0.00135-1.18e-4 -0.027493 1.71e-4 -0.055007 2.91e-4 -0.082821 9.56e-4 -0.017035 4.84e-4 -0.034465 1e-3 -0.05148 0.0016-0.024194 6.82e-4 -0.04872 0.0018-0.07281 0.0028-0.023239 8.57e-4 -0.046427 2e-3 -0.069438 0.0037-0.016932 8.82e-4 -0.034216 2e-3 -0.051137 0.0029-0.029257 0.0021-0.058431 0.0044-0.088009 7e-3 -0.014047 0.0016-0.028199 0.0026-0.04237 0.0036-0.036146 0.0033-0.072571 0.0073-0.10845 0.01144-0.064808 0.0075-0.12973 0.01624-0.19387 0.02621-0.024363 0.0034-0.048541 0.0077-0.072401 0.01123-0.036712 0.0062-0.073288 0.01288-0.11018 0.02008-0.011292 0.0017-0.022458 0.0037-0.033515 0.0063-0.033966 0.0064-0.067795 0.01323-0.10186 0.02096-0.037628 0.0078-0.075072 0.01647-0.11193 0.02548-0.00773 0.0016-0.01487 0.0035-0.022016 0.0054-0.039102 0.0091-0.077965 0.01907-0.11672 0.02945l-0.00296 7.92e-4c-0.025695 0.0068-0.050846 0.01411-0.076027 0.02123l-0.0114 3e-3c-0.011792 0.0031-0.02304 0.0066-0.03474 0.01017l-0.00803 0.0022c-0.0038 1e-3 -0.00791 0.0026-0.01167 0.0036-0.00253 6.8e-4 -0.00504 0.0013-0.00707 0.0024-0.010943 0.0029-0.022195 0.0064-0.033051 0.0098-0.012936 0.0039-0.025481 0.0077-0.038323 0.01199-0.00998 0.0031-0.019571 0.0061-0.029147 0.0092-0.00504 0.0013-0.00998 0.0031-0.014926 0.0049-0.00296 7.92e-4 -0.00631 0.0017-0.00905 0.0033-0.00546 0.0015-0.010943 0.0029-0.016222 0.0052-0.00338 9.06e-4 -0.00719 2e-3 -0.0104 0.0033-0.01749 0.0055-0.034812 0.01159-0.052166 0.01763-0.00211 5.64e-4 -0.00452 0.0017-0.00664 0.0023-0.00367 0.0015-0.00748 0.0025-0.011186 0.0038l-4.56e-4 1.22e-4c-0.010312 0.0036-0.020229 0.0072-0.030091 0.01075-0.020651 0.0073-0.040767 0.01458-0.061417 0.02183-0.00242 0.0011-0.00492 0.0018-0.0074 0.0028-0.00946 0.0034-0.01851 0.0066-0.02742 0.01047-0.018906 0.0068-0.037312 0.01408-0.055718 0.02127l1.222e-4 4.56e-4c-5.782e-4 -3.33e-4 -4.56e-4 1.22e-4 -4.56e-4 1.22e-4l-4.56e-4 1.23e-4c-0.00296 7.91e-4 -0.00576 0.0021-0.00862 0.0032-0.011186 0.0038-0.022175 0.0082-0.032696 0.01284-0.0314 0.01249-0.062724 0.0254-0.093514 0.0386-0.00326 0.0013-0.00655 0.0026-0.00975 4e-3 -0.00253 6.79e-4 -0.00452 0.0017-0.00697 0.0027-0.00525 0.0023-0.01097 0.0047-0.016188 0.0071-4.56e-4 1.23e-4 -0.00127 3.39e-4 -0.00155 9.02e-4 -0.013026 0.0053-0.025628 0.01052-0.038436 0.01664-4.558e-4 1.22e-4 -4.558e-4 1.22e-4 -7.979e-4 2.15e-4 -0.00964 0.0045-0.019745 0.0089-0.02942 0.01325-0.011785 0.0049-0.023439 0.01037-0.035058 0.01573-0.030233 0.01348-0.059828 0.02776-0.089849 0.04214-0.015659 0.0073-0.031152 0.01512-0.046388 0.02231-0.012387 6e-3 -0.024353 0.0119-0.036183 0.01829-0.00209 5.58e-4 -0.00367 0.0015-0.00511 0.0028-0.00609 0.0025-0.01165 0.0054-0.017497 0.0088-0.00684 0.0032-0.013546 0.0067-0.019953 0.0099-0.00596 3e-3 -0.011858 0.0063-0.017389 0.0091l-4.559e-4 1.23e-4c-0.00596 3e-3 -0.01228 0.0064-0.017812 0.0092-0.00283 0.0012-0.00525 0.0023-0.00795 0.0039-0.00985 0.0053-0.019422 0.01017-0.028827 0.01546-0.00715 0.0037-0.013836 0.0074-0.020553 0.01087-0.00316 0.0017-0.00627 0.0035-0.00943 0.0052-0.011435 0.0062-0.022873 0.01247-0.034279 0.01863-0.00274 0.0016-0.00553 0.0029-0.00828 0.0045-0.01412 0.0079-0.028299 0.01575-0.042318 0.02399-0.00358 0.0018-0.00757 0.0038-0.011014 6e-3 -0.00155 9.02e-4 -0.00358 0.0018-5e-3 0.0032l-4.56e-4 1.23e-4c-0.040466 0.02257-0.08014 0.04629-0.11984 0.07003-0.00461 0.0029-0.00932 0.0056-0.013904 0.0087-0.00155 9.02e-4 -0.00316 0.0017-0.00469 0.0027-0.00387 0.0024-0.00774 0.0048-0.011509 0.0076 0 0-1.222e-4 -4.55e-4 -4.559e-4 1.22e-4 -0.0043 0.0026-0.00901 0.0051-0.013199 0.0081-0.021362 0.01292-0.042175 0.0262-0.063299 0.04002-0.011301 0.0066-0.022418 0.01417-0.033482 0.02161-0.023548 0.0149-0.046564 0.03009-0.069469 0.0457-0.00693 0.0046-0.013403 0.0089-0.019569 0.01298-0.00532 0.0036-0.011086 0.0075-0.016434 0.01117-0.00532 0.0036-0.010664 0.0074-0.015904 0.01145-0.014985 0.0099-0.03021 0.02031-0.044535 0.03092-0.00532 0.0036-0.010664 0.0074-0.015589 0.01095-0.00459 3e-3 -0.0095 0.0066-0.013979 0.01006-0.00992 0.0067-0.019746 0.01388-0.029569 0.02102-0.00652 0.0045-0.012876 0.0092-0.019355 0.01378-0.010872 0.0083-0.021401 0.01615-0.031845 0.02434-0.00763 0.0052-0.014744 0.01072-0.021854 0.01628-0.00387 0.0024-0.00763 0.0052-0.01098 0.0079-0.00303 0.0022-0.00563 0.0041-0.00813 0.0066-0.00605 0.0044-0.012137 0.0086-0.018087 0.01344-0.014322 0.0106-0.028077 0.02152-0.041445 0.03231-0.00479 0.0039-0.010167 0.0077-0.014925 0.01173-0.00365 0.0032-0.00782 0.0062-0.011475 0.0094l-4.559e-4 1.22e-4c-0.00232 0.0015-0.00409 0.0033-0.00628 0.0053-0.0049 0.0035-0.00971 0.0076-0.014637 0.01112-0.00521 4e-3 -0.010053 0.0081-0.015133 0.01265-0.00855 0.0068-0.017107 0.0136-0.025235 0.0203-0.02442 0.02009-0.048388 0.04006-0.072304 0.06045-0.00669 0.0054-0.012815 0.01116-0.019077 0.01639-0.00344 0.0023-0.00669 0.0054-0.010344 0.0086 0 0-3.337e-4 5.79e-4 -4.559e-4 1.22e-4 -0.00813 0.0066-0.015762 0.01367-0.023659 0.02124-0.00628 0.0053-0.012105 0.01044-0.017952 0.01563-0.00448 0.0034-0.00886 0.0074-0.012706 0.01157-0.00155 9.02e-4 -0.00303 0.0022-0.00397 0.0037-0.00605 0.0044-0.011475 0.0094-0.017313 0.01453-0.00981 0.0089-0.019578 0.01789-0.029396 0.02686-0.049821 0.04495-0.098313 0.09138-0.14617 0.1385-0.016853 0.01625-0.033929 0.03346-0.050544 0.05059-0.00497 5e-3 -0.010281 0.01049-0.015306 0.01538-0.00925 0.0092-0.018397 0.01892-0.027656 0.02816-0.00386 0.0041-0.00799 0.0089-0.011854 0.01306-0.00114 7.94e-4 -0.00187 0.0013-0.0025 0.0025-0.00468 0.0044-0.00883 0.0091-0.013122 0.01339-0.00397 0.0037-0.00739 0.0078-0.01091 0.01152-0.00571 0.0056-0.010911 0.01152-0.016399 0.01794-0.016624 0.0171-0.032742 0.03451-0.04872 0.05232-0.038844 0.04202-0.076531 0.08509-0.11344 0.12928-0.020365 0.02352-0.040554 0.04746-0.060278 0.07168-0.00271 0.0034-0.00553 0.0064-0.00816 0.01-0.00953 0.01158-0.019068 0.02318-0.028069 0.03506-0.021774 0.02658-0.043005 0.0535-0.064128 0.08083-3.337e-4 5.79e-4 -6.757e-4 6.7e-4 -5.842e-4 1e-3 -0.025753 0.03357-0.051161 0.06698-0.07616 0.10167-0.00444 0.0053-0.00827 0.01124-0.012629 0.01693-0.024411 0.03362-0.048672 0.06771-0.072332 0.10245-0.018923 0.02721-0.037372 0.05427-0.055623 0.08218-0.010001 0.01491-0.019913 0.03016-0.02981 0.04545-0.022075 0.03391-0.044004 0.06824-0.065351 0.1033-0.011722 0.0185-0.023282 0.03785-0.034468 0.05666-0.011187 0.01881-0.022324 0.03804-0.033406 0.05724-9.136e-4 0.0017-0.00218 0.0037-0.00352 0.0055-0.0043 0.0075-0.00863 0.01495-0.012652 0.02191-0.00267 0.0052-0.00546 0.01006-0.00778 0.01473-0.00678 0.0117-0.013555 0.02348-0.020249 0.03565 0.00256-0.0056 0.00593-0.01147 0.00903-0.01687-0.32184 0.53951-0.84602 0.95902-1.5011 1.1345-1.3356 0.35775-2.7083-0.43482-3.066-1.7697-0.066482-0.24812-0.093109-0.49744-0.083975-0.74141 6.5371e-4 -0.02277 0.001774-0.0456 0.003424-0.06818l0.21039-4.1371c0.001141-0.027846 0.002241-0.05571 0.003808-0.083639 4.4383e-4 -0.011852 0.001318-0.02382 0.002148-0.035775 0.001598-0.026157 0.003673-0.052024 0.00609-0.078369 4.0763e-4 -0.00509 7.833e-4 -0.010585 0.001515-0.016211 0.00304-0.032427 0.006515-0.06494 0.010859-0.097716-1.1303e-4 -4.218e-4 -2.2601e-4 -8.435e-4 1.176e-4 -0.00138 0.00322-0.028402 0.0073-0.057069 0.011767-0.085772 8.464e-4 -0.00698 0.00165-0.013987 0.00296-0.02109 0.00484-0.032458 0.010544-0.065114 0.016462-0.096954 0.012047-0.067816 0.026474-0.13533 0.043354-0.20214 0.00823-0.033364 0.016953-0.066411 0.026143-0.099549 0.32041-1.1631 1.2319-2.1306 2.4821-2.4656 0.62094-0.16638 1.2472-0.15586 1.826 6.001e-4 0.24918 0.067311 0.50269 0.10007 0.75498 0.099737 0.50927-8.45e-5 1.0114-0.13462 1.4525-0.38919 0.21866-0.12586 0.42179-0.28097 0.60397-0.46387 0.423-0.42485 0.96014-0.74714 1.581-0.91351 1.2503-0.335 2.5234 0.047169 3.3824 0.89422 0.02453 0.024104 0.04865 0.048381 0.0724 0.073141 0.04799 0.04943 0.09426 0.10071 0.13862 0.15337 0.02103 0.024586 0.04231 0.050078 0.06273 0.075735 0.0065 0.00771 0.01288 0.015977 0.01863 0.023906 0.01536 0.018476 0.02992 0.037592 0.04411 0.056804 0.0046 0.00553 0.0088 0.011187 0.0128 0.017322 0.01719 0.022061 0.03367 0.044702 0.04969 0.067494 0.04128 0.058014 0.08078 0.11787 0.11874 0.17858l0.3115 0.48181 1.9155 2.9601c0.0023 0.00345 0.0045 0.00655 0.0067 0.00992 8.05e-4 0.00118 0.0013 0.00189 0.0022 0.00306l0.06408 0.099297c0.0015 0.00229 0.0029 0.00459 0.0047 0.00735z" fill="url(#SVGID_3_)"/>
  <path d="m6.9245 12.052c-0.010664 0.0074-0.021221 0.01514-0.031342 0.02285-0.00574 0.0038-0.011402 8e-3 -0.016898 0.01269-7.979e-4 2.13e-4 -0.00155 9.01e-4 -0.00242 0.0011-0.010873 0.0083-0.021402 0.01615-0.031846 0.02434-0.00763 0.0052-0.014745 0.01072-0.021853 0.01628-0.00387 0.0024-0.00763 0.0052-0.01098 0.0079-0.00908 0.0065-0.017636 0.01332-0.026221 0.02012-0.014322 0.0106-0.028078 0.02152-0.041445 0.03231-0.00479 0.0039-0.00971 0.0076-0.014925 0.01173-0.00461 0.0029-0.00866 0.0064-0.012741 0.0098-0.020034 0.01619-0.04048 0.03253-0.060398 0.04916-0.024111 0.01956-0.048494 0.03966-0.072304 0.06045-0.00114 7.94e-4 -0.00219 2e-3 -0.00334 0.0027-0.00521 4e-3 -0.010764 0.0087-0.015762 0.01367-0.00344 0.0023-0.00669 0.0054-0.010344 0.0086 0 0-3.338e-4 5.79e-4 -4.56e-4 1.22e-4 -0.013974 0.01191-0.027828 0.02414-0.041611 0.03687-0.00448 0.0034-0.00886 0.0074-0.013207 0.01128-7e-3 0.0059-0.013866 0.0123-0.020733 0.01864-0.00981 0.0089-0.019579 0.01789-0.029398 0.02685-0.00219 2e-3 -0.00468 0.0044-0.0069 0.0063-0.047182 0.04287-0.093647 0.08696-0.13934 0.13214-0.016852 0.01625-0.033927 0.03346-0.050543 0.05059-0.00497 5e-3 -0.010281 0.01049-0.015307 0.01538-0.018509 0.0185-0.036822 0.03786-0.055103 0.05722-0.00397 0.0037-0.00739 0.0078-0.01091 0.01152-0.00173 0.0019-0.00355 0.0036-0.00497 5e-3 -0.00387 0.0041-0.00768 0.0084-0.011963 0.01266-0.016089 0.0174-0.032198 0.03485-0.048182 0.05264-0.038844 0.04202-0.076531 0.08509-0.11344 0.12928-0.020365 0.02352-0.040554 0.04746-0.060277 0.07168-0.00271 0.0034-0.00553 0.0064-0.00816 0.01-0.00953 0.01158-0.019068 0.02318-0.028069 0.03506-0.021774 0.02658-0.043005 0.05351-0.064128 0.08083-3.337e-4 5.78e-4 -6.757e-4 6.7e-4 -5.838e-4 1e-3 -0.025753 0.03357-0.05116 0.06698-0.07616 0.10167-0.00444 0.0053-0.00827 0.01124-0.012628 0.01693-0.024413 0.03364-0.048674 0.06771-0.072333 0.10245-0.018921 0.02721-0.037372 0.05426-0.055623 0.08217-0.010001 0.0149-0.019913 0.03016-0.02981 0.04545-0.022075 0.03391-0.044004 0.06823-0.06535 0.1033-0.018675 0.02983-0.037054 0.06052-0.055194 0.09065-0.0011 0.0026-0.00267 0.0052-0.00419 0.0079l-0.012034 0.02084c-0.010292 0.0172-0.020045 0.03472-0.029801 0.05224-5.842e-4 1e-3 -0.00122 0.0021-0.00187 0.0032-0.32184 0.53952-0.84602 0.95902-1.5011 1.1345-1.3353 0.35776-2.708-0.43479-3.0657-1.7697-0.066482-0.24811-0.093109-0.49744-0.083975-0.74141 6.5381e-4 -0.02277 0.001774-0.0456 0.003424-0.06818l0.20989-4.1371c0.001141-0.027846 0.002241-0.055711 0.003808-0.083639 4.4394e-4 -0.011852 0.001318-0.02382 0.002148-0.035775 0.001598-0.026157 0.003673-0.052024 0.00609-0.078369 4.0762e-4 -0.00509 7.8329e-4 -0.010585 0.001515-0.01621 0.00304-0.032427 0.006515-0.06494 0.010859-0.097717-1.129e-4 -4.218e-4 -2.259e-4 -8.435e-4 1.176e-4 -0.00138 0.00322-0.028402 0.0073-0.057069 0.011767-0.085772 8.465e-4 -0.00698 0.00165-0.013987 0.00296-0.02109 0.00484-0.032458 0.010544-0.065114 0.016462-0.096954 0.012474-0.067926 0.026903-0.13544 0.043359-0.20214 0.00823-0.033363 0.016953-0.066411 0.026143-0.099549-0.070702 0.43208-0.053008 0.88559 0.067649 1.3359 0.16705 0.62344 0.50814 1.1533 0.95715 1.5517 0.71404 0.63445 1.7013 0.93564 2.694 0.74956 0.034389-0.0065 0.068531-0.01385 0.1031-0.02129 0.045621-0.01 0.091345-0.02136 0.13685-0.03355 0.049701-0.01332 0.099053-0.02794 0.14766-0.04365 0.061135-0.01949 0.12098-0.04058 0.18011-0.06406 0.049202-0.01855 0.097538-0.03878 0.14498-0.06054 0.10575-0.04685 0.20767-0.09944 0.30573-0.15643z" fill="url(#SVGID_4_)"/>
  <path d="m15.693 11.328c-0.07223 0.0776-0.15022 0.15041-0.23276 0.21814-0.02065 0.01726-0.04186 0.03427-0.06357 0.05088-0.25377 0.19532-0.54957 0.34501-0.87857 0.43317-0.66557 0.17834-1.3404 0.07112-1.8938-0.24699-0.0017-9.54e-4 -0.0037-0.0021-0.0053-0.0031-5.77e-4 -3.35e-4 -1e-3 -5.86e-4 -0.0017-9.55e-4 -0.0075-0.0044-0.01495-0.0086-0.02245-0.01296-0.0203-0.01172-0.04046-0.023-0.06069-0.03433-0.02027-0.01173-0.04077-0.0225-0.06085-0.03336-0.01804-0.01006-0.03642-0.0196-0.05424-0.02882-0.01158-0.0063-0.02369-0.01264-0.0352-0.01856-0.0062-0.0032-0.01257-0.0065-0.01876-0.0094-0.01621-0.0083-0.03232-0.01616-0.04854-0.02445-0.02978-0.01507-0.05932-0.02923-0.08926-0.04336-0.03425-0.01656-0.06922-0.03249-0.1035-0.04768-0.0048-0.0024-0.01017-0.0045-0.01546-0.0072-1e-3 -5.85e-4 -2e-3 -8.73e-4 -0.0026-0.0011 0 0-5.78e-4 -3.34e-4 -1e-3 -5.84e-4 -9.21e-4 -2.41e-4 -0.0016-4.48e-4 -0.0021-8.46e-4 -0.01017-0.0045-0.01993-0.0086-0.02962-0.01281-0.0025-1e-3 -0.0051-0.0023-0.0077-0.0033-0.021-0.0092-0.0419-0.01812-0.06264-0.02656-0.0083-0.0041-0.01683-0.0073-0.02506-0.0109 0 0 1.22e-4 4.55e-4 -4.57e-4 1.22e-4 -4e-3 -0.0016-0.0081-0.0032-0.01214-0.0049-0.0031-0.0015-0.0056-0.0026-0.0087-0.0035-0.01738-0.0076-0.03494-0.01411-0.05262-0.02109-0.0077-0.0033-0.01567-0.0062-0.02362-9e-3 -0.01377-0.0058-0.02779-0.01108-0.04184-0.01633-4e-3 -0.0016-0.0081-0.0032-0.01204-0.0045-0.01907-0.0072-0.03809-0.01416-0.05719-0.02127-0.0094-0.0032-0.0185-0.0067-0.02787-0.0096-0.0022-0.0012-0.0042-2e-3 -0.0064-0.0024-0.0034-0.0013-0.0071-0.0026-0.01051-0.0039-0.0464-0.01646-0.093-0.03197-0.13948-0.04706-0.0119-4e-3 -0.02374-0.0077-0.03607-0.01157-0.01384-0.0045-0.02754-0.0084-0.04135-0.01283l-4.56e-4 1.23e-4 -1.22e-4 -4.56e-4c-0.0053-0.0012-0.01066-0.0029-0.01615-0.0047-0.01131-0.0033-0.02252-0.0066-0.03382-0.01-0.03435-0.01027-0.06802-0.01969-0.10215-0.02907-0.0016-4.49e-4 -0.0029-6.32e-4 -0.0044-1e-3 -0.0029-6.31e-4 -0.0063-2e-3 -0.01017-0.0027-0.0058-0.0016-0.01211-0.0031-0.01793-0.0047-0.03792-0.01017-0.07522-0.01958-0.11292-0.02886l-4.57e-4 1.22e-4c-0.0377-0.0093-0.07562-0.01766-0.1134-0.02559-0.02207-0.0049-0.04405-0.0094-0.06601-0.01392-0.0187-4e-3 -0.03769-0.0075-0.05625-0.01111-0.0016-4.5e-4 -3e-3 -1e-3 -0.0044-1e-3 1.22e-4 4.55e-4 -4.56e-4 1.22e-4 -4.56e-4 1.22e-4 -0.01433-0.0029-0.02816-0.0055-0.04235-0.0081-0.01187-0.0022-0.02369-4e-3 -0.03514-0.0064-0.02312-0.0037-0.04582-0.0076-0.06894-0.01133-0.01046-0.0022-0.0213-0.0037-0.03159-0.0051-0.01-0.0019-0.01986-0.0033-0.02969-0.0047-0.0065-9.2e-4 -0.01275-2e-3 -0.01933-3e-3 -0.0093-0.0011-0.01921-0.0026-0.02905-0.0039-0.0047-5.76e-4 -0.0093-0.0011-0.01356-0.0018l-4.56e-4 1.22e-4c-0.0025-7.39e-4 -0.0048-9.76e-4 -0.0071-0.0012-0.01085-0.0016-0.02151-0.0028-0.03223-4e-3 -0.0061-1e-3 -0.01176-0.0018-0.01781-0.0024-8e-3 -9.73e-4 -0.01591-0.0021-0.02376-0.0027-0.01591-0.0021-0.03178-0.0042-0.04761-0.0058-0.0098-1e-3 -0.01963-0.0025-0.02978-0.0033-0.0027-1.26e-4 -0.0054-2.61e-4 -0.0084-8.65e-4 -0.01074-0.0012-0.02185-0.0023-0.03297-0.0034l0.21209-1.805c0.1134 2.878e-4 0.22797-0.0051 0.34298-0.017395 0.0031 1.99e-5 0.0062-2.816e-4 0.0091-0.00106 0.0489-0.00451 0.09768-0.011274 0.14661-0.018984 0.0326-0.00465 0.06499-0.010219 0.09723-0.016171 0.03048-0.00591 0.06093-0.011816 0.09159-0.018742 0.0068-0.00134 0.01327-0.0027 0.01999-0.0045 0.04312-0.0093 0.08586-0.019891 0.12883-0.031405 0.04547-0.012185 0.09077-0.025176 0.1353-0.039367 0.04748-0.014977 0.09418-0.031036 0.14062-0.048097 0.93205-0.34153 1.6206-1.0877 1.9177-1.9809 0.18963-0.56958 0.2201-1.199 0.05305-1.8224-0.02099-0.078352-0.04478-0.1555-0.07124-0.23058-0.12525-0.35788-0.30912-0.68018-0.5381-0.96016 0.02453 0.024104 0.04865 0.048382 0.07241 0.073141 0.04757 0.049542 0.09382 0.10083 0.13861 0.15338 0.02103 0.024586 0.04231 0.050078 0.06273 0.075735 0.0065 0.00771 0.01288 0.015977 0.01863 0.023906 0.01537 0.018476 0.02992 0.037592 0.04412 0.056801 0.0046 0.00553 0.0088 0.011187 0.0128 0.017322 0.01719 0.022061 0.03367 0.044703 0.04969 0.067494 0.04127 0.058018 0.08078 0.11787 0.11874 0.17858l0.3115 0.48181 1.9155 2.9601c0.0023 0.00345 0.0045 0.00655 0.0067 0.00992l0.06624 0.10234c0.0015 0.00229 3e-3 0.00455 0.0047 0.00735 0.12205 0.19938 0.21766 0.41978 0.28133 0.6574 0.23268 0.86861-0.02157 1.753-0.59534 2.3632z" fill="url(#SVGID_5_)"/>
  <circle transform="rotate(-15)" cx="8.7748" cy="8.6794" r="2.4179" fill="url(#SVGID_7_)"/>
  <circle transform="rotate(-15)" cx="2.0587" cy="8.6794" r="2.4179" fill="url(#SVGID_9_)"/>
  <path d="m5.3594 7.1877-0.84486 0.22638-0.22638-0.84486c-0.05234-0.19534-0.2531-0.31124-0.44844-0.2589s-0.31124 0.2531-0.2589 0.44844l0.22638 0.84486-0.84486 0.22638c-0.19534 0.05234-0.31124 0.2531-0.2589 0.44844 0.052341 0.19534 0.2531 0.31124 0.44844 0.2589l0.84486-0.22638 0.22638 0.84486c0.05234 0.19534 0.2531 0.31124 0.44844 0.2589s0.31124-0.2531 0.2589-0.44844l-0.22638-0.84486 0.84486-0.22638c0.19534-0.05234 0.31125-0.2531 0.2589-0.44844-0.05234-0.19534-0.25313-0.31124-0.44844-0.2589z" fill="url(#SVGID_11_)"/>
  <circle transform="rotate(-15)" cx="3.3852" cy="12.478" r="1.5918" fill="url(#SVGID_13_)"/>
  <circle transform="rotate(-15)" cx="3.3852" cy="12.478" r="1.1703" fill="url(#SVGID_14_)"/>
  <circle transform="rotate(-15)" cx="3.3852" cy="12.478" r="1.0564" fill="url(#SVGID_16_)"/>
  <circle transform="rotate(-15)" cx="7.4533" cy="12.478" r="1.5918" fill="url(#SVGID_17_)"/>
  <circle transform="rotate(-15)" cx="7.4533" cy="12.478" r="1.1703" fill="url(#SVGID_18_)"/>
  <circle transform="rotate(-15)" cx="7.4533" cy="12.478" r="1.0564" fill="url(#SVGID_20_)"/>
  <path d="m10.219 4.1481c-0.02059 0.00552-0.0415 0.012313-0.0621 0.020229-0.0036 0.00138-0.0071 0.00293-0.01042 0.00447l-0.0043 0.00188c-0.01508 0.00621-0.03008 0.012614-0.04446 0.019891-3e-3 0.00153-0.0059 0.0032-0.0089 0.00494l-4e-3 0.00227c-0.01455 0.00784-0.02887 0.01591-0.04258 0.024791-0.0023 0.00148-0.0046 0.00308-0.0094 0.00656-0.01451 0.00977-0.02873 0.019947-0.042371 0.030909l-0.0056 0.00482c-0.014483 0.011926-0.028468 0.024373-0.044362 0.040234-0.01412 0.014126-0.027597 0.028955-0.037525 0.041278l-0.00301 0.00343c-0.026171 0.031759-0.049348 0.066512-0.06823 0.10205-0.16673 0.28866-0.9927 1.7187-1.0158 1.7608l-8.1e-6 -3.01e-5c-0.074566 0.14006-0.093161 0.30072-0.052514 0.45242 0.088859 0.33162 0.43091 0.52911 0.7625 0.44026 0.16792-0.044994 0.30569-0.15477 0.38718-0.30784l0.99463-1.7228c0.092491-0.14836 0.11868-0.32252 0.073692-0.49041-0.08874-0.33152-0.43079-0.52901-0.76239-0.44016z" fill="url(#SVGID_21_)"/>
  <path d="m11.915 5.1273c-0.02059 0.00552-0.0415 0.012312-0.0621 0.020229-0.0036 0.00138-0.0071 0.00293-0.01042 0.00447l-0.0043 0.00188c-0.01509 0.00621-0.03008 0.012614-0.04446 0.019891-3e-3 0.00153-0.0059 0.0032-0.0089 0.00494l-4e-3 0.00227c-0.01455 0.00784-0.02887 0.01591-0.04258 0.024792-0.0023 0.00148-0.0046 0.00309-0.0094 0.00656-0.01451 0.00977-0.02873 0.019948-0.04237 0.030909l-0.0056 0.00482c-0.01448 0.011926-0.02848 0.024373-0.04436 0.040234-0.01412 0.014126-0.0276 0.028955-0.03751 0.041278l-3e-3 0.00343c-0.02611 0.031755-0.04929 0.066508-0.06817 0.10205-0.16673 0.28866-0.9927 1.7187-1.0158 1.7608l-8e-6 -3.09e-5c-0.07451 0.14005-0.0931 0.3007-0.05246 0.4524 0.08886 0.33162 0.43091 0.52911 0.7625 0.44026 0.16792-0.044995 0.30569-0.15477 0.38718-0.30784l0.99463-1.7228c0.09249-0.14836 0.11867-0.32252 0.07369-0.49041-0.08885-0.3315-0.43092-0.52901-0.76251-0.44016z" fill="url(#SVGID_23_)"/>
  <path d="m12.618 5.4216-0.25361-0.14596c-0.12777-0.079964-0.28656-0.10898-0.44366-0.066887-0.30032 0.080471-0.47864 0.38933-0.39806 0.69004 0.0052 0.019302 0.01104 0.037998 0.01831 0.055926 0.0017 0.00491 0.0036 0.00896 0.0056 0.013394 0.0057 0.013785 0.01145 0.027122 0.01789 0.040299 0.0023 0.00395 0.0045 0.0075 0.0068 0.011425 7e-3 0.013463 0.01446 0.026316 0.02236 0.03868 2e-3 0.00278 0.0039 0.00556 6e-3 0.00832 0.0089 0.013316 0.0182 0.026156 0.02771 0.038509 0.0017 0.00163 0.0029 0.00336 0.0047 0.00496 0.01064 0.013276 0.02187 0.026011 0.0337 0.03771 0.0011 9.287e-4 0.0017 0.00163 0.0027 0.00256 0.01255 0.012766 0.02612 0.02487 0.03986 0.036061 9.2e-5 3.42e-4 9.2e-5 3.42e-4 5.56e-4 7.064e-4 0.0291 0.023654 0.06038 0.044652 0.09325 0.06232 0 0 0.23494 0.13552 0.51834 0.29913l0.27078-0.46905c0.094-0.14417 0.1359-0.32626 0.09236-0.48879-0.02768-0.094888-0.01808-0.074315-0.06564-0.16934z" fill="url(#SVGID_25_)"/>
  <path d="m10.937 6.9054c-0.30032 0.080471-0.47864 0.38933-0.39806 0.69004 0.0052 0.019302 0.01104 0.037998 0.01801 0.056395 0.0021 0.00444 0.0038 0.00847 0.0059 0.012893 0.0057 0.013785 0.01145 0.027121 0.01789 0.040298 0.0023 0.00395 0.0045 0.0075 0.0068 0.011426 7e-3 0.013463 0.01416 0.026396 0.02236 0.03868 0.0017 0.00286 0.0039 0.00555 6e-3 0.00832 0.0089 0.013314 0.0178 0.026261 0.02771 0.038508 0.0017 0.00163 0.0029 0.00336 0.0047 0.00496 0.01064 0.013278 0.02187 0.026013 0.0337 0.03771 0.0011 9.286e-4 0.0017 0.00163 0.0027 0.00256 0.01255 0.012767 0.02612 0.024871 0.03986 0.036061 9.1e-5 3.421e-4 9.1e-5 3.421e-4 5.55e-4 7.064e-4 0.0287 0.023762 0.06038 0.044655 0.09324 0.062324 0 0 0.16135 0.093078 0.28126 0.16231 0.09197-0.00745 0.06588-0.00556 0.14244-0.025723 0.16431-0.050879 0.29279-0.15778 0.38219-0.32767l0.27816-0.4819-0.52176-0.30106c-0.12778-0.079866-0.28658-0.10891-0.4437-0.06681z" fill="url(#SVGID_26_)"/>
  <circle transform="rotate(-15)" cx="8.7748" cy="10.062" r=".56332" fill="url(#SVGID_28_)"/>
  <path d="m10.928 4.4528-0.26584-0.15326c-0.12777-0.079964-0.28656-0.10898-0.44366-0.066887-0.30032 0.080471-0.47864 0.38933-0.39807 0.69004 0.00519 0.019302 0.011039 0.037997 0.018311 0.055926 0.00166 0.00492 0.00363 0.00896 0.0056 0.013394 0.00571 0.013785 0.011454 0.027122 0.017886 0.040299 0.00228 0.00395 0.00446 0.0075 0.00685 0.011426 0.00695 0.013462 0.014462 0.026315 0.022358 0.03868 0.00197 0.00278 0.00394 0.00556 0.00602 0.00832 0.00892 0.013315 0.018187 0.026157 0.027711 0.038508 0.00166 0.00164 0.00291 0.00335 0.00467 0.00496 0.010644 0.013277 0.02187 0.026012 0.033708 0.03771 0.00114 9.288e-4 0.00166 0.00164 0.0027 0.00256 0.012553 0.012766 0.026124 0.02487 0.03986 0.036061 1.03e-4 3.876e-4 1.03e-4 3.876e-4 5.53e-4 6.947e-4 0.0291 0.023654 0.06038 0.044654 0.09324 0.062324 0 0 0.23846 0.13768 0.52186 0.30129l0.27178-0.47267c0.1081-0.15681 0.12742-0.35021 0.09541-0.48598-0.01994-0.084451-0.027-0.088316-0.06097-0.16338z" fill="url(#SVGID_30_)"/>
  <path d="m9.2407 5.9262c-0.30032 0.080471-0.47864 0.38933-0.39807 0.69004 0.00518 0.019302 0.011037 0.037996 0.018011 0.056395 0.00204 0.00444 0.00388 0.00847 0.00592 0.012893 0.00574 0.013786 0.011456 0.027122 0.017887 0.0403 0.00224 0.00395 0.00448 0.0075 0.00682 0.011426 0.00694 0.013463 0.014162 0.026395 0.022362 0.03868 0.00162 0.00286 0.00396 0.00556 0.00599 0.00832 0.00894 0.013314 0.017799 0.026261 0.027708 0.038507 0.00162 0.00163 0.00294 0.00336 0.00466 0.00496 0.010647 0.013278 0.021868 0.026013 0.033701 0.03771 0.0011 9.284e-4 0.00162 0.00163 0.00273 0.00256 0.01255 0.012767 0.026127 0.024871 0.039855 0.036062 9.16e-5 3.42e-4 9.16e-5 3.42e-4 5.555e-4 7.064e-4 0.028698 0.023762 0.060384 0.044654 0.093238 0.062324 0 0 0.16076 0.093655 0.28068 0.16289 0.076026-0.00314 0.1398-0.02511 0.21195-0.051626 0.15566-0.074907 0.23386-0.15585 0.3128-0.30446l0.27752-0.48026-0.52067-0.30061c-0.12777-0.079861-0.28657-0.10891-0.4437-0.066806z" fill="url(#SVGID_31_)"/>
  <circle transform="rotate(-15)" cx="8.7748" cy="7.2966" r=".56332" fill="url(#SVGID_32_)"/>
  <circle transform="rotate(-15)" cx="7.392" cy="8.6794" r=".56332" fill="url(#SVGID_33_)"/>
  <circle transform="rotate(-15)" cx="10.166" cy="8.6794" r=".56332" fill="url(#SVGID_34_)"/>
 </g>
 <g transform="matrix(.030159 -.008081 .008081 .030159 -2.1708 1.8407)">
  <path d="m242.14 294.7v0.912c0 3.694-2.995 6.689-6.689 6.689h-8.321c-3.694 0-6.689-2.995-6.689-6.689v-0.912c0-3.694 2.995-6.689 6.689-6.689h8.321c3.693 0 6.689 2.994 6.689 6.689z" fill="url(#SVGID_35_)"/>
  <path d="m291.54 294.7v0.912c0 3.694-2.995 6.689-6.689 6.689h-8.321c-3.694 0-6.689-2.995-6.689-6.689v-0.912c0-3.694 2.995-6.689 6.689-6.689h8.321c3.694 0 6.689 2.994 6.689 6.689z" fill="url(#SVGID_36_)"/>
 </g>
</svg>
