<?xml version="1.0" encoding="UTF-8"?>
<svg id="Apps-Visual-Studio-Code" width="64" height="64" enable-background="new 0 0 1024 1024" image-rendering="optimizeSpeed" version="1.1" viewBox="0 0 64 64" xmlns="http://www.w3.org/2000/svg" xmlns:cc="http://creativecommons.org/ns#" xmlns:dc="http://purl.org/dc/elements/1.1/" xmlns:rdf="http://www.w3.org/1999/02/22-rdf-syntax-ns#" xmlns:xlink="http://www.w3.org/1999/xlink">
 <metadata>
  <rdf:RDF>
   <cc:Work rdf:about="">
    <dc:format>image/svg+xml</dc:format>
    <dc:type rdf:resource="http://purl.org/dc/dcmitype/StillImage"/>
    <dc:title/>
   </cc:Work>
  </rdf:RDF>
 </metadata>
 <defs>
  <linearGradient id="c-3" x1="45.378" x2="978.36" y1="46.179" y2="979.16" gradientTransform="matrix(-.01645 -.061391 .061391 -.01645 8.9867 71.86)" gradientUnits="userSpaceOnUse">
   <stop stop-color="#eaeff2" offset="0"/>
   <stop stop-color="#fcfcfd" offset=".5"/>
   <stop stop-color="#cfdade" offset="1"/>
  </linearGradient>
  <linearGradient id="e" x1="56.407" x2="-.45752" y1="7.4068" y2="64.271" gradientTransform="matrix(.25478 -.95084 .95084 .25478 -6.5799 54.274)" gradientUnits="userSpaceOnUse">
   <stop stop-color="#90acb5" offset="0"/>
   <stop stop-color="#fcfcfd" offset="1"/>
  </linearGradient>
  <linearGradient id="linearGradient2343" x1="-55.864" x2="-2.559" y1="69.983" y2="16.678" gradientTransform="matrix(.90977 0 0 .90977 59.015 -7.3518)" gradientUnits="userSpaceOnUse">
   <stop stop-color="#fcfcfd" offset="0"/>
   <stop stop-color="#90acb5" offset="1"/>
  </linearGradient>
 </defs>
 <g fill="#5e4aa6">
  <circle cx="-1403.4" cy="-1240.7" r="0"/>
  <circle cx="-1334.4" cy="-1232.6" r="0"/>
  <circle cx="-1311.4" cy="-1258.4" r="0"/>
  <circle cx="-1322.1" cy="-1231.7" r="0"/>
  <circle cx="-1146.5" cy="-1251.8" r="0"/>
  <circle cx="-47.027" cy="13.726" r="0" fill-rule="evenodd"/>
 </g>
 <g transform="matrix(1.3333 0 0 -1.3333 1276.2 480.49)">
  <path d="m0 0c3.866 0 7 3.134 7 7s-3.134 7-7 7-7-3.134-7-7 3.134-7 7-7" fill="#fff" fill-rule="evenodd"/>
 </g>
 <g transform="matrix(1.3333 0 0 -1.3333 1310.9 480.49)">
  <path d="m0 0c3.866 0 7 3.134 7 7s-3.134 7-7 7-7-3.134-7-7 3.134-7 7-7" fill="#fff" fill-rule="evenodd"/>
 </g>
 <g transform="matrix(1.3333 0 0 -1.3333 1341.6 480.49)">
  <path d="m0 0c3.866 0 7 3.134 7 7s-3.134 7-7 7-7-3.134-7-7 3.134-7 7-7" fill="#fff" fill-rule="evenodd"/>
 </g>
 <path d="m1469.6-515.51h48v24h-48zm24 14.667c8.1 0 14.667-1.1933 14.667-2.6667s-6.5666-2.6667-14.667-2.6667-14.667 1.1933-14.667 2.6667 6.5666 2.6667 14.667 2.6667" fill="#fff" fill-rule="evenodd" stroke-width="1.3333"/>
 <g transform="matrix(1.3333 0 0 -1.3333 1456.8 -502.18)">
  <path d="m0 0s21.582 23.182 21.582 35.147c0 12.048-9.684 21.853-21.582 21.853-11.816 0-21.418-9.805-21.418-21.853 0-8.06 9.766-21.188 16.002-28.832zm0 42.542c3.938 0 7.14-3.323 7.14-7.395 0-3.822-3.202-7.146-7.14-7.146-3.856 0-7.222 3.324-7.222 7.146 0 4.072 3.366 7.395 7.222 7.395" fill="#fff"/>
 </g>
 <g transform="matrix(1.3333 0 0 -1.3333 1428.2 201.82)">
  <path d="m0 0h35c2.762 0 5-2.238 5-5s-2.238-5-5-5h-35c-2.762 0-5 2.238-5 5s2.238 5 5 5" fill="#fff" fill-rule="evenodd"/>
 </g>
 <g transform="matrix(1.3333 0 0 -1.3333 1428.2 224.49)">
  <path d="m0 0h35c2.762 0 5-2.238 5-5s-2.238-5-5-5h-35c-2.762 0-5 2.238-5 5s2.238 5 5 5" fill="#fff" fill-rule="evenodd"/>
 </g>
 <g transform="matrix(1.3333 0 0 -1.3333 1394.1 736.71)">
  <path d="m0 0c-10.01-12.916-22.288-9.047-24.23-8.072-4.847 1.293-6.464 10.015-0.326 12.918 10.018 3.226 19.06-0.325 25.524-3.553-0.644-0.967-0.968-1.293-0.968-1.293m10.667 3.553c4.521 8.072 6.139 15.826 6.139 15.826h-15.189v5.812h17.767v2.26h-17.767v8.723h-8.074v-8.723h-16.156v-2.584h16.156v-5.812h-13.57v-2.585h27.783c0-0.325 0-0.325-0.324-0.968 0-2.909-1.936-6.779-3.554-10.014-20.677 8.079-26.491 3.235-28.108 2.584-13.564-9.689-0.968-21.963 1.293-21.638 14.538-3.227 23.905 2.91 30.369 10.657 0.324-0.325 0.967-0.325 1.292-0.325 4.528-2.578 25.848-12.592 25.848-12.592v12.274c-3.878 0.325-15.506 4.195-23.905 7.105" fill="#fff"/>
 </g>
 <g transform="matrix(1.3333 0 0 -1.3333 1638.9 -540.18)">
  <path d="m0 0c-0.149 0.354-0.224 0.837-0.224 1.451 0 0.372 0.103 0.828 0.306 1.368 0.205 0.539 0.428 0.958 0.671 1.256-0.019 0.409 0.051 0.902 0.209 1.478 0.159 0.576 0.368 0.976 0.629 1.2 0 2.586 0.86 5.269 2.581 8.05 1.722 2.782 3.744 4.73 6.07 5.846 2.585 1.228 5.6 1.842 9.041 1.842 2.475 0 4.949-0.511 7.423-1.534 0.912-0.391 1.749-0.837 2.512-1.34 0.762-0.502 1.423-1.022 1.981-1.562 0.559-0.54 1.07-1.172 1.534-1.897 0.465-0.725 0.856-1.413 1.172-2.064 0.318-0.651 0.619-1.437 0.908-2.358 0.287-0.921 0.524-1.753 0.71-2.497s0.391-1.655 0.614-2.734l0.028-0.14c1.023-1.543 1.535-2.939 1.535-4.186 0-0.26-0.084-0.632-0.252-1.115-0.168-0.484-0.252-0.837-0.252-1.061 0-0.019 0.015-0.052 0.043-0.099s0.061-0.093 0.098-0.139c0.038-0.046 0.057-0.077 0.057-0.098 1.432-2.121 2.553-4.116 3.363-5.985 0.809-1.869 1.214-3.808 1.214-5.817 0-0.8-0.182-1.73-0.544-2.791-0.363-1.06-0.879-1.59-1.549-1.59-0.167 0-0.349 0.069-0.544 0.209-0.194 0.14-0.371 0.303-0.529 0.489-0.159 0.186-0.335 0.428-0.53 0.725s-0.344 0.543-0.447 0.739-0.228 0.438-0.377 0.725c-0.147 0.288-0.231 0.451-0.251 0.489-0.019 0.019-0.047 0.028-0.085 0.028l-0.138-0.111c-1.099-2.864-2.327-4.938-3.684-6.222 0.372-0.372 0.944-0.73 1.716-1.075s1.414-0.73 1.925-1.158c0.511-0.426 0.841-1.031 0.991-1.814-0.037-0.074-0.074-0.223-0.112-0.447-0.036-0.224-0.101-0.391-0.195-0.501-1.19-1.804-4-2.706-8.427-2.706-0.986 0-2.013 0.084-3.084 0.251-1.069 0.168-1.981 0.354-2.734 0.558s-1.726 0.483-2.916 0.837c-0.279 0.093-0.493 0.158-0.643 0.196-0.259 0.075-0.687 0.115-1.282 0.125-0.595 9e-3 -0.967 0.023-1.116 0.042-0.763-0.838-1.949-1.442-3.559-1.814-1.609-0.372-3.176-0.558-4.702-0.558-0.65 0-1.293 0.014-1.925 0.042s-1.498 0.113-2.595 0.252c-1.098 0.139-2.038 0.33-2.82 0.572-0.781 0.241-1.473 0.613-2.078 1.115-0.604 0.502-0.906 1.098-0.906 1.786 0 0.744 0.093 1.298 0.279 1.661 0.187 0.364 0.569 0.815 1.144 1.353 0.205 0.038 0.581 0.159 1.131 0.363 0.549 0.204 1.009 0.316 1.381 0.334 0.074 0 0.204 0.019 0.39 0.057 0.038 0.037 0.057 0.074 0.057 0.111l-0.057 0.084c-0.892 0.204-1.897 1.185-3.014 2.944-1.117 1.758-1.796 3.214-2.038 4.367l-0.139 0.084c-0.074 0-0.186-0.185-0.334-0.557-0.335-0.763-0.842-1.455-1.521-2.079-0.679-0.622-1.4-0.971-2.163-1.046h-0.028c-0.073 0-0.129 0.041-0.167 0.125-0.037 0.083-0.084 0.134-0.139 0.153-0.428 1.004-0.642 1.934-0.642 2.79 0 5.116 2.343 9.45 7.032 13.002z" fill="#fff"/>
 </g>
 <g transform="matrix(1.3333 0 0 -1.3333 1552.2 515.15)">
  <path d="m0 0c16.568 0 30 13.432 30 30s-13.432 30-30 30-30-13.432-30-30 13.432-30 30-30z" fill="none" stroke="#fff" stroke-miterlimit="10" stroke-width="8"/>
 </g>
 <g transform="matrix(1.3333 0 0 -1.3333 768.02 -528.98)">
  <path d="m0 0c0 5.302-3.661 9.749-8.591 10.948-0.209 8.314-7.006 14.991-15.366 14.991-4.897 0-9.254-2.293-12.07-5.861-1.579 2.041-4.05 3.358-6.828 3.358-4.769 0-8.633-3.868-8.633-8.639 0-0.416 0.031-0.825 0.089-1.224-0.726 0.13-1.47 0.203-2.232 0.203-6.913 0-12.515-5.607-12.515-12.524 0-6.916 5.602-12.523 12.515-12.523h42.394c6.21 0.013 11.241 5.053 11.241 11.269z" fill="#fff"/>
 </g>
 <g transform="matrix(1.3333 0 0 -1.3333 766.23 7.1549)">
  <path d="m0 0c9.113 0 16.5 7.387 16.5 16.5s-7.387 16.5-16.5 16.5-16.5-7.387-16.5-16.5 7.387-16.5 16.5-16.5z" fill="none" stroke="#fff" stroke-miterlimit="10" stroke-width="4"/>
 </g>
 <g transform="matrix(1.3333 0 0 -1.3333 782.23 -32.845)">
  <path d="m0 0c7.456 0 13.5 6.044 13.5 13.5s-6.044 13.5-13.5 13.5-13.5-6.044-13.5-13.5 6.044-13.5 13.5-13.5z" fill="none" stroke="#fff" stroke-miterlimit="10" stroke-width="4"/>
 </g>
 <g transform="matrix(1.3333 0 0 -1.3333 1286.8 -326.88)">
  <path d="m0 0c-0.742-1.039-4.75-2.821-8.165-3.563-4.305-0.891-6.531-1.633-8.758-2.82-2.969-1.782-4.601-4.009-4.305-6.087 0.149-0.445 3.711-5.64 7.868-11.578 4.304-5.938 7.868-10.985 8.016-11.134 0.149-0.297-0.445-0.297-2.524-0.148-6.531 0.445-12.469-2.969-15.142-8.314-0.742-1.632-0.89-2.523-0.89-4.453 0-4.453 2.376-8.016 6.829-10.094 1.781-0.742 2.375-0.891 6.086-0.891 4.007 0 4.156 0 6.829 1.336 7.125 3.414 10.093 10.095 7.125 16.181-0.594 1.336-4.305 7.719-8.313 14.251l-7.274 12.024h1.187c4.75 0.297 8.017 1.781 10.244 4.305 1.929 2.227 2.523 4.453 2.374 8.016-0.148 3.266-0.445 4.008-1.187 2.969" fill="#fff"/>
 </g>
 <g transform="matrix(1.3333 0 0 -1.3333 1724.2 -287.92)">
  <path d="m0 0c0-1.565-0.904-2.931-2.251-3.674l-27.781-18.472c-0.012-8e-3 -0.026-0.014-0.037-0.02l-0.017-0.011c-0.684-0.376-1.48-0.592-2.331-0.592-2.53 0-4.583 1.913-4.583 4.269v37c0 2.356 2.053 4.27 4.583 4.27 0.851 0 1.647-0.217 2.331-0.596l0.017-8e-3c0.011-9e-3 0.022-0.014 0.037-0.02l27.781-18.471c1.347-0.743 2.251-2.11 2.251-3.675" fill="#fff"/>
 </g>
 <g transform="matrix(1.3333 0 0 -1.3333 977.22 -29.312)">
  <path d="m0 0c-15.123 0-27.418 12.329-27.418 27.486 0 1.382 1.111 2.505 2.487 2.505 1.379 0 2.499-1.123 2.499-2.505 0-12.4 10.06-22.487 22.432-22.487 12.375 0 22.443 10.087 22.443 22.487 0 1.382 1.112 2.505 2.488 2.505 1.378 0 2.499-1.123 2.499-2.505 0-15.157-12.304-27.486-27.43-27.486" fill="#fff" fill-rule="evenodd"/>
 </g>
 <g transform="matrix(1.3333 0 0 -1.3333 1199.9 729.35)">
  <path d="m0 0c-15.123 0-27.418 12.329-27.418 27.485 0 1.383 1.111 2.506 2.487 2.506 1.379 0 2.499-1.123 2.499-2.506 0-12.398 10.06-22.486 22.432-22.486 12.375 0 22.443 10.088 22.443 22.486 0 1.383 1.112 2.506 2.488 2.506 1.378 0 2.499-1.123 2.499-2.506 0-15.156-12.304-27.485-27.43-27.485" fill="#fff" fill-rule="evenodd"/>
 </g>
 <g transform="matrix(1.3333 0 0 -1.3333 1244.1 -.031786)">
  <path d="m0 0c0.245-0.286 0.605-0.456 0.986-0.456 0.382 0 0.743 0.17 0.988 0.456l17.516 20.497c0.333 0.388 0.408 0.933 0.191 1.388-0.211 0.463-0.674 0.756-1.184 0.756h-9.93c-2.118 4.172-3.109 8.382-2.973 12.63 0.135 4.248 1.954 12.361 5.455 24.34-10.956-6.59-17.656-18.44-17.656-31.225v-5.745h-9.93c-0.51 0-0.966-0.293-1.184-0.756-0.211-0.462-0.135-1 0.191-1.388z" fill="#fff"/>
 </g>
 <g transform="matrix(1.3333 0 0 -1.3333 558.19 -316.99)">
  <path d="m0 0 25.314 21.067-26.077 18.651c5.846 7.671 15.079 12.622 25.468 12.622 17.673 0 32-14.327 32-32s-14.327-32-32-32c-9.948 0-18.836 4.539-24.705 11.66m27.349 31.812c2.835 0 5.132 2.297 5.132 5.132 0 2.834-2.297 5.132-5.132 5.132-2.834 0-5.132-2.298-5.132-5.132 0-2.835 2.298-5.132 5.132-5.132" fill="#fff" fill-rule="evenodd"/>
 </g>
 <g transform="matrix(1.3333 0 0 -1.3333 804.96 -436.19)">
  <path d="m0 0c20.173-11.579 43.841 2 51.309 14.862 7.467 12.861 5.032 31.138-10.468 37.638s-45.487 6.611-54.5-9-6.515-31.922 13.659-43.5" fill="#fff" fill-rule="evenodd"/>
 </g>
 <g transform="matrix(1.3333 0 0 -1.3333 1177.8 -339.12)">
  <path d="m0 0c1.657 0 3 1.501 3 3.353s-1.343 3.353-3 3.353c-1.656 0-3-1.501-3-3.353s1.344-3.353 3-3.353" fill="#fff" fill-rule="evenodd"/>
 </g>
 <g transform="matrix(1.3333 0 0 -1.3333 1203.3 -355.52)">
  <path d="m0 0c1.657 0 3 1.501 3 3.353s-1.343 3.353-3 3.353-3-1.501-3-3.353 1.343-3.353 3-3.353" fill="#fff" fill-rule="evenodd"/>
 </g>
 <g transform="matrix(1.3333 0 0 -1.3333 1226 -327.52)">
  <path d="m0 0c1.657 0 3 1.501 3 3.353s-1.343 3.353-3 3.353-3-1.501-3-3.353 1.343-3.353 3-3.353" fill="#fff" fill-rule="evenodd"/>
 </g>
 <g transform="matrix(1.3333 0 0 -1.3333 1621.3 -358.72)">
  <path d="m0 0c-3.667-14-9.5-21.833-17.5-23.5" fill="none" stroke="#fff" stroke-linecap="round" stroke-miterlimit="10"/>
 </g>
 <g transform="matrix(1.3333 0 0 -1.3333 1615.3 -350.72)">
  <path d="m0 0c-4.971 0-9 4.029-9 9s4.029 9 9 9 9-4.029 9-9-4.029-9-9-9m0 6c1.657 0 3 1.343 3 3s-1.343 3-3 3-3-1.343-3-3 1.343-3 3-3" fill="#fff" fill-rule="evenodd"/>
 </g>
 <g transform="matrix(1.3333 0 0 -1.3333 708.63 410.55)">
  <path d="m0 0h3c0.553 0 1-0.447 1-1v-2c0-0.553-0.447-1-1-1h-3c-0.553 0-1 0.447-1 1v2c0 0.553 0.447 1 1 1" fill="#fff" fill-rule="evenodd"/>
 </g>
 <g transform="matrix(1.3333 0 0 -1.3333 817.96 410.55)">
  <path d="m0 0h3c0.553 0 1-0.447 1-1v-2c0-0.553-0.447-1-1-1h-3c-0.553 0-1 0.447-1 1v2c0 0.553 0.447 1 1 1" fill="#fff" fill-rule="evenodd"/>
 </g>
 <g transform="matrix(1.3333 0 0 -1.3333 1619.3 427.89)">
  <path d="m0 0c4.418 0 8 3.582 8 8s-3.582 8-8 8-8-3.582-8-8 3.582-8 8-8" fill="#fff" fill-rule="evenodd"/>
 </g>
 <g transform="matrix(1.3333 0 0 -1.3333 1423.3 -363.39)">
  <path d="m0 0c0-4.694 3.806-8.5 8.5-8.5s8.5 3.806 8.5 8.5-3.806 8.5-8.5 8.5-8.5-3.806-8.5-8.5" fill="#fff"/>
 </g>
 <path d="m1166.5-372.06h114.48v100.43h-114.48zm85.933 33.475c-0.644-1.02-1.9373-1.2627-2.904-0.57467l-20.672 14.68c-0.4786 0.33999-1.1293 0.204-1.428-0.31734l-24.361-42.492c-0.584-1.028-1.5187-1.0347-2.0654 0.0213l-2.4093 4.6853-28.093 63.269c17.781 24.587 64.448 35.92 98.448 4.5867 1.1213 0 8.636-8.328 8-9.3333z" fill="#fff" fill-rule="evenodd" stroke-width="1.3333"/>
 <g transform="matrix(1.3333 0 0 -1.3333 515.3 -45.445)">
  <path d="m0 0c18.778 0 34 15.222 34 34s-15.222 34-34 34-34-15.222-34-34 15.222-34 34-34z" fill="none" stroke="#fff" stroke-miterlimit="10" stroke-width="8"/>
 </g>
 <path d="m1404.6 109.22h109.33v109.33h-109.33zm54.666 108c29.456 0 53.333-23.877 53.333-53.333 0-29.456-23.877-53.333-53.333-53.333-29.456 0-53.333 23.877-53.333 53.333 0 29.456 23.877 53.333 53.333 53.333" fill="#fff" fill-rule="evenodd" stroke-width="1.3333"/>
 <g transform="matrix(1.3333 0 0 -1.3333 1364.5 436.17)">
  <path d="m0 0c0.187-0.771 0.148-1.502-0.116-2.193-0.266-0.692-0.678-1.303-1.239-1.833-0.561-0.531-1.247-0.949-2.057-1.255-0.81-0.305-1.683-0.457-2.617-0.457-5.889-0.033-11.156-0.049-15.798-0.049h-15.891c-1.122 0-2.111 0.209-2.968 0.627s-1.543 0.932-2.056 1.543c-0.515 0.611-0.858 1.279-1.029 2.002s-0.148 1.375 0.071 1.953c0.186 0.451 0.373 0.917 0.56 1.398 0.157 0.418 0.343 0.893 0.561 1.424 0.219 0.53 0.452 1.069 0.701 1.615l1.776 4.438h5.329l-2.01-6.077h30.099l-2.009 6.077h5.094c0.655-1.64 1.246-3.119 1.777-4.438 0.218-0.578 0.435-1.14 0.654-1.687 0.218-0.547 0.412-1.037 0.584-1.472 0.171-0.433 0.312-0.804 0.421-1.109 0.108-0.306 0.163-0.474 0.163-0.507m-22.922 9.236c-0.601 0.698-1.289 1.571-2.064 2.618-0.776 1.046-1.575 2.125-2.398 3.235-0.822 1.11-1.637 2.204-2.443 3.283-0.808 1.079-1.527 2.015-2.16 2.808-0.728 0.856-1.013 1.562-0.855 2.117s0.696 0.832 1.614 0.832c0.506-0.031 1.187-0.024 2.041 0.024 0.855 0.048 1.567 0.072 2.136 0.072 0.633 0 1.029 0.19 1.187 0.57 0.158 0.381 0.237 0.889 0.237 1.523 0 0.698-8e-3 1.467-0.024 2.308s-0.024 1.705-0.024 2.593-8e-3 1.76-0.023 2.617c-0.016 0.856-0.024 1.65-0.024 2.379 0 0.318 0.024 0.65 0.071 1 0.047 0.348 0.158 0.666 0.333 0.951 0.173 0.285 0.426 0.523 0.758 0.714 0.332 0.19 0.784 0.285 1.353 0.285 0.665 0 1.274 9e-3 1.827 0.024 0.555 0.016 1.195 0.024 1.923 0.024 1.044 0 1.748-0.246 2.112-0.737 0.364-0.492 0.562-1.277 0.593-2.356v-1.855c0-0.73 8e-3 -1.507 0.023-2.331 0.017-0.826 0.025-1.651 0.025-2.475v-2.236c0-0.92 0.095-1.659 0.284-2.213 0.191-0.555 0.617-0.817 1.282-0.785 0.475 0 1.052-0.016 1.732-0.047 0.68-0.032 1.274-0.049 1.78-0.049 0.855 0 1.4-0.23 1.638-0.69 0.237-0.46 0.071-1.054-0.498-1.784-0.602-0.76-1.298-1.68-2.089-2.759-0.791-1.08-1.606-2.197-2.445-3.355-0.838-1.158-1.661-2.284-2.467-3.379-0.807-1.094-1.528-2.037-2.16-2.83-0.57-0.73-1.116-1.103-1.637-1.119-0.523-0.016-1.069 0.326-1.638 1.023" fill="#fff"/>
 </g>
 <g transform="matrix(1.3333 0 0 -1.3333 1330.9 629.22)">
  <path d="m0 0h-49.301c-2.41 0-4.367-1.941-4.367-4.299v-49.402c0-2.393 1.957-4.299 4.367-4.299h49.301c2.41 0 4.332 1.941 4.332 4.299v49.367c0 2.393-1.957 4.334-4.332 4.334m-33.403-53.008h-8.839v6.795h8.839zm-8.91 24.58h8.84v-6.795h-8.84zm8.945-15.566h-8.84v6.795h8.84zm12.998-9.014h-8.84v6.795h8.84zm-8.91 24.58h8.84v-6.795h-8.84zm8.944-15.566h-8.839v6.795h8.839zm13.277-9.014h-8.84v6.795h8.84zm-8.909 24.58h8.84v-6.795h-8.84zm8.945-15.566h-8.84v6.795h8.84zm5.276 24.441c0-2.392-1.957-4.299-4.368-4.299h-37.77c-2.411-0.035-4.367 1.907-4.367 4.299v10.054c0 2.392 1.956 4.333 4.332 4.333h37.805c2.411 0 4.368-1.941 4.368-4.333z" fill="#fff"/>
 </g>
 <g transform="matrix(1.3333 0 0 -1.3333 1358.4 654.26)">
  <path d="m0 0h-0.72c-0.206 0-0.377 0-0.514-0.212-0.103-0.142-0.103-0.283-0.103-0.46v-0.566c0-0.178 0-0.319 0.103-0.461 0.137-0.212 0.308-0.212 0.514-0.212h0.72c0.205 0 0.376 0 0.514 0.212 0.102 0.142 0.102 0.283 0.102 0.461v0.566c0 0.213 0 0.318-0.102 0.46-0.138 0.212-0.275 0.212-0.514 0.212m-5.003 4.779h-2.947c-0.548 0-0.993-0.46-0.993-1.026v-2.407h0.993v2.407h2.947v-2.407h0.993v2.407c0 0.566-0.445 1.026-0.993 1.026m0-6.973h-2.947v2.407h-0.993v-2.407c0-0.567 0.411-1.027 0.993-1.027h2.947c0.582 0 0.993 0.46 0.993 1.027v2.407h-0.993zm-14.357 0h-2.947v2.584h-0.994v-2.584c0-0.567 0.411-1.027 0.994-1.027h2.947c0.583 0 0.994 0.46 0.994 1.027v2.584h-0.994zm0 6.973h-2.947c-0.548 0-0.994-0.46-0.994-1.026v-2.231h0.994v2.231h2.947v-2.231h0.994v2.231c0 0.566-0.446 1.026-0.994 1.026m7.195 0h-2.946c-0.549 0-0.994-0.46-0.994-1.026v-2.231h0.994v2.231h2.946v-2.231h0.994v2.231c0 0.566-0.445 1.026-0.994 1.026m0-6.973h-2.946v2.584h-0.994v-2.584c0-0.567 0.445-1.027 0.994-1.027h2.946c0.583 0 0.994 0.46 0.994 1.027v2.584h-0.994zm18.675 6.973h-2.947c-0.548 0-0.994-0.46-0.994-1.026v-2.584h0.994v2.584h2.947v-2.584h0.994v2.584c0 0.566-0.445 1.026-0.994 1.026m0-6.973h-2.947v2.23h-0.994v-2.23c0-0.567 0.446-1.027 0.994-1.027h2.947c0.583 0 0.994 0.46 0.994 1.027v2.23h-0.994zm7.195 0h-2.946v2.053h-0.994v-2.053c0-0.567 0.411-1.027 0.994-1.027h2.946c0.583 0 0.994 0.46 0.994 1.027v2.053h-0.994zm0 6.973h-2.946c-0.548 0-0.994-0.46-0.994-1.026v-2.761h0.994v2.761h2.946v-2.761h0.994v2.761c0 0.566-0.479 1.026-0.994 1.026" fill="#fff"/>
 </g>
 <g transform="matrix(1.3333 0 0 -1.3333 1568.3 897.22)">
  <path d="m0 0h-15.75v6.693c0 1.239-1.013 2.307-2.307 2.307h-13.386c-1.239 0-2.307-1.013-2.307-2.307v-6.693h-15.75c-1.237 0-2.25-1.013-2.25-2.25v-11.25l27-4.5 27 4.5v11.25c0 1.237-1.013 2.25-2.25 2.25m-29.25 4.5h9v-4.5h-9zm9-16.875c0-0.619-0.506-1.125-1.125-1.125h-6.75c-0.619 0-1.125 0.506-1.125 1.125v2.25c0 0.619 0.506 1.125 1.125 1.125h6.75c0.619 0 1.125-0.506 1.125-1.125zm-4.5-7.875 27 4.5v-27c0-1.237-1.013-2.25-2.25-2.25h-49.5c-1.237 0-2.25 1.013-2.25 2.25v27z" fill="#fff"/>
 </g>
 <g transform="matrix(1.3333 0 0 -1.3333 1068.6 961.22)">
  <path d="M 0,0 -4.35,3.941 C -19.8,17.953 -30,27.2 -30,38.516 -30,47.762 -22.755,55 -13.5,55 -8.28,55 -3.27,52.572 0,48.75 3.27,52.572 8.28,55 13.5,55 22.755,55 30,47.762 30,38.516 30,27.2 19.8,17.953 4.35,3.941 Z" fill="#fff"/>
 </g>
 <g transform="matrix(1.3333 0 0 -1.3333 1269.7 919.89)">
  <path d="m0 0c0 2.621 0.885 4.8 2.689 6.604s3.983 2.689 6.604 2.689c2.622 0 4.801-0.885 6.604-2.689 1.805-1.804 2.69-3.983 2.69-6.604s-0.885-4.834-2.69-6.639c-1.803-1.803-3.982-2.689-6.604-2.689-2.621 0-4.809 0.877-6.604 2.689-1.813 1.83-2.689 4.051-2.689 6.639m-13.141-6.06c0.545-1.94 1.363-3.846 2.35-5.617l-6.128-7.523 6.944-6.945 7.524 6.127c1.769-0.986 3.71-1.803 5.65-2.382l1.022-9.6h10.008l1.022 9.6c1.94 0.579 3.778 1.396 5.651 2.382l7.49-6.127 7.012 6.945-6.162 7.523c0.953 1.771 1.805 3.677 2.383 5.617l9.601 1.056v10.008l-9.601 1.021c-0.578 1.941-1.43 3.745-2.383 5.618l6.162 7.523-7.012 7.013-7.49-6.161c-1.907 0.953-3.711 1.803-5.651 2.382l-1.022 9.6h-10.008l-1.022-9.6c-2.008-0.579-3.88-1.429-5.65-2.382l-7.524 6.161-6.944-7.013 6.128-7.523c-0.953-1.873-1.771-3.677-2.35-5.618l-9.633-1.021v-10.008z" fill="#fff"/>
 </g>
 <g fill="#fff" fill-rule="evenodd" stroke-width="1.3333">
  <path d="m1176.6 139.89h17.333v17.333h-17.333zm8.6667 16c4.0493 0 7.3333-3.284 7.3333-7.3333 0-4.0507-3.284-7.3333-7.3333-7.3333s-7.3333 3.2827-7.3333 7.3333c0 4.0493 3.284 7.3333 7.3333 7.3333"/>
  <path d="m1176.6 169.22h17.333v17.333h-17.333zm8.6667 16c4.0493 0 7.3333-3.284 7.3333-7.3333 0-4.0507-3.284-7.3333-7.3333-7.3333s-7.3333 3.2826-7.3333 7.3333c0 4.0493 3.284 7.3333 7.3333 7.3333"/>
  <path d="m1168.6 154.55h17.333v17.333h-17.333zm8.6666 16c4.0493 0 7.3333-3.284 7.3333-7.3333 0-4.0507-3.284-7.3333-7.3333-7.3333s-7.3333 3.2827-7.3333 7.3333c0 4.0493 3.284 7.3333 7.3333 7.3333"/>
  <path d="m1194 139.89h17.333v17.333h-17.333zm8.6667 16c4.0493 0 7.3333-3.284 7.3333-7.3333 0-4.0507-3.284-7.3333-7.3333-7.3333-4.0494 0-7.3333 3.2827-7.3333 7.3333 0 4.0493 3.2839 7.3333 7.3333 7.3333"/>
  <path d="m1194 169.22h17.333v17.333h-17.333zm8.6667 16c4.0493 0 7.3333-3.284 7.3333-7.3333 0-4.0507-3.284-7.3333-7.3333-7.3333-4.0494 0-7.3333 3.2826-7.3333 7.3333 0 4.0493 3.2839 7.3333 7.3333 7.3333"/>
  <path d="m1186 154.55h17.333v17.333h-17.333zm8.6667 16c4.0493 0 7.3333-3.284 7.3333-7.3333 0-4.0507-3.284-7.3333-7.3333-7.3333s-7.3333 3.2827-7.3333 7.3333c0 4.0493 3.284 7.3333 7.3333 7.3333"/>
  <path d="m1203.3 154.55h17.333v17.333h-17.333zm8.6667 16c4.0493 0 7.3333-3.284 7.3333-7.3333 0-4.0507-3.284-7.3333-7.3333-7.3333s-7.3333 3.2827-7.3333 7.3333c0 4.0493 3.284 7.3333 7.3333 7.3333"/>
  <path d="m760.63 634.55h97.333v37.333h-97.333zm18.667 6.6666h60c6.628 0 12 5.372 12 12 0 6.6266-5.372 12-12 12h-60c-6.628 0-12-5.3733-12-12 0-6.628 5.372-12 12-12"/>
  <path d="m761.96 667.89h97.333v37.333h-97.333zm18.667 6.6666h60c6.628 0 12 5.372 12 12 0 6.6266-5.372 12-12 12h-60c-6.628 0-12-5.3733-12-12 0-6.628 5.372-12 12-12"/>
 </g>
 <g transform="matrix(1.3333 0 0 -1.3333 685.28 898.11)">
  <path d="m0 0c-4.298-0.338-8.165-0.637-11.604-0.898-1.458-0.113-2.906-0.225-4.344-0.336-1.44-0.114-2.747-0.207-3.924-0.282-1.178-0.074-2.168-0.149-2.972-0.224-0.803-0.074-1.28-0.113-1.428-0.113-0.188-0.037-0.403-0.065-0.645-0.084-0.244-0.018-0.459-0.065-0.645-0.139l-0.673-0.225-2.467 1.121c0.187 0.263 0.412 0.506 0.674 0.731 0.185 0.186 0.42 0.364 0.7 0.533 0.28 0.168 0.569 0.27 0.868 0.309 0.225 0.037 0.822 0.093 1.795 0.168 0.971 0.074 2.167 0.168 3.588 0.28 0 0.486 0.047 1.15 0.14 1.992 0.092 0.841 0.317 1.674 0.672 2.497 0.356 0.822 0.869 1.553 1.541 2.188 0.673 0.636 1.589 1.009 2.747 1.123 1.346 0.111 2.439-0.094 3.281-0.618 0.84-0.523 1.494-1.169 1.961-1.935 0.467-0.768 0.795-1.553 0.981-2.358 0.187-0.804 0.299-1.43 0.337-1.878 1.606 0.111 2.942 0.205 4.008 0.279 1.064 0.076 1.653 0.131 1.765 0.169 0.412 0.038 0.87-0.038 1.373-0.225 0.505-0.186 0.907-0.43 1.206-0.729 0.075-0.075 0.177-0.188 0.308-0.336 0.131-0.151 0.252-0.3 0.365-0.449 0.149-0.151 0.28-0.337 0.392-0.561m-15.528 6.676c-0.709-0.074-1.28-0.326-1.709-0.757-0.43-0.431-0.758-0.944-0.982-1.543-0.223-0.599-0.374-1.206-0.448-1.823-0.075-0.617-0.112-1.114-0.112-1.488 1.159 0.076 2.344 0.169 3.559 0.281s2.402 0.206 3.56 0.281c-0.037 0.336-0.121 0.804-0.252 1.402-0.131 0.599-0.346 1.178-0.645 1.74-0.299 0.561-0.691 1.028-1.176 1.403-0.487 0.373-1.084 0.542-1.795 0.504m21.919-41.24c0.186-1.047 0.159-1.917-0.084-2.61-0.244-0.691-0.925-1.168-2.046-1.43-0.374-0.113-1.187-0.299-2.439-0.562-1.252-0.262-2.747-0.579-4.485-0.953-1.737-0.374-3.597-0.777-5.577-1.207-1.982-0.43-3.878-0.832-5.691-1.205-1.812-0.375-3.437-0.711-4.877-1.011-1.438-0.3-2.457-0.505-3.054-0.617-1.383-0.3-2.402-0.206-3.055 0.28-0.654 0.486-0.982 1.217-0.982 2.189v34.452c0 0.934 0.197 1.691 0.589 2.271 0.393 0.58 0.962 0.889 1.709 0.926 0.299 0 0.664 0.02 1.094 0.057s0.85 0.074 1.261 0.112c0.485 0.037 0.991 0.075 1.514 0.112l0.504-8.023c-0.037-0.038-0.112-0.057-0.224-0.057-0.074 0-0.187-0.01-0.336-0.027-0.15-0.02-0.318-0.029-0.505-0.029-0.784-0.075-1.159-0.542-1.121-1.403 0.038-0.336 0.075-0.805 0.112-1.402 0.037-0.599 0.066-1.225 0.084-1.88 0.019-0.655 0.047-1.29 0.084-1.907s0.074-1.114 0.113-1.488c0.037-0.711 0.149-1.112 0.336-1.206 0.186-0.093 0.598-0.14 1.233-0.14h0.785c0.225 0 0.439 0.01 0.645 0.027 0.205 0.02 0.439 0.038 0.701 0.057 0.261 0.018 0.597 0.047 1.008 0.084 0.785 0.075 1.29 0.243 1.513 0.506 0.225 0.261 0.319 0.654 0.281 1.177 0 0.262-0.028 0.721-0.084 1.375-0.056 0.655-0.113 1.337-0.168 2.048-0.056 0.71-0.103 1.384-0.14 2.02-0.037 0.635-0.074 1.085-0.112 1.346-0.076 0.45-0.168 0.768-0.281 0.954-0.112 0.187-0.318 0.262-0.617 0.224-0.148 0-0.299-9e-3 -0.447-0.027-0.151-0.019-0.3-0.028-0.449-0.028h-0.449l-0.505 7.967c2.542 0.225 4.877 0.412 7.008 0.561 0.897 0.076 1.803 0.15 2.719 0.224 0.916 0.076 1.766 0.141 2.551 0.198 0.785 0.055 1.476 0.111 2.074 0.168 0.598 0.056 1.046 0.103 1.346 0.14 1.083 0.074 1.942-0.113 2.578-0.561 0.635-0.449 1.027-1.122 1.178-2.021 0.037-0.299 0.168-1.196 0.391-2.693 0.224-1.496 0.505-3.291 0.841-5.386s0.691-4.349 1.065-6.761c0.374-2.413 0.729-4.667 1.066-6.761 0.336-2.095 0.625-3.891 0.869-5.387 0.242-1.496 0.4-2.395 0.476-2.693m-35.261-4.881c0-0.525 0.028-0.983 0.084-1.375 0.057-0.393 0.122-0.701 0.197-0.926 0.074-0.299 0.168-0.524 0.279-0.674-0.933 0.486-1.831 0.973-2.69 1.459-0.747 0.412-1.495 0.832-2.242 1.263-0.747 0.43-1.383 0.795-1.906 1.094-0.972 0.561-1.635 1.235-1.99 2.02s-0.439 1.608-0.253 2.469c0.076 0.224 0.244 1.047 0.505 2.469 0.262 1.421 0.588 3.142 0.981 5.162 0.392 2.019 0.803 4.189 1.233 6.508 0.43 2.32 0.831 4.49 1.205 6.509 0.374 2.02 0.701 3.76 0.982 5.218 0.28 1.459 0.439 2.319 0.476 2.581 0.15 0.823 0.42 1.459 0.813 1.908 0.392 0.449 0.849 0.561 1.373 0.336 0.299-0.149 0.543-0.317 0.728-0.504 0.114-0.113 0.188-0.207 0.225-0.281z" fill="#fff"/>
 </g>
 <path d="m17.103 5.8744c-0.24896 0.1391-0.51389 0.29233-0.77491 0.44781-0.19229 0.11732-0.38764 0.23547-0.59284 0.36612-0.28986 0.18295-0.58872 0.38147-0.88588 0.58613-1.0143 0.6962-1.9805 1.4617-2.9129 2.3038-0.3918 0.35503-0.78706 0.73402-1.1728 1.1236-1.7841 1.8139-3.3722 3.9173-4.7452 6.2955-3.2629 5.6515-4.5767 11.567-3.9345 17.745 0.10769 1.0404 0.26946 2.0861 0.4949 3.1608 0.1258 0.60457 0.27437 1.2327 0.44296 1.8619 0.15381 0.57403 0.32132 1.1378 0.50501 1.7005 2.3215 7.1658 6.8134 12.67 13.473 16.515q10.762 6.2133 22.764 2.9973c8.003-2.1444 14.077-6.8055 18.219-13.979 2.5452-4.4129 3.9045-8.9787 4.0735-13.666 0.08612-2.4413-0.13466-4.8859-0.66282-7.3729l-0.0066-0.02455c-0.1122-0.52924-0.23011-1.0307-0.36006-1.5157l-0.04935-0.18418c-0.16943-0.63238-0.35564-1.2537-0.54424-1.8348-0.050302-0.15103-0.09656-0.28669-0.14196-0.41929-0.42132-1.2163-0.90501-2.383-1.4384-3.4771-0.22593-0.46259-0.46252-0.9158-0.70112-1.3519-2.5755-4.6267-6.2848-8.3276-11.15-11.137-3.7832-2.1843-7.6809-3.4955-11.7-3.929-3.2289-0.34879-6.537-0.13364-9.9263 0.64955-0.37472 0.087247-0.75702 0.1831-1.1408 0.28593l-0.18418 0.049352c-2.4924 0.68099-4.7994 1.6117-6.9481 2.8027z" fill="url(#c-3)" image-rendering="optimizeSpeed" stroke-width=".99684"/>
 <circle cx="32" cy="32" r="24.564" color="#000000" enable-background="accumulate" fill="url(#linearGradient2343)" stroke-width="2.0565"/>
 <path d="m8.2289 25.631a24.61 24.61 0 0 0 17.402 30.141 24.61 24.61 0 0 0 30.141-17.402 24.61 24.61 0 0 0-17.402-30.141 24.61 24.61 0 0 0-30.141 17.402zm1.9017 0.50956a22.641 22.641 0 0 1 27.729-16.01 22.641 22.641 0 0 1 16.01 27.729 22.641 22.641 0 0 1-27.729 16.01 22.641 22.641 0 0 1-16.01-27.729z" fill="url(#e)" fill-rule="evenodd" image-rendering="optimizeSpeed" stroke-width=".98439" style="paint-order:stroke fill markers"/>
 <path d="m46.723 30.355c-0.04686-0.41652-0.53251-0.72951-0.95248-0.72951-1.3577 0-2.5626-0.79723-3.0679-2.0301-0.51619-1.2628-0.18334-2.7355 0.82858-3.6636 0.31852-0.29116 0.35722-0.77858 0.09009-1.1172-0.69491-0.88246-1.4847-1.6795-2.3472-2.3703-0.3377-0.27099-0.83318-0.23329-1.126 0.09096-0.88308 0.97798-2.4694 1.3415-3.6952 0.83006-1.2756-0.53658-2.08-1.8292-2.0013-3.2166 0.02591-0.43581-0.2926-0.81477-0.7271-0.86538-1.1067-0.128-2.2231-0.13197-3.3331-0.0088-0.42954 0.04741-0.74806 0.4174-0.73362 0.84768 0.04829 1.3738-0.7658 2.6438-2.0287 3.1611-1.2111 0.49469-2.7862 0.13428-3.6676-0.83505-0.29129-0.31928-0.7787-0.35853-1.118-0.09404-0.88799 0.69666-1.6956 1.4944-2.3968 2.3695-0.27353 0.34023-0.23329 0.83333 0.08843 1.1261 1.0312 0.93384 1.3641 2.4193 0.82842 3.6966-0.51145 1.2178-1.7761 2.0027-3.2238 2.0027-0.46978-0.0151-0.8044 0.30021-0.85579 0.72731-0.13031 1.113-0.13186 2.2472-0.0064 3.3693 0.04652 0.41828 0.54696 0.72852 0.9715 0.72852 1.2902-0.03296 2.5288 0.76579 3.0485 2.0303 0.51796 1.2628 0.185 2.7346-0.82842 3.6636-0.31697 0.29116-0.35722 0.7778-0.09007 1.1164 0.68841 0.87684 1.4784 1.6747 2.3438 2.3713 0.33946 0.27352 0.83341 0.23494 1.1276-0.0893 0.88643-0.98047 2.4726-1.3433 3.6935-0.83084 1.2788 0.53492 2.0832 1.8274 2.0045 3.2157-0.02569 0.43603 0.29437 0.81563 0.7271 0.86546 0.56614 0.06604 1.1357 0.09901 1.7068 0.09901 0.5421 0 1.0843-0.02978 1.6264-0.09008 0.42965-0.04741 0.74795-0.4174 0.7335-0.84846-0.04973-1.373 0.7658-2.643 2.0271-3.1594 1.2192-0.49799 2.7878-0.13351 3.6692 0.83481 0.29294 0.31862 0.77694 0.3571 1.1182 0.09349 0.88628-0.69501 1.6922-1.4921 2.3968-2.3697 0.27342-0.33945 0.23483-0.83333-0.08852-1.126-1.0312-0.93384-1.3658-2.4195-0.83006-3.696 0.50362-1.2016 1.7212-2.0084 3.0309-2.0084l0.18324 0.0047c0.4248 0.03452 0.81563-0.29271 0.8671-0.72632 0.13054-1.114 0.13208-2.2472 0.0064-3.3693zm-14.699 6.6182c-2.7252 0-4.9419-2.2166-4.9419-4.9418 0-2.725 2.2167-4.9418 4.9419-4.9418 2.7251 0 4.9418 2.2168 4.9418 4.9418 0 2.7251-2.2167 4.9418-4.9418 4.9418z" clip-rule="evenodd" fill="#5f7b89" fill-rule="evenodd" stroke-width=".12231"/>
</svg>
