<?xml version="1.0" encoding="UTF-8"?>
<svg width="64" height="64" enable-background="new" version="1.1" viewBox="0 0 16.933 16.933" xmlns="http://www.w3.org/2000/svg" xmlns:cc="http://creativecommons.org/ns#" xmlns:dc="http://purl.org/dc/elements/1.1/" xmlns:rdf="http://www.w3.org/1999/02/22-rdf-syntax-ns#" xmlns:xlink="http://www.w3.org/1999/xlink">
 <metadata>
  <rdf:RDF>
   <cc:Work rdf:about="">
    <dc:format>image/svg+xml</dc:format>
    <dc:type rdf:resource="http://purl.org/dc/dcmitype/StillImage"/>
    <dc:title/>
   </cc:Work>
  </rdf:RDF>
 </metadata>
 <defs>
  <radialGradient id="e" cx="399.85" cy="191.95" r="49.762" gradientTransform="matrix(.1173 .026146 -.026518 .12595 -34.072 -25.472)" gradientUnits="userSpaceOnUse">
   <stop stop-color="#0a283c" offset="0"/>
   <stop stop-color="#506e78" offset="1"/>
  </radialGradient>
  <radialGradient id="d" cx="451.89" cy="300.02" r="20.151" gradientTransform="matrix(.14711 .024102 -.026167 .16909 -51.465 -52.133)" gradientUnits="userSpaceOnUse">
   <stop stop-color="#0078f0" offset="0"/>
   <stop stop-color="#00a0f0" offset="1"/>
  </radialGradient>
  <linearGradient id="f" x1="422.66" x2="567.48" y1="-296.76" y2="-251.7" gradientTransform="matrix(.088209 0 0 .087013 -31.236 19.079)" gradientUnits="userSpaceOnUse">
   <stop stop-color="#fafafa" offset="0"/>
   <stop stop-color="#c8e6f0" offset="1"/>
  </linearGradient>
  <radialGradient id="c" cx="403.36" cy="328" r="33.477" gradientTransform="matrix(.077292 .017092 -.022236 .10645 -20.943 -29.518)" gradientUnits="userSpaceOnUse" xlink:href="#b">
   <stop stop-color="#3c5a6e" offset="0"/>
   <stop stop-color="#64828c" offset="1"/>
  </radialGradient>
  <radialGradient id="b" cx="426.87" cy="312.58" r="50.458" fr="0" gradientTransform="matrix(.069911 .01125 -.0191 .12566 -18.903 -32.73)" gradientUnits="userSpaceOnUse">
   <stop stop-color="#5a7887" offset="0"/>
   <stop stop-color="#87a0aa" offset="1"/>
  </radialGradient>
  <radialGradient id="a" cx="249.8" cy="130.23" r="17.762" gradientTransform="matrix(.45839 .053168 -.039705 .3331 -97.667 -60.017)" gradientUnits="userSpaceOnUse">
   <stop stop-color="#fff" offset="0"/>
   <stop offset="1"/>
  </radialGradient>
  <radialGradient id="radialGradient985" cx="451.89" cy="300.02" r="20.151" gradientTransform="matrix(.050204 .0094813 -.0062194 .033899 -13.691 -4.7991)" gradientUnits="userSpaceOnUse" xlink:href="#f"/>
  <radialGradient id="radialGradient997" cx="426.87" cy="312.58" r="50.458" fr="0" gradientTransform="matrix(.069911 .01125 -.0191 .12566 -18.903 -32.73)" gradientUnits="userSpaceOnUse" xlink:href="#b"/>
  <linearGradient id="linearGradient999" x1="422.66" x2="567.48" y1="-296.76" y2="-251.7" gradientTransform="matrix(.088209 0 0 .087013 -31.236 19.079)" gradientUnits="userSpaceOnUse" xlink:href="#f"/>
 </defs>
 <g transform="matrix(1.0717 0 0 1.0717 -.91414 -.24856)">
  <g stroke-width=".95352">
   <path d="m4.2261 7.2437-1.4408 1.0013s-1.6942 1.2148-0.34124 3.9533c1.4876 3.0111 3.6146 2.2497 3.6146 2.2497l1.643-0.87126z" fill="url(#c)"/>
   <path d="m4.2718 7.1936s-0.30965 0.097532-0.51186 0.43564c-0.20222 0.33811-0.66244 1.25-0.093706 3.0446 0.54489 1.5481 2.3681 3.7915 4.0939 3.0609 0.17694-0.16906-3.4883-6.5413-3.4883-6.5413z" fill="#28465a"/>
   <path d="m4.8034 2.6468c-0.021435-0.044101-0.80967 1.6127-0.89734 4.6488-0.06895 2.3876 0.36243 4.8265 3.6273 6.4825 3.1824 1.6144 5.0809 1.7035 5.0809 1.7035z" fill="url(#radialGradient997)"/>
  </g>
  <g fill-rule="evenodd">
   <ellipse transform="matrix(.49976 .86617 -.85339 .52128 0 0)" cx="12.111" cy="-4.3485" rx="8.0335" ry="3.9622" fill="url(#linearGradient999)" stroke-width=".95367"/>
   <ellipse transform="matrix(.49976 .86617 -.85339 .52128 0 0)" cx="12.111" cy="-4.3485" rx="8.0335" ry="3.9622" fill="url(#a)" opacity=".1" stroke-width=".95367"/>
   <path d="m8.4986 11.923a2.7188 1.5512 60.752 0 0 0.035923-0.0014 2.7188 1.5512 60.752 0 0 0.15748-0.03066 2.7188 1.5512 60.752 0 0 0.10474-0.03654 2.7188 1.5512 60.752 0 0 0.13727-0.07222 2.7188 1.5512 60.752 0 0 0.12352-0.09564 2.7188 1.5512 60.752 0 0 0.10853-0.11809 2.7188 1.5512 60.752 0 0 0.09251-0.1394 2.7188 1.5512 60.752 0 0 0.075503-0.15928 2.7188 1.5512 60.752 0 0 0.057787-0.1776 2.7188 1.5512 60.752 0 0 0.039447-0.19408 2.7188 1.5512 60.752 0 0 0.020749-0.20873 2.7188 1.5512 60.752 0 0 0.00182-0.22117 2.7188 1.5512 60.752 0 0-0.017095-0.23148 2.7188 1.5512 60.752 0 0-0.035879-0.23949 2.7188 1.5512 60.752 0 0-0.054263-0.24505 2.7188 1.5512 60.752 0 0-0.07216-0.24822 2.7188 1.5512 60.752 0 0-0.089247-0.24886 2.7188 1.5512 60.752 0 0-0.10554-0.24702 2.7188 1.5512 60.752 0 0-0.083938-0.17241 2.7188 1.5512 60.752 0 0-0.13075-0.23825 2.7188 1.5512 60.752 0 0-0.14383-0.22981 2.7188 1.5512 60.752 0 0-0.15538-0.21911 2.7188 1.5512 60.752 0 0-0.16547-0.20625 2.7188 1.5512 60.752 0 0-0.1739-0.19128 2.7188 1.5512 60.752 0 0-0.18055-0.17448 2.7188 1.5512 60.752 0 0-0.18541-0.15584 2.7188 1.5512 60.752 0 0-0.1884-0.13563 2.7188 1.5512 60.752 0 0-0.18956-0.11419 2.7188 1.5512 60.752 0 0-0.18881-0.091509 2.7188 1.5512 60.752 0 0-0.18613-0.067955 2.7188 1.5512 60.752 0 0-0.18162-0.043645 2.7188 1.5512 60.752 0 0-0.17533-0.019044 2.7188 1.5512 60.752 0 0-0.16721 0.005877 2.7188 1.5512 60.752 0 0-0.15748 0.030661 2.7188 1.5512 60.752 0 0-0.10478 0.036584 2.7188 1.5512 60.752 0 0-0.13722 0.072179 2.7188 1.5512 60.752 0 0-0.12352 0.095641 2.7188 1.5512 60.752 0 0-0.085235 0.092753 6.9442 3.1138 61.483 0 0 1.0071 2.3484 6.9442 3.1138 61.483 0 0 1.5164 2.2922z" fill="url(#d)" stroke="#333" stroke-width=".06526"/>
   <path d="m7.099 1.9497a6.9442 3.1138 61.483 0 0-0.6171 0.15823 6.9442 3.1138 61.483 0 0-0.50703 5.1746 2.7188 1.5512 60.752 0 1 0.085235-0.092753 2.7188 1.5512 60.752 0 1 0.12352-0.095641 2.7188 1.5512 60.752 0 1 0.13722-0.072179 2.7188 1.5512 60.752 0 1 0.10478-0.036584 2.7188 1.5512 60.752 0 1 0.15748-0.030661 2.7188 1.5512 60.752 0 1 0.16721-0.00588 2.7188 1.5512 60.752 0 1 0.17533 0.019043 2.7188 1.5512 60.752 0 1 0.18162 0.043645 2.7188 1.5512 60.752 0 1 0.18613 0.067955 2.7188 1.5512 60.752 0 1 0.18881 0.091509 2.7188 1.5512 60.752 0 1 0.18956 0.11419 2.7188 1.5512 60.752 0 1 0.1884 0.13563 2.7188 1.5512 60.752 0 1 0.18541 0.15584 2.7188 1.5512 60.752 0 1 0.18055 0.17448 2.7188 1.5512 60.752 0 1 0.1739 0.19128 2.7188 1.5512 60.752 0 1 0.16547 0.20625 2.7188 1.5512 60.752 0 1 0.15538 0.21911 2.7188 1.5512 60.752 0 1 0.14383 0.22981 2.7188 1.5512 60.752 0 1 0.13075 0.23825 2.7188 1.5512 60.752 0 1 0.083938 0.17241 2.7188 1.5512 60.752 0 1 0.10554 0.24702 2.7188 1.5512 60.752 0 1 0.089247 0.24886 2.7188 1.5512 60.752 0 1 0.07216 0.24822 2.7188 1.5512 60.752 0 1 0.054263 0.24505 2.7188 1.5512 60.752 0 1 0.035879 0.23949 2.7188 1.5512 60.752 0 1 0.017091 0.23151 2.7188 1.5512 60.752 0 1-0.00182 0.22117 2.7188 1.5512 60.752 0 1-0.020749 0.20873 2.7188 1.5512 60.752 0 1-0.039447 0.19408 2.7188 1.5512 60.752 0 1-0.057787 0.1776 2.7188 1.5512 60.752 0 1-0.075503 0.15928 2.7188 1.5512 60.752 0 1-0.09251 0.1394 2.7188 1.5512 60.752 0 1-0.10853 0.11809 2.7188 1.5512 60.752 0 1-0.12352 0.09564 2.7188 1.5512 60.752 0 1-0.13727 0.07222 2.7188 1.5512 60.752 0 1-0.10474 0.03654 2.7188 1.5512 60.752 0 1-0.15748 0.03066 2.7188 1.5512 60.752 0 1-0.035923 0.0014 6.9442 3.1138 61.483 0 0 4.539 2.427 6.9442 3.1138 61.483 0 0-0.48635-7.5126l-0.01482-0.027654a6.9442 3.1138 61.483 0 0-5.4373-4.8607z" fill="url(#e)" stroke-width=".95352"/>
   <path d="m7.5878 10.49a0.93182 0.53166 60.752 0 0 0.012312-4.8e-4 0.93182 0.53166 60.752 0 0 0.053973-0.01048 0.93182 0.53166 60.752 0 0 0.035896-0.01252 0.93182 0.53166 60.752 0 0 0.047046-0.02475 0.93182 0.53166 60.752 0 0 0.042334-0.03278 0.93182 0.53166 60.752 0 0 0.037195-0.04048 0.93182 0.53166 60.752 0 0 0.031706-0.04778 0.93182 0.53166 60.752 0 0 0.025878-0.05459 0.93182 0.53166 60.752 0 0 0.019806-0.06087 0.93182 0.53166 60.752 0 0 0.01352-0.06652 0.93182 0.53166 60.752 0 0 0.00711-0.07154 0.93182 0.53166 60.752 0 0 6.237e-4 -0.0758 0.93182 0.53166 60.752 0 0-0.00586-0.079335 0.93182 0.53166 60.752 0 0-0.012297-0.082082 0.93182 0.53166 60.752 0 0-0.018598-0.083987 0.93182 0.53166 60.752 0 0-0.024731-0.085072 0.93182 0.53166 60.752 0 0-0.030588-0.085293 0.93182 0.53166 60.752 0 0-0.036172-0.084663 0.93182 0.53166 60.752 0 0-0.028768-0.059091 0.93182 0.53166 60.752 0 0-0.044812-0.081657 0.93182 0.53166 60.752 0 0-0.049295-0.078762 0.93182 0.53166 60.752 0 0-0.053254-0.075095 0.93182 0.53166 60.752 0 0-0.056711-0.07069 0.93182 0.53166 60.752 0 0-0.059602-0.065559 0.93182 0.53166 60.752 0 0-0.061882-0.059798 0.93182 0.53166 60.752 0 0-0.063548-0.053411 0.93182 0.53166 60.752 0 0-0.064572-0.046486 0.93182 0.53166 60.752 0 0-0.06497-0.039138 0.93182 0.53166 60.752 0 0-0.06471-0.031363 0.93182 0.53166 60.752 0 0-0.063791-0.023291 0.93182 0.53166 60.752 0 0-0.062249-0.014959 0.93182 0.53166 60.752 0 0-0.060091-0.00653 0.93182 0.53166 60.752 0 0-0.057308 0.00201 0.93182 0.53166 60.752 0 0-0.053973 0.010504 0.93182 0.53166 60.752 0 0-0.035911 0.012538 0.93182 0.53166 60.752 0 0-0.047029 0.024738 0.93182 0.53166 60.752 0 0-0.042336 0.03278 0.93182 0.53166 60.752 0 0-0.029214 0.031789 2.38 1.0672 61.483 0 0 0.34515 0.80486 2.38 1.0672 61.483 0 0 0.51972 0.78561z" fill="url(#radialGradient985)"/>
  </g>
 </g>
</svg>
