<?xml version="1.0" encoding="UTF-8"?>
<svg width="64" height="64" version="1.1" xmlns="http://www.w3.org/2000/svg" xmlns:cc="http://creativecommons.org/ns#" xmlns:dc="http://purl.org/dc/elements/1.1/" xmlns:rdf="http://www.w3.org/1999/02/22-rdf-syntax-ns#">
 <metadata>
  <rdf:RDF>
   <cc:Work rdf:about="">
    <dc:format>image/svg+xml</dc:format>
    <dc:type rdf:resource="http://purl.org/dc/dcmitype/StillImage"/>
    <dc:title/>
   </cc:Work>
  </rdf:RDF>
 </metadata>
 <defs>
  <linearGradient id="d" x1="31.121" x2="31.525" y1="18.007" y2="47.409" gradientUnits="userSpaceOnUse">
   <stop stop-color="#fff" offset="0"/>
   <stop stop-color="#fdeae1" offset="1"/>
  </linearGradient>
  <filter id="e" x="-.060001" y="-.059999" width="1.12" height="1.12" color-interpolation-filters="sRGB">
   <feGaussianBlur stdDeviation="0.70000967"/>
  </filter>
  <linearGradient id="linearGradient1634" x1="-59.235" x2="-59.235" y1=".7041" y2="-11.929" gradientTransform="matrix(4.1232 0 0 4.1232 275.52 59.011)" gradientUnits="userSpaceOnUse">
   <stop stop-color="#d73782" offset="0"/>
   <stop stop-color="#eb554b" offset="1"/>
  </linearGradient>
  <linearGradient id="i" x1="400.4" x2="400.4" y1="545.62" y2="517.62" gradientTransform="matrix(1.5862 0 0 1.5862 -545.86 -680.96)" gradientUnits="userSpaceOnUse">
   <stop stop-color="#d3d3d3" offset="0"/>
   <stop stop-color="#fcf9f9" offset="1"/>
  </linearGradient>
  <linearGradient id="f" x1="400.4" x2="400.4" y1="545.62" y2="517.62" gradientTransform="matrix(1.6382 0 0 1.6382 -620.51 -686.48)" gradientUnits="userSpaceOnUse">
   <stop stop-color="#8d3aff" offset="0"/>
   <stop stop-color="#ff3680" offset="1"/>
  </linearGradient>
 </defs>
 <path d="m62 32c0 3.5964-0.63304 7.0445-1.7939 10.24-0.80696 2.2212-1.8685 4.3211-3.1519 6.2636-0.53755 0.81668-1.1155 1.6054-1.729 2.3634-1.9641 2.4256-4.2981 4.538-6.9184 6.2525-0.96492 0.63185-1.9678 1.2098-3.0061 1.7277-4.032 2.0179-8.5838 3.153-13.401 3.153-4.817 0-9.3688-1.1351-13.401-3.1531-1.0384-0.518-2.0425-1.0959-3.0074-1.7277-2.6535-1.7376-5.0155-3.8831-6.9955-6.3489-0.61465-0.76408-1.1915-1.56-1.729-2.3841-1.249-1.9102-2.2836-3.9711-3.0746-6.1494-1.1607-3.1947-1.7927-6.6417-1.7927-10.237 0-16.569 13.431-30 30-30 8.3169 0 15.842 3.3845 21.277 8.8505 1.5661 1.5746 2.9585 3.3234 4.1434 5.2138 1.1205 1.7805 2.0571 3.6882 2.7857 5.695 1.1611 3.1959 1.794 6.6442 1.794 10.24z" fill="url(#linearGradient1634)" image-rendering="optimizeSpeed" stroke-width=".11719"/>
 <path d="m31.121 18.007c-1.0461 0.02035-2.0758 0.06105-2.7556 0.16281-3.0405 0.46401-5.4786 1.5304-7.0456 3.0853a6.2682 6.2682 0 0 0-1.7095 2.9306c-0.18316 0.70822-0.24422 2.3404-0.05291 2.9631 0.63903 2.1979 2.1572 3.883 5.0064 5.5762 1.2129 0.71636 2.1491 1.1885 4.8436 2.4055 3.2359 1.4531 4.2209 2.0392 4.6808 2.7678 0.17909 0.29306 0.24422 0.44773 0.2198 0.80184-0.04885 0.5617-0.32969 0.84254-0.98907 1.0827-0.43959 0.15467-0.59833 0.20351-1.4327 0.20351-1.5263-0.01628-2.8695-0.3012-4.7337-0.96465a17.225 17.225 0 0 1-3.6836-1.8072c-1.0827-0.70822-1.1682-0.73264-1.4897-0.5617-0.24014 0.13432-1.9985 1.7014-3.2969 2.9713-0.85068 0.82626-0.86289 0.99314-0.27678 1.563 0.57391 0.56984 2.1939 1.7706 3.0812 2.2834 0.96465 0.56984 1.6078 0.88325 2.6945 1.2862 1.8235 0.67566 3.3539 0.95651 6.2193 1.2007 0.65124 0.05291 2.9794 0.06105 3.7975 0 4.4854-0.35818 8.1446-1.8235 10.07-3.9685 0.69194-0.76114 1.1071-1.4164 1.4327-2.3282 0.31748-0.88732 0.39888-2.6294 0.16282-3.6877-0.38261-1.7136-1.4165-3.2643-3.0812-4.5709-1.6688-1.3106-3.362-2.1817-7.4282-3.8098-2.841-1.1315-3.9074-1.7339-4.1842-2.3648-0.1506-0.33783-0.06105-0.93616 0.16281-1.1641 0.44773-0.4518 1.3106-0.61461 2.4259-0.48029 2.0758 0.25643 4.7459 1.2089 7.0985 2.5236 0.45587 0.25236 0.89546 0.46401 0.99315 0.48436 0.37853 0.09769 0.61054-0.05291 2.145-1.8072 1.8845-2.1572 1.8642-2.0718 0.82626-2.8085-3.0934-2.2142-6.6752-3.5004-10.786-3.8871a28.744 28.744 0 0 0-2.9184-0.0814z" filter="url(#e)" opacity=".15" stroke-width="3.7796"/>
 <path d="m31.121 18.007c-1.0461 0.02035-2.0758 0.06105-2.7556 0.16281-3.0405 0.46401-5.4786 1.5304-7.0456 3.0853a6.2682 6.2682 0 0 0-1.7095 2.9306c-0.18316 0.70822-0.24422 2.3404-0.05291 2.9631 0.63903 2.1979 2.1572 3.883 5.0064 5.5762 1.2129 0.71636 2.1491 1.1885 4.8436 2.4055 3.2359 1.4531 4.2209 2.0392 4.6808 2.7678 0.17909 0.29306 0.24422 0.44773 0.2198 0.80184-0.04885 0.5617-0.32969 0.84254-0.98907 1.0827-0.43959 0.15467-0.59833 0.20351-1.4327 0.20351-1.5263-0.01628-2.8695-0.3012-4.7337-0.96465a17.225 17.225 0 0 1-3.6836-1.8072c-1.0827-0.70822-1.1682-0.73264-1.4897-0.5617-0.24014 0.13432-1.9985 1.7014-3.2969 2.9713-0.85068 0.82626-0.86289 0.99314-0.27678 1.563 0.57391 0.56984 2.1939 1.7706 3.0812 2.2834 0.96465 0.56984 1.6078 0.88325 2.6945 1.2862 1.8235 0.67566 3.3539 0.95651 6.2193 1.2007 0.65124 0.05291 2.9794 0.06105 3.7975 0 4.4854-0.35818 8.1446-1.8235 10.07-3.9685 0.69194-0.76114 1.1071-1.4164 1.4327-2.3282 0.31748-0.88732 0.39888-2.6294 0.16282-3.6877-0.38261-1.7136-1.4165-3.2643-3.0812-4.5709-1.6688-1.3106-3.362-2.1817-7.4282-3.8098-2.841-1.1315-3.9074-1.7339-4.1842-2.3648-0.1506-0.33783-0.06105-0.93616 0.16281-1.1641 0.44773-0.4518 1.3106-0.61461 2.4259-0.48029 2.0758 0.25643 4.7459 1.2089 7.0985 2.5236 0.45587 0.25236 0.89546 0.46401 0.99315 0.48436 0.37853 0.09769 0.61054-0.05291 2.145-1.8072 1.8845-2.1572 1.8642-2.0718 0.82626-2.8085-3.0934-2.2142-6.6752-3.5004-10.786-3.8871a28.744 28.744 0 0 0-2.9184-0.0814z" fill="url(#d)" stroke-width="3.7796"/>
 <g transform="translate(109.29 -7.3225)" fill="#5e4aa6" image-rendering="optimizeSpeed">
  <circle cx="-1331.1" cy="-1237.8" r="0"/>
  <circle cx="-1262.2" cy="-1229.7" r="0"/>
  <circle cx="-1239.2" cy="-1255.5" r="0"/>
  <circle cx="-1249.8" cy="-1228.8" r="0"/>
 </g>
 <circle cx="89.505" cy="162.59" r="0" fill="url(#i)" image-rendering="optimizeSpeed"/>
 <circle cx="35.716" cy="184.75" r="0" fill="none" image-rendering="optimizeSpeed" stroke="url(#f)" stroke-width="2.1297"/>
</svg>
