<?xml version="1.0" encoding="UTF-8"?>
<!-- Created with Inkscape (http://www.inkscape.org/) -->
<svg width="64" height="64" version="1.1" viewBox="0 0 16.933 16.933" xmlns="http://www.w3.org/2000/svg" xmlns:cc="http://creativecommons.org/ns#" xmlns:dc="http://purl.org/dc/elements/1.1/" xmlns:rdf="http://www.w3.org/1999/02/22-rdf-syntax-ns#">
 <metadata>
  <rdf:RDF>
   <cc:Work rdf:about="">
    <dc:format>image/svg+xml</dc:format>
    <dc:type rdf:resource="http://purl.org/dc/dcmitype/StillImage"/>
    <dc:title/>
   </cc:Work>
  </rdf:RDF>
 </metadata>
 <path d="m15.743 8.4667c0 0.87223-0.15353 1.7085-0.43508 2.4836-0.19571 0.5387-0.45318 1.048-0.76442 1.5191-0.13037 0.19807-0.27054 0.38935-0.41933 0.57317-0.47634 0.5883-1.0424 1.1006-1.6779 1.5164-0.23402 0.15324-0.47725 0.29342-0.72907 0.41902-0.97788 0.48939-2.0818 0.76468-3.2501 0.76468s-2.2722-0.27529-3.2501-0.7647c-0.25184-0.12563-0.49536-0.2658-0.72938-0.41902-0.64355-0.42141-1.2164-0.94176-1.6966-1.5398-0.14907-0.18531-0.28896-0.37835-0.41933-0.5782-0.30292-0.46327-0.55385-0.96312-0.74569-1.4914-0.28151-0.77483-0.43477-1.6108-0.43477-2.4827 0-4.0184 3.2575-7.2759 7.2759-7.2759 2.0171 0 3.8423 0.82084 5.1603 2.1465 0.37982 0.38189 0.7175 0.806 1.0049 1.2645 0.27174 0.43181 0.49891 0.89448 0.67561 1.3812 0.28158 0.77511 0.4351 1.6114 0.4351 2.4836z" fill="#fafafa" stroke-width=".028422"/>
 <g transform="translate(-21.833 .89722)" fill="#5e4aa6" stroke-width=".26458">
  <circle cx="-330.35" cy="-328.38" r="0"/>
  <circle cx="-312.11" cy="-326.25" r="0"/>
  <circle cx="-306.02" cy="-333.07" r="0"/>
  <circle cx="-308.84" cy="-326.01" r="0"/>
 </g>
 <path d="m8.4659 3.8128c-2.646 0-4.7913 2.1452-4.7913 4.7913 9.59e-4 2.0328 1.2873 3.8425 3.2069 4.5166 0.17121-0.0068 0.3076-0.14406 0.3076-0.31686v-0.68515h-0.31941c-0.47274 0-1.0362-0.12553-1.211-0.63883-0.23285-0.68451-0.89755-0.85188-0.70559-0.95825 0.04025-0.02236 0.08177-0.0361 0.12425-0.04248 0.03705-0.0058 0.07506-0.0054 0.11307-6.38e-4 0.26575 0.03323 0.54524 0.30025 0.72124 0.52225 0.3143 0.39672 0.48871 0.47912 0.82857 0.47912 0.32261 0 0.4491-0.07987 0.4491-0.07987 0-0.30505 0.13927-0.53917 0.35487-0.68994-1.2243-0.19164-2.1116-0.81451-2.1116-2.1049 0-0.61871 0.17121-1.1166 0.46284-1.5048-0.13096-0.45037-0.11658-0.90746 0.01629-1.3699 0.44814 0 0.9509 0.24371 1.2709 0.50532 0.39064-0.12361 0.82473-0.1859 1.2841-0.1859 0.45836 0 0.8934 0.06197 1.2873 0.18462 0.31941-0.26096 0.82153-0.50403 1.2691-0.50403 0.13064 0.45453 0.14502 0.90394 0.02108 1.347 0.3076 0.39128 0.48967 0.8966 0.48967 1.5278 0 1.2904-0.90905 1.9143-2.143 2.1056 0.21529 0.15076 0.35424 0.38457 0.35424 0.6893v1.4039c0 0.1728 0.13639 0.31015 0.3076 0.31686 1.9197-0.67269 3.2037-2.4825 3.2069-4.5166 0.0013-2.646-2.1452-4.7913-4.7913-4.7913z" fill="#333" stroke-width="1.0284"/>
</svg>
