<?xml version="1.0" encoding="UTF-8"?>
<!-- Created with Inkscape (http://www.inkscape.org/) -->
<svg width="64" height="64" version="1.1" viewBox="0 0 16.933 16.933" xmlns="http://www.w3.org/2000/svg" xmlns:cc="http://creativecommons.org/ns#" xmlns:dc="http://purl.org/dc/elements/1.1/" xmlns:rdf="http://www.w3.org/1999/02/22-rdf-syntax-ns#" xmlns:xlink="http://www.w3.org/1999/xlink">
 <defs>
  <linearGradient id="linearGradient1068" x1="73.52" x2="89.099" y1="18.109" y2="18.109" gradientTransform="translate(-25.384 -5.7584)" gradientUnits="userSpaceOnUse">
   <stop stop-color="#00c65b" offset="0"/>
   <stop stop-color="#01bba1" offset="1"/>
  </linearGradient>
  <linearGradient id="linearGradient1113" x1="55.594" x2="55.433" y1="22.689" y2="34.054" gradientTransform="translate(0 -11.552)" gradientUnits="userSpaceOnUse">
   <stop stop-color="#00c370" stop-opacity=".5" offset="0"/>
   <stop stop-color="#fafafa" stop-opacity="0" offset="1"/>
  </linearGradient>
  <linearGradient id="linearGradient922">
   <stop stop-color="#91aab4" offset="0"/>
   <stop stop-color="#648291" offset="1"/>
  </linearGradient>
  <linearGradient id="linearGradient924" x1="162.61" x2="162.61" y1="15.335" y2="27.41" gradientTransform="translate(-133.76 -9.0309)" gradientUnits="userSpaceOnUse" xlink:href="#linearGradient922"/>
  <linearGradient id="linearGradient951" x1="156.58" x2="168.85" y1="15.3" y2="27.534" gradientTransform="translate(-133.76 -8.986)" gradientUnits="userSpaceOnUse" xlink:href="#linearGradient922"/>
  <linearGradient id="linearGradient954" x1="8.9124" x2="15.823" y1="-25.546" y2="-32.452" gradientUnits="userSpaceOnUse">
   <stop stop-color="#2d4650" offset="0"/>
   <stop stop-color="#2a495d" stop-opacity=".1" offset="1"/>
  </linearGradient>
 </defs>
 <metadata>
  <rdf:RDF>
   <cc:Work rdf:about="">
    <dc:format>image/svg+xml</dc:format>
    <dc:type rdf:resource="http://purl.org/dc/dcmitype/StillImage"/>
    <dc:title/>
   </cc:Work>
  </rdf:RDF>
 </metadata>
 <g transform="matrix(.83184 0 0 .83184 -38.069 -1.4701)">
  <rect x="47.196" y="4.7088" width="17.494" height="14.552" ry="1.2138" fill="#2d4650" stroke-width="1.0964"/>
  <rect x="48.355" y="5.6727" width="15.176" height="12.624" ry="1.053" fill="#3c5564" stroke-width=".95117"/>
  <g fill="#fafafa">
   <path transform="scale(.26458)" d="m192.65 21.441v47.713h3.4512v-47.713z" opacity=".2" style="paint-order:stroke fill markers"/>
   <path transform="scale(.26458)" d="m203.83 21.441v47.713h3.4512v-47.713z" opacity=".2" style="paint-order:stroke fill markers"/>
   <path transform="scale(.26458)" d="m215 21.441v47.713h3.4512v-47.713z" opacity=".2" style="paint-order:stroke fill markers"/>
   <path transform="scale(.26458)" d="m237.34 21.645v47.307c1.6094-0.50993 2.7773-1.9949 2.7773-3.7773v-39.754c0-1.7824-1.168-3.2655-2.7773-3.7754z" opacity=".2" style="paint-order:stroke fill markers"/>
   <path transform="scale(.26458)" d="m226.17 21.441v47.713h3.4512v-47.713z" opacity=".2" style="paint-order:stroke fill markers"/>
  </g>
  <path d="m60.626 9.3847-2.8695 2.4933-3.3377-1.2046-2.9946 4.5138-3.0695-0.93688v2.9936c0 0.58336 0.46927 1.0526 1.0526 1.0526h13.07c0.58336 0 1.0531-0.46927 1.0531-1.0526v-7.1111z" fill="url(#linearGradient1113)"/>
  <path transform="scale(.26458)" d="m184.93 21.893c-1.2849 0.65853-2.1699 1.9789-2.1699 3.5273v39.754c0 1.5484 0.885 2.8708 2.1699 3.5293z" fill="#fafafa" opacity=".2" style="paint-order:stroke fill markers"/>
  <path d="m48.339 14.246 3.0852 0.94172 2.9943-4.5141 3.3376 1.2047 2.87-2.4933 2.9238 0.75338" fill="none" stroke="url(#linearGradient1068)" stroke-linecap="round" stroke-linejoin="round" stroke-width="1.0583"/>
  <g fill="#fafafa">
   <circle cx="51.373" cy="15.135" r=".59957" style="paint-order:stroke fill markers"/>
   <circle cx="48.402" cy="14.235" r=".59957" style="paint-order:stroke fill markers"/>
   <circle cx="54.445" cy="10.745" r=".59957" style="paint-order:stroke fill markers"/>
   <circle cx="57.734" cy="11.807" r=".59957" style="paint-order:stroke fill markers"/>
   <circle cx="60.644" cy="9.4473" r=".59957" style="paint-order:stroke fill markers"/>
   <circle cx="63.493" cy="10.113" r=".59957" style="paint-order:stroke fill markers"/>
  </g>
 </g>
 <g transform="matrix(.46946 0 0 .46946 -.21162 6.6446)">
  <g transform="translate(-133.76 -8.986)" fill="#5a7882">
   <path d="m161.55 13.692h2.4104c0.23461 0 0.39247 0.19093 0.42349 0.42348l0.26577 1.9928c0.031 0.23255-0.18888 0.42348-0.42349 0.42348h-2.9862c-0.23461 0-0.45956-0.19166-0.42349-0.42348l0.31006-1.9928c0.0361-0.23182 0.18888-0.42348 0.4235-0.42348z"/>
   <path d="m161.55 28.962h2.4104c0.23461 0 0.39247-0.19093 0.42349-0.42348l0.26577-1.9928c0.031-0.23255-0.18888-0.42348-0.42349-0.42348h-2.9862c-0.23461 0-0.45956 0.19166-0.42349 0.42348l0.31006 1.9928c0.0361 0.23182 0.18888 0.42348 0.4235 0.42348z"/>
   <path d="m168.75 16.486 1.2052 2.0875c0.1173 0.20318 0.0309 0.43536-0.15501 0.5785l-1.5929 1.2266c-0.18589 0.14312-0.46119 0.04817-0.57849-0.15501l-1.4931-2.5862c-0.1173-0.20318-0.0638-0.49382 0.15501-0.5785l1.8808-0.72788c0.21882-0.08465 0.46119-0.04817 0.5785 0.15502z"/>
   <path d="m155.53 24.121 1.2052 2.0875c0.11731 0.20318 0.36159 0.24442 0.57849 0.15501l1.8587-0.76624c0.21689-0.08943 0.27231-0.37532 0.155-0.5785l-1.4931-2.5862c-0.11731-0.20318-0.39577-0.30216-0.5785-0.15501l-1.5708 1.2649c-0.18271 0.14718-0.2723 0.37532-0.15499 0.5785z"/>
   <path d="m169.96 24.121-1.2052 2.0875c-0.11731 0.20317-0.36158 0.24444-0.5785 0.15501l-1.8587-0.76624c-0.21689-0.08942-0.27231-0.37532-0.155-0.57849l1.4931-2.5862c0.11731-0.20317 0.39576-0.30216 0.5785-0.155l1.5708 1.2649c0.18272 0.14718 0.27231 0.37532 0.155 0.57851z"/>
   <path d="m156.74 16.486-1.2052 2.0875c-0.1173 0.20318-0.0309 0.43536 0.155 0.57849l1.5929 1.2266c0.18589 0.14312 0.46119 0.04817 0.57849-0.15501l1.4931-2.5862c0.1173-0.20318 0.0638-0.49383-0.15501-0.5785l-1.8808-0.72788c-0.21881-0.08464-0.46119-0.04816-0.57849 0.15503z"/>
  </g>
  <circle cx="28.972" cy="12.341" r="6.1136" fill="url(#linearGradient924)" stroke="url(#linearGradient951)" stroke-dashoffset=".42096" stroke-width=".079373"/>
  <circle transform="rotate(90)" cx="12.341" cy="-28.972" r="3.4398" fill="#4f6c7a" stroke="url(#linearGradient954)" stroke-dashoffset=".42096" stroke-width=".13229"/>
 </g>
</svg>
