<?xml version="1.0" encoding="UTF-8"?>
<!-- Created with Inkscape (http://www.inkscape.org/) -->
<svg width="64" height="64" version="1.1" viewBox="0 0 16.933 16.933" xmlns="http://www.w3.org/2000/svg" xmlns:cc="http://creativecommons.org/ns#" xmlns:dc="http://purl.org/dc/elements/1.1/" xmlns:rdf="http://www.w3.org/1999/02/22-rdf-syntax-ns#" xmlns:xlink="http://www.w3.org/1999/xlink">
 <defs>
  <clipPath id="a-2">
   <circle cx="8.467" cy="288.53" r="6.879" fill="#d86eb0" stroke-opacity=".039" stroke-width=".491" style="paint-order:stroke markers fill"/>
  </clipPath>
  <linearGradient id="b-61" x1="9.2603" x2="9.2603" y1="-.26249" y2="15.612" gradientTransform="translate(-.79384 .79164)" gradientUnits="userSpaceOnUse">
   <stop stop-color="#36474f" offset="0"/>
   <stop stop-color="#273238" stop-opacity=".98824" offset="1"/>
  </linearGradient>
 </defs>
 <metadata>
  <rdf:RDF>
   <cc:Work rdf:about="">
    <dc:format>image/svg+xml</dc:format>
    <dc:type rdf:resource="http://purl.org/dc/dcmitype/StillImage"/>
    <dc:title/>
   </cc:Work>
  </rdf:RDF>
 </metadata>
 <circle cx="8.4665" cy="8.4665" r="7.9373" fill="url(#b-61)" stroke-width=".96299" style="paint-order:stroke markers fill"/>
 <g transform="matrix(.33777 0 0 .33777 .19138 .19104)">
  <g transform="translate(1,1)">
   <g opacity=".1">
    <!-- color: #1f4a5e --></g>
  </g>
 </g>
 <g transform="matrix(.33777 0 0 .33777 .19138 .19104)">
  <!-- color: #1f4a5e --></g>
 <g transform="matrix(.33777 0 0 .33777 .35993 .35993)">
  <path d="m19.383 26.986-7.965 5.154a15 15 0 0 0 12.582 6.859 15 15 0 0 0 7.06-1.77l-4.471-8.381a5.5 5.5 0 0 1-2.586 0.65 5.5 5.5 0 0 1-4.617-2.514" fill="#a8cf36"/>
  <path d="m24 9a15 15 0 0 0-15 15 15 15 0 0 0 2.621 8.471l7.844-5.371a5.5 5.5 0 0 1-0.965-3.1 5.5 5.5 0 0 1 5.5-5.5 5.5 5.5 0 0 1 5.5 5.5h9.5a15 15 0 0 0-15-15z" fill="#e38c53"/>
  <path d="m29.406 23a5.5 5.5 0 0 1 0.094 1 5.5 5.5 0 0 1-5.5 5.5v9.5a15 15 0 0 0 15-15 15 15 0 0 0-0.049-1z" fill="#59a3c8"/>
  <path d="m16.525 11.09c-0.052 0-0.104 0.013-0.156 0.016a15 15 0 0 0-2.709 2.051c-0.351 1.043-0.131 2.235 0.699 3.064 0.973 0.973 3.297 2.676 5.467 4.201a5.5 5.5 0 0 1 2.537-1.666c-1.228-2.712-2.721-5.735-3.713-6.777-0.571-0.6-1.346-0.892-2.125-0.889z" opacity=".1"/>
  <path d="m17.651 10.979c1.925 2.02 5.789 11.601 5.789 11.601s-8.03-5.308-10.08-7.359c-1.172-1.172-1.152-3.071 0.02-4.243s3.13-1.2 4.272 0z" fill="#f9f9f9"/>
  <circle cx="15.5" cy="13" r="1" fill="#868686"/>
 </g>
 <g transform="matrix(1.1538 0 0 1.1538 18.926 -331.91)" clip-path="url(#a-2)" fill="none" stroke="#fff" stroke-opacity=".937" stroke-width=".10288">
  <path d="m1.4854 287.74c0.719 0.15538 1.3906 0.6252 1.9826 1.9807 0.674 1.544 1.623 2.229 2.772 2.283 1.48 0.07 2.673-1.226 3.459-2.385 1.602-2.362 4.5188-2.1357 5.8165-1.2509" opacity=".35"/>
  <path d="m1.4927 288.13c0.89388-0.34988 2.0828-0.42377 2.8723 0.82673 0.722 1.143 1.576 2.867 4.049 2.709 1.478-0.095 2.956-0.71 3.718-2.15 0.52913-0.93299 1.2601-1.8714 2.2929-2.1036 0.38219-0.0816 0.65524-0.0703 0.97604 0.0566" opacity=".35"/>
  <path d="m1.7748 290.25c0.94712-0.44412 2.7457-0.95337 4.1972-0.52987 1.297 0.379 2.937 1.847 6.056 1.504 0.824-0.09 1.522-0.563 2.183-1.464 0.4785-0.6525 0.75018-1.0197 1.3056-1.1669" opacity=".35"/>
 </g>
</svg>
