<?xml version="1.0" encoding="UTF-8"?>
<svg id="Apps-Visual-Studio-Code" width="64" height="64" enable-background="new 0 0 1024 1024" image-rendering="optimizeSpeed" version="1.1" viewBox="0 0 64 64" xmlns="http://www.w3.org/2000/svg" xmlns:cc="http://creativecommons.org/ns#" xmlns:dc="http://purl.org/dc/elements/1.1/" xmlns:rdf="http://www.w3.org/1999/02/22-rdf-syntax-ns#" xmlns:xlink="http://www.w3.org/1999/xlink">
 <metadata>
  <rdf:RDF>
   <cc:Work rdf:about="">
    <dc:format>image/svg+xml</dc:format>
    <dc:type rdf:resource="http://purl.org/dc/dcmitype/StillImage"/>
    <dc:title/>
   </cc:Work>
  </rdf:RDF>
 </metadata>
 <defs>
  <radialGradient id="a" cx="512.01" cy="512.01" r="470.16" gradientTransform="matrix(.074284 0 0 .074284 -6.0337 -5.8417)" gradientUnits="userSpaceOnUse">
   <stop stop-color="#325f69" offset="0"/>
   <stop stop-color="#6e91a0" offset="1"/>
  </radialGradient>
  <linearGradient id="h" x1="67" x2="67" y1="18" y2="46" gradientTransform="matrix(.9774 0 0 .9774 -33.486 .72316)" gradientUnits="userSpaceOnUse">
   <stop stop-color="#789baa" offset="0"/>
   <stop stop-color="#507d87" offset="1"/>
  </linearGradient>
  <linearGradient id="e" x1="67" x2="67" y1="18" y2="46" gradientTransform="matrix(.5585 0 0 .55848 -5.4189 14.129)" gradientUnits="userSpaceOnUse">
   <stop stop-color="#b4c8c8" offset="0"/>
   <stop stop-color="#82a0aa" offset="1"/>
  </linearGradient>
  <linearGradient id="d" x1="67" x2="67" y1="18" y2="46" gradientTransform="matrix(.4189 0 0 .41888 3.9339 18.596)" gradientUnits="userSpaceOnUse">
   <stop stop-color="#d2dcdc" offset="0"/>
   <stop stop-color="#a0b4be" offset="1"/>
  </linearGradient>
  <filter id="p" x="-.059999" y="-.060001" width="1.12" height="1.12" color-interpolation-filters="sRGB">
   <feGaussianBlur stdDeviation="0.30000536"/>
  </filter>
  <linearGradient id="o" x1="67" x2="67" y1="26" y2="38" gradientTransform="matrix(.9774 0 0 .9774 -33.486 .72316)" gradientUnits="userSpaceOnUse">
   <stop stop-color="#fff" offset="0"/>
   <stop stop-color="#fff" stop-opacity=".15205" offset="1"/>
  </linearGradient>
  <filter id="q" x="-.059999" y="-.060001" width="1.12" height="1.12" color-interpolation-filters="sRGB">
   <feGaussianBlur stdDeviation="0.39997835"/>
  </filter>
  <linearGradient id="n" x1="67" x2="67" y1="18" y2="46" gradientTransform="matrix(1.4661 0 0 1.4661 -66.229 -14.915)" gradientUnits="userSpaceOnUse">
   <stop stop-color="#dce6e6" offset="0"/>
   <stop stop-color="#aabec8" offset="1"/>
  </linearGradient>
  <linearGradient id="i" x1="499.95" x2="499.95" y1="2.0078" y2="1026" gradientTransform="matrix(.057271 0 0 .057271 2.6774 2.6781)" gradientUnits="userSpaceOnUse">
   <stop stop-color="#c8d7dc" offset="0"/>
   <stop stop-color="#87a5af" offset="1"/>
  </linearGradient>
  <filter id="filter1977" x="-.06" y="-.06" width="1.12" height="1.12" color-interpolation-filters="sRGB">
   <feGaussianBlur stdDeviation="1.0262713"/>
  </filter>
 </defs>
 <path id="path" d="m59.189 20.775q-0.53427-1.2953-1.2052-2.5378c-0.2516-0.46904-0.51874-0.93494-0.80137-1.3916-1.2145-1.9693-2.6962-3.83-4.445-5.5787-5.7247-5.7247-12.639-8.5887-20.737-8.5887-8.0983 0-15.009 2.8639-20.733 8.5887-5.7248 5.725-8.5887 12.636-8.5887 20.733s2.8639 15.013 8.5887 20.737c5.7247 5.7247 12.636 8.5852 20.733 8.5852 8.0977 0 15.013-2.8609 20.737-8.5852 3.1528-3.1559 5.439-6.6718 6.8552-10.546 1.1524-3.159 1.7302-6.5539 1.7302-10.191 0-2.7894-0.33858-5.439-1.0188-7.9488-0.07765-0.28267-0.15842-0.56533-0.24228-0.8449-0.25472-0.82627-0.5467-1.637-0.87284-2.4322z" fill="url(#i)" stroke-width="1.0561"/>
 <circle cx="32" cy="32.192" r="23.966" color="#000000" enable-background="accumulate" fill="url(#a)" stroke-width="2.0064"/>
 <g fill-rule="evenodd">
  <g stroke-width=".9774">
   <circle transform="matrix(1.0184 0 0 .98579 -.58992 1.6052)" cx="32" cy="32" r="20.525" filter="url(#filter1977)" opacity=".3" style="paint-order:normal"/>
   <circle cx="32" cy="32" r="20.525" fill="url(#n)" style="paint-order:normal"/>
   <circle cx="32" cy="32" r="14.661" fill="#466e78" opacity=".9" style="paint-order:normal"/>
   <circle cx="32" cy="32" r="13.684" fill="url(#h)" style="paint-order:normal"/>
  </g>
  <path d="m32 19.294c-0.16244 0-0.29398 0.13154-0.29398 0.29398v2.3442c0 0.16244 0.13154 0.29398 0.29398 0.29398s0.29398-0.13154 0.29398-0.29398v-2.3442c0-0.16244-0.13154-0.29398-0.29398-0.29398zm-3.2892 0.43334c-0.15691 0.04205-0.24821 0.20198-0.20617 0.35889l0.35316 1.3211c0.04205 0.15691 0.20198 0.25013 0.35889 0.20808s0.25013-0.20198 0.20808-0.35889l-0.35507-1.3229c-0.04205-0.15691-0.20198-0.24821-0.35889-0.20617zm6.5784 0c-0.15691-0.04205-0.31684 0.04926-0.35889 0.20617l-0.35507 1.3229c-0.04205 0.15691 0.05117 0.31684 0.20808 0.35889s0.31684-0.05117 0.35889-0.20808l0.35316-1.3211c0.04205-0.15691-0.04926-0.31684-0.20617-0.35889zm-9.4189 1.239c-0.0724-0.0194-0.15301-0.01007-0.22336 0.03054-0.14068 0.08122-0.18813 0.2602-0.10691 0.40089l0.68342 1.1835c0.08122 0.14068 0.2602 0.19004 0.40089 0.10881 0.14069-0.08122 0.18813-0.2602 0.10691-0.40089l-0.68342-1.1855c-0.04061-0.07034-0.10514-0.11805-0.17754-0.13744zm12.26 0c-0.0724 0.0194-0.13692 0.06711-0.17754 0.13744l-0.68342 1.1855c-0.08122 0.14068-0.03378 0.31967 0.10691 0.40089 0.14068 0.08122 0.31967 0.03187 0.40089-0.10881l0.68342-1.1835c0.08122-0.14068 0.03378-0.31967-0.10691-0.40089-0.07034-0.04061-0.15095-0.04995-0.22336-0.03054zm-14.907 1.9624c-0.07496 0-0.15065 0.02847-0.20808 0.0859-0.11486 0.11486-0.11486 0.30129 0 0.41616l0.96785 0.96785c0.11486 0.11486 0.30129 0.11486 0.41616 0 0.11486-0.11486 0.11486-0.30129 0-0.41616l-0.96785-0.96785c-0.05743-0.05743-0.13312-0.0859-0.20808-0.0859zm17.555 0c-0.07496 0-0.15065 0.02847-0.20808 0.0859l-0.96785 0.96785c-0.11486 0.11486-0.11486 0.30129 0 0.41616 0.11486 0.11486 0.30129 0.11486 0.41616 0l0.96595-0.96785c0.11486-0.11486 0.11486-0.30129 0-0.41616-0.05743-0.05743-0.13122-0.0859-0.20617-0.0859zm-19.604 2.5809c-0.0724 0.0194-0.13692 0.06711-0.17754 0.13744-0.08122 0.14068-0.03378 0.31967 0.1069 0.40089l1.1855 0.68342c0.14068 0.08122 0.31967 0.03378 0.40089-0.10691 0.08122-0.14068 0.03187-0.31967-0.10881-0.40089l-1.1835-0.68342c-0.07034-0.04061-0.15095-0.04995-0.22336-0.03054zm21.651 0c-0.0724-0.0194-0.15301-0.01007-0.22336 0.03054l-1.1835 0.68342c-0.14068 0.08122-0.19004 0.2602-0.10881 0.40089 0.08122 0.14069 0.2602 0.18813 0.40089 0.10691l1.1855-0.68342c0.14068-0.08122 0.18813-0.2602 0.1069-0.40089-0.04061-0.07034-0.10514-0.11805-0.17754-0.13744zm-22.74 2.9952c-0.15691-0.04205-0.31684 0.04926-0.35889 0.20617s0.04926 0.31684 0.20617 0.35889l1.3229 0.35507c0.15691 0.04205 0.31684-0.05117 0.35889-0.20808s-0.05117-0.31684-0.20808-0.35889zm23.828 0-1.3211 0.35316c-0.15691 0.04205-0.25013 0.20198-0.20808 0.35889s0.20198 0.25013 0.35889 0.20808l1.3229-0.35507c0.15691-0.04205 0.24821-0.20198 0.20617-0.35889-0.04205-0.15691-0.20198-0.24821-0.35889-0.20617zm-24.327 3.2014c-0.16244 0-0.29398 0.13154-0.29398 0.29398s0.13154 0.29398 0.29398 0.29398h2.3442c0.16244 0 0.29398-0.13154 0.29398-0.29398s-0.13154-0.29398-0.29398-0.29398zm22.48 0c-0.16244 0-0.29398 0.13154-0.29398 0.29398s0.13154 0.29398 0.29398 0.29398h2.3442c0.16244 0 0.29398-0.13154 0.29398-0.29398s-0.13154-0.29398-0.29398-0.29398zm-20.812 2.8692-1.3229 0.35507c-0.15691 0.04205-0.24821 0.20198-0.20617 0.35889 0.04205 0.15691 0.20198 0.24821 0.35889 0.20617l1.3211-0.35316c0.15691-0.04205 0.25013-0.20198 0.20808-0.35889s-0.20198-0.25013-0.35889-0.20808zm21.487 0c-0.15691-0.04205-0.31684 0.05117-0.35889 0.20808s0.05117 0.31684 0.20808 0.35889l1.3211 0.35316c0.15691 0.04205 0.31684-0.04926 0.35889-0.20617s-0.04926-0.31684-0.20617-0.35889zm-20.233 2.663c-0.0724-0.0194-0.15111-0.01007-0.22144 0.03054l-1.1855 0.68342c-0.14068 0.08122-0.18813 0.2602-0.1069 0.40089 0.08122 0.14068 0.2602 0.18813 0.40089 0.10691l1.1835-0.68342c0.14068-0.08122 0.19004-0.2602 0.10881-0.40089-0.04061-0.07034-0.10704-0.11805-0.17944-0.13744zm18.979 0c-0.0724 0.0194-0.13883 0.06711-0.17944 0.13744-0.08122 0.14068-0.03187 0.31967 0.10881 0.40089l1.1835 0.68342c0.14068 0.08122 0.31967 0.03378 0.40089-0.10691 0.08122-0.14068 0.03378-0.31967-0.1069-0.40089l-1.1855-0.68342c-0.07034-0.04061-0.14904-0.04995-0.22144-0.03054zm-17.299 2.2774c-0.07496 0-0.15065 0.02847-0.20808 0.0859l-0.96785 0.96785c-0.11486 0.11486-0.11486 0.30129 0 0.41616 0.11486 0.11486 0.30129 0.11486 0.41616 0l0.96785-0.96785c0.11486-0.11486 0.11486-0.30129 0-0.41616-0.05743-0.05743-0.13312-0.0859-0.20808-0.0859zm15.619 0c-0.07495 0-0.15065 0.02847-0.20808 0.0859-0.11486 0.11486-0.11486 0.30129 0 0.41616l0.96785 0.96785c0.11486 0.11486 0.29939 0.11486 0.41425 0s0.11486-0.30129 0-0.41616l-0.96595-0.96785c-0.05743-0.05743-0.13312-0.0859-0.20808-0.0859zm-13.409 1.7658c-0.0724 0.0194-0.13692 0.06711-0.17754 0.13744l-0.68342 1.1835c-0.08122 0.14068-0.03378 0.31967 0.10691 0.40089 0.14068 0.08122 0.31967 0.03378 0.40089-0.1069l0.68342-1.1855c0.08122-0.14068 0.03378-0.31967-0.10691-0.40089-0.07034-0.04061-0.15095-0.04803-0.22336-0.02864zm11.198 0c-0.0724-0.0194-0.15301-0.01197-0.22336 0.02864-0.14068 0.08122-0.18813 0.2602-0.10691 0.40089l0.68342 1.1855c0.08122 0.14068 0.2602 0.18813 0.40089 0.1069 0.14068-0.08122 0.18813-0.2602 0.10691-0.40089l-0.68342-1.1835c-0.04061-0.07034-0.10514-0.11805-0.17754-0.13744zm-5.599 0.49252c-0.16244 0-0.29398 0.13154-0.29398 0.29398v2.3442c0 0.16244 0.13154 0.29398 0.29398 0.29398s0.29398-0.13154 0.29398-0.29398v-2.3442c0-0.16244-0.13154-0.29398-0.29398-0.29398zm-2.7833 0.61088c-0.15691-0.04205-0.31684 0.05117-0.35889 0.20808l-0.35316 1.3211c-0.04205 0.15691 0.04926 0.31684 0.20617 0.35889s0.31684-0.04926 0.35889-0.20617l0.35507-1.3229c0.04205-0.15691-0.05117-0.31684-0.20808-0.35889zm5.5666 0c-0.15691 0.04205-0.25013 0.20198-0.20808 0.35889l0.35507 1.3229c0.04205 0.15691 0.20198 0.24821 0.35889 0.20617 0.15691-0.04205 0.24821-0.20198 0.20617-0.35889l-0.35316-1.3211c-0.04204-0.15691-0.20198-0.25013-0.35889-0.20808z" fill="#fafafa" style="paint-order:normal"/>
  <ellipse transform="matrix(1.0152 0 0 1.0152 -.20321 -.48753)" cx="31.72" cy="32" rx="7.9997" ry="7.9994" filter="url(#q)" opacity=".25" style="paint-order:normal"/>
  <ellipse cx="32" cy="32" rx="7.8189" ry="7.8186" fill="url(#e)" stroke-width=".9774" style="paint-order:normal"/>
  <ellipse transform="matrix(.9774 0 0 .9774 .99689 .72316)" cx="31.72" cy="32" rx="6.0002" ry="6" filter="url(#p)" opacity=".15" style="paint-order:normal"/>
  <ellipse cx="32" cy="32" rx="5.8646" ry="5.8644" fill="url(#d)" stroke-width=".9774" style="paint-order:normal"/>
  <path d="m32 26.136a5.8646 5.8644 0 0 0-5.8644 5.8644 5.8646 5.8644 0 0 0 5.8644 5.8644 5.8646 5.8644 0 0 0 5.8644-5.8644 5.8646 5.8644 0 0 0-5.8644-5.8644zm0 0.33598a5.5287 5.5284 0 0 1 5.5284 5.5284 5.5287 5.5284 0 0 1-5.5284 5.5284 5.5287 5.5284 0 0 1-5.5284-5.5284 5.5287 5.5284 0 0 1 5.5284-5.5284z" fill="url(#o)" opacity=".19" stroke-width=".9774" style="paint-order:normal"/>
  <path d="m29.068 13.429h5.8644l-2.9322 2.9322v0z" fill="#0078ff" opacity=".9" stroke="#fafafa" stroke-linecap="round" stroke-linejoin="round" stroke-width=".19548" style="paint-order:normal"/>
 </g>
 <rect x="31.681" y="19.258" width=".64289" height="3.0029" ry=".3389" fill="#0078ff" fill-rule="evenodd" style="paint-order:stroke fill markers"/>
</svg>
