<?xml version="1.0" encoding="UTF-8"?>
<svg id="Apps-Visual-Studio-Code" width="64" height="64" enable-background="new 0 0 1024 1024" image-rendering="optimizeSpeed" version="1.1" viewBox="0 0 64 64" xmlns="http://www.w3.org/2000/svg" xmlns:cc="http://creativecommons.org/ns#" xmlns:dc="http://purl.org/dc/elements/1.1/" xmlns:rdf="http://www.w3.org/1999/02/22-rdf-syntax-ns#" xmlns:xlink="http://www.w3.org/1999/xlink">
 <metadata>
  <rdf:RDF>
   <cc:Work rdf:about="">
    <dc:format>image/svg+xml</dc:format>
    <dc:type rdf:resource="http://purl.org/dc/dcmitype/StillImage"/>
    <dc:title/>
   </cc:Work>
  </rdf:RDF>
 </metadata>
 <defs>
  <linearGradient id="b">
   <stop stop-color="#ecebec" offset="0"/>
   <stop stop-color="#54595d" offset="1"/>
  </linearGradient>
  <radialGradient id="a" cx="512.01" cy="512.01" r="470.16" gradientTransform="matrix(.057428 0 0 .057428 95.832 12.355)" gradientUnits="userSpaceOnUse">
   <stop stop-opacity="0" offset="0"/>
   <stop stop-opacity=".52593" offset="1"/>
  </radialGradient>
  <linearGradient id="h-6" x1="67" x2="67" y1="18" y2="46" gradientTransform="translate(-35.28)" gradientUnits="userSpaceOnUse">
   <stop stop-color="#363b3c" offset="0"/>
   <stop stop-color="#212120" offset="1"/>
  </linearGradient>
  <linearGradient id="g" x1="66" x2="66" y1="19" y2="45" gradientTransform="translate(-35.28)" gradientUnits="userSpaceOnUse">
   <stop stop-color="#151617" offset="0"/>
   <stop stop-color="#0c0c0c" offset="1"/>
  </linearGradient>
  <linearGradient id="f" x1="67" x2="67" y1="18.9" y2="45.1" gradientTransform="translate(-35.28)" gradientUnits="userSpaceOnUse">
   <stop stop-color="#131515" offset="0"/>
   <stop stop-color="#080c0c" offset="1"/>
  </linearGradient>
  <linearGradient id="e-7" x1="67" x2="67" y1="18" y2="46" gradientTransform="matrix(.57141 0 0 .57139 -6.5641 13.716)" gradientUnits="userSpaceOnUse">
   <stop stop-color="#e9f5f8" offset="0"/>
   <stop stop-color="#4b4c48" offset="1"/>
  </linearGradient>
  <linearGradient id="d-5" x1="67" x2="67" y1="18" y2="46" gradientTransform="matrix(.42859 0 0 .42857 3.0049 18.286)" gradientUnits="userSpaceOnUse">
   <stop stop-color="#cce2ea" offset="0"/>
   <stop stop-color="#777" offset="1"/>
  </linearGradient>
  <filter id="p-3" x="-.059999" y="-.060001" width="1.12" height="1.12" color-interpolation-filters="sRGB">
   <feGaussianBlur stdDeviation="0.30000536"/>
  </filter>
  <linearGradient id="o-5" x1="67" x2="67" y1="26" y2="38" gradientTransform="translate(-35.28)" gradientUnits="userSpaceOnUse">
   <stop stop-color="#fff" offset="0"/>
   <stop stop-color="#fff" stop-opacity=".15205" offset="1"/>
  </linearGradient>
  <filter id="q-6" x="-.059999" y="-.060001" width="1.12" height="1.12" color-interpolation-filters="sRGB">
   <feGaussianBlur stdDeviation="0.39997835"/>
  </filter>
  <linearGradient id="n-2" x1="67" x2="67" y1="18" y2="46" gradientTransform="matrix(1.5,0,0,1.5,-68.78,-16)" gradientUnits="userSpaceOnUse">
   <stop stop-color="#cadee4" offset="0"/>
   <stop stop-color="#767574" offset="1"/>
  </linearGradient>
  <linearGradient id="m" x1="8" x2="8" y1="30" y2="32" gradientUnits="userSpaceOnUse" xlink:href="#b"/>
  <linearGradient id="l" x1="8" x2="8" y1="30" y2="32" gradientTransform="translate(48)" gradientUnits="userSpaceOnUse" xlink:href="#b"/>
  <linearGradient id="k" x1="8" x2="8" y1="30" y2="32" gradientTransform="translate(24,-23)" gradientUnits="userSpaceOnUse" xlink:href="#b"/>
  <linearGradient id="j" x1="8" x2="8" y1="30" y2="32" gradientTransform="translate(24,25)" gradientUnits="userSpaceOnUse" xlink:href="#b"/>
  <linearGradient id="i-9" x1="499.95" x2="499.95" y1="2.0078" y2="1026" gradientTransform="matrix(.058595 0 0 .058595 95.234 11.758)" gradientUnits="userSpaceOnUse">
   <stop stop-color="#e8f1f4" offset="0"/>
   <stop stop-color="#5d5c5b" offset="1"/>
  </linearGradient>
 </defs>
 <g transform="matrix(.96666 0 0 .96666 -89.058 -8.3657)">
  <path d="m153.05 30.273q-0.54662-1.3253-1.2331-2.5965c-0.25742-0.47988-0.53073-0.95655-0.81991-1.4237-1.2426-2.0149-2.7585-3.9186-4.5478-5.7077-5.8571-5.8571-12.932-8.7873-21.216-8.7873-8.2855 0-15.356 2.9301-21.213 8.7873-5.8571 5.8573-8.7873 12.929-8.7873 21.213s2.9301 15.36 8.7873 21.216c5.8571 5.8571 12.929 8.7837 21.213 8.7837 8.2849 0 15.36-2.927 21.216-8.7837 3.2257-3.2289 5.5647-6.8261 7.0137-10.79 1.179-3.232 1.7702-6.7055 1.7702-10.427 0-2.8539-0.34641-5.5647-1.0424-8.1326-0.0795-0.2892-0.16208-0.5784-0.24788-0.86443-0.26061-0.84537-0.55934-1.6748-0.89302-2.4884z" fill="url(#i-9)" image-rendering="optimizeSpeed" stroke-width="1.0805"/>
  <circle cx="125.24" cy="41.758" r="27" color="#000000" enable-background="accumulate" fill="#666" image-rendering="optimizeSpeed" stroke-width="2.2604"/>
  <circle cx="125.24" cy="41.758" r="27" color="#000000" enable-background="accumulate" fill="url(#a)" image-rendering="optimizeSpeed" stroke-width="2.2604"/>
  <g transform="translate(93.515,9.7581)" fill-rule="evenodd" image-rendering="optimizeSpeed">
   <circle cx="31.72" cy="32" r="21" fill="url(#n-2)" style="paint-order:normal"/>
   <circle cx="31.72" cy="32" r="15" opacity=".9" style="paint-order:normal"/>
   <circle cx="31.72" cy="32" r="14" fill="url(#h-6)" style="paint-order:normal"/>
   <path d="m31.72 19c-0.1662 0-0.30078 0.13458-0.30078 0.30078v2.3984c0 0.1662 0.13458 0.30078 0.30078 0.30078s0.30078-0.13458 0.30078-0.30078v-2.3984c0-0.1662-0.13458-0.30078-0.30078-0.30078zm-3.3652 0.44336c-0.16054 0.04302-0.25395 0.20665-0.21094 0.36719l0.36133 1.3516c0.04302 0.16054 0.20665 0.25591 0.36719 0.21289s0.25591-0.20665 0.21289-0.36719l-0.36328-1.3535c-0.04302-0.16054-0.20665-0.25395-0.36719-0.21094zm6.7305 0c-0.16054-0.04302-0.32417 0.0504-0.36719 0.21094l-0.36328 1.3535c-0.04302 0.16054 0.05235 0.32417 0.21289 0.36719s0.32417-0.05235 0.36719-0.21289l0.36133-1.3516c0.04302-0.16054-0.0504-0.32417-0.21094-0.36719zm-9.6367 1.2676c-0.07407-0.01985-0.15655-0.0103-0.22852 0.03125-0.14393 0.0831-0.19248 0.26622-0.10938 0.41016l0.69922 1.2109c0.0831 0.14393 0.26622 0.19443 0.41016 0.11133s0.19248-0.26622 0.10938-0.41016l-0.69922-1.2129c-0.04155-0.07197-0.10757-0.12078-0.18164-0.14062zm12.543 0c-0.07407 0.01985-0.14009 0.06866-0.18164 0.14062l-0.69922 1.2129c-0.0831 0.14393-0.03456 0.32706 0.10938 0.41016 0.14393 0.0831 0.32706 0.03261 0.41016-0.11133l0.69922-1.2109c0.0831-0.14393 0.03456-0.32706-0.10938-0.41016-0.07197-0.04155-0.15444-0.0511-0.22852-0.03125zm-15.252 2.0078c-0.07669 0-0.15413 0.02913-0.21289 0.08789-0.11752 0.11752-0.11752 0.30826 0 0.42578l0.99023 0.99023c0.11752 0.11752 0.30826 0.11752 0.42578 0s0.11752-0.30826 0-0.42578l-0.99023-0.99023c-0.05876-0.05876-0.1362-0.08789-0.21289-0.08789zm17.961 0c-0.07669 0-0.15413 0.02913-0.21289 0.08789l-0.99023 0.99023c-0.11752 0.11752-0.11752 0.30826 0 0.42578s0.30826 0.11752 0.42578 0l0.98828-0.99023c0.11752-0.11752 0.11752-0.30826 0-0.42578-0.05876-0.05876-0.13425-0.08789-0.21094-0.08789zm-20.057 2.6406c-0.07407 0.01985-0.14009 0.06866-0.18164 0.14062-0.0831 0.14393-0.03456 0.32706 0.10937 0.41016l1.2129 0.69922c0.14393 0.0831 0.32706 0.03456 0.41016-0.10938 0.0831-0.14393 0.03261-0.32706-0.11133-0.41016l-1.2109-0.69922c-0.07197-0.04155-0.15444-0.0511-0.22852-0.03125zm22.152 0c-0.07407-0.01985-0.15655-0.0103-0.22852 0.03125l-1.2109 0.69922c-0.14393 0.0831-0.19443 0.26622-0.11133 0.41016s0.26622 0.19248 0.41016 0.10938l1.2129-0.69922c0.14393-0.0831 0.19248-0.26622 0.10937-0.41016-0.04155-0.07197-0.10757-0.12078-0.18164-0.14062zm-23.266 3.0645c-0.16054-0.04302-0.32417 0.0504-0.36719 0.21094s0.0504 0.32417 0.21094 0.36719l1.3535 0.36328c0.16054 0.04302 0.32417-0.05235 0.36719-0.21289s-0.05235-0.32417-0.21289-0.36719zm24.379 0-1.3516 0.36133c-0.16054 0.04302-0.25591 0.20665-0.21289 0.36719s0.20665 0.25591 0.36719 0.21289l1.3535-0.36328c0.16054-0.04302 0.25395-0.20665 0.21094-0.36719-0.04302-0.16054-0.20665-0.25395-0.36719-0.21094zm-24.889 3.2754c-0.1662 0-0.30078 0.13458-0.30078 0.30078s0.13458 0.30078 0.30078 0.30078h2.3984c0.1662 0 0.30078-0.13458 0.30078-0.30078s-0.13458-0.30078-0.30078-0.30078zm23 0c-0.1662 0-0.30078 0.13458-0.30078 0.30078s0.13458 0.30078 0.30078 0.30078h2.3984c0.1662 0 0.30078-0.13458 0.30078-0.30078s-0.13458-0.30078-0.30078-0.30078zm-21.293 2.9355-1.3535 0.36328c-0.16054 0.04302-0.25395 0.20665-0.21094 0.36719 0.04302 0.16054 0.20665 0.25395 0.36719 0.21094l1.3516-0.36133c0.16054-0.04302 0.25591-0.20665 0.21289-0.36719s-0.20665-0.25591-0.36719-0.21289zm21.984 0c-0.16054-0.04302-0.32417 0.05235-0.36719 0.21289s0.05235 0.32417 0.21289 0.36719l1.3516 0.36133c0.16054 0.04302 0.32417-0.0504 0.36719-0.21094s-0.0504-0.32417-0.21094-0.36719zm-20.701 2.7246c-0.07407-0.01985-0.1546-0.0103-0.22656 0.03125l-1.2129 0.69922c-0.14393 0.0831-0.19248 0.26622-0.10937 0.41016 0.0831 0.14393 0.26622 0.19248 0.41016 0.10938l1.2109-0.69922c0.14393-0.0831 0.19443-0.26622 0.11133-0.41016-0.04155-0.07197-0.10952-0.12078-0.18359-0.14062zm19.418 0c-0.07407 0.01985-0.14204 0.06866-0.18359 0.14062-0.0831 0.14393-0.03261 0.32706 0.11133 0.41016l1.2109 0.69922c0.14393 0.0831 0.32706 0.03456 0.41016-0.10938 0.0831-0.14393 0.03456-0.32706-0.10937-0.41016l-1.2129-0.69922c-0.07197-0.04155-0.15249-0.0511-0.22656-0.03125zm-17.699 2.3301c-0.07669 0-0.15413 0.02913-0.21289 0.08789l-0.99023 0.99023c-0.11752 0.11752-0.11752 0.30826 0 0.42578s0.30826 0.11752 0.42578 0l0.99023-0.99023c0.11752-0.11752 0.11752-0.30826 0-0.42578-0.05876-0.05876-0.1362-0.08789-0.21289-0.08789zm15.98 0c-0.07668 0-0.15413 0.02913-0.21289 0.08789-0.11752 0.11752-0.11752 0.30826 0 0.42578l0.99023 0.99023c0.11752 0.11752 0.30631 0.11752 0.42383 0s0.11752-0.30826 0-0.42578l-0.98828-0.99023c-0.05876-0.05876-0.1362-0.08789-0.21289-0.08789zm-13.719 1.8066c-0.07407 0.01985-0.14009 0.06866-0.18164 0.14062l-0.69922 1.2109c-0.0831 0.14393-0.03456 0.32706 0.10938 0.41016 0.14393 0.0831 0.32706 0.03456 0.41016-0.10937l0.69922-1.2129c0.0831-0.14393 0.03456-0.32706-0.10938-0.41016-0.07197-0.04155-0.15444-0.04914-0.22852-0.0293zm11.457 0c-0.07407-0.01985-0.15655-0.01225-0.22852 0.0293-0.14393 0.0831-0.19248 0.26622-0.10938 0.41016l0.69922 1.2129c0.0831 0.14393 0.26622 0.19248 0.41016 0.10937 0.14393-0.0831 0.19248-0.26622 0.10938-0.41016l-0.69922-1.2109c-0.04155-0.07197-0.10757-0.12078-0.18164-0.14062zm-5.7285 0.50391c-0.1662 0-0.30078 0.13458-0.30078 0.30078v2.3984c0 0.1662 0.13458 0.30078 0.30078 0.30078s0.30078-0.13458 0.30078-0.30078v-2.3984c0-0.1662-0.13458-0.30078-0.30078-0.30078zm-2.8477 0.625c-0.16054-0.04302-0.32417 0.05235-0.36719 0.21289l-0.36133 1.3516c-0.04302 0.16054 0.0504 0.32417 0.21094 0.36719s0.32417-0.0504 0.36719-0.21094l0.36328-1.3535c0.04302-0.16054-0.05235-0.32417-0.21289-0.36719zm5.6953 0c-0.16054 0.04302-0.25591 0.20665-0.21289 0.36719l0.36328 1.3535c0.04302 0.16054 0.20665 0.25395 0.36719 0.21094 0.16054-0.04302 0.25395-0.20665 0.21094-0.36719l-0.36133-1.3516c-0.043016-0.16054-0.20665-0.25591-0.36719-0.21289z" fill="url(#g)" stroke="url(#f)" stroke-linecap="round" stroke-linejoin="round" stroke-width=".1" style="paint-order:normal"/>
   <ellipse cx="31.72" cy="32" rx="7.9997" ry="7.9994" filter="url(#q-6)" style="paint-order:normal"/>
   <ellipse cx="31.72" cy="32" rx="7.9997" ry="7.9994" fill="url(#e-7)" style="paint-order:normal"/>
   <ellipse cx="31.72" cy="32" rx="6.0002" ry="6" filter="url(#p-3)" opacity=".15" style="paint-order:normal"/>
   <ellipse cx="31.72" cy="32" rx="6.0002" ry="6" fill="url(#d-5)" style="paint-order:normal"/>
   <path d="m31.72 26a6.0002 6 0 0 0-6 6 6.0002 6 0 0 0 6 6 6.0002 6 0 0 0 6-6 6.0002 6 0 0 0-6-6zm0 0.34375a5.6565 5.6562 0 0 1 5.6562 5.6562 5.6565 5.6562 0 0 1-5.6562 5.6562 5.6565 5.6562 0 0 1-5.6562-5.6562 5.6565 5.6562 0 0 1 5.6562-5.6562z" fill="url(#o-5)" opacity=".19" style="paint-order:normal"/>
  </g>
  <g transform="translate(93.235,9.7581)" fill-rule="evenodd" image-rendering="optimizeSpeed">
   <circle cx="8" cy="31" r="1" fill="url(#m)" opacity=".9" style="paint-order:normal"/>
   <circle cx="56" cy="31" r="1" fill="url(#l)" opacity=".9" style="paint-order:normal"/>
   <circle cx="32" cy="8" r="1" fill="url(#k)" opacity=".9" style="paint-order:normal"/>
   <circle cx="32" cy="56" r="1" fill="url(#j)" opacity=".9" style="paint-order:normal"/>
   <path d="m29 13h6l-3 3v0z" fill="#9fadb1" opacity=".9" stroke="#697e86" stroke-linecap="round" stroke-linejoin="round" stroke-width=".2" style="paint-order:normal"/>
  </g>
 </g>
</svg>
