<?xml version="1.0" encoding="UTF-8"?>
<svg id="Iterm" width="64" height="64" enable-background="new 0 0 1024 1024" image-rendering="optimizeSpeed" version="1.1" viewBox="0 0 64 64" xmlns="http://www.w3.org/2000/svg" xmlns:cc="http://creativecommons.org/ns#" xmlns:dc="http://purl.org/dc/elements/1.1/" xmlns:rdf="http://www.w3.org/1999/02/22-rdf-syntax-ns#" xmlns:xlink="http://www.w3.org/1999/xlink">
 <metadata>
  <rdf:RDF>
   <cc:Work rdf:about="">
    <dc:format>image/svg+xml</dc:format>
    <dc:type rdf:resource="http://purl.org/dc/dcmitype/StillImage"/>
    <dc:title/>
   </cc:Work>
  </rdf:RDF>
 </metadata>
 <defs>
  <linearGradient id="b" x1="-506.45" x2="-506.45" y1="-19.101" y2="1013.6" gradientTransform="matrix(.058824 0 0 .058824 61.791 3.1236)" gradientUnits="userSpaceOnUse">
   <stop stop-color="#262626" offset="0"/>
   <stop stop-color="#333" offset=".50769"/>
   <stop stop-color="#4a4a4a" offset="1"/>
  </linearGradient>
  <filter id="d" x="-.036" y="-.036" width="1.072" height="1.072" color-interpolation-filters="sRGB">
   <feGaussianBlur stdDeviation="0.90000006"/>
  </filter>
  <filter id="d-2" x="-.01448" y="-.016908" width="1.029" height="1.0338" color-interpolation-filters="sRGB">
   <feGaussianBlur stdDeviation=".74992302"/>
  </filter>
  <radialGradient id="b-7" cx="199.22" cy="60.978" r="62.148" gradientTransform="matrix(1.0119,3e-8,-1.5e-7,5.0958,-134.28,-251.23)" gradientUnits="userSpaceOnUse">
   <stop stop-color="#e6e6e8" offset="0"/>
   <stop stop-color="#cbccce" offset="1"/>
  </radialGradient>
  <radialGradient id="c-9" cx="199.22" cy="60.978" r="62.148" gradientTransform="matrix(1.3103,-4e-8,1e-7,3.6151,-193.73,-160.94)" gradientUnits="userSpaceOnUse">
   <stop stop-color="#ececef" offset="0"/>
   <stop stop-color="#cbccce" stop-opacity="0" offset="1"/>
  </radialGradient>
  <linearGradient id="j-3" x1="23.844" x2="23.816" y1="17.574" y2="85.151" gradientUnits="userSpaceOnUse">
   <stop stop-color="#1bd2fa" offset="0"/>
   <stop stop-color="#1c7ef2" offset="1"/>
  </linearGradient>
  <filter id="h-6" x="-.080467" y="-.24545" width="1.1609" height="1.4909" color-interpolation-filters="sRGB">
   <feGaussianBlur stdDeviation="1.4789442"/>
  </filter>
  <linearGradient id="e-0" x1="174.79" x2="174.86" y1="109.47" y2="118.12" gradientUnits="userSpaceOnUse">
   <stop stop-color="#909090" offset="0"/>
   <stop stop-color="#727272" stop-opacity="0" offset="1"/>
  </linearGradient>
  <radialGradient id="f-6" cx="178.79" cy="120.7" r="22.055" gradientTransform="matrix(3.8591 -2.3e-7 0 .1388 -511.17 103.95)" gradientUnits="userSpaceOnUse" xlink:href="#a-2"/>
  <linearGradient id="a-2">
   <stop stop-color="#909090" offset="0"/>
   <stop stop-color="#636363" stop-opacity="0" offset="1"/>
  </linearGradient>
  <filter id="g-8" x="-.040865" y="-.504" width="1.0817" height="2.008" color-interpolation-filters="sRGB">
   <feGaussianBlur stdDeviation=".32830532"/>
  </filter>
  <linearGradient id="i-7" x1="183.06" x2="183.06" y1="129.42" y2="127.06" gradientUnits="userSpaceOnUse" xlink:href="#a-2"/>
 </defs>
 <mask>
  <g id="g">
   <path d="m969.75 392.05c-1.1-4.35-2.35-9-3.65-13.6-1-3.4-2-6.85-3.15-10.5-1.6-5.15-3.4-10.5-5.3-15.85-6.45-18.25-14.15-36.05-23.15-53.65-3.8-7.4-7.95-14.95-12.3-22.4-20.3-34.5-45.8-67.2-76.35-97.75-72.6-72.6-157.15-116.65-253.65-132.05-16.25-2.6-32.8-4.4-50.05-5.35-9.7-0.55-19.85-0.85-30.1-0.85-9.35 0-18.6 0.25-27.9 0.75-118.35 6.1-220.3 51.95-305.85 137.5q-138.25 138.25-138.25 333.75c0 130.35 46.1 241.65 138.25 333.8 56.7 56.65 120.55 95.9 191.1 117.55 36.75 11.25 74.8 17.85 114.75 19.95h0.4c8.5 0.45 16.6 0.7 24.5 0.7h3c10.3 0 20.5-0.3 30.1-0.8 2.5-0.15 4.75-0.3 6.95-0.45 20.2-1.45 39.9-4.05 58.7-7.7 7.95-1.55 15.8-3.3 23.4-5.15 80.8-20.3 152.15-61.6 214.65-124.1 48.6-48.6 84.4-102.5 107.35-161.8 18.45-47.65 28.65-98.8 30.55-153.5 0.2-6.05 0.3-12.25 0.3-18.5v-3c-0.2-40.65-4.95-79.5-14.3-117z" fill="#fff"/>
  </g>
 </mask>
 <circle cx="32" cy="32" r="30" fill-rule="evenodd" filter="url(#d)" opacity=".25" style="paint-order:fill markers stroke"/>
 <circle cx="32" cy="32" r="30" fill="url(#b)" fill-rule="evenodd" style="paint-order:fill markers stroke"/>
 <g transform="matrix(.31144 0 0 .30662 11.037 10.765)">
  <g stroke-width="2.0582">
   <rect x="5.1564" y="8.7788" width="124.3" height="103.95" rx="5.6617" fill="#1a1a1a" filter="url(#d-2)" opacity=".887"/>
   <rect x="5.1564" y="8.7788" width="124.3" height="103.95" rx="5.6617" fill="url(#b-7)"/>
   <rect x="5.1564" y="8.7788" width="124.3" height="103.95" rx="5.6617" fill="url(#c-9)"/>
   <path d="m10.818 8.778c-3.1366 0-5.6621 2.5256-5.6621 5.6621v75.664h124.3v-75.664c0-3.1366-2.5256-5.6621-5.6621-5.6621z" fill="#080808"/>
   <path d="m10.318 12.353h113.49v73.329h-113.49z" fill="url(#j-3)"/>
   <path d="m5.1558 106.01v1.0566c0 3.1366 2.5256 5.6621 5.6621 5.6621h112.97c3.1366 0 5.6621-2.5256 5.6621-5.6621v-1.0566c0 3.1366-2.5256 5.6621-5.6621 5.6621h-112.97c-3.1366 0-5.6621-2.5256-5.6621-5.6621z" fill="#afafaf"/>
   <g transform="translate(-111.48,-1.4739)">
    <path d="m194.34 114.95c-0.0882 3.6995-0.94643 7.8217 4.9506 11.334 4.7067 2.9258-2.6114 3.1267-4.4295 3.1267h-32.145c-1.8181 0-9.1362-0.20092-4.4295-3.1267 5.8971-3.5127 5.0389-7.6349 4.9506-11.334z" filter="url(#h-6)"/>
    <path d="m194.34 113.47c-0.0882 3.6995-0.94643 7.8217 4.9506 11.334 4.7067 2.9258-2.6114 3.1267-4.4295 3.1267-10.492 0.46272-21.162 0.7623-32.145 0-1.8181 0-9.1362-0.20092-4.4295-3.1267 5.8971-3.5127 5.0389-7.6349 4.9506-11.334z" fill="#e0e1e6"/>
    <path d="m194.34 113.47c-0.0882 3.6995-0.94643 7.8217 4.9506 11.334 4.7067 2.9258-2.6114 3.1267-4.4295 3.1267h-32.145c-1.8181 0-9.1362-0.20092-4.4295-3.1267 5.8971-3.5127 5.0389-7.6349 4.9506-11.334z" fill="url(#e-0)"/>
    <path d="m194.34 113.47c-0.0882 3.6995-0.94643 7.8217 4.9506 11.334 4.7067 2.9258-2.6114 3.1267-4.4295 3.1267h-32.145c-1.8181 0-9.1362-0.20092-4.4295-3.1267 5.8971-3.5127 5.0389-7.6349 4.9506-11.334z" fill="url(#f-6)"/>
    <ellipse cx="178.29" cy="127.15" rx="15.764" ry=".78168" fill="#fff" filter="url(#g-8)" opacity=".887"/>
    <path d="m194.34 113.47c-0.0882 3.6995-0.94643 7.8217 4.9506 11.334 4.7067 2.9258-2.6114 3.1267-4.4295 3.1267h-32.145c-1.8181 0-9.1362-0.20092-4.4295-3.1267 5.8971-3.5127 5.0389-7.6349 4.9506-11.334z" fill="url(#i-7)"/>
   </g>
  </g>
  <path d="m71.574 102.9c-0.16003 0.36969-0.34945 0.70998-0.56891 1.0228-0.29914 0.42652-0.54408 0.72174-0.73285 0.8857-0.29261 0.26911-0.60613 0.4069-0.94186 0.41475-0.24102 0-0.53167-0.0687-0.87001-0.2077-0.33945-0.13848-0.6514-0.20705-0.93664-0.20705-0.29915 0-0.61998 0.0687-0.96315 0.20705-0.3437 0.13913-0.62057 0.21162-0.83226 0.21882-0.32195 0.0137-0.64285-0.12802-0.96316-0.42587-0.20444-0.1783-0.46015-0.48401-0.76648-0.91705-0.32868-0.46244-0.59889-0.99867-0.81058-1.61-0.22671-0.66033-0.34036-1.2998-0.34036-1.9189 0-0.70913 0.15323-1.3207 0.46015-1.8333 0.24121-0.41168 0.56211-0.73643 0.96374-0.97484 0.40163-0.2384 0.83559-0.35988 1.3029-0.36765 0.25572 0 0.59105 0.0791 1.0078 0.23454 0.41554 0.15598 0.68236 0.23507 0.79934 0.23507 0.0875 0 0.38386-0.0925 0.88634-0.27687 0.47518-0.171 0.87622-0.2418 1.2048-0.21391 0.89026 0.0718 1.5591 0.4228 2.0039 1.0551-0.79621 0.48241-1.1901 1.1581-1.1822 2.0249 7e-3 0.6752 0.25212 1.237 0.7335 1.6831 0.21816 0.20707 0.46179 0.36709 0.73285 0.48075-0.0588 0.17044-0.12084 0.33376-0.1868 0.49052zm-2.0418-8.0346c0 0.5292-0.19334 1.0233-0.5787 1.4806-0.46506 0.5437-1.0276 0.85787-1.6376 0.80829-8e-3 -0.0634-0.0123-0.13031-0.0123-0.20052 0-0.50803 0.22116-1.0517 0.61391-1.4963 0.19608-0.22508 0.44546-0.41224 0.74787-0.56153 0.30176-0.14706 0.5872-0.22839 0.85564-0.24232 8e-3 0.07076 0.0112 0.1415 0.0112 0.21169z" fill="#1e1f28" stroke-width=".13443"/>
  <path d="m10.318 12.352v73.33h113.49v-73.33zm0.55273 0.50781h112.48v72.361h-112.48z" fill-opacity=".21198" stroke-width="2.0582"/>
  <path d="m10.818 9.0273c-3.1366 0-5.6621 2.5256-5.6621 5.6621v75.414h124.3v-75.414c0-3.1366-2.5255-5.6621-5.6621-5.6621zm-0.5 5.3262h113.49v71.328h-113.49z" fill="#080808" stroke-width="2.0582"/>
 </g>
</svg>
