<?xml version="1.0" encoding="UTF-8"?>
<!-- Created with Inkscape (http://www.inkscape.org/) -->
<svg width="64" height="64" version="1.1" viewBox="0 0 16.933 16.933" xmlns="http://www.w3.org/2000/svg" xmlns:cc="http://creativecommons.org/ns#" xmlns:dc="http://purl.org/dc/elements/1.1/" xmlns:rdf="http://www.w3.org/1999/02/22-rdf-syntax-ns#">
 <defs>
  <linearGradient id="f" x1="-26.201" x2="-26.201" y1="1070.2" y2="1082.6" gradientUnits="userSpaceOnUse">
   <stop stop-color="#dc8c50" offset="0"/>
   <stop stop-color="#f0b478" offset="1"/>
  </linearGradient>
  <linearGradient id="g" x1="-9.912" x2="-9.912" y1="1081.4" y2="1139.8" gradientUnits="userSpaceOnUse">
   <stop stop-color="#cd7841" offset="0"/>
   <stop stop-color="#dc8c50" offset=".5"/>
   <stop stop-color="#be6932" offset="1"/>
  </linearGradient>
  <linearGradient id="h" x1="-9.617" x2="-9.617" y1="1138.4" y2="1140.2" gradientUnits="userSpaceOnUse">
   <stop stop-color="#b46432" offset="0"/>
   <stop stop-color="#787878" offset="1"/>
  </linearGradient>
  <linearGradient id="linearGradient935" x1="-11.03" x2="-6.2756" y1="5.536" y2="5.536" gradientUnits="userSpaceOnUse">
   <stop offset="0"/>
   <stop stop-opacity="0" offset="1"/>
  </linearGradient>
  <linearGradient id="linearGradient937" x1="-8.6303" x2="-8.6303" y1="8.0837" y2="2.911" gradientTransform="matrix(.92315 0 0 .92315 -.66515 .45287)" gradientUnits="userSpaceOnUse">
   <stop stop-color="#a0501e" offset="0"/>
   <stop stop-color="#b46432" offset="1"/>
  </linearGradient>
 </defs>
 <metadata>
  <rdf:RDF>
   <cc:Work rdf:about="">
    <dc:format>image/svg+xml</dc:format>
    <dc:type rdf:resource="http://purl.org/dc/dcmitype/StillImage"/>
    <dc:title/>
   </cc:Work>
  </rdf:RDF>
 </metadata>
 <circle cx="-302.94" cy="-325.41" r="0" fill="#5e4aa6" stroke-width=".26458"/>
 <g transform="translate(.00013041 -.0047563)">
  <circle cx="-302.94" cy="-325.41" r="0" fill="#5e4aa6" stroke-width=".26458"/>
  <circle cx="-336.39" cy="-326.63" r="0" fill="#5e4aa6" stroke-width=".26458"/>
  <g transform="matrix(.081529 0 0 .081529 .27437 .16859)" color="#282828">
   <path transform="matrix(2.2139,0,0,2.2139,109.49,-2344.9)" d="m-44.762 1070.2h22.13c3.288 0 4.653 7.072 7.728 7.072h51.522a3.276 3.276 0 0 1 3.283 3.282v50.508c0 1.819-1.464-2.02-3.283-2.02h-81.38a3.276 3.276 0 0 1-3.283-3.283v-52.276a3.276 3.276 0 0 1 3.283-3.283z" fill="url(#f)" overflow="visible"/>
   <path transform="matrix(2.2139,0,0,2.2139,109.49,-2344.9)" d="m-44.762 1081.3h81.38a3.276 3.276 0 0 1 3.283 3.283v52.275a3.276 3.276 0 0 1-3.283 3.283h-81.38a3.276 3.276 0 0 1-3.283-3.283v-52.275a3.276 3.276 0 0 1 3.283-3.283z" fill="url(#g)" overflow="visible"/>
   <path d="m3.156 165.8v2.213h194.68v-2.213zm0 4.912v1.176c0 0.358 0.02 0.693 0.07 1.038h194.54c0.05-0.345 0.07-0.68 0.07-1.038v-1.176z" fill="#b46432" font-weight="400" opacity=".976" overflow="visible" style="text-indent:0;text-transform:none"/>
   <path transform="matrix(2.2139,0,0,2.2139,109.49,-2344.9)" d="m-47.75 1138.2a3.28 3.28 0 0 0 3 1.937h81.375c1.34 0 2.488-0.792 3-1.937z" fill="url(#h)" font-weight="400" opacity=".976" overflow="visible" style="text-indent:0;text-transform:none"/>
  </g>
  <g transform="matrix(1.3143,0,0,1.3143,19.839,2.3237)" fill="url(#linearGradient935)">
   <path d="m-7.2232 3.1477a0.76495 0.76495 0 0 0-0.76512 0.76476 0.76495 0.76495 0 0 0 0.037387 0.23338l-1.5662 0.90414a0.76495 0.76495 0 0 0-0.56549-0.25117 0.76495 0.76495 0 0 0-0.76476 0.76476 0.76495 0.76495 0 0 0 0.76476 0.76512 0.76495 0.76495 0 0 0 0.56585-0.25153l1.5651 0.90377a0.76495 0.76495 0 0 0-0.036658 0.23338 0.76495 0.76495 0 0 0 0.76512 0.76476 0.76495 0.76495 0 0 0 0.76476-0.76476 0.76495 0.76495 0 0 0-0.76476-0.76512 0.76495 0.76495 0 0 0-0.56549 0.25117l-1.5655-0.90377a0.76495 0.76495 0 0 0 0.036658-0.23302 0.76495 0.76495 0 0 0-0.037387-0.23266l1.5666-0.90414a0.76495 0.76495 0 0 0 0.56513 0.25081 0.76495 0.76495 0 0 0 0.76476-0.76512 0.76495 0.76495 0 0 0-0.76476-0.76476z" fill="url(#linearGradient937)" stroke-width=".011324"/>
  </g>
 </g>
</svg>
