<?xml version="1.0" encoding="UTF-8"?>
<!-- Created with Inkscape (http://www.inkscape.org/) -->
<svg width="64" height="64" version="1.1" viewBox="0 0 16.933 16.933" xmlns="http://www.w3.org/2000/svg" xmlns:cc="http://creativecommons.org/ns#" xmlns:dc="http://purl.org/dc/elements/1.1/" xmlns:rdf="http://www.w3.org/1999/02/22-rdf-syntax-ns#" xmlns:xlink="http://www.w3.org/1999/xlink">
 <defs>
  <linearGradient id="f" x1="-26.201" x2="-26.201" y1="1070.2" y2="1082.6" gradientUnits="userSpaceOnUse">
   <stop stop-color="#dc8c50" offset="0"/>
   <stop stop-color="#f0b478" offset="1"/>
  </linearGradient>
  <linearGradient id="g" x1="-9.912" x2="-9.912" y1="1081.4" y2="1139.8" gradientUnits="userSpaceOnUse">
   <stop stop-color="#cd7841" offset="0"/>
   <stop stop-color="#dc8c50" offset=".5"/>
   <stop stop-color="#be6932" offset="1"/>
  </linearGradient>
  <linearGradient id="h" x1="-9.617" x2="-9.617" y1="1138.4" y2="1140.2" gradientUnits="userSpaceOnUse">
   <stop stop-color="#b46432" offset="0"/>
   <stop stop-color="#787878" offset="1"/>
  </linearGradient>
  <linearGradient id="i" x1="-6.545" x2="-6.545" y1="1093.1" y2="1124.7" gradientUnits="userSpaceOnUse">
   <stop stop-color="#b46432" offset="0"/>
   <stop stop-color="#a0501e" offset="1"/>
  </linearGradient>
 </defs>
 <metadata>
  <rdf:RDF>
   <cc:Work rdf:about="">
    <dc:format>image/svg+xml</dc:format>
    <dc:type rdf:resource="http://purl.org/dc/dcmitype/StillImage"/>
    <dc:title/>
   </cc:Work>
  </rdf:RDF>
 </metadata>
 <g transform="matrix(.081529 0 0 .081529 .27437 .16859)">
  <path transform="matrix(2.2139 0 0 2.2139 109.49 -2344.9)" d="m-44.762 1070.2h22.13c3.288 0 4.653 7.072 7.728 7.072h51.522a3.276 3.276 0 0 1 3.283 3.282v50.508c0 1.819-1.464-2.02-3.283-2.02h-81.38a3.276 3.276 0 0 1-3.283-3.283v-52.276a3.276 3.276 0 0 1 3.283-3.283z" color="#282828" fill="url(#f)" overflow="visible"/>
  <path transform="matrix(2.2139 0 0 2.2139 109.49 -2344.9)" d="m-44.762 1081.3h81.38a3.276 3.276 0 0 1 3.283 3.283v52.275a3.276 3.276 0 0 1-3.283 3.283h-81.38a3.276 3.276 0 0 1-3.283-3.283v-52.275a3.276 3.276 0 0 1 3.283-3.283z" color="#282828" fill="url(#g)" overflow="visible"/>
  <path d="m3.156 165.8v2.213h194.68v-2.213zm0 4.912v1.176c0 0.358 0.02 0.693 0.07 1.038h194.54c0.05-0.345 0.07-0.68 0.07-1.038v-1.176z" color="#282828" fill="#b46432" font-weight="400" opacity=".976" overflow="visible" style="text-indent:0;text-transform:none"/>
  <path transform="matrix(2.2139 0 0 2.2139 109.49 -2344.9)" d="m-47.75 1138.2a3.28 3.28 0 0 0 3 1.937h81.375c1.34 0 2.488-0.792 3-1.937z" color="#282828" fill="url(#h)" font-weight="400" opacity=".976" overflow="visible" style="text-indent:0;text-transform:none"/>
  <path transform="matrix(2.2139 0 0 2.2139 109.49 -2344.9)" d="m9.264 1097.6h-5.314l-1.488-2.232c-0.425-0.638-1.063-0.956-1.807-0.956h-10.522c-0.744 0-1.381 0.318-1.807 0.956l-1.381 2.232h-5.314a4.264 4.264 0 0 0-4.252 4.251v18.068a4.264 4.264 0 0 0 4.252 4.251h27.633a4.264 4.264 0 0 0 4.251-4.251v-18.068a4.264 4.264 0 0 0-4.251-4.251zm-26.57 7.44a2.132 2.132 0 0 1-2.126-2.126c0-1.17 0.956-2.126 2.125-2.126 1.17 0 2.126 0.957 2.126 2.126a2.132 2.132 0 0 1-2.126 2.126zm12.753 13.816c-4.676 0-8.502-3.826-8.502-8.502 0-4.677 3.826-8.503 8.502-8.503 4.677 0 8.503 3.826 8.503 8.503 0 4.676-3.826 8.502-8.503 8.502z" fill="url(#i)"/>
 </g>
</svg>
