<?xml version="1.0" encoding="UTF-8"?>
<!-- Created with Inkscape (http://www.inkscape.org/) -->
<svg width="64" height="64" version="1.1" viewBox="0 0 16.933 16.933" xmlns="http://www.w3.org/2000/svg" xmlns:cc="http://creativecommons.org/ns#" xmlns:dc="http://purl.org/dc/elements/1.1/" xmlns:rdf="http://www.w3.org/1999/02/22-rdf-syntax-ns#">
 <defs>
  <linearGradient id="a-3" x1="-26.201" x2="-26.201" y1="1070.2" y2="1082.6" gradientUnits="userSpaceOnUse">
   <stop stop-color="#ff64a0" offset="0"/>
   <stop stop-color="#ff8cc8" offset="1"/>
  </linearGradient>
  <linearGradient id="b" x1="-9.912" x2="-9.912" y1="1081.4" y2="1139.8" gradientUnits="userSpaceOnUse">
   <stop stop-color="#ff4696" offset="0"/>
   <stop stop-color="#ff64a0" offset=".5"/>
   <stop stop-color="#eb3282" offset="1"/>
  </linearGradient>
  <linearGradient id="c" x1="-9.617" x2="-9.617" y1="1138.4" y2="1140.2" gradientUnits="userSpaceOnUse">
   <stop stop-color="#e63c8c" offset="0"/>
   <stop stop-color="#d22878" offset="1"/>
  </linearGradient>
  <linearGradient id="d-6" x1="-56.654" x2="-56.654" y1="1093.1" y2="1129.2" gradientTransform="matrix(1.1429,0,0,1.1429,60.621,-158.28)" gradientUnits="userSpaceOnUse">
   <stop stop-color="#e63c8c" offset="0"/>
   <stop stop-color="#d22878" offset="1"/>
  </linearGradient>
 </defs>
 <metadata>
  <rdf:RDF>
   <cc:Work rdf:about="">
    <dc:format>image/svg+xml</dc:format>
    <dc:type rdf:resource="http://purl.org/dc/dcmitype/StillImage"/>
    <dc:title/>
   </cc:Work>
  </rdf:RDF>
 </metadata>
 <circle cx="-302.94" cy="-325.41" r="0" fill="#5e4aa6" stroke-width=".26458"/>
 <g transform="translate(-.00028467 -.0032533)">
  <circle cx="-302.94" cy="-325.41" r="0" fill="#5e4aa6" stroke-width=".26458"/>
  <g transform="matrix(.081527 0 0 .081527 .27413 .16729)">
   <path transform="matrix(2.2139,0,0,2.2139,109.5,-2344.9)" d="m-44.762 1070.2h22.131c3.287 0 4.652 7.071 7.728 7.071h51.522a3.276 3.276 0 0 1 3.283 3.283v50.508c0 1.819-1.464-2.02-3.283-2.02h-81.38a3.276 3.276 0 0 1-3.283-3.283v-52.275a3.276 3.276 0 0 1 3.283-3.283z" color="#282828" fill="url(#a-3)"/>
   <path transform="matrix(2.2139,0,0,2.2139,109.5,-2344.9)" d="m-44.762 1081.3h81.38a3.276 3.276 0 0 1 3.283 3.283v52.275a3.276 3.276 0 0 1-3.283 3.283h-81.38a3.276 3.276 0 0 1-3.283-3.283v-52.275a3.276 3.276 0 0 1 3.283-3.283z" color="#282828" fill="url(#b)"/>
   <path d="m3.16 165.84v2.214h194.68v-2.214h-194.69zm0 4.87v1.176c0 0.359 0.019 0.694 0.068 1.038h194.55c0.05-0.344 0.069-0.679 0.069-1.038v-1.176h-194.69z" color="#282828" fill="#e63c8c" opacity=".976" style="text-indent:0;text-transform:none"/>
   <path transform="matrix(2.2139,0,0,2.2139,109.5,-2344.9)" d="m-47.75 1138.2a3.28 3.28 0 0 0 3 1.938h81.375c1.34 0 2.488-0.793 3-1.938z" color="#282828" fill="url(#c)" opacity=".976" style="text-indent:0;text-transform:none"/>
   <path class="ColorScheme-Text" transform="matrix(2.2139,0,0,2.2139,109.5,-2344.9)" d="m-3.903 1091.3c-0.265 0-0.53 0.098-0.774 0.246l-1.356 0.78a1.818 1.818 0 0 0-0.653 2.489l11.765 20.543 4.308-2.903-11.596-20.227c-0.314-0.547-0.847-0.887-1.428-0.927-0.087-0.011-0.178 0-0.266 0zm-4.163 7.002c-0.58 0.062-1.138 0.357-1.453 0.903l-1.186 2.049 4.479 2.61 1.186-2.049a1.818 1.818 0 0 0-0.654-2.488l-1.331-0.78a1.82 1.82 0 0 0-1.041-0.247zm-3.39 4.294-10.142 17.738 4.478 2.586 10.143-17.714zm-14.814 7.954v5.221h6.004l2.977-5.22zm17.526 0-2.978 5.221h15.76l-3.003-5.22zm18.325 0 3.002 5.221h5.544v-5.22zm0.581 3.245-4.309 2.903 2.155 3.758 4.309-2.903zm2.93 5.124-4.31 2.903c0.129 5.19 4.062 4.544 5.568 7.783 2.867-3.077 2-7.808-1.259-10.687zm-35.466 2.757-2.348 8.466 6.826-5.856z" fill="url(#d-6)" opacity=".816"/>
  </g>
 </g>
</svg>
