<?xml version="1.0" encoding="UTF-8"?>
<svg width="755.91" height="755.91" version="1.1" viewBox="0 0 200 200" xmlns="http://www.w3.org/2000/svg" xmlns:cc="http://creativecommons.org/ns#" xmlns:dc="http://purl.org/dc/elements/1.1/" xmlns:rdf="http://www.w3.org/1999/02/22-rdf-syntax-ns#" xmlns:xlink="http://www.w3.org/1999/xlink">
 <metadata>
  <rdf:RDF>
   <cc:Work rdf:about="">
    <dc:format>image/svg+xml</dc:format>
    <dc:type rdf:resource="http://purl.org/dc/dcmitype/StillImage"/>
    <dc:title/>
   </cc:Work>
  </rdf:RDF>
 </metadata>
 <defs>
  <linearGradient id="a">
   <stop stop-color="#fff" offset="0"/>
   <stop stop-color="#fff" stop-opacity="0" offset="1"/>
  </linearGradient>
  <linearGradient id="linearGradient1108">
   <stop stop-color="#8ed99f" offset="0"/>
   <stop stop-color="#8ed99f" stop-opacity="0" offset="1"/>
  </linearGradient>
  <linearGradient id="linearGradient1082">
   <stop stop-color="#393939" offset="0"/>
   <stop stop-color="#393939" stop-opacity="0" offset="1"/>
  </linearGradient>
  <linearGradient id="linearGradient6468" x1="-8.6403" x2="-5.0417" y1="207.18" y2="207.18" gradientUnits="userSpaceOnUse">
   <stop stop-color="#99662e" offset="0"/>
   <stop stop-color="#b67937" offset="1"/>
  </linearGradient>
  <clipPath id="clipPath6416">
   <path d="m-16.962 206.64c-1.1694-0.69689-2.6576-1.9844-2.6576-3.9333 0-1.1694 0.75595-1.7127 0.75595-1.7127-0.05906 0.61421-0.7087 1.7954 0.12993 2.4805 0.2008 0.3071 0.43703 0.33073 1.1103 0.3071 0.67327-0.0236 0.53153 0.17718 0.53153 0.17718s0.16536-0.74414 0.33073-0.93313c0.16536-0.18899 0.86226-1.7009 0.86226-1.7009s3.3191-1.6891 3.5553-1.7954c0.23624-0.1063 1.193-0.24805 1.193-0.24805s3.39 1.193 3.5553 1.3584c0.16536 0.16536 0.37798 1.2638 0.37798 1.2638l-0.42522 1.6418-3.0829 1.1576 1.571 3.3782-3.3545 0.22443s-3.6616-0.29529-4.453-1.6655z" fill="#b0afad" fill-rule="evenodd"/>
  </clipPath>
  <clipPath id="clipPath6392">
   <path d="m-16.962 206.64c-1.1694-0.69689-2.6576-1.9844-2.6576-3.9333 0-1.1694 0.75595-1.7127 0.75595-1.7127-0.05906 0.61421-0.7087 1.7954 0.12993 2.4805 0.2008 0.3071 0.43703 0.33073 1.1103 0.3071 0.67327-0.0236 0.53153 0.17718 0.53153 0.17718s0.16536-0.74414 0.33073-0.93313c0.16536-0.18899 0.86226-1.7009 0.86226-1.7009s3.3191-1.6891 3.5553-1.7954c0.23624-0.1063 1.193-0.24805 1.193-0.24805s3.39 1.193 3.5553 1.3584c0.16536 0.16536 0.37798 1.2638 0.37798 1.2638l-0.42522 1.6418-3.0829 1.1576 1.571 3.3782-3.3545 0.22443s-3.6616-0.29529-4.453-1.6655z" fill="#b0afad" fill-rule="evenodd"/>
  </clipPath>
  <clipPath id="clipPath6404">
   <path d="m-16.962 206.64c-1.1694-0.69689-2.6576-1.9844-2.6576-3.9333 0-1.1694 0.75595-1.7127 0.75595-1.7127-0.05906 0.61421-0.7087 1.7954 0.12993 2.4805 0.2008 0.3071 0.43703 0.33073 1.1103 0.3071 0.67327-0.0236 0.53153 0.17718 0.53153 0.17718s0.16536-0.74414 0.33073-0.93313c0.16536-0.18899 0.86226-1.7009 0.86226-1.7009s3.3191-1.6891 3.5553-1.7954c0.23624-0.1063 1.193-0.24805 1.193-0.24805s3.39 1.193 3.5553 1.3584c0.16536 0.16536 0.37798 1.2638 0.37798 1.2638l-0.42522 1.6418-3.0829 1.1576 1.571 3.3782-3.3545 0.22443s-3.6616-0.29529-4.453-1.6655z" fill="#b0afad" fill-rule="evenodd"/>
  </clipPath>
  <linearGradient id="linearGradient6205" x1="-7.6835" x2="-4.1513" y1="202.91" y2="205.26" gradientUnits="userSpaceOnUse">
   <stop stop-color="#77d743" offset="0"/>
   <stop stop-color="#254a12" offset="1"/>
  </linearGradient>
  <linearGradient id="linearGradient6213" x1="-9.8639" x2="-9.916" y1="203.74" y2="204.85" gradientUnits="userSpaceOnUse">
   <stop stop-color="#3cd0f2" offset="0"/>
   <stop stop-color="#0eacd0" offset="1"/>
  </linearGradient>
  <linearGradient id="linearGradient6430" x1="-7.6187" x2="-5.0417" y1="205.46" y2="205.46" gradientUnits="userSpaceOnUse">
   <stop stop-color="#872c1f" offset="0"/>
   <stop stop-color="#bf3f2d" offset="1"/>
  </linearGradient>
  <linearGradient id="linearGradient6492" x1="-3.579" x2="-2.2384" y1="206.88" y2="205.53" gradientUnits="userSpaceOnUse">
   <stop stop-color="#3c4533" offset="0"/>
   <stop stop-color="#3c4533" offset=".32423"/>
   <stop stop-color="#414a37" offset=".5756"/>
   <stop stop-color="#3c4533" offset=".80512"/>
   <stop stop-color="#3c4533" offset="1"/>
  </linearGradient>
  <clipPath id="clipPath5626">
   <path d="m-14.611 203.49c4.2995 1.6064 4.3704 4.3113 5.3035 4.3113 0.93313 0 0.83863 0.4961 1.3229-0.16536 0.48428-0.66146 1.6064-1.8308 1.7245-2.8939 0.11812-1.0631 1.0276-0.57878 1.0158-0.14174-0.011811 0.43703-0.30711 3.3545-0.2008 3.579s0.25986 0.34254 0.35435-0.43704c0.094494-0.77957 0.11812-1.9844 0.31892-2.1379 0.2008-0.15356 1.4292-0.8977 1.6655-1.7481 0 0 0.03543-0.42523-0.68508-0.67328-0.72052-0.24804 1.7127-2.2915 1.7127-2.2915s3.4845 1.6064 4.3704 2.5277c0 0-0.33707 1.2262 0.08054 1.2262 0.41761 0 0.60136 1.0858-0.31738 0.86862s-1.6203-0.61806-2.1883 0.0167-0.81851 1.2361-1.1192 1.353-0.70158 0.31738-0.68488-0.53454c0.0167-0.85192-0.11693 0.70158-0.3675 0.66817-0.25056-0.0334-0.15034 0.40091-1.6871 0.45102 0 0 0.90204 0.3508 0.96885 0.88534 0.06682 0.53454 0.11693 0.55124 0.11693 0.55124s1.921 0.16705 2.0045-0.3842c0.08352-0.55124 0.55124-1.3029 0.7517-1.5535 0.20045-0.25057 1.1025-1.2862 1.9544-1.1693 0 0-1.5535 0.98555-2.1716 2.3553-0.61806 1.3698 4.3932 1.0023 4.3932 1.0023s2.6727-0.70158 2.9734-1.6537 0.3675-4.6271-0.21716-5.2285c-0.89971-0.75589-2.0809-1.4646-3.5219-0.54328-1.441 0.92131-0.25986 1.3702-2.2206-0.35435-1.9608-1.7245-3.7561-2.5041-3.7561-2.5041s-2.2915 3.0947-2.3387 2.764c-0.047247-0.33073-0.56696-2.0552-0.82682-0.77957 0 0-0.75595-0.28348-0.68508 0.37797 0.070871 0.66146-1.0158-0.7087-1.0158-0.7087s0.094494 1.8899-0.37798 2.1261c0 0 1.9844-0.51971 1.252 0.54335-0.73233 1.063-1.5592 1.1339-2.8348 1.2048-1.2757 0.0709-2.1025-0.66145-2.7403-0.85044s-1.1576-0.75595-2.3269-0.0591z" fill="#dedede" fill-rule="evenodd"/>
  </clipPath>
  <filter id="filter5447" x="-.17321" y="-.12147" width="1.3464" height="1.2429" color-interpolation-filters="sRGB">
   <feGaussianBlur stdDeviation="0.18354709"/>
  </filter>
  <clipPath id="clipPath5636">
   <path d="m-14.611 203.49c4.2995 1.6064 4.3704 4.3113 5.3035 4.3113 0.93313 0 0.83863 0.4961 1.3229-0.16536 0.48428-0.66146 1.6064-1.8308 1.7245-2.8939 0.11812-1.0631 1.0276-0.57878 1.0158-0.14174-0.011811 0.43703-0.30711 3.3545-0.2008 3.579s0.25986 0.34254 0.35435-0.43704c0.094494-0.77957 0.11812-1.9844 0.31892-2.1379 0.2008-0.15356 1.4292-0.8977 1.6655-1.7481 0 0 0.03543-0.42523-0.68508-0.67328-0.72052-0.24804 1.7127-2.2915 1.7127-2.2915s3.4845 1.6064 4.3704 2.5277c0 0-0.33707 1.2262 0.08054 1.2262 0.41761 0 0.60136 1.0858-0.31738 0.86862s-1.6203-0.61806-2.1883 0.0167-0.81851 1.2361-1.1192 1.353-0.70158 0.31738-0.68488-0.53454c0.0167-0.85192-0.11693 0.70158-0.3675 0.66817-0.25056-0.0334-0.15034 0.40091-1.6871 0.45102 0 0 0.90204 0.3508 0.96885 0.88534 0.06682 0.53454 0.11693 0.55124 0.11693 0.55124s1.921 0.16705 2.0045-0.3842c0.08352-0.55124 0.55124-1.3029 0.7517-1.5535 0.20045-0.25057 1.1025-1.2862 1.9544-1.1693 0 0-1.5535 0.98555-2.1716 2.3553-0.61806 1.3698 4.3932 1.0023 4.3932 1.0023s2.6727-0.70158 2.9734-1.6537 0.3675-4.6271-0.21716-5.2285c-0.89971-0.75589-2.0809-1.4646-3.5219-0.54328-1.441 0.92131-0.25986 1.3702-2.2206-0.35435-1.9608-1.7245-3.7561-2.5041-3.7561-2.5041s-2.2915 3.0947-2.3387 2.764c-0.047247-0.33073-0.56696-2.0552-0.82682-0.77957 0 0-0.75595-0.28348-0.68508 0.37797 0.070871 0.66146-1.0158-0.7087-1.0158-0.7087s0.094494 1.8899-0.37798 2.1261c0 0 1.9844-0.51971 1.252 0.54335-0.73233 1.063-1.5592 1.1339-2.8348 1.2048-1.2757 0.0709-2.1025-0.66145-2.7403-0.85044s-1.1576-0.75595-2.3269-0.0591z" fill="#dedede" fill-rule="evenodd"/>
  </clipPath>
  <filter id="filter5529" x="-.053854" y="-.03284" width="1.1077" height="1.0657" color-interpolation-filters="sRGB">
   <feGaussianBlur stdDeviation="0.097488778"/>
  </filter>
  <clipPath id="clipPath5646">
   <path d="m-14.611 203.49c4.2995 1.6064 4.3704 4.3113 5.3035 4.3113 0.93313 0 0.83863 0.4961 1.3229-0.16536 0.48428-0.66146 1.6064-1.8308 1.7245-2.8939 0.11812-1.0631 1.0276-0.57878 1.0158-0.14174-0.011811 0.43703-0.30711 3.3545-0.2008 3.579s0.25986 0.34254 0.35435-0.43704c0.094494-0.77957 0.11812-1.9844 0.31892-2.1379 0.2008-0.15356 1.4292-0.8977 1.6655-1.7481 0 0 0.03543-0.42523-0.68508-0.67328-0.72052-0.24804 1.7127-2.2915 1.7127-2.2915s3.4845 1.6064 4.3704 2.5277c0 0-0.33707 1.2262 0.08054 1.2262 0.41761 0 0.60136 1.0858-0.31738 0.86862s-1.6203-0.61806-2.1883 0.0167-0.81851 1.2361-1.1192 1.353-0.70158 0.31738-0.68488-0.53454c0.0167-0.85192-0.11693 0.70158-0.3675 0.66817-0.25056-0.0334-0.15034 0.40091-1.6871 0.45102 0 0 0.90204 0.3508 0.96885 0.88534 0.06682 0.53454 0.11693 0.55124 0.11693 0.55124s1.921 0.16705 2.0045-0.3842c0.08352-0.55124 0.55124-1.3029 0.7517-1.5535 0.20045-0.25057 1.1025-1.2862 1.9544-1.1693 0 0-1.5535 0.98555-2.1716 2.3553-0.61806 1.3698 4.3932 1.0023 4.3932 1.0023s2.6727-0.70158 2.9734-1.6537 0.3675-4.6271-0.21716-5.2285c-0.89971-0.75589-2.0809-1.4646-3.5219-0.54328-1.441 0.92131-0.25986 1.3702-2.2206-0.35435-1.9608-1.7245-3.7561-2.5041-3.7561-2.5041s-2.2915 3.0947-2.3387 2.764c-0.047247-0.33073-0.56696-2.0552-0.82682-0.77957 0 0-0.75595-0.28348-0.68508 0.37797 0.070871 0.66146-1.0158-0.7087-1.0158-0.7087s0.094494 1.8899-0.37798 2.1261c0 0 1.9844-0.51971 1.252 0.54335-0.73233 1.063-1.5592 1.1339-2.8348 1.2048-1.2757 0.0709-2.1025-0.66145-2.7403-0.85044s-1.1576-0.75595-2.3269-0.0591z" fill="#dedede" fill-rule="evenodd"/>
  </clipPath>
  <filter id="filter5607" x="-.21518" y="-.1753" width="1.4304" height="1.3506" color-interpolation-filters="sRGB">
   <feGaussianBlur stdDeviation="0.13798654"/>
  </filter>
  <clipPath id="clipPath5722">
   <path d="m-14.611 203.49c4.2995 1.6064 4.3704 4.3113 5.3035 4.3113 0.93313 0 0.83863 0.4961 1.3229-0.16536 0.48428-0.66146 1.6064-1.8308 1.7245-2.8939 0.11812-1.0631 1.0276-0.57878 1.0158-0.14174-0.011811 0.43703-0.30711 3.3545-0.2008 3.579s0.25986 0.34254 0.35435-0.43704c0.094494-0.77957 0.11812-1.9844 0.31892-2.1379 0.2008-0.15356 1.4292-0.8977 1.6655-1.7481 0 0 0.03543-0.42523-0.68508-0.67328-0.72052-0.24804 1.7127-2.2915 1.7127-2.2915s3.4845 1.6064 4.3704 2.5277c0 0-0.33707 1.2262 0.08054 1.2262 0.41761 0 0.60136 1.0858-0.31738 0.86862s-1.6203-0.61806-2.1883 0.0167-0.81851 1.2361-1.1192 1.353-0.70158 0.31738-0.68488-0.53454c0.0167-0.85192-0.11693 0.70158-0.3675 0.66817-0.25056-0.0334-0.15034 0.40091-1.6871 0.45102 0 0 0.90204 0.3508 0.96885 0.88534 0.06682 0.53454 0.11693 0.55124 0.11693 0.55124s1.921 0.16705 2.0045-0.3842c0.08352-0.55124 0.55124-1.3029 0.7517-1.5535 0.20045-0.25057 1.1025-1.2862 1.9544-1.1693 0 0-1.5535 0.98555-2.1716 2.3553-0.61806 1.3698 4.3932 1.0023 4.3932 1.0023s2.6727-0.70158 2.9734-1.6537 0.3675-4.6271-0.21716-5.2285c-0.89971-0.75589-2.0809-1.4646-3.5219-0.54328-1.441 0.92131-0.25986 1.3702-2.2206-0.35435-1.9608-1.7245-3.7561-2.5041-3.7561-2.5041s-2.2915 3.0947-2.3387 2.764c-0.047247-0.33073-0.56696-2.0552-0.82682-0.77957 0 0-0.75595-0.28348-0.68508 0.37797 0.070871 0.66146-1.0158-0.7087-1.0158-0.7087s0.094494 1.8899-0.37798 2.1261c0 0 1.9844-0.51971 1.252 0.54335-0.73233 1.063-1.5592 1.1339-2.8348 1.2048-1.2757 0.0709-2.1025-0.66145-2.7403-0.85044s-1.1576-0.75595-2.3269-0.0591z" fill="#dedede" fill-rule="evenodd"/>
  </clipPath>
  <filter id="filter5712" x="-.042908" y="-.08227" width="1.0858" height="1.1645" color-interpolation-filters="sRGB">
   <feGaussianBlur stdDeviation="0.17003381"/>
  </filter>
  <clipPath id="clipPath5958">
   <path d="m-14.611 203.49c4.2995 1.6064 4.3704 4.3113 5.3035 4.3113 0.93313 0 0.83863 0.4961 1.3229-0.16536 0.48428-0.66146 1.6064-1.8308 1.7245-2.8939 0.11812-1.0631 1.0276-0.57878 1.0158-0.14174-0.011811 0.43703-0.30711 3.3545-0.2008 3.579s0.25986 0.34254 0.35435-0.43704c0.094494-0.77957 0.11812-1.9844 0.31892-2.1379 0.2008-0.15356 1.4292-0.8977 1.6655-1.7481 0 0 0.03543-0.42523-0.68508-0.67328-0.72052-0.24804 1.7127-2.2915 1.7127-2.2915s3.4845 1.6064 4.3704 2.5277c0 0-0.33707 1.2262 0.08054 1.2262 0.41761 0 0.60136 1.0858-0.31738 0.86862s-1.6203-0.61806-2.1883 0.0167-0.81851 1.2361-1.1192 1.353-0.70158 0.31738-0.68488-0.53454c0.0167-0.85192-0.11693 0.70158-0.3675 0.66817-0.25056-0.0334-0.15034 0.40091-1.6871 0.45102 0 0 0.90204 0.3508 0.96885 0.88534 0.06682 0.53454 0.11693 0.55124 0.11693 0.55124s1.921 0.16705 2.0045-0.3842c0.08352-0.55124 0.55124-1.3029 0.7517-1.5535 0.20045-0.25057 1.1025-1.2862 1.9544-1.1693 0 0-1.5535 0.98555-2.1716 2.3553-0.61806 1.3698 4.3932 1.0023 4.3932 1.0023s2.6727-0.70158 2.9734-1.6537 0.3675-4.6271-0.21716-5.2285c-0.89971-0.75589-2.0809-1.4646-3.5219-0.54328-1.441 0.92131-0.25986 1.3702-2.2206-0.35435-1.9608-1.7245-3.7561-2.5041-3.7561-2.5041s-2.2915 3.0947-2.3387 2.764c-0.047247-0.33073-0.56696-2.0552-0.82682-0.77957 0 0-0.75595-0.28348-0.68508 0.37797 0.070871 0.66146-1.0158-0.7087-1.0158-0.7087s0.094494 1.8899-0.37798 2.1261c0 0 1.9844-0.51971 1.252 0.54335-0.73233 1.063-1.5592 1.1339-2.8348 1.2048-1.2757 0.0709-2.1025-0.66145-2.7403-0.85044s-1.1576-0.75595-2.3269-0.0591z" fill="#dedede" fill-rule="evenodd"/>
  </clipPath>
  <filter id="filter5948" x="-.076365" y="-.076177" width="1.1527" height="1.1524" color-interpolation-filters="sRGB">
   <feGaussianBlur stdDeviation="0.22924756"/>
  </filter>
  <clipPath id="clipPath6171">
   <path d="m-55.223 402.47c16.25 6.0714 16.518 16.295 20.045 16.295 3.5268 0 3.1696 1.875 5-0.62498 1.8304-2.5 6.0714-6.9196 6.5179-10.938 0.44643-4.0179 3.8839-2.1875 3.8393-0.53571-0.04464 1.6518-1.1607 12.679-0.75893 13.527s0.98214 1.2946 1.3393-1.6518c0.35714-2.9464 0.44643-7.5 1.2054-8.0803 0.75893-0.58039 5.4018-3.3929 6.2946-6.6072 0 0 0.13391-1.6072-2.5893-2.5447-2.7232-0.93747 6.4732-8.6607 6.4732-8.6607s13.17 6.0714 16.518 9.5536c0 0-1.274 4.6345 0.3044 4.6345 1.5784 0 2.2728 4.1037-1.1996 3.283-3.4724-0.82076-6.124-2.336-8.2706 0.0631-2.1466 2.3991-3.0936 4.672-4.23 5.1139s-2.6517 1.1996-2.5885-2.0203c0.063118-3.2198-0.44194 2.6516-1.389 2.5254-0.94702-0.12624-0.56821 1.5152-6.3766 1.7046 0 0 3.4093 1.3259 3.6618 3.3462 0.25255 2.0203 0.44194 2.0834 0.44194 2.0834s7.2605 0.63137 7.5761-1.4521c0.31567-2.0834 2.0834-4.9245 2.8411-5.8715 0.75761-0.94703 4.1669-4.8614 7.3867-4.4194 0 0-5.8715 3.7249-8.2075 8.902-2.336 5.177 16.604 3.7881 16.604 3.7881s10.102-2.6516 11.238-6.2503c1.1364-3.5987 1.389-17.488-0.82075-19.761-3.4005-2.8569-7.8648-5.5355-13.311-2.0533-5.4464 3.4821-0.98214 5.1786-8.3929-1.3393-7.4107-6.5179-14.196-9.4643-14.196-9.4643s-8.6607 11.696-8.8393 10.446c-0.17857-1.25-2.1429-7.7678-3.125-2.9464 0 0-2.8571-1.0714-2.5893 1.4286 0.26786 2.5-3.8393-2.6786-3.8393-2.6786s0.35714 7.1428-1.4286 8.0357c0 0 7.5-1.9643 4.7321 2.0536-2.7679 4.0178-5.8929 4.2857-10.714 4.5535-4.8214 0.26797-7.9464-2.5-10.357-3.2143s-4.375-2.8571-8.7946-0.22337z" fill="#dedede" fill-rule="evenodd"/>
  </clipPath>
  <filter id="filter6060" x="-.19752" y="-.12406" width="1.395" height="1.2481" color-interpolation-filters="sRGB">
   <feGaussianBlur stdDeviation="0.2430634"/>
  </filter>
  <clipPath id="clipPath6181">
   <path d="m-14.611 203.49c4.2995 1.6064 4.3704 4.3113 5.3035 4.3113 0.93313 0 0.83863 0.4961 1.3229-0.16536 0.48428-0.66146 1.6064-1.8308 1.7245-2.8939 0.11812-1.0631 1.0276-0.57878 1.0158-0.14174-0.011811 0.43703-0.30711 3.3545-0.2008 3.579s0.25986 0.34254 0.35435-0.43704c0.094494-0.77957 0.11812-1.9844 0.31892-2.1379 0.2008-0.15356 1.4292-0.8977 1.6655-1.7481 0 0 0.03543-0.42523-0.68508-0.67328-0.72052-0.24804 1.7127-2.2915 1.7127-2.2915s3.4845 1.6064 4.3704 2.5277c0 0-0.33707 1.2262 0.08054 1.2262 0.41761 0 0.60136 1.0858-0.31738 0.86862s-1.6203-0.61806-2.1883 0.0167-0.81851 1.2361-1.1192 1.353-0.70158 0.31738-0.68488-0.53454c0.0167-0.85192-0.11693 0.70158-0.3675 0.66817-0.25056-0.0334-0.15034 0.40091-1.6871 0.45102 0 0 0.90204 0.3508 0.96885 0.88534 0.06682 0.53454 0.11693 0.55124 0.11693 0.55124s1.921 0.16705 2.0045-0.3842c0.08352-0.55124 0.55124-1.3029 0.7517-1.5535 0.20045-0.25057 1.1025-1.2862 1.9544-1.1693 0 0-1.5535 0.98555-2.1716 2.3553-0.61806 1.3698 4.3932 1.0023 4.3932 1.0023s2.6727-0.70158 2.9734-1.6537 0.3675-4.6271-0.21716-5.2285c-0.89971-0.75589-2.0809-1.4646-3.5219-0.54328-1.441 0.92131-0.25986 1.3702-2.2206-0.35435-1.9608-1.7245-3.7561-2.5041-3.7561-2.5041s-2.2915 3.0947-2.3387 2.764c-0.047247-0.33073-0.56696-2.0552-0.82682-0.77957 0 0-0.75595-0.28348-0.68508 0.37797 0.070871 0.66146-1.0158-0.7087-1.0158-0.7087s0.094494 1.8899-0.37798 2.1261c0 0 1.9844-0.51971 1.252 0.54335-0.73233 1.063-1.5592 1.1339-2.8348 1.2048-1.2757 0.0709-2.1025-0.66145-2.7403-0.85044s-1.1576-0.75595-2.3269-0.0591z" fill="#dedede" fill-rule="evenodd"/>
  </clipPath>
  <filter id="filter6161" x="-.11969" y="-.14714" width="1.2394" height="1.2943" color-interpolation-filters="sRGB">
   <feGaussianBlur stdDeviation="0.12848643"/>
  </filter>
  <clipPath id="clipPath6240">
   <path d="m-16.962 206.64c-1.1694-0.69689-2.6576-1.9844-2.6576-3.9333 0-1.1694 0.75595-1.7127 0.75595-1.7127-0.05906 0.61421-0.7087 1.7954 0.12993 2.4805 0.2008 0.3071 0.43703 0.33073 1.1103 0.3071 0.67327-0.0236 0.53153 0.17718 0.53153 0.17718s0.16536-0.74414 0.33073-0.93313c0.16536-0.18899 0.86226-1.7009 0.86226-1.7009s3.3191-1.6891 3.5553-1.7954c0.23624-0.1063 1.193-0.24805 1.193-0.24805s3.39 1.193 3.5553 1.3584c0.16536 0.16536 0.37798 1.2638 0.37798 1.2638l-0.42522 1.6418-3.0829 1.1576 1.571 3.3782-3.3545 0.22443s-3.6616-0.29529-4.453-1.6655z" fill="#b0afad" fill-rule="evenodd"/>
  </clipPath>
  <linearGradient id="linearGradient4747-2" x1="170.46" x2="289.66" y1="704.73" y2="704.73" gradientTransform="matrix(.20249 0 0 .20249 -25.739 133.81)" gradientUnits="userSpaceOnUse">
   <stop stop-color="#222327" offset="0"/>
   <stop offset=".25424"/>
   <stop offset=".74364"/>
   <stop stop-color="#1b1b20" offset="1"/>
  </linearGradient>
  <radialGradient id="radialGradient1044" cx="-110.07" cy="247.62" r="9.3464" gradientTransform="matrix(.36103 0 0 .47964 -109.75 151.19)" gradientUnits="userSpaceOnUse">
   <stop stop-color="#f0eccb" stop-opacity=".52747" offset="0"/>
   <stop stop-color="#f0eccb" stop-opacity="0" offset="1"/>
  </radialGradient>
  <radialGradient id="radialGradient1066" cx="122.66" cy="274.84" r="13.775" gradientTransform="matrix(.26551 0 0 .13547 -117.77 234.23)" gradientUnits="userSpaceOnUse">
   <stop stop-color="#894f00" stop-opacity=".263" offset="0"/>
   <stop stop-color="#ffdfb3" stop-opacity="0" offset="1"/>
  </radialGradient>
  <radialGradient id="radialGradient1070" cx="122.66" cy="274.84" r="13.775" gradientTransform="matrix(.26259 0 0 .21316 -82.912 196.38)" gradientUnits="userSpaceOnUse">
   <stop stop-color="#533e20" offset="0"/>
   <stop stop-color="#ffdfb3" stop-opacity="0" offset="1"/>
  </radialGradient>
  <radialGradient id="radialGradient1074" cx="122.66" cy="274.84" r="13.775" gradientTransform="matrix(.2356 0 0 .13378 107.47 221.65)" gradientUnits="userSpaceOnUse">
   <stop stop-color="#dcdbd9" stop-opacity=".24176" offset="0"/>
   <stop stop-color="#ffdfb3" stop-opacity="0" offset="1"/>
  </radialGradient>
  <radialGradient id="radialGradient1088" cx="230.24" cy="244.86" r="3.2001" gradientTransform="matrix(1.0936 0 1.0709e-8 1.1616 29.724 -273.46)" gradientUnits="userSpaceOnUse" xlink:href="#linearGradient1082"/>
  <radialGradient id="radialGradient1092" cx="230.24" cy="244.86" r="3.2001" gradientTransform="matrix(.56245 0 -1.2434e-8 1.1392 136.06 -143.68)" gradientUnits="userSpaceOnUse" xlink:href="#linearGradient1082"/>
  <radialGradient id="radialGradient1096" cx="230.24" cy="244.86" r="3.2001" gradientTransform="matrix(.43432 0 0 .89048 83.658 -422.77)" gradientUnits="userSpaceOnUse" xlink:href="#linearGradient1082"/>
  <radialGradient id="radialGradient1100" cx="230.24" cy="244.86" r="3.2001" gradientTransform="matrix(.43432 0 0 .89048 187.26 -198.53)" gradientUnits="userSpaceOnUse" xlink:href="#linearGradient1082"/>
  <radialGradient id="radialGradient1110" cx="-24.646" cy="219.47" r="4.4335" gradientTransform="matrix(.43285 0 0 .48727 29.555 172.17)" gradientUnits="userSpaceOnUse" xlink:href="#linearGradient1108"/>
  <radialGradient id="radialGradient1114" cx="-24.646" cy="219.47" r="4.4335" gradientTransform="matrix(.33311 0 0 .5378 249.69 88.294)" gradientUnits="userSpaceOnUse">
   <stop stop-color="#38a852" offset="0"/>
   <stop stop-color="#8ed99f" stop-opacity="0" offset="1"/>
  </radialGradient>
  <radialGradient id="radialGradient1118" cx="-24.646" cy="219.47" r="4.4335" gradientTransform="matrix(.29474 0 0 .4616 208.95 63.139)" gradientUnits="userSpaceOnUse">
   <stop stop-color="#1e5a2c" offset="0"/>
   <stop stop-color="#8ed99f" stop-opacity="0" offset="1"/>
  </radialGradient>
  <radialGradient id="radialGradient1122" cx="-24.646" cy="219.47" r="4.4335" gradientTransform="matrix(.25722 0 0 .40742 221.46 76.118)" gradientUnits="userSpaceOnUse" xlink:href="#linearGradient1108"/>
  <radialGradient id="radialGradient1126" cx="-24.646" cy="219.47" r="4.4335" gradientTransform="matrix(.25722 0 0 .40742 219.92 77.538)" gradientUnits="userSpaceOnUse">
   <stop stop-color="#ffdfb3" offset="0"/>
   <stop stop-color="#ffdfb3" stop-opacity="0" offset="1"/>
  </radialGradient>
  <radialGradient id="radialGradient1130" cx="-24.646" cy="219.47" r="4.4335" gradientTransform="matrix(.29582 0 0 .46154 213.8 49.192)" gradientUnits="userSpaceOnUse">
   <stop stop-color="#ff3b00" offset="0"/>
   <stop stop-color="#ffdfb3" stop-opacity="0" offset="1"/>
  </radialGradient>
  <radialGradient id="radialGradient1140" cx="122.66" cy="274.84" r="13.775" gradientTransform="matrix(.27695 0 0 .15509 -104.35 220.16)" gradientUnits="userSpaceOnUse">
   <stop stop-color="#ff980b" offset="0"/>
   <stop stop-color="#ffdfb3" stop-opacity="0" offset="1"/>
  </radialGradient>
  <linearGradient id="linearGradient1597" x1="50.122" x2="159.45" y1="202.81" y2="202.81" gradientTransform="matrix(.18849 0 0 .18849 1.102 239.78)" gradientUnits="userSpaceOnUse">
   <stop stop-color="#383a3c" offset="0"/>
   <stop stop-color="#5e5f60" offset=".38259"/>
   <stop stop-color="#676869" offset=".54656"/>
   <stop stop-color="#585a5b" offset=".70526"/>
   <stop stop-color="#444749" offset=".86397"/>
   <stop stop-color="#73706b" offset="1"/>
  </linearGradient>
  <radialGradient id="radialGradient1618" cx="230.24" cy="244.86" r="3.2001" gradientTransform="matrix(.56245 0 -1.2434e-8 1.1392 -49.526 -1.2655)" gradientUnits="userSpaceOnUse" xlink:href="#linearGradient1082"/>
  <linearGradient id="linearGradient1626" x1="26.833" x2="26.789" y1="221.88" y2="211.86" gradientTransform="matrix(.18849 0 0 .18849 -90.311 219.99)" gradientUnits="userSpaceOnUse" xlink:href="#a"/>
  <radialGradient id="radialGradient1631" cx="139.23" cy="271.41" r="64.024" gradientTransform="matrix(.18849 0 0 .094456 1.102 267.15)" gradientUnits="userSpaceOnUse">
   <stop offset="0"/>
   <stop stop-color="#eff0f1" stop-opacity=".157" offset="1"/>
  </radialGradient>
  <radialGradient id="radialGradient1647" cx="84.633" cy="271.15" r="28.587" gradientTransform="matrix(.18849 -.00030474 9.4262e-5 .058304 1.0766 275.11)" gradientUnits="userSpaceOnUse" xlink:href="#a"/>
 </defs>
 <g transform="matrix(5.5119 0 0 5.5119 8.0634 -1447.4)">
  <g transform="matrix(1.023 0 0 1.023 -4.6458 -1.9928)">
   <path d="m20.845 261.66c-6.6649 0-12.068 1.3509-12.068 3.0171l0.021356 0.17283c2.6e-5 1.2e-4 -2.85e-5 1.8e-4 0 3.7e-4 0.35953 1.5855 5.6146 2.8435 12.047 2.8435 6.4332 2e-5 11.689-1.2583 12.047-2.8443l0.02096-0.17242c-9e-6 -1.6662-5.4031-3.0171-12.068-3.0171z" color="#000000" fill="url(#linearGradient4747-2)" opacity=".428"/>
   <g transform="matrix(.76737 0 0 .76737 25.214 108.3)" fill-rule="evenodd">
    <path d="m0.69689 203.59 0.47838-1.2875 1.4765 1.1516 0.30711 1.9903-0.73823 0.42522-2.4391 2.575-1.3702-0.0886 1.571-2.7521z" fill="#96999f"/>
    <path d="m-1.1025 206.3c0.30068-0.7517 0.23386-0.86863 0.4009-0.95215 0.16704-0.0835 0.28397-0.41761 0.47607-0.48443 0.1921-0.0668 0.050113-0.61805 0.15869-0.67652 0.10858-0.0585 0.50113-0.0752 0.593-0.29233 0.091874-0.21715-0.041761-0.39255-0.041761-0.39255l-1.6788 0.0251-1.2194 2.3804s0.83522 1.612 1.3113 0.39255z" fill="#5975b5"/>
    <path d="m0.64374 203.57c0.76776-0.53153 0.88588-0.6083 1.0867-0.12993 0.2008 0.47838-0.40751 1.5473-0.40751 1.5473l-1.317-0.1004s-0.24214-1.0276-0.0059059-1.1339c0.23624-0.10631 0.64374-0.18309 0.64374-0.18309z" fill="#39497e"/>
    <path d="m-0.37207 203.68c0.61421 0.16536 0.98628 6e-3 1.1694-0.13584 0.18308-0.14174 0.31301-0.96265 0.44294-0.98628 0.12993-0.0236-0.6024-0.21851-0.6024-0.21851z" fill="#252921"/>
    <path d="m-3.6833 202.14 1.3614-0.0501s2.0713 0.35915 2.5474 0.46772c0.47607 0.10858 0.92709-0.10857 0.92709-0.10857l-3.3743-2.1465z" fill="#eae9e8"/>
    <path d="m-7.1745 208.06c0.32573 1.019 1.8208 1.0858 1.8375 0.75169 0.016703-0.33409 0.050113-0.9605 0.050113-0.9605s0.29233-1.7372-0.075169-1.6871c-0.3675 0.0501-1.8124 1.896-1.8124 1.896z" fill="#759d70"/>
    <path d="m-8.0264 209.21c0.76005 0.11693 2.7562-2.6476 2.9233-3.2824 0.16704-0.63477 0.00835-0.80181-0.65982-0.78511-0.66817 0.0167-4.3014 2.798-2.2634 4.0675z" fill="url(#linearGradient6468)"/>
    <path d="m-16.962 206.64c-1.1694-0.69689-2.6576-1.9844-2.6576-3.9333 0-1.1694 0.75595-1.7127 0.75595-1.7127-0.05906 0.61421-0.7087 1.7954 0.12993 2.4805 0.2008 0.3071 0.43703 0.33073 1.1103 0.3071 0.67327-0.0236 0.53153 0.17718 0.53153 0.17718s0.16536-0.74414 0.33073-0.93313c0.16536-0.18899 0.86226-1.7009 0.86226-1.7009s3.3191-1.6891 3.5553-1.7954c0.23624-0.1063 1.193-0.24805 1.193-0.24805s3.39 1.193 3.5553 1.3584c0.16536 0.16536 0.37798 1.2638 0.37798 1.2638l-0.42522 1.6418-3.0829 1.1576 1.571 3.3782-3.3545 0.22443s-3.6616-0.29529-4.453-1.6655z" fill="#b0afad"/>
    <path d="m-16.913 206.41c1.186-0.3675 1.0273-0.29233 1.1359-0.70994 0.61806-1.7122 0.92709-2.205 1.2445-2.2551 0.31738-0.0501 3.0569 0.80181 3.9088 1.5535 0.85192 0.75169 1.7456 3.416 1.7456 3.416l-5.5041 0.46772s-2.8063-1.2361-2.5307-2.4722z" clip-path="url(#clipPath6416)" fill="#626262"/>
    <path d="m-14.508 205.25c0.40926 0.36749 1.0023 0.93544 1.161 0.81016 0.15869-0.12529 1.2027-0.67653 1.2027-0.67653s1.5786 1.9126 1.8542 2.0546c0.27562 0.14199 0.5763 0.0418 0.5763 0.0418l-1.4533-2.8314-1.4867-0.28397s-1.1025-0.0668-1.5869 0.45101c-0.48443 0.51784-0.26727 0.43432-0.26727 0.43432z" fill="#411"/>
    <path d="m-19.867 203.53c1.3111 0.38979 2.0198 0.77957 2.445 1.1576s1.7836 1.252 1.7836 1.252l-0.86226 1.0867-3.0829-1.0394z" clip-path="url(#clipPath6392)" fill="#9f9f9f"/>
    <path d="m-19.636 203.88c1.5452 1.6955 3.4912 2.9817 3.4912 2.9817l-0.29233 0.43432s-3.1655-0.7684-3.1989-1.3781c-0.03341-0.60971 0-2.0379 0-2.0379z" clip-path="url(#clipPath6404)" fill="#606060"/>
    <path d="m-10.879 199.85c0.51972 0.23623 1.2166 3.7207 1.2166 3.7207l0.87407-0.21261s-0.59059-3.1892-1.2639-3.4372c-0.67327-0.24805-0.82682-0.0709-0.82682-0.0709z" fill="#444342"/>
    <path d="m-10.542 203.08c0.80911-0.34255 2.0848-0.67328 2.6163-0.44295 0 0 0.4839-0.34117 0.90151-0.39963 0.41761-0.0585 0.80181 0.53454 0.7684 0.54289-0.033409 8e-3 -0.92709 1.5786-1.2612 1.5368-0.33409-0.0418-3.025-1.2371-3.025-1.2371z" fill="url(#linearGradient6205)"/>
    <path d="m-11.428 204.48c-0.64374-0.73233 0.24805-1.4056 1.1221-1.5119 0.87407-0.10631 2.7285 1.2284 2.7285 1.2284s-2.6517 1.1339-3.8506 0.28348z" fill="url(#linearGradient6213)"/>
    <path d="m-7.6172 207.06c0.76005 0.11693 2.4305-1.637 2.5975-2.2718 0.16704-0.63477-0.075172-0.95215-0.74334-0.93545-0.66817 0.0167-1.9043 2.372-1.8542 3.2072z" fill="url(#linearGradient6430)"/>
    <path d="m-2.1215 206.03c0.63477-0.81016 1.2779-0.72664 1.328-0.88533 0.050113-0.15869 0.016704-0.37585-0.12528-0.58465-0.14199-0.20881 0.1921-0.7517 0.48443-0.73499 0.29233 0.0167 0.53454-0.60136 0.53454-0.60136l-1.1442-0.50113-1.8792 0.65982-0.28397 1.2027 0.025056 1.3113z" fill="#aa531f"/>
    <path d="m-1.5284 206.54c0.7851-0.64312 1.5201-0.52619 1.5201-0.52619l-1.2779 1.0357z" fill="#c1c2c9"/>
    <path d="m-4.4885 205.16c0.87407 0.0236 1.252-0.11812 1.8426 0.11812 0.59059 0.23623 0.55515 0.42522 0.74414 0.61421s0.48428-0.0354 0.64965 1.1457c0.16536 1.1812-3.2364 0.51972-3.2364 0.51972z" fill="url(#linearGradient6492)"/>
    <path d="m-4.3703 205.21c-0.023625 1.3111-0.059059 1.252 0.31892 1.2993 0.37798 0.0472-0.059059 0.54334 0.035435 0.77958 0.094494 0.23623 0.30711 0.22442 0.30711 0.22442l0.12993 0.42522-1.1221-0.0945s-0.12993-0.14174-0.17718-0.24805c-0.047247-0.1063 0.023625-2.4332 0.023625-2.5513 0-0.11811 0.48428 0.16537 0.48428 0.16537z" fill="#242f65"/>
    <path d="m-2.23 201.95c0.016704-0.32574 0.72664-0.65983 1.0691-0.47608 0.34244 0.18375 0.16704 0.49278 0.5763 0.66818 0.40926 0.17539 1.6036 0.46772 1.47 0.65982-0.13363 0.1921-0.4009 0.68488-0.7684 0.5763s-0.35914-0.43431-0.84357-0.43431c-0.48443 0-0.86027 0.0418-0.86027 0.0418z" fill="#5975b5"/>
    <path d="m-2.3386 203.44c0.22551 0.28398 0.42596 0.30068 0.84357 0.0251 0.41761-0.27562 0.60136-0.64312 0-0.62641-0.60136 0.0167-1.8625-0.45102-1.8625-0.45102s-0.42596 0.13363-0.41761 0.37585c0.00835 0.24221 0.33409 0.50948 0.33409 0.50948z" fill="#252921"/>
    <path d="m-3.3993 205.39c1.1192-0.33409 0.5596-1.019 0.43431-1.1944s0.13363-0.68488 0.68488-0.70158c0.55124-0.0167-0.30068-0.21716-0.80181-0.23386-0.50113-0.0167-0.70993-0.3675-0.49278-0.50949 0.21716-0.14198 0.50948-0.15869 0.7517 0.13364 0.24221 0.29232 1.2445 0.30068 1.4282 0.13363 0.18375-0.16704 0.50113-0.30903 0.50113-0.30903s-0.83522-0.33408-1.0023-0.60135-0.46772-0.56795-0.83522-0.35915c-0.3675 0.20881-1.0941 0.30068-1.0941 0.30068l-0.89368 1.4867 0.49278 1.9377z" fill="#3d4b6f"/>
    <path d="m-4.583 205.31c-0.15355 0.85045 0.035435 2.3269 0.11812 2.3151 0.082682-0.0118 0.35435 0.14174 0.74414-0.10631 1.3465-0.0236 1.004 1.5473 1.004 1.5473l-2.7521-0.30711s0.16536-3.4018 0.41341-3.5317c0.24805-0.12993 0.47247 0.0827 0.47247 0.0827z" fill="#652424"/>
    <g fill="#dedede">
     <path d="m-14.611 203.49c4.2995 1.6064 4.3704 4.3113 5.3035 4.3113 0.93313 0 0.83863 0.4961 1.3229-0.16536 0.48428-0.66146 1.6064-1.8308 1.7245-2.8939 0.11812-1.0631 1.0276-0.57878 1.0158-0.14174-0.011811 0.43703-0.30711 3.3545-0.2008 3.579s0.25986 0.34254 0.35435-0.43704c0.094494-0.77957 0.11812-1.9844 0.31892-2.1379 0.2008-0.15356 1.4292-0.8977 1.6655-1.7481 0 0 0.035435-0.42523-0.68508-0.67328-0.72052-0.24804 1.7127-2.2915 1.7127-2.2915s3.4845 1.6064 4.3703 2.5277c0 0-0.33707 1.2262 0.080536 1.2262 0.41761 0 0.60136 1.0858-0.31738 0.86862-0.91874-0.21716-1.6203-0.61806-2.1883 0.0167s-0.81851 1.2361-1.1192 1.353c-0.30068 0.11693-0.70158 0.31738-0.68488-0.53454 0.016704-0.85192-0.11693 0.70158-0.3675 0.66817-0.25057-0.0334-0.15034 0.40091-1.6871 0.45102 0 0 0.90204 0.3508 0.96885 0.88534 0.066817 0.53454 0.11693 0.55124 0.11693 0.55124s1.921 0.16705 2.0045-0.3842c0.083522-0.55124 0.55124-1.3029 0.7517-1.5535 0.20045-0.25057 1.1025-1.2862 1.9544-1.1693 0 0-1.5535 0.98555-2.1716 2.3553-0.61806 1.3698 4.3932 1.0023 4.3932 1.0023s2.6727-0.70158 2.9734-1.6537 0.3675-4.6271-0.21716-5.2285c-0.89971-0.75589-2.0809-1.4646-3.5219-0.54328-1.441 0.92131-0.25986 1.3702-2.2206-0.35435-1.9608-1.7245-3.7561-2.5041-3.7561-2.5041s-2.2915 3.0947-2.3387 2.764-0.56696-2.0552-0.82682-0.77957c0 0-0.75595-0.28348-0.68508 0.37797 0.070871 0.66146-1.0158-0.7087-1.0158-0.7087s0.094494 1.8899-0.37798 2.1261c0 0 1.9844-0.51971 1.252 0.54335-0.73233 1.063-1.5592 1.1339-2.8348 1.2048-1.2757 0.0709-2.1025-0.66145-2.7403-0.85044s-1.1576-0.75595-2.3269-0.0591z"/>
     <path d="m-16.962 207.73s-0.25986-1.4883 0.10631-1.9489c0 0 0.29529 0.6024 1.5473 0.90951 1.252 0.3071-0.92132 1.4647-0.92132 1.4647 2.5277-0.68507 3.2364 1.4883 1.1576 0.89769-2.0789-0.59059-1.8899-1.3229-1.8899-1.3229z"/>
     <path d="m-15.802 206.08c-0.41761-1.0691-0.3675-1.9878 1.0023-2.4555 0 0 0.0167 0.3842 0.30068 0.46772 0.28397 0.0835 0.48443 0.83522 0.90204 0.83522 0 0-0.7851 0.13363-0.86863 1.1359 0 0-0.68488 0.13364-1.3363 0.0167z"/>
     <path d="m-16.855 203.29c2.6059-1.0691 2.2885-1.2695 2.2885-1.2695s-1.9878 0.25056-0.93544-0.43432 2.9066-0.96885 3.2908-2.1214c0 0-1.2695-0.51784-5.6294 1.8876 0 0 0.31738 1.4867 0.98556 1.9377z"/>
     <path d="m-11.459 200.13c-0.21716 0.30068-0.4009 0.50113-0.33409-0.76839 0.06682-1.2695 0.71829-1.0524 1.3865-0.41762 0.66817 0.63477 1.0858 0.23387 1.5368 0.51784 0.45102 0.28397 1.3531 0.48442 1.3363 1.3196 0 0-0.81851 0.3842-1.8375-0.55124-0.41761-0.28398-1.8375-0.45102-2.088-0.10023z"/>
    </g>
    <path d="m-11.008 206.81c1.6203-2.5056 1.7707-2.4054 2.3386-2.1883s-0.15034 2.7562-0.88533 3.391c-0.73499 0.63477-1.4533-1.2027-1.4533-1.2027z" clip-path="url(#clipPath5626)" fill="#a3a3a3" filter="url(#filter5447)" opacity=".424"/>
    <g fill="#838383">
     <path d="m-9.3043 208.22c2.4388-4.3431 3.0235-6.1472 3.2573-5.9969 0.23386 0.15034 1.3363 1.6871 1.0357 2.1549-0.30068 0.46772-0.81851 1.0858-0.88533 1.1025-0.066817 0.0167-1.3698 3.8587-1.3698 3.8587z" clip-path="url(#clipPath5636)" filter="url(#filter5529)" opacity=".479"/>
     <path d="m-6.4646 202.84c0.60136 0.96885 0.93544 1.637 1.3363 1.3865 0.4009-0.25056 0.16704-1.2862-0.35079-1.6036-0.51783-0.31738-0.85192-0.36749-0.98556 0.21716z" clip-path="url(#clipPath5646)" filter="url(#filter5607)" opacity=".708"/>
     <path d="m-4.1814 209.25c-0.035435-2.3269 0.33073-3.1419 2.3269-4.4885 1.9962-1.3465 1.2875 0.67327 1.5828 0.86226s1.0158 1.2166 1.3702 0.85045c0.35435-0.36617 1.1457-0.95676 1.441-0.85045 0.29529 0.1063 2.7876 2.7758 2.7876 2.7758l-6.7563 0.66146-2.6931 0.2008z" clip-path="url(#clipPath5722)" filter="url(#filter5712)" opacity=".64831"/>
    </g>
    <path d="m2.386 205.86c0.49609-0.53153 0.33073-0.61421 0.92132-0.34254 0.59059 0.27167 0.90951 1.3347 1.3229 1.382 0.41341 0.0472 1.76-0.33073 1.9844-0.79139 0.22442-0.46066-0.23624-2.3033-0.14174-2.4568 0.094494-0.15356 1.5119-1.4056 2.1734-0.48429 0.66146 0.92132 1.8308 6.461-0.17718 6.8626-2.008 0.4016-4.9964-4.2758-6.0831-4.1696z" clip-path="url(#clipPath5958)" fill="#373737" filter="url(#filter5948)" opacity=".758"/>
    <path transform="matrix(.26458 0 0 .26458 0 97)" d="m20.09 393s-6.4735 1.2943-7.2324 6.5176c-0.75893 5.2232 0.22266 6.3848 0.22266 6.3848 0.9375 1.8304 3.3926 4.9991 4.9551 4.8652 1.5625-0.13379 4.3747-0.62419 4.9551-2.3652 0.58036-1.7411 0.76032-6.2517-1.3379-7.1445-2.0982-0.89284-3.0368-1.3839-0.80469-1.25 2.2321 0.13379 3.4383 0.53736 2.6348-0.66797-0.80357-1.2054-3.3926-6.3398-3.3926-6.3398zm-1.7461 12.457c1.8794-0.0636 2.1311 2.096-0.12891 2.7656-1.6518-0.35716-2.4997-2.3208-0.26758-2.7226 0.13951-0.0251 0.27119-0.0387 0.39648-0.043z" clip-path="url(#clipPath6171)" fill="#a8a8a8" filter="url(#filter6060)" opacity=".585"/>
    <path d="m5.3035 203.86c-1.76-0.2008-1.7718-1.0276-1.1576-1.382 0.61421-0.35435 1.2402-0.55515 1.7127-0.1063 0.47247 0.44884 0.73233 0.54334 0.2008 0.57877-0.53153 0.0354-0.63784 0.0118-0.62602-0.24804 0.011811-0.25986-0.38979-0.41342-0.81501-0.10631-0.42522 0.30711-0.41341 0.66146 0.24805 0.69689 0.66146 0.0354 1.0394 0.37798 0.98038 0.77958s-0.54334-0.21261-0.54334-0.21261z" clip-path="url(#clipPath6181)" fill="#676767" filter="url(#filter6161)" opacity=".47"/>
    <path d="m-19.26 204.73c-0.2067-3.1301 0.73893-3.7927 0.73893-3.7927l-0.43704-0.18308s-2.8237 3.1844-0.3019 3.9758z" clip-path="url(#clipPath6240)" fill="#dedede"/>
    <path d="m-1.2862 206.43 0.71829-0.0668s1.7707-0.93544 2.1047-1.044 0.67653-0.55124 0.69323-0.89368c0.016704-0.34244-0.55124-1.0774-0.55124-1.0774s0.050113 0.93544-0.20045 1.1442c-0.25057 0.2088-0.48443 0.52618-1.3447-0.42596-0.86027-0.95215-1.4199 2.3637-1.4199 2.3637z" fill="#773520"/>
   </g>
   <path d="m8.7769 264.67 2.8894 23.522c-4e-6 2.1756 4.115 3.9394 9.1913 3.9394 5.0764 0 9.1917-1.7638 9.1917-3.9394l2.8637-23.522c-5.65e-4 1.6661-5.4035 3.0167-12.068 3.0167-6.6646 1e-5 -12.067-1.3506-12.068-3.0167zm24.136 0c0-0.0654-0.01131-0.13023-0.02768-0.19458 0.01759 0.0648 0.02683 0.12966 0.02768 0.19458z" color="#000000" fill="url(#linearGradient1597)"/>
   <path d="m17.042 288.19a5.3885 2.698 0 0 0-4.746 1.4353c1.3387 1.4658 4.6672 2.5041 8.5619 2.5041 0.33749 0 0.67061-8e-3 0.99868-0.0232a5.3885 2.698 0 0 0 0.58698-1.2182v-9e-3a5.3885 2.698 0 0 0-5.4015-2.6893z" fill="url(#radialGradient1647)" opacity=".424" style="paint-order:fill markers stroke"/>
   <path d="m8.7769 264.67 2.8894 23.522c-4e-6 2.1756 4.115 3.9394 9.1913 3.9394 5.0764 0 9.1917-1.7638 9.1917-3.9394l2.8637-23.522c-5.65e-4 1.6661-5.4035 3.0167-12.068 3.0167-6.6646 1e-5 -12.067-1.3506-12.068-3.0167zm24.136 0c0-0.0654-0.01131-0.13023-0.02768-0.19458 0.01759 0.0648 0.02683 0.12966 0.02768 0.19458z" color="#000000" fill="url(#radialGradient1631)" opacity=".279"/>
   <path transform="matrix(.90518 -.42502 .56144 .82752 0 0)" d="m-146.11 269.96a3.3743 4.4829 0 0 1-3.3716 4.4829 3.3743 4.4829 0 0 1-3.377-4.4757 3.3743 4.4829 0 0 1 3.3661-4.4901 3.3743 4.4829 0 0 1 3.3824 4.4684" fill="url(#radialGradient1044)" opacity=".54" style="paint-order:fill markers stroke"/>
   <path transform="matrix(.9462 -.3236 .39837 .91722 0 0)" d="m-81.541 271.46a3.6574 1.8661 0 0 1-3.6545 1.8661 3.6574 1.8661 0 0 1-3.6604-1.8631 3.6574 1.8661 0 0 1 3.6486-1.8691 3.6574 1.8661 0 0 1 3.6663 1.8601" fill="url(#radialGradient1066)" opacity=".308" style="paint-order:fill markers stroke"/>
   <path transform="matrix(.83691 -.54735 .22148 .97517 0 0)" d="m-47.086 254.97a3.6173 2.9363 0 0 1-3.6144 2.9363 3.6173 2.9363 0 0 1-3.6202-2.9315 3.6173 2.9363 0 0 1 3.6085-2.941 3.6173 2.9363 0 0 1 3.626 2.9268" fill="url(#radialGradient1070)" opacity=".188" style="paint-order:fill markers stroke"/>
   <path transform="matrix(.93556 .35318 -.4209 .90711 0 0)" d="m139.61 258.41a3.2454 1.8428 0 0 1-3.2428 1.8428 3.2454 1.8428 0 0 1-3.248-1.8398 3.2454 1.8428 0 0 1 3.2375-1.8458 3.2454 1.8428 0 0 1 3.2532 1.8368" fill="url(#radialGradient1074)" opacity=".482" style="paint-order:fill markers stroke"/>
   <path transform="matrix(.11344 .99355 -.982 -.18891 0 0)" d="m285.01 10.965a3.4997 3.7173 0 0 1-3.4968 3.7173 3.4997 3.7173 0 0 1-3.5025-3.7113 3.4997 3.7173 0 0 1 3.4912-3.7233 3.4997 3.7173 0 0 1 3.5081 3.7053" fill="url(#radialGradient1088)" opacity=".134" style="paint-order:fill markers stroke"/>
   <path transform="matrix(.54131 .84082 -.87642 .48155 0 0)" d="m267.36 135.26a1.7999 3.6456 0 0 1-1.7985 3.6456 1.7999 3.6456 0 0 1-1.8014-3.6398 1.7999 3.6456 0 0 1 1.7956-3.6515 1.7999 3.6456 0 0 1 1.8043 3.6339" fill="url(#radialGradient1092)" opacity=".17" style="paint-order:fill markers stroke"/>
   <path transform="matrix(-.66308 .74855 -.6844 -.72911 0 0)" d="m185.05-204.73a1.3899 2.8497 0 0 1-1.3888 2.8497 1.3899 2.8497 0 0 1-1.391-2.845 1.3899 2.8497 0 0 1 1.3865-2.8543 1.3899 2.8497 0 0 1 1.3933 2.8404" fill="url(#radialGradient1096)" opacity=".058" style="paint-order:fill markers stroke"/>
   <path transform="matrix(.14263 .98978 -.9987 .051 0 0)" d="m288.65 19.509a1.3899 2.8497 0 0 1-1.3888 2.8497 1.3899 2.8497 0 0 1-1.391-2.8451 1.3899 2.8497 0 0 1 1.3865-2.8542 1.3899 2.8497 0 0 1 1.3933 2.8404" fill="url(#radialGradient1100)" opacity=".091" style="paint-order:fill markers stroke"/>
   <path d="m20.806 279.11a1.919 2.1603 0 0 1-1.9175 2.1603 1.919 2.1603 0 0 1-1.9206-2.1568 1.919 2.1603 0 0 1 1.9144-2.1638 1.919 2.1603 0 0 1 1.9237 2.1533" fill="url(#radialGradient1110)" opacity=".141" style="paint-order:fill markers stroke"/>
   <path transform="matrix(.74605 .66589 -.80455 .59388 0 0)" d="m242.96 206.33a1.4769 2.3844 0 0 1-1.4757 2.3844 1.4769 2.3844 0 0 1-1.4781-2.3805 1.4769 2.3844 0 0 1 1.4733-2.3882 1.4769 2.3844 0 0 1 1.4804 2.3767" fill="url(#radialGradient1114)" opacity=".207" style="paint-order:fill markers stroke"/>
   <path transform="matrix(.62934 .77713 -.69964 .71449 0 0)" d="m203 164.45a1.3067 2.0465 0 0 1-1.3057 2.0465 1.3067 2.0465 0 0 1-1.3078-2.0432 1.3067 2.0465 0 0 1 1.3036-2.0498 1.3067 2.0465 0 0 1 1.3099 2.0399" fill="url(#radialGradient1118)" opacity=".232" style="paint-order:fill markers stroke"/>
   <path transform="matrix(.67422 .73853 -.74111 .67138 0 0)" d="m216.26 165.54a1.1404 1.8063 0 0 1-1.1395 1.8063 1.1404 1.8063 0 0 1-1.1413-1.8034 1.1404 1.8063 0 0 1 1.1376-1.8092 1.1404 1.8063 0 0 1 1.1432 1.8005" fill="url(#radialGradient1122)" opacity=".225" style="paint-order:fill markers stroke"/>
   <path transform="matrix(.67422 .73853 -.74111 .67138 0 0)" d="m214.72 166.96a1.1404 1.8063 0 0 1-1.1395 1.8063 1.1404 1.8063 0 0 1-1.1413-1.8034 1.1404 1.8063 0 0 1 1.1376-1.8092 1.1404 1.8063 0 0 1 1.1432 1.8005" fill="url(#radialGradient1126)" opacity=".225" style="paint-order:fill markers stroke"/>
   <path transform="matrix(.61383 .78944 -.68498 .72856 0 0)" d="m207.82 150.49a1.3115 2.0463 0 0 1-1.3105 2.0463 1.3115 2.0463 0 0 1-1.3126-2.043 1.3115 2.0463 0 0 1 1.3084-2.0496 1.3115 2.0463 0 0 1 1.3147 2.0396" fill="url(#radialGradient1130)" opacity=".094" style="paint-order:fill markers stroke"/>
   <path transform="matrix(.93233 -.36161 .35764 .93386 0 0)" d="m-66.569 262.79a3.8151 2.1365 0 0 1-3.812 2.1365 3.8151 2.1365 0 0 1-3.8182-2.133 3.8151 2.1365 0 0 1 3.8059-2.1399 3.8151 2.1365 0 0 1 3.8243 2.1296" fill="url(#radialGradient1140)" opacity=".163" style="paint-order:fill markers stroke"/>
   <path transform="rotate(-22.414)" d="m-80.473 259.31a4.9097 3.1215 0 0 1-4.9057 3.1215 4.9097 3.1215 0 0 1-4.9136-3.1164 4.9097 3.1215 0 0 1 4.8978-3.1265 4.9097 3.1215 0 0 1 4.9215 3.1114" fill="url(#linearGradient1626)" opacity=".134" style="paint-order:fill markers stroke"/>
   <path transform="matrix(.99264 .12108 -.18979 .98182 0 0)" d="m81.773 277.68a1.7999 3.6456 0 0 1-1.7985 3.6456 1.7999 3.6456 0 0 1-1.8014-3.6398 1.7999 3.6456 0 0 1 1.7956-3.6515 1.7999 3.6456 0 0 1 1.8043 3.6338" fill="url(#radialGradient1618)" opacity=".101" style="paint-order:fill markers stroke"/>
  </g>
 </g>
</svg>
