<?xml version="1.0" encoding="UTF-8"?>
<!-- Created with Inkscape (http://www.inkscape.org/) -->
<svg width="64" height="64" version="1.1" viewBox="0 0 16.933 16.933" xmlns="http://www.w3.org/2000/svg" xmlns:cc="http://creativecommons.org/ns#" xmlns:dc="http://purl.org/dc/elements/1.1/" xmlns:rdf="http://www.w3.org/1999/02/22-rdf-syntax-ns#" xmlns:xlink="http://www.w3.org/1999/xlink">
 <defs>
  <linearGradient id="linearGradient935" x1="-11.03" x2="-6.2756" y1="5.536" y2="5.536" gradientUnits="userSpaceOnUse">
   <stop offset="0"/>
   <stop stop-opacity="0" offset="1"/>
  </linearGradient>
  <linearGradient id="o" x1="-26.201" x2="-26.201" y1="1070.2" y2="1082.6" gradientUnits="userSpaceOnUse">
   <stop stop-color="#5a5a5a" offset="0"/>
   <stop stop-color="#646464" offset="1"/>
  </linearGradient>
  <linearGradient id="n" x1="-9.912" x2="-9.912" y1="1081.4" y2="1139.8" gradientUnits="userSpaceOnUse">
   <stop stop-color="#323232" offset="0"/>
   <stop stop-color="#414141" offset=".5"/>
   <stop stop-color="#323232" offset="1"/>
  </linearGradient>
  <linearGradient id="linearGradient860" x1="-8.4079" x2="-8.4079" y1="7.9953" y2="3.1507" gradientUnits="userSpaceOnUse">
   <stop stop-color="#969696" offset="0"/>
   <stop stop-color="#787878" offset="1"/>
  </linearGradient>
 </defs>
 <metadata>
  <rdf:RDF>
   <cc:Work rdf:about="">
    <dc:format>image/svg+xml</dc:format>
    <dc:type rdf:resource="http://purl.org/dc/dcmitype/StillImage"/>
    <dc:title/>
   </cc:Work>
  </rdf:RDF>
 </metadata>
 <g fill="#5e4aa6" stroke-width=".26458">
  <circle cx="-302.94" cy="-325.41" r="0"/>
  <circle cx="-302.94" cy="-325.41" r="0"/>
  <circle cx="-336.39" cy="-326.63" r="0"/>
 </g>
 <g transform="matrix(.081528 0 0 .081528 .27372 .16391)" color="#282828">
  <path transform="matrix(2.2139,0,0,2.2139,109.5,-2344.9)" d="m-44.762 1070.2h22.131c3.287 0 4.652 7.071 7.728 7.071h51.522a3.276 3.276 0 0 1 3.283 3.283v50.508c0 1.819-1.464-2.02-3.283-2.02h-81.38a3.276 3.276 0 0 1-3.283-3.283v-52.275a3.276 3.276 0 0 1 3.283-3.283z" fill="url(#o)"/>
  <path transform="matrix(2.2139,0,0,2.2139,109.5,-2344.9)" d="m-44.762 1081.3h81.38a3.276 3.276 0 0 1 3.283 3.283v52.275a3.276 3.276 0 0 1-3.283 3.283h-81.38a3.276 3.276 0 0 1-3.283-3.283v-52.275a3.276 3.276 0 0 1 3.283-3.283z" fill="url(#n)"/>
  <path d="m3.16 165.84v2.214h194.68v-2.214h-194.69zm0 4.87v1.176c0 0.359 0.019 0.694 0.068 1.038h194.55c0.05-0.344 0.069-0.679 0.069-1.038v-1.176h-194.69z" fill="#282828" style="text-indent:0;text-transform:none"/>
  <path transform="matrix(2.2139,0,0,2.2139,109.5,-2344.9)" d="m-47.75 1138.2a3.28 3.28 0 0 0 3 1.938h81.375c1.34 0 2.488-0.793 3-1.938z" fill="#282828" style="text-indent:0;text-transform:none"/>
 </g>
 <g transform="matrix(1.3143 0 0 1.3143 19.839 2.3189)" fill="url(#linearGradient935)">
  <path d="m-7.2232 3.1477a0.76495 0.76495 0 0 0-0.76512 0.76476 0.76495 0.76495 0 0 0 0.037387 0.23338l-1.5662 0.90414a0.76495 0.76495 0 0 0-0.56549-0.25117 0.76495 0.76495 0 0 0-0.76476 0.76476 0.76495 0.76495 0 0 0 0.76476 0.76512 0.76495 0.76495 0 0 0 0.56585-0.25153l1.5651 0.90377a0.76495 0.76495 0 0 0-0.036658 0.23338 0.76495 0.76495 0 0 0 0.76512 0.76476 0.76495 0.76495 0 0 0 0.76476-0.76476 0.76495 0.76495 0 0 0-0.76476-0.76512 0.76495 0.76495 0 0 0-0.56549 0.25117l-1.5655-0.90377a0.76495 0.76495 0 0 0 0.036658-0.23302 0.76495 0.76495 0 0 0-0.037387-0.23266l1.5666-0.90414a0.76495 0.76495 0 0 0 0.56513 0.25081 0.76495 0.76495 0 0 0 0.76476-0.76512 0.76495 0.76495 0 0 0-0.76476-0.76476z" fill="url(#linearGradient860)" stroke-width=".011324"/>
 </g>
</svg>
