<?xml version="1.0" encoding="UTF-8"?>
<!-- Created with Inkscape (http://www.inkscape.org/) -->
<svg width="64" height="64" version="1.1" viewBox="0 0 16.933 16.933" xmlns="http://www.w3.org/2000/svg" xmlns:cc="http://creativecommons.org/ns#" xmlns:dc="http://purl.org/dc/elements/1.1/" xmlns:rdf="http://www.w3.org/1999/02/22-rdf-syntax-ns#">
 <defs>
  <linearGradient id="j" x1="20.912" x2="431.5" y1="137.4" y2="418.87" gradientTransform="matrix(.029162 0 0 .029162 .90446 2.4092)" gradientUnits="userSpaceOnUse">
   <stop stop-color="#198cff" offset="0"/>
   <stop stop-color="#1964ff" offset="1"/>
  </linearGradient>
  <linearGradient id="d" x1="82.992" x2="466.53" y1="25.57" y2="423.03" gradientTransform="matrix(.029162 0 0 .029162 .90446 2.4092)" gradientUnits="userSpaceOnUse">
   <stop stop-color="#198cff" offset="0"/>
   <stop stop-color="#1964ff" offset="1"/>
  </linearGradient>
  <linearGradient id="a" x1="284.08" x2="284.08" y1="35.201" y2="59.891" gradientTransform="matrix(.029162 0 0 .029162 .90446 2.4092)" gradientUnits="userSpaceOnUse">
   <stop stop-color="#198cff" offset="0"/>
   <stop stop-color="#1964ff" offset="1"/>
  </linearGradient>
 </defs>
 <metadata>
  <rdf:RDF>
   <cc:Work rdf:about="">
    <dc:format>image/svg+xml</dc:format>
    <dc:type rdf:resource="http://purl.org/dc/dcmitype/StillImage"/>
    <dc:title/>
   </cc:Work>
  </rdf:RDF>
 </metadata>
 <g stroke-width=".029162">
  <path d="m12.427 4.1041v0.91256h-6.4776v-1.6007c0-0.54781 0.44426-0.99219 0.99219-0.99219h2.2824c0.3643 0 0.69897 0.19946 0.87235 0.51956l0.31235 0.57617c0.19536 0.36031 0.57219 0.5846 0.98171 0.5846z" fill="url(#a)"/>
  <path d="m7.6808 4.6291-1.6363-1.6363c-0.060609 0.12838-0.094661 0.2718-0.094661 0.42319v1.6007h2.1184z" opacity=".25"/>
  <path d="m6.3274 3.5195-0.31224-0.57617c-0.17349-0.3201-0.50828-0.51956-0.87235-0.51956h-2.2826c-0.54792 0-0.99218 0.44426-0.99218 0.99219v10.526c0 0.54792 0.44426 0.99207 0.99218 0.99207h11.983c0.54792 0 0.99207-0.44415 0.99207-0.99207v-8.8455c0-0.54792-0.44415-0.99207-0.99207-0.99207h-7.534c-0.40974 0-0.78657-0.22441-0.98182-0.58472z" fill="url(#d)"/>
  <path d="m2.8602 14.934h11.983c0.54792 0 0.99207-0.44415 0.99207-0.99207v-7.4585l-1.4014-1.4014-4.3329-0.031784c-0.16905 0.3119-0.4953 0.50623-0.85013 0.50623h-6.5237c-0.47445 0-0.85913 0.38468-0.85913 0.85914v7.5263c0 0.54792 0.44426 0.99207 0.99218 0.99207z" fill-opacity=".39216" opacity=".25"/>
  <path d="m14.737 5.6045v8.7417c0 0.26143-0.17053 0.48299-0.40667 0.55932-0.05719 0.01846-0.1179 0.02848-0.18112 0.02848h-11.303c-0.32454 0-0.58779-0.26314-0.58779-0.58779v-8.7417c0-0.32465 0.26325-0.58779 0.58779-0.58779h11.303c0.32454 0 0.58779 0.26314 0.58779 0.58779z" fill="#f0f0f0"/>
  <path d="m14.843 14.934h-12.116c-0.47468 0-0.85914-0.3848-0.85914-0.85914l-0.95733-7.4629c-0.058784-0.45793 0.298-0.86346 0.75969-0.86346h10.55c0.38526 0 0.71059 0.28615 0.75969 0.66833l0.98216 7.6362c0 0.48664 0.39437 0.88101 0.88078 0.88101z" fill="url(#j)"/>
 </g>
 <circle cx="-302.94" cy="-325.41" r="0" fill="#5e4aa6" stroke-width=".26458"/>
 <path d="m7.2091 8.4817c-0.072967 0-0.14582 0.00591-0.2162 0.013266a2.1668 1.9716 43.648 0 0-0.40128 0.07909 2.2209 2.0209 43.648 0 0-1.2592 1.3905 2.1668 1.9716 43.648 0 0-0.040496 0.40874 2.2177 2.0179 43.648 0 0 0.00724 0.21744c0.00689 0.07297 0.019731 0.14637 0.033822 0.21745a2.1668 1.9716 43.648 0 0 0.11768 0.40874 2.2209 2.0209 43.648 0 0 1.5218 1.3905 2.1668 1.9716 43.648 0 0 0.41624 0.07931c0.071758 0.0073 0.1457 0.01308 0.21869 0.01308 0.072983 0 0.14581-6e-3 0.2162-0.01327a2.1668 1.9716 43.648 0 0 0.40129-0.07888 2.2586 2.0552 43.648 0 0 0.36659-0.16493 2.207 2.0082 43.648 0 0 0.8929-1.2258 2.1668 1.9716 43.648 0 0 0.04028-0.40874c7.077e-4 -0.07107-3.527e-4 -0.14447-0.00724-0.21745-0.00687-0.07276-0.019825-0.14658-0.033821-0.21744a2.1668 1.9716 43.648 0 0-0.11747-0.40876 2.2266 2.026 43.648 0 0-0.45675-0.71833c-0.047963-0.052088-0.099868-0.097224-0.15226-0.14511-0.20844-0.19045-0.44605-0.34821-0.70853-0.45472a2.2911 2.0847 43.648 0 0-0.20446-0.072346 2.1668 1.9716 43.648 0 0-0.41621-0.07909 2.2804 2.075 43.648 0 0-0.2187-0.013266zm0.019914 0.2109c0.3191 0 0.62662 0.078253 0.90378 0.21744 0.00732 0.00391 0.013577 0.00947 0.020848 0.013266 0.00593 0.00703 0.00535 0.014574 0.015141 0.019612 0.00716 0.00391 0.01422 0.00987 0.020848 0.013266 0.011801 0.00671 0.0236 0.01562 0.022282 0.026339-0.00122 0.01582-0.027299 0.014774-0.03696 0.026403 0.00336 0.022093-0.00589 0.01791-0.010187 0.032876 0.00427 0.00967 0.012617 0.00843 0.015165 0.019867-8.444e-4 0.01222-0.016645 0.013657-0.010802 0.026339 0.022168 0.016011 0.040101 0.00263 0.059455 0 0.042285-0.00527 0.078944 6.537e-4 0.10359-0.019803-0.00427-0.016466 0.010635-0.021047 0.016491-0.032876 0.015083 0.00987 0.028127 0.022812 0.042766 0.032876-0.00772 0.00327-0.024885 0.00863-0.031832 0.013266-0.00988 0.00719-0.01221 0.018366-0.023684 0.026339-0.00828 0.00591-0.027867 0.026339-0.037174 0.026339-0.011167 0-0.032498-0.00928-0.0403-0.00678-0.011048 0.00327-0.0047 0.021893-0.017108 0.026339-0.024433 0.00928-0.072558-0.02464-0.077837 0.013266 0.012633 0.021893 0.048005 0.014574 0.068311 0.026339 0.012744 0.00757 0.03435 0.046469 0.038746 0.059279a0.16207 0.14747 43.648 0 1 0.00561 0.059468c-0.00914 0.03059-0.041294 0.026997-0.076818 0.026338-0.0095 0-0.017474 6.537e-4 -0.02618 0-0.059826-0.00394-0.12027-0.022809-0.14325 0.01961 0.00508 0.032673 0.01212 0.050582 0.00747 0.079089-0.00333 0.020652-0.024144 0.034831-0.021392 0.05274 0.00131 0.00925 0.020084 0.026997 0.023539 0.039666 0.00191 0.00681-0.00144 0.020258 0.00249 0.026338 0.011673 0.018827 0.034697-0.00331 0.052743 0 0.017124 0.00267 0.035477 0.027456 0.037222 0.045941a0.12626 0.11488 43.648 0 1-0.00831 0.052736c-0.014485 0.025301-0.046476 0.019211-0.069232 0.033067-0.018985 0.011371-0.023924 0.039275-0.034063 0.059275-0.010656 0.021504-0.021938 0.028693-0.013998 0.059275a0.14925 0.13581 43.648 0 1-0.065704 0.072555 0.21845 0.19877 43.648 0 0-0.031208 0.019861 0.17512 0.15935 43.648 0 0-0.023684 0.026336c-0.012087 0.014773-0.030275 0.021301-0.036557 0.032875-0.00445 0.00885 0.00195 0.027648-0.00288 0.039669-0.00693 0.016012-0.019563 0.029931-0.028747 0.045942-0.0039 0.0078-0.012796 0.01647-0.017103 0.0264-0.010112 0.02236-0.02493 0.03987-0.020756 0.05947 0.00378 0.01883 0.027482 0.023 0.030099 0.03948 0.00214 0.0093-0.00539 0.01647-0.0043 0.02634 0.00202 0.01476 0.00731 0.0215 0.00989 0.03287 0.0054 0.0285-0.010786 0.03987-0.014244 0.05947-0.00186 0.0091 0.0038 0.01903 0.00246 0.02613-0.00327 0.01437-0.02382 0.02281-0.022626 0.03967 6.845e-4 0.01183 0.020687 0.0228 0.02354 0.03967 0.00173 0.01144-0.00675 0.0221-0.00368 0.03288 0.00593 0.02065 0.04794 0.04973 0.065671 0.06582 0.023794 0.0219 0.04647 0.03628 0.058357 0.05947 0.00987 0.01941 0.016203 0.05131 0.032587 0.06582 0.011963 0.01067 0.033261 0.01523 0.048459 0.0264 0.014484 0.01067 0.033524 0.01523 0.048931 0.0264 0.024908 0.0183 0.060043 0.05549 0.097145 0.05274 0.019276-0.0013 0.036458-0.0093 0.057996-0.01326 0.022218-0.0039 0.048093-0.01543 0.071319-0.01308 0.017726 2e-3 0.035494 0.01437 0.053995 0.01327 0.018877-0.0013 0.043123-0.01045 0.063954-0.0198 0.036444-0.01647 0.091881-0.04771 0.1479-0.03967 0.042815 0.0067 0.048124 0.05379 0.079404 0.07255 0.033998 0.0027 0.058225-0.0067 0.085619 0 0.020759 0.0053 0.048391 0.04327 0.051763 0.05927 0.00355 0.01647-0.00819 0.02927-0.00955 0.03967-0.00319 0.0221-0.00443 0.0517-0.00687 0.06582-0.00229 0.01117-0.00486 0.0219-0.00366 0.03307 9.332e-4 0.0099 0.019107 0.03287 0.030909 0.04594 0.014213 0.01621 0.033515 0.02849 0.050323 0.04614 0.031079 0.03229 0.047024 0.07595 0.070668 0.11874 0.00563 0.01067-0.00345 0.01262 0.00247 0.02621-0.00235 0.06451-0.020286 0.10672-0.055737 0.17801-0.017867 0.0232-0.035301 0.05039-0.032193 0.07909 0.00524 0.06896 0.045947 0.10462 0.049339 0.17147 0.00151 0.08963 0.00998 0.10355 0.00751 0.15143 0.03181 0.01542 0.021126 0.06052 0.015503 0.09237-0.0095 0.0379-0.021311 0.04725-0.026298 0.07256a0.088435 0.080469 43.648 0 0 0.046799 0.0067 1.9883 1.8092 43.648 0 1-1.3162 0.58 1.9861 1.8072 43.648 0 1-0.72486-0.13836c-6.706e-4 -4.15e-4 5.5e-6 -0.0067-6.423e-4 -0.0068 0.019265-0.0084 0.059391 0.01477 0.071327-0.01308 0.00591-0.01346-0.013402-0.03927-0.00498-0.05274 0.00591-0.0093 0.050019-0.01751 0.063954-0.0198 0.020146-0.0033 0.041382 6.54e-4 0.05211-0.0067a0.063015 0.057339 43.648 0 0 0.021392-0.05274c-0.00233-0.01117-0.012515-0.01647-0.022089-0.0264-0.00814-0.0084-0.00378-0.01883-0.00927-0.02634-0.010315-0.01347-0.024483-0.02006-0.030116-0.03967 0.027131-0.0053 0.068563 0.03104 0.10733 0.0198 0.018495-0.0053 0.046701-0.0415 0.053858-0.05927 0.00221-0.0053-0.00585-0.0264-0.0031-0.03287 0.00265-0.0075 0.010927-0.0095 0.011829-0.01327 0.00173-0.01035-0.00325-0.01327-0.00185-0.01961 0.00509-0.01961 0.025-0.03209 0.035279-0.0464 0.00764-0.01067 0.016085-0.0217 0.023267-0.03287 0.00791-0.01183 0.011987-0.01582 0.017121-0.0262 0.00268-0.03503-0.027351-0.06176-0.021804-0.09237 0.00576-0.03464 0.053681-0.05693 0.085304-0.07257 0.011127-0.0053 0.021856-0.01621 0.031298-0.01959 0.022215-0.0082 0.05031-0.0053 0.071086-0.01327 0.034835-0.01308 0.043518-0.05274 0.057948-0.08562 0.00699-0.01543 0.015443-0.0285 0.01585-0.03967 0.00106-0.0099-0.00401-0.0213-0.0031-0.03288 9.243e-4 -0.01137 0.00144-0.02026 0.00368-0.03287a0.35155 0.31988 43.648 0 0 3.874e-4 -0.06603c-0.00144-0.01523-0.00842-0.01903-0.00973-0.03288-0.00741-0.04973 0.00965-0.05189 0.025408-0.07908 0.00802-0.01346 0.00985-0.03647 0.015502-0.04614 0.026687-0.04594 0.076418-0.06854 0.066026-0.13835-0.00347-0.0232-0.016274-0.07171-0.03384-0.0791-0.010069-0.0039-0.032206-0.0013-0.046799-0.0067-0.04696-0.01686-0.084529-0.06876-0.13212-0.07254-0.00994-4.14e-4 -0.015171 4.33e-4 -0.026371 0-0.018373-4.14e-4 -0.040245-0.01751-0.061125-0.0198-0.013202-0.0013-0.038029 0.0039-0.046166 0-0.012322-0.0053-0.012585-0.02634-0.022699-0.03288-0.00832-0.0053-0.021889-0.0089-0.034336-0.01326a0.16472 0.14988 43.648 0 0-0.053976-0.01308c-0.00683-4.31e-4 -0.025182 0.0013-0.032877 0-0.012011-2e-3 -0.023133-0.01287-0.034754-0.0198-0.014737-0.0084-0.022014-0.01437-0.028859-0.02634 0.00871-0.0413-0.035786-0.0483-0.046492-0.07235-0.00503-0.01117 0.00121-0.02954-0.00374-0.03967-0.00597-0.01419-0.01906-0.02105-0.03598-0.03287-0.02947-0.0215-0.056624-0.04111-0.096736-0.04614-0.017726-2e-3 -0.03788 0.0013-0.059056 0a0.10767 0.097973 43.648 0 1-0.069142-0.03294c-0.018006-0.01902-0.022521-0.03732-0.037441-0.04614-0.014082-0.0084-0.037967-0.01098-0.047842-0.01986-0.00436-0.0039-0.00375-0.01098-0.00863-0.01961-0.0081-0.01392-0.023056-0.01627-0.016204-0.03307-0.016126-0.0076-0.00898 0.0097-0.025729 0.0068-0.01673-0.02105-0.028614-0.03287-0.061754-0.02653-0.015102 0.0033-0.025836 0.02613-0.043661 0.02653-0.014702 4.32e-4 -0.028825-0.02386-0.048672-0.02653-0.014932-2e-3 -0.034394 0.01563-0.044715 0.01327-0.016924-0.0027-0.020305-0.023-0.036188-0.03288-0.011662-0.0075-0.035877-0.02679-0.04194-0.02634-0.019155 4.32e-4 -0.029051 0.04053-0.056968 0.02634-0.014447-0.01647 0.020453-0.01771 0.00366-0.03307-0.012703-0.01137-0.017214 6.21e-4 -0.025729 0.0068-0.010091 0.0073-0.019644 0.01563-0.031296 0.01961-0.025418 0.01013-0.044251 0.0091-0.063948 0.01986-0.018044 0.01013-0.019411 0.02654-0.028519 0.04614-0.00733 0.01601-0.022507 0.03883-0.035916 0.03967-0.015891 0.0013-0.033529-0.02026-0.048478-0.0266-0.046102-0.01903-0.067963 0.01287-0.1042 0.01327-0.033707 4.15e-4 -0.085861-0.05379-0.087175-0.08562-5.753e-4 -0.0196 0.00619-0.0485 0.00623-0.07257 2.028e-4 -0.01902 0.016087-0.03503 0.014816-0.05274-0.00176-0.0232-0.041634-0.04346-0.057099-0.04614-0.036701-0.0067-0.082829 0.01628-0.12528 0-0.00881-0.01308 0.013292-0.02026 0.016689-0.03287 0.00201-0.0075-0.00383-0.01183-0.00187-0.0198 0.00348-0.01222 0.018581-0.01986 0.023266-0.03287 0.00305-0.0099-5.941e-4 -0.02746 0.00288-0.03967 0.00399-0.01365 0.01638-0.0228 0.016755-0.03287 4.1e-5 -0.01308-0.012433-0.03105-0.023586-0.03948a0.21535 0.19595 43.648 0 0-0.071319 0.01308c-0.039525 0.01902-0.023683 0.07277-0.064233 0.08583-0.01391 0.0046-0.035737 0.01067-0.051508 0.01308a1.9701 1.7926 43.648 0 1 0.087783-0.39542c0.014993 0.00267 0.028106 0.012032 0.040912 0.013259 0.035458 0.00267 0.034378-0.024245 0.062079-0.039669 0.030326 0.00395 0.045117-0.00267 0.072554 0 0.018524 0.00203 0.047093 0.025301 0.061743 0.026336 0.01226 4.245e-4 0.013305-0.015232 0.025119-0.013269 0.01182 0.00203 0.033474 0.025941 0.03683 0.039669 0.00363 0.017259-0.00845 0.033728-0.00179 0.052736 0.019869 0.018368 0.056069 0.028885 0.082835 0.039669 0.015565-0.013856-0.00162-0.045952-0.00624-0.066037-0.00126-0.00885-4.588e-4 -0.018368-0.00249-0.026336-0.00329-0.013664-0.00924-0.027648-0.010368-0.039669-0.00517-0.054837 0.034894-0.077195 0.069777-0.09872 0.014938-0.00928 0.029818-0.026133 0.043043-0.033067 0.018502-0.00949 0.028951-0.010667 0.044116-0.019595 0.027738-0.016469 0.053324-0.03392 0.07411-0.052736 0.00821-0.024907-0.00643-0.054635-0.00747-0.079089 0.00994-0.0067 0.015533 0.00128 0.026371 0 0.017364-0.00394 0.02039-0.029537 0.029339-0.039666 0.00542-0.00595 0.02527-0.00745 0.031642-0.013073 0.016427-0.01386 0.014568-0.033534 0.029139-0.039667 0.00508-0.00202 0.017564-0.00394 0.025739-0.0067 0.011317-0.0033 0.026579-0.013265 0.04429-0.019866 0.01145-0.00394 0.041394-0.00202 0.045534-0.0067 0.00542-0.00595-0.00418-0.030781-0.00374-0.039666 0.00495-0.043269 0.068972-0.044705 0.10641-0.059075 0.025767-0.010624 0.052614-0.03229 0.083115-0.026604-0.00404 0.020652-0.02983 0.014764-0.022625 0.039666 0.00991 0.034831 0.046236-0.00839 0.058204-0.013265 0.022245-0.00989 0.066685-0.015231 0.096222-0.026338 0.026077-0.00946 0.068828-0.028293 0.04057-0.05928-0.02124-0.00128-0.025856 0.01882-0.043679 0.026339-0.01243 0.00199-0.016162-0.00591-0.027005-0.00671-0.010411-4.311e-4 -0.015206 0.00843-0.025738 0.00671-0.010549-0.00199-0.02666-0.020649-0.029476-0.032876-0.00704-0.032286 0.029104-0.04215 0.039932-0.066032-0.011579-0.029085-0.04808-0.00199-0.073796-0.013074 0.00109-0.017256 0.00922-0.036078 0.029339-0.039669a0.13665 0.12434 43.648 0 1 0.067077 0.013266c0.00641 0.00454-2.828e-4 0.018166 0.00912 0.026403 0.010931 0.00882 0.02676 0.00199 0.03966 0 0.00256-0.021894-0.031309-0.01222-0.028865-0.026403 0.024381-0.016865 0.072749-0.00909 0.1042-0.013266 0.018085-0.00263 0.034615-0.017511 0.050255-0.026339 0.01438-0.00882 0.02797-0.021113 0.045333-0.00671 0.00613 0.01582-0.00861 0.024904-0.016491 0.032876-0.02709 0.026204-0.050895 0.055489-0.070984 0.085842 0.01544 0.013656 0.035776 0.00391 0.059882 0.00671 0.00942 0.00128 0.023676 0.00527 0.033524 0.00678 0.011819 0.00199 0.02366-0.00199 0.033085 0 0.01638 0.00391 0.01936 0.026339 0.035364 0.026339 0.025972 0 0.025964-0.021894 0.00933-0.039669 0.00294-0.01791 0.010144-0.033332 0.00244-0.045943-0.01428-0.023857-0.056556 0.00391-0.061942-0.026339-0.00309-0.019212 0.017226-0.025094 0.022625-0.039669-0.00618-0.036731 0.026471-0.039014 0.01954-0.072346-0.00331-0.013856-0.018144-0.013464-0.028859-0.026339-0.00529-0.00703-0.00938-0.021503-0.015569-0.026339-0.02165-0.016866-0.058263-0.014183-0.063843-0.046469-0.00307-0.019021-2.952e-4 -0.031831-0.00498-0.052742-0.00453-0.019411-0.029678-0.075084-0.0469-0.078876-0.021948-0.00454-0.030526 0.034113-0.054918 0.045943a0.109 0.099184 43.648 0 1-0.052103 0.00678c-0.00949-0.00199-0.026135-0.00882-0.028865-0.026403-0.00222-0.010069 7.086e-4 -0.013657 0.00475-0.019803 0.00116-0.00128-0.00177-0.00527-6.333e-4 -0.00671a2.0054 1.8248 43.648 0 1 0.52041-0.07254zm-0.76821 0.17147c-0.012874 0.059935-0.063879 0.094064-0.13619 0.092164-0.016143 0.016866-0.00572 0.049151-0.013009 0.072553a0.061024 0.055528 43.648 0 1-0.049637 0.032876c-0.014271-0.00128-0.041511-0.019612-0.042765-0.032876-0.00104-0.010982 0.00835-0.023394 0.010176-0.033069a1.9731 1.7954 43.648 0 1 0.23136-0.13181zm1.6211 0.065824a0.060582 0.055126 43.648 0 0-0.019161 0.00671c-0.013908 0.00882-0.013326 0.022093-0.023884 0.026339-0.015253 0.00591-0.036772 0.00591-0.037785 0.019867-8.813e-4 0.011828 0.015164 0.01562 0.015776 0.026339-0.00464 0.014183-0.015398 0.01562-0.016689 0.032876 0.022601 0.031831 0.068163 4.261e-4 0.091746-0.00671 0.010261-0.00327 0.020645 0.00199 0.025538-0.00671 0.00562-0.010592-0.00171-0.031631 0.00242-0.046142 0.00377-0.016012 0.020572-0.01222 0.017108-0.026339-0.00261-0.014183-0.031602-0.028693-0.05523-0.026339zm-2.0665 0.24381c0.015743 0.016866 0.029916 0.041761 0.00498 0.052742-0.0038 0.00199-0.049153 0.00843-0.058608 0.00678-0.00275-4.182e-4 -0.00442-0.00454-0.00726-0.00678 0.018216-0.019602 0.041702-0.033922 0.060845-0.052742zm0.058977 0.066032c0.00934 4.263e-4 0.0174 0.019022 0.028223 0.019604 0.010674 0.00128 0.025978-0.00839 0.032515-0.0067 0.016382 0.00394 0.025138 0.034108 0.010959 0.045938-0.012498 0.00128-0.018311-0.015231-0.027423-0.013265-0.025741 0.00457-0.028213 0.054377-0.047763 0.05274-0.018724-0.00202-0.035794-0.039274-0.018269-0.05274-6.555e-4 -0.011373-0.00874-0.014774-0.00912-0.026402 0.00523-0.00723 0.015503-0.020847 0.031025-0.019603zm-0.084384 0.013074c0.00527 0 0.00445-0.00202 0.00662 0-7.784e-4 0.020461-0.00835 0.023394-0.023249 0.033067a0.1132 0.10301 43.648 0 0-0.045913 0.072339c-0.00171 0.010624-0.029104 0.042153-0.042221 0.039667-0.030987-0.0067 0.0066-0.06373 0.012745-0.072553 0.00691-0.00967 0.01606-0.015624 0.023884-0.026338 0.00783-0.010624 0.00827-0.033332 0.016112-0.039666 0.00867-0.0067 0.035985-0.00723 0.05211-0.0067zm2.6019 0.05274c0.029965-0.00202 0.04862 0.034437 0.064036 0.05274 0.013041 0.014965 0.050615 0.035883 0.070389 0.04614 0.011329 0.00595 0.022477 0.014381 0.035024 0.019866 0.012929 0.00531 0.032407 0.012617 0.048453 0.026338 0.016014 0.013467 0.029157 0.033725 0.030709 0.045938 0.0016 0.012415-0.00641 0.021502-0.0035 0.033067 0.013479 0.00202 0.019184-0.011373 0.023878-0.026402 0.05645 0.070873 0.10581 0.14659 0.15297 0.22399a0.026089 0.02374 43.648 0 0-0.011413 0.019861c-0.00195 0.021504 0.01724 0.04896-0.014615 0.052736-0.020207 0.00267-0.046419-0.020256-0.075048-0.026336-0.011609-0.00267-0.030102 0.00267-0.039661 0-0.021748-0.00736-0.017908-0.033536-0.037242-0.046144a0.15477 0.14083 43.648 0 0-0.054593-0.019595c-0.010485-0.00128-0.015484 0.00128-0.026371 0-0.013273-0.00203-0.035407 0-0.046608-0.00683-0.011198-0.00672-0.038585-0.017515-0.042148-0.026336-0.00532-0.014187 0.029064-0.034123 0.028546-0.045952-2.195e-4 -0.00928-0.01235-0.012619-0.015595-0.026603-0.00207-0.00843 3.02e-5 -0.020843-0.00246-0.026133-0.00367-0.010133-0.019104-0.019413-0.034954-0.019797-0.013689 0-0.02681 0.00672-0.03882 0.00672-0.016834 4.181e-4 -0.052274-0.00843-0.073186-0.00672-0.012498 0.00128-0.020494 0.00597-0.032252 0.00672-0.033096 0.00267-0.053133-0.00203-0.079099 0-0.018876 0.00128-0.053685 0.011829-0.070684 0.019797-0.00846 0.00395-0.013427 0.01392-0.02452 0.019595-0.00501 0.00267-0.012307 0.00331-0.018954 0.00683-0.010336 0.00459-0.027699 0.016864-0.037809 0.019605-0.014371 0.00395-0.032206-0.00128-0.059248 0-0.019475 0.00128-0.052531-0.00267-0.055211-0.026133-0.00381-0.035872 0.063258-0.020256 0.096206-0.026603 0.012368-0.00267 0.016082-0.017504 0.030617-0.026133 0.00682-0.00395 0.011805-0.00864 0.018343-0.013265 0.010866-0.00807 0.028971-0.023861 0.029981-0.032875 4.826e-4 -0.00839-0.00965-0.020258-0.00927-0.026338 5.128e-4 -0.00807 0.014493-0.016007 0.024084-0.026338 0.014467-0.016273 0.022785-0.035872 0.041609-0.04614 0.012788-0.00734 0.039206-0.00903 0.044296-0.019801 1.213e-4 -0.012223-0.00187-0.015231-0.00249-0.026338 0.00772-0.00754 0.00489-0.011638 0.012055-0.013073 0.020225-0.00457 0.042317 0.00775 0.066458 0.0067 0.010517-4.178e-4 0.02198 6.537e-4 0.032252-0.0067 0.00867-0.0067 0.015834-0.015231 0.024501-0.019802 0.00961-0.00521 0.018861-0.019014 0.031209-0.019866zm-2.4173 0.019866c0.00521-6.537e-4 0.013748 6.345e-4 0.020066 0 0.0086-4.252e-4 0.016874 0 0.026371 0 0.0095 0 0.02201-0.00394 0.026371 0-0.00423 0.025296-0.064331 0.015815-0.08521 0.0067 1.997e-4 -0.00457 0.00767-0.00595 0.012657-0.0067zm-0.067981 0.04614c0.00662 0 0.01264-0.00266 0.019858 0-0.01634 0.014774-0.039793 0.023202-0.069456 0.032875-0.01431 0.00457-0.036038 0.00946-0.040292-0.0067-0.0046-0.020067 0.011791-0.017909 0.024501-0.019802 0.016683-0.00202 0.045805-0.0067 0.0654-0.0067zm2.498 0c-0.012247 0.00394-0.016207 0.029537 0.0031 0.032875 0.00833-0.00531 0.00724-0.016868 0.00352-0.032875-0.00577-0.00531-0.00283-0.00128-0.00662 0zm-0.00179 0.05274c-0.00579 0.00202-0.013122-4.241e-4 -0.018963 0.0067 0.00246 0.021502 0.00718 0.033725 0.00498 0.05274 0.014473 0.023851 0.040952 0.00946 0.045342-0.0067 0.00364-0.04006-0.013279-0.057778-0.031152-0.05274zm0.17489 0.10546a0.059477 0.05412 43.648 0 0-0.038428 0.013074c0.016534 0.0232 0.043314 0.027456 0.075675 0.033067 0.010624-0.00843 0.00483-0.031627 0.00891-0.046405-0.013881 0-0.022659 0.00128-0.039662 0h-0.00662zm-3.2717 0.81046c0.01511 0.01726 0.031555 0.03731 0.050354 0.04646 0.010133 0.0046 0.021235 0.0039 0.033716 0.0067 0.010091 2e-3 0.017856 0.01045 0.027623 0.01327 0.020919 7e-3 0.05032 6e-3 0.067076 0.01327 0.02565 0.01067 0.043247 0.05352 0.065671 0.06582 0.00243 0.01222-0.00173 0.02386 0.0031 0.03287 0.011167 0.01346 0.031603 0.01745 0.048453 0.02634 0.020613 0.01077 0.031392 0.03771 0.050523 0.04614 0.00688 0.0027 0.016223-0.0027 0.026371 0 0.026014 0.0076 0.035164 0.04594 0.056487 0.03967 0.01378-0.0039 0.015022-0.02594 0.016048-0.03967 0.0085-0.01067 0.015448-0.02634 0.030388-0.02634 0.02381-4.16e-4 0.033615 0.02954 0.04464 0.05274 0.00587 0.01308 0.018701 0.02569 0.023341 0.03967a0.36261 0.32995 43.648 0 1 0.00996 0.10545c-0.00426 0.01752-0.029093 0.02679-0.041628 0.04595-0.00607 0.0093-0.012638 0.02026-0.017308 0.02634-0.0082 0.01164-0.017884 0.01601-0.023884 0.02634-0.00342 6e-3 -0.00161 0.01837-0.0043 0.02634-0.00902 0.0247-0.025227 0.04307-0.012745 0.07255 0.0051 0.01183 0.021984 0.0253 0.023341 0.03967 0.00159 0.01685-0.034679 0.02104-0.035726 0.03948-7.267e-4 0.01346 0.019504 0.0413 0.025455 0.05927 0.00399 0.01346 0.0272 0.02425 0.036004 0.03313 0.014876 0.01477 0.030599 0.03353 0.04464 0.05274 0.027554 0.03713 0.043172 0.08224 0.070247 0.11854 0.014415 0.01903 0.041087 0.03267 0.051417 0.05274 0.00492 0.0099-0.00113 0.03032 0.00374 0.03967 0.01662 0.03105 0.086792 0.06373 0.11922 0.07889 0.015444 0.0075 0.027525 0.01222 0.04153 0.0198 0.021563 0.01163 0.06553 0.03483 0.077541 0.05274 0.010831 0.01621 0.020249 0.05333 0.027263 0.0791 0.00917 0.03373 0.00461 0.06241 0.00934 0.09891 0.00315 0.0198 0.00971 0.03267 0.011601 0.05274 6.522e-4 0.0069 0.00225 0.0194 0.00249 0.02634 0.00183 0.02386 0.00658 0.0485 0.00686 0.07255a0.28788 0.26195 43.648 0 0 0.00373 0.03948c0.00241 0.01203 0.013939 0.01601 0.015776 0.02634 0.00171 0.01117-0.012261 0.02424-0.010165 0.03313 0.00498 0.02405 0.032418 0.04366 0.039092 0.06583 0.00565 0.01771 0.014306 0.05797 0.014248 0.07909-9.435e-4 0.01117-0.00268 0.02745-0.00304 0.03967-3.822e-4 0.0095 0.00293 0.01751 0.00246 0.02613-0.55724-0.33746-0.96369-0.92372-1.0271-1.595-0.00812-0.08605-0.00718-0.16746-0.00387-0.25056zm0.74293 0.1913c0.017741-0.0084 0.01722 0.02404 0.00249 0.02634-0.013961 2e-3 -0.015565-0.01986-0.00249-0.02634z" color="#000000" opacity=".15" stroke-width=".21091"/>
</svg>
