<?xml version="1.0" encoding="UTF-8"?>
<!-- Created with Inkscape (http://www.inkscape.org/) -->
<svg width="64" height="64" version="1.1" viewBox="0 0 16.933 16.933" xmlns="http://www.w3.org/2000/svg" xmlns:cc="http://creativecommons.org/ns#" xmlns:dc="http://purl.org/dc/elements/1.1/" xmlns:rdf="http://www.w3.org/1999/02/22-rdf-syntax-ns#">
 <defs>
  <linearGradient id="j" x1="20.912" x2="431.5" y1="137.4" y2="418.87" gradientTransform="matrix(.029162 0 0 .029162 .90446 2.4092)" gradientUnits="userSpaceOnUse">
   <stop stop-color="#ffd250" offset="0"/>
   <stop stop-color="#ffb94b" offset="1"/>
  </linearGradient>
  <linearGradient id="d" x1="82.992" x2="466.53" y1="25.57" y2="423.03" gradientTransform="matrix(.029162 0 0 .029162 .90446 2.4092)" gradientUnits="userSpaceOnUse">
   <stop stop-color="#ffd250" offset="0"/>
   <stop stop-color="#ffb94b" offset="1"/>
  </linearGradient>
  <linearGradient id="a" x1="284.08" x2="284.08" y1="35.201" y2="59.891" gradientTransform="matrix(.029162 0 0 .029162 .90446 2.4092)" gradientUnits="userSpaceOnUse">
   <stop stop-color="#ffb94b" offset="0"/>
   <stop stop-color="#e6911e" offset="1"/>
  </linearGradient>
 </defs>
 <metadata>
  <rdf:RDF>
   <cc:Work rdf:about="">
    <dc:format>image/svg+xml</dc:format>
    <dc:type rdf:resource="http://purl.org/dc/dcmitype/StillImage"/>
    <dc:title/>
   </cc:Work>
  </rdf:RDF>
 </metadata>
 <g stroke-width=".029162">
  <path d="m12.427 4.1041v0.91256h-6.4776v-1.6007c0-0.54781 0.44426-0.99219 0.99219-0.99219h2.2824c0.3643 0 0.69897 0.19946 0.87235 0.51956l0.31235 0.57617c0.19536 0.36031 0.57219 0.5846 0.98171 0.5846z" fill="url(#a)"/>
  <path d="m7.6808 4.6291-1.6363-1.6363c-0.060609 0.12838-0.094661 0.2718-0.094661 0.42319v1.6007h2.1184z" opacity=".25"/>
  <path d="m6.3274 3.5195-0.31224-0.57617c-0.17349-0.3201-0.50828-0.51956-0.87235-0.51956h-2.2826c-0.54792 0-0.99218 0.44426-0.99218 0.99219v10.526c0 0.54792 0.44426 0.99207 0.99218 0.99207h11.983c0.54792 0 0.99207-0.44415 0.99207-0.99207v-8.8455c0-0.54792-0.44415-0.99207-0.99207-0.99207h-7.534c-0.40974 0-0.78657-0.22441-0.98182-0.58472z" fill="url(#d)"/>
  <path d="m2.8602 14.934h11.983c0.54792 0 0.99207-0.44415 0.99207-0.99207v-7.4585l-1.4014-1.4014-4.3329-0.031784c-0.16905 0.3119-0.4953 0.50623-0.85013 0.50623h-6.5237c-0.47445 0-0.85913 0.38468-0.85913 0.85914v7.5263c0 0.54792 0.44426 0.99207 0.99218 0.99207z" fill-opacity=".39216" opacity=".25"/>
  <path d="m14.737 5.6045v8.7417c0 0.26143-0.17053 0.48299-0.40667 0.55932-0.05719 0.01846-0.1179 0.02848-0.18112 0.02848h-11.303c-0.32454 0-0.58779-0.26314-0.58779-0.58779v-8.7417c0-0.32465 0.26325-0.58779 0.58779-0.58779h11.303c0.32454 0 0.58779 0.26314 0.58779 0.58779z" fill="#f0f0f0"/>
  <path d="m14.843 14.934h-12.116c-0.47468 0-0.85914-0.3848-0.85914-0.85914l-0.95733-7.4629c-0.058784-0.45793 0.298-0.86346 0.75969-0.86346h10.55c0.38526 0 0.71059 0.28615 0.75969 0.66833l0.98216 7.6362c0 0.48664 0.39437 0.88101 0.88078 0.88101z" fill="url(#j)"/>
 </g>
 <circle cx="-302.94" cy="-325.41" r="0" fill="#5e4aa6" stroke-width=".26458"/>
 <path class="ColorScheme-Text" d="m7.0388 9.0766c-0.02472 0-0.047707 0.00918-0.067866 0.022946l-0.11275 0.072752a0.18635 0.15432 42.303 0 0-0.017063 0.23217l1.4593 1.9162 0.35071-0.27079-1.438-1.8867c-0.038928-0.051027-0.094628-0.082738-0.14953-0.086475-0.00833-0.00102-0.016602 0-0.024814 0zm-0.26497 0.65313c-0.053021 0.00576-0.099862 0.033301-0.11963 0.084235l-0.074533 0.19113 0.46377 0.24346 0.074533-0.19113a0.18635 0.15432 42.303 0 0-0.10483-0.23208l-0.13789-0.072747a0.18655 0.15449 42.303 0 0-0.10146-0.02304zm-0.24057 0.40054-0.63356 1.6546 0.46325 0.24122 0.63408-1.6523zm-1.2417 0.74194 0.091971 0.48701h0.56004l0.18574-0.48692zm1.6348 0-0.18581 0.48701h1.4701l-0.37207-0.48692zm1.7093 0 0.37199 0.48701h0.51714l-0.091953-0.48692zm0.11136 0.30269-0.3508 0.27079 0.26721 0.35054 0.3508-0.27079zm0.36357 0.47796-0.35089 0.27079c0.10346 0.48412 0.45894 0.42386 0.65648 0.72598 0.21323-0.28702 0.049013-0.72832-0.3057-0.99686zm-3.2596 0.25717-0.069884 0.78969 0.53356-0.54624z" opacity=".15" stroke-width=".093278"/>
</svg>
