<?xml version="1.0" encoding="UTF-8"?>
<!-- Created with Inkscape (http://www.inkscape.org/) -->
<svg width="64" height="64" version="1.1" viewBox="0 0 16.933 16.933" xmlns="http://www.w3.org/2000/svg" xmlns:cc="http://creativecommons.org/ns#" xmlns:dc="http://purl.org/dc/elements/1.1/" xmlns:rdf="http://www.w3.org/1999/02/22-rdf-syntax-ns#" xmlns:xlink="http://www.w3.org/1999/xlink">
 <defs>
  <linearGradient id="f" x1="-26.201" x2="-26.201" y1="1070.2" y2="1082.6" gradientUnits="userSpaceOnUse">
   <stop stop-color="#37c3ff" offset="0"/>
   <stop stop-color="#78dcff" offset="1"/>
  </linearGradient>
  <linearGradient id="g" x1="-9.912" x2="-9.912" y1="1081.4" y2="1139.8" gradientUnits="userSpaceOnUse">
   <stop stop-color="#2db9f5" offset="0"/>
   <stop stop-color="#37c3ff" offset=".5"/>
   <stop stop-color="#28a5f0" offset="1"/>
  </linearGradient>
  <linearGradient id="h" x1="-9.617" x2="-9.617" y1="1138.4" y2="1140.2" gradientUnits="userSpaceOnUse">
   <stop stop-color="#1e9be6" offset="0"/>
   <stop stop-color="#0e95c5" offset="1"/>
  </linearGradient>
  <linearGradient id="i" x1="102.36" x2="102.36" y1="921.52" y2="998.95" gradientTransform="translate(-.195 5.902)" gradientUnits="userSpaceOnUse">
   <stop stop-color="#1e9be6" offset="0"/>
   <stop stop-color="#1491dc" offset="1"/>
  </linearGradient>
 </defs>
 <metadata>
  <rdf:RDF>
   <cc:Work rdf:about="">
    <dc:format>image/svg+xml</dc:format>
    <dc:type rdf:resource="http://purl.org/dc/dcmitype/StillImage"/>
    <dc:title/>
   </cc:Work>
  </rdf:RDF>
 </metadata>
 <circle cx="-302.94" cy="-325.41" r="0" fill="#5e4aa6" stroke-width=".26458"/>
 <g transform="matrix(.081529 0 0 .081529 .27437 .16859)">
  <g color="#282828">
   <path transform="matrix(2.2139 0 0 2.2139 109.49 -2344.9)" d="m-44.762 1070.2h22.13c3.288 0 4.653 7.072 7.728 7.072h51.522a3.276 3.276 0 0 1 3.283 3.282v50.508c0 1.819-1.464-2.02-3.283-2.02h-81.38a3.276 3.276 0 0 1-3.283-3.283v-52.276a3.276 3.276 0 0 1 3.283-3.283z" fill="url(#f)" overflow="visible"/>
   <path transform="matrix(2.2139 0 0 2.2139 109.49 -2344.9)" d="m-44.762 1081.3h81.38a3.276 3.276 0 0 1 3.283 3.283v52.275a3.276 3.276 0 0 1-3.283 3.283h-81.38a3.276 3.276 0 0 1-3.283-3.283v-52.275a3.276 3.276 0 0 1 3.283-3.283z" fill="url(#g)" overflow="visible"/>
   <path d="m3.156 165.8v2.213h194.68v-2.213zm0 4.912v1.176c0 0.358 0.02 0.693 0.07 1.038h194.54c0.05-0.345 0.07-0.68 0.07-1.038v-1.176z" fill="#1e9be6" font-weight="400" opacity=".976" overflow="visible" style="text-indent:0;text-transform:none"/>
   <path transform="matrix(2.2139 0 0 2.2139 109.49 -2344.9)" d="m-47.75 1138.2a3.28 3.28 0 0 0 3 1.937h81.375c1.34 0 2.488-0.792 3-1.937z" fill="url(#h)" font-weight="400" opacity=".976" overflow="visible" style="text-indent:0;text-transform:none"/>
  </g>
  <path transform="translate(0 -852.36)" d="m69.82 1005 30.18-27.626c10.323 6.245 23.937 4.96 32.847-3.953 10.478-10.481 10.478-27.495 0-37.977v-0.01c-10.479-10.482-27.422-10.417-37.9 0.077-8.91 8.913-10.246 22.48-4.017 32.792l-30.181 27.626zm57.131-63.67c7.208 7.21 7.207 18.974 0 26.182-7.14 7.143-18.692 7.14-25.914 0.131l-0.195-0.194c-0.064-0.077-0.131-0.13-0.194-0.198-7.016-7.223-6.949-18.713 0.194-25.857 7.207-7.21 18.902-7.276 26.11-0.078z" color="#282828" fill="url(#i)"/>
 </g>
</svg>
