<?xml version="1.0" encoding="UTF-8"?>
<!-- Created with Inkscape (http://www.inkscape.org/) -->
<svg width="64" height="64" version="1.1" viewBox="0 0 16.933 16.933" xmlns="http://www.w3.org/2000/svg" xmlns:cc="http://creativecommons.org/ns#" xmlns:dc="http://purl.org/dc/elements/1.1/" xmlns:rdf="http://www.w3.org/1999/02/22-rdf-syntax-ns#" xmlns:xlink="http://www.w3.org/1999/xlink">
 <defs>
  <linearGradient id="a-3" x1="-26.201" x2="-26.201" y1="1070.2" y2="1082.6" gradientUnits="userSpaceOnUse">
   <stop stop-color="#37c3ff" offset="0"/>
   <stop stop-color="#78dcff" offset="1"/>
  </linearGradient>
  <linearGradient id="b" x1="-9.912" x2="-9.912" y1="1081.4" y2="1139.8" gradientUnits="userSpaceOnUse">
   <stop stop-color="#2db9f5" offset="0"/>
   <stop stop-color="#37c3ff" offset=".5"/>
   <stop stop-color="#28a5f0" offset="1"/>
  </linearGradient>
  <linearGradient id="c" x1="-9.617" x2="-9.617" y1="1138.4" y2="1140.2" gradientUnits="userSpaceOnUse">
   <stop stop-color="#1e9be6" offset="0"/>
   <stop stop-color="#0e95c5" offset="1"/>
  </linearGradient>
  <linearGradient id="linearGradient972" x1="14.195" x2="14.195" y1="10.637" y2="5.3218" gradientTransform="matrix(1.1014 0 0 1.1014 -7.1673 .43138)" gradientUnits="userSpaceOnUse">
   <stop stop-color="#1491dc" offset="0"/>
   <stop stop-color="#1e9be6" offset="1"/>
  </linearGradient>
 </defs>
 <metadata>
  <rdf:RDF>
   <cc:Work rdf:about="">
    <dc:format>image/svg+xml</dc:format>
    <dc:type rdf:resource="http://purl.org/dc/dcmitype/StillImage"/>
    <dc:title/>
   </cc:Work>
  </rdf:RDF>
 </metadata>
 <circle cx="-302.94" cy="-325.41" r="0" fill="#5e4aa6" stroke-width=".26458"/>
 <g transform="matrix(.081527 0 0 .081527 .27413 .16729)" color="#282828">
  <path transform="matrix(2.2139 0 0 2.2139 109.5 -2344.9)" d="m-44.762 1070.2h22.131c3.287 0 4.652 7.071 7.728 7.071h51.522a3.276 3.276 0 0 1 3.283 3.283v50.508c0 1.819-1.464-2.02-3.283-2.02h-81.38a3.276 3.276 0 0 1-3.283-3.283v-52.275a3.276 3.276 0 0 1 3.283-3.283z" fill="url(#a-3)"/>
  <path transform="matrix(2.2139 0 0 2.2139 109.5 -2344.9)" d="m-44.762 1081.3h81.38a3.276 3.276 0 0 1 3.283 3.283v52.275a3.276 3.276 0 0 1-3.283 3.283h-81.38a3.276 3.276 0 0 1-3.283-3.283v-52.275a3.276 3.276 0 0 1 3.283-3.283z" fill="url(#b)"/>
  <path d="m3.16 165.84v2.214h194.68v-2.214h-194.69zm0 4.87v1.176c0 0.359 0.019 0.694 0.068 1.038h194.55c0.05-0.344 0.069-0.679 0.069-1.038v-1.176h-194.69z" fill="#1e9be6" opacity=".976" style="text-indent:0;text-transform:none"/>
  <path transform="matrix(2.2139 0 0 2.2139 109.5 -2344.9)" d="m-47.75 1138.2a3.28 3.28 0 0 0 3 1.938h81.375c1.34 0 2.488-0.793 3-1.938z" fill="url(#c)" opacity=".976" style="text-indent:0;text-transform:none"/>
 </g>
 <path d="m8.4664 6.2928c-0.10069 0-0.20198 0.00812-0.30006 0.018307a2.8522 2.8522 0 0 0-0.56403 0.10913 2.9234 2.9234 0 0 0-1.9187 1.9187 2.8522 2.8522 0 0 0-0.10914 0.56402 2.9191 2.9191 0 0 0-0.018338 0.30005c0 0.10069 0.00826 0.20198 0.018338 0.30006a2.8522 2.8522 0 0 0 0.10914 0.56402 2.9234 2.9234 0 0 0 1.9187 1.9187 2.8522 2.8522 0 0 0 0.56403 0.10943c0.098078 0.0099 0.19935 0.01804 0.30006 0.01804s0.20197-0.0082 0.30006-0.01831a2.8522 2.8522 0 0 0 0.56402-0.10884 2.973 2.973 0 0 0 0.52734-0.22759 2.905 2.905 0 0 0 1.3918-1.6915 2.8522 2.8522 0 0 0 0.10884-0.56402c0.01024-0.098078 0.01834-0.19936 0.01834-0.30006 0-0.10039-0.0083-0.20227-0.01834-0.30005a2.8522 2.8522 0 0 0-0.10884-0.56404 2.9308 2.9308 0 0 0-0.53667-0.99123c-0.059398-0.071878-0.12514-0.13416-0.1912-0.20023-0.26281-0.2628-0.57013-0.48049-0.91845-0.62747a3.0157 3.0157 0 0 0-0.2727-0.099825 2.8522 2.8522 0 0 0-0.56402-0.10913 3.0017 3.0017 0 0 0-0.30006-0.018307zm0 0.29102c0.44032 0 0.85448 0.10798 1.2188 0.30005 0.00958 0.00541 0.017501 0.013077 0.027039 0.018307 0.00727 0.00965 0.00551 0.020111 0.018338 0.027056 0.00936 0.00541 0.018338 0.013618 0.027039 0.018307 0.01541 0.0092 0.03053 0.021554 0.02731 0.036345-0.0037 0.021825-0.03959 0.020382-0.054441 0.036435 0.00176 0.030483-0.010463 0.024711-0.018338 0.045363 0.00463 0.013348 0.016311 0.011634 0.018338 0.027416-0.00275 0.016864-0.024748 0.018849-0.018338 0.036345 0.028504 0.022095 0.054992 0.00361 0.082042 0 0.05903-0.00721 0.10885 9.018e-4 0.14553-0.027327-0.0037-0.022726 0.01741-0.029039 0.02704-0.045363 0.01953 0.013618 0.03584 0.031474 0.05473 0.045363-0.01109 0.0045-0.03546 0.011905-0.04565 0.018307-0.01457 0.00992-0.01924 0.025342-0.03612 0.036345-0.01219 0.00812-0.04188 0.036345-0.05473 0.036345-0.01541 0-0.04364-0.012806-0.05473-0.00938-0.01567 0.0045-0.0094 0.030212-0.02704 0.036345-0.03492 0.012806-0.096911-0.034-0.10914 0.018307 0.014571 0.030212 0.064343 0.020111 0.090831 0.036345 0.0166 0.010463 0.04135 0.064122 0.04574 0.081798a0.21333 0.21333 0 0 1 0 0.082069c-0.0166 0.042206-0.0605 0.037247-0.10943 0.036345-0.013106 0-0.024197 9.018e-4 -0.036125 0-0.082042-0.00541-0.16298-0.031474-0.20023 0.027056 0.00275 0.045092 0.010133 0.069802 0 0.10913-0.00727 0.028498-0.037855 0.048069-0.03639 0.07278 5.97e-4 0.012806 0.024198 0.037247 0.027314 0.054742 0.00176 0.00938-0.00463 0.027958 0 0.036345 0.013657 0.025973 0.048307-0.0045 0.07278 0 0.023283 0.00361 0.045377 0.037878 0.045377 0.0634a0.16619 0.16619 0 0 1-0.018338 0.07278c-0.023283 0.034902-0.066634 0.026515-0.099841 0.045634-0.027678 0.015693-0.03813 0.054202-0.054728 0.081798-0.017501 0.029671-0.034011 0.039591-0.027039 0.081798a0.19645 0.19645 0 0 1-0.10012 0.10011 0.28754 0.28754 0 0 0-0.045653 0.027416 0.23051 0.23051 0 0 0-0.036115 0.036345c-0.018602 0.020381-0.044551 0.0294-0.054728 0.045363-0.00727 0.012175-9.02e-4 0.038148-0.00914 0.054742-0.011642 0.022095-0.030894 0.041304-0.045652 0.0634-0.00639 0.010727-0.019803 0.022727-0.027039 0.036435-0.016862 0.030843-0.039595 0.055013-0.03639 0.082069 0.00275 0.025973 0.034925 0.031745 0.03639 0.054471 0.00176 0.012806-0.00958 0.022726-0.00936 0.036345 8.591e-4 0.020376 0.00727 0.029671 0.00936 0.045366 0.00374 0.03932-0.020078 0.055014-0.027403 0.082064-0.00374 0.012534 0.00275 0.026246 0 0.03607-0.00639 0.019836-0.035839 0.031478-0.03639 0.054739-5.969e-4 0.016323 0.025574 0.031478 0.027314 0.054739 9.021e-4 0.015783-0.012192 0.030486-0.00936 0.045366 0.00551 0.028493 0.059673 0.068627 0.082042 0.090831 0.02998 0.030211 0.059398 0.050058 0.07278 0.082064 0.011091 0.026786 0.015673 0.070797 0.03639 0.090831 0.015122 0.014615 0.043912 0.021014 0.063429 0.036434 0.018602 0.014604 0.044276 0.021014 0.064079 0.036434 0.031984 0.025255 0.075621 0.076568 0.12718 0.07278 0.026764-0.00176 0.051512-0.012809 0.081756-0.018305 0.031169-0.0054 0.068374-0.02129 0.10012-0.018041 0.024197 0.00275 0.047106 0.019836 0.07278 0.018305 0.026213-0.00176 0.060862-0.01434 0.090831-0.027325 0.05244-0.022733 0.133-0.065841 0.20925-0.054739 0.05821 0.00925 0.0594 0.074222 0.10012 0.10012 0.04657 0.00363 0.08122-0.00925 0.11815 0 0.02795 0.00727 0.06114 0.059706 0.0637 0.0818 0.0028 0.022733-0.01512 0.040399-0.01834 0.054739-0.0073 0.030486-0.01283 0.071337-0.01805 0.090831-0.0046 0.015419-0.0096 0.030211-0.0094 0.04563 0 0.013613 0.02208 0.045366 0.03667 0.063396 0.0175 0.022369 0.04254 0.03932 0.06343 0.063671 0.03868 0.044551 0.05499 0.10479 0.08204 0.16385 0.0064 0.014615-0.0064 0.017402 0 0.03617-0.01164 0.089015-0.0419 0.14726-0.1001 0.24563-0.02768 0.03202-0.05528 0.06953-0.05473 0.10914-0.0018 0.09516 0.04977 0.14436 0.04574 0.23661-0.0096 0.12368 2.86e-4 0.14289-0.0094 0.20896 0.04189 0.02128 0.02127 0.08351 0.0094 0.12747-0.01805 0.0523-0.03556 0.0652-0.04574 0.10012a0.11641 0.11641 0 0 0 0.0637 0.0093 2.6172 2.6172 0 0 1-1.8917 0.80034 2.6143 2.6143 0 0 1-0.98221-0.19093c-8.712e-4 -5.74e-4 8.8e-4 -0.0093 0-0.0094 0.027678-0.01163 0.080027 0.02039 0.10013-0.01804 0.00991-0.01858-0.013382-0.0542 0-0.07278 0.00936-0.01281 0.071315-0.02417 0.090831-0.02732 0.028229-0.0045 0.057019 9.02e-4 0.07278-0.0093a0.082945 0.082945 0 0 0 0.03639-0.07278c-0.00176-0.01542-0.015122-0.02273-0.027039-0.03643-0.010133-0.01163-0.00275-0.02597-0.00936-0.03635-0.012468-0.01858-0.031169-0.02769-0.03639-0.05474 0.03813-0.0073 0.090567 0.04283 0.14553 0.02732 0.026213-0.0073 0.06985-0.05727 0.082042-0.0818 0.00374-0.0073-0.00463-0.03643 0-0.04537 0.00463-0.01024 0.016311-0.01307 0.018052-0.0183 0.00374-0.01425-0.00275-0.0183 0-0.02705 0.00958-0.02706 0.038681-0.04428 0.054728-0.06404 0.011917-0.01461 0.025024-0.02994 0.03639-0.04537 0.012468-0.01632 0.018602-0.02183 0.027039-0.03616 0.00826-0.04834-0.029693-0.08522-0.018052-0.12746 0.012468-0.0478 0.081492-0.07855 0.12717-0.10013 0.016047-0.0073 0.032271-0.02237 0.045741-0.02705 0.03172-0.01137 0.070114-0.0073 0.099819-0.0183 0.049772-0.01804 0.06692-0.07278 0.091118-0.11816 0.011642-0.02129 0.025024-0.03932 0.027039-0.05474 0.00275-0.01362-0.00275-0.0294 0-0.04537 0.00275-0.01569 0.00463-0.02795 0.00936-0.04537a0.46274 0.46274 0 0 0 0.00914-0.09111c0-0.02102-0.00914-0.02625-0.00914-0.04537-0.00374-0.06863 0.020078-0.0716 0.045377-0.10914 0.012831-0.01858 0.018338-0.05032 0.027403-0.06367 0.042811-0.0634 0.11438-0.09459 0.10914-0.19092-0.00176-0.032017-0.013107-0.098949-0.03639-0.10915-0.013382-0.0054-0.044276-0.00176-0.063704-0.00925-0.062603-0.023272-0.10768-0.094874-0.17286-0.10011-0.013657-5.727e-4 -0.020992 5.97e-4 -0.03639 0-0.025299-5.727e-4 -0.053252-0.024164-0.081767-0.027325-0.018052-0.00176-0.052988 0.0054-0.063704 0-0.016312-0.00727-0.013933-0.036346-0.027039-0.045366-0.010794-0.00727-0.029055-0.012181-0.045653-0.018305a0.21682 0.21682 0 0 0-0.07278-0.018041c-0.00936-5.958e-4 -0.034925 0.00176-0.045377 0-0.016312-0.00275-0.030244-0.017765-0.045377-0.027325-0.019241-0.011631-0.028504-0.019836-0.03639-0.036346 0.017413-0.056997-0.043086-0.066645-0.054728-0.09983-0.00551-0.015419 0.00551-0.040762 0-0.054739-0.00639-0.019572-0.023559-0.029044-0.045377-0.045366-0.037855-0.029671-0.07278-0.056732-0.12747-0.063671-0.024197-0.00275-0.052437 0.00176-0.081492 0a0.14173 0.14173 0 0 1-0.091118-0.045454c-0.022369-0.026246-0.026213-0.051501-0.045652-0.063671-0.018338-0.011631-0.050961-0.015155-0.063429-0.027414-0.00551-0.0054-0.00374-0.015155-0.00936-0.02705-0.00936-0.019208-0.029693-0.022457-0.018052-0.045631-0.021268-0.010463-0.013657 0.013349-0.03639 0.00936-0.020343-0.029044-0.0352-0.045366-0.081767-0.03661-0.021268 0.00452-0.039044 0.03607-0.063704 0.03661-0.020343 5.97e-4 -0.036665-0.03292-0.063704-0.03661-0.020343-0.00275-0.049496 0.021554-0.063429 0.018305-0.023008-0.00363-0.025023-0.031742-0.045652-0.045366-0.015122-0.010243-0.046016-0.036974-0.054442-0.036346-0.026488 5.969e-4 -0.045377 0.055917-0.082042 0.036346-0.017787-0.022733 0.030531-0.02444 0.00936-0.04563-0.016047-0.015695-0.023834 8.591e-4 -0.03639 0.00936-0.014858 0.00991-0.029143 0.021554-0.045741 0.027061-0.03639 0.013889-0.062239 0.012534-0.090831 0.027413-0.026213 0.013889-0.030244 0.036621-0.045366 0.063671-0.012192 0.022094-0.036115 0.053572-0.054728 0.054739-0.022094 0.00176-0.043626-0.027953-0.063429-0.036709-0.061138-0.026246-0.095457 0.017765-0.14552 0.018305-0.046567 5.727e-4 -0.11147-0.074223-0.10914-0.11816 0.00176-0.02705 0.014858-0.06692 0.018052-0.10013 0.00275-0.026246 0.026764-0.04834 0.027314-0.07278 5.871e-4 -0.032017-0.051798-0.059971-0.07278-0.063671-0.049772-0.00925-0.11642 0.022457-0.17287 0-0.010463-0.018041 0.020981-0.027953 0.027314-0.045366 0.00374-0.010243-0.00374-0.016322 0-0.027325 0.00639-0.016862 0.028229-0.027413 0.03639-0.045366 0.00551-0.013624 0.00275-0.037877 0.00914-0.054739 0.00727-0.018849 0.025574-0.031475 0.027402-0.045364 0.00176-0.018037-0.013107-0.042839-0.027402-0.054471a0.28346 0.28346 0 0 0-0.10006 0.018092c-0.057019 0.026244-0.042161 0.1004-0.099819 0.11845-0.019792 0.00628-0.050697 0.014615-0.07278 0.018041a2.5932 2.5932 0 0 1 0.17265-0.54564c0.020343 0.00361 0.037216 0.016595 0.054728 0.018307 0.048582 0.00361 0.050598-0.033459 0.090831-0.054742 0.041335 0.00541 0.062603-0.00361 0.10012 0 0.025299 0.00271 0.061689 0.034902 0.081767 0.036345 0.016862 5.863e-4 0.020343-0.021013 0.03639-0.018307 0.016047 0.00271 0.042811 0.035804 0.045652 0.054742 0.00275 0.023809-0.016047 0.046536-0.00936 0.072779 0.025024 0.025342 0.073606 0.039861 0.10914 0.054742 0.023283-0.019119 0.00374-0.0634 0-0.091113-5.772e-4 -0.012174 0.00176-0.025341 0-0.036344-0.00275-0.018849-0.00914-0.038148-0.00914-0.054742 0-0.075665 0.058208-0.10653 0.10915-0.13622 0.021819-0.012806 0.044551-0.036074 0.063704-0.045634 0.026764-0.013077 0.041346-0.01461 0.063429-0.027056 0.040421-0.022727 0.078-0.046806 0.10914-0.07278 0.014571-0.03436-0.00176-0.075394 0-0.10913 0.014571-0.0092 0.021268 0.00181 0.03639 0 0.024473-0.00541 0.031984-0.040763 0.045652-0.054742 0.00826-0.00812 0.035839-0.010188 0.045366-0.018037 0.024473-0.019119 0.024473-0.046265 0.045366-0.054742 0.00727-0.00271 0.024748-0.00541 0.03639-0.0092 0.016047-0.0045 0.038405-0.018307 0.063704-0.027416 0.016312-0.00541 0.057382-0.00271 0.063704-0.0092 0.00815-0.00812-0.00176-0.042477 0-0.054742 0.012468-0.059703 0.101-0.061686 0.15454-0.081527 0.036941-0.01461 0.076811-0.044551 0.11816-0.036705-0.00826 0.028498-0.043086 0.020381-0.03639 0.054742 0.00914 0.048069 0.064894-0.011634 0.082042-0.018307 0.031984-0.013617 0.094003-0.021013 0.13621-0.036345 0.037205-0.013077 0.098662-0.03905 0.063704-0.081798-0.029143-0.00181-0.03813 0.025973-0.063704 0.036345-0.017413 0.00271-0.021532-0.00812-0.03639-0.0092-0.014307-5.952e-4 -0.022083 0.011634-0.03639 0.0092-0.014307-0.00271-0.034099-0.028498-0.03639-0.045363-0.00551-0.044551 0.045653-0.05817 0.063704-0.091113-0.012192-0.040132-0.066083-0.00271-0.10013-0.018037 0.00374-0.023809 0.017413-0.049783 0.045653-0.054742a0.17987 0.17987 0 0 1 0.090831 0.018307c0.00815 0.00631-0.00275 0.025071 0.00914 0.036435 0.013933 0.012175 0.036665 0.00271 0.054728 0 0.00639-0.030212-0.04161-0.016864-0.03639-0.036435 0.035839-0.023268 0.10157-0.012536 0.14552-0.018307 0.025299-0.00361 0.050047-0.02417 0.07278-0.036345 0.020993-0.012175 0.041335-0.029129 0.063429-0.0092 0.00639 0.021825-0.015122 0.034361-0.027039 0.045363-0.040795 0.036164-0.077461 0.076567-0.10914 0.11845 0.019528 0.018849 0.048858 0.00541 0.081767 0.0092 0.012831 0.00181 0.031984 0.00721 0.045366 0.00938 0.016047 0.00271 0.03291-0.00271 0.045653 0 0.022094 0.00541 0.023283 0.036345 0.045377 0.036345 0.035839 0 0.038681-0.030212 0.018052-0.054742 0.00639-0.024711 0.018338-0.045994 0.00936-0.0634-0.016598-0.032917-0.078551 0.00541-0.082042-0.036345-0.00176-0.026515 0.027039-0.034631 0.03639-0.054742-0.00374-0.050684 0.04161-0.05384 0.03639-0.099825-0.00275-0.019119-0.023283-0.018578-0.03639-0.036345-0.00639-0.00965-0.010133-0.02967-0.018052-0.036345-0.027678-0.023268-0.078551-0.019571-0.082042-0.064122-0.00176-0.026244 0.00374-0.04392 0-0.07278-0.00374-0.026785-0.031169-0.1036-0.054442-0.10884-0.029693-0.00631-0.046567 0.047077-0.081767 0.0634a0.14348 0.14348 0 0 1-0.07278 0.00938c-0.012831-0.00271-0.034925-0.012175-0.03639-0.036435-0.00176-0.013889 0.00275-0.018849 0.00914-0.027327 0.00176-0.00181-0.00176-0.00721 0-0.0092a2.6397 2.6397 0 0 1 0.72759-0.10011zm-1.0824 0.23661c-0.025574 0.0827-0.1004 0.1298-0.19993 0.12718-0.024473 0.023268-0.014307 0.067819-0.027402 0.10011a0.080325 0.080325 0 0 1-0.07278 0.045363c-0.019528-0.00181-0.054728-0.027056-0.054728-0.045363 0-0.015151 0.014571-0.032286 0.018338-0.045634a2.5972 2.5972 0 0 1 0.33644-0.18188zm2.2283 0.090835a0.079744 0.079744 0 0 0-0.027314 0.0092c-0.020343 0.012175-0.021268 0.030483-0.03639 0.036345-0.021819 0.00812-0.051512 0.00812-0.054728 0.027416-0.00275 0.016324 0.018889 0.021554 0.018338 0.036345-0.00826 0.01957-0.023283 0.021554-0.027314 0.045363 0.027039 0.04392 0.094003 5.872e-4 0.12747-0.0092 0.014571-0.0045 0.028228 0.00271 0.036115-0.0092 0.00914-0.01461 0.00176-0.043649 0.00936-0.063671 0.00727-0.022095 0.02998-0.016864 0.027039-0.036345-0.00176-0.01957-0.03987-0.039592-0.07278-0.036345zm-2.8833 0.33643c0.019528 0.023268 0.035839 0.057628 0 0.07278-0.00551 0.00271-0.068925 0.011634-0.081767 0.00938-0.00374-5.771e-4 -0.00551-0.00631-0.00914-0.00938 0.027689-0.027056 0.061964-0.046806 0.090831-0.07278zm0.07278 0.091113c0.012831 5.871e-4 0.021532 0.026244 0.03639 0.027056 0.014571 0.00181 0.036941-0.011634 0.045741-0.0092 0.022094 0.00541 0.030244 0.047077 0.00914 0.0634-0.017413 0.00181-0.023283-0.021013-0.036114-0.018307-0.036115 0.00631-0.046016 0.075034-0.07278 0.07278-0.025574-0.00271-0.044276-0.054201-0.018338-0.07278 5.772e-4 -0.015693-0.010133-0.020381-0.00914-0.036435 0.00815-0.00992 0.024109-0.028769 0.045366-0.027056zm-0.11815 0.018037c0.00727 0 0.00639-0.00271 0.00914 0-0.00374 0.028227-0.014571 0.032286-0.03639 0.045634a0.14901 0.14901 0 0 0-0.07278 0.099816c-0.00374 0.01461-0.045652 0.05817-0.063429 0.054742-0.041897-0.0092 0.017413-0.08793 0.027039-0.10011 0.010794-0.013348 0.024197-0.021554 0.03639-0.036345 0.012192-0.01461 0.015761-0.045994 0.027402-0.054742 0.012831-0.0092 0.050598-0.00992 0.07278-0.0092zm3.5835 0.07278c0.04161-0.00271 0.0626 0.047527 0.08149 0.07278 0.01605 0.020652 0.06517 0.049512 0.09112 0.06367 0.01486 0.00812 0.02914 0.01984 0.04574 0.027416 0.01715 0.00721 0.04308 0.017405 0.06343 0.036345 0.02034 0.018578 0.03584 0.046536 0.03639 0.0634 5.97e-4 0.017135-0.01164 0.02967-0.0091 0.045634 0.01834 0.00271 0.02795-0.015693 0.03639-0.036435 0.06866 0.097797 0.1269 0.20228 0.18189 0.30908a0.034341 0.034341 0 0 0-0.01834 0.027416c-0.0055 0.02967 0.01741 0.067548-0.02704 0.07278-0.02823 0.00361-0.06141-0.027958-0.10013-0.036345-0.01567-0.00361-0.04189 0.00361-0.05473 0-0.02905-0.010188-0.02034-0.046265-0.04538-0.06367a0.20372 0.20372 0 0 0-0.07278-0.027055c-0.01431-0.00181-0.02153 0.00181-0.03639 0-0.01805-0.00271-0.04886 0-0.06343-0.00938-0.01457-0.0092-0.05096-0.02417-0.05473-0.036345-0.0055-0.019571 0.04455-0.047077 0.04538-0.0634 9.02e-4 -0.012806-0.0154-0.017405-0.01805-0.036705-0.0018-0.011634 0.0028-0.028769 0-0.036074-0.0037-0.013888-0.02383-0.026785-0.04565-0.027327-0.01889 0-0.03787 0.0092-0.05444 0.0092-0.02328 5.78e-4 -0.07104-0.011634-0.10012-0.0092-0.01741 0.00181-0.02905 0.00812-0.04538 0.0092-0.04602 0.00361-0.07306-0.00271-0.10915 0-0.02621 0.00181-0.07562 0.016324-0.10012 0.027327-0.01219 0.00541-0.02034 0.019209-0.03639 0.027056-0.0073 0.00361-0.01741 0.0045-0.02704 0.00938-0.01486 0.00631-0.04042 0.023268-0.05473 0.027056-0.02034 0.00541-0.044276-0.00181-0.081756 0-0.027039 0.00181-0.072141-0.00361-0.07278-0.036074-5.728e-4 -0.049512 0.089928-0.027958 0.13622-0.036705 0.01741-0.00361 0.02447-0.02417 0.04565-0.036074 0.0099-0.00541 0.01741-0.011905 0.02704-0.018307 0.01605-0.011093 0.04309-0.032917 0.04565-0.045363 0.0018-0.011634-0.01068-0.027958-0.0094-0.036345 0.0018-0.011093 0.02208-0.022095 0.03666-0.036345 0.02208-0.022456 0.03612-0.049512 0.06343-0.06367 0.0186-0.010188 0.05528-0.012446 0.0637-0.027325 0.0018-0.016864-5.97e-4 -0.021013 0-0.036345 0.01164-0.010463 0.0083-0.016053 0.01834-0.018037 0.0285-0.00631 0.05738 0.010727 0.09083 0.0092 0.01457-5.771e-4 0.03024 9.019e-4 0.04538-0.0092 0.01283-0.0092 0.02383-0.021013 0.03639-0.027325 0.01393-0.00721 0.0285-0.026244 0.04565-0.027416zm-3.3382 0.027416c0.00727-9.02e-4 0.018889 8.757e-4 0.027689 0 0.011917-5.863e-4 0.023283 0 0.03639 0 0.013106 0 0.030883-0.00541 0.03639 0-0.00914 0.034902-0.090831 0.021825-0.11845 0.0092 8.712e-4 -0.00631 0.011366-0.00812 0.018338-0.0092zm-0.099819 0.06367c0.00914 0 0.017787-0.00361 0.027402 0-0.024473 0.020382-0.057933 0.032016-0.10013 0.045363-0.020343 0.00631-0.050961 0.013077-0.054728-0.0092-0.00374-0.027687 0.018602-0.024711 0.03639-0.027327 0.023283-0.00271 0.064079-0.0092 0.091118-0.0092zm3.447 0c-0.01741 0.00541-0.02621 0.040763 0 0.045363 0.01219-0.00721 0.01219-0.023268 0.0091-0.045363-0.0073-0.00721-0.0037-0.00181-0.0091 0zm-0.0094 0.07278c-0.0083 0.00271-0.01805-5.862e-4 -0.02704 0.0092 5.98e-4 0.02967 0.0055 0.046536 0 0.07278 0.01686 0.032917 0.05528 0.013077 0.06344-0.0092 0.01024-0.055283-0.01079-0.079724-0.03611-0.07278zm0.22759 0.14553a0.078289 0.078289 0 0 0-0.05473 0.018037c0.01979 0.032016 0.05619 0.037878 0.10012 0.045634 0.01576-0.011634 0.01079-0.043649 0.01834-0.064031-0.01915 0-0.03143 0.00181-0.05473 0h-0.0091zm-4.6202 1.1183c0.018602 0.023812 0.038681 0.05149 0.063429 0.064123 0.013382 0.00628 0.02879 0.0054 0.045653 0.00925 0.013657 0.00275 0.023283 0.01434 0.03639 0.018305 0.027953 0.00969 0.06866 0.00815 0.090831 0.018305 0.034011 0.014615 0.052701 0.073859 0.082042 0.090831 0.00176 0.016862-0.00551 0.03292 0 0.045366 0.013657 0.01858 0.041335 0.024076 0.063429 0.036346 0.027039 0.01488 0.038405 0.052041 0.063704 0.063671 0.00914 0.00363 0.022733-0.00363 0.03639 0 0.034914 0.010463 0.042536 0.063396 0.07278 0.054739 0.019528-0.0054 0.024109-0.035806 0.027314-0.054739 0.013107-0.014615 0.024748-0.036346 0.045366-0.036346 0.032909-5.727e-4 0.042536 0.040762 0.054728 0.07278 0.00639 0.018041 0.022457 0.035443 0.027039 0.054739a0.4773 0.4773 0 0 1 0 0.14552c-0.00826 0.024164-0.043637 0.036974-0.063429 0.063396-0.00958 0.012809-0.020078 0.027953-0.027314 0.036346-0.012831 0.016058-0.026764 0.022094-0.03639 0.036346-0.00551 0.00815-0.00463 0.025343-0.00936 0.036346-0.015673 0.034088-0.040421 0.059431-0.027039 0.10012 0.00551 0.016323 0.027039 0.034903 0.027039 0.054739 0 0.023261-0.050598 0.029044-0.054442 0.054475-0.00275 0.01858 0.021532 0.056997 0.027402 0.0818 0.00374 0.01858 0.034374 0.03346 0.045377 0.045719 0.018602 0.020387 0.037855 0.046269 0.054728 0.07278 0.033185 0.05123 0.048858 0.1135 0.081492 0.16357 0.017413 0.02625 0.052437 0.04509 0.064079 0.07278 0.00551 0.01362-0.00551 0.04184 0 0.05474 0.018889 0.04284 0.11146 0.08793 0.15424 0.10885 0.020343 0.01024 0.03639 0.01686 0.054728 0.02733 0.02824 0.01605 0.085886 0.04806 0.10013 0.07278 0.012831 0.02237 0.020993 0.07359 0.027314 0.10915 0.00815 0.04653-0.00176 0.08613 0 0.1365 0.00176 0.02733 0.00914 0.04509 0.00914 0.07278 0 0.0096 5.871e-4 0.02679 0 0.03635-5.771e-4 0.03292 0.00275 0.06692 0 0.10012a0.37893 0.37893 0 0 0 0 0.05448c0.00176 0.0166 0.017149 0.02209 0.018338 0.03635 9.02e-4 0.01542-0.020078 0.03346-0.018338 0.04572 0.00374 0.03318 0.039044 0.06025 0.045366 0.09084 0.00551 0.02444 0.012192 0.07999 0.00936 0.10914-0.00275 0.01542-0.00727 0.03788-0.00936 0.05474-0.00176 0.01307 0.00176 0.02418 0 0.03607-0.72497-0.46569-1.2094-1.2747-1.2094-2.2009 0-0.11874 0.011917-0.23107 0.027314-0.34575zm1.0002 0.26397c0.025574-0.011631 0.020629 0.033185 0 0.036346-0.019528 0.00275-0.018889-0.027413 0-0.036346z" color="#282828" fill="url(#linearGradient972)" stroke-width=".29103"/>
</svg>
