<?xml version="1.0" encoding="UTF-8"?>
<!-- Created with Inkscape (http://www.inkscape.org/) -->
<svg width="64" height="64" version="1.1" viewBox="0 0 16.933 16.933" xmlns="http://www.w3.org/2000/svg" xmlns:cc="http://creativecommons.org/ns#" xmlns:dc="http://purl.org/dc/elements/1.1/" xmlns:rdf="http://www.w3.org/1999/02/22-rdf-syntax-ns#">
 <defs>
  <linearGradient id="j-3" x1="-26.201" x2="-26.201" y1="1070.2" y2="1082.6" gradientUnits="userSpaceOnUse">
   <stop stop-color="#14aa78" offset="0"/>
   <stop stop-color="#32d282" offset="1"/>
  </linearGradient>
  <linearGradient id="k" x1="-9.912" x2="-9.912" y1="1081.4" y2="1139.8" gradientUnits="userSpaceOnUse">
   <stop stop-color="#1e966e" offset="0"/>
   <stop stop-color="#14aa78" offset=".5"/>
   <stop stop-color="#148c64" offset="1"/>
  </linearGradient>
  <linearGradient id="l" x1="-9.617" x2="-9.617" y1="1138.4" y2="1140.2" gradientUnits="userSpaceOnUse">
   <stop stop-color="#1e826e" offset="0"/>
   <stop stop-color="#0a6e5a" offset="1"/>
  </linearGradient>
  <linearGradient id="a-6" x1="143.33" x2="143.33" y1="72.525" y2="148.53" gradientTransform="translate(-43.332 .47458)" gradientUnits="userSpaceOnUse">
   <stop stop-color="#1e826e" offset="0"/>
   <stop stop-color="#0a6e5a" offset="1"/>
  </linearGradient>
 </defs>
 <metadata>
  <rdf:RDF>
   <cc:Work rdf:about="">
    <dc:format>image/svg+xml</dc:format>
    <dc:type rdf:resource="http://purl.org/dc/dcmitype/StillImage"/>
    <dc:title/>
   </cc:Work>
  </rdf:RDF>
 </metadata>
 <circle cx="-302.94" cy="-325.41" r="0" fill="#5e4aa6" stroke-width=".26458"/>
 <g transform="translate(7.0887e-5 -1.4486e-5)">
  <circle cx="-302.94" cy="-325.41" r="0" fill="#5e4aa6" stroke-width=".26458"/>
  <g transform="matrix(.081528 0 0 .081528 .27453 .16395)">
   <path transform="matrix(2.2139,0,0,2.2139,109.49,-2344.9)" d="m-44.762 1070.2h22.13c3.288 0 4.653 7.072 7.728 7.072h51.522a3.276 3.276 0 0 1 3.283 3.282v50.508c0 1.819-1.464-2.02-3.283-2.02h-81.38a3.276 3.276 0 0 1-3.283-3.283v-52.276a3.276 3.276 0 0 1 3.283-3.283z" fill="url(#j-3)" overflow="visible"/>
   <path transform="matrix(2.2139,0,0,2.2139,109.49,-2344.9)" d="m-44.762 1081.3h81.38a3.276 3.276 0 0 1 3.283 3.283v52.275a3.276 3.276 0 0 1-3.283 3.283h-81.38a3.276 3.276 0 0 1-3.283-3.283v-52.275a3.276 3.276 0 0 1 3.283-3.283z" fill="url(#k)" overflow="visible"/>
   <path d="m3.156 165.8v2.213h194.68v-2.213zm0 4.912v1.176c0 0.358 0.02 0.693 0.07 1.038h194.54c0.05-0.345 0.07-0.68 0.07-1.038v-1.176z" fill="#1e826e" font-weight="400" opacity=".976" overflow="visible" style="text-indent:0;text-transform:none"/>
   <path transform="matrix(2.2139,0,0,2.2139,109.49,-2344.9)" d="m-47.75 1138.2a3.28 3.28 0 0 0 3 1.937h81.375c1.34 0 2.488-0.792 3-1.937z" fill="url(#l)" font-weight="400" opacity=".976" overflow="visible" style="text-indent:0;text-transform:none"/>
   <path class="ColorScheme-Text" d="m105.43 73a38 38 0 0 0-38 38h-10.857l16.286 21.714 16.286-21.714h-10.857a27.143 27.143 0 0 1 27.143-27.143 27.143 27.143 0 0 1 27.143 27.143 27.143 27.143 0 0 1-27.143 27.143v10.857a38 38 0 0 0 38-38 38 38 0 0 0-38-38zm-5.4286 19v23.169l17.496 11.661 3.0074-4.5166-15.075-10.054v-20.259z" fill="url(#a-6)"/>
  </g>
 </g>
</svg>
