<?xml version="1.0" encoding="UTF-8"?>
<svg width="48" height="48" version="1.1" xmlns="http://www.w3.org/2000/svg" xmlns:cc="http://creativecommons.org/ns#" xmlns:dc="http://purl.org/dc/elements/1.1/" xmlns:rdf="http://www.w3.org/1999/02/22-rdf-syntax-ns#">
 <metadata>
  <rdf:RDF>
   <cc:Work rdf:about="">
    <dc:format>image/svg+xml</dc:format>
    <dc:type rdf:resource="http://purl.org/dc/dcmitype/StillImage"/>
    <dc:title/>
   </cc:Work>
  </rdf:RDF>
 </metadata>
 <defs>
  <linearGradient id="d" x1="10.094" x2="122.72" y1="107.36" y2="107.36" gradientTransform="matrix(.41725 0 0 .41031 -3.7143 -.80178)" gradientUnits="userSpaceOnUse">
   <stop stop-color="#1a1a1a" offset="0"/>
   <stop stop-color="#2c2c2e" offset=".11054"/>
   <stop stop-color="#2b2b2d" offset=".29001"/>
   <stop stop-color="#2a2b2d" offset=".51187"/>
   <stop stop-color="#2b2b2d" offset=".75173"/>
   <stop stop-color="#323232" offset=".89659"/>
   <stop stop-color="#171717" offset="1"/>
  </linearGradient>
  <linearGradient id="a" x1="449.43" x2="449.55" y1="540.75" y2="518.41" gradientTransform="matrix(1.6796,0,0,1.6796,-731.65,-869.47)" gradientUnits="userSpaceOnUse">
   <stop stop-color="#b6b9bf" offset="0"/>
   <stop stop-color="#dddfe2" offset="1"/>
  </linearGradient>
  <linearGradient id="c" x1="451.02" x2="451.02" y1="544.15" y2="543.09" gradientTransform="matrix(.84888 0 0 1.6796 -357.98 -869.39)" gradientUnits="userSpaceOnUse">
   <stop stop-color="#3ec896" offset="0"/>
   <stop stop-color="#66d9af" offset="1"/>
  </linearGradient>
  <linearGradient id="b" x1="467.17" x2="467.17" y1="546.85" y2="544.72" gradientTransform="matrix(1.6796,0,0,1.6796,-742.87,-872.84)" gradientUnits="userSpaceOnUse">
   <stop stop-color="#040404" offset="0"/>
   <stop stop-color="#121212" stop-opacity=".90816" offset="1"/>
  </linearGradient>
 </defs>
 <g transform="matrix(.93268 0 0 .93268 2.3478 2.6616)">
  <g transform="matrix(.92994 0 0 .92994 1.6813 1.6802)" stroke-width="1.5808">
   <path d="m0.4975 39.397 0.41724 6.5764c0 0.68194 0.55829 1.2309 1.2518 1.2309h43.655c0.69348 0 1.2518-0.54899 1.2518-1.2309l0.41724-6.5764z" fill="url(#d)"/>
   <path d="m4.2556 0.75818h39.067c0.69348 0 1.2518 0.54899 1.2518 1.2309l2.9208 37.12c0 0.68194-0.55826 1.2309-1.2517 1.2309h-44.493c-0.69348 0-1.2517-0.54899-1.2517-1.2309l2.5033-37.12c0-0.68194 0.55829-1.231 1.2517-1.231z" fill="url(#a)"/>
   <rect x="14.443" y="43.357" width="19.255" height="1.2914" ry=".64572" fill="url(#c)"/>
   <circle cx="41.68" cy="44.077" r="1.7826" fill="url(#b)" opacity=".452"/>
  </g>
  <ellipse cx="23.997" cy="20.789" rx="15.111" ry="10.462" fill="none" opacity=".15" stroke="#000" stroke-linecap="round" stroke-linejoin="round" stroke-width=".46497" style="paint-order:normal"/>
  <path d="m40.438 42.781c0.0374 0 0.06981-0.01339 0.09712-0.04129 0.02734-0.02678 0.04103-0.06026 0.04103-0.09709v-0.69074c0-0.03794-0.01368-0.06919-0.04103-0.09708-0.02732-0.02678-0.0597-0.04129-0.09712-0.04129s-0.0698 0.01339-0.09714 0.04129c-0.02734 0.02678-0.04101 0.05914-0.04101 0.09708v0.69074c0 0.03683 0.01367 0.0703 0.04101 0.09709 0.02734 0.02678 0.05973 0.04129 0.09714 0.04129z" fill="#e3e8ea" opacity=".668" stroke="#909296" stroke-width=".0020808"/>
  <path d="m41.178 42.334c-0.05793-0.11583-0.1394-0.21303-0.24443-0.29136-0.03022-0.02343-0.06439-0.03236-0.10253-0.02678-0.03815 0-0.06835 0.02343-0.09066 0.05356-0.02302 0.03013-0.03183 0.06472-0.02644 0.10155 0.0054 0.03794 0.02321 0.06807 0.05341 0.0915 0.07048 0.05356 0.12502 0.1184 0.16349 0.19539 0.0385 0.077 0.05772 0.15902 0.05772 0.24605 0 0.07477-0.01457 0.14619-0.0437 0.21425-0.02914 0.06807-0.06854 0.12677-0.11819 0.17643-0.04965 0.0491-0.10844 0.08927-0.17645 0.11818-0.06799 0.02901-0.13941 0.04352-0.21423 0.04352-0.07482 0-0.14622-0.01451-0.21422-0.04352-0.06799-0.02901-0.12681-0.06807-0.17646-0.11818-0.04963-0.0491-0.08902-0.10824-0.11818-0.17643-0.02914-0.06807-0.04371-0.13938-0.04371-0.21425 0-0.08704 0.01925-0.16906 0.05774-0.24605 0.0385-0.077 0.09298-0.14206 0.1635-0.19539 0.03021-0.02343 0.04801-0.05356 0.05342-0.0915 0.0054-0.03794-0.0034-0.07142-0.02644-0.10155-0.02231-0.03125-0.05234-0.0491-0.09012-0.05356-0.03777 0-0.07214 0-0.10307 0.02678-0.10506 0.07811-0.18653 0.17553-0.24444 0.29136-0.05792 0.11582-0.08688 0.23924-0.08688 0.37014 0 0.11226 0.02195 0.21938 0.06584 0.3216 0.0439 0.10266 0.10289 0.19026 0.177 0.26446 0.0741 0.07365 0.16224 0.13302 0.26441 0.17687 0.10217 0.04352 0.20938 0.06584 0.32161 0.06584s0.21944-0.02232 0.32161-0.06584 0.19032-0.10266 0.26441-0.17687c0.0741-0.07365 0.13308-0.16226 0.17698-0.26446 0.04389-0.10266 0.06583-0.20934 0.06583-0.3216 0-0.1309-0.02891-0.25431-0.08684-0.37014z" fill="#e3e8ea" opacity=".668" stroke="#909296" stroke-width=".0020808"/>
  <path d="m24.003 10.56a14.913 10.229 0 0 0-1.3235 0.05086c0.43526-0.02677 0.87566-0.04359 1.3217-0.04359l0.0019-0.0073zm1.3599 0.04541c0.05501 0.03827 0.07879 0.12158 0.12744 0.16346 0.09695 0.08883 0.21445 0.09041 0.22938 0.18526 0.03571 0.22641-0.2991 0.24491-0.26762 0.49766-0.06924 0.09776-0.24117 0.0908-0.22756 0.22158 0.02224 0.1983 0.45538 0.04911 0.57346 0.21069 0.06315 0.08682-0.01134 0.1505-0.05826 0.27426 0.14858 0.1213 0.14563 0.31388-0.11651 0.31422-0.15938 0-0.20309-0.11559-0.3641-0.14349-0.08942-0.01451-0.20955-0.01092-0.32406-0.02542-0.09779-0.01004-0.21516-0.02698-0.30767-0.03815-0.23661-0.02009-0.49015 0.02835-0.6299-0.06538 0.22785-0.20733 0.52977-0.41186 0.82287-0.5903 0.08706-0.05323 0.27266-0.08792 0.22938-0.19616-0.16314-0.09809-0.36329 0.0062-0.51704 0.06538-0.1617 0.06149-0.35285 0.15106-0.53523 0.16891-0.31688 0.03125-0.73702-0.06316-0.99587 0.05267-0.03583 0.09898 0.29268 0.06127 0.24759 0.21069-0.12671 0.01339-0.24649 0.02142-0.34408-0.03996-0.09216-0.05524-0.0395-0.13613-0.09649-0.17073-0.09824-0.06137-0.4686-0.07094-0.63355-0.05086-0.20124 0.02254-0.37858 0.10363-0.40234 0.22158 0.24186 0.07644 0.64027-0.0799 0.72821 0.11806-0.13252 0.16326-0.44407 0.2533-0.40234 0.47223 0.01649 0.08414 0.16406 0.19771 0.26944 0.20887 0.10609 0.01339 0.16474-0.06202 0.26762-0.05086 0.10887 0.0078 0.08388 0.09442 0.21118 0.07992 0.1843-0.05379 0.28733-0.23456 0.49883-0.2234 0.25347 0.21045-0.22986 0.31447-0.49883 0.38142-0.30673 0.07655-0.70751 0.11649-0.94128 0.18345-0.12238 0.03459-0.58534 0.34054-0.64993 0.10353-0.04683-0.17117 0.22947-0.12083 0.28764-0.26154-0.29661-0.0395-0.57477 0.08771-0.84472 0.15802-0.38512 0.09965-1.0358 0.16347-1.1287 0.45952-0.02032 0.05926 0.03674 0.16982-0.02002 0.20887-0.04595 0.03236-0.32196 0.03637-0.44239 0.06538-0.18476 0.04386-0.34536 0.135-0.45877 0.1562-0.08627 0.01674-0.21289 0.01455-0.26762 0.02906-0.15248 0.04051-0.20955 0.18052-0.38413 0.27426-0.07164 0.03906-0.22824 0.06921-0.28582 0.10716-0.09925 0.06762-0.11434 0.23588-0.28947 0.26154-0.11129 0.0067-0.20286-0.05623-0.30767-0.01271-0.0094 0.16716 0.08657 0.39387-0.01821 0.56305-0.22699 0.12655-0.47614 0.21501-0.76644 0.32693-0.1606 0.06115-0.30482 0.07653-0.49883 0.14349-0.13733 0.04709-0.26224 0.1605-0.42054 0.22522-0.36571 0.14719-0.80956 0.32077-0.8065 0.69382 9.04e-4 0.0809 0.06163 0.16669 0.07646 0.26154 0.01179 0.05557-3e-3 0.11047 0 0.17073 0.02255 0.13715 0.16793 0.31199 0 0.40685-0.25781-0.07254-0.58596-0.09787-0.76644-0.22341-0.04956-0.12956 0.10032-0.23633 0.07646-0.35418-0.01843-0.09474-0.21263-0.26198-0.32588-0.27426-0.11654-0.01451-0.22363 0.07473-0.34408 0.06357-0.14318-0.0076-0.27502-0.1417-0.45878-0.1562-0.26956-0.0212-0.46788 0.04355-0.76644 0.01453-0.2889 0.10568-0.37407 0.29393-0.72821 0.27608-0.12479-0.0056-0.24176-0.07143-0.38595-0.09263-0.14959-0.0203-0.36846-0.04838-0.52978-0.05086a14.913 10.229 0 0 0-1.1687 2.7771c0.024036 0.0062 0.050211 0.01437 0.069181 0.01453 0.14019 0.0022 0.3062-0.04865 0.44239-0.06538 0.15766-0.02009 0.35566-0.02031 0.49883-0.05267 0.41419-0.09072 0.33368-0.47401 0.74824-0.60301 0.18096-0.0558 0.38986-0.06582 0.70818-0.0781 0.10125 0.05814 0.14985 0.16067 0.13653 0.24883-0.01085 0.06684-0.10205 0.12855-0.15292 0.2234-0.04245 0.08392-0.05435 0.18188-0.09649 0.24883-0.05716 0.08838-0.18612 0.15243-0.23121 0.23612-0.0262 0.05401-0.01122 0.12093-0.03641 0.16891-0.04378 0.08648-0.2127 0.14685-0.13472 0.23612 0.41024 0.11271 0.90732-0.0301 1.2653 0.01453 0.15105 0.01886 0.46185 0.14226 0.45877 0.3015-0.0022 0.11929-0.132 0.19796-0.15292 0.32875-0.02267 0.16404-0.13164 0.36498-0.13472 0.49766-0.01696 0.21749 0.46651 0.60327 0.80467 0.59211 0.36432-0.0033 0.57706-0.24987 1.0158-0.11988 0.14563 0.04307 0.30004 0.20732 0.4606 0.19616 0.13261-0.0067 0.33209-0.1656 0.42054-0.27608 0.10789-0.13413 0.11724-0.24614 0.30767-0.31422 0.20567-0.07253 0.36851-0.03839 0.63172-0.10534 0.1176-0.02935 0.21764-0.08168 0.32406-0.13077 0.09282-0.04352 0.19162-0.15915 0.30767-0.07992 0.15295 0.10478-0.18734 0.16426-0.05826 0.27608 0.2656 0.09642 0.40274-0.17229 0.59531-0.18345 0.06144-0.0015 0.2746 0.08278 0.38413 0.13077 0.1494 0.06729 0.20059 0.16001 0.3641 0.18345 0.105 0.01451 0.27299-0.02904 0.42054-0.01454 0.19542 0.01886 0.31078 0.14375 0.45878 0.13259 0.18043-0.0034 0.2675-0.13612 0.42236-0.1562 0.33822-0.04241 0.46272 0.02611 0.61169 0.17073 0.16707 0.01897 0.17136-0.1353 0.32405-0.08173-0.08422 0.11416 0.02936 0.16851 0.09649 0.26336 0.04397 0.0616 0.03765 0.10399 0.07828 0.13078 0.09135 0.06004 0.26851 0.05891 0.40234 0.11806 0.1413 0.06082 0.2201 0.17418 0.38232 0.3015 0.16678 0.13045 0.44696 0.2631 0.66995 0.27426 0.21049 0.0078 0.38289-0.04175 0.55709-0.02725 0.39623 0.03348 0.64211 0.17008 0.91937 0.31603 0.15475 0.08157 0.29542 0.13792 0.3459 0.23612 0.03513 0.06818 0.01804 0.15912 0.05826 0.23612 0.0846 0.16304 0.43164 0.24247 0.30585 0.5249 0.05755 0.08269 0.18661 0.11089 0.32588 0.16891 0.11111 0.04598 0.20542 0.14169 0.32588 0.1562 0.07825 0.0089 0.16237-0.01271 0.22939-0.01271 0.21769 0.01071 0.36659 0.06826 0.55526 0.11624 0.11708 0.03236 0.26922 0.04379 0.3459 0.08173 0.09735 0.04497 0.10986 0.19412 0.22938 0.2343 0.07846 0.0279 0.25162-0.01116 0.38232 0 0.20557 0.01674 0.48606 0.096 0.67177 0.10716 0.11279 0.0011 0.20592-0.04022 0.30585-0.02906 0.46932 0.02444 0.73412 0.4093 1.187 0.5249 0.1403 0.03794 0.36371 0.0091 0.4606 0.03815 0.16949 0.05033 0.31409 0.4073 0.32588 0.56486 0.03875 0.4766-0.49593 0.62752-0.80467 0.94268-0.06437 0.06595-0.09883 0.17185-0.19116 0.26336-0.18388 0.18513-0.38918 0.22292-0.3641 0.56305 0.0057 0.09363 0.07646 0.1839 0.07646 0.28879 0 0.12632-0.01834 0.29154-0.06007 0.40503-0.03209 0.08704-0.13575 0.15689-0.15292 0.23612-0.01543 0.08001 0.03414 0.14262 0.02002 0.21069-0.01635 0.07555-0.12547 0.18166-0.20937 0.28879-0.177 0.22373-0.21445 0.48537-0.57346 0.57576-0.21088 0.05245-0.49929 0.02453-0.73003 0.0781-0.09333 0.02187-0.21131 0.08123-0.32588 0.11806-0.33342 0.10635-0.80774 0.25131-0.89934 0.48677-0.08228 0.20968 0.1132 0.37636 0.05644 0.61572-0.05933 0.0712-0.1392 0.14012-0.22939 0.22158-0.02174 0.02009-0.03704 0.04167-0.05462 0.06176-0.38525 0.02201-0.77384 0.03593-1.167 0.03632a14.913 10.229 0 0 0 0.01457 0 14.913 10.229 0 0 0 14.725-8.6891c-0.22677 0.04213-0.43498 0.09758-0.60442 0.14712-0.21819 0.06673-0.43969 0.15957-0.63172 0.17073-0.18188 0.0056-0.36027-0.06582-0.53523-0.0781-0.22838-0.01562-0.52367-0.0025-0.75006 0.02542-0.22011 0.02678-0.41767 0.13414-0.61169 0.1453-0.37151 0.01908-0.7244-0.23102-0.95756-0.35599-0.14272-0.07611-0.28878-0.13634-0.42236-0.20887-0.14314-0.077-0.32882-0.12251-0.44057-0.19616-0.15144-0.09999-0.15098-0.27416-0.22938-0.40685-0.09342-0.15623-0.37675-0.26933-0.59349-0.41774-0.16211-0.11092-0.53486-0.27684-0.57529-0.41956-0.02102-0.07276 0.03958-0.1587 0.03641-0.23793-0.01004-0.11494-0.13495-0.17897-0.1329-0.26154 4e-3 -0.11494 0.20168-0.20442 0.24942-0.3015 0.02477-0.04966 0.01264-0.11983 0.03824-0.18344 0.05373-0.13302 0.17975-0.21212 0.1511-0.40685-0.01157-0.07745-0.11153-0.1484-0.1147-0.24883-0.0037-0.06919 0.06142-0.10712 0.05826-0.17073-0.0145-0.11182-0.22697-0.13321-0.24942-0.26154-0.02226-0.13268 0.18441-0.24122 0.30585-0.39232 0.0536-0.06751 0.0876-0.17208 0.13653-0.22341 0.10745-0.11159 0.28012-0.1656 0.36228-0.27608 0.06101-0.08102 0.07999-0.20128 0.13472-0.26154 0.07064-0.07812 0.21157-0.12074 0.3459-0.2234 0.10895-0.08381 0.15301-0.18434 0.22939-0.2234 0.09624-0.04798 0.23936-0.05846 0.34408-0.09082 0.35465-0.11059 0.6134-0.25432 0.78465-0.48677-0.05229-0.21091 0.02783-0.29755 0.15475-0.44317 0.11708-0.13458 0.20263-0.26335 0.40234-0.34146 0.23948-0.09262 0.46653-0.10222 0.63355-0.27608 0.07081-0.07365 0.1559-0.18659 0.1857-0.27608a14.913 10.229 0 0 0-0.37685-0.36325c-0.17222-0.0043-0.40768 0.07908-0.49883-0.04177-0.03109-0.0414 0.01179-0.1377 0-0.18345-0.02256-0.08559-0.12474-0.14708-0.13653-0.21069-0.0022-0.03164 0.01287-0.06605 0.03277-0.09989a14.913 10.229 0 0 0-10.118-3.6435zm-3.0548 0.03633a14.913 10.229 0 0 0-0.99038 0.09444c0.3255-0.04109 0.65763-0.06813 0.99038-0.09444zm-1.491 0.17255a14.913 10.229 0 0 0-0.88478 0.14349c0.28994-0.05642 0.588-0.09873 0.88478-0.14349zm-2.1646 0.43591a14.913 10.229 0 0 0-0.39688 0.11988c0.0024 3.93e-4 0.0047 0.0019 0.0073 0.0019 0.12056 0.0071 0.27046-0.04891 0.3896-0.12169zm-2.7617 0.97169a14.913 10.229 0 0 0-0.60442 0.29787c0.17613-0.0043 0.49514-0.02283 0.52432-0.0327 0.18629-0.05444 0.16384-0.16271 0.0801-0.26518zm0.39869 0.40685c-0.1524-0.0089-0.30878 0.04465-0.3641 0.09263-0.0065 0.07811 0.09005 0.0915 0.07829 0.17073-0.18659 0.09095-0.08694 0.39569 0.09649 0.40685 0.19451 0.01149 0.29502-0.33564 0.55526-0.36689 0.09442-0.01116 0.14237 0.03658 0.26762 0.02542 0.1512-0.08113 0.08376-0.24524-0.07646-0.27426-0.06297-0.01004-0.14762 0.02725-0.24942 0.02725-0.108-0.0056-0.21647-0.06876-0.30585-0.07992h-0.0019v-0.0019zm-0.86292 0.04359c-0.16007-0.0045-0.42268 0.04841-0.5152 0.09082-0.08445 0.04017-0.14184 0.13815-0.22939 0.21069-0.09034 0.07454-0.19236 0.1285-0.26944 0.19434-0.06882 0.05814-0.45859 0.44254-0.15475 0.48494 0.12967 0.01853 0.3989-0.16582 0.42418-0.23612 0.08669-0.24036 0.24458-0.41016 0.51703-0.52309 0.15774-0.06517 0.31668-0.05645 0.34226-0.19616-0.02058-0.01451-0.06138-0.02542-0.1147-0.02542zm2.2684 0.4686c-0.09712-0.0033-0.20648 0.01271-0.29493 0.01271-0.12543 0.0078-0.27585 0.02721-0.28764 0.09082 0.19934 0.06383 0.74585 0.10962 0.80832-0.06357-0.03993-0.02567-0.12856-0.03815-0.22575-0.03815zm-1.2398 0.32148v0.0019c-0.19614 0.0045-0.38055 0.06974-0.54797 0.08537-0.13292 0.01083-0.37606-0.0183-0.3459 0.11806 0.02469 0.11048 0.27676 0.07232 0.42236 0.03996 0.30283-0.06573 0.49364-0.12298 0.66995-0.22341-0.06806-0.01004-0.13384-0.0218-0.19844-0.0218zm19.128 0.86636c0.13193 0.11287 0.25943 0.22812 0.38413 0.34509a14.913 10.229 0 0 0-0.38413-0.34509zm0.93207 0.87182c0.06701 0.0702 0.12843 0.14293 0.19297 0.21432a14.913 10.229 0 0 0-0.19297-0.21432zm0.7009 0.81914c0.05782 0.07496 0.11595 0.14916 0.17113 0.22522a14.913 10.229 0 0 0-0.17113-0.22522zm1.1524 1.967c0.02396 0.05769 0.04484 0.11626 0.06736 0.17436a14.913 10.229 0 0 0-0.06736-0.17436zm0.31495 0.9263c0.01891 0.06975 0.04142 0.13862 0.05826 0.20887a14.913 10.229 0 0 0-0.05826-0.20887zm-29.501 0.99717a14.913 10.229 0 0 0-0.063718 0.87908 14.913 10.229 0 0 0 8.7057 9.2885c0.0027-0.04843 0.03898-0.08391 0.03823-0.13077-0.0025-0.13503-0.06467-0.27034-0.07646-0.40503-0.01881-0.24941 0.03949-0.42569-0.02002-0.65568-0.04439-0.1742-0.10146-0.43986-0.19297-0.55034-0.10252-0.12175-0.50513-0.33054-0.70818-0.40866-0.13404-0.052-0.29633-0.06826-0.44239-0.11624-0.31207-0.10501-0.9154-0.32604-1.0522-0.53761-0.039-0.06093-0.03422-0.1408-0.07646-0.20887-0.08328-0.13458-0.25915-0.25186-0.38413-0.38142-0.23653-0.2475-0.4252-0.55838-0.66814-0.81369-0.12284-0.12967-0.23144-0.27694-0.36593-0.3796-0.0789-0.06082-0.3306-0.11737-0.36228-0.20887-0.04328-0.12108-0.17566-0.2888-0.15475-0.38142 0.02749-0.12521 0.38285-0.22742 0.38232-0.34146-5.17e-4 -0.09697-0.18734-0.15172-0.22756-0.2343-0.09677-0.2002 0.05609-0.31801 0.17113-0.48494 0.03866-0.05479 0.07711-0.14328 0.11651-0.18345 0.07019-0.07265 0.2102-0.09261 0.30402-0.17073 0.05209-0.04363 0.08437-0.13367 0.15292-0.19616 0.14575-0.13246 0.38237-0.18392 0.44239-0.30332 0.05079-0.09742 0.08126-0.58357 0.02184-0.74649-0.0334-0.09441-0.16203-0.17227-0.21118-0.26154-0.08658-0.15813-0.10783-0.33809-0.3459-0.32693-0.14706 0.0018-0.24973 0.11132-0.34408 0.18162-0.02317 0.0934-0.01198 0.19438-0.15475 0.2234-0.21772 0.04397-0.3013-0.15754-0.55526-0.20887-0.1011-0.0212-0.26018-0.01806-0.32405-0.03815-0.18531-0.05702-0.24496-0.24349-0.44057-0.31603-0.16346-0.05914-0.30524-0.03997-0.40415-0.13259-0.04398-0.06316-0.0064-0.17674-0.01821-0.26154-0.21004-0.08414-0.38934-0.39746-0.63355-0.47223-0.16212-0.05022-0.41082-0.04507-0.61352-0.09082-0.09547-0.02343-0.17062-0.04976-0.26944-0.06538-0.12284-0.01785-0.24872-0.01919-0.34408-0.05267-0.32719-0.11113-0.53147-0.42634-0.88113-0.50674zm7.6881 1.4403c-0.01839 0-0.04006-2.62e-4 -0.06372 0.0109-0.13933 0.04397-0.06683 0.21248 0.07646 0.19797 0.13303-0.01462 0.11714-0.1959-0.01274-0.20706v-0.0019zm22.006 0.37779c-0.01 0.07487-0.02415 0.14902-0.03641 0.2234a14.913 10.229 0 0 0 0.03641-0.2234zm-19.328 8.8144a14.913 10.229 0 0 0 0.41326 0.0781c-0.13737-0.02653-0.27752-0.049-0.41326-0.0781zm1.4346 0.25791a14.913 10.229 0 0 0 0.64629 0.07266c-0.21588-0.02387-0.43368-0.04252-0.64629-0.07266zm1.4946 0.15984a14.913 10.229 0 0 0 1.2379 0.04722c-0.4167-0.0055-0.83082-0.01865-1.2379-0.04722z" opacity=".15" stroke-width="1.47"/>
 </g>
</svg>
