<?xml version="1.0" encoding="UTF-8"?>
<svg width="200mm" height="200mm" version="1.1" viewBox="0 0 200 200" xmlns="http://www.w3.org/2000/svg" xmlns:cc="http://creativecommons.org/ns#" xmlns:dc="http://purl.org/dc/elements/1.1/" xmlns:rdf="http://www.w3.org/1999/02/22-rdf-syntax-ns#" xmlns:xlink="http://www.w3.org/1999/xlink">
 <metadata>
  <rdf:RDF>
   <cc:Work rdf:about="">
    <dc:format>image/svg+xml</dc:format>
    <dc:type rdf:resource="http://purl.org/dc/dcmitype/StillImage"/>
    <dc:title/>
   </cc:Work>
  </rdf:RDF>
 </metadata>
 <defs>
  <linearGradient id="linearGradient1082">
   <stop stop-color="#393939" offset="0"/>
   <stop stop-color="#393939" stop-opacity="0" offset="1"/>
  </linearGradient>
  <linearGradient id="linearGradient4747-2" x1="170.46" x2="289.66" y1="704.73" y2="704.73" gradientTransform="matrix(.20249 0 0 .20249 -25.739 133.81)" gradientUnits="userSpaceOnUse">
   <stop stop-color="#686b78" offset="0"/>
   <stop stop-color="#626262" offset=".25424"/>
   <stop stop-color="#626262" offset=".74364"/>
   <stop stop-color="#76768c" offset="1"/>
  </linearGradient>
  <radialGradient id="radialGradient1066" cx="122.66" cy="274.84" r="13.775" gradientTransform="matrix(.26551 0 0 .13547 -117.77 234.23)" gradientUnits="userSpaceOnUse">
   <stop stop-color="#894f00" stop-opacity=".263" offset="0"/>
   <stop stop-color="#ffdfb3" stop-opacity="0" offset="1"/>
  </radialGradient>
  <radialGradient id="radialGradient1088" cx="230.24" cy="244.86" r="3.2001" gradientTransform="matrix(1.0936 0 1.0709e-8 1.1616 29.724 -273.46)" gradientUnits="userSpaceOnUse" xlink:href="#linearGradient1082"/>
  <radialGradient id="radialGradient1092" cx="230.24" cy="244.86" r="3.2001" gradientTransform="matrix(.56245 0 -1.2434e-8 1.1392 136.06 -143.68)" gradientUnits="userSpaceOnUse" xlink:href="#linearGradient1082"/>
  <radialGradient id="radialGradient1100" cx="230.24" cy="244.86" r="3.2001" gradientTransform="matrix(.43432 0 0 .89048 187.26 -198.53)" gradientUnits="userSpaceOnUse" xlink:href="#linearGradient1082"/>
  <linearGradient id="linearGradient1597" x1="50.122" x2="159.45" y1="202.81" y2="202.81" gradientTransform="matrix(.18849 0 0 .18849 1.102 239.78)" gradientUnits="userSpaceOnUse">
   <stop stop-color="#383a3c" offset="0"/>
   <stop stop-color="#5e5f60" offset=".38259"/>
   <stop stop-color="#676869" offset=".54656"/>
   <stop stop-color="#585a5b" offset=".70526"/>
   <stop stop-color="#444749" offset=".86397"/>
   <stop stop-color="#73706b" offset="1"/>
  </linearGradient>
  <radialGradient id="radialGradient1618" cx="230.24" cy="244.86" r="3.2001" gradientTransform="matrix(.56245 0 -1.2434e-8 1.1392 -49.526 -1.2655)" gradientUnits="userSpaceOnUse" xlink:href="#linearGradient1082"/>
  <radialGradient id="radialGradient1631" cx="139.23" cy="271.41" r="64.024" gradientTransform="matrix(.18849 0 0 .094456 1.102 267.15)" gradientUnits="userSpaceOnUse">
   <stop offset="0"/>
   <stop stop-color="#eff0f1" stop-opacity=".157" offset="1"/>
  </radialGradient>
  <radialGradient id="radialGradient1647" cx="84.633" cy="271.15" r="28.587" gradientTransform="matrix(.18849 -.00030474 9.4262e-5 .058304 1.0766 275.11)" gradientUnits="userSpaceOnUse">
   <stop stop-color="#fff" offset="0"/>
   <stop stop-color="#fff" stop-opacity="0" offset="1"/>
  </radialGradient>
 </defs>
 <g transform="matrix(5.5241 0 0 5.5241 7.8604 -1453.8)">
  <g transform="matrix(1.023 0 0 1.023 -4.6458 -1.9928)">
   <path d="m20.845 261.66c-6.6649 0-12.068 1.3509-12.068 3.0171l0.021356 0.17283c2.6e-5 1.2e-4 -2.85e-5 1.8e-4 0 3.7e-4 0.35953 1.5855 5.6146 2.8435 12.047 2.8435 6.4332 2e-5 11.689-1.2583 12.047-2.8443l0.02096-0.17242c-9e-6 -1.6662-5.4031-3.0171-12.068-3.0171z" color="#000000" fill="url(#linearGradient4747-2)" opacity=".30797"/>
   <path d="m8.7769 264.67 2.8894 23.522c-4e-6 2.1756 4.115 3.9394 9.1913 3.9394 5.0764 0 9.1917-1.7638 9.1917-3.9394l2.8637-23.522c-5.65e-4 1.6661-5.4035 3.0167-12.068 3.0167-6.6646 1e-5 -12.067-1.3506-12.068-3.0167zm24.136 0c0-0.0654-0.01131-0.13023-0.02768-0.19458 0.01759 0.0648 0.02683 0.12966 0.02768 0.19458z" color="#000000" fill="url(#linearGradient1597)"/>
   <path d="m17.042 288.19a5.3885 2.698 0 0 0-4.746 1.4353c1.3387 1.4658 4.6672 2.5041 8.5619 2.5041 0.33749 0 0.67061-8e-3 0.99868-0.0232a5.3885 2.698 0 0 0 0.58698-1.2182v-9e-3a5.3885 2.698 0 0 0-5.4015-2.6893z" fill="url(#radialGradient1647)" opacity=".424" style="paint-order:fill markers stroke"/>
   <path d="m8.7769 264.67 2.8894 23.522c-4e-6 2.1756 4.115 3.9394 9.1913 3.9394 5.0764 0 9.1917-1.7638 9.1917-3.9394l2.8637-23.522c-5.65e-4 1.6661-5.4035 3.0167-12.068 3.0167-6.6646 1e-5 -12.067-1.3506-12.068-3.0167zm24.136 0c0-0.0654-0.01131-0.13023-0.02768-0.19458 0.01759 0.0648 0.02683 0.12966 0.02768 0.19458z" color="#000000" fill="url(#radialGradient1631)" opacity=".279"/>
   <path transform="matrix(.9462 -.3236 .39837 .91722 0 0)" d="m-81.541 271.46a3.6574 1.8661 0 0 1-3.6545 1.8661 3.6574 1.8661 0 0 1-3.6604-1.8631 3.6574 1.8661 0 0 1 3.6486-1.8691 3.6574 1.8661 0 0 1 3.6663 1.8601" fill="url(#radialGradient1066)" opacity=".308" style="paint-order:fill markers stroke"/>
   <path transform="matrix(.11344 .99355 -.982 -.18891 0 0)" d="m285.01 10.965a3.4997 3.7173 0 0 1-3.4968 3.7173 3.4997 3.7173 0 0 1-3.5025-3.7113 3.4997 3.7173 0 0 1 3.4912-3.7233 3.4997 3.7173 0 0 1 3.5081 3.7053" fill="url(#radialGradient1088)" opacity=".134" style="paint-order:fill markers stroke"/>
   <path transform="matrix(.54131 .84082 -.87642 .48155 0 0)" d="m267.36 135.26a1.7999 3.6456 0 0 1-1.7985 3.6456 1.7999 3.6456 0 0 1-1.8014-3.6398 1.7999 3.6456 0 0 1 1.7956-3.6515 1.7999 3.6456 0 0 1 1.8043 3.6339" fill="url(#radialGradient1092)" opacity=".17" style="paint-order:fill markers stroke"/>
   <path transform="matrix(.14263 .98978 -.9987 .051 0 0)" d="m288.65 19.509a1.3899 2.8497 0 0 1-1.3888 2.8497 1.3899 2.8497 0 0 1-1.391-2.8451 1.3899 2.8497 0 0 1 1.3865-2.8542 1.3899 2.8497 0 0 1 1.3933 2.8404" fill="url(#radialGradient1100)" opacity=".091" style="paint-order:fill markers stroke"/>
   <path transform="matrix(.99264 .12108 -.18979 .98182 0 0)" d="m81.773 277.68a1.7999 3.6456 0 0 1-1.7985 3.6456 1.7999 3.6456 0 0 1-1.8014-3.6398 1.7999 3.6456 0 0 1 1.7956-3.6515 1.7999 3.6456 0 0 1 1.8043 3.6338" fill="url(#radialGradient1618)" opacity=".101" style="paint-order:fill markers stroke"/>
  </g>
 </g>
</svg>
