<?xml version="1.0" encoding="UTF-8"?>
<!-- Created with Inkscape (http://www.inkscape.org/) -->
<svg width="64" height="64" version="1.1" viewBox="0 0 16.933 16.933" xmlns="http://www.w3.org/2000/svg" xmlns:cc="http://creativecommons.org/ns#" xmlns:dc="http://purl.org/dc/elements/1.1/" xmlns:rdf="http://www.w3.org/1999/02/22-rdf-syntax-ns#">
 <defs>
  <linearGradient id="linearGradient848" x1="-177.35" x2="-177.35" y1="-1.2655" y2="-15.817" gradientTransform="matrix(1 0 0 .88167 185.94 15.997)" gradientUnits="userSpaceOnUse">
   <stop stop-color="#dc5a8c" offset="0"/>
   <stop stop-color="#ff6ea0" offset="1"/>
  </linearGradient>
 </defs>
 <metadata>
  <rdf:RDF>
   <cc:Work rdf:about="">
    <dc:format>image/svg+xml</dc:format>
    <dc:type rdf:resource="http://purl.org/dc/dcmitype/StillImage"/>
    <dc:title/>
   </cc:Work>
  </rdf:RDF>
 </metadata>
 <circle cx="-302.94" cy="-325.41" r="0" fill="#5e4aa6" stroke-width=".26458"/>
 <rect x="1.1906" y="2.0514" width="14.552" height="12.83" ry="1.0702" fill="url(#linearGradient848)" stroke-width=".93897"/>
 <rect x="7.1437" y="2.3102" width="2.6458" height=".52918" ry=".26459" opacity=".35" style="paint-order:stroke markers fill"/>
 <g transform="translate(.0024633)">
  <rect x="2.5739" y="2.3102" width="1.0583" height=".52918" ry=".26459" opacity=".35" style="paint-order:stroke markers fill"/>
  <g transform="translate(-1.1121)">
   <rect x="14.937" y="2.3102" width=".52917" height=".52918" ry=".26459" opacity=".35" style="paint-order:stroke markers fill"/>
   <rect x="13.879" y="2.3102" width=".79375" height=".52918" ry=".26459" opacity=".35" style="paint-order:stroke markers fill"/>
   <rect x="13.085" y="2.3102" width=".52917" height=".52918" ry=".26459" opacity=".35" style="paint-order:stroke markers fill"/>
  </g>
 </g>
 <path transform="scale(.26458)" d="m8.5449 7.7539c-2.2408 0-4.0449 1.8041-4.0449 4.0449v0.56445h55v-0.56445c0-2.2408-1.8041-4.0449-4.0449-4.0449h-46.91z" opacity=".35" stroke-width="1.0736" style="paint-order:stroke markers fill"/>
 <path d="m3.9687 13.823c-0.29316 0-0.52916 0.23601-0.52916 0.52916v0.52916h10.054v-0.52916c0-0.29316-0.23601-0.52916-0.52916-0.52916z" fill="#fff" opacity=".35" stroke-width=".26458" style="paint-order:stroke markers fill"/>
 <g transform="translate(4.16e-5 -279.74)" fill="#d26496">
  <rect x="4.4979" y="292.77" width="1.3229" height="1.3229" ry=".13229" style="paint-order:stroke markers fill"/>
  <rect x="6.7028" y="292.77" width="1.3229" height="1.3229" ry=".13229" style="paint-order:stroke markers fill"/>
  <rect x="8.9076" y="292.77" width="1.3229" height="1.3229" ry=".13229" style="paint-order:stroke markers fill"/>
  <rect x="11.112" y="292.77" width="1.3229" height="1.3229" ry=".13229" style="paint-order:stroke markers fill"/>
 </g>
</svg>
