<?xml version="1.0" encoding="UTF-8"?>
<!-- Created with Inkscape (http://www.inkscape.org/) -->
<svg width="64" height="64" version="1.1" viewBox="0 0 16.933 16.933" xmlns="http://www.w3.org/2000/svg" xmlns:cc="http://creativecommons.org/ns#" xmlns:dc="http://purl.org/dc/elements/1.1/" xmlns:rdf="http://www.w3.org/1999/02/22-rdf-syntax-ns#">
 <defs>
  <linearGradient id="f" x1="-26.201" x2="-26.201" y1="1070.2" y2="1082.6" gradientUnits="userSpaceOnUse">
   <stop stop-color="#ff64a0" offset="0"/>
   <stop stop-color="#ff8cc8" offset="1"/>
  </linearGradient>
  <linearGradient id="g" x1="-9.912" x2="-9.912" y1="1081.4" y2="1139.8" gradientUnits="userSpaceOnUse">
   <stop stop-color="#ff4696" offset="0"/>
   <stop stop-color="#ff64a0" offset=".5"/>
   <stop stop-color="#eb3282" offset="1"/>
  </linearGradient>
  <linearGradient id="h" x1="-9.617" x2="-9.617" y1="1138.4" y2="1140.2" gradientUnits="userSpaceOnUse">
   <stop stop-color="#e63c8c" offset="0"/>
   <stop stop-color="#d22878" offset="1"/>
  </linearGradient>
  <linearGradient id="i" x1="99.903" x2="99.903" y1="884.11" y2="1016.2" gradientTransform="matrix(.30787 0 0 .30787 -32.785 818.62)" gradientUnits="userSpaceOnUse">
   <stop stop-color="#e63c8c" offset="0"/>
   <stop stop-color="#d22878" offset="1"/>
  </linearGradient>
 </defs>
 <metadata>
  <rdf:RDF>
   <cc:Work rdf:about="">
    <dc:format>image/svg+xml</dc:format>
    <dc:type rdf:resource="http://purl.org/dc/dcmitype/StillImage"/>
    <dc:title/>
   </cc:Work>
  </rdf:RDF>
 </metadata>
 <g transform="matrix(.081529 0 0 .081529 .2745 .16383)">
  <path transform="matrix(2.2139,0,0,2.2139,109.49,-2344.9)" d="m-44.762 1070.2h22.13c3.288 0 4.653 7.072 7.728 7.072h51.522a3.276 3.276 0 0 1 3.283 3.282v50.508c0 1.819-1.464-2.02-3.283-2.02h-81.38a3.276 3.276 0 0 1-3.283-3.283v-52.276a3.276 3.276 0 0 1 3.283-3.283z" color="#282828" fill="url(#f)" overflow="visible"/>
  <path transform="matrix(2.2139,0,0,2.2139,109.49,-2344.9)" d="m-44.762 1081.3h81.38a3.276 3.276 0 0 1 3.283 3.283v52.275a3.276 3.276 0 0 1-3.283 3.283h-81.38a3.276 3.276 0 0 1-3.283-3.283v-52.275a3.276 3.276 0 0 1 3.283-3.283z" color="#282828" fill="url(#g)" overflow="visible"/>
  <path d="m3.156 165.8v2.213h194.68v-2.213zm0 4.912v1.176c0 0.358 0.02 0.693 0.07 1.038h194.54c0.05-0.345 0.07-0.68 0.07-1.038v-1.176z" color="#282828" fill="#e63c8c" font-weight="400" opacity=".976" overflow="visible" style="text-indent:0;text-transform:none"/>
  <path transform="matrix(2.2139,0,0,2.2139,109.49,-2344.9)" d="m-47.75 1138.2a3.28 3.28 0 0 0 3 1.937h81.375c1.34 0 2.488-0.792 3-1.937z" color="#282828" fill="url(#h)" font-weight="400" opacity=".976" overflow="visible" style="text-indent:0;text-transform:none"/>
  <path transform="matrix(2.2139,0,0,2.2139,109.49,-2344.9)" d="m-10.465 1113.1c0 5.577 0.105 7.524-3.472 7.524-3.578 0-6.419 1.157-6.419 4.419s3.367 4.84 5.472 4.84c2.104 0 6.26-1.473 6.26-5.892v-19.992l17.888-4.156v15.31s0.21 1.84-2.157 1.84-7.576-0.683-7.576 4.315 5.05 4.682 5.84 4.682c0.789 0 5.892-0.842 5.892-6.787v-28.094l-21.833 4.209z" fill="url(#i)"/>
 </g>
</svg>
