<?xml version="1.0" encoding="UTF-8"?>
<!-- Created with Inkscape (http://www.inkscape.org/) -->
<svg width="64" height="64" version="1.1" viewBox="0 0 16.933 16.933" xmlns="http://www.w3.org/2000/svg" xmlns:cc="http://creativecommons.org/ns#" xmlns:dc="http://purl.org/dc/elements/1.1/" xmlns:rdf="http://www.w3.org/1999/02/22-rdf-syntax-ns#">
 <defs>
  <linearGradient id="linearGradient3027" x1="-26.201" x2="-26.201" y1="1070.2" y2="1082.6" gradientUnits="userSpaceOnUse">
   <stop stop-color="#fa5555" offset="0"/>
   <stop stop-color="#ff7878" offset="1"/>
  </linearGradient>
  <linearGradient id="linearGradient3029" x1="-9.912" x2="-9.912" y1="1081.4" y2="1139.8" gradientUnits="userSpaceOnUse">
   <stop stop-color="#f55050" offset="0"/>
   <stop stop-color="#ff6464" offset=".50962"/>
   <stop stop-color="#eb4646" offset="1"/>
  </linearGradient>
  <linearGradient id="linearGradient3031" x1="-9.617" x2="-9.617" y1="1138.4" y2="1140.2" gradientUnits="userSpaceOnUse">
   <stop stop-color="#d23232" offset="0"/>
   <stop stop-color="#d23232" offset="1"/>
  </linearGradient>
  <linearGradient id="linearGradient3033" x1="101.18" x2="101.18" y1="921.49" y2="1000.2" gradientTransform="translate(-4.3841,-848.34)" gradientUnits="userSpaceOnUse">
   <stop stop-color="#e64646" offset="0"/>
   <stop stop-color="#d23232" offset="1"/>
  </linearGradient>
 </defs>
 <metadata>
  <rdf:RDF>
   <cc:Work rdf:about="">
    <dc:format>image/svg+xml</dc:format>
    <dc:type rdf:resource="http://purl.org/dc/dcmitype/StillImage"/>
    <dc:title/>
   </cc:Work>
  </rdf:RDF>
 </metadata>
 <g transform="matrix(.081528 0 0 .081528 .27374 .16393)">
  <g color="#282828">
   <path transform="matrix(2.2139,0,0,2.2139,109.5,-2344.9)" d="m-44.762 1070.2h22.131c3.287 0 4.652 7.071 7.728 7.071h51.522a3.276 3.276 0 0 1 3.283 3.283v50.508c0 1.819-1.464-2.02-3.283-2.02h-81.38a3.276 3.276 0 0 1-3.283-3.283v-52.275a3.276 3.276 0 0 1 3.283-3.283z" fill="url(#linearGradient3027)"/>
   <path transform="matrix(2.2139,0,0,2.2139,109.5,-2344.9)" d="m-44.762 1081.3h81.38a3.276 3.276 0 0 1 3.283 3.283v52.275a3.276 3.276 0 0 1-3.283 3.283h-81.38a3.276 3.276 0 0 1-3.283-3.283v-52.275a3.276 3.276 0 0 1 3.283-3.283z" fill="url(#linearGradient3029)"/>
   <path d="m3.16 165.84v2.214h194.68v-2.214h-194.69zm0 4.87v1.176c0 0.359 0.019 0.694 0.068 1.038h194.55c0.05-0.344 0.069-0.679 0.069-1.038v-1.176h-194.69z" fill="#d23232" opacity=".976" style="text-indent:0;text-transform:none"/>
   <path transform="matrix(2.2139,0,0,2.2139,109.5,-2344.9)" d="m-47.75 1138.2a3.28 3.28 0 0 0 3 1.938h81.375c1.34 0 2.488-0.793 3-1.938z" fill="url(#linearGradient3031)" opacity=".976" style="text-indent:0;text-transform:none"/>
  </g>
  <path d="m73.329 73.09a2.7 2.7 0 0 0-2.7 2.7v73.217a2.7 2.7 0 0 0 2.7 2.7h54.323a2.7 2.7 0 0 0 2.7-2.7v-47.28l-28.639-28.638zm2.7 5.399h19.664c3.09 0.267 5.135 1.595 5.135 8.35v13.16h13.581c3.306 0 9.275-0.123 10.544 3.542v42.767h-48.924z" color="#282828" fill="url(#linearGradient3033)" style="isolation:auto;mix-blend-mode:normal;text-decoration-color:#282828;text-decoration-line:none;text-decoration-style:solid;text-indent:0;text-transform:none;white-space:normal"/>
 </g>
</svg>
