<?xml version="1.0" encoding="UTF-8"?>
<!-- Created with Inkscape (http://www.inkscape.org/) -->
<svg width="64" height="64" version="1.1" viewBox="0 0 16.933 16.933" xmlns="http://www.w3.org/2000/svg" xmlns:cc="http://creativecommons.org/ns#" xmlns:dc="http://purl.org/dc/elements/1.1/" xmlns:rdf="http://www.w3.org/1999/02/22-rdf-syntax-ns#">
 <defs>
  <linearGradient id="j" x1="20.912" x2="431.5" y1="137.4" y2="418.87" gradientTransform="matrix(.029162 0 0 .029162 .90446 2.4092)" gradientUnits="userSpaceOnUse">
   <stop stop-color="#f05050" offset="0"/>
   <stop stop-color="#c84641" offset="1"/>
  </linearGradient>
  <linearGradient id="d" x1="82.992" x2="466.53" y1="25.57" y2="423.03" gradientTransform="matrix(.029162 0 0 .029162 .90446 2.4092)" gradientUnits="userSpaceOnUse">
   <stop stop-color="#f05050" offset="0"/>
   <stop stop-color="#c84641" offset="1"/>
  </linearGradient>
  <linearGradient id="a" x1="284.08" x2="284.08" y1="35.201" y2="59.891" gradientTransform="matrix(.029162 0 0 .029162 .90446 2.4092)" gradientUnits="userSpaceOnUse">
   <stop stop-color="#f05050" offset="0"/>
   <stop stop-color="#c84641" offset="1"/>
  </linearGradient>
 </defs>
 <metadata>
  <rdf:RDF>
   <cc:Work rdf:about="">
    <dc:format>image/svg+xml</dc:format>
    <dc:type rdf:resource="http://purl.org/dc/dcmitype/StillImage"/>
    <dc:title/>
   </cc:Work>
  </rdf:RDF>
 </metadata>
 <g stroke-width=".029162">
  <path d="m12.427 4.1041v0.91256h-6.4776v-1.6007c0-0.54781 0.44426-0.99219 0.99219-0.99219h2.2824c0.3643 0 0.69897 0.19946 0.87235 0.51956l0.31235 0.57617c0.19536 0.36031 0.57219 0.5846 0.98171 0.5846z" fill="url(#a)"/>
  <path d="m7.6808 4.6291-1.6363-1.6363c-0.060609 0.12838-0.094661 0.2718-0.094661 0.42319v1.6007h2.1184z" opacity=".25"/>
  <path d="m6.3274 3.5195-0.31224-0.57617c-0.17349-0.3201-0.50828-0.51956-0.87235-0.51956h-2.2826c-0.54792 0-0.99218 0.44426-0.99218 0.99219v10.526c0 0.54792 0.44426 0.99207 0.99218 0.99207h11.983c0.54792 0 0.99207-0.44415 0.99207-0.99207v-8.8455c0-0.54792-0.44415-0.99207-0.99207-0.99207h-7.534c-0.40974 0-0.78657-0.22441-0.98182-0.58472z" fill="url(#d)"/>
  <path d="m2.8602 14.934h11.983c0.54792 0 0.99207-0.44415 0.99207-0.99207v-7.4585l-1.4014-1.4014-4.3329-0.031784c-0.16905 0.3119-0.4953 0.50623-0.85013 0.50623h-6.5237c-0.47445 0-0.85913 0.38468-0.85913 0.85914v7.5263c0 0.54792 0.44426 0.99207 0.99218 0.99207z" fill-opacity=".39216" opacity=".25"/>
  <path d="m14.737 5.6045v8.7417c0 0.26143-0.17053 0.48299-0.40667 0.55932-0.05719 0.01846-0.1179 0.02848-0.18112 0.02848h-11.303c-0.32454 0-0.58779-0.26314-0.58779-0.58779v-8.7417c0-0.32465 0.26325-0.58779 0.58779-0.58779h11.303c0.32454 0 0.58779 0.26314 0.58779 0.58779z" fill="#f0f0f0"/>
  <path d="m14.843 14.934h-12.116c-0.47468 0-0.85914-0.3848-0.85914-0.85914l-0.95733-7.4629c-0.058784-0.45793 0.298-0.86346 0.75969-0.86346h10.55c0.38526 0 0.71059 0.28615 0.75969 0.66833l0.98216 7.6362c0 0.48664 0.39437 0.88101 0.88078 0.88101z" fill="url(#j)"/>
 </g>
 <circle cx="-302.94" cy="-325.41" r="0" fill="#5e4aa6" stroke-width=".26458"/>
 <circle cx="-311.62" cy="-325.5" r="0" fill="#5e4aa6" stroke-width=".26458"/>
 <g transform="matrix(.75086 0 0 .75086 1.5322 2.625)" opacity=".15" stroke-width=".10058">
  <path d="m6.7513 12.384 0.55954-0.32618c-0.00381-0.0033-0.00101-0.0043 0.00611-0.0036l0.27384-0.15964c0.11019-0.06427 0.16886-0.18758 0.15302-0.32176l-0.043399-0.36762s-0.12196-0.12824-0.24987-0.33423c-1.19e-5 -1e-4 -1.243e-4 -2.01e-4 -1.361e-4 -3.01e-4 -0.016761-0.02696-0.033498-0.05542-0.050154-0.08489-0.00229-0.0041-0.00456-8e-3 -0.00687-0.01217-0.016975-0.03048-0.033768-0.06196-0.050033-0.09495-0.00105-0.0021-0.00203-0.0044-0.00308-0.0065-0.014307-0.02917-0.028014-0.05924-0.041416-0.09012-0.00361-0.0084-0.00721-0.0168-0.01072-0.02524-0.014173-0.034-0.027812-0.0686-0.040286-0.1044-0.089822-0.05371-0.15655-0.14695-0.16907-0.25296l-0.0475-0.40236c-0.010449-0.08851 0.019533-0.16767 0.074256-0.22299l-0.067056-0.56808c-0.15514-0.11024-0.38775-0.21474-0.72942-0.21474-0.96185 0-0.91081 0.80464-0.91081 0.80464l0.05931 0.5024c-0.047266 0.04777-0.086878 0.11607-0.077854 0.19251l0.041024 0.3475c0.010817 0.09163 0.068494 0.17209 0.14591 0.21866 0.13142 0.37798 0.45492 0.65005 0.45492 0.65005l0.037485 0.31753c0.013667 0.11577-0.037012 0.22238-0.13216 0.2778l-0.62439 0.42264c-0.20938 0.1221-0.32099 0.35666-0.29089 0.61163l0.033211 0.28132h1.4081l-0.038459-0.32578c-0.034849-0.2952 0.094309-0.56687 0.33682-0.70818z"/>
  <path d="m10.077 12.39-1.0174-0.48037c-0.13144-0.06206-0.22488-0.18899-0.24126-0.32779l-0.044503-0.37697c0.023333-0.03068 0.049647-0.0702 0.077127-0.11687 0.10913-0.18487 0.18408-0.38834 0.22757-0.60187 0.11873-0.03792 0.19602-0.15178 0.18005-0.28706l-0.047495-0.40232c-0.010449-0.08851-0.059121-0.16767-0.1269-0.22299l-0.068666-0.58165s0.012525-0.90522-1.2132-0.90522c-1.2259 0-0.99952 0.90522-0.99952 0.90522l0.068666 0.58165c-0.054722 0.055319-0.084705 0.13448-0.074256 0.22299l0.047495 0.40232c0.012515 0.10601 0.079243 0.19925 0.16899 0.25316 0.15215 0.43772 0.45265 0.75264 0.45265 0.75264l0.043399 0.36762c0.015828 0.13407-0.042825 0.25748-0.15303 0.32166l-0.83948 0.48952c-0.24251 0.14132-0.37167 0.41298-0.33682 0.70818l0.038459 0.32578h4.4255l-0.03613-0.30606c-0.03607-0.30556-0.24174-0.58487-0.53115-0.72156z"/>
 </g>
</svg>
