<?xml version="1.0" encoding="UTF-8"?>
<!-- Created with Inkscape (http://www.inkscape.org/) -->
<svg width="64" height="64" version="1.1" viewBox="0 0 16.933 16.933" xmlns="http://www.w3.org/2000/svg" xmlns:cc="http://creativecommons.org/ns#" xmlns:dc="http://purl.org/dc/elements/1.1/" xmlns:rdf="http://www.w3.org/1999/02/22-rdf-syntax-ns#">
 <defs>
  <linearGradient id="SVGID_16_-3" x1="236.94" x2="236.94" y1="430.06" y2="407.46" gradientTransform="matrix(.35109 0 0 -.35109 18.225 203.64)" gradientUnits="userSpaceOnUse">
   <stop stop-color="#C2CECE" offset="0"/>
   <stop stop-color="#97AAAA" offset="1"/>
  </linearGradient>
  <linearGradient id="SVGID_9_-6" x1="236.94" x2="236.94" y1="527.43" y2="485.93" gradientTransform="matrix(.35109 0 0 -.35109 18.225 203.64)" gradientUnits="userSpaceOnUse">
   <stop stop-color="#C2CECE" offset="0"/>
   <stop stop-color="#97AAAA" offset="1"/>
  </linearGradient>
  <linearGradient id="SVGID_7_-7" x1="357.6" x2="209.63" y1="289.02" y2="269.62" gradientTransform="matrix(.35109 0 0 -.35109 18.225 203.64)" gradientUnits="userSpaceOnUse">
   <stop stop-color="#C2CECE" offset="0"/>
   <stop stop-color="#97AAAA" offset="1"/>
  </linearGradient>
  <linearGradient id="SVGID_6_-5" x1="238.45" x2="116.51" y1="287" y2="267.6" gradientTransform="matrix(.35109 0 0 -.35109 18.225 203.64)" gradientUnits="userSpaceOnUse">
   <stop stop-color="#C2CECE" offset="0"/>
   <stop stop-color="#97AAAA" offset="1"/>
  </linearGradient>
  <linearGradient id="SVGID_5_-3" x1="146.95" x2="-1.0222" y1="288.51" y2="269.11" gradientTransform="matrix(.35109 0 0 -.35109 18.225 203.64)" gradientUnits="userSpaceOnUse">
   <stop stop-color="#C2CECE" offset="0"/>
   <stop stop-color="#97AAAA" offset="1"/>
  </linearGradient>
  <linearGradient id="SVGID_3_-5" x1="236.94" x2="236.94" y1="207.1" y2="28.618" gradientTransform="matrix(.35109 0 0 -.35109 18.225 203.64)" gradientUnits="userSpaceOnUse">
   <stop stop-color="#C2CECE" offset="0"/>
   <stop stop-color="#97AAAA" offset="1"/>
  </linearGradient>
  <linearGradient id="SVGID_1_-6" x1="236.94" x2="236.94" y1="65.258" y2="45.857" gradientTransform="matrix(.35109 0 0 -.35109 18.225 203.64)" gradientUnits="userSpaceOnUse">
   <stop stop-color="#C2CECE" offset="0"/>
   <stop stop-color="#97AAAA" offset="1"/>
  </linearGradient>
 </defs>
 <metadata>
  <rdf:RDF>
   <cc:Work rdf:about="">
    <dc:format>image/svg+xml</dc:format>
    <dc:type rdf:resource="http://purl.org/dc/dcmitype/StillImage"/>
    <dc:title/>
   </cc:Work>
  </rdf:RDF>
 </metadata>
 <circle cx="-302.94" cy="-325.41" r="0" fill="#5e4aa6" stroke-width=".26458"/>
 <circle cx="-311.62" cy="-325.5" r="0" fill="#5e4aa6" stroke-width=".26458"/>
 <g transform="matrix(.087205 0 0 .087205 -.6225 -.42923)" stroke-width=".32914">
  <path d="m55.142 176.79h92.533v3.9569c0 4.365-3.5385 7.9035-7.9035 7.9035h-76.726c-4.365 0-7.9035-3.5385-7.9035-7.9035z" fill="url(#SVGID_1_-6)"/>
  <path d="m169.49 53.742-11.952 117.6c-0.54176 5.3313-5.0312 9.3879-10.39 9.3879h-91.472c-5.3593 0-9.8484-4.0563-10.39-9.3879l-11.952-117.6c-0.62536-6.1539 4.2047-11.5 10.39-11.5h115.38c6.1858 3.28e-4 11.016 5.3462 10.39 11.5z" fill="url(#SVGID_3_-5)"/>
  <path d="m68.793 163.47c-4.81 0-9.0117-3.9279-9.3902-8.8531l-7.6389-99.34c-0.53945-7.0175 3.7916-12.819 9.6852-12.819 5.8932 0 10.929 5.8017 11.241 12.819l4.4186 99.34c0.21888 4.9252-3.5056 8.8531-8.3159 8.8531z" fill="url(#SVGID_5_-3)"/>
  <path d="m101.41 163.47c-4.81 0-8.7734-3.9279-8.8531-8.8531l-1.6101-99.34c-0.11358-7.0175 4.5701-12.82 10.463-12.82 5.8932 0 10.577 5.8017 10.463 12.819l-1.6101 99.34c-0.0796 4.9258-4.0431 8.8538-8.8531 8.8538z" fill="url(#SVGID_6_-5)"/>
  <path d="m134.02 163.47c-4.81 0-8.5351-3.9279-8.3159-8.8531l4.4186-99.34c0.31201-7.0175 5.3475-12.819 11.241-12.819 5.8932 0 10.225 5.8017 9.6852 12.819l-7.6389 99.34c-0.3785 4.9252-4.5799 8.8531-9.3902 8.8531z" fill="url(#SVGID_7_-7)"/>
  <path d="m131.63 38.146h-60.452v-6.0094c0-6.6288 5.3738-12.002 12.003-12.002h36.447c6.6288 0 12.002 5.3735 12.002 12.002z" fill="url(#SVGID_9_-6)"/>
  <path d="m177.36 60.263h-151.9c-4.1336 0-7.4846-3.3509-7.4846-7.4849v-10.092c0-4.1336 3.3509-7.4849 7.4846-7.4849h151.9c4.1336 0 7.4846 3.3509 7.4846 7.4849v10.092c0 4.1339-3.3509 7.4849-7.4846 7.4849z" fill="url(#SVGID_16_-3)"/>
 </g>
</svg>
