<?xml version="1.0" encoding="UTF-8" standalone="no"?>
<!-- Created with Inkscape (http://www.inkscape.org/) -->

<svg
   xmlns:dc="http://purl.org/dc/elements/1.1/"
   xmlns:cc="http://creativecommons.org/ns#"
   xmlns:rdf="http://www.w3.org/1999/02/22-rdf-syntax-ns#"
   xmlns:svg="http://www.w3.org/2000/svg"
   xmlns="http://www.w3.org/2000/svg"
   xmlns:xlink="http://www.w3.org/1999/xlink"
   xmlns:sodipodi="http://sodipodi.sourceforge.net/DTD/sodipodi-0.dtd"
   xmlns:inkscape="http://www.inkscape.org/namespaces/inkscape"
   width="64"
   height="64"
   version="1.1"
   viewBox="0 0 16.933 16.933"
   id="svg37"
   sodipodi:docname="default-folder-pictures.svg"
   inkscape:version="0.92.4 5da689c313, 2019-01-14">
  <sodipodi:namedview
     pagecolor="#ffffff"
     bordercolor="#666666"
     borderopacity="1"
     objecttolerance="10"
     gridtolerance="10"
     guidetolerance="10"
     inkscape:pageopacity="0"
     inkscape:pageshadow="2"
     inkscape:window-width="1920"
     inkscape:window-height="1023"
     id="namedview39"
     showgrid="false"
     inkscape:zoom="3.6875"
     inkscape:cx="32"
     inkscape:cy="32"
     inkscape:window-x="0"
     inkscape:window-y="32"
     inkscape:window-maximized="1"
     inkscape:current-layer="svg37" />
  <defs
     id="defs19">
    <linearGradient
       id="c"
       x1="-26.201"
       x2="-26.201"
       y1="1070.2"
       y2="1082.6"
       gradientUnits="userSpaceOnUse">
      <stop
         stop-color="#78c3fd"
         offset="0"
         id="stop2" />
      <stop
         stop-color="#7bc6ff"
         offset="1"
         id="stop4" />
    </linearGradient>
    <linearGradient
       id="b"
       x1="-9.912"
       x2="-9.912"
       y1="1081.4"
       y2="1139.8"
       gradientUnits="userSpaceOnUse">
      <stop
         stop-color="#35a5fc"
         offset="0"
         id="stop7" />
      <stop
         stop-color="#45c0ff"
         offset=".5"
         id="stop9" />
      <stop
         stop-color="#4dacf6"
         offset="1"
         id="stop11" />
    </linearGradient>
    <linearGradient
       id="a-3"
       x1="-9.617"
       x2="-9.617"
       y1="1138.4"
       y2="1140.2"
       gradientUnits="userSpaceOnUse">
      <stop
         stop-opacity=".046784"
         offset="0"
         id="stop14" />
      <stop
         offset="1"
         id="stop16" />
    </linearGradient>
    <linearGradient
       id="e">
      <stop
         id="stop846"
         stop-color="#f5af3c"
         offset="0" />
      <stop
         id="stop848"
         stop-color="#e19b28"
         offset="1" />
    </linearGradient>
    <linearGradient
       id="d">
      <stop
         id="stop851"
         stop-color="#f5af3c"
         offset="0" />
      <stop
         id="stop853"
         stop-color="#e19b28"
         offset="1" />
    </linearGradient>
    <linearGradient
       id="b-3">
      <stop
         id="stop856"
         stop-color="#ffd250"
         offset="0" />
      <stop
         id="stop858"
         stop-color="#ffe664"
         offset="1" />
    </linearGradient>
    <linearGradient
       id="a">
      <stop
         id="stop861"
         stop-color="#ffc355"
         offset="0" />
      <stop
         id="stop863"
         stop-color="#ffd250"
         offset=".5" />
      <stop
         id="stop865"
         stop-color="#f5b94b"
         offset="1" />
    </linearGradient>
    <linearGradient
       y2="1082.581"
       x2="-26.201"
       y1="1070.198"
       x1="-26.201"
       gradientUnits="userSpaceOnUse"
       id="f"
       xlink:href="#b-3" />
    <linearGradient
       y2="1139.778"
       x2="-9.912"
       y1="1081.404"
       x1="-9.912"
       gradientUnits="userSpaceOnUse"
       id="g"
       xlink:href="#a" />
    <linearGradient
       y2="1140.19"
       x2="-9.617"
       y1="1138.386"
       x1="-9.617"
       gradientUnits="userSpaceOnUse"
       id="h"
       xlink:href="#d" />
    <linearGradient
       gradientUnits="userSpaceOnUse"
       y2="1124.684"
       x2="-6.545"
       y1="1093.065"
       x1="-6.545"
       id="i"
       xlink:href="#e" />
  </defs>
  <metadata
     id="metadata21">
    <rdf:RDF>
      <cc:Work
         rdf:about="">
        <dc:format>image/svg+xml</dc:format>
        <dc:type
           rdf:resource="http://purl.org/dc/dcmitype/StillImage" />
        <dc:title></dc:title>
      </cc:Work>
    </rdf:RDF>
  </metadata>
  <g
     id="g919"
     transform="matrix(0.08152868,0,0,0.08152868,0.27437269,0.16858822)">
    <path
       id="path881"
       transform="matrix(2.21386,0,0,2.21386,109.49,-2344.896)"
       overflow="visible"
       d="m -44.762,1070.206 h 22.13 c 3.288,0 4.653,7.072 7.728,7.072 h 51.522 a 3.276,3.276 0 0 1 3.283,3.282 v 50.508 c 0,1.819 -1.464,-2.02 -3.283,-2.02 h -81.38 a 3.276,3.276 0 0 1 -3.283,-3.283 v -52.276 a 3.276,3.276 0 0 1 3.283,-3.283 z"
       style="color:#282828;overflow:visible;fill:url(#f);marker:none"
       inkscape:connector-curvature="0" />
    <path
       id="path883"
       transform="matrix(2.21386,0,0,2.21386,109.49,-2344.896)"
       overflow="visible"
       style="color:#282828;overflow:visible;fill:url(#g);marker:none"
       d="m -44.762,1081.278 h 81.38 a 3.276,3.276 0 0 1 3.283,3.283 v 52.275 a 3.276,3.276 0 0 1 -3.283,3.283 h -81.38 a 3.276,3.276 0 0 1 -3.283,-3.283 v -52.275 a 3.276,3.276 0 0 1 3.283,-3.283 z"
       inkscape:connector-curvature="0" />
    <path
       id="path885"
       overflow="visible"
       font-weight="400"
       d="m 3.156,165.804 v 2.213 h 194.682 v -2.213 z m 0,4.912 v 1.176 c 0,0.358 0.02,0.693 0.07,1.038 h 194.542 c 0.05,-0.345 0.07,-0.68 0.07,-1.038 v -1.176 z"
       style="color:#282828;font-weight:400;line-height:normal;font-family:Sans;-inkscape-font-specification:Sans;text-indent:0;text-align:start;text-transform:none;overflow:visible;opacity:0.97600002;fill:#f5af3c;marker:none"
       inkscape:connector-curvature="0" />
    <path
       id="path887"
       transform="matrix(2.21386,0,0,2.21386,109.49,-2344.896)"
       overflow="visible"
       font-weight="400"
       d="m -47.75,1138.175 a 3.28,3.28 0 0 0 3,1.937 h 81.375 c 1.34,0 2.488,-0.792 3,-1.937 z"
       style="color:#282828;font-weight:400;line-height:normal;font-family:Sans;-inkscape-font-specification:Sans;text-indent:0;text-align:start;text-transform:none;overflow:visible;opacity:0.97600002;fill:url(#h);marker:none"
       inkscape:connector-curvature="0" />
    <path
       id="path889"
       transform="matrix(2.21386,0,0,2.21386,109.49,-2344.896)"
       d="M 9.264,1097.582 H 3.95 l -1.488,-2.232 c -0.425,-0.638 -1.063,-0.956 -1.807,-0.956 H -9.867 c -0.744,0 -1.381,0.318 -1.807,0.956 l -1.381,2.232 h -5.314 a 4.264,4.264 0 0 0 -4.252,4.251 v 18.068 a 4.264,4.264 0 0 0 4.252,4.251 H 9.264 a 4.264,4.264 0 0 0 4.251,-4.251 v -18.068 a 4.264,4.264 0 0 0 -4.251,-4.251 z m -26.57,7.44 a 2.132,2.132 0 0 1 -2.126,-2.126 c 0,-1.17 0.956,-2.126 2.125,-2.126 1.17,0 2.126,0.957 2.126,2.126 a 2.132,2.132 0 0 1 -2.126,2.126 z m 12.753,13.816 c -4.676,0 -8.502,-3.826 -8.502,-8.502 0,-4.677 3.826,-8.503 8.502,-8.503 4.677,0 8.503,3.826 8.503,8.503 0,4.676 -3.826,8.502 -8.503,8.502 z"
       inkscape:connector-curvature="0"
       style="fill:url(#i)" />
  </g>
</svg>
