<?xml version="1.0" encoding="UTF-8"?>
<!-- Created with Inkscape (http://www.inkscape.org/) -->
<svg width="64" height="64" version="1.1" viewBox="0 0 16.933 16.933" xmlns="http://www.w3.org/2000/svg" xmlns:cc="http://creativecommons.org/ns#" xmlns:dc="http://purl.org/dc/elements/1.1/" xmlns:rdf="http://www.w3.org/1999/02/22-rdf-syntax-ns#">
 <defs>
  <linearGradient id="f" x1="-26.201" x2="-26.201" y1="1070.2" y2="1082.6" gradientUnits="userSpaceOnUse">
   <stop stop-color="#b9b9b9" offset="0"/>
   <stop stop-color="#afafaf" offset="1"/>
  </linearGradient>
  <linearGradient id="g" x1="-9.912" x2="-9.912" y1="1081.4" y2="1139.8" gradientUnits="userSpaceOnUse">
   <stop stop-color="#9b9b9b" offset="0"/>
   <stop stop-color="#b9b9b9" offset=".5"/>
   <stop stop-color="#969696" offset="1"/>
  </linearGradient>
  <linearGradient id="h" x1="-9.617" x2="-9.617" y1="1138.4" y2="1140.2" gradientUnits="userSpaceOnUse">
   <stop stop-color="#787878" offset="0"/>
   <stop stop-color="#787878" offset="1"/>
  </linearGradient>
  <linearGradient id="a-3" x1="147.8" x2="147.8" y1="70.061" y2="142.36" gradientTransform="translate(-47.797,2.6442)" gradientUnits="userSpaceOnUse">
   <stop stop-color="#787878" offset="0"/>
   <stop stop-color="#8c8c8c" offset="1"/>
  </linearGradient>
 </defs>
 <metadata>
  <rdf:RDF>
   <cc:Work rdf:about="">
    <dc:format>image/svg+xml</dc:format>
    <dc:type rdf:resource="http://purl.org/dc/dcmitype/StillImage"/>
    <dc:title/>
   </cc:Work>
  </rdf:RDF>
 </metadata>
 <circle cx="-302.94" cy="-325.41" r="0" fill="#5e4aa6" stroke-width=".26458"/>
 <g transform="translate(7.0887e-5 -1.4486e-5)">
  <circle cx="-302.94" cy="-325.41" r="0" fill="#5e4aa6" stroke-width=".26458"/>
  <g transform="matrix(.081528 0 0 .081528 .27453 .16395)">
   <path transform="matrix(2.2139,0,0,2.2139,109.49,-2344.9)" d="m-44.762 1070.2h22.13c3.288 0 4.653 7.072 7.728 7.072h51.522a3.276 3.276 0 0 1 3.283 3.282v50.508c0 1.819-1.464-2.02-3.283-2.02h-81.38a3.276 3.276 0 0 1-3.283-3.283v-52.276a3.276 3.276 0 0 1 3.283-3.283z" fill="url(#f)" overflow="visible"/>
   <path transform="matrix(2.2139,0,0,2.2139,109.49,-2344.9)" d="m-44.762 1081.3h81.38a3.276 3.276 0 0 1 3.283 3.283v52.275a3.276 3.276 0 0 1-3.283 3.283h-81.38a3.276 3.276 0 0 1-3.283-3.283v-52.275a3.276 3.276 0 0 1 3.283-3.283z" fill="url(#g)" overflow="visible"/>
   <path d="m3.156 165.8v2.213h194.68v-2.213zm0 4.912v1.176c0 0.358 0.02 0.693 0.07 1.038h194.54c0.05-0.345 0.07-0.68 0.07-1.038v-1.176z" fill="#787878" font-weight="400" opacity=".976" overflow="visible" style="text-indent:0;text-transform:none"/>
   <path transform="matrix(2.2139,0,0,2.2139,109.49,-2344.9)" d="m-47.75 1138.2a3.28 3.28 0 0 0 3 1.937h81.375c1.34 0 2.488-0.792 3-1.937z" fill="url(#h)" font-weight="400" opacity=".976" overflow="visible" style="text-indent:0;text-transform:none"/>
   <path class="ColorScheme-Text" d="m100 72.705-10.07 26.125-27.93 1.4725 21.708 17.67-7.1725 27.028 23.465-15.2 23.465 15.2-7.1725-27.028 21.708-17.67-27.93-1.4725z" fill="url(#a-3)"/>
  </g>
 </g>
</svg>
