<?xml version="1.0" encoding="UTF-8" standalone="no"?>
<svg
   xmlns:dc="http://purl.org/dc/elements/1.1/"
   xmlns:cc="http://creativecommons.org/ns#"
   xmlns:rdf="http://www.w3.org/1999/02/22-rdf-syntax-ns#"
   xmlns:svg="http://www.w3.org/2000/svg"
   xmlns="http://www.w3.org/2000/svg"
   xmlns:sodipodi="http://sodipodi.sourceforge.net/DTD/sodipodi-0.dtd"
   xmlns:inkscape="http://www.inkscape.org/namespaces/inkscape"
   width="22"
   height="22"
   viewBox="0 0 22 22"
   version="1.1"
   id="svg7"
   sodipodi:docname="compass.svg"
   inkscape:version="1.0.2 (e86c870879, 2021-01-15)">
  <metadata
     id="metadata11">
    <rdf:RDF>
      <cc:Work
         rdf:about="">
        <dc:format>image/svg+xml</dc:format>
        <dc:type
           rdf:resource="http://purl.org/dc/dcmitype/StillImage" />
      </cc:Work>
    </rdf:RDF>
  </metadata>
  <sodipodi:namedview
     pagecolor="#ffffff"
     bordercolor="#666666"
     borderopacity="1"
     objecttolerance="10"
     gridtolerance="10"
     guidetolerance="10"
     inkscape:pageopacity="0"
     inkscape:pageshadow="2"
     inkscape:window-width="1920"
     inkscape:window-height="935"
     id="namedview9"
     showgrid="true"
     inkscape:zoom="17.613636"
     inkscape:cx="4.4090198"
     inkscape:cy="16.098323"
     inkscape:window-x="0"
     inkscape:window-y="38"
     inkscape:window-maximized="1"
     inkscape:current-layer="svg7">
    <inkscape:grid
       type="xygrid"
       id="grid836" />
  </sodipodi:namedview>
  <defs
     id="defs3">
    <style
       id="current-color-scheme"
       type="text/css">
   .ColorScheme-Text { color:#363636; } .ColorScheme-Highlight { color:#5294e2; }
  </style>
  </defs>
  <path
     style="fill:currentColor;stroke-width:1.28571"
     class="ColorScheme-Text"
     d="m 11,2 c -4.9705714,0 -9,4.0294286 -9,9 0,4.970571 4.0294286,9 9,9 4.970571,0 9,-4.029429 9,-9 0,-4.9705714 -4.029429,-9 -9,-9 z m 0,2.5714286 c 3.550371,0 6.428571,2.8782 6.428571,6.4285714 0,3.550371 -2.8782,6.428571 -6.428571,6.428571 -3.5503714,0 -6.4285714,-2.8782 -6.4285714,-6.428571 0,-3.5503714 2.8782,-6.4285714 6.4285714,-6.4285714 z M 15.5,6.5 11,7.9991629 C 9.4292429,7.9991629 7.9991629,9.4291143 7.9991629,11 L 6.5,15.5 11,14.000837 c 1.570757,0 3.000837,-1.43008 3.000837,-3.000837 z M 11,9.5008371 c 0.785417,0 1.499163,0.7137199 1.499163,1.4991629 C 12.499137,11.785314 11.785353,12.499163 11,12.499163 10.214621,12.499163 9.5008371,11.785314 9.5008371,11 9.5007985,10.214557 10.214596,9.5008371 11,9.5008371 Z"
     id="path5" />
</svg>
