<?xml version="1.0" encoding="UTF-8" standalone="no"?>
<svg
   xmlns:dc="http://purl.org/dc/elements/1.1/"
   xmlns:cc="http://creativecommons.org/ns#"
   xmlns:rdf="http://www.w3.org/1999/02/22-rdf-syntax-ns#"
   xmlns:svg="http://www.w3.org/2000/svg"
   xmlns="http://www.w3.org/2000/svg"
   xmlns:sodipodi="http://sodipodi.sourceforge.net/DTD/sodipodi-0.dtd"
   xmlns:inkscape="http://www.inkscape.org/namespaces/inkscape"
   width="32"
   height="32"
   version="1.1"
   id="svg17"
   sodipodi:docname="system-reboot.svg"
   inkscape:version="0.92.4 5da689c313, 2019-01-14">
  <sodipodi:namedview
     pagecolor="#ffffff"
     bordercolor="#666666"
     borderopacity="1"
     objecttolerance="10"
     gridtolerance="10"
     guidetolerance="10"
     inkscape:pageopacity="0"
     inkscape:pageshadow="2"
     inkscape:window-width="857"
     inkscape:window-height="480"
     id="namedview19"
     showgrid="false"
     inkscape:zoom="7.375"
     inkscape:cx="16"
     inkscape:cy="16"
     inkscape:window-x="0"
     inkscape:window-y="28"
     inkscape:window-maximized="0"
     inkscape:current-layer="svg17" />
  <metadata
     id="metadata2">
    <rdf:RDF>
      <cc:Work
         rdf:about="">
        <dc:format>image/svg+xml</dc:format>
        <dc:type
           rdf:resource="http://purl.org/dc/dcmitype/StillImage" />
        <dc:title />
      </cc:Work>
    </rdf:RDF>
  </metadata>
  <defs
     id="defs5">
    <style
       id="current-color-scheme"
       type="text/css">.ColorScheme-Text {
        color:#31363b;
      }
      .ColorScheme-Background{
        color:#E9E8E8;
      }
      .ColorScheme-ViewText {
        color:#31363b;
      }
      .ColorScheme-ViewBackground{
        color:#ffffff;
      }
      .ColorScheme-ViewHover {
        color:#000000;
      }
      .ColorScheme-ViewFocus{
        color:#5a5a5a;
      }
      .ColorScheme-ButtonText {
        color:#31363b;
      }
      .ColorScheme-ButtonBackground{
        color:#E9E8E8;
      }
      .ColorScheme-ButtonHover {
        color:#1489ff;
      }
      .ColorScheme-ButtonFocus{
        color:#2B74C7;
      }</style>
  </defs>
  <g
     transform="translate(118)"
     id="g15">
    <rect
       x="-118"
       width="32"
       height="32"
       rx="0"
       ry="0"
       color="#333333"
       opacity="0"
       stroke-width="2"
       id="rect7" />
    <path
       d="m-102 0c-8.8286 0-16 7.1714-16 16s7.1714 16 16 16c8.8275 0 16-7.1714 16-16 0-8.8275-7.1714-16-16-16z"
       color="#000000"
       opacity="0"
       overflow="visible"
       id="path9" />
    <path
       d="m-102 1a15 15 0 0 0-15 15 15 15 0 0 0 15 15 15 15 0 0 0 15-15 15 15 0 0 0-15-15zm0.39258 6.0039c0.40755 0.017947 0.81749 0.065369 1.2285 0.14062 4.3843 0.80273 7.5261 4.7016 7.377 9.1562-0.1491 4.4547-3.5445 8.1348-7.9727 8.6426-4.4282 0.50777-8.5671-2.308-9.7207-6.6133a0.50002 0.50002 0 1 1 0.96484-0.25781c1.0273 3.8338 4.6994 6.3311 8.6426 5.8789 3.9432-0.45216 6.9532-3.7168 7.0859-7.6836 0.13276-3.9668-2.6545-7.4239-6.5586-8.1387-3.756-0.6877-7.4344 1.3694-8.8496 4.8711h2.9102c0.277 0 0.5 0.223 0.5 0.5s-0.223 0.5-0.5 0.5h-4c-0.277 0-0.5-0.223-0.5-0.5v-4c0-0.277 0.223-0.5 0.5-0.5s0.5 0.223 0.5 0.5v2.3887c0.29853-0.58087 0.64842-1.1253 1.0547-1.6172 1.7739-2.1478 4.485-3.3932 7.3379-3.2676z"
       fill="#ff8200"
       id="path13" />
  </g>
</svg>
