<?xml version="1.0" encoding="UTF-8" standalone="no"?>
<svg
   xmlns:dc="http://purl.org/dc/elements/1.1/"
   xmlns:cc="http://creativecommons.org/ns#"
   xmlns:rdf="http://www.w3.org/1999/02/22-rdf-syntax-ns#"
   xmlns:svg="http://www.w3.org/2000/svg"
   xmlns="http://www.w3.org/2000/svg"
   xmlns:sodipodi="http://sodipodi.sourceforge.net/DTD/sodipodi-0.dtd"
   xmlns:inkscape="http://www.inkscape.org/namespaces/inkscape"
   width="32"
   height="32"
   version="1.1"
   id="svg12"
   sodipodi:docname="system-switch-user.svg"
   inkscape:version="0.92.4 5da689c313, 2019-01-14">
  <defs
     id="defs16" />
  <sodipodi:namedview
     pagecolor="#c8c8c8"
     bordercolor="#666666"
     borderopacity="1"
     objecttolerance="10"
     gridtolerance="10"
     guidetolerance="10"
     inkscape:pageopacity="0"
     inkscape:pageshadow="2"
     inkscape:window-width="1920"
     inkscape:window-height="1023"
     id="namedview14"
     showgrid="false"
     inkscape:zoom="7.375"
     inkscape:cx="4.6101695"
     inkscape:cy="15.186441"
     inkscape:window-x="0"
     inkscape:window-y="32"
     inkscape:window-maximized="1"
     inkscape:current-layer="svg12" />
  <metadata
     id="metadata2">
    <rdf:RDF>
      <cc:Work
         rdf:about="">
        <dc:format>image/svg+xml</dc:format>
        <dc:type
           rdf:resource="http://purl.org/dc/dcmitype/StillImage" />
        <dc:title />
      </cc:Work>
    </rdf:RDF>
  </metadata>
  <path
     id="path1018"
     p-id="202608"
     d="m 27.30371,17.027527 h -7.570967 a 2.6986315,2.7002361 0 0 0 -2.697482,2.697896 v 7.582516 a 2.6845394,2.6861357 0 0 0 2.697482,2.69203 h 7.570967 a 2.6974481,2.699052 0 0 0 2.69626,-2.697896 v -7.57665 A 2.6974481,2.699052 0 0 0 27.30371,17.027555 Z M 12.553954,2.0000271 H 4.9818678 a 2.6974481,2.699052 0 0 0 -2.6962973,2.697869 v 7.5825169 c 0,0.721491 0.281848,1.397129 0.7914947,1.90827 a 2.6739703,2.6755603 0 0 0 1.9048026,0.783759 h 7.5720862 a 2.6974481,2.699052 0 0 0 2.696297,-2.697896 V 4.6978672 A 2.700971,2.702577 0 0 0 12.553954,2.0000001 Z m 0.135063,9.9831209 a 0.42628513,0.42653861 0 0 1 -0.426282,0.428878 H 5.2672251 A 0.41100955,0.41125394 0 0 1 4.9665891,12.283966 0.40633054,0.40657214 0 0 1 4.8444718,11.986672 V 4.986927 c 0,-0.2385236 0.1913986,-0.4300641 0.4262813,-0.4300641 h 6.9931859 c 0.234864,0 0.426291,0.1915405 0.426291,0.4300641 V 11.98312 Z M 28.881958,5.3406501 H 28.766915 A 1.1226867,1.1233542 0 0 0 27.647746,6.4592949 V 8.2112754 C 25.381267,5.5921171 22.296283,3.8624443 18.876615,3.2067739 A 1.2236706,1.2243983 0 0 0 18.447972,3.1010197 c -0.03173,-0.00588 -0.06337,-0.018779 -0.09394,-0.022307 v 0.0094 a 1.2095786,1.2102978 0 0 0 0,2.4182293 v 0.012945 c 4.008004,0.7355646 7.474656,3.2524659 9.347744,7.000846 a 1.1379347,1.1386114 0 0 0 0.448579,0.460633 1.0886124,1.0892597 0 0 0 0.616532,0.213848 h 0.115099 c 0.614161,0 1.117956,-0.505276 1.117956,-1.118645 V 6.4651422 A 1.1238426,1.1245109 0 0 0 28.881986,5.3406314 Z M 13.944369,26.839154 c -0.0056,0 -0.0093,0.0035 -0.01288,0.0035 C 9.8201557,26.21277 6.2255158,23.714649 4.2713958,19.93928 A 1.1156131,1.1162764 0 0 0 3.2344998,19.225996 H 3.1194012 a 1.1120901,1.1127513 0 0 0 -1.0522027,0.789625 c -0.03052,0.07755 -0.037613,0.163312 -0.049373,0.247943 -0.00373,0.02702 -0.015307,0.05287 -0.015307,0.07989 v 0.05756 c 0,0.05525 -0.0056,0.109306 0,0.165709 v 5.389897 c 0,0.613369 0.5037947,1.118617 1.117984,1.118617 h 0.116256 c 0.6141893,0 1.117984,-0.505248 1.117984,-1.118617 v -1.736724 c 2.3545292,2.657934 5.5581398,4.367614 9.0882025,4.94105 0.152674,0.07285 0.353481,0.07285 0.5355,0.07285 0.0056,0 0.0094,-0.0035 0.01297,-0.0035 h 0.0056 v -0.0023 c 0.663479,-0.01294 1.168459,-0.505275 1.168459,-1.169181 A 1.2213036,1.2220298 0 0 0 13.94417,26.839126 Z"
     inkscape:connector-curvature="0"
     style="fill:#ffffff;fill-opacity:1;stroke-width:0.02753177" />
</svg>
