<?xml version="1.0" encoding="UTF-8" standalone="no"?>
<svg
   xmlns:dc="http://purl.org/dc/elements/1.1/"
   xmlns:cc="http://creativecommons.org/ns#"
   xmlns:rdf="http://www.w3.org/1999/02/22-rdf-syntax-ns#"
   xmlns:svg="http://www.w3.org/2000/svg"
   xmlns="http://www.w3.org/2000/svg"
   xmlns:sodipodi="http://sodipodi.sourceforge.net/DTD/sodipodi-0.dtd"
   xmlns:inkscape="http://www.inkscape.org/namespaces/inkscape"
   width="32"
   height="32"
   version="1.1"
   id="svg17"
   sodipodi:docname="system-shutdown.svg"
   inkscape:version="0.92.4 5da689c313, 2019-01-14">
  <defs
     id="defs21" />
  <sodipodi:namedview
     pagecolor="#c8c8c8"
     bordercolor="#666666"
     borderopacity="1"
     objecttolerance="10"
     gridtolerance="10"
     guidetolerance="10"
     inkscape:pageopacity="0"
     inkscape:pageshadow="2"
     inkscape:window-width="1920"
     inkscape:window-height="1023"
     id="namedview19"
     showgrid="false"
     inkscape:zoom="14.75"
     inkscape:cx="11.78035"
     inkscape:cy="22.803375"
     inkscape:window-x="0"
     inkscape:window-y="32"
     inkscape:window-maximized="1"
     inkscape:current-layer="svg17" />
  <metadata
     id="metadata2">
    <rdf:RDF>
      <cc:Work
         rdf:about="">
        <dc:format>image/svg+xml</dc:format>
        <dc:type
           rdf:resource="http://purl.org/dc/dcmitype/StillImage" />
        <dc:title />
      </cc:Work>
    </rdf:RDF>
  </metadata>
  <g
     id="g980"
     transform="matrix(0.0295733,0,0,0.0295733,0.8584704,0.7401772)"
     style="fill:#ffffff;fill-opacity:1">
    <path
       id="path967"
       p-id="121516"
       d="M 512,989.4 C 388.9,989.4 273.1,941.5 186,854.4 98.9,767.3 51,651.5 51,528.4 c 0,-123.1 47.9,-238.9 135,-326 17,-17 44.6,-17 61.6,0 17,17 17,44.6 0,61.6 -70.6,70.7 -109.5,164.6 -109.5,264.4 0,99.9 38.9,193.8 109.5,264.4 70.6,70.6 164.5,109.5 264.4,109.5 99.9,0 193.8,-38.9 264.4,-109.5 C 847,722.2 885.9,628.3 885.9,528.4 885.9,428.5 847,334.6 776.4,264 c -17,-17 -17,-44.6 0,-61.6 17,-17 44.6,-17 61.6,0 87.1,87.1 135,202.8 135,326 0,123.1 -47.9,238.9 -135,326 -87.1,87.1 -202.9,135 -326,135 z"
       inkscape:connector-curvature="0"
       style="fill:#ffffff;fill-opacity:1" />
    <path
       id="path969"
       p-id="121517"
       d="m 512,554.7 c -23.6,0 -42.7,-19.1 -42.7,-42.7 V 85.3 c 0,-23.6 19.1,-42.7 42.7,-42.7 23.6,0 42.7,19.1 42.7,42.7 V 512 c 0,23.6 -19.1,42.7 -42.7,42.7 z"
       inkscape:connector-curvature="0"
       style="fill:#ffffff;fill-opacity:1" />
  </g>
</svg>
