<?xml version="1.0" encoding="UTF-8"?>
<!-- Created with Inkscape (http://www.inkscape.org/) -->
<svg width="48" height="48" version="1.1" xmlns="http://www.w3.org/2000/svg" xmlns:cc="http://creativecommons.org/ns#" xmlns:dc="http://purl.org/dc/elements/1.1/" xmlns:rdf="http://www.w3.org/1999/02/22-rdf-syntax-ns#" xmlns:xlink="http://www.w3.org/1999/xlink">
 <metadata>
  <rdf:RDF>
   <cc:Work rdf:about="">
    <dc:format>image/svg+xml</dc:format>
    <dc:type rdf:resource="http://purl.org/dc/dcmitype/StillImage"/>
   </cc:Work>
  </rdf:RDF>
 </metadata>
 <defs>
  <linearGradient id="linearGradient858-5" x1="-149.66" x2="-149.66" y1="195.4" y2="197.12" gradientTransform="matrix(.06616 0 0 .06616 41.192 3.1755)" gradientUnits="userSpaceOnUse">
   <stop stop-color="#918a98" offset="0"/>
   <stop stop-color="#656268" offset="1"/>
  </linearGradient>
  <linearGradient id="linearGradient838-9" x1="-146.65" x2="-146.65" y1="195.59" y2="157.63" gradientTransform="matrix(.06616 0 0 .06616 41.192 3.1755)" gradientUnits="userSpaceOnUse">
   <stop stop-color="#dee2e7" offset="0"/>
   <stop stop-color="#d5d9e1" offset=".187"/>
   <stop stop-color="#afb4b9" offset=".43348"/>
   <stop stop-color="#979da4" offset=".54615"/>
   <stop stop-color="#9398a0" offset=".69404"/>
   <stop stop-color="#818b91" offset=".81846"/>
   <stop stop-color="#6b7177" offset="1"/>
  </linearGradient>
  <linearGradient id="linearGradient41069" x1="44.171" x2="44.171" y1="13.358" y2="154.97" gradientTransform="matrix(.06616 0 0 .06616 28.369 3.1047)" gradientUnits="userSpaceOnUse">
   <stop stop-color="#4d717b" offset="0"/>
   <stop stop-color="#251e3c" offset="1"/>
  </linearGradient>
  <linearGradient id="linearGradient10465" x1="37.639" x2="37.639" y1="15.912" y2="150.34" gradientTransform="matrix(.06616 0 0 .06616 28.369 3.1047)" gradientUnits="userSpaceOnUse">
   <stop stop-color="#c1fff7" offset="0"/>
   <stop stop-color="#88feea" offset=".038424"/>
   <stop stop-color="#2f8ffe" offset="1"/>
  </linearGradient>
  <linearGradient id="linearGradient10467" x1="-62.269" x2="-71.96" y1="40.499" y2="31.752" gradientTransform="matrix(3.0101 0 0 3.0101 214.19 -73.424)" gradientUnits="userSpaceOnUse">
   <stop stop-color="#019c80" offset="0"/>
   <stop stop-color="#00b16f" offset="1"/>
  </linearGradient>
  <linearGradient id="linearGradient10469" x1="-60.03" x2="-38.806" y1="38.857" y2="33.707" gradientTransform="matrix(3.0101 0 0 3.0101 172.45 -76.698)" gradientUnits="userSpaceOnUse">
   <stop stop-color="#019c80" offset="0"/>
   <stop stop-color="#8fc53f" offset="1"/>
  </linearGradient>
 </defs>
 <g transform="matrix(2.8347 0 0 2.8347 -65.064 -3.9435)" stroke-width=".06616">
  <path d="m29.159 15.24c-0.24932 0.3173-0.48936 0.55833-0.48545 0.71181 0.0035 0.13833 0.13351 0.32494 0.27189 0.32494h4.9704c0.13837 0 0.24627-0.19103 0.24979-0.32936 0.0039-0.15344-0.23612-0.39448-0.48545-0.71181z" fill-opacity=".1623" style="paint-order:fill markers stroke"/>
  <path d="m29.159 15.193c-0.24932 0.3173-0.48936 0.55833-0.48545 0.71181 0.0035 0.13833 0.13351 0.32494 0.27189 0.32494h4.9704c0.13837 0 0.24627-0.19103 0.24979-0.32936 0.0039-0.15344-0.23612-0.39448-0.48545-0.71181z" fill="url(#linearGradient858-5)" style="paint-order:fill markers stroke"/>
  <path d="m29.159 15.324c-0.24932 0.3173-0.48936 0.55834-0.48545 0.71181 0.0035 0.13833 0.13351 0.32494 0.27189 0.32494h4.9704c0.13837 0 0.24627-0.19103 0.24979-0.32936 0.0039-0.15344-0.23612-0.39448-0.48545-0.71181z" fill-opacity=".036649" style="paint-order:fill markers stroke"/>
  <path d="m29.159 15.275c-0.24932 0.3173-0.48936 0.55834-0.48545 0.71181 0.0035 0.13833 0.13351 0.32494 0.27189 0.32494h4.9704c0.13837 0 0.24627-0.19103 0.24979-0.32936 0.0039-0.15344-0.23612-0.39448-0.48545-0.71181z" fill-opacity=".04712" style="paint-order:fill markers stroke"/>
  <path d="m31.371 13.503-3.4e-5 1e-3 -1.4002 0.012c-0.13837 0.0012-0.26152 0.11191-0.24975 0.24979 0.06528 0.76461-0.25258 1.0175-0.53984 1.3831-0.24932 0.3173-0.48936 0.55834-0.48545 0.71181 0.0035 0.13833 0.11141 0.24979 0.24978 0.24979h4.9704c0.13837 0 0.24627-0.11145 0.24979-0.24979 0.0039-0.15344-0.23612-0.39448-0.48545-0.71181-0.28726-0.36558-0.60512-0.61849-0.53984-1.3831 0.01177-0.13788-0.11138-0.2486-0.24975-0.24979l-1.4002-0.012-3.4e-5 -1e-3 -0.05969 5.3e-4z" fill="url(#linearGradient838-9)" style="paint-order:fill markers stroke"/>
 </g>
 <g transform="matrix(2.8347 0 0 2.8347 -65.064 -3.9435)">
  <path d="m25.943 3.8606h10.965c1.0102 0 1.4583 0.48568 1.6001 1.6001l0.83861 6.5907c0.11189 0.87938-0.71366 1.6001-1.6001 1.6001h-12.654c-0.88647 0-1.7135-0.72095-1.6001-1.6001l0.85023-6.5907c0.14063-1.0901 0.48378-1.6001 1.6001-1.6001z" fill="#7a8693" style="paint-order:fill markers stroke"/>
  <path d="m25.943 3.8606h10.965c1.0102 0 1.4571 0.48583 1.6001 1.6001l0.8136 6.3407c0.10214 0.79599-0.5386 1.6001-1.5751 1.6001h-12.654c-1.3108 0-1.6592-1.1598-1.6001-1.6001l0.85023-6.3407c0.14608-1.0894 0.48378-1.6001 1.6001-1.6001z" fill="url(#linearGradient41069)" style="paint-order:fill markers stroke"/>
  <path d="m26.205 4.1607h10.415c1.1163 0 1.425 0.21386 1.6001 1.6001l0.72519 5.7395c0.14541 1.1509-0.4502 1.6001-1.4867 1.6001h-12.104c-1.3108 0-1.5855-0.73729-1.4763-1.6001l0.72645-5.7395c0.14374-1.1356 0.32464-1.6001 1.6001-1.6001z" fill="url(#linearGradient10465)" style="paint-order:fill markers stroke"/>
 </g>
 <path d="m3.4416 22.195-0.81735 6.4613c-0.30957 2.4459 0.46922 4.5366 4.1851 4.5366h19.328c-5.8632-8.3926-16.196-10.528-22.697-10.998z" fill="url(#linearGradient10467)" stroke-width="3.0101"/>
 <path d="m44.054 22.067c-4.9822 0.0758-13.223 1.3257-21.742 7.4518-2.0418 1.468-4.1579 2.6738-6.2799 3.6737h25.089c2.9381 0 4.6265-1.2743 4.2143-4.5366l-0.83206-6.5875c-0.15066-1.57e-4 -0.28882-0.0039-0.44825-0.0015z" fill="url(#linearGradient10469)" stroke-width="3.0101"/>
 <g transform="matrix(.80275 0 0 .80275 -47.48 3.6895)">
  <g transform="translate(65.362)" fill="none" opacity=".05" stroke="#000" stroke-linecap="round" stroke-linejoin="round" stroke-width=".5">
   <path d="m5.3056 14c-0.166 0.03104-0.24227 0.0207-0.41127 0.0872-0.58475 0.23057-0.89432 0.70649-0.89432 1.3213v5.4982c0 0.16406 0.02243 0.34438 0.07028 0.50252 0.03439 0.11676 0.11066 0.25865 0.18245 0.35916 0.27667 0.39019 0.69392 0.59712 1.174 0.59712h1.8634c0.18544 0 0.26172 0.0074 0.2662 0.21579v1.1233c0 0.78778-0.11814 1.5135 0.62812 2.0352 0.11366 0.07834 0.25424 0.14632 0.38734 0.18771 0.15254 0.04877 0.39482 0.07242 0.55633 0.07242h5.3958c0.09721 0 0.34546-0.01921 0.4352-0.04139 0.61167-0.15371 1.0394-0.6725 1.0409-1.2977v-5.643c0-0.15962-0.02243-0.30004-0.07477-0.45375-0.03888-0.1138-0.11814-0.26309-0.18993-0.35916-0.27667-0.36507-0.67747-0.57199-1.1396-0.57347-0.71755 3.08e-4 -1.4351-5.7e-5 -2.1527-0.0012l6.12e-4 -0.42892v-0.93262c0-0.75526 0.10619-1.5297-0.62961-2.016-0.1002-0.06652-0.24826-0.14632-0.36341-0.18032-0.15404-0.04434-0.44118-0.07391-0.60419-0.07242-2.0333-3e-6 -3.694 8e-6 -5.5409-2e-6zm5.2986 3.6294s-0.74875 0.0026-1.1231 0.0035c-0.17198 0.03251-0.30209 0.21431-0.22432 0.38132 0.04337 0.09312 0.18096 0.2217 0.25723 0.29708l0.48604 0.46853 0.50698 0.4774 0.47258 0.50844 0.42174 0.41828c0.1346 0.1345 0.48455 0.50991 0.62961 0.57347 0.17946 0.07686 0.33799-0.03842 0.39332-0.2084 0.02094-0.06947 0.01944-0.14337 0.01944-0.21579 5.23e-4 -0.31058-6.11e-4 -0.93175-6.11e-4 -0.93175s0.61257-9.38e-4 0.91886-9.38e-4c0.50847 0.0059 0.82253 0.31038 0.82253 0.8129v3.9463h-3.9915c-0.11068 0-0.18245 0-0.29013-0.03547-0.27069-0.0872-0.46062-0.33699-0.50698-0.61042v-0.90898c-0.0016-0.0606-0.01056-0.15224 0.03738-0.19805 0.04786-0.04582 0.14207-0.04139 0.20339-0.04139h0.7014c0.06132 0 0.1346 3e-3 0.19442-0.01331 0.16451-0.04286 0.28415-0.20249 0.21087-0.3695-0.04786-0.10789-0.17348-0.22022-0.25872-0.30447l-0.46361-0.45518-1.008-0.97105-0.39781-0.42271c-0.13759-0.1345-0.50698-0.52913-0.64756-0.59268-0.17049-0.07537-0.34098 0.05024-0.39182 0.21283-0.02243 0.06798-0.01944 0.14337-0.01944 0.21431v0.93262h-0.91974c-0.50399-0.0016-0.82104-0.3148-0.82253-0.81289l7.92e-4 -3.9441s2.6605-6.75e-4 3.9907-6.75e-4c0.47258 0 0.79711 0.28969 0.7986 0.76561z"/>
   <path d="m18.01 17.55h-1.0099l1.7938 4.4633c0.19774 0.48729 0.57203 0.53672 0.79802 0.53672 0.50141 0 0.70621-0.30367 0.79802-0.53672l1.7938-4.4633h-1.0099l-1.476 3.9901c-0.01412 0.03531-0.04237 0.10593-0.10593 0.10593-0.06356 0-0.09181-0.07062-0.10593-0.10593l-1.476-3.9901"/>
   <path d="m22.253 22.493h0.82627v-2.8531c0-0.14124 0.02119-0.18362 0.03531-0.19774 0.02119-0.02119 0.06356-0.0565 0.18362-0.0565h1.2076v3.1073h0.82627v-3.1073h0.76977c0.1483 0 0.36017 0.01412 0.50141 0.17655 0.13418 0.1483 0.15537 0.36723 0.15537 0.52966v2.4011h0.82627v-2.5282c0-0.37429-0.12712-0.71327-0.33898-0.91808-0.26836-0.24717-0.68503-0.29661-0.95339-0.29661h-3.3686c-0.16949 0-0.42373 0.02825-0.56497 0.22599-0.09181 0.13418-0.10593 0.3178-0.10593 0.42373v3.0932"/>
   <path d="m28.495 18.75h-0.79096l0.88983 3.2768c0.04943 0.19774 0.14124 0.50847 0.64265 0.50847 0.43079 0 0.58616-0.22599 0.64265-0.41666l0.64972-2.3446c0.0071-0.02825 0.02119-0.12006 0.0565-0.12006s0.04944 0.09181 0.0565 0.12006l0.64972 2.3446c0.10593 0.38135 0.44491 0.41666 0.64265 0.41666 0.27542 0 0.5226-0.07062 0.64265-0.50847l0.88983-3.2768h-0.79096l-0.71327 2.7684c-0.01412 0.04943-0.04237 0.11299-0.07768 0.11299s-0.0565-0.07768-0.06356-0.10593l-0.69209-2.4717c-0.08475-0.31073-0.37429-0.34604-0.54378-0.34604-0.14124 0-0.45198 0.01412-0.54378 0.34604l-0.68503 2.4717c-0.0071 0.02119-0.02825 0.10593-0.07062 0.10593-0.03531 0-0.06356-0.07768-0.07062-0.11299l-0.72034-2.7684"/>
   <path d="m33.754 18.75v0.63559h1.8432c0.12712 0 0.28955 0.02119 0.40254 0.16243 0.09181 0.11299 0.10593 0.24011 0.10593 0.35311v0.2613h-1.6243c-0.19774 0-0.45198 0.01412-0.68503 0.21893-0.28248 0.24717-0.3178 0.57909-0.3178 0.91101 0 0.27542 0.02119 0.75565 0.32486 1.0169 0.21186 0.18362 0.47316 0.18362 0.67796 0.18362h1.7867c0.17655 0 0.38135-0.01412 0.51554-0.1483 0.13418-0.13418 0.1483-0.34604 0.1483-0.48022v-1.9421c0-0.41666-0.12006-0.72034-0.27542-0.88276-0.16949-0.17655-0.45904-0.28955-0.77683-0.28955h-2.1257m2.3517 2.048v0.86158c0 0.0565 0 0.10593-0.0565 0.15537-0.0565 0.04237-0.13418 0.04237-0.18362 0.04237h-1.1511c-0.10593 0-0.21186-0.0565-0.26836-0.11299-0.09887-0.10593-0.11299-0.30367-0.11299-0.41666 0-0.26836 0.06356-0.36723 0.09181-0.40254 0.09181-0.12006 0.24717-0.12712 0.30367-0.12712h1.3771"/>
   <path d="m37.494 22.493h0.82627v-2.1116c0-0.28248 0.03531-0.54378 0.19068-0.73446 0.19774-0.23305 0.48729-0.2613 0.70621-0.2613h0.34604v-0.63559h-0.55791c-0.28955 0-0.77683 0.02119-1.1229 0.32486-0.3178 0.27542-0.38842 0.67796-0.38842 1.0876v2.3305"/>
   <path d="m43.243 22.493v-0.63559h-1.8291c-0.30367 0-0.64972-0.04237-0.75565-0.44491-0.02825-0.11299-0.04944-0.35311-0.04944-0.51553h2.1751c0.1483 0 0.28955-0.02825 0.40254-0.14124 0.15537-0.15537 0.17655-0.37429 0.17655-0.56497 0-0.47316-0.09181-0.93926-0.52966-1.2147-0.34604-0.21892-0.79802-0.24011-1.2359-0.24011-0.3531 0-0.9887 1e-6 -1.3983 0.35311-0.4096 0.35311-0.44491 0.86864-0.44491 1.5678 0 0.49435 0.02119 1.0099 0.26836 1.363 0.31073 0.43785 0.76271 0.47316 1.1441 0.47316h2.0763m-2.6342-2.2316c0.0071-0.24717 0-0.45198 0.16949-0.64265 0.22599-0.25424 0.56497-0.24717 0.7839-0.24717 0.23305 0 0.50141 0.01412 0.70621 0.16949 0.12006 0.09181 0.24011 0.26836 0.24011 0.50141 0 0.09887-0.02119 0.21893-0.18362 0.21893h-1.7161"/>
  </g>
  <g transform="translate(65.362)" fill="#fff">
   <path d="m5.3056 14c-0.166 0.03104-0.24227 0.0207-0.41127 0.0872-0.58475 0.23057-0.89432 0.70649-0.89432 1.3213v5.4982c0 0.16406 0.02243 0.34438 0.07028 0.50252 0.03439 0.11676 0.11066 0.25865 0.18245 0.35916 0.27667 0.39019 0.69392 0.59712 1.174 0.59712h1.8634c0.18544 0 0.26172 0.0074 0.2662 0.21579v1.1233c0 0.78778-0.11814 1.5135 0.62812 2.0352 0.11366 0.07834 0.25424 0.14632 0.38734 0.18771 0.15254 0.04877 0.39482 0.07242 0.55633 0.07242h5.3958c0.09721 0 0.34546-0.01921 0.4352-0.04139 0.61167-0.15371 1.0394-0.6725 1.0409-1.2977v-5.643c0-0.15962-0.02243-0.30004-0.07477-0.45375-0.03888-0.1138-0.11814-0.26309-0.18993-0.35916-0.27667-0.36507-0.67747-0.57199-1.1396-0.57347-0.71755 3.08e-4 -1.4351-5.7e-5 -2.1527-0.0012l6.12e-4 -0.42892v-0.93262c0-0.75526 0.10619-1.5297-0.62961-2.016-0.1002-0.06652-0.24826-0.14632-0.36341-0.18032-0.15404-0.04434-0.44118-0.07391-0.60419-0.07242-2.0333-3e-6 -3.694 8e-6 -5.5409-2e-6zm5.2986 3.6294s-0.74875 0.0026-1.1231 0.0035c-0.17198 0.03251-0.30209 0.21431-0.22432 0.38132 0.04337 0.09312 0.18096 0.2217 0.25723 0.29708l0.48604 0.46853 0.50698 0.4774 0.47258 0.50844 0.42174 0.41828c0.1346 0.1345 0.48455 0.50991 0.62961 0.57347 0.17946 0.07686 0.33799-0.03842 0.39332-0.2084 0.02094-0.06947 0.01944-0.14337 0.01944-0.21579 5.23e-4 -0.31058-6.11e-4 -0.93175-6.11e-4 -0.93175s0.61257-9.38e-4 0.91886-9.38e-4c0.50847 0.0059 0.82253 0.31038 0.82253 0.8129v3.9463h-3.9915c-0.11068 0-0.18245 0-0.29013-0.03547-0.27069-0.0872-0.46062-0.33699-0.50698-0.61042v-0.90898c-0.0016-0.0606-0.01056-0.15224 0.03738-0.19805 0.04786-0.04582 0.14207-0.04139 0.20339-0.04139h0.7014c0.06132 0 0.1346 3e-3 0.19442-0.01331 0.16451-0.04286 0.28415-0.20249 0.21087-0.3695-0.04786-0.10789-0.17348-0.22022-0.25872-0.30447l-0.46361-0.45518-1.008-0.97105-0.39781-0.42271c-0.13759-0.1345-0.50698-0.52913-0.64756-0.59268-0.17049-0.07537-0.34098 0.05024-0.39182 0.21283-0.02243 0.06798-0.01944 0.14337-0.01944 0.21431v0.93262h-0.91974c-0.50399-0.0016-0.82104-0.3148-0.82253-0.81289l7.92e-4 -3.9441s2.6605-6.75e-4 3.9907-6.75e-4c0.47258 0 0.79711 0.28969 0.7986 0.76561z"/>
   <g>
    <path d="m18.01 17.55h-1.0099l1.7938 4.4633c0.19774 0.48729 0.57203 0.53672 0.79802 0.53672 0.50141 0 0.70621-0.30367 0.79802-0.53672l1.7938-4.4633h-1.0099l-1.476 3.9901c-0.01412 0.03531-0.04237 0.10593-0.10593 0.10593-0.06356 0-0.09181-0.07062-0.10593-0.10593l-1.476-3.9901"/>
    <path d="m22.253 22.493h0.82627v-2.8531c0-0.14124 0.02119-0.18362 0.03531-0.19774 0.02119-0.02119 0.06356-0.0565 0.18362-0.0565h1.2076v3.1073h0.82627v-3.1073h0.76977c0.1483 0 0.36017 0.01412 0.50141 0.17655 0.13418 0.1483 0.15537 0.36723 0.15537 0.52966v2.4011h0.82627v-2.5282c0-0.37429-0.12712-0.71327-0.33898-0.91808-0.26836-0.24717-0.68503-0.29661-0.95339-0.29661h-3.3686c-0.16949 0-0.42373 0.02825-0.56497 0.22599-0.09181 0.13418-0.10593 0.3178-0.10593 0.42373v3.0932"/>
    <path d="m28.495 18.75h-0.79096l0.88983 3.2768c0.04943 0.19774 0.14124 0.50847 0.64265 0.50847 0.43079 0 0.58616-0.22599 0.64265-0.41666l0.64972-2.3446c0.0071-0.02825 0.02119-0.12006 0.0565-0.12006s0.04944 0.09181 0.0565 0.12006l0.64972 2.3446c0.10593 0.38135 0.44491 0.41666 0.64265 0.41666 0.27542 0 0.5226-0.07062 0.64265-0.50847l0.88983-3.2768h-0.79096l-0.71327 2.7684c-0.01412 0.04943-0.04237 0.11299-0.07768 0.11299s-0.0565-0.07768-0.06356-0.10593l-0.69209-2.4717c-0.08475-0.31073-0.37429-0.34604-0.54378-0.34604-0.14124 0-0.45198 0.01412-0.54378 0.34604l-0.68503 2.4717c-0.0071 0.02119-0.02825 0.10593-0.07062 0.10593-0.03531 0-0.06356-0.07768-0.07062-0.11299l-0.72034-2.7684"/>
    <path d="m33.754 18.75v0.63559h1.8432c0.12712 0 0.28955 0.02119 0.40254 0.16243 0.09181 0.11299 0.10593 0.24011 0.10593 0.35311v0.2613h-1.6243c-0.19774 0-0.45198 0.01412-0.68503 0.21893-0.28248 0.24717-0.3178 0.57909-0.3178 0.91101 0 0.27542 0.02119 0.75565 0.32486 1.0169 0.21186 0.18362 0.47316 0.18362 0.67796 0.18362h1.7867c0.17655 0 0.38135-0.01412 0.51554-0.1483 0.13418-0.13418 0.1483-0.34604 0.1483-0.48022v-1.9421c0-0.41666-0.12006-0.72034-0.27542-0.88276-0.16949-0.17655-0.45904-0.28955-0.77683-0.28955h-2.1257m2.3517 2.048v0.86158c0 0.0565 0 0.10593-0.0565 0.15537-0.0565 0.04237-0.13418 0.04237-0.18362 0.04237h-1.1511c-0.10593 0-0.21186-0.0565-0.26836-0.11299-0.09887-0.10593-0.11299-0.30367-0.11299-0.41666 0-0.26836 0.06356-0.36723 0.09181-0.40254 0.09181-0.12006 0.24717-0.12712 0.30367-0.12712h1.3771"/>
    <path d="m37.494 22.493h0.82627v-2.1116c0-0.28248 0.03531-0.54378 0.19068-0.73446 0.19774-0.23305 0.48729-0.2613 0.70621-0.2613h0.34604v-0.63559h-0.55791c-0.28955 0-0.77683 0.02119-1.1229 0.32486-0.3178 0.27542-0.38842 0.67796-0.38842 1.0876v2.3305"/>
    <path d="m43.243 22.493v-0.63559h-1.8291c-0.30367 0-0.64972-0.04237-0.75565-0.44491-0.02825-0.11299-0.04944-0.35311-0.04944-0.51553h2.1751c0.1483 0 0.28955-0.02825 0.40254-0.14124 0.15537-0.15537 0.17655-0.37429 0.17655-0.56497 0-0.47316-0.09181-0.93926-0.52966-1.2147-0.34604-0.21892-0.79802-0.24011-1.2359-0.24011-0.3531 0-0.9887 1e-6 -1.3983 0.35311-0.4096 0.35311-0.44491 0.86864-0.44491 1.5678 0 0.49435 0.02119 1.0099 0.26836 1.363 0.31073 0.43785 0.76271 0.47316 1.1441 0.47316h2.0763m-2.6342-2.2316c0.0071-0.24717 0-0.45198 0.16949-0.64265 0.22599-0.25424 0.56497-0.24717 0.7839-0.24717 0.23305 0 0.50141 0.01412 0.70621 0.16949 0.12006 0.09181 0.24011 0.26836 0.24011 0.50141 0 0.09887-0.02119 0.21893-0.18362 0.21893h-1.7161"/>
   </g>
  </g>
 </g>
</svg>
