<?xml version="1.0" encoding="UTF-8"?>
<!-- Created with Inkscape (http://www.inkscape.org/) -->
<svg width="96" height="96" version="1.1" xmlns="http://www.w3.org/2000/svg" xmlns:cc="http://creativecommons.org/ns#" xmlns:dc="http://purl.org/dc/elements/1.1/" xmlns:rdf="http://www.w3.org/1999/02/22-rdf-syntax-ns#" xmlns:xlink="http://www.w3.org/1999/xlink">
 <defs>
  <linearGradient id="linearGradient122580" x1="-253" x2="-198" y1="58.33" y2="58.33" gradientTransform="matrix(1.5605 0 0 1.5605 399.88 938.07)" gradientUnits="userSpaceOnUse">
   <stop stop-color="#ddd" offset="0"/>
   <stop stop-color="#ebebeb" offset=".03522"/>
   <stop stop-color="#d5d5d5" offset=".054766"/>
   <stop stop-color="#f0f0f0" offset=".33059"/>
   <stop stop-color="#f0f0f0" offset=".50575"/>
   <stop stop-color="#f0f0f0" offset=".71508"/>
   <stop stop-color="#d3d3d3" offset=".94353"/>
   <stop stop-color="#ebebeb" offset=".96526"/>
   <stop stop-color="#e1e1e1" offset="1"/>
  </linearGradient>
  <linearGradient id="linearGradient158037" x1="-255.32" x2="-195.68" y1="33.15" y2="33.15" gradientTransform="matrix(1.5605 0 0 1.5605 399.88 938.07)" gradientUnits="userSpaceOnUse">
   <stop stop-color="#430000" offset="0"/>
   <stop stop-color="#710000" offset=".060278"/>
   <stop stop-color="#aa0005" offset=".10041"/>
   <stop stop-color="#d1192e" offset=".31932"/>
   <stop stop-color="#d9233a" offset=".50599"/>
   <stop stop-color="#ed4362" offset=".69492"/>
   <stop stop-color="#f14868" offset=".90466"/>
   <stop stop-color="#f96c88" offset=".9339"/>
   <stop stop-color="#830002" offset="1"/>
  </linearGradient>
  <linearGradient id="linearGradient3986" x1="-59.557" x2="-59.557" y1="15.884" y2="18.79" gradientTransform="translate(91.739,4.8853)" gradientUnits="userSpaceOnUse">
   <stop stop-color="#dfdfdf" offset="0"/>
   <stop stop-color="#d2d2d2" offset=".53197"/>
   <stop stop-color="#cacaca" offset="1"/>
  </linearGradient>
  <linearGradient id="linearGradient12298" x1="-58.757" x2="-58.757" y1="16.466" y2="18.206" gradientTransform="matrix(1 0 0 .98695 91.739 5.1004)" gradientUnits="userSpaceOnUse">
   <stop stop-color="#c8c8c8" offset="0"/>
   <stop stop-color="#b8b8b8" offset="1"/>
  </linearGradient>
  <linearGradient id="linearGradient988" x1="-61.911" x2="-61.911" y1="14.023" y2="15.081" gradientTransform="translate(87.232,9.5276)" gradientUnits="userSpaceOnUse" xlink:href="#linearGradient24279"/>
  <linearGradient id="linearGradient24279">
   <stop stop-color="#0d0d0d" offset="0"/>
   <stop stop-color="#414141" offset="1"/>
  </linearGradient>
  <linearGradient id="linearGradient990" x1="-61.911" x2="-61.911" y1="14.023" y2="15.081" gradientTransform="translate(87.764,9.5655)" gradientUnits="userSpaceOnUse" xlink:href="#linearGradient24279"/>
  <linearGradient id="linearGradient992" x1="-61.911" x2="-61.911" y1="14.023" y2="15.081" gradientTransform="translate(88.297,9.6035)" gradientUnits="userSpaceOnUse" xlink:href="#linearGradient24279"/>
  <linearGradient id="linearGradient994" x1="-61.911" x2="-61.911" y1="14.023" y2="15.081" gradientTransform="translate(88.829,9.6414)" gradientUnits="userSpaceOnUse" xlink:href="#linearGradient24279"/>
  <linearGradient id="linearGradient24281" x1="-61.911" x2="-61.911" y1="14.023" y2="15.081" gradientTransform="translate(89.362,9.6793)" gradientUnits="userSpaceOnUse" xlink:href="#linearGradient24279"/>
  <linearGradient id="linearGradient45238" x1="-55.576" x2="-55.576" y1="13.942" y2="14.996" gradientTransform="translate(92.883,7.7392)" gradientUnits="userSpaceOnUse">
   <stop stop-color="#070509" offset="0"/>
   <stop stop-color="#8e8e8e" offset="1"/>
  </linearGradient>
  <linearGradient id="linearGradient59949" x1="-55.566" x2="-55.566" y1="13.99" y2="14.865" gradientTransform="translate(92.883,7.7392)" gradientUnits="userSpaceOnUse">
   <stop stop-color="#276000" offset="0"/>
   <stop stop-color="#90b800" offset="1"/>
  </linearGradient>
  <linearGradient id="linearGradient69044" x1="-55.566" x2="-55.566" y1="13.99" y2="14.865" gradientTransform="matrix(.82719 0 0 .82719 83.278 10.298)" gradientUnits="userSpaceOnUse">
   <stop stop-color="#cef59a" offset="0"/>
   <stop stop-color="#91ba00" offset="1"/>
  </linearGradient>
  <linearGradient id="linearGradient106117" x1="-55.566" x2="-55.566" y1="13.99" y2="14.223" gradientTransform="matrix(.8272 0 0 .8272 83.278 10.298)" gradientUnits="userSpaceOnUse">
   <stop stop-color="#fff" offset="0"/>
   <stop stop-color="#bee571" offset="1"/>
  </linearGradient>
 </defs>
 <metadata>
  <rdf:RDF>
   <cc:Work rdf:about="">
    <dc:format>image/svg+xml</dc:format>
    <dc:type rdf:resource="http://purl.org/dc/dcmitype/StillImage"/>
   </cc:Work>
  </rdf:RDF>
 </metadata>
 <g transform="translate(0 -956.36)">
  <g stroke-width="6.0086">
   <path d="m89.662 1020.8c-0.04128-0.028-0.08257-0.056-0.12497-0.082-0.07396-0.046-0.15075-0.088-0.2286-0.128-0.07773-0.04-0.15664-0.078-0.23774-0.1128-0.08115-0.034-0.16301-0.066-0.24688-0.094-0.08392-0.028-0.16986-0.051-0.25602-0.073-0.08611-0.022-0.1741-0.04-0.2621-0.055-0.08799-0.015-0.17587-0.026-0.26516-0.034-0.08923-0.01-0.17817-0.012-0.26817-0.012h-79.537c-0.090058 0-0.182 0-0.27124 0.012-0.089233 0.01-0.17717 0.019-0.26516 0.034-0.087994 0.015-0.17593 0.033-0.2621 0.055-0.086107 0.022-0.16909 0.045-0.25295 0.073-0.083925 0.028-0.16885 0.06-0.24989 0.094-0.081153 0.034-0.15995 0.072-0.23774 0.1128-0.077732 0.04-0.15464 0.082-0.2286 0.128-0.043053 0.027-0.083158 0.057-0.12497 0.085l-1.2374 12.974c-0.033617 0.3556-0.011206 0.7008 0.057798 1.0302 0.027719 0.1318 0.064285 0.2604 0.10675 0.3871 0.021232 0.063 0.042464 0.1272 0.067116 0.1889 0.073957 0.185 0.16508 0.3632 0.26823 0.5334 0.17192 0.2836 0.38129 0.5437 0.62174 0.7772 0.047772 0.046 0.095838 0.093 0.1462 0.1371 0.25236 0.2222 0.53581 0.414 0.83813 0.573 0.060393 0.031 0.12079 0.062 0.18283 0.091 0.55875 0.2611 1.1791 0.4084 1.8195 0.4084h77.579c1.494 0 2.8863-0.7961 3.6085-1.9871 0.10315-0.1701 0.19415-0.3483 0.26823-0.5333 0.02477-0.062 0.04836-0.1259 0.07006-0.189 0.04187-0.1264 0.07602-0.2554 0.10362-0.387 0.0693-0.3294 0.09112-0.6746 0.0578-1.0302z" fill="url(#linearGradient122580)"/>
   <path d="m89.55 1019.7c-0.07974-0.05-0.16266-0.1-0.24688-0.1433-0.09348-0.048-0.18837-0.091-0.28645-0.131-0.09814-0.039-0.19982-0.076-0.30173-0.1067-0.10191-0.031-0.203-0.055-0.3078-0.076-0.10486-0.021-0.21314-0.038-0.32001-0.049s-0.21202-0.015-0.32001-0.015h-79.543c-0.10799 0-0.2132 0-0.32001 0.015-0.10687 0.011-0.21521 0.028-0.32001 0.049-0.10486 0.021-0.20595 0.045-0.30786 0.076s-0.20359 0.067-0.30173 0.1067c-0.098138 0.039-0.19303 0.083-0.28645 0.131-0.084279 0.044-0.16708 0.093-0.24688 0.1433l-0.10675 1.1033c0.041874-0.029 0.081625-0.058 0.12497-0.085 0.073957-0.046 0.15075-0.088 0.2286-0.1279 0.077732-0.04 0.15664-0.078 0.23774-0.1128 0.081153-0.034 0.16602-0.066 0.24995-0.095 0.083807-0.028 0.16679-0.051 0.25295-0.073 0.086166-0.022 0.17416-0.04 0.2621-0.055 0.087994-0.015 0.17587-0.026 0.26516-0.034 0.089292-0.01 0.18118-0.012 0.27124-0.012h79.537c0.09006 0 0.17894 0 0.26817 0.012 0.08923 0.01 0.17717 0.019 0.26516 0.034s0.17593 0.033 0.2621 0.055c0.08611 0.022 0.17215 0.045 0.25602 0.073 0.08392 0.028 0.16578 0.06 0.24688 0.095 0.08115 0.034 0.15995 0.072 0.23774 0.1128 0.07773 0.04 0.15464 0.082 0.2286 0.1279 0.04246 0.027 0.08392 0.054 0.12497 0.082z" fill="#690000"/>
   <path d="m15.822 959.86c-0.86284-2e-3 -1.6093 0.14255-2.2157 0.44498-0.98657 0.36724-1.4039 1.0548-1.6884 2.176l-5.4647 57.25c0.079737-0.05 0.16266-0.1 0.24688-0.1432 0.093479-0.048 0.18837-0.091 0.28645-0.1311 0.098138-0.039 0.19982-0.076 0.30173-0.1067 0.10191-0.031 0.203-0.055 0.3078-0.076 0.10486-0.021 0.2132-0.038 0.32001-0.049 0.10693-0.011 0.21202-0.015 0.32001-0.015h79.543c0.10799 0 0.21314 0 0.32001 0.015 0.10687 0.011 0.21521 0.028 0.32001 0.049 0.10486 0.021 0.20595 0.045 0.3078 0.076 0.10191 0.031 0.20359 0.067 0.30173 0.1067 0.09814 0.039 0.19303 0.083 0.28645 0.1311 0.08428 0.044 0.16708 0.093 0.24688 0.1432l-5.4646-57.25c-0.28456-1.1213-0.70195-1.8118-1.6884-2.1792-0.6064-0.30239-1.3529-0.44345-2.2157-0.44193l-32.184 0.0518z" fill="url(#linearGradient158037)"/>
  </g>
  <g transform="matrix(5.8977 0 0 5.8977 -141.17 909.26)" stroke-linecap="round" stroke-linejoin="round">
   <path d="m25.328 20.761h13.493c0.29316 0 0.57062 0.23896 0.52917 0.52917l-0.26458 1.852c-0.04146 0.29022-0.236 0.52917-0.52917 0.52917h-12.964c-0.29316 0-0.48771-0.23896-0.52917-0.52917l-0.26459-1.852c-0.04146-0.29022 0.236-0.52917 0.52917-0.52917z" color="#000000" fill="url(#linearGradient3986)" stroke-width=".053246" style="-inkscape-stroke:none"/>
   <path d="m25.592 21.29h12.964c0.14658 0 0.28005 0.11882 0.26459 0.26458l-0.14038 1.3229c-0.01547 0.14576-0.118 0.26458-0.26458 0.26458h-12.686c-0.14658 0-0.24938-0.11879-0.26458-0.26458l-0.13803-1.3229c-0.01521-0.14578 0.118-0.26458 0.26458-0.26458z" color="#000000" fill="#6c6c6c" stroke-width=".040902" style="-inkscape-stroke:none"/>
   <path d="m25.328 20.76c-0.29316 0-0.57063 0.23896-0.52917 0.52917l0.0052 0.03514c0.04686-0.22343 0.27959-0.38966 0.52401-0.38966h13.494c0.24442 0 0.47715 0.16621 0.52401 0.38965l0.0052-0.03514c0.04146-0.29022-0.23601-0.52917-0.52917-0.52917z" color="#000000" fill="#fafafa" stroke-width=".053248" style="-inkscape-stroke:none"/>
   <path d="m25.635 21.339h12.879c0.14561 0 0.28068 0.0891 0.26284 0.24723l-0.13945 1.2362c-0.01537 0.1362-0.11723 0.24724-0.26284 0.24724h-12.603c-0.14562 0-0.24774-0.111-0.26285-0.24724l-0.13712-1.2362c-0.01807-0.16293 0.11723-0.24723 0.26284-0.24723z" color="#000000" fill="url(#linearGradient12298)" stroke-width=".039409" style="-inkscape-stroke:none"/>
   <path d="m25.328 21.515c-0.0011 0.01304-0.0013 0.02621 0 0.03979l0.13798 1.3229c0.01521 0.14579 0.118 0.26458 0.26458 0.26458h12.686c0.14658 0 0.24912-0.11882 0.26458-0.26458l0.14056-1.3229c0.0013-0.01357 0.0011-0.02676 0-0.03979l-0.14056 1.3229c-0.01548 0.14576-0.118 0.26458-0.26458 0.26458h-12.686c-0.14658 0-0.24937-0.1188-0.26458-0.26458z" color="#000000" fill="#f0f0f0" stroke-width=".040902" style="-inkscape-stroke:none"/>
   <g stroke-width=".052917">
    <rect transform="rotate(-4.0717)" x="25.055" y="23.551" width=".26459" height="1.0583" ry=".13229" fill="url(#linearGradient988)"/>
    <path d="m26.672 21.833c-3.7e-5 0.0036-2.62e-4 0.0072 0 0.01085l0.05685 0.79169c0.0052 0.0731 0.06797 0.12768 0.14108 0.12248 0.07152-0.0051 0.12556-0.06535 0.12299-0.13643-3e-3 0.06626-0.05515 0.12126-0.12299 0.12609-0.07311 0.0052-0.13588-0.04988-0.14108-0.12299z" fill="#f0f0f0"/>
    <rect transform="rotate(-4.0717)" x="25.587" y="23.588" width=".26459" height="1.0583" ry=".13229" fill="url(#linearGradient990)"/>
    <path d="m27.206 21.833c-3.7e-5 0.0036-2.62e-4 0.0072 0 0.01085l0.05685 0.79169c0.0052 0.0731 0.06797 0.12768 0.14108 0.12248 0.07152-0.0051 0.12556-0.06535 0.12299-0.13643-3e-3 0.06626-0.05515 0.12126-0.12299 0.12609-0.07311 0.0052-0.13588-0.04988-0.14108-0.12299z" fill="#f0f0f0"/>
    <rect transform="rotate(-4.0717)" x="26.12" y="23.626" width=".26459" height="1.0583" ry=".13229" fill="url(#linearGradient992)"/>
    <path d="m27.74 21.833c-3.7e-5 0.0036-2.62e-4 0.0072 0 0.01085l0.05685 0.79169c0.0052 0.0731 0.06797 0.12768 0.14108 0.12248 0.07152-0.0051 0.12556-0.06535 0.12299-0.13643-3e-3 0.06626-0.05515 0.12126-0.12299 0.12609-0.07311 0.0052-0.13588-0.04988-0.14108-0.12299z" fill="#f0f0f0"/>
    <rect transform="rotate(-4.0717)" x="26.652" y="23.664" width=".26459" height="1.0583" ry=".13229" fill="url(#linearGradient994)"/>
    <path d="m28.273 21.833c-3.7e-5 0.0036-2.62e-4 0.0072 0 0.01085l0.05685 0.79169c0.0052 0.0731 0.06797 0.12768 0.14108 0.12248 0.07152-0.0051 0.12556-0.06535 0.12299-0.13643-3e-3 0.06626-0.05515 0.12126-0.12299 0.12609-0.0731 0.0052-0.13588-0.04988-0.14108-0.12299z" fill="#f0f0f0"/>
    <rect transform="rotate(-4.0717)" x="27.185" y="23.702" width=".26459" height="1.0583" ry=".13229" fill="url(#linearGradient24281)"/>
    <path d="m28.807 21.833c-3.7e-5 0.0036-2.62e-4 0.0072 0 0.01085l0.05685 0.79169c0.0052 0.0731 0.06797 0.12768 0.14108 0.12248 0.07152-0.0051 0.12556-0.06535 0.12299-0.13643-3e-3 0.06626-0.05515 0.12126-0.12299 0.12609-0.0731 0.0052-0.13588-0.04988-0.14108-0.12299z" fill="#f0f0f0"/>
   </g>
   <circle cx="37.307" cy="22.211" r=".52917" fill="url(#linearGradient45238)" stroke-width=".059573"/>
   <path d="m37.836 22.184a0.52917 0.52917 0 0 1-0.52864 0.5116 0.52917 0.52917 0 0 1-0.52814-0.50694 0.52917 0.52917 0 0 0-0.0011 0.02274 0.52917 0.52917 0 0 0 0.52917 0.52917 0.52917 0.52917 0 0 0 0.52917-0.52917 0.52917 0.52917 0 0 0-5.29e-4 -0.02739z" fill="#d9d9d9" stroke-width=".059574"/>
   <ellipse cx="37.307" cy="22.176" rx=".48101" ry=".44675" fill="#33323a" stroke-width=".052188"/>
   <ellipse cx="37.307" cy="22.169" rx=".47252" ry=".43886" fill="url(#linearGradient59949)" stroke-width=".051266"/>
   <ellipse cx="37.307" cy="22.234" rx=".39085" ry=".36302" fill="url(#linearGradient69044)" stroke-width=".042406"/>
   <path d="m37.307 21.871a0.39085 0.36301 0 0 0-0.39069 0.36328 0.39085 0.36301 0 0 0 0.0073 0.06925 0.38746 0.35986 0 0 1-0.0036-0.05064 0.38746 0.35986 0 0 1 0.38706-0.36018 0.38746 0.35986 0 0 1 0.38756 0.36018 0.38746 0.35986 0 0 1-0.0036 0.04754 0.39085 0.36301 0 0 0 0.0072-0.06615 0.39085 0.36301 0 0 0-0.39119-0.36328z" fill="url(#linearGradient106117)" stroke-width=".042408"/>
  </g>
  <path d="m8.2201 1019.2c-0.10799 0-0.2132 0-0.32001 0.015-0.10693 0.011-0.21521 0.028-0.32001 0.049-0.10486 0.021-0.20595 0.045-0.3078 0.076-0.10191 0.031-0.20359 0.067-0.30173 0.1067-0.098138 0.039-0.19303 0.083-0.28645 0.131-0.084278 0.044-0.16708 0.093-0.24688 0.1433l-0.10675 1.1033c0.014155-0.01 0.028899-0.018 0.043053-0.028l0.06399-0.6674c0.079737-0.05 0.16266-0.1 0.24688-0.1433 0.093479-0.048 0.18837-0.091 0.28645-0.131 0.098138-0.04 0.19982-0.076 0.30173-0.1067 0.10191-0.031 0.203-0.055 0.30786-0.076s0.2132-0.038 0.32001-0.049c0.10687-0.011 0.21202-0.015 0.32001-0.015h79.543c0.10799 0 0.21314 0 0.32001 0.015 0.10687 0.011 0.21521 0.028 0.32001 0.049 0.10486 0.021 0.20589 0.045 0.3078 0.076s0.20359 0.067 0.30173 0.1067c0.09796 0.039 0.19303 0.083 0.28645 0.131 0.08428 0.044 0.16708 0.093 0.24688 0.1433l0.06399 0.6644c0.01416 0.01 0.0289 0.018 0.04246 0.028l-0.10675-1.1002c-0.07974-0.05-0.16266-0.1-0.24688-0.1432-0.09348-0.048-0.18837-0.091-0.28645-0.1311-0.09814-0.04-0.19982-0.076-0.30173-0.1067-0.10191-0.031-0.203-0.055-0.3078-0.076-0.10486-0.021-0.21314-0.038-0.32001-0.049s-0.21202-0.015-0.32001-0.015z" fill="#931322" stroke-width="6.0086"/>
  <path d="m28.44 968.76c-0.69167 0.11212-1.0095 0.0749-1.7136 0.31539-2.4364 0.83397-3.7263 2.5553-3.7263 4.7792v19.887c0 0.59343 0.0935 1.2455 0.29284 1.8176 0.14329 0.42232 0.4611 0.93551 0.76022 1.299 1.1528 1.4114 2.8913 2.1598 4.8916 2.1598h7.7642c0.77268 0 1.0905 0.025 1.1092 0.7804v4.0629c0 2.8492-0.49226 5.4741 2.6171 7.3613 0.47361 0.2832 1.0593 0.5293 1.6139 0.6789 0.6356 0.1764 1.6451 0.2619 2.318 0.2619h22.483c0.40504 0 1.4394-0.07 1.8133-0.1498 2.5486-0.556 4.3308-2.4323 4.337-4.6937v-20.41c0-0.57735-0.0935-1.0852-0.31154-1.6412-0.162-0.41158-0.49225-0.95154-0.79139-1.299-1.1528-1.3204-2.8228-2.0688-4.7482-2.0742-2.9898 8.5e-4 -5.9796-2.2e-4 -8.9694-4e-3l2e-3 -1.5514v-3.3732c0-2.7317 0.44245-5.533-2.6234-7.2918-0.41751-0.24051-1.0344-0.52921-1.5142-0.6522-0.64182-0.16023-1.8382-0.26728-2.5174-0.26187-8.4719 0-15.392 4e-5 -23.087 0zm22.078 13.127s-3.1198 0.0109-4.6797 0.0144c-0.7166 0.11754-1.2587 0.77517-0.93469 1.3792 0.18071 0.33673 0.75399 0.80187 1.0718 1.0745l2.0252 1.6946 2.1124 1.7267 1.9691 1.839 1.7572 1.5129c0.56082 0.48647 2.0189 1.8443 2.6234 2.0741 0.74776 0.27825 1.4083-0.13879 1.6388-0.7537 0.0873-0.25147 0.081-0.5185 0.081-0.78042 2e-3 -1.1235-2e-3 -3.3701-2e-3 -3.3701h3.8286c2.1186 0.0218 3.4272 1.1226 3.4272 2.9402v14.274h-16.631c-0.46115 0-0.76023 0-1.2089-0.1284-1.1279-0.3154-1.9192-1.219-2.1124-2.2079v-3.2876c-7e-3 -0.2193-0.044-0.5507 0.15575-0.7165 0.19941-0.1656 0.59197-0.1498 0.84746-0.1498h2.9225c0.2555 0 0.56082 0.013 0.81007-0.048 0.68545-0.1553 1.184-0.7324 0.87862-1.3365-0.19942-0.3904-0.72284-0.7966-1.078-1.1013l-1.9317-1.648-4.1999-3.5123-1.6575-1.5289c-0.57329-0.48645-2.1124-1.9138-2.6982-2.1437-0.71036-0.27272-1.4207 0.18156-1.6326 0.76977-0.0935 0.24602-0.081 0.51857-0.081 0.77518v3.3732h-3.8323c-2.1-0.0119-3.421-1.1386-3.4272-2.9402l3e-3 -14.266s11.085-3e-3 16.628-3e-3c1.9691 0 3.3213 1.0478 3.3275 2.7692z" fill="#fff"/>
 </g>
</svg>
