<?xml version="1.0" encoding="UTF-8" standalone="no"?>
<!-- Created with Inkscape (http://www.inkscape.org/) -->

<svg
   version="1.0"
   width="48"
   height="48"
   id="svg2453"
   inkscape:version="1.2 (dc2aedaf03, 2022-05-15)"
   sodipodi:docname="image-x-generic.svg"
   xmlns:inkscape="http://www.inkscape.org/namespaces/inkscape"
   xmlns:sodipodi="http://sodipodi.sourceforge.net/DTD/sodipodi-0.dtd"
   xmlns:xlink="http://www.w3.org/1999/xlink"
   xmlns="http://www.w3.org/2000/svg"
   xmlns:svg="http://www.w3.org/2000/svg"
   xmlns:rdf="http://www.w3.org/1999/02/22-rdf-syntax-ns#"
   xmlns:cc="http://creativecommons.org/ns#"
   xmlns:dc="http://purl.org/dc/elements/1.1/">
  <sodipodi:namedview
     pagecolor="#ffffff"
     bordercolor="#666666"
     borderopacity="1"
     objecttolerance="10"
     gridtolerance="10"
     guidetolerance="10"
     inkscape:pageopacity="0"
     inkscape:pageshadow="2"
     inkscape:window-width="1920"
     inkscape:window-height="1001"
     id="namedview55"
     showgrid="true"
     inkscape:zoom="6.6979166"
     inkscape:cx="22.544324"
     inkscape:cy="15.004666"
     inkscape:window-x="0"
     inkscape:window-y="0"
     inkscape:window-maximized="1"
     inkscape:current-layer="svg2453"
     inkscape:showpageshadow="0"
     inkscape:pagecheckerboard="0"
     inkscape:deskcolor="#d1d1d1">
    <inkscape:grid
       type="xygrid"
       id="grid3951" />
  </sodipodi:namedview>
  <metadata
     id="metadata35">
    <rdf:RDF>
      <cc:Work
         rdf:about="">
        <dc:format>image/svg+xml</dc:format>
        <dc:type
           rdf:resource="http://purl.org/dc/dcmitype/StillImage" />
        <dc:title />
      </cc:Work>
    </rdf:RDF>
  </metadata>
  <defs
     id="defs2455">
    <linearGradient
       inkscape:collect="always"
       id="linearGradient3269">
      <stop
         style="stop-color:#ededed;stop-opacity:1;"
         offset="0"
         id="stop3265" />
      <stop
         style="stop-color:#e5e5e5;stop-opacity:1;"
         offset="1"
         id="stop3267" />
    </linearGradient>
    <radialGradient
       cx="605.71429"
       cy="486.64789"
       r="117.14286"
       fx="605.71429"
       fy="486.64789"
       id="radialGradient19613"
       xlink:href="#linearGradient5060"
       gradientUnits="userSpaceOnUse"
       gradientTransform="matrix(0.02891661,0,0,0.01235294,26.973101,38.470848)" />
    <linearGradient
       id="linearGradient5060">
      <stop
         id="stop5062"
         style="stop-color:#000000;stop-opacity:1"
         offset="0" />
      <stop
         id="stop5064"
         style="stop-color:#000000;stop-opacity:0"
         offset="1" />
    </linearGradient>
    <radialGradient
       cx="605.71429"
       cy="486.64789"
       r="117.14286"
       fx="605.71429"
       fy="486.64789"
       id="radialGradient19616"
       xlink:href="#linearGradient5060"
       gradientUnits="userSpaceOnUse"
       gradientTransform="matrix(-0.0289166,0,0,0.01235294,21.026894,38.470848)" />
    <linearGradient
       id="linearGradient5048">
      <stop
         id="stop5050"
         style="stop-color:#000000;stop-opacity:0"
         offset="0" />
      <stop
         id="stop5056"
         style="stop-color:#000000;stop-opacity:1"
         offset="0.5" />
      <stop
         id="stop5052"
         style="stop-color:#000000;stop-opacity:0"
         offset="1" />
    </linearGradient>
    <linearGradient
       x1="302.85715"
       y1="366.64789"
       x2="302.85715"
       y2="609.50507"
       id="linearGradient19619"
       xlink:href="#linearGradient5048"
       gradientUnits="userSpaceOnUse"
       gradientTransform="matrix(0.08449704,0,0,0.01235294,-6.5396456,38.470822)" />
    <linearGradient
       x1="16.626165"
       y1="15.298182"
       x2="20.054544"
       y2="24.627615"
       id="linearGradient3371"
       xlink:href="#linearGradient8265-821-176-38-919-66-249-7-7-1"
       gradientUnits="userSpaceOnUse"
       gradientTransform="matrix(0.86840698,0,0,0.97592509,9.4226983,5.4253135)" />
    <linearGradient
       id="linearGradient8265-821-176-38-919-66-249-7-7-1">
      <stop
         id="stop2687-1-9-6"
         style="stop-color:#ffffff;stop-opacity:1"
         offset="0" />
      <stop
         id="stop2689-5-4-4"
         style="stop-color:#ffffff;stop-opacity:0"
         offset="1" />
    </linearGradient>
    <linearGradient
       id="linearGradient3600">
      <stop
         id="stop3602"
         style="stop-color:#f4f4f4;stop-opacity:1"
         offset="0" />
      <stop
         id="stop3604"
         style="stop-color:#dbdbdb;stop-opacity:1"
         offset="1" />
    </linearGradient>
    <linearGradient
       id="linearGradient3977">
      <stop
         id="stop3979"
         style="stop-color:#ffffff;stop-opacity:1"
         offset="0" />
      <stop
         id="stop3981"
         style="stop-color:#ffffff;stop-opacity:0.23529412"
         offset="0.03626217" />
      <stop
         id="stop3983"
         style="stop-color:#ffffff;stop-opacity:0.15686275"
         offset="0.95056331" />
      <stop
         id="stop3985"
         style="stop-color:#ffffff;stop-opacity:0.39215687"
         offset="1" />
    </linearGradient>
    <linearGradient
       x1="23.99999"
       y1="5.5641499"
       x2="23.99999"
       y2="43"
       id="linearGradient3138"
       xlink:href="#linearGradient3977"
       gradientUnits="userSpaceOnUse"
       gradientTransform="matrix(1.1621622,0,0,0.91891889,49.817867,4.4459543)" />
    <linearGradient
       x1="25.132275"
       y1="0.98520643"
       x2="25.132275"
       y2="47.013336"
       id="linearGradient3141"
       xlink:href="#linearGradient3600"
       gradientUnits="userSpaceOnUse"
       gradientTransform="matrix(1.2571399,0,0,0.76049252,47.538395,7.0815133)" />
    <linearGradient
       id="linearGradient4785-3">
      <stop
         id="stop4787-5"
         style="stop-color:#262626;stop-opacity:1"
         offset="0" />
      <stop
         id="stop4789-1"
         style="stop-color:#4d4d4d;stop-opacity:1"
         offset="1" />
    </linearGradient>
    <linearGradient
       id="linearGradient3610-302-9-7">
      <stop
         id="stop3796-3-8"
         style="stop-color:#bfbfbf;stop-opacity:1;"
         offset="0" />
      <stop
         id="stop3798-1-9"
         style="stop-color:#a7a7a7;stop-opacity:1;"
         offset="1" />
    </linearGradient>
    <linearGradient
       x1="45.414135"
       y1="15.270427"
       x2="45.567307"
       y2="96.25267"
       id="linearGradient3077"
       xlink:href="#linearGradient4785-3"
       gradientUnits="userSpaceOnUse"
       gradientTransform="matrix(0.49083951,0,0,0.38033512,-57.357144,-48.338381)" />
    <linearGradient
       x1="-24.032034"
       y1="-13.090545"
       x2="-24.097931"
       y2="-40.163883"
       id="linearGradient3079"
       xlink:href="#linearGradient3610-302-9-7"
       gradientUnits="userSpaceOnUse"
       gradientTransform="matrix(1.1142855,0,0,1.1111114,2.7514597,3.5103482)" />
    <linearGradient
       id="linearGradient3610-302-9-7-6">
      <stop
         offset="0"
         style="stop-color:#1d1d1d;stop-opacity:1"
         id="stop3796-3-8-6" />
      <stop
         offset="1"
         style="stop-color:#000000;stop-opacity:1"
         id="stop3798-1-9-9" />
    </linearGradient>
    <linearGradient
       gradientTransform="matrix(1.4133846,0,0,1.4015846,3.9862641,4.9034405)"
       gradientUnits="userSpaceOnUse"
       xlink:href="#linearGradient3610-302-9-7-6"
       id="linearGradient3079-1"
       y2="36.268814"
       x2="30.305618"
       y1="6.9420786"
       x1="30.305618" />
    <linearGradient
       id="linearGradient4785-3-8">
      <stop
         offset="0"
         style="stop-color:#262626;stop-opacity:1"
         id="stop4787-5-5" />
      <stop
         offset="1"
         style="stop-color:#4d4d4d;stop-opacity:1"
         id="stop4789-1-1" />
    </linearGradient>
    <linearGradient
       gradientTransform="matrix(0.62259178,0,0,0.47976456,-72.256838,-60.499888)"
       gradientUnits="userSpaceOnUse"
       xlink:href="#linearGradient4785-3-8"
       id="linearGradient3077-9"
       y2="156.78416"
       x2="164.28023"
       y1="241.65149"
       x1="164.28023" />
    <linearGradient
       gradientTransform="matrix(0.11390532,0,0,0.02058823,-9.1686406,48.451416)"
       gradientUnits="userSpaceOnUse"
       xlink:href="#linearGradient5048-8"
       id="linearGradient3178"
       y2="609.50507"
       x2="302.85715"
       y1="366.64789"
       x1="302.85715" />
    <radialGradient
       gradientTransform="matrix(-0.03212956,0,0,0.02058823,23.863217,48.451416)"
       gradientUnits="userSpaceOnUse"
       xlink:href="#linearGradient5060-2"
       id="radialGradient3175"
       fy="486.64789"
       fx="605.71429"
       r="117.14286"
       cy="486.64789"
       cx="605.71429" />
    <radialGradient
       gradientTransform="matrix(0.03212956,0,0,0.02058823,40.136784,48.451416)"
       gradientUnits="userSpaceOnUse"
       xlink:href="#linearGradient5060-2"
       id="radialGradient3172"
       fy="486.64789"
       fx="605.71429"
       r="117.14286"
       cy="486.64789"
       cx="605.71429" />
    <linearGradient
       gradientTransform="matrix(1.6571391,0,0,0.99949772,-7.7713459,9.4785876)"
       gradientUnits="userSpaceOnUse"
       xlink:href="#linearGradient3600-9"
       id="linearGradient3169"
       y2="47.013336"
       x2="25.132275"
       y1="0.98520643"
       x1="25.132275" />
    <linearGradient
       gradientTransform="matrix(1.5405406,0,0,1.216213,-4.9729707,5.8108651)"
       gradientUnits="userSpaceOnUse"
       xlink:href="#linearGradient3977-4"
       id="linearGradient3166"
       y2="42.100208"
       x2="23.99999"
       y1="5.8641062"
       x1="23.99999" />
    <linearGradient
       gradientTransform="matrix(1.3612077,0,0,0.95572049,91.691477,7.7856436)"
       gradientUnits="userSpaceOnUse"
       xlink:href="#linearGradient3104-6"
       id="linearGradient3163"
       y2="2.9062471"
       x2="-51.786404"
       y1="50.786446"
       x1="-51.786404" />
    <linearGradient
       id="linearGradient5048-8">
      <stop
         offset="0"
         style="stop-color:#000000;stop-opacity:0"
         id="stop5050-4" />
      <stop
         offset="0.5"
         style="stop-color:#000000;stop-opacity:1"
         id="stop5056-5" />
      <stop
         offset="1"
         style="stop-color:#000000;stop-opacity:0"
         id="stop5052-1" />
    </linearGradient>
    <linearGradient
       id="linearGradient5060-2">
      <stop
         offset="0"
         style="stop-color:#000000;stop-opacity:1"
         id="stop5062-3" />
      <stop
         offset="1"
         style="stop-color:#000000;stop-opacity:0"
         id="stop5064-1" />
    </linearGradient>
    <linearGradient
       id="linearGradient3600-9">
      <stop
         offset="0"
         style="stop-color:#f4f4f4;stop-opacity:1"
         id="stop3602-3" />
      <stop
         offset="1"
         style="stop-color:#dbdbdb;stop-opacity:1"
         id="stop3604-7" />
    </linearGradient>
    <linearGradient
       id="linearGradient3977-4">
      <stop
         offset="0"
         style="stop-color:#ffffff;stop-opacity:1"
         id="stop3979-7" />
      <stop
         offset="0.01214366"
         style="stop-color:#ffffff;stop-opacity:0.23529412"
         id="stop3981-6" />
      <stop
         offset="0.98781353"
         style="stop-color:#ffffff;stop-opacity:0.15686275"
         id="stop3983-5" />
      <stop
         offset="1"
         style="stop-color:#ffffff;stop-opacity:0.39215687"
         id="stop3985-6" />
    </linearGradient>
    <linearGradient
       id="linearGradient3104-6">
      <stop
         offset="0"
         style="stop-color:#000000;stop-opacity:0.31782946"
         id="stop3106-3" />
      <stop
         offset="1"
         style="stop-color:#000000;stop-opacity:0.24031007"
         id="stop3108-9" />
    </linearGradient>
    <linearGradient
       inkscape:collect="always"
       xlink:href="#linearGradient3977-4"
       id="linearGradient3147"
       gradientUnits="userSpaceOnUse"
       gradientTransform="matrix(1.5405406,0,0,1.216213,-77.447548,-1.917987)"
       x1="23.99999"
       y1="5.8641062"
       x2="23.99999"
       y2="42.100208" />
    <linearGradient
       inkscape:collect="always"
       xlink:href="#linearGradient4785-3-8"
       id="linearGradient3150"
       gradientUnits="userSpaceOnUse"
       gradientTransform="matrix(0.62259178,0,0,0.47976456,-144.73141,-68.22874)"
       x1="164.28023"
       y1="241.65149"
       x2="164.28023"
       y2="156.78416" />
    <linearGradient
       inkscape:collect="always"
       xlink:href="#linearGradient3610-302-9-7-6"
       id="linearGradient3152"
       gradientUnits="userSpaceOnUse"
       gradientTransform="matrix(1.4133846,0,0,1.4015846,-68.488313,-2.8254116)"
       x1="30.305618"
       y1="6.9420786"
       x2="30.305618"
       y2="36.268814" />
    <linearGradient
       inkscape:collect="always"
       xlink:href="#linearGradient3600-9"
       id="linearGradient3155"
       gradientUnits="userSpaceOnUse"
       gradientTransform="matrix(1.6571391,0,0,0.99949772,-80.245923,1.7497355)"
       x1="25.132275"
       y1="0.98520643"
       x2="25.132275"
       y2="47.013336" />
    <radialGradient
       inkscape:collect="always"
       xlink:href="#linearGradient5060-2"
       id="radialGradient3158"
       gradientUnits="userSpaceOnUse"
       gradientTransform="matrix(0.03212956,0,0,0.02058823,-32.337793,40.722564)"
       cx="605.71429"
       cy="486.64789"
       fx="605.71429"
       fy="486.64789"
       r="117.14286" />
    <radialGradient
       inkscape:collect="always"
       xlink:href="#linearGradient5060-2"
       id="radialGradient3161"
       gradientUnits="userSpaceOnUse"
       gradientTransform="matrix(-0.03212956,0,0,0.02058823,-48.61136,40.722564)"
       cx="605.71429"
       cy="486.64789"
       fx="605.71429"
       fy="486.64789"
       r="117.14286" />
    <linearGradient
       inkscape:collect="always"
       xlink:href="#linearGradient5048-8"
       id="linearGradient3164"
       gradientUnits="userSpaceOnUse"
       gradientTransform="matrix(0.11390532,0,0,0.02058823,-81.643218,40.722564)"
       x1="302.85715"
       y1="366.64789"
       x2="302.85715"
       y2="609.50507" />
    <linearGradient
       id="linearGradient3707-319-631-407-324-616-674-812-821-107-178-392-400-7-3-5-8-0">
      <stop
         id="stop5440-9-8-4-9-47"
         style="stop-color:#272727;stop-opacity:1"
         offset="0" />
      <stop
         id="stop5442-0-9-2-7-37"
         style="stop-color:#454545;stop-opacity:1"
         offset="1" />
    </linearGradient>
    <linearGradient
       y2="-174.9679"
       x2="149.98465"
       y1="-104.23534"
       x1="149.98465"
       gradientTransform="matrix(0.42132707,0,0,0.42413289,-33.192592,79.209636)"
       gradientUnits="userSpaceOnUse"
       id="linearGradient3949"
       xlink:href="#linearGradient3707-319-631-407-324-616-674-812-821-107-178-392-400-7-3-5-8-0"
       inkscape:collect="always" />
    <linearGradient
       inkscape:collect="always"
       xlink:href="#linearGradient4785-3"
       id="linearGradient3997"
       gradientUnits="userSpaceOnUse"
       gradientTransform="matrix(0.48996039,0,0,0.38149468,-57.358615,-48.348941)"
       x1="45.414135"
       y1="15.270427"
       x2="45.567307"
       y2="96.25267" />
    <linearGradient
       inkscape:collect="always"
       xlink:href="#linearGradient3610-302-9-7"
       id="linearGradient3999"
       gradientUnits="userSpaceOnUse"
       gradientTransform="matrix(1.1122897,0,0,1.114499,2.64233,3.6578638)"
       x1="-24.032034"
       y1="-13.090545"
       x2="-24.097931"
       y2="-40.163883" />
    <linearGradient
       id="linearGradient1954"
       x1="-19"
       x2="-19"
       y1="6"
       y2="47"
       gradientTransform="translate(-12,1)"
       gradientUnits="userSpaceOnUse">
      <stop
         stop-color="#ededed"
         offset="0"
         id="stop409" />
      <stop
         stop-color="#e5e5e5"
         offset="1"
         id="stop411" />
    </linearGradient>
    <linearGradient
       id="linearGradient6915"
       x1="3"
       x2="-1"
       y1="5"
       y2="9"
       gradientTransform="rotate(180,-7.7651635,10.687014)"
       gradientUnits="userSpaceOnUse">
      <stop
         stop-color="#f3f3f3"
         offset="0"
         id="stop414" />
      <stop
         stop-color="#ebebeb"
         offset="1"
         id="stop416" />
    </linearGradient>
    <filter
       color-interpolation-filters="sRGB"
       height="1.1549369"
       width="1.1350756"
       y="-0.077468444"
       x="-0.067537808"
       id="b-6">
      <feGaussianBlur
         id="feGaussianBlur4"
         stdDeviation=".47521291" />
    </filter>
    <linearGradient
       inkscape:collect="always"
       xlink:href="#k"
       id="linearGradient1350"
       gradientUnits="userSpaceOnUse"
       x1="-350.66"
       y1="-73.890999"
       x2="-376.35999"
       y2="-319.06"
       gradientTransform="matrix(0.02951265,0,0,-0.02951265,34.359412,28.286173)" />
    <linearGradient
       id="k"
       x1="-350.66"
       x2="-376.35999"
       y1="-73.890999"
       y2="-319.06"
       gradientUnits="userSpaceOnUse">
      <stop
         stop-color="#83a3d4"
         offset="0"
         id="stop5" />
      <stop
         stop-color="#6bb5e3"
         offset="1"
         id="stop7" />
    </linearGradient>
    <linearGradient
       inkscape:collect="always"
       xlink:href="#i"
       id="linearGradient1352"
       gradientUnits="userSpaceOnUse"
       x1="-206.77"
       y1="-12.925"
       x2="10.512"
       y2="-156.89"
       gradientTransform="matrix(0.02951265,0,0,-0.02951265,34.359412,28.286173)" />
    <linearGradient
       id="i"
       x1="-206.77"
       x2="10.512"
       y1="-12.925"
       y2="-156.89"
       gradientUnits="userSpaceOnUse">
      <stop
         stop-color="#70c2bd"
         offset="0"
         id="stop10" />
      <stop
         stop-color="#67c381"
         offset="1"
         id="stop12" />
    </linearGradient>
    <linearGradient
       inkscape:collect="always"
       xlink:href="#e"
       id="linearGradient1354"
       gradientUnits="userSpaceOnUse"
       x1="134.57001"
       y1="117.3"
       x2="148.50999"
       y2="-149.19"
       gradientTransform="matrix(0.02951265,0,0,-0.02951265,19.708176,13.657022)" />
    <linearGradient
       id="e"
       x1="134.57001"
       x2="148.50999"
       y1="117.3"
       y2="-149.19"
       gradientUnits="userSpaceOnUse">
      <stop
         stop-color="#faaa32"
         offset="0"
         id="stop15" />
      <stop
         stop-color="#fdc22b"
         offset="1"
         id="stop17" />
    </linearGradient>
    <linearGradient
       inkscape:collect="always"
       xlink:href="#r"
       id="linearGradient1356"
       gradientUnits="userSpaceOnUse"
       x1="-146.05"
       y1="144.89999"
       x2="123.36"
       y2="144.89999"
       gradientTransform="matrix(0.02951265,0,0,-0.02951265,34.359412,28.286173)" />
    <linearGradient
       id="r"
       x1="-146.05"
       x2="123.36"
       y1="144.89999"
       y2="144.89999"
       gradientUnits="userSpaceOnUse">
      <stop
         stop-color="#a0cf63"
         offset="0"
         id="stop20" />
      <stop
         stop-color="#c4da45"
         offset="1"
         id="stop22" />
    </linearGradient>
    <linearGradient
       inkscape:collect="always"
       xlink:href="#m"
       id="linearGradient1358"
       gradientUnits="userSpaceOnUse"
       x1="206.71001"
       y1="-12.741"
       x2="28.495001"
       y2="-150.00999"
       gradientTransform="matrix(0.02951265,0,0,-0.02951265,13.633568,28.285688)" />
    <linearGradient
       id="m"
       x1="206.71001"
       x2="28.495001"
       y1="-12.741"
       y2="-150.00999"
       gradientUnits="userSpaceOnUse">
      <stop
         stop-color="#b28cc0"
         offset="0"
         id="stop25" />
      <stop
         stop-color="#9a8ec4"
         offset="1"
         id="stop27" />
    </linearGradient>
    <linearGradient
       inkscape:collect="always"
       xlink:href="#q"
       id="linearGradient1360"
       gradientUnits="userSpaceOnUse"
       x1="189.94"
       y1="147.05"
       x2="-19.618"
       y2="76.405998"
       gradientTransform="matrix(0.02951265,0,0,-0.02951265,13.672644,19.738425)" />
    <linearGradient
       id="q"
       x1="189.94"
       x2="-19.618"
       y1="147.05"
       y2="76.405998"
       gradientUnits="userSpaceOnUse">
      <stop
         stop-color="#f48155"
         offset="0"
         id="stop30" />
      <stop
         stop-color="#f16168"
         offset="1"
         id="stop32" />
    </linearGradient>
    <linearGradient
       inkscape:collect="always"
       xlink:href="#l"
       id="linearGradient1362"
       gradientUnits="userSpaceOnUse"
       x1="116.5"
       y1="308.29999"
       x2="21.156"
       y2="34.18"
       gradientTransform="matrix(0.02951265,0,0,-0.02951265,19.716185,34.323889)" />
    <linearGradient
       id="l"
       x1="116.5"
       x2="21.156"
       y1="308.29999"
       y2="34.18"
       gradientUnits="userSpaceOnUse">
      <stop
         stop-color="#735194"
         offset="0"
         id="stop35" />
      <stop
         stop-color="#525da3"
         offset="1"
         id="stop37" />
    </linearGradient>
    <linearGradient
       inkscape:collect="always"
       xlink:href="#j"
       id="linearGradient1364"
       gradientUnits="userSpaceOnUse"
       x1="30.131001"
       y1="111.5"
       x2="123.33"
       y2="-107.17"
       gradientTransform="matrix(0.02951265,0,0,-0.02951265,24.014208,30.04771)" />
    <linearGradient
       id="j"
       x1="30.131001"
       x2="123.33"
       y1="111.5"
       y2="-107.17"
       gradientUnits="userSpaceOnUse">
      <stop
         stop-color="#416db9"
         offset="0"
         id="stop40" />
      <stop
         stop-color="#337e8d"
         offset="1"
         id="stop42" />
    </linearGradient>
    <linearGradient
       inkscape:collect="always"
       xlink:href="#h"
       id="linearGradient1366"
       gradientUnits="userSpaceOnUse"
       x1="-103.67"
       y1="133.12"
       x2="205.55"
       y2="0.071801998"
       gradientTransform="matrix(0.02951265,0,0,-0.02951265,28.256409,28.281562)" />
    <linearGradient
       id="h"
       x1="-103.67"
       x2="205.55"
       y1="133.12"
       y2="0.071801998"
       gradientUnits="userSpaceOnUse">
      <stop
         stop-color="#2e9274"
         offset="0"
         id="stop45" />
      <stop
         stop-color="#469d3c"
         offset="1"
         id="stop47" />
    </linearGradient>
    <linearGradient
       inkscape:collect="always"
       xlink:href="#f"
       id="linearGradient1368"
       gradientUnits="userSpaceOnUse"
       x1="26.978001"
       y1="120.23"
       x2="146.81"
       y2="-100.49"
       gradientTransform="matrix(0.02951265,0,0,-0.02951265,19.745795,19.73891)" />
    <linearGradient
       id="f"
       x1="26.978001"
       x2="146.81"
       y1="120.23"
       y2="-100.49"
       gradientUnits="userSpaceOnUse">
      <stop
         stop-color="#ec4001"
         offset="0"
         id="stop50" />
      <stop
         stop-color="#fb6f01"
         offset="1"
         id="stop52" />
    </linearGradient>
    <linearGradient
       inkscape:collect="always"
       xlink:href="#d"
       id="linearGradient1370"
       gradientUnits="userSpaceOnUse"
       x1="-14.299"
       y1="73.5"
       x2="309.39999"
       y2="73.5"
       gradientTransform="matrix(0.02951265,0,0,-0.02951265,25.193015,24.010722)" />
    <linearGradient
       id="d"
       x1="-14.299"
       x2="309.39999"
       y1="73.5"
       y2="73.5"
       gradientUnits="userSpaceOnUse">
      <stop
         stop-color="#58a920"
         offset="0"
         id="stop55" />
      <stop
         stop-color="#98b811"
         offset="1"
         id="stop57" />
    </linearGradient>
    <linearGradient
       inkscape:collect="always"
       xlink:href="#o"
       id="linearGradient1372"
       gradientUnits="userSpaceOnUse"
       x1="-123.12"
       y1="144.89999"
       x2="145.99001"
       y2="144.89999"
       gradientTransform="matrix(0.02951265,0,0,-0.02951265,13.633568,28.285688)" />
    <linearGradient
       id="o"
       x1="-123.12"
       x2="145.99001"
       y1="144.89999"
       y2="144.89999"
       gradientUnits="userSpaceOnUse">
      <stop
         stop-color="#d287af"
         offset="0"
         id="stop60" />
      <stop
         stop-color="#e07993"
         offset="1"
         id="stop62" />
    </linearGradient>
    <linearGradient
       inkscape:collect="always"
       xlink:href="#p"
       id="linearGradient1374"
       gradientUnits="userSpaceOnUse"
       x1="-205.78"
       y1="-71.695999"
       x2="117.82"
       y2="-71.695999"
       gradientTransform="matrix(0.02951265,0,0,-0.02976021,19.745795,19.736483)" />
    <linearGradient
       id="p"
       x1="-205.78"
       x2="117.82"
       y1="-71.695999"
       y2="-71.695999"
       gradientUnits="userSpaceOnUse">
      <stop
         stop-color="#bd090f"
         offset="0"
         id="stop65" />
      <stop
         stop-color="#e11f07"
         offset="1"
         id="stop67" />
    </linearGradient>
    <linearGradient
       inkscape:collect="always"
       xlink:href="#n"
       id="linearGradient1376"
       gradientUnits="userSpaceOnUse"
       x1="0.17641"
       y1="-14.583"
       x2="-308.72"
       y2="-143.71001"
       gradientTransform="matrix(0.02951265,0,0,-0.02951265,22.782977,24.036691)" />
    <linearGradient
       id="n"
       x1="0.17641"
       x2="-308.72"
       y1="-14.583"
       y2="-143.71001"
       gradientUnits="userSpaceOnUse">
      <stop
         stop-color="#c23857"
         offset="0"
         id="stop70" />
      <stop
         stop-color="#914475"
         offset="1"
         id="stop72" />
    </linearGradient>
    <linearGradient
       inkscape:collect="always"
       xlink:href="#g"
       id="linearGradient1378"
       gradientUnits="userSpaceOnUse"
       x1="41.41"
       y1="108.53"
       x2="117.32"
       y2="319.10999"
       gradientTransform="matrix(-0.02920685,0,0,0.02996651,28.264418,13.607754)" />
    <linearGradient
       id="g"
       x1="41.41"
       x2="117.32"
       y1="108.53"
       y2="319.10999"
       gradientUnits="userSpaceOnUse">
      <stop
         stop-color="#e69e08"
         offset="0"
         id="stop75" />
      <stop
         stop-color="#cbc507"
         offset="1"
         id="stop77" />
    </linearGradient>
    <linearGradient
       inkscape:collect="always"
       xlink:href="#linearGradient3269"
       id="linearGradient3271"
       x1="13"
       y1="8"
       x2="13"
       y2="39"
       gradientUnits="userSpaceOnUse" />
  </defs>
  <rect
     style="font-variation-settings:'wght' 700;fill:url(#linearGradient3271);fill-opacity:1;fill-rule:evenodd;stroke-width:4.71274;stroke-linecap:round;stroke-linejoin:round;paint-order:stroke fill markers"
     id="rect783"
     width="44"
     height="36"
     x="2"
     y="6"
     ry="4" />
  <path
     inkscape:connector-curvature="0"
     id="path119-0"
     d="m 0,0 c -2.079,12.684 -2.369,25.462 -2.342,38.287 0.097,45.319 0.029,90.64 0.045,135.96 0.003,10.322 1.244,20.532 2.993,30.688 0.133,0.307 0.229,0.627 0.291,0.957 1.784,-0.049 3.495,0.189 5.26,0.628 41.963,10.43 73.701,34.46 95.035,71.975 7.571,13.313 13.214,27.508 15.222,42.892 0.193,0.136 0.398,0.251 0.615,0.342 5.629,0.768 11.257,1.537 16.886,2.305 0.332,-0.066 0.647,-0.181 0.944,-0.345 2.605,-5.074 7.47,-8.575 9.695,-13.917 -0.247,-0.655 -0.388,-1.378 -0.755,-1.956 -23.521,-37.014 -29.636,-76.805 -18.485,-119.12 4.045,-15.351 10.131,-29.945 20.078,-42.614 0.049,-0.39 0.098,-0.778 0.147,-1.168 -4.004,-2.868 -5.909,-7.482 -9.174,-10.991 C 106.932,102.187 75.465,72.379 44.975,41.603 31.57,28.073 18.79,13.849 3.585,2.191 2.461,1.329 1.526,0.189 0,-0.003"
     transform="matrix(0.02951383,0,0,-0.02951383,19.71645,34.710157)"
     style="fill-opacity:0.50259;fill-rule:evenodd;filter:url(#b-6)" />
  <path
     inkscape:connector-curvature="0"
     id="path121-2"
     d="m 0,0 c -0.05,0.39 -0.099,0.778 -0.146,1.168 0.434,0.775 0.844,1.569 1.31,2.326 26.411,42.897 30.374,87.871 12.471,134.86 -3.56,9.342 -8.948,17.742 -13.704,26.466 2.18,5.397 7.158,8.848 9.722,13.979 0.252,0.156 0.526,0.258 0.819,0.302 5.538,-1.604 11.307,-1.43 16.952,-2.223 0.175,-0.138 0.345,-0.28 0.512,-0.427 -0.001,-0.713 -0.119,-1.446 0.013,-2.133 10.72,-55.713 58.257,-102.85 114.58,-113.65 0.404,-0.276 0.807,-0.554 1.211,-0.83 2.037,-8.864 2.944,-17.927 2.981,-26.939 0.214,-51.784 0.202,-103.57 -0.007,-155.35 -0.03,-7.195 -0.504,-14.513 -2.38,-22.041 -6.714,3.358 -11.831,8.406 -16.783,13.314 C 89.89,-93.837 52.413,-56.31 14.991,-18.728 9.349,-13.06 4.542,-6.606 -0.003,-0.001"
     transform="matrix(0.02951383,0,0,-0.02951383,24.014672,30.433141)"
     style="fill-opacity:0.50259;fill-rule:evenodd;filter:url(#b-6)" />
  <path
     inkscape:connector-curvature="0"
     id="path123"
     d="m 0,0 c -0.404,0.276 -0.808,0.554 -1.21,0.83 1.343,0.93 0.825,2.095 0.544,3.342 -5.883,26.121 -17.834,49.059 -36.182,68.573 -21.634,23.009 -47.987,37.618 -78.958,43.868 -0.167,0.147 -0.337,0.289 -0.508,0.428 -1.027,5.331 -0.93,10.858 -2.814,16.039 0.282,0.578 0.564,1.157 0.844,1.735 4.407,3.345 8.814,6.688 13.222,10.032 0.419,-0.047 0.839,-0.093 1.259,-0.141 3.939,-2.418 7.757,-5.062 11.835,-7.218 29.949,-15.832 61.64,-20.773 95.046,-15.119 20.279,3.434 38.956,10.737 55.906,22.412 h 1.728 c 44.979,-38.192 83.951,-82.545 126.43,-123.3 6.443,-6.182 12.615,-12.616 17.712,-19.994 0.296,-0.426 0.467,-0.942 0.695,-1.416 -5.551,-1.262 -11.177,-2.125 -16.858,-2.13 -55.666,-0.051 -111.33,-0.106 -167,0.062 -7.233,0.022 -14.463,1.3 -21.695,1.996"
     transform="matrix(0.02951383,0,0,-0.02951383,28.256935,28.666906)"
     style="fill-opacity:0.50259;fill-rule:evenodd;filter:url(#b-6)" />
  <path
     inkscape:connector-curvature="0"
     id="path127-7"
     d="m 0,0 c 0.636,0.014 1.272,0.028 1.909,0.04 4.966,-1.986 8.217,-6.431 12.822,-8.933 0.886,-6.106 -0.922,-11.986 -1.519,-17.967 -0.217,-0.091 -0.422,-0.205 -0.615,-0.341 -31.921,-6.426 -58.889,-21.717 -80.709,-45.807 -18.052,-19.931 -29.898,-43.117 -34.807,-69.689 -0.062,-0.33 -0.159,-0.65 -0.291,-0.957 -63.191,-4.993 -126.49,-1.063 -189.72,-2.145 -5.263,-0.09 -10.632,0.595 -15.791,2.088 3.139,4.982 6.775,9.566 10.936,13.728 38.841,38.845 77.649,77.722 116.59,116.47 4.135,4.116 8.99,7.522 13.604,11.137 1.548,1.211 3.383,2.053 3.575,4.329 0.761,-0.016 1.519,-0.033 2.278,-0.048 -0.34,-1.585 0.808,-2.178 1.874,-2.852 28.512,-18.025 59.806,-25.195 93.149,-22.363 24.048,2.043 46.325,10.256 66.72,23.311"
     transform="matrix(0.02951383,0,0,-0.02951383,22.783284,24.421992)"
     style="fill-opacity:0.50259;fill-rule:evenodd;filter:url(#b-6)" />
  <path
     inkscape:connector-curvature="0"
     id="path129-5"
     d="m 0,0 c 3.8516,27.454 16.049,51.346 34.102,71.277 21.819,24.09 50.179,38.23 82.101,44.656 C 114.195,100.548 107.8659,85.916 100.295,72.604 77.964,31.475 39.582,2.477 -0.375,-0.936"
     transform="matrix(0.02951383,0,0,-0.02951383,19.745607,28.633625)"
     style="fill-opacity:0.50259;fill-rule:evenodd;filter:url(#b-6)" />
  <path
     inkscape:connector-curvature="0"
     id="path131-9"
     d="m 0,0 c 4.757,-8.725 10.145,-17.124 13.704,-26.466 17.903,-46.992 16.234,-92.673 -10.178,-135.57 -0.465,-0.757 -3.1693,-3.1387 -3.6033,-3.9137 -9.948,12.669 -16.034,29.555 -20.079,44.907 -11.151,42.311 -5.036,82.102 18.485,119.12 0.367,0.577 0.508,1.301 0.754,1.956 -0.001,0 0.458,0.01 0.458,0.01 z"
     transform="matrix(0.02951383,0,0,-0.02951383,24.01261,25.568557)"
     style="fill-opacity:0.50259;fill-rule:evenodd;filter:url(#b-6)" />
  <path
     inkscape:connector-curvature="0"
     id="path133-2"
     d="m 0,0 c 0.597,5.981 2.405,11.861 1.519,17.97 0,0.002 0.393,0.1 0.393,0.1 L 2.317,18.06 C 6.742,12.41 13.11,8.557 16.887,2.306 11.257,1.537 5.629,0.769 0,0"
     transform="matrix(0.02951383,0,0,-0.02951383,23.173229,25.214839)"
     style="fill-opacity:0.50259;fill-rule:evenodd;filter:url(#b-6)" />
  <path
     inkscape:connector-curvature="0"
     id="path135-2"
     d="m 0,0 -0.459,0.041 c 0,0 -0.459,-0.01 -0.458,-0.01 -2.224,5.342 -7.089,8.843 -9.694,13.917 6.776,1.07 13.554,0.984 20.334,0.031 C 7.158,8.848 2.181,5.396 0,0"
     transform="matrix(0.02951383,0,0,-0.02951383,24.01261,25.568557)"
     style="fill-opacity:0.50259;fill-rule:evenodd;filter:url(#b-6)" />
  <path
     inkscape:connector-curvature="0"
     id="path137-8"
     d="m 0,0 c 30.971,-6.25 57.323,-20.859 78.958,-43.868 18.348,-19.514 31.137,-42.143 37.02,-68.264 0.281,-1.247 1.1508,-3.736 -0.19119,-4.665 -56.325,10.799 -105.05,58.951 -115.77,114.66 -0.132,0.687 -0.015,1.42 -0.014,2.133"
     transform="matrix(0.02951383,0,0,-0.02951383,24.839032,25.225147)"
     style="fill-opacity:0.50259;fill-rule:evenodd;filter:url(#b-6)" />
  <path
     inkscape:connector-curvature="0"
     id="path139-9"
     d="M 0,0 C 3.99,5.347 8.287,10.377 14.141,13.816 16.025,8.636 15.929,3.108 16.955,-2.223 11.308,-1.431 5.538,-1.604 0,0"
     transform="matrix(0.02951383,0,0,-0.02951383,24.323623,25.1471)"
     style="fill-opacity:0.50259;fill-rule:evenodd;filter:url(#b-6)" />
  <path
     inkscape:connector-curvature="0"
     id="path141-7"
     d="m 0.1323,1.4995 c 16.148,11.715 34.215,17.267 53.639,20.819 31.52,5.764 62.559,2.188 91.622,-11.714 6.3657,-2.985 13.952,-5.7913 19.265,-10.403 -16.95,-11.676 -37.498,-19.104 -57.777,-22.538 -33.406,-5.654 -65.097,-0.713 -95.046,15.119 -4.078,2.156 -9.3082,5.0205 -13.246,7.4385"
     transform="matrix(0.02951383,0,0,-0.02951383,25.19334,24.396074)"
     style="fill-opacity:0.50259;fill-rule:evenodd;filter:url(#b-6)" />
  <path
     inkscape:connector-curvature="0"
     id="path143-3"
     d="m 0.17641,-1.4995 c -20.395,-13.055 -42.848,-21.016 -66.896,-23.059 -37.915,-3.7022 -74.757,6.5336 -97.892,26.338 49.76,32.01 130.32,34.023 166.38,-1.7793"
     transform="matrix(0.02951383,0,0,-0.02951383,22.783284,24.421992)"
     style="fill-opacity:0.50259;fill-rule:evenodd;filter:url(#b-6)" />
  <path
     inkscape:connector-curvature="0"
     style="fill:url(#linearGradient1350);fill-rule:evenodd;stroke-width:0.0295126"
     id="path147-6"
     d="m 34.359412,28.286173 c 0.303833,0.459778 0.550795,0.945526 0.680001,1.485342 0.581075,2.427593 -0.895857,4.742683 -3.228389,5.280108 -1.230146,0.283469 -2.368065,0.05531 -3.420516,-0.63098 -0.02624,-0.01709 -0.05303,-0.03332 -0.08529,-0.05354 -0.06289,0.08063 -0.05557,0.179053 -0.07629,0.266086 -0.412587,1.731625 -1.785397,3.014127 -3.537681,3.3004 -2.314441,0.378145 -4.492711,-1.140104 -4.953108,-3.452095 -0.0082,-0.04126 -0.01886,-0.08208 -0.02836,-0.123156 0.0024,-0.0113 0.0047,-0.02255 0.0071,-0.03379 0.04504,-0.0057 0.07263,-0.03931 0.105803,-0.06478 0.44874,-0.344028 0.825912,-0.763846 1.221529,-1.163152 0.89984,-0.908252 1.828515,-1.787994 2.699817,-2.724578 0.09636,-0.10356 0.152551,-0.239732 0.270749,-0.324374 0.134135,0.194931 0.276002,0.385376 0.442513,0.552654 1.104363,1.109174 2.210409,2.216725 3.321944,3.318697 0.146146,0.144878 0.297162,0.293828 0.49531,0.392961 0.05537,-0.2222 0.06936,-0.438144 0.07024,-0.650488 0.0062,-1.528254 0.0065,-3.056625 2.07e-4,-4.58479 -0.0011,-0.265939 -0.02783,-0.533412 -0.08798,-0.795012 0.213465,0.02054 0.426812,0.05823 0.640306,0.05891 1.642851,0.005 3.285644,0.0033 4.928613,0.0018 0.167632,-1.18e-4 0.33367,-0.02559 0.497465,-0.06283 0.01201,0.0023 0.02399,0.0045 0.03598,0.0068" />
  <path
     inkscape:connector-curvature="0"
     style="fill:url(#linearGradient1352);fill-rule:evenodd;stroke-width:0.0295126"
     id="path149-1"
     d="m 34.359412,28.286173 c 0.303833,0.459778 0.550795,0.945526 0.680001,1.485342 0.581075,2.427593 -0.895857,4.742683 -3.228389,5.280108 -1.230146,0.283469 -2.368065,0.05531 -3.420516,-0.63098 -0.02624,-0.01709 -0.05303,-0.03332 -0.08529,-0.05354 -0.06289,0.08063 -0.05557,0.179053 -0.07629,0.266086 l 0.04557,-0.321157 c 0.05537,-0.2222 0.06935,-0.438144 0.07024,-0.650488 0.0062,-1.528254 0.0065,-3.056625 2.07e-4,-4.58479 -0.0011,-0.265939 -0.02783,-0.533412 -0.08798,-0.795012 0.213465,0.02054 0.426812,0.05823 0.640307,0.05891 1.642851,0.005 3.285643,0.0033 4.928612,0.0018 0.167632,-1.18e-4 0.33367,-0.02559 0.497466,-0.06283 0.01201,0.0023 0.02399,0.0045 0.03598,0.0068" />
  <path
     inkscape:connector-curvature="0"
     style="fill:url(#linearGradient1354);fill-rule:evenodd;stroke-width:0.0295126"
     id="path153-2"
     d="m 19.708176,13.657022 c 0.170996,-0.946264 0.580366,-1.773946 1.289024,-2.426383 1.240358,-1.141903 2.697161,-1.5052037 4.303535,-0.997881 1.60593,0.507175 2.58212,1.640578 2.955692,3.286233 0.01048,0.04622 0.02072,0.09246 0.03111,0.13871 0.01986,0.218748 0.05637,0.437436 0.05705,0.656243 0.0049,1.55753 0.0056,3.11506 -7.68e-4,4.672443 -0.001,0.249736 -0.02606,0.501508 -0.08715,0.74664 -0.02417,0.01089 -0.04828,0.02178 -0.07237,0.0327 -0.887092,0.197381 -1.648459,0.619677 -2.268402,1.285453 -0.560651,0.602117 -0.929353,1.305315 -1.07792,2.118802 -0.0071,0.002 -0.01302,0.006 -0.01735,0.01204 -0.166717,0.02373 -0.315166,0.07964 -0.481971,0.103339 -0.208035,0.0081 -0.434722,0.0013 -0.641989,-0.04169 0.141366,-0.195315 0.298521,-0.381244 0.421323,-0.587597 0.495842,-0.833585 0.701751,-1.732245 0.59952,-2.703093 -0.104829,-0.995373 -0.506792,-1.85124 -1.202759,-2.559425 -1.089105,-1.108259 -2.194177,-2.200877 -3.295382,-3.297154 -0.152138,-0.151459 -0.314694,-0.294152 -0.503309,-0.402021 -0.0026,-0.01254 -0.0052,-0.02509 -0.0078,-0.0376" />
  <path
     inkscape:connector-curvature="0"
     style="fill:url(#linearGradient1356);fill-rule:evenodd;stroke-width:0.0295126"
     id="path155-9"
     d="m 34.359412,28.286173 c -0.01198,-0.0022 -0.02396,-0.0045 -0.03595,-0.0068 -0.0067,-0.01399 -0.01175,-0.02922 -0.02048,-0.04179 -0.150456,-0.217744 -0.332608,-0.407629 -0.522758,-0.590105 -1.253727,-1.202759 -2.403894,-2.511704 -3.731284,-3.63891 0.170229,-0.172147 0.382454,-0.293208 0.553952,-0.465326 1.086302,-1.090315 2.175142,-2.178122 3.264985,-3.264984 0.168074,-0.167603 0.321245,-0.346361 0.456797,-0.540702 0.01355,-0.0014 0.02703,-0.0028 0.04055,-0.0042 0.829748,0.127495 1.555051,0.481263 2.178093,1.036543 0.792355,0.706179 1.271523,1.591529 1.415544,2.643006 0.313985,2.292719 -1.20323,4.369643 -3.398086,4.835647 -0.06679,0.0142 -0.134283,0.02515 -0.201424,0.03763" />
  <path
     style="fill:#efe129;fill-rule:evenodd;stroke-width:0.0295126"
     inkscape:connector-curvature="0"
     id="path157-3"
     d="m 34.364267,19.733328 c -0.01352,0.0014 -0.027,0.0028 -0.04052,0.0042 -0.174065,-0.03987 -0.350581,-0.06375 -0.528955,-0.06387 -1.622163,-0.0011 -3.244326,-0.003 -4.866636,0.002 -0.224031,7.08e-4 -0.447914,0.03751 -0.671856,0.05761 0.06103,-0.245132 0.08606,-0.496874 0.08709,-0.746611 0.0064,-1.55753 0.0057,-3.11506 7.68e-4,-4.672737 -6.79e-4,-0.218807 -0.03716,-0.437496 -0.05705,-0.656244 0.58376,-0.392636 1.214504,-0.664447 1.916758,-0.761456 1.146773,-0.158394 2.199223,0.0891 3.139555,0.757885 0.966186,0.687114 1.563315,1.628007 1.762201,2.796796 0.194341,1.141904 -0.04279,2.204684 -0.685638,3.17261 -0.02287,0.03444 -0.05873,0.06209 -0.05587,0.10958" />
  <path
     inkscape:connector-curvature="0"
     style="fill:url(#linearGradient1358);fill-rule:evenodd;stroke-width:0.0295126"
     id="path159-1"
     d="m 13.633568,28.285688 c 0.01266,-0.0026 0.02532,-0.0052 0.03795,-0.0078 0.152227,0.04409 0.31068,0.06428 0.466005,0.06162 1.866262,-0.03193 3.734236,0.08408 5.59914,-0.0633 -0.05156,0.29973 -0.08815,0.601055 -0.08824,0.905684 -4.72e-4,1.337513 0.0015,2.675027 -0.0013,4.01254 -8.26e-4,0.3785 0.0077,0.755642 0.06912,1.129951 -0.0024,0.01127 -0.0048,0.02252 -0.0071,0.03382 -0.539993,0.359996 -1.118913,0.628856 -1.763499,0.736075 -1.364341,0.226953 -2.58401,-0.09813 -3.632122,-1.000685 -0.845685,-0.728195 -1.333382,-1.664425 -1.459135,-2.771651 -0.120235,-1.058235 0.126934,-2.038114 0.718249,-2.927773 0.0229,-0.03444 0.04082,-0.07219 0.06103,-0.108429" />
  <path
     inkscape:connector-curvature="0"
     style="fill:url(#linearGradient1360);fill-rule:evenodd;stroke-width:0.0295126"
     id="path161-9"
     d="m 13.672644,19.738425 c -0.01434,-0.0018 -0.02872,-0.0036 -0.04303,-0.0055 -0.07355,-0.126403 -0.146442,-0.253218 -0.220667,-0.379208 -0.394436,-0.669701 -0.588836,-1.399372 -0.583996,-2.170213 0.01372,-2.17396 1.554372,-3.921641 3.612349,-4.272546 1.13848,-0.194164 2.19701,0.04386 3.163165,0.680975 0.03494,0.02308 0.07169,0.04333 0.107633,0.06493 0.0026,0.01251 0.0052,0.02506 0.0078,0.0376 -0.02211,0.202988 -0.06257,0.405887 -0.06325,0.608964 -0.0052,1.563226 -0.0063,3.12657 0.0012,4.689855 0.0012,0.249205 0.0201,0.502158 0.09202,0.745549 -0.213819,-0.02172 -0.427609,-0.06156 -0.641487,-0.06224 -1.644475,-0.0053 -3.28889,-0.0038 -4.933335,-0.0015 -0.167514,2.06e-4 -0.334673,0.02184 -0.498114,0.06336" />
  <path
     inkscape:connector-curvature="0"
     style="fill:url(#linearGradient1362);fill-rule:evenodd;stroke-width:0.0295126"
     id="path163-4"
     d="m 19.716185,34.323889 c -0.06136,-0.374338 -0.06991,-0.751451 -0.06912,-1.129951 0.0029,-1.337484 8.56e-4,-2.675026 0.0013,-4.01254 8.9e-5,-0.304629 0.03671,-0.605953 0.08833,-0.905684 0.0039,-0.0091 0.0068,-0.0185 0.0086,-0.02824 0.05265,0.0014 0.103147,-0.0056 0.155237,-0.01853 1.238439,-0.307817 2.175111,-1.017006 2.804734,-2.124173 0.22344,-0.392902 0.38998,-0.811834 0.449242,-1.265857 0.0057,-0.004 0.01175,-0.0074 0.01815,-0.01009 0.166127,-0.02267 0.332224,-0.04536 0.498351,-0.06803 0.0098,0.0019 0.01909,0.0053 0.02786,0.01018 0.07688,0.149747 0.220459,0.253071 0.286125,0.410727 -0.0073,0.01933 -0.01145,0.04067 -0.02228,0.05773 -0.694167,1.092381 -0.874637,2.266719 -0.545542,3.515547 0.119379,0.453049 0.298993,0.883756 0.592555,1.257652 0.0014,0.01151 0.0029,0.02296 0.0043,0.03447 -0.118169,0.08464 -0.174391,0.220813 -0.270749,0.324373 -0.871302,0.936614 -1.799977,1.816327 -2.699818,2.724608 -0.395617,0.399306 -0.772788,0.819094 -1.221528,1.163153 -0.03317,0.02544 -0.06077,0.05908 -0.105803,0.06475" />
  <path
     inkscape:connector-curvature="0"
     style="fill:url(#linearGradient1364);fill-rule:evenodd;stroke-width:0.0295126"
     id="path165-7"
     d="m 24.014208,30.04771 c -0.0015,-0.01151 -0.0029,-0.02296 -0.0043,-0.03447 0.01281,-0.02287 0.02491,-0.04631 0.03866,-0.06865 0.779458,-1.266004 0.896417,-2.593306 0.368052,-3.980076 -0.105065,-0.275707 -0.264079,-0.523614 -0.404441,-0.781082 0.06434,-0.15928 0.211251,-0.261128 0.286922,-0.412557 0.0074,-0.0046 0.01552,-0.0076 0.02417,-0.0089 0.163442,0.04734 0.3337,0.0422 0.500299,0.06561 0.0052,0.0041 0.01018,0.0083 0.01511,0.0126 -2.9e-5,0.02104 -0.0035,0.04268 3.84e-4,0.06295 0.316376,1.644238 1.719319,3.035376 3.381559,3.354113 0.01192,0.0081 0.02382,0.01635 0.03574,0.0245 0.06012,0.2616 0.08689,0.529073 0.08798,0.795041 0.0063,1.528283 0.006,3.056625 -2.07e-4,4.584791 -8.85e-4,0.212343 -0.01487,0.428317 -0.07024,0.650488 -0.198148,-0.0991 -0.349164,-0.248084 -0.495311,-0.392932 -1.111476,-1.102031 -2.217521,-2.209553 -3.321944,-3.318697 -0.16651,-0.167278 -0.308378,-0.357752 -0.442513,-0.552683" />
  <path
     inkscape:connector-curvature="0"
     style="fill:url(#linearGradient1366);fill-rule:evenodd;stroke-width:0.0295126"
     id="path167-8"
     d="m 28.256409,28.281562 c -0.01192,-0.0081 -0.02385,-0.01635 -0.03571,-0.0245 0.03964,-0.02745 0.02435,-0.06183 0.01606,-0.09863 -0.173623,-0.7709 -0.526329,-1.447861 -1.067827,-2.023771 -0.638477,-0.679056 -1.416224,-1.110207 -2.33026,-1.294661 -0.0049,-0.0043 -0.0099,-0.0085 -0.01499,-0.01263 -0.03031,-0.157332 -0.02745,-0.320448 -0.08305,-0.473353 0.0083,-0.01706 0.01665,-0.03415 0.02491,-0.0512 0.130062,-0.09872 0.260124,-0.197381 0.390216,-0.296071 0.01237,0.0014 0.02476,0.0027 0.03716,0.0042 0.116251,0.07136 0.22893,0.149394 0.349283,0.213023 0.883874,0.467244 1.819159,0.613066 2.805059,0.446202 0.598487,-0.101347 1.149695,-0.316878 1.649934,-0.661438 h 0.051 c 1.327449,1.127147 2.477616,2.436122 3.731284,3.63891 0.19015,0.182447 0.372302,0.372331 0.522728,0.590076 0.0087,0.01257 0.01378,0.0278 0.02051,0.04179 -0.163825,0.03724 -0.329863,0.06271 -0.497525,0.06286 -1.642851,0.0015 -3.285643,0.0031 -4.928612,-0.0018 -0.213465,-6.5e-4 -0.426842,-0.03837 -0.640277,-0.05891" />
  <path
     inkscape:connector-curvature="0"
     style="fill:url(#linearGradient1368);fill-rule:evenodd;stroke-width:0.0295126"
     id="path169-4"
     d="m 19.745795,19.73891 c -0.07192,-0.243391 -0.09084,-0.496344 -0.09205,-0.745519 -0.0074,-1.563226 -0.0063,-3.12657 -0.0012,-4.689855 7.08e-4,-0.203047 0.04117,-0.405947 0.06325,-0.608964 0.188675,0.107868 0.35123,0.250562 0.503368,0.402021 1.101264,1.096247 2.206336,2.188865 3.295382,3.297153 0.695968,0.708186 1.09793,1.564023 1.202759,2.559396 0.102202,0.970848 -0.103678,1.869509 -0.59952,2.703093 -0.122802,0.206353 -0.279957,0.392312 -0.421323,0.587597 -0.0083,0.0045 -0.01706,0.0078 -0.02627,0.0099 -0.16893,-0.02272 -0.337861,-0.04551 -0.506791,-0.06823 -0.0082,-0.05693 -0.01248,-0.114774 -0.02523,-0.170671 -0.157627,-0.690154 -0.472823,-1.304548 -0.933308,-1.837074 -0.413148,-0.477692 -0.90781,-0.855661 -1.489091,-1.117969 -0.313424,-0.141454 -0.640926,-0.231586 -0.970081,-0.320921" />
  <path
     inkscape:connector-curvature="0"
     style="fill:url(#linearGradient1370);fill-rule:evenodd;stroke-width:0.0295126"
     id="path171-5"
     d="m 25.193015,24.010722 c -0.01239,-0.0014 -0.02479,-0.0028 -0.03719,-0.0042 -0.119615,-0.103177 -0.24041,-0.204907 -0.375371,-0.288103 -0.03462,-0.182329 0.03695,-0.356719 0.0402,-0.536186 0.0045,-0.006 0.0103,-0.01 0.01753,-0.01195 0.729347,-0.151312 1.385,-0.457063 1.953059,-0.941395 0.736459,-0.627881 1.218666,-1.41156 1.432928,-2.357854 0.01116,-0.04926 0.03409,-0.09261 -0.03975,-0.105094 0.02411,-0.01089 0.04822,-0.02178 0.0724,-0.0327 0.223971,-0.0201 0.447854,-0.0569 0.671885,-0.05761 1.622163,-0.005 3.244325,-0.0031 4.866636,-0.002 0.178374,1.19e-4 0.354889,0.02399 0.528925,0.06387 -0.135551,0.19437 -0.288751,0.373158 -0.456826,0.540731 -1.089843,1.086832 -2.178653,2.174639 -3.264984,3.264984 -0.171469,0.172088 -0.383724,0.293149 -0.553923,0.465297 -0.01712,0 -0.03412,0 -0.05112,-3e-5 -0.156801,-0.136112 -0.343882,-0.222614 -0.52807,-0.310709 -0.857726,-0.410285 -1.759043,-0.515822 -2.689281,-0.345711 -0.573254,0.104829 -1.110355,0.312922 -1.586925,0.658663" />
  <path
     style="fill:#528000;fill-rule:evenodd;stroke-width:0.0295126"
     inkscape:connector-curvature="0"
     id="path173-0"
     d="m 28.166104,19.727048 c 0.07384,0.01248 0.108179,-0.01965 0.09702,0.0296 -0.14658,0.967129 -0.735514,1.844511 -1.471973,2.472393 -0.568059,0.484302 -1.223712,0.790083 -1.953088,0.941394 0.148508,-0.813575 0.517239,-1.516773 1.077891,-2.118861 0.619942,-0.665775 1.420325,-1.20264 2.307417,-1.400021" />
  <path
     style="fill:#c1dc73;fill-rule:evenodd;stroke-width:0.0295126"
     inkscape:connector-curvature="0"
     id="path175-3"
     d="M 24.755907,23.721905 C 24.625225,23.552266 24.436255,23.436872 24.3203,23.25351 c 0.166806,-0.0237 0.333641,-0.0474 0.500358,-0.07113 -0.0033,0.179437 -0.07493,0.353827 -0.04032,0.536186 -0.0081,0.002 -0.0162,0.0032 -0.02444,0.0033" />
  <path
     inkscape:connector-curvature="0"
     style="fill:url(#linearGradient1372);fill-rule:evenodd;stroke-width:0.0295126"
     id="path177-6"
     d="m 13.633568,28.285688 c -1.732038,-0.251064 -3.193269,-1.654745 -3.54565,-3.406055 -0.4446078,-2.209612 0.834618,-4.359313 2.988451,-5.021577 0.181149,-0.05569 0.364363,-0.103295 0.553303,-0.125104 0.01434,0.0018 0.02869,0.0036 0.043,0.0054 0.09946,0.155207 0.215531,0.297163 0.3458,0.427432 1.138716,1.138627 2.277048,2.277668 3.416975,3.414908 0.15255,0.152197 0.321481,0.285948 0.506466,0.398067 -0.0057,0.0672 -0.05985,0.09202 -0.105508,0.12776 -0.1362,0.106718 -0.279484,0.207238 -0.401519,0.328683 -1.149105,1.143526 -2.294461,2.29089 -3.440585,3.437338 -0.122832,0.122802 -0.23014,0.258118 -0.322721,0.40512 -0.01266,0.0026 -0.02532,0.0052 -0.03798,0.0078" />
  <path
     inkscape:connector-curvature="0"
     style="fill:url(#linearGradient1374);fill-rule:evenodd;stroke-width:0.0296362"
     id="path179-1"
     d="m 19.745795,19.736483 c 0.329155,0.09008 0.656656,0.180972 0.970081,0.323613 0.581281,0.264508 1.075942,0.645647 1.48909,1.127346 0.460486,0.536993 0.775681,1.156541 0.933308,1.852484 0.01275,0.05637 0.017,0.114696 0.0252,0.172133 0.02647,0.186983 0.09131,0.371139 0.04067,0.563777 -0.136732,0.07869 -0.274644,0.155884 -0.36513,0.293109 -0.01874,3.86e-4 -0.03751,8.33e-4 -0.05628,0.0012 -0.02438,-0.111036 -0.129767,-0.130082 -0.206293,-0.1763 -0.571365,-0.345129 -1.198007,-0.515804 -1.855283,-0.586306 -0.21984,-0.05259 -0.43968,-0.05256 -0.659461,3e-5 -0.227572,0.0375 -0.456531,0.06431 -0.682125,0.115975 -0.49298,0.112821 -0.940303,0.33016 -1.370302,0.589937 -0.02243,-4.46e-4 -0.04477,-9.52e-4 -0.06717,-0.0014 -0.185015,-0.113059 -0.353975,-0.247962 -0.506496,-0.401406 -1.140074,-1.14684 -2.278406,-2.295435 -3.416975,-3.443554 -0.130269,-0.131362 -0.246342,-0.274478 -0.3458,-0.431017 0.163471,-0.04187 0.330631,-0.06369 0.498144,-0.06389 1.644504,-0.0022 3.28889,-0.0038 4.933335,0.0015 0.213878,7.14e-4 0.427638,0.04089 0.641487,0.06277" />
  <path
     inkscape:connector-curvature="0"
     style="fill:url(#linearGradient1376);fill-rule:evenodd;stroke-width:0.0295126"
     id="path181-0"
     d="m 22.782977,24.036691 c 0.01877,-4.13e-4 0.03754,-8.26e-4 0.05634,-0.0012 0.146559,0.05861 0.242505,0.189796 0.378411,0.263637 0.02615,0.180204 -0.02721,0.353739 -0.04483,0.530254 -0.0064,0.0027 -0.01245,0.006 -0.01815,0.01006 -0.942073,0.189648 -1.737971,0.640926 -2.381937,1.351886 -0.532762,0.588216 -0.882369,1.272496 -1.027246,2.056707 -0.0018,0.0097 -0.0047,0.01918 -0.0086,0.02824 -1.864933,0.147357 -3.733055,0.03137 -5.59914,0.0633 -0.155325,0.0027 -0.313778,-0.01756 -0.466034,-0.06162 0.09264,-0.147032 0.199948,-0.282318 0.322751,-0.405149 1.1463,-1.146419 2.291627,-2.293782 3.440879,-3.437339 0.122035,-0.121474 0.265319,-0.221994 0.40149,-0.328682 0.04569,-0.03574 0.09984,-0.06059 0.105508,-0.12776 0.02246,4.72e-4 0.04483,9.74e-4 0.06723,0.0014 -0.01003,0.04678 0.02385,0.06428 0.05531,0.08417 0.841464,0.531966 1.765033,0.743572 2.749074,0.659992 0.70972,-0.06029 1.367173,-0.302682 1.969084,-0.68797" />
  <path
     style="fill:#4a1235;fill-rule:evenodd;stroke-width:0.0295126"
     inkscape:connector-curvature="0"
     id="path183"
     d="m 19.745309,28.248069 c 0.113671,-0.81024 0.473649,-1.515357 1.00644,-2.103573 0.643937,-0.71096 1.480916,-1.128269 2.423018,-1.317917 -0.05926,0.454052 -0.246049,0.885881 -0.469487,1.278754 -0.659047,1.213825 -1.791801,2.069633 -2.971038,2.17036" />
  <path
     style="fill:#232160;fill-rule:evenodd;stroke-width:0.0295126"
     inkscape:connector-curvature="0"
     id="path185-6"
     d="m 24.012266,25.183218 c 0.140392,0.257498 0.299406,0.505375 0.404441,0.781082 0.528365,1.386858 0.479109,2.735026 -0.300379,4.00103 -0.01372,0.02234 -0.09353,0.09263 -0.106343,0.115503 -0.293592,-0.373895 -0.473206,-0.872246 -0.592585,-1.325324 -0.329095,-1.24871 -0.148626,-2.423048 0.545542,-3.515547 0.01083,-0.01703 0.01499,-0.0384 0.02225,-0.05773 -2.9e-5,0 0.01352,-2.95e-4 0.01352,-2.95e-4 z" />
  <path
     style="fill:#aa81b8;fill-rule:evenodd;stroke-width:0.0295126"
     inkscape:connector-curvature="0"
     id="path187-3"
     d="m 23.172757,24.829358 c 0.01762,-0.176515 0.07098,-0.35005 0.04483,-0.530342 0,-5.9e-5 0.0116,-0.003 0.0116,-0.003 l 0.01195,2.96e-4 c 0.130593,0.166746 0.31853,0.280458 0.429999,0.464942 -0.166156,0.02269 -0.332253,0.04536 -0.49838,0.06806" />
  <path
     style="fill:#57afc9;fill-rule:evenodd;stroke-width:0.0295126"
     inkscape:connector-curvature="0"
     id="path189-2"
     d="m 24.012266,25.183218 -0.01355,-0.0012 c 0,0 -0.01355,2.95e-4 -0.01352,2.95e-4 -0.06564,-0.157656 -0.209215,-0.26098 -0.286096,-0.410727 0.199978,-0.03158 0.400015,-0.02904 0.60011,-9.15e-4 -0.0757,0.151429 -0.222584,0.253307 -0.286951,0.412557" />
  <path
     style="fill:#0c4120;fill-rule:evenodd;stroke-width:0.0295126"
     inkscape:connector-curvature="0"
     id="path191-0"
     d="m 24.838669,24.839794 c 0.914036,0.184454 1.691754,0.615604 2.33026,1.294661 0.541498,0.57591 0.918935,1.243752 1.092558,2.014651 0.0083,0.0368 0.03396,0.11026 -0.0056,0.137677 -1.6623,-0.318707 -3.100304,-1.7398 -3.41668,-3.38392 -0.0039,-0.02028 -4.43e-4,-0.04191 -4.13e-4,-0.06295" />
  <path
     style="fill:#57afc9;fill-rule:evenodd;stroke-width:0.0295126"
     inkscape:connector-curvature="0"
     id="path193-6"
     d="m 24.323168,24.761644 c 0.117755,-0.157804 0.244571,-0.306253 0.417338,-0.407747 0.0556,0.152876 0.05277,0.316022 0.08305,0.473354 -0.166658,-0.02337 -0.336946,-0.01827 -0.500387,-0.06561" />
  <path
     style="fill:#0a4f09;fill-rule:evenodd;stroke-width:0.0295126"
     inkscape:connector-curvature="0"
     id="path195-1"
     d="m 25.19692,23.966468 c 0.47657,-0.345741 1.009775,-0.509595 1.583029,-0.614424 0.930238,-0.170111 1.846281,-0.06457 2.704008,0.345711 0.187868,0.08809 0.41176,0.170917 0.568561,0.30702 -0.50024,0.34459 -1.106666,0.56381 -1.705153,0.665156 -0.985899,0.166865 -1.921185,0.02104 -2.805059,-0.446201 -0.120353,-0.06363 -0.27471,-0.148169 -0.390924,-0.21953" />
  <path
     style="fill:#a5d27d;fill-rule:evenodd;stroke-width:0.0295126"
     inkscape:connector-curvature="0"
     id="path197-5"
     d="m 24.755907,23.721905 c 0.0082,-1.77e-4 0.01638,-0.0013 0.02444,-0.0033 0.134962,0.08317 0.255757,0.184897 0.375401,0.288073 -0.130062,0.09869 -0.260154,0.197351 -0.390216,0.296071 -0.04282,-0.192954 -0.02695,-0.386881 -0.0096,-0.580809" />
  <path
     style="fill:#ed7985;fill-rule:evenodd;stroke-width:0.0295126"
     inkscape:connector-curvature="0"
     id="path199-5"
     d="m 23.204309,23.744719 c 0.05067,-0.191035 -0.04023,-0.472616 -0.0667,-0.658044 0.16899,0.02273 0.363921,0.144397 0.532851,0.167151 -0.09028,0.141986 -0.216298,0.251123 -0.33851,0.363153 -0.04288,0.03934 -0.08662,0.07428 -0.09075,0.1375 -0.01231,-0.0032 -0.02458,-0.0065 -0.03689,-0.0098" />
  <path
     style="fill:#ed5e88;fill-rule:evenodd;stroke-width:0.0295126"
     inkscape:connector-curvature="0"
     id="path201-4"
     d="m 23.204309,23.744719 c 0.01231,0.0032 0.02458,0.0065 0.03689,0.0098 0.0219,0.180558 0.01788,0.361146 0,0.541763 0,8.9e-5 -0.01195,-2.36e-4 -0.01195,-2.36e-4 0,0 -0.0116,0.0029 -0.0116,0.003 -0.135877,-0.07378 -0.231852,-0.204965 -0.378411,-0.263577 0.09046,-0.136113 0.228339,-0.212669 0.365071,-0.2907" />
  <path
     style="fill:#7e0804;fill-rule:evenodd;stroke-width:0.0295126"
     inkscape:connector-curvature="0"
     id="path203-7"
     d="m 22.788183,24.080945 c -0.60191,0.385288 -1.264558,0.620238 -1.974278,0.680532 -1.118972,0.109262 -2.206277,-0.192823 -2.889052,-0.777304 1.468549,-0.9447 3.846088,-1.004109 4.910314,0.05251" />
  <path
     style="fill:#ab0100;fill-rule:evenodd;stroke-width:0.0295126"
     inkscape:connector-curvature="0"
     id="path205"
     d="m 23.100675,23.11709 c 0.07384,-0.01248 0.05091,-0.05584 0.03975,-0.105095 -0.214262,-0.946293 -0.696469,-1.729972 -1.432928,-2.357854 -0.56806,-0.484302 -1.23661,-0.769837 -1.965985,-0.921149 0.148507,0.813576 0.530135,1.496528 1.090787,2.098616 0.619943,0.665775 1.381281,1.088101 2.268372,1.285482" />
  <path
     style="fill:#a24e00;fill-rule:evenodd;stroke-width:0.0289577"
     inkscape:connector-curvature="0"
     id="path207-6"
     d="m 24.091145,18.060135 c 0.140392,0.247905 0.299406,0.486548 0.404441,0.751984 0.528365,1.335194 0.411436,2.613078 -0.368052,3.831806 -0.01372,0.02151 -0.02585,0.04407 -0.03866,0.06609 -0.293592,-0.359967 -0.473206,-0.774601 -0.592585,-1.210801 -0.329096,-1.202191 -0.155989,-2.340169 0.538193,-3.391969 0.01083,-0.01639 0.01867,-0.03143 0.02962,-0.04819 -3e-5,0 0.01352,-2.85e-4 0.01352,-2.85e-4 z" />
  <path
     inkscape:connector-curvature="0"
     style="fill:url(#linearGradient1378);fill-rule:evenodd;stroke-width:0.0295842"
     id="path209-5"
     d="m 28.264418,13.607754 c 0.06072,0.380095 0.06919,0.763007 0.0684,1.147328 -0.0028,1.358052 -8.47e-4,2.716164 -0.0013,4.074246 -8.7e-5,0.309315 0.05998,0.604874 -0.06659,0.896179 -1.243015,0.231494 -2.463627,1.360929 -2.958654,2.22777 -0.221125,0.398944 -0.407115,0.757134 -0.465762,1.218139 -0.0056,0.0041 0.0031,1.5e-4 -0.0032,0.0029 -0.164405,0.03038 -0.140111,0.02857 -0.200516,0.04238 -0.03248,-0.0011 -0.300773,0.05934 -0.294464,0.07249 -0.124027,-0.22186 -0.168716,-0.329122 -0.263688,-0.584467 0.686974,-1.10918 0.848839,-2.17437 0.523153,-3.442253 -0.136843,-0.454861 -0.348496,-0.91275 -0.543686,-1.195663 0.0474,-0.09441 0.07224,-0.125167 0.236929,-0.415666 0.675526,-1.058537 1.765321,-1.874285 2.655838,-2.796534 0.391517,-0.405447 0.764781,-0.831691 1.208871,-1.181041 0.03283,-0.02583 0.06014,-0.05999 0.104707,-0.06575" />
</svg>
