<?xml version="1.0" encoding="UTF-8"?>
<!-- Created with Inkscape (http://www.inkscape.org/) -->
<svg width="64" height="64" version="1.1" viewBox="0 0 16.933 16.933" xmlns="http://www.w3.org/2000/svg" xmlns:cc="http://creativecommons.org/ns#" xmlns:dc="http://purl.org/dc/elements/1.1/" xmlns:rdf="http://www.w3.org/1999/02/22-rdf-syntax-ns#">
 <defs>
  <linearGradient id="j-7" x1="-26.201" x2="-26.201" y1="1070.2" y2="1082.6" gradientUnits="userSpaceOnUse">
   <stop stop-color="#fa5555" offset="0"/>
   <stop stop-color="#ff7878" offset="1"/>
  </linearGradient>
  <linearGradient id="k" x1="-9.912" x2="-9.912" y1="1081.4" y2="1139.8" gradientUnits="userSpaceOnUse">
   <stop stop-color="#f55050" offset="0"/>
   <stop stop-color="#fa5555" offset=".5"/>
   <stop stop-color="#eb4646" offset="1"/>
  </linearGradient>
  <linearGradient id="l" x1="-9.617" x2="-9.617" y1="1138.4" y2="1140.2" gradientUnits="userSpaceOnUse">
   <stop stop-color="#e64646" offset="0"/>
   <stop stop-color="#d23232" offset="1"/>
  </linearGradient>
  <linearGradient id="n" x1="16.586" x2="16.586" y1="8.086" y2="28.363" gradientTransform="matrix(1.6645,0,0,1.6645,-12.856,-11.858)" gradientUnits="userSpaceOnUse">
   <stop stop-color="#e64646" offset="0"/>
   <stop stop-color="#d23232" offset="1"/>
  </linearGradient>
 </defs>
 <metadata>
  <rdf:RDF>
   <cc:Work rdf:about="">
    <dc:format>image/svg+xml</dc:format>
    <dc:type rdf:resource="http://purl.org/dc/dcmitype/StillImage"/>
    <dc:title/>
   </cc:Work>
  </rdf:RDF>
 </metadata>
 <circle cx="-302.94" cy="-325.41" r="0" fill="#5e4aa6" stroke-width=".26458"/>
 <g transform="translate(.00013041 -.0047563)">
  <circle cx="-302.94" cy="-325.41" r="0" fill="#5e4aa6" stroke-width=".26458"/>
  <g transform="matrix(.081529 0 0 .081529 .27437 .16859)">
   <path transform="matrix(2.2139,0,0,2.2139,109.49,-2344.9)" d="m-44.762 1070.2h22.13c3.288 0 4.653 7.072 7.728 7.072h51.522a3.276 3.276 0 0 1 3.283 3.282v50.508c0 1.819-1.464-2.02-3.283-2.02h-81.38a3.276 3.276 0 0 1-3.283-3.283v-52.276a3.276 3.276 0 0 1 3.283-3.283z" color="#282828" fill="url(#j-7)" overflow="visible"/>
   <path transform="matrix(2.2139,0,0,2.2139,109.49,-2344.9)" d="m-44.762 1081.3h81.38a3.276 3.276 0 0 1 3.283 3.283v52.275a3.276 3.276 0 0 1-3.283 3.283h-81.38a3.276 3.276 0 0 1-3.283-3.283v-52.275a3.276 3.276 0 0 1 3.283-3.283z" color="#282828" fill="url(#k)" overflow="visible"/>
   <path d="m3.156 165.8v2.213h194.68v-2.213zm0 4.912v1.176c0 0.358 0.02 0.693 0.07 1.038h194.54c0.05-0.345 0.07-0.68 0.07-1.038v-1.176z" color="#282828" fill="#e64646" font-weight="400" opacity=".976" overflow="visible" style="text-indent:0;text-transform:none"/>
   <path transform="matrix(2.2139,0,0,2.2139,109.49,-2344.9)" d="m-47.75 1138.2a3.28 3.28 0 0 0 3 1.937h81.375c1.34 0 2.488-0.792 3-1.937z" color="#282828" fill="url(#l)" font-weight="400" opacity=".976" overflow="visible" style="text-indent:0;text-transform:none"/>
   <path transform="matrix(2.2222,0,0,2.2222,62.222,71.445)" d="m32.75 19.6-28.13 15.48c-1.165 0.665-2.496-0.167-2.496-1.499v-30.959c0-1.331 1.331-1.997 2.497-1.498l28.129 15.48a1.72 1.72 0 0 1 0 2.996z" fill="url(#n)"/>
  </g>
 </g>
</svg>
