<?xml version="1.0" encoding="UTF-8"?>
<!-- Created with Inkscape (http://www.inkscape.org/) -->
<svg width="64" height="64" version="1.1" viewBox="0 0 16.933 16.933" xmlns="http://www.w3.org/2000/svg" xmlns:cc="http://creativecommons.org/ns#" xmlns:dc="http://purl.org/dc/elements/1.1/" xmlns:rdf="http://www.w3.org/1999/02/22-rdf-syntax-ns#">
 <defs>
  <linearGradient id="b" x1="-9.912" x2="-9.912" y1="1081.4" y2="1139.8" gradientTransform="matrix(1 0 0 .73765 0 299.11)" gradientUnits="userSpaceOnUse">
   <stop stop-color="#f55050" offset="0"/>
   <stop stop-color="#fa5555" offset=".5"/>
   <stop stop-color="#eb4646" offset="1"/>
  </linearGradient>
  <linearGradient id="linearGradient886" x1="-26.201" x2="-26.201" y1="1070.2" y2="1082.6" gradientUnits="userSpaceOnUse">
   <stop stop-color="#fa5555" offset="0"/>
   <stop stop-color="#ff7878" offset="1"/>
  </linearGradient>
  <linearGradient id="linearGradient888" x1="-9.617" x2="-9.617" y1="1138.4" y2="1140.2" gradientUnits="userSpaceOnUse">
   <stop stop-color="#e64646" offset="0"/>
   <stop stop-color="#d23232" offset="1"/>
  </linearGradient>
 </defs>
 <metadata>
  <rdf:RDF>
   <cc:Work rdf:about="">
    <dc:format>image/svg+xml</dc:format>
    <dc:type rdf:resource="http://purl.org/dc/dcmitype/StillImage"/>
    <dc:title/>
   </cc:Work>
  </rdf:RDF>
 </metadata>
 <g transform="matrix(.079766 0 0 .079766 .47234 .34364)" color="#282828">
  <path transform="matrix(2.2139,0,0,2.2139,109.5,-2344.9)" d="m-44.762 1070.2h22.131c3.287 0 4.652 7.071 7.728 7.071h51.522a3.276 3.276 0 0 1 3.283 3.283v50.508c0 1.819-1.464-2.02-3.283-2.02h-81.38a3.276 3.276 0 0 1-3.283-3.283v-52.275a3.276 3.276 0 0 1 3.283-3.283z" fill="url(#linearGradient886)"/>
  <path transform="matrix(2.2139,0,0,2.2139,109.5,-2344.9)" d="m-45.855 1096.7h83.327c1.819 0 3.313 1.08 3.283 2.422l-0.854 38.56c-0.03 1.342-1.464 2.422-3.283 2.422h-81.38c-1.819 0-3.245-1.08-3.283-2.421l-1.093-38.561c-0.038-1.341 1.464-2.422 3.283-2.422z" fill="url(#b)"/>
  <path d="m3.16 165.84v2.214h194.68v-2.214h-194.69zm0 4.87v1.176c0 0.359 0.019 0.694 0.068 1.038h194.55c0.05-0.344 0.069-0.679 0.069-1.038v-1.176h-194.69z" fill="#e64646" opacity=".976" style="text-indent:0;text-transform:none"/>
  <path transform="matrix(2.2139,0,0,2.2139,109.5,-2344.9)" d="m-47.75 1138.2a3.28 3.28 0 0 0 3 1.938h81.375c1.34 0 2.488-0.793 3-1.938z" fill="url(#linearGradient888)" opacity=".976" style="text-indent:0;text-transform:none"/>
 </g>
</svg>
