<?xml version="1.0" encoding="UTF-8"?>
<!-- Created with Inkscape (http://www.inkscape.org/) -->
<svg width="64" height="64" version="1.1" viewBox="0 0 16.933 16.933" xmlns="http://www.w3.org/2000/svg" xmlns:cc="http://creativecommons.org/ns#" xmlns:dc="http://purl.org/dc/elements/1.1/" xmlns:rdf="http://www.w3.org/1999/02/22-rdf-syntax-ns#">
 <defs>
  <linearGradient id="j" x1="20.912" x2="431.5" y1="137.4" y2="418.87" gradientTransform="matrix(.029162 0 0 .029162 .90446 2.4092)" gradientUnits="userSpaceOnUse">
   <stop stop-color="#464646" offset="0"/>
   <stop stop-color="#212121" offset="1"/>
  </linearGradient>
  <linearGradient id="d" x1="82.992" x2="466.53" y1="25.57" y2="423.03" gradientTransform="matrix(.029162 0 0 .029162 .90446 2.4092)" gradientUnits="userSpaceOnUse">
   <stop stop-color="#464646" offset="0"/>
   <stop stop-color="#212121" offset="1"/>
  </linearGradient>
  <linearGradient id="a" x1="284.08" x2="284.08" y1="35.201" y2="59.891" gradientTransform="matrix(.029162 0 0 .029162 .90446 2.4092)" gradientUnits="userSpaceOnUse">
   <stop stop-color="#464646" offset="0"/>
   <stop stop-color="#212121" offset="1"/>
  </linearGradient>
 </defs>
 <metadata>
  <rdf:RDF>
   <cc:Work rdf:about="">
    <dc:format>image/svg+xml</dc:format>
    <dc:type rdf:resource="http://purl.org/dc/dcmitype/StillImage"/>
    <dc:title/>
   </cc:Work>
  </rdf:RDF>
 </metadata>
 <g stroke-width=".029162">
  <path d="m12.427 4.1041v0.91256h-6.4776v-1.6007c0-0.54781 0.44426-0.99219 0.99219-0.99219h2.2824c0.3643 0 0.69897 0.19946 0.87235 0.51956l0.31235 0.57617c0.19536 0.36031 0.57219 0.5846 0.98171 0.5846z" fill="url(#a)"/>
  <path d="m7.6808 4.6291-1.6363-1.6363c-0.060609 0.12838-0.094661 0.2718-0.094661 0.42319v1.6007h2.1184z" opacity=".25"/>
  <path d="m6.3274 3.5195-0.31224-0.57617c-0.17349-0.3201-0.50828-0.51956-0.87235-0.51956h-2.2826c-0.54792 0-0.99218 0.44426-0.99218 0.99219v10.526c0 0.54792 0.44426 0.99207 0.99218 0.99207h11.983c0.54792 0 0.99207-0.44415 0.99207-0.99207v-8.8455c0-0.54792-0.44415-0.99207-0.99207-0.99207h-7.534c-0.40974 0-0.78657-0.22441-0.98182-0.58472z" fill="url(#d)"/>
  <path d="m2.8602 14.934h11.983c0.54792 0 0.99207-0.44415 0.99207-0.99207v-7.4585l-1.4014-1.4014-4.3329-0.031784c-0.16905 0.3119-0.4953 0.50623-0.85013 0.50623h-6.5237c-0.47445 0-0.85913 0.38468-0.85913 0.85914v7.5263c0 0.54792 0.44426 0.99207 0.99218 0.99207z" fill-opacity=".39216" opacity=".25"/>
  <path d="m14.737 5.6045v8.7417c0 0.26143-0.17053 0.48299-0.40667 0.55932-0.05719 0.01846-0.1179 0.02848-0.18112 0.02848h-11.303c-0.32454 0-0.58779-0.26314-0.58779-0.58779v-8.7417c0-0.32465 0.26325-0.58779 0.58779-0.58779h11.303c0.32454 0 0.58779 0.26314 0.58779 0.58779z" fill="#f0f0f0"/>
  <path d="m14.843 14.934h-12.116c-0.47468 0-0.85914-0.3848-0.85914-0.85914l-0.95733-7.4629c-0.058784-0.45793 0.298-0.86346 0.75969-0.86346h10.55c0.38526 0 0.71059 0.28615 0.75969 0.66833l0.98216 7.6362c0 0.48664 0.39437 0.88101 0.88078 0.88101z" fill="url(#j)"/>
 </g>
 <circle cx="-302.94" cy="-325.41" r="0" fill="#5e4aa6" stroke-width=".26458"/>
 <path class="shp70" d="m5.2916 9.9449 1.6917-1.0327 1.9878 1.0537 0.010197 0.073995h-3.6813zm1.8062-0.19931c0.13665 0 0.2321-0.11112 0.21322-0.24814-0.018901-0.13715-0.14495-0.24809-0.2816-0.24809s-0.2321 0.11112-0.21322 0.24809c0.018908 0.13719 0.14496 0.24814 0.28161 0.24814zm-0.78063 2.2871h0.07163l0.016271 0.11806h0.37169l-0.016271-0.11806h0.070277l-0.2199-1.5956h0.31819l0.2199 1.5956h0.07163l0.016271 0.11806h0.37169l-0.016271-0.11806h0.070277l-0.2199-1.5956h0.31819l0.2199 1.5956h0.071681l0.016271 0.11806h0.38937l-0.016271-0.11806h0.070277l-0.2199-1.5956h-0.034905l-0.087241-0.24814h0.49555l-0.018897 0.24814h-0.036268l0.2199 1.5956h0.07163l0.016272 0.11806h0.19468l0.11781 0.21273h-3.5396l0.059139-0.21273h0.19468l-0.016271-0.11806h0.070277l-0.2199-1.5956h-0.034864l-0.087294-0.24814h0.4955l-0.018897 0.24814h-0.036267zm-0.76836 0.45429h3.8582l0.11782 0.21277h-4.0351z" fill="#fff" opacity=".15" stroke-width=".045339"/>
</svg>
