<?xml version="1.0" encoding="UTF-8" standalone="no"?>
<svg
   xmlns:dc="http://purl.org/dc/elements/1.1/"
   xmlns:cc="http://creativecommons.org/ns#"
   xmlns:rdf="http://www.w3.org/1999/02/22-rdf-syntax-ns#"
   xmlns:svg="http://www.w3.org/2000/svg"
   xmlns="http://www.w3.org/2000/svg"
   xmlns:sodipodi="http://sodipodi.sourceforge.net/DTD/sodipodi-0.dtd"
   xmlns:inkscape="http://www.inkscape.org/namespaces/inkscape"
   width="32"
   height="32"
   version="1.1"
   id="svg6"
   sodipodi:docname="system-suspend.svg"
   inkscape:version="0.92.4 5da689c313, 2019-01-14">
  <metadata
     id="metadata12">
    <rdf:RDF>
      <cc:Work
         rdf:about="">
        <dc:format>image/svg+xml</dc:format>
        <dc:type
           rdf:resource="http://purl.org/dc/dcmitype/StillImage" />
        <dc:title></dc:title>
      </cc:Work>
    </rdf:RDF>
  </metadata>
  <defs
     id="defs10" />
  <sodipodi:namedview
     pagecolor="#c8c8c8"
     bordercolor="#666666"
     borderopacity="1"
     objecttolerance="10"
     gridtolerance="10"
     guidetolerance="10"
     inkscape:pageopacity="0"
     inkscape:pageshadow="2"
     inkscape:window-width="1920"
     inkscape:window-height="973"
     id="namedview8"
     showgrid="false"
     inkscape:zoom="7.375"
     inkscape:cx="16"
     inkscape:cy="16"
     inkscape:window-x="0"
     inkscape:window-y="36"
     inkscape:window-maximized="1"
     inkscape:current-layer="svg6" />
  <g
     transform="translate(71.058594,62.875023)"
     id="system-suspend">
    <rect
       ry="0"
       rx="0"
       y="-62.875023"
       x="-71.058594"
       height="32"
       width="32"
       id="rect964"
       style="opacity:0;fill:#000000;fill-opacity:1;fill-rule:evenodd;stroke:none;stroke-width:2;stroke-linecap:round;stroke-linejoin:round;stroke-miterlimit:4;stroke-dasharray:none;stroke-opacity:1;paint-order:fill markers stroke" />
    <path
       inkscape:connector-curvature="0"
       id="path972"
       d="m -55.058594,-61.875025 a 15,15 0 0 0 -15,15 15,15 0 0 0 15,15 15,15 0 0 0 15,-15 15,15 0 0 0 -15,-15 z m -1.214843,6.044922 c 0.111688,-0.009 0.260997,0.0139 0.386718,0.0957 0.125721,0.0818 0.202854,0.205444 0.238282,0.302734 0.07086,0.194582 0.04764,0.316205 0.0332,0.427734 -0.02866,0.221394 -0.09334,0.418601 -0.109375,0.494141 v 0.0039 c -0.05266,0.260694 -0.0927,0.524418 -0.119141,0.789063 -0.02676,0.265094 -0.04083,0.532386 -0.04102,0.798828 4.6e-5,0.188888 0.0081,0.376015 0.02148,0.564453 v 0.002 c 0.0186,0.266132 0.05062,0.530013 0.0957,0.792969 0.0458,0.262588 0.104008,0.522599 0.175781,0.779297 0.07124,0.257107 0.1554,0.511057 0.251953,0.759766 0.09592,0.247728 0.204139,0.491553 0.324219,0.728515 l 0.002,0.002 c 0.121007,0.23668 0.254484,0.467941 0.398438,0.691406 0.144078,0.224534 0.299064,0.443321 0.464844,0.652344 0.165727,0.209041 0.341571,0.40816 0.527343,0.59961 0.1853,0.191279 0.380542,0.375019 0.583985,0.546875 h 0.002 c 0.204058,0.17132 0.416589,0.332304 0.636719,0.482421 0.219634,0.150321 0.446168,0.290274 0.679687,0.417969 0.234255,0.127755 0.474861,0.243935 0.720703,0.347657 0.245854,0.104406 0.49689,0.19609 0.751953,0.27539 0.254535,0.07841 0.512358,0.144626 0.773438,0.197266 0.261342,0.05298 0.525723,0.09252 0.791015,0.11914 0.265716,0.02682 0.533732,0.04089 0.800782,0.04102 0.188237,-9e-5 0.376663,-0.0081 0.564453,-0.02148 l -0.0078,0.002 c 0.05087,-0.0045 0.216957,-0.03551 0.402344,-0.03711 0.09269,-7.8e-4 0.191592,-0.01492 0.369141,0.07031 0.08877,0.04262 0.21197,0.135594 0.277343,0.287109 0.06537,0.151516 0.04715,0.314424 0.01172,0.416016 -1.267579,3.635029 -4.632228,6.281303 -8.617187,6.283203 h -0.002 c -4.964575,-4.8e-5 -8.999953,-4.035425 -9.000001,-9 v -0.002 c 0.0054,-4.482136 3.19254,-8.111101 7.562501,-8.902344 l 0.02344,-0.0059 z m -0.441407,1.195312 c -3.607266,0.917507 -6.165322,3.915063 -6.169922,7.716797 4.3e-5,4.424229 3.575771,7.999958 8.000001,8 3.306976,-0.0016 6.074927,-2.090278 7.361328,-5.013672 -0.119839,0.0049 -0.239412,0.01364 -0.359375,0.01367 h -0.002 c -0.300437,-1.4e-4 -0.599537,-0.01671 -0.898438,-0.04687 -0.298485,-0.02996 -0.5947,-0.07518 -0.888672,-0.134766 -0.293712,-0.05922 -0.58475,-0.132503 -0.871094,-0.220703 h -0.002 c -0.286937,-0.08922 -0.56912,-0.193091 -0.845703,-0.310547 -0.276004,-0.116509 -0.545578,-0.247185 -0.808594,-0.390625 -0.262701,-0.143652 -0.518539,-0.299641 -0.765625,-0.46875 -0.248121,-0.169207 -0.486822,-0.349813 -0.716796,-0.542968 v -0.002 h -0.002 c -0.229311,-0.193637 -0.44742,-0.397712 -0.65625,-0.613281 -0.208988,-0.215375 -0.40731,-0.440615 -0.59375,-0.675781 -0.186498,-0.235147 -0.361351,-0.479826 -0.523437,-0.732422 -0.162487,-0.252234 -0.31077,-0.512101 -0.447266,-0.779297 h -0.002 v -0.002 c -0.135611,-0.267397 -0.256974,-0.540721 -0.365234,-0.820312 -0.108397,-0.279216 -0.203171,-0.562938 -0.283203,-0.851563 -0.08075,-0.288794 -0.147692,-0.581555 -0.199219,-0.876953 v -0.002 c -0.05061,-0.29517 -0.08648,-0.593824 -0.107422,-0.892578 -0.0151,-0.21197 -0.02338,-0.424185 -0.02344,-0.636719 v -0.002 c 2.11e-4,-0.29974 0.01677,-0.598258 0.04687,-0.896485 0.02746,-0.274847 0.07044,-0.547222 0.123046,-0.818359 z m 4.896485,1.714844 h 2.830078 c 0.06644,0 0.1296,0.01443 0.1875,0.03711 0.06278,0.02532 0.118995,0.06251 0.166016,0.109375 0.04702,0.04687 0.08405,0.103276 0.109375,0.166016 0.04898,0.120189 0.04898,0.256764 0,0.376953 l -0.002,0.002 c -0.02524,0.06123 -0.06135,0.116 -0.107421,0.162109 l -1.976563,1.976563 h 2.302734 c 0.277006,0 0.5,0.22296 0.5,0.5 0,0.277001 -0.222998,0.5 -0.5,0.5 h -3.507812 c -0.210569,0 -0.388961,-0.131146 -0.462891,-0.314453 -0.01169,-0.02948 -0.0096,-0.06156 -0.01563,-0.0918 -0.0064,-0.03175 -0.01953,-0.05973 -0.01953,-0.09375 -2.7e-4,-0.06539 0.01374,-0.129796 0.03906,-0.191406 0.02547,-0.06161 0.05887,-0.117573 0.105468,-0.164063 l 0.0039,-0.0039 1.970703,-1.970703 h -1.623047 c -0.277006,0 -0.5,-0.222961 -0.5,-0.5 0,-0.27704 0.222998,-0.5 0.5,-0.5 z"
       style="opacity:0.85;fill:#ffffff;fill-opacity:1;fill-rule:evenodd;stroke:none;stroke-width:1.353302;stroke-linecap:round;stroke-linejoin:miter;stroke-miterlimit:4;stroke-dasharray:none;stroke-dashoffset:3;stroke-opacity:1;paint-order:stroke fill markers" />
  </g>
</svg>
