<?xml version="1.0" encoding="UTF-8" standalone="no"?>
<svg
   xmlns:dc="http://purl.org/dc/elements/1.1/"
   xmlns:cc="http://creativecommons.org/ns#"
   xmlns:rdf="http://www.w3.org/1999/02/22-rdf-syntax-ns#"
   xmlns:svg="http://www.w3.org/2000/svg"
   xmlns="http://www.w3.org/2000/svg"
   xmlns:sodipodi="http://sodipodi.sourceforge.net/DTD/sodipodi-0.dtd"
   xmlns:inkscape="http://www.inkscape.org/namespaces/inkscape"
   width="32"
   height="32"
   version="1.1"
   id="svg6"
   sodipodi:docname="system-switch-user.svg"
   inkscape:version="0.92.4 5da689c313, 2019-01-14">
  <metadata
     id="metadata12">
    <rdf:RDF>
      <cc:Work
         rdf:about="">
        <dc:format>image/svg+xml</dc:format>
        <dc:type
           rdf:resource="http://purl.org/dc/dcmitype/StillImage" />
        <dc:title></dc:title>
      </cc:Work>
    </rdf:RDF>
  </metadata>
  <defs
     id="defs10" />
  <sodipodi:namedview
     pagecolor="#c8c8c8"
     bordercolor="#666666"
     borderopacity="1"
     objecttolerance="10"
     gridtolerance="10"
     guidetolerance="10"
     inkscape:pageopacity="0"
     inkscape:pageshadow="2"
     inkscape:window-width="1920"
     inkscape:window-height="973"
     id="namedview8"
     showgrid="false"
     inkscape:zoom="7.375"
     inkscape:cx="16"
     inkscape:cy="16"
     inkscape:window-x="0"
     inkscape:window-y="36"
     inkscape:window-maximized="1"
     inkscape:current-layer="svg6" />
  <g
     id="system-switch-user"
     transform="translate(-162.89258,0.28320295)">
    <rect
       ry="0"
       rx="0"
       y="-0.28320295"
       x="162.89258"
       height="32"
       width="32"
       id="rect956"
       style="opacity:0;fill:#000000;fill-opacity:1;fill-rule:evenodd;stroke:none;stroke-width:2;stroke-linecap:round;stroke-linejoin:round;stroke-miterlimit:4;stroke-dasharray:none;stroke-opacity:1;paint-order:fill markers stroke" />
    <path
       inkscape:connector-curvature="0"
       id="path1020"
       d="m 178.89258,0.71679705 c -8.27678,0 -15,6.72321505 -15,14.99999995 0,8.276785 6.72322,15 15,15 8.27678,0 15,-6.723215 15,-15 0,-8.276785 -6.72322,-14.99999995 -15,-14.99999995 z m 5.09766,9.50390595 c 0.0644,0.0081 0.12752,0.02787 0.1875,0.0625 l 3.46484,2 c 0.0183,0.01057 0.0285,0.02861 0.0449,0.04102 0.029,0.02179 0.0565,0.04282 0.0801,0.07031 0.0189,0.02193 0.0323,0.04582 0.0469,0.07031 0.0182,0.03036 0.0354,0.05961 0.0469,0.09375 0.0104,0.03061 0.0133,0.06168 0.0176,0.09375 0.003,0.02207 0.0137,0.04155 0.0137,0.06445 0,0.01105 -0.005,0.02038 -0.006,0.03125 -0.002,0.03143 -0.0115,0.06072 -0.0195,0.0918 -0.009,0.03629 -0.0183,0.07096 -0.0352,0.103515 -0.004,0.0076 -0.004,0.01596 -0.008,0.02344 -0.009,0.01553 -0.0229,0.02487 -0.0332,0.03906 -0.0232,0.03202 -0.0481,0.06031 -0.0781,0.08594 -0.0223,0.01913 -0.0454,0.03412 -0.0703,0.04883 -0.0285,0.01685 -0.0561,0.03199 -0.0879,0.04297 -0.0346,0.0121 -0.069,0.0172 -0.10547,0.02148 -0.0195,0.0023 -0.0365,0.01172 -0.0566,0.01172 h -17 c -0.277,0 -0.5,-0.223 -0.5,-0.5 0,-0.277 0.223,-0.5 0.5,-0.5 h 15.13281 l -1.84765,-1.066406 c -0.23989,-0.1385 -0.3221,-0.443705 -0.1836,-0.683594 0.10388,-0.179917 0.30273,-0.270322 0.4961,-0.246094 z m -13.59766,7.996094 h 17 c 0.277,0 0.5,0.223 0.5,0.5 0,0.277 -0.223,0.5 -0.5,0.5 h -15.13281 l 1.84765,1.066406 c 0.23989,0.1385 0.3221,0.443705 0.1836,0.683594 -0.1385,0.239889 -0.44371,0.322094 -0.6836,0.183594 l -3.46484,-2 c -0.0183,-0.01057 -0.0285,-0.02861 -0.0449,-0.04102 -0.029,-0.02179 -0.0565,-0.04283 -0.0801,-0.07031 -0.0189,-0.02193 -0.0323,-0.04582 -0.0469,-0.07031 -0.0182,-0.03036 -0.0354,-0.05961 -0.0469,-0.09375 -0.0104,-0.03061 -0.0133,-0.06168 -0.0176,-0.09375 -0.003,-0.02207 -0.0137,-0.04155 -0.0137,-0.06445 0,-0.01105 0.005,-0.02038 0.006,-0.03125 0.002,-0.03142 0.0115,-0.06072 0.0195,-0.0918 0.009,-0.03629 0.0183,-0.07096 0.0352,-0.103515 0.004,-0.0076 0.004,-0.01597 0.008,-0.02344 0.009,-0.01553 0.0229,-0.02487 0.0332,-0.03906 0.0232,-0.03202 0.0481,-0.06031 0.0781,-0.08594 0.0223,-0.01913 0.0454,-0.03412 0.0703,-0.04883 0.0285,-0.01685 0.0561,-0.03198 0.0879,-0.04297 0.0346,-0.0121 0.069,-0.0172 0.10547,-0.02148 0.0195,-0.0023 0.0365,-0.01172 0.0566,-0.01172 z"
       style="color:#000000;overflow:visible;opacity:0.85;fill:#ffffff;fill-opacity:1;stroke-width:0.93749994" />
  </g>
</svg>
