<?xml version="1.0" encoding="UTF-8"?>
<svg width="32" height="32" version="1.1" xmlns="http://www.w3.org/2000/svg" xmlns:cc="http://creativecommons.org/ns#" xmlns:dc="http://purl.org/dc/elements/1.1/" xmlns:rdf="http://www.w3.org/1999/02/22-rdf-syntax-ns#">
 <metadata>
  <rdf:RDF>
   <cc:Work rdf:about="">
    <dc:format>image/svg+xml</dc:format>
    <dc:type rdf:resource="http://purl.org/dc/dcmitype/StillImage"/>
    <dc:title/>
   </cc:Work>
  </rdf:RDF>
 </metadata>
 <defs>
  <style id="current-color-scheme" type="text/css">.ColorScheme-Text {
        color:#31363b;
      }
      .ColorScheme-Background{
        color:#E9E8E8;
      }
      .ColorScheme-ViewText {
        color:#31363b;
      }
      .ColorScheme-ViewBackground{
        color:#ffffff;
      }
      .ColorScheme-ViewHover {
        color:#000000;
      }
      .ColorScheme-ViewFocus{
        color:#5a5a5a;
      }
      .ColorScheme-ButtonText {
        color:#31363b;
      }
      .ColorScheme-ButtonBackground{
        color:#E9E8E8;
      }
      .ColorScheme-ButtonHover {
        color:#1489ff;
      }
      .ColorScheme-ButtonFocus{
        color:#2B74C7;
      }</style>
  <style type="text/css">.ColorScheme-Text { color:#dedede; } .ColorScheme-Highlight { color:#5294e2; } .ColorScheme-ButtonBackground { color:#dedede; }</style>
  <style type="text/css"/>
  <style type="text/css">.ColorScheme-Text { color:#dedede; } .ColorScheme-Highlight { color:#5294e2; } .ColorScheme-ButtonBackground { color:#dedede; }</style>
  <style type="text/css"/>
 </defs>
 <g transform="translate(78)">
  <rect x="-78" width="32" height="32" rx="0" ry="0" color="#333333" opacity="0" stroke-width="2" style="paint-order:fill markers stroke"/>
  <path d="m-62 0c-8.8286 0-16 7.1714-16 16s7.1714 16 16 16 16-7.1714 16-16-7.1714-16-16-16z" color="#000000" opacity="0" overflow="visible"/>
  <path d="m-62 1a15 15 0 0 0-15 15 15 15 0 0 0 15 15 15 15 0 0 0 15-15 15 15 0 0 0-15-15zm0 5c0.27519 0 0.49609 0.2209 0.49609 0.49609v6.9551c0 0.27519-0.2209 0.49609-0.49609 0.49609s-0.49609-0.2209-0.49609-0.49609v-6.9551c0-0.27519 0.2209-0.49609 0.49609-0.49609zm-4.2793 2.1348a0.49984 0.49984 0 0 1 0.05078 0 0.49984 0.49984 0 0 1 0.22852 0.9375c-3.138 1.8117-4.6663 5.4981-3.7285 8.998 0.93782 3.5 4.1051 5.9297 7.7285 5.9297s6.7907-2.4297 7.7285-5.9297c0.93782-3.5-0.59052-7.1863-3.7285-8.998a0.5005 0.5005 0 1 1 0.5-0.86719c3.5256 2.0355 5.247 6.1927 4.1934 10.125-1.0537 3.9323-4.6223 6.6699-8.6934 6.6699s-7.6397-2.7376-8.6934-6.6699c-1.0537-3.9323 0.66774-8.0895 4.1934-10.125a0.49984 0.49984 0 0 1 0.2207-0.070312z" fill="#f12727" fill-opacity=".99216"/>
 </g>
</svg>
