<?xml version="1.0" encoding="UTF-8" standalone="no"?>
<svg
   xmlns:dc="http://purl.org/dc/elements/1.1/"
   xmlns:cc="http://creativecommons.org/ns#"
   xmlns:rdf="http://www.w3.org/1999/02/22-rdf-syntax-ns#"
   xmlns:svg="http://www.w3.org/2000/svg"
   xmlns="http://www.w3.org/2000/svg"
   xmlns:sodipodi="http://sodipodi.sourceforge.net/DTD/sodipodi-0.dtd"
   xmlns:inkscape="http://www.inkscape.org/namespaces/inkscape"
   width="32"
   height="32"
   version="1.1"
   id="svg11"
   sodipodi:docname="system-log-out.svg"
   inkscape:version="0.92.4 5da689c313, 2019-01-14">
  <defs
     id="defs15" />
  <sodipodi:namedview
     pagecolor="#ffffff"
     bordercolor="#666666"
     borderopacity="1"
     objecttolerance="10"
     gridtolerance="10"
     guidetolerance="10"
     inkscape:pageopacity="0"
     inkscape:pageshadow="2"
     inkscape:window-width="1920"
     inkscape:window-height="981"
     id="namedview13"
     showgrid="false"
     inkscape:zoom="10.429825"
     inkscape:cx="26.648637"
     inkscape:cy="11.201497"
     inkscape:window-x="0"
     inkscape:window-y="28"
     inkscape:window-maximized="1"
     inkscape:current-layer="svg11" />
  <metadata
     id="metadata2">
    <rdf:RDF>
      <cc:Work
         rdf:about="">
        <dc:format>image/svg+xml</dc:format>
        <dc:type
           rdf:resource="http://purl.org/dc/dcmitype/StillImage" />
        <dc:title />
      </cc:Work>
    </rdf:RDF>
  </metadata>
  <g
     id="system-log-out">
    <rect
       id="rect139"
       style="color:#333333;opacity:0;fill:#333333;stroke-width:2;paint-order:fill markers stroke"
       ry="0"
       rx="0"
       height="32"
       width="32"
       y="0"
       x="0" />
    <path
       style="color:#000000;overflow:visible;opacity:0;fill:#333333"
       inkscape:connector-curvature="0"
       id="path141"
       overflow="visible"
       d="M 16,0 C 7.1724,0 0,7.1724 0,16 0,24.8276 7.1724,32 16,32 24.8276,32 32,24.8276 32,16 32,7.1724 24.8276,0 16,0 Z" />
    <path
       inkscape:connector-curvature="0"
       id="circle943"
       d="M 16,1 A 15,15 0 0 0 1,16 15,15 0 0 0 16,31 15,15 0 0 0 31,16 15,15 0 0 0 16,1 Z m 0.720703,7.220703 c 0.12781,0 0.255581,0.048549 0.353516,0.146485 l 7.779297,7.779296 c 0.195868,0.195869 0.195868,0.511163 0,0.707032 l -7.779297,7.779296 c -0.195869,0.195869 -0.511163,0.195869 -0.707031,0 -0.195869,-0.195868 -0.195869,-0.511162 0,-0.707031 L 23.292969,17 H 7.5 C 7.223,17 7,16.777 7,16.5 7,16.223 7.223,16 7.5,16 H 23.292969 L 16.367188,9.074219 c -0.195869,-0.195869 -0.195869,-0.511163 0,-0.707031 0.09793,-0.097935 0.225706,-0.146485 0.353515,-0.146485 z"
       style="opacity:1;fill:#1d82ff;fill-opacity:0.99215686;stroke:none;stroke-width:2.5;stroke-linecap:round;stroke-linejoin:round;stroke-miterlimit:4;stroke-dasharray:none;stroke-opacity:1" />
  </g>
</svg>
