<?xml version="1.0" encoding="UTF-8"?>
<svg width="32" height="32" version="1.1" xmlns="http://www.w3.org/2000/svg" xmlns:cc="http://creativecommons.org/ns#" xmlns:dc="http://purl.org/dc/elements/1.1/" xmlns:rdf="http://www.w3.org/1999/02/22-rdf-syntax-ns#">
 <metadata>
  <rdf:RDF>
   <cc:Work rdf:about="">
    <dc:format>image/svg+xml</dc:format>
    <dc:type rdf:resource="http://purl.org/dc/dcmitype/StillImage"/>
    <dc:title/>
   </cc:Work>
  </rdf:RDF>
 </metadata>
 <defs>
  <style id="current-color-scheme" type="text/css">.ColorScheme-Text {
        color:#31363b;
      }
      .ColorScheme-Background{
        color:#E9E8E8;
      }
      .ColorScheme-ViewText {
        color:#000000;
      }
      .ColorScheme-ViewBackground{
        color:#ffffff;
      }
      .ColorScheme-ViewHover {
        color:#000000;
      }
      .ColorScheme-ViewFocus{
        color:#5a5a5a;
      }
      .ColorScheme-ButtonText {
        color:#000000;
      }
      .ColorScheme-ButtonBackground{
        color:#E9E8E8;
      }
      .ColorScheme-ButtonHover {
        color:#1489ff;
      }
      .ColorScheme-ButtonFocus{
        color:#2B74C7;
      }</style>
 </defs>
 <g transform="translate(-42)">
  <rect x="42" width="32" height="32" rx="0" ry="0" color="#333333" opacity="0" stroke-width="2" style="paint-order:fill markers stroke"/>
  <path d="m58 0c-8.8276 0-16 7.1724-16 16s7.1724 16 16 16 16-7.1724 16-16-7.1724-16-16-16z" color="#000000" opacity="0" overflow="visible"/>
  <path d="m58 1a15 15 0 0 0-15 15 15 15 0 0 0 15 15 15 15 0 0 0 15-15 15 15 0 0 0-15-15zm0 4c3.324 0 6 2.676 6 6v5h3v9h-18v-9h3v-5c0-3.324 2.676-6 6-6zm0 1c-2.77 0-5 2.23-5 5v5h10v-5c0-2.77-2.23-5-5-5zm-8 11v7h16v-7z" fill="#1e82ff" fill-opacity=".99216"/>
 </g>
</svg>
