<?xml version="1.0" encoding="UTF-8" standalone="no"?>
<svg
   xmlns:dc="http://purl.org/dc/elements/1.1/"
   xmlns:cc="http://creativecommons.org/ns#"
   xmlns:rdf="http://www.w3.org/1999/02/22-rdf-syntax-ns#"
   xmlns:svg="http://www.w3.org/2000/svg"
   xmlns="http://www.w3.org/2000/svg"
   xmlns:sodipodi="http://sodipodi.sourceforge.net/DTD/sodipodi-0.dtd"
   xmlns:inkscape="http://www.inkscape.org/namespaces/inkscape"
   width="32"
   height="32"
   version="1.1"
   id="svg27"
   sodipodi:docname="system-suspend.svg"
   inkscape:version="0.92.4 5da689c313, 2019-01-14">
  <sodipodi:namedview
     pagecolor="#ffffff"
     bordercolor="#666666"
     borderopacity="1"
     objecttolerance="10"
     gridtolerance="10"
     guidetolerance="10"
     inkscape:pageopacity="0"
     inkscape:pageshadow="2"
     inkscape:window-width="857"
     inkscape:window-height="480"
     id="namedview29"
     showgrid="false"
     inkscape:zoom="7.375"
     inkscape:cx="1.4237288"
     inkscape:cy="16"
     inkscape:window-x="0"
     inkscape:window-y="28"
     inkscape:window-maximized="0"
     inkscape:current-layer="svg27" />
  <metadata
     id="metadata2">
    <rdf:RDF>
      <cc:Work
         rdf:about="">
        <dc:format>image/svg+xml</dc:format>
        <dc:type
           rdf:resource="http://purl.org/dc/dcmitype/StillImage" />
        <dc:title />
      </cc:Work>
    </rdf:RDF>
  </metadata>
  <defs
     id="defs15">
    <style
       id="current-color-scheme"
       type="text/css">.ColorScheme-Text {
        color:#31363b;
      }
      .ColorScheme-Background{
        color:#E9E8E8;
      }
      .ColorScheme-ViewText {
        color:#31363b;
      }
      .ColorScheme-ViewBackground{
        color:#ffffff;
      }
      .ColorScheme-ViewHover {
        color:#000000;
      }
      .ColorScheme-ViewFocus{
        color:#5a5a5a;
      }
      .ColorScheme-ButtonText {
        color:#31363b;
      }
      .ColorScheme-ButtonBackground{
        color:#E9E8E8;
      }
      .ColorScheme-ButtonHover {
        color:#1489ff;
      }
      .ColorScheme-ButtonFocus{
        color:#2B74C7;
      }</style>
    <style
       type="text/css"
       id="style5">.ColorScheme-Text { color:#dedede; } .ColorScheme-Highlight { color:#5294e2; } .ColorScheme-ButtonBackground { color:#dedede; }</style>
    <style
       type="text/css"
       id="style7" />
    <style
       type="text/css"
       id="style9">.ColorScheme-Text { color:#dedede; } .ColorScheme-Highlight { color:#5294e2; } .ColorScheme-ButtonBackground { color:#dedede; }</style>
    <style
       type="text/css"
       id="style11" />
    <style
       type="text/css"
       id="style13">.ColorScheme-Text {
        color:#31363b;
      }
      .ColorScheme-Background{
        color:#E9E8E8;
      }
      .ColorScheme-ViewText {
        color:#31363b;
      }
      .ColorScheme-ViewBackground{
        color:#ffffff;
      }
      .ColorScheme-ViewHover {
        color:#000000;
      }
      .ColorScheme-ViewFocus{
        color:#5a5a5a;
      }
      .ColorScheme-ButtonText {
        color:#31363b;
      }
      .ColorScheme-ButtonBackground{
        color:#E9E8E8;
      }
      .ColorScheme-ButtonHover {
        color:#1489ff;
      }
      .ColorScheme-ButtonFocus{
        color:#2B74C7;
      }</style>
  </defs>
  <g
     transform="translate(158)"
     id="g25">
    <rect
       x="-158"
       width="32"
       height="32"
       rx="0"
       ry="0"
       color="#333333"
       opacity="0"
       stroke-width="2"
       id="rect17" />
    <path
       d="m-142 0c-8.8276 0-16 7.1724-16 16s7.1724 16 16 16 16-7.1724 16-16-7.1724-16-16-16z"
       color="#000000"
       opacity="0"
       overflow="visible"
       id="path19" />
    <path
       d="m-142 1a15 15 0 0 0-15 15 15 15 0 0 0 15 15 15 15 0 0 0 15-15 15 15 0 0 0-15-15zm3.5527 6.6172a0.50005 0.50005 0 0 1 0.24609 0.07031c0.83611 0.45727 1.5777 1.0364 2.207 1.7051 1.8881 2.0061 2.779 4.8273 2.2812 7.6426-0.6637 3.7537-3.6511 6.6708-7.4199 7.2422-3.698 0.56065-7.3412-1.2619-9.127-4.5312a0.50005 0.50005 0 0 1-0.14258-0.2793 0.50005 0.50005 0 0 1 0-2e-3 0.50005 0.50005 0 0 1 0.81055-0.51172c2.9651 0.83486 6.1527 0.0418 8.3711-2.1074 2.2582-2.1877 3.1536-5.4259 2.3398-8.4629a0.50005 0.50005 0 0 1 0.4336-0.76562zm0.74414 1.582c0.45697 3.059-0.56943 6.1826-2.8223 8.3652-2.2164 2.1472-5.3041 3.0852-8.3008 2.5879 1.7145 2.3406 4.6075 3.5798 7.543 3.1348 3.3484-0.50764 5.9963-3.0928 6.5859-6.4277 0.52124-2.948-0.67011-5.8933-3.0059-7.6602z"
       fill="#ff8200"
       id="path23" />
  </g>
</svg>
