<?xml version="1.0" encoding="UTF-8" standalone="no"?>
<svg
   xmlns:dc="http://purl.org/dc/elements/1.1/"
   xmlns:cc="http://creativecommons.org/ns#"
   xmlns:rdf="http://www.w3.org/1999/02/22-rdf-syntax-ns#"
   xmlns:svg="http://www.w3.org/2000/svg"
   xmlns="http://www.w3.org/2000/svg"
   xmlns:sodipodi="http://sodipodi.sourceforge.net/DTD/sodipodi-0.dtd"
   xmlns:inkscape="http://www.inkscape.org/namespaces/inkscape"
   width="32"
   height="32"
   version="1.1"
   id="svg6"
   sodipodi:docname="system-suspend-hibernate.svg"
   inkscape:version="0.92.4 5da689c313, 2019-01-14">
  <metadata
     id="metadata12">
    <rdf:RDF>
      <cc:Work
         rdf:about="">
        <dc:format>image/svg+xml</dc:format>
        <dc:type
           rdf:resource="http://purl.org/dc/dcmitype/StillImage" />
        <dc:title></dc:title>
      </cc:Work>
    </rdf:RDF>
  </metadata>
  <defs
     id="defs10" />
  <sodipodi:namedview
     pagecolor="#c8c8c8"
     bordercolor="#666666"
     borderopacity="1"
     objecttolerance="10"
     gridtolerance="10"
     guidetolerance="10"
     inkscape:pageopacity="0"
     inkscape:pageshadow="2"
     inkscape:window-width="1920"
     inkscape:window-height="973"
     id="namedview8"
     showgrid="false"
     inkscape:zoom="7.375"
     inkscape:cx="16"
     inkscape:cy="16"
     inkscape:window-x="0"
     inkscape:window-y="36"
     inkscape:window-maximized="1"
     inkscape:current-layer="svg6" />
  <g
     id="system-suspend-hibernate"
     transform="translate(44,45)">
    <rect
       style="opacity:0;fill:#000000;fill-opacity:1;fill-rule:evenodd;stroke:none;stroke-width:2;stroke-linecap:round;stroke-linejoin:round;stroke-miterlimit:4;stroke-dasharray:none;stroke-opacity:1;paint-order:fill markers stroke"
       id="rect887"
       width="32"
       height="32"
       x="-44"
       y="-45"
       rx="0"
       ry="0" />
    <path
       id="path897"
       d="m -28,-44 a 15,15 0 0 0 -15,15 15,15 0 0 0 15,15 15,15 0 0 0 15,-15 15,15 0 0 0 -15,-15 z m 0,6 a 0.5,0.5 0 0 1 0,1 c -3.237199,0 -6.151802,1.948671 -7.390625,4.939453 -1.238823,2.990782 -0.554671,6.427751 1.734375,8.716797 2.289046,2.289046 5.726015,2.973198 8.716797,1.734375 C -21.948671,-22.848198 -20,-25.762801 -20,-29 a 0.5,0.5 0 0 1 1,0 c 0,3.638724 -2.194898,6.921974 -5.556641,8.314453 -3.361743,1.39248 -7.233674,0.621795 -9.80664,-1.951172 -2.572967,-2.572967 -3.343652,-6.444897 -1.951172,-9.80664 C -34.921973,-35.805102 -31.638724,-38 -28,-38 Z m 3.792969,2.162109 h 2.830078 c 0.06644,0 0.1296,0.01443 0.1875,0.03711 0.06278,0.02532 0.118996,0.06251 0.166015,0.109375 0.04702,0.04687 0.08405,0.103275 0.109376,0.166015 0.04898,0.120189 0.04898,0.256764 0,0.376953 l -0.002,0.002 c -0.02524,0.06123 -0.06135,0.115999 -0.107422,0.162109 L -23,-33.007812 h 2.302734 c 0.277006,-10e-7 0.5,0.22296 0.5,0.5 0,0.277 -0.222998,0.5 -0.5,0.5 h -3.507812 c -0.210569,-10e-7 -0.388961,-0.131147 -0.462891,-0.314454 -0.01169,-0.02948 -0.01158,-0.06156 -0.01758,-0.0918 -0.0064,-0.03175 -0.01953,-0.05973 -0.01953,-0.09375 -2.7e-4,-0.06539 0.01374,-0.129797 0.03906,-0.191407 0.02547,-0.06161 0.06082,-0.117572 0.107422,-0.164062 l 0.0039,-0.0039 1.970704,-1.970703 h -1.623047 c -0.277006,0 -0.5,-0.222961 -0.5,-0.5 0,-0.27704 0.222998,-0.5 0.5,-0.5 z m -4.804688,8.740235 a 0.49991579,0.49991579 0 0 1 0.513672,0.548828 c -0.01572,0.188685 0.07332,0.367247 0.234375,0.466797 0.161054,0.0996 0.361686,0.100363 0.523438,0.002 0.161751,-0.09841 0.252671,-0.276053 0.238281,-0.464844 a 0.50047477,0.50047477 0 1 1 0.998047,-0.07617 c 0.04281,0.561849 -0.23542,1.101642 -0.716797,1.394532 -0.481377,0.292846 -1.08906,0.290413 -1.568359,-0.0059 -0.479302,-0.296273 -0.751849,-0.838859 -0.705079,-1.40039 a 0.49991579,0.49991579 0 0 1 0.482422,-0.464844 z"
       style="opacity:0.85;fill:#ffffff;fill-opacity:1;fill-rule:evenodd;stroke:none;stroke-width:1.5;stroke-linecap:round;stroke-linejoin:miter;stroke-miterlimit:4;stroke-dasharray:none;stroke-dashoffset:3;stroke-opacity:1;paint-order:stroke fill markers"
       inkscape:connector-curvature="0" />
  </g>
</svg>
