<?xml version="1.0" encoding="UTF-8" standalone="no"?>
<svg
   xmlns:dc="http://purl.org/dc/elements/1.1/"
   xmlns:cc="http://creativecommons.org/ns#"
   xmlns:rdf="http://www.w3.org/1999/02/22-rdf-syntax-ns#"
   xmlns:svg="http://www.w3.org/2000/svg"
   xmlns="http://www.w3.org/2000/svg"
   xmlns:sodipodi="http://sodipodi.sourceforge.net/DTD/sodipodi-0.dtd"
   xmlns:inkscape="http://www.inkscape.org/namespaces/inkscape"
   width="32"
   height="32"
   version="1.1"
   id="svg14"
   sodipodi:docname="system-switch-user.svg"
   inkscape:version="0.92.4 5da689c313, 2019-01-14">
  <defs
     id="defs18" />
  <sodipodi:namedview
     pagecolor="#ffffff"
     bordercolor="#666666"
     borderopacity="1"
     objecttolerance="10"
     gridtolerance="10"
     guidetolerance="10"
     inkscape:pageopacity="0"
     inkscape:pageshadow="2"
     inkscape:window-width="857"
     inkscape:window-height="480"
     id="namedview16"
     showgrid="false"
     inkscape:zoom="7.375"
     inkscape:cx="1.4237288"
     inkscape:cy="16"
     inkscape:window-x="0"
     inkscape:window-y="28"
     inkscape:window-maximized="0"
     inkscape:current-layer="svg14" />
  <metadata
     id="metadata2">
    <rdf:RDF>
      <cc:Work
         rdf:about="">
        <dc:format>image/svg+xml</dc:format>
        <dc:type
           rdf:resource="http://purl.org/dc/dcmitype/StillImage" />
        <dc:title />
      </cc:Work>
    </rdf:RDF>
  </metadata>
  <g
     transform="translate(-85)"
     id="g12">
    <rect
       x="85"
       width="32"
       height="32"
       rx="0"
       ry="0"
       color="#333333"
       opacity="0"
       stroke-width="2"
       id="rect4" />
    <circle
       cx="101"
       cy="16"
       r="16"
       color="#333333"
       opacity="0"
       id="circle6" />
    <path
       d="m101 1a15 15 0 0 0-15 15 15 15 0 0 0 15 15 15 15 0 0 0 15-15 15 15 0 0 0-15-15zm3.2305 10.504c0.0645 0.0081 0.12948 0.02787 0.18945 0.0625l4.3301 2.5c0.0197 0.01138 0.0313 0.02947 0.0488 0.04297 0.0265 0.02027 0.0523 0.03936 0.0742 0.06445 0.0212 0.02437 0.0368 0.05058 0.0527 0.07813 0.0166 0.02847 0.0322 0.05616 0.043 0.08789 0.0106 0.03122 0.0133 0.06297 0.0176 0.0957 3e-3 0.02207 0.0137 0.04155 0.0137 0.06445 0 0.01105-5e-3 0.02038-6e-3 0.03125-2e-3 0.02978-0.0102 0.05842-0.0176 0.08789-9e-3 0.03777-0.0197 0.07365-0.0371 0.10742-4e-3 0.0075-4e-3 0.01603-8e-3 0.02344-9e-3 0.01553-0.0229 0.02487-0.0332 0.03906-0.0232 0.03202-0.0481 0.06031-0.0781 0.08594-0.0217 0.0186-0.0442 0.03245-0.0684 0.04687-0.0304 0.01817-0.0596 0.03541-0.0937 0.04687-0.0306 0.01037-0.0617 0.01329-0.0937 0.01758-0.0218 3e-3 -0.0413 0.01368-0.0642 0.01368h-15c-0.277 0-0.5-0.223-0.5-0.5s0.223-0.5 0.5-0.5h13.137l-2.7168-1.5684c-0.23989-0.1385-0.32209-0.44175-0.18359-0.68164 0.10387-0.17991 0.30077-0.27032 0.49414-0.24609zm-10.73 5.4961h15c0.277 0 0.5 0.223 0.5 0.5s-0.223 0.5-0.5 0.5h-13.137l2.7168 1.5684c0.23989 0.1385 0.32209 0.44175 0.18359 0.68164s-0.4437 0.32209-0.68359 0.18359l-4.3301-2.5c-0.01971-0.01138-0.0313-0.02947-0.04883-0.04297-0.02651-0.02027-0.05229-0.03936-0.07422-0.06445-0.02048-0.02358-0.0353-0.0496-0.05078-0.07617-0.01754-0.02969-0.03375-0.05854-0.04492-0.0918-0.0103-0.03077-0.01341-0.06151-0.01758-0.09375-0.0029-0.02207-0.01367-0.04155-0.01367-0.06445 0-0.01105 0.0052-0.02038 0.0059-0.03125 2e-3 -0.02991 0.01009-0.0583 0.01758-0.08789 0.0094-0.03777 0.01967-0.07365 0.03711-0.10742 0.0039-0.0075 0.0035-0.01603 0.0078-0.02344 0.0052-9e-3 0.01586-0.01102 0.02148-0.01953 0.04517-0.06865 0.10319-0.12475 0.17578-0.16406 0.0088-0.0048 0.0144-0.01336 0.02344-0.01758 0.0643-0.03002 0.13499-0.04883 0.21091-0.04883z"
       fill="#1e82ff"
       fill-opacity=".99216"
       id="path10" />
  </g>
</svg>
