<?xml version="1.0" encoding="UTF-8" standalone="no"?>
<svg
   xmlns:dc="http://purl.org/dc/elements/1.1/"
   xmlns:cc="http://creativecommons.org/ns#"
   xmlns:rdf="http://www.w3.org/1999/02/22-rdf-syntax-ns#"
   xmlns:svg="http://www.w3.org/2000/svg"
   xmlns="http://www.w3.org/2000/svg"
   xmlns:sodipodi="http://sodipodi.sourceforge.net/DTD/sodipodi-0.dtd"
   xmlns:inkscape="http://www.inkscape.org/namespaces/inkscape"
   width="32"
   height="32"
   version="1.1"
   id="svg6"
   sodipodi:docname="system-log-out.svg"
   inkscape:version="0.92.4 5da689c313, 2019-01-14">
  <metadata
     id="metadata12">
    <rdf:RDF>
      <cc:Work
         rdf:about="">
        <dc:format>image/svg+xml</dc:format>
        <dc:type
           rdf:resource="http://purl.org/dc/dcmitype/StillImage" />
        <dc:title></dc:title>
      </cc:Work>
    </rdf:RDF>
  </metadata>
  <defs
     id="defs10" />
  <sodipodi:namedview
     pagecolor="#c8c8c8"
     bordercolor="#666666"
     borderopacity="1"
     objecttolerance="10"
     gridtolerance="10"
     guidetolerance="10"
     inkscape:pageopacity="0"
     inkscape:pageshadow="2"
     inkscape:window-width="1920"
     inkscape:window-height="973"
     id="namedview8"
     showgrid="false"
     inkscape:zoom="10.429825"
     inkscape:cx="19.733147"
     inkscape:cy="16.436858"
     inkscape:window-x="0"
     inkscape:window-y="36"
     inkscape:window-maximized="1"
     inkscape:current-layer="svg6" />
  <g
     id="system-log-out"
     transform="translate(-82.623047,0.75)">
    <rect
       ry="0"
       rx="0"
       y="-0.75"
       x="82.623047"
       height="32"
       width="32"
       id="rect950"
       style="opacity:0;fill:#000000;fill-opacity:1;fill-rule:evenodd;stroke:none;stroke-width:2;stroke-linecap:round;stroke-linejoin:round;stroke-miterlimit:4;stroke-dasharray:none;stroke-opacity:1;paint-order:fill markers stroke" />
    <path
       id="path999"
       d="m 98.623051,0.25 c -8.284271,0 -15,6.7157288 -15,15 0,8.284271 6.715729,15 15,15 8.284269,-1e-6 14.999999,-6.715729 14.999999,-15 0,-8.2842709 -6.71573,-14.99999945 -14.999999,-15 z m -0.1875,5.496094 C 99.343231,5.856996 100.03516,6.7805 100.03516,7.75 v 15 c 0,1.108 -0.903139,2.156695 -1.999999,2 l -7.000001,-1 c -1.09686,-0.156695 -2,-0.892 -2,-2 v -13 c 0,-1.108 0.90314,-1.843305 2,-2 l 7.000001,-1 c 0.13711,-0.01959 0.27072,-0.01975 0.40039,-0.0039 z m -0.19922,1.001953 c -0.0648,-0.0079 -0.13262,-0.0078 -0.20117,0.002 l -7.000001,1 c -0.54843,0.07835 -1,0.446 -1,1 v 13 c 0,0.554 0.45157,0.92165 1,1 l 7.000001,1 c 0.54843,0.07835 1,-0.446 1,-1 v -15 c 0,-0.48475 -0.34499,-0.946503 -0.79883,-1.001953 z m 3.261719,0.002 h 2 c 1.108,0 2,0.822934 2,1.845703 v 3.693359 c -3.6e-4,0.254666 -0.22411,0.460938 -0.5,0.460938 -0.27589,0 -0.49964,-0.206272 -0.5,-0.460938 V 8.59575 c 0,-0.511385 -0.446,-0.921875 -1,-0.921875 h -2 c -0.27672,1.1e-6 -0.50081,-0.2074617 -0.5,-0.46289 3.6e-4,-0.2546661 0.22411,-0.4609382 0.5,-0.460938 z m 5.87891,5.876953 c 0.12781,0 0.25561,0.05051 0.35351,0.148438 l 2.1211,2.121093 c 0.049,0.04897 0.0849,0.105846 0.10937,0.166016 0.0245,0.06017 0.0371,0.1236 0.0371,0.1875 0,0.0639 -0.0126,0.12733 -0.0371,0.1875 -0.0245,0.06017 -0.0604,0.117046 -0.10937,0.166016 l -2.1211,2.121093 c -0.19587,0.195869 -0.51116,0.195869 -0.70703,0 -0.19587,-0.195868 -0.19587,-0.511162 0,-0.707031 L 108.29102,15.75 h -4.79297 c -0.277,0 -0.5,-0.223 -0.5,-0.5 0,-0.277 0.223,-0.5 0.5,-0.5 h 4.79297 l -1.26758,-1.267578 c -0.19587,-0.195869 -0.19587,-0.511163 0,-0.707031 0.0979,-0.09794 0.22571,-0.148438 0.35352,-0.148438 z M 97,14.750047 c 0.276142,0 0.5,0.223858 0.5,0.5 0,0.276142 -0.223858,0.5 -0.5,0.5 -0.276142,0 -0.5,-0.223858 -0.5,-0.5 0,-0.276142 0.223858,-0.5 0.5,-0.5 z m 7.99805,3 c 0.27589,0 0.49964,0.206272 0.5,0.460938 v 3.693359 c 0,1.022769 -0.892,1.845703 -2,1.845703 h -2 c -0.27589,0 -0.49964,-0.206272 -0.5,-0.460938 -8.1e-4,-0.255428 0.22328,-0.462891 0.5,-0.46289 h 2 c 0.554,0 1,-0.41049 1,-0.921875 v -3.693359 c 3.3e-4,-0.254684 0.22409,-0.460985 0.5,-0.460985 z"
       style="opacity:0.85;fill:#ffffff;fill-opacity:1;fill-rule:evenodd;stroke:none;stroke-width:2.4000001;stroke-linecap:round;stroke-linejoin:miter;stroke-miterlimit:4;stroke-dasharray:none;stroke-dashoffset:3;stroke-opacity:1;paint-order:stroke fill markers"
       inkscape:connector-curvature="0"
       sodipodi:nodetypes="ssssscsssssssccccccssccssccssscccssccsccccsscscccssscccccsssssccsssccssccc" />
  </g>
</svg>
