<?xml version="1.0" encoding="UTF-8"?>
<!-- Created with Inkscape (http://www.inkscape.org/) -->
<svg width="64" height="64" version="1.1" viewBox="0 0 16.933 16.933" xmlns="http://www.w3.org/2000/svg" xmlns:xlink="http://www.w3.org/1999/xlink">
 <defs>
  <linearGradient id="linearGradient122580" x1="-253" x2="-198" y1="58.33" y2="58.33" gradientTransform="matrix(.26459 0 0 .26459 91.739 4.8853)" gradientUnits="userSpaceOnUse">
   <stop stop-color="#ddd" offset="0"/>
   <stop stop-color="#ebebeb" offset=".03522"/>
   <stop stop-color="#d5d5d5" offset=".054766"/>
   <stop stop-color="#f0f0f0" offset=".33059"/>
   <stop stop-color="#f0f0f0" offset=".50575"/>
   <stop stop-color="#f0f0f0" offset=".71508"/>
   <stop stop-color="#d3d3d3" offset=".94353"/>
   <stop stop-color="#ebebeb" offset=".96526"/>
   <stop stop-color="#e1e1e1" offset="1"/>
  </linearGradient>
  <linearGradient id="linearGradient158037" x1="-252.13" x2="-198.87" y1="33.15" y2="33.15" gradientTransform="matrix(.26459 0 0 .26459 91.739 4.8853)" gradientUnits="userSpaceOnUse">
   <stop stop-color="#189df7" offset="0"/>
   <stop stop-color="#189bf7" offset=".060278"/>
   <stop stop-color="#0587e4" offset=".10041"/>
   <stop stop-color="#1cadfa" offset=".31932"/>
   <stop stop-color="#1eaefb" offset=".50599"/>
   <stop stop-color="#1dacfa" offset=".69492"/>
   <stop stop-color="#068ee7" offset=".90466"/>
   <stop stop-color="#1ba1f9" offset=".9339"/>
   <stop stop-color="#169cf5" offset="1"/>
  </linearGradient>
  <linearGradient id="linearGradient3986" x1="-59.557" x2="-59.557" y1="15.884" y2="18.79" gradientTransform="translate(91.739 4.8853)" gradientUnits="userSpaceOnUse">
   <stop stop-color="#dfdfdf" offset="0"/>
   <stop stop-color="#d2d2d2" offset=".53197"/>
   <stop stop-color="#cacaca" offset="1"/>
  </linearGradient>
  <linearGradient id="linearGradient12298" x1="-58.757" x2="-58.757" y1="16.466" y2="18.206" gradientTransform="matrix(1 0 0 .98695 91.739 5.1004)" gradientUnits="userSpaceOnUse">
   <stop stop-color="#c8c8c8" offset="0"/>
   <stop stop-color="#b8b8b8" offset="1"/>
  </linearGradient>
  <linearGradient id="linearGradient988" x1="-61.911" x2="-61.911" y1="14.023" y2="15.081" gradientTransform="translate(87.232 9.5276)" gradientUnits="userSpaceOnUse" xlink:href="#linearGradient24279"/>
  <linearGradient id="linearGradient24279">
   <stop stop-color="#0d0d0d" offset="0"/>
   <stop stop-color="#414141" offset="1"/>
  </linearGradient>
  <linearGradient id="linearGradient990" x1="-61.911" x2="-61.911" y1="14.023" y2="15.081" gradientTransform="translate(87.764 9.5655)" gradientUnits="userSpaceOnUse" xlink:href="#linearGradient24279"/>
  <linearGradient id="linearGradient992" x1="-61.911" x2="-61.911" y1="14.023" y2="15.081" gradientTransform="translate(88.297 9.6035)" gradientUnits="userSpaceOnUse" xlink:href="#linearGradient24279"/>
  <linearGradient id="linearGradient994" x1="-61.911" x2="-61.911" y1="14.023" y2="15.081" gradientTransform="translate(88.829 9.6414)" gradientUnits="userSpaceOnUse" xlink:href="#linearGradient24279"/>
  <linearGradient id="linearGradient24281" x1="-61.911" x2="-61.911" y1="14.023" y2="15.081" gradientTransform="translate(89.362 9.6793)" gradientUnits="userSpaceOnUse" xlink:href="#linearGradient24279"/>
  <linearGradient id="linearGradient45238" x1="-55.576" x2="-55.576" y1="13.942" y2="14.996" gradientTransform="translate(92.883 7.7392)" gradientUnits="userSpaceOnUse">
   <stop stop-color="#070509" offset="0"/>
   <stop stop-color="#8e8e8e" offset="1"/>
  </linearGradient>
  <linearGradient id="linearGradient59949" x1="-55.566" x2="-55.566" y1="13.99" y2="14.865" gradientTransform="translate(92.883 7.7392)" gradientUnits="userSpaceOnUse">
   <stop stop-color="#276000" offset="0"/>
   <stop stop-color="#90b800" offset="1"/>
  </linearGradient>
  <linearGradient id="linearGradient69044" x1="-55.566" x2="-55.566" y1="13.99" y2="14.865" gradientTransform="matrix(.82719 0 0 .82719 83.278 10.298)" gradientUnits="userSpaceOnUse">
   <stop stop-color="#cef59a" offset="0"/>
   <stop stop-color="#91ba00" offset="1"/>
  </linearGradient>
  <linearGradient id="linearGradient106117" x1="-55.566" x2="-55.566" y1="13.99" y2="14.223" gradientTransform="matrix(.8272 0 0 .8272 83.278 10.298)" gradientUnits="userSpaceOnUse">
   <stop stop-color="#fff" offset="0"/>
   <stop stop-color="#bee571" offset="1"/>
  </linearGradient>
  <linearGradient id="linearGradient199209" x1="-28.818" x2="-28.818" y1="5.0549" y2="13.503" gradientTransform="matrix(.78693 0 0 .78693 56.638 6.1826)" gradientUnits="userSpaceOnUse">
   <stop stop-color="#0079c7" offset="0"/>
   <stop stop-color="#27acfe" offset="1"/>
  </linearGradient>
 </defs>
 <g transform="translate(-23.608 -7.6592)">
  <g stroke-width="1.0188">
   <path d="m39.139 18.919c-7e-3 -0.0048-0.014-0.0095-0.02119-0.01395-0.01254-0.0078-0.02556-0.01487-0.03876-0.0217-0.01318-0.0068-0.02656-0.01329-0.04031-0.01912-0.01376-0.0058-0.02764-0.01125-0.04186-0.01602-0.01423-0.0048-0.0288-0.0087-0.04341-0.0124-0.0146-0.0037-0.02952-0.0068-0.04444-0.0093s-0.02982-0.0044-0.04496-0.0057c-0.01513-0.0013-0.03021-0.0021-0.04547-0.0021h-13.486c-0.01527 0-0.03086 7.94e-4 -0.04599 0.0021-0.01513 0.0013-0.03004 0.0032-0.04496 0.0057s-0.02983 0.0056-0.04444 0.0093c-0.0146 0.0037-0.02867 0.0076-0.04289 0.0124-0.01423 0.0048-0.02863 0.01019-0.04237 0.01602-0.01376 0.0058-0.02712 0.01229-0.04031 0.01912-0.01318 0.0068-0.02622 0.01392-0.03876 0.0217-0.0073 0.0046-0.0141 0.0096-0.02119 0.01447l-0.20981 2.1999c-0.0057 0.06028-0.0019 0.11882 0.0098 0.17467 0.0047 0.02234 0.0109 0.04416 0.0181 0.06563 0.0036 0.01074 0.0072 0.02157 0.01138 0.03204 0.01254 0.03137 0.02799 0.06157 0.04548 0.09043 0.02915 0.04809 0.06465 0.09219 0.10542 0.13178 0.0081 0.0078 0.01625 0.01576 0.02479 0.02325 0.04279 0.03767 0.09085 0.0702 0.14211 0.09715 0.01024 0.0053 0.02048 0.01059 0.031 0.0155 0.09474 0.04427 0.19993 0.06925 0.30851 0.06925h13.154c0.25332 0 0.4894-0.13499 0.61185-0.33692 0.01749-0.02884 0.03292-0.05906 0.04548-0.09043 0.0042-0.01045 0.0082-0.02135 0.01188-0.03204 0.0071-0.02143 0.01289-0.04331 0.01757-0.06563 0.01175-0.05585 0.01545-0.11438 0.0098-0.17467z" fill="url(#linearGradient122580)"/>
   <path d="m39.12 18.732c-0.01352-0.0085-0.02758-0.01691-0.04186-0.02429-0.01585-0.0082-0.03194-0.01549-0.04857-0.02222-0.01664-0.0067-0.03388-0.0129-0.05116-0.01809-0.01728-0.0052-0.03442-0.0094-0.05219-0.01292-0.01778-0.0036-0.03614-0.0064-0.05426-0.0083-0.01812-0.0018-0.03595-0.0026-0.05426-0.0026h-13.487c-0.01831 0-0.03615 7.68e-4 -0.05426 0.0026-0.01812 0.0018-0.03649 0.0047-0.05426 0.0083-0.01778 0.0035-0.03492 0.0077-0.0522 0.01292-0.01728 0.0052-0.03452 0.01135-0.05116 0.01809-0.01664 0.0067-0.03273 0.01403-0.04857 0.02222-0.01429 0.0074-0.02833 0.0158-0.04186 0.02429l-0.0181 0.18707c0.0071-0.0049 0.01384-0.0099 0.02119-0.01447 0.01254-0.0078 0.02556-0.01487 0.03876-0.0217 0.01318-0.0068 0.02656-0.01329 0.04031-0.01912 0.01376-0.0058 0.02815-0.01125 0.04238-0.01602 0.01421-0.0048 0.02828-0.0087 0.04289-0.0124s0.02953-0.0068 0.04444-0.0093c0.01492-0.0025 0.02982-0.0044 0.04496-0.0057s0.03072-0.0021 0.04599-0.0021h13.486c0.01527 0 0.03034 7.94e-4 0.04547 0.0021 0.01513 0.0013 0.03004 0.0032 0.04496 0.0057s0.02983 0.0056 0.04444 0.0093c0.0146 0.0037 0.02919 0.0076 0.04341 0.0124 0.01423 0.0048 0.02811 0.01019 0.04186 0.01602 0.01376 0.0058 0.02712 0.01229 0.04031 0.01912 0.01318 0.0068 0.02622 0.01392 0.03876 0.0217 0.0072 0.0045 0.01423 0.0092 0.02119 0.01395z" fill="#015cbe"/>
   <path d="m26.619 8.5808c-0.1463-2.58e-4 -0.27287 0.02417-0.37568 0.075449-0.16728 0.062268-0.23804 0.17885-0.28628 0.36896l-0.92658 9.7071c0.01352-0.0085 0.02758-0.01691 0.04186-0.02429 0.01585-0.0082 0.03194-0.01549 0.04857-0.02222 0.01664-0.0067 0.03388-0.0129 0.05116-0.01809 0.01728-0.0052 0.03442-0.0094 0.05219-0.01292 0.01778-0.0036 0.03615-0.0064 0.05426-0.0083 0.01813-0.0018 0.03595-0.0026 0.05426-0.0026h13.487c0.01831 0 0.03614 7.69e-4 0.05426 0.0026 0.01812 0.0018 0.03649 0.0047 0.05426 0.0083 0.01778 0.0036 0.03492 0.0077 0.05219 0.01292 0.01728 0.0052 0.03452 0.01135 0.05116 0.01809 0.01664 0.0067 0.03273 0.01403 0.04857 0.02222 0.01429 0.0074 0.02833 0.0158 0.04186 0.02429l-0.92656-9.7071c-0.048249-0.19012-0.11902-0.30721-0.28628-0.36949-0.10282-0.051271-0.2294-0.07519-0.37568-0.074931l-5.4571 0.00878z" fill="url(#linearGradient158037)"/>
  </g>
  <g stroke-linecap="round" stroke-linejoin="round">
   <path d="m25.328 20.761h13.493c0.29316 0 0.57062 0.23896 0.52917 0.52917l-0.26458 1.852c-0.04146 0.29022-0.236 0.52917-0.52917 0.52917h-12.964c-0.29316 0-0.48771-0.23896-0.52917-0.52917l-0.26459-1.852c-0.04146-0.29022 0.236-0.52917 0.52917-0.52917z" color="#000000" fill="url(#linearGradient3986)" stroke-width=".053246" style="-inkscape-stroke:none"/>
   <path d="m25.592 21.29h12.964c0.14658 0 0.28005 0.11882 0.26459 0.26458l-0.14038 1.3229c-0.01547 0.14576-0.118 0.26458-0.26458 0.26458h-12.686c-0.14658 0-0.24938-0.11879-0.26458-0.26458l-0.13803-1.3229c-0.01521-0.14578 0.118-0.26458 0.26458-0.26458z" color="#000000" fill="#6c6c6c" stroke-width=".040902" style="-inkscape-stroke:none"/>
   <path d="m25.328 20.76c-0.29316 0-0.57063 0.23896-0.52917 0.52917l0.0052 0.03514c0.04686-0.22343 0.27959-0.38966 0.52401-0.38966h13.494c0.24442 0 0.47715 0.16621 0.52401 0.38965l0.0052-0.03514c0.04146-0.29022-0.23601-0.52917-0.52917-0.52917z" color="#000000" fill="#fafafa" stroke-width=".053248" style="-inkscape-stroke:none"/>
   <path d="m25.635 21.339h12.879c0.14561 0 0.28068 0.0891 0.26284 0.24723l-0.13945 1.2362c-0.01537 0.1362-0.11723 0.24724-0.26284 0.24724h-12.603c-0.14562 0-0.24774-0.111-0.26285-0.24724l-0.13712-1.2362c-0.01807-0.16293 0.11723-0.24723 0.26284-0.24723z" color="#000000" fill="url(#linearGradient12298)" stroke-width=".039409" style="-inkscape-stroke:none"/>
   <path d="m25.328 21.515c-0.0011 0.01304-0.0013 0.02621 0 0.03979l0.13798 1.3229c0.01521 0.14579 0.118 0.26458 0.26458 0.26458h12.686c0.14658 0 0.24912-0.11882 0.26458-0.26458l0.14056-1.3229c0.0013-0.01357 0.0011-0.02676 0-0.03979l-0.14056 1.3229c-0.01548 0.14576-0.118 0.26458-0.26458 0.26458h-12.686c-0.14658 0-0.24937-0.1188-0.26458-0.26458z" color="#000000" fill="#f0f0f0" stroke-width=".040902" style="-inkscape-stroke:none"/>
   <g stroke-width=".052917">
    <rect transform="rotate(-4.0717)" x="25.055" y="23.551" width=".26459" height="1.0583" ry=".13229" fill="url(#linearGradient988)"/>
    <path d="m26.672 21.833c-3.7e-5 0.0036-2.62e-4 0.0072 0 0.01085l0.05685 0.79169c0.0052 0.0731 0.06797 0.12768 0.14108 0.12248 0.07152-0.0051 0.12556-0.06535 0.12299-0.13643-3e-3 0.06626-0.05515 0.12126-0.12299 0.12609-0.07311 0.0052-0.13588-0.04988-0.14108-0.12299z" fill="#f0f0f0"/>
    <rect transform="rotate(-4.0717)" x="25.587" y="23.588" width=".26459" height="1.0583" ry=".13229" fill="url(#linearGradient990)"/>
    <path d="m27.206 21.833c-3.7e-5 0.0036-2.62e-4 0.0072 0 0.01085l0.05685 0.79169c0.0052 0.0731 0.06797 0.12768 0.14108 0.12248 0.07152-0.0051 0.12556-0.06535 0.12299-0.13643-3e-3 0.06626-0.05515 0.12126-0.12299 0.12609-0.07311 0.0052-0.13588-0.04988-0.14108-0.12299z" fill="#f0f0f0"/>
    <rect transform="rotate(-4.0717)" x="26.12" y="23.626" width=".26459" height="1.0583" ry=".13229" fill="url(#linearGradient992)"/>
    <path d="m27.74 21.833c-3.7e-5 0.0036-2.62e-4 0.0072 0 0.01085l0.05685 0.79169c0.0052 0.0731 0.06797 0.12768 0.14108 0.12248 0.07152-0.0051 0.12556-0.06535 0.12299-0.13643-3e-3 0.06626-0.05515 0.12126-0.12299 0.12609-0.07311 0.0052-0.13588-0.04988-0.14108-0.12299z" fill="#f0f0f0"/>
    <rect transform="rotate(-4.0717)" x="26.652" y="23.664" width=".26459" height="1.0583" ry=".13229" fill="url(#linearGradient994)"/>
    <path d="m28.273 21.833c-3.7e-5 0.0036-2.62e-4 0.0072 0 0.01085l0.05685 0.79169c0.0052 0.0731 0.06797 0.12768 0.14108 0.12248 0.07152-0.0051 0.12556-0.06535 0.12299-0.13643-3e-3 0.06626-0.05515 0.12126-0.12299 0.12609-0.0731 0.0052-0.13588-0.04988-0.14108-0.12299z" fill="#f0f0f0"/>
    <rect transform="rotate(-4.0717)" x="27.185" y="23.702" width=".26459" height="1.0583" ry=".13229" fill="url(#linearGradient24281)"/>
    <path d="m28.807 21.833c-3.7e-5 0.0036-2.62e-4 0.0072 0 0.01085l0.05685 0.79169c0.0052 0.0731 0.06797 0.12768 0.14108 0.12248 0.07152-0.0051 0.12556-0.06535 0.12299-0.13643-3e-3 0.06626-0.05515 0.12126-0.12299 0.12609-0.0731 0.0052-0.13588-0.04988-0.14108-0.12299z" fill="#f0f0f0"/>
   </g>
   <circle cx="37.307" cy="22.211" r=".52917" fill="url(#linearGradient45238)" stroke-width=".059573"/>
   <path d="m37.836 22.184a0.52917 0.52917 0 0 1-0.52864 0.5116 0.52917 0.52917 0 0 1-0.52814-0.50694 0.52917 0.52917 0 0 0-0.0011 0.02274 0.52917 0.52917 0 0 0 0.52917 0.52917 0.52917 0.52917 0 0 0 0.52917-0.52917 0.52917 0.52917 0 0 0-5.29e-4 -0.02739z" fill="#d9d9d9" stroke-width=".059574"/>
   <ellipse cx="37.307" cy="22.176" rx=".48101" ry=".44675" fill="#33323a" stroke-width=".052188"/>
   <ellipse cx="37.307" cy="22.169" rx=".47252" ry=".43886" fill="url(#linearGradient59949)" stroke-width=".051266"/>
   <ellipse cx="37.307" cy="22.234" rx=".39085" ry=".36302" fill="url(#linearGradient69044)" stroke-width=".042406"/>
   <path d="m37.307 21.871a0.39085 0.36301 0 0 0-0.39069 0.36328 0.39085 0.36301 0 0 0 0.0073 0.06925 0.38746 0.35986 0 0 1-0.0036-0.05064 0.38746 0.35986 0 0 1 0.38706-0.36018 0.38746 0.35986 0 0 1 0.38756 0.36018 0.38746 0.35986 0 0 1-0.0036 0.04754 0.39085 0.36301 0 0 0 0.0072-0.06615 0.39085 0.36301 0 0 0-0.39119-0.36328z" fill="url(#linearGradient106117)" stroke-width=".042408"/>
  </g>
  <path d="m25.33 18.644c-0.01831 0-0.03615 7.68e-4 -0.05426 0.0026-0.01813 0.0018-0.03649 0.0047-0.05426 0.0083-0.01778 0.0036-0.03492 0.0077-0.05219 0.01292-0.01728 0.0052-0.03452 0.01135-0.05116 0.01809-0.01664 0.0067-0.03273 0.01403-0.04857 0.02222-0.01429 0.0074-0.02833 0.0158-0.04186 0.02429l-0.0181 0.18707c0.0024-0.0016 0.0049-3e-3 0.0073-0.0047l0.01085-0.11317c0.01352-0.0085 0.02758-0.01689 0.04186-0.02429 0.01585-0.0082 0.03194-0.01552 0.04857-0.02222 0.01664-0.0067 0.03388-0.01289 0.05116-0.01809s0.03442-0.0093 0.0522-0.01292c0.01778-0.0036 0.03615-0.0065 0.05426-0.0083 0.01812-0.0018 0.03595-0.0026 0.05426-0.0026h13.487c0.01831 0 0.03614 7.94e-4 0.05426 0.0026 0.01812 0.0019 0.03649 0.0048 0.05426 0.0083 0.01778 0.0035 0.03491 0.0077 0.05219 0.01292 0.01728 0.0052 0.03452 0.01139 0.05116 0.01809 0.01661 0.0067 0.03273 0.01402 0.04857 0.02222 0.01429 0.0074 0.02833 0.01579 0.04186 0.02429l0.01085 0.11266c0.0024 0.0016 0.0049 3e-3 0.0072 0.0047l-0.0181-0.18655c-0.01352-0.0085-0.02758-0.01691-0.04186-0.02429-0.01585-0.0082-0.03194-0.01549-0.04857-0.02222-0.01664-0.0067-0.03388-0.0129-0.05116-0.01809-0.01728-0.0052-0.03442-0.0094-0.05219-0.01292-0.01778-0.0035-0.03614-0.0064-0.05426-0.0083-0.01812-0.0018-0.03595-0.0026-0.05426-0.0026z" fill="#2cabfc" stroke-width="1.0188"/>
  <path d="m33.959 11.594c0-0.26212-0.21204-0.47416-0.47269-0.47416s-0.47269 0.21204-0.47269 0.47269c0 0.17817 0.09866 0.33427 0.24444 0.41526 0.01915 0.02209 0.0324 0.06626 0.0324 0.08835v0.0059c-0.01178 0.25918-0.05596 0.46974-0.10455 0.61406-0.06332 0.18554-0.56251 0.58313-0.75836 0.62142-0.08541 0.01767-0.11633-0.0088-0.11633-0.1502v-2.0674c0-0.02209 0.0029-0.05154 0.02797-0.07363 0.12664-0.0854 0.21057-0.22972 0.21057-0.39465 0-0.26212-0.21204-0.47416-0.47269-0.47416s-0.47269 0.21204-0.47269 0.47416c0 0.16639 0.08541 0.31366 0.21498 0.39759l0.0015 0.0015c0.0015 0.0015 0.0029 0.0015 0.0059 0.0029 0.0029 0.0015 0.0059 0.0029 0.0088 0.0059 0.03387 0.02209 0.04859 0.04418 0.04859 0.06185v2.8907c0 0.10308-0.01619 0.18112-0.12369 0.17376-0.1075-0.0074-0.61406-0.34605-0.7569-0.64939-0.06627-0.13989-0.10013-0.27685-0.10013-0.41232v-0.0074c0-0.04565 0-0.16639 0.04712-0.20026 0.11486-0.08688 0.18848-0.22382 0.18848-0.37845 0-0.26212-0.21204-0.47416-0.47269-0.47416s-0.47711 0.2091-0.47711 0.47122c0 0.17523 0.09571 0.32838 0.2356 0.40937 0.03534 0.02209 0.04418 0.0427 0.05596 0.15608 0.01178 0.11339 0.04418 0.36225 0.134 0.58755 0.10749 0.2739 0.30777 0.48005 0.5846 0.66559 0.20026 0.13695 0.37256 0.24444 0.47269 0.38876 0.10013 0.1443 0.1502 0.19879 0.1502 0.39759 0 0.18848-0.0589 0.20616-0.13695 0.26212-0.20763 0.12811-0.34605 0.35637-0.34605 0.61847v0.01621c0 0.40495 0.32838 0.73332 0.73332 0.73332s0.73332-0.32838 0.73332-0.73332c0-0.19584-0.07657-0.37403-0.20173-0.50508-0.04271-0.04712-0.08836-0.08835-0.14136-0.12222-0.11044-0.07657-0.15167-0.16934-0.15167-0.26654v-0.3549c0-0.36961 0.06037-0.60521 0.16345-0.78488 0.10749-0.18701 0.26948-0.3328 0.52128-0.50361 0.27685-0.18554 0.47416-0.3917 0.58313-0.66559 0.08393-0.21204 0.11191-0.45649 0.12664-0.74954 0.0015-0.02651 0.02062-0.0854 0.04859-0.10013 0.12222-0.0854 0.20468-0.22824 0.20468-0.39023z" fill="#0892e7" stroke="url(#linearGradient199209)" stroke-width=".013229"/>
 </g>
</svg>
