<?xml version="1.0" encoding="UTF-8"?>
<svg width="64" height="64" version="1.1" xmlns="http://www.w3.org/2000/svg" xmlns:cc="http://creativecommons.org/ns#" xmlns:dc="http://purl.org/dc/elements/1.1/" xmlns:rdf="http://www.w3.org/1999/02/22-rdf-syntax-ns#" xmlns:xlink="http://www.w3.org/1999/xlink">
 <metadata>
  <rdf:RDF>
   <cc:Work rdf:about="">
    <dc:format>image/svg+xml</dc:format>
    <dc:type rdf:resource="http://purl.org/dc/dcmitype/StillImage"/>
    <dc:title/>
   </cc:Work>
  </rdf:RDF>
 </metadata>
 <defs>
  <filter id="e" x="-.051381" y="-.072094" width="1.1028" height="1.1442" color-interpolation-filters="sRGB">
   <feGaussianBlur stdDeviation="13.101814"/>
  </filter>
  <linearGradient id="linearGradient5953" x1="31.955" x2="31.955" y1="61.868" y2="2.2585" gradientUnits="userSpaceOnUse">
   <stop stop-color="#0073ff" offset="0"/>
   <stop stop-color="#2ab7ff" offset="1"/>
  </linearGradient>
  <linearGradient id="linearGradient5957" x1="31.955" x2="31.955" y1="61.868" y2="2.2585" gradientTransform="matrix(.91667 0 0 .91667 2.6667 2.6667)" gradientUnits="userSpaceOnUse">
   <stop stop-color="#e8e8e8" offset="0"/>
   <stop stop-color="#fff" offset="1"/>
  </linearGradient>
  <style type="text/css"/>
  <style type="text/css"/>
  <linearGradient id="linearGradient6094" x1="511.98" x2="511.98" y1="872.5" y2="154.58" gradientUnits="userSpaceOnUse">
   <stop stop-color="#0074ff" offset="0"/>
   <stop stop-color="#2ab6ff" offset="1"/>
  </linearGradient>
  <filter id="filter6116" x="-.04097" y="-.057942" width="1.0819" height="1.1159" color-interpolation-filters="sRGB">
   <feGaussianBlur stdDeviation="17.479526"/>
  </filter>
 </defs>
 <circle cx="32" cy="32" r="30" fill="url(#linearGradient5953)"/>
 <g transform="matrix(.058825 0 0 .058825 1.6234 14.322)" filter="url(#e)" opacity=".25" stroke-width=".41667">
  <g stroke-width=".41667">
   <g stroke-width=".41667">
    <g transform="translate(973.09 -210.4)" stroke-width=".41667">
     <path d="m-456.7 534.13c-49.553 0-96.331 21.852-128.34 59.948-9.93 11.811-8.402 29.434 3.428 39.363 5.234 4.396 11.605 6.557 17.958 6.557 7.973 0 15.891-3.39 21.405-9.966 21.368-25.429 52.552-40.016 85.544-40.016s64.177 14.587 85.544 40.016c5.533 6.595 13.45 9.966 21.405 9.966 6.353 0 12.724-2.142 17.958-6.557 11.83-9.93 13.357-27.553 3.428-39.363-32.005-38.096-78.783-59.948-128.34-59.948z"/>
     <path d="m-456.71 411.21c-82.545 0-160.49 36.419-213.88 99.926-9.929 11.811-8.402 29.434 3.428 39.363 5.234 4.396 11.605 6.558 17.958 6.558 7.973 0 15.891-3.391 21.405-9.967 42.716-50.838 105.09-79.993 171.09-79.993s128.37 29.155 171.11 79.993c5.533 6.595 13.45 9.967 21.404 9.967 6.353 0 12.724-2.143 17.959-6.558 11.829-9.929 13.356-27.57 3.428-39.363-53.41-63.506-131.35-99.926-213.9-99.926z"/>
     <path d="m-157.26 432.77c-74.739-88.935-183.89-139.92-299.44-139.92s-224.69 50.988-299.44 139.92c-9.93 11.811-8.402 29.434 3.428 39.363 5.234 4.396 11.587 6.558 17.939 6.558 7.973 0 15.891-3.391 21.423-9.967 64.084-76.248 157.64-119.99 256.65-119.99s192.57 43.741 256.65 119.97c5.533 6.576 13.45 9.967 21.424 9.967 6.353 0 12.724-2.143 17.958-6.558 11.811-9.912 13.34-27.553 3.41-39.345z"/>
     <path d="m-502.73 682.98c0 25.406 20.62 46.025 46.025 46.025s46.025-20.619 46.025-46.025c-7.7755-65.326-90.569-48.667-92.049 0z"/>
    </g>
   </g>
  </g>
 </g>
 <g>
  <circle cx="32" cy="32" r="27.5" fill="url(#linearGradient5957)"/>
  <g transform="matrix(.043948 0 0 .043948 9.4991 10.016)" filter="url(#filter6116)" opacity=".3">
   <path d="m183.99 544.56-52.429-52.398c49.372-49.439 106.94-88.212 171-115.35 66.355-28.052 136.81-42.322 209.41-42.322 72.658 0 143.1 14.264 209.46 42.322 64.056 27.141 121.58 65.915 170.97 115.35l-52.444 52.398c-87.603-87.644-204.06-135.91-327.99-135.91-123.91 0-240.36 48.266-327.99 135.91" p-id="4137"/>
   <path d="m316.61 677.14-52.47-52.398c66.243-66.222 154.24-102.69 247.83-102.69 93.619 0 181.64 36.47 247.81 102.69l-52.444 52.398c-52.163-52.209-121.53-80.932-195.36-80.932-73.805 0-143.2 28.723-195.36 80.932" p-id="4138"/>
   <path d="m390.3 750.83 121.68 121.67 121.67-121.67c-31.16-31.109-74.204-50.381-121.67-50.381-47.519 5e-3 -90.542 19.272-121.68 50.381" p-id="4139"/>
   <path d="m52.424 412.97-52.403-52.47c66.452-66.452 143.88-118.67 230.12-155.13 89.272-37.745 184.14-56.893 281.84-56.893s192.54 19.149 281.84 56.888c86.236 36.47 163.69 88.678 230.14 155.13l-52.403 52.475c-59.73-59.735-129.23-106.56-206.6-139.27-80.123-33.884-165.23-51.062-252.98-51.062s-172.83 17.178-252.95 51.067c-77.379 32.707-146.86 79.585-206.6 139.27" p-id="4140"/>
  </g>
  <g transform="matrix(.043948 0 0 .043948 9.4991 9.5649)" fill="url(#linearGradient6094)">
   <path d="m183.99 544.56-52.429-52.398c49.372-49.439 106.94-88.212 171-115.35 66.355-28.052 136.81-42.322 209.41-42.322 72.658 0 143.1 14.264 209.46 42.322 64.056 27.141 121.58 65.915 170.97 115.35l-52.444 52.398c-87.603-87.644-204.06-135.91-327.99-135.91-123.91 0-240.36 48.266-327.99 135.91" p-id="4137"/>
   <path d="m316.61 677.14-52.47-52.398c66.243-66.222 154.24-102.69 247.83-102.69 93.619 0 181.64 36.47 247.81 102.69l-52.444 52.398c-52.163-52.209-121.53-80.932-195.36-80.932-73.805 0-143.2 28.723-195.36 80.932" p-id="4138"/>
   <path d="m390.3 750.83 121.68 121.67 121.67-121.67c-31.16-31.109-74.204-50.381-121.67-50.381-47.519 5e-3 -90.542 19.272-121.68 50.381" p-id="4139"/>
   <path d="m52.424 412.97-52.403-52.47c66.452-66.452 143.88-118.67 230.12-155.13 89.272-37.745 184.14-56.893 281.84-56.893s192.54 19.149 281.84 56.888c86.236 36.47 163.69 88.678 230.14 155.13l-52.403 52.475c-59.73-59.735-129.23-106.56-206.6-139.27-80.123-33.884-165.23-51.062-252.98-51.062s-172.83 17.178-252.95 51.067c-77.379 32.707-146.86 79.585-206.6 139.27" p-id="4140"/>
  </g>
 </g>
</svg>
