<?xml version="1.0" encoding="UTF-8"?>
<svg width="64" height="64" version="1.1" viewBox="0 0 16.933 16.933" xmlns="http://www.w3.org/2000/svg" xmlns:cc="http://creativecommons.org/ns#" xmlns:dc="http://purl.org/dc/elements/1.1/" xmlns:rdf="http://www.w3.org/1999/02/22-rdf-syntax-ns#">
 <defs>
  <linearGradient id="linearGradient1159-3" x1="-184.75" x2="-170.2" y1="-1.2655" y2="-15.817" gradientTransform="matrix(1 0 0 1 185.95 17.009)" gradientUnits="userSpaceOnUse">
   <stop stop-color="#323232" offset="0"/>
   <stop stop-color="#505050" offset="1"/>
  </linearGradient>
 </defs>
 <metadata>
  <rdf:RDF>
   <cc:Work rdf:about="">
    <dc:format>image/svg+xml</dc:format>
    <dc:type rdf:resource="http://purl.org/dc/dcmitype/StillImage"/>
    <dc:title/>
   </cc:Work>
  </rdf:RDF>
 </metadata>
 <rect x="1.1905" y="1.1905" width="14.552" height="14.552" ry="1.2138" fill="url(#linearGradient1159-3)"/>
 <path d="m7.8449 6.2989c-0.93726-0.0020373-1.6917 1.0992-2.073 2.2981-0.43204 1.3585-1.2082 1.8504-1.9354 2.0373l4.8908 2.19e-4 0.30205-0.58933-1.1263-0.01405c-0.99097-0.084621-1.1884-1.0623-1.1308-1.3737 0.095263-0.61092 0.40651-1.5714 1.0725-2.3585zm0.36105 0-0.30205 0.58933 1.1263 0.014052c0.99097 0.084619 1.1884 1.0623 1.1308 1.3737-0.09526 0.61092-0.40643 1.5714-1.0725 2.3585 0.93726 0.00204 1.6917-1.0992 2.073-2.2981 0.43204-1.3585 1.2082-1.8503 1.9354-2.0372z" fill="#fff" fill-opacity=".52107" stroke-width=".48059"/>
</svg>
