<?xml version="1.0" encoding="UTF-8"?>
<svg width="64" height="64" version="1.1" viewBox="0 0 16.933 16.933" xmlns="http://www.w3.org/2000/svg" xmlns:cc="http://creativecommons.org/ns#" xmlns:dc="http://purl.org/dc/elements/1.1/" xmlns:rdf="http://www.w3.org/1999/02/22-rdf-syntax-ns#" xmlns:xlink="http://www.w3.org/1999/xlink">
 <defs>
  <linearGradient id="linearGradient2367" x1="861.29" x2="861.29" y1="509.83" y2="64" gradientTransform="matrix(.022585 0 0 .022585 -19.009 2.9494)" gradientUnits="userSpaceOnUse">
   <stop stop-color="#0a0a0a" offset="0"/>
   <stop stop-color="#5d5d5d" offset="1"/>
  </linearGradient>
  <radialGradient id="radialGradient2369" cx="848.34" cy="284.19" r="174.88" gradientTransform="matrix(.022585 0 0 .022585 -19.427 2.8026)" gradientUnits="userSpaceOnUse">
   <stop stop-color="#9e9e9e" offset="0"/>
   <stop offset=".8114"/>
   <stop stop-color="#121212" offset=".8761"/>
   <stop stop-color="#111" offset=".94956"/>
   <stop offset="1"/>
  </radialGradient>
  <radialGradient id="radialGradient2371" cx="-169.9" cy="486.46" r="141.56" gradientTransform="matrix(.025875 0 0 .030634 4.1541 -4.86)" gradientUnits="userSpaceOnUse">
   <stop stop-color="#151314" offset="0"/>
   <stop stop-color="#1f1d1e" offset=".84674"/>
   <stop stop-color="#9e9e9e" offset="1"/>
  </radialGradient>
  <linearGradient id="linearGradient2373" x1="512" x2="512" y1="247.86" y2="68.881" gradientTransform="matrix(.022585 0 0 .022585 -11.491 5.7683)" gradientUnits="userSpaceOnUse">
   <stop stop-color="#221818" offset="0"/>
   <stop stop-color="#998f91" offset="1"/>
  </linearGradient>
  <radialGradient id="radialGradient2375" cx="818.09" cy="229.63" r="53.309" gradientTransform="matrix(.022585 0 0 .022585 -18.705 3.9997)" gradientUnits="userSpaceOnUse">
   <stop stop-color="#454545" offset="0"/>
   <stop stop-opacity="0" offset="1"/>
  </radialGradient>
  <radialGradient id="radialGradient2377" cx="816.34" cy="231.19" r="85.14" gradientTransform="matrix(.022585 0 0 .022585 -18.705 3.9997)" gradientUnits="userSpaceOnUse">
   <stop stop-color="#fd0000" offset="0"/>
   <stop stop-color="#fd0000" stop-opacity="0" offset="1"/>
  </radialGradient>
  <linearGradient id="linearGradient1065" x1="306.81" x2="306.81" y1="304.23" y2="171.73" gradientTransform="matrix(.022585 0 0 .022585 -7.1579 3.5766)" gradientUnits="userSpaceOnUse" xlink:href="#linearGradient823"/>
  <linearGradient id="linearGradient823">
   <stop stop-color="#fd0001" offset="0"/>
   <stop stop-color="#fd0001" stop-opacity="0" offset="1"/>
  </linearGradient>
  <linearGradient id="linearGradient1067" x1="248.18" x2="275.68" y1="304.73" y2="173.94" gradientTransform="matrix(.022585 0 0 .022585 -6.0109 3.4726)" gradientUnits="userSpaceOnUse" xlink:href="#linearGradient823"/>
  <linearGradient id="linearGradient1069" x1="257.63" x2="219.9" y1="321.97" y2="181.17" gradientTransform="matrix(.022585 0 0 .022585 -6.0109 3.4726)" gradientUnits="userSpaceOnUse" xlink:href="#linearGradient823"/>
  <linearGradient id="linearGradient1071" x1="259.66" x2="241.63" y1="320" y2="176.54" gradientTransform="matrix(.022585 0 0 .022585 -6.0109 3.4726)" gradientUnits="userSpaceOnUse" xlink:href="#linearGradient823"/>
  <linearGradient id="linearGradient1073" x1="254.78" x2="254.64" y1="295.93" y2="172.07" gradientTransform="matrix(.022585 0 0 .022585 -6.0109 3.4726)" gradientUnits="userSpaceOnUse" xlink:href="#linearGradient823"/>
  <linearGradient id="linearGradient1075" x1="306.81" x2="306.81" y1="304.23" y2="171.73" gradientTransform="matrix(.014732 .01712 -.01712 .014732 -.41047 .27792)" gradientUnits="userSpaceOnUse" xlink:href="#linearGradient823"/>
  <linearGradient id="linearGradient1077" x1="248.18" x2="275.68" y1="304.73" y2="173.94" gradientTransform="matrix(.014732 .01712 -.01712 .014732 .41704 1.0794)" gradientUnits="userSpaceOnUse" xlink:href="#linearGradient823"/>
  <linearGradient id="linearGradient1079" x1="257.63" x2="219.9" y1="321.97" y2="181.17" gradientTransform="matrix(.014732 .01712 -.01712 .014732 .41704 1.0794)" gradientUnits="userSpaceOnUse" xlink:href="#linearGradient823"/>
  <linearGradient id="linearGradient1081" x1="259.66" x2="241.63" y1="320" y2="176.54" gradientTransform="matrix(.014732 .01712 -.01712 .014732 .41704 1.0794)" gradientUnits="userSpaceOnUse" xlink:href="#linearGradient823"/>
  <linearGradient id="linearGradient1083" x1="254.78" x2="254.64" y1="295.93" y2="172.07" gradientTransform="matrix(.014732 .01712 -.01712 .014732 .41704 1.0794)" gradientUnits="userSpaceOnUse" xlink:href="#linearGradient823"/>
  <linearGradient id="linearGradient1085" x1="306.81" x2="306.81" y1="304.23" y2="171.73" gradientTransform="matrix(-.0032807 .022346 -.022346 -.0032807 6.3022 3.2433)" gradientUnits="userSpaceOnUse" xlink:href="#linearGradient823"/>
  <linearGradient id="linearGradient1087" x1="248.18" x2="275.68" y1="304.73" y2="173.94" gradientTransform="matrix(-.0032807 .022346 -.022346 -.0032807 6.2382 4.3932)" gradientUnits="userSpaceOnUse" xlink:href="#linearGradient823"/>
  <linearGradient id="linearGradient1089" x1="257.63" x2="219.9" y1="321.97" y2="181.17" gradientTransform="matrix(-.0032807 .022346 -.022346 -.0032807 6.2382 4.3932)" gradientUnits="userSpaceOnUse" xlink:href="#linearGradient823"/>
  <linearGradient id="linearGradient1091" x1="259.66" x2="241.63" y1="320" y2="176.54" gradientTransform="matrix(-.0032807 .022346 -.022346 -.0032807 6.2382 4.3932)" gradientUnits="userSpaceOnUse" xlink:href="#linearGradient823"/>
  <linearGradient id="linearGradient1093" x1="254.78" x2="254.64" y1="295.93" y2="172.07" gradientTransform="matrix(-.0032807 .022346 -.022346 -.0032807 6.2382 4.3932)" gradientUnits="userSpaceOnUse" xlink:href="#linearGradient823"/>
  <linearGradient id="linearGradient1095" x1="306.81" x2="306.81" y1="304.23" y2="171.73" gradientTransform="matrix(-.020086 .010327 -.010327 -.020086 8.4112 11.103)" gradientUnits="userSpaceOnUse" xlink:href="#linearGradient823"/>
  <linearGradient id="linearGradient1097" x1="248.18" x2="275.68" y1="304.73" y2="173.94" gradientTransform="matrix(-.020086 .010327 -.010327 -.020086 7.4392 11.72)" gradientUnits="userSpaceOnUse" xlink:href="#linearGradient823"/>
  <linearGradient id="linearGradient1099" x1="257.63" x2="219.9" y1="321.97" y2="181.17" gradientTransform="matrix(-.020086 .010327 -.010327 -.020086 7.4392 11.72)" gradientUnits="userSpaceOnUse" xlink:href="#linearGradient823"/>
  <linearGradient id="linearGradient1101" x1="259.66" x2="241.63" y1="320" y2="176.54" gradientTransform="matrix(-.020086 .010327 -.010327 -.020086 7.4392 11.72)" gradientUnits="userSpaceOnUse" xlink:href="#linearGradient823"/>
  <linearGradient id="linearGradient1103" x1="254.78" x2="254.64" y1="295.93" y2="172.07" gradientTransform="matrix(-.020086 .010327 -.010327 -.020086 7.4392 11.72)" gradientUnits="userSpaceOnUse" xlink:href="#linearGradient823"/>
  <linearGradient id="linearGradient1105" x1="306.81" x2="306.81" y1="304.23" y2="171.73" gradientTransform="matrix(-.019684 -.011074 .011074 -.019684 3.0151 17.465)" gradientUnits="userSpaceOnUse" xlink:href="#linearGradient823"/>
  <linearGradient id="linearGradient1107" x1="248.18" x2="275.68" y1="304.73" y2="173.94" gradientTransform="matrix(-.019684 -.011074 .011074 -.019684 1.9641 16.993)" gradientUnits="userSpaceOnUse" xlink:href="#linearGradient823"/>
  <linearGradient id="linearGradient1109" x1="257.63" x2="219.9" y1="321.97" y2="181.17" gradientTransform="matrix(-.019684 -.011074 .011074 -.019684 1.9641 16.993)" gradientUnits="userSpaceOnUse" xlink:href="#linearGradient823"/>
  <linearGradient id="linearGradient1111" x1="259.66" x2="241.63" y1="320" y2="176.54" gradientTransform="matrix(-.019684 -.011074 .011074 -.019684 1.9641 16.993)" gradientUnits="userSpaceOnUse" xlink:href="#linearGradient823"/>
  <linearGradient id="linearGradient1113" x1="254.78" x2="254.64" y1="295.93" y2="172.07" gradientTransform="matrix(-.019684 -.011074 .011074 -.019684 1.9641 16.993)" gradientUnits="userSpaceOnUse" xlink:href="#linearGradient823"/>
  <linearGradient id="linearGradient2379" x1="306.81" x2="306.81" y1="304.23" y2="171.73" gradientTransform="matrix(-.0025764 -.022438 .022438 -.0025764 -4.9441 16.669)" gradientUnits="userSpaceOnUse" xlink:href="#linearGradient823"/>
  <linearGradient id="linearGradient2381" x1="248.18" x2="275.68" y1="304.73" y2="173.94" gradientTransform="matrix(-.0025764 -.022438 .022438 -.0025764 -5.1783 15.542)" gradientUnits="userSpaceOnUse" xlink:href="#linearGradient823"/>
  <linearGradient id="linearGradient2383" x1="257.63" x2="219.9" y1="321.97" y2="181.17" gradientTransform="matrix(-.0025764 -.022438 .022438 -.0025764 -5.1783 15.542)" gradientUnits="userSpaceOnUse" xlink:href="#linearGradient823"/>
  <linearGradient id="linearGradient2385" x1="259.66" x2="241.63" y1="320" y2="176.54" gradientTransform="matrix(-.0025764 -.022438 .022438 -.0025764 -5.1783 15.542)" gradientUnits="userSpaceOnUse" xlink:href="#linearGradient823"/>
  <linearGradient id="linearGradient2387" x1="254.78" x2="254.64" y1="295.93" y2="172.07" gradientTransform="matrix(-.0025764 -.022438 .022438 -.0025764 -5.1783 15.542)" gradientUnits="userSpaceOnUse" xlink:href="#linearGradient823"/>
  <linearGradient id="linearGradient2439" x1="336.17" x2="196.73" y1="318.66" y2="205.03" gradientTransform="matrix(.022585 0 0 .022585 -6.0109 3.4726)" gradientUnits="userSpaceOnUse" xlink:href="#linearGradient823"/>
  <linearGradient id="linearGradient2441" x1="282.79" x2="172.64" y1="285.61" y2="227.58" gradientTransform="matrix(.022585 0 0 .022585 -6.0109 3.4726)" gradientUnits="userSpaceOnUse" xlink:href="#linearGradient823"/>
  <linearGradient id="linearGradient2443" x1="161.46" x2="161.46" y1="206.72" y2="308.55" gradientTransform="matrix(.022585 0 0 .022585 -3.6277 3.4523)" gradientUnits="userSpaceOnUse">
   <stop stop-color="#534a4a" offset="0"/>
   <stop stop-color="#746b6b" offset="1"/>
  </linearGradient>
  <linearGradient id="linearGradient2445" x1="707.25" x2="556.47" y1="649.22" y2="306.44" gradientTransform="matrix(.022585 0 0 .022585 -14.171 -1.4973)" gradientUnits="userSpaceOnUse">
   <stop stop-color="#61615e" offset="0"/>
   <stop stop-color="#343432" offset="1"/>
  </linearGradient>
  <linearGradient id="linearGradient2447" x1="501.69" x2="598.51" y1="310.24" y2="277.2" gradientTransform="matrix(.022585 0 0 .022585 -14.171 -1.4973)" gradientUnits="userSpaceOnUse" xlink:href="#linearGradient1245"/>
  <linearGradient id="linearGradient1245">
   <stop stop-color="#b5b5af" stop-opacity="0" offset="0"/>
   <stop stop-color="#364544" offset=".35643"/>
   <stop stop-color="#de0e0c" offset=".51511"/>
   <stop stop-color="#434846" offset=".7452"/>
   <stop stop-color="#b5b5af" stop-opacity="0" offset="1"/>
  </linearGradient>
  <linearGradient id="linearGradient2449" x1="501.69" x2="598.51" y1="310.24" y2="277.2" gradientTransform="matrix(-.014235 .017535 -.017535 -.014235 16.818 5.1827)" gradientUnits="userSpaceOnUse" xlink:href="#linearGradient1245"/>
  <linearGradient id="linearGradient2451" x1="817.9" x2="817.9" y1="502.24" y2="46.644" gradientTransform="matrix(.022585 0 0 .022585 -19.009 2.9494)" gradientUnits="userSpaceOnUse">
   <stop stop-color="#060606" offset="0"/>
   <stop stop-color="#cdcdcd" offset="1"/>
  </linearGradient>
 </defs>
 <metadata>
  <rdf:RDF>
   <cc:Work rdf:about="">
    <dc:format>image/svg+xml</dc:format>
    <dc:type rdf:resource="http://purl.org/dc/dcmitype/StillImage"/>
   </cc:Work>
  </rdf:RDF>
 </metadata>
 <g transform="translate(-2.6458 -2.9105)" stroke-width=".022585">
  <g transform="matrix(1.4998 0 0 1.4998 11.513 -2.4537)">
   <circle cx="-.26687" cy="9.2214" r="5.2921" fill="url(#linearGradient2367)"/>
   <circle cx="-.26687" cy="9.2214" r="3.9498" fill="url(#radialGradient2369)"/>
   <circle cx="-.26687" cy="9.2214" r="3.1973" fill="url(#radialGradient2371)"/>
   <circle cx="-.22727" cy="9.1864" r="2.1621" fill="url(#linearGradient2373)"/>
   <path d="m-0.22727 7.024a2.1621 2.1621 0 0 0-2.1621 2.1621 2.1621 2.1621 0 0 0 0.00176 0.050201 2.1621 2.1621 0 0 1 2.1603-2.1265 2.1621 2.1621 0 0 1 2.1603 2.1119 2.1621 2.1621 0 0 0 0.0018-0.035551 2.1621 2.1621 0 0 0-2.1621-2.1621z" fill="#fff" fill-opacity=".55"/>
   <circle cx="-.22727" cy="9.1864" r="1.204" fill="url(#radialGradient2375)"/>
   <circle cx="-.26687" cy="9.2214" r="1.9229" fill="url(#radialGradient2377)" opacity=".207"/>
   <path d="m-0.23247 9.4194v-2.1395l0.18623-0.012993z" fill="url(#linearGradient1065)" opacity=".336"/>
   <path d="m-0.20747 9.1724c0-0.027561 0.392-2.4498 0.392-2.4498l0.23886 0.058188z" fill="url(#linearGradient1067)" opacity=".37"/>
   <path d="m-0.28397 9.2234-0.89425-1.5067 0.46245-0.19293z" fill="url(#linearGradient1069)" opacity=".537"/>
   <path d="m-0.71588 7.5243 0.43182 1.6996-0.13475-1.813z" fill="url(#linearGradient1071)" opacity=".346"/>
   <path d="m-0.41887 7.4109 0.13475 1.813 0.0245-1.865z" fill="url(#linearGradient1073)" opacity=".238"/>
   <path d="m-0.32197 9.3384 1.6217-1.3955 0.13132 0.13269z" fill="url(#linearGradient1075)" opacity=".336"/>
   <path d="m-0.11817 9.1964c0.020891-0.01798 2.1127-1.3008 2.1127-1.3008l0.1117 0.21901z" fill="url(#linearGradient1077)" opacity=".37"/>
   <path d="m-0.20747 9.1714 0.55884-1.6606 0.44788 0.22468z" fill="url(#linearGradient1079)" opacity=".537"/>
   <path d="m0.79905 7.7359-1.0067 1.4359 1.2863-1.2847z" fill="url(#linearGradient1081)" opacity=".346"/>
   <path d="m1.0791 7.887-1.2863 1.2847 1.4297-1.1979z" fill="url(#linearGradient1083)" opacity=".238"/>
   <path d="m-0.48477 9.2464 2.1168 0.31078-0.0142 0.18614z" fill="url(#linearGradient1085)" opacity=".336"/>
   <path d="m-0.24377 9.3074c0.027268 4e-3 2.3669 0.7437 2.3669 0.7437l-0.092262 0.22788z" fill="url(#linearGradient1087)" opacity=".37"/>
   <path d="m-0.28397 9.2244 1.6206-0.66589 0.12372 0.48557z" fill="url(#linearGradient1089)" opacity=".537"/>
   <path d="m1.4601 9.0434-1.7443 0.18035 1.8133 0.13002z" fill="url(#linearGradient1091)" opacity=".346"/>
   <path d="m1.5291 9.3534-1.8133-0.13002 1.8417 0.29515z" fill="url(#linearGradient1093)" opacity=".238"/>
   <path d="m-0.41907 9.0744 0.9783 1.9027-0.15968 0.09671z" fill="url(#linearGradient1095)" opacity=".336"/>
   <path d="m-0.32827 9.3054c0.012602 0.02451 0.7716 2.358 0.7716 2.358l-0.23904 0.05747z" fill="url(#linearGradient1097)" opacity=".37"/>
   <path d="m-0.28397 9.2244 1.4842 0.93111-0.32305 0.38305z" fill="url(#linearGradient1099)" opacity=".537"/>
   <path d="m0.87705 10.538-1.1612-1.3141 0.94884 1.5507z" fill="url(#linearGradient1101)" opacity=".346"/>
   <path d="m0.66505 10.775-0.94884-1.5507 0.83101 1.6698z" fill="url(#linearGradient1103)" opacity=".238"/>
   <path d="m-0.15637 8.9764-1.049 1.8647-0.16868-0.07999z" fill="url(#linearGradient1105)" opacity=".336"/>
   <path d="m-0.29947 9.1794c-0.013513 0.02402-1.5428 1.943-1.5428 1.943l-0.17965-0.16783z" fill="url(#linearGradient1107)" opacity=".37"/>
   <path d="m-0.20727 9.1724 0.040631 1.7516-0.49764-0.05858z" fill="url(#linearGradient1109)" opacity=".537"/>
   <path d="m-0.66418 10.865 0.45699-1.6931-0.77146 1.6462z" fill="url(#linearGradient1111)" opacity=".346"/>
   <path d="m-0.97868 10.818 0.77146-1.6462-0.93578 1.6135z" fill="url(#linearGradient1113)" opacity=".238"/>
   <path d="m0.070037 9.1224-2.1255 0.24405-0.034152-0.18353z" fill="url(#linearGradient2379)" opacity=".336"/>
   <path d="m-0.17817 9.1254c-0.027382 0.0031-2.4786-0.10998-2.4786-0.10998l0.030561-0.24394z" fill="url(#linearGradient2381)" opacity=".37"/>
   <path d="m-0.11787 9.1954-1.3949 1.0603-0.24442-0.43742z" fill="url(#linearGradient2383)" opacity=".537"/>
   <path d="m-1.7571 9.8184 1.6393-0.62288-1.7858 0.34068z" fill="url(#linearGradient2385)" opacity=".346"/>
   <path d="m-1.9036 9.5364 1.7858-0.34068-1.8556 0.1884z" fill="url(#linearGradient2387)" opacity=".238"/>
   <path d="m-0.29957 9.1794-0.9124-1.3933-0.69729 0.64532z" fill="url(#linearGradient2439)"/>
   <path d="m-0.34157 9.1634-1.5851-0.56304v0.077957z" fill="url(#linearGradient2441)"/>
   <circle cx="-.23457" cy="9.2394" r=".26202" fill="#e31c1b"/>
   <circle cx="-.23457" cy="9.2394" r=".099613" fill="#fff"/>
   <path d="m-0.23457 8.8294c-0.22626 0-0.41012 0.18385-0.41012 0.41012 0 0.22626 0.18385 0.41012 0.41012 0.41012 0.22626 0 0.41012-0.18386 0.41012-0.41012s-0.18385-0.41012-0.41012-0.41012zm0 0.040631c0.20429 0 0.36944 0.1652 0.36944 0.36949s-0.16515 0.36944-0.36944 0.36944-0.36944-0.16515-0.36944-0.36944 0.16515-0.36949 0.36944-0.36949z" color="#000000" color-rendering="auto" dominant-baseline="auto" fill="#fff" image-rendering="auto" opacity=".485" shape-rendering="auto" solid-color="#000000" style="font-feature-settings:normal;font-variant-alternates:normal;font-variant-caps:normal;font-variant-ligatures:normal;font-variant-numeric:normal;font-variant-position:normal;isolation:auto;mix-blend-mode:normal;shape-padding:0;text-decoration-color:#000000;text-decoration-line:none;text-decoration-style:solid;text-indent:0;text-orientation:mixed;text-transform:none;white-space:normal"/>
   <path d="m-0.26687 7.9263a1.295 1.295 0 0 0-1.2949 1.295 1.295 1.295 0 0 0 1.295 1.295 1.295 1.295 0 0 0 1.2949-1.295 1.295 1.295 0 0 0-1.295-1.295zm0 0.15594a1.139 1.139 0 0 1 1.1391 1.139 1.139 1.139 0 0 1-1.139 1.139 1.139 1.139 0 0 1-1.1391-1.139 1.139 1.139 0 0 1 1.139-1.139z" fill="url(#linearGradient2443)"/>
   <path d="m-0.26687 8.0584a1.1629 1.1629 0 0 0-1.1628 1.1628 1.1629 1.1629 0 0 0 1.1629 1.1628 1.1629 1.1629 0 0 0 1.1628-1.1628 1.1629 1.1629 0 0 0-1.1629-1.1628zm0 0.023822a1.139 1.139 0 0 1 1.1391 1.139 1.139 1.139 0 0 1-1.139 1.139 1.139 1.139 0 0 1-1.1391-1.139 1.139 1.139 0 0 1 1.139-1.139z" fill="#fff" fill-opacity=".47727"/>
   <path d="m-0.26687 4.7501a4.4713 4.4713 0 0 0-4.4713 4.4713 4.4713 4.4713 0 0 0 4.4713 4.4711 4.4713 4.4713 0 0 0 4.4711-4.4711 4.4713 4.4713 0 0 0-4.4711-4.4713zm0 0.61865a3.8527 3.8527 0 0 1 3.8527 3.8527 3.8527 3.8527 0 0 1-3.8527 3.8527 3.8527 3.8527 0 0 1-3.8527-3.8527 3.8527 3.8527 0 0 1 3.8527-3.8527z" fill="url(#linearGradient2445)"/>
   <path d="m3.2041 12.039a4.4713 4.4713 0 0 0-0.65354-6.2895 4.4713 4.4713 0 0 0-6.2895 0.65359 4.4713 4.4713 0 0 0 0.65354 6.2895 4.4713 4.4713 0 0 0 6.2895-0.65352zm-0.071341-0.05791a4.3794 4.3794 0 0 1-6.1601 0.64008 4.3794 4.3794 0 0 1-0.64015-6.1601 4.3794 4.3794 0 0 1 6.1603-0.64013 4.3794 4.3794 0 0 1 0.64013 6.1603z" fill="#999997"/>
   <path d="m-0.26687 4.7501a4.4713 4.4713 0 0 0-4.4713 4.4713 4.4713 4.4713 0 0 0 4.4713 4.4711 4.4713 4.4713 0 0 0 4.4711-4.4711 4.4713 4.4713 0 0 0-4.4711-4.4713zm0 0.091889a4.3794 4.3794 0 0 1 4.3794 4.3794 4.3794 4.3794 0 0 1-4.3794 4.3794 4.3794 4.3794 0 0 1-4.3794-4.3794 4.3794 4.3794 0 0 1 4.3794-4.3794z" fill="url(#linearGradient2447)"/>
   <path d="m3.2041 12.039a4.4713 4.4713 0 0 0-0.65354-6.2895 4.4713 4.4713 0 0 0-6.2895 0.65359 4.4713 4.4713 0 0 0 0.65354 6.2895 4.4713 4.4713 0 0 0 6.2895-0.65352zm-0.071341-0.05791a4.3794 4.3794 0 0 1-6.1601 0.64008 4.3794 4.3794 0 0 1-0.64015-6.1601 4.3794 4.3794 0 0 1 6.1603-0.64013 4.3794 4.3794 0 0 1 0.64013 6.1603z" fill="url(#linearGradient2449)"/>
   <path d="m-0.26687 3.9294a5.2921 5.2921 0 0 0-5.2919 5.2919 5.2921 5.2921 0 0 0 5.2919 5.2919 5.2921 5.2921 0 0 0 5.2919-5.2919 5.2921 5.2921 0 0 0-5.2919-5.2919zm0 0.23274a5.0592 5.0592 0 0 1 5.0592 5.0592 5.0592 5.0592 0 0 1-5.0592 5.0592 5.0592 5.0592 0 0 1-5.0592-5.0592 5.0592 5.0592 0 0 1 5.0592-5.0592z" fill="url(#linearGradient2451)"/>
  </g>
  <g transform="matrix(1.4998 0 0 1.4998 11.513 -2.4537)" fill="#fff">
   <ellipse cx="-.30797" cy="7.4277" rx="2.9019" ry="1.9056" fill-opacity=".12385"/>
   <ellipse cx="-.17807" cy="6.5615" rx="1.7843" ry=".86622" fill-opacity=".12385"/>
   <ellipse cx="-.18667" cy="11.663" rx="1.5678" ry=".6843" fill-opacity=".077982"/>
   <ellipse cx="-.10017" cy="12.832" rx="1.1694" ry=".43311" fill-opacity=".068807"/>
   <path d="m1.3571 11.148a1.9143 1.2387 0 0 1-1.5091 0.47898 1.9143 1.2387 0 0 1-1.4822-0.45599 1.5938 1.2387 0 0 0 1.4909 0.80246 1.5938 1.2387 0 0 0 1.5005-0.82545z" fill-opacity=".1789"/>
  </g>
 </g>
</svg>
