<?xml version="1.0" encoding="UTF-8" standalone="no"?>
<svg
   xmlns:dc="http://purl.org/dc/elements/1.1/"
   xmlns:cc="http://creativecommons.org/ns#"
   xmlns:rdf="http://www.w3.org/1999/02/22-rdf-syntax-ns#"
   xmlns:svg="http://www.w3.org/2000/svg"
   xmlns="http://www.w3.org/2000/svg"
   xmlns:xlink="http://www.w3.org/1999/xlink"
   xmlns:sodipodi="http://sodipodi.sourceforge.net/DTD/sodipodi-0.dtd"
   xmlns:inkscape="http://www.inkscape.org/namespaces/inkscape"
   width="64"
   height="64"
   viewBox="0 0 16.933333 16.933333"
   version="1.1"
   id="svg8"
   inkscape:version="1.0.2 (e86c870879, 2021-01-15)"
   sodipodi:docname="4kvideodownloader.svg">
  <defs
     id="defs2">
    <linearGradient
       id="c"
       x1="24.535"
       x2="24.535"
       y1="7.0931001"
       y2="44.483002"
       gradientTransform="matrix(1.4364,0,0,1.4364,68.203891,-4.714)"
       gradientUnits="userSpaceOnUse">
      <stop
         stop-color="#76dd38"
         offset="0"
         id="stop1005" />
      <stop
         stop-color="#42c440"
         offset=".48433"
         id="stop1007" />
      <stop
         stop-color="#14ab4b"
         offset="1"
         id="stop1009" />
    </linearGradient>
    <linearGradient
       inkscape:collect="always"
       xlink:href="#c"
       id="linearGradient860"
       x1="8.6304979"
       y1="3.1129715"
       x2="8.6304979"
       y2="14.243112"
       gradientUnits="userSpaceOnUse" />
    <filter
       id="filter3001"
       x="-0.029503001"
       y="-0.046935"
       width="1.059"
       height="1.0939"
       color-interpolation-filters="sRGB">
      <feGaussianBlur
         stdDeviation="0.23473412"
         id="feGaussianBlur148" />
    </filter>
    <linearGradient
       id="linearGradient2349"
       x1="33.337002"
       x2="31.709999"
       y1="42.984001"
       y2="26.577"
       gradientTransform="matrix(0.26458333,0,0,0.26458333,-18.43605,-1.7095443)"
       gradientUnits="userSpaceOnUse">
      <stop
         stop-color="#aaf8ad"
         offset="0"
         id="stop151" />
      <stop
         stop-color="#fff"
         offset="1"
         id="stop153" />
    </linearGradient>
  </defs>
  <sodipodi:namedview
     id="base"
     pagecolor="#ffffff"
     bordercolor="#666666"
     borderopacity="1.0"
     inkscape:pageopacity="0.0"
     inkscape:pageshadow="2"
     inkscape:zoom="5.6"
     inkscape:cx="29.359976"
     inkscape:cy="40.426217"
     inkscape:document-units="mm"
     inkscape:current-layer="layer1"
     inkscape:document-rotation="0"
     showgrid="false"
     units="px"
     inkscape:window-width="1920"
     inkscape:window-height="992"
     inkscape:window-x="0"
     inkscape:window-y="0"
     inkscape:window-maximized="1" />
  <metadata
     id="metadata5">
    <rdf:RDF>
      <cc:Work
         rdf:about="">
        <dc:format>image/svg+xml</dc:format>
        <dc:type
           rdf:resource="http://purl.org/dc/dcmitype/StillImage" />
        <dc:title></dc:title>
      </cc:Work>
    </rdf:RDF>
  </metadata>
  <g
     inkscape:label="图层 1"
     inkscape:groupmode="layer"
     id="layer1">
    <circle
       style="opacity:1;fill:url(#linearGradient860);stroke-width:0.0779227;stroke-linecap:round;stroke-linejoin:round;paint-order:stroke fill markers;fill-opacity:1"
       id="path833"
       cx="8.4666662"
       cy="8.4666662"
       r="7.9375" />
    <g
       id="g961"
       transform="translate(18.43579,1.7103389)">
      <path
         transform="matrix(0.51125437,0,0,0.49471791,-211.91002,-262.36368)"
         d="m 391.84,540.91 c -0.42081,-0.32855 -0.94932,-0.52413 -1.5233,-0.52413 -1.3513,0 -2.4509,1.0843 -2.4854,2.4351 -1.3949,0.52618 -2.3876,1.8796 -2.3876,3.4663 0,1.8743 1.3854,3.4232 3.1824,3.6674 v 0.0335 h 12.73 v -0.006 c 1.7749,-0.10355 3.1824,-1.584 3.1824,-3.395 0,-1.7466 -1.3091,-3.1856 -2.9943,-3.3788 0.007,-0.10647 0.0108,-0.21389 0.0108,-0.32212 0,-2.7068 -2.2708,-4.9012 -5.072,-4.9012 -2.0734,0 -3.8563,1.2023 -4.6427,2.9247 z"
         fill="#14b432"
         filter="url(#filter3001)"
         stroke-width="0.73333"
         id="path543" />
      <path
         d="m -11.530744,5.2247839 c -0.208502,-0.1636633 -0.470376,-0.2610908 -0.754777,-0.2610908 -0.669554,0 -1.214358,0.5401469 -1.231476,1.2130352 -0.691145,0.2621121 -1.183005,0.9363075 -1.183005,1.7266972 0,0.9336617 0.686435,1.7052396 1.576811,1.826895 v 0.016687 h 6.3074016 v -0.00299 c 0.8794221,-0.051583 1.5768109,-0.7890669 1.5768109,-1.6911902 0,-0.8700558 -0.6486261,-1.5868914 -1.4836246,-1.6831204 0.00347,-0.053038 0.00535,-0.1065477 0.00535,-0.1604618 0,-1.3483696 -1.1251406,-2.4414956 -2.5130654,-2.4414956 -1.0273245,0 -1.9107155,0.5989108 -2.3003675,1.4569281 z"
         fill="url(#linearGradient2349)"
         stroke-width="0.364331"
         id="path545"
         style="fill:url(#linearGradient2349)" />
    </g>
  </g>
</svg>
