<?xml version="1.0" encoding="UTF-8" standalone="no"?>
<svg
   xmlns:dc="http://purl.org/dc/elements/1.1/"
   xmlns:cc="http://creativecommons.org/ns#"
   xmlns:rdf="http://www.w3.org/1999/02/22-rdf-syntax-ns#"
   xmlns:svg="http://www.w3.org/2000/svg"
   xmlns="http://www.w3.org/2000/svg"
   xmlns:xlink="http://www.w3.org/1999/xlink"
   xmlns:sodipodi="http://sodipodi.sourceforge.net/DTD/sodipodi-0.dtd"
   xmlns:inkscape="http://www.inkscape.org/namespaces/inkscape"
   width="64"
   height="64"
   viewBox="0 0 16.933333 16.933333"
   version="1.1"
   id="svg8"
   inkscape:version="1.0.2 (e86c870879, 2021-01-15)"
   sodipodi:docname="绘图.svg">
  <defs
     id="defs2">
    <linearGradient
       id="c"
       x1="24.535"
       x2="24.535"
       y1="7.0931001"
       y2="44.483002"
       gradientTransform="matrix(1.4364,0,0,1.4364,68.203891,-4.714)"
       gradientUnits="userSpaceOnUse">
      <stop
         stop-color="#76dd38"
         offset="0"
         id="stop1005" />
      <stop
         stop-color="#42c440"
         offset=".48433"
         id="stop1007" />
      <stop
         stop-color="#14ab4b"
         offset="1"
         id="stop1009" />
    </linearGradient>
    <linearGradient
       inkscape:collect="always"
       xlink:href="#c"
       id="linearGradient860"
       x1="8.6304979"
       y1="3.1129715"
       x2="8.6304979"
       y2="14.243112"
       gradientUnits="userSpaceOnUse" />
    <filter
       inkscape:collect="always"
       style="color-interpolation-filters:sRGB"
       id="filter1895"
       x="-0.034020007"
       width="1.06804"
       y="-0.045359991"
       height="1.0907201">
      <feGaussianBlur
         inkscape:collect="always"
         stdDeviation="0.50686963"
         id="feGaussianBlur1897" />
    </filter>
    <linearGradient
       inkscape:collect="always"
       xlink:href="#linearGradient1989"
       id="linearGradient1991"
       x1="69.481529"
       y1="28.588646"
       x2="71.495293"
       y2="45.354927"
       gradientUnits="userSpaceOnUse"
       gradientTransform="matrix(0.26458333,0,0,0.26458333,-8.5604403,1.5537328)" />
    <linearGradient
       inkscape:collect="always"
       id="linearGradient1989">
      <stop
         style="stop-color:#ffffff;stop-opacity:1"
         offset="0"
         id="stop1985" />
      <stop
         style="stop-color:#aaf8ad;stop-opacity:1"
         offset="1"
         id="stop1987" />
    </linearGradient>
  </defs>
  <sodipodi:namedview
     id="base"
     pagecolor="#ffffff"
     bordercolor="#666666"
     borderopacity="1.0"
     inkscape:pageopacity="0.0"
     inkscape:pageshadow="2"
     inkscape:zoom="5.6"
     inkscape:cx="29.359976"
     inkscape:cy="40.426217"
     inkscape:document-units="mm"
     inkscape:current-layer="layer1"
     inkscape:document-rotation="0"
     showgrid="false"
     units="px"
     inkscape:window-width="1920"
     inkscape:window-height="992"
     inkscape:window-x="0"
     inkscape:window-y="0"
     inkscape:window-maximized="1" />
  <metadata
     id="metadata5">
    <rdf:RDF>
      <cc:Work
         rdf:about="">
        <dc:format>image/svg+xml</dc:format>
        <dc:type
           rdf:resource="http://purl.org/dc/dcmitype/StillImage" />
        <dc:title></dc:title>
      </cc:Work>
    </rdf:RDF>
  </metadata>
  <g
     inkscape:label="图层 1"
     inkscape:groupmode="layer"
     id="layer1">
    <circle
       style="opacity:1;fill:url(#linearGradient860);stroke-width:0.0779227;stroke-linecap:round;stroke-linejoin:round;paint-order:stroke fill markers;fill-opacity:1"
       id="path833"
       cx="8.4666662"
       cy="8.4666662"
       r="7.9375" />
    <g
       id="g906"
       transform="translate(-2.0694197,-1.4552082)">
      <path
         style="fill:#14b432;fill-opacity:1;stroke:none;stroke-width:0.48083;stroke-linecap:round;stroke-linejoin:round;stroke-miterlimit:4;stroke-dasharray:none;stroke-opacity:1;filter:url(#filter1895)"
         d="m 31.999999,18.590748 a 11.98272,11.98272 0 0 0 -11.68455,9.36868 c -3.60066,1.153713 -6.194446,4.516817 -6.194446,8.510322 0,4.952478 3.987016,8.939502 8.939496,8.939502 h 17.87901 c 4.95247,0 8.939488,-3.987024 8.939488,-8.939502 0,-3.995606 -2.59647,-7.36021 -6.200078,-8.512201 a 11.98272,11.98272 0 0 0 -11.67892,-9.366801 z m 8.48121,9.815702 v 11.752171 l -4.03071,-2.327144 c -0.0163,0.723247 -0.60062,1.301623 -1.32792,1.301623 h -10.27117 c -0.73761,0 -1.33168,-0.594064 -1.33168,-1.331675 v -7.037779 c 0,-0.737611 0.59407,-1.331675 1.33168,-1.331675 h 10.27117 c 0.7273,0 1.31164,0.578376 1.32792,1.301623 z"
         id="path1893"
         inkscape:connector-curvature="0"
         transform="matrix(0.29005691,0,0,0.27052145,1.2542652,1.2651882)" />
      <path
         id="rect1981"
         style="fill:url(#linearGradient1991);fill-opacity:1;stroke:none;stroke-width:0.529167;stroke-linecap:round;stroke-linejoin:round;paint-order:stroke fill markers"
         d="M 10.536086,6.4722956 A 3.170428,3.170428 0 0 0 7.4448017,8.9512139 C 6.4921271,9.2564671 5.8056254,10.146658 5.8056254,11.203273 c 0,1.310343 1.0548866,2.36523 2.3652303,2.36523 h 4.7304593 c 1.310343,0 2.365232,-1.054887 2.365232,-2.36523 0,-1.057171 -0.686755,-1.9477782 -1.64021,-2.2525758 A 3.170428,3.170428 0 0 0 10.536086,6.4722956 Z m 2.244306,2.5972574 v 3.109371 l -1.0666,-0.615466 c -0.0043,0.191359 -0.158968,0.344165 -0.3514,0.344165 H 8.6447284 c -0.1951593,0 -0.3524332,-0.157274 -0.3524332,-0.352434 V 9.6932876 c 0,-0.1951596 0.1572739,-0.3524332 0.3524332,-0.3524332 h 2.7176636 c 0.192432,0 0.347092,0.1533226 0.3514,0.3446817 z" />
    </g>
  </g>
</svg>
