<?xml version="1.0" encoding="UTF-8" standalone="no"?>
<svg
   xmlns:dc="http://purl.org/dc/elements/1.1/"
   xmlns:cc="http://creativecommons.org/ns#"
   xmlns:rdf="http://www.w3.org/1999/02/22-rdf-syntax-ns#"
   xmlns:svg="http://www.w3.org/2000/svg"
   xmlns="http://www.w3.org/2000/svg"
   xmlns:xlink="http://www.w3.org/1999/xlink"
   xmlns:sodipodi="http://sodipodi.sourceforge.net/DTD/sodipodi-0.dtd"
   xmlns:inkscape="http://www.inkscape.org/namespaces/inkscape"
   width="64"
   height="64"
   viewBox="0 0 16.933333 16.933333"
   version="1.1"
   id="svg8"
   inkscape:version="1.0.2 (e86c870879, 2021-01-15)"
   sodipodi:docname="5C12_World_of_Warcraft_Launcher.0.svg">
  <defs
     id="defs2">
    <linearGradient
       inkscape:collect="always"
       id="linearGradient4869">
      <stop
         style="stop-color:#ffa000;stop-opacity:1"
         offset="0"
         id="stop4865" />
      <stop
         style="stop-color:#af4b00;stop-opacity:1"
         offset="1"
         id="stop4867" />
    </linearGradient>
    <linearGradient
       inkscape:collect="always"
       id="linearGradient2236">
      <stop
         style="stop-color:#ff9100;stop-opacity:1"
         offset="0"
         id="stop2232" />
      <stop
         style="stop-color:#ff6e05;stop-opacity:1"
         offset="1"
         id="stop2234" />
    </linearGradient>
    <linearGradient
       id="c"
       x1="24.535"
       x2="24.535"
       y1="7.0931001"
       y2="44.483002"
       gradientTransform="matrix(1.4364,0,0,1.4364,68.203891,-4.714)"
       gradientUnits="userSpaceOnUse">
      <stop
         stop-color="#76dd38"
         offset="0"
         id="stop1005" />
      <stop
         stop-color="#42c440"
         offset=".48433"
         id="stop1007" />
      <stop
         stop-color="#14ab4b"
         offset="1"
         id="stop1009" />
    </linearGradient>
    <filter
       id="filter3001"
       x="-0.029503001"
       y="-0.046935"
       width="1.059"
       height="1.0939"
       color-interpolation-filters="sRGB">
      <feGaussianBlur
         stdDeviation="0.23473412"
         id="feGaussianBlur148" />
    </filter>
    <linearGradient
       id="linearGradient2349"
       x1="33.337002"
       x2="31.709999"
       y1="42.984001"
       y2="26.577"
       gradientTransform="matrix(0.26458333,0,0,0.26458333,-18.43605,-1.7095443)"
       gradientUnits="userSpaceOnUse">
      <stop
         stop-color="#aaf8ad"
         offset="0"
         id="stop151" />
      <stop
         stop-color="#fff"
         offset="1"
         id="stop153" />
    </linearGradient>
    <linearGradient
       id="linearGradient938"
       x1="80.368"
       x2="82.141"
       y1="13.177"
       y2="14.704"
       gradientTransform="matrix(0.96155893,0,0,0.96155893,-65.276371,-1.691669)"
       gradientUnits="userSpaceOnUse">
      <stop
         stop-color="#fafafa"
         offset="0"
         id="stop2079"
         style="stop-color:#ffa000;stop-opacity:1" />
      <stop
         stop-color="#90a0b3"
         offset="1"
         id="stop2081"
         style="stop-color:#af4b00;stop-opacity:1" />
    </linearGradient>
    <filter
       id="filter1066"
       x="-.063923"
       y="-.056531"
       width="1.1278"
       height="1.1131"
       color-interpolation-filters="sRGB">
      <feGaussianBlur
         stdDeviation="0.22705935"
         id="feGaussianBlur2084" />
    </filter>
    <filter
       id="filter1100"
       x="-.12197"
       y="-.11848"
       width="1.2439"
       height="1.237"
       color-interpolation-filters="sRGB">
      <feGaussianBlur
         stdDeviation="0.47586465"
         id="feGaussianBlur2087" />
    </filter>
    <linearGradient
       id="linearGradient1206"
       x1="54.456"
       x2="54.456"
       y1="6.4548"
       y2="11.072"
       gradientTransform="matrix(0.96155893,0,0,0.96155893,-44.354483,-5.7547362)"
       gradientUnits="userSpaceOnUse">
      <stop
         stop-color="#ffd700"
         offset="0"
         id="stop2090" />
      <stop
         stop-color="#ffb300"
         offset="1"
         id="stop2092" />
    </linearGradient>
    <linearGradient
       inkscape:collect="always"
       xlink:href="#linearGradient2236"
       id="linearGradient4553"
       x1="25.099916"
       y1="11.285171"
       x2="35.368164"
       y2="50.345978"
       gradientUnits="userSpaceOnUse" />
    <linearGradient
       inkscape:collect="always"
       xlink:href="#linearGradient4869"
       id="linearGradient4871"
       x1="45.883587"
       y1="41.544861"
       x2="50.92292"
       y2="46.584194"
       gradientUnits="userSpaceOnUse" />
  </defs>
  <sodipodi:namedview
     id="base"
     pagecolor="#ffffff"
     bordercolor="#666666"
     borderopacity="1.0"
     inkscape:pageopacity="0.0"
     inkscape:pageshadow="2"
     inkscape:zoom="5.6"
     inkscape:cx="39.034473"
     inkscape:cy="28.455128"
     inkscape:document-units="mm"
     inkscape:current-layer="layer1"
     inkscape:document-rotation="0"
     showgrid="false"
     units="px"
     inkscape:window-width="1920"
     inkscape:window-height="992"
     inkscape:window-x="0"
     inkscape:window-y="0"
     inkscape:window-maximized="1" />
  <metadata
     id="metadata5">
    <rdf:RDF>
      <cc:Work
         rdf:about="">
        <dc:format>image/svg+xml</dc:format>
        <dc:type
           rdf:resource="http://purl.org/dc/dcmitype/StillImage" />
        <dc:title></dc:title>
      </cc:Work>
    </rdf:RDF>
  </metadata>
  <g
     inkscape:label="图层 1"
     inkscape:groupmode="layer"
     id="layer1">
    <path
       id="rect4555"
       style="opacity:1;fill:#ff9100;fill-opacity:1;stroke-width:1.00157;stroke-linecap:round;stroke-linejoin:round;paint-order:stroke fill markers"
       d="M 51.597656 2.2578125 C 51.305223 2.2318905 51.006674 2.2352563 50.703125 2.2695312 L 6.9179688 7.2128906 C 4.4895742 7.48709 2.7550975 9.6634023 3.0292969 12.091797 L 7.9726562 55.875 C 8.2468556 58.303395 10.423168 60.037871 12.851562 59.763672 L 56.636719 54.820312 C 59.065113 54.546113 60.79959 52.369801 60.525391 49.941406 L 55.580078 6.15625 C 55.340154 4.0314047 53.644689 2.4392662 51.597656 2.2578125 z "
       transform="scale(0.26458333)" />
    <path
       id="rect4535"
       style="opacity:1;fill:url(#linearGradient4553);fill-opacity:1;stroke-width:1.00157;stroke-linecap:round;stroke-linejoin:round;paint-order:stroke fill markers"
       d="M 51.626953 2.2558594 L 51.628906 2.2578125 C 51.336446 2.2319001 51.035956 2.2333054 50.732422 2.2675781 L 6.9472656 7.2128906 C 4.5188674 7.4870904 2.782619 9.6614822 3.0566406 12.089844 L 8.0019531 55.875 C 8.2761578 58.303396 10.450545 60.037695 12.878906 59.763672 L 26.572266 58.216797 C 39.187796 54.746971 56.971442 43.985294 57.529297 23.189453 L 60.552734 49.941406 L 55.609375 6.15625 C 55.369439 4.0314196 53.673866 2.4372079 51.626953 2.2558594 z "
       transform="scale(0.26458333)" />
    <path
       transform="matrix(1.0330989,0,0,0.96963603,-44.482851,-3.0653425)"
       d="m 57.818,9.8288 c 0,0 0.05354,3.0782 -2.6636,4.5408 -2.2449,1.2084 0.9386,2.689 -5.8599,5.0989 8.8505,-2.5748 8.5235,-9.6396 8.5235,-9.6396 z"
       fill="#141414"
       filter="url(#filter1066)"
       opacity="0.3"
       id="path2105" />
    <path
       transform="matrix(1.0038675,0,0,0.93537568,-42.747718,-2.6146694)"
       d="m 57.818,9.8288 c 0,0 0.05354,3.0782 -2.6636,4.5408 -2.2449,1.2084 0.9386,2.689 -5.8599,5.0989 8.8505,-2.5748 8.5235,-9.6396 8.5235,-9.6396 z"
       fill="#141414"
       filter="url(#filter1066)"
       opacity="0.3"
       id="path2109" />
    <g
       transform="matrix(0.29080354,0,0,0.29080354,-0.83677835,-0.83026289)"
       fill="#191919"
       stroke-width="3.5433"
       id="g1115">
      <path
         d="m 28.118,17.511 c -2.6018,0.69714 -4.8253,2.0443 -6.6142,3.8105 l -5.4333,1.4559 1.4397,5.373 c -0.6538,2.4528 -0.70296,5.1039 0.0012,7.7319 0.70416,2.628 2.0723,4.8993 3.8649,6.6966 l 1.4235,5.3126 5.3126,-1.4235 c 2.4696,0.66933 5.1206,0.73084 7.7702,0.02089 2.6496,-0.70995 4.9448,-2.0968 6.7489,-3.9113 l 5.2824,-1.4154 -1.4154,-5.2824 c 0.66343,-2.4633 0.69847,-5.1207 -0.0093,-7.7621 -0.70776,-2.6414 -2.0668,-4.9253 -3.873,-6.7268 l -1.4316,-5.3428 -5.4031,1.4478 c -2.4322,-0.63512 -5.0617,-0.68192 -7.6634,0.01521 z m 0.71551,2.4288 c 6.64,-1.7792 13.454,2.1547 15.233,8.7946 1.779,6.6399 -2.1466,13.484 -8.7865,15.263 -6.6399,1.779 -13.462,-2.1849 -15.241,-8.8248 -1.7792,-6.64 2.1547,-13.454 8.7946,-15.233 z"
         id="path1111" />
      <path
         d="m 33.312,25.642 0.73547,0.5975 0.92878,8.2722 c -1.8432,-3.3426 -4.271,-7.7763 -4.2781,-7.7857 l 0.28333,8.8287 -3.4467,-6.8303 -0.06997,-1.4882 -4.3851,1.1202 c 0.4213,0.17346 0.80834,0.55175 1.1824,0.83392 l 5.7679,10.483 c -0.11424,0.48229 -0.34899,0.97124 -0.52851,1.402 1.4763,-0.3872 2.9851,-0.78077 4.2504,-1.1114 l -0.66294,-1.247 -0.19071,-4.0861 1.8391,4.0006 0.13931,1.0312 4.16,-1.1422 -0.03255,-0.01879 -0.85008,-0.92297 -1.1349,-10.984 0.77814,-2.2086 c -1.4953,0.41828 -2.9904,0.83758 -4.4855,1.2567 z"
         id="path1113" />
    </g>
    <path
       id="rect4688"
       style="opacity:1;fill:url(#linearGradient4871);fill-opacity:1;stroke-width:1.00157;stroke-linecap:round;stroke-linejoin:round;paint-order:stroke fill markers"
       d="M 57.527344 23.0625 C 57.527344 23.0625 57.720429 34.249016 47.845703 39.564453 C 40.153543 43.705042 49.954543 48.729923 30.396484 56.630859 L 30.396484 56.828125 C 58.615604 46.633487 57.78125 23.189453 57.78125 23.189453 L 57.527344 23.0625 z "
       transform="scale(0.26458333)" />
  </g>
</svg>
