<?xml version="1.0" encoding="UTF-8" standalone="no"?>
<svg
   xmlns:dc="http://purl.org/dc/elements/1.1/"
   xmlns:cc="http://creativecommons.org/ns#"
   xmlns:rdf="http://www.w3.org/1999/02/22-rdf-syntax-ns#"
   xmlns:svg="http://www.w3.org/2000/svg"
   xmlns="http://www.w3.org/2000/svg"
   xmlns:xlink="http://www.w3.org/1999/xlink"
   xmlns:sodipodi="http://sodipodi.sourceforge.net/DTD/sodipodi-0.dtd"
   xmlns:inkscape="http://www.inkscape.org/namespaces/inkscape"
   width="64"
   height="64"
   viewBox="0 0 16.933333 16.933333"
   version="1.1"
   id="svg8"
   inkscape:version="1.0.2 (e86c870879, 2021-01-15)"
   sodipodi:docname="7BD8_halo.0.svg">
  <defs
     id="defs2">
    <linearGradient
       inkscape:collect="always"
       id="linearGradient4984">
      <stop
         style="stop-color:#373737;stop-opacity:1"
         offset="0"
         id="stop4980" />
      <stop
         style="stop-color:#6e6e6e;stop-opacity:1"
         offset="1"
         id="stop4982" />
    </linearGradient>
    <linearGradient
       id="c"
       x1="24.535"
       x2="24.535"
       y1="7.0931001"
       y2="44.483002"
       gradientTransform="matrix(1.4364,0,0,1.4364,68.203891,-4.714)"
       gradientUnits="userSpaceOnUse">
      <stop
         stop-color="#76dd38"
         offset="0"
         id="stop1005" />
      <stop
         stop-color="#42c440"
         offset=".48433"
         id="stop1007" />
      <stop
         stop-color="#14ab4b"
         offset="1"
         id="stop1009" />
    </linearGradient>
    <filter
       id="filter3001"
       x="-0.029503001"
       y="-0.046935"
       width="1.059"
       height="1.0939"
       color-interpolation-filters="sRGB">
      <feGaussianBlur
         stdDeviation="0.23473412"
         id="feGaussianBlur148" />
    </filter>
    <linearGradient
       id="linearGradient2349"
       x1="33.337002"
       x2="31.709999"
       y1="42.984001"
       y2="26.577"
       gradientTransform="matrix(0.26458333,0,0,0.26458333,-18.43605,-1.7095443)"
       gradientUnits="userSpaceOnUse">
      <stop
         stop-color="#aaf8ad"
         offset="0"
         id="stop151" />
      <stop
         stop-color="#fff"
         offset="1"
         id="stop153" />
    </linearGradient>
    <linearGradient
       id="linearGradient938"
       x1="80.368"
       x2="82.141"
       y1="13.177"
       y2="14.704"
       gradientTransform="matrix(0.96155893,0,0,0.96155893,-65.276371,-1.691669)"
       gradientUnits="userSpaceOnUse">
      <stop
         stop-color="#fafafa"
         offset="0"
         id="stop2079"
         style="stop-color:#ffa000;stop-opacity:1" />
      <stop
         stop-color="#90a0b3"
         offset="1"
         id="stop2081"
         style="stop-color:#af4b00;stop-opacity:1" />
    </linearGradient>
    <filter
       id="filter1066"
       x="-.063923"
       y="-.056531"
       width="1.1278"
       height="1.1131"
       color-interpolation-filters="sRGB">
      <feGaussianBlur
         stdDeviation="0.22705935"
         id="feGaussianBlur2084" />
    </filter>
    <filter
       id="filter1100"
       x="-.12197"
       y="-.11848"
       width="1.2439"
       height="1.237"
       color-interpolation-filters="sRGB">
      <feGaussianBlur
         stdDeviation="0.47586465"
         id="feGaussianBlur2087" />
    </filter>
    <linearGradient
       id="linearGradient1206"
       x1="54.456"
       x2="54.456"
       y1="6.4548"
       y2="11.072"
       gradientTransform="matrix(0.96155893,0,0,0.96155893,-44.354483,-5.7547362)"
       gradientUnits="userSpaceOnUse">
      <stop
         stop-color="#ffd700"
         offset="0"
         id="stop2090" />
      <stop
         stop-color="#ffb300"
         offset="1"
         id="stop2092" />
    </linearGradient>
    <linearGradient
       inkscape:collect="always"
       xlink:href="#linearGradient4984"
       id="linearGradient4986"
       x1="6.1695862"
       y1="10.46608"
       x2="57.338619"
       y2="49.56797"
       gradientUnits="userSpaceOnUse" />
  </defs>
  <sodipodi:namedview
     id="base"
     pagecolor="#ffffff"
     bordercolor="#666666"
     borderopacity="1.0"
     inkscape:pageopacity="0.0"
     inkscape:pageshadow="2"
     inkscape:zoom="5.6"
     inkscape:cx="39.034473"
     inkscape:cy="28.455128"
     inkscape:document-units="mm"
     inkscape:current-layer="layer1"
     inkscape:document-rotation="0"
     showgrid="false"
     units="px"
     inkscape:window-width="1920"
     inkscape:window-height="992"
     inkscape:window-x="0"
     inkscape:window-y="0"
     inkscape:window-maximized="1" />
  <metadata
     id="metadata5">
    <rdf:RDF>
      <cc:Work
         rdf:about="">
        <dc:format>image/svg+xml</dc:format>
        <dc:type
           rdf:resource="http://purl.org/dc/dcmitype/StillImage" />
        <dc:title></dc:title>
      </cc:Work>
    </rdf:RDF>
  </metadata>
  <g
     inkscape:label="图层 1"
     inkscape:groupmode="layer"
     id="layer1">
    <path
       id="rect4555"
       style="opacity:1;fill:url(#linearGradient4986);fill-opacity:1;stroke-width:1.00157;stroke-linecap:round;stroke-linejoin:round;paint-order:stroke fill markers"
       d="M 51.597656 2.2578125 C 51.305223 2.2318905 51.006674 2.2352563 50.703125 2.2695312 L 6.9179688 7.2128906 C 4.4895742 7.48709 2.7550975 9.6634023 3.0292969 12.091797 L 7.9726562 55.875 C 8.2468556 58.303395 10.423168 60.037871 12.851562 59.763672 L 56.636719 54.820312 C 59.065113 54.546113 60.79959 52.369801 60.525391 49.941406 L 55.580078 6.15625 C 55.340154 4.0314047 53.644689 2.4392662 51.597656 2.2578125 z "
       transform="scale(0.26458333)" />
    <g
       transform="matrix(0.26458333,0,0,0.26458333,0.18321083,0.18322406)"
       id="g354">
      <path
         d="m 20.923,32.692 c 2.2691,-4.1538 1.3846,-8.1604 1.3846,-12.462 l 14.066,-2.1636 2.5498,3.5482 -2.7692,2.7692 H 33.385 c -1.3846,0 -2.7692,0 -2.7692,2.7692 0,4.3858 -2.7692,8.3077 -4.1538,12.729 l -5.5385,-4.4218 z"
         fill="#2e2e2e"
         fill-rule="evenodd"
         stroke-width="1.3846"
         id="path326" />
      <circle
         cx="34.077"
         cy="22.308001"
         r="0.69230998"
         fill="#a11919"
         stroke-width="1.3846"
         style="paint-order:normal"
         id="circle328" />
      <g
         transform="matrix(1.3846,0,0,1.3846,-1.2308,-3.3078)"
         fill="#333333"
         fill-rule="evenodd"
         id="g334">
        <path
           d="m 21,23 -2,6 v 3 l 3,-9 v -6 h -1 z"
           id="path330" />
        <path
           d="m 18,23 -1,3 v 3 l 2,-6 v -6 h -1 z"
           id="path332" />
      </g>
      <g
         fill-rule="evenodd"
         stroke-width="1.3846"
         id="g352">
        <path
           d="m 36.935,18.849 c -2.1421,0.0018 -4.1266,0.01839 -5.963,0.04868 l -8.6646,1.3332 c 0,1.3138 0.07714,2.5985 0.12711,3.8699 2.5244,-1.0957 7.5322,-1.1007 9.5652,-1.1007 l 1.3846,-1.3846 c 3.0974,0 4.4338,0.01865 5.0354,0.503 l 0.503,-0.503 -1.9876,-2.7665 z"
           opacity="0.1"
           id="path336" />
        <path
           d="m 19.538,27.154 -5.5385,1.3846 c 2.0251,10.184 14.641,16.59 21.55,16.615 l 3.3726,-2.7692 -1.3846,-5.5385 c -6.9231,0 -16.068,-1.3846 -18,-9.6923 z"
           fill="#fafafa"
           id="path338" />
        <path
           d="m 23.692,36.846 c -1.3846,0 -2.4238,1.4023 -2.9964,2.0985 4.7058,3.9355 10.771,6.1941 14.856,6.2092 l 0.08384,-0.07031 c -0.42937,-3.371 -1.2035,-1.4833 -6.4038,-4.0835 -2.7692,-1.3846 -2.7692,-4.1538 -5.5385,-4.1538 z"
           fill="#2e2e2e"
           id="path340" />
        <path
           d="m 41.692,24.384 c 1.7711,7.8535 1.4221,7.5921 -1.3846,11.077 l 4.1538,2.7692 c 4.9262,-4.0958 4.1302,-7.4987 2.7692,-12.462 -1.4784,-2.1474 -3.4538,-2.0166 -5.5385,-1.3846 z"
           fill="#2e2e2e"
           id="path342" />
        <path
           d="m 43.971,23.979 c -0.73058,0.0024 -1.498,0.16866 -2.2798,0.40565 0.04118,0.18262 0.06659,0.30737 0.10547,0.48138 0.50857,0.24876 0.85244,0.56454 1.2791,0.90324 l 4.4486,1.1115 c -0.0963,-0.36699 -0.18928,-0.7268 -0.29477,-1.1115 -0.92395,-1.3421 -2.0411,-1.7942 -3.2587,-1.7903 z"
           opacity="0.1"
           id="path344" />
        <path
           d="m 47.231,25.769 1.3846,-1.3846 c -0.68335,-2.9719 -6.5138,-5.5385 -11.077,-6.9231 -15.231,0 -23.538,0 -23.538,5.5385 l 5.5385,1.3846 c 0,-2.7692 8.3077,-2.7692 11.077,-2.7692 l 1.3846,-1.3846 c 5.5385,0 5.5385,0 5.5385,2.7692 2.7692,0 3.2361,0.6562 4.1538,1.3846"
           fill="#fafafa"
           id="path346" />
        <path
           d="m 15.385,23.346 v 0.69231 l 2.7692,0.69231 v -0.69231 z"
           fill="#4ae355"
           id="path348" />
        <path
           d="m 18.154,26.808 -2.7692,0.69231 v 0.69231 l 2.7692,-0.69231 z"
           fill="#4ae355"
           id="path350" />
      </g>
    </g>
  </g>
</svg>
