<?xml version="1.0" encoding="UTF-8" standalone="no"?>
<svg
   xmlns:dc="http://purl.org/dc/elements/1.1/"
   xmlns:cc="http://creativecommons.org/ns#"
   xmlns:rdf="http://www.w3.org/1999/02/22-rdf-syntax-ns#"
   xmlns:svg="http://www.w3.org/2000/svg"
   xmlns="http://www.w3.org/2000/svg"
   xmlns:sodipodi="http://sodipodi.sourceforge.net/DTD/sodipodi-0.dtd"
   xmlns:inkscape="http://www.inkscape.org/namespaces/inkscape"
   width="64"
   height="64"
   viewBox="0 0 16.933333 16.933334"
   version="1.1"
   id="svg8"
   inkscape:version="1.0.1 (3bc2e813f5, 2020-09-07, custom)"
   sodipodi:docname="about.svg">
  <defs
     id="defs2" />
  <sodipodi:namedview
     id="base"
     pagecolor="#ffffff"
     bordercolor="#666666"
     borderopacity="1.0"
     inkscape:pageopacity="0.0"
     inkscape:pageshadow="2"
     inkscape:zoom="5.6"
     inkscape:cx="11.412182"
     inkscape:cy="30.07626"
     inkscape:document-units="mm"
     inkscape:current-layer="layer1"
     showgrid="false"
     inkscape:window-width="1920"
     inkscape:window-height="942"
     inkscape:window-x="0"
     inkscape:window-y="38"
     inkscape:window-maximized="1"
     units="px"
     inkscape:document-rotation="0" />
  <metadata
     id="metadata5">
    <rdf:RDF>
      <cc:Work
         rdf:about="">
        <dc:format>image/svg+xml</dc:format>
        <dc:type
           rdf:resource="http://purl.org/dc/dcmitype/StillImage" />
        <dc:title></dc:title>
      </cc:Work>
    </rdf:RDF>
  </metadata>
  <g
     inkscape:label="Layer 1"
     inkscape:groupmode="layer"
     id="layer1"
     transform="translate(0,-263.13332)">
    <circle
       style="opacity:1;fill:#465dd5;fill-opacity:1;fill-rule:nonzero;stroke:none;stroke-width:0.125883;stroke-linecap:square;stroke-linejoin:round;stroke-miterlimit:4;stroke-dasharray:none;stroke-dashoffset:0;stroke-opacity:1"
       id="path1253"
       cx="8.4666662"
       cy="271.59998"
       r="7.9375" />
    <path
       id="path1035"
       style="fill:#ffffff;fill-opacity:1;stroke:none;stroke-width:0.501864;stroke-opacity:1"
       d="m 9.4155192,266.30834 c -0.1770452,0 -0.2313165,0.007 -0.3564866,0.0496 -0.3597773,0.12072 -0.6452795,0.4136 -0.7632983,0.78304 -0.040647,0.12723 -0.048045,0.18326 -0.048045,0.3644 0,0.18148 0.00734,0.23704 0.048356,0.36534 0.1367853,0.42828 0.4936879,0.74426 0.9334815,0.82644 0.1397253,0.0261 0.3841424,0.005 0.5440121,-0.0466 0.3530021,-0.1143 0.6440881,-0.41245 0.7614361,-0.77987 0.04098,-0.1283 0.04836,-0.18387 0.04836,-0.36534 0,-0.18147 -0.0074,-0.2371 -0.04836,-0.3654 -0.117781,-0.36877 -0.403517,-0.6614 -0.7639358,-0.78238 -0.1241449,-0.0417 -0.1788031,-0.0492 -0.3555287,-0.0492 z m -0.397237,2.96767 c -0.028505,4.7e-4 -0.058478,0.001 -0.090169,0.003 -0.7613885,0.0404 -1.4516561,0.40557 -1.9394209,1.0259 -0.271317,0.34506 -0.4959534,0.73161 -0.5864652,1.00922 -0.084611,0.25952 -0.065674,0.43992 0.051392,0.48961 0.094752,0.0403 0.1624399,-0.0139 0.3389835,-0.27139 0.3154718,-0.45999 0.4144928,-0.59265 0.5513012,-0.73842 0.175638,-0.18715 0.370125,-0.3287 0.4704919,-0.3425 0.094772,-0.013 0.1200259,0.0222 0.1071956,0.14963 -0.010956,0.10882 -0.018434,0.13291 -0.7748431,2.49714 -0.2914887,0.91108 -0.5501845,1.73606 -0.5749204,1.83331 -0.1163291,0.45736 -0.1538732,0.98569 -0.091234,1.28426 0.116297,0.55433 0.5083345,0.76941 1.1644713,0.6388 0.5895147,-0.11734 1.1959224,-0.53349 1.7027382,-1.16849 0.3924235,-0.49167 0.6490235,-0.97414 0.7032907,-1.32233 0.03383,-0.21709 -0.02243,-0.32433 -0.1565648,-0.29854 -0.1036767,0.0199 -0.2075625,0.14753 -0.6068932,0.7453 -0.3451116,0.51662 -0.4542723,0.63306 -0.5813582,0.62021 -0.1014363,-0.0103 -0.1357118,-0.0811 -0.1321456,-0.27269 0.00241,-0.13054 0.018846,-0.21712 0.085757,-0.45282 0.1572193,-0.55381 0.3787469,-1.25651 0.6592406,-2.09096 0.4190531,-1.24664 0.4534632,-1.35661 0.5034748,-1.60995 0.1681632,-0.85185 0.047854,-1.41837 -0.3469098,-1.63308 -0.1308531,-0.0712 -0.2578375,-0.0986 -0.4574053,-0.0954 z"
       inkscape:connector-curvature="0" />
  </g>
</svg>
