<?xml version="1.0" encoding="UTF-8" standalone="no"?>
<svg
   xmlns:dc="http://purl.org/dc/elements/1.1/"
   xmlns:cc="http://creativecommons.org/ns#"
   xmlns:rdf="http://www.w3.org/1999/02/22-rdf-syntax-ns#"
   xmlns:svg="http://www.w3.org/2000/svg"
   xmlns="http://www.w3.org/2000/svg"
   xmlns:xlink="http://www.w3.org/1999/xlink"
   xmlns:sodipodi="http://sodipodi.sourceforge.net/DTD/sodipodi-0.dtd"
   xmlns:inkscape="http://www.inkscape.org/namespaces/inkscape"
   width="64"
   height="64"
   viewBox="0 0 16.933333 16.933334"
   version="1.1"
   id="svg2312"
   inkscape:version="1.0.1 (3bc2e813f5, 2020-09-07, custom)"
   sodipodi:docname="abrt.svg">
  <defs
     id="defs2306">
    <linearGradient
       inkscape:collect="always"
       id="linearGradient882">
      <stop
         style="stop-color:#ef5bf6;stop-opacity:1"
         offset="0"
         id="stop878" />
      <stop
         style="stop-color:#8517c5;stop-opacity:1"
         offset="1"
         id="stop880" />
    </linearGradient>
    <linearGradient
       inkscape:collect="always"
       xlink:href="#linearGradient882"
       id="linearGradient884"
       x1="8.6929216"
       y1="0.48832211"
       x2="8.6929216"
       y2="16.350273"
       gradientUnits="userSpaceOnUse" />
    <linearGradient
       id="linearGradient3361"
       inkscape:collect="always">
      <stop
         id="stop3363"
         offset="0"
         style="stop-color:#0068e0;stop-opacity:1;" />
      <stop
         id="stop3365"
         offset="1"
         style="stop-color:#00acf4;stop-opacity:1" />
    </linearGradient>
    <linearGradient
       xlink:href="#linearGradient3361"
       x1="71.204002"
       y1="15.369"
       gradientTransform="matrix(1.5867756,0,0,1.5867757,-167.94929,-1.243281)"
       x2="71.204002"
       gradientUnits="userSpaceOnUse"
       y2="40.495998"
       id="linearGradient3026">
      <stop
         offset="0"
         stop-color="#fff"
         id="stop4808-4" />
      <stop
         offset=".42448"
         stop-opacity=".23529"
         stop-color="#fff"
         id="stop4810-0" />
      <stop
         offset=".82090"
         stop-opacity=".15686"
         stop-color="#fff"
         id="stop4812-8" />
      <stop
         offset="1"
         stop-opacity=".39216"
         stop-color="#fff"
         id="stop4814-0" />
    </linearGradient>
    <radialGradient
       r="20"
       gradientTransform="matrix(-3.4973e-8 1.8855 -1.7764 -5.4723e-8 39.14 -7.9932)"
       cx="15.026"
       cy="8.6258"
       gradientUnits="userSpaceOnUse"
       fy="8.5089"
       fx="4.459"
       id="radialGradient3029">
      <stop
         offset="0"
         stop-color="#c24251"
         id="stop4170" />
      <stop
         offset=".26238"
         stop-color="#c24251"
         id="stop4172" />
      <stop
         offset=".66094"
         stop-color="#a63643"
         id="stop4174" />
      <stop
         offset="1"
         stop-color="#a63643"
         id="stop4176" />
    </radialGradient>
    <radialGradient
       r="20.397"
       gradientTransform="matrix(0,2.8345094,-3.7415326,0,-38.495085,-45.294216)"
       cx="23.896"
       cy="3.99"
       gradientUnits="userSpaceOnUse"
       id="radialGradient3032">
      <stop
         offset="0"
         stop-color="#fff"
         id="stop3244-9-33-7-0-9" />
      <stop
         offset=".26238"
         stop-color="#ddd"
         id="stop3246-3-5-0-8-5" />
      <stop
         offset=".66094"
         stop-color="#abacae"
         id="stop3248-1-7-8-8-1" />
      <stop
         offset="1"
         stop-color="#89898b"
         id="stop3250-9-3-0-5-1" />
    </radialGradient>
    <radialGradient
       r="62.769"
       gradientTransform="matrix(0.27083,0,0,0.087623,-80.278829,45.161997)"
       cx="99.157"
       cy="186.17"
       gradientUnits="userSpaceOnUse"
       id="radialGradient3035">
      <stop
         offset="0"
         stop-color="#3d3d3d"
         id="stop3822-2-6-3" />
      <stop
         offset=".5"
         stop-opacity=".49804"
         stop-color="#686868"
         id="stop3864-8-7-7" />
      <stop
         offset="1"
         stop-opacity="0"
         stop-color="#686868"
         id="stop3824-1-2-5" />
    </radialGradient>
    <linearGradient
       x1="22.759"
       y1="13.035"
       gradientTransform="matrix(1 0 0 1.0521 0 -.90547)"
       x2="23.078"
       gradientUnits="userSpaceOnUse"
       y2="25.611"
       id="linearGradient4433">
      <stop
         offset="0"
         stop-color="#fff"
         id="stop6305-1-0-2" />
      <stop
         offset="1"
         stop-opacity="0"
         stop-color="#fff"
         id="stop6307-5-0-6" />
    </linearGradient>
    <linearGradient
       id="linearGradient4829">
      <stop
         id="stop4831"
         offset="0"
         style="stop-color:#f4fbfc;stop-opacity:1;" />
      <stop
         id="stop4833"
         offset="1"
         style="stop-color:#d6d6d6;stop-opacity:1;" />
    </linearGradient>
    <linearGradient
       x1="32.817001"
       y1="19.819"
       gradientTransform="translate(-0.1809,-0.94729)"
       x2="32.817001"
       gradientUnits="userSpaceOnUse"
       y2="30.184999"
       id="linearGradient3857">
      <stop
         offset="0"
         stop-color="#fff"
         id="stop2240" />
      <stop
         offset="1"
         stop-opacity="0"
         stop-color="#fff"
         id="stop2242" />
    </linearGradient>
    <linearGradient
       x1="135"
       y1="120"
       gradientTransform="matrix(0.43333,0,0,0.43333,-83.755,-6.7415)"
       x2="160"
       gradientUnits="userSpaceOnUse"
       y2="160"
       id="linearGradient4322">
      <stop
         offset="0"
         stop-color="#effffc"
         id="stop3879-8-6" />
      <stop
         offset="1"
         stop-color="#fff"
         id="stop3881-8-6" />
    </linearGradient>
  </defs>
  <sodipodi:namedview
     id="base"
     pagecolor="#ffffff"
     bordercolor="#666666"
     borderopacity="1.0"
     inkscape:pageopacity="0.0"
     inkscape:pageshadow="2"
     inkscape:zoom="2.8"
     inkscape:cx="-1.8100149"
     inkscape:cy="41.180041"
     inkscape:document-units="mm"
     inkscape:current-layer="layer1"
     inkscape:document-rotation="0"
     showgrid="false"
     units="px"
     inkscape:window-width="1920"
     inkscape:window-height="942"
     inkscape:window-x="0"
     inkscape:window-y="38"
     inkscape:window-maximized="1" />
  <metadata
     id="metadata2309">
    <rdf:RDF>
      <cc:Work
         rdf:about="">
        <dc:format>image/svg+xml</dc:format>
        <dc:type
           rdf:resource="http://purl.org/dc/dcmitype/StillImage" />
        <dc:title></dc:title>
      </cc:Work>
    </rdf:RDF>
  </metadata>
  <g
     inkscape:label="Capa 1"
     inkscape:groupmode="layer"
     id="layer1">
    <circle
       style="fill:url(#linearGradient884);stroke-width:0.367338;stroke-linecap:round;stroke-linejoin:round;paint-order:stroke fill markers;fill-opacity:1"
       id="path876"
       cx="8.4666662"
       cy="8.4666662"
       r="7.9375" />
    <g
       id="g4317"
       transform="matrix(0.13465795,0,0,0.13468487,-30.911865,2.3737254)"
       style="fill:none;stroke:#000000;stroke-linecap:round;stroke-linejoin:round" />
    <path
       inkscape:connector-curvature="0"
       id="path995"
       d="m 8.4667552,4.3984771 c -2.246435,-1.61e-5 -4.067551,1.7769041 -4.067596,3.9688802 1.48e-4,1.0359472 0.415406,2.0307787 1.157072,2.7720377 0.0021,0.408463 -0.01193,1.034213 -0.442269,1.517493 1.145421,0.09355 1.775009,-0.280287 2.199094,-0.485769 0.374435,0.108878 0.762993,0.16455 1.153699,0.165297 2.2464378,-8.1e-5 4.0674758,-1.777081 4.0674188,-3.9690587 C 12.53413,6.1754489 10.713121,4.3985566 8.4667552,4.3984771 Z m 0,1.3756323 c 0.266315,0 0.480619,0.2419477 0.480619,0.5424054 v 2.1692663 c 0,0.3004575 -0.214304,0.5424053 -0.480619,0.5424053 -0.266314,0 -0.480796,-0.2419478 -0.480796,-0.5424053 V 6.3165148 c 0,-0.3004577 0.214482,-0.5424054 0.480796,-0.5424054 z m 0,3.8703418 a 0.65327575,0.65327575 0 0 1 0.653195,0.6531948 0.65327575,0.65327575 0 0 1 -0.653195,0.653372 0.65327575,0.65327575 0 0 1 -0.653372,-0.653372 0.65327575,0.65327575 0 0 1 0.653372,-0.6531948 z"
       style="fill:none;fill-opacity:1;stroke:#19191b;stroke-width:0.134631;stroke-linecap:round;stroke-linejoin:round;stroke-miterlimit:4;stroke-dasharray:none;stroke-dashoffset:0;stroke-opacity:0.109849;paint-order:fill markers stroke" />
    <path
       style="fill:none;fill-opacity:1;stroke:#19191b;stroke-width:0.269262;stroke-linecap:round;stroke-linejoin:round;stroke-miterlimit:4;stroke-dasharray:none;stroke-dashoffset:0;stroke-opacity:0.0643939;paint-order:fill markers stroke"
       d="m 8.4667552,4.3984771 c -2.246435,-1.61e-5 -4.067551,1.7769041 -4.067596,3.9688802 1.48e-4,1.0359472 0.415406,2.0307787 1.157072,2.7720377 0.0021,0.408463 -0.01193,1.034213 -0.442269,1.517493 1.145421,0.09355 1.775009,-0.280287 2.199094,-0.485769 0.374435,0.108878 0.762993,0.16455 1.153699,0.165297 2.2464378,-8.1e-5 4.0674758,-1.777081 4.0674188,-3.9690587 C 12.53413,6.1754489 10.713121,4.3985566 8.4667552,4.3984771 Z m 0,1.3756323 c 0.266315,0 0.480619,0.2419477 0.480619,0.5424054 v 2.1692663 c 0,0.3004575 -0.214304,0.5424053 -0.480619,0.5424053 -0.266314,0 -0.480796,-0.2419478 -0.480796,-0.5424053 V 6.3165148 c 0,-0.3004577 0.214482,-0.5424054 0.480796,-0.5424054 z m 0,3.8703418 a 0.65327575,0.65327575 0 0 1 0.653195,0.6531948 0.65327575,0.65327575 0 0 1 -0.653195,0.653372 0.65327575,0.65327575 0 0 1 -0.653372,-0.653372 0.65327575,0.65327575 0 0 1 0.653372,-0.6531948 z"
       id="path997"
       inkscape:connector-curvature="0" />
    <path
       inkscape:connector-curvature="0"
       id="path999"
       d="m 8.4667552,4.3984771 c -2.246435,-1.61e-5 -4.067551,1.7769041 -4.067596,3.9688802 1.48e-4,1.0359472 0.415406,2.0307787 1.157072,2.7720377 0.0021,0.408463 -0.01193,1.034213 -0.442269,1.517493 1.145421,0.09355 1.775009,-0.280287 2.199094,-0.485769 0.374435,0.108878 0.762993,0.16455 1.153699,0.165297 2.2464378,-8.1e-5 4.0674758,-1.777081 4.0674188,-3.9690587 C 12.53413,6.1754489 10.713121,4.3985566 8.4667552,4.3984771 Z m 0,1.3756323 c 0.266315,0 0.480619,0.2419477 0.480619,0.5424054 v 2.1692663 c 0,0.3004575 -0.214304,0.5424053 -0.480619,0.5424053 -0.266314,0 -0.480796,-0.2419478 -0.480796,-0.5424053 V 6.3165148 c 0,-0.3004577 0.214482,-0.5424054 0.480796,-0.5424054 z m 0,3.8703418 a 0.65327575,0.65327575 0 0 1 0.653195,0.6531948 0.65327575,0.65327575 0 0 1 -0.653195,0.653372 0.65327575,0.65327575 0 0 1 -0.653372,-0.653372 0.65327575,0.65327575 0 0 1 0.653372,-0.6531948 z"
       style="fill:none;fill-opacity:1;stroke:#19191b;stroke-width:0.403893;stroke-linecap:round;stroke-linejoin:round;stroke-miterlimit:4;stroke-dasharray:none;stroke-dashoffset:0;stroke-opacity:0.0909091;paint-order:fill markers stroke" />
    <path
       style="fill:#ffffff;fill-opacity:1;stroke:none;stroke-width:0.790219;stroke-linecap:round;stroke-linejoin:round;stroke-miterlimit:4;stroke-dasharray:none;stroke-dashoffset:0;stroke-opacity:1;paint-order:fill markers stroke"
       d="m 8.4667552,4.3984771 c -2.246435,-1.61e-5 -4.067551,1.7769041 -4.067596,3.9688802 1.48e-4,1.0359472 0.415406,2.0307787 1.157072,2.7720377 0.0021,0.408463 -0.01193,1.034213 -0.442269,1.517493 1.145421,0.09355 1.775009,-0.280287 2.199094,-0.485769 0.374435,0.108878 0.762993,0.16455 1.153699,0.165297 2.2464378,-8.1e-5 4.0674758,-1.777081 4.0674188,-3.9690587 C 12.53413,6.1754489 10.713121,4.3985566 8.4667552,4.3984771 Z m 0,1.3756323 c 0.266315,0 0.480619,0.2419477 0.480619,0.5424054 v 2.1692663 c 0,0.3004575 -0.214304,0.5424053 -0.480619,0.5424053 -0.266314,0 -0.480796,-0.2419478 -0.480796,-0.5424053 V 6.3165148 c 0,-0.3004577 0.214482,-0.5424054 0.480796,-0.5424054 z m 0,3.8703418 a 0.65327575,0.65327575 0 0 1 0.653195,0.6531948 0.65327575,0.65327575 0 0 1 -0.653195,0.653372 0.65327575,0.65327575 0 0 1 -0.653372,-0.653372 0.65327575,0.65327575 0 0 1 0.653372,-0.6531948 z"
       id="path1001"
       inkscape:connector-curvature="0" />
  </g>
</svg>
