<?xml version="1.0" encoding="UTF-8"?>
<svg width="64" height="64" version="1.1" viewBox="0 0 16.933 16.933" xmlns="http://www.w3.org/2000/svg" xmlns:cc="http://creativecommons.org/ns#" xmlns:dc="http://purl.org/dc/elements/1.1/" xmlns:rdf="http://www.w3.org/1999/02/22-rdf-syntax-ns#">
 <defs>
  <linearGradient id="linearGradient1005" x1=".9215" x2="16.137" y1="16.113" y2=".89807" gradientTransform="matrix(.99999 0 0 .99999 1.7981 -1.6091)" gradientUnits="userSpaceOnUse">
   <stop stop-color="#a53cff" offset="0"/>
   <stop stop-color="#b496ff" offset="1"/>
  </linearGradient>
 </defs>
 <metadata>
  <rdf:RDF>
   <cc:Work rdf:about="">
    <dc:format>image/svg+xml</dc:format>
    <dc:type rdf:resource="http://purl.org/dc/dcmitype/StillImage"/>
    <dc:title/>
   </cc:Work>
  </rdf:RDF>
 </metadata>
 <g transform="translate(-1.8332 1.6158)">
  <path d="m18.237 6.8509c0 0.95155-0.16749 1.8638-0.47464 2.7093-0.2135 0.58769-0.49437 1.1433-0.83391 1.6572-0.14222 0.21608-0.29514 0.42476-0.45746 0.62529-0.51964 0.6418-1.1372 1.2007-1.8305 1.6543-0.2553 0.16717-0.52065 0.32009-0.79536 0.45712-1.0668 0.53388-2.2711 0.8342-3.5457 0.8342-1.2745 0-2.4788-0.30033-3.5457-0.83423-0.27474-0.13705-0.54041-0.28996-0.79571-0.45712-0.70207-0.45971-1.327-1.0274-1.8509-1.6798-0.16262-0.20216-0.31522-0.41275-0.45746-0.63077-0.33046-0.50538-0.6042-1.0507-0.81349-1.627-0.3071-0.84529-0.47429-1.7573-0.47429-2.7085 0-4.3839 3.5536-7.9375 7.9375-7.9375 2.2005 0 4.1915 0.89548 5.6295 2.3417 0.41436 0.41661 0.78274 0.87929 1.0963 1.3795 0.29644 0.47106 0.54427 0.97581 0.73705 1.5068 0.30718 0.84558 0.47466 1.7579 0.47466 2.7093z" fill="url(#linearGradient1005)" stroke-width=".031006"/>
  <path d="m10.301 0.96584c-0.22526-9.286e-5 -0.4504 0.0060325-0.5584 0.01833-1.3237 0.15063-2.4075 0.69771-3.3427 1.6874-0.62955 0.66609-1.0601 1.4695-1.2907 2.4086-0.075427 0.30718-0.095136 0.44159-0.11306 0.7729-0.018428 0.34068 5.556e-4 0.93017 0.039563 1.2275 0.056478 0.43087 0.22514 0.98234 0.44987 1.471 0.41569 0.90392 1.0869 1.6644 1.9552 2.2158 0.27416 0.17408 0.83156 0.45974 1.0646 0.54552 0.070435 0.02594 0.082968 0.02577 0.10526-0.0011 0.041307-0.04977-0.012906-0.50837-0.074224-0.62791-0.039375-0.076719-0.079086-0.10737-0.24972-0.19251-0.93356-0.46582-1.6758-1.2204-2.1488-2.1843-0.20417-0.416-0.34406-0.83135-0.39127-1.162-0.053218-0.3728-0.0625-0.99039-0.021958-1.4656 0.036245-0.42484 0.15902-0.84455 0.38455-1.3145 0.34232-0.71326 0.83222-1.3113 1.4572-1.7794 0.60849-0.45567 1.3309-0.75951 2.043-0.8591 0.1855-0.025942 0.98242-0.035705 1.2262-0.015063 0.55695 0.047157 1.0295 0.18756 1.5842 0.47075 0.99901 0.51009 1.8005 1.3958 2.2204 2.4536 0.22448 0.5656 0.28342 0.92416 0.28347 1.7248 3e-5 0.63974-0.03433 0.89445-0.17894 1.3274-0.21668 0.6486-0.55819 1.2331-1.0148 1.7367-0.36499 0.40254-0.909 0.81759-1.3708 1.046-0.21099 0.10436-0.25066 0.13935-0.29236 0.25752-0.05411 0.15335-0.09023 0.54404-0.05372 0.58055 0.03031 0.03031 0.14246-0.01126 0.46839-0.17313 0.3261-0.16196 0.76811-0.41929 0.97181-0.56584 0.93776-0.67469 1.6817-1.7496 1.9902-2.8755 0.12738-0.46477 0.15311-0.66064 0.16442-1.2524 0.0095-0.49599-0.0091-0.85955-0.05607-1.0954-0.17991-0.90353-0.5269-1.6719-1.0495-2.3241-0.26993-0.33695-0.61174-0.68236-0.91027-0.91972-0.80494-0.63997-1.6801-0.99809-2.7316-1.1179-0.10867-0.012382-0.33406-0.018777-0.5593-0.018875zm-0.015425 1.7692c-0.39865 0.0019844-0.78669 0.051366-1.0444 0.13774-0.55025 0.1844-1.0948 0.52824-1.5057 0.95094-0.38637 0.39746-0.66096 0.84897-0.83606 1.3746-0.12482 0.37473-0.16366 0.68956-0.1499 1.2139 0.00476 0.18148 0.019095 0.39375 0.032486 0.47945 0.10497 0.67199 0.54443 1.4891 1.0665 1.9834 0.071445 0.067627 0.15369 0.13909 0.18293 0.1588 0.029231 0.019701 0.10932 0.075904 0.17803 0.12486 0.068707 0.048953 0.132 0.086717 0.14064 0.083844 0.00864-0.00288 0.020082-0.024702 0.025225-0.048456 0.00514-0.023754 0.010107-0.19313 0.01107-0.3764l0.0016405-0.33319-0.17149-0.20706c-0.3656-0.44127-0.57055-0.82111-0.68726-1.2738-0.28596-1.1091 0.11805-2.2658 1.0444-2.9903 0.43759-0.34226 0.96269-0.53517 1.6281-0.59814 0.33692-0.031877 0.95758 0.096533 1.3456 0.27839 0.68575 0.32134 1.2527 0.96983 1.4969 1.7115 0.11295 0.34327 0.13279 0.47739 0.13212 0.89614-5.56e-4 0.33557-0.0035 0.37656-0.04011 0.54806-0.0792 0.37148-0.23794 0.75126-0.43953 1.0517-0.05706 0.085032-0.18424 0.25125-0.28255 0.36931l-0.17875 0.2145 0.0045 0.36568c0.0032 0.26554 0.0094 0.37073 0.02269 0.38399 0.02452 0.024492 0.16813-0.073742 0.36658-0.25062 0.699-0.62304 1.071-1.3118 1.2166-2.2532 0.03951-0.25539 0.03577-0.73009-0.0076-0.97708-0.06682-0.38036-0.15975-0.66955-0.32103-0.9992-0.55332-1.1311-1.6586-1.9132-2.834-2.0051-0.13082-0.010237-0.2649-0.014814-0.3978-0.014155zm0.02704 1.9029c-0.23525-1.206e-4 -0.27019 0.00328-0.38055 0.037203-0.30983 0.095255-0.60598 0.35735-0.75113 0.66511-0.071329 0.15122-0.097898 0.26094-0.10725 0.44281-0.014168 0.27548 0.052419 0.53927 0.18801 0.74568 0.078822 0.11999 0.29104 0.32996 0.41865 0.41413 0.3002 0.19801 0.66561 0.26034 1.0107 0.1724 0.4391-0.11191 0.76806-0.43341 0.90411-0.8836 0.03453-0.11425 0.03938-0.15571 0.03938-0.33756 0-0.18184-0.0048-0.22312-0.03938-0.33737-0.13589-0.44966-0.45598-0.76327-0.90501-0.88633-0.10079-0.027623-0.157-0.032369-0.37748-0.032486zm-0.03321 2.9834c-0.58939 0.00303-1.0211 0.19958-1.1976 0.54914-0.088172 0.17467-0.11592 0.47628-0.088016 0.95819 0.046651 0.8056 0.23938 2.2622 0.36475 2.757 0.091361 0.36042 0.22207 0.57473 0.43228 0.70832 0.082531 0.05245 0.26755 0.11282 0.40323 0.13175 0.16351 0.02281 0.42474 6e-3 0.55748-0.03593 0.29496-0.09319 0.46122-0.2939 0.56457-0.68162 0.09128-0.3424 0.25498-1.5636 0.33737-2.5167 0.03234-0.37412 0.03289-0.90712 0.0011-1.0634-0.04541-0.22321-0.1211-0.3429-0.30596-0.48363-0.29808-0.22691-0.52951-0.30504-0.9493-0.32086-0.04066-0.00153-0.08066-0.0022-0.11996-0.00198z" fill="#fff" stroke-width=".26458" style="paint-order:fill markers stroke"/>
 </g>
</svg>
