<?xml version="1.0" encoding="UTF-8" standalone="no"?>
<svg
   xmlns:dc="http://purl.org/dc/elements/1.1/"
   xmlns:cc="http://creativecommons.org/ns#"
   xmlns:rdf="http://www.w3.org/1999/02/22-rdf-syntax-ns#"
   xmlns:svg="http://www.w3.org/2000/svg"
   xmlns="http://www.w3.org/2000/svg"
   xmlns:xlink="http://www.w3.org/1999/xlink"
   xmlns:sodipodi="http://sodipodi.sourceforge.net/DTD/sodipodi-0.dtd"
   xmlns:inkscape="http://www.inkscape.org/namespaces/inkscape"
   width="64"
   height="64"
   viewBox="0 0 16.933333 16.933334"
   version="1.1"
   id="svg8"
   inkscape:version="1.0.2 (e86c870879, 2021-01-15)"
   sodipodi:docname="accessories-dictionary.svg">
  <defs
     id="defs2">
    <linearGradient
       inkscape:collect="always"
       id="linearGradient3284">
      <stop
         style="stop-color:#ffa078;stop-opacity:1"
         offset="0"
         id="stop3280" />
      <stop
         style="stop-color:#f0a500;stop-opacity:1"
         offset="1"
         id="stop3282" />
    </linearGradient>
    <linearGradient
       id="linearGradient1159"
       x1="-177.09"
       x2="-177.09"
       y1="-1.3372"
       y2="-15.674"
       gradientTransform="matrix(1.0000197,0,0,1.0000197,186.82909,16.907756)"
       gradientUnits="userSpaceOnUse">
      <stop
         stop-color="#78b4dc"
         offset="0"
         id="stop833" />
      <stop
         stop-color="#0096f0"
         offset="1"
         id="stop835" />
    </linearGradient>
    <linearGradient
       id="linearGradient981"
       x1="12.022"
       x2="10.339"
       y1="15.435"
       y2="9.1891"
       gradientTransform="matrix(1.0000197,0,0,1.0000197,0.87852885,-8.6910647e-5)"
       gradientUnits="userSpaceOnUse">
      <stop
         stop-color="#ff8c14"
         offset="0"
         id="stop838" />
      <stop
         stop-color="#ffb932"
         offset="1"
         id="stop840" />
    </linearGradient>
    <linearGradient
       id="linearGradient991"
       x1="-177.09"
       x2="-184.76"
       y1="-1.3372"
       y2="-7.9214"
       gradientTransform="matrix(1.0000197,0,0,1.0000197,186.82909,16.907756)"
       gradientUnits="userSpaceOnUse">
      <stop
         stop-color="#ff820f"
         offset="0"
         id="stop843" />
      <stop
         stop-color="#ff8c0f"
         offset="1"
         id="stop845" />
    </linearGradient>
    <linearGradient
       id="linearGradient938"
       x1="80.367996"
       x2="82.140999"
       y1="13.177"
       y2="14.704"
       gradientTransform="matrix(0.955497,0.10780115,-0.10780115,0.955497,-63.019142,-9.6152135)"
       gradientUnits="userSpaceOnUse">
      <stop
         stop-color="#fafafa"
         offset="0"
         id="stop2"
         style="stop-color:#ffa078;stop-opacity:1" />
      <stop
         stop-color="#90a0b3"
         offset="1"
         id="stop4"
         style="stop-color:#f0a500;stop-opacity:1" />
    </linearGradient>
    <linearGradient
       inkscape:collect="always"
       xlink:href="#linearGradient3284"
       id="linearGradient3286"
       x1="48.252785"
       y1="44.463749"
       x2="54.120956"
       y2="49.861954"
       gradientUnits="userSpaceOnUse" />
  </defs>
  <sodipodi:namedview
     id="base"
     pagecolor="#ffffff"
     bordercolor="#666666"
     borderopacity="1.0"
     inkscape:pageopacity="0.0"
     inkscape:pageshadow="2"
     inkscape:zoom="3.959798"
     inkscape:cx="0.99458884"
     inkscape:cy="37.048091"
     inkscape:document-units="mm"
     inkscape:current-layer="layer1"
     inkscape:document-rotation="0"
     showgrid="false"
     units="px"
     inkscape:window-width="1920"
     inkscape:window-height="992"
     inkscape:window-x="0"
     inkscape:window-y="0"
     inkscape:window-maximized="1" />
  <metadata
     id="metadata5">
    <rdf:RDF>
      <cc:Work
         rdf:about="">
        <dc:format>image/svg+xml</dc:format>
        <dc:type
           rdf:resource="http://purl.org/dc/dcmitype/StillImage" />
        <dc:title></dc:title>
      </cc:Work>
    </rdf:RDF>
  </metadata>
  <g
     inkscape:label="图层 1"
     inkscape:groupmode="layer"
     id="layer1">
    <path
       id="rect3268"
       style="opacity:1;fill:#cc3d00;fill-opacity:1;stroke-width:1.00157;stroke-linecap:round;stroke-linejoin:round;paint-order:stroke fill markers"
       d="M 51.617188 1.8828125 C 51.312799 1.8589449 51.000859 1.8654456 50.685547 1.9042969 L 5.203125 7.5078125 C 2.6806259 7.8186225 0.90012752 10.100548 1.2109375 12.623047 L 6.8144531 58.103516 C 7.1252631 60.626015 9.4071884 62.406513 11.929688 62.095703 L 57.410156 56.492188 C 59.932655 56.181378 61.715107 53.899452 61.404297 51.376953 L 55.798828 5.8964844 C 55.526869 3.6892976 53.747906 2.0498859 51.617188 1.8828125 z "
       transform="scale(0.26458333)" />
    <path
       id="rect3271"
       style="opacity:1;fill:#ff4b00;fill-opacity:1;stroke-width:1.00157;stroke-linecap:round;stroke-linejoin:round;paint-order:stroke fill markers"
       d="M 12.408203 4.1152344 C 9.8666279 4.1152344 7.8203125 6.1615498 7.8203125 8.703125 L 7.8203125 54.529297 C 7.8203125 57.070872 9.8666279 59.117188 12.408203 59.117188 L 58.234375 59.117188 C 60.77595 59.117188 62.820312 57.070872 62.820312 54.529297 L 62.820312 8.703125 C 62.820313 6.1615498 60.77595 4.1152344 58.234375 4.1152344 L 12.408203 4.1152344 z "
       transform="scale(0.26458333)" />
    <g
       id="g902"
       transform="matrix(1.0397196,0,0,1.0397196,-0.11562905,-0.45510299)"
       style="opacity:1">
      <path
         d="m 15.162917,1.5087677 c -0.07611,-0.01549 -0.155034,-0.02362 -0.235855,-0.02361 L 3.2685599,1.4864188 C 2.6219634,1.4864774 2.1013051,2.0067453 2.101318,2.6533271 l 0.00126,11.6585009 c 5.87e-5,0.646597 0.5203805,1.166777 1.1669619,1.166765 l 3.6458736,-1.77e-4 C 10.335155,14.940337 15.330041,12.638102 16.093571,7.1871068 l 0.0014,7.1232922 -7.84e-4,-11.6584479 c -8.5e-5,-0.5657674 -0.398769,-1.0352888 -0.931552,-1.143685 z"
         fill="#fafafa"
         id="path34"
         style="stroke-width:0.961559" />
    </g>
    <g
       transform="matrix(0.26458333,0,0,0.26458333,0.52064656,0.23183223)"
       fill="#fe4802"
       id="g1146">
      <g
         transform="matrix(3.7796,0,0,3.7796,71.69,12.695)"
         id="g1140">
        <path
           d="m -11.078,7.546 -0.38497,-1.2653 h -1.9401 l -0.38614,1.2664 h -1.2147 l 1.8779,-5.3426 h 1.3791 l 1.8849,5.3426 h -1.2159 m -0.65491,-2.2124 c -0.3568,-1.1479 -0.5575,-1.7957 -0.60327,-1.9483 -0.03525,-0.11756 -0.06696,-0.23616 -0.09507,-0.35563 -0.07981,0.31103 -0.30985,1.0786 -0.68778,2.304 h 1.3861"
           fill="#fe4802"
           font-size="24px"
           font-weight="700"
           letter-spacing="0"
           stroke-width="0.86383"
           word-spacing="0"
           id="path1138" />
      </g>
      <g
         transform="translate(1.0847,0.31991)"
         style="font-variant-ligatures:normal;font-variant-caps:normal;font-variant-numeric:normal;font-feature-settings:normal"
         aria-label="a"
         id="g1144">
        <path
           d="m 43.944,33.674 q -2.1354,0 -2.9818,0.54688 -0.84635,0.54688 -0.84635,1.875 0,0.98958 0.58594,1.5755 0.58594,0.58594 1.5885,0.58594 1.5104,0 2.3438,-1.1328 0.83333,-1.1458 0.83333,-3.1901 V 33.674 Z m 5.3125,-1.4714 v 8.3203 h -3.7891 v -1.6276 q -0.6901,0.96354 -1.7708,1.4844 -1.0807,0.52083 -2.3828,0.52083 -2.487,0 -3.8802,-1.3151 -1.3802,-1.3151 -1.3802,-3.6719 0,-2.5521 1.6536,-3.763 1.6536,-1.224 5.1172,-1.224 h 2.6432 v -0.63802 q 0,-0.92448 -0.67708,-1.3932 -0.66406,-0.48177 -1.9661,-0.48177 -1.3672,0 -2.6562,0.35156 -1.276,0.33854 -2.6693,1.0938 v -3.2552 q 1.263,-0.52083 2.5651,-0.76823 1.3021,-0.2474 2.7604,-0.2474 3.5547,0 4.987,1.4453 1.4453,1.4453 1.4453,5.1693 z"
           fill="#fe4802"
           id="path1142" />
      </g>
    </g>
    <path
       id="rect3277"
       style="opacity:1;fill:url(#linearGradient3286);fill-opacity:1;stroke-width:1.00157;stroke-linecap:round;stroke-linejoin:round;paint-order:stroke fill markers"
       d="M 62.816406 26.392578 C 62.816406 26.392578 61.714395 37.971814 50.892578 42.3125 C 41.951597 45.898772 53.276183 52.807929 26.728516 58.976562 C 61.050824 53.05804 63.066406 26.552734 63.066406 26.552734 L 62.816406 26.392578 z "
       transform="scale(0.26458333)" />
  </g>
</svg>
