<?xml version="1.0" encoding="UTF-8"?>
<svg width="64" height="64" version="1.1" viewBox="0 0 16.933 16.933" xmlns="http://www.w3.org/2000/svg" xmlns:cc="http://creativecommons.org/ns#" xmlns:dc="http://purl.org/dc/elements/1.1/" xmlns:rdf="http://www.w3.org/1999/02/22-rdf-syntax-ns#">
 <defs>
  <linearGradient id="linearGradient1978" x1="-59.235" x2="-59.235" y1=".7041" y2="-11.929" gradientTransform="matrix(1.0909 0 0 1.0909 73.314 13.856)" gradientUnits="userSpaceOnUse">
   <stop stop-color="#005ad7" offset="0"/>
   <stop stop-color="#0aaff0" offset="1"/>
  </linearGradient>
  <linearGradient id="linearGradient4832" x1="18.7" x2="24.507" y1="35.259" y2="9.4573" gradientTransform="matrix(.424 0 0 .424 -1.2942 -3.8921)" gradientUnits="userSpaceOnUse">
   <stop stop-color="#c4e7f9" offset="0"/>
   <stop stop-color="#edfafd" offset="1"/>
  </linearGradient>
 </defs>
 <metadata>
  <rdf:RDF>
   <cc:Work rdf:about="">
    <dc:format>image/svg+xml</dc:format>
    <dc:type rdf:resource="http://purl.org/dc/dcmitype/StillImage"/>
    <dc:title/>
   </cc:Work>
  </rdf:RDF>
 </metadata>
 <g transform="translate(-.41577 1.7576)">
  <path d="m16.82 6.709c0 0.95154-0.16748 1.8638-0.47464 2.7095-0.2135 0.58768-0.49438 1.1433-0.83393 1.6572-0.14222 0.21608-0.29514 0.42475-0.45746 0.62528-0.51965 0.64179-1.1372 1.2006-1.8304 1.6542-0.2553 0.16717-0.52064 0.3201-0.79536 0.45712-1.0668 0.53389-2.271 0.83421-3.5456 0.83421-1.2745 0-2.4787-0.30032-3.5456-0.83423-0.27474-0.13705-0.5404-0.28996-0.7957-0.45712-0.70206-0.45973-1.327-1.0274-1.8508-1.6798-0.16262-0.20216-0.31524-0.41275-0.45746-0.63077-0.33047-0.50539-0.6042-1.0507-0.81349-1.627-0.30711-0.84528-0.4743-1.7572-0.4743-2.7085 0-4.3838 3.5537-7.9375 7.9375-7.9375 2.2005 0 4.1917 0.89547 5.6295 2.3416 0.41436 0.41661 0.78274 0.87929 1.0962 1.3794 0.29645 0.47107 0.54427 0.97581 0.73704 1.5068 0.30719 0.84559 0.47466 1.7579 0.47466 2.7095z" fill="url(#linearGradient1978)" stroke-width=".031007"/>
  <path d="m8.8931 1.1982c1.1597 0.00256 2.3356 0.36397 3.2541 1.0793 0.64572 0.74387-0.58466 1.5405-1.1388 0.81519-1.6682-1.0094-4.021-0.654-5.2761 0.85511-0.66778 0.74887-1.044 1.7482-1.0396 2.7514h1.1024l-1.7639 2.6458-1.7639-2.6458h1.1024c-0.035192-2.3952 1.6875-4.6739 4.0004-5.294 0.49609-0.13611 1.0074-0.21243 1.5226-0.20692zm4.8395 2.8663 1.7639 2.6458h-1.1024c0.03125 2.424-1.7355 4.7281-4.0889 5.3158-1.588 0.44347-3.3836 0.11987-4.6888-0.89472-0.66591-0.75631 0.58157-1.5453 1.1409-0.81328 1.6163 0.98062 3.8798 0.66961 5.1555-0.73101 0.73864-0.76108 1.1635-1.816 1.158-2.8769h-1.1024l1.7639-2.6458z" fill="url(#linearGradient4832)" stroke-width=".5586"/>
 </g>
</svg>
