<?xml version="1.0" encoding="UTF-8"?>
<svg width="64" height="64" version="1.1" viewBox="0 0 16.933 16.933" xmlns="http://www.w3.org/2000/svg" xmlns:cc="http://creativecommons.org/ns#" xmlns:dc="http://purl.org/dc/elements/1.1/" xmlns:rdf="http://www.w3.org/1999/02/22-rdf-syntax-ns#">
 <defs>
  <filter id="filter1066-6" x="-.063923" y="-.056531" width="1.1278" height="1.1131" color-interpolation-filters="sRGB">
   <feGaussianBlur stdDeviation="0.22705935"/>
  </filter>
  <filter id="filter1100-7" x="-.12197" y="-.11848" width="1.2439" height="1.237" color-interpolation-filters="sRGB">
   <feGaussianBlur stdDeviation="0.47586465"/>
  </filter>
  <linearGradient id="linearGradient938-3" x1="80.368" x2="82.141" y1="13.177" y2="14.704" gradientTransform="matrix(.96156 0 0 .96156 -61.884 .28327)" gradientUnits="userSpaceOnUse">
   <stop stop-color="#fafafa" offset="0"/>
   <stop stop-color="#90a0b3" offset="1"/>
  </linearGradient>
 </defs>
 <metadata>
  <rdf:RDF>
   <cc:Work rdf:about="">
    <dc:format>image/svg+xml</dc:format>
    <dc:type rdf:resource="http://purl.org/dc/dcmitype/StillImage"/>
    <dc:title/>
   </cc:Work>
  </rdf:RDF>
 </metadata>
 <g transform="translate(-3.3923 -1.9749)">
  <rect transform="rotate(-6.4422)" x="3.5868" y="4.4447" width="13.992" height="13.992" ry="1.1671" fill="#f3f3f3" stroke-width=".96156"/>
  <path d="m15.244 14.785 4.0212-0.45567" fill="none" stroke="#dcdcdc" stroke-width=".17808"/>
  <path d="m17.342 12.411 1.6908-0.1916" fill="none" stroke="#dcdcdc" stroke-width=".17808"/>
  <path transform="matrix(1.0331 0 0 .96964 -41.091 -1.0905)" d="m57.818 9.8288s0.05354 3.0782-2.6636 4.5408c-2.2449 1.2084 0.9386 2.689-5.8599 5.0989 8.8505-2.5748 8.5235-9.6396 8.5235-9.6396z" fill="#141414" filter="url(#filter1066-6)" opacity=".3"/>
  <path transform="matrix(.8359 0 0 .91429 -30.267 -1.0618)" d="m57.594 9.7322c-0.15355 5.725-5.0519 8.6864-8.5234 9.6397l8.2859-0.93608c0.6682-0.07545 1.1451-0.67434 1.0697-1.3425z" fill="#9cb8d7" filter="url(#filter1100-7)" opacity=".2"/>
  <path transform="matrix(1.0038 0 0 .93538 -39.356 -.63975)" d="m57.818 9.8288s0.05354 3.0782-2.6636 4.5408c-2.2449 1.2084 0.9386 2.689-5.8599 5.0989 8.8505-2.5748 8.5235-9.6396 8.5235-9.6396z" fill="#141414" filter="url(#filter1066-6)" opacity=".3"/>
  <path d="m17.053 2.572c-0.07737-0.00686-0.1567-0.00609-0.23702 0.00298l-11.585 1.3083c-0.64251 0.072548-1.1015 0.64791-1.029 1.2904l1.3083 11.585c0.072549 0.64251 0.64791 1.1011 1.2904 1.0286l3.6229-0.40894c3.3379-0.91806 8.0432-3.7658 8.1908-9.268l0.8 7.0782-1.3078-11.585c-0.063481-0.56219-0.51229-0.98406-1.0538-1.032z" fill="#fafafa" stroke-width=".96156"/>
  <path d="m4.875 11.624 13.904-1.5701" fill="none" stroke="#dcdcdc" stroke-width=".17808"/>
  <path d="m5.1837 13.755 10.932-1.2388" fill="none" stroke="#dcdcdc" stroke-width=".17808"/>
  <path d="m18.613 8.0767s0.05148 2.9599-2.5613 4.3663c-2.1586 1.1619 0.90252 2.5857-5.6346 4.9029 8.5103-2.4758 8.2634-9.2353 8.2634-9.2353z" fill="url(#linearGradient938-3)" stroke-width=".96156"/>
  <g fill="none">
   <path d="m5.4 15.948 9.3166-1.0558" stroke="#dcdcdc" stroke-width=".17821"/>
   <path d="m18.614 8.1285s-0.18136 3.0076-2.4096 4.2396c-2.5636 1.4174 0.93317 2.6841-5.8204 4.9777" stroke="#fafafa" stroke-width=".1272"/>
   <path d="m4.6529 9.3982 13.904-1.5701" stroke="#dcdcdc" stroke-width=".17808"/>
   <path d="m5.4 15.949" stroke="#000" stroke-width=".2544px"/>
   <g stroke-width=".17808">
    <path d="m4.4378 7.1983 13.904-1.5701" stroke="#dcdcdc"/>
    <path d="m4.2099 5.1004 13.839-1.5701" stroke="#dcdcdc"/>
    <path d="m8.2692 17.617-1.5701-13.904" stroke="#ff5050"/>
   </g>
  </g>
 </g>
</svg>
