<?xml version="1.0" encoding="UTF-8"?>
<svg width="64" height="64" version="1.1" viewBox="0 0 16.933 16.933" xmlns="http://www.w3.org/2000/svg" xmlns:cc="http://creativecommons.org/ns#" xmlns:dc="http://purl.org/dc/elements/1.1/" xmlns:rdf="http://www.w3.org/1999/02/22-rdf-syntax-ns#" xmlns:xlink="http://www.w3.org/1999/xlink">
 <defs>
  <linearGradient id="a-3-3" x1="32" x2="32" y1="2" y2="62" gradientTransform="matrix(.2646 0 0 .2646 -1.785 3.7078)" gradientUnits="userSpaceOnUse">
   <stop stop-color="#f5faff" offset="0"/>
   <stop stop-color="#cfdef0" offset="1"/>
  </linearGradient>
  <linearGradient id="linearGradient1052" x1="467.2" x2="467.2" y1="771.79" y2="167.5" gradientTransform="matrix(.0099345 0 0 .0099345 1.9847 7.3301)" gradientUnits="userSpaceOnUse">
   <stop stop-color="#306fec" offset="0"/>
   <stop stop-color="#33a5ff" offset="1"/>
  </linearGradient>
  <linearGradient id="linearGradient1054" x1="467.2" x2="485.26" y1="824.94" y2="39.498" gradientTransform="matrix(.0099345 0 0 .0099345 1.9847 7.3301)" gradientUnits="userSpaceOnUse">
   <stop stop-color="#016ed4" offset="0"/>
   <stop stop-color="#00b1ff" offset="1"/>
  </linearGradient>
 </defs>
 <metadata>
  <rdf:RDF>
   <cc:Work rdf:about="">
    <dc:format>image/svg+xml</dc:format>
    <dc:type rdf:resource="http://purl.org/dc/dcmitype/StillImage"/>
    <dc:title/>
   </cc:Work>
  </rdf:RDF>
 </metadata>
 <g transform="translate(1.8517 -3.4936)">
  <circle cx="6.6149" cy="11.96" r="7.9378" fill="url(#a-3-3)" stroke-width=".26459" style="paint-order:stroke markers fill"/>
  <path d="m6.6149 8.9348c-2.0425 0-3.8029 1.2041-4.6116 2.9416-0.024836 0.05265-0.024836 0.11425 0 0.16789 0.80866 1.7375 2.5691 2.9416 4.6116 2.9416 2.0425 0 3.8029-1.2041 4.6116-2.9416 0.02484-0.05265 0.02484-0.11425 0-0.16789-0.80866-1.7375-2.569-2.9416-4.6116-2.9416zm0 5.1133c-1.1534 0-2.0872-0.93484-2.0872-2.0872 0-1.1534 0.93483-2.0872 2.0872-2.0872 1.1534 0 2.0872 0.93483 2.0872 2.0872s-0.93483 2.0872-2.0872 2.0872z" fill="url(#linearGradient1052)" stroke-width=".0099345"/>
  <circle cx="6.6149" cy="11.96" r="1.3362" fill="url(#linearGradient1054)" stroke-width=".0099345"/>
 </g>
</svg>
