<?xml version="1.0" encoding="UTF-8"?>
<svg width="64" height="64" version="1.1" viewBox="0 0 16.933 16.933" xmlns="http://www.w3.org/2000/svg" xmlns:cc="http://creativecommons.org/ns#" xmlns:dc="http://purl.org/dc/elements/1.1/" xmlns:rdf="http://www.w3.org/1999/02/22-rdf-syntax-ns#" xmlns:xlink="http://www.w3.org/1999/xlink">
 <defs>
  <linearGradient id="linearGradient1252" x1="61" x2="32.068" y1="43.34" y2="60.141" gradientTransform="matrix(.26458 0 0 .26458 -2.2786 .0011075)" gradientUnits="userSpaceOnUse">
   <stop stop-color="#ff3aae" offset="0"/>
   <stop stop-color="#ff28c3" stop-opacity=".77647" offset="1"/>
  </linearGradient>
  <linearGradient id="linearGradient1268" x1="3.0098" x2="31.965" y1="43.332" y2="60.158" gradientTransform="matrix(.26458 0 0 .26458 -2.2786 .0011075)" gradientUnits="userSpaceOnUse">
   <stop stop-color="#08a8fe" offset="0"/>
   <stop stop-color="#3785ed" offset="1"/>
  </linearGradient>
  <linearGradient id="linearGradient1260" x1="10.514" x2="32" y1="22.893" y2="60.072" gradientTransform="matrix(.26458 0 0 .26458 -2.2786 .0011075)" gradientUnits="userSpaceOnUse">
   <stop stop-color="#22b959" offset="0"/>
   <stop stop-color="#11ab93" offset="1"/>
  </linearGradient>
  <linearGradient id="linearGradient1244" x1="54.002" x2="31.965" y1="22.158" y2="60.158" gradientTransform="matrix(.26458 0 0 .26458 -2.2786 .0011075)" gradientUnits="userSpaceOnUse">
   <stop stop-color="#ff617e" offset="0"/>
   <stop stop-color="#ff5f80" offset="1"/>
  </linearGradient>
  <linearGradient id="linearGradient1236" x1="31.965" x2="31.965" y1="6.6191" y2="60.371" gradientTransform="matrix(.26458 0 0 .26458 -2.2786 .0011075)" gradientUnits="userSpaceOnUse">
   <stop stop-color="#ffd14f" offset="0"/>
   <stop stop-color="#ffb52e" offset="1"/>
  </linearGradient>
 </defs>
 <metadata>
  <rdf:RDF>
   <cc:Work rdf:about="">
    <dc:format>image/svg+xml</dc:format>
    <dc:type rdf:resource="http://purl.org/dc/dcmitype/StillImage"/>
    <dc:title/>
   </cc:Work>
  </rdf:RDF>
 </metadata>
 <g transform="translate(2.2773 -.36853)">
  <path d="m13.858 11.468c-1.5104-0.02066-3.0429 0.34599-4.4447 1.1576-1.4041 0.8092-2.4902 1.9531-3.2256 3.2716 1.5127 0.02302 3.048-0.33411 4.4545-1.1457 1.4041-0.81156 2.483-1.9644 3.2184-3.2835z" fill="url(#linearGradient1252)"/>
  <path d="m-1.4823 11.466c0.73542 1.3186 1.8236 2.4621 3.2231 3.2737 1.4041 0.8092 2.9375 1.1785 4.4473 1.1555-0.73778-1.3186-1.8166-2.4737-3.2184-3.2835-1.4033-0.8111-2.94-1.1682-4.4519-1.1457z" fill="url(#linearGradient1268)"/>
  <path d="m6.2062 15.913s-1.8466-0.63635-4.5873-3.9314l0.61707 0.2528z" opacity=".2"/>
  <path d="m0.50935 6.0571-0.006202 0.00103c0.00209 0.00116 0.004112 0.00246 0.006202 0.00362 2.169e-5 -0.00153-2.196e-5 -0.0031 0-0.00465zm0 0.00465c-0.026921 1.9397 0.44626 3.907 1.4878 5.7087 1.0423 1.8008 2.5083 3.1955 4.2028 4.1434 0.0301-1.9389-0.43074-3.9149-1.4707-5.718-1.0411-1.8009-2.5186-3.1875-4.2199-4.1341z" fill="url(#linearGradient1260)"/>
  <path d="m6.2062 15.913s1.8466-0.63635 4.5873-3.9314l-0.61707 0.2528z" opacity=".2"/>
  <path d="m12.009 5.8638c-1.727 0.96384-3.2278 2.3885-4.286 4.2235-1.063 1.8397-1.5473 3.8482-1.5172 5.826 1.7294-0.96384 3.2396-2.3785 4.3026-4.2235 1.0612-1.8367 1.5291-3.8484 1.5007-5.826z" fill="url(#linearGradient1244)"/>
  <path d="m6.1769 15.918s-2.1774-2.7242-2.3206-7.0077l0.42723 0.54982z" opacity=".2"/>
  <path d="m6.1769 15.918s2.1774-2.7242 2.3206-7.0077l-0.42723 0.54982z" opacity=".2"/>
  <path d="m6.1788 1.7524c-1.2383 2.0729-1.9534 4.4911-1.9534 7.0828 0 2.5917 0.71508 5.0075 1.9534 7.0828 1.2383-2.0752 1.9735-4.4887 1.9735-7.0828 0-2.5917-0.73523-5.0099-1.9735-7.0828z" fill="url(#linearGradient1236)"/>
 </g>
</svg>
