<?xml version="1.0" encoding="UTF-8"?>
<svg width="64" height="64" version="1.1" viewBox="0 0 16.933 16.933" xmlns="http://www.w3.org/2000/svg" xmlns:cc="http://creativecommons.org/ns#" xmlns:dc="http://purl.org/dc/elements/1.1/" xmlns:rdf="http://www.w3.org/1999/02/22-rdf-syntax-ns#" xmlns:xlink="http://www.w3.org/1999/xlink">
 <defs>
  <linearGradient id="linearGradient936" x1="-26.286" x2="-86.14" y1="2.0268" y2="62.103" gradientTransform="matrix(.26458 0 0 .26458 22.336 2.3529)" gradientUnits="userSpaceOnUse">
   <stop stop-color="#15afff" offset="0"/>
   <stop stop-color="#1560ff" offset="1"/>
  </linearGradient>
 </defs>
 <metadata>
  <rdf:RDF>
   <cc:Work rdf:about="">
    <dc:format>image/svg+xml</dc:format>
    <dc:type rdf:resource="http://purl.org/dc/dcmitype/StillImage"/>
    <dc:title/>
   </cc:Work>
  </rdf:RDF>
 </metadata>
 <g transform="translate(1.1434 -2.3529)">
  <path d="m12.697 2.8511c-0.08053-0.00631-0.16307-0.00459-0.2465 0.00568l-12.033 1.4826c-0.66741 0.082236-1.1385 0.68599-1.0563 1.3534l1.4826 12.033c0.082232 0.66741 0.686 1.1385 1.3534 1.0563l12.033-1.4826c0.66741-0.08223 1.1385-0.686 1.0563-1.3534l-1.4826-12.033c-0.071955-0.58398-0.54316-1.0177-1.1069-1.062z" fill="url(#linearGradient936)" image-rendering="optimizeSpeed" stroke-linecap="round" stroke-width=".52917"/>
  <path d="m4.0597 13.04c0.081748-0.0567 0.20758-0.18296 0.27963-0.28059 0.072047-0.09763 0.15055-0.18015 0.17446-0.18339 0.023913-0.0032 0.089349 0.06027 0.14543 0.14114 0.16578 0.23903 0.3523 0.28907 0.65816 0.17656 0.11263-0.04143 0.3336-0.30559 0.32273-0.38581-0.00246-0.01825-0.075711-0.03489-0.16275-0.03697-0.10766-0.0026-0.19638-0.03836-0.27748-0.11191-0.15671-0.14214-0.19111-0.38878-0.12564-0.90103 0.02691-0.21056 0.043342-0.42409 0.036513-0.4745-0.01537-0.11347-0.18554-0.20042-0.39169-0.20015-0.17753 2.33e-4 -0.16238-0.04569-0.21236 0.64346-0.039833 0.54919-0.11133 0.7388-0.36842 0.977-0.13027 0.1207-0.19165 0.14816-0.39169 0.17526-0.22699 0.030748-0.24475 0.025964-0.41237-0.11112-0.10131-0.082853-0.20474-0.21347-0.24533-0.3098-0.096604-0.22929-0.12225-0.68325-0.052212-0.92436 0.085283-0.29363 0.32898-0.61118 0.60024-0.78216 0.20702-0.13049 0.27421-0.1516 0.62843-0.19742 0.44523-0.0576 0.67142-0.02561 0.93363 0.13202 0.089193 0.05362 0.16908 0.08196 0.17754 0.06298 0.025257-0.056723-0.10387-0.3656-0.20349-0.48673-0.20896-0.25411-0.78119-0.34272-1.3086-0.20266-1.0017 0.26599-1.55 1.1454-1.3995 2.2447 0.094019 0.68812 0.39267 1.1033 0.86965 1.2097 0.17378 0.03876 0.54763-0.05102 0.72518-0.17416zm2.8145-0.33902c0.15575-0.06843 0.3289-0.27375 0.31533-0.37392-0.00722-0.05332-0.04022-0.06771-0.128-0.05582-0.074207 0.01005-0.17139-0.0199-0.26087-0.08041-0.12706-0.085923-0.14803-0.12378-0.19233-0.34725-0.041094-0.20737-0.032543-0.39297 0.049458-1.0714 0.13663-1.1304 0.14023-1.0483-0.04482-1.0221-0.2037 0.028823-0.44685 0.12337-0.47392 0.18417-0.029644 0.066571-0.11365 1.5004-0.10845 1.8511 0.0079 0.53357 0.16261 0.88036 0.42604 0.95502 0.15552 0.04407 0.24728 0.03541 0.41756-0.03939zm5.1095-0.74342c0.15547-0.10683 0.26179-0.28447 0.20881-0.34889-0.01323-0.01609-0.08624-0.02084-0.16223-0.01054-0.09541 0.01293-0.17382-0.0084-0.2534-0.06902-0.10753-0.08187-0.1165-0.10696-0.13415-0.37531-0.01042-0.15816-0.0038-0.47123 0.01474-0.6957 0.039231-0.47564-0.012206-0.77415-0.17596-1.0211-0.25919-0.39091-0.80686-0.29888-1.2224 0.20542-0.11032 0.13387-0.21456 0.23275-0.23166 0.21973-0.017089-0.013015-0.074962-0.095057-0.12859-0.18231-0.25269-0.41112-0.85292-0.33254-1.2448 0.16296-0.16917 0.2139-0.27248 0.26113-0.2899 0.13251-0.015658-0.11558-0.15908-0.27847-0.28461-0.32324-0.32215-0.1149-0.79293 0.1141-0.80239 0.39032-0.00238 0.06929 0.025384 0.08035 0.19343 0.0771 0.38569-0.0075 0.41844 0.11686 0.35997 1.3667-0.025469 0.54443-0.031291 1.0024-0.012938 1.0177 0.018359 0.01531 0.14674 7e-3 0.28532-0.01847l0.25195-0.0463 0.018336-0.20427c0.010091-0.11235 0.029076-0.41213 0.042206-0.66618 0.054771-1.0596 0.36534-1.6708 0.77198-1.5193 0.11778 0.0439 0.22929 0.24763 0.25988 0.4748 0.014039 0.10424 0.00793 0.52789-0.013563 0.94144-0.0215 0.41355-0.036031 0.77498-0.032292 0.8032 0.00507 0.03832 0.078882 0.03853 0.2917 8.47e-4l0.2849-0.05045 0.027886-0.60327c0.03243-0.70142 0.10756-1.1402 0.24623-1.4379 0.22146-0.47549 0.64773-0.50404 0.79862-0.05348 0.05668 0.16925 0.06328 0.42276 0.02436 0.93714-0.03807 0.5032 0.04679 0.8233 0.25454 0.96019 0.17168 0.11312 0.43333 0.08741 0.65407-0.06426zm-5.1792-2.8543c0.27383-0.1623 0.31981-0.4799 0.090983-0.62842-0.21229-0.13779-0.64202-0.017947-0.72395 0.2019-0.053532 0.14364-0.00272 0.34461 0.1061 0.41962 0.17439 0.12022 0.3322 0.12229 0.52687 0.0069z" fill="#fff" fill-opacity=".8" stroke-width=".15223"/>
 </g>
</svg>
