<?xml version="1.0" encoding="UTF-8"?>
<svg width="64" height="64" version="1.1" viewBox="0 0 16.933 16.933" xmlns="http://www.w3.org/2000/svg" xmlns:cc="http://creativecommons.org/ns#" xmlns:dc="http://purl.org/dc/elements/1.1/" xmlns:rdf="http://www.w3.org/1999/02/22-rdf-syntax-ns#" xmlns:xlink="http://www.w3.org/1999/xlink">
 <defs>
  <linearGradient id="linearGradient3204" x1="-47.481" x2="-47.481" y1="7.0535" y2="56.887" gradientTransform="matrix(.26458 0 0 .26458 21.268 -.50591)" gradientUnits="userSpaceOnUse">
   <stop stop-color="#5beaff" offset="0"/>
   <stop stop-color="#7da3ff" offset=".5094"/>
   <stop stop-color="#4076ff" offset="1"/>
  </linearGradient>
  <linearGradient id="linearGradient2579" x1="33.433" x2="33.433" y1="17.521" y2="46.386" gradientTransform="matrix(.26458 0 0 .26458 .55752 -.50596)" gradientUnits="userSpaceOnUse">
   <stop stop-color="#fff" offset="0"/>
   <stop stop-color="#95f1ff" offset="1"/>
  </linearGradient>
 </defs>
 <metadata>
  <rdf:RDF>
   <cc:Work rdf:about="">
    <dc:format>image/svg+xml</dc:format>
    <dc:type rdf:resource="http://purl.org/dc/dcmitype/StillImage"/>
    <dc:title/>
   </cc:Work>
  </rdf:RDF>
 </metadata>
 <g transform="translate(-.55751 .52917)">
  <path d="m2.4044 0.66146c-0.5832 0-1.0532 0.54144-1.0532 1.2139v12.124c0 0.67243 0.46997 1.2139 1.0532 1.2139h7.4197v-5.3e-4h5.8203c0.5832 1.3e-5 1.0526-0.54142 1.0526-1.2139v-12.123c0-0.67243-0.46946-1.2139-1.0526-1.2139h-13.241z" fill="url(#linearGradient3204)" stroke-linecap="round" stroke-width=".26458"/>
  <path d="m9.0243 4.1728c-2.0072 0-3.9029 0.88567-5.2014 2.4305-0.17248 0.20516-0.1458 0.51121 0.05969 0.68367 0.090916 0.076358 0.20126 0.11386 0.3116 0.11386 0.13849 0 0.27599-0.058797 0.37208-0.17302 1.1131-1.3244 2.7382-2.0842 4.4581-2.0842 1.7198 0 3.3447 0.75978 4.4578 2.0839 0.09611 0.11422 0.23357 0.17302 0.37208 0.17302 0.11035 0 0.22121-0.03717 0.31212-0.11386 0.20515-0.17217 0.23164-0.47858 0.05916-0.68341-1.2982-1.5448-3.194-2.4305-5.2012-2.4305zm-2.645e-4 2.0558c-1.4338 0-2.7876 0.63263-3.715 1.7357-0.17247 0.20516-0.14606 0.51121 0.059428 0.68367 0.090913 0.076358 0.20151 0.11412 0.31186 0.11412 0.13849 0 0.27604-0.05906 0.37181-0.17328 0.74197-0.88305 1.8254-1.3894 2.9719-1.3894 1.1465 0 2.2298 0.50638 2.9721 1.3894 0.09611 0.11455 0.23365 0.17328 0.37181 0.17328 0.11035 0 0.22093-0.037433 0.31186-0.11412 0.20547-0.17247 0.23214-0.47883 0.05969-0.68367-0.92772-1.1031-2.2817-1.7357-3.7155-1.7357zm2.645e-4 2.1354c-0.86073 0-1.6734 0.37956-2.2293 1.0413-0.17248 0.20516-0.1458 0.51121 0.05969 0.68367 0.090913 0.07636 0.20151 0.11386 0.31186 0.11386 0.13849 0 0.27604-0.0588 0.37181-0.17302 0.37116-0.4417 0.91287-0.69524 1.4859-0.69524 0.57307 0 1.1145 0.25354 1.4857 0.69524 0.09611 0.11455 0.23364 0.17302 0.37181 0.17302 0.11035 0 0.22121-0.03717 0.31212-0.11386 0.20549-0.17248 0.23189-0.47853 0.05943-0.68367-0.55593-0.66172-1.3683-1.0413-2.229-1.0413zm0.10124 1.8409c-0.42496-0.03083-0.8864 0.26891-0.90087 0.74442 0 0.4413 0.35835 0.79937 0.79963 0.79937s0.79937-0.35807 0.79937-0.79937c-0.059089-0.49643-0.36761-0.72044-0.69813-0.74442z" fill="url(#linearGradient2579)" stroke-width=".01737"/>
 </g>
</svg>
