<?xml version="1.0" encoding="UTF-8"?>
<svg width="64" height="64" version="1.1" viewBox="0 0 16.933 16.933" xmlns="http://www.w3.org/2000/svg" xmlns:cc="http://creativecommons.org/ns#" xmlns:dc="http://purl.org/dc/elements/1.1/" xmlns:rdf="http://www.w3.org/1999/02/22-rdf-syntax-ns#">
 <defs>
  <filter id="filter892" x="-.32659" y="-.033035" width="1.6532" height="1.0661" color-interpolation-filters="sRGB">
   <feGaussianBlur stdDeviation="0.19085032"/>
  </filter>
  <linearGradient id="linearGradient848" x1="-184.75" x2="-170.2" y1="-1.2649" y2="-15.817" gradientTransform="matrix(.87527 0 0 1.0136 164.37 17.141)" gradientUnits="userSpaceOnUse">
   <stop stop-color="#9d6856" offset="0"/>
   <stop stop-color="#c37d64" offset="1"/>
  </linearGradient>
 </defs>
 <metadata>
  <rdf:RDF>
   <cc:Work rdf:about="">
    <dc:format>image/svg+xml</dc:format>
    <dc:type rdf:resource="http://purl.org/dc/dcmitype/StillImage"/>
    <dc:title/>
   </cc:Work>
  </rdf:RDF>
 </metadata>
 <g transform="matrix(.9312 0 0 .9312 .58231 .58245)">
  <rect transform="rotate(-7.3375)" x=".11039" y="1.9957" width="12.736" height="14.75" ry="1.2302" fill="#754635" stroke-width=".94184"/>
  <g stroke-width=".9352">
   <rect x="14.879" y="2.0006" width="1.5433" height="3.1033" ry=".24236" fill="#f0f0f0"/>
   <rect x="14.879" y="5.2886" width="1.5433" height="3.1033" ry=".24236" fill="#00bee6"/>
   <rect x="14.879" y="8.5766" width="1.5433" height="3.1033" ry=".24236" fill="#3cc346"/>
   <rect x="14.879" y="11.865" width="1.5433" height="3.1033" ry=".24236" fill="#ff9600"/>
  </g>
  <rect transform="matrix(.9352 0 0 .9352 -9.2088 .49082)" x="25.223" y="1.6144" width="1.4025" height="13.866" ry=".276" filter="url(#filter892)" opacity=".5"/>
  <rect x="2.6652" y="1.1091" width="12.736" height="14.75" ry="1.2302" fill="url(#linearGradient848)" stroke-width=".94184"/>
  <path d="m9.1178 4.7627c-2.0072 0-3.7034 1.5766-3.7034 3.5647 0 1.4237 1.8745 2.3736 3.4563 2.3736 1.1187 0 2.1134-0.4907 2.7898-1.2706-0.27837 1.3033-1.2376 2.3449-2.4905 2.7403 2.0301-0.02531 3.6528-1.6659 3.6528-3.7034 0-2.0541-1.6505-3.7034-3.7034-3.7034" fill="#fff" stroke-width=".26458"/>
 </g>
</svg>
