<?xml version="1.0" encoding="UTF-8"?>
<svg width="64" height="64" version="1.1" viewBox="0 0 16.933 16.933" xmlns="http://www.w3.org/2000/svg" xmlns:cc="http://creativecommons.org/ns#" xmlns:dc="http://purl.org/dc/elements/1.1/" xmlns:rdf="http://www.w3.org/1999/02/22-rdf-syntax-ns#">
 <defs>
  <linearGradient id="linearGradient2670-5" x1="115.54" x2="116.74" y1="32.849" y2="19.81" gradientTransform="matrix(1 0 0 1 -113.61 -17.535)" gradientUnits="userSpaceOnUse">
   <stop stop-color="#fe6f06" offset="0"/>
   <stop stop-color="#ff9002" offset="1"/>
  </linearGradient>
  <linearGradient id="linearGradient938-3-6" x1="80.368" x2="82.141" y1="13.177" y2="14.704" gradientTransform="matrix(.99327 .11114 -.11114 .99327 -64.444 -11.23)" gradientUnits="userSpaceOnUse">
   <stop stop-color="#fee2a2" offset="0"/>
   <stop stop-color="#f0a602" offset="1"/>
  </linearGradient>
  <linearGradient id="linearGradient3181" x1="121.63" x2="121.63" y1="9.125" y2="6.4109" gradientTransform="matrix(1.9521 0 0 1.9521 -230.02 -10.703)" gradientUnits="userSpaceOnUse">
   <stop stop-color="#fe650b" offset="0"/>
   <stop stop-color="#fe8e00" offset="1"/>
  </linearGradient>
 </defs>
 <metadata>
  <rdf:RDF>
   <cc:Work rdf:about="">
    <dc:format>image/svg+xml</dc:format>
    <dc:type rdf:resource="http://purl.org/dc/dcmitype/StillImage"/>
    <dc:title/>
   </cc:Work>
  </rdf:RDF>
 </metadata>
 <g transform="matrix(.90531 0 0 .90531 -.30444 1.5103)">
  <rect transform="rotate(-6.4422)" x="1.2258" y="1.4166" width="14.552" height="14.552" ry="1.2138" fill="url(#linearGradient2670-5)"/>
  <rect transform="rotate(-.057549)" x="3.2505" y=".25027" width="14.544" height="14.544" ry="1.2131" fill="#fe9001" stroke-width=".99946"/>
  <path d="m16.836 0.25871c-0.079201-0.01604-0.16115-0.02441-0.24517-0.02431l-12.118 0.01239c-0.67209 6.4029e-4 -1.2127 0.54195-1.2121 1.214l0.0124 12.118c6.403e-4 0.6721 0.542 1.2122 1.214 1.2116l3.7896-0.0036c3.5541-0.5625 8.7437-2.9602 9.5319-8.6267l8e-3 7.4041-0.012-12.118c-0.001006-0.58806-0.41542-1.0757-0.96933-1.1879z" fill="#fafafa" stroke-width=".99946"/>
  <g fill="#cdcdcd">
   <rect x="11.5" y="9.2284" width="4.2095" height=".51449" ry=".20928" style="paint-order:stroke fill markers"/>
   <rect x="11.5" y="10.334" width="4.2095" height=".51449" ry=".20928" style="paint-order:stroke fill markers"/>
   <rect x="11.5" y="11.439" width="3.0354" height=".51449" ry=".20928" style="paint-order:stroke fill markers"/>
  </g>
  <path d="m17.806 6.1251s-0.28892 3.0633-3.1504 4.2143c-2.3641 0.95075 0.63344 2.7752-6.387 4.4132 9.0771-1.5737 9.6033-8.5847 9.6033-8.5847z" fill="url(#linearGradient938-3-6)" stroke-width=".99946"/>
  <g fill="#cdcdcd">
   <rect x="11.5" y="2.9978" width="4.2095" height=".51449" ry=".20928" style="paint-order:stroke fill markers"/>
   <rect x="11.5" y="4.1028" width="4.2095" height=".51449" ry=".20928" style="paint-order:stroke fill markers"/>
   <rect x="11.5" y="5.2078" width="3.0354" height=".51449" ry=".20928" style="paint-order:stroke fill markers"/>
  </g>
  <circle cx="7.4675" cy="4.4577" r="2.648" fill="url(#linearGradient3181)" stroke-width="1.9522" style="paint-order:stroke fill markers"/>
  <path d="m5.436 3.7465c0.18668-0.18668 0.39055-0.34224 0.61161-0.4667 0.22106-0.12445 0.45114-0.21779 0.69022-0.28001 0.23908-0.06223 0.48226-0.093345 0.72954-0.093356 0.24726 4.3e-6 0.49043 0.031118 0.72951 0.09334 0.23908 0.062251 0.46916 0.15558 0.69022 0.28004 0.22106 0.12444 0.42492 0.28001 0.61161 0.4667 0.058952 0.058952 0.088416 0.13016 0.088426 0.21369 1.24e-5 0.083526-0.02948 0.15473-0.088429 0.21369-0.058954 0.058954-0.13017 0.08844-0.2137 0.088448-0.083505-8.7e-6 -0.15473-0.02948-0.21369-0.088429-0.14739-0.14739-0.30869-0.27019-0.4839-0.36846-0.1752-0.098234-0.35698-0.17192-0.54531-0.22105-0.18832-0.04913-0.37989-0.073705-0.57478-0.073692-0.19487 3.2e-6 -0.38645 0.024559-0.57478 0.073689-0.18831 0.049128-0.37007 0.12281-0.54531 0.22106-0.17522 0.09825-0.33652 0.22106-0.4839 0.36843-0.058949 0.058949-0.13018 0.088426-0.2137 0.088426-0.083516-8e-7 -0.15475-0.029477-0.2137-0.088426-0.058952-0.058952-0.088429-0.13018-0.088426-0.2137 0-0.083508 0.029475-0.15474 0.088426-0.21369zm0.80812 0.80812c0.16867-0.16867 0.35944-0.29475 0.57232-0.37827 0.21288-0.083513 0.42984-0.12527 0.6509-0.12527 0.22108-2e-7 0.43804 0.041749 0.6509 0.12526 0.2129 0.083526 0.40365 0.2096 0.57232 0.37827 0.058952 0.058952 0.088413 0.13016 0.088429 0.21369 0 0.083516-0.02948 0.15473-0.088447 0.2137-0.058949 0.058949-0.13017 0.088434-0.21369 0.088429-0.083513 3e-7 -0.15474-0.029472-0.21369-0.088424-0.10972-0.10972-0.23376-0.192-0.37214-0.24686-0.13837-0.054856-0.27961-0.082286-0.4237-0.082283-0.14411-3.7e-6 -0.28535 0.027424-0.4237 0.082283-0.13836 0.054864-0.26241 0.13715-0.37211 0.24687-0.058949 0.058949-0.13018 0.088429-0.21369 0.088429-0.083518-3.9e-6 -0.15475-0.02948-0.2137-0.088429-0.058952-0.058952-0.088426-0.13018-0.088426-0.2137-7.7e-6 -0.083521 0.029467-0.15475 0.088418-0.2137zm1.5155 0.72951c0.042579 0.042579 0.074102 0.089649 0.09457 0.14124 0.020481 0.051594 0.030705 0.10439 0.030708 0.15844-1.2e-5 0.054025-0.010649 0.10725-0.031933 0.15966-0.021291 0.052398-0.052411 0.09906-0.09335 0.14-0.042574 0.042574-0.089649 0.074102-0.14122 0.094578-0.051578 0.020476-0.10441 0.030689-0.15843 0.030705-0.054038 8e-7 -0.10685-0.010234-0.15844-0.030708-0.051583-0.020476-0.098661-0.051993-0.14124-0.094573-0.040926-0.040926-0.072051-0.087598-0.093324-0.13999-0.021304-0.052417-0.031943-0.10563-0.031935-0.15966 3e-7 -0.054039 0.010239-0.10684 0.030702-0.15843 0.020473-0.051575 0.051991-0.098661 0.094567-0.14123 0.040939-0.040939 0.087611-0.072049 0.14001-0.09334 0.052403-0.021283 0.10562-0.03193 0.15966-0.03193 0.054031-8.2e-6 0.10726 0.010644 0.15966 0.031935 0.052393 0.02128 0.09906 0.052388 0.13999 0.093321z" fill="#fff" stroke-width=".13791"/>
  <path d="m5.436 9.9365c0.18668-0.18668 0.39055-0.34224 0.61161-0.4667 0.22106-0.12445 0.45114-0.21779 0.69022-0.28001 0.23908-0.06223 0.48226-0.093345 0.72954-0.093356 0.24726 4.3e-6 0.49043 0.031118 0.72951 0.09334 0.23908 0.062251 0.46916 0.15558 0.69022 0.28004 0.22106 0.12444 0.42492 0.28001 0.61161 0.4667 0.058952 0.058952 0.088416 0.13016 0.088426 0.21369 1.24e-5 0.08353-0.02948 0.15473-0.088429 0.21368-0.058954 0.05896-0.13017 0.08844-0.2137 0.08845-0.083505-9e-6 -0.15473-0.02948-0.21369-0.08843-0.14739-0.14739-0.30869-0.27019-0.4839-0.36846-0.1752-0.098234-0.35698-0.17192-0.54531-0.22105-0.18832-0.04913-0.37989-0.073705-0.57478-0.073692-0.19487 3.2e-6 -0.38645 0.024559-0.57478 0.073689-0.18831 0.049128-0.37007 0.12281-0.54531 0.22106-0.17522 0.098251-0.33652 0.22106-0.4839 0.36843-0.058949 0.05895-0.13018 0.08843-0.2137 0.08843-0.083516-1e-6 -0.15475-0.02948-0.2137-0.08843-0.058952-0.05895-0.088429-0.13018-0.088426-0.2137 0-0.08351 0.029475-0.15474 0.088426-0.21369zm0.80812 0.80812c0.16867-0.16867 0.35944-0.29475 0.57232-0.37828 0.21288-0.08351 0.42984-0.12527 0.6509-0.12527 0.22108-1e-6 0.43804 0.04175 0.6509 0.12526 0.2129 0.08353 0.40365 0.2096 0.57232 0.37828 0.058952 0.05895 0.088413 0.13016 0.088429 0.21368 0 0.08352-0.02948 0.15473-0.088447 0.2137-0.058949 0.05895-0.13017 0.08844-0.21369 0.08843-0.083513 1e-6 -0.15474-0.02947-0.21369-0.08842-0.10972-0.10972-0.23376-0.192-0.37214-0.24686-0.13837-0.05486-0.27961-0.08229-0.4237-0.08228-0.14411-3e-6 -0.28535 0.02742-0.4237 0.08228-0.13836 0.05486-0.26241 0.13715-0.37211 0.24687-0.058949 0.05895-0.13018 0.08843-0.21369 0.08843-0.083518-4e-6 -0.15475-0.02948-0.2137-0.08843-0.058952-0.05895-0.088426-0.13018-0.088426-0.2137-7.7e-6 -0.08352 0.029467-0.15476 0.088418-0.2137zm1.5155 0.72951c0.042579 0.04258 0.074102 0.08965 0.09457 0.14124 0.020481 0.05159 0.030705 0.10439 0.030708 0.15844-1.2e-5 0.05402-0.010649 0.10725-0.031933 0.15966-0.021291 0.0524-0.052411 0.09906-0.09335 0.14-0.042574 0.04258-0.089649 0.0741-0.14122 0.09458-0.051578 0.02048-0.10441 0.03069-0.15843 0.03071-0.054038 1e-6 -0.10685-0.01023-0.15844-0.03071-0.051583-0.02048-0.098661-0.05199-0.14124-0.09457-0.040926-0.04093-0.072051-0.0876-0.093324-0.13999-0.021304-0.05242-0.031943-0.10563-0.031935-0.15966 3e-7 -0.05404 0.010239-0.10684 0.030702-0.15843 0.020473-0.05157 0.051991-0.09866 0.094567-0.14124 0.040939-0.04094 0.087611-0.07205 0.14001-0.09334 0.052403-0.02128 0.10562-0.03193 0.15966-0.03193 0.054031-9e-6 0.10726 0.01064 0.15966 0.03194 0.052393 0.02128 0.09906 0.05239 0.13999 0.09332z" fill="#cdcdcd" stroke-width=".13791"/>
 </g>
</svg>
