<?xml version="1.0" encoding="UTF-8"?>
<svg width="64" height="64" version="1.1" viewBox="0 0 16.933 16.933" xmlns="http://www.w3.org/2000/svg" xmlns:cc="http://creativecommons.org/ns#" xmlns:dc="http://purl.org/dc/elements/1.1/" xmlns:rdf="http://www.w3.org/1999/02/22-rdf-syntax-ns#" xmlns:xlink="http://www.w3.org/1999/xlink">
 <defs>
  <linearGradient id="linearGradient997" x1="35.909" x2="28.985" y1="62.323" y2="1.9703" gradientTransform="matrix(.26458 0 0 .26458 -.24813 1.7564)" gradientUnits="userSpaceOnUse">
   <stop stop-color="#3aa315" offset="0"/>
   <stop stop-color="#aeeb51" offset="1"/>
  </linearGradient>
 </defs>
 <metadata>
  <rdf:RDF>
   <cc:Work rdf:about="">
    <dc:format>image/svg+xml</dc:format>
    <dc:type rdf:resource="http://purl.org/dc/dcmitype/StillImage"/>
    <dc:title/>
   </cc:Work>
  </rdf:RDF>
 </metadata>
 <g transform="translate(.24813 -1.7564)">
  <path d="m13.592 2.2546c-0.08054-0.00632-0.16307-0.0046-0.2465 0.00568l-12.033 1.4826c-0.66741 0.082235-1.1385 0.68599-1.0563 1.3534l1.4826 12.033c0.082235 0.66741 0.68599 1.1385 1.3534 1.0563l12.033-1.4826c0.66741-0.08224 1.1385-0.686 1.0563-1.3534l-1.4826-12.033c-0.071956-0.58398-0.54316-1.0177-1.1069-1.062z" fill="url(#linearGradient997)" image-rendering="optimizeSpeed"/>
  <path d="m12.723 12.621-3.0245-4.118-0.36824-2.6522c-0.034656-0.2496-0.27109-0.41957-0.52049-0.38494l-2.4562 0.34103c-0.2496 0.034656-0.42737 0.26213-0.39271 0.51174l0.36824 2.6522-1.7903 4.7865c-0.13656 0.36494-0.070083 0.77584 0.17354 1.0802 0.24357 0.30397 0.63033 0.45901 1.0162 0.40543l6.2532-0.86821c0.38586-0.05357 0.71656-0.30822 0.8681-0.66705 0.15128-0.3592 0.1041-0.77278-0.12672-1.0867zm-3.9536-1.3496c0.21564-0.02994 0.41453 0.12045 0.44447 0.3361 0.029912 0.21544-0.12086 0.41458-0.33609 0.44447-0.21544 0.02991-0.41456-0.12066-0.44447-0.33609-0.029856-0.21504 0.12045-0.41453 0.33609-0.44447zm-1.4233-2.1943c0.21564-0.02994 0.41456 0.12065 0.4445 0.33629 0.029912 0.21544-0.12045 0.41453-0.33609 0.44447-0.21564 0.02994-0.41456-0.12066-0.44447-0.33609-0.029739-0.21567 0.12043-0.41473 0.33607-0.44467zm0.18918 1.3626c0.34929-0.0485 0.67199 0.19553 0.72046 0.54461 0.048495 0.34928-0.19555 0.67179-0.54484 0.72029-0.34948 0.04852-0.67197-0.19533-0.72046-0.54461-0.048496-0.34928 0.19536-0.67176 0.54484-0.72029zm4.0836 2.7402c-0.06199 0.14954-0.19918 0.25175-0.35895 0.27394l-5.0879 0.70642c-0.15997 0.022211-0.31962-0.03879-0.42001-0.16578-0.10039-0.12699-0.12604-0.2955-0.067747-0.44658l0.45892-1.1842c0.0654-0.16927 0.22493-0.28319 0.40616-0.29094 0.82286-0.03538 1.8321 0.53263 2.6436 0.38842 0.43459-0.07734 0.81805-0.29282 1.1748-0.55927 0.20131-0.15086 0.4866-0.10996 0.63783 0.09109l0.55706 0.73834c0.09688 0.12974 0.11836 0.29923 0.05634 0.44857z" fill="#fff" fill-opacity=".85081" stroke-width=".2029"/>
 </g>
</svg>
