<?xml version="1.0" encoding="UTF-8" standalone="no"?>
<svg
   xmlns:dc="http://purl.org/dc/elements/1.1/"
   xmlns:cc="http://creativecommons.org/ns#"
   xmlns:rdf="http://www.w3.org/1999/02/22-rdf-syntax-ns#"
   xmlns:svg="http://www.w3.org/2000/svg"
   xmlns="http://www.w3.org/2000/svg"
   xmlns:xlink="http://www.w3.org/1999/xlink"
   xmlns:sodipodi="http://sodipodi.sourceforge.net/DTD/sodipodi-0.dtd"
   xmlns:inkscape="http://www.inkscape.org/namespaces/inkscape"
   width="64"
   height="64"
   version="1.1"
   id="svg73"
   sodipodi:docname="alevt.svg"
   inkscape:version="1.0.1 (3bc2e813f5, 2020-09-07)">
  <sodipodi:namedview
     pagecolor="#ffffff"
     bordercolor="#666666"
     borderopacity="1"
     objecttolerance="10"
     gridtolerance="10"
     guidetolerance="10"
     inkscape:pageopacity="0"
     inkscape:pageshadow="2"
     inkscape:window-width="1920"
     inkscape:window-height="932"
     id="namedview75"
     showgrid="false"
     inkscape:zoom="2.9882813"
     inkscape:cx="8.8150492"
     inkscape:cy="44.786165"
     inkscape:window-x="0"
     inkscape:window-y="36"
     inkscape:window-maximized="1"
     inkscape:current-layer="svg73" />
  <metadata
     id="metadata2">
    <rdf:RDF>
      <cc:Work
         rdf:about="">
        <dc:format>image/svg+xml</dc:format>
        <dc:type
           rdf:resource="http://purl.org/dc/dcmitype/StillImage" />
        <dc:title></dc:title>
      </cc:Work>
    </rdf:RDF>
  </metadata>
  <defs
     id="defs29">
    <filter
       id="e"
       x="-.051381"
       y="-.072094"
       width="1.1028"
       height="1.1442"
       color-interpolation-filters="sRGB">
      <feGaussianBlur
         stdDeviation="13.101814"
         id="feGaussianBlur4" />
    </filter>
    <linearGradient
       id="linearGradient5953"
       x1="31.955"
       x2="31.955"
       y1="61.868"
       y2="2.2585"
       gradientUnits="userSpaceOnUse">
      <stop
         stop-color="#0073ff"
         offset="0"
         id="stop7" />
      <stop
         stop-color="#2ab7ff"
         offset="1"
         id="stop9" />
    </linearGradient>
    <linearGradient
       id="linearGradient5957"
       x1="31.955"
       x2="31.955"
       y1="61.868"
       y2="2.2585"
       gradientTransform="matrix(.91667 0 0 .91667 2.6667 2.6667)"
       gradientUnits="userSpaceOnUse">
      <stop
         stop-color="#e8e8e8"
         offset="0"
         id="stop12" />
      <stop
         stop-color="#fff"
         offset="1"
         id="stop14" />
    </linearGradient>
    <style
       type="text/css"
       id="style17" />
    <style
       type="text/css"
       id="style19" />
    <linearGradient
       id="linearGradient6094"
       x1="511.98"
       x2="511.98"
       y1="872.5"
       y2="154.58"
       gradientUnits="userSpaceOnUse">
      <stop
         stop-color="#0074ff"
         offset="0"
         id="stop21" />
      <stop
         stop-color="#2ab6ff"
         offset="1"
         id="stop23" />
    </linearGradient>
    <filter
       id="filter6116"
       x="-.04097"
       y="-.057942"
       width="1.0819"
       height="1.1159"
       color-interpolation-filters="sRGB">
      <feGaussianBlur
         stdDeviation="17.479526"
         id="feGaussianBlur26" />
    </filter>
    <linearGradient
       id="linearGradient5953-3"
       x1="31.955"
       x2="31.955"
       y1="61.868"
       y2="2.2585001"
       gradientUnits="userSpaceOnUse"
       gradientTransform="translate(-4.7900391e-6)">
      <stop
         stop-color="#0073ff"
         offset="0"
         id="stop893" />
      <stop
         stop-color="#2ab7ff"
         offset="1"
         id="stop895" />
    </linearGradient>
    <linearGradient
       id="linearGradient5957-6"
       x1="31.955"
       x2="31.955"
       y1="61.868"
       y2="2.2585001"
       gradientTransform="matrix(0.91667,0,0,0.91667,2.6666952,2.6666983)"
       gradientUnits="userSpaceOnUse">
      <stop
         stop-color="#e8e8e8"
         offset="0"
         id="stop898" />
      <stop
         stop-color="#fff"
         offset="1"
         id="stop900" />
    </linearGradient>
    <linearGradient
       inkscape:collect="always"
       xlink:href="#linearGradient1249"
       id="linearGradient1251"
       x1="-51.86195"
       y1="14.803358"
       x2="-51.86195"
       y2="49.019745"
       gradientUnits="userSpaceOnUse"
       gradientTransform="translate(83.715825)" />
    <linearGradient
       inkscape:collect="always"
       id="linearGradient1249">
      <stop
         style="stop-color:#2ab7ff;stop-opacity:1"
         offset="0"
         id="stop1245" />
      <stop
         style="stop-color:#0073ff;stop-opacity:0.99419159"
         offset="1"
         id="stop1247" />
    </linearGradient>
  </defs>
  <circle
     cx="32"
     cy="32"
     r="30"
     fill="url(#linearGradient5953)"
     id="circle917"
     style="fill:url(#linearGradient5953-3)" />
  <circle
     cx="32"
     cy="32"
     r="27.5"
     fill="url(#linearGradient5957)"
     id="circle935"
     style="fill:url(#linearGradient5957-6)" />
  <path
     id="rect1241"
     style="opacity:1;fill:url(#linearGradient1251);fill-opacity:1;stroke-linecap:round"
     d="m 23.477535,14.957031 -2.1289,2.13086 6.46484,6.46289 c -4.02496,0.141202 -7.86653,0.483897 -11.42969,0.996094 -0.91641,3.585721 -1.42578,7.547525 -1.42578,11.712891 0,4.165353 0.50957,8.127234 1.42578,11.71289 4.78121,0.687417 10.06134,1.070313 15.61524,1.070313 5.55388,0 10.83806,-0.382896 15.61914,-1.070313 0.91649,-3.585656 1.42383,-7.547537 1.42383,-11.71289 0,-4.165366 -0.50734,-8.12717 -1.42383,-11.712891 -2.9559,-0.424994 -6.10352,-0.733035 -9.38867,-0.90625 l 5.48633,-5.488281 -2.13086,-2.128906 -7.47266,7.472656 c -0.6992,-0.0118 -1.40477,-0.01758 -2.11328,-0.01758 z m 8.52149,12.783203 c 4.16522,0 8.12912,0.252726 11.71484,0.710938 0.68755,2.390433 1.06641,5.031578 1.06641,7.808594 0,2.77695 -0.379,5.416208 -1.06641,7.80664 -3.58585,0.458213 -7.54949,0.714844 -11.71484,0.714844 -4.16544,0 -8.12522,-0.256631 -11.71094,-0.714844 -0.68728,-2.390432 -1.07031,-5.02969 -1.07031,-7.80664 0,-2.777016 0.38297,-5.418161 1.07031,-7.808594 3.58572,-0.458212 7.5455,-0.710938 11.71094,-0.710938 z" />
</svg>
