<?xml version="1.0" encoding="UTF-8" standalone="no"?>
<svg
   xmlns:dc="http://purl.org/dc/elements/1.1/"
   xmlns:cc="http://creativecommons.org/ns#"
   xmlns:rdf="http://www.w3.org/1999/02/22-rdf-syntax-ns#"
   xmlns:svg="http://www.w3.org/2000/svg"
   xmlns="http://www.w3.org/2000/svg"
   xmlns:xlink="http://www.w3.org/1999/xlink"
   xmlns:sodipodi="http://sodipodi.sourceforge.net/DTD/sodipodi-0.dtd"
   xmlns:inkscape="http://www.inkscape.org/namespaces/inkscape"
   height="64"
   width="64"
   version="1.1"
   id="svg24"
   sodipodi:docname="almanah.svg"
   inkscape:version="1.0.1 (3bc2e813f5, 2020-09-07)">
  <metadata
     id="metadata30">
    <rdf:RDF>
      <cc:Work
         rdf:about="">
        <dc:format>image/svg+xml</dc:format>
        <dc:type
           rdf:resource="http://purl.org/dc/dcmitype/StillImage" />
        <dc:title></dc:title>
      </cc:Work>
    </rdf:RDF>
  </metadata>
  <defs
     id="defs28">
    <linearGradient
       inkscape:collect="always"
       id="linearGradient1015">
      <stop
         style="stop-color:#ffffff;stop-opacity:1"
         offset="0"
         id="stop1011" />
      <stop
         style="stop-color:#bedbf4;stop-opacity:1"
         offset="1"
         id="stop1013" />
    </linearGradient>
    <style
       type="text/css"
       id="style857" />
    <linearGradient
       id="linearGradient1670"
       x1="-409.54001"
       x2="-369.54001"
       y1="60.157001"
       y2="60.157001"
       gradientTransform="rotate(7.0662,93.375,48.682)"
       gradientUnits="userSpaceOnUse">
      <stop
         stop-color="#e3e9f2"
         offset="0"
         id="stop859" />
      <stop
         stop-color="#dee6f0"
         offset="1"
         id="stop861" />
    </linearGradient>
    <linearGradient
       id="linearGradient1678"
       x1="-408.97"
       x2="-369.54001"
       y1="13.673"
       y2="51.727001"
       gradientTransform="rotate(7.0662,93.375,48.682)"
       gradientUnits="userSpaceOnUse">
      <stop
         stop-color="#63b3f3"
         offset="0"
         id="stop864" />
      <stop
         stop-color="#4097de"
         offset="1"
         id="stop866" />
    </linearGradient>
    <linearGradient
       id="linearGradient1083"
       x1="8.4189997"
       x2="9.6578999"
       y1="13.974"
       y2="4.5462999"
       gradientUnits="userSpaceOnUse">
      <stop
         stop-color="#a4cdef"
         offset="0"
         id="stop869" />
      <stop
         stop-color="#fff"
         offset="1"
         id="stop871" />
    </linearGradient>
    <linearGradient
       id="linearGradient1117"
       x1="-8.5078001"
       x2="-7.7441001"
       y1="13.298"
       y2="12.231"
       gradientTransform="matrix(3.779602,0,0,3.779602,49.324154,1.4051853)"
       gradientUnits="userSpaceOnUse">
      <stop
         stop-color="#20bb00"
         offset="0"
         id="stop874" />
      <stop
         stop-color="#4dd308"
         offset="1"
         id="stop876" />
    </linearGradient>
    <linearGradient
       inkscape:collect="always"
       xlink:href="#linearGradient1015"
       id="linearGradient1017"
       x1="60.265678"
       y1="17.238964"
       x2="57.762478"
       y2="41.719414"
       gradientUnits="userSpaceOnUse"
       gradientTransform="rotate(-0.63593552,-137.18819,2280.9418)" />
  </defs>
  <sodipodi:namedview
     pagecolor="#ffffff"
     bordercolor="#666666"
     borderopacity="1"
     objecttolerance="10"
     gridtolerance="10"
     guidetolerance="10"
     inkscape:pageopacity="0"
     inkscape:pageshadow="2"
     inkscape:window-width="1920"
     inkscape:window-height="932"
     id="namedview26"
     showgrid="false"
     inkscape:zoom="7.96875"
     inkscape:cx="17.954763"
     inkscape:cy="28.683033"
     inkscape:window-x="0"
     inkscape:window-y="36"
     inkscape:window-maximized="1"
     inkscape:current-layer="svg24" />
  <linearGradient
     id="a"
     gradientTransform="matrix(0.35600994,0,0,0.35122349,456.33146,-94.98094)"
     gradientUnits="userSpaceOnUse"
     x1="-989.66583"
     x2="-1003.6364"
     y1="433.28394"
     y2="317.35452">
    <stop
       offset="0"
       stop-color="#f2b333"
       id="stop2" />
    <stop
       offset="1"
       stop-color="#fcde3f"
       id="stop4" />
  </linearGradient>
  <linearGradient
     id="b"
     gradientTransform="matrix(0.35549809,0,0,0.35079564,464.76522,-4.8077322)"
     gradientUnits="userSpaceOnUse"
     x1="-1092.9117"
     x2="-1060.2551"
     y1="203.09911"
     y2="104.85291">
    <stop
       offset="0"
       stop-color="#e53838"
       id="stop7" />
    <stop
       offset="1"
       stop-color="#f77"
       id="stop9" />
  </linearGradient>
  <text
     x="-4.9240799"
     y="16.420322"
     id="text14"><tspan
       x="-4.9240799"
       y="16.420322"
       id="tspan12" /></text>
  <g
     fill="#5e4aa6"
     id="g889"
     transform="matrix(3.779602,0,0,3.779602,0.01924551,-0.00124244)">
    <circle
       cx="-330.35001"
       cy="-328.38"
       r="0"
       stroke-width="0.26458"
       id="circle881" />
    <circle
       cx="-39.433998"
       cy="6.4400001"
       r="0"
       fill-rule="evenodd"
       stroke-width="0.26458"
       id="circle883" />
    <circle
       cx="-330.38"
       cy="-328.5"
       r="0"
       stroke-width="0.26458"
       id="circle885" />
    <circle
       cx="-301.70001"
       cy="-344.42999"
       r="0"
       stroke-width="0.26458"
       id="circle887" />
  </g>
  <g
     transform="matrix(1.0000071,0,0,1.0000071,417.85425,50.040688)"
     id="g899">
    <rect
       x="-409.54001"
       y="-45.530998"
       width="40"
       height="55"
       ry="3.4926"
       fill="#2378b9"
       id="rect891" />
    <g
       transform="translate(-0.050847,0.22034)"
       id="g897">
      <path
         d="m -366.4,-5.2429 -39.696,-4.9207 -1.6446,13.268 c -0.23803,1.9202 1.1158,3.6572 3.0361,3.8953 l 32.765,4.0615 c 1.9202,0.23803 3.6572,-1.1158 3.8952,-3.0361 z"
         fill="url(#linearGradient1670)"
         id="path893"
         style="fill:url(#linearGradient1670)" />
      <path
         d="m -397.94,-47.583 c -1.9202,-0.23803 -3.6572,1.1158 -3.8953,3.0361 l -4.2621,34.383 39.696,4.9207 4.2621,-34.383 c 0.23803,-1.9202 -1.1158,-3.6572 -3.036,-3.8953 z"
         fill="url(#linearGradient1678)"
         id="path895"
         style="fill:url(#linearGradient1678)" />
    </g>
  </g>
  <circle
     cx="-1274.8405"
     cy="-1318.0619"
     r="0"
     fill="#5e4aa6"
     stroke-width="1.00001"
     id="circle901" />
  <g
     transform="matrix(3.779602,0,0,3.779602,-112.84345,-73.605212)"
     fill="#5e4aa6"
     image-rendering="optimizeSpeed"
     stroke-width="0.26458"
     id="g911">
    <circle
       cx="-330.35001"
       cy="-328.38"
       r="0"
       id="circle903" />
    <circle
       cx="-312.10999"
       cy="-326.25"
       r="0"
       id="circle905" />
    <circle
       cx="-306.01999"
       cy="-333.07001"
       r="0"
       id="circle907" />
    <circle
       cx="-308.84"
       cy="-326.01001"
       r="0"
       id="circle909" />
  </g>
  <path
     d="m 27.298856,24.431253 0.379574,-2.862385 c 0.515164,-3.884838 4.094875,-6.626474 7.979782,-6.1113 3.884907,0.515176 6.626318,4.095053 6.111152,7.979891 l -0.379579,2.862385 c 0.539836,0.189653 0.892654,0.739166 0.814509,1.328459 l -1.422411,10.726315 c -0.0896,0.675668 -0.712274,1.152522 -1.388021,1.062911 L 25.806918,37.615773 c -0.675746,-0.08962 -1.152617,-0.712275 -1.06301,-1.387943 l 1.422407,-10.726315 c 0.07816,-0.589293 0.561852,-1.027292 1.132541,-1.070262 z m 4.186929,9.859666 c -0.04266,0.1299 0.03287,0.249529 0.167689,0.267404 l 2.860185,0.379288 c 0.134807,0.01787 0.239078,-0.07908 0.231585,-0.214457 l -0.135356,-2.473859 c 0.386432,-0.268697 0.66286,-0.692934 0.729589,-1.196139 0.1259,-0.949401 -0.541707,-1.821247 -1.491183,-1.947156 -0.949466,-0.125909 -1.821239,0.5418 -1.947139,1.491201 -0.06497,0.489599 0.08154,0.958113 0.368537,1.314943 z m -1.73243,-9.560705 9.18884,1.218528 0.376123,-2.836314 C 39.654262,20.579067 37.866544,18.244805 35.333149,17.908852 32.799744,17.5729 30.465403,19.360683 30.129478,21.8939 Z"
     fill-opacity="0.685484"
     id="path1003"
     style="fill:url(#linearGradient1017);fill-opacity:1;stroke-width:1.44495" />
</svg>
