<?xml version="1.0" encoding="UTF-8" standalone="no"?>
<svg
   xmlns:dc="http://purl.org/dc/elements/1.1/"
   xmlns:cc="http://creativecommons.org/ns#"
   xmlns:rdf="http://www.w3.org/1999/02/22-rdf-syntax-ns#"
   xmlns:svg="http://www.w3.org/2000/svg"
   xmlns="http://www.w3.org/2000/svg"
   xmlns:sodipodi="http://sodipodi.sourceforge.net/DTD/sodipodi-0.dtd"
   xmlns:inkscape="http://www.inkscape.org/namespaces/inkscape"
   height="64"
   width="64"
   version="1.1"
   id="svg13"
   sodipodi:docname="amazonmp3.svg"
   inkscape:version="1.0.1 (3bc2e813f5, 2020-09-07)">
  <metadata
     id="metadata19">
    <rdf:RDF>
      <cc:Work
         rdf:about="">
        <dc:format>image/svg+xml</dc:format>
        <dc:type
           rdf:resource="http://purl.org/dc/dcmitype/StillImage" />
        <dc:title></dc:title>
      </cc:Work>
    </rdf:RDF>
  </metadata>
  <defs
     id="defs17">
    <filter
       id="d"
       x="-.058883"
       y="-.061161"
       width="1.1178"
       height="1.1223"
       color-interpolation-filters="sRGB">
      <feGaussianBlur
         stdDeviation="10.562379"
         id="feGaussianBlur846" />
    </filter>
    <filter
       id="filter883"
       x="-.05999"
       y="-.06001"
       width="1.12"
       height="1.12"
       color-interpolation-filters="sRGB">
      <feGaussianBlur
         stdDeviation="0.21163584"
         id="feGaussianBlur849" />
    </filter>
    <linearGradient
       id="a-3"
       x1="32"
       x2="32"
       y1="2"
       y2="62"
       gradientTransform="translate(-69.697758,0.81328)"
       gradientUnits="userSpaceOnUse">
      <stop
         stop-color="#f5faff"
         offset="0"
         id="stop852" />
      <stop
         stop-color="#cfdef0"
         offset="1"
         id="stop854" />
    </linearGradient>
    <linearGradient
       id="h"
       x1="8.4665"
       x2="8.4665"
       y1=".52916"
       y2="16.404"
       gradientUnits="userSpaceOnUse"
       gradientTransform="matrix(3.779602,0,0,3.779602,-1.3999348e-6,-1.3999348e-6)">
      <stop
         stop-color="#a4e20f"
         offset="0"
         id="stop901" />
      <stop
         stop-color="#19b031"
         offset="1"
         id="stop903" />
    </linearGradient>
  </defs>
  <sodipodi:namedview
     pagecolor="#ffffff"
     bordercolor="#666666"
     borderopacity="1"
     objecttolerance="10"
     gridtolerance="10"
     guidetolerance="10"
     inkscape:pageopacity="0"
     inkscape:pageshadow="2"
     inkscape:window-width="1920"
     inkscape:window-height="999"
     id="namedview15"
     showgrid="false"
     inkscape:zoom="8.65625"
     inkscape:cx="25.92087"
     inkscape:cy="21.206894"
     inkscape:window-x="0"
     inkscape:window-y="0"
     inkscape:window-maximized="1"
     inkscape:current-layer="svg13" />
  <linearGradient
     id="a"
     gradientUnits="userSpaceOnUse"
     x1="364.67871"
     x2="362.14316"
     y1="702.88434"
     y2="537.21295"
     gradientTransform="matrix(0.24853706,0,0,0.24853706,14.867181,-130.7946)">
    <stop
       offset="0"
       stop-color="#00a199"
       id="stop2" />
    <stop
       offset="1"
       stop-color="#00f89a"
       stop-opacity=".988235"
       id="stop4" />
  </linearGradient>
  <circle
     cx="-1248.5916"
     cy="-1241.1458"
     r="0"
     fill="#5e4aa6"
     stroke-width="1.00001"
     id="circle908" />
  <circle
     cx="32"
     cy="32"
     r="29.999836"
     fill="url(#h)"
     stroke-width="0.530354"
     id="circle910"
     style="fill:url(#h)" />
  <circle
     cx="-149.04482"
     cy="24.340635"
     r="0"
     fill="#5e4aa6"
     fill-rule="evenodd"
     stroke-width="1.00001"
     id="circle912" />
  <g
     transform="matrix(3.7795,0,0,3.7807,-2.8699333e-4,-1058.9)"
     fill-rule="evenodd"
     filter="url(#filter883)"
     opacity="0.25"
     stroke-opacity="0.255"
     stroke-width="0.21497"
     id="g867">
    <path
       d="m 9.073,287.94 c 0,0.445 0.011,0.815 -0.204,1.21 -0.173,0.32 -0.448,0.517 -0.754,0.517 -0.419,0 -0.662,-0.333 -0.662,-0.825 0,-0.972 0.833,-1.149 1.62,-1.149 v 0.247 m 1.099,2.778 a 0.22,0.22 0 0 1 -0.257,0.028 c -0.361,-0.314 -0.426,-0.46 -0.626,-0.76 -0.598,0.638 -1.02,0.829 -1.796,0.829 -0.917,0 -1.632,-0.592 -1.632,-1.776 0,-0.925 0.48,-1.556 1.162,-1.864 0.59,-0.272 1.417,-0.32 2.049,-0.395 v -0.148 c 0,-0.27 0.02,-0.591 -0.131,-0.825 -0.133,-0.21 -0.388,-0.297 -0.612,-0.297 -0.416,0 -0.786,0.223 -0.876,0.685 -0.02,0.103 -0.09,0.203 -0.19,0.208 l -1.057,-0.118 c -0.089,-0.021 -0.187,-0.096 -0.163,-0.239 0.245,-1.338 1.402,-1.743 2.438,-1.743 0.53,0 1.223,0.148 1.64,0.568 0.531,0.517 0.48,1.208 0.48,1.96 v 1.776 c 0,0.534 0.212,0.768 0.411,1.057 0.07,0.102 0.086,0.226 -0.002,0.303 a 52.39,52.39 0 0 0 -0.836,0.757 L 10.17,290.72"
       id="path861" />
    <path
       d="m 11.886,291.69 c -0.927,0.7 -2.27,1.073 -3.428,1.073 a 6.117,6.117 0 0 1 -4.187,-1.638 c -0.087,-0.08 -0.01,-0.19 0.095,-0.127 a 8.27,8.27 0 0 0 4.19,1.138 8.138,8.138 0 0 0 3.196,-0.67 c 0.157,-0.068 0.289,0.105 0.135,0.223"
       id="path863" />
    <path
       d="m 12.272,291.24 c -0.118,-0.156 -0.784,-0.074 -1.081,-0.037 -0.092,0.01 -0.106,-0.07 -0.023,-0.129 0.529,-0.382 1.4,-0.272 1.5,-0.143 0.101,0.128 -0.026,1.021 -0.525,1.447 -0.076,0.066 -0.148,0.03 -0.114,-0.056 0.11,-0.286 0.362,-0.927 0.243,-1.082"
       id="path865" />
  </g>
  <path
     id="path869"
     style="fill:#d9f8f0;fill-opacity:1;fill-rule:evenodd;stroke-width:0.812608;stroke-opacity:0.255"
     d="M 32.054688 15.964844 C 28.139125 15.964844 23.765821 17.496112 22.839844 22.554688 C 22.749136 23.095327 23.118703 23.377641 23.455078 23.457031 L 27.451172 23.904297 C 27.829122 23.885394 28.092379 23.5066 28.167969 23.117188 C 28.508124 21.370504 29.906244 20.527344 31.478516 20.527344 C 32.325124 20.527344 33.290295 20.856444 33.792969 21.650391 C 34.363673 22.535075 34.287109 23.748742 34.287109 24.769531 L 34.287109 25.330078 C 31.898465 25.613631 28.772874 25.793915 26.542969 26.822266 C 23.96535 27.986721 22.152344 30.371994 22.152344 33.869141 C 22.152344 38.34549 24.85451 40.583984 28.320312 40.583984 C 31.253204 40.583984 32.847281 39.861306 35.107422 37.449219 C 35.863322 38.583429 36.110209 39.137079 37.474609 40.324219 A 0.83149 0.831754 0 0 0 38.4375 40.224609 L 38.453125 40.240234 A 198.008 198.07087 0 0 1 41.611328 37.378906 C 41.943965 37.087792 41.883706 36.618053 41.619141 36.232422 C 40.867021 35.1398 40.066406 34.255222 40.066406 32.236328 L 40.066406 25.521484 C 40.066406 22.678397 40.258867 20.06595 38.251953 18.111328 C 36.675901 16.523434 34.057823 15.964844 32.054688 15.964844 z M 34.291016 28.78125 L 34.291016 29.714844 C 34.291016 31.397255 34.332119 32.795686 33.519531 34.289062 C 32.865677 35.498886 31.826449 36.244141 30.669922 36.244141 C 29.086311 36.244141 28.167969 34.985105 28.167969 33.125 C 28.167969 29.45016 31.316549 28.78125 34.291016 28.78125 z M 45.652344 40.568359 C 44.532194 40.583955 43.208662 40.840386 42.208984 41.5625 C 41.895287 41.785561 41.949161 42.088591 42.296875 42.050781 C 43.419386 41.910895 45.936831 41.601617 46.382812 42.191406 C 46.832573 42.777415 45.878636 45.19997 45.462891 46.28125 C 45.334388 46.606391 45.607289 46.743667 45.894531 46.494141 C 47.780498 44.883562 48.260636 41.507367 47.878906 41.023438 C 47.689931 40.779582 46.772493 40.552764 45.652344 40.568359 z M 16.232422 41.208984 C 15.998565 41.239643 15.895965 41.529017 16.142578 41.755859 A 23.119201 23.126542 0 0 0 31.966797 47.949219 C 36.343458 47.949219 41.420232 46.539068 44.923828 43.892578 L 44.927734 43.888672 C 45.509777 43.44255 45.009398 42.787835 44.416016 43.044922 A 30.757571 30.767337 0 0 1 32.337891 45.578125 A 31.256465 31.266389 0 0 1 16.501953 41.275391 C 16.40274 41.215844 16.310374 41.198765 16.232422 41.208984 z " />
</svg>
