<?xml version="1.0" encoding="UTF-8"?>
<svg width="64" height="64" version="1.1" viewBox="0 0 16.933 16.933" xmlns="http://www.w3.org/2000/svg" xmlns:cc="http://creativecommons.org/ns#" xmlns:dc="http://purl.org/dc/elements/1.1/" xmlns:rdf="http://www.w3.org/1999/02/22-rdf-syntax-ns#" xmlns:xlink="http://www.w3.org/1999/xlink">
 <defs>
  <filter id="filter1066" x="-.063923" y="-.056531" width="1.1278" height="1.1131" color-interpolation-filters="sRGB">
   <feGaussianBlur stdDeviation="0.22705935"/>
  </filter>
  <filter id="filter1010" x="-.079807" y="-.04807" width="1.1596" height="1.0961" color-interpolation-filters="sRGB">
   <feGaussianBlur stdDeviation="0.95786011"/>
  </filter>
  <linearGradient id="linearGradient1305" x1="39.304" x2="39.304" y1="55.823" y2="49.448" gradientTransform="matrix(.22714 0 0 .22714 2.2981 4.2532)" gradientUnits="userSpaceOnUse">
   <stop stop-color="#ff4e4e" offset="0"/>
   <stop stop-color="#d00" stop-opacity=".97647" offset="1"/>
  </linearGradient>
  <linearGradient id="linearGradient1307" x1="27.355" x2="27.355" y1="30.203" y2="8" gradientTransform="matrix(.22549 -.027339 .027339 .22549 2.7933 3.9457)" gradientUnits="userSpaceOnUse">
   <stop stop-color="#78502d" offset="0"/>
   <stop stop-color="#c2752f" offset="1"/>
  </linearGradient>
  <linearGradient id="linearGradient1309" x1="32.928" x2="32.928" y1="42.679" y2="25.535" gradientTransform="matrix(.22549 -.027339 .027339 .22549 2.7933 3.9457)" gradientUnits="userSpaceOnUse">
   <stop stop-color="#b76e2c" offset="0"/>
   <stop stop-color="#cd7e35" offset="1"/>
  </linearGradient>
  <linearGradient id="linearGradient1311" x1="32.952" x2="32.952" y1="54.202" y2="39.883" gradientTransform="matrix(.22549 -.027339 .027339 .22549 2.7933 3.9457)" gradientUnits="userSpaceOnUse">
   <stop stop-color="#707070" offset="0"/>
   <stop stop-color="#8e8e8e" stop-opacity=".87778" offset="1"/>
  </linearGradient>
  <linearGradient id="linearGradient1313" x1="32.297" x2="32.297" y1="54.23" y2="39.887" gradientTransform="matrix(.22549 -.027339 .027339 .22549 2.7933 3.9457)" gradientUnits="userSpaceOnUse">
   <stop stop-color="#c6c6c6" offset="0"/>
   <stop stop-color="#e4e4e4" stop-opacity=".99444" offset="1"/>
  </linearGradient>
  <linearGradient id="linearGradient1315" x1="34.865" x2="34.865" y1="35.1" y2="37.492" gradientTransform="matrix(.22714 0 0 .22714 2.2981 4.2532)" gradientUnits="userSpaceOnUse" xlink:href="#linearGradient944"/>
  <linearGradient id="linearGradient944">
   <stop stop-color="#232323" offset="0"/>
   <stop stop-color="#5f5f5f" offset="1"/>
  </linearGradient>
  <linearGradient id="linearGradient1317" x1="28.489" x2="28.489" y1="35.1" y2="37.492" gradientTransform="matrix(.22714 0 0 .22714 2.2981 4.2532)" gradientUnits="userSpaceOnUse" xlink:href="#linearGradient944"/>
  <linearGradient id="linearGradient938-6" x1="80.368" x2="82.141" y1="13.177" y2="14.704" gradientTransform="matrix(.96155 0 0 .96155 -63.126 1.1845)" gradientUnits="userSpaceOnUse">
   <stop stop-color="#fafafa" offset="0"/>
   <stop stop-color="#90a0b3" offset="1"/>
  </linearGradient>
 </defs>
 <metadata>
  <rdf:RDF>
   <cc:Work rdf:about="">
    <dc:format>image/svg+xml</dc:format>
    <dc:type rdf:resource="http://purl.org/dc/dcmitype/StillImage"/>
    <dc:title/>
   </cc:Work>
  </rdf:RDF>
 </metadata>
 <g transform="matrix(1.0425 0 0 1.0425 -2.5396 -3.2362)">
  <rect transform="rotate(-6.4422)" x="2.2508" y="5.2008" width="13.992" height="13.992" ry="1.1671" fill="#f3f3f3" stroke-width=".96155"/>
  <path transform="matrix(1.0038 0 0 .93538 -40.599 .26145)" d="m57.818 9.8288s0.05354 3.0782-2.6636 4.5408c-2.2449 1.2084 0.9386 2.689-5.8599 5.0989 8.8505-2.5748 8.5235-9.6396 8.5235-9.6396z" fill="#141414" filter="url(#filter1066)" opacity=".3"/>
  <path d="m15.81 3.4732c-0.07737-0.00686-0.1567-0.00609-0.23701 0.00298l-11.585 1.3083c-0.64251 0.072549-1.1015 0.64791-1.029 1.2904l1.3083 11.585c0.072549 0.64251 0.64791 1.1011 1.2904 1.0286l3.6229-0.40894c3.338-0.91805 8.0431-3.7658 8.1907-9.2681l0.79999 7.0781-1.3078-11.585c-0.063481-0.56219-0.51229-0.98406-1.0538-1.032z" fill="#fafafa" stroke-width=".96155"/>
  <g stroke-width=".89321">
   <circle transform="matrix(.22549 -.027339 .027339 .22549 2.7933 3.9457)" cx="39.304" cy="52.635" r="3.1879" filter="url(#filter1010)" opacity=".15"/>
   <path transform="matrix(.22549 -.027339 .027339 .22549 2.7933 3.9457)" d="m39 8c-0.47123-0.00617-1.241 1.0174-1.8529 1.9333-1.395 2.0879-2.8553 4.3721-4.2818 7.2487-1.4187 2.8607-1.5486 2.726-1.3794 8.7241 1.06 0.05877 3.3053 0.61675 4.2948 1.1122 0.14436-0.2489 0.28586-0.65817 0.41924-0.92581 2.0936-4.2022 2.5436-10.601 3.1412-15.677 0.21001-1.7838 0.02547-2.4107-0.34104-2.4155zm-23.306 7.9451c-1.5566 0.0995 1.7236 5.971 2.6892 7.4638 0.87582 1.3539 3.0504 3.6619 4.7898 5.5293 0.37273 0.40013 0.70548 0.74723 1.0209 1.0753 0 0 0.20306 0.27996 0.33573 0.15994 0.75013-0.67862 3.1886-3.3131 4.119-3.6715l-0.1233-0.19425c-2.5526-3.7948-6.737-7.1112-11.847-10.021-0.44064-0.25094-0.76165-0.35526-0.98402-0.34104z" filter="url(#filter1010)" opacity=".15"/>
   <path transform="matrix(.22549 -.027339 .027339 .22549 2.7933 3.9457)" d="m30.945 25.535c-3.5126 0.32692-5.8355 2.1929-7.2093 4.8413-0.21367 0.66148-0.32928 1.3957-0.32928 2.1986 0 2.7774 0.86794 4.923 0.61931 7.7448-0.33693 3.8243-3.2064 6.1332-1.9321 9.5899 0.02644 0.08453 0.03442 0.16176 0.06542 0.24788 0.2631 0.73076 0.78643 1.4878 1.5221 2.3323 0.11912 0.13673 0.26074 0.25574 0.4056 0.3729 0.57808 0.47734 1.341 0.80782 2.2199 1.0217 0.60108 0.14627 1.2529 0.24224 1.9255 0.29962 0.22901 0.0195 0.46052 0.03382 0.69345 0.04525l0.19844-0.02589c2.3606 0.0922 4.834-0.17219 6.2803-0.25004 0.34547-0.01859 0.69225-0.05679 1.038-0.11208 1.068-0.17087 2.1227-0.51284 3.0944-0.99154h0.0065c0.04702-0.02369 0.08859-0.05532 0.1352-0.07975 0.37021-0.18939 0.7332-0.39077 1.0729-0.61863 1.0872-0.72918 1.997-1.6455 2.5906-2.6901 0.50662-0.89137 0.78038-1.8761 0.74143-2.9164-0.01287-1.0774-0.34353-2.2149-1.0947-3.3734-2.4473-3.7741-5.1023-8.4074-5.2402-13.453-0.07412-0.73502-0.33483-1.3758-0.73707-1.9227-1.3816-1.694-4.1397-2.2521-6.0666-2.2611z" filter="url(#filter1010)" opacity=".15"/>
   <path transform="matrix(.22549 -.027339 .027339 .22549 2.7933 3.9457)" d="m36.047 39.888c1.2699 0 2.4439-0.02683 3.3208 0.27885 0.94638 0.32984 1.5463 1.0471 1.5463 2.6035 0 1.4234-2.2145 3.5109-2.873 5.4625 0.22157 1.6765 0.76063 3.3366 1.5025 4.6166 0.42022-0.20749 0.8245-0.44074 1.2067-0.69729 1.0866-0.72918 1.9955-1.6459 2.5888-2.6905 1.0009-1.762 1.1039-3.8877-0.35296-6.0899-3.531-6.8788-17.462-1.957-20.11 0.95159-0.13666 0.92431-1.7541 2.9306-0.70868 5.8357 0.26296 0.73075 0.78598 1.4865 1.5213 2.331 0.5943 0.68248 1.5262 1.113 2.6247 1.375 0.60075 0.14331 1.2512 0.23619 1.9235 0.2924 0.22888 0.0191 0.46021 0.03398 0.69302 0.04518-0.0015-1.0742 0.07589-2.1445 0.05272-3.1666-2e-3 -0.08885-0.0049-0.17737-0.0084-0.26547-0.23106-2.3458-4.5444-2.7965-4.5444-6.0934 0-0.68366 0.22627-1.2727 0.61965-1.7795 1.9551-2.5189 8.0381-3.0095 10.997-3.0095z" filter="url(#filter1010)" opacity=".15"/>
   <path transform="matrix(.22549 -.027339 .027339 .22549 2.7933 3.9457)" d="m36.047 39.888c-2.9591 0-9.0421 0.49064-10.997 3.0095 1.3155 1.6949 2.3491 3.2564 3.2832 5.0609 0.44401 0.85775 0.59979 1.8093 0.64152 2.812 0.0084 0.08591 0.01125 0.17425 0.0084 0.26547 0.02317 1.0221-0.05429 2.0924-0.0527 3.1666 2.4179 0.11614 4.9889-0.16828 6.4748-0.2483 0.34528-0.01859 0.69197-0.05613 1.0375-0.11142 1.0697-0.17125 2.1281-0.51319 3.1009-0.99347-0.7419-1.28-1.281-2.94-1.5025-4.6166-0.07301-0.55223-0.11154-1.1061-0.11154-1.6489 0-1.6987 0.6369-4.6826 1.4382-6.417-0.87686-0.3056-2.0509-0.27876-3.3208-0.27876z" filter="url(#filter1010)" opacity=".15"/>
   <path transform="matrix(.22549 -.027339 .027339 .22549 2.7933 3.9457)" d="m28.333 47.958c-0.93418-1.8045-1.9678-3.366-3.2832-5.0609-0.39338 0.50688-0.61965 1.0959-0.61965 1.7795 0 3.2969 4.3134 3.7475 4.5444 6.0934-0.04173-1.0026-0.19752-1.9542-0.64152-2.812z" filter="url(#filter1010)" opacity=".15"/>
   <path transform="matrix(.22549 -.027339 .027339 .22549 2.7933 3.9457)" d="m39.368 40.166c-0.80132 1.7344-1.4382 4.7184-1.4382 6.417 0 0.5428 0.03851 1.0967 0.11154 1.6489 0.65851-1.9515 2.873-4.0391 2.873-5.4625 0-1.5564-0.59996-2.2736-1.5463-2.6035z" filter="url(#filter1010)" opacity=".15"/>
   <path transform="matrix(.22549 -.027339 .027339 .22549 2.7933 3.9457)" d="m34.642 31.982c-0.676 0.19066-1.7684 3.1314-1.7696 4.0932-0.0016 1.2566 0.39592 1.7385 1.1554 2.3097 0.75944 0.57121 4.4142 1.2701 4.4231-0.06819 0.0088-1.3179-0.03963-2.4371-0.21663-3.178-0.17701-0.74092-0.53742-2.1448-1.2638-2.7494-0.45645-0.37986-1.6524-0.598-2.3284-0.40734z" filter="url(#filter1010)" opacity=".15"/>
   <circle transform="matrix(.22549 -.027339 .027339 .22549 2.7933 3.9457)" cx="34.865" cy="36.296" r="1.196" filter="url(#filter1010)" opacity=".15"/>
   <path transform="matrix(.22549 -.027339 .027339 .22549 2.7933 3.9457)" d="m30.432 35.486c-0.13169-0.98465-1.4238-2.6503-2.2406-3.1787-2.063-1.3344-3.4471 0.98338-3.2748 2.911 0.12802 1.4326 0.89495 5.3832 2.6543 4.5505 1.7593-0.83268 3.1993-1.7558 2.8611-4.2828z" filter="url(#filter1010)" opacity=".15"/>
   <circle transform="matrix(.22549 -.027339 .027339 .22549 2.7933 3.9457)" cx="28.489" cy="36.296" r="1.196" filter="url(#filter1010)" opacity=".15"/>
  </g>
  <g stroke-width=".20288">
   <circle transform="rotate(-6.9132)" cx="11.226" cy="16.208" r=".72409" fill="url(#linearGradient1305)"/>
   <path d="m11.806 4.6833c-0.10642 0.011491-0.25201 0.26334-0.36494 0.4866-0.25747 0.50893-0.5243 1.0639-0.76732 1.7515-0.24169 0.68384-0.27466 0.65701-0.07252 2.0049 0.24062-0.015729 0.76216 0.048702 0.99883 0.13337 0.02574-0.060071 0.04646-0.15622 0.06922-0.22022 0.35719-1.0048 0.28371-2.4599 0.27969-3.6208-0.0014-0.40796-0.06016-0.54427-0.14294-0.53533zm-5.0379 2.4287c-0.34827 0.064992 0.55189 1.2993 0.81045 1.6095 0.2345 0.28133 0.78793 0.74232 1.2312 1.1158 0.094985 0.080034 0.1795 0.1492 0.2596 0.21455 0 0 0.05344 0.05758 0.080076 0.02688 0.15059-0.17352 0.62841-0.83423 0.82841-0.94048l-0.033113-0.040431c-0.67932-0.78589-1.7135-1.4193-2.9453-1.9357-0.10622-0.044537-0.18145-0.059282-0.23121-0.049998z" fill="url(#linearGradient1307)"/>
   <path d="m10.469 8.8576c-0.78311 0.16975-1.2559 0.654-1.4932 1.2887-0.030096 0.155-0.036092 0.32372-0.014139 0.50475 0.075933 0.62627 0.33031 1.0863 0.35139 1.7294 0.028583 0.87154-0.55531 1.4706-0.17348 2.2152 0.00827 0.01834 0.012184 0.03553 0.021529 0.0541 0.079303 0.15758 0.218 0.31398 0.40698 0.48429 0.030599 0.02758 0.065786 0.05054 0.10165 0.073 0.1434 0.09183 0.32446 0.14549 0.52848 0.16969 0.13953 0.01655 0.28914 0.02037 0.44236 0.01492 0.05217-0.0019 0.10476-5e-3 0.1576-0.0088l0.04404-0.01126c0.5348-0.04375 1.0853-0.17099 1.4093-0.22808 0.07739-0.01364 0.15454-0.03173 0.23099-0.05365 0.23615-0.06773 0.46461-0.17367 0.67064-0.30819l0.0015-1.66e-4c0.01-0.0066 0.01846-0.0149 0.02831-0.02168 0.0783-0.05283 0.15464-0.10816 0.22501-0.16882 0.22521-0.19414 0.40532-0.42564 0.51059-0.67741 0.08987-0.21484 0.12467-0.44437 0.08745-0.67789-0.03235-0.2426-0.13801-0.49006-0.33906-0.73073-0.655-0.78409-1.3804-1.7563-1.5494-2.8903-0.036862-0.16367-0.11317-0.30103-0.21882-0.41335-0.35785-0.3442-0.99502-0.39465-1.4298-0.34398z" fill="url(#linearGradient1309)"/>
   <path d="m12.012 11.954c0.28633-0.03472 0.55033-0.07286 0.75642-0.02791 0.22241 0.0485 0.3773 0.19383 0.41984 0.54478 0.03891 0.32097-0.40336 0.8522-0.49848 1.3103 0.0958 0.37198 0.26273 0.73157 0.465 0.99991 0.08908-0.05828 0.17386-0.12192 0.25303-0.19022 0.22508-0.19413 0.40497-0.42569 0.51017-0.67744 0.17752-0.42468 0.14263-0.90681-0.24608-1.3635-0.98425-1.4545-3.991 0.03613-4.5085 0.76438-0.00555 0.21216-0.31541 0.70877-2.516e-4 1.3352 0.079272 0.15759 0.21787 0.31369 0.40677 0.48403 0.15266 0.13764 0.37457 0.20924 0.62942 0.23828 0.13938 0.01589 0.28858 0.01905 0.44172 0.01335 0.05213-2e-3 0.1047-0.0049 0.1575-0.0088-0.02971-0.24218-0.04152-0.48564-0.07469-0.71546-0.0029-0.01998-6e-3 -0.03986-0.0091-0.05963-0.11623-0.52263-1.1011-0.50633-1.1913-1.2497-0.01869-0.15416 0.016227-0.29316 0.091072-0.4182 0.37198-0.62143 1.7302-0.89837 2.3974-0.97925z" fill="url(#linearGradient1311)"/>
   <path d="m12.012 11.954c-0.66723 0.0809-2.0255 0.35785-2.3974 0.97925 0.34295 0.34621 0.61873 0.67006 0.87868 1.0514 0.12357 0.18127 0.18471 0.39158 0.22153 0.61653 0.0042 0.01914 0.0073 0.03898 0.0091 0.05963 0.03317 0.22984 0.04496 0.47329 0.07469 0.71546 0.54838-0.03992 1.1203-0.17434 1.4532-0.23301 0.07735-0.01363 0.1545-0.03158 0.2309-0.05349 0.23652-0.06786 0.46582-0.1739 0.67204-0.3088-0.20228-0.26834-0.36923-0.62791-0.465-0.99991-0.03156-0.12252-0.05539-0.24636-0.07023-0.36875-0.04644-0.38304 0.01559-1.0733 0.14886-1.4863-0.20607-0.04493-0.47006-0.0068-0.75642 0.02793z" fill="url(#linearGradient1313)"/>
   <path d="m10.493 13.985c-0.25998-0.38134-0.53573-0.70519-0.87868-1.0514-0.074843 0.12505-0.10976 0.26405-0.091072 0.4182 0.090136 0.7434 1.0751 0.72708 1.1913 1.2497-0.03682-0.22493-0.09797-0.43524-0.22153-0.61653z" fill="#3f3f3f"/>
   <path d="m12.768 11.926c-0.13327 0.41299-0.1953 1.1033-0.14886 1.4863 0.01484 0.12239 0.03867 0.24624 0.07023 0.36875 0.09513-0.45805 0.5374-0.9893 0.49848-1.3103-0.042549-0.35094-0.19744-0.49625-0.41984-0.54478z" fill="#3f3f3f"/>
   <path d="m11.479 10.21c-0.14722 0.06147-0.31313 0.75443-0.28713 0.97134 0.03399 0.2834 0.13681 0.38118 0.32366 0.48922 0.18686 0.10804 1.0301 0.16571 0.9955-0.1363-0.03404-0.29742-0.07556-0.54846-0.13573-0.71067-0.06017-0.16223-0.17982-0.46892-0.36012-0.58539-0.11331-0.07317-0.38894-0.08967-0.53615-0.02819z" fill="#fff"/>
   <circle transform="rotate(-6.9132)" cx="10.217" cy="12.497" r=".27165" fill="url(#linearGradient1315)"/>
   <path d="m10.625 11.115c-0.05662-0.21842-0.39352-0.55867-0.59214-0.6555-0.50165-0.24448-0.75039 0.31599-0.65884 0.74591 0.068032 0.31954 0.34899 1.1894 0.72292 0.9535 0.37394-0.23586 0.67339-0.48337 0.52806-1.0439z" fill="#fff"/>
   <circle transform="rotate(-6.9132)" cx="8.7689" cy="12.497" r=".27165" fill="url(#linearGradient1317)"/>
  </g>
  <path d="m17.37 8.9779s0.05148 2.9599-2.5612 4.3662c-2.1586 1.1619 0.90252 2.5856-5.6346 4.903 8.5103-2.4758 8.2635-9.2353 8.2635-9.2353z" fill="url(#linearGradient938-6)" stroke-width=".96155"/>
 </g>
</svg>
