<?xml version="1.0" encoding="UTF-8"?>
<svg width="64" height="64" version="1.1" viewBox="0 0 16.933 16.933" xmlns="http://www.w3.org/2000/svg" xmlns:cc="http://creativecommons.org/ns#" xmlns:dc="http://purl.org/dc/elements/1.1/" xmlns:rdf="http://www.w3.org/1999/02/22-rdf-syntax-ns#" xmlns:xlink="http://www.w3.org/1999/xlink">
 <defs>
  <linearGradient id="c-3" x1="24.535" x2="24.535" y1="7.0931" y2="44.483" gradientTransform="matrix(.38005 0 0 .38005 1.3376 2.1796)" gradientUnits="userSpaceOnUse">
   <stop stop-color="#76dd38" offset="0"/>
   <stop stop-color="#42c440" offset=".48433"/>
   <stop stop-color="#14ab4b" offset="1"/>
  </linearGradient>
  <linearGradient id="d" x1="117.54" x2="117.54" y1="11.506" y2="53.712" gradientTransform="matrix(.26458 0 0 .26458 -18.796 5.5993)" gradientUnits="userSpaceOnUse">
   <stop stop-color="#f5faff" offset="0"/>
   <stop stop-color="#cfdef0" offset="1"/>
  </linearGradient>
  <linearGradient id="e-2" x1="32" x2="32" y1="21.117" y2="63.324" gradientTransform="matrix(.26458 0 0 .26458 2.0237 3.0562)" gradientUnits="userSpaceOnUse">
   <stop stop-color="#f5faff" offset="0"/>
   <stop stop-color="#cfdef0" offset="1"/>
  </linearGradient>
  <linearGradient id="c-2" x1="24" x2="24" y1="1032.4" y2="1018.4" gradientTransform="matrix(.41775 0 0 .41775 .24963 -418.16)" gradientUnits="userSpaceOnUse">
   <stop stop-color="#272b2d" offset="0"/>
   <stop stop-color="#3e4447" offset="1"/>
  </linearGradient>
  <radialGradient id="a-9" cx="24" cy="1025.4" r="2" gradientTransform="matrix(.41775 0 0 .4177 .24963 -418.1)" gradientUnits="userSpaceOnUse">
   <stop stop-color="#f5faff" offset="0"/>
   <stop stop-color="#cfdef0" offset="1"/>
  </radialGradient>
 </defs>
 <metadata>
  <rdf:RDF>
   <cc:Work rdf:about="">
    <dc:format>image/svg+xml</dc:format>
    <dc:type rdf:resource="http://purl.org/dc/dcmitype/StillImage"/>
    <dc:title/>
   </cc:Work>
  </rdf:RDF>
 </metadata>
 <g transform="translate(-2.0237 -3.4268)" stroke-width=".26458">
  <circle cx="10.49" cy="11.893" r="7.9375" color="#000000" fill="url(#c-3)" overflow="visible" style="isolation:auto;mix-blend-mode:normal"/>
  <path d="m9.9826 8.6436-1.0854 0.62664 5.6399 9.7684 1.1693 0.77203-0.08393-1.3987z" fill="url(#d)"/>
  <path d="m10.569 8.6434-5.6399 9.7684-0.084233 1.3989 1.1694-0.77205 2.0614-3.5708c0.73594 0.37738 1.5715 0.5829 2.4557 0.5829 0.95255 0 2.0598-0.2358 2.8355-0.67128 0.41505-0.23131 0.79573-0.51726 1.1291-0.84389 1.007-0.97978 1.6402-2.3952 1.6402-3.9124-0.42966-0.0042-0.88405 4.4e-5 -1.265-0.0041-5.56e-4 1.6721-0.49758 2.0694-1.1028 2.7765-0.31298 0.3606-0.6804 0.66683-1.1023 0.89813-0.57153 0.3198-1.4407 0.49662-2.1415 0.49662-0.65238 0-1.2684-0.16063-1.8061-0.43511l2.9358-5.0851-1.0852-0.62682z" fill="url(#e-2)"/>
  <path d="m11.578 8.5311h-0.4653v-1.2534h-1.6711v1.2534h-0.4721c-0.42794 0-0.78118 0.35364-0.78118 0.77671v2.0452h0.0068c-0.0068 0.06718 0.033951 0.14108 0.12227 0.22835l1.5691 1.384c0.10869 0.10745 0.25134 0.16117 0.38719 0.16117v-0.0067l0.0068 0.0067c0.14265 0 0.2853-0.05372 0.38719-0.16117l1.5691-1.384c0.08831-0.08727 0.12227-0.1679 0.12227-0.22835h0.0068v-2.0384c-0.0068-0.42976-0.35322-0.78343-0.78798-0.78343z" fill="url(#c-2)"/>
  <path d="m10.279 11.038h-0.0055c-0.45723 0-0.8328-0.3719-0.8328-0.82997 0-0.45813 0.37558-0.83 0.8328-0.83v-0.010861l0.0055 0.010861c0.45723 0.00543 0.8328 0.3719 0.8328 0.83 0 0.45807-0.37558 0.82457-0.8328 0.82997z" fill="url(#a-9)"/>
 </g>
</svg>
