<?xml version="1.0" encoding="UTF-8"?>
<svg id="App-Store" width="64" height="64" enable-background="new 0 0 1024 1024" image-rendering="optimizeSpeed" version="1.1" viewBox="0 0 64 64" xmlns="http://www.w3.org/2000/svg" xmlns:cc="http://creativecommons.org/ns#" xmlns:dc="http://purl.org/dc/elements/1.1/" xmlns:rdf="http://www.w3.org/1999/02/22-rdf-syntax-ns#" xmlns:xlink="http://www.w3.org/1999/xlink">
 <metadata>
  <rdf:RDF>
   <cc:Work rdf:about="">
    <dc:format>image/svg+xml</dc:format>
    <dc:type rdf:resource="http://purl.org/dc/dcmitype/StillImage"/>
   </cc:Work>
  </rdf:RDF>
 </metadata>
 <defs>
  <style type="text/css"/>
  <linearGradient id="linearGradient4010" x1="172.58" x2="193.66" y1="15.073" y2="31.137" gradientUnits="userSpaceOnUse">
   <stop stop-color="#ff9c26" offset="0"/>
   <stop stop-color="#ffc412" offset="1"/>
  </linearGradient>
  <linearGradient id="linearGradient11873" x1="173.11" x2="148.71" y1="17.586" y2="34.093" gradientUnits="userSpaceOnUse">
   <stop stop-color="#fd4c4b" offset="0"/>
   <stop stop-color="#eb3960" offset="1"/>
  </linearGradient>
  <linearGradient id="linearGradient16234" x1="152.84" x2="160.41" y1="30.977" y2="58.435" gradientUnits="userSpaceOnUse">
   <stop stop-color="#fd6797" offset="0"/>
   <stop stop-color="#a53df9" offset="1"/>
  </linearGradient>
  <linearGradient id="linearGradient21137" x1="159.04" x2="189.93" y1="53.688" y2="53.688" gradientUnits="userSpaceOnUse">
   <stop stop-color="#379bfc" offset="0"/>
   <stop stop-color="#37c2f4" offset="1"/>
  </linearGradient>
  <linearGradient id="linearGradient26085" x1="194.41" x2="183.32" y1="27.804" y2="55.286" gradientUnits="userSpaceOnUse">
   <stop stop-color="#abc110" offset="0"/>
   <stop stop-color="#00bd80" offset="1"/>
  </linearGradient>
 </defs>
 <g fill="#5e4aa6">
  <circle cx="-1160" cy="-1257.6" r="0"/>
  <circle cx="-1160" cy="-1257.6" r="0"/>
  <circle cx="-1244.2" cy="-1289.6" r="0"/>
  <circle cx="-1124.8" cy="-1279.3" r="0"/>
  <g transform="matrix(3.7796,0,0,3.7796,123.83,-38.184)" stroke-width=".26458">
   <circle cx="-299.02" cy="-338.77" r="0"/>
   <circle cx="-8.1062" cy="-3.9487" r="0" fill-rule="evenodd"/>
   <circle cx="-278.25" cy="-357.69" r="0"/>
   <circle cx="12.663" cy="-22.859" r="0" fill-rule="evenodd"/>
  </g>
 </g>
 <g transform="matrix(1.2083 0 0 1.2083 -176.57 -12.111)">
  <path d="m166.65 30.074 3.6989-10.575s1.7052-3.5614 4.6211-0.18887c0 0-0.69624-3.2803-3.3021-4.0399-2.6059-0.75956-4.1427 0.23798-5.0231 2.7183l-2.8671 8.0775-7.9076-0.02036s-5.1758-0.56839-6.9013 4.6117c-1.3031 3.9119 1.433 6.358 1.433 6.358s-2.0914-5.3946 4.1167-6.8765z" fill="url(#linearGradient11873)"/>
  <path d="m162.66 41.29-8.9652-6.718s-2.8807-2.7005 1.2146-4.4626c0 0-3.3375-0.32626-4.8481 1.9289-1.5106 2.2552-1.0234 4.0213 1.0756 5.6092l6.8355 5.1713-1.9932 7.0711s-2.104 4.7629 2.3138 7.9714c3.3362 2.423 7.1148 0.30621 7.1148 0.30621s-6.3951 0.61226-5.9342-5.7537z" fill="url(#linearGradient16234)"/>
  <path d="m172.63 48.177-9.2101 6.4105s-3.4708 1.8827-3.8524-2.5592c0 0-1.3615 3.0646 0.30262 5.2089 1.6641 2.1444 3.5234 2.2807 5.6623 0.74711l7.071-4.8768 6.1425 4.4777s3.793 3.4065 8.2944 0.31644c4.2092-2.8895 2.5862-6.6475 2.5862-6.6475s-1.4877 6.2539-7.3839 3.8102z" fill="url(#linearGradient21137)"/>
  <path d="m182.41 41.401 3.3368 10.725s0.38965 4.0317-3.9017 2.8231c0 0 2.5961 2.4057 5.1301 1.4328 2.2383-0.85937 3.5075-2.5322 2.6951-5.0356l-2.6556-8.1826 6.1178-4.7681s4.6329-2.3765 3.2198-7.6505c-1.0672-3.9827-4.6982-4.5172-4.6982-4.5172s4.717 3.3504 0.35184 8.0069z" fill="url(#linearGradient26085)"/>
  <path d="m178.5 30.117h11.704s3.9178 0.49228 1.6396 4.3246c0 0 2.8922-1.6972 2.7892-4.4096-0.10293-2.7124-1.5345-3.9065-4.1665-3.9065h-9.0721l-2.383-7.2181s-1.0965-5.0901-6.5564-5.0901c-4.1232 0-5.5792 3.3689-5.5792 3.3689s4.4571-3.6891 7.8251 1.7325z" fill="url(#linearGradient4010)"/>
 </g>
</svg>
