<?xml version="1.0" encoding="UTF-8"?>
<svg width="64" height="64" version="1.1" viewBox="0 0 16.933 16.933" xmlns="http://www.w3.org/2000/svg" xmlns:cc="http://creativecommons.org/ns#" xmlns:dc="http://purl.org/dc/elements/1.1/" xmlns:rdf="http://www.w3.org/1999/02/22-rdf-syntax-ns#" xmlns:xlink="http://www.w3.org/1999/xlink">
 <defs>
  <linearGradient id="linearGradient936" x1="-26.286" x2="-86.14" y1="2.0268" y2="62.103" gradientTransform="matrix(.26458 0 0 .26458 25.076 .27406)" gradientUnits="userSpaceOnUse">
   <stop stop-color="#15afff" offset="0"/>
   <stop stop-color="#1560ff" offset="1"/>
  </linearGradient>
 </defs>
 <metadata>
  <rdf:RDF>
   <cc:Work rdf:about="">
    <dc:format>image/svg+xml</dc:format>
    <dc:type rdf:resource="http://purl.org/dc/dcmitype/StillImage"/>
    <dc:title/>
   </cc:Work>
  </rdf:RDF>
 </metadata>
 <g transform="translate(-1.5969 -.27403)">
  <path d="m15.437 0.77222c-0.08053-0.00631-0.16307-0.004586-0.2465 0.005684l-12.033 1.4826c-0.66741 0.082236-1.1385 0.68599-1.0563 1.3534l1.4826 12.033c0.082232 0.66741 0.686 1.1385 1.3534 1.0563l12.033-1.4826c0.66741-0.08223 1.1385-0.686 1.0563-1.3534l-1.4826-12.033c-0.071956-0.58398-0.54316-1.0177-1.1069-1.062z" fill="url(#linearGradient936)" image-rendering="optimizeSpeed" stroke-linecap="round" stroke-width=".52917"/>
  <path d="m7.7945 9.1188c0.017172-0.032007 0.010134-0.13044-0.016642-0.23219l-0.046461-0.17662-1.2213 0.23849c-0.87348 0.17056-1.2322 0.25197-1.2594 0.28583-0.04745 0.058919 0.0069929 0.34868 0.073838 0.39299 0.035821 0.023741 0.35883-0.030885 1.2443-0.21044 0.99171-0.20109 1.201-0.25199 1.2257-0.29807zm1.7173-2.6332c0.1918-0.11446 0.4466-0.37502 0.48192-0.4928 0.019473-0.064948-0.0064823-0.094574-0.1922-0.21935-0.11809-0.079341-0.23036-0.14108-0.24949-0.13721-0.019129 0.0038577-0.096745 0.073219-0.17249 0.15409-0.32597 0.34803-0.8066 0.39972-1.1484 0.1235-0.13876-0.11214-0.28228-0.34778-0.31744-0.52118-0.040473-0.1996 0.008546-0.4745 0.11638-0.6525 0.22306-0.36823 0.66326-0.4787 1.1003-0.27612 0.088109 0.040838 0.17135 0.058104 0.19189 0.0398 0.074787-0.066653 0.27297-0.4645 0.25416-0.51022-0.030689-0.074594-0.32546-0.20251-0.54855-0.23805-0.26827-0.042732-0.65036 0.0036592-0.90588 0.10999-0.88327 0.36754-1.1872 1.4761-0.61788 2.2536 0.26326 0.35958 0.72776 0.59764 1.1736 0.6015 0.21888 0.0018786 0.63215-0.1146 0.83406-0.2351zm-4.113 0.83714c0.0196-0.018857 0.058926-0.1547 0.08739-0.30186 0.028464-0.14717 0.064452-0.29123 0.079975-0.32015 0.021368-0.039807 0.1514-0.077425 0.53539-0.15489 0.27894-0.056285 0.52795-0.094346 0.55335-0.084613 0.0254 0.00973 0.11453 0.11952 0.19808 0.24397 0.083542 0.12445 0.17281 0.24312 0.19837 0.26371 0.06459 0.052019 0.60685-0.056956 0.61814-0.12421 0.0043657-0.026032-0.37361-0.60167-0.83996-1.2792l-0.84791-1.2319-0.60068 0.14178-0.29706 1.451c-0.16338 0.79807-0.28471 1.4705-0.26961 1.4942 0.020278 0.031882 0.095575 0.029206 0.28817-0.010242 0.1434-0.029367 0.27676-0.068833 0.29636-0.08769zm0.31443-1.3107c-0.03356-0.052768 0.090074-0.74977 0.1346-0.7588 0.015441-0.00313 0.12584 0.13745 0.24533 0.31241 0.17355 0.25411 0.20931 0.32573 0.17775 0.35602-0.021728 0.020855-0.14929 0.060419-0.28347 0.087922-0.189 0.038729-0.25078 0.03929-0.27421 0.00243z" fill="#fff" fill-opacity=".8" stroke-width=".25133"/>
 </g>
</svg>
