<?xml version="1.0" encoding="UTF-8"?>
<svg width="64" height="64" version="1.1" viewBox="0 0 16.933 16.933" xmlns="http://www.w3.org/2000/svg" xmlns:cc="http://creativecommons.org/ns#" xmlns:dc="http://purl.org/dc/elements/1.1/" xmlns:rdf="http://www.w3.org/1999/02/22-rdf-syntax-ns#">
 <defs>
  <filter id="filter1066" x="-.063923" y="-.056531" width="1.1278" height="1.1131" color-interpolation-filters="sRGB">
   <feGaussianBlur stdDeviation="0.22705935"/>
  </filter>
  <linearGradient id="linearGradient938" x1="80.368" x2="82.141" y1="13.177" y2="14.704" gradientTransform="matrix(.96156 0 0 .96156 -66.975 -3.024)" gradientUnits="userSpaceOnUse">
   <stop stop-color="#fafafa" offset="0"/>
   <stop stop-color="#90a0b3" offset="1"/>
  </linearGradient>
 </defs>
 <metadata>
  <rdf:RDF>
   <cc:Work rdf:about="">
    <dc:format>image/svg+xml</dc:format>
    <dc:type rdf:resource="http://purl.org/dc/dcmitype/StillImage"/>
    <dc:title/>
   </cc:Work>
  </rdf:RDF>
 </metadata>
 <g transform="translate(1.7576 1.3324)">
  <rect transform="rotate(-6.4422)" x="-1.1009" y=".5871" width="13.992" height="13.992" ry="1.1671" fill="#f3f3f3" stroke-width=".96156"/>
  <path transform="matrix(1.0331 0 0 .96964 -46.181 -4.3977)" d="m57.818 9.8288s0.05354 3.0782-2.6636 4.5408c-2.2449 1.2084 0.9386 2.689-5.8599 5.0989 8.8505-2.5748 8.5235-9.6396 8.5235-9.6396z" fill="#141414" filter="url(#filter1066)" opacity=".3"/>
  <path transform="matrix(1.0038 0 0 .93538 -44.446 -3.947)" d="m57.818 9.8288s0.05354 3.0782-2.6636 4.5408c-2.2449 1.2084 0.9386 2.689-5.8599 5.0989 8.8505-2.5748 8.5235-9.6396 8.5235-9.6396z" fill="#141414" filter="url(#filter1066)" opacity=".3"/>
  <path d="m11.962-0.73527c-0.07737-0.006856-0.1567-0.006087-0.23702 0.002981l-11.585 1.3083c-0.64251 0.072548-1.1015 0.64791-1.029 1.2904l1.3083 11.585c0.072549 0.64251 0.64791 1.1011 1.2904 1.0286l3.6229-0.40894c3.3379-0.91806 8.0432-3.7658 8.1908-9.268l0.8 7.0782-1.3078-11.585c-0.06348-0.56219-0.51229-0.98406-1.0538-1.032z" fill="#fafafa" stroke-width=".96156"/>
  <path d="m5.5585 2.5403c-0.19872 0.052302-0.38616 0.14826-0.51463 0.27558l-2.5796 2.5569c-0.099605 0.098726-0.17996 0.23337-0.23659 0.3811l1.2467 0.33982 2.466 0.67201c0.33377 0.091052 0.65024 0.31294 0.88754 0.59436 0.06478-0.36232 0.22793-0.71277 0.47145-0.95848l2.7065-2.7297c-0.11335-0.087678-0.23705-0.15556-0.36022-0.18918l-1.7518-0.47769-1.7522-0.47792c-0.1745-0.047608-0.38443-0.039075-0.58314 0.013225zm4.6959 1.3805-0.90612 0.91383-1.7983 1.8143c-0.29903 0.30174-0.47318 0.95848-0.36387 1.3705 6.209e-4 0.00231 0.00189 0.00448 0.00251 0.0068l0.030532 0.11527 0.64099 2.3497 0.31798 1.1653c0.12017-0.05273 0.22965-0.12037 0.31311-0.20308l2.5796-2.5569c0.25693-0.25465 0.39068-0.74527 0.2986-1.095l-0.4621-1.7565-0.46236-1.756c-0.033074-0.12568-0.10144-0.25234-0.19042-0.3681zm-8.1086 2.1756c-0.014087 0.13006-0.00999 0.25815 0.019841 0.37147l0.4621 1.7565 0.46234 1.756c0.092092 0.34985 0.44984 0.71116 0.79883 0.80636l1.7522 0.47761 1.7522 0.47793c0.12571 0.03428 0.26981 0.03839 0.41495 0.01903l-0.30874-1.1736-0.61974-2.3554-0.031195-0.1151c-6.282e-4 -0.0023-6.061e-4 -0.00483-0.00123-0.00715-0.11134-0.41143-0.59057-0.89314-1.0004-1.0049l-2.4645-0.67206-1.2366-0.33682z" fill="#c8f178" stroke-width=".2346" style="isolation:isolate"/>
  <path d="m5.8721 3.7314c-0.1472 0.038746-0.28596 0.10992-0.38112 0.20423l-0.95562 0.94701-0.95517 0.94692c-0.066106 0.065528-0.12045 0.15284-0.16137 0.24887l0.055693 0.015319 2.466 0.67201c0.33377 0.091052 0.65025 0.31294 0.88754 0.59436 0.06478-0.36232 0.22793-0.71278 0.47145-0.95848l1.7996-1.815 0.037781-0.038231c-0.075832-0.054211-0.15644-0.096951-0.23717-0.11897l-2.5954-0.70776c-0.12926-0.035268-0.28495-0.028972-0.43214 0.0097713zm3.5107 1.0684-0.034421 0.034838-1.7983 1.8143c-0.29903 0.30174-0.47318 0.95848-0.36388 1.3705 6.209e-4 0.00231 0.00189 0.00448 0.00251 0.0068l0.030355 0.11461 0.63388 2.3231c0.07252-0.03602 0.1393-0.07866 0.19137-0.13026l0.95562-0.94701 0.95517-0.94692c0.19032-0.18862 0.28945-0.55231 0.22127-0.81139l-0.34216-1.3009-0.34251-1.3007c-0.020219-0.076877-0.059249-0.15399-0.10884-0.22699zm-6.0438 1.6216c-0.00365 0.076905 0.00223 0.15185 0.02003 0.21949l0.34216 1.3009 0.34248 1.3008c0.068193 0.25914 0.3335 0.52692 0.59199 0.59741l2.5954 0.70776c0.08013 0.02185 0.17067 0.02609 0.26281 0.01817l-0.61404-2.3342-0.031018-0.11444c-6.276e-4 -0.0023-6.061e-4 -0.00483-0.00123-0.00715-0.11134-0.41143-0.59057-0.89314-1.0004-1.0049l-2.4645-0.67206-0.043713-0.01177z" fill="#a5de37" stroke-width=".2346" style="isolation:isolate"/>
  <path d="m13.522 4.7694s0.05148 2.9599-2.5613 4.3663c-2.1586 1.1619 0.90252 2.5857-5.6346 4.9029 8.5103-2.4758 8.2634-9.2353 8.2634-9.2353z" fill="url(#linearGradient938)" stroke-width=".96156"/>
 </g>
</svg>
