<?xml version="1.0" encoding="UTF-8"?>
<svg width="64" height="64" version="1.1" viewBox="0 0 16.933 16.933" xmlns="http://www.w3.org/2000/svg" xmlns:cc="http://creativecommons.org/ns#" xmlns:dc="http://purl.org/dc/elements/1.1/" xmlns:rdf="http://www.w3.org/1999/02/22-rdf-syntax-ns#" xmlns:xlink="http://www.w3.org/1999/xlink">
 <defs>
  <linearGradient id="linearGradient2614" x1="2.7058" x2="61.834" y1="61.77" y2="2.4096" gradientTransform="matrix(.26458 0 0 .26458 -.15119 2.4474)" gradientUnits="userSpaceOnUse">
   <stop stop-color="#5a00a0" offset="0"/>
   <stop stop-color="#8c05eb" offset="1"/>
  </linearGradient>
 </defs>
 <metadata>
  <rdf:RDF>
   <cc:Work rdf:about="">
    <dc:format>image/svg+xml</dc:format>
    <dc:type rdf:resource="http://purl.org/dc/dcmitype/StillImage"/>
    <dc:title/>
   </cc:Work>
  </rdf:RDF>
 </metadata>
 <g transform="translate(.15119 -2.4474)">
  <circle cx="8.3155" cy="10.914" r="7.9375" fill="url(#linearGradient2614)" stroke-linecap="round" stroke-width=".064368"/>
  <path d="m13.891 11.919-1.1071-1.1265-2.2337-2.2142-0.73807-0.73807c-0.8158-0.8158-2.156-0.8158-2.9912 0l-0.73808 0.73807-2.2337 2.2142-1.1071 1.1071c-0.62157 0.62151-0.62157 1.6121 0 2.2336 0.62151 0.62157 1.6121 0.62157 2.2336 0l1.1071-1.1071 1.1071 1.1071c0.62151 0.62157 1.6121 0.62157 2.2336 0 0.62158-0.62151 0.62158-1.6121 0-2.2336l1.1071 1.1071 1.1071 1.1071c0.62151 0.62151 1.6121 0.62151 2.2337 0 0.64096-0.58268 0.64096-1.5927 0.01939-2.1948z" fill="#fff" fill-opacity=".85098" stroke-width=".060394"/>
 </g>
</svg>
