<?xml version="1.0" encoding="UTF-8"?>
<svg width="64" height="64" version="1.1" viewBox="0 0 16.933 16.933" xmlns="http://www.w3.org/2000/svg" xmlns:cc="http://creativecommons.org/ns#" xmlns:dc="http://purl.org/dc/elements/1.1/" xmlns:rdf="http://www.w3.org/1999/02/22-rdf-syntax-ns#" xmlns:xlink="http://www.w3.org/1999/xlink">
 <defs>
  <filter id="filter3775" x="-.044221" y="-.052486" width="1.0884" height="1.105" color-interpolation-filters="sRGB">
   <feGaussianBlur stdDeviation="0.62779296"/>
  </filter>
  <linearGradient id="linearGradient4438" x1="46.609" x2="50.925" y1="42.784" y2="46.851" gradientTransform="matrix(.26458 0 0 .26458 .96111 2.1772)" gradientUnits="userSpaceOnUse">
   <stop stop-color="#4a80eb" offset="0"/>
   <stop stop-color="#385eab" offset="1"/>
  </linearGradient>
 </defs>
 <metadata>
  <rdf:RDF>
   <cc:Work rdf:about="">
    <dc:format>image/svg+xml</dc:format>
    <dc:type rdf:resource="http://purl.org/dc/dcmitype/StillImage"/>
    <dc:title/>
   </cc:Work>
  </rdf:RDF>
 </metadata>
 <g transform="matrix(1.0383 0 0 1.0383 -1.3939 -2.6203)">
  <g stroke-linecap="round">
   <path d="m14.053 3.4578c-0.07342-0.00651-0.1491-0.00602-0.22531 0.00258l-10.992 1.2413c-0.60966 0.068839-1.045 0.61507-0.97617 1.2247l1.2413 10.992c0.068839 0.60966 0.61507 1.0455 1.2247 0.97668l10.992-1.2413c0.60966-0.06884 1.045-0.61507 0.97617-1.2247l-1.2413-10.993c-0.060234-0.53345-0.4855-0.9332-0.99942-0.97875z" fill="#385eab" stroke-width=".031485"/>
   <path d="m15.607 3.88-11.056 0.011369c-0.61318 6.165e-4 -1.1065 0.49477-1.1059 1.1079l0.010852 11.056c6.165e-4 0.61318 0.49477 1.106 1.1079 1.1054l11.056-0.01085c0.61318-6.08e-4 1.1065-0.49477 1.1059-1.1079l-0.01137-11.056c-6.08e-4 -0.61318-0.49476-1.1065-1.1079-1.1059z" fill="#4b82f0" stroke-width=".031485"/>
   <path transform="matrix(.26458 0 0 .26458 .96111 2.1772)" d="m59.646 28.482s-0.95601 10.276-11.217 14.062c-8.4775 3.128 2.352 9.3352-22.855 14.645 32.606-5.0377 34.072-28.707 34.072-28.707z" fill="#385eab" filter="url(#filter3775)" stroke-width=".119"/>
  </g>
  <path d="m15.839 3.903c-0.07226-0.014635-0.14703-0.022271-0.22368-0.02218l-11.056 0.011304c-0.6132 5.848e-4 -1.1064 0.49446-1.1059 1.1076l0.011314 11.056c5.847e-4 0.6132 0.4945 1.106 1.1076 1.1055l3.4575-0.0033c3.2427-0.5132 7.9775-2.7007 8.6966-7.8708l0.0073 6.7553-0.01095-11.056c-9.17e-4 -0.53653-0.37902-0.98145-0.88439-1.0838z" fill="#fafafa" image-rendering="optimizeSpeed" stroke-width=".91188"/>
  <path d="m16.724 9.2554s-0.26352 2.7952-2.8742 3.8452c-2.1569 0.86744 0.57773 2.5316-5.8276 4.0261 8.2816-1.4358 8.7623-7.8321 8.7623-7.8321z" fill="url(#linearGradient4438)" stroke-linecap="round" stroke-width=".031485"/>
  <path d="m9.4443 7.6674c-0.020862 0-0.037724 0.01678-0.037724 0.037724v0.70125c0 0.02354 0.018746 0.042891 0.042375 0.042891h0.30282c0.12247 0 0.22191 0.094233 0.23254 0.21394v3.3181c8.203e-4 0.02679-4.762e-4 0.0532-0.0031 0.07906-2.646e-4 0.0038-5.027e-4 0.0076-0.00103 0.01137-0.00161 0.01515-0.00377 0.03021-0.00672 0.04496-0.00161 0.0084-0.00418 0.01641-0.0062 0.0248-0.00271 0.01109-0.00489 0.02233-0.00827 0.03307-0.019968 0.06391-0.05142 0.12299-0.095084 0.17518-0.00161 0.0027-0.0036 0.0033-0.00517 0.0052-0.013314 0.01542-0.027416 0.03086-0.042891 0.04496-0.015613 0.01434-0.03171 0.02702-0.049093 0.03927-0.12355 0.08754-0.29014 0.1263-0.47594 0.10852-0.23691-0.022212-0.472-0.13-0.66197-0.30285-0.18995-0.17282-0.30784-0.38651-0.33228-0.60203-0.021997-0.19282 0.035489-0.36268 0.16226-0.47801h0.00103c0.0049-0.0043 0.010467-0.0081 0.015502-0.0124 0.090725-0.07601 0.20869-0.12218 0.34365-0.13488 0.00161-1.35e-4 0.00319 0 0.00465 0 0.014206 0 0.028804-0.0026 0.043408-0.0026 0.00763-2.64e-4 0.014999 0 0.022738 0 0.00271-2.7e-5 0.00518 0 0.00775 0h0.013951c0.021267 0 0.042741 1.24e-4 0.064596 0.0031 0.00276 2.44e-4 0.00491 1.36e-4 0.00775 0 0.00191 1.89e-4 0.00417 0 0.0062 0 0.1238 0.01245 0.24644 0.04941 0.36277 0.10542 0.00243 1.08e-4 0.00529-1.23e-4 0.00878 0.0026 0.03546 0.01948 0.042361-0.0028 0.043408-0.0155v-1.0552c0-0.03022-0.021146-0.057068-0.050643-0.063562-0.62658-0.13789-1.2416 0.00563-1.6753 0.40049-0.37896 0.3447-0.56221 0.84222-0.50281 1.3648 0.053 0.46541 0.29193 0.91219 0.67283 1.2588 0.37124 0.33775 0.84411 0.54937 1.3317 0.59531 0.067187 0.0062 0.13463 0.0093 0.2005 0.0093 0.46567 0 0.89754-0.15946 1.2165-0.44958 0.30212-0.27508 0.48349-0.6531 0.51005-1.064l0.0021-2.6949h5.29e-4v-0.73277c0.0027-0.12718 0.10623-0.22996 0.2341-0.22996h0.30282c0.0236 0 0.04289-0.018859 0.04289-0.042375v-0.70125c0-0.020836-0.01686-0.037724-0.03772-0.037724v-5.22e-4z" fill="#385eab" stroke-linecap="round" stroke-width=".031485"/>
 </g>
</svg>
