<?xml version="1.0" encoding="UTF-8"?>
<svg width="64" height="64" version="1.1" viewBox="0 0 16.933 16.933" xmlns="http://www.w3.org/2000/svg" xmlns:cc="http://creativecommons.org/ns#" xmlns:dc="http://purl.org/dc/elements/1.1/" xmlns:rdf="http://www.w3.org/1999/02/22-rdf-syntax-ns#" xmlns:xlink="http://www.w3.org/1999/xlink">
 <defs>
  <linearGradient id="a-3-4" x1="99.036" x2="99.036" y1="-.50472" y2="199.84" gradientTransform="matrix(.079375 0 0 .079375 2.6459 3.5435)" gradientUnits="userSpaceOnUse">
   <stop stop-color="#00a8f1" offset="0"/>
   <stop stop-color="#0093ed" offset="1"/>
  </linearGradient>
 </defs>
 <metadata>
  <rdf:RDF>
   <cc:Work rdf:about="">
    <dc:format>image/svg+xml</dc:format>
    <dc:type rdf:resource="http://purl.org/dc/dcmitype/StillImage"/>
    <dc:title/>
   </cc:Work>
  </rdf:RDF>
 </metadata>
 <g transform="translate(-2.1167 -3.0144)">
  <circle cx="10.583" cy="11.481" r="7.9375" color="#000000" fill="url(#a-3-4)" stroke-width=".26459"/>
  <g fill="#fff">
   <g stroke-width=".024992">
    <path d="m12.152 15.282c-0.06733 0.07692-0.15444 0.14884-0.23658 0.21513-0.53065-0.54841-1.1536-1.1562-1.7458-1.1562-0.36713 0-0.63155 0.27948-0.94004 0.47666-0.42811 0.27364-1.0153 0.42774-1.5186 0.2269-0.27067-0.10276-0.53291-0.25415-0.72889-0.50007 0.39609 0.27316 0.98922 0.30988 1.4364 0.12438 0.49424-0.20504 0.99729-0.47732 1.5605-0.47732 0.83029 0 1.6194 0.56164 2.173 1.0905zm-6.1367-1.7248c0.54973 0.62577 1.4463 0.42444 2.1802 0.58073 0.10215 0.02176 0.19811 0.05568 0.30775 0.03884-0.087249-0.05531-0.20289-0.06155-0.30367-0.09952-0.5694-0.21451-0.65817-0.8239-0.96978-1.2433 0.39801 0.2646 0.72775 0.62686 1.0999 0.96729 0.25904 0.23693 0.58177 0.33831 0.91647 0.40641-0.080426 0.02939-0.18564 0.02246-0.27226 0.04395-0.60122 0.14914-1.2678 0.38457-1.9075 0.17346-0.41285-0.13624-0.84248-0.4589-1.0511-0.86785zm-0.88118-1.4483c0.3429 0.77634 1.2044 0.83714 1.7772 1.3134 0.10892 0.09056 0.21689 0.1739 0.33654 0.22971l0.00618-0.0063c-0.13219-0.11955-0.27523-0.26209-0.37762-0.41085-0.3274-0.4757-0.21845-1.1259-0.47088-1.6303 0.22934 0.27462 0.44446 0.5574 0.57653 0.87182 0.21252 0.50598 0.28471 1.0832 0.76135 1.4677-0.51587-0.17019-1.111-0.13632-1.5755-0.44058-0.48829-0.31982-0.94083-0.82463-1.0338-1.3946zm-0.36731-1.5707c0.049579 0.68398 0.77778 1.0494 1.125 1.6116 0.07416 0.12008 0.15047 0.24405 0.25817 0.34103-0.016785-0.07282-0.076707-0.13735-0.10969-0.2088-0.11137-0.24124-0.16177-0.52043-0.13397-0.8075 0.03382-0.34928 0.17943-0.67361 0.12354-1.0411 0.29929 0.646 0.20275 1.4536 0.37572 2.1521 0.038266 0.15452 0.13237 0.28974 0.19035 0.43609-0.29406-0.2237-0.67942-0.42226-1.0022-0.67668-0.31216-0.24605-0.58311-0.53444-0.72395-0.90968-0.10149-0.27039-0.12788-0.59292-0.10297-0.89711zm0.020341-1.2603c0.035128-0.15265 0.062006-0.31065 0.12842-0.4507-0.12575 0.64523 0.30349 1.1113 0.45005 1.6695 0.055228 0.21037 0.074121 0.43389 0.15919 0.63018 0.00794 0.0043 0.014814-4e-3 0.019717-0.01035-0.21178-0.59409 0.098669-1.1431 0.40109-1.6114 0.079493-0.12309 0.11776-0.26642 0.15488-0.41131 0.032689 0.26893-0.024551 0.58026-0.074303 0.85778-0.064052 0.3573-0.18617 0.69216-0.28323 1.0369-0.0639 0.21536-0.047062 0.4584-0.014269 0.68404l-0.030821-0.0246c-0.22517-0.41567-0.6694-0.74039-0.80356-1.1941-0.10722-0.36258-0.1814-0.78148-0.10717-1.176zm0.23749-0.69408c0-0.48826 0.19012-0.88658 0.47529-1.2502 0.00828-0.00412 0.014166-0.012427 0.024855-0.01048-0.31395 0.47755-0.028199 1.0804-0.068544 1.622l-0.041406 0.55593c0.00615 0.00405 0.00615 0.02073 0.02073 0.014346 0.01855-0.06198 0.02418-0.12791 0.034973-0.19191 0.075578-0.44818 0.46913-0.76013 0.80289-1.0765 0.078948-0.074845 0.13675-0.16334 0.17398-0.25845-0.02776 0.22325-0.090035 0.4521-0.19025 0.65498-0.2569 0.52009-0.75307 0.93992-0.84232 1.531-0.043274-0.56646-0.3902-0.98756-0.3902-1.5907zm0.82753-1.6471c0.15787-0.17503 0.33481-0.31138 0.54544-0.36532-0.40903 0.28126-0.38682 0.78392-0.51205 1.2042-0.045791 0.15368-0.11309 0.29765-0.14887 0.45648l0.010351 0.00828c0.06805-0.17956 0.18481-0.35216 0.33693-0.49569 0.2877-0.27144 0.72023-0.43573 0.86258-0.83277-0.0065114 0.55175-0.47682 0.97116-0.90638 1.2956-0.19266 0.14553-0.35639 0.34093-0.4563 0.54576 0.016695-0.15245 0.024276-0.27927 0.010663-0.42807-0.044092-0.48198-0.072684-1.0223 0.25762-1.3885zm1.6602-0.92762c-0.30357 0.26637-0.50612 0.60922-0.73932 0.91743-0.19396 0.25635-0.46009 0.41518-0.68897 0.63028 0.12355-0.25633 0.14636-0.55004 0.30326-0.79801 0.2683-0.42403 0.71172-0.58862 1.125-0.7497z" opacity=".81"/>
    <path d="m9.015 15.282c0.067324 0.07692 0.15444 0.14884 0.23658 0.21513 0.53065-0.54841 1.1536-1.1562 1.7458-1.1562 0.36713 0 0.63155 0.27948 0.94004 0.47666 0.42811 0.27364 1.0153 0.42774 1.5186 0.2269 0.27067-0.10276 0.53291-0.25415 0.72889-0.50007-0.39609 0.27316-0.98922 0.30988-1.4364 0.12438-0.49424-0.20504-0.99729-0.47732-1.5605-0.47732-0.83029 0-1.6194 0.56164-2.173 1.0905zm6.1367-1.7248c-0.54972 0.62577-1.4463 0.42444-2.1802 0.58073-0.10214 0.02176-0.19811 0.05568-0.30775 0.03884 0.08725-0.05531 0.20289-0.06155 0.30367-0.09952 0.5694-0.21451 0.65817-0.8239 0.96978-1.2433-0.398 0.2646-0.72775 0.62686-1.0999 0.96729-0.25904 0.23693-0.58177 0.33831-0.91647 0.40641 0.08043 0.02939 0.18564 0.02246 0.27226 0.04395 0.60122 0.14915 1.2678 0.38458 1.9075 0.17346 0.41285-0.13624 0.84248-0.4589 1.0511-0.86785zm0.88118-1.4483c-0.3429 0.77634-1.2044 0.83714-1.7772 1.3134-0.10892 0.09056-0.21689 0.1739-0.33654 0.22971l-0.0062-0.0063c0.13218-0.1196 0.27523-0.26214 0.37761-0.4109 0.3274-0.4757 0.21845-1.1259 0.47088-1.6303-0.22934 0.27462-0.44446 0.5574-0.57652 0.87182-0.21252 0.50598-0.28471 1.0832-0.76135 1.4677 0.51587-0.17019 1.111-0.13632 1.5755-0.44058 0.48829-0.31982 0.94083-0.82463 1.0338-1.3946zm0.36731-1.5707c-0.04958 0.68398-0.77778 1.0494-1.125 1.6116-0.07416 0.12008-0.15048 0.24405-0.25817 0.34103 0.01679-0.07282 0.07671-0.13735 0.10969-0.2088 0.11137-0.24124 0.16177-0.52043 0.13397-0.8075-0.03382-0.34928-0.17943-0.67361-0.12354-1.0411-0.29929 0.646-0.20275 1.4536-0.37572 2.1521-0.03827 0.15452-0.13237 0.28974-0.19035 0.43609 0.29406-0.2237 0.67942-0.42226 1.0022-0.67668 0.31216-0.24605 0.58311-0.53444 0.72395-0.90968 0.10149-0.27039 0.12788-0.59292 0.10297-0.89711zm-0.020341-1.2603c-0.035128-0.15265-0.062006-0.31065-0.12842-0.4507 0.12575 0.64523-0.3035 1.1113-0.45005 1.6695-0.05523 0.21037-0.07412 0.43389-0.15919 0.63018-0.0079 0.0043-0.01481-4e-3 -0.01972-0.01035 0.21178-0.59409-0.09867-1.1431-0.40109-1.6114-0.07949-0.12309-0.11776-0.26642-0.15488-0.41131-0.03269 0.26893 0.02455 0.58026 0.0743 0.85778 0.06405 0.3573 0.18617 0.69216 0.28323 1.0369 0.0639 0.21536 0.04706 0.4584 0.01427 0.68404l0.03082-0.0246c0.22517-0.41567 0.6694-0.7404 0.80356-1.1941 0.10722-0.36258 0.1814-0.78148 0.10717-1.176zm-0.23749-0.69408c0-0.48826-0.19012-0.88658-0.47529-1.2502-0.0083-0.00412-0.01417-0.012427-0.02486-0.01048 0.31395 0.47755 0.0282 1.0804 0.06854 1.622l0.04141 0.55593c-0.0061 0.00405-0.0061 0.02073-0.02073 0.014346-0.01855-0.06198-0.02418-0.12791-0.03497-0.19191-0.07558-0.44818-0.46913-0.76013-0.80289-1.0765-0.07895-0.074845-0.13675-0.16334-0.17398-0.25845 0.02776 0.22325 0.09004 0.4521 0.19025 0.65498 0.2569 0.52009 0.75307 0.93992 0.84232 1.531 0.04327-0.56646 0.3902-0.98756 0.3902-1.5907zm-0.82753-1.6471c-0.15787-0.17503-0.33481-0.31138-0.54544-0.36532 0.40903 0.28126 0.38682 0.78392 0.51205 1.2042 0.04579 0.15368 0.11309 0.29765 0.14887 0.45648l-0.01035 0.00828c-0.068052-0.17956-0.18481-0.35216-0.33693-0.49569-0.2877-0.27144-0.72023-0.43573-0.86258-0.83277 0.0065 0.55175 0.47682 0.97116 0.90638 1.2956 0.19266 0.14553 0.35639 0.34093 0.4563 0.54576-0.0167-0.15245-0.02427-0.27927-0.01066-0.42807 0.04409-0.48198 0.07269-1.0223-0.25762-1.3885zm-1.6602-0.92762c0.30357 0.26637 0.50612 0.60922 0.73932 0.91743 0.19396 0.25635 0.46009 0.41518 0.68897 0.63028-0.12354-0.25633-0.14636-0.55004-0.30326-0.79801-0.2683-0.42403-0.71172-0.58862-1.125-0.7497z" opacity=".81"/>
    <path d="m14.291 11.524-0.08966-0.04892c-0.1901 0.39203-0.44182 0.7488-0.74292 1.0574l-0.52381-0.52382c0.25662-0.26444 0.46353-0.5646 0.61596-0.889l-0.08925-0.04879c-0.15068 0.32168-0.35342 0.61436-0.59792 0.86654l-0.4745-0.4745c0.2037-0.21176 0.36534-0.45339 0.482-0.71451l-0.08855-0.04832c-0.11425 0.25735-0.27187 0.49137-0.46446 0.69196l-0.52439-0.52439c0.14583-0.15454 0.25842-0.33235 0.33505-0.52476l-0.08857-0.04832c-0.07322 0.18762-0.18145 0.35796-0.31703 0.50245l-0.47595-0.47588c0.13559-0.15131 0.21422-0.34115 0.22535-0.54396h0.67369c-0.0057 0.18203-0.04302 0.35617-0.10605 0.51742l0.08857 0.04832c0.0709-0.17827 0.11094-0.36896 0.11667-0.56575h0.74265c-0.0067 0.32788-0.07979 0.63965-0.20555 0.92294l0.08855 0.04832c0.13504-0.30243 0.20966-0.63108 0.21627-0.9713h0.67242c-0.0071 0.46173-0.11359 0.89955-0.29828 1.2938l0.08925 0.04879c0.19524-0.41547 0.30136-0.87086 0.30836-1.3425h0.7426c-0.0074 0.60779-0.15059 1.1833-0.40018 1.698l0.0897 0.0489c0.26849-0.55301 0.41102-1.1637 0.41102-1.7965 0-0.53816-0.10311-1.0603-0.29901-1.5446l-0.09202 0.03955c0.18451 0.45706 0.28451 0.94858 0.29066 1.4554h-0.7427c-6e-3 -0.40433-0.08547-0.79641-0.23082-1.1619l-0.09134 0.039143c0.1402 0.35334 0.21695 0.73213 0.22287 1.1228h-0.67249c-0.0057-0.29776-0.06381-0.58667-0.16861-0.85699l-0.09134 0.039241c0.09968 0.25797 0.15495 0.53366 0.16076 0.81775h-0.74272c-0.0053-0.18155-0.03965-0.35809-0.10063-0.52439l-0.09132 0.039181c0.05602 0.15404 0.0875 0.31728 0.09276 0.4852h-0.67369c-0.011126-0.20284-0.08976-0.39266-0.22535-0.54396l0.47643-0.47635c0.14712 0.15647 0.2584 0.33817 0.32987 0.53514l0.09132-0.039181c-0.076491-0.20834-0.19487-0.40055-0.35109-0.56613l0.52516-0.52511c0.2241 0.23326 0.39515 0.50407 0.50852 0.79786l0.09134-0.039241c-0.11836-0.30516-0.29654-0.58652-0.52967-0.8288l0.4755-0.47558c0.29448 0.30371 0.52074 0.65612 0.67237 1.0386l0.09134-0.039143c-0.15667-0.39393-0.39001-0.75689-0.69352-1.0696l0.52509-0.52519c0.37136 0.38043 0.65782 0.82187 0.85126 1.3013l0.09202-0.039551c-0.2044-0.50582-0.50997-0.9704-0.90737-1.3678-0.39885-0.3989-0.86548-0.70516-1.3735-0.9096l-0.03659 0.093152c0.48043 0.19351 0.92284 0.4803 1.304 0.85236l-0.52509 0.52516c-0.30741-0.29791-0.66355-0.52884-1.0502-0.68529l-0.03624 0.092352c0.37386 0.15168 0.71848 0.37504 1.0163 0.6639l-0.47548 0.4755c-0.23115-0.22236-0.4977-0.39505-0.78663-0.51327l-0.0363 0.092352c0.27646 0.1133 0.53144 0.27854 0.75277 0.49112l-0.52509 0.52509c-0.1477-0.13923-0.3166-0.24849-0.4991-0.3247l-0.03632 0.092429c0.17007 0.071271 0.32735 0.17295 0.46523 0.30248l-0.47635 0.47635c-0.15141-0.13561-0.34117-0.21422-0.54406-0.22529v-0.67367c0.1936 0.00596 0.38106 0.047091 0.55518 0.12014l0.03632-0.092429c-0.18554-0.077524-0.38534-0.12093-0.5915-0.12699v-0.74267c0.30071 0.00604 0.59207 0.067159 0.86294 0.17816l0.0363-0.092352c-0.28226-0.1155-0.58597-0.17896-0.89925-0.185v-0.67279c0.39878 0.00608 0.78544 0.085611 1.145 0.2314l0.03624-0.092352c-0.37106-0.15031-0.76984-0.23218-1.1813-0.23828v-0.74275c0.50584 0.00612 0.99647 0.10582 1.4527 0.28951l0.03659-0.093152c-0.4827-0.19435-1.0028-0.29676-1.5388-0.29676-0.66217 0-1.2878 0.15799-1.8427 0.43679l0.045261 0.086624c0.53689-0.26902 1.1309-0.41557 1.7478-0.42302v0.74277c-0.50312 0.00748-0.97853 0.12957-1.4025 0.3401l0.045104 0.086388c0.4177-0.20678 0.87878-0.32005 1.3574-0.32735v0.67252c-0.37411 0.00736-0.7281 0.09734-1.0449 0.25197l0.045376 0.086778c0.30843-0.14971 0.64758-0.23246 0.99957-0.23955v0.74275c-0.23341 0.0069-0.45479 0.062191-0.65468 0.15598l0.045611 0.087111c0.18909-0.087891 0.39538-0.1373 0.60906-0.14391v0.67377c-0.10451 0.0058-0.20419 0.029653-0.29606 0.068406l0.04553 0.087071c0.09397-0.038481 0.1955-0.058742 0.30013-0.058742 0.21161 0 0.41052 0.082395 0.56018 0.23201 0.14963 0.14963 0.23203 0.34862 0.23203 0.56025 0 0.43682-0.35532 0.79231-0.79221 0.79231-0.21167 0-0.41062-0.08244-0.56025-0.23207-0.14963-0.14971-0.23205-0.34862-0.23205-0.56025 0-0.21163 0.082415-0.41062 0.23205-0.56025 0.07569-0.075654 0.16397-0.13391 0.2601-0.17327l-0.04553-0.087071c-0.0913 0.038558-0.17484 0.091844-0.24767 0.15708l-0.47663-0.47663c0.12313-0.11571 0.2618-0.20927 0.41127-0.27874l-0.045611-0.087111c-0.16076 0.075459-0.30758 0.17574-0.43537 0.29621l-0.52564-0.52566c0.18433-0.17707 0.39223-0.32095 0.61614-0.42972l-0.045376-0.086778c-0.23647 0.11538-0.45234 0.26662-0.64008 0.44711l-0.47635-0.4763c0.24043-0.23328 0.51174-0.42335 0.80395-0.56795l-0.045104-0.086389c-0.30588 0.15193-0.58525 0.34967-0.828 0.58525l-0.52619-0.52621c0.30166-0.29448 0.64203-0.53499 1.0089-0.71886l-0.045261-0.086624c-0.80193 0.403-1.4548 1.0598-1.8524 1.8649l0.086291 0.046566c0.1854-0.37708 0.43062-0.7267 0.73228-1.0358l0.52624 0.52624c-0.24479 0.2522-0.44931 0.54356-0.60334 0.86364l0.085961 0.046411c0.14671-0.30648 0.34342-0.59034 0.58642-0.84094l0.47638 0.47633c-0.19201 0.19974-0.35087 0.43132-0.46863 0.68569l0.086156 0.046488c0.11092-0.24181 0.26249-0.46573 0.45184-0.66282l0.52564 0.52566c-0.13436 0.14254-0.2438 0.30878-0.32148 0.49167l0.086856 0.046976c0.071388-0.17155 0.17371-0.3302 0.30423-0.46903l0.47663 0.47658c-0.13085 0.14626-0.21393 0.33535-0.22546 0.54373h-0.67384c0.0059822-0.19213 0.046488-0.37828 0.11844-0.55131l-0.086856-0.046976c-0.078478 0.18476-0.1245 0.38661-0.13079 0.59827h-0.74265c0.00668-0.33422 0.081635-0.65695 0.21742-0.95281l-0.086156-0.046488c-0.14131 0.30511-0.22344 0.6431-0.23037 0.99932h-0.67262c0.0070538-0.46446 0.11361-0.91252 0.30886-1.3204l-0.085961-0.046411c-0.19978 0.41487-0.31468 0.87796-0.32198 1.3668h-0.7428c0.0073052-0.60659 0.14905-1.1911 0.40955-1.7208l-0.086291-0.046566c-0.27079 0.54848-0.42367 1.1651-0.42367 1.817 0 0.39878 0.05695 0.78853 0.16574 1.1608l0.09728-0.02447c-0.10229-0.3489-0.15811-0.71361-0.16261-1.0867h0.74267c0.00458 0.31111 0.052509 0.61509 0.14049 0.9053l0.096305-0.02427c-0.086136-0.28234-0.13295-0.57823-0.13761-0.88104h0.67249c0.00485 0.24664 0.045534 0.4873 0.11877 0.71633l0.096463-0.02433c-0.071408-0.2211-0.11113-0.45366-0.11596-0.69199h0.74265c0.00518 0.17638 0.037798 0.34802 0.095566 0.51014l0.096521-0.02437c-0.055976-0.15418-0.087656-0.31768-0.092897-0.48575h0.67377c0.011126 0.20282 0.089703 0.39265 0.22529 0.54396l-0.47638 0.4764c-0.14696-0.15641-0.25822-0.33787-0.3298-0.53461l-0.096521 0.02437c0.076239 0.21377 0.19639 0.41105 0.35614 0.58037l-0.52509 0.52514c-0.25542-0.26592-0.44236-0.58107-0.55308-0.92346l-0.096463 0.02434c0.11497 0.35954 0.311 0.69029 0.5796 0.96945l-0.47558 0.4756c-0.35564-0.36674-0.61251-0.80423-0.75764-1.2804l-0.096305 0.02427c0.14955 0.49328 0.4153 0.94664 0.78376 1.3263l-0.52511 0.52514c-0.46476-0.4762-0.79671-1.0478-0.9792-1.67l-0.09728 0.02447c0.19142 0.65508 0.54458 1.2555 1.0406 1.7515 0.33592 0.336 0.71988 0.60644 1.1361 0.80573l0.049292-0.08742c-0.39395-0.18774-0.75837-0.44074-1.0794-0.7542l0.52509-0.52506c0.27292 0.26489 0.58412 0.47613 0.92062 0.63001l0.049-0.08691c-0.32882-0.14923-0.63293-0.35495-0.89938-0.61324l0.47553-0.47556c0.22287 0.21442 0.47878 0.38251 0.75589 0.50025l0.048963-0.08676c-0.26917-0.11297-0.51809-0.27542-0.73453-0.48335l0.52516-0.52514c0.16875 0.1592 0.36519 0.27909 0.57815 0.35537l0.04962-0.08789c-0.20555-0.071174-0.39512-0.185-0.55758-0.33762l0.47638-0.47643c0.15131 0.1357 0.34105 0.21426 0.54396 0.22539v0.67377c-0.1598-0.0049-0.3154-0.03413-0.46276-0.08506l-0.04962 0.08789c0.16278 0.05839 0.3351 0.09114 0.51239 0.09637v0.7426c-0.30731-0.0061-0.60507-0.06977-0.88096-0.1855l-0.048963 0.08676c0.29094 0.12366 0.60519 0.19174 0.92992 0.19801v0.67252c-0.44252-0.0068-0.86988-0.10408-1.262-0.28199l-0.049 0.08692c0.407 0.18597 0.85114 0.28744 1.311 0.29431v0.74257c-0.58987-0.007101-1.1591-0.14082-1.6773-0.38764l-0.049292 0.08742c0.54756 0.2621 1.1511 0.40065 1.7762 0.40065 0.65565 0 1.2874-0.1532 1.8559-0.44086l-0.04696-0.09106c-0.53021 0.26852-1.1271 0.42372-1.7594 0.43149v-0.7426c0.50132-0.0074 0.9839-0.12758 1.4199-0.34689l-0.04635-0.08986c-0.41445 0.20873-0.88028 0.3298-1.3736 0.33747v-0.67252c0.37614-0.0072 0.73815-0.0975 1.0661-0.26107l-0.04608-0.08943c-0.30853 0.15388-0.65418 0.24378-1.02 0.25125v-0.7426c0.23955-7e-3 0.47016-0.06466 0.68004-0.1674l-0.04577-0.0889c-0.19277 0.09409-0.4074 0.14989-0.63431 0.15706v-0.67367c0.20288-0.01113 0.39266-0.08968 0.54406-0.22539l0.47588 0.47593c-0.11394 0.10694-0.24384 0.19684-0.38563 0.26609l0.04577 0.0889c0.14868-0.07281 0.28711-0.16793 0.41052-0.28434l0.52429 0.52432c-0.17504 0.16816-0.37561 0.30948-0.59487 0.41877l0.04608 0.08943c0.22488-0.11211 0.43392-0.2584 0.61979-0.43717l0.4745 0.47446c-0.23115 0.22418-0.49647 0.41282-0.78681 0.55885l0.04635 0.08986c0.29484-0.14825 0.56853-0.3414 0.81165-0.57747l0.52382 0.52382c-0.29224 0.28524-0.62823 0.52544-0.99597 0.71161l0.04696 0.09107c0.38536-0.19499 0.7421-0.45116 1.0564-0.76552 0.33045-0.33037 0.59709-0.70741 0.79538-1.1158z" opacity=".81"/>
   </g>
   <path d="m10.82 8.804-0.0014-0.029609-0.02486 0.00101 0.0012 0.029808z" opacity=".81" stroke-width=".019725"/>
   <path d="m10.757 8.7347h0.03319v0.025297h-0.03319z" opacity=".81" stroke-width=".024992"/>
   <path d="m10.701 8.7011-0.0035 0.024839 0.02917 0.00437 0.0035-0.025037z" opacity=".81" stroke-width=".019725"/>
   <path d="m10.673 8.7174-0.029-0.00419 0.0035-0.025085 0.029 0.00419z" opacity=".81" stroke-width=".024992"/>
   <path d="m10.433 8.684h0.03319v0.025318h-0.03319z" opacity=".81" stroke-width=".024992"/>
   <path d="m10.365 8.7094-0.0035 0.025037 0.02898 0.00417 0.0035-0.025037z" opacity=".81" stroke-width=".019725"/>
   <path d="m10.364 8.7726-0.03329-0.00846 0.0061-0.02454 0.03329 0.00846z" opacity=".81" stroke-width=".024992"/>
   <path d="m10.305 8.8038-0.0041-0.02531 0.02461-0.00414 0.0041 0.02531z" opacity=".81" stroke-width=".024992"/>
   <g stroke-width=".019725">
    <path d="m7.064 11.383-0.033286-0.01272v-0.02106h-0.020754v0.04213h0.033286v0.05485h0.025061z" opacity=".81"/>
    <path d="m7.3424 11.745-0.045621-0.04213-0.033286-0.0463-0.016642-0.03795-0.029174-0.07591 0.062264 0.02941 0.02095 0.05902 0.028978 0.02126 0.029174 0.06319z" opacity=".81"/>
    <path d="m8.2439 12.888-0.04151-0.01272-0.00411-0.03796-0.033286-0.05067 0.049929 0.0085 0.053845 0.0463 0.02095 0.05485-0.029174 0.01689z" opacity=".81"/>
   </g>
   <path d="m10.454 9.0466h-0.04568l-0.0083-0.092741 0.02492-0.016931v-0.046361h-0.14542l-0.0042-0.046341 0.02083-0.012658-0.03328-0.012658-0.02495 0.033702-0.0082 0.037956-0.04157 0.00846v0.021045h-0.02906v0.054806l-0.11636 0.096975-0.23263-0.00839c-0.016682 0.037916-0.05825-0.00427-0.05825-0.00427-0.00824-0.025278-0.066375 0-0.066375 0 0 0.046441-0.078946-0.021045-0.078946-0.021045l-0.14544-0.10544c-0.083077-0.075889-0.2077 0.021124-0.21184 0.042167 0.00413 0.059039-0.095551 0.012658-0.095551 0.012658s-0.083077-0.025278-0.095571 0.00846c-0.012433 0.033702-0.066532 0.025318-0.066532 0.025318l-0.00832 0.016851-0.041567 0.00843-0.00824 0.025278-0.049889 0.00847 0.12461-0.00423c0.033267-0.00421-0.012491 0.071698-0.033207 0.067484l-0.058112 0.00421-0.020833 0.021045h-0.054008l-0.024905 0.033802-0.078888-0.00423s-0.045759 0.037936-0.041547 0.050575c0.00415 0.012658-0.00832 0.050615-0.020815 0.050615-0.012472 0-0.037399 0.037936-0.029076 0.050575 0.00836 0.012658-0.024905 0.054826-0.024905 0.054826l-0.00828 0.042207-0.024905 0.00838v0.11387l-0.049887 0.033744v0.050575l-0.074835 0.080123 0.00836 0.067424-0.062283 0.067484 0.00824 0.067464-0.037379 0.012658-0.00826 0.029509-0.016603 0.088508 0.04153 0.0043c0.020714-0.0085 0.016603 0.0548 0 0.06319-0.016682 0.0085-0.062381 0.0253-0.037399 0.04215 0.024945 0.01693-0.066495 0.01268-0.066495-0.01264 0-0.02524-0.04987-0.04636-0.062283-0.0379-0.012491 0.0084-0.033285-0.03796-0.033285-0.03796-0.045681-0.04636-0.18695 0.0042-0.18695 0.0042l-0.020833 0.06747c-0.045641 0.0085-0.074717 0.08435-0.074717 0.08435-0.037399 0.01266-0.066475 0.059-0.054001 0.07166 0.012433 0.01266-0.020833 0.01685-0.020833 0.01685v0.0928l-0.020735 0.02951 0.00411 0.10117c0.024964 0 0.020833 0.04642 0.020833 0.04642-0.041567 0.0042-0.033305 0.05904-0.033305 0.05904l-0.087209 0.02949-0.016603 0.02528-0.108-0.0042-0.029076 0.02955-0.029154-0.02955h-0.20772l-0.00824-0.02106-0.041567-0.0085-0.00419-0.04634-0.062283 0.0042-0.012451 0.0253-0.066512 0.0042c0.00415 0.04219-0.066475 0.10546-0.074717 0.08863-0.00842-0.01689-0.054078-0.06333-0.033267-0.07168 0.020794-0.0085 0.074834-0.01695 0.074834-0.01695v-0.02949l-0.15378-0.0042-0.016566 0.02532-0.062401 0.0042v0.06748l-0.029036 0.0084c-0.020812 0.0126 0.00411 0.05904 0.00411 0.05904 0.029076 0.02947-0.00411 0.07583-0.00411 0.07583-0.024963 0.02532 0.020717 0.07176 0.020717 0.07176 0.033285 0.0084-0.020717 0.03368-0.020717 0.03368 0.00824 0.04215 0.033207 0.0548 0.033207 0.0548-0.024963 0.04215 0.016682 0.06319 0.016682 0.06319l0.00411 0.07176 0.029076 0.01689v0.04628l0.016603 0.02955h0.066475l-0.00415-0.1054c-0.058192-0.06748 0.049812-0.08435 0.054041-0.0591 0.00419 0.02532 0.04987 0.03798 0.04987 0.03798 0.00832 0.06327 0.078966 0.10117 0.099682 0.03799 0.020794-0.06333 0.037399-0.02532 0.04987 0.0042 0.012473 0.02955 0.09132 0.10125 0.09132 0.10125h0.062361l0.00836 0.05904c0.070606-0.0042 0.091322 0.0043 0.1204 0.10117 0.029154 0.09694 0.10804 0.12225 0.10804 0.12225l0.058192-0.0042c0-0.05051 0.058172 0.0085 0.058172 0.03384 0 0.0252 0.11215 0.12219 0.11215 0.12219l0.11213 0.02526 0.10399 0.08443 0.078868-0.0084h0.033285c0.020717-0.07175 0.12048 0.0042 0.12872 0.02947 0.00838 0.02532 0.074835 0.06749 0.083077 0.04636 0.00836-0.02105 0.054041-0.0084 0.062381 0.05481 0.00828 0.06333 0.037318 0.05065 0.037318 0.05065l0.23686-0.0042 0.083077-0.07176 0.21191-0.0042c0.108-0.0042 0.04153-0.15182 0.020815-0.15182-0.037399-0.02947 0.012414-0.15176 0.012414-0.15176l-0.30329-0.28259c-0.070606 0-0.00832-0.10125-0.00832-0.10125 0.054001-0.03376-0.012491-0.08849-0.012491-0.08849 0.00836-0.05067-0.029076-0.10969-0.029076-0.10969-0.074717-0.05059-0.054001-0.14761-0.054001-0.14761v-0.06749c-0.062283-0.05896 0.024945-0.06748 0.024945-0.06748 0.029036-0.05049-0.020815-0.08847-0.020815-0.08847l-0.00413-0.05483-0.066495-0.0085-0.00824-0.19818-0.14955-0.21499c-0.029154-0.0085-0.00836-0.05904-0.00836-0.05904 0.037399-0.0211-0.00836-0.07164-0.00836-0.07164l-0.00413-0.092781 0.087208-0.00849 0.020815-0.033682h0.04153l-0.0041372-0.10961c0.020735-0.054806 0.070586-0.025318 0.070586-0.025318l0.058172 0.00423 0.033267-0.063251 0.00824-0.050615-0.045641-0.00417c-0.049867-0.029547-0.024942-0.13914-0.024942-0.13914 0.078946-0.1181 0.17029-0.050632 0.17029-0.050632l0.05823-0.00417c0.087208 0.058999 0.00824 0.16863 0.00824 0.16863-0.016605 0.025318-0.00824 0.10542-0.00824 0.10542l0.020735 0.13487-0.054001 0.046441c-0.045681 0.025318-0.045681 0.084314 0.00419 0.096972 0.033207 0.0042 0.020735 0.08432-0.029136 0.02949-0.074717 0 0.041627 0.06746 0.00836 0.05053 0.074815 0.03798 0.058112-0.0337 0.058112-0.0337l0.099799-0.080123c0.037399-0.029491 0.10389 0.06329 0.10389 0.075949 0 0.01264 0.16615 0.0042 0.16615 0.0042 0.045681 0.02951 0.062283 0.10544 0.062283 0.10544 0.045758-0.05908 0.14127-0.0043 0.070663 0.02949 0.066415 0.04217 0.066415 0.0801 0.066415 0.0801 0.054078-0.01685 0.054078 0.0253 0.054078 0.03796s0.016603-0.06323 0.016603-0.06323c-0.062323-0.0464 0.083077-0.06325 0.041567 0.02108l-0.024964 0.03797 0.041567 0.0337 0.00411 0.09701c0.091437-0.0085 0.066495-0.12233 0.066495-0.12233l0.041547-0.0084c0-0.03798 0.029036-0.01689 0.029036-0.01689-0.029036-0.14339 0.066512-0.16863 0.066512-0.16863 0.054001-0.01266 0.058132-0.12656 0.058132-0.12656-0.037319-0.016851-0.016624-0.075849 0.024945-0.025217 0.04151 0.050514-0.024945-0.10127-0.024945-0.10127l-0.033207-0.029491-0.045681-0.00421-0.00419-0.046381h-0.074717l-0.012491 0.05906-0.029076 0.00843-0.00836-0.016891-0.012433 0.046381h-0.074753l-0.00413-0.050594 0.045681-0.012639 0.016624-0.025297 0.012433-0.067484h0.054041l0.070606-0.021045c0.00411-0.071698 0.041547-0.054806 0.041547-0.054806l0.024905 0.021064 0.037399 0.029508 0.00417 0.025257-0.024964 0.012639-0.00411 0.033782 0.012472 0.046361h0.033207c0.012454-0.067464 0.099759-0.067464 0.12466-0.025297l0.02494-0.059019c-0.058152-0.029509-0.0011-0.075929 0.01553-0.054826 0.0166 0.021103 0.05508-0.054806 0.05508-0.054806s0.02908 0.037956 0-0.012658 0.02074-0.075889 0.02074-0.075889c-0.0083-0.050575 0.05404-0.042167 0.05404-0.042167l0.0042-0.067424-0.05823-0.00427c-0.01238 0.05904-0.06226 0.00847-0.03734-0.00417 0.02496-0.012679 0.04981-0.037976 0.04981-0.037976v-0.042171l0.02495-0.00843 0.0041-0.042167h0.06236l0.054-0.025278 0.01249-0.021103 0.05811-0.00419 0.08308-0.075929-0.0082-0.033702c-0.04987 0 0-0.037956 0-0.037956l0.0082-0.063113z" opacity=".81" stroke-width=".024992"/>
   <path d="m8.7799 9.8814-0.074794-0.00843 0.00419 0.029491h0.020735c0.033207 0.05906 0.00417 0.20239 0.00417 0.20239s-0.049812 0.0042-0.058172-0.02106c-0.00824-0.0253-0.029076 0.05483-0.012472 0.06748 0.016603 0.01258 0.074815 0 0.078946 0.0464 0.00411 0.04634 0.037399-0.02955 0.037399-0.02955v-0.28673z" opacity=".81" stroke-width=".024992"/>
   <g stroke-width=".019725">
    <path d="m8.705 10.324 0.066572 0.08843 0.024866-0.05902 0.00842-0.03796-0.029174-0.01252 0.00411-0.06319 0.025061-0.0044 0.00411-0.02961-0.06246 0.04233-0.04151-0.02524z" opacity=".81"/>
    <path d="m8.7798 10.501 0.033286 0.0042v-0.04213l-0.028979 0.0042z" opacity=".81"/>
    <path d="m8.7404 10.712 0.035244-0.0042v-0.02961l-0.035244 0.0042z" opacity=".81"/>
   </g>
   <path d="m8.8247 10.578c0.00973 0 0.017563-8e-3 0.017563-0.01783 0-0.0099-0.00783-0.01793-0.017563-0.01793-0.00973 0-0.017621 8e-3 -0.017621 0.01793 0 0.0099 0.00789 0.01783 0.017621 0.01783z" opacity=".81" stroke-width=".024992"/>
   <g stroke-width=".019725">
    <ellipse cx="8.8536" cy="10.649" rx=".017622" ry=".017885" opacity=".81"/>
    <ellipse cx="8.8546" cy="10.167" rx=".017622" ry=".017885" opacity=".81"/>
    <path d="m10.192 9.5609-0.0043 0.033782h0.02506l0.0041 0.025236-0.01664 0.016891-0.0082 0.021064-0.03329 0.00855-0.07479 0.071737-0.0041 0.033583-0.02075 0.029609-0.02487 0.063192-0.087327 0.00417-0.016642 0.07591 0.012335 0.063192 0.074796 0.02961 0.0084-0.042128 0.02487-0.012718 0.0043-0.042128 0.01645-0.029609 0.02506-0.02941 0.0082-0.033782 0.04151-0.025236 0.04993-0.00854 0.02075-0.025236 0.0084-0.050474 0.0029-0.037955 0.01782-0.025437 0.04973-0.021063v-0.080083h-0.02487l-0.0041-0.029609-0.04582-0.00417-0.0082 0.021064z" opacity=".81"/>
   </g>
   <g stroke-width=".024992">
    <path d="m10.383 9.8309v-0.059039l-0.0084-0.054826-0.06225-0.029489-0.04568 0.042167-0.0084 0.059039v0.037916l-0.04153 0.00847-0.0084 0.11383-0.03319 0.012679 0.0042 0.042167-0.04568 0.01264-0.04568 0.01266-0.0083 0.05481-0.03319 0.02106-0.01672 0.05061-0.02074 0.12227s0.03744 0.07168 0.05817 0.03794c0.02079-0.0337 0.054-0.03794 0.054-0.03794l0.01247-0.02953 0.11217 0.0042c0.0083-0.04642 0.06232-0.02949 0.06232-0.0084 0 0.02108 0.04157 0.0042 0.04157 0.0042l0.02906-0.04636h0.04566l0.0042-0.05057 0.02081-0.01266v-0.07593c0.06649-0.02106 0.05811-0.084314 0.05811-0.084314l0.01672-0.021045-0.0083-0.029489c-0.03328-0.012697-0.0167-0.042247 0.0041-0.033802 0.02083 0.00842-0.02908-0.037956-0.02908-0.037956-0.02491 0.021124-0.04564-0.025278-0.04564-0.025278h-0.06238z" opacity=".81"/>
    <path d="m10.45 10.341c-0.0041 0.05057-0.06649 0.06746-0.06649 0.06746l-0.04568-0.01264-0.02491-0.02108-0.0042-0.05906 0.03736-0.0042 0.0083 0.02532 0.09557 0.0042z" opacity=".81"/>
    <path d="m10.674 10.071c9e-3 0.03676 0.0082-0.0591 0.02487-0.05483 0.0166 0.0042 0.0042-0.058999 0.0042-0.058999l-0.07479 0.054726c0.03738 0.0043 0.04151 0.04225 0.04574 0.0591z" opacity=".81"/>
    <path d="m10.895 9.8519c0.0166 0.037976 0.01249 0.092802 0.07472 0.13497 0.02105 0.014208-0.01245 0.042167-0.03327 0.029491-0.02074-0.01264-0.07885-0.10544-0.07885-0.10544v-0.054806c0.01245-0.033702 0.03019-0.020547 0.0374-0.00421z" opacity=".81"/>
   </g>
   <path d="m10.907 11.146 0.01234 0.02106 0.02917-0.0463-0.02487-0.0085-0.02898 0.02126z" opacity=".81" stroke-width=".019725"/>
   <path d="m10.791 11.066v0.05073" opacity=".81" stroke-width=".024992"/>
   <path d="m11.378 10.984 0.01312 0.02146 0.03329-0.02106-0.01331-0.02126z" opacity=".81" stroke-width=".019725"/>
   <g stroke-width=".024992">
    <path d="m12.594 11.884 0.03744 0.01681 0.0041 0.07168c0.04989 0.05059 0.21191 0.0084 0.21191-0.0042 0-0.01268-0.0084-0.15599-0.0084-0.15599l-0.02081-0.0211-0.0041-0.10548c0.01661-0.05481-0.07897-0.13493-0.08725-0.11798-0.0083 0.01681-0.06232 0.0041-0.06232 0.02104 0 0.01681-0.03319 0.10117-0.0166 0.13072 0.0166 0.02953-0.01249 0.02953-0.0166 0.05902-0.0041 0.02951-0.04572 0.08018-0.0374 0.1055z" opacity=".81"/>
    <path d="m12.502 11.716c-0.0079 0.03195-0.03732 0.0506-0.05392 0.03792-0.01672-0.01268 0.02066 0.02104 0.02904 0.03799 0.0083 0.01681 0.03319 0.01681 0.04155 0 0.0082-0.01697 0.0041-0.0548 0.01249-0.07168 0.0082-0.01689-0.02496-0.0211-0.02915-0.0042z" opacity=".81"/>
    <path d="m12.309 10.942h0.02904v0.08014h-0.02904z" opacity=".81"/>
    <path d="m12.739 10.13c-0.01813-0.02456 0.08308-0.06746 0.09968-0.01685 0.0166 0.05053 0 0.04217-0.0166 0.03796-0.01666-0.0043-0.05813 0.0126-0.08308-0.0211z" opacity=".81"/>
   </g>
   <path d="m12.874 9.5738-0.04582-0.00834-0.0043 0.024839 0.04562 0.00834z" opacity=".81" stroke-width=".019725"/>
   <path d="m12.687 9.6521 0.02506-0.01411 0.0031 0.00775 0.0231-0.00934-0.0084-0.021064-0.0053-0.013314-0.01234 0.00696-0.03094 0.017486-0.02702-0.017089-0.01312 0.021262 0.03329 0.021064 0.0063 0.00397z" opacity=".81" stroke-width=".019725"/>
   <path d="m12.868 8.6123h-0.06236s0.02079 0.00843-0.03732-0.046401c-0.05825-0.054806-0.09557 0.012658-0.09557 0.012658l-0.06647 0.00842v0.067464l-0.03329 0.012639 0.0042 0.042187 0.04568-0.00419s0 0.050574 0.01247 0.029508c0.01249-0.021103 0.11636 0.00417 0.10802 0.054806-0.0034 0.020786 0.10391 0.075849 0.09144 0.14331 0.054 0.00846 0.04155 0.06329 0.04155 0.06329l0.07059 0.00843 0.02081-0.042167 0.02074 0.00423v-0.025318l-0.04576-0.012639-0.0082-0.13495-0.02908-0.021085 0.0083-0.033742-0.03321-0.012658 0.01662-0.054806-0.02912-0.058999z" opacity=".81" stroke-width=".024992"/>
   <path d="m13.051 9.0424-0.03321-0.00417-0.07489 0.012639-0.04145 0.080103s0.02074 0.012658 0.03732 0.042167c0.01661 0.029548 0.02495 0.20237-0.0249 0.23192-0.04981 0.029528 0.0042 0.012599 0.0042 0.012599l-0.0084 0.092782c0.01249 0.042167 0.03321 0.021124 0.04568 0 0.01257-0.021024 0.02504-0.025257 0.04165-0.046341 0.0166-0.021124 0.04151-0.059039 0.04568-0.088588 0.0041-0.029491 0.02491-0.075849 0.01243-0.088508-0.01243-0.012658 0.01249-0.071658 0.01249-0.071658s0.0166-0.033782 0-0.067484c-0.01661-0.033762 0.0041-0.071698 0.0166-0.088588l-0.033198-0.016875z" opacity=".81" stroke-width=".024992"/>
   <path d="m13.101 9.2144 0.0042-0.033746 0.02478 0.00321-0.0042 0.033746z" opacity=".81" stroke-width=".024992"/>
   <path d="m13.099 9.3309-0.02223-0.0113 0.01248-0.025284 0.02223 0.0113z" opacity=".81" stroke-width=".024992"/>
   <g stroke-width=".024992">
    <path d="m13.063 8.9962-0.01668-0.037976s0-0.033682 0.0083-0.050615c0.0084-0.016851-0.0166-0.033682-0.02904-0.037916-0.01247-0.00423-0.0083-0.037936-0.01247-0.054826-0.0041-0.016851-0.03319-0.029491-0.03319-0.029491s-0.0084-0.063251-0.0084-0.075889c0-0.012658-0.03738-0.029509-0.0249-0.042187 0.01249-0.012639 0.02081-0.029488 0.03328-0.037956 0.01247-0.00842-0.01249-0.067465 0.0082-0.054826 0.02081 0.012679 0.02081 0.033742 0.02914 0.050615 0.0083 0.016851-0.0042 0.075909 0.01662 0.088568 0.02072 0.012618-0.0042 0.054766 0.02906 0.054766 0.03321 0 0.01249 0.080143 0.01249 0.080143s-0.0084 0.058999 0.01237 0.06325c0.02082 0.00421 0.0084 0.1054 0.0084 0.1054l-0.03323-0.021063z" opacity=".81"/>
    <path d="m12.793 8.3129c0.01241 0.016851 0.03736 0.029489 0.03736 0.046401 0 0.016891-0.0083 0.029491 0.01668 0.033722 0.02487 0.00419 0.04153-0.00423 0.04981 0.016851 0.0083 0.021064 0.0083 0.054806 0.0042 0.071678-0.0042 0.016891 0.0041 0.042167 0.02487 0.042167 0.02081 0 0.02495 0.00423 0.02495 0.016891 0 0.012618 0.02495-0.046421 0.02495-0.046421-0.02083-0.016851-0.03744-0.054826-0.03744-0.054826s-0.02074-0.05902-0.02074-0.067444c0-0.00843-0.02906-0.016891-0.04151-0.021085-0.01249-0.00423-0.0333-0.042147-0.0333-0.042147l-0.04981 0.00421z" opacity=".81"/>
    <path d="m12.835 8.2751c-0.01249-0.016912-0.02496-0.029548-0.04157-0.037936-0.01656-0.00847-0.02904-0.016891-0.04572-0.016891-0.0166 0-0.03319-0.016891-0.02495-0.037936 0.0084-0.021103-0.01249-0.029529-0.01249-0.046421 0-0.016851 0.01249-0.016851 0.03329-0.00419 0.02081 0.012658 0.0166 0.016851 0.0333 0.037976 0.01656 0.021064 0.02485 0.042147 0.04143 0.037916 0.0167-0.00423 0.02915 0.037936 0.04576 0.025297 0.0166-0.012639 0.01249 0.029509 0.01249 0.029509l-0.04155 0.012679z" opacity=".81"/>
    <path d="m12.349 8.7515c0.02291 0.023289-0.12461 0.016833-0.12461 0 0-0.016851 0.01249-0.075849 0.04981-0.063291 0.0374 0.012697 0.04151-0.075849 0.04151-0.075849s-0.03319 0.00417-0.0041-0.012658c0.02908-0.016851 0-0.042167-0.01249-0.054806-0.01243-0.012679-0.02491-0.033742-0.02491-0.033742h0.05821c0.02495-0.016891 0.03319-0.096973 0.03319-0.096973 0.04981 0.016851 0.07476-0.016891 0.07476-0.016891s0.0084 0.025297 0.02502 0.046421c0.01661 0.021045-0.04163 0.029488-0.02083 0.042167 0.02083 0.012658 0.02908 0.050575 0.02083 0.063193-0.0084 0.012658-0.05412 0.00423-0.05412-0.012618 0-0.016891-0.0166 0.021085 0 0.042167 0.0166 0.021085-0.02074 0.050575-0.02908 0.050575-0.0083 0-0.06224 0.00846-0.0166 0.033742 0.04568 0.025278 0.09563 0.012697 0.09563 0.012697s0.03736-0.00427 0.04981 0.016851c0.01249 0.021063-0.0041 0.025297-0.0249 0.025297-0.02074 0-0.12051-0.00847-0.12051-0.00847s-0.02906 0.029528-0.0166 0.042187z" opacity=".81"/>
    <path d="m12.083 8.7895c0.02083-0.00421 0.07059-0.00847 0.07895 0.00419 0.0084 0.012639-0.02908 0.029491-0.02908 0.029491l-0.04987 0.00846c-0.0166-0.021103-0.02074-0.037936 0-0.042147z" opacity=".81"/>
    <path d="m12.619 8.4353c0.03321-0.016851 0.10381-0.016851 0.09968-0.042167-0.0041-0.025297 0.04153-0.033722 0.04153-0.033722l0.01247 0.050575 0.0374 0.025297 0.0042 0.046381s0.01243-0.00843-0.03321 0.00423c-0.04576 0.012658-0.0166 0.033702-0.0166 0.033702l-0.09976 0.00421-0.01247-0.042167-0.03321-0.046341z" opacity=".81"/>
    <path d="m12.457 8.2076c0.02526 0-0.0082 0.096973 0.05813 0.088548 0.06649-0.00846 0.0042 0.029509 0.05404 0.033702 0.04987 0.00427 0.0374-0.037936 0.054-0.067424 0.01668-0.029508 0.0084-0.046401-0.02074-0.054826-0.02915-0.00843-0.02915-0.00843-0.0374-0.042207-0.0083-0.033702-0.04155-0.042167-0.04155-0.042167l-0.01249-0.050555-0.054 0.033702-0.054 0.071678c0 0.054866 0.02906 0.029549 0.054 0.029549z" opacity=".81"/>
   </g>
   <path d="m12.567 8.5639 0.01249-0.025302 0.02234 0.011353-0.01249 0.025305z" opacity=".81" stroke-width=".024992"/>
   <path d="m12.523 8.5238h0.02495v0.029508h-0.02495z" opacity=".81" stroke-width=".024992"/>
   <path d="m12.544 7.962 0.0042 0.037918-0.02477 0.00282-0.0042-0.037918z" opacity=".81" stroke-width=".024992"/>
   <path d="m12.473 8.3551h0.02495v0.021124h-0.02495z" opacity=".81" stroke-width=".024992"/>
   <path d="m12.408 8.3547-0.0024-0.025196 0.04154-0.00416 0.0024 0.025196z" opacity=".81" stroke-width=".024992"/>
   <path d="m12.065 8.7602-0.02283-0.00996 0.01249-0.029505 0.02283 0.00996z" opacity=".81" stroke-width=".024992"/>
   <path d="m11.935 8.6834-0.0024-0.025135 0.0416-0.00417 0.0024 0.025135z" opacity=".81" stroke-width=".024992"/>
   <path d="m11.215 8.7009-0.0012-0.025236-0.09124 0.00417 0.0012 0.025236z" opacity=".81" stroke-width=".019725"/>
   <path d="m11.061 8.7122-0.0083-0.037908 0.02437-0.00548 0.0083 0.037908z" opacity=".81" stroke-width=".024992"/>
   <path d="m11.044 8.7384-0.0079-0.024 0.01245-0.00421 0.0079 0.024z" opacity=".81" stroke-width=".024992"/>
   <g stroke-width=".024992">
    <path d="m11.252 8.6673-0.0041 0.029508 0.04564 0.00423s0.02074 0.016891 0.02074 0.029491c0 0.012658 0.02915 0.025297 0.04576 0.025297s0.06228-0.033742 0.06228-0.033742 0.02082-0.059039 0.0042-0.054826c-0.01668 0.00419-0.04989 0.029509-0.054 0.00419-0.0042-0.025297-0.054-0.012658-0.054-0.012658l-0.06649 0.0085z" opacity=".81"/>
    <path d="m11.459 8.6208c0 0.012618-0.0082 0.029491 0.0166 0.033742 0.02504 0.00417 0.07072-0.016851 0.07484 0.00843 0.0042 0.025278 0.0042 0.042207 0.0374 0.054866 0.03319 0.012618 0.05404 0.016851 0.07895 0.016851 0.02487 0 0.07897-0.00849 0.07897-0.00849s0.05878 0.0092 0.07059 0.021124c0.04568 0.046361 0.07476 0.059 0.08721 0.037936 0.01247-0.021103-0.0041-0.067444-0.0083-0.084314-0.0042-0.01691-0.06236-0.097013-0.08314-0.080143-0.02074 0.016891-0.02489 0-0.0623 0.012618-0.0374 0.012658-0.11634 0.00427-0.12046-0.012618-0.0041-0.016891-0.0623-0.025257-0.0623-0.042167 0-0.016891-0.04151-0.037936-0.0374-0.012658 0.0041 0.025278-0.02906 0.037936-0.0375 0.029548-0.0082-0.00845-0.03319 0.025278-0.03319 0.025278z" opacity=".81"/>
    <path d="m12.415 8.0809 0.02914-0.092702c-0.04151-0.00847-0.03327-0.054806-0.03327-0.054806-0.0041-0.037973-0.06228-0.080123-0.08308-0.067464-0.02073 0.0126-0.01249-0.088588-0.01249-0.088588s0.03744-0.025257 0.05404-0.012618c0.01662 0.012618-0.14123-0.21082-0.1745-0.18973-0.03321 0.021085-0.10794-0.021085-0.10381-0.05906 0.0041-0.037916-0.14957-0.16444-0.14957-0.16444s-0.04987-0.033682-0.05815-0.00838c-0.0083 0.025278-0.02493 0.042167 0 0.054766 0.02489 0.012679 0.02074-0.021064 0.04979 0.00843 0.02908 0.029509 0.08315 0.067484 0.06236 0.092782-0.02079 0.025336-0.04574 0.033762-0.04574 0.033762l0.02914 0.033742h0.04568l0.0083 0.071638s0.04981 0.025318 0.0623 0.054826c0.01247 0.029491 0.01247 0.046381 0 0.063271-0.01249 0.016851-0.03732 0.046361-0.03321 0.075849 0.0041 0.029509 0.0374 0.042167 0.0374 0.042167l0.03319 0.00423 0.02496 0.012679v0.054845c0.03319-0.00846 0.08719 0.037876 0.08308 0.067425-0.0041 0.029508 0.0082 0.012639 0.04979 0.042167 0.04161 0.029508 0.02915 0.033742 0.05821 0.054826 0.0291 0.021024 0.05404 0.00839 0.06641-0.029608z" opacity=".81"/>
    <path d="m11.73 7.5076c-0.0041-0.016891-0.01249-0.07595 0.01247-0.071738 0.02491 0.00427 0.0083 0 0.0374 0.012679 0.02908 0.012679 0.03321-0.021063 0.03321-0.021063h0.04574l0.05813 0.046341-0.0083 0.037973-0.04155 0.00417c-0.02074-0.033682-0.0623-0.021045-0.054 0.00849 0.0083 0.029491-0.02074 0.084317-0.03732 0.088508-0.01662 0.00423-0.07072 0.00423-0.06649-0.021045 0.0041-0.025297 0.02074-0.084314 0.02074-0.084314z" opacity=".81"/>
    <path d="m11.696 7.3936v-0.033702s-0.0042-0.033722-0.02495-0.033722c-0.02071 0-0.05813-0.025278-0.04989-0.042167 0.0084-0.016891-0.07059-0.033742-0.07059-0.033742s-0.07059-0.067465-0.04568-0.058999c0.02495 0.00842 0.01249-0.029549 0.01249-0.029549s-0.04989 0.00843-0.06236 0.00423c-0.01249-0.00423-0.0084-0.042167-0.0084-0.042167s-0.04977-0.012658-0.04977 0 0.01661 0.012658 0.02485 0.037916c0.0084 0.025278 0.0042 0.067484 0.04165 0.075889 0.0374 0.00847 0.04564 0.016851 0.04987 0.033742 0.0041 0.016891 0.04981 0.021085 0.04981 0.021085l0.03326 0.016851 0.09966 0.084334z" opacity=".81"/>
   </g>
   <path d="m11.202 6.9595 0.04562 0.00417-0.01234-0.033782-0.03329-0.00835z" opacity=".81" stroke-width=".019725"/>
   <g stroke-width=".024992">
    <path d="m11.235 6.7866c-0.04343-0.032967 0.05811 0.025318 0.05811 0.025318 0.03321 0 0.054 0.025297 0.054 0.037976 0 0.012639 0.0457 0.00843 0.0457 0.00843l0.0042-0.029548-0.0333-0.042167-0.02904-0.021024s-0.04568-0.00423-0.04568-0.016891c-2e-5 -0.012618-0.03742 0.050594-0.05402 0.037916z" opacity=".81"/>
    <path d="m11.999 6.8118c-0.01214 0.036901-0.0166 0.088568-0.0374 0.088568-0.02074 0-0.01247 0.054866-0.01247 0.054866s0.0541 0 0.0707 0.00417c0.01656 0.00417 0.01656 0.046341 0.01656 0.046341 0.06236-0.00417 0.08731 0.080143 0.07895 0.10123-0.0083 0.021063 0.02494 0.021063 0.02494 0.021063s0 0.067484-0.0084 0.084317c-0.0082 0.016891 0.05404 0.029549 0.07064 0.054826 0.0166 0.025318-0.0084 0.10963-0.02077 0.11385-0.01245 0.00423 0.03319 0.016851 0.02908 0.037936-0.0042 0.021124 0.01247 0 0.01661 0.033762 0.0041 0.033702 0.01249 0.10538 0.01249 0.10538l0.05811 0.00425c0.0084-0.054806 0.11546-0.056913 0.13297-0.050615 0.07063 0.025297 0.1247 0.13493 0.1247 0.16021 0 0.025278-0.04576 0.029548-0.04576 0.029548l0.0084 0.12223c0.07059 0.021103 0.12876 0.12233 0.12048 0.13918-0.0083 0.016851 0.04979 0.012679 0.04979 0.012679 0.0084-0.075949 0.07897-0.050632 0.08308-0.025318 0.0042 0.025318 0.01662 0.080123 0.01662 0.080123l0.02079 0.037896 0.02908 0.029528 0.04568-0.00421 0.01249 0.025318 0.054 0.00847s0.04576 0.050534 0.04987 0.063231c0.0042 0.012618 0.06649 0.00843 0.08308 0.012618 0.0166 0.00423 0.04157 0.016891 0.04568 0.037956 0.0042 0.021103 0.02915 0.054826 0.02915 0.054826s0.04981 0.012679 0.054 0.029508c0.0041 0.016833 0.02495 0.054806 0.02495 0.054806l0.04145 0.033742 0.0042 0.037973 0.04568 0.00421 0.01249 0.050534 0.07472-0.00417 0.04163-0.029509c0.054-0.029488 0.0914-0.067464 0.09557-0.084354 0.0041-0.016851 0.01243-0.080063 0.054-0.067424 0.04151 0.012658 0.01247-0.092782 0.01247-0.092782s-0.05815-0.042167-0.05404-0.06329c0.0042-0.021045-0.05811-0.063193-0.054-0.080083 0.0041-0.016891-0.054-0.050575-0.04987-0.067444 0.0041-0.016891-0.02908-0.063291-0.02908-0.063291l-0.06236-0.058999-0.0083-0.037976-0.04981-0.00417-0.09968-0.12229 0.0041-0.033762-0.02908-0.00419v-0.046361l-0.02904-0.016891-0.04576-0.00421-0.09136-0.10117-0.0083-0.046401h-0.04568l0.0083-0.088568c0.02912-0.037956 0.01245-0.10963 0.01245-0.10963s-0.05821 0.029508-0.08721 0.016851c-0.02914-0.012599 0.01241-0.042167 0.01241-0.042167v-0.033702l-0.02489-0.025297s-0.07068 0.00847-0.07479-0.00417c-0.0042-0.012658-0.0166-0.067484-0.0166-0.067484l-0.0042-0.071698-0.02904-0.012599-0.0042-0.025336-0.04564 0.00419v-0.050575l-0.02496-0.00842-0.02491-0.012658-0.0042-0.050615-0.0914-0.00417-0.02908-0.042167-0.03321-0.050612-0.10387-0.00843-0.02494-0.025257-0.04153-0.00847-0.02908-0.012658-0.01247 0.021124-0.07897 0.00417-0.0041 0.025297c-0.04153 0.021085-0.2077 0.00419-0.21193 0.016833z" opacity=".81"/>
    <path d="m12.436 6.7024c-0.0066-0.033285 0.08315-0.063251 0.10389-0.037976 0.02082 0.025297 0.07895 0.029589 0.08727 0.15607 0.0029 0.045288-0.07479-0.046381-0.07479-0.046381l-0.06236-0.021085c-0.03321-0.00847-0.04987-0.029491-0.054-0.050634z" opacity=".81"/>
   </g>
   <path d="m11.217 6.7539-0.02271-0.010274 0.01667-0.037954 0.02271 0.010274z" opacity=".81" stroke-width=".024992"/>
   <g stroke-width=".024992">
    <path d="m11.002 6.3397-0.05412-0.054826v-0.046381l-0.0166-0.016909-0.01661-0.058999-0.054-0.016851-0.054 0.021045-0.05817 0.037956-0.06228 0.00849-0.03328 0.037916 0.13297 0.0126 0.02489 0.042227 0.09565 0.00843 0.06224 0.063231c0.05412 0.016891 0.06653-0.00843 0.03332-0.037916z" opacity=".81"/>
    <path d="m10.994 6.133c-0.0091-0.037061-0.06236 0.046361-0.0082 0.063191 0.054 0.016952 0.10792 0 0.10792 0l0.01249-0.025278 0.20766 0.00423c0.01672-0.016891 0.02495-0.042167 0.02495-0.042167s0.04989-0.016891 0.07061-0.00847c0.02081 0.00847 0.0042-0.058999-0.0166-0.050575-0.02074 0.00843-0.06226 0.00421-0.06226 0.00421h-0.07482c-0.0041-0.029489-0.07061-0.016891-0.07476 0-0.0042 0.016851-0.02904 0.021063-0.02904 0.021063l-0.09557 0.00846c-0.0083 0.025318-0.05813 0.042167-0.06234 0.025318z" opacity=".81"/>
    <path d="m10.583 6.8446c0.06389 0.02027 0.08721 0.00527 0.09144-0.011586 0.0041-0.016891 0.0082-0.021124 0.03321-0.025297 0.02491-0.00423-0.0042-0.054826-0.02908-0.050615-0.02496 0.00421-0.04989-0.00842-0.054-0.029508-0.0042-0.021064-0.04576-0.075889-0.04989-0.033702-0.0042 0.042167-0.02908 0.042167-0.02495 0.071678 0.0042 0.029451 0.01666 0.073705 0.03327 0.079031z" opacity=".81"/>
    <path d="m10.105 6.892c-3e-3 -0.014922 0.08308-0.016851 0.09557-0.00425 0.01249 0.012679 0.0041 0.033742 0.04153 0.033742 0.03734 0 0.02075 0.025318 0.0166 0.037976-0.0041 0.012639-0.04564 0.00842-0.04989-0.00417-0.0041-0.012679-0.06648-0.016952-0.06648-0.016952s-0.03321-0.025318-0.03734-0.046341z" opacity=".81"/>
   </g>
   <g stroke-width=".019725">
    <path d="m11.534 6.0079-0.01566-0.019733-0.03289 0.026628-0.02114-0.021482-0.01762 0.017865 0.02898 0.029509 8e-3 0.00805 0.0086-0.00707z" opacity=".81"/>
    <path d="m11.328 5.8862-0.03916 0.025217-0.02663-0.016833-0.01312 0.02146 0.03329 0.021024 0.0065 0.00427 0.0067-0.00427 0.04582-0.029549z" opacity=".81"/>
    <path d="m11.159 6.784-0.0033-0.00517-0.0061-6.085e-4 -0.04151-0.00437-0.0025 0.025236 0.03564 0.00358 0.02585 0.041134 0.02095-0.013512z" opacity=".81"/>
   </g>
   <path d="m9.7811 7.9545 0.00425 0.046401h0.062246c0.024945 0-0.020735-0.029508-0.020735-0.029508s-0.04987 0.00423-0.045759-0.016891z" opacity=".81" stroke-width=".024992"/>
   <path d="m9.8603 7.9558 0.015928-0.019484 0.02494 0.021-0.015928 0.019484z" opacity=".81" stroke-width=".024991"/>
   <path d="m9.1034 7.167 0.017653-0.017886 0.0249 0.025313-0.017653 0.017886z" opacity=".81" stroke-width=".024991"/>
   <path d="m10.326 12.602-0.01547-0.0079-0.04151-0.02106-0.01116 0.02265 0.02604 0.01312-0.0086 0.0087 0.01782 0.01788 0.02075-0.02106z" opacity=".81" stroke-width=".019725"/>
   <path d="m9.9759 12.301 0.012531-0.01053-0.015859-0.01947-0.025061 0.02106-0.012335 0.01053 0.013118 0.0095 0.029174 0.02106 0.014489-0.02047z" opacity=".81" stroke-width=".019725"/>
   <path d="m13.078 11.49c-0.0055-0.02148-0.02972-0.0303-0.03246-0.0312l-0.0079 0.02404v-1.5e-4c2e-3 7.68e-4 0.0049 0.0023 0.0077 0.0042l0.0051 0.02186c-0.0019 0.0028-0.0039 0.0054-0.0055 0.0073l0.01829 0.01711c0.01334-0.01484 0.01827-0.02923 0.01478-0.04312z" opacity=".81" stroke-width=".024992"/>
   <path d="m13.119 11.376-0.0031 0.03458-0.04053-3e-3 0.0031-0.03796z" opacity=".81" stroke-width=".019725"/>
   <g stroke-width=".024992">
    <path d="m14.079 11.082c0.01776-0.01123 0.04047-0.03167 0.0374 0.01584-0.0032 0.04741-0.02183 0.03166-0.0374 0.04741-0.01557 0.01584-0.02493-0.04741 0-0.06325z" opacity=".81"/>
    <path d="m14.29 10.903c-3.44e-4 -8.47e-4 -5.55e-4 -0.0038-7.4e-4 -0.0059-5.56e-4 -7e-3 -0.0015-0.01643-0.0064-0.02639l-0.02226 0.01131c0.0028 0.0056 0.0033 0.0116 0.0038 0.01733 6.35e-4 0.0074 0.0015 0.01584 0.0085 0.02118 0.0045 0.0034 0.0101 0.0044 0.01682 0.0031l-0.0048-0.02448c0.0019 2.91e-4 0.0044 2e-3 5e-3 0.0039z" opacity=".81"/>
    <path d="m14.235 10.924c0.0063 0.02564 0.01556 0.05089 0.01597 0.05194l0.02338-0.0089c-1.75e-4 -2.25e-4 -0.0092-0.02496-0.01521-0.04924z" opacity=".81"/>
    <path d="m14.144 11.023-0.02483-0.0025c-0.0019 0.01989 0.0028 0.04447 0.02244 0.04847l0.0049-0.0248c1.75e-4 0 3.97e-4 1.5e-4 4.76e-4 1.5e-4 -2e-3 -0.0018-0.0039-0.01196-3e-3 -0.02132z" opacity=".81"/>
    <path d="m14.035 10.52c-0.0013-0.0081-0.0061-0.01441-0.01363-0.01773-0.01844-0.0081-0.04954 0.0053-0.06477 0.01564l0.01379 0.02106c0.01578-0.01069 0.0365-0.01584 0.04112-0.01347-3.97e-4 -1.5e-4 -9.79e-4 -9e-4 -0.0011-0.0014l0.02463-0.0041z" opacity=".81"/>
    <path d="m12.884 9.1731c-0.0166 0.016891-0.054 0.025318-0.054 0.025318l-0.01249 0.046381-0.02071 0.016851s0.0041 0.012639 0 0.042167c-0.0042 0.029491-0.04157 0.046381-0.04157 0.046381l-0.01661 0.021085s-0.10015 0.00542-0.11217 0c-0.0374-0.016851-0.01243-0.067464 0.01249-0.063251 0.02489 0.00423-0.0042-0.071698-0.0042-0.071698l0.03329-0.00419s0.0041-0.075929 0.01661-0.075929c0.01247 0-0.0041-0.025278-0.02082-0.037936-0.0166-0.0126-0.03736-0.054766-0.05404-0.050575-0.0166 0.00419-0.08308 0-0.08308 0l-0.01247 0.025318-0.04572 0.00841s0.0039 0.03261-0.0041 0.042187c-0.02502 0.029491-0.12051 0.092742-0.07903-0.012658l0.01243-0.025257v-0.037984l-0.0747-0.00417s-0.0374-0.012679-0.0374-0.029548c0-0.016872-0.0042-0.037916-0.0042-0.037916l-0.08727-0.096973-0.10381-0.012639-0.0084-0.021124-0.06225-0.00842c-0.07483-0.037916-0.14133-0.00421-0.12884 0.059039 0.01245 0.063291 0.03319 0.088568-0.0083 0.088568-0.04161 0-0.04989-0.033722-0.04989-0.033722s-0.03319-0.012679-0.03319 0.00417c0 0.016891-0.01249 0.050615 0 0.067464 0.01242 0.016851-0.01668 0.042167-0.02915 0.029509-0.01237-0.012658-0.04564-0.050535-0.03732-0.063191 0.0083-0.012658-0.05823-0.092802 0.0083-0.10544 0.0665-0.012658-0.0042-0.050615 0.02081-0.059l0.03319-0.016891h0.03321l0.02079-0.016891-0.054-0.00838-0.03319-0.00423-0.06236-0.00421c-0.06228 0.042167-0.07472 0.092782-0.07472 0.092782-0.0333 0.063231-0.11217-0.025318-0.08308-0.059039 0.02904-0.033742-0.09144-0.00423-0.11223 0.012639-0.02082 0.016851-0.08312 0.00843-0.08312 0.00843-0.01243 0.037976-0.07059-0.00417-0.054-0.029489 0.01662-0.025297 0.01662-0.042167 0.01662-0.042167l-0.02074-0.00423-0.02491 0.046381c-0.05817 0-0.07484 0.033702-0.06238 0.054806 0.01245 0.021045-0.0166-0.00421-0.02494 0.025297-0.0082 0.029509 0.0042 0.029509 0.02915 0.042167s-0.01249 0.012658 0.0041 0.033702c0.0166 0.021124 0.06647 0 0.03742 0.029548-0.02908 0.029491-0.0873 0.016891-0.0873 0.016891-0.0041 0.037876-0.08308 0.029491-0.09132 0.016851-0.0084-0.012658-0.07063-0.088568-0.07063-0.088568l-0.07904-0.00421c-0.0082-0.058999 0.03744-0.029508 0.05404-0.075889 0.0167-0.046401 0.025-0.12225 0.025-0.12225s-0.06655-0.00421-0.07068 0.016851c-0.0041 0.021103-0.04568 0.033742-0.04568 0.033742s-0.03327 0.012618-0.02079 0.029508c0.01247 0.016891-0.02495 0.025257-0.02495 0.025257s0.0065 0.027244-0.0041 0.037956c-0.03319 0.033782-0.11634 0.00419-0.12876-0.00842l-0.04989-0.021085-0.04987-0.033722-0.05813 0.025257-0.0166 0.016891h-0.06236l-0.0041 0.050535 0.11217 0.012639 0.0083 0.10437-0.04576-0.015759h-0.02908l-0.01243-0.025318-0.02494-0.00423v0.092742l0.02494 0.021124 0.02082 0.021024 0.04155 0.00423 0.0083 0.050575 0.10381 0.00427 0.01247 0.021045 0.06236 0.00423 0.12048 0.12223-0.0083 0.037976-0.02082 0.012658c0.0084 0.029508-0.05394 0.012658-0.05394 0.012658v0.025257l0.029 0.00421 0.02915 0.016851 0.04151-0.071658c0.04568-0.029509 0.06642 0.012658 0.07064 0.037956 0.0041 0.025297-0.02083 0.021063-0.02083 0.021063v0.059079l0.02495 0.00838c0.04161 0.050612-0.0166 0.080143-0.0166 0.080143l-0.01249 0.042147c-0.01247 0.037956-0.05815 0.029491-0.05815 0.029491l-0.01656 0.025318-0.04993 0.012658 0.09864 0.012639c0.0094-0.033742 0.03424-0.042167 0.04672-0.025297 0.01249 0.016891 0.01249 0.046401 0.01249 0.046401l0.02502 0.00421-0.0042 0.046361 0.02495 0.00847v0.13491l0.02908 0.033722c0.04987-0.021024 0.04987 0.012679 0.0249 0.029509-0.0249 0.01683-0.0083 0.092782-0.0083 0.092782l-0.02078 0.02105v0.03376l-0.02491 0.01685v0.04636c-0.04157-0.02106-0.09144-0.01268-0.10393 0-0.03732-0.02532-0.11626-0.01685-0.11626 0.0043 0.02489 0.03372-0.02904 0.04217-0.02904 0.04217l-0.02915 0.03372c0.02082 0.04219-0.02071 0.04636-0.02071 0.04636v0.08014l-0.04989 0.04638 0.0042 0.10963c0 0.02951 0.06228 0.0337 0.0747 0.01685 0.01249-0.01685 0.06238 0.03376 0.06238 0.03376h0.03732l0.0084-0.07593-0.02496-0.01266v-0.12229l0.04157-0.0464c0.04987-0.01685 0.03327 0.10969 0.03327 0.12233 0.0041 0.04636 0.02485 0.04217 0.04568 0.0337 0.04153-0.01685 0.0082 0.04644-0.02495 0.04217-0.03321-0.0042-0.01249 0.04217-0.01249 0.04217l0.02083 0.0085-0.03744 0.02951-0.03315 0.03798-0.04165-0.01268-0.04979-0.0042-0.01662-0.02959-0.02914-0.0042-0.0041 0.059-0.02074 0.0253-0.04987 0.05067c0.06649 0-0.0084 0.04628-0.02494 0.04628 0.03738 0.01266-0.0041 0.05065-0.09968 0.02116v0.02947l-0.03329 0.0042 0.02915 0.03368 0.03319 0.0042-0.01247 0.07168c0 0.05481-0.13708 0.01681-0.14957 0.0042l-0.0041 0.07591-0.02495 0.0042 0.0041 0.05065-0.0041 0.0717 0.04568-0.0084v0.02953l0.11223 0.0042 0.16202-0.17292 0.09553-0.02105c0.0083-0.04223 0.04979 0.0084 0.04979 0.0084 0.04157-0.0043 0.04989 0.02526 0.04989 0.02526l0.05404 0.0084c0.04564 0.01268 0.01805 0.01711 0.02074 0.03378 0.0041 0.02526 0.02491 0.01681 0.02491 0.01681l0.0084-0.05481 0.02495 0.0042-0.02495-0.02953-0.04576-0.02112-0.04981-0.02104c-0.03327-0.04636 0.0083-0.03792 0.04157-0.03368h0.054s0.06236 0.08428 0.06236 0.10538c0 0.02112 0.02908 0.02534 0.02908 0.02534l0.03732-0.0042 0.01249 0.02947h0.03738l0.01249 0.02526h0.07479l0.0042-0.03792-0.0707-0.01258-0.0041-0.04223-0.04981-0.01266c-0.01668-0.07162 0.01241-0.09274 0.03319-0.05896l0.02493 0.0041-0.0083-0.06325 0.02906-0.0084-0.0083-0.08857-0.02491-0.0084v-0.02955l0.10381 0.0043c-0.0082-0.05489 0.0042-0.08016 0.0042-0.08016h0.02908l0.0041 0.02114 0.12711 0.01198 0.08987-0.10309c-0.0045-0.0079 9e-3 -0.01268-8.46e-4 -0.02279-0.01249-0.01264-0.02915 0-0.05001-0.01264-0.02072-0.01258 0-0.08432-0.0041-0.10117-0.0041-0.01685 0.0707-0.04223 0.05823-0.0042-0.01247 0.03798 0 0.05483 0 0.05483 0.054-0.05061 0.0997 0.0042 0.09557 0.01685-0.0042 0.01264 0.02904 0.0253 0.04977 0.01264 0.02081-0.01264 0.04574 0.03798 0.03742 0.06321-0.0084 0.0253-0.08306 0.02113-0.08719-0.0042-0.0042-0.02532-0.01672-0.01685-0.02495-0.0042-0.0084 0.01266-0.04568 0.02104-0.06649 0.0084-0.0042-0.0026-0.0062-0.0047-0.0074-0.0067l-0.08987 0.10309 0.0058 5.82e-4c0.04981 0.02955 0.02495 0.06748 0.0084 0.07591-0.01668 0.0084-0.04576 0.0084-0.04576 0.0084l-0.0082 0.01689-0.10804 0.0084-0.0084 0.04221c-0.054-0.0085-0.07472 0.05057-0.06226 0.08004 0.01249 0.02947 0 0.05481 0 0.05481l0.0457 0.02112 0.05811-0.01681c0.0084-0.04223 0.04568-0.05067 0.07897-0.07591 0.03319-0.02532 0.08727 0.04628 0.07059 0.08006-0.0166 0.03368-0.0166 0.04636-0.0166 0.04636l0.0041 0.03797-0.04151 0.01683-0.03321 0.01689-0.0042 0.0211h-0.11213l-0.02074 0.02105-0.05404 0.0043-0.01668 0.02526-0.03732 0.0042s-0.06236 0.02953-0.0374 0.06325c0.02493 0.03376-0.10383 0.02953-0.13299-0.01689-0.0083 0.04213-0.054 0.0042-0.054 0.0042l-0.04568-0.01268-0.0041-0.06317c-0.0083-0.04221-0.08727-0.04221-0.08308-0.01266 0.0041 0.02953-0.14963 0.01266-0.14963 0.01266l-0.04981 0.0242-0.04576 0.02639-0.0041 0.02105-0.07484 0.0084-0.03319 0.01689-0.01245-0.02532h-0.03321l-0.03327 0.04642c-0.08723 0.0042-0.17031 0.05483-0.16202 0.07591 0.0083 0.02105-0.03319 0.04223-0.03319 0.04223l-0.03744 0.0125-0.02487 0.038-0.04987 0.01689-0.0084 0.08859-0.02487 0.01681v0.03799l-0.029136 0.0084v0.02112l-0.04153 0.0042 0.024866 0.06327 0.033345 0.01689c0.058152 0.0084 0.033188 0.08012 0.033188 0.08012l0.03321 0.0042 0.01668 0.04636 0.03319 0.06746c0.01249 0.05067 0.04989 0.038 0.06649 0.03378 0.0166-0.0042 0.03319 0.05057 0.03319 0.05057l0.16615 0.0042s-0.0082 0.01689 0.02083 0.02532c0.02904 0.0084 0.22016 0.01689 0.22852 0.0042-0.0084-0.03799 0.10379-0.04644 0.14955-0.01268 0.04564 0.03368 0.108 0.01268 0.108 0.01268l0.0623 0.07581 0.04163 0.0928 0.07059 0.02105 0.04981 0.01268 0.01668 0.07168 0.03732 0.0042 0.01249 0.04642c0.04574 0.0337-0.01249 0.1054-0.01249 0.1054v0.09272l0.03327 0.01689-0.0042 0.03378 0.05408 0.05473 0.06228 0.0043 0.15791 0.16863 0.12459 0.03792 0.02074 0.06748 0.0333-0.0042 0.0249-0.02105 0.09968-0.0042 0.04989-0.04644 0.054-0.0084 0.46116-0.39216-0.04161-0.02532v-0.09272c0.07479-0.05481 0.07895-0.15184 0.0083-0.16027-0.05357-0.0064-0.02904-0.06325 0.02083-0.07168l0.02904-0.0126v-0.03799l0.09555-0.08849v-0.06748l-0.20766-0.17292c-0.09144-0.03368 0-0.23612 0.06225-0.23188 0.06236 0.0042-0.0041-0.312-0.0041-0.312l-0.03328-0.01683 0.0084-0.10125h-0.04568l-0.07481 0.09703-0.02074 0.0674c-0.0083 0.08865-0.26592 0.07168-0.27842 0.05902-0.01247-0.01266-0.09968-0.05058-0.09968-0.05058s-0.06648-0.05481-0.07895-0.03792-0.07059-0.02112-0.07059-0.0084c0 0.01266-0.054-0.02947-0.054-0.02947l-0.08308-0.02955 0.06236-0.01268-0.01249-0.05057 0.10792 0.0548c0.01249 0.01681 0.0665 0.01268 0.0665 0.01268l0.0166 0.0211s0.03329-0.0043 0.05412 0.02105c0.02074 0.02532 0.12872 0.0042 0.12872 0.0042l0.02908 0.02526 0.04568 0.01689 0.12884 0.0042 0.0041-0.08006 0.02494-0.02532-0.0042-0.05065 0.02908-0.02526v-0.04213l0.02494-0.0084 0.0041-0.09272 0.02074-0.0042v-0.20241l-0.0623-0.05906c-0.0041 0.02112-0.07059 0.02112-0.07059 0.02112s-0.0166 0.02947-0.02908 0.02947c-0.01243 0 0.01662 0.03791 0.0083 0.06325-0.0083 0.02526-0.04155 0.02526-0.04155 0.02526l-0.06236 0.01691-0.01661 0.0211h-0.06649l-0.0082-0.05481 0.07472-0.02112 0.04155-0.02102 0.02082-0.04223c0.0041-0.04211 0.054-0.03794 0.054-0.03794s0.09555-0.08012 0.09968-0.118c0.0042-0.03797 0.03744-0.14339 0.09557-0.14339h0.10804c0.04151-0.01691 0.02906-0.0717 0.02906-0.0717l0.05402-0.0084 0.0083 0.02951s0.07481 0.0084 0.08308-0.0042c0.0084-0.0126 0.02495-0.04217 0.04576-0.02951 0.02075 0.01264 0.08723-0.02953 0.08723-0.02953 0.0041-0.02951 0.108-0.01685 0.108-0.01685l0.01249-0.03794s-0.07061-0.09697-0.08308-0.09697c-0.01249 0-0.07895-0.05908-0.08729-0.03797-0.06639-0.01685-0.06228-0.10963-0.06228-0.10963l-0.02494-0.058999c0-0.033782-0.06224-0.10544-0.07479-0.096973-0.06236-0.046381-0.0166-0.10121 0-0.10542 0.0166-0.00419 0.05821-0.063251 0.05821-0.063251l0.02074-0.059039 0.07063-0.021024 0.0083-0.054826-0.03732-0.00423s0.04147-0.075909 0.06228-0.075909 0.15791 0 0.17028-0.00847c0.01247-0.00838 0.03738-0.075849 0.03738-0.088508 0-0.012658 0.03332-0.016891 0.0457-0.021124 0.01247-0.00417 0.04155-0.037916 0.04987-0.054806 0.0083-0.01697-0.0207-0.12241-0.03736-0.10554z" opacity=".81"/>
    <path d="m10.583 10.693c0.0062-0.0062 0.01249 0.019 0.02494 0.01584 0.01238-0.0032 0.01868 0.02216 0.0062 0.02216-0.01249 0-0.01249 0.01584-0.01249 0.02216 0 0.0063 0 0.0221-0.0094 0.0316-0.0093 0.0095-0.01872 0.0032-0.03121-0.0032-0.01243-0.0063-0.0186-0.0063-0.03424-0.0063-0.01555 0-0.0032 0.02532-0.0032 0.02532s-0.06543-0.0032-0.05294-0.01268c0.01247-0.0094 0.02494-0.01266 0.01562-0.019-0.0094-0.0063 0-0.0126 0-0.02526 0-0.01268 0.03117-0.0063 0.02175-0.01584-0.0093-0.0095 2e-4 -0.04618 0.01557-0.02532l0.0094-0.02218c-0.0094-0.0095-0.0031-0.01266-0.02179-0.01888-0.01868-0.0063-0.0032-0.04431-0.0032-0.04431l0.0032-0.0253c0.0062-0.03156 0.06851-0.03478 0.07166-0.0063 0.0031 0.02848 0 0.04745 0 0.04745l0.01872 0.0063s-0.0032 0.01908-0.01872 0.01908c-0.01564 0 0 0.0094-0.0094 0.0189l0.0094 0.01578z" opacity=".81"/>
    <path d="m10.377 10.725c0.0094-0.019 0.03115-0.10121 0.05612-0.07589 0.02485 0.0253 0.04047 0 0.04047 0s0.01247 0.01268 0.0062 0.03798c-0.0062 0.02526-0.01249 0.05059-0.02812 0.05375-0.01553 0.0032-0.02802 0.01266-0.04662 0.01582-0.01868 0.0032-0.02808-0.03165-0.02808-0.03165z" opacity=".81"/>
   </g>
   <path d="m11.61 15.852c-7e-3 -0.0092-0.01618-0.01467-0.02755-0.01641l-0.24006-0.03673c-0.01312-0.04198-0.03106-0.08482-0.0538-0.12856 0.01573-0.02187 0.03934-0.05269 0.07082-0.09249s0.05378-0.06887 0.0669-0.08724c7e-3 -0.0096 0.01048-0.01968 0.01048-0.03017 0-0.01224-3e-3 -0.02185-0.0092-0.02886-0.03148-0.04462-0.10363-0.11894-0.21646-0.22303-0.01047-0.0087-0.02141-0.01311-0.03277-0.01311-0.01312 0-0.02362 0.0039-0.03149 0.01179l-0.18627 0.14038c-0.03587-0.01837-0.07523-0.03455-0.11807-0.04855l-0.03673-0.24137c-8.74e-4 -0.01137-0.0059-0.02077-0.01509-0.02821-0.0092-0.0074-0.01989-0.01114-0.03215-0.01114h-0.29122c-0.02536 0-0.04111 0.01224-0.04723 0.03673-0.01137 0.04372-0.02406 0.12505-0.03805 0.24399-0.04111 0.01314-0.08089 0.02976-0.11938 0.04987l-0.18103-0.14038c-0.01137-0.0087-0.02274-0.01311-0.0341-0.01311-0.01924 0-0.06056 0.03125-0.12397 0.09379-0.063409 0.06254-0.10647 0.10954-0.12922 0.14102-0.00787 0.01137-0.011803 0.02143-0.011803 0.03017 0 0.0105 0.00436 0.021 0.013108 0.03148 0.058595 0.07085 0.10539 0.13118 0.14038 0.18105-0.021865 0.04022-0.038918 0.08046-0.051155 0.12068l-0.24401 0.03673c-0.00961 0.0017-0.01792 0.0074-0.024926 0.01707-7e-3 0.0096-0.010499 0.01968-0.010499 0.03016v0.29123c0 0.01139 0.0035 0.02164 0.010499 0.03082 7e-3 0.0092 0.016182 0.01468 0.02755 0.01643l0.24008 0.03542c0.012237 0.04285 0.030159 0.08613 0.05378 0.12984-0.015732 0.02187-0.039353 0.05269-0.070832 0.09249s-0.053796 0.06887-0.066903 0.08724c-7e-3 0.0096-0.010499 0.01968-0.010499 0.03017 0 0.01137 0.00306 0.02142 0.00918 0.03016 0.034104 0.04724 0.10626 0.12072 0.21646 0.2204 0.0096 0.0096 0.02056 0.01443 0.0328 0.01443 0.01312 0 0.02406-0.0039 0.0328-0.01179l0.185-0.14038c0.03588 0.01837 0.07523 0.03455 0.11808 0.04856l0.03673 0.24137c8.74e-4 0.01137 0.0059 0.02077 0.01509 0.02821 0.0092 0.0075 0.0199 0.01114 0.03214 0.01114h0.29123c0.02539 0 0.04112-0.01224 0.04726-0.03673 0.01135-0.04373 0.02402-0.12505 0.03802-0.24399 0.04111-0.01312 0.08091-0.02976 0.11938-0.04987l0.18105 0.1417c0.01224 0.0079 0.02362 0.01179 0.0341 0.01179 0.01922 0 0.06033-0.03103 0.12329-0.09313 0.06299-0.06209 0.10627-0.10933 0.12986-0.1417 0.0079-0.0087 0.01182-0.01879 0.01182-0.03016s-0.0044-0.02233-0.01312-0.0328c-0.06296-0.07697-0.10975-0.1373-0.14038-0.18103 0.01749-0.03236 0.03455-0.07215 0.05117-0.11938l0.24269-0.03671c0.01048-0.0017 0.01926-0.0075 0.02625-0.01708 7e-3 -0.0096 0.01047-0.01969 0.01047-0.03017v-0.29122c1.6e-5 -0.01137-0.0035-0.02162-0.01048-0.03082zm-0.75954 0.41126c-0.06558 0.0656-0.14474 0.0984-0.23745 0.0984-0.09272 0-0.17186-0.0328-0.23745-0.0984-0.06558-0.06558-0.09838-0.14472-0.09838-0.23744 0-0.09271 0.03278-0.17186 0.09838-0.23745 0.0656-0.06558 0.14476-0.09838 0.23745-0.09838 0.09271 0 0.17187 0.0328 0.23745 0.09838 0.06558 0.0656 0.09838 0.14474 0.09838 0.23745 0 0.09271-0.0328 0.17186-0.09838 0.23744z" opacity=".81" stroke-width=".016102"/>
   <path d="m13.39 16.384c-0.0058-0.0075-0.01328-0.01203-0.0226-0.01346l-0.19694-0.03013c-0.01077-0.03444-0.02548-0.06959-0.04413-0.10546 0.01291-0.01794 0.03227-0.04322 0.05809-0.07587s0.04412-0.0565 0.05488-0.07157c0.0057-0.0079 0.0086-0.01614 0.0086-0.02475 0-0.01004-0.0025-0.01793-0.0075-0.02367-0.02582-0.0366-0.08502-0.09758-0.17757-0.18296-0.0086-0.0072-0.01757-0.01075-0.02688-0.01075-0.01077 0-0.01938 0.0032-0.02584 0.0097l-0.15281 0.11516c-0.02943-0.01507-0.06171-0.02835-0.09686-0.03983l-0.03013-0.19801c-7.15e-4 -0.0093-0.0048-0.01704-0.01238-0.02314-0.0075-0.0061-0.01631-0.0091-0.02638-0.0091h-0.2389c-0.0208 0-0.03372 0.01004-0.03874 0.03013-0.0093 0.03586-0.01974 0.10258-0.03121 0.20016-0.03372 0.01078-0.06636 0.02441-0.09793 0.04091l-0.14851-0.11516c-0.0093-0.0072-0.01865-0.01075-0.02798-0.01075-0.01578 0-0.04968 0.02564-0.1017 0.07695-0.05202 0.0513-0.08734 0.08986-0.106 0.11569-0.0065 0.0093-0.0097 0.01758-0.0097 0.02475 0 0.0086 0.0036 0.01722 0.01075 0.02582 0.04807 0.05812 0.08646 0.10762 0.11516 0.14853-0.01794 0.033-0.03193 0.06601-0.04197 0.09901l-0.20017 0.03013c-0.0079 0.0014-0.0147 0.0061-0.02045 0.014-0.0057 0.0079-0.0086 0.01614-0.0086 0.02474v0.23892c0 0.0093 0.0029 0.01775 0.0086 0.02528 0.0057 0.0075 0.01327 0.01205 0.0226 0.01347l0.19695 0.02906c0.01004 0.03515 0.02474 0.07066 0.04412 0.10652-0.01291 0.01794-0.03228 0.04322-0.05811 0.07587-0.02582 0.03265-0.04413 0.0565-0.05489 0.07157-0.0057 0.0079-0.0086 0.01614-0.0086 0.02475 0 0.0093 0.0025 0.01757 0.0075 0.02474 0.02798 0.03876 0.08717 0.09903 0.17757 0.18081 0.0079 0.0079 0.01687 0.01183 0.02691 0.01183 0.01077 0 0.01974-0.0032 0.02691-0.0097l0.15175-0.11517c0.02943 0.01507 0.06171 0.02835 0.09686 0.03984l0.03013 0.19801c7.14e-4 0.0093 0.0048 0.01704 0.01238 0.02314 0.0075 0.0061 0.01633 0.0091 0.02637 0.0091h0.23892c0.02083 0 0.03374-0.01004 0.03877-0.03013 0.0093-0.03588 0.01971-0.10258 0.03119-0.20016 0.03372-0.01077 0.06638-0.02441 0.09793-0.04091l0.14853 0.11624c0.01004 0.0064 0.01938 0.0097 0.02798 0.0097 0.01577 0 0.0495-0.02546 0.10114-0.0764 0.05167-0.05093 0.08718-0.08969 0.10653-0.11624 0.0065-0.0072 0.0097-0.01541 0.0097-0.02474 0-0.0093-0.0036-0.01832-0.01077-0.02691-0.05165-0.06314-0.09004-0.11264-0.11516-0.14851 0.01435-0.02655 0.02835-0.05919 0.04198-0.09793l0.19909-0.03012c0.0086-0.0014 0.0158-0.0061 0.02153-0.01401 0.0057-0.0079 0.0086-0.01616 0.0086-0.02475v-0.2389c1.3e-5 -0.0093-0.0028-0.01774-0.0086-0.02528zm-0.6231 0.33738c-0.0538 0.05382-0.11874 0.08072-0.1948 0.08072-0.07606 0-0.14098-0.02691-0.1948-0.08072-0.0538-0.0538-0.08071-0.11873-0.08071-0.19479s0.02689-0.14098 0.08071-0.1948c0.05382-0.0538 0.11875-0.08071 0.1948-0.08071 0.07606 0 0.141 0.02691 0.1948 0.08071 0.0538 0.05382 0.08071 0.11874 0.08071 0.1948 0 0.07606-0.02691 0.14098-0.08071 0.19479z" opacity=".81" stroke-width=".013209"/>
   <path d="m9.4813 16.384c-0.00576-0.0075-0.013274-0.01203-0.022601-0.01346l-0.19694-0.03013c-0.010766-0.03444-0.025482-0.06959-0.044133-0.10546 0.012906-0.01794 0.032271-0.04322 0.058095-0.07587 0.025823-0.03265 0.044119-0.0565 0.054885-0.07157 0.00575-0.0079 0.0086-0.01614 0.0086-0.02475 0-0.01004-0.00249-0.01793-0.00753-0.02367-0.025823-0.0366-0.085016-0.09758-0.17757-0.18296-0.00859-0.0072-0.017568-0.01075-0.026881-0.01075-0.010766 0-0.019378 0.0032-0.025837 0.0097l-0.15281 0.11516c-0.02943-0.01507-0.061714-0.02835-0.096864-0.03983l-0.030131-0.19801c-7.144e-4 -0.0093-0.00485-0.01704-0.012377-0.02314-0.00754-0.0061-0.016314-0.0091-0.026379-0.0091h-0.23891c-0.020804 0-0.033724 0.01004-0.038743 0.03013-0.00933 0.03586-0.019735 0.10258-0.031214 0.20016-0.033724 0.01078-0.066364 0.02441-0.097935 0.04091l-0.14851-0.11524c-0.00933-0.0072-0.018653-0.01075-0.027978-0.01075-0.015785 0-0.04968 0.02564-0.1017 0.07695-0.052019 0.0513-0.087341 0.08986-0.10601 0.11569-0.00646 0.0093-0.00968 0.01758-0.00968 0.02475 0 0.0086 0.00358 0.01722 0.010753 0.02582 0.048069 0.05812 0.086455 0.10762 0.11516 0.14853-0.017939 0.033-0.031927 0.06601-0.041966 0.09901l-0.20017 0.03013c-0.00789 0.0014-0.014703 0.0061-0.020447 0.014-0.00575 0.0079-0.00861 0.01614-0.00861 0.02474v0.23892c0 0.0093 0.00287 0.01775 0.00861 0.02528 0.00575 0.0075 0.013274 0.01205 0.022601 0.01347l0.19695 0.02906c0.010038 0.03515 0.024741 0.07066 0.04412 0.10652-0.012906 0.01794-0.032284 0.04322-0.058108 0.07587-0.025823 0.03265-0.044133 0.0565-0.054885 0.07157-0.00575 0.0079-0.00861 0.01614-0.00861 0.02475 0 0.0093 0.00251 0.01757 0.00753 0.02474 0.027978 0.03876 0.087169 0.09903 0.17757 0.18081 0.0079 0.0079 0.01687 0.01183 0.026908 0.01183 0.010766 0 0.019735-0.0032 0.026908-0.0097l0.15175-0.11517c0.02943 0.01507 0.061714 0.02835 0.096864 0.03984l0.030131 0.19801c7.144e-4 0.0093 0.00485 0.01704 0.012377 0.02314 0.00753 0.0061 0.016328 0.0091 0.026366 0.0091h0.23892c0.020831 0 0.033737-0.01004 0.03877-0.03013 0.00931-0.03588 0.019709-0.10258 0.031187-0.20016 0.033724-0.01077 0.066377-0.02441 0.097935-0.04091l0.14853 0.11624c0.010038 0.0064 0.019378 0.0097 0.027978 0.0097 0.015772 0 0.049496-0.02546 0.10114-0.0764 0.051675-0.05093 0.087182-0.08969 0.10653-0.11624 0.00646-0.0072 0.0097-0.01541 0.0097-0.02474 0-0.0093-0.00358-0.01832-0.010766-0.02691-0.051649-0.06314-0.090035-0.11264-0.11516-0.14851 0.014346-0.02655 0.028347-0.05919 0.04198-0.09793l0.19909-0.03012c0.0086-0.0014 0.015798-0.0061 0.021532-0.01401 0.00573-0.0079 0.00859-0.01616 0.00859-0.02475v-0.2389c1.32e-5 -0.0093-0.00284-0.01774-0.0086-0.02528zm-0.6231 0.33738c-0.053802 0.05382-0.11874 0.08072-0.1948 0.08072-0.07606 0-0.14098-0.02691-0.1948-0.08072-0.053802-0.0538-0.080709-0.11873-0.080709-0.19479s0.026894-0.14098 0.080709-0.1948c0.053815-0.0538 0.11875-0.08071 0.1948-0.08071 0.07606 0 0.141 0.02691 0.1948 0.08071 0.053802 0.05382 0.080709 0.11874 0.080709 0.1948 0 0.07606-0.026908 0.14098-0.080709 0.19479z" opacity=".81" stroke-width=".013209"/>
  </g>
 </g>
</svg>
