<?xml version="1.0" encoding="UTF-8"?>
<svg width="64" height="64" version="1.1" viewBox="0 0 16.933 16.933" xmlns="http://www.w3.org/2000/svg" xmlns:cc="http://creativecommons.org/ns#" xmlns:dc="http://purl.org/dc/elements/1.1/" xmlns:rdf="http://www.w3.org/1999/02/22-rdf-syntax-ns#" xmlns:xlink="http://www.w3.org/1999/xlink">
 <defs>
  <linearGradient id="c-4" x1="24.535" x2="24.535" y1="7.0931" y2="44.483" gradientTransform="matrix(.38005 0 0 .38005 1.0369 .2419)" gradientUnits="userSpaceOnUse">
   <stop stop-color="#76dd38" offset="0"/>
   <stop stop-color="#42c440" offset=".48433"/>
   <stop stop-color="#14ab4b" offset="1"/>
  </linearGradient>
  <filter id="filter1904" x="-.035789" y="-.036213" width="1.0716" height="1.0724" color-interpolation-filters="sRGB">
   <feGaussianBlur stdDeviation="0.13972542"/>
  </filter>
  <linearGradient id="linearGradient1900" x1="3.7816" x2="13.151" y1="8.4665" y2="8.4665" gradientTransform="matrix(.26459 0 0 .26459 -12.196 2.7805)" gradientUnits="userSpaceOnUse">
   <stop stop-color="#aaf8ad" offset="0"/>
   <stop stop-color="#fff" offset="1"/>
  </linearGradient>
 </defs>
 <metadata>
  <rdf:RDF>
   <cc:Work rdf:about="">
    <dc:format>image/svg+xml</dc:format>
    <dc:type rdf:resource="http://purl.org/dc/dcmitype/StillImage"/>
    <dc:title/>
   </cc:Work>
  </rdf:RDF>
 </metadata>
 <g transform="translate(-1.723 -1.4891)">
  <circle cx="10.19" cy="9.9558" r="7.9375" color="#000000" fill="url(#c-4)" overflow="visible" stroke-width=".26458" style="isolation:auto;mix-blend-mode:normal"/>
  <path transform="matrix(1 0 0 1 1.723 1.4891)" d="m13.13 4.9797a0.64476 0.64476 0 1 0-0.97473 0.70545 2.6903 2.6903 0 0 1-0.5904 1.555c-1.1757-1.3401-1.6726-1.8888-1.9027-2.11 0.12263-0.078383 0.22756-0.12642 0.29457-0.15297a0.64476 0.64476 0 1 0-0.2263-0.58787c-0.48547 0.20607-2.1454 1.1252-1.8989 3.9887-1.818 0.051834-2.7737 0.53351-3.2086 0.84704a0.64729 0.64729 0 1 0 0.4526 0.63212l1.9014 1.9975c-0.044248 0.02528-0.088496 0.05184-0.13148 0.07459a0.64603 0.64603 0 1 0 0.2617 0.58155c0.89003-0.44248 1.6258-1.5259 1.4336-3.5045a6.2314 6.2314 0 0 0 1.5689-0.1909c0.70671-0.18584 1.2933-0.50443 1.7383-0.94818 0.56132-0.56132 0.88244-1.2971 0.93554-2.1416a0.64603 0.64603 0 0 0 0.3464-0.7459zm-5.9002 6.6802-1.9836-2.0822c0.12769-0.068269 0.28572-0.14286 0.48041-0.21366l1.8572 1.8508c-0.1062 0.18332-0.22756 0.3287-0.35399 0.44501zm0.49938-0.7459-1.6637-1.6587a6.258 6.258 0 0 1 0.91278-0.17952l0.95197 0.90899c-0.027813 0.37042-0.10114 0.67637-0.20101 0.92922zm-0.33629-1.8812c0.16182-0.012642 0.3325-0.021492 0.51328-0.025285 0.021492 0.19596 0.032871 0.37927 0.035399 0.54994zm1.0746-0.65741a5.3604 5.3604 0 0 1 0.00505-1.1505l0.92922 1.0898c-0.29204 0.04172-0.60431 0.063212-0.93554 0.060684zm1.2946-0.12642-1.22-1.4286c0.065741-0.28319 0.15677-0.52592 0.26296-0.73326 0.39571 0.42984 1.1315 1.2592 1.7143 1.9216-0.23136 0.10114-0.4842 0.18205-0.75728 0.24021zm1.0493-0.38559c-1.0329-1.1783-1.5588-1.7649-1.8407-2.0582 0.1416-0.20607 0.2933-0.36663 0.43869-0.48926 0.24779 0.24653 1.2137 1.3325 1.9381 2.1568-0.15676 0.14792-0.33755 0.27813-0.53604 0.39065z" fill="#14b432" filter="url(#filter1904)" stroke-width="1.2642"/>
  <path d="m14.853 6.4689a0.64477 0.64477 0 1 0-0.97475 0.70546 2.6904 2.6904 0 0 1-0.59041 1.555c-1.1757-1.3401-1.6726-1.8888-1.9027-2.11 0.12263-0.078385 0.22756-0.12642 0.29458-0.15297a0.64477 0.64477 0 1 0-0.2263-0.58788c-0.48548 0.20607-2.1454 1.1252-1.8989 3.9888-1.818 0.051835-2.7738 0.53352-3.2087 0.84706a0.6473 0.6473 0 1 0 0.45261 0.63213l1.9014 1.9975c-0.044249 0.02528-0.088498 0.05184-0.13148 0.07459a0.64604 0.64604 0 1 0 0.26171 0.58156c0.89005-0.44249 1.6258-1.5259 1.4336-3.5046a6.2315 6.2315 0 0 0 1.5689-0.1909c0.70672-0.18584 1.2933-0.50444 1.7383-0.9482 0.56133-0.56133 0.88246-1.2971 0.93556-2.1416a0.64604 0.64604 0 0 0 0.34641-0.74591zm-5.9003 6.6803-1.9836-2.0822c0.12769-0.06827 0.28573-0.14286 0.48042-0.21366l1.8572 1.8508c-0.1062 0.18332-0.22756 0.32871-0.354 0.44502zm0.49939-0.74592-1.6637-1.6587a6.2581 6.2581 0 0 1 0.9128-0.17952l0.95199 0.90901c-0.027813 0.37043-0.10114 0.67638-0.20101 0.92924zm-0.3363-1.8812c0.16182-0.01264 0.33251-0.02149 0.51329-0.02529 0.021492 0.19596 0.032872 0.37928 0.0354 0.54995zm1.0746-0.65742a5.3605 5.3605 0 0 1 0.0051-1.1505l0.92924 1.0898c-0.29205 0.041721-0.60432 0.063213-0.93556 0.060685zm1.2946-0.12642-1.22-1.4286c0.06574-0.2832 0.15677-0.52593 0.26296-0.73327 0.39572 0.42985 1.1315 1.2592 1.7143 1.9216-0.23136 0.10114-0.48421 0.18205-0.7573 0.24021zm1.0493-0.3856c-1.0329-1.1783-1.5588-1.7649-1.8407-2.0582 0.1416-0.20607 0.29331-0.36664 0.4387-0.48927 0.2478 0.24653 1.2137 1.3325 1.9381 2.1568-0.15676 0.14792-0.33756 0.27814-0.53605 0.39066z" fill="url(#linearGradient1900)" stroke-width="1.2642"/>
 </g>
</svg>
