<?xml version="1.0" encoding="UTF-8" standalone="no"?>
<svg
   xmlns:dc="http://purl.org/dc/elements/1.1/"
   xmlns:cc="http://creativecommons.org/ns#"
   xmlns:rdf="http://www.w3.org/1999/02/22-rdf-syntax-ns#"
   xmlns:svg="http://www.w3.org/2000/svg"
   xmlns="http://www.w3.org/2000/svg"
   xmlns:xlink="http://www.w3.org/1999/xlink"
   xmlns:sodipodi="http://sodipodi.sourceforge.net/DTD/sodipodi-0.dtd"
   xmlns:inkscape="http://www.inkscape.org/namespaces/inkscape"
   height="64"
   width="64"
   version="1.1"
   id="svg23"
   sodipodi:docname="applets-screenshooter.svg"
   inkscape:version="1.0.1 (3bc2e813f5, 2020-09-07)">
  <metadata
     id="metadata29">
    <rdf:RDF>
      <cc:Work
         rdf:about="">
        <dc:format>image/svg+xml</dc:format>
        <dc:type
           rdf:resource="http://purl.org/dc/dcmitype/StillImage" />
        <dc:title></dc:title>
      </cc:Work>
    </rdf:RDF>
  </metadata>
  <defs
     id="defs27">
    <linearGradient
       id="linearGradient956">
      <stop
         stop-color="#7814aa"
         offset="0"
         id="stop854" />
      <stop
         stop-color="#be2382"
         offset="1"
         id="stop856" />
    </linearGradient>
    <linearGradient
       id="linearGradient1159"
       x1="-184.75"
       x2="-170.2"
       y1="-1.2655"
       y2="-15.817"
       gradientTransform="matrix(3.779602,0,0,3.779602,702.81661,64.286872)"
       gradientUnits="userSpaceOnUse">
      <stop
         stop-color="#dc3282"
         offset="0"
         id="stop859" />
      <stop
         stop-color="#f05a50"
         offset="1"
         id="stop861" />
    </linearGradient>
    <linearGradient
       id="linearGradient958"
       x1="-272.21"
       x2="-275.5"
       y1="44.527"
       y2="50.385"
       gradientTransform="translate(-6.2404)"
       gradientUnits="userSpaceOnUse"
       xlink:href="#linearGradient956" />
    <linearGradient
       id="linearGradient966"
       x1="-272.86"
       x2="-267.62"
       y1="54.907"
       y2="49.026"
       gradientTransform="translate(-6.2404)"
       gradientUnits="userSpaceOnUse">
      <stop
         stop-color="#be1e6e"
         offset="0"
         id="stop865" />
      <stop
         stop-color="#7814aa"
         offset="1"
         id="stop867" />
    </linearGradient>
    <linearGradient
       id="linearGradient974"
       x1="-277.66"
       x2="-270.88"
       y1="59.727"
       y2="58.222"
       gradientTransform="translate(-6.2404)"
       gradientUnits="userSpaceOnUse">
      <stop
         stop-color="#d23c46"
         offset="0"
         id="stop870" />
      <stop
         stop-color="#b42382"
         offset="1"
         id="stop872" />
    </linearGradient>
    <linearGradient
       id="linearGradient982"
       x1="-282.61"
       x2="-278.76"
       y1="54.154"
       y2="62.018"
       gradientTransform="translate(-6.2404)"
       gradientUnits="userSpaceOnUse">
      <stop
         stop-color="#dc3c46"
         offset="0"
         id="stop875" />
      <stop
         stop-color="#e15a46"
         offset="1"
         id="stop877" />
    </linearGradient>
    <linearGradient
       id="linearGradient990"
       x1="-286.34"
       x2="-282.53"
       y1="57.278"
       y2="49.414"
       gradientTransform="translate(-6.2404)"
       gradientUnits="userSpaceOnUse">
      <stop
         stop-color="#e15a46"
         offset="0"
         id="stop880" />
      <stop
         stop-color="#be1e5a"
         offset="1"
         id="stop882" />
    </linearGradient>
    <linearGradient
       id="linearGradient998"
       x1="-281.51"
       x2="-282.55"
       y1="43.16"
       y2="49.908"
       gradientTransform="translate(-6.2404)"
       gradientUnits="userSpaceOnUse">
      <stop
         stop-color="#821496"
         offset="0"
         id="stop885" />
      <stop
         stop-color="#c83778"
         offset="1"
         id="stop887" />
    </linearGradient>
    <filter
       id="filter1030"
       x="-.061721"
       y="-.058451"
       width="1.1234"
       height="1.1169"
       color-interpolation-filters="sRGB">
      <feGaussianBlur
         stdDeviation="0.24897588"
         id="feGaussianBlur890" />
    </filter>
    <filter
       id="filter1040"
       x="-.066213"
       y="-.054853"
       width="1.1324"
       height="1.1097"
       color-interpolation-filters="sRGB">
      <feGaussianBlur
         stdDeviation="0.2340379"
         id="feGaussianBlur893" />
    </filter>
    <filter
       id="filter1046"
       x="-.047273"
       y="-.082105"
       width="1.0945"
       height="1.1642"
       color-interpolation-filters="sRGB">
      <feGaussianBlur
         stdDeviation="0.22334751"
         id="feGaussianBlur896" />
    </filter>
    <filter
       id="filter1052"
       x="-.06168"
       y="-.058409"
       width="1.1234"
       height="1.1168"
       color-interpolation-filters="sRGB">
      <feGaussianBlur
         stdDeviation="0.24881069"
         id="feGaussianBlur899" />
    </filter>
    <filter
       id="filter1058"
       x="-.066213"
       y="-.054853"
       width="1.1324"
       height="1.1097"
       color-interpolation-filters="sRGB">
      <feGaussianBlur
         stdDeviation="0.23403799"
         id="feGaussianBlur902" />
    </filter>
    <filter
       id="filter1064"
       x="-.047273"
       y="-.082105"
       width="1.0945"
       height="1.1642"
       color-interpolation-filters="sRGB">
      <feGaussianBlur
         stdDeviation="0.22334755"
         id="feGaussianBlur905" />
    </filter>
    <linearGradient
       id="linearGradient1098"
       x1="-272.21"
       x2="-275.5"
       y1="44.527"
       y2="50.385"
       gradientTransform="matrix(3.7796,0,0,3.7796,-23.586,0)"
       gradientUnits="userSpaceOnUse"
       xlink:href="#linearGradient956" />
    <filter
       id="filter1103"
       x="-.059886"
       y="-.060125"
       width="1.1198"
       height="1.1203"
       color-interpolation-filters="sRGB">
      <feGaussianBlur
         stdDeviation="0.60007942"
         id="feGaussianBlur909" />
    </filter>
    <radialGradient
       id="radialGradient1164"
       cx="-298.14"
       cy="61.201"
       r="10.223"
       gradientTransform="translate(23.267,-16.863)"
       gradientUnits="userSpaceOnUse">
      <stop
         stop-color="#962864"
         offset="0"
         id="stop912" />
      <stop
         stop-color="#780050"
         offset="1"
         id="stop914" />
    </radialGradient>
    <linearGradient
       id="linearGradient1227"
       x1="-228.54"
       x2="-228.54"
       y1="49.422"
       y2="52.342"
       gradientTransform="translate(237.02 -44.947)"
       gradientUnits="userSpaceOnUse">
      <stop
         stop-color="#fff"
         offset="0"
         id="stop917" />
      <stop
         stop-color="#fff"
         stop-opacity="0"
         offset="1"
         id="stop919" />
    </linearGradient>
    <filter
       id="filter1229"
       x="-.069096"
       y="-.1071"
       width="1.1382"
       height="1.2142"
       color-interpolation-filters="sRGB">
      <feGaussianBlur
         stdDeviation="0.1347133"
         id="feGaussianBlur922" />
    </filter>
    <filter
       id="filter1251"
       x="-.208"
       y="-.28364"
       width="1.416"
       height="1.5673"
       color-interpolation-filters="sRGB">
      <feGaussianBlur
         stdDeviation="0.069956252"
         id="feGaussianBlur925" />
    </filter>
    <filter
       id="filter1275"
       x="-.06"
       y="-.06"
       width="1.12"
       height="1.12"
       color-interpolation-filters="sRGB">
      <feGaussianBlur
         stdDeviation="0.04134033"
         id="feGaussianBlur928" />
    </filter>
    <filter
       id="filter1299"
       x="-.024"
       y="-.024"
       width="1.048"
       height="1.048"
       color-interpolation-filters="sRGB">
      <feGaussianBlur
         stdDeviation="0.18834042"
         id="feGaussianBlur931" />
    </filter>
    <filter
       id="filter1305"
       x="-.06"
       y="-.06"
       width="1.12"
       height="1.12"
       color-interpolation-filters="sRGB">
      <feGaussianBlur
         stdDeviation="0.61852427"
         id="feGaussianBlur934" />
    </filter>
  </defs>
  <sodipodi:namedview
     pagecolor="#ffffff"
     bordercolor="#666666"
     borderopacity="1"
     objecttolerance="10"
     gridtolerance="10"
     guidetolerance="10"
     inkscape:pageopacity="0"
     inkscape:pageshadow="2"
     inkscape:window-width="1920"
     inkscape:window-height="999"
     id="namedview25"
     showgrid="false"
     inkscape:zoom="6.1208931"
     inkscape:cx="18.810536"
     inkscape:cy="9.1671721"
     inkscape:window-x="0"
     inkscape:window-y="0"
     inkscape:window-maximized="1"
     inkscape:current-layer="svg23" />
  <linearGradient
     id="a"
     gradientTransform="matrix(1.3776904,0,0,1.2950473,-398.77333,-664.74396)"
     gradientUnits="userSpaceOnUse"
     x1="368.96432"
     x2="368.96432"
     y1="545.75293"
     y2="517.39703">
    <stop
       offset="0"
       stop-color="#ff3069"
       id="stop2" />
    <stop
       offset="1"
       stop-color="#ffa548"
       id="stop4" />
  </linearGradient>
  <rect
     x="4.4996157"
     y="4.4996157"
     width="55.000767"
     height="55.000767"
     ry="4.5876808"
     fill="url(#linearGradient1159)"
     id="rect941"
     style="fill:url(#linearGradient1159);stroke-width:3.7796" />
  <g
     id="g1150"
     transform="translate(0,-0.77533465)">
    <path
       d="M 9.4999948,9.4986203 V 10.58557 14.933369 H 10.586944 V 10.58557 h 4.347799 V 9.4986203 Z"
       opacity="0.75"
       id="path1108"
       style="fill:#ffffff;stroke-width:1.08695" />
    <path
       d="m 9.4999948,56.052049 h 1.0869492 4.347799 v -1.08695 H 10.586944 V 50.6173 H 9.4999948 Z"
       opacity="0.75"
       id="path1110"
       style="fill:#ffffff;stroke-width:1.08695" />
    <path
       d="m 54.3913,55.508574 v -1.08695 -4.347799 h -1.08695 v 4.347799 h -4.347798 v 1.08695 z"
       opacity="0.75"
       id="path1112"
       style="fill:#ffffff;stroke-width:1.08695" />
    <path
       d="m 54.499995,9.8242813 h -1.08695 -4.347799 v 1.0869497 h 4.347799 v 4.347799 h 1.08695 z"
       opacity="0.75"
       id="path1114"
       style="fill:#ffffff;stroke-width:1.08695" />
  </g>
  <path
     d="m 45.82839,24.372635 c -0.781332,-0.761068 -1.723749,-1.141694 -2.828046,-1.141694 h -3.500029 l -0.796653,-2.070455 c -0.197923,-0.49724 -0.559799,-0.926102 -1.086072,-1.286549 -0.52605,-0.3603 -1.065145,-0.540606 -1.617285,-0.540606 h -8.000221 c -0.552139,0 -1.091252,0.180399 -1.617321,0.540606 -0.526032,0.360447 -0.887947,0.789309 -1.08587,1.286549 l -0.796856,2.070455 h -3.500028 c -1.104298,0 -2.0469,0.380626 -2.828214,1.141694 C 17.390667,25.133926 17,26.052356 17,27.12831 v 13.64097 c 0,1.075955 0.390667,1.994587 1.171795,2.755472 0.781314,0.761289 1.723916,1.141917 2.828214,1.141917 h 22.000168 c 1.10426,0 2.046696,-0.380628 2.828028,-1.141917 C 46.609316,42.763867 47,41.845235 47,40.76928 V 27.12831 c 1.3e-4,-1.075954 -0.39048,-1.994384 -1.17161,-2.755675 z m -8.883004,14.394772 c -1.369699,1.334766 -3.018088,2.002058 -4.945293,2.002058 -1.927224,0 -3.575408,-0.667292 -4.945312,-2.002058 -1.369923,-1.334583 -2.054745,-2.940813 -2.054745,-4.818418 0,-1.877771 0.685026,-3.483688 2.054745,-4.818437 1.3697,-1.334766 3.018088,-2.002057 4.945312,-2.002057 1.927205,0 3.575409,0.667476 4.945293,2.002057 1.369904,1.334564 2.054782,2.940666 2.054782,4.818437 0,1.877605 -0.685063,3.483652 -2.054782,4.818418 z m -4.945293,-9.20316 c -1.239682,0 -2.299481,0.428844 -3.179765,1.286568 -0.880285,0.857688 -1.320409,1.890276 -1.320409,3.098174 0,1.20786 0.440124,2.240468 1.320409,3.098155 0.880284,0.857521 1.940083,1.286384 3.179765,1.286384 1.239478,0 2.29948,-0.428863 3.179765,-1.286384 0.880266,-0.857687 1.320409,-1.890295 1.320409,-3.098155 0,-1.207898 -0.440143,-2.240486 -1.320409,-3.098174 -0.880285,-0.857724 -1.940287,-1.286568 -3.179765,-1.286568 z"
     opacity="0.795"
     id="path1118"
     style="fill:#ffffff;stroke-width:1.84742" />
</svg>
