<?xml version="1.0" encoding="UTF-8"?>
<svg width="64" height="64" version="1.1" viewBox="0 0 16.933 16.933" xmlns="http://www.w3.org/2000/svg" xmlns:cc="http://creativecommons.org/ns#" xmlns:dc="http://purl.org/dc/elements/1.1/" xmlns:rdf="http://www.w3.org/1999/02/22-rdf-syntax-ns#" xmlns:xlink="http://www.w3.org/1999/xlink">
 <defs>
  <linearGradient id="linearGradient5539" x1="-1.8688" x2="57.794" y1="30.904" y2="-28.259" gradientTransform="matrix(.26458 0 0 .26458 3.4537 10.031)" gradientUnits="userSpaceOnUse">
   <stop stop-color="#125fc1" offset="0"/>
   <stop stop-color="#1584dd" offset=".31924"/>
   <stop stop-color="#3ab0f9" offset=".66878"/>
   <stop stop-color="#51baf9" offset="1"/>
  </linearGradient>
  <linearGradient id="linearGradient5557" x1="300.65" x2="327.81" y1="70.232" y2="36.997" gradientTransform="matrix(.30354 0 0 .30664 -83.208 -6.3435)" gradientUnits="userSpaceOnUse">
   <stop stop-color="#0e4ba9" offset="0"/>
   <stop stop-color="#0e66c3" offset=".51491"/>
   <stop stop-color="#14a0ff" offset="1"/>
  </linearGradient>
  <filter id="filter4955" x="-.048" y="-.048" width="1.096" height="1.096" color-interpolation-filters="sRGB">
   <feGaussianBlur stdDeviation="0.2"/>
  </filter>
  <radialGradient id="radialGradient5575" cx="-17.344" cy="-13.023" r="5" gradientTransform="matrix(.26458 0 0 .26458 19.063 14.723)" gradientUnits="userSpaceOnUse">
   <stop stop-color="#feffff" offset="0"/>
   <stop stop-color="#b0d7fa" offset="1"/>
  </radialGradient>
  <filter id="filter7609-1" x="-.063962" y="-.0565" width="1.1279" height="1.113" color-interpolation-filters="sRGB">
   <feGaussianBlur stdDeviation="2.1746765"/>
  </filter>
  <linearGradient id="linearGradient1642" x1="372.07" x2="387.12" y1="947" y2="947" gradientTransform="matrix(-.059716 -.033492 -.034477 .05801 65.738 -33.355)" gradientUnits="userSpaceOnUse">
   <stop stop-color="#828398" offset="0"/>
   <stop stop-color="#4f4e50" offset=".050132"/>
   <stop stop-color="#e8e5eb" offset=".14024"/>
   <stop stop-color="#e9d3d9" stop-opacity=".94118" offset=".23171"/>
   <stop stop-color="#c4c2c7" offset=".7622"/>
   <stop stop-color="#f4f1fa" offset=".86999"/>
   <stop stop-color="#b8b8bf" offset=".9341"/>
   <stop stop-color="#c1bfcc" offset="1"/>
  </linearGradient>
  <linearGradient id="linearGradient1644" x1="368.21" x2="394.83" y1="1019" y2="1018.6" gradientTransform="matrix(-.059716 -.033492 -.034477 .05801 65.738 -33.355)" gradientUnits="userSpaceOnUse">
   <stop stop-color="#130804" offset="0"/>
   <stop stop-color="#0f0704" offset=".16971"/>
   <stop stop-color="#323033" offset=".23766"/>
   <stop stop-color="#323033" offset=".71843"/>
   <stop stop-color="#141215" offset=".84822"/>
   <stop stop-color="#00010e" offset="1"/>
  </linearGradient>
  <linearGradient id="linearGradient1646" x1="367.85" x2="372.25" y1="904.78" y2="918" gradientTransform="matrix(-.059716 -.033492 -.034477 .05801 65.738 -33.355)" gradientUnits="userSpaceOnUse">
   <stop stop-color="#2d2d39" offset="0"/>
   <stop stop-color="#acabb0" offset="1"/>
  </linearGradient>
  <linearGradient id="linearGradient1648" x1="389.51" x2="414.06" y1="902.21" y2="908.79" gradientTransform="matrix(-.059716 -.033492 -.034477 .05801 65.738 -33.355)" gradientUnits="userSpaceOnUse">
   <stop stop-color="#59585d" offset="0"/>
   <stop stop-color="#010103" offset=".19258"/>
   <stop stop-color="#5b5b5d" offset=".54332"/>
   <stop stop-color="#171719" offset="1"/>
  </linearGradient>
  <linearGradient id="linearGradient1650" x1="-353.82" x2="-353.82" y1="903.4" y2="883.11" gradientTransform="matrix(.059716 .033492 -.034477 .05801 65.738 -33.355)" gradientUnits="userSpaceOnUse">
   <stop stop-color="#202024" offset="0"/>
   <stop stop-color="#919095" offset=".33685"/>
   <stop stop-color="#4e4d51" offset=".53882"/>
   <stop stop-color="#cfcfd1" offset=".69465"/>
   <stop stop-color="#69696b" offset="1"/>
  </linearGradient>
  <linearGradient id="linearGradient1652" x1="338.85" x2="338.85" y1="903.66" y2="883.86" gradientTransform="matrix(.068467 0 0 .067482 -39.482 -61.269)" gradientUnits="userSpaceOnUse">
   <stop stop-color="#181820" offset="0"/>
   <stop stop-color="#86858a" offset=".035115"/>
   <stop stop-color="#7a797e" offset=".14091"/>
   <stop stop-color="#2f2e33" offset=".19626"/>
   <stop stop-color="#414045" offset=".33305"/>
   <stop stop-color="#545358" offset=".43142"/>
   <stop stop-color="#ebeaf0" offset=".56075"/>
   <stop stop-color="#abaaaf" offset=".69159"/>
   <stop stop-color="#d7d6dc" offset=".85981"/>
   <stop stop-color="#66656a" offset="1"/>
  </linearGradient>
  <linearGradient id="linearGradient1654" x1="367.85" x2="415.57" y1="-67.365" y2="-50.845" gradientTransform="matrix(-.059716 -.033492 -.034477 .05801 32.766 22.124)" gradientUnits="userSpaceOnUse">
   <stop stop-color="#c7c6cb" offset="0"/>
   <stop stop-color="#fcfcfd" offset=".54332"/>
   <stop stop-color="#d8d8da" offset="1"/>
  </linearGradient>
  <filter id="filter5913-8" x="-.019943" y="-.13645" width="1.0399" height="1.2729" color-interpolation-filters="sRGB">
   <feGaussianBlur stdDeviation="0.19828681"/>
  </filter>
 </defs>
 <metadata>
  <rdf:RDF>
   <cc:Work rdf:about="">
    <dc:format>image/svg+xml</dc:format>
    <dc:type rdf:resource="http://purl.org/dc/dcmitype/StillImage"/>
    <dc:title/>
   </cc:Work>
  </rdf:RDF>
 </metadata>
 <g transform="translate(-2.3057 -1.9749)">
  <circle cx="10.772" cy="10.442" r="7.9375" fill="url(#linearGradient5539)" stroke-width=".75748"/>
  <path d="m10.753 2.9728-0.93254 0.5372c-0.11659 0.082668-0.15572 0.24792-0.039132 0.33059l0.27211 0.20662c0.03887 0.041334 0.11646 0.041323 0.15532 0.041323l0.81633-0.20662h0.03913l0.58276-0.33059c0.19432-0.082668 0.19432-0.33058 0-0.37192l-0.73867-0.20662zm3.7314 0.45455-1.4773 0.28927c-0.03887 0-0.03878-1.04e-5 -0.07766 0.041324l-1.7874 1.1163c-0.03887 0-0.07795 0.041324-0.11679 0.041324h-1.2823c-0.03887 0-0.077936-1.38e-5 -0.11679 0.041324l-2.1378 1.5289c-0.11659 0.082681-0.11659 0.24792 0 0.33059l0.3889 0.33059c0.03887 0.041335 0.15559 0.041324 0.19446 0.041324l1.4376-0.74382c0.077729-0.041335 0.15559-0.041335 0.19446 0l0.54423 0.41324c0.07774 0.041335 0.19438 0.041368 0.27211-0.041324l0.19446-0.24794c0.03887-0.082681 0.15525-0.08267 0.23299-0.041324l0.81634 0.41324s0.03853-2.06e-5 0.03853 0.041324l0.50509 0.45515c0.03887 0.041335 0.11704 0.041324 0.15592 0.041324l0.50509-0.082648c0.15546-0.041335 0.27185 0.12393 0.23299 0.24794l-0.15532 0.49589c-0.03887 0.082681 2.64e-4 0.16528 0.03912 0.20662l1.2432 1.1984c0.03887 0.041335 0.03878 0.082659 0.07766 0.12397l0.11678 0.82707c0 0.12399 0.15552 0.20663 0.27212 0.1653l1.0102-0.41324c0.03887 0 0.07825-0.0413 0.07825-0.08265l0.58276-0.82707c0.07774-0.08268 0.07766-0.12395 0.07766-0.20662l-0.07766-0.5372c-0.03887-0.16534 0.11639-0.28928 0.23299-0.24794l0.73868 0.24794c0.07774 0.041335 0.1162 0.082648 0.1162 0.1653l0.31124 1.5296c0.03887 0.16534 0.23318 0.20664 0.34977 0.08265l0.46657-0.61985c-0.3109-2.7694-1.9431-5.1256-4.1973-6.3243zm-0.42803 2.48 0.97166 0.41324c0.0583 0.041324 0.09747 0.092892 0.11205 0.14972 0.01458 0.056837 0.0045 0.11887-0.03438 0.18086l-0.27152 0.41324c-0.03887 0.082681-0.11672 0.082648-0.19444 0.082648l-0.85488-0.12397c-0.11659 0-0.19478-0.12395-0.15591-0.24794l0.19446-0.66117c0.03887-0.12399 0.15525-0.16527 0.23299-0.20662zm-4.8191 1.8601-1.5153 0.12397c-0.19432 0-0.38877 0.12393-0.54423 0.28927l-0.97166 1.0744c-0.077739 0.082681-0.11678 0.16526-0.11678 0.28927v1.2403c0 0.12399 0.078197 0.24792 0.15591 0.33059l0.73808 0.5372c0.077737 0.04133 0.15552 0.08265 0.27211 0.08265l1.5159-0.1653c0.15546 0 0.31058 0.08264 0.38831 0.20662l1.0108 1.9015c0.03887 0.08267 0.0774 0.2066 0.03853 0.28927l-0.19386 0.74442c-0.03887 0.12399-2.64e-4 0.24792 0.03853 0.33059l0.894 1.4463c0.07773 0.12399 0.23286 0.20663 0.3883 0.1653l1.2052-0.20662c0.11659 0 0.23325-0.08263 0.27211-0.20662l1.127-2.0254c0.03887-0.08268 0.03853-0.12395 0.03853-0.20662v-1.1157c0-0.12399 0.03907-0.24792 0.11679-0.33059l0.97166-0.90972c0.19433-0.16533 0.19433-0.45452 0-0.61985l-0.50509-0.41324-1.3214-1.0337c-0.077737-0.082681-0.15591-0.20659-0.15591-0.33059l-0.03853-0.74382c0.03887-0.12399-0.15546-0.28927-0.34978-0.28927h-2.2539c-0.03887 0-0.0782 1.62e-5 -0.15591-0.041324l-0.89341-0.37192c-0.038867-0.041335-0.11704-0.041324-0.15591-0.041324zm6.0244 5.9931c-0.03887 0-0.11679 0.0413-0.11679 0.08265l-0.66042 0.99236c-0.03887 0.04133-0.03913 0.12395-0.03913 0.1653l0.11679 0.61985c0.03887 0.12399 0.19438 0.20664 0.27211 0.12397l0.54364-0.33059c0.03887-0.04134 0.07766-0.08266 0.07766-0.12397l0.31124-1.2816c0.03887-0.12399-0.07787-0.24794-0.19446-0.24794z" fill="url(#linearGradient5557)" stroke-width="1.0909"/>
  <circle transform="matrix(.2616 0 0 .2616 -.49044 -.68739)" cx="57.712" cy="46.803" r="5" fill="#0d3c94" filter="url(#filter4955)" opacity=".5" stroke-width="3.0033"/>
  <circle cx="14.474" cy="11.277" r="1.3229" fill="url(#radialGradient5575)" stroke-width=".79462"/>
  <path transform="matrix(-.11821 0 0 .11484 17.118 -105.27)" d="m53.506 964.15c-8.5815 5e-3 -14.725 2.8175-22.666 7.4023-2.3169 6.0341-5.0575 7.0237-11.129 7.0098l-5.3105 3.0664c1.584 4.457 2.1764 5.6943 5.9062 10.229l5.3105-3.0664c2.2821-3.8368 5.2839-7.8115 11.715-5.0312l-0.0039-0.01c5.714 0.059 7.1941 5.1096 7.2031 5.1406v6e-3h2e-3c8e-6 0 0.0019 2e-3 2e-3 2e-3 0.0061 2e-3 0.51592 0.17507 0.75977 0.25977l8.9297 15.467-0.0078 0.012c-0.30448 0.5273-0.09534 1.1335 0.10938 1.6289l10.621 21.502 14.141 24.814s0.9937 2.4668 1.5508 3.4316c0.55711 0.9653 2.5658 0.3223 3.8516 0.033l10.818-6.7421s1.2758-1.2156 0.35938-2.8027c-0.91642-1.5873-2.3906-3.0704-2.3906-3.0704l-11.672-17.863-7.4453-10.539-11.174-14.75c-0.1782-0.1782-0.44453-0.28613-0.75781-0.33403l0.03125-0.01-9.7969-14.941 0.05273-0.71875-0.33594-0.50586-0.02539-4e-3c-0.02547-0.033-1.9462-2.5236-2.6484-4.6973-0.70696-2.1881 0.36045-3.9789 4.1621-6.1738 3.8017-2.1949 13.325-1.7583 19.85 0.65625 0.40898 0.16568 0.69373 0.19037 0.85938 0.10547l0.0039 0.0215c0.53296-0.30771 0.36763-0.96926 0.04297-1.6894l0.0098-0.0469-0.03906-0.0234c-0.0024-5e-3 -0.0034-0.0104-0.0059-0.0156l-2e-3 8e-3 -2.2617-1.4258c0.37752 0.11882 0.75506 0.23601 1.1348 0.3711 0.39906 0.17221 0.642 0.20036 0.78516 0.13476l0.0039 0.01c0.0078-5e-3 0.01202-0.0127 0.01953-0.0176 0.02382-0.0136 0.04143-0.0328 0.05859-0.0527 0.45014-0.38741 0.24222-1.3449-0.12305-2.1387l2e-3 -4e-3 -0.0039-2e-3c-0.0023-5e-3 -0.0035-0.0106-0.0059-0.0156l-0.0039 0.01c-2.1271-1.3621-4.8997-2.2578-6.875-2.8008-5.3066-1.2555-9.7107-1.8324-13.611-1.8301zm2.5078 0.52929c0.16996 2e-3 0.35497 0.0157 0.52734 0.0195-0.31102-7e-3 -0.62054-0.0119-0.92383-0.0117 0.13488-9e-5 0.2601-9e-3 0.39648-8e-3zm-1.7617 0.0371c-0.26905 0.01-0.54126 0.0155-0.80469 0.0312 0.26308-0.0157 0.536-0.0213 0.80469-0.0312zm3.7109 0.0391c0.32161 0.0175 0.64621 0.0358 0.97656 0.0605-0.33062-0.0248-0.6547-0.043-0.97656-0.0605zm-6.0039 0.11914c-0.18449 0.0193-0.37462 0.0324-0.55664 0.0547 0.18187-0.0222 0.37231-0.0354 0.55664-0.0547zm8.4902 0.0801c0.34783 0.0361 0.6929 0.0696 1.0508 0.11329-0.35823-0.0438-0.70261-0.0772-1.0508-0.11329zm2.7363 0.34766c0.35214 0.0524 0.6946 0.0969 1.0566 0.15625-0.36271-0.0595-0.70386-0.10379-1.0566-0.15625zm-15.646 0.34961c-0.19406 0.0495-0.3839 0.10904-0.57617 0.16211 0.19226-0.0531 0.38213-0.11259 0.57617-0.16211zm11.885 0.51562c0.07634 2e-3 0.15046 9e-3 0.22656 0.0117-0.45044-0.0148-0.9058-0.0164-1.3633-0.01 0.38051-6e-3 0.7612-0.0112 1.1367-2e-3zm-1.5078 2e-3c0.04331-1e-3 0.08565 1e-3 0.12891 0-0.54932 0.0128-1.1026 0.0399-1.6582 0.0879-1.7 0.14701-3.1086 0.50161-4.2676 1.0059-0.61402 0.26715-1.1389 0.58718-1.6191 0.92969 0.48051-0.34284 1.0046-0.66233 1.6191-0.92969 1.159-0.50426 2.5675-0.85885 4.2676-1.0059 0.51221-0.0443 1.0227-0.0735 1.5293-0.0879zm-12.236 0.0215c-0.21224 0.0683-0.42197 0.14422-0.63281 0.2168 0.21043-0.0724 0.421-0.14861 0.63281-0.2168zm14.357 6e-3c0.4069 0.0184 0.81032 0.0427 1.209 0.0762-0.39843-0.0338-0.80261-0.0575-1.209-0.0762zm1.6035 0.11328c0.39118 0.0377 0.7771 0.0807 1.1582 0.13086-0.38074-0.0503-0.76767-0.0929-1.1582-0.13086zm1.4863 0.17578c0.45009 0.0636 0.89137 0.13326 1.3242 0.21094-0.43161-0.0776-0.87585-0.14736-1.3242-0.21094zm1.3672 0.21875c0.35114 0.0635 0.6833 0.13418 1.0215 0.20508-0.33649-0.0706-0.67244-0.1419-1.0215-0.20508zm-20.582 0.11329c-0.24186 0.0927-0.48349 0.18899-0.72461 0.2871 0.24074-0.0979 0.48313-0.19459 0.72461-0.2871zm22.512 0.30273c0.66171 0.15557 1.2887 0.31221 1.8828 0.48242-0.59033-0.16863-1.2274-0.32832-1.8828-0.48242zm-24.311 0.43945c-0.2348 0.10336-0.46993 0.20617-0.70508 0.31446 0.2347-0.10808 0.47072-0.21129 0.70508-0.31446zm26.789 0.2168c0.60039 0.1818 1.1469 0.35777 1.6543 0.53516-0.50352-0.17512-1.0623-0.35631-1.6543-0.53516zm-28.686 0.66602c-0.18281 0.0899-0.36517 0.17686-0.54883 0.26953 0.18344-0.0926 0.36623-0.17976 0.54883-0.26953zm30.758 0.0137c0.51339 0.18568 0.95358 0.35323 1.3398 0.50976-0.3848-0.15474-0.83703-0.3287-1.3398-0.50976zm-11.291 0.33398c0.3237-8e-3 0.72449 3e-3 1.0898 4e-3 -0.45104-1e-3 -0.91184-5e-3 -1.2988 6e-3 0.0781-2e-3 0.12812-8e-3 0.20898-0.01zm-9.9316 6e-3c-0.13468 0.12365-0.2804 0.24162-0.40234 0.37109 0.12195-0.12954 0.26765-0.24738 0.40234-0.37109zm11.73 0c0.46166 9e-3 0.96688 0.0399 1.4766 0.0684-0.50546-0.0286-1.0182-0.0585-1.4766-0.0684zm-2.4336 0.0234c-0.38238 0.0157-0.76643 0.0318-1.0625 0.0527 0.30734-0.0227 0.65718-0.0356 1.0625-0.0527zm4.8164 0.0976c0.78084 0.0612 1.5892 0.1452 2.4453 0.26563 0.44938 0.0632 0.90554 0.13607 1.3711 0.21875-0.46486-0.0828-0.92234-0.15535-1.3711-0.21875-0.85358-0.12059-1.6664-0.20386-2.4453-0.26563zm8.6719 0.13672c0.48512 0.20024 0.88683 0.37515 1.1016 0.47461l-0.0039 8e-3c-0.1566-0.0749-0.42663-0.20635-1.0977-0.48243zm-33.572 0.0254c-0.93009 0.48324-1.8715 0.99216-2.8438 1.541 0.97178-0.5486 1.9141-1.058 2.8438-1.541zm17.236 0.12305c-0.21084 0.0943-0.45506 0.20638-0.66992 0.33008 0.24239-0.13954 0.44468-0.23125 0.66992-0.33008zm11.535 0.20899c0.4597 0.0823 0.92421 0.17585 1.3965 0.27929-0.47184-0.1035-0.93718-0.19682-1.3965-0.27929zm1.4277 0.28515c0.47727 0.10497 0.95837 0.22288 1.4453 0.35156-0.48602-0.1285-0.96892-0.24662-1.4453-0.35156zm-13.975 0.0762c-0.028 0.0244-0.05751 0.0488-0.07813 0.0723 0.02069-0.0237 0.04994-0.0477 0.07813-0.0723zm-0.11523 0.12305c-0.0213 0.0335-0.02951 0.0638-0.0293 0.0937 4.8e-5 -0.0298 0.0081-0.0605 0.0293-0.0937zm5.7695 4e-3c0.03411 4.4e-4 0.06934 3e-3 0.10352 4e-3 -0.36115-7e-3 -0.71512-5e-5 -1.0664 0.0117 0.31797-0.0108 0.63703-0.0199 0.96289-0.0156zm0.16602 6e-3c0.40942 8e-3 0.82363 0.0258 1.2402 0.0547-0.41697-0.0292-0.83089-0.0461-1.2402-0.0547zm-1.3945 0.0137c0.01151-5.6e-4 0.02363 5.3e-4 0.03516 0-0.41421 0.019-0.82099 0.0508-1.2148 0.0996 0.3836-0.0476 0.77736-0.0801 1.1797-0.0996zm2.8086 0.0566c0.36097 0.0273 0.72165 0.0613 1.084 0.10156-0.3624-0.0405-0.72323-0.074-1.084-0.10156zm-7.377 0.0547c0.01656 0.0398 0.05106 0.0766 0.125 0.10546 0.06996 0.0273 0.18308 0.0459 0.31445 0.0606-0.13115-0.0147-0.24456-0.0332-0.31445-0.0606-0.07488-0.0293-0.10888-0.065-0.125-0.10546zm15.596 0.0254c0.48164 0.12778 0.96511 0.26682 1.4531 0.41992-0.48739-0.15288-0.97208-0.29223-1.4531-0.41992zm-6.4375 0.12109c0.67412 0.0889 1.3407 0.18255 1.9961 0.30273-0.65301-0.1197-1.3256-0.21396-1.9961-0.30273zm-7.4883 8e-3c-0.10725 7e-3 -0.21744 0.0153-0.3125 0.0195 0.09454-4e-3 0.20594-0.0126 0.3125-0.0195zm9.9277 0.38477c0.7132 0.13828 1.4028 0.2828 2.0605 0.43945-0.65504-0.15551-1.3525-0.30224-2.0605-0.43945zm2.3984 0.52344c0.65444 0.16053 1.2691 0.31755 1.832 0.47656-0.56075-0.15747-1.1846-0.31824-1.832-0.47656zm2.2598 0.60156c0.46726 0.13637 0.89594 0.26387 1.2656 0.38281-0.36979-0.11792-0.80541-0.24923-1.2656-0.38281zm1.9551 0.61328c0.12524 0.0431 0.25954 0.0863 0.36133 0.12305-0.10264-0.0367-0.23713-0.0806-0.36133-0.12305zm0.89648 0.32812c0.0067 3e-3 0.03336 0.0129 0.03906 0.0156v2e-3c-0.0088-4e-3 -0.028-0.0126-0.03906-0.0176zm-38.064 6.3789c0.0399 0.0133 0.08712 0.0342 0.12891 0.0488 0.09595 0.0334 0.19541 0.0691 0.30078 0.10937-0.07103-0.023-0.14515-0.0506-0.21484-0.0723-0.06549-0.0233-0.15379-0.0655-0.21484-0.0859zm1.3203 0.48047c0.11936 0.0474 0.24334 0.10548 0.36524 0.1582-0.12152-0.0528-0.24626-0.11078-0.36524-0.1582zm1.2227 0.56836c0.31073 0.16457 0.62655 0.34425 0.94727 0.55469-0.3213-0.21155-0.63602-0.38918-0.94727-0.55469zm1.9082 1.2578c0.05239 0.0422 0.10373 0.0871 0.15625 0.13086-0.05228-0.0436-0.10409-0.0887-0.15625-0.13086zm2.1641 2.1953c0.05915 0.0734 0.1167 0.14481 0.17578 0.22071-0.05911-0.076-0.11661-0.14721-0.17578-0.22071zm1.125 1.5586c0.06433 0.0991 0.12729 0.20422 0.19141 0.30664-0.06404-0.1023-0.12714-0.20769-0.19141-0.30664z" fill-rule="evenodd" filter="url(#filter7609-1)" opacity=".3"/>
  <path d="m11.745 7.6382c0.0094-0.00358 0.10928-0.036324 0.10928-0.036324l0.0067-0.17726-0.76534-0.43014-0.14551 0.01878-0.03968 0.058064 0.0099 0.13106z" fill-rule="evenodd" stroke-width=".067962"/>
  <path d="m11.802 7.5668-0.0047-0.11058-0.72023-0.40395-0.09005-0.00357-1.229 1.8208 0.2518 0.055122 0.58596 0.33748 0.11066 0.14812z" fill="url(#linearGradient1642)" stroke-width=".067962"/>
  <g fill-rule="evenodd" stroke-width=".067962">
   <path d="m7.7694 14.914 1.6717-2.8496 1.2556-2.4691c0.0242-0.056879 0.04906-0.12662 0.01307-0.18718l-0.10591-0.14348-0.57496-0.33477c-0.14083-0.078989-0.29263-0.08357-0.35588-0.022127l-1.321 1.694-0.88 1.2102-1.38 2.0514s-0.1743 0.17031-0.28263 0.35259 0.04248 0.32198 0.04248 0.32198l1.2791 0.77417c0.152 0.0332 0.38943 0.10706 0.45529-0.0037 0.065855-0.1108 0.18313-0.3942 0.18313-0.3942z" fill="url(#linearGradient1644)"/>
   <path d="m11.854 7.6025s0.17482-0.5865 0.85477-0.59162l0.26406-0.57472s-0.73221 0.11262-1.1131 0.98824z" fill="url(#linearGradient1646)"/>
   <path d="m11.8 7.3914c0.40656-0.75947 0.87741-0.87794 1.1724-0.95528 0 0-0.73221 0.11262-1.1131 0.98824z" fill="#5b5c60"/>
   <path d="m10.952 7.0143s0.23054-0.28953 0.31411-0.54081c0.08357-0.25128-0.04265-0.45695-0.49204-0.709-0.44939-0.25205-1.5753-0.20204-2.3466 0.075281-0.11398 0.044854-0.15153 0.00458-0.096111-0.096498 0.00511-0.014668 1.1233-0.40008 1.8791-0.30905 0.76147 0.091675 0.20855-0.11729 0.20855-0.11729s-0.95858-0.133-1.961 0.21343c-0.14019 0.058767-0.12656-0.019563-0.079437-0.13684 0 0 1.0022-0.48138 2.0741-0.39134 1.0718 0.09004 1.1633 0.85831 1.0286 1.2939-0.13467 0.43558-0.37846 0.71057-0.37846 0.71057z" fill="url(#linearGradient1648)"/>
   <path d="m8.4144 5.3805-0.049886 0.16653c-0.066938-0.038796-0.040112-0.15928 0.0063103-0.25622z"/>
   <path d="m8.3482 5.7371-0.022532 0.11725c-0.065556-0.036768-0.042404-0.11723-9.525e-4 -0.20382z"/>
  </g>
  <path d="m13.472 5.61c0.2739 0.69312 0.59767 0.80684 1.3155 0.80523l-0.69809 1.1746c-0.26977-0.44061-0.62455-0.89719-1.3848-0.57791l0.25988-0.56544z" fill="url(#linearGradient1650)" stroke-width=".067962"/>
  <rect transform="matrix(-.87218 -.48918 -.51091 .85964 0 0)" x="-16.715" y="-1.6393" width=".71979" height="1.3664" fill="url(#linearGradient1652)" stroke-width=".067973"/>
  <g stroke-width=".067962">
   <path d="m13.472 5.61c-1.3655-0.76584-2.281-1.1013-4.2884-0.63993 2.0278-0.39367 2.7865 0.026715 4.1795 0.823z" fill="#3b3b3d" fill-rule="evenodd"/>
   <path d="m12.868 5.5131c0.15802 0.086932 0.32216 0.18063 0.49628 0.28016l-0.43755 0.74379 0.04643-0.10115s-0.01132 0.00175-0.03184 0.00647c-2.62e-4 3.89e-5 -1.02e-4 5.11e-5 -3.7e-4 9.24e-5 -0.02051 0.00474-0.05003 0.012398-0.08676 0.024307-5.82e-4 1.82e-4 -7.94e-4 2.542e-4 -0.0014 4.497e-4 -0.0047 0.00153-0.01042 0.00376-0.01536 0.00543-0.01141 0.00386-0.02312 0.00798-0.03566 0.012634-8.73e-4 2.498e-4 -0.0017 5.821e-4 -0.0025 8.467e-4 -0.28776 0.091183-0.6642 0.28052-0.99857 0.90513l0.05409 0.029879-0.02155 0.021603-0.74092-0.43399 7.14e-4 -0.00172 0.01041-5.027e-4s0.24382-0.27502 0.37849-0.71063c0.13467-0.43561 0.04317-1.2039-1.0287-1.2939-0.96875-0.081374-1.8729 0.30079-2.0393 0.37569l-0.041705-0.085782c0.25146-0.15642 0.57908-0.2593 0.81259-0.32166 1.7744-0.34447 2.577-0.065684 3.6832 0.54287zm-2.3135-0.13496c0.09507 0.053164 0.13259 0.11325-0.34333 0.055945-0.72555-0.087359-1.7746 0.26118-1.8627 0.30238l-0.023048-0.084986 0.26796-0.16409c0.95179-0.29085 1.8263-0.17051 1.8263-0.17051s0.07777 0.029359 0.13481 0.061259zm1.7389 1.4235c-0.03063 0.028357-0.06126 0.058766-0.09158 0.091552 0.03031-0.032752 0.06095-0.063221 0.09158-0.091552zm-0.09164 0.091662c-0.02656 0.028726-0.05289 0.060003-0.07883 0.092349 0.026-0.032392 0.05222-0.063589 0.07883-0.092349zm-0.09115 0.10705c-0.02533 0.032317-0.04997 0.06731-0.07432 0.10334 0.02436-0.036025 0.04899-0.071032 0.07432-0.10334zm-0.08669 0.12073c-0.02753 0.041791-0.05434 0.085971-0.08007 0.1329 0.02577-0.046987 0.05251-0.091066 0.08007-0.1329zm-0.08184 0.13614c-0.02535 0.046433-0.04963 0.095549-0.07275 0.14727 0.02313-0.051726 0.0474-0.10084 0.07275-0.14727zm-3.571-1.9648c-9.61e-5 2.013e-4 -1.048e-4 4.498e-4 -2.186e-4 6.35e-4l-2.238e-4 -4.233e-4zm-0.046484 0.35976c-0.00132 0.00276-0.00212 0.00532-0.00339 0.00807l-0.00119-0.00534z" fill="url(#linearGradient1654)"/>
   <path d="m15.416 6.7674c-0.18725 0.51183-0.25718 0.65391-0.69809 1.1746z" fill="#5b5a60"/>
  </g>
  <rect transform="matrix(-.0622 -.034886 -.040945 .068893 73.486 -44.258)" x="370.97" y="1049.2" width="23.862" height="3.4876" rx="1.7438" ry="1.7438" fill="#323033" filter="url(#filter5913-8)"/>
  <rect transform="matrix(-.87218 -.48918 -.51091 .85964 0 0)" x="-14.083" y="9.5338" width="1.6338" height=".23535" rx=".11939" ry=".11768" fill="#060509" stroke-width=".067973"/>
 </g>
</svg>
