<?xml version="1.0" encoding="UTF-8"?>
<svg width="64" height="64" version="1.1" viewBox="0 0 16.933 16.933" xmlns="http://www.w3.org/2000/svg" xmlns:cc="http://creativecommons.org/ns#" xmlns:dc="http://purl.org/dc/elements/1.1/" xmlns:rdf="http://www.w3.org/1999/02/22-rdf-syntax-ns#" xmlns:xlink="http://www.w3.org/1999/xlink">
 <defs>
  <linearGradient id="linearGradient1005-9" x1=".73911" x2="16.388" y1="16.296" y2=".64687" gradientTransform="matrix(.99999 0 0 .99999 2.8851 2.5485)" gradientUnits="userSpaceOnUse">
   <stop stop-color="#cfdade" offset="0"/>
   <stop stop-color="#eaeff2" offset="1"/>
  </linearGradient>
  <linearGradient id="linearGradient2800" x1="8.6717" x2="8.6717" y1="16.34" y2=".55818" gradientTransform="matrix(-.81359 0 0 .81359 18.304 4.1257)" gradientUnits="userSpaceOnUse">
   <stop stop-color="#fcfcfd" offset="0"/>
   <stop stop-color="#90acb5" offset="1"/>
  </linearGradient>
 </defs>
 <metadata>
  <rdf:RDF>
   <cc:Work rdf:about="">
    <dc:format>image/svg+xml</dc:format>
    <dc:type rdf:resource="http://purl.org/dc/dcmitype/StillImage"/>
    <dc:title/>
   </cc:Work>
  </rdf:RDF>
 </metadata>
 <g transform="translate(-2.9199 -2.5419)">
  <path d="m19.324 11.009c0 0.95155-0.16749 1.8639-0.47464 2.7093-0.2135 0.58769-0.4944 1.1433-0.83394 1.6572-0.14222 0.21608-0.29514 0.42476-0.45746 0.62529-0.51964 0.6418-1.1372 1.2007-1.8305 1.6543-0.2553 0.16717-0.52065 0.32009-0.79536 0.45712-1.0668 0.5339-2.2711 0.8342-3.5457 0.8342-1.2745 0-2.4788-0.30033-3.5457-0.83423-0.27474-0.13705-0.54041-0.28996-0.79571-0.45712-0.70207-0.45974-1.327-1.0274-1.8509-1.6798-0.16263-0.20216-0.31522-0.41275-0.45746-0.63077-0.33046-0.50541-0.6042-1.0507-0.81349-1.627-0.3071-0.84529-0.47429-1.7573-0.47429-2.7085 0-4.3839 3.5536-7.9375 7.9375-7.9375 2.2005 0 4.1918 0.89548 5.6295 2.3417 0.41436 0.41661 0.78274 0.87929 1.0963 1.3795 0.29644 0.47106 0.54428 0.97581 0.73705 1.5068 0.30718 0.84558 0.47466 1.7579 0.47466 2.7093z" fill="url(#linearGradient1005-9)" stroke-width=".031006"/>
  <path d="m4.9292 11.009c0 0.77414 0.13627 1.5164 0.38616 2.2043 0.17371 0.47813 0.40222 0.93017 0.67847 1.3483 0.11572 0.1758 0.24013 0.34557 0.37219 0.50871 0.42278 0.52216 0.9252 0.97684 1.4892 1.3459 0.2077 0.13601 0.4236 0.26043 0.64709 0.3719 0.86791 0.43437 1.8477 0.67871 2.8848 0.67871 1.0369 0 2.0167-0.24433 2.8848-0.67871 0.22352-0.1115 0.43966-0.23591 0.64736-0.3719 0.57118-0.37402 1.0796-0.83587 1.5058-1.3667 0.13231-0.16447 0.25647-0.33581 0.37219-0.51319 0.26887-0.41119 0.49157-0.85484 0.66186-1.3237 0.24986-0.6877 0.3859-1.4297 0.3859-2.2036 0-3.5666-2.8911-6.4577-6.4577-6.4577-1.7903 0-3.4102 0.72856-4.5799 1.9051-0.33711 0.33896-0.63683 0.71538-0.89191 1.1223-0.24118 0.38325-0.44281 0.79391-0.59965 1.2259-0.24992 0.68794-0.38619 1.4302-0.38619 2.2043z" fill="url(#linearGradient2800)" stroke-width=".025227"/>
  <path d="m15.988 10.494c-0.01464-0.13017-0.16642-0.22799-0.29768-0.22799-0.42431 0-0.80087-0.24915-0.9588-0.63444-0.16132-0.39465-0.0573-0.8549 0.25895-1.145 0.09954-0.090993 0.11164-0.24332 0.02815-0.34914-0.21718-0.27578-0.464-0.52488-0.73356-0.74078-0.10554-0.08469-0.26039-0.072909-0.3519 0.028429-0.27599 0.30565-0.77174 0.41926-1.1548 0.25941-0.39865-0.16769-0.65005-0.57166-0.62545-1.0053 0.0081-0.1362-0.09145-0.25463-0.22724-0.27046-0.34586-0.040002-0.69477-0.041243-1.0417-0.00275-0.13424 0.014817-0.23378 0.13045-0.22927 0.26493 0.0151 0.42934-0.23932 0.82624-0.63402 0.98791-0.37849 0.1546-0.87074 0.041966-1.1462-0.26097-0.091035-0.099782-0.24336-0.11205-0.34941-0.02939-0.27752 0.21772-0.52991 0.46704-0.74906 0.74052-0.085484 0.10633-0.072909 0.26043 0.027636 0.35192 0.32226 0.29184 0.42632 0.75607 0.2589 1.1553-0.15984 0.38058-0.55507 0.6259-1.0075 0.6259-0.14682-0.0047-0.25139 0.09382-0.26744 0.2273-0.040725 0.34785-0.041209 0.70231-0.00201 1.053 0.014536 0.13072 0.17094 0.22768 0.30361 0.22768 0.40322-0.0103 0.79031 0.23933 0.95271 0.63452 0.16187 0.39465 0.057817 0.85463-0.2589 1.145-0.09906 0.09099-0.11164 0.24308-0.028149 0.34891 0.21514 0.27403 0.46204 0.52337 0.7325 0.7411 0.10609 0.08548 0.26046 0.07342 0.3524-0.02791 0.27702-0.30641 0.77274-0.41981 1.1543-0.25966 0.39965 0.16717 0.65103 0.5711 0.62645 1.005-8e-3 0.13627 0.092 0.2549 0.22723 0.27048 0.17693 0.02064 0.35494 0.03094 0.5334 0.03094 0.16942 0 0.33888-0.0093 0.50829-0.02815 0.13428-0.01482 0.23375-0.13045 0.22924-0.26516-0.01554-0.4291 0.23933-0.826 0.63352-0.98737 0.38103-0.15563 0.87125-0.04172 1.1467 0.2609 0.09155 0.09958 0.24281 0.1116 0.34946 0.02922 0.27699-0.21721 0.52885-0.4663 0.74906-0.7406 0.08545-0.10608 0.07339-0.26044-0.02766-0.3519-0.32226-0.29184-0.42685-0.75615-0.25941-1.1551 0.15739-0.37552 0.53792-0.62767 0.94724-0.62767l0.05727 0.0015c0.13276 0.01079 0.2549-0.09148 0.27099-0.22699 0.0408-0.34814 0.04128-0.70231 2e-3 -1.053zm-4.5937 2.0683c-0.85169 0-1.5445-0.69273-1.5445-1.5444 0-0.85162 0.69276-1.5444 1.5445-1.5444 0.85167 0 1.5444 0.69281 1.5444 1.5444 0 0.85167-0.69276 1.5444-1.5444 1.5444z" clip-rule="evenodd" fill="#5f7b89" fill-rule="evenodd" stroke-width=".038224"/>
 </g>
</svg>
