<?xml version="1.0" encoding="UTF-8"?>
<svg width="64" height="64" version="1.1" xmlns="http://www.w3.org/2000/svg" xmlns:cc="http://creativecommons.org/ns#" xmlns:dc="http://purl.org/dc/elements/1.1/" xmlns:rdf="http://www.w3.org/1999/02/22-rdf-syntax-ns#" xmlns:xlink="http://www.w3.org/1999/xlink">
 <metadata>
  <rdf:RDF>
   <cc:Work rdf:about="">
    <dc:format>image/svg+xml</dc:format>
    <dc:type rdf:resource="http://purl.org/dc/dcmitype/StillImage"/>
   </cc:Work>
  </rdf:RDF>
 </metadata>
 <defs>
  <radialGradient id="radialGradient10464" cx="343.8" cy="-132.59" r="35.915" gradientTransform="matrix(1 0 0 .90605 0 -12.457)" gradientUnits="userSpaceOnUse">
   <stop stop-color="#fd7747" offset="0"/>
   <stop stop-color="#ed3009" offset=".45242"/>
   <stop stop-color="#f07011" stop-opacity=".0042893" offset="1"/>
  </radialGradient>
  <radialGradient id="radialGradient36078" cx="345.36" cy="-126.2" r="40.748" gradientTransform="matrix(1.1216 0 0 1.0647 -41.989 7.7027)" gradientUnits="userSpaceOnUse">
   <stop stop-color="#fdfbfa" offset="0"/>
   <stop stop-color="#fdfbfa" stop-opacity="0" offset="1"/>
  </radialGradient>
  <radialGradient id="radialGradient36212" cx="343.08" cy="-125.56" r="85.236" gradientTransform="matrix(1 0 0 .96424 0 -4.4904)" gradientUnits="userSpaceOnUse">
   <stop stop-color="#f8a217" offset="0"/>
   <stop stop-color="#f8a30e" offset=".58834"/>
   <stop stop-color="#e76d0b" offset="1"/>
  </radialGradient>
  <linearGradient id="linearGradient44576" x1="244.52" x2="269.44" y1="-122.16" y2="-69.182" gradientUnits="userSpaceOnUse">
   <stop stop-color="#e71403" offset="0"/>
   <stop stop-color="#feac0b" offset="1"/>
  </linearGradient>
  <filter id="filter62006" x="-.047142" y="-.04889" width="1.0943" height="1.0978" color-interpolation-filters="sRGB">
   <feGaussianBlur stdDeviation="3.3484654"/>
  </filter>
 </defs>
 <g transform="matrix(.98537 0 0 .98537 -224.3 128.59)">
  <circle cx="259.54" cy="-96.887" r="30" fill="url(#linearGradient44576)" fill-rule="evenodd" style="paint-order:stroke fill markers"/>
  <g transform="matrix(.2933 0 0 .2933 165.37 -65.872)" fill="#c12000" filter="url(#filter62006)" opacity=".5">
   <path d="m351.36-206.45s-27.372-5.5558-27.443 6.324c-0.0714 11.88 4.8747 28.399 4.8747 28.399s-15.961-22.193-29.724-24.969c-13.764-2.7756-16.387-1.137-20.441 1.2586-4.0535 2.3956-16.399 5.4875-19.996 13.547s6.3091 15.057 5.3953 17.55c-0.91382 2.4932 21.404 15.035 27.072 16.022 5.6684 0.98715 22.193 7.5131 24.33 10.524 0 0-12.491-2.02-21.63 6.2929s-18.651 14.95-21.301 18.898c-2.6499 3.9474-1.4635 21.597 5.961 31.287 7.4245 9.6902 30.209 19.503 33.879 24.651s30.441-0.41973 36.349-38.902c0 0 4.1166 61.476 42.694 50.992 0 0 24.163-4.9401 20.099-28.395s-38.663-42.93-38.663-42.93 33.011 17.371 41.923 15.924c8.9119-1.4471 17.437-3.499 11.718-12.84s-15.965-27.853-16.139-35.802c-0.17352-7.9498-23.071-15.798-36.126-4.6359 0 0 16.357-19.141 9.9336-32.196-6.4239-13.055-32.766-20.999-32.766-20.999z"/>
   <ellipse cx="343.8" cy="-132.59" rx="35.915" ry="32.541" fill-rule="evenodd" opacity="1" style="paint-order:stroke fill markers"/>
   <path d="m353.85-173.91s-6.4714 30.796-7.4408 32.731-3.2389 11.697-3.2389 11.697-8.8969-9.8062-13.416-20.106c-4.5188-10.299-17.279-17.771-17.279-17.771s15.485 17.625 16.696 24.975c1.2105 7.3504 11.28 16.179 11.28 16.179s-5.5404 4.7895-12.768 1.6772c-7.2274-3.1123-17.181 17.956-17.181 17.956s15.783-18.302 20.024-13.76 12.819-2.0189 12.819-2.0189 9.281 8.387 11.563 9.5702c2.2816 1.1833 22.142 16.23 22.142 16.23s-6.963-10.649-16.987-17.219c-10.024-6.5698-10.802-8.94-10.802-8.94s11.498-0.97749 18.728-4.4384c7.2299-3.4609 24.008-11.027 24.008-11.027s-16.8 2.636-25.198 7.1561c-8.3975 4.5201-19.773 5.6904-19.216 2.7732s4.7474-22.102 5.9038-27.65c1.1564-5.5477 0.36187-18.016 0.36187-18.016z"/>
  </g>
  <g transform="matrix(.2933 0 0 .2933 164.89 -67.958)">
   <path d="m351.36-206.45s-27.372-5.5558-27.443 6.324c-0.0714 11.88 4.8747 28.399 4.8747 28.399s-15.961-22.193-29.724-24.969c-13.764-2.7756-16.387-1.137-20.441 1.2586-4.0535 2.3956-16.399 5.4875-19.996 13.547s6.3091 15.057 5.3953 17.55c-0.91382 2.4932 21.404 15.035 27.072 16.022 5.6684 0.98715 22.193 7.5131 24.33 10.524 0 0-12.491-2.02-21.63 6.2929s-18.651 14.95-21.301 18.898c-2.6499 3.9474-1.4635 21.597 5.961 31.287 7.4245 9.6902 30.209 19.503 33.879 24.651s30.441-0.41973 36.349-38.902c0 0 4.1166 61.476 42.694 50.992 0 0 24.163-4.9401 20.099-28.395s-38.663-42.93-38.663-42.93 33.011 17.371 41.923 15.924c8.9119-1.4471 17.437-3.499 11.718-12.84s-15.965-27.853-16.139-35.802c-0.17352-7.9498-23.071-15.798-36.126-4.6359 0 0 16.357-19.141 9.9336-32.196-6.4239-13.055-32.766-20.999-32.766-20.999z" fill="url(#radialGradient36212)"/>
   <ellipse cx="343.8" cy="-132.59" rx="35.915" ry="32.541" fill="url(#radialGradient10464)" fill-rule="evenodd" style="paint-order:stroke fill markers"/>
   <path d="m353.85-173.91s-6.4714 30.796-7.4408 32.731-3.2389 11.697-3.2389 11.697-8.8969-9.8062-13.416-20.106c-4.5188-10.299-17.279-17.771-17.279-17.771s15.485 17.625 16.696 24.975c1.2105 7.3504 11.28 16.179 11.28 16.179s-5.5404 4.7895-12.768 1.6772c-7.2274-3.1123-17.181 17.956-17.181 17.956s15.783-18.302 20.024-13.76 12.819-2.0189 12.819-2.0189 9.281 8.387 11.563 9.5702c2.2816 1.1833 22.142 16.23 22.142 16.23s-6.963-10.649-16.987-17.219c-10.024-6.5698-10.802-8.94-10.802-8.94s11.498-0.97749 18.728-4.4384c7.2299-3.4609 24.008-11.027 24.008-11.027s-16.8 2.636-25.198 7.1561c-8.3975 4.5201-19.773 5.6904-19.216 2.7732s4.7474-22.102 5.9038-27.65c1.1564-5.5477 0.36187-18.016 0.36187-18.016z" fill="url(#radialGradient36078)"/>
  </g>
 </g>
</svg>
