<?xml version="1.0" encoding="UTF-8"?>
<svg width="64" height="64" version="1.1" viewBox="0 0 16.933 16.933" xmlns="http://www.w3.org/2000/svg" xmlns:cc="http://creativecommons.org/ns#" xmlns:dc="http://purl.org/dc/elements/1.1/" xmlns:rdf="http://www.w3.org/1999/02/22-rdf-syntax-ns#">
 <defs>
  <linearGradient id="linearGradient1978" x1="-59.235" x2="-59.235" y1=".7041" y2="-11.929" gradientTransform="matrix(1.0909 0 0 1.0909 195.21 168.16)" gradientUnits="userSpaceOnUse">
   <stop stop-color="#005ad7" offset="0"/>
   <stop stop-color="#0aaff0" offset="1"/>
  </linearGradient>
  <linearGradient id="linearGradient1988" x1="-59.235" x2="-59.235" y1=".7041" y2="-11.929" gradientTransform="matrix(.91342 0 0 .91342 184.72 167)" gradientUnits="userSpaceOnUse">
   <stop stop-color="#0273dc" offset="0"/>
   <stop stop-color="#0ab9f0" offset="1"/>
  </linearGradient>
  <filter id="filter1877" x="-.027479" y="-.021303" width="1.055" height="1.0426" color-interpolation-filters="sRGB">
   <feGaussianBlur stdDeviation="0.072702461"/>
  </filter>
  <linearGradient id="k" x1="430.56" x2="433.31" y1="536.57" y2="524.17" gradientTransform="matrix(.52733 0 0 .52733 -96.827 -118.82)" gradientUnits="userSpaceOnUse">
   <stop stop-color="#c4e7f9" offset="0"/>
   <stop stop-color="#edfafd" offset="1"/>
  </linearGradient>
 </defs>
 <metadata>
  <rdf:RDF>
   <cc:Work rdf:about="">
    <dc:format>image/svg+xml</dc:format>
    <dc:type rdf:resource="http://purl.org/dc/dcmitype/StillImage"/>
    <dc:title/>
   </cc:Work>
  </rdf:RDF>
 </metadata>
 <g transform="translate(-122.31 -152.55)">
  <path d="m138.72 161.02c0 0.95153-0.16749 1.8638-0.47463 2.7094-0.21351 0.58768-0.49439 1.1433-0.83393 1.6572-0.14222 0.21608-0.29513 0.42475-0.45745 0.62528-0.51965 0.64179-1.1372 1.2007-1.8305 1.6543-0.2553 0.16718-0.52064 0.3201-0.79536 0.45712-1.0668 0.53389-2.2711 0.83421-3.5456 0.83421-1.2745 0-2.4788-0.30032-3.5456-0.83423-0.27473-0.13705-0.54039-0.28997-0.79569-0.45712-0.70206-0.45972-1.327-1.0274-1.8509-1.6798-0.16262-0.20216-0.31523-0.41275-0.45746-0.63077-0.33046-0.50539-0.6042-1.0507-0.81348-1.627-0.30711-0.84528-0.4743-1.7573-0.4743-2.7084 0-4.3838 3.5537-7.9374 7.9374-7.9374 2.2005 0 4.1916 0.89548 5.6295 2.3417 0.41436 0.41661 0.78274 0.87928 1.0963 1.3795 0.29645 0.47107 0.54427 0.97581 0.73704 1.5068 0.30718 0.84558 0.47466 1.7579 0.47466 2.7094z" fill="url(#linearGradient1978)" stroke-width=".031006"/>
  <path d="m137.42 161.02c0 0.79671-0.14024 1.5606-0.39742 2.2686-0.17877 0.49206-0.41394 0.95726-0.69823 1.3875-0.11908 0.18092-0.24711 0.35564-0.38302 0.52354-0.43509 0.53737-0.95215 1.0053-1.5326 1.3852-0.21375 0.13997-0.43593 0.26801-0.66594 0.38274-0.89321 0.44701-1.9016 0.69847-2.9687 0.69847s-2.0755-0.25146-2.9687-0.69849c-0.23003-0.11475-0.45247-0.24278-0.66622-0.38273-0.58784-0.38492-1.1111-0.86022-1.5497-1.4065-0.13616-0.16927-0.26394-0.34559-0.38302-0.52814-0.27669-0.42315-0.50589-0.87973-0.68113-1.3622-0.25713-0.70775-0.39713-1.4713-0.39713-2.2677 0-3.6705 2.9755-6.6459 6.6459-6.6459 1.8424 0 3.5096 0.74977 4.7135 1.9606 0.34694 0.34882 0.65538 0.73621 0.91789 1.1551 0.24822 0.39442 0.45571 0.81703 0.61711 1.2616 0.2572 0.708 0.39743 1.4719 0.39743 2.2686z" fill="url(#linearGradient1988)" stroke-width=".025961"/>
  <g fill="#fff" stroke-width="1.0909">
   <path d="m124.49 158.91c-0.0852 0.25337-0.18347 0.50071-0.2379 0.76669-9e-3 0.0428-6e-3 0.0894-0.0135 0.13248h13.057c-0.0568-0.30891-0.14279-0.60674-0.24071-0.89916z" opacity=".25"/>
   <path d="m124.15 160.73c-4e-3 0.097-0.0287 0.18829-0.0287 0.28638 0 0.2092 0.0352 0.40909 0.0541 0.61335h13.184c0.0189-0.20433 0.0536-0.40408 0.0536-0.61335h5.5e-4c0-0.0977-0.0212-0.18969-0.0254-0.28638z" opacity=".25"/>
   <path d="m124.33 162.55c0.0589 0.24781 0.11148 0.49832 0.19731 0.73455 0.0212 0.0585 0.0595 0.10749 0.0823 0.16517h12.332c0.0228-0.0576 0.0617-0.10624 0.0829-0.16461 0.0858-0.23637 0.13838-0.48715 0.19731-0.73511z" opacity=".25"/>
  </g>
  <path transform="matrix(1.1158 0 0 1.1136 196.55 167.95)" d="m-60.157-9.1368c-0.27072 0.07597-0.48865 0.37808-0.48865 0.67158v4.6529c-0.27453-0.1505-0.62705-0.21136-0.99256-0.1119-0.65954 0.17943-1.0729 0.75934-0.93147 1.2951 0.14138 0.53575 0.79112 0.83498 1.4507 0.65552 0.52617-0.14314 0.8889-0.54821 0.94674-0.97531l0.01541-4.397 3.4205-0.95936v3.4697c-0.2745-0.15051-0.62705-0.21137-0.99256-0.11194-0.65954 0.17944-1.0728 0.75936-0.93147 1.2951 0.14139 0.53577 0.79112 0.83498 1.4507 0.65554 0.52619-0.14314 0.8889-0.54818 0.94674-0.97531l0.01548-5.7241c0-0.22008-0.12991-0.38472-0.3054-0.4157l-3.6038 0.97531z" filter="url(#filter1877)" image-rendering="optimizeSpeed" opacity=".35" stroke-width=".26458"/>
  <path d="m129.36 157.75c-0.29533 0.0829-0.53308 0.41245-0.53308 0.73264v5.076c-0.29949-0.16419-0.68406-0.23058-1.0828-0.12208-0.71951 0.19575-1.1704 0.82838-1.0162 1.4128 0.15423 0.58445 0.86304 0.9109 1.5826 0.71513 0.57401-0.15616 0.96972-0.59806 1.0328-1.064l0.0168-4.7968 3.7315-1.0466v3.7852c-0.29946-0.16419-0.68406-0.23059-1.0828-0.12212-0.71951 0.19576-1.1703 0.82842-1.0162 1.4129 0.15424 0.58448 0.86305 0.91089 1.5826 0.71514 0.57403-0.15616 0.96972-0.59802 1.0328-1.064l0.0169-6.2445c0-0.24009-0.14172-0.4197-0.33316-0.4535l-3.9315 1.064z" fill="url(#k)" image-rendering="optimizeSpeed" stroke-width=".28864"/>
  <path d="m129.36 157.75c-0.29533 0.0829-0.53308 0.41245-0.53308 0.73264v5.076c-0.29949-0.16419-0.68406-0.23058-1.0828-0.12208-0.71951 0.19575-1.1704 0.82838-1.0162 1.4128 0.15423 0.58445 0.86304 0.9109 1.5826 0.71513 0.57401-0.15616 0.96972-0.59806 1.0328-1.064l0.0168-4.7968 3.7315-1.0466v3.7852c-0.29946-0.16419-0.68406-0.23059-1.0828-0.12212-0.71951 0.19576-1.1703 0.82842-1.0162 1.4129 0.15424 0.58448 0.86305 0.91089 1.5826 0.71514 0.57403-0.15616 0.96972-0.59802 1.0328-1.064l0.0169-6.2445c0-0.24009-0.14172-0.4197-0.33316-0.4535l-3.9315 1.064z" fill="none" image-rendering="optimizeSpeed" stroke="#f56e82" stroke-width=".08659"/>
  <path d="m129.36 157.75c-0.29533 0.0829-0.53308 0.41245-0.53308 0.73264v5.076c-0.29949-0.16419-0.68406-0.23058-1.0828-0.12208-0.71951 0.19575-1.1704 0.82838-1.0162 1.4128 0.15423 0.58445 0.86304 0.9109 1.5826 0.71513 0.57401-0.15616 0.96972-0.59806 1.0328-1.064l0.0168-4.7968 3.7315-1.0466v3.7852c-0.29946-0.16419-0.68406-0.23059-1.0828-0.12212-0.71951 0.19576-1.1703 0.82842-1.0162 1.4129 0.15424 0.58448 0.86305 0.91089 1.5826 0.71514 0.57403-0.15616 0.96972-0.59802 1.0328-1.064l0.0169-6.2445c0-0.24009-0.14172-0.4197-0.33316-0.4535l-3.9315 1.064z" fill="none" image-rendering="optimizeSpeed" stroke="#0ab9f0" stroke-width=".08659"/>
 </g>
</svg>
