<?xml version="1.0" encoding="UTF-8"?>
<svg width="64" height="64" version="1.1" viewBox="0 0 16.933 16.933" xmlns="http://www.w3.org/2000/svg" xmlns:cc="http://creativecommons.org/ns#" xmlns:dc="http://purl.org/dc/elements/1.1/" xmlns:rdf="http://www.w3.org/1999/02/22-rdf-syntax-ns#" xmlns:xlink="http://www.w3.org/1999/xlink">
 <defs>
  <linearGradient id="linearGradient1009" x1="15.656" x2="1.3524" y1="1.2555" y2="15.794" gradientTransform="matrix(1 0 0 1 -4.2617 2.0222)" gradientUnits="userSpaceOnUse">
   <stop stop-color="#37beff" offset="0"/>
   <stop stop-color="#00a0ff" offset="1"/>
  </linearGradient>
 </defs>
 <metadata>
  <rdf:RDF>
   <cc:Work rdf:about="">
    <dc:format>image/svg+xml</dc:format>
    <dc:type rdf:resource="http://purl.org/dc/dcmitype/StillImage"/>
    <dc:title/>
   </cc:Work>
  </rdf:RDF>
 </metadata>
 <g transform="translate(4.2617 -2.0222)">
  <path d="m-1.8572 3.2128c-0.67245 0-1.2139 0.54094-1.2139 1.2134v12.125c0 0.67245 0.54148 1.2139 1.2139 1.2139h12.124c0.67245 0 1.2139-0.54138 1.2139-1.2139v-12.125c0-0.67245-0.54096-1.2134-1.2134-1.2134z" fill="url(#linearGradient1009)"/>
  <path d="m6.6866 14.88-2.4883-7.0708-2.4751 7.0708h-1.2335l3.1534-8.7819h1.1254l3.152 8.7819h-1.2335" fill="#fff"/>
  <path d="m5.2855 10.827c-0.40228-0.11484-0.84442-0.08039-1.2244 0.09221-0.37864 0.17429-0.69782 0.49989-0.81266 0.95115-0.068567 0.27562-0.042221 0.57251 0.077686 0.82854 0.12126 0.25738 0.34689 0.47625 0.65695 0.54752 0.18206 0.04087 0.37593 0.01858 0.54482-0.06722 0.17023-0.08444 0.31919-0.24792 0.36006-0.46578 0.023643-0.12531 0.00541-0.25332-0.054043-0.37087-0.062149-0.11619-0.1807-0.22293-0.33641-0.24657-0.088495-0.01317-0.17294 0.0027-0.25332 0.04898-0.081739 0.04627-0.16213 0.14254-0.17294 0.26244l0.41444 0.03952c-0.0027 0.02905-0.029048 0.05945-0.036817 0.06451-0.00912 0.0054-0.0027 0.0027-0.011821 0.0013 0.013174 0.0027 0.015875 0.0041 0.027697 0.0277 0.013174 0.02364 0.019928 0.06722 0.014523 0.09491-0.014523 0.07667-0.059447 0.12936-0.13578 0.16753-0.077686 0.03682-0.18476 0.04898-0.2692 0.0331-0.17564-0.04087-0.29419-0.15436-0.37087-0.31784-0.076673-0.16111-0.094912-0.36816-0.05134-0.54211 0.081739-0.32054 0.2969-0.54211 0.58197-0.67283 0.28507-0.13072 0.63466-0.15841 0.93933-0.07127 0.88393 0.25062 1.3646 1.2312 1.2467 2.1323l0.41309 0.05404c0.13984-1.0872-0.43403-2.2745-1.5476-2.5913" fill="#fff"/>
 </g>
</svg>
