<?xml version="1.0" encoding="UTF-8"?>
<svg width="64" height="64" version="1.1" viewBox="0 0 16.933 16.933" xmlns="http://www.w3.org/2000/svg" xmlns:cc="http://creativecommons.org/ns#" xmlns:dc="http://purl.org/dc/elements/1.1/" xmlns:rdf="http://www.w3.org/1999/02/22-rdf-syntax-ns#">
 <defs>
  <filter id="filter1066-3" x="-.063923" y="-.056531" width="1.1278" height="1.1131" color-interpolation-filters="sRGB">
   <feGaussianBlur stdDeviation="0.22705935"/>
  </filter>
  <linearGradient id="linearGradient938-7" x1="80.368" x2="82.141" y1="13.177" y2="14.704" gradientTransform="matrix(.96155 0 0 .96155 -63.147 -.99239)" gradientUnits="userSpaceOnUse">
   <stop stop-color="#fafafa" offset="0"/>
   <stop stop-color="#90a0b3" offset="1"/>
  </linearGradient>
 </defs>
 <metadata>
  <rdf:RDF>
   <cc:Work rdf:about="">
    <dc:format>image/svg+xml</dc:format>
    <dc:type rdf:resource="http://purl.org/dc/dcmitype/StillImage"/>
    <dc:title/>
   </cc:Work>
  </rdf:RDF>
 </metadata>
 <g transform="translate(-2.0694 -.69925)">
  <rect transform="rotate(-6.4422)" x="2.4741" y="3.0353" width="13.992" height="13.992" ry="1.1671" fill="#f3f3f3" stroke-width=".96155"/>
  <path transform="matrix(1.0331 0 0 .96964 -42.353 -2.3662)" d="m57.818 9.8288s0.05354 3.0782-2.6636 4.5408c-2.2449 1.2084 0.9386 2.689-5.8599 5.0989 8.8505-2.5748 8.5235-9.6396 8.5235-9.6396z" fill="#141414" filter="url(#filter1066-3)" opacity=".3"/>
  <path transform="matrix(1.0038 0 0 .93538 -40.62 -1.9154)" d="m57.818 9.8288s0.05354 3.0782-2.6636 4.5408c-2.2449 1.2084 0.9386 2.689-5.8599 5.0989 8.8505-2.5748 8.5235-9.6396 8.5235-9.6396z" fill="#141414" filter="url(#filter1066-3)" opacity=".3"/>
  <path d="m15.789 1.2963c-0.07737-0.00686-0.1567-0.00609-0.23701 0.00298l-11.585 1.3083c-0.64251 0.072549-1.1015 0.64791-1.029 1.2904l1.3083 11.585c0.072549 0.64251 0.64791 1.1011 1.2904 1.0286l3.6229-0.40894c3.338-0.91805 8.0431-3.7658 8.1907-9.2681l0.79999 7.0781-1.3078-11.585c-0.063482-0.56219-0.51229-0.98406-1.0538-1.032z" fill="#fafafa" stroke-width=".96155"/>
  <path d="m17.349 6.8011s0.05148 2.9599-2.5612 4.3662c-2.1586 1.1619 0.90252 2.5856-5.6346 4.903 8.5103-2.4758 8.2635-9.2353 8.2635-9.2353z" fill="url(#linearGradient938-7)" stroke-width=".96155"/>
  <g stroke-width=".16235">
   <path d="m10.669 9.4336c0.09989-0.026766 0.21995-0.020947 0.4748-0.0057l3.8193 0.48559c0.15554 0.032275 0.23366 0.10933 0.25581 0.19197 0.02206 0.08233-0.0071 0.18812-0.1258 0.29389l-3.0703 2.3347-0.0021 0.0022c-0.25532 0.2264-0.53663 0.30177-0.87094 0.23336l-0.0029-9e-4 -3.8264-0.48672c-0.1557-0.03223-0.23383-0.10928-0.25594-0.19177-0.022106-0.08249 0.00703-0.18828 0.12576-0.29404l3.0634-2.3296 0.0013-3.44e-4c0.21308-0.14063 0.31414-0.20569 0.41404-0.23247z" fill="#f35a23" overflow="visible" style="font-feature-settings:normal;font-variant-alternates:normal;font-variant-caps:normal;font-variant-ligatures:normal;font-variant-numeric:normal;font-variant-position:normal;isolation:auto;mix-blend-mode:normal;shape-padding:0;text-decoration-color:#000000;text-decoration-line:none;text-decoration-style:solid;text-indent:0;text-orientation:mixed;text-transform:none;white-space:normal"/>
   <path d="m10.669 9.4336 1.27e-4 4.762e-4c-0.09989 0.026767-0.20099 0.091671-0.41408 0.23229l-0.0013 3.44e-4 -2.2407 1.7041 2.7322 0.34761c0.37241 0.0745 0.71474-0.01722 1.0002-0.26798l2.1925-1.6671-2.7939-0.35543c-0.25485-0.015245-0.37486-0.020905-0.47476 0.00586z" fill-opacity=".078" overflow="visible" style="font-feature-settings:normal;font-variant-alternates:normal;font-variant-caps:normal;font-variant-ligatures:normal;font-variant-numeric:normal;font-variant-position:normal;isolation:auto;mix-blend-mode:normal;shape-padding:0;text-decoration-color:#000000;text-decoration-line:none;text-decoration-style:solid;text-indent:0;text-orientation:mixed;text-transform:none;white-space:normal"/>
   <path d="m10.123 7.3952c0.09989-0.026766 0.21995-0.02095 0.4748-0.0057l3.8193 0.48573c0.15554 0.032275 0.23362 0.10917 0.25572 0.19165 0.02215 0.08264-7e-3 0.18843-0.12571 0.29419l-3.0703 2.3345-0.0021 0.0022c-0.25532 0.2264-0.53663 0.30177-0.87094 0.23336l-0.0029-8.99e-4 -3.8264-0.48672c-0.15568-0.032029-0.23381-0.10908-0.25596-0.19172-0.022101-0.08248 0.00703-0.18828 0.1258-0.29389l3.0634-2.3296 0.00127-3.44e-4c0.21308-0.14063 0.31414-0.20569 0.41403-0.23247z" fill="#8bc34a" overflow="visible" style="font-feature-settings:normal;font-variant-alternates:normal;font-variant-caps:normal;font-variant-ligatures:normal;font-variant-numeric:normal;font-variant-position:normal;isolation:auto;mix-blend-mode:normal;shape-padding:0;text-decoration-color:#000000;text-decoration-line:none;text-decoration-style:solid;text-indent:0;text-orientation:mixed;text-transform:none;white-space:normal"/>
   <path d="m10.626 9.2758 4.24e-4 0.00156c-0.13502 0.036177-0.24844 0.11279-0.46265 0.25423l-0.0021 0.00225-0.0019 0.0022-1.508 1.147 1.9483 0.24774 0.0029 9e-4c0.3343 0.06841 0.61564-7e-3 0.87094-0.23336l0.0021-0.0022 1.565-1.1901-1.8841-0.23971-3e-3 -0.00106c-0.25624-0.015372-0.3928-0.025162-0.52783 0.011015z" fill="#7eb73d" overflow="visible" style="font-feature-settings:normal;font-variant-alternates:normal;font-variant-caps:normal;font-variant-ligatures:normal;font-variant-numeric:normal;font-variant-position:normal;isolation:auto;mix-blend-mode:normal;shape-padding:0;text-decoration-color:#000000;text-decoration-line:none;text-decoration-style:solid;text-indent:0;text-orientation:mixed;text-transform:none;white-space:normal"/>
   <path d="m10.669 9.4336 1.27e-4 4.762e-4c-0.09989 0.026767-0.20099 0.091671-0.41408 0.23229l-0.0013 3.44e-4 -1.3739 1.0448 1.7207 0.2188 0.0029 9e-4c0.3343 0.06841 0.61564-7e-3 0.87094-0.23336l0.0021-0.0022 1.3804-1.0499-1.7132-0.21794c-0.25485-0.015251-0.37486-0.020913-0.47474 0.00586z" fill="#83be3f" overflow="visible" style="font-feature-settings:normal;font-variant-alternates:normal;font-variant-caps:normal;font-variant-ligatures:normal;font-variant-numeric:normal;font-variant-position:normal;isolation:auto;mix-blend-mode:normal;shape-padding:0;text-decoration-color:#000000;text-decoration-line:none;text-decoration-style:solid;text-indent:0;text-orientation:mixed;text-transform:none;white-space:normal"/>
   <path d="m10.123 7.3952 1.27e-4 4.763e-4c-0.09989 0.026767-0.20099 0.091671-0.41408 0.23229l-0.00127 3.439e-4 -2.2407 1.7041 2.7322 0.34761c0.37241 0.074505 0.71474-0.017222 1.0002-0.26798l2.1924-1.6671-2.7939-0.35543c-0.25485-0.015245-0.37486-0.020905-0.47476 0.00586z" fill-opacity=".078" overflow="visible" style="font-feature-settings:normal;font-variant-alternates:normal;font-variant-caps:normal;font-variant-ligatures:normal;font-variant-numeric:normal;font-variant-position:normal;isolation:auto;mix-blend-mode:normal;shape-padding:0;text-decoration-color:#000000;text-decoration-line:none;text-decoration-style:solid;text-indent:0;text-orientation:mixed;text-transform:none;white-space:normal"/>
   <path d="m9.5762 5.3565c0.099892-0.026767 0.21995-0.020947 0.4748-0.0057l3.8193 0.48573c0.15554 0.032275 0.23362 0.10917 0.25572 0.19165 0.02214 0.08264-7e-3 0.18843-0.12571 0.29419l-3.0703 2.3345-0.0021 0.00225c-0.25532 0.2264-0.53663 0.30177-0.87094 0.23336l-0.002919-9.005e-4 -3.8264-0.48672c-0.15566-0.032076-0.23379-0.10913-0.25594-0.19177-0.022101-0.082484 0.0070326-0.18828 0.1258-0.29389l3.0634-2.3296 0.00127-3.44e-4c0.21308-0.14063 0.31414-0.20569 0.41403-0.23247z" fill="#29b6f6" overflow="visible" style="font-feature-settings:normal;font-variant-alternates:normal;font-variant-caps:normal;font-variant-ligatures:normal;font-variant-numeric:normal;font-variant-position:normal;isolation:auto;mix-blend-mode:normal;shape-padding:0;text-decoration-color:#000000;text-decoration-line:none;text-decoration-style:solid;text-indent:0;text-orientation:mixed;text-transform:none;white-space:normal"/>
   <path d="m10.08 7.2375 2.56e-4 9.525e-4c-0.13502 0.036177-0.24844 0.11279-0.46265 0.25423l-0.00209 0.00225-0.00193 0.0022-1.508 1.147 1.9483 0.24774 0.0029 8.996e-4c0.3343 0.068411 0.61564-0.00697 0.87094-0.23336l0.0021-0.00225 1.565-1.1901-1.8841-0.23971-0.0029-8.996e-4c-0.25625-0.015389-0.39277-0.025028-0.5278 0.011151z" fill="#0aa8f0" overflow="visible" style="font-feature-settings:normal;font-variant-alternates:normal;font-variant-caps:normal;font-variant-ligatures:normal;font-variant-numeric:normal;font-variant-position:normal;isolation:auto;mix-blend-mode:normal;shape-padding:0;text-decoration-color:#000000;text-decoration-line:none;text-decoration-style:solid;text-indent:0;text-orientation:mixed;text-transform:none;white-space:normal"/>
   <path d="m10.123 7.3952 1.27e-4 4.763e-4c-0.09989 0.026767-0.20099 0.091671-0.41408 0.23229l-0.00127 3.439e-4 -1.3739 1.0448 1.7207 0.2188 0.0029 8.996e-4c0.3343 0.068411 0.61564-0.00697 0.87094-0.23336l0.0021-0.00225 1.3804-1.0499-1.7132-0.21794c-0.25485-0.01525-0.37486-0.02091-0.47474 0.00586z" fill="#10adf5" overflow="visible" style="font-feature-settings:normal;font-variant-alternates:normal;font-variant-caps:normal;font-variant-ligatures:normal;font-variant-numeric:normal;font-variant-position:normal;isolation:auto;mix-blend-mode:normal;shape-padding:0;text-decoration-color:#000000;text-decoration-line:none;text-decoration-style:solid;text-indent:0;text-orientation:mixed;text-transform:none;white-space:normal"/>
  </g>
 </g>
</svg>
