<?xml version="1.0" encoding="UTF-8" standalone="no"?>
<svg
   xmlns:dc="http://purl.org/dc/elements/1.1/"
   xmlns:cc="http://creativecommons.org/ns#"
   xmlns:rdf="http://www.w3.org/1999/02/22-rdf-syntax-ns#"
   xmlns:svg="http://www.w3.org/2000/svg"
   xmlns="http://www.w3.org/2000/svg"
   xmlns:xlink="http://www.w3.org/1999/xlink"
   xmlns:sodipodi="http://sodipodi.sourceforge.net/DTD/sodipodi-0.dtd"
   xmlns:inkscape="http://www.inkscape.org/namespaces/inkscape"
   viewBox="0 0 64 64"
   version="1.1"
   id="svg50"
   sodipodi:docname="audex.svg"
   width="64"
   height="64"
   inkscape:version="1.0.2 (e86c870879, 2021-01-15)">
  <metadata
     id="metadata54">
    <rdf:RDF>
      <cc:Work
         rdf:about="">
        <dc:format>image/svg+xml</dc:format>
        <dc:type
           rdf:resource="http://purl.org/dc/dcmitype/StillImage" />
        <dc:title></dc:title>
      </cc:Work>
    </rdf:RDF>
  </metadata>
  <sodipodi:namedview
     pagecolor="#ffffff"
     bordercolor="#666666"
     borderopacity="1"
     objecttolerance="10"
     gridtolerance="10"
     guidetolerance="10"
     inkscape:pageopacity="0"
     inkscape:pageshadow="2"
     inkscape:window-width="1920"
     inkscape:window-height="940"
     id="namedview52"
     showgrid="false"
     inkscape:zoom="4.0364583"
     inkscape:cx="-30.716414"
     inkscape:cy="32.623046"
     inkscape:window-x="0"
     inkscape:window-y="38"
     inkscape:window-maximized="1"
     inkscape:current-layer="svg50" />
  <defs
     id="defs12">
    <linearGradient
       inkscape:collect="always"
       id="linearGradient1260">
      <stop
         style="stop-color:#db3737;stop-opacity:0.99607843"
         offset="0"
         id="stop1256" />
      <stop
         style="stop-color:#f34c4c;stop-opacity:1"
         offset="1"
         id="stop1258" />
    </linearGradient>
    <linearGradient
       inkscape:collect="always"
       id="linearGradient1252">
      <stop
         style="stop-color:#fa5151;stop-opacity:1"
         offset="0"
         id="stop1248" />
      <stop
         style="stop-color:#cd2e2e;stop-opacity:1"
         offset="1"
         id="stop1250" />
    </linearGradient>
    <linearGradient
       id="linearGradient1073">
      <stop
         stop-color="#8d3aff"
         offset="0"
         id="stop1069"
         style="stop-color:#cc2d2d;stop-opacity:1" />
      <stop
         stop-color="#ff3680"
         offset="1"
         id="stop1071"
         style="stop-color:#fc5353;stop-opacity:1" />
    </linearGradient>
    <linearGradient
       id="linearGradient4283"
       y1="47"
       x2="0"
       y2="1"
       gradientUnits="userSpaceOnUse"
       gradientTransform="matrix(1.2765957,0,0,1.2765957,-107.63369,-76.971176)">
      <stop
         style="stop-color:#b2b216;stop-opacity:1"
         id="stop2" />
      <stop
         offset="1"
         style="stop-color:#c4c418;stop-opacity:1"
         id="stop4" />
    </linearGradient>
    <linearGradient
       id="linear0"
       gradientUnits="userSpaceOnUse"
       y1="279.10001"
       x2="0"
       y2="268.32999"
       gradientTransform="matrix(3.5708386,0,0,3.5708386,-532.70601,-1023.7627)">
      <stop
         style="stop-color:#c8c8c8;stop-opacity:1"
         id="stop7" />
      <stop
         offset="1"
         style="stop-color:#eaeaea;stop-opacity:1"
         id="stop9" />
    </linearGradient>
    <filter
       id="h"
       x="-0.059999999"
       y="-0.059999999"
       width="1.12"
       height="1.12"
       color-interpolation-filters="sRGB">
      <feGaussianBlur
         stdDeviation="0.85"
         id="feGaussianBlur855" />
    </filter>
    <linearGradient
       id="g"
       x1="32"
       x2="32"
       y1="15"
       y2="49"
       gradientTransform="matrix(1.0000071,0,0,1.0000071,-3.33e-7,-1.0001208)"
       gradientUnits="userSpaceOnUse">
      <stop
         stop-color="#303030"
         offset="0"
         id="stop858" />
      <stop
         stop-color="#424242"
         offset="1"
         id="stop860" />
    </linearGradient>
    <linearGradient
       id="linearGradient862-3"
       x1="7.9373002"
       x2="7.9373002"
       y1="15.081"
       y2="1.852"
       gradientTransform="matrix(3.7794508,0,0,3.7794508,1.4281187e-4,-0.96857889)"
       gradientUnits="userSpaceOnUse">
      <stop
         stop-color="#873df0"
         offset="0"
         id="stop863" />
      <stop
         stop-color="#f25ef3"
         offset="1"
         id="stop865" />
    </linearGradient>
    <linearGradient
       id="b-5"
       x1="389.95999"
       x2="410.34"
       y1="509.78"
       y2="509.78"
       gradientTransform="matrix(1.3283307,-0.23971105,0.2234548,1.4249723,-519.6964,-615.89207)"
       gradientUnits="userSpaceOnUse"
       xlink:href="#a-6" />
    <linearGradient
       id="a-6">
      <stop
         stop-color="#8d3aff"
         offset="0"
         id="stop4-2"
         style="stop-color:#c92a2a;stop-opacity:0.99215686" />
      <stop
         stop-color="#ff3680"
         offset="1"
         id="stop6"
         style="stop-color:#fa5050;stop-opacity:1" />
    </linearGradient>
    <linearGradient
       id="d"
       x1="408.75"
       x2="408.57001"
       y1="540.96002"
       y2="506.79999"
       gradientTransform="matrix(1.7292315,0,0,1.729376,-839.65533,-873.80579)"
       gradientUnits="userSpaceOnUse">
      <stop
         stop-color="#8798a9"
         offset="0"
         id="stop11" />
      <stop
         stop-color="#bfc8d1"
         offset="1"
         id="stop13-9" />
    </linearGradient>
    <linearGradient
       id="e"
       x1="409.57001"
       x2="409.57001"
       y1="540.79999"
       y2="506.79999"
       gradientTransform="matrix(0.59864905,0,0,0.5986057,-211.99277,-281.54364)"
       gradientUnits="userSpaceOnUse">
      <stop
         stop-color="#3d434a"
         offset="0"
         id="stop16" />
      <stop
         stop-color="#5f6974"
         offset="1"
         id="stop18" />
    </linearGradient>
    <linearGradient
       id="c"
       x1="413.20999"
       x2="413.20999"
       y1="544.26117"
       y2="505.35001"
       gradientTransform="matrix(1.4711545,0,0,1.475634,-458.65786,-741.03341)"
       gradientUnits="userSpaceOnUse"
       xlink:href="#linearGradient1073" />
    <linearGradient
       inkscape:collect="always"
       id="linearGradient1121">
      <stop
         style="stop-color:#6e6e6d;stop-opacity:1"
         offset="0"
         id="stop1117" />
      <stop
         style="stop-color:#050503;stop-opacity:1"
         offset="1"
         id="stop1119" />
    </linearGradient>
    <linearGradient
       inkscape:collect="always"
       id="linearGradient1129">
      <stop
         style="stop-color:#7a7a7a;stop-opacity:1"
         offset="0"
         id="stop1125" />
      <stop
         style="stop-color:#080806;stop-opacity:1"
         offset="1"
         id="stop1127" />
    </linearGradient>
    <radialGradient
       inkscape:collect="always"
       xlink:href="#linearGradient1121"
       id="radialGradient1049"
       gradientUnits="userSpaceOnUse"
       gradientTransform="matrix(0.31247649,-0.00196418,-0.0019582,-0.31105875,74.713639,80.348807)"
       cx="-135.70818"
       cy="157.5361"
       fx="-135.70818"
       fy="157.5361"
       r="80.00016" />
    <radialGradient
       inkscape:collect="always"
       xlink:href="#linearGradient1129"
       id="radialGradient1051"
       gradientUnits="userSpaceOnUse"
       gradientTransform="matrix(0.35391006,0,0,-0.61306814,79.924345,116.75393)"
       cx="-134.94666"
       cy="149.21561"
       fx="-134.94666"
       fy="149.21561"
       r="40.470394" />
    <linearGradient
       inkscape:collect="always"
       xlink:href="#linearGradient1252"
       id="linearGradient1254"
       x1="-46.618752"
       y1="5.2852845"
       x2="-46.618752"
       y2="61.56419"
       gradientUnits="userSpaceOnUse"
       gradientTransform="matrix(1.0000651,0,0,1.0265087,83.376217,-0.54804916)" />
    <linearGradient
       inkscape:collect="always"
       xlink:href="#linearGradient1260"
       id="linearGradient1262"
       x1="-82.015625"
       y1="13.708715"
       x2="-53.175781"
       y2="13.708715"
       gradientUnits="userSpaceOnUse"
       gradientTransform="matrix(1.0000651,0,0,1.0411794,83.376217,-0.87519301)" />
  </defs>
  <path
     id="rect1242"
     style="fill:url(#linearGradient1262);fill-opacity:1;stroke-width:2.04084;stroke-linecap:round;stroke-linejoin:round;paint-order:stroke fill markers"
     d="M 30.196975,3.0515988 C 16.735923,3.6256123 15.989768,4.9816293 14.348286,6.0022849 10.547832,8.3658609 9.5315926,6.0211802 11.275821,3.724705 9.5919975,3.9051553 7.8366702,7.185406 8.0314689,9.1400579 8.2157039,10.988492 7.5861079,12.764739 6.6075482,12.133449 4.9857186,11.087035 1.5358901,11.713283 1.3552533,14.333753 c 1.1758295,-0.640543 3.3077073,-0.984287 2.9962891,1.055415 -0.2580498,1.690461 -0.5794538,5.368918 2.3888275,7.440771 2.9683672,2.071853 14.4853181,-0.0244 14.4853181,-0.0244 z" />
  <circle
     cx="11.344027"
     cy="21.921936"
     fill="url(#a)"
     r="0"
     id="circle18"
     style="stroke-width:1.63747" />
  <g
     id="g1278">
    <circle
       style="opacity:1;fill:#e7eaff;stroke-width:3.94452;stroke-linecap:round;stroke-linejoin:round;paint-order:stroke fill markers;fill-opacity:1"
       id="path1067"
       cx="32"
       cy="32"
       r="29.3985" />
    <path
       id="path1038"
       style="fill:url(#radialGradient1049);fill-opacity:1;fill-rule:nonzero;stroke:none;stroke-width:0.304835;stroke-miterlimit:4;stroke-dasharray:none;stroke-opacity:1"
       d="M 19.355469,53.065619 A 25.000331,-24.981614 0 0 1 7,31.516791 a 25.000331,-24.981614 0 0 1 0.00195,-0.0625 H 56.996094 A 25.000331,-24.981614 0 0 1 57,31.516791 25.000331,-24.981614 0 0 1 44.644531,53.065619 L 41.708984,48.083197 32,31.612494 22.291016,48.083197 Z" />
    <path
       inkscape:connector-curvature="0"
       id="path1040"
       d="M 32.000811,31.456368 22.469942,15.28676 19.352834,9.9983428 a 25.000331,-24.981614 0 0 1 12.647977,-3.463974 25.000331,-24.981614 0 0 1 12.646356,3.4665522 l -3.115472,5.285839 z"
       style="fill:url(#radialGradient1051);fill-opacity:1;fill-rule:nonzero;stroke:none;stroke-width:0.304835;stroke-miterlimit:4;stroke-dasharray:none;stroke-opacity:1" />
    <path
       inkscape:connector-curvature="0"
       style="fill:#e7eaff;fill-opacity:1;fill-rule:nonzero;stroke:none;stroke-width:0.31053;stroke-miterlimit:4;stroke-dasharray:none;stroke-opacity:1"
       d="m 31.999176,31.61237 9.708954,16.471714 3.175331,5.387223 A 25.467426,-25.448359 0 0 1 31.999176,57 25.467426,-25.448359 0 0 1 19.11654,53.468681 l 3.173695,-5.384597 z"
       id="path1042" />
  </g>
  <path
     id="rect1245"
     style="opacity:1;fill:url(#linearGradient1254);fill-opacity:1;stroke-width:2.02641;stroke-linecap:round;stroke-linejoin:round;paint-order:stroke fill markers"
     d="m 44.387351,4.7468912 c 0.921175,0.871071 2.115258,2.1288517 2.853702,3.4865209 1.287333,2.3667609 1.104227,6.4843219 -2.849795,7.2416979 -3.954067,0.757361 -4.105214,-0.628673 -4.092064,-2.271551 -2.101889,0.297906 -3.041023,5.094483 0.644573,6.768541 3.126318,1.420057 4.273864,0.85183 10.158866,0.473157 5.885001,-0.378688 6.575194,7.005983 3.816654,8.141897 -2.758541,1.13605 -3.810866,-0.88976 -3.631096,-1.98886 -2.210994,0.88896 -2.482588,3.370034 -1.380949,4.545109 8.602067,9.176169 4.476945,16.264706 2.115372,16.991525 -2.926315,0.90047 -4.989462,-0.884416 -3.494368,-3.265981 1.218373,-1.940756 0.16748,-5.141944 -1.312585,-6.275337 -1.480066,-1.133542 -4.353198,-0.861939 -5.582395,-0.02004 1.771685,0.689589 4.367716,1.751303 3.677974,4.118065 -0.532546,1.827728 -2.278848,2.979227 -4.461229,2.935173 -4.084992,-1.870151 -6.403611,-7.615546 -3.834233,-9.483176 -3.238022,0.06407 -3.612161,6.49892 -2.379061,9.30474 0.976406,2.221397 3.831515,3.939653 2.371248,6.521939 -1.531656,2.708514 -2.59384,4.165556 -6.271893,3.40833 -3.678054,-0.757361 -5.700404,-3.172382 -5.240575,-5.397191 0.459756,-2.224661 1.53196,-2.521834 3.400612,-2.556247 -1.165816,-2.543128 -5.089819,-1.491666 -7.887233,1.846513 -1.284312,1.532551 -1.947711,1.360123 -4.111595,0.09423 -2.877038,-1.682958 2.151968,-6.387539 3.867439,-3.644908 0.131648,-3.214321 -4.695372,-1.656582 -5.385117,-5.206725 -0.689642,-3.550146 2.986523,-4.607263 2.986523,-4.607263 -4.357536,1.174377 -6.515401,2.750528 -10.9733707,1.38338 -1.582667,-0.485368 0.2508674,-4.914975 -4.8382049,-3.390285 0.8595849,15.978162 13.6357916,28.577842 29.3769126,28.577842 16.300661,0 29.42379,-13.510439 29.42379,-30.294036 0,-12.186983 -6.936059,-22.6207631 -16.967902,-27.4370546 z" />
</svg>
