<?xml version="1.0" encoding="UTF-8"?>
<svg width="64" height="64" version="1.1" viewBox="0 0 16.933 16.933" xmlns="http://www.w3.org/2000/svg" xmlns:cc="http://creativecommons.org/ns#" xmlns:dc="http://purl.org/dc/elements/1.1/" xmlns:rdf="http://www.w3.org/1999/02/22-rdf-syntax-ns#">
 <defs>
  <filter id="filter1066-0" x="-.063923" y="-.056531" width="1.1278" height="1.1131" color-interpolation-filters="sRGB">
   <feGaussianBlur stdDeviation="0.22705935"/>
  </filter>
  <linearGradient id="linearGradient938-7" x1="80.368" x2="82.141" y1="13.177" y2="14.704" gradientTransform="matrix(.96155 0 0 .96155 -62.45 -1.8902)" gradientUnits="userSpaceOnUse">
   <stop stop-color="#fafafa" offset="0"/>
   <stop stop-color="#90a0b3" offset="1"/>
  </linearGradient>
 </defs>
 <metadata>
  <rdf:RDF>
   <cc:Work rdf:about="">
    <dc:format>image/svg+xml</dc:format>
    <dc:type rdf:resource="http://purl.org/dc/dcmitype/StillImage"/>
    <dc:title/>
   </cc:Work>
  </rdf:RDF>
 </metadata>
 <g transform="translate(-2.8254 .19844)">
  <rect transform="rotate(-6.4422)" x="3.2674" y="2.2215" width="13.992" height="13.992" ry="1.1671" fill="#f3f3f3" stroke-width=".96155"/>
  <path transform="matrix(1.0331 0 0 .96964 -41.656 -3.2639)" d="m57.818 9.8288s0.05354 3.0782-2.6636 4.5408c-2.2449 1.2084 0.9386 2.689-5.8599 5.0989 8.8505-2.5748 8.5235-9.6396 8.5235-9.6396z" fill="#141414" filter="url(#filter1066-0)" opacity=".3"/>
  <path transform="matrix(1.0038 0 0 .93538 -39.923 -2.8131)" d="m57.818 9.8288s0.05354 3.0782-2.6636 4.5408c-2.2449 1.2084 0.9386 2.689-5.8599 5.0989 8.8505-2.5748 8.5235-9.6396 8.5235-9.6396z" fill="#141414" filter="url(#filter1066-0)" opacity=".3"/>
  <path d="m16.486 0.39864c-0.07737-0.006855-0.1567-0.006088-0.23701 0.002982l-11.585 1.3083c-0.64251 0.072549-1.1015 0.64791-1.029 1.2904l1.3083 11.585c0.072549 0.64252 0.64791 1.1011 1.2904 1.0286l3.6229-0.40894c3.338-0.91805 8.0431-3.7658 8.1907-9.2681l0.79999 7.0781-1.3078-11.585c-0.063482-0.56219-0.51229-0.98406-1.0538-1.032z" fill="#fafafa" stroke-width=".96155"/>
  <g>
   <path d="m8.6354 3.3589c-0.34693 0.055672-0.53306 0.76556 0.1239 0.51056 0.25119-0.12916 0.1499-0.5545-0.1239-0.51056m4.0693-0.20651c-0.20241 0.032481-0.35672 0.29791-0.24053 0.41544 0.03141 0.031572 0.17149 0.047493 0.29868 0.036013 0.17513-0.016047 0.21108-0.075843 0.18272-0.25257-0.026194-0.16323-0.093245-0.22213-0.24124-0.19838m-2.9573 0.61431c-0.40971 0.034492-0.80977 0.46304-0.82037 0.88668-0.0076941 0.26646 0.056279 0.4147-0.17435 0.39098-0.14225-0.015563-0.50145-0.25619-0.69623-0.25128-0.29236 0.092458-0.58868 0.49409-0.29559 0.94044 0.25426 0.21549 0.35659 0.38571 0.069852 0.43529-0.61866 0.27386-0.83357 0.45659-0.49865 1.1525 0.062566 0.11721 0.072688 0.27767-0.075278 0.48805-0.21811 0.31585-0.23466 0.33235-0.65417 0.27241-0.59063-0.082926-1.0939 0.7042 0.039832 0.50976 0.70374-0.2 0.80906-0.044549 0.24225 0.37994-0.38485 0.28679-0.50474 0.39667-0.46813 0.64709 0.035844 0.24563 0.16239 0.30524 0.49382 0.3811 0.72594 0.1331 1.0315 0.17829 1.2533 1.0268 0.041772 0.2603 0.072592 0.71392 0.34169 0.82433 0.26158 0.10805 0.33784 0.20208 0.32625 0.3803-0.017619 0.31314 0.20181 0.36723 0.58365 0.15906 0.42809-0.23435 0.50979-0.12869 0.20689 0.24586-0.16611 0.20302-0.22604 0.41669-0.19384 0.61736 0.076963 0.44621 1.4875 0.54089 1.112-0.37402-0.17115-0.41546-0.44035-0.70178 0.01178-0.89489 0.29265-0.16573 0.65852 0.25554 0.94044 0.29559 0.65676 0.09152 1.0781-0.26007 1.4034-0.64536 0.19601-0.23372 0.44047-0.24348 0.58842-0.23418 0.5446 0.02423 2.6187-0.12553 1.6362-1.281-0.39425-0.41449-0.34456-0.51668 0.30706-0.6074 0.53571-0.075698 0.57646-0.10277 0.57709-0.31586 5.56e-4 -0.12734-0.082021-0.31636-0.18084-0.43132-0.14812-0.1718-0.15163-0.22705-0.03673-0.31514 0.1085-0.083492-0.035051-0.41319-0.22694-0.71862-0.43601-0.88063 0.21876-2.6462-0.74148-2.7953-0.583-0.1105-0.023484-1.3094-0.81695-0.91729-0.23041 0.10841-0.42008 0.011599-0.73318-0.13373-0.43758-0.13919-0.56297-0.12755-1.0644-0.02476-0.42734 0.085989-0.72091-0.44958-1.171 0.0066331-0.35631 0.51752-0.2882 0.27977-0.89021 0.017388-0.12629-0.09136-0.25789-0.12963-0.39575-0.11777m6.2527 2.5423c-0.06546 0.026133-0.11915 0.083863-0.1848 0.15334-0.18026 0.19279-0.18984 0.20817 0.01364 0.34653 0.29413 0.20239 0.5578 0.09534 0.54967-0.22796-0.0059-0.25357-0.18288-0.35777-0.37886-0.27408m-4.1035 6.2536c-0.07068 0.02697-0.07453 0.11153-0.03081 0.24204 0.03932 0.11424 0.14723 0.19962 0.23908 0.18488 0.09881-0.01586 0.18682 0.07629 0.23215 0.22797 0.04365 0.14123 0.12812 0.24466 0.17774 0.2367 0.05093-0.0082 0.09749-0.13263 0.10999-0.28287 0.01441-0.21351-0.04331-0.37838-0.30496-0.50919-0.2105-0.10419-0.34988-0.12692-0.42057-0.09995m1.0539-0.02937c-0.0693 0.0022-0.13212 0.04755-0.11878 0.13069 0.01334 0.08314 0.10412 0.13689 0.20076 0.12138 0.09533-0.0153 0.15263-0.07004 0.11878-0.13069-0.04785-0.08118-0.13146-0.12357-0.20076-0.12138m-1.6471 0.43175c-0.06138 0.0099-0.13904 0.11295-0.11265 0.25517 0.04406 0.23002 0.11066 0.26666 0.1672 0.08479 0.08779-0.27931 0.07473-0.36071-0.05456-0.33996" fill="#fa1e2f"/>
   <path d="m11.859 11.772-0.55882-3.4823-3.3008-1.2563 0.55882 3.4823" fill="#e5e5e5"/>
   <path d="m14.03 6.0653-2.7302 2.2241 0.55882 3.4823 2.7302-2.2241" fill="#c1c1c1"/>
   <path d="m10.742 4.8069-2.742 2.226 3.3008 1.2563 2.7319-2.2244" fill="#f9f9f9"/>
  </g>
  <path d="m18.046 5.9034s0.05148 2.9599-2.5612 4.3662c-2.1586 1.1619 0.90252 2.5856-5.6346 4.903 8.5103-2.4758 8.2635-9.2353 8.2635-9.2353z" fill="url(#linearGradient938-7)" stroke-width=".96155"/>
 </g>
</svg>
