<?xml version="1.0" encoding="UTF-8"?>
<svg width="64" height="64" version="1.1" viewBox="0 0 16.933 16.933" xmlns="http://www.w3.org/2000/svg" xmlns:cc="http://creativecommons.org/ns#" xmlns:dc="http://purl.org/dc/elements/1.1/" xmlns:rdf="http://www.w3.org/1999/02/22-rdf-syntax-ns#">
 <defs>
  <linearGradient id="b-3" x1="97.425" x2="97.425" y1="-9.0071" y2="209.87" gradientTransform="matrix(.079375 0 0 .079375 3.4549 -.019617)" gradientUnits="userSpaceOnUse">
   <stop stop-color="#5beaff" offset="0"/>
   <stop stop-color="#4076ff" offset="1"/>
  </linearGradient>
 </defs>
 <metadata>
  <rdf:RDF>
   <cc:Work rdf:about="">
    <dc:format>image/svg+xml</dc:format>
    <dc:type rdf:resource="http://purl.org/dc/dcmitype/StillImage"/>
    <dc:title/>
   </cc:Work>
  </rdf:RDF>
 </metadata>
 <g transform="translate(-2.9257 .54881)">
  <circle cx="11.392" cy="7.9179" r="7.9375" color="#000000" fill="url(#b-3)" image-rendering="optimizeSpeed" stroke-width=".26459"/>
  <path d="m9.4471 11.811c-0.54586-0.040887-0.73823-0.076575-0.95661-0.17747-0.52858-0.24422-0.86181-0.6911-0.96294-1.2914-0.034377-0.20405-0.046596-3.9809-0.012877-3.9807 0.013065 5.45e-5 0.11828 0.020024 0.2338 0.044383 0.43273 0.091247 1.0501 0.16734 1.5184 0.18716 0.25211 0.010671 0.26789 0.00934 0.2777-0.023405 0.018793-0.062756 0.088534-0.44837 0.082198-0.4545-0.00341-0.00329-0.14181-0.015171-0.30756-0.026387-0.56527-0.038241-0.99405-0.097286-1.487-0.20476-0.36569-0.079734-0.33472-0.056652-0.31883-0.23763 0.051728-0.58909 0.32186-1.0587 0.76952-1.3377 0.26003-0.16206 0.48965-0.23125 0.88152-0.26563 0.19438-0.01705 1.3602-0.028684 1.3602-0.013573 0 0.00329-0.02083 0.057235-0.04628 0.11988-0.09551 0.23504-0.12507 0.40657-0.12468 0.72345 2.91e-4 0.2376 0.0081 0.32636 0.04196 0.47479 0.04015 0.17616 0.14156 0.48411 0.15943 0.48411 0.01711 0 0.69112-0.11392 0.69531-0.11752 0.0024-0.00201-0.02487-0.072786-0.06049-0.15726-0.03562-0.084471-0.08623-0.23186-0.11245-0.32753-0.04216-0.1538-0.04779-0.20886-0.04863-0.47532-9.79e-4 -0.3139 0.01186-0.39418 0.10146-0.63366l0.03732-0.099739 1.2721 0.00793c1.2024 0.0075 1.2816 0.010012 1.4456 0.045799 0.22098 0.048218 0.35985 0.097067 0.50893 0.17901 0.39926 0.21946 0.6732 0.56937 0.79644 1.0173l0.04248 0.15439-0.19447 0.012475c-0.8017 0.051426-1.6067 0.20186-2.3214 0.43383-0.2396 0.077758-0.60501 0.21465-0.68536 0.25675l-0.04687 0.024556 0.2046 0.18194c0.11253 0.10007 0.21869 0.19208 0.23592 0.20448 0.02621 0.018857 0.07921 0.00333 0.32482-0.095132 0.44829-0.17972 0.89153-0.31113 1.3815-0.40958 0.37483-0.07531 1.1118-0.16552 1.138-0.13931 0.01706 0.017047 0.02821 3.5568 0.01212 3.8447l-0.01274 0.22774-0.03903-0.046703c-0.02146-0.025686-0.12943-0.15675-0.23993-0.29125-0.39048-0.47529-1.0487-1.1133-1.5561-1.5084-0.37826-0.29456-0.9566-0.67345-1.3049-0.85494l-0.10302-0.053674-0.23944 0.22529c-0.13169 0.12391-0.23934 0.23035-0.23922 0.23652 1.56e-4 0.00618 0.06382 0.047997 0.14155 0.092928 0.93382 0.53978 1.8532 1.3693 2.5614 2.311 0.16538 0.21992 0.47958 0.69042 0.60093 0.89988l0.07692 0.13276-0.03564 0.04989c-0.0617 0.08637-0.26446 0.27071-0.37683 0.3426-0.25126 0.16073-0.49871 0.24271-0.85894 0.28456-0.12563 0.0146-0.79847 0.02248-2.1552 0.02524-1.0849 0.0022-2.0096 0.0012-2.0548-0.0021zm0.30671-0.62016c0.29496-0.06062 0.56602-0.21978 0.73403-0.43103l0.08255-0.1038 0.0102 0.47243h0.84092l-0.0061-1.3014c-6e-3 -1.2768-0.0069-1.3041-0.04645-1.4475-0.13546-0.49034-0.43674-0.78677-0.93147-0.91649-0.24478-0.064186-0.68933-0.079451-0.98152-0.033706-0.32902 0.051513-0.60811 0.15317-0.84509 0.30782-0.14767 0.096362-0.29619 0.22571-0.29619 0.25794 0 0.012875 0.10771 0.127 0.23937 0.25362l0.23937 0.23021 0.084833-0.070549c0.3409-0.2835 0.89254-0.38614 1.2854-0.23916 0.26826 0.10037 0.4159 0.30913 0.4159 0.58807v0.10627l-0.36986 1.88e-5c-0.91911 5.45e-5 -1.5081 0.16042-1.8519 0.50418-0.35579 0.35579-0.38971 1.0132-0.07191 1.3936 0.18487 0.22127 0.49951 0.38973 0.83249 0.4457 0.12154 0.02043 0.50459 0.01062 0.63547-0.01628zm-0.27931-0.67723c-0.27116-0.058378-0.4202-0.17775-0.46371-0.37142-0.057668-0.25666 0.1377-0.46588 0.5185-0.55526 0.20499-0.048114 0.38176-0.064616 0.69863-0.065219l0.2968-5.291e-4v0.16968c0 0.45776-0.20257 0.71859-0.62601 0.80605-0.12969 0.02679-0.33913 0.03505-0.42422 0.01673z" fill="#fff" stroke-width=".018265"/>
 </g>
</svg>
