<?xml version="1.0" encoding="UTF-8"?>
<svg width="64" height="64" version="1.1" viewBox="0 0 16.933 16.933" xmlns="http://www.w3.org/2000/svg" xmlns:cc="http://creativecommons.org/ns#" xmlns:dc="http://purl.org/dc/elements/1.1/" xmlns:rdf="http://www.w3.org/1999/02/22-rdf-syntax-ns#" xmlns:xlink="http://www.w3.org/1999/xlink">
 <defs>
  <linearGradient id="linearGradient3112" x1="-36.63" x2="-36.63" y1="4.4961" y2="59.496" gradientTransform="matrix(.26458 0 0 .26458 19.146 .1867)" gradientUnits="userSpaceOnUse">
   <stop stop-color="#ffd302" offset="0"/>
   <stop stop-color="#ff9500" offset="1"/>
  </linearGradient>
  <linearGradient id="linearGradient3767" x1="100.54" x2="100.54" y1="4.4961" y2="59.237" gradientTransform="matrix(.26458 0 0 .26458 -17.145 .1867)" gradientUnits="userSpaceOnUse">
   <stop stop-color="#e4be02" offset="0"/>
   <stop stop-color="#e58600" offset="1"/>
  </linearGradient>
  <linearGradient id="linearGradient3060" x1="1.1906" x2="15.743" y1="271.6" y2="271.6" gradientTransform="matrix(1 0 0 1 .98799 -262.95)" gradientUnits="userSpaceOnUse">
   <stop stop-color="#a8b3b5" offset="0"/>
   <stop stop-color="#a8b2b5" offset="1"/>
  </linearGradient>
 </defs>
 <metadata>
  <rdf:RDF>
   <cc:Work rdf:about="">
    <dc:format>image/svg+xml</dc:format>
    <dc:type rdf:resource="http://purl.org/dc/dcmitype/StillImage"/>
    <dc:title/>
   </cc:Work>
  </rdf:RDF>
 </metadata>
 <g transform="translate(-.98799 -.18618)">
  <path d="m3.3922 1.3763c-0.67246 0-1.2139 0.54142-1.2139 1.2139v12.125c0 0.67246 0.54142 1.2134 1.2139 1.2134h12.125c0.67246 0 1.2139-0.5409 1.2139-1.2134v-12.125c0-0.67246-0.54142-1.2139-1.2139-1.2139z" fill="url(#linearGradient3112)" stroke-width=".52917"/>
  <path d="m9.4547 1.3763v14.552h6.0622c0.67246 0 1.2139-0.5409 1.2139-1.2134v-12.125c0-0.67246-0.54142-1.2139-1.2139-1.2139z" fill="url(#linearGradient3767)" stroke-width=".52917"/>
  <rect x="2.6465" y="1.8453" width="13.616" height="13.616" ry=".65457" fill="none" stroke="url(#linearGradient3060)" stroke-width=".93572"/>
  <rect x="3.0178" y="2.2153" width="12.874" height="12.874" ry=".38117" fill="none" stroke="#000" stroke-width=".88468"/>
  <path d="m13.189 7.2946v-2.0368c0-0.18749-0.15206-0.33939-0.33955-0.33939h-2.0365c-0.18765 0-0.33955 0.15206-0.33955 0.33939v0.84863c-1.6582 0-3.0513 1.1397-3.4476 2.6759l-0.35289-0.062125c-0.063397-0.010964-0.12759 0.01446-0.16588 0.066098-0.038134 0.051638-0.044171 0.1206-0.015094 0.17796l0.36767 0.72597c-0.64446 0.10503-1.1384 0.66432-1.1384 1.3383 0 0.74869 0.60918 1.3577 1.3579 1.3577 0.69117 0 1.2619-0.51957 1.346-1.188h1.1998v0.33939c0 0.06435 0.036385 0.12298 0.093903 0.1519 0.057518 0.0286 0.12632 0.02256 0.17796-0.01621l0.5933-0.4452c0.09692 0.65399 0.66066 1.158 1.341 1.158 0.74885 1.59e-4 1.358-0.60886 1.358-1.3576 0-0.69117-0.51957-1.2621-1.1883-1.346v-1.1999h0.33971c0.06403 0 0.12298-0.036385 0.15158-0.093745 0.02892-0.057359 0.02289-0.12632-0.0159-0.1778l-0.43298-0.57693h0.80589c0.18796-1.59e-4 0.34002-0.15222 0.34002-0.33955zm-2.0187 1.0941c0.02892 0.057518 0.08755 0.093745 0.15174 0.093745h0.33955v1.1998c-0.60283 0.07595-1.0827 0.54769-1.1715 1.1464l-0.59361-0.44537c-0.051321-0.03845-0.12012-0.04449-0.17764-0.01605-0.057359 0.02908-0.093903 0.08755-0.093903 0.1519v0.33939h-1.1998c-0.076903-0.61363-0.56454-1.1006-1.1786-1.1766 4.762e-4 -0.00381 0.00238-0.00715 0.00238-0.011282v-0.00175l0.51369-0.48096c0.046872-0.043853 0.064827-0.11059 0.046714-0.17224-0.01859-0.061808-0.069911-0.10773-0.13331-0.11885l-0.31508-0.055612c0.36735-1.3768 1.6216-2.3954 3.1126-2.3954v0.84863c0 0.18749 0.1519 0.33939 0.33955 0.33939h0.80605l-0.43282 0.57709c-0.03877 0.05148-0.04497 0.12028-0.01603 0.1778z" fill="#312000" stroke-width=".15889"/>
 </g>
</svg>
