<?xml version="1.0" encoding="UTF-8" standalone="no"?>
<svg
   xmlns:dc="http://purl.org/dc/elements/1.1/"
   xmlns:cc="http://creativecommons.org/ns#"
   xmlns:rdf="http://www.w3.org/1999/02/22-rdf-syntax-ns#"
   xmlns:svg="http://www.w3.org/2000/svg"
   xmlns="http://www.w3.org/2000/svg"
   xmlns:xlink="http://www.w3.org/1999/xlink"
   xmlns:sodipodi="http://sodipodi.sourceforge.net/DTD/sodipodi-0.dtd"
   xmlns:inkscape="http://www.inkscape.org/namespaces/inkscape"
   viewBox="0 0 64 64"
   version="1.1"
   id="svg24"
   sodipodi:docname="asunder.svg"
   width="64"
   height="64"
   inkscape:version="1.0.1 (3bc2e813f5, 2020-09-07)">
  <metadata
     id="metadata30">
    <rdf:RDF>
      <cc:Work
         rdf:about="">
        <dc:format>image/svg+xml</dc:format>
        <dc:type
           rdf:resource="http://purl.org/dc/dcmitype/StillImage" />
        <dc:title></dc:title>
      </cc:Work>
    </rdf:RDF>
  </metadata>
  <defs
     id="defs28">
    <filter
       id="h"
       x="-0.059999999"
       y="-0.059999999"
       width="1.12"
       height="1.12"
       color-interpolation-filters="sRGB">
      <feGaussianBlur
         stdDeviation="0.85"
         id="feGaussianBlur855" />
    </filter>
    <linearGradient
       id="g"
       x1="32"
       x2="32"
       y1="15"
       y2="49"
       gradientTransform="matrix(1.0000071,0,0,1.0000071,-3.33e-7,-1.0001208)"
       gradientUnits="userSpaceOnUse">
      <stop
         stop-color="#303030"
         offset="0"
         id="stop858" />
      <stop
         stop-color="#424242"
         offset="1"
         id="stop860" />
    </linearGradient>
    <linearGradient
       id="linearGradient862-3"
       x1="7.9373002"
       x2="7.9373002"
       y1="15.081"
       y2="1.852"
       gradientTransform="matrix(3.7794508,0,0,3.7794508,1.4281187e-4,-0.96857889)"
       gradientUnits="userSpaceOnUse">
      <stop
         stop-color="#873df0"
         offset="0"
         id="stop863" />
      <stop
         stop-color="#f25ef3"
         offset="1"
         id="stop865" />
    </linearGradient>
    <linearGradient
       id="b-5"
       x1="389.95999"
       x2="410.34"
       y1="509.78"
       y2="509.78"
       gradientTransform="matrix(0.91926,-0.16589,0.15464,0.98614,-50.723,75.737)"
       gradientUnits="userSpaceOnUse"
       xlink:href="#a-6" />
    <linearGradient
       id="a-6">
      <stop
         stop-color="#8d3aff"
         offset="0"
         id="stop4-2" />
      <stop
         stop-color="#ff3680"
         offset="1"
         id="stop6" />
    </linearGradient>
    <linearGradient
       id="d"
       x1="408.75"
       x2="408.57001"
       y1="540.96002"
       y2="506.79999"
       gradientTransform="matrix(1.1967,0,0,1.1968,-81.459,-102.75)"
       gradientUnits="userSpaceOnUse">
      <stop
         stop-color="#8798a9"
         offset="0"
         id="stop11" />
      <stop
         stop-color="#bfc8d1"
         offset="1"
         id="stop13-9" />
    </linearGradient>
    <linearGradient
       id="e"
       x1="409.57001"
       x2="409.57001"
       y1="540.79999"
       y2="506.79999"
       gradientTransform="matrix(0.41429,0,0,0.41426,238.23,307.12)"
       gradientUnits="userSpaceOnUse">
      <stop
         stop-color="#3d434a"
         offset="0"
         id="stop16" />
      <stop
         stop-color="#5f6974"
         offset="1"
         id="stop18" />
    </linearGradient>
    <linearGradient
       id="c"
       x1="412.34"
       x2="413.20999"
       y1="548.15997"
       y2="505.35001"
       gradientTransform="matrix(1.0181,0,0,1.0212,-8.4818,-10.866)"
       gradientUnits="userSpaceOnUse"
       xlink:href="#a-6" />
  </defs>
  <sodipodi:namedview
     pagecolor="#ffffff"
     bordercolor="#666666"
     borderopacity="1"
     objecttolerance="10"
     gridtolerance="10"
     guidetolerance="10"
     inkscape:pageopacity="0"
     inkscape:pageshadow="2"
     inkscape:window-width="1920"
     inkscape:window-height="1002"
     id="namedview26"
     showgrid="false"
     inkscape:zoom="6.1208931"
     inkscape:cx="4.246641"
     inkscape:cy="30.625016"
     inkscape:window-x="0"
     inkscape:window-y="0"
     inkscape:window-maximized="1"
     inkscape:current-layer="svg24"
     inkscape:document-rotation="0" />
  <linearGradient
     id="a"
     gradientUnits="userSpaceOnUse"
     x1="399.57144"
     x2="399.57144"
     y1="545.79797"
     y2="517.79797">
    <stop
       offset="0"
       stop-color="#3889e9"
       id="stop2" />
    <stop
       offset="1"
       stop-color="#5ea5fb"
       id="stop4" />
  </linearGradient>
  <linearGradient
     gradientUnits="userSpaceOnUse"
     x1="-318.57867"
     x2="-318.57867"
     y1="653.95679"
     y2="301.29816"
     id="linearGradient11">
    <stop
       offset="0"
       stop-color="#0a80fd"
       id="stop7" />
    <stop
       offset="1"
       stop-color="#56c5fa"
       id="stop9" />
  </linearGradient>
  <linearGradient
     id="b"
     gradientUnits="userSpaceOnUse"
     x1="-318.57867"
     x2="-318.57867"
     y1="653.95679"
     y2="301.29816"
     gradientTransform="matrix(0.13837079,0,0,0.13837079,69.093287,-109.24651)">
    <stop
       offset="0"
       stop-color="#833cfc"
       id="stop13" />
    <stop
       offset="1"
       stop-color="#eb60ff"
       id="stop15" />
  </linearGradient>
  <circle
     cx="400.57138"
     cy="531.79791"
     fill="url(#a)"
     r="0"
     transform="matrix(1.6374665,0,0,1.6374665,-644.57819,-848.87933)"
     id="circle18" />
  <g
     transform="matrix(1.445,0,0,1.445,-556.23512,-725.33204)"
     id="g31">
    <path
       d="m 406.28,504.57 c -9.315,0.38153 -9.8321,1.2833 -10.968,1.9617 -2.6299,1.571 -3.3333,0.0114 -2.1263,-1.515 -1.1652,0.11994 -2.379,2.3006 -2.2442,3.5998 0.12749,1.2286 -0.30819,2.41 -0.98535,1.9904 -1.1223,-0.69552 -3.5099,-0.27915 -3.6349,1.4626 0.81367,-0.42575 2.2889,-0.65434 2.0734,0.70139 -0.17857,1.1236 -0.40134,3.568 1.6527,4.9451 2.0541,1.3771 10.024,-0.0162 10.024,-0.0162 z"
       fill="url(#b)"
       fill-rule="evenodd"
       id="path21"
       style="fill:url(#b-5)" />
    <path
       d="m 407.5,503.76 c -11.271,0 -20.345,9.0738 -20.345,20.345 0,11.2712 9.074,20.345 20.345,20.345 11.271,0 20.345,-9.0738 20.345,-20.345 0,-11.2712 -9.074,-20.345 -20.345,-20.345 z m 0,17.997 c 1.3006,0 2.3477,1.047 2.3477,2.3475 0,1.3005 -1.0471,2.3475 -2.3477,2.3475 -1.3006,0 -2.3477,-1.047 -2.3477,-2.3475 0,-1.3005 1.0471,-2.3475 2.3477,-2.3475 z"
       fill="url(#d)"
       id="path23"
       style="fill:url(#d)" />
    <path
       d="m 407.5,517.06 c -3.9018,0 -7.043,3.1409 -7.043,7.0425 0,3.9016 3.1412,7.0425 7.043,7.0425 3.9018,0 7.043,-3.1409 7.043,-7.0425 0,-3.9016 -3.1412,-7.0425 -7.043,-7.0425 z m 0,4.695 c 1.3006,0 2.3477,1.047 2.3477,2.3475 0,1.3005 -1.0471,2.3475 -2.3477,2.3475 -1.3006,0 -2.3477,-1.047 -2.3477,-2.3475 0,-1.3005 1.0471,-2.3475 2.3477,-2.3475 z"
       fill="url(#e)"
       id="path25"
       style="fill:url(#e)" />
    <path
       d="m 407.5,517.85 a 6.2604,6.26 0 0 0 -6.2604,6.26 6.2604,6.26 0 0 0 6.2604,6.26 6.2604,6.26 0 0 0 6.2604,-6.26 6.2604,6.26 0 0 0 -6.2604,-6.26 z m 0,0.7825 a 5.4779,5.4775 0 0 1 5.4779,5.4775 5.4779,5.4775 0 0 1 -5.4779,5.4775 5.4779,5.4775 0 0 1 -5.4779,-5.4775 5.4779,5.4775 0 0 1 5.4779,-5.4775 z"
       fill="#9da9b5"
       stroke-linecap="round"
       id="path27" />
    <path
       d="m 416.1,505.53 c 0.63745,0.58725 1.4635,1.4342 1.9745,2.3495 0.89083,1.5956 0.76357,4.3719 -1.9726,4.8825 -2.7362,0.51059 -2.8407,-0.42422 -2.8316,-1.5318 -1.4545,0.20084 -2.105,3.4348 0.44542,4.5634 2.1634,0.95736 2.9588,0.57442 7.0312,0.31913 4.0724,-0.2553 4.5496,4.723 2.6407,5.4888 -1.9089,0.76589 -2.6378,-0.59932 -2.5134,-1.3403 -1.53,0.59931 -1.7168,2.2713 -0.95447,3.0635 5.9526,6.1863 3.0977,10.966 1.4635,11.456 -2.025,0.60707 -3.4526,-0.59632 -2.418,-2.2019 0.84311,-1.3084 0.11546,-3.4662 -0.90874,-4.2303 -1.0242,-0.7642 -3.013,-0.58148 -3.8636,-0.0139 1.226,0.4649 3.0225,1.1807 2.5452,2.7763 -0.36852,1.2322 -1.5759,2.0082 -3.0861,1.9785 -2.8268,-1.2608 -4.4314,-5.1335 -2.6534,-6.3926 -2.2407,0.0432 -2.4996,4.3806 -1.6463,6.2722 0.67567,1.4976 2.6513,2.6557 1.6408,4.3966 -1.0599,1.826 -1.7953,2.8082 -4.3405,2.2977 -2.5452,-0.51059 -3.9451,-2.1381 -3.6269,-3.638 0.31815,-1.4998 1.0612,-1.7 2.3543,-1.7232 -0.80674,-1.7145 -3.5228,-1.0059 -5.4586,1.2446 -0.88874,1.0332 -1.3478,0.91733 -2.8452,0.0639 -1.9909,-1.1346 1.4899,-4.3062 2.677,-2.4572 0.0911,-2.167 -3.2497,-1.1169 -3.727,-3.5103 -0.47723,-2.3934 2.0666,-3.1067 2.0666,-3.1067 -3.0154,0.79173 -4.5086,1.8553 -7.5935,0.93361 -1.0952,-0.32722 0.17402,-3.3145 -3.3476,-2.2866 0.59483,10.772 9.4352,19.267 20.328,19.267 11.28,0 20.362,-9.109 20.362,-20.424 0,-8.2161 -4.8,-15.25 -11.742,-18.497 z"
       fill="url(#c)"
       fill-rule="evenodd"
       id="path29"
       style="fill:url(#c)" />
  </g>
</svg>
