<?xml version="1.0" encoding="UTF-8" standalone="no"?>
<svg
   xmlns:dc="http://purl.org/dc/elements/1.1/"
   xmlns:cc="http://creativecommons.org/ns#"
   xmlns:rdf="http://www.w3.org/1999/02/22-rdf-syntax-ns#"
   xmlns:svg="http://www.w3.org/2000/svg"
   xmlns="http://www.w3.org/2000/svg"
   xmlns:xlink="http://www.w3.org/1999/xlink"
   xmlns:sodipodi="http://sodipodi.sourceforge.net/DTD/sodipodi-0.dtd"
   xmlns:inkscape="http://www.inkscape.org/namespaces/inkscape"
   version="1.1"
   id="svg2"
   width="64"
   height="64"
   viewBox="0 0 64.000002 64.000002"
   sodipodi:docname="atomix.svg"
   inkscape:version="1.0.2 (e86c870879, 2021-01-15)">
  <metadata
     id="metadata8">
    <rdf:RDF>
      <cc:Work
         rdf:about="">
        <dc:format>image/svg+xml</dc:format>
        <dc:type
           rdf:resource="http://purl.org/dc/dcmitype/StillImage" />
        <dc:title></dc:title>
      </cc:Work>
    </rdf:RDF>
  </metadata>
  <defs
     id="defs6">
    <filter
       filterUnits="objectBoundingBox"
       y="0"
       x="0"
       height="1"
       width="1"
       id="alpha">
      <feColorMatrix
         id="feColorMatrix823"
         values="0 0 0 0 1 0 0 0 0 1 0 0 0 0 1 0 0 0 1 0"
         type="matrix"
         in="SourceGraphic" />
    </filter>
    <mask
       id="mask0">
      <g
         id="g828"
         filter="url(#alpha)">
        <rect
           id="rect826"
           style="fill:#000000;fill-opacity:0.2"
           y="0"
           x="0"
           height="384"
           width="384" />
      </g>
    </mask>
    <clipPath
       id="clip1">
      <rect
         id="rect831"
         y="0"
         x="0"
         height="384"
         width="384" />
    </clipPath>
    <g
       clip-path="url(#clip1)"
       id="surface5">
      <path
         id="path834"
         d="m 128,64 c -13.63281,0.02344 -26.61328,5.839844 -35.703125,16 H 80 c -26.507812,0.0039 -47.996094,21.49219 -48,48 v 104 c 0.0039,26.50781 21.492188,47.99609 48,48 h 6.484375 C 95.050781,294.83203 110.87109,303.98047 128,304 h 2.8125 c 6.77344,19.15234 24.87109,31.96875 45.1875,32 h 32 c 20.32031,-0.0234 38.42969,-12.83984 45.20312,-32 H 256 c 17.125,-0.0273 32.9375,-9.17188 41.5,-24 h 6.5 c 26.50781,-0.004 47.99609,-21.49219 48,-48 V 128 C 351.996,101.49219 330.50781,80.003906 304,80 H 291.70312 C 282.61328,69.839844 269.63281,64.023438 256,64 H 224 C 212.18359,64.01953 200.78906,68.398438 192,76.296875 183.21094,68.398438 171.81641,64.019531 160,64 Z m 0,0"
         style="fill:#000000" />
    </g>
    <mask
       id="mask1">
      <g
         id="g839"
         filter="url(#alpha)">
        <rect
           id="rect837"
           style="fill:#000000;fill-opacity:0.2"
           y="0"
           x="0"
           height="384"
           width="384" />
      </g>
    </mask>
    <clipPath
       id="clip2">
      <rect
         id="rect842"
         y="0"
         x="0"
         height="384"
         width="384" />
    </clipPath>
    <g
       clip-path="url(#clip2)"
       id="surface8">
      <path
         id="path845"
         d="m 80,128 c 0,8 0,16 0,24 10.667969,0 21.33203,0 32,0 0,-8 0,-16 0,-24 -10.66797,0 -21.332031,0 -32,0 z m 0,0"
         style="fill:#000000" />
      <path
         id="path847-8"
         d="m 80,168 c 0,8 0,16 0,24 10.667969,0 21.33203,0 32,0 0,-8 0,-16 0,-24 -10.66797,0 -21.332031,0 -32,0 z m 0,0"
         style="fill:#000000" />
      <path
         id="path849-7"
         d="m 80,208 c 0,8 0,16 0,24 10.667969,0 21.33203,0 32,0 0,-8 0,-16 0,-24 -10.66797,0 -21.332031,0 -32,0 z m 0,0"
         style="fill:#000000" />
      <path
         id="path851"
         d="m 128,112 c 0,8 0,16 0,24 10.66797,0 21.33203,0 32,0 0,-8 0,-16 0,-24 -10.66797,0 -21.33203,0 -32,0 z m 0,0"
         style="fill:#000000" />
      <path
         id="path853"
         d="m 128,152 c 0,8 0,16 0,24 10.66797,0 21.33203,0 32,0 0,-8 0,-16 0,-24 -10.66797,0 -21.33203,0 -32,0 z m 0,0"
         style="fill:#000000" />
      <path
         id="path855"
         d="m 128,192 c 0,8 0,16 0,24 10.66797,0 21.33203,0 32,0 0,-8 0,-16 0,-24 -10.66797,0 -21.33203,0 -32,0 z m 0,0"
         style="fill:#000000" />
      <path
         id="path857"
         d="m 128,232 c 0,8 0,16 0,24 10.66797,0 21.33203,0 32,0 0,-8 0,-16 0,-24 -10.66797,0 -21.33203,0 -32,0 z m 0,0"
         style="fill:#000000" />
      <path
         id="path859"
         d="m 176,144 c 0,8 0,16 0,24 10.66797,0 21.33203,0 32,0 0,-8 0,-16 0,-24 -10.66797,0 -21.33203,0 -32,0 z m 0,0"
         style="fill:#000000" />
      <path
         id="path861"
         d="m 176,184 c 0,8 0,16 0,24 10.66797,0 21.33203,0 32,0 0,-8 0,-16 0,-24 -10.66797,0 -21.33203,0 -32,0 z m 0,0"
         style="fill:#000000" />
      <path
         id="path863"
         d="m 176,224 c 0,8 0,16 0,24 10.66797,0 21.33203,0 32,0 0,-8 0,-16 0,-24 -10.66797,0 -21.33203,0 -32,0 z m 0,0"
         style="fill:#000000" />
      <path
         id="path865"
         d="m 176,264 c 0,8 0,16 0,24 10.66797,0 21.33203,0 32,0 0,-8 0,-16 0,-24 -10.66797,0 -21.33203,0 -32,0 z m 0,0"
         style="fill:#000000" />
      <path
         id="path867"
         d="m 304,128 c 0,8 0,16 0,24 -10.66797,0 -21.33203,0 -32,0 0,-8 0,-16 0,-24 10.66797,0 21.33203,0 32,0 z m 0,0"
         style="fill:#000000" />
      <path
         id="path869"
         d="m 304,168 c 0,8 0,16 0,24 -10.66797,0 -21.33203,0 -32,0 0,-8 0,-16 0,-24 10.66797,0 21.33203,0 32,0 z m 0,0"
         style="fill:#000000" />
      <path
         id="path871"
         d="m 304,208 c 0,8 0,16 0,24 -10.66797,0 -21.33203,0 -32,0 0,-8 0,-16 0,-24 10.66797,0 21.33203,0 32,0 z m 0,0"
         style="fill:#000000" />
      <path
         id="path873"
         d="m 256,112 c 0,8 0,16 0,24 -10.66797,0 -21.33203,0 -32,0 0,-8 0,-16 0,-24 10.66797,0 21.33203,0 32,0 z m 0,0"
         style="fill:#000000" />
      <path
         id="path875"
         d="m 256,152 c 0,8 0,16 0,24 -10.66797,0 -21.33203,0 -32,0 0,-8 0,-16 0,-24 10.66797,0 21.33203,0 32,0 z m 0,0"
         style="fill:#000000" />
      <path
         id="path877"
         d="m 256,192 c 0,8 0,16 0,24 -10.66797,0 -21.33203,0 -32,0 0,-8 0,-16 0,-24 10.66797,0 21.33203,0 32,0 z m 0,0"
         style="fill:#000000" />
      <path
         id="path879"
         d="m 256,232 c 0,8 0,16 0,24 -10.66797,0 -21.33203,0 -32,0 0,-8 0,-16 0,-24 10.66797,0 21.33203,0 32,0 z m 0,0"
         style="fill:#000000" />
    </g>
    <mask
       id="mask2">
      <g
         id="g884"
         filter="url(#alpha)">
        <rect
           id="rect882"
           style="fill:#000000;fill-opacity:0.290196"
           y="0"
           x="0"
           height="384"
           width="384" />
      </g>
    </mask>
    <clipPath
       id="clip3">
      <rect
         id="rect887"
         y="0"
         x="0"
         height="384"
         width="384" />
    </clipPath>
    <g
       clip-path="url(#clip3)"
       id="surface11">
      <path
         id="path890"
         d="m 128,56 c -13.63281,0.02344 -26.61328,5.839844 -35.703125,16 H 80 C 53.492188,72.0039 32.003906,93.492188 32,120 v 8 C 32.0039,101.49219 53.492188,80.003906 80,80 H 92.296875 C 101.38672,69.839844 114.36719,64.023438 128,64 h 32 c 11.81641,0.01953 23.21094,4.398438 32,12.296875 C 200.78906,68.398438 212.18359,64.019531 224,64 h 32 c 13.63281,0.02344 26.61328,5.839844 35.70312,16 H 304 c 26.50781,0.0039 47.99609,21.49219 48,48 v -8 C 351.99609,93.492188 330.50781,72.003906 304,72 H 291.70312 C 282.61328,61.839844 269.63281,56.023438 256,56 H 224 C 212.18359,56.01953 200.78906,60.398438 192,68.296875 183.21094,60.398438 171.81641,56.019531 160,56 Z m 0,0"
         style="fill:#ffffff" />
    </g>
    <filter
       filterUnits="objectBoundingBox"
       y="0"
       x="0"
       height="1"
       width="1"
       id="alpha-0">
      <feColorMatrix
         id="feColorMatrix864"
         values="0 0 0 0 1 0 0 0 0 1 0 0 0 0 1 0 0 0 1 0"
         type="matrix"
         in="SourceGraphic" />
    </filter>
    <mask
       id="mask0-0">
      <g
         style="filter:url(#alpha-0)"
         id="g869"
         filter="url(#alpha)">
        <rect
           id="rect867"
           style="fill:#000000;fill-opacity:0.301961"
           y="0"
           x="0"
           height="384"
           width="384" />
      </g>
    </mask>
    <clipPath
       id="clip1-5">
      <rect
         id="rect872"
         y="0"
         x="0"
         height="384"
         width="384" />
    </clipPath>
    <g
       clip-path="url(#clip1-5)"
       id="surface5-3">
      <path
         id="path875-4"
         d="M 168.20312,339.89844 C 138.5625,336.33984 110.46484,323.26953 78.152344,298.01953 68.023438,290.10547 56.875,280.47656 55.933594,278.83203 c -1.410156,-2.45703 -1.078125,-5.32812 0.832031,-7.23828 2.964844,-2.96875 5.273437,-2.39063 17.472656,4.37109 37.964849,21.04297 62.136719,30.76563 88.624999,35.64063 10.08203,1.85547 41.16016,1.87109 53.03516,0.0273 24.59765,-3.82031 42.57422,-8.75781 67.1289,-18.42969 14.08594,-5.55078 15.78516,-5.73437 19.3086,-2.05468 2.30078,2.40234 2.65234,6.17578 0.83203,8.95312 -1.54688,2.35938 -10.39453,8.51563 -20.38672,14.1875 -35.32422,20.04688 -79.21484,29.85547 -114.57813,25.60938 z m 141.66016,-24.49219 c -0.78125,-0.78125 -1.42187,-2.20703 -1.42187,-3.16406 0,-0.95703 1.73046,-6.96485 3.84765,-13.34766 4.47266,-13.49609 5.35938,-18.31641 3.67188,-20.00391 -1.81641,-1.8164 -7.25391,-2.22656 -16.41797,-1.23828 -15.91797,1.71485 -18.0625,1.75 -19.60938,0.35157 -2.14062,-1.9375 -1.86328,-6.02344 0.56641,-8.30079 2.59766,-2.43359 8.94141,-5.92578 13.80859,-7.60156 9.75391,-3.35547 29.83594,-3.84375 36.51563,-0.88672 4.89062,2.16407 5.7539,4.08203 5.6289,12.52344 -0.20312,13.79688 -6.14843,28.84375 -15.0625,38.11719 -4.24609,4.41797 -5.07812,4.97656 -7.4414,4.97656 -1.71094,0 -3.16797,-0.50781 -4.08594,-1.42578 z M 145.39453,262.05859 c -11.64062,-2.45703 -22.61719,-9.05468 -28.83984,-17.32812 -4.30469,-5.72656 -6.27735,-9.70313 -8.625,-17.375 -1.76563,-5.78125 -1.91406,-7.2461 -1.92578,-18.72656 -0.0117,-14.59375 1.03515,-19.61329 6.34765,-30.33594 9.28516,-18.75391 28.9961,-30.71485 59.75391,-36.25 7.59375,-1.36719 29.33203,-3.8711 33.69531,-3.88281 5.72266,-0.0156 5.82813,-0.20704 5.82813,-10.90235 0,-14.53515 -2.66407,-22.07812 -9.41016,-26.67578 -4.98438,-3.390624 -9.37109,-4.703124 -15.78906,-4.718749 -9.24219,-0.02344 -16.76953,3.113281 -22.70313,9.453129 -3.59765,3.85156 -5.16015,6.55859 -6.62109,11.47265 -0.55078,1.85547 -1.66406,4.21485 -2.47656,5.25 -1.26172,1.60157 -2.02344,1.875 -5.21875,1.875 -2.05469,0 -7.12891,-0.47265 -11.26954,-1.05468 C 134,122.27734 127.5,121.45313 123.69922,121.03125 c -8.24609,-0.92187 -9.85938,-1.46484 -11.41797,-3.83984 -1.10547,-1.6875 -1.10156,-2.14453 0.0742,-6.97266 3.05859,-12.570312 7.57422,-20.609375 16.69531,-29.726562 10.42969,-10.425782 21.53906,-15.953126 39.31641,-19.550782 7.45703,-1.511718 10.88281,-1.804687 20.98047,-1.804687 25.83984,0 45.29687,6.570312 57.92187,19.5625 7.32031,7.53125 11.05078,15.734375 12.84375,28.253911 0.54688,3.8164 1,22.52343 1.27734,52.55468 l 0.42579,46.62891 2.30859,5.33594 c 1.26562,2.9375 4.10937,7.73828 6.31641,10.67187 5.32031,7.06641 6.42578,9.44141 5.55078,11.92969 -0.64844,1.84765 -13.46875,13.61328 -25.07813,23.01562 -4.71875,3.82422 -5.51562,4.21485 -8.58594,4.21485 -3.2539,0 -3.59375,-0.20703 -8.86328,-5.375 -3.01562,-2.95703 -7.58593,-8.24219 -10.15625,-11.7461 -2.57422,-3.5039 -5.0664,-6.37109 -5.53906,-6.37109 -0.47656,0 -2.29297,1.48047 -4.03516,3.29297 -7.40625,7.67578 -17.12109,14.3789 -25.78125,17.78515 -10.55468,4.15235 -30.75781,5.65625 -42.55859,3.16797 z m 39.45313,-33.86328 c 9.35937,-2.4375 15.83593,-8.30469 21.05859,-19.07422 4.76953,-9.83593 5.81641,-15.77343 5.5625,-31.5039 l -0.19922,-12.0586 -8.53906,0.14844 c -12.20313,0.21484 -19.05078,1.59766 -26.99219,5.46094 -13.75391,6.6914 -19.65625,17.3164 -18.71094,33.67969 0.4961,8.5625 2.76953,13.84765 8.02344,18.64843 5.75,5.25782 11.97656,6.73438 19.79688,4.69922 z m 0,0"
         style="fill:#000000" />
    </g>
    <mask
       id="mask1-7">
      <g
         style="filter:url(#alpha-0)"
         id="g880"
         filter="url(#alpha)">
        <rect
           id="rect878"
           style="fill:#000000;fill-opacity:0.14902"
           y="0"
           x="0"
           height="384"
           width="384" />
      </g>
    </mask>
    <clipPath
       id="clip2-3">
      <rect
         id="rect883"
         y="0"
         x="0"
         height="384"
         width="384" />
    </clipPath>
    <g
       clip-path="url(#clip2-3)"
       id="surface8-2">
      <path
         id="path886"
         d="m 189.34766,51.636719 c -3.49219,0 -6.15625,0.03906 -8.49219,0.148437 22.62109,1.027344 39.87109,7.535156 51.41406,19.414063 7.32031,7.53125 11.05078,15.734375 12.84375,28.253906 0.54688,3.816405 1,22.523435 1.27734,52.554685 l 0.42969,46.62891 2.30469,5.33984 c 1.26953,2.9336 4.10937,7.73828 6.31641,10.66797 5.32031,7.06641 6.42578,9.44141 5.55468,11.92969 -0.65234,1.84765 -13.46875,13.61328 -25.07812,23.01562 -0.25781,0.20703 -0.46094,0.36719 -0.69531,0.55469 3.64062,3.50391 4.25781,3.66016 7.10546,3.66016 3.07032,0 3.86719,-0.39063 8.58985,-4.21485 11.60937,-9.40234 24.42578,-21.16797 25.07812,-23.01562 0.8711,-2.48828 -0.23437,-4.86328 -5.55468,-11.92969 -2.20704,-2.92969 -5.04688,-7.73437 -6.31641,-10.66797 l -2.30469,-5.33984 -0.42969,-46.62891 c -0.27734,-30.03125 -0.73046,-48.73828 -1.27734,-52.554685 -1.79297,-12.519531 -5.52344,-20.722656 -12.84375,-28.253906 -12.62891,-12.996094 -32.08203,-19.5625 -57.92187,-19.5625 z m 0,0"
         style="fill:#000000" />
    </g>
    <linearGradient
       id="a"
       gradientUnits="userSpaceOnUse"
       x1="401.17508"
       x2="401.17508"
       y1="549.91388"
       y2="516.92767">
      <stop
         offset="0"
         stop-color="#d5dbff"
         id="stop2" />
      <stop
         offset="1"
         stop-color="#f9ffff"
         id="stop4" />
    </linearGradient>
    <linearGradient
       inkscape:collect="always"
       xlink:href="#a"
       id="linearGradient908"
       gradientUnits="userSpaceOnUse"
       x1="401.17508"
       y1="549.91388"
       x2="401.17508"
       y2="516.92767" />
    <linearGradient
       inkscape:collect="always"
       xlink:href="#a"
       id="linearGradient981"
       gradientUnits="userSpaceOnUse"
       x1="401.17508"
       y1="549.91388"
       x2="401.17508"
       y2="516.92767" />
    <linearGradient
       inkscape:collect="always"
       xlink:href="#a"
       id="linearGradient983"
       gradientUnits="userSpaceOnUse"
       x1="401.17508"
       y1="549.91388"
       x2="401.17508"
       y2="516.92767" />
    <linearGradient
       inkscape:collect="always"
       xlink:href="#a"
       id="linearGradient985"
       gradientUnits="userSpaceOnUse"
       x1="401.17508"
       y1="549.91388"
       x2="401.17508"
       y2="516.92767" />
    <linearGradient
       inkscape:collect="always"
       xlink:href="#a"
       id="linearGradient987"
       gradientUnits="userSpaceOnUse"
       x1="401.17508"
       y1="549.91388"
       x2="401.17508"
       y2="516.92767" />
    <linearGradient
       inkscape:collect="always"
       xlink:href="#a"
       id="linearGradient989"
       gradientUnits="userSpaceOnUse"
       x1="401.17508"
       y1="549.91388"
       x2="401.17508"
       y2="516.92767" />
    <linearGradient
       inkscape:collect="always"
       xlink:href="#a"
       id="linearGradient991"
       gradientUnits="userSpaceOnUse"
       x1="401.17508"
       y1="549.91388"
       x2="401.17508"
       y2="516.92767" />
  </defs>
  <sodipodi:namedview
     pagecolor="#ffffff"
     bordercolor="#666666"
     borderopacity="1"
     objecttolerance="10"
     gridtolerance="10"
     guidetolerance="10"
     inkscape:pageopacity="0"
     inkscape:pageshadow="2"
     inkscape:window-width="1920"
     inkscape:window-height="940"
     id="namedview4"
     showgrid="false"
     inkscape:zoom="2.0000001"
     inkscape:cx="-18.827291"
     inkscape:cy="41.186789"
     inkscape:window-x="0"
     inkscape:window-y="38"
     inkscape:window-maximized="1"
     inkscape:current-layer="svg2"
     showguides="false"
     inkscape:document-rotation="0" />
  <path
     style="fill:#000000;stroke-width:1.33333"
     d=""
     id="path849"
     inkscape:connector-curvature="0" />
  <path
     style="fill:#000000;stroke-width:1.33333"
     d=""
     id="path847"
     inkscape:connector-curvature="0" />
  <g
     style="fill:#ffffff"
     id="g899"
     transform="translate(36.653856,39.347775)" />
  <g
     fill="url(#a)"
     stroke="url(#a)"
     stroke-width="1.38475"
     transform="matrix(2.0418771,0,0,2.0418771,-785.91759,-1053.866)"
     id="g13"
     style="fill:url(#linearGradient908);stroke:url(#linearGradient908)">
    <circle
       cx="400.57138"
       cy="531.79791"
       r="13.999958"
       id="circle7"
       style="fill:url(#linearGradient981);stroke:url(#linearGradient983)" />
    <circle
       cx="400.57144"
       cy="531.79797"
       r="13.999958"
       id="circle9"
       style="fill:url(#linearGradient985);stroke:url(#linearGradient987)" />
    <circle
       cx="400.57138"
       cy="531.79791"
       r="0"
       id="circle11"
       style="fill:url(#linearGradient989);stroke:url(#linearGradient991)" />
  </g>
  <path
     d="m 50.965287,38.811322 c -0.108481,-0.01552 -0.218482,-0.02286 -0.32783,-0.02546 l -1.104273,-2.747308 c 0.355653,-0.394045 0.602174,-0.890751 0.681113,-1.445044 0.213305,-1.498963 -0.832734,-2.892028 -2.331698,-3.105333 -0.128759,-0.01833 -0.259676,-0.02761 -0.389082,-0.02761 -0.977024,0 -1.853754,0.527332 -2.340756,1.323401 l -2.906047,-0.413671 c -0.277793,-1.028784 -1.144388,-1.847282 -2.264404,-2.006885 -0.08584,-0.01229 -0.172543,-0.01897 -0.259245,-0.02307 l -0.895927,-2.229033 c 0.395122,-0.405474 0.668602,-0.932808 0.752932,-1.52463 0.102885,-0.721874 -0.08067,-1.440082 -0.515255,-2.024785 l 1.808676,-2.306893 c 0.08368,0.02006 0.168877,0.03731 0.255795,0.04982 0.12876,0.01833 0.259676,0.0276 0.388867,0.0276 0.977238,0 1.85397,-0.527116 2.340971,-1.3234 l 2.868951,0.408494 c 0.277792,1.029 1.144388,1.847284 2.264404,2.00667 0.128759,0.01833 0.259677,0.0276 0.389084,0.0276 1.357047,0 2.524943,-1.014335 2.716465,-2.359087 0.103314,-0.726188 -0.08217,-1.449141 -0.522587,-2.035571 -0.440415,-0.586428 -1.08292,-0.966238 -1.808677,-1.069763 -0.128976,-0.01833 -0.259893,-0.0276 -0.389515,-0.0276 -0.977022,0 -1.853538,0.527116 -2.340754,1.3234 l -2.868952,-0.408278 c -0.277794,-1.028785 -1.144387,-1.847284 -2.264403,-2.00667 -0.108492,-0.01552 -0.218267,-0.02287 -0.327616,-0.02545 l -1.147408,-2.854285 c 0.313165,-0.378731 0.528628,-0.84287 0.601743,-1.355537 0.213305,-1.498963 -0.832734,-2.892028 -2.331698,-3.1053339 -0.128975,-0.018327 -0.259891,-0.027599 -0.389082,-0.027599 -1.357263,0 -2.52516,1.0143329 -2.716467,2.3593029 -0.103313,0.725972 0.08217,1.448925 0.522589,2.03557 0.440415,0.586429 1.08292,0.966238 1.808892,1.069765 0.12876,0.01833 0.259677,0.0276 0.389084,0.0276 0.06405,0 0.127034,-0.0043 0.190012,-0.0089 l 1.072567,2.667939 c -0.408278,0.40871 -0.692326,0.944671 -0.778166,1.548569 -0.08692,0.6108 0.03796,1.20219 0.314459,1.705152 l -2.00818,2.561177 c -0.08153,-0.0073 -0.163267,-0.01229 -0.244579,-0.01229 -0.823459,0 -1.575528,0.374849 -2.083667,0.968827 l -3.322305,-0.472767 c -0.08282,-0.183326 -0.183973,-0.359751 -0.307772,-0.524529 -0.440415,-0.586644 -1.08292,-0.966238 -1.808894,-1.069764 -0.03753,-0.0054 -0.07549,-0.0081 -0.113445,-0.01208 l -1.260208,-3.134667 c 0.359535,-0.395337 0.608859,-0.894847 0.688229,-1.453023 0.103314,-0.726188 -0.08217,-1.449142 -0.522588,-2.03557 -0.440414,-0.586428 -1.08292,-0.966238 -1.808893,-1.069763 -0.128759,-0.01833 -0.259676,-0.0276 -0.389083,-0.0276 -0.977021,0 -1.853753,0.527117 -2.340756,1.323401 l -2.661251,-0.378912 c -0.277793,-1.028784 -1.144389,-1.847283 -2.264405,-2.006669 -0.12876,-0.01833 -0.259676,-0.0276 -0.389083,-0.0276 -1.357047,0 -2.524945,1.014334 -2.716467,2.359303 -0.08692,0.610585 0.03796,1.201974 0.31446,1.704935 l -1.743974,2.224073 c -0.105247,-0.02782 -0.212012,-0.05176 -0.321361,-0.06751 -0.128759,-0.01833 -0.259676,-0.02761 -0.388868,-0.02761 -1.357262,0 -2.525158,1.014335 -2.716465,2.359303 -0.103313,0.725974 0.08217,1.448927 0.522587,2.035571 0.440415,0.586429 1.08292,0.966239 1.808893,1.069764 0.12876,0.01833 0.259677,0.0276 0.389083,0.0276 1.357263,0 2.52516,-1.014117 2.716467,-2.359086 0.08498,-0.596134 -0.02804,-1.188603 -0.313596,-1.706662 l 1.742894,-2.222562 c 0.104817,0.02804 0.211365,0.05177 0.321361,0.06751 0.128761,0.01833 0.259677,0.02762 0.389084,0.02762 0.977022,0 1.853752,-0.527118 2.340754,-1.323401 l 2.661037,0.378731 c 0.277794,1.029 1.144388,1.847282 2.264404,2.006669 0.108482,0.01552 0.218267,0.02287 0.327617,0.02545 l 1.194208,2.970536 c -0.439335,0.414965 -0.746677,0.972061 -0.836615,1.603998 -0.07613,0.534666 0.01051,1.054881 0.218266,1.513844 l -1.585881,2.022634 c -0.07463,-0.01704 -0.149896,-0.03322 -0.227109,-0.04421 -0.12876,-0.01833 -0.259676,-0.02761 -0.389084,-0.02761 -1.357263,0 -2.525159,1.014333 -2.716465,2.359303 -0.213306,1.498531 0.832517,2.891811 2.331696,3.105333 0.07656,0.01096 0.153778,0.01747 0.230991,0.022 l 1.049921,2.611647 c -0.408279,0.408709 -0.692111,0.94467 -0.778166,1.548353 -0.08498,0.596135 0.02804,1.188602 0.313596,1.706661 l -1.7526,2.235289 c -0.134369,-0.04055 -0.271324,-0.07441 -0.412809,-0.09447 -0.128759,-0.01833 -0.259676,-0.02761 -0.389083,-0.02761 -0.977023,0 -1.853754,0.527117 -2.340971,1.323617 l -2.695976,-0.383908 c -0.277794,-1.029 -1.144389,-1.847282 -2.264621,-2.006669 -0.12876,-0.01833 -0.259676,-0.0276 -0.388867,-0.0276 -1.357263,0 -2.52516,1.014334 -2.716467,2.359304 -0.213305,1.498531 0.832519,2.891811 2.331697,3.105332 0.128759,0.01833 0.259677,0.0276 0.389083,0.0276 0.977023,0 1.853755,-0.527332 2.340755,-1.323615 l 2.69533,0.383691 c 0.08973,0.334085 0.242421,0.651779 0.456375,0.936906 0.440415,0.586429 1.08292,0.966237 1.808892,1.069763 0.12876,0.01833 0.259676,0.0276 0.389084,0.0276 0.04314,0 0.08542,-0.0038 0.128112,-0.006 l 1.213837,3.019277 c -0.265716,0.356948 -0.44969,0.779676 -0.515686,1.243169 -0.103314,0.725972 0.08217,1.448926 0.522588,2.03557 0.440415,0.586431 1.082919,0.966238 1.808892,1.069766 0.128759,0.01833 0.259677,0.02761 0.389082,0.02761 1.357047,0 2.524945,-1.01412 2.716467,-2.359088 0.103315,-0.726189 -0.08217,-1.449142 -0.522589,-2.03557 -0.440415,-0.586646 -1.082919,-0.966454 -1.808891,-1.06998 -0.12876,-0.01833 -0.259677,-0.0276 -0.389084,-0.0276 -0.106977,0 -0.212442,0.0083 -0.316616,0.02071 l -1.15474,-2.872392 c 0.336243,-0.387575 0.568959,-0.868968 0.645094,-1.404282 0.07549,-0.530353 -0.0048,-1.058332 -0.224091,-1.533471 l 1.848795,-2.357793 c 0.07506,0.01704 0.150542,0.03278 0.227539,0.04378 0.12876,0.01833 0.259676,0.0276 0.388868,0.0276 0.977237,0 1.853969,-0.527117 2.34097,-1.323401 l 2.9164,0.415181 c 0.08973,0.3343 0.242206,0.651779 0.456374,0.936906 0.440415,0.586428 1.08292,0.966237 1.808894,1.069763 0.102657,0.01466 0.206403,0.02179 0.309713,0.02479 l 1.053587,2.620922 c -0.408278,0.408709 -0.692326,0.944884 -0.778166,1.548785 -0.213305,1.498746 0.832734,2.891812 2.331697,3.105117 0.128759,0.01833 0.259676,0.02761 0.389082,0.02761 0.977022,0 1.853754,-0.527117 2.340971,-1.323401 l 2.667938,0.379594 c 0.08973,0.334302 0.242423,0.651779 0.456375,0.936905 0.440415,0.586646 1.08292,0.966455 1.809108,1.06998 0.128761,0.01833 0.259678,0.02761 0.388868,0.02761 1.357263,0 2.52516,-1.014334 2.716466,-2.359303 0.213306,-1.498748 -0.832733,-2.891813 -2.33148,-3.105119 -0.128976,-0.01833 -0.259892,-0.02761 -0.389514,-0.02761 -0.977022,0 -1.853539,0.527117 -2.34054,1.323401 l -2.668802,-0.379776 c -0.277792,-1.029001 -1.144387,-1.847284 -2.26462,-2.00667 -0.102443,-0.01466 -0.206403,-0.02179 -0.309714,-0.0248 l -1.053371,-2.620705 c 0.408278,-0.40871 0.692326,-0.94467 0.778167,-1.548568 0.08692,-0.610801 -0.03796,-1.202191 -0.31446,-1.705154 l 1.73125,-2.207896 c 0.0261,0.0045 0.05155,0.01119 0.07807,0.0151 0.128761,0.01833 0.259678,0.02762 0.388868,0.02762 0.977022,0 1.853754,-0.527117 2.340971,-1.323401 l 2.905401,0.413455 c 0.08973,0.3343 0.242421,0.651779 0.456374,0.936905 0.440415,0.586644 1.08292,0.966238 1.808893,1.069764 0.12876,0.01833 0.259676,0.0276 0.389083,0.0276 0.02588,0 0.05112,-0.0028 0.07701,-0.0036 l 1.063293,2.645293 c -0.408279,0.40871 -0.692111,0.94467 -0.778166,1.548784 -0.213306,1.498963 0.832732,2.892029 2.331696,3.105334 0.12876,0.01833 0.259677,0.02762 0.389083,0.02762 1.357046,0 2.524945,-1.014333 2.716467,-2.359087 0.212226,-1.498963 -0.833813,-2.892028 -2.332776,-3.105981 z M 36.876545,32.695337 c -0.09619,0.676151 0.06104,1.347773 0.438041,1.910908 l -1.61133,2.054766 c -0.104818,-0.02804 -0.211581,-0.05176 -0.321577,-0.0675 -0.128759,-0.01833 -0.259676,-0.0276 -0.389083,-0.0276 -0.977022,0 -1.853753,0.527334 -2.340971,1.323617 L 29.734364,37.47434 c -0.277794,-1.028784 -1.144389,-1.847283 -2.264406,-2.006669 -0.108481,-0.01552 -0.218266,-0.02287 -0.327614,-0.02546 l -1.022315,-2.543058 c 0.44516,-0.416043 0.756599,-0.977023 0.847184,-1.61392 0.09188,-0.644877 -0.05067,-1.269481 -0.36083,-1.789697 l 1.435122,-1.830244 c 0.166073,0.05823 0.33991,0.101798 0.520648,0.127465 0.128759,0.01833 0.259677,0.0276 0.389082,0.0276 1.119586,0 2.108902,-0.691034 2.528827,-1.688113 l 2.654566,0.377868 c 0.05392,0.481178 0.23207,0.941435 0.530354,1.33893 0.440413,0.58643 1.082919,0.966238 1.808892,1.069764 0.120133,0.01704 0.242206,0.02545 0.363202,0.02674 l 0.866378,2.155055 c -0.433944,0.413887 -0.737402,0.967316 -0.826909,1.594725 z"
     fill="#2d2d2d"
     fill-opacity="0.85"
     id="path15"
     style="stroke-width:0.215678" />
</svg>
