<?xml version="1.0" encoding="UTF-8"?>
<svg width="64" height="64" version="1.1" viewBox="0 0 16.933 16.933" xmlns="http://www.w3.org/2000/svg" xmlns:cc="http://creativecommons.org/ns#" xmlns:dc="http://purl.org/dc/elements/1.1/" xmlns:rdf="http://www.w3.org/1999/02/22-rdf-syntax-ns#" xmlns:xlink="http://www.w3.org/1999/xlink">
 <defs>
  <linearGradient id="linearGradient981" x1="401.18" x2="401.18" y1="628.21" y2="521.48" gradientTransform="matrix(.14294 0 0 .14294 -50.895 -71.301)" gradientUnits="userSpaceOnUse" xlink:href="#a"/>
  <linearGradient id="a" x1="401.18" x2="401.18" y1="549.91" y2="516.93" gradientUnits="userSpaceOnUse">
   <stop stop-color="#d5dbff" offset="0"/>
   <stop stop-color="#f9ffff" offset="1"/>
  </linearGradient>
  <linearGradient id="linearGradient8147" x1="401.18" x2="401.18" y1="549.91" y2="516.93" gradientTransform="matrix(.54025 0 0 .54025 -204.68 -276.88)" gradientUnits="userSpaceOnUse" xlink:href="#a"/>
 </defs>
 <metadata>
  <rdf:RDF>
   <cc:Work rdf:about="">
    <dc:format>image/svg+xml</dc:format>
    <dc:type rdf:resource="http://purl.org/dc/dcmitype/StillImage"/>
    <dc:title/>
   </cc:Work>
  </rdf:RDF>
 </metadata>
 <g transform="translate(-3.2598 -1.9568)">
  <circle cx="11.726" cy="10.423" r="7.5634" fill="url(#linearGradient8147)" stroke="url(#linearGradient8147)" stroke-width=".74811"/>
  <circle cx="11.726" cy="10.424" r="7.5634" fill="url(#linearGradient981)" stroke="url(#linearGradient981)" stroke-width=".74811"/>
  <path d="m16.744 12.226c-0.0287-0.0041-0.05781-6e-3 -0.08674-0.0067l-0.29217-0.72689c0.0941-0.10426 0.15932-0.23568 0.18021-0.38234 0.05644-0.3966-0.22033-0.76518-0.61693-0.82162-0.03407-0.0048-0.06871-0.0073-0.10294-0.0073-0.2585 0-0.49047 0.13952-0.61932 0.35015l-0.76889-0.10949c-0.0735-0.2722-0.30279-0.48876-0.59912-0.53099-0.02271-0.00325-0.04565-0.00502-0.06859-0.0061l-0.23705-0.58977c0.10454-0.10728 0.1769-0.24681 0.19921-0.40339 0.027222-0.191-0.021344-0.38102-0.13633-0.53572l0.47855-0.61037c0.02214 0.00531 0.04468 0.00987 0.06768 0.013181 0.03407 0.00485 0.06871 0.0073 0.10289 0.0073 0.25856 0 0.49053-0.13947 0.61938-0.35015l0.75908 0.10808c0.0735 0.27226 0.30279 0.48876 0.59912 0.53093 0.03407 0.00485 0.06871 0.0073 0.10294 0.0073 0.35905 0 0.66806-0.26838 0.71873-0.62418 0.02733-0.19214-0.02174-0.38342-0.13827-0.53858-0.11653-0.15516-0.28652-0.25565-0.47854-0.28304-0.03412-0.00485-0.06876-0.0073-0.10306-0.0073-0.2585 0-0.49042 0.13947-0.61932 0.35015l-0.75908-0.10802c-0.0735-0.2722-0.30279-0.48876-0.59912-0.53093-0.0287-0.00411-0.05775-0.00605-0.08668-0.00673l-0.30359-0.7552c0.082858-0.10021 0.13987-0.22301 0.15921-0.35865 0.056437-0.3966-0.22033-0.76518-0.61693-0.82162-0.03412-0.00485-0.06876-0.0073-0.10294-0.0073-0.35911 0-0.66812 0.26838-0.71873 0.62423-0.02733 0.19208 0.02174 0.38336 0.13827 0.53858 0.11653 0.15516 0.28652 0.25565 0.4786 0.28304 0.03407 0.00485 0.06871 0.0073 0.10294 0.0073 0.01695 0 0.03361-0.00114 0.05027-0.00235l0.28378 0.70589c-0.10802 0.10814-0.18318 0.24994-0.20589 0.40973-0.023 0.16161 0.01004 0.31808 0.0832 0.45115l-0.53133 0.67764c-0.02157-0.00193-0.0432-0.00325-0.06471-0.00325-0.21787 0-0.41686 0.099179-0.5513 0.25634l-0.87902-0.12509c-0.021913-0.048505-0.048676-0.095184-0.081431-0.13878-0.11653-0.15522-0.28652-0.25565-0.4786-0.28304-0.0099-0.00143-0.01997-0.00214-0.03002-0.0032l-0.33343-0.82938c0.095127-0.1046 0.16109-0.23676 0.18209-0.38445 0.027335-0.19214-0.021741-0.38342-0.13827-0.53858-0.11653-0.15516-0.28652-0.25565-0.4786-0.28304-0.03407-0.00485-0.06871-0.0073-0.10294-0.0073-0.2585 0-0.49047 0.13947-0.61933 0.35015l-0.70412-0.10026c-0.073499-0.2722-0.30279-0.48876-0.59912-0.53093-0.034068-0.00485-0.068706-0.0073-0.10294-0.0073-0.35905 0-0.66806 0.26838-0.71873 0.62423-0.022998 0.16155 0.010044 0.31802 0.083201 0.4511l-0.46143 0.58845c-0.027847-0.00736-0.056095-0.013695-0.085027-0.017862-0.034067-0.00485-0.068706-0.00731-0.10289-0.00731-0.35911 0-0.66811 0.26838-0.71873 0.62423-0.027335 0.19208 0.021741 0.38336 0.13827 0.53858 0.11653 0.15516 0.28652 0.25565 0.4786 0.28304 0.034068 0.00485 0.068706 0.0073 0.10294 0.0073 0.35911 0 0.66812-0.26832 0.71873-0.62417 0.022484-0.15773-0.00742-0.31448-0.082972-0.45155l0.46114-0.58805c0.027733 0.00742 0.055924 0.013698 0.085027 0.017862 0.034068 0.00485 0.068706 0.00731 0.10295 0.00731 0.2585 0 0.49047-0.13947 0.61932-0.35015l0.70407 0.10021c0.0735 0.27226 0.30279 0.48876 0.59912 0.53093 0.0287 0.00411 0.05775 0.00605 0.08668 0.00673l0.31597 0.78595c-0.11624 0.10979-0.19756 0.25719-0.22135 0.42439-0.02014 0.14146 0.0028 0.2791 0.05775 0.40054l-0.4196 0.53516c-0.019746-0.00451-0.03966-0.00879-0.060089-0.011697-0.034068-0.00485-0.068706-0.00731-0.10295-0.00731-0.35911 0-0.66812 0.26838-0.71873 0.62423-0.056437 0.39649 0.22027 0.76512 0.61693 0.82162 0.020257 0.0029 0.040687 0.0046 0.061116 0.0058l0.27779 0.691c-0.10802 0.10814-0.18312 0.24994-0.20589 0.40967-0.022484 0.15773 0.00742 0.31448 0.082972 0.45155l-0.46371 0.59142c-0.035552-0.01073-0.071788-0.01969-0.10922-0.025-0.034067-0.0048-0.068706-0.0073-0.10294-0.0073-0.2585 0-0.49047 0.13947-0.61938 0.35021l-0.71331-0.10155c-0.0735-0.27226-0.30279-0.48876-0.59918-0.53093-0.034068-0.0048-0.068706-0.0073-0.10289-0.0073-0.35911 0-0.66812 0.26838-0.71873 0.62423-0.056437 0.39649 0.22027 0.76512 0.61693 0.82162 0.034067 0.0048 0.068706 0.0073 0.10294 0.0073 0.2585 0 0.49047-0.13952 0.61932-0.35021l0.71314 0.10152c0.023741 0.08839 0.064141 0.17245 0.12075 0.24789 0.11653 0.15516 0.28652 0.25565 0.4786 0.28304 0.034068 0.0048 0.068706 0.0073 0.10295 0.0073 0.011414 0 0.022601-1e-3 0.033896-0.0016l0.32116 0.79885c-0.070304 0.09444-0.11898 0.20629-0.13644 0.32892-0.027335 0.19208 0.021741 0.38336 0.13827 0.53858 0.11653 0.15516 0.28652 0.25565 0.4786 0.28304 0.034067 0.0048 0.068706 0.0073 0.10295 0.0073 0.35905 0 0.66806-0.26832 0.71873-0.62418 0.02733-0.19214-0.02174-0.38342-0.13827-0.53858-0.11653-0.15522-0.28652-0.25571-0.4786-0.2831-0.03407-0.0048-0.06871-0.0073-0.10294-0.0073-0.02831 0-0.056209 0.0022-0.083772 0.0055l-0.30552-0.75999c0.088964-0.10255 0.15054-0.22992 0.17068-0.37155 0.019973-0.14032-0.00127-0.28002-0.059291-0.40573l0.48916-0.62383c0.01986 0.0045 0.03983 0.0087 0.0602 0.01158 0.03407 0.0048 0.06871 0.0073 0.10289 0.0073 0.25856 0 0.49053-0.13947 0.61938-0.35015l0.77163 0.10985c0.02374 0.08845 0.06408 0.17245 0.12075 0.24789 0.11653 0.15516 0.28652 0.25565 0.4786 0.28304 0.02716 0.0039 0.05461 0.0058 0.08195 0.0066l0.27876 0.69345c-0.10802 0.10814-0.18318 0.25-0.20589 0.40978-0.05644 0.39654 0.22033 0.76512 0.61693 0.82156 0.03407 0.0049 0.06871 0.0073 0.10294 0.0073 0.2585 0 0.49047-0.13947 0.61938-0.35015l0.70589 0.10043c0.02374 0.08845 0.06414 0.17245 0.12075 0.24789 0.11653 0.15522 0.28652 0.25571 0.47866 0.2831 0.03407 0.0048 0.06871 0.0073 0.10289 0.0073 0.35911 0 0.66812-0.26838 0.71873-0.62423 0.05644-0.39654-0.22033-0.76513-0.61687-0.82156-0.03413-0.0049-0.06876-0.0073-0.10306-0.0073-0.2585 0-0.49042 0.13947-0.61927 0.35015l-0.70612-0.10048c-0.0735-0.27226-0.30279-0.48876-0.59918-0.53093-0.02711-0.0039-0.05461-0.0058-0.08195-0.0066l-0.2787-0.6934c0.10802-0.10814 0.18318-0.24994 0.20589-0.40972 0.023-0.16161-0.01004-0.31808-0.0832-0.45116l0.45806-0.58417c0.0069 0.0012 0.01364 3e-3 0.02066 4e-3 0.03407 0.0048 0.06871 0.0073 0.10289 0.0073 0.2585 0 0.49047-0.13947 0.61938-0.35015l0.76872 0.10939c0.02374 0.08845 0.06414 0.17245 0.12075 0.24789 0.11653 0.15522 0.28652 0.25565 0.4786 0.28304 0.03407 0.0048 0.06871 0.0073 0.10294 0.0073 0.0068 0 0.01352-7.41e-4 0.02037-9.52e-4l0.28133 0.6999c-0.10802 0.10814-0.18312 0.24994-0.20589 0.40978-0.05644 0.3966 0.22033 0.76518 0.61693 0.82162 0.03407 0.0048 0.06871 0.0073 0.10294 0.0073 0.35905 0 0.66806-0.26838 0.71873-0.62418 0.05615-0.3966-0.22061-0.76518-0.61721-0.82179zm-3.7276-1.6182c-0.02545 0.1789 0.01615 0.3566 0.1159 0.5056l-0.42633 0.54366c-0.02773-0.0074-0.05598-0.0137-0.08508-0.01786-0.03407-0.0048-0.06871-0.0073-0.10294-0.0073-0.2585 0-0.49047 0.13952-0.61938 0.35021l-0.77186-0.10985c-0.0735-0.2722-0.30279-0.48876-0.59912-0.53093-0.0287-0.0041-0.05775-0.0061-0.08668-0.0067l-0.27049-0.67285c0.11778-0.11008 0.20018-0.2585 0.22415-0.42702 0.02431-0.17062-0.01341-0.33588-0.09547-0.47352l0.37971-0.48425c0.04394 0.015407 0.08994 0.026934 0.13776 0.033725 0.03407 0.00485 0.06871 0.0073 0.10294 0.0073 0.29622 0 0.55798-0.18284 0.66908-0.44665l0.70235 0.099978c0.01427 0.12731 0.0614 0.24909 0.14032 0.35426 0.11653 0.15516 0.28652 0.25565 0.4786 0.28304 0.03178 0.00451 0.06408 0.00673 0.0961 0.00707l0.22923 0.57019c-0.11481 0.10951-0.1951 0.25594-0.21879 0.42194z" fill="#2d2d2d" fill-opacity=".85" stroke-width=".057065"/>
 </g>
</svg>
