<?xml version="1.0" encoding="UTF-8"?>
<!-- Created with Inkscape (http://www.inkscape.org/) -->
<svg width="64" height="64" version="1.1" xmlns="http://www.w3.org/2000/svg" xmlns:xlink="http://www.w3.org/1999/xlink">
 <defs>
  <filter id="f" x="-.06" y="-.06" width="1.12" height="1.12" color-interpolation-filters="sRGB">
   <feGaussianBlur stdDeviation="0.18520833"/>
  </filter>
  <linearGradient id="linearGradient1049" x1="8.4666" x2="8.4666" y1="284.83" y2="292.24" gradientTransform="matrix(3.7796,0,0,3.7796,375.1,-633.14)" gradientUnits="userSpaceOnUse">
   <stop stop-color="#4c5557" offset="0"/>
   <stop stop-color="#282929" offset="1"/>
  </linearGradient>
  <linearGradient id="linearGradient4024" x1="-128.76" x2="-128.76" y1="59.828" y2="4.7894" gradientTransform="translate(161.96 1e-4)" gradientUnits="userSpaceOnUse">
   <stop stop-color="#00a965" offset="0"/>
   <stop stop-color="#09e58d" offset="1"/>
  </linearGradient>
 </defs>
 <path d="m9.088 4.5001c-2.5416 0-4.5879 2.0463-4.5879 4.5879v45.824c0 2.5416 2.0463 4.5879 4.5879 4.5879h45.824c2.5416 0 4.5879-2.0463 4.5879-4.5879v-45.824c0-2.5416-2.0463-4.5879-4.5879-4.5879z" fill="url(#linearGradient4024)" stroke-linecap="round" stroke-width="1.946"/>
 <path d="m11.66 4.5003v5.2852l12.221 12.221 1.1055-1.1055-2.123-2.125h-2.0371v-2.0352l-6.1094-6.1113v-6.1289zm5.0918 0v5.2852l4.0742 4.0742v-9.3594zm6.1113 0v11.396l3.5644 3.5645 0.6836-0.68555h-1.1934v-14.275zm5.0918 0v13.434l3.2305-3.2305h-0.17578v-10.203zm5.0918 0v8.3398l3.0547-3.0547v-5.2852zm5.0918 0v6.1289l-10.271 10.271 1.1055 1.1055 12.221-12.221v-5.2852zm5.0918 0v6.1289l-13.684 13.684-0.57421-0.57617-0.57422 0.57617-1.9707-1.9707-1.9726 1.9707-0.57422-0.57617-0.57422 0.57617-13.684-13.684v-5.0547c-1.5553 0.99217-2.898 2.2853-3.916 3.8242v7.2637l-1.207 1.2051v4.166l2.3027 2.3047h9.7637l-7.6055-7.6074a1.5276 1.5276 0 0 1-1.375-1.5195 1.5276 1.5276 0 0 1 1.5273-1.5274 1.5276 1.5276 0 0 1 1.5293 1.5274 1.5276 1.5276 0 0 1-0.0293 0.29297l8.834 8.834h29.031l7.6758-8.7734h3.3457v-1.0976h-3.3457v-4.3867l-8.7734 9.8711h-3.2891l8.7734-9.8711v-5.3848c-0.15658-0.0723-0.32058-0.12938-0.48046-0.19531h-4.0625v6.1289l-13.684 13.684-1.4394-1.4414 13.086-13.086v-5.2852zm-28.75 32.998-9.9805 7.9844v3.4238l5.5938-3.7305v2.1934l-5.5938 3.7285v0.6582h3.4004v5.3418c1.1184 1.0063 2.4098 1.8228 3.8242 2.4023h2.7559v-11.033l6.5801-5.4844h3.2891l-6.5781 5.4844v11.033h4.0723v-4.1934l13.684-13.684 0.57422 0.57422 0.57617-0.57422 1.9707 1.9707 1.9707-1.9707 0.57422 0.57422 0.57617-0.57422 13.682 13.684v2.3828c0.85589-0.67053 1.628-1.4415 2.2949-2.3008l-12.326-12.326 1.4414-1.4394 12.031 12.031c0.22694-0.41283 0.42442-0.84299 0.60742-1.2812v-4.2383l-6.6348-8.4434h-2.1914l-2.1953-2.1934h-13.191l0.24023 0.24023-12.693 12.691a1.5276 1.5276 0 0 1 0.0293 0.29297 1.5276 1.5276 0 0 1-1.5293 1.5273 1.5276 1.5276 0 0 1-1.5274-1.5273 1.5276 1.5276 0 0 1 1.375-1.5195l11.705-11.705zm21.621 6.4316-12.221 12.221v3.3496h3.0547v-4.1934l6.1113-6.1113v-2.0352h2.0371l2.123-2.125zm5.0918 0-1.1055 1.1055 10.271 10.271v4.1934h1.9668c0.37052-0.15134 0.73517-0.31434 1.0879-0.49805v-2.8516zm-2.5449 2.5449-3.5645 3.5644v9.4609h3.0547v-12.342h1.1934zm1.5273 1.5273v11.498h3.0547v-8.2676h0.17578zm-7.1289 4.0742-4.0742 4.0742v3.3496h4.0742zm12.221 1.0195v6.4043h3.0547v-3.3496z" fill="#047b4b"/>
 <path d="m20 13-0.5 2h-0.5v3.9668h-4v0.53321l-2 0.5 2 0.5v0.46681h4v2h-4v0.5332l-2 0.50001 2 0.5v0.4668h4v2h-4v0.5332l-2 0.5 2 0.50001v0.4668h4v2h-4v0.53321l-2 0.5 2 0.5v0.46681h4v2h-4v0.5332l-2 0.50001 2 0.5v0.4668h4v2h-4v0.53321l-2 0.5 2 0.50001v0.4668h4v2h-4v0.5332l-2 0.50001 2 0.5v0.46681h4v4.0332h0.5l0.5 2 0.50001-2h0.5v-4.0332h2v4.0332h0.50001l0.5 2 0.5-2h0.5v-4.0332h2v4.0332h0.5l0.5 2 0.50001-2h0.5v-4.0332h2v4.0332h0.5l0.5 2 0.5-2h0.50001v-4.0332h2v4.0332h0.5l0.50001 2 0.5-2h0.5v-4.0332h2v4.0332h0.5l0.5 2 0.50001-2h0.5v-4.0332h2v4.0332h0.50001l0.5 2 0.5-2h0.50001v-4.0332h4v-0.46681l2-0.5-2-0.50001v-0.5332h-4v-2h4v-0.4668l2-0.50001-2-0.5v-0.53321h-4v-2h4v-0.4668l2-0.5-2-0.50001v-0.5332h-4v-2h4v-0.46681l2-0.5-2-0.5v-0.53321h-4v-2h4v-0.4668l2-0.50001-2-0.5v-0.5332h-4v-2h4v-0.4668l2-0.5-2-0.50001v-0.5332h-4v-2h4v-0.46681l2-0.5-2-0.5v-0.53321h-4v-3.9668h-0.50001l-0.5-2-0.5 2h-0.50001v3.9668h-2v-3.9668h-0.5l-0.50001-2-0.5 2h-0.5v3.9668h-2v-3.9668h-0.5l-0.5-2-0.50001 2h-0.5v3.9668h-2v-3.9668h-0.50001l-0.5-2-0.5 2h-0.5v3.9668h-2v-3.9668h-0.5l-0.50001-2-0.5 2h-0.5v3.9668h-2v-3.9668h-0.5l-0.5-2-0.5 2h-0.50001v3.9668h-2v-3.9668h-0.5zm1 7.9669h2v2h-2zm4 0h2v2h-2zm4 0h2v2h-2zm4 0h2v2h-2zm4 0h2v2h-2zm4 0h2v2h-2zm-20 4h2v2h-2zm4 0h2v2h-2zm4 0h2v2h-2zm4 0h2v2h-2zm4 0h2v2h-2zm4 0h2v2h-2zm-20 4h2v2h-2zm4 0h2v2h-2zm4 0h2v2h-2zm4 0h2v2h-2zm4 0h2v2h-2zm4 0h2v2h-2zm-20 4h2v2h-2zm4 0h2v2h-2zm4 0h2v2h-2zm4 0h2v2h-2zm4 0h2v2h-2zm4 0h2v2h-2zm-20 4h2v2h-2zm4 0h2v2h-2zm4 0h2v2h-2zm4 0h2v2h-2zm4 0h2v2h-2zm4 0h2v2h-2zm-20 4h2v2h-2zm4 0h2v2h-2zm4 0h2v2h-2zm4 0h2v2h-2zm4 0h2v2h-2zm4 0h2v2h-2z" fill="#fae854"/>
 <g transform="translate(-7.3604 .046387)">
  <g transform="translate(-367.74 -425.45)" fill-rule="evenodd">
   <path transform="matrix(3.7796,0,0,3.7796,375.1,-633.14)" d="m5.2917 284.83h6.35c0.29316 0 0.52917 0.236 0.52917 0.52915v6.35c0 0.29315-0.23601 0.52915-0.52917 0.52915h-6.35c-0.29316 0-0.52917-0.236-0.52917-0.52915v-6.35c0-0.29315 0.23601-0.52915 0.52917-0.52915z" filter="url(#f)" opacity=".5"/>
   <g stroke-width="3.7796">
    <path d="m395.1 443.4h24c1.108 0 2 0.89198 2 2v24c0 1.108-0.89202 2-2 2h-24c-1.108 0-2-0.89199-2-2v-24c0-1.108 0.89202-2 2-2z" fill="url(#linearGradient1049)"/>
    <path d="m396.1 445.93a0.5 0.5 0 0 1-0.5 0.50001 0.5 0.5 0 0 1-0.50001-0.50001 0.5 0.5 0 0 1 0.50001-0.5 0.5 0.5 0 0 1 0.5 0.5" opacity=".35" style="paint-order:stroke fill markers"/>
    <path d="m419.1 445.93a0.5 0.5 0 0 1-0.5 0.50001 0.5 0.5 0 0 1-0.5-0.50001 0.5 0.5 0 0 1 0.5-0.5 0.5 0.5 0 0 1 0.5 0.5" opacity=".35" style="paint-order:stroke fill markers"/>
    <path d="m396.1 468.95a0.5 0.5 0 0 1-0.5 0.5 0.5 0.5 0 0 1-0.50001-0.5 0.5 0.5 0 0 1 0.50001-0.50001 0.5 0.5 0 0 1 0.5 0.50001" opacity=".35" style="paint-order:stroke fill markers"/>
    <path d="m419.1 468.95a0.5 0.5 0 0 1-0.5 0.5 0.5 0.5 0 0 1-0.5-0.5 0.5 0.5 0 0 1 0.5-0.50001 0.5 0.5 0 0 1 0.5 0.50001" opacity=".35" style="paint-order:stroke fill markers"/>
   </g>
  </g>
  <path d="m34.36 27.5v2h-1v2h-1v1h1v2h1v1h1v-2h1v-1h2v1h1v1h1v1h1v2h1v-1h1v-2h1v-1h1v-1h1v-1h-1v-1h-1v-1h-1v-2h-1v-1h-1v2h-1v1h-1v1h-1v1h-2v-1h-1v-3z" fill="#c1c1c5" stroke-linecap="round" stroke-width="2"/>
 </g>
</svg>
