<?xml version="1.0" encoding="UTF-8"?>
<svg width="64" height="64" version="1.1" viewBox="0 0 16.933 16.933" xmlns="http://www.w3.org/2000/svg" xmlns:cc="http://creativecommons.org/ns#" xmlns:dc="http://purl.org/dc/elements/1.1/" xmlns:rdf="http://www.w3.org/1999/02/22-rdf-syntax-ns#">
 <defs>
  <linearGradient id="linearGradient1005" x1=".73911" x2="16.388" y1="16.296" y2=".64687" gradientTransform="matrix(.99999 0 0 .99999 .28563 .70601)" gradientUnits="userSpaceOnUse">
   <stop stop-color="#00a0ff" offset="0"/>
   <stop stop-color="#37beff" offset="1"/>
  </linearGradient>
 </defs>
 <metadata>
  <rdf:RDF>
   <cc:Work rdf:about="">
    <dc:format>image/svg+xml</dc:format>
    <dc:type rdf:resource="http://purl.org/dc/dcmitype/StillImage"/>
    <dc:title/>
   </cc:Work>
  </rdf:RDF>
 </metadata>
 <g transform="translate(-.32128 -.69926)">
  <path d="m16.725 9.1659c0 0.95155-0.16749 1.8638-0.47464 2.7093-0.2135 0.58769-0.4944 1.1433-0.83391 1.6572-0.14222 0.21608-0.29514 0.42474-0.45746 0.62529-0.51964 0.6418-1.1372 1.2007-1.8304 1.6543-0.2553 0.16718-0.52065 0.32009-0.79536 0.45712-1.0668 0.5339-2.2712 0.8342-3.5457 0.8342-1.2745 0-2.4789-0.30033-3.5457-0.83423-0.27474-0.13705-0.54041-0.28996-0.79571-0.45712-0.70207-0.45974-1.327-1.0274-1.8508-1.6798-0.16262-0.20216-0.31522-0.41275-0.45746-0.63077-0.33046-0.50538-0.6042-1.0507-0.81349-1.627-0.3071-0.84529-0.47429-1.7572-0.47429-2.7085 0-4.3839 3.5536-7.9375 7.9375-7.9375 2.2005 0 4.1918 0.89548 5.6295 2.3416 0.41436 0.41661 0.78274 0.87929 1.0963 1.3795 0.29644 0.47106 0.54427 0.97581 0.73705 1.5068 0.30718 0.84558 0.47466 1.7579 0.47466 2.7093z" fill="url(#linearGradient1005)" stroke-width=".031006"/>
  <path d="m7.8928 4.4971c-0.14371 0-0.17606 0.00629-0.27077 0.05279-0.13723 0.067379-0.25318 0.18349-0.31414 0.31451-0.064728 0.13916-0.076457 0.35205-0.026609 0.483 0.018942 0.049752 0.19223 0.36288 0.38507 0.69585 0.19285 0.33298 0.3511 0.61791 0.35166 0.6332 5.291e-4 0.015288-0.47477 0.85177-1.0563 1.8588l-1.0573 1.831-1.9197 0.01053-0.10855 0.05063c-0.14139 0.06597-0.26493 0.18895-0.32874 0.32726-0.043238 0.09372-0.051022 0.13398-0.051094 0.26434 0 0.13064 0.00756 0.17011 0.050599 0.26233 0.085733 0.18366 0.25529 0.32525 0.44225 0.36933 0.037819 0.0089 1.4277 0.0168 3.1361 0.01781l3.0681 0.0019 0.03449-0.03816c0.02905-0.03214 0.0343-0.06556 0.03346-0.21258-0.0025-0.44588-0.25972-0.87154-0.61169-1.0125-0.065773-0.02635-0.20618-0.03109-1.1613-0.03918l-1.0865-0.009242 0.31014-0.53369c1.9297-3.3205 2.5529-4.4011 2.5824-4.4775 0.02724-0.070583 0.03331-0.12226 0.02749-0.23519-0.01319-0.25608-0.1405-0.45056-0.36811-0.56232-0.094657-0.046477-0.1271-0.05279-0.27038-0.05279-0.14155 0-0.17768 0.00685-0.27665 0.052541-0.15692 0.072459-0.25181 0.18398-0.44564 0.5238-0.088784 0.15565-0.16706 0.283-0.17395 0.283-0.00688 0-0.084841-0.1271-0.17325-0.28244-0.19478-0.34224-0.27564-0.43794-0.43744-0.51758-0.10924-0.053779-0.13586-0.059328-0.28374-0.059328zm1.8599 2.5425c-0.038328-0.0011642-0.13758 0.096345-0.20646 0.20293-0.23874 0.36938-0.33388 1.1292-0.20106 1.6056 0.025223 0.090474 0.33846 0.64617 1.3613 2.4151 0.7307 1.2637 1.3564 2.3286 1.3905 2.3665 0.18285 0.20309 0.48525 0.26269 0.7439 0.1466 0.24435-0.10966 0.39688-0.36981 0.37423-0.63828-0.0056-0.06594-0.02653-0.15653-0.04657-0.2013-0.02005-0.04478-0.19003-0.346-0.37772-0.6694l-0.34126-0.58798 1.1417-0.01809 0.10855-0.05067c0.14139-0.06597 0.26493-0.18895 0.32874-0.32726 0.04324-0.09372 0.05099-0.13394 0.05106-0.26431 0-0.13061-0.0075-0.17013-0.05053-0.26233-0.06593-0.1413-0.18897-0.2649-0.32732-0.32882l-0.11053-0.0511-1.9004-0.01052-0.95845-1.663c-0.52716-0.91467-0.96804-1.6633-0.9797-1.6637zm-4.5273 4.9289c-0.10264 2.15e-4 -0.18947 0.0091-0.22572 0.0277-0.038798 0.01989-0.10801 0.12241-0.26847 0.3977-0.32255 0.55335-0.34692 0.60862-0.3465 0.78584 6.88e-4 0.28059 0.15334 0.50213 0.42032 0.60984 0.12185 0.04917 0.37497 0.03829 0.50019-0.02148 0.16707-0.07974 0.24505-0.18348 0.59788-0.79528l0.32864-0.56989-0.02908-0.05177c-0.077364-0.13777-0.30872-0.27456-0.57695-0.34112-0.11027-0.027366-0.26834-0.041754-0.40031-0.041556z" fill="#fff" stroke-width=".26458"/>
 </g>
</svg>
