<?xml version="1.0" encoding="UTF-8"?>
<svg width="64" height="64" version="1.1" viewBox="0 0 16.933 16.933" xmlns="http://www.w3.org/2000/svg" xmlns:cc="http://creativecommons.org/ns#" xmlns:dc="http://purl.org/dc/elements/1.1/" xmlns:rdf="http://www.w3.org/1999/02/22-rdf-syntax-ns#" xmlns:xlink="http://www.w3.org/1999/xlink">
 <defs>
  <linearGradient id="linearGradient1013" x1="190" x2="190" y1="34" y2="8" gradientTransform="matrix(.22524 0 0 .22524 -34.913 1.6126)" gradientUnits="userSpaceOnUse">
   <stop stop-color="#b3e5fa" offset="0"/>
   <stop stop-color="#fefefd" offset="1"/>
  </linearGradient>
  <linearGradient id="linearGradient1015" x1="190" x2="190" y1="34" y2="8" gradientTransform="matrix(.22524 0 0 .22524 -34.913 1.6126)" gradientUnits="userSpaceOnUse">
   <stop stop-color="#8fd9f9" offset="0"/>
   <stop stop-color="#e1f4fd" offset="1"/>
  </linearGradient>
  <linearGradient id="linearGradient1017" x1="190" x2="212" y1="41" y2="41" gradientTransform="matrix(.22524 0 0 .22524 -34.913 1.6126)" gradientUnits="userSpaceOnUse">
   <stop stop-color="#1a9cf1" offset="0"/>
   <stop stop-color="#2fa1ec" offset="1"/>
  </linearGradient>
  <linearGradient id="linearGradient1019" x1="168" x2="190" y1="41" y2="41" gradientTransform="matrix(.22524 0 0 .22524 -34.913 1.6126)" gradientUnits="userSpaceOnUse">
   <stop stop-color="#329ee5" offset="0"/>
   <stop stop-color="#2696de" offset="1"/>
  </linearGradient>
  <linearGradient id="linearGradient1021" x1="140" x2="175" y1="10" y2="8" gradientTransform="matrix(.22524 0 0 .22524 -31.534 1.6126)" gradientUnits="userSpaceOnUse">
   <stop stop-color="#38bdfd" offset="0"/>
   <stop stop-color="#1795e6" offset="1"/>
  </linearGradient>
  <linearGradient id="linearGradient1023" x1="175" x2="210.48" y1="8.5" y2="8.5" gradientTransform="matrix(.22524 0 0 .22524 -31.534 1.6126)" gradientUnits="userSpaceOnUse">
   <stop stop-color="#27a3ed" offset="0"/>
   <stop stop-color="#3dbfff" offset="1"/>
  </linearGradient>
  <linearGradient id="linearGradient1025" x1="155" x2="190" y1="33.5" y2="33.5" gradientTransform="matrix(.22524 0 0 .22524 -34.913 1.6126)" gradientUnits="userSpaceOnUse">
   <stop stop-color="#1ca5f9" offset="0"/>
   <stop stop-color="#2ca6eb" offset="1"/>
  </linearGradient>
  <linearGradient id="linearGradient1027" x1="190" x2="225" y1="33.5" y2="33.5" gradientTransform="matrix(.22524 0 0 .22524 -34.913 1.6126)" gradientUnits="userSpaceOnUse">
   <stop stop-color="#1993e7" offset="0"/>
   <stop stop-color="#4ac7fe" offset="1"/>
  </linearGradient>
  <linearGradient id="linearGradient1029" x1="189.58" x2="189.97" y1="47.5" y2="47.5" gradientTransform="matrix(.22524 0 0 .22524 -34.913 1.6126)" gradientUnits="userSpaceOnUse">
   <stop stop-color="#2797df" offset="0"/>
   <stop stop-color="#1c9cf1" offset="1"/>
  </linearGradient>
 </defs>
 <metadata>
  <rdf:RDF>
   <cc:Work rdf:about="">
    <dc:format>image/svg+xml</dc:format>
    <dc:type rdf:resource="http://purl.org/dc/dcmitype/StillImage"/>
    <dc:title/>
   </cc:Work>
  </rdf:RDF>
 </metadata>
 <g transform="translate(.52917 .43467)">
  <g stroke-width=".22954">
   <path d="m7.8835 3.4145-4.9553 2.9282v6.3068l4.9553-3.3786z" fill="url(#linearGradient1013)"/>
   <path d="m7.8835 3.4145 4.9553 2.9282v6.3068l-4.9553-3.3786z" fill="url(#linearGradient1015)"/>
   <path d="m7.8835 9.2708 4.9553-2.9282v6.3068l-4.9553 2.7029z" fill="url(#linearGradient1017)"/>
   <path d="m7.8835 9.2708-4.9553-2.9282v6.3068l4.9553 2.7029z" fill="url(#linearGradient1019)"/>
   <path d="m4.7301 0.71159-4.7301 3.1534 2.9282 2.4777 4.9553-2.9282z" fill="url(#linearGradient1021)"/>
   <path d="m11.037 0.71159 4.8381 2.9282-3.0361 2.7029-4.9553-2.9282z" fill="url(#linearGradient1023)"/>
   <path d="m7.8835 9.2708-4.9553-2.9282-2.9282 2.4777 4.7301 3.1534z" fill="url(#linearGradient1025)"/>
   <path d="m7.8835 9.2708 4.9553-2.9282 2.9282 2.4777-4.7301 3.1534z" fill="url(#linearGradient1027)"/>
  </g>
  <path d="m7.8835 9.2708-0.25208 0.22524-0.0018 5.7129 0.25388 0.14342 0.25384-0.14342-0.0018-5.7129z" fill="url(#linearGradient1029)"/>
 </g>
</svg>
