<?xml version="1.0" encoding="UTF-8"?>
<svg width="64" height="64" version="1.1" viewBox="0 0 16.933 16.933" xmlns="http://www.w3.org/2000/svg" xmlns:cc="http://creativecommons.org/ns#" xmlns:dc="http://purl.org/dc/elements/1.1/" xmlns:rdf="http://www.w3.org/1999/02/22-rdf-syntax-ns#">
 <defs>
  <linearGradient id="linearGradient1159-3" x1="-184.75" x2="-170.2" y1="-1.2655" y2="-15.817" gradientTransform="matrix(1 0 0 1 190.48 18.795)" gradientUnits="userSpaceOnUse">
   <stop stop-color="#05a0f0" offset="0"/>
   <stop stop-color="#2db4f0" offset="1"/>
  </linearGradient>
  <filter id="a" color-interpolation-filters="sRGB">
   <feColorMatrix result="result7" values="1 0 0 0 0 0 1 0 0 0 0 0 1 0 0 0 0 0 1 0"/>
   <feGaussianBlur result="result6" stdDeviation="5"/>
   <feComposite in="result6" in2="result7" operator="atop" result="result91"/>
   <feComposite in2="result91" operator="in"/>
  </filter>
 </defs>
 <metadata>
  <rdf:RDF>
   <cc:Work rdf:about="">
    <dc:format>image/svg+xml</dc:format>
    <dc:type rdf:resource="http://purl.org/dc/dcmitype/StillImage"/>
    <dc:title/>
   </cc:Work>
  </rdf:RDF>
 </metadata>
 <g transform="translate(-4.5263 -1.7859)">
  <rect x="5.7168" y="2.9765" width="14.552" height="14.552" ry="1.2138" fill="url(#linearGradient1159-3)"/>
  <g fill="#fff">
   <circle cx="16.388" cy="9.7826" r="1.389" opacity=".25" style="paint-order:stroke markers fill"/>
   <circle cx="16.388" cy="9.7826" r="1.389" opacity=".25" style="paint-order:stroke markers fill"/>
   <circle cx="13.301" cy="9.9426" r="3.0871" style="paint-order:stroke markers fill"/>
   <circle cx="13.213" cy="10.473" r="2.6461" style="paint-order:stroke markers fill"/>
   <circle cx="9.9064" cy="11.173" r="2.469" style="paint-order:stroke markers fill"/>
   <circle cx="10.303" cy="11.533" r="2.117" style="paint-order:stroke markers fill"/>
   <circle cx="16.698" cy="11.793" r="1.852" style="paint-order:stroke markers fill"/>
   <circle cx="16.124" cy="12.063" r="1.587" style="paint-order:stroke markers fill"/>
   <path d="m9.9064 10.253h6.7911v3.3951h-6.7911z" style="paint-order:stroke markers fill"/>
   <path d="m10.303 10.733h5.8211v2.9101h-5.8211z" style="paint-order:stroke markers fill"/>
  </g>
  <path d="m12.956 8.6766a1.426 1.426 0 1 0 0 2.8521 1.426 1.426 0 0 0 0-2.8521zm6e-3 0.62601a0.80502 0.80502 0 0 1 0.80502 0.80502 0.80502 0.80502 0 0 1-0.80502 0.80502 0.80502 0.80502 0 0 1-0.80502-0.80502 0.80502 0.80502 0 0 1 0.80502-0.80502z" fill="#32abff"/>
  <path d="m14.57 10.207c-0.37401 0-0.70801 0.148-0.96202 0.38201l0.40801 0.47201a0.85102 0.85102 0 0 1 0.108-0.09 0.71601 0.71601 0 0 1 0.35601-0.127c0.044-4e-3 0.09-2e-3 0.14 0a0.75101 0.75101 0 0 1 0.66301 0.43301 0.82902 0.82902 0 0 1 0.085 0.40201v2e-3a0.31301 0.31301 0 0 0 0.62501 0v-0.051c0-0.024-2e-3 -0.049-4e-3 -0.073l-1e-3 -0.01-1e-3 -0.025h-1e-3a1.421 1.421 0 0 0-1.417-1.315m-3.2541-4e-3a1.426 1.426 0 1 0 0 2.8521 1.426 1.426 0 0 0 0-2.8521zm6e-3 0.62601a0.80502 0.80502 0 0 1 0.80402 0.80502 0.80502 0.80502 0 0 1-0.80402 0.80502 0.80502 0.80502 0 0 1-0.80502-0.80502 0.80502 0.80502 0 0 1 0.80502-0.80502z" fill="#32abff"/>
  <path transform="matrix(.20374 0 0 .20374 9.8884 8.6726)" d="m6.973 7.471c-0.365 0-0.744 0.04-1.094 0.094a2.842 2.842 0 0 1 1.719 2.594c0 0.16-0.036 0.316-0.063 0.469a3.839 3.839 0 0 1 2.938 2.063c0.791 1.577 0.522 3.357-0.719 4.594 0.962-0.959 2.934-2.702 4.156-3.844-0.512-3.375-3.409-5.969-6.938-5.969z" fill="#f44" filter="url(#a)"/>
  <path d="m11.934 12.733-0.65201 0.026 2.295-2.13 0.41001 0.46001-1.78 1.653z" fill="#32abff"/>
  <circle cx="15.694" cy="12.513" r=".30601" fill="#32abff"/>
 </g>
</svg>
