<?xml version="1.0" encoding="UTF-8"?>
<svg width="64" height="64" version="1.1" viewBox="0 0 16.933 16.933" xmlns="http://www.w3.org/2000/svg" xmlns:cc="http://creativecommons.org/ns#" xmlns:dc="http://purl.org/dc/elements/1.1/" xmlns:rdf="http://www.w3.org/1999/02/22-rdf-syntax-ns#">
 <defs>
  <linearGradient id="a-3" x1="99.036" x2="99.036" y1="11.64" y2="199.84" gradientTransform="matrix(.079375 0 0 .079375 .99219 1.8425)" gradientUnits="userSpaceOnUse">
   <stop stop-color="#ff4b00" offset="0"/>
   <stop stop-color="#f50f2d" offset="1"/>
  </linearGradient>
 </defs>
 <metadata>
  <rdf:RDF>
   <cc:Work rdf:about="">
    <dc:format>image/svg+xml</dc:format>
    <dc:type rdf:resource="http://purl.org/dc/dcmitype/StillImage"/>
    <dc:title/>
   </cc:Work>
  </rdf:RDF>
 </metadata>
 <g transform="translate(-.46302 -1.3135)">
  <circle cx="8.9297" cy="9.7801" r="7.9375" color="#000000" fill="url(#a-3)" stroke-width=".26458"/>
  <path d="m11.396 7.3049-1.0861 1.6418-1.1226-1.6418h2.2086m-1.2585 2.0173h-2.4095l1.2045 4.5816 1.2047-4.5816m-2.329-0.26908h2.2479l-1.1253-1.6443-1.1253 1.6443m-0.25292-0.10641 1.1226-1.6418h-2.2083l1.0861 1.6418m1.1226 5.0446-1.2273-4.668h-2.6443l3.8716 4.668m-3.8677-4.937h2.4939l-1.0863-1.6421-1.4067 1.6421m6.8367-1.6393-1.0844 1.6393h2.4897l-1.4039-1.6393m-1.2312 1.9081-1.2273 4.6677 3.8674-4.6677h-2.6398" fill="#eceff2" stroke-width=".27855"/>
 </g>
</svg>
