<?xml version="1.0" encoding="UTF-8" standalone="no"?>
<svg
   xmlns:dc="http://purl.org/dc/elements/1.1/"
   xmlns:cc="http://creativecommons.org/ns#"
   xmlns:rdf="http://www.w3.org/1999/02/22-rdf-syntax-ns#"
   xmlns:svg="http://www.w3.org/2000/svg"
   xmlns="http://www.w3.org/2000/svg"
   xmlns:sodipodi="http://sodipodi.sourceforge.net/DTD/sodipodi-0.dtd"
   xmlns:inkscape="http://www.inkscape.org/namespaces/inkscape"
   version="1.1"
   id="svg2"
   width="64"
   height="64"
   viewBox="0 0 64 64"
   sodipodi:docname="beryl.svg"
   inkscape:version="1.0.2 (e86c870879, 2021-01-15)">
  <metadata
     id="metadata8">
    <rdf:RDF>
      <cc:Work
         rdf:about="">
        <dc:format>image/svg+xml</dc:format>
        <dc:type
           rdf:resource="http://purl.org/dc/dcmitype/StillImage" />
        <dc:title></dc:title>
      </cc:Work>
    </rdf:RDF>
  </metadata>
  <defs
     id="defs6">
    <linearGradient
       y2="1015.36"
       x2="0"
       y1="1061.36"
       gradientUnits="userSpaceOnUse"
       id="0">
      <stop
         id="stop4544"
         stop-color="#ec396c" />
      <stop
         id="stop4546"
         stop-color="#ff709a"
         offset="1" />
    </linearGradient>
    <filter
       id="c"
       x="-.036"
       y="-.036"
       width="1.072"
       height="1.072"
       color-interpolation-filters="sRGB">
      <feGaussianBlur
         stdDeviation="0.41999874"
         id="feGaussianBlur2" />
    </filter>
    <linearGradient
       id="a"
       x1="400.57"
       x2="400.57"
       y1="545.8"
       y2="517.8"
       gradientTransform="matrix(1.4286,0,0,1.4286,-163.67,-235.91)"
       gradientUnits="userSpaceOnUse">
      <stop
         stop-color="#e02d2d"
         offset="0"
         id="stop5" />
      <stop
         stop-color="#f75151"
         offset="1"
         id="stop7" />
    </linearGradient>
    <filter
       id="b"
       x="-.046"
       y="-.029571"
       width="1.092"
       height="1.0591"
       color-interpolation-filters="sRGB">
      <feGaussianBlur
         stdDeviation="0.345"
         id="feGaussianBlur10" />
    </filter>
    <filter
       id="b-3"
       x="-.06"
       y="-.06"
       width="1.12"
       height="1.12"
       color-interpolation-filters="sRGB">
      <feGaussianBlur
         stdDeviation="0.6"
         id="feGaussianBlur910" />
    </filter>
    <linearGradient
       id="a-3"
       x1="99.036"
       x2="99.036"
       y1="11.64"
       y2="199.84"
       gradientTransform="matrix(0.3,0,0,0.3,1.999996,1.9994984)"
       gradientUnits="userSpaceOnUse">
      <stop
         stop-color="#ff4b00"
         offset="0"
         id="stop913" />
      <stop
         stop-color="#f50f2d"
         offset="1"
         id="stop915" />
    </linearGradient>
  </defs>
  <sodipodi:namedview
     pagecolor="#ffffff"
     bordercolor="#666666"
     borderopacity="1"
     objecttolerance="10"
     gridtolerance="10"
     guidetolerance="10"
     inkscape:pageopacity="0"
     inkscape:pageshadow="2"
     inkscape:window-width="1920"
     inkscape:window-height="938"
     id="namedview4"
     showgrid="false"
     inkscape:zoom="6.1146239"
     inkscape:cx="55.571101"
     inkscape:cy="36.235721"
     inkscape:window-x="0"
     inkscape:window-y="38"
     inkscape:window-maximized="1"
     inkscape:current-layer="svg2"
     inkscape:document-rotation="0" />
  <style
     type="text/css"
     id="style930">.st0{opacity:0.15;fill:#45413C;}
	.st1{fill:#FFE500;}
	.st2{fill:#EBCB00;}
	.st3{fill:none;stroke:#45413C;stroke-linecap:round;stroke-linejoin:round;stroke-miterlimit:10;}
	.st4{fill:#FFAA54;}
	.st5{fill:#FF8A14;}
	.st6{fill:#FFB0CA;stroke:#45413C;stroke-linecap:round;stroke-linejoin:round;stroke-miterlimit:10;}
	.st7{fill:#FF87AF;stroke:#45413C;stroke-linecap:round;stroke-linejoin:round;stroke-miterlimit:10;}
	.st8{fill:#FFCC99;}
	.st9{fill:#FFFFFF;}
	.st10{fill:#F0F0F0;}
	.st11{fill:#BF8256;}
	.st12{fill:#915E3A;}
	.st13{fill:#DEA47A;}
	.st14{fill:#F0D5A8;}
	.st15{fill:#DEBB7E;}
	.st16{fill:#F7E5C6;}
	.st17{fill:#FF8A14;stroke:#45413C;stroke-linecap:round;stroke-linejoin:round;stroke-miterlimit:10;}
	.st18{fill:#FFF5E3;}
	.st19{fill:#FFF48C;}
	.st20{fill:#FFFACF;}
	.st21{fill:#FFFCE5;}
	.st22{fill:#FF87AF;}
	.st23{fill:#FFB0CA;}
	.st24{fill:#FFE500;stroke:#45413C;stroke-linecap:round;stroke-linejoin:round;stroke-miterlimit:10;}
	.st25{fill:#9CEB60;stroke:#45413C;stroke-linecap:round;stroke-linejoin:round;stroke-miterlimit:10;}
	.st26{fill:#FFFACF;stroke:#45413C;stroke-linecap:round;stroke-linejoin:round;stroke-miterlimit:10;}
	.st27{fill:#00F5BC;stroke:#45413C;stroke-linecap:round;stroke-linejoin:round;stroke-miterlimit:10;}
	.st28{fill:#BF8256;stroke:#45413C;stroke-linecap:round;stroke-linejoin:round;stroke-miterlimit:10;}
	.st29{fill:#FFE3CF;stroke:#45413C;stroke-linecap:round;stroke-linejoin:round;stroke-miterlimit:10;}
	.st30{fill:#FF6242;}
	.st31{fill:#FF866E;}
	.st32{fill:none;stroke:#E04122;stroke-linecap:round;stroke-linejoin:round;stroke-miterlimit:10;}
	.st33{fill:#FFFEF2;stroke:#45413C;stroke-linecap:round;stroke-linejoin:round;stroke-miterlimit:10;}
	.st34{fill:#FF6242;stroke:#45413C;stroke-linecap:round;stroke-linejoin:round;stroke-miterlimit:10;}
	.st35{fill:#FFA694;}
	.st36{fill:#FFFFFF;stroke:#45413C;stroke-linecap:round;stroke-linejoin:round;stroke-miterlimit:10;}
	.st37{fill:#FFFEF2;}
	.st38{fill:#FF6196;}
	.st39{fill:#B89558;}
	.st40{fill:none;stroke:#915E3A;stroke-linecap:round;stroke-linejoin:round;stroke-miterlimit:10;}
	.st41{fill:#DEBB7E;stroke:#45413C;stroke-linecap:round;stroke-linejoin:round;stroke-miterlimit:10;}
	.st42{fill:#6DD627;stroke:#45413C;stroke-linecap:round;stroke-linejoin:round;stroke-miterlimit:10;}
	.st43{fill:#E5F8FF;}
	.st44{fill:#E8F4FA;}
	.st45{fill:#E8F4FA;stroke:#45413C;stroke-linecap:round;stroke-linejoin:round;stroke-miterlimit:10;}
	.st46{fill:#FFCCDD;}
	.st47{fill:#E5F8FF;stroke:#45413C;stroke-linecap:round;stroke-linejoin:round;stroke-miterlimit:10;}
	.st48{fill:#00B8F0;stroke:#45413C;stroke-linecap:round;stroke-linejoin:round;stroke-miterlimit:10;}
	.st49{fill:#00B8F0;}
	.st50{fill:#4ACFFF;}
	.st51{fill:#E04122;}
	.st52{fill:#E04122;stroke:#45413C;stroke-linecap:round;stroke-linejoin:round;stroke-miterlimit:10;}
	.st53{fill:#87898C;}
	.st54{fill:#BDBEC0;}
	.st55{fill:#656769;}
	.st56{fill:#525252;}
	.st57{fill:#FFF48C;stroke:#45413C;stroke-linecap:round;stroke-linejoin:round;stroke-miterlimit:10;}
	.st58{fill:#6DD627;}
	.st59{fill:#EB6D00;}
	.st60{fill:#46B000;}
	.st61{fill:#80DDFF;}
	.st62{fill:#DAEDF7;}
	.st63{fill:#BF8DF2;stroke:#45413C;stroke-linecap:round;stroke-linejoin:round;stroke-miterlimit:10;}
	.st64{fill:#9F5AE5;stroke:#45413C;stroke-linecap:round;stroke-linejoin:round;stroke-miterlimit:10;}
	.st65{fill:#C8FFA1;}
	.st66{fill:#E4FFD1;}
	.st67{fill:#9CEB60;}
	.st68{fill:#E5FEFF;}
	.st69{fill:#B8ECFF;}
	.st70{fill:#E0E0E0;stroke:#45413C;stroke-linecap:round;stroke-linejoin:round;stroke-miterlimit:10;}
	.st71{fill:#E0E0E0;}
	.st72{fill:none;stroke:#4F4B45;stroke-linejoin:round;stroke-miterlimit:10;}
	.st73{fill:none;stroke:#4F4B45;stroke-linecap:round;stroke-linejoin:round;stroke-miterlimit:10;}
	.st74{fill:#E0366F;stroke:#45413C;stroke-linecap:round;stroke-linejoin:round;stroke-miterlimit:10;}
	.st75{fill:none;stroke:#45413C;stroke-miterlimit:10;}
	.st76{fill:#FF866E;stroke:#45413C;stroke-linecap:round;stroke-linejoin:round;stroke-miterlimit:10;}
	.st77{fill:#45413C;stroke:#45413C;stroke-linecap:round;stroke-linejoin:round;stroke-miterlimit:10;}
	.st78{fill:#9F5AE5;}
	.st79{fill:#803EC2;}
	.st80{fill:#803EC2;stroke:#45413C;stroke-linecap:round;stroke-linejoin:round;stroke-miterlimit:10;}
	.st81{fill:#BF8DF2;}
	.st82{fill:#FFAA54;stroke:#45413C;stroke-linecap:round;stroke-linejoin:round;stroke-miterlimit:10;}
	.st83{fill:none;stroke:#45413C;stroke-linejoin:round;stroke-miterlimit:10;}
	.st84{fill:#FFCCDD;stroke:#45413C;stroke-linecap:round;stroke-linejoin:round;stroke-miterlimit:10;}
	.st85{fill:#FF6196;stroke:#45413C;stroke-linecap:round;stroke-linejoin:round;stroke-miterlimit:10;}
	.st86{fill:#FFE5EE;}
	.st87{fill:#F7E5C6;stroke:#45413C;stroke-linecap:round;stroke-linejoin:round;stroke-miterlimit:10;}
	.st88{fill:#E5FFF9;}
	.st89{fill:none;stroke:#45413C;stroke-width:1.0064;stroke-linecap:round;stroke-linejoin:round;stroke-miterlimit:10;}
	.st90{fill:#4AEFF7;}
	.st91{fill:#A6FBFF;}
	.st92{fill:#E5FEFF;stroke:#45413C;stroke-linecap:round;stroke-linejoin:round;stroke-miterlimit:10;}
	.st93{fill:#46B000;stroke:#45413C;stroke-linecap:round;stroke-linejoin:round;stroke-miterlimit:10;}
	.st94{fill:#FFFFFF;stroke:#45413C;stroke-linejoin:round;stroke-miterlimit:10;}
	.st95{fill:#FFFFFF;stroke:#45413C;stroke-miterlimit:10;}
	.st96{fill:#009FD9;}
	.st97{fill:#00DFEB;}
	.st98{fill:#C0DCEB;stroke:#45413C;stroke-linecap:round;stroke-linejoin:round;stroke-miterlimit:10;}
	.st99{fill:#00DFEB;stroke:#45413C;stroke-linecap:round;stroke-linejoin:round;stroke-miterlimit:10;}
	.st100{fill:#FFE5EE;stroke:#45413C;stroke-linecap:round;stroke-linejoin:round;stroke-miterlimit:10;}
	.st101{fill:#8CA4B8;}
	.st102{fill:#ADC4D9;}
	.st103{fill:#656769;stroke:#45413C;stroke-linecap:round;stroke-linejoin:round;stroke-miterlimit:10;}
	.st104{fill:#F0F0F0;stroke:#45413C;stroke-linecap:round;stroke-linejoin:round;stroke-miterlimit:10;}
	.st105{fill:#C0DCEB;}
	.st106{fill:#45413C;}
	.st107{fill:#FFCABF;}
	.st108{fill:#87898C;stroke:#45413C;stroke-linecap:round;stroke-linejoin:round;stroke-miterlimit:10;}
	.st109{fill:#EBCB00;stroke:#45413C;stroke-linecap:round;stroke-linejoin:round;stroke-miterlimit:10;}</style>
  <circle
     cx="32"
     cy="32"
     r="30"
     color="#000000"
     fill="url(#a-3)"
     id="circle920"
     style="fill:url(#a-3)" />
  <g
     transform="matrix(3.7796,0,0,3.7796,-85.59116,-40.235492)"
     fill="#5e4aa6"
     stroke-width="0.26458"
     id="g944">
    <circle
       cx="-330.38"
       cy="-328.51001"
       r="0"
       id="circle932" />
    <circle
       cx="-301.70999"
       cy="-344.42999"
       r="0"
       id="circle934" />
    <circle
       cx="-259.01001"
       cy="-348.26001"
       r="0"
       id="circle936" />
    <circle
       cx="31.886"
       cy="-13.442"
       r="0"
       fill-rule="evenodd"
       id="circle938" />
    <circle
       cx="-257.29001"
       cy="-350.64999"
       r="0"
       id="circle940" />
    <circle
       cx="33.611"
       cy="-15.826"
       r="0"
       fill-rule="evenodd"
       id="circle942" />
  </g>
  <g
     id="g1081"
     transform="matrix(0.48875848,0,0,0.48875848,-58.428085,1.4858249)"
     style="opacity:0.213">
    <path
       id="path987"
       d="M 204.08748,43.290863 195.689,55.986591 187.00835,43.290863 h 17.07913 m -9.73181,15.599331 H 175.7235 l 9.31393,35.429135 9.31609,-35.429135 m -18.00967,-2.08077 h 17.38285 l -8.70219,-12.715116 -8.7022,12.715116 m -1.95584,-0.822833 8.68066,-12.695728 h -17.07698 l 8.39847,12.695728 m 8.68066,39.009097 -9.49056,-36.096877 h -20.44801 l 29.93857,36.096877 M 153.14087,56.818037 h 19.28484 l -8.40064,-12.697879 -10.87774,12.697879 m 52.86799,-12.676339 -8.38555,12.676339 H 216.8823 L 206.02609,44.141698 m -9.52072,14.75496 -9.49056,36.094722 29.90626,-36.094722 h -20.41354"
       inkscape:connector-curvature="0"
       style="fill:none;fill-opacity:1;stroke:#ff009f;stroke-width:0.05;stroke-linecap:round;stroke-linejoin:round;stroke-miterlimit:4;stroke-dasharray:none;stroke-opacity:0.02" />
    <path
       style="fill:none;fill-opacity:1;stroke:#ff009f;stroke-width:0.1;stroke-linecap:round;stroke-linejoin:round;stroke-miterlimit:4;stroke-dasharray:none;stroke-opacity:0.02"
       inkscape:connector-curvature="0"
       d="M 204.08748,43.290863 195.689,55.986591 187.00835,43.290863 h 17.07913 m -9.73181,15.599331 H 175.7235 l 9.31393,35.429135 9.31609,-35.429135 m -18.00967,-2.08077 h 17.38285 l -8.70219,-12.715116 -8.7022,12.715116 m -1.95584,-0.822833 8.68066,-12.695728 h -17.07698 l 8.39847,12.695728 m 8.68066,39.009097 -9.49056,-36.096877 h -20.44801 l 29.93857,36.096877 M 153.14087,56.818037 h 19.28484 l -8.40064,-12.697879 -10.87774,12.697879 m 52.86799,-12.676339 -8.38555,12.676339 H 216.8823 L 206.02609,44.141698 m -9.52072,14.75496 -9.49056,36.094722 29.90626,-36.094722 h -20.41354"
       id="path989" />
    <path
       id="path991"
       d="M 204.08748,43.290863 195.689,55.986591 187.00835,43.290863 h 17.07913 m -9.73181,15.599331 H 175.7235 l 9.31393,35.429135 9.31609,-35.429135 m -18.00967,-2.08077 h 17.38285 l -8.70219,-12.715116 -8.7022,12.715116 m -1.95584,-0.822833 8.68066,-12.695728 h -17.07698 l 8.39847,12.695728 m 8.68066,39.009097 -9.49056,-36.096877 h -20.44801 l 29.93857,36.096877 M 153.14087,56.818037 h 19.28484 l -8.40064,-12.697879 -10.87774,12.697879 m 52.86799,-12.676339 -8.38555,12.676339 H 216.8823 L 206.02609,44.141698 m -9.52072,14.75496 -9.49056,36.094722 29.90626,-36.094722 h -20.41354"
       inkscape:connector-curvature="0"
       style="fill:none;fill-opacity:1;stroke:#ff009f;stroke-width:0.2;stroke-linecap:round;stroke-linejoin:round;stroke-miterlimit:4;stroke-dasharray:none;stroke-opacity:0.02" />
    <path
       style="fill:none;fill-opacity:1;stroke:#ff009f;stroke-width:0.25;stroke-linecap:round;stroke-linejoin:round;stroke-miterlimit:4;stroke-dasharray:none;stroke-opacity:0.02"
       inkscape:connector-curvature="0"
       d="M 204.08748,43.290863 195.689,55.986591 187.00835,43.290863 h 17.07913 m -9.73181,15.599331 H 175.7235 l 9.31393,35.429135 9.31609,-35.429135 m -18.00967,-2.08077 h 17.38285 l -8.70219,-12.715116 -8.7022,12.715116 m -1.95584,-0.822833 8.68066,-12.695728 h -17.07698 l 8.39847,12.695728 m 8.68066,39.009097 -9.49056,-36.096877 h -20.44801 l 29.93857,36.096877 M 153.14087,56.818037 h 19.28484 l -8.40064,-12.697879 -10.87774,12.697879 m 52.86799,-12.676339 -8.38555,12.676339 H 216.8823 L 206.02609,44.141698 m -9.52072,14.75496 -9.49056,36.094722 29.90626,-36.094722 h -20.41354"
       id="path993" />
    <path
       id="path995"
       d="M 204.08748,43.290863 195.689,55.986591 187.00835,43.290863 h 17.07913 m -9.73181,15.599331 H 175.7235 l 9.31393,35.429135 9.31609,-35.429135 m -18.00967,-2.08077 h 17.38285 l -8.70219,-12.715116 -8.7022,12.715116 m -1.95584,-0.822833 8.68066,-12.695728 h -17.07698 l 8.39847,12.695728 m 8.68066,39.009097 -9.49056,-36.096877 h -20.44801 l 29.93857,36.096877 M 153.14087,56.818037 h 19.28484 l -8.40064,-12.697879 -10.87774,12.697879 m 52.86799,-12.676339 -8.38555,12.676339 H 216.8823 L 206.02609,44.141698 m -9.52072,14.75496 -9.49056,36.094722 29.90626,-36.094722 h -20.41354"
       inkscape:connector-curvature="0"
       style="fill:none;fill-opacity:1;stroke:#ff009f;stroke-width:0.3;stroke-linecap:round;stroke-linejoin:round;stroke-miterlimit:4;stroke-dasharray:none;stroke-opacity:0.02" />
    <path
       style="fill:none;fill-opacity:1;stroke:#ff009f;stroke-width:0.35;stroke-linecap:round;stroke-linejoin:round;stroke-miterlimit:4;stroke-dasharray:none;stroke-opacity:0.02"
       inkscape:connector-curvature="0"
       d="M 204.08748,43.290863 195.689,55.986591 187.00835,43.290863 h 17.07913 m -9.73181,15.599331 H 175.7235 l 9.31393,35.429135 9.31609,-35.429135 m -18.00967,-2.08077 h 17.38285 l -8.70219,-12.715116 -8.7022,12.715116 m -1.95584,-0.822833 8.68066,-12.695728 h -17.07698 l 8.39847,12.695728 m 8.68066,39.009097 -9.49056,-36.096877 h -20.44801 l 29.93857,36.096877 M 153.14087,56.818037 h 19.28484 l -8.40064,-12.697879 -10.87774,12.697879 m 52.86799,-12.676339 -8.38555,12.676339 H 216.8823 L 206.02609,44.141698 m -9.52072,14.75496 -9.49056,36.094722 29.90626,-36.094722 h -20.41354"
       id="path997" />
    <path
       id="path999"
       d="M 204.08748,43.290863 195.689,55.986591 187.00835,43.290863 h 17.07913 m -9.73181,15.599331 H 175.7235 l 9.31393,35.429135 9.31609,-35.429135 m -18.00967,-2.08077 h 17.38285 l -8.70219,-12.715116 -8.7022,12.715116 m -1.95584,-0.822833 8.68066,-12.695728 h -17.07698 l 8.39847,12.695728 m 8.68066,39.009097 -9.49056,-36.096877 h -20.44801 l 29.93857,36.096877 M 153.14087,56.818037 h 19.28484 l -8.40064,-12.697879 -10.87774,12.697879 m 52.86799,-12.676339 -8.38555,12.676339 H 216.8823 L 206.02609,44.141698 m -9.52072,14.75496 -9.49056,36.094722 29.90626,-36.094722 h -20.41354"
       inkscape:connector-curvature="0"
       style="fill:none;fill-opacity:1;stroke:#ff009f;stroke-width:0.4;stroke-linecap:round;stroke-linejoin:round;stroke-miterlimit:4;stroke-dasharray:none;stroke-opacity:0.02" />
    <path
       style="fill:none;fill-opacity:1;stroke:#ff009f;stroke-width:0.45;stroke-linecap:round;stroke-linejoin:round;stroke-miterlimit:4;stroke-dasharray:none;stroke-opacity:0.02"
       inkscape:connector-curvature="0"
       d="M 204.08748,43.290863 195.689,55.986591 187.00835,43.290863 h 17.07913 m -9.73181,15.599331 H 175.7235 l 9.31393,35.429135 9.31609,-35.429135 m -18.00967,-2.08077 h 17.38285 l -8.70219,-12.715116 -8.7022,12.715116 m -1.95584,-0.822833 8.68066,-12.695728 h -17.07698 l 8.39847,12.695728 m 8.68066,39.009097 -9.49056,-36.096877 h -20.44801 l 29.93857,36.096877 M 153.14087,56.818037 h 19.28484 l -8.40064,-12.697879 -10.87774,12.697879 m 52.86799,-12.676339 -8.38555,12.676339 H 216.8823 L 206.02609,44.141698 m -9.52072,14.75496 -9.49056,36.094722 29.90626,-36.094722 h -20.41354"
       id="path1001" />
    <path
       id="path1003"
       d="M 204.08748,43.290863 195.689,55.986591 187.00835,43.290863 h 17.07913 m -9.73181,15.599331 H 175.7235 l 9.31393,35.429135 9.31609,-35.429135 m -18.00967,-2.08077 h 17.38285 l -8.70219,-12.715116 -8.7022,12.715116 m -1.95584,-0.822833 8.68066,-12.695728 h -17.07698 l 8.39847,12.695728 m 8.68066,39.009097 -9.49056,-36.096877 h -20.44801 l 29.93857,36.096877 M 153.14087,56.818037 h 19.28484 l -8.40064,-12.697879 -10.87774,12.697879 m 52.86799,-12.676339 -8.38555,12.676339 H 216.8823 L 206.02609,44.141698 m -9.52072,14.75496 -9.49056,36.094722 29.90626,-36.094722 h -20.41354"
       inkscape:connector-curvature="0"
       style="fill:none;fill-opacity:1;stroke:#ff009f;stroke-width:0.5;stroke-linecap:round;stroke-linejoin:round;stroke-miterlimit:4;stroke-dasharray:none;stroke-opacity:0.02" />
    <path
       style="fill:none;fill-opacity:1;stroke:#ff009f;stroke-width:0.55;stroke-linecap:round;stroke-linejoin:round;stroke-miterlimit:4;stroke-dasharray:none;stroke-opacity:0.02"
       inkscape:connector-curvature="0"
       d="M 204.08748,43.290863 195.689,55.986591 187.00835,43.290863 h 17.07913 m -9.73181,15.599331 H 175.7235 l 9.31393,35.429135 9.31609,-35.429135 m -18.00967,-2.08077 h 17.38285 l -8.70219,-12.715116 -8.7022,12.715116 m -1.95584,-0.822833 8.68066,-12.695728 h -17.07698 l 8.39847,12.695728 m 8.68066,39.009097 -9.49056,-36.096877 h -20.44801 l 29.93857,36.096877 M 153.14087,56.818037 h 19.28484 l -8.40064,-12.697879 -10.87774,12.697879 m 52.86799,-12.676339 -8.38555,12.676339 H 216.8823 L 206.02609,44.141698 m -9.52072,14.75496 -9.49056,36.094722 29.90626,-36.094722 h -20.41354"
       id="path1005" />
    <path
       id="path1007"
       d="M 204.08748,43.290863 195.689,55.986591 187.00835,43.290863 h 17.07913 m -9.73181,15.599331 H 175.7235 l 9.31393,35.429135 9.31609,-35.429135 m -18.00967,-2.08077 h 17.38285 l -8.70219,-12.715116 -8.7022,12.715116 m -1.95584,-0.822833 8.68066,-12.695728 h -17.07698 l 8.39847,12.695728 m 8.68066,39.009097 -9.49056,-36.096877 h -20.44801 l 29.93857,36.096877 M 153.14087,56.818037 h 19.28484 l -8.40064,-12.697879 -10.87774,12.697879 m 52.86799,-12.676339 -8.38555,12.676339 H 216.8823 L 206.02609,44.141698 m -9.52072,14.75496 -9.49056,36.094722 29.90626,-36.094722 h -20.41354"
       inkscape:connector-curvature="0"
       style="fill:none;fill-opacity:1;stroke:#ff009f;stroke-width:0.6;stroke-linecap:round;stroke-linejoin:round;stroke-miterlimit:4;stroke-dasharray:none;stroke-opacity:0.02" />
    <path
       style="fill:none;fill-opacity:1;stroke:#ff009f;stroke-width:0.65;stroke-linecap:round;stroke-linejoin:round;stroke-miterlimit:4;stroke-dasharray:none;stroke-opacity:0.02"
       inkscape:connector-curvature="0"
       d="M 204.08748,43.290863 195.689,55.986591 187.00835,43.290863 h 17.07913 m -9.73181,15.599331 H 175.7235 l 9.31393,35.429135 9.31609,-35.429135 m -18.00967,-2.08077 h 17.38285 l -8.70219,-12.715116 -8.7022,12.715116 m -1.95584,-0.822833 8.68066,-12.695728 h -17.07698 l 8.39847,12.695728 m 8.68066,39.009097 -9.49056,-36.096877 h -20.44801 l 29.93857,36.096877 M 153.14087,56.818037 h 19.28484 l -8.40064,-12.697879 -10.87774,12.697879 m 52.86799,-12.676339 -8.38555,12.676339 H 216.8823 L 206.02609,44.141698 m -9.52072,14.75496 -9.49056,36.094722 29.90626,-36.094722 h -20.41354"
       id="path1009" />
    <path
       id="path1011"
       d="M 204.08748,43.290863 195.689,55.986591 187.00835,43.290863 h 17.07913 m -9.73181,15.599331 H 175.7235 l 9.31393,35.429135 9.31609,-35.429135 m -18.00967,-2.08077 h 17.38285 l -8.70219,-12.715116 -8.7022,12.715116 m -1.95584,-0.822833 8.68066,-12.695728 h -17.07698 l 8.39847,12.695728 m 8.68066,39.009097 -9.49056,-36.096877 h -20.44801 l 29.93857,36.096877 M 153.14087,56.818037 h 19.28484 l -8.40064,-12.697879 -10.87774,12.697879 m 52.86799,-12.676339 -8.38555,12.676339 H 216.8823 L 206.02609,44.141698 m -9.52072,14.75496 -9.49056,36.094722 29.90626,-36.094722 h -20.41354"
       inkscape:connector-curvature="0"
       style="fill:none;fill-opacity:1;stroke:#ff009f;stroke-width:0.7;stroke-linecap:round;stroke-linejoin:round;stroke-miterlimit:4;stroke-dasharray:none;stroke-opacity:0.02" />
    <path
       style="fill:none;fill-opacity:1;stroke:#ff009f;stroke-width:0.75;stroke-linecap:round;stroke-linejoin:round;stroke-miterlimit:4;stroke-dasharray:none;stroke-opacity:0.02"
       inkscape:connector-curvature="0"
       d="M 204.08748,43.290863 195.689,55.986591 187.00835,43.290863 h 17.07913 m -9.73181,15.599331 H 175.7235 l 9.31393,35.429135 9.31609,-35.429135 m -18.00967,-2.08077 h 17.38285 l -8.70219,-12.715116 -8.7022,12.715116 m -1.95584,-0.822833 8.68066,-12.695728 h -17.07698 l 8.39847,12.695728 m 8.68066,39.009097 -9.49056,-36.096877 h -20.44801 l 29.93857,36.096877 M 153.14087,56.818037 h 19.28484 l -8.40064,-12.697879 -10.87774,12.697879 m 52.86799,-12.676339 -8.38555,12.676339 H 216.8823 L 206.02609,44.141698 m -9.52072,14.75496 -9.49056,36.094722 29.90626,-36.094722 h -20.41354"
       id="path1013" />
    <path
       id="path1015"
       d="M 204.08748,43.290863 195.689,55.986591 187.00835,43.290863 h 17.07913 m -9.73181,15.599331 H 175.7235 l 9.31393,35.429135 9.31609,-35.429135 m -18.00967,-2.08077 h 17.38285 l -8.70219,-12.715116 -8.7022,12.715116 m -1.95584,-0.822833 8.68066,-12.695728 h -17.07698 l 8.39847,12.695728 m 8.68066,39.009097 -9.49056,-36.096877 h -20.44801 l 29.93857,36.096877 M 153.14087,56.818037 h 19.28484 l -8.40064,-12.697879 -10.87774,12.697879 m 52.86799,-12.676339 -8.38555,12.676339 H 216.8823 L 206.02609,44.141698 m -9.52072,14.75496 -9.49056,36.094722 29.90626,-36.094722 h -20.41354"
       inkscape:connector-curvature="0"
       style="fill:none;fill-opacity:1;stroke:#ff009f;stroke-width:0.8;stroke-linecap:round;stroke-linejoin:round;stroke-miterlimit:4;stroke-dasharray:none;stroke-opacity:0.02" />
    <path
       style="fill:none;fill-opacity:1;stroke:#ff009f;stroke-width:0.85;stroke-linecap:round;stroke-linejoin:round;stroke-miterlimit:4;stroke-dasharray:none;stroke-opacity:0.02"
       inkscape:connector-curvature="0"
       d="M 204.08748,43.290863 195.689,55.986591 187.00835,43.290863 h 17.07913 m -9.73181,15.599331 H 175.7235 l 9.31393,35.429135 9.31609,-35.429135 m -18.00967,-2.08077 h 17.38285 l -8.70219,-12.715116 -8.7022,12.715116 m -1.95584,-0.822833 8.68066,-12.695728 h -17.07698 l 8.39847,12.695728 m 8.68066,39.009097 -9.49056,-36.096877 h -20.44801 l 29.93857,36.096877 M 153.14087,56.818037 h 19.28484 l -8.40064,-12.697879 -10.87774,12.697879 m 52.86799,-12.676339 -8.38555,12.676339 H 216.8823 L 206.02609,44.141698 m -9.52072,14.75496 -9.49056,36.094722 29.90626,-36.094722 h -20.41354"
       id="path1017" />
    <path
       id="path1019"
       d="M 204.08748,43.290863 195.689,55.986591 187.00835,43.290863 h 17.07913 m -9.73181,15.599331 H 175.7235 l 9.31393,35.429135 9.31609,-35.429135 m -18.00967,-2.08077 h 17.38285 l -8.70219,-12.715116 -8.7022,12.715116 m -1.95584,-0.822833 8.68066,-12.695728 h -17.07698 l 8.39847,12.695728 m 8.68066,39.009097 -9.49056,-36.096877 h -20.44801 l 29.93857,36.096877 M 153.14087,56.818037 h 19.28484 l -8.40064,-12.697879 -10.87774,12.697879 m 52.86799,-12.676339 -8.38555,12.676339 H 216.8823 L 206.02609,44.141698 m -9.52072,14.75496 -9.49056,36.094722 29.90626,-36.094722 h -20.41354"
       inkscape:connector-curvature="0"
       style="fill:none;fill-opacity:1;stroke:#ff009f;stroke-width:0.9;stroke-linecap:round;stroke-linejoin:round;stroke-miterlimit:4;stroke-dasharray:none;stroke-opacity:0.02" />
    <path
       style="fill:none;fill-opacity:1;stroke:#ff009f;stroke-width:0.95;stroke-linecap:round;stroke-linejoin:round;stroke-miterlimit:4;stroke-dasharray:none;stroke-opacity:0.02"
       inkscape:connector-curvature="0"
       d="M 204.08748,43.290863 195.689,55.986591 187.00835,43.290863 h 17.07913 m -9.73181,15.599331 H 175.7235 l 9.31393,35.429135 9.31609,-35.429135 m -18.00967,-2.08077 h 17.38285 l -8.70219,-12.715116 -8.7022,12.715116 m -1.95584,-0.822833 8.68066,-12.695728 h -17.07698 l 8.39847,12.695728 m 8.68066,39.009097 -9.49056,-36.096877 h -20.44801 l 29.93857,36.096877 M 153.14087,56.818037 h 19.28484 l -8.40064,-12.697879 -10.87774,12.697879 m 52.86799,-12.676339 -8.38555,12.676339 H 216.8823 L 206.02609,44.141698 m -9.52072,14.75496 -9.49056,36.094722 29.90626,-36.094722 h -20.41354"
       id="path1021" />
    <path
       id="path1023"
       d="M 204.08748,43.290863 195.689,55.986591 187.00835,43.290863 h 17.07913 m -9.73181,15.599331 H 175.7235 l 9.31393,35.429135 9.31609,-35.429135 m -18.00967,-2.08077 h 17.38285 l -8.70219,-12.715116 -8.7022,12.715116 m -1.95584,-0.822833 8.68066,-12.695728 h -17.07698 l 8.39847,12.695728 m 8.68066,39.009097 -9.49056,-36.096877 h -20.44801 l 29.93857,36.096877 M 153.14087,56.818037 h 19.28484 l -8.40064,-12.697879 -10.87774,12.697879 m 52.86799,-12.676339 -8.38555,12.676339 H 216.8823 L 206.02609,44.141698 m -9.52072,14.75496 -9.49056,36.094722 29.90626,-36.094722 h -20.41354"
       inkscape:connector-curvature="0"
       style="fill:none;fill-opacity:1;stroke:#ff009f;stroke-width:1;stroke-linecap:round;stroke-linejoin:round;stroke-miterlimit:4;stroke-dasharray:none;stroke-opacity:0.02" />
    <path
       style="fill:none;fill-opacity:1;stroke:#ff009f;stroke-width:1.1;stroke-linecap:round;stroke-linejoin:round;stroke-miterlimit:4;stroke-dasharray:none;stroke-opacity:0.02"
       inkscape:connector-curvature="0"
       d="M 204.08748,43.290863 195.689,55.986591 187.00835,43.290863 h 17.07913 m -9.73181,15.599331 H 175.7235 l 9.31393,35.429135 9.31609,-35.429135 m -18.00967,-2.08077 h 17.38285 l -8.70219,-12.715116 -8.7022,12.715116 m -1.95584,-0.822833 8.68066,-12.695728 h -17.07698 l 8.39847,12.695728 m 8.68066,39.009097 -9.49056,-36.096877 h -20.44801 l 29.93857,36.096877 M 153.14087,56.818037 h 19.28484 l -8.40064,-12.697879 -10.87774,12.697879 m 52.86799,-12.676339 -8.38555,12.676339 H 216.8823 L 206.02609,44.141698 m -9.52072,14.75496 -9.49056,36.094722 29.90626,-36.094722 h -20.41354"
       id="path1025" />
    <path
       id="path1027"
       d="M 204.08748,43.290863 195.689,55.986591 187.00835,43.290863 h 17.07913 m -9.73181,15.599331 H 175.7235 l 9.31393,35.429135 9.31609,-35.429135 m -18.00967,-2.08077 h 17.38285 l -8.70219,-12.715116 -8.7022,12.715116 m -1.95584,-0.822833 8.68066,-12.695728 h -17.07698 l 8.39847,12.695728 m 8.68066,39.009097 -9.49056,-36.096877 h -20.44801 l 29.93857,36.096877 M 153.14087,56.818037 h 19.28484 l -8.40064,-12.697879 -10.87774,12.697879 m 52.86799,-12.676339 -8.38555,12.676339 H 216.8823 L 206.02609,44.141698 m -9.52072,14.75496 -9.49056,36.094722 29.90626,-36.094722 h -20.41354"
       inkscape:connector-curvature="0"
       style="fill:none;fill-opacity:1;stroke:#ff009f;stroke-width:1.2;stroke-linecap:round;stroke-linejoin:round;stroke-miterlimit:4;stroke-dasharray:none;stroke-opacity:0.02" />
    <path
       style="fill:none;fill-opacity:1;stroke:#ff009f;stroke-width:1.3;stroke-linecap:round;stroke-linejoin:round;stroke-miterlimit:4;stroke-dasharray:none;stroke-opacity:0.02"
       inkscape:connector-curvature="0"
       d="M 204.08748,43.290863 195.689,55.986591 187.00835,43.290863 h 17.07913 m -9.73181,15.599331 H 175.7235 l 9.31393,35.429135 9.31609,-35.429135 m -18.00967,-2.08077 h 17.38285 l -8.70219,-12.715116 -8.7022,12.715116 m -1.95584,-0.822833 8.68066,-12.695728 h -17.07698 l 8.39847,12.695728 m 8.68066,39.009097 -9.49056,-36.096877 h -20.44801 l 29.93857,36.096877 M 153.14087,56.818037 h 19.28484 l -8.40064,-12.697879 -10.87774,12.697879 m 52.86799,-12.676339 -8.38555,12.676339 H 216.8823 L 206.02609,44.141698 m -9.52072,14.75496 -9.49056,36.094722 29.90626,-36.094722 h -20.41354"
       id="path1029" />
    <path
       id="path1031"
       d="M 204.08748,43.290863 195.689,55.986591 187.00835,43.290863 h 17.07913 m -9.73181,15.599331 H 175.7235 l 9.31393,35.429135 9.31609,-35.429135 m -18.00967,-2.08077 h 17.38285 l -8.70219,-12.715116 -8.7022,12.715116 m -1.95584,-0.822833 8.68066,-12.695728 h -17.07698 l 8.39847,12.695728 m 8.68066,39.009097 -9.49056,-36.096877 h -20.44801 l 29.93857,36.096877 M 153.14087,56.818037 h 19.28484 l -8.40064,-12.697879 -10.87774,12.697879 m 52.86799,-12.676339 -8.38555,12.676339 H 216.8823 L 206.02609,44.141698 m -9.52072,14.75496 -9.49056,36.094722 29.90626,-36.094722 h -20.41354"
       inkscape:connector-curvature="0"
       style="fill:none;fill-opacity:1;stroke:#ff009f;stroke-width:1.4;stroke-linecap:round;stroke-linejoin:round;stroke-miterlimit:4;stroke-dasharray:none;stroke-opacity:0.02" />
    <path
       style="fill:none;fill-opacity:1;stroke:#ff009f;stroke-width:1.5;stroke-linecap:round;stroke-linejoin:round;stroke-miterlimit:4;stroke-dasharray:none;stroke-opacity:0.02"
       inkscape:connector-curvature="0"
       d="M 204.08748,43.290863 195.689,55.986591 187.00835,43.290863 h 17.07913 m -9.73181,15.599331 H 175.7235 l 9.31393,35.429135 9.31609,-35.429135 m -18.00967,-2.08077 h 17.38285 l -8.70219,-12.715116 -8.7022,12.715116 m -1.95584,-0.822833 8.68066,-12.695728 h -17.07698 l 8.39847,12.695728 m 8.68066,39.009097 -9.49056,-36.096877 h -20.44801 l 29.93857,36.096877 M 153.14087,56.818037 h 19.28484 l -8.40064,-12.697879 -10.87774,12.697879 m 52.86799,-12.676339 -8.38555,12.676339 H 216.8823 L 206.02609,44.141698 m -9.52072,14.75496 -9.49056,36.094722 29.90626,-36.094722 h -20.41354"
       id="path1033" />
    <path
       id="path1035"
       d="M 204.08748,43.290863 195.689,55.986591 187.00835,43.290863 h 17.07913 m -9.73181,15.599331 H 175.7235 l 9.31393,35.429135 9.31609,-35.429135 m -18.00967,-2.08077 h 17.38285 l -8.70219,-12.715116 -8.7022,12.715116 m -1.95584,-0.822833 8.68066,-12.695728 h -17.07698 l 8.39847,12.695728 m 8.68066,39.009097 -9.49056,-36.096877 h -20.44801 l 29.93857,36.096877 M 153.14087,56.818037 h 19.28484 l -8.40064,-12.697879 -10.87774,12.697879 m 52.86799,-12.676339 -8.38555,12.676339 H 216.8823 L 206.02609,44.141698 m -9.52072,14.75496 -9.49056,36.094722 29.90626,-36.094722 h -20.41354"
       inkscape:connector-curvature="0"
       style="fill:none;fill-opacity:1;stroke:#ff009f;stroke-width:1.6;stroke-linecap:round;stroke-linejoin:round;stroke-miterlimit:4;stroke-dasharray:none;stroke-opacity:0.02" />
    <path
       style="fill:none;fill-opacity:1;stroke:#ff009f;stroke-width:1.8;stroke-linecap:round;stroke-linejoin:round;stroke-miterlimit:4;stroke-dasharray:none;stroke-opacity:0.02"
       inkscape:connector-curvature="0"
       d="M 204.08748,43.290863 195.689,55.986591 187.00835,43.290863 h 17.07913 m -9.73181,15.599331 H 175.7235 l 9.31393,35.429135 9.31609,-35.429135 m -18.00967,-2.08077 h 17.38285 l -8.70219,-12.715116 -8.7022,12.715116 m -1.95584,-0.822833 8.68066,-12.695728 h -17.07698 l 8.39847,12.695728 m 8.68066,39.009097 -9.49056,-36.096877 h -20.44801 l 29.93857,36.096877 M 153.14087,56.818037 h 19.28484 l -8.40064,-12.697879 -10.87774,12.697879 m 52.86799,-12.676339 -8.38555,12.676339 H 216.8823 L 206.02609,44.141698 m -9.52072,14.75496 -9.49056,36.094722 29.90626,-36.094722 h -20.41354"
       id="path1037" />
    <path
       id="path1039"
       d="M 204.08748,43.290863 195.689,55.986591 187.00835,43.290863 h 17.07913 m -9.73181,15.599331 H 175.7235 l 9.31393,35.429135 9.31609,-35.429135 m -18.00967,-2.08077 h 17.38285 l -8.70219,-12.715116 -8.7022,12.715116 m -1.95584,-0.822833 8.68066,-12.695728 h -17.07698 l 8.39847,12.695728 m 8.68066,39.009097 -9.49056,-36.096877 h -20.44801 l 29.93857,36.096877 M 153.14087,56.818037 h 19.28484 l -8.40064,-12.697879 -10.87774,12.697879 m 52.86799,-12.676339 -8.38555,12.676339 H 216.8823 L 206.02609,44.141698 m -9.52072,14.75496 -9.49056,36.094722 29.90626,-36.094722 h -20.41354"
       inkscape:connector-curvature="0"
       style="fill:none;fill-opacity:1;stroke:#ff009f;stroke-width:1.9;stroke-linecap:round;stroke-linejoin:round;stroke-miterlimit:4;stroke-dasharray:none;stroke-opacity:0.02" />
    <path
       style="fill:none;fill-opacity:1;stroke:#ff009f;stroke-width:2;stroke-linecap:round;stroke-linejoin:round;stroke-miterlimit:4;stroke-dasharray:none;stroke-opacity:0.02"
       inkscape:connector-curvature="0"
       d="M 204.08748,43.290863 195.689,55.986591 187.00835,43.290863 h 17.07913 m -9.73181,15.599331 H 175.7235 l 9.31393,35.429135 9.31609,-35.429135 m -18.00967,-2.08077 h 17.38285 l -8.70219,-12.715116 -8.7022,12.715116 m -1.95584,-0.822833 8.68066,-12.695728 h -17.07698 l 8.39847,12.695728 m 8.68066,39.009097 -9.49056,-36.096877 h -20.44801 l 29.93857,36.096877 M 153.14087,56.818037 h 19.28484 l -8.40064,-12.697879 -10.87774,12.697879 m 52.86799,-12.676339 -8.38555,12.676339 H 216.8823 L 206.02609,44.141698 m -9.52072,14.75496 -9.49056,36.094722 29.90626,-36.094722 h -20.41354"
       id="path1041" />
    <path
       id="path1043"
       d="M 204.08748,43.290863 195.689,55.986591 187.00835,43.290863 h 17.07913 m -9.73181,15.599331 H 175.7235 l 9.31393,35.429135 9.31609,-35.429135 m -18.00967,-2.08077 h 17.38285 l -8.70219,-12.715116 -8.7022,12.715116 m -1.95584,-0.822833 8.68066,-12.695728 h -17.07698 l 8.39847,12.695728 m 8.68066,39.009097 -9.49056,-36.096877 h -20.44801 l 29.93857,36.096877 M 153.14087,56.818037 h 19.28484 l -8.40064,-12.697879 -10.87774,12.697879 m 52.86799,-12.676339 -8.38555,12.676339 H 216.8823 L 206.02609,44.141698 m -9.52072,14.75496 -9.49056,36.094722 29.90626,-36.094722 h -20.41354"
       inkscape:connector-curvature="0"
       style="fill:none;fill-opacity:1;stroke:#ff009f;stroke-width:2.1;stroke-linecap:round;stroke-linejoin:round;stroke-miterlimit:4;stroke-dasharray:none;stroke-opacity:0.02" />
    <path
       style="fill:none;fill-opacity:1;stroke:#ff009f;stroke-width:2.2;stroke-linecap:round;stroke-linejoin:round;stroke-miterlimit:4;stroke-dasharray:none;stroke-opacity:0.02"
       inkscape:connector-curvature="0"
       d="M 204.08748,43.290863 195.689,55.986591 187.00835,43.290863 h 17.07913 m -9.73181,15.599331 H 175.7235 l 9.31393,35.429135 9.31609,-35.429135 m -18.00967,-2.08077 h 17.38285 l -8.70219,-12.715116 -8.7022,12.715116 m -1.95584,-0.822833 8.68066,-12.695728 h -17.07698 l 8.39847,12.695728 m 8.68066,39.009097 -9.49056,-36.096877 h -20.44801 l 29.93857,36.096877 M 153.14087,56.818037 h 19.28484 l -8.40064,-12.697879 -10.87774,12.697879 m 52.86799,-12.676339 -8.38555,12.676339 H 216.8823 L 206.02609,44.141698 m -9.52072,14.75496 -9.49056,36.094722 29.90626,-36.094722 h -20.41354"
       id="path1045" />
    <path
       id="path1047"
       d="M 204.08748,43.290863 195.689,55.986591 187.00835,43.290863 h 17.07913 m -9.73181,15.599331 H 175.7235 l 9.31393,35.429135 9.31609,-35.429135 m -18.00967,-2.08077 h 17.38285 l -8.70219,-12.715116 -8.7022,12.715116 m -1.95584,-0.822833 8.68066,-12.695728 h -17.07698 l 8.39847,12.695728 m 8.68066,39.009097 -9.49056,-36.096877 h -20.44801 l 29.93857,36.096877 M 153.14087,56.818037 h 19.28484 l -8.40064,-12.697879 -10.87774,12.697879 m 52.86799,-12.676339 -8.38555,12.676339 H 216.8823 L 206.02609,44.141698 m -9.52072,14.75496 -9.49056,36.094722 29.90626,-36.094722 h -20.41354"
       inkscape:connector-curvature="0"
       style="fill:none;fill-opacity:1;stroke:#ff009f;stroke-width:2.3;stroke-linecap:round;stroke-linejoin:round;stroke-miterlimit:4;stroke-dasharray:none;stroke-opacity:0.02" />
    <path
       style="fill:none;fill-opacity:1;stroke:#ff009f;stroke-width:2.4;stroke-linecap:round;stroke-linejoin:round;stroke-miterlimit:4;stroke-dasharray:none;stroke-opacity:0.02"
       inkscape:connector-curvature="0"
       d="M 204.08748,43.290863 195.689,55.986591 187.00835,43.290863 h 17.07913 m -9.73181,15.599331 H 175.7235 l 9.31393,35.429135 9.31609,-35.429135 m -18.00967,-2.08077 h 17.38285 l -8.70219,-12.715116 -8.7022,12.715116 m -1.95584,-0.822833 8.68066,-12.695728 h -17.07698 l 8.39847,12.695728 m 8.68066,39.009097 -9.49056,-36.096877 h -20.44801 l 29.93857,36.096877 M 153.14087,56.818037 h 19.28484 l -8.40064,-12.697879 -10.87774,12.697879 m 52.86799,-12.676339 -8.38555,12.676339 H 216.8823 L 206.02609,44.141698 m -9.52072,14.75496 -9.49056,36.094722 29.90626,-36.094722 h -20.41354"
       id="path1049" />
    <path
       id="path1051"
       d="M 204.08748,43.290863 195.689,55.986591 187.00835,43.290863 h 17.07913 m -9.73181,15.599331 H 175.7235 l 9.31393,35.429135 9.31609,-35.429135 m -18.00967,-2.08077 h 17.38285 l -8.70219,-12.715116 -8.7022,12.715116 m -1.95584,-0.822833 8.68066,-12.695728 h -17.07698 l 8.39847,12.695728 m 8.68066,39.009097 -9.49056,-36.096877 h -20.44801 l 29.93857,36.096877 M 153.14087,56.818037 h 19.28484 l -8.40064,-12.697879 -10.87774,12.697879 m 52.86799,-12.676339 -8.38555,12.676339 H 216.8823 L 206.02609,44.141698 m -9.52072,14.75496 -9.49056,36.094722 29.90626,-36.094722 h -20.41354"
       inkscape:connector-curvature="0"
       style="fill:none;fill-opacity:1;stroke:#ff009f;stroke-width:2.5;stroke-linecap:round;stroke-linejoin:round;stroke-miterlimit:4;stroke-dasharray:none;stroke-opacity:0.02" />
    <path
       style="fill:none;fill-opacity:1;stroke:#ff009f;stroke-width:2.6;stroke-linecap:round;stroke-linejoin:round;stroke-miterlimit:4;stroke-dasharray:none;stroke-opacity:0.02"
       inkscape:connector-curvature="0"
       d="M 204.08748,43.290863 195.689,55.986591 187.00835,43.290863 h 17.07913 m -9.73181,15.599331 H 175.7235 l 9.31393,35.429135 9.31609,-35.429135 m -18.00967,-2.08077 h 17.38285 l -8.70219,-12.715116 -8.7022,12.715116 m -1.95584,-0.822833 8.68066,-12.695728 h -17.07698 l 8.39847,12.695728 m 8.68066,39.009097 -9.49056,-36.096877 h -20.44801 l 29.93857,36.096877 M 153.14087,56.818037 h 19.28484 l -8.40064,-12.697879 -10.87774,12.697879 m 52.86799,-12.676339 -8.38555,12.676339 H 216.8823 L 206.02609,44.141698 m -9.52072,14.75496 -9.49056,36.094722 29.90626,-36.094722 h -20.41354"
       id="path1053" />
    <path
       id="path1055"
       d="M 204.08748,43.290863 195.689,55.986591 187.00835,43.290863 h 17.07913 m -9.73181,15.599331 H 175.7235 l 9.31393,35.429135 9.31609,-35.429135 m -18.00967,-2.08077 h 17.38285 l -8.70219,-12.715116 -8.7022,12.715116 m -1.95584,-0.822833 8.68066,-12.695728 h -17.07698 l 8.39847,12.695728 m 8.68066,39.009097 -9.49056,-36.096877 h -20.44801 l 29.93857,36.096877 M 153.14087,56.818037 h 19.28484 l -8.40064,-12.697879 -10.87774,12.697879 m 52.86799,-12.676339 -8.38555,12.676339 H 216.8823 L 206.02609,44.141698 m -9.52072,14.75496 -9.49056,36.094722 29.90626,-36.094722 h -20.41354"
       inkscape:connector-curvature="0"
       style="fill:none;fill-opacity:1;stroke:#ff009f;stroke-width:2.7;stroke-linecap:round;stroke-linejoin:round;stroke-miterlimit:4;stroke-dasharray:none;stroke-opacity:0.02" />
    <path
       style="fill:none;fill-opacity:1;stroke:#ff009f;stroke-width:2.8;stroke-linecap:round;stroke-linejoin:round;stroke-miterlimit:4;stroke-dasharray:none;stroke-opacity:0.02"
       inkscape:connector-curvature="0"
       d="M 204.08748,43.290863 195.689,55.986591 187.00835,43.290863 h 17.07913 m -9.73181,15.599331 H 175.7235 l 9.31393,35.429135 9.31609,-35.429135 m -18.00967,-2.08077 h 17.38285 l -8.70219,-12.715116 -8.7022,12.715116 m -1.95584,-0.822833 8.68066,-12.695728 h -17.07698 l 8.39847,12.695728 m 8.68066,39.009097 -9.49056,-36.096877 h -20.44801 l 29.93857,36.096877 M 153.14087,56.818037 h 19.28484 l -8.40064,-12.697879 -10.87774,12.697879 m 52.86799,-12.676339 -8.38555,12.676339 H 216.8823 L 206.02609,44.141698 m -9.52072,14.75496 -9.49056,36.094722 29.90626,-36.094722 h -20.41354"
       id="path1057" />
    <path
       id="path1059"
       d="M 204.08748,43.290863 195.689,55.986591 187.00835,43.290863 h 17.07913 m -9.73181,15.599331 H 175.7235 l 9.31393,35.429135 9.31609,-35.429135 m -18.00967,-2.08077 h 17.38285 l -8.70219,-12.715116 -8.7022,12.715116 m -1.95584,-0.822833 8.68066,-12.695728 h -17.07698 l 8.39847,12.695728 m 8.68066,39.009097 -9.49056,-36.096877 h -20.44801 l 29.93857,36.096877 M 153.14087,56.818037 h 19.28484 l -8.40064,-12.697879 -10.87774,12.697879 m 52.86799,-12.676339 -8.38555,12.676339 H 216.8823 L 206.02609,44.141698 m -9.52072,14.75496 -9.49056,36.094722 29.90626,-36.094722 h -20.41354"
       inkscape:connector-curvature="0"
       style="fill:none;fill-opacity:1;stroke:#ff009f;stroke-width:2.9;stroke-linecap:round;stroke-linejoin:round;stroke-miterlimit:4;stroke-dasharray:none;stroke-opacity:0.02" />
    <path
       style="fill:none;fill-opacity:1;stroke:#ff009f;stroke-width:3;stroke-linecap:round;stroke-linejoin:round;stroke-miterlimit:4;stroke-dasharray:none;stroke-opacity:0.02"
       inkscape:connector-curvature="0"
       d="M 204.08748,43.290863 195.689,55.986591 187.00835,43.290863 h 17.07913 m -9.73181,15.599331 H 175.7235 l 9.31393,35.429135 9.31609,-35.429135 m -18.00967,-2.08077 h 17.38285 l -8.70219,-12.715116 -8.7022,12.715116 m -1.95584,-0.822833 8.68066,-12.695728 h -17.07698 l 8.39847,12.695728 m 8.68066,39.009097 -9.49056,-36.096877 h -20.44801 l 29.93857,36.096877 M 153.14087,56.818037 h 19.28484 l -8.40064,-12.697879 -10.87774,12.697879 m 52.86799,-12.676339 -8.38555,12.676339 H 216.8823 L 206.02609,44.141698 m -9.52072,14.75496 -9.49056,36.094722 29.90626,-36.094722 h -20.41354"
       id="path1061" />
    <path
       id="path1063"
       d="M 204.08748,43.290863 195.689,55.986591 187.00835,43.290863 h 17.07913 m -9.73181,15.599331 H 175.7235 l 9.31393,35.429135 9.31609,-35.429135 m -18.00967,-2.08077 h 17.38285 l -8.70219,-12.715116 -8.7022,12.715116 m -1.95584,-0.822833 8.68066,-12.695728 h -17.07698 l 8.39847,12.695728 m 8.68066,39.009097 -9.49056,-36.096877 h -20.44801 l 29.93857,36.096877 M 153.14087,56.818037 h 19.28484 l -8.40064,-12.697879 -10.87774,12.697879 m 52.86799,-12.676339 -8.38555,12.676339 H 216.8823 L 206.02609,44.141698 m -9.52072,14.75496 -9.49056,36.094722 29.90626,-36.094722 h -20.41354"
       inkscape:connector-curvature="0"
       style="fill:none;fill-opacity:1;stroke:#ff009f;stroke-width:3.2;stroke-linecap:round;stroke-linejoin:round;stroke-miterlimit:4;stroke-dasharray:none;stroke-opacity:0.02" />
    <path
       style="fill:none;fill-opacity:1;stroke:#ff009f;stroke-width:3.4;stroke-linecap:round;stroke-linejoin:round;stroke-miterlimit:4;stroke-dasharray:none;stroke-opacity:0.02"
       inkscape:connector-curvature="0"
       d="M 204.08748,43.290863 195.689,55.986591 187.00835,43.290863 h 17.07913 m -9.73181,15.599331 H 175.7235 l 9.31393,35.429135 9.31609,-35.429135 m -18.00967,-2.08077 h 17.38285 l -8.70219,-12.715116 -8.7022,12.715116 m -1.95584,-0.822833 8.68066,-12.695728 h -17.07698 l 8.39847,12.695728 m 8.68066,39.009097 -9.49056,-36.096877 h -20.44801 l 29.93857,36.096877 M 153.14087,56.818037 h 19.28484 l -8.40064,-12.697879 -10.87774,12.697879 m 52.86799,-12.676339 -8.38555,12.676339 H 216.8823 L 206.02609,44.141698 m -9.52072,14.75496 -9.49056,36.094722 29.90626,-36.094722 h -20.41354"
       id="path1065" />
    <path
       id="path1067"
       d="M 204.08748,43.290863 195.689,55.986591 187.00835,43.290863 h 17.07913 m -9.73181,15.599331 H 175.7235 l 9.31393,35.429135 9.31609,-35.429135 m -18.00967,-2.08077 h 17.38285 l -8.70219,-12.715116 -8.7022,12.715116 m -1.95584,-0.822833 8.68066,-12.695728 h -17.07698 l 8.39847,12.695728 m 8.68066,39.009097 -9.49056,-36.096877 h -20.44801 l 29.93857,36.096877 M 153.14087,56.818037 h 19.28484 l -8.40064,-12.697879 -10.87774,12.697879 m 52.86799,-12.676339 -8.38555,12.676339 H 216.8823 L 206.02609,44.141698 m -9.52072,14.75496 -9.49056,36.094722 29.90626,-36.094722 h -20.41354"
       inkscape:connector-curvature="0"
       style="fill:none;fill-opacity:1;stroke:#ff009f;stroke-width:3.6;stroke-linecap:round;stroke-linejoin:round;stroke-miterlimit:4;stroke-dasharray:none;stroke-opacity:0.02" />
    <path
       style="fill:none;fill-opacity:1;stroke:#ff009f;stroke-width:3.8;stroke-linecap:round;stroke-linejoin:round;stroke-miterlimit:4;stroke-dasharray:none;stroke-opacity:0.02"
       inkscape:connector-curvature="0"
       d="M 204.08748,43.290863 195.689,55.986591 187.00835,43.290863 h 17.07913 m -9.73181,15.599331 H 175.7235 l 9.31393,35.429135 9.31609,-35.429135 m -18.00967,-2.08077 h 17.38285 l -8.70219,-12.715116 -8.7022,12.715116 m -1.95584,-0.822833 8.68066,-12.695728 h -17.07698 l 8.39847,12.695728 m 8.68066,39.009097 -9.49056,-36.096877 h -20.44801 l 29.93857,36.096877 M 153.14087,56.818037 h 19.28484 l -8.40064,-12.697879 -10.87774,12.697879 m 52.86799,-12.676339 -8.38555,12.676339 H 216.8823 L 206.02609,44.141698 m -9.52072,14.75496 -9.49056,36.094722 29.90626,-36.094722 h -20.41354"
       id="path1069" />
    <path
       id="path1071"
       d="M 204.08748,43.290863 195.689,55.986591 187.00835,43.290863 h 17.07913 m -9.73181,15.599331 H 175.7235 l 9.31393,35.429135 9.31609,-35.429135 m -18.00967,-2.08077 h 17.38285 l -8.70219,-12.715116 -8.7022,12.715116 m -1.95584,-0.822833 8.68066,-12.695728 h -17.07698 l 8.39847,12.695728 m 8.68066,39.009097 -9.49056,-36.096877 h -20.44801 l 29.93857,36.096877 M 153.14087,56.818037 h 19.28484 l -8.40064,-12.697879 -10.87774,12.697879 m 52.86799,-12.676339 -8.38555,12.676339 H 216.8823 L 206.02609,44.141698 m -9.52072,14.75496 -9.49056,36.094722 29.90626,-36.094722 h -20.41354"
       inkscape:connector-curvature="0"
       style="fill:none;fill-opacity:1;stroke:#ff009f;stroke-width:4;stroke-linecap:round;stroke-linejoin:round;stroke-miterlimit:4;stroke-dasharray:none;stroke-opacity:0.02" />
    <path
       style="fill:none;fill-opacity:1;stroke:#ff009f;stroke-width:4.2;stroke-linecap:round;stroke-linejoin:round;stroke-miterlimit:4;stroke-dasharray:none;stroke-opacity:0.02"
       inkscape:connector-curvature="0"
       d="M 204.08748,43.290863 195.689,55.986591 187.00835,43.290863 h 17.07913 m -9.73181,15.599331 H 175.7235 l 9.31393,35.429135 9.31609,-35.429135 m -18.00967,-2.08077 h 17.38285 l -8.70219,-12.715116 -8.7022,12.715116 m -1.95584,-0.822833 8.68066,-12.695728 h -17.07698 l 8.39847,12.695728 m 8.68066,39.009097 -9.49056,-36.096877 h -20.44801 l 29.93857,36.096877 M 153.14087,56.818037 h 19.28484 l -8.40064,-12.697879 -10.87774,12.697879 m 52.86799,-12.676339 -8.38555,12.676339 H 216.8823 L 206.02609,44.141698 m -9.52072,14.75496 -9.49056,36.094722 29.90626,-36.094722 h -20.41354"
       id="path1073" />
    <path
       id="path1075"
       d="M 204.08748,43.290863 195.689,55.986591 187.00835,43.290863 h 17.07913 m -9.73181,15.599331 H 175.7235 l 9.31393,35.429135 9.31609,-35.429135 m -18.00967,-2.08077 h 17.38285 l -8.70219,-12.715116 -8.7022,12.715116 m -1.95584,-0.822833 8.68066,-12.695728 h -17.07698 l 8.39847,12.695728 m 8.68066,39.009097 -9.49056,-36.096877 h -20.44801 l 29.93857,36.096877 M 153.14087,56.818037 h 19.28484 l -8.40064,-12.697879 -10.87774,12.697879 m 52.86799,-12.676339 -8.38555,12.676339 H 216.8823 L 206.02609,44.141698 m -9.52072,14.75496 -9.49056,36.094722 29.90626,-36.094722 h -20.41354"
       inkscape:connector-curvature="0"
       style="fill:none;fill-opacity:1;stroke:#ff009f;stroke-width:4.4;stroke-linecap:round;stroke-linejoin:round;stroke-miterlimit:4;stroke-dasharray:none;stroke-opacity:0.02" />
    <path
       style="fill:none;fill-opacity:1;stroke:#ff009f;stroke-width:4.6;stroke-linecap:round;stroke-linejoin:round;stroke-miterlimit:4;stroke-dasharray:none;stroke-opacity:0.02"
       inkscape:connector-curvature="0"
       d="M 204.08748,43.290863 195.689,55.986591 187.00835,43.290863 h 17.07913 m -9.73181,15.599331 H 175.7235 l 9.31393,35.429135 9.31609,-35.429135 m -18.00967,-2.08077 h 17.38285 l -8.70219,-12.715116 -8.7022,12.715116 m -1.95584,-0.822833 8.68066,-12.695728 h -17.07698 l 8.39847,12.695728 m 8.68066,39.009097 -9.49056,-36.096877 h -20.44801 l 29.93857,36.096877 M 153.14087,56.818037 h 19.28484 l -8.40064,-12.697879 -10.87774,12.697879 m 52.86799,-12.676339 -8.38555,12.676339 H 216.8823 L 206.02609,44.141698 m -9.52072,14.75496 -9.49056,36.094722 29.90626,-36.094722 h -20.41354"
       id="path1077" />
    <path
       id="path1079"
       d="M 204.08748,43.290863 195.689,55.986591 187.00835,43.290863 h 17.07913 m -9.73181,15.599331 H 175.7235 l 9.31393,35.429135 9.31609,-35.429135 m -18.00967,-2.08077 h 17.38285 l -8.70219,-12.715116 -8.7022,12.715116 m -1.95584,-0.822833 8.68066,-12.695728 h -17.07698 l 8.39847,12.695728 m 8.68066,39.009097 -9.49056,-36.096877 h -20.44801 l 29.93857,36.096877 M 153.14087,56.818037 h 19.28484 l -8.40064,-12.697879 -10.87774,12.697879 m 52.86799,-12.676339 -8.38555,12.676339 H 216.8823 L 206.02609,44.141698 m -9.52072,14.75496 -9.49056,36.094722 29.90626,-36.094722 h -20.41354"
       inkscape:connector-curvature="0"
       style="fill:none;fill-opacity:1;stroke:#ff009f;stroke-width:4.8;stroke-linecap:round;stroke-linejoin:round;stroke-miterlimit:4;stroke-dasharray:none;stroke-opacity:0.02" />
  </g>
  <path
     id="path1083"
     d="m 41.321399,22.644601 -4.10483,6.205145 -4.24274,-6.205145 h 8.34757 m -4.7565,7.624306 H 27.45826 l 4.552264,17.31629 4.553315,-17.31629 m -8.802376,-1.016994 h 8.496016 l -4.253271,-6.214621 -4.253273,6.214621 m -0.955932,-0.402167 4.242743,-6.205145 h -8.346519 l 4.104828,6.205145 M 31.0388,47.915773 26.400206,30.273118 H 16.406071 L 31.0388,47.915773 M 16.42081,29.256123 h 9.425628 l -4.105881,-6.206197 -5.316589,6.206197 m 25.839681,-6.195669 -4.09851,6.195669 h 9.40984 l -5.30607,-6.195669 m -4.65333,7.211612 -4.63859,17.641602 14.61694,-17.641602 h -9.9773"
     inkscape:connector-curvature="0"
     style="fill:#eceff2;fill-opacity:1;stroke-width:1.05279" />
</svg>
