<?xml version="1.0" encoding="UTF-8"?>
<svg width="64" height="64" version="1.1" viewBox="0 0 16.933 16.933" xmlns="http://www.w3.org/2000/svg" xmlns:cc="http://creativecommons.org/ns#" xmlns:dc="http://purl.org/dc/elements/1.1/" xmlns:rdf="http://www.w3.org/1999/02/22-rdf-syntax-ns#">
 <defs>
  <linearGradient id="linearGradient3034" x1="4.5" x2="59.5" y1="59.5" y2="4.5" gradientTransform="matrix(.26458 0 0 .26458 2.8797 1.7348)" gradientUnits="userSpaceOnUse">
   <stop stop-color="#fe6f06" offset="0"/>
   <stop stop-color="#ff9002" offset="1"/>
  </linearGradient>
 </defs>
 <metadata>
  <rdf:RDF>
   <cc:Work rdf:about="">
    <dc:format>image/svg+xml</dc:format>
    <dc:type rdf:resource="http://purl.org/dc/dcmitype/StillImage"/>
    <dc:title/>
   </cc:Work>
  </rdf:RDF>
 </metadata>
 <g transform="translate(-4.0065 -.32128)">
  <rect transform="rotate(-6.792)" x="4.0703" y="2.9254" width="14.552" height="14.552" ry="1.3229" fill="url(#linearGradient3034)" stroke-width=".26458"/>
  <path d="m10.118 4.9076 0.37597 1.4032c-0.1706 0.053232-0.48908 0.13105-0.65431 0.17532l-1.0997 0.29464 0.18799 0.7016s0.60013-0.17208 0.59333-0.15898c0.3215-0.091408 0.4871 0.1154 0.5624 0.26273l0.93057 3.4729c0.01409 0.10208 0.09025 0.34428-0.13347 0.41174 0.01286 0.0063-0.82492 0.22104-0.82492 0.22104l0.18799 0.7016 1.1414-0.30586c0.19112-0.05873 0.42608-0.11417 0.61251-0.16412l0.37597 1.4032 0.6981-0.20101-0.37248-1.3902 0.69064-0.18506 0.39791 1.3973 0.7016-0.18799-0.39791-1.3973c2.1157-0.5669 1.8337-1.6193 1.6925-2.1461-0.14081-0.52549-0.5511-1.1668-1.3812-0.94509 0.47929-0.12771 0.48948-0.97957 0.3256-1.5912-0.21211-0.79161-1.0776-1.2152-2.1299-0.93319l-0.37597-1.4032-0.7016 0.18799 0.37597 1.4032c-0.20951 0.056137-0.49096 0.12328-0.7016 0.18799l-0.37597-1.4032zm1.2656 1.9168c0.7016-0.18799 1.7541-0.46998 1.989 0.40701 0.23513 0.87701-0.8174 1.159-1.519 1.3469zm0.65797 2.4555c1.4032-0.37595 2.1049-0.56399 2.3397 0.313 0.23515 0.87701-0.46659 1.065-1.8698 1.4409z" fill="#fff" stroke-width=".269"/>
 </g>
</svg>
