<?xml version="1.0" encoding="UTF-8"?>
<svg width="64" height="64" version="1.1" viewBox="0 0 16.933 16.933" xmlns="http://www.w3.org/2000/svg" xmlns:cc="http://creativecommons.org/ns#" xmlns:dc="http://purl.org/dc/elements/1.1/" xmlns:rdf="http://www.w3.org/1999/02/22-rdf-syntax-ns#">
 <defs>
  <linearGradient id="linearGradient2642" x1="-1.7406" x2="57.606" y1="33.659" y2="40.728" gradientTransform="matrix(.016817 0 0 .016817 .74511 1.9036)" gradientUnits="userSpaceOnUse">
   <stop stop-color="#353535" offset="0"/>
   <stop stop-color="#6d6d6d" offset="1"/>
  </linearGradient>
 </defs>
 <metadata>
  <rdf:RDF>
   <cc:Work rdf:about="">
    <dc:format>image/svg+xml</dc:format>
    <dc:type rdf:resource="http://purl.org/dc/dcmitype/StillImage"/>
    <dc:title/>
   </cc:Work>
  </rdf:RDF>
 </metadata>
 <g transform="translate(-1.1245 -1.9277)">
  <rect transform="rotate(-6.792)" x="1.0185" y="4.1797" width="14.552" height="14.552" ry="1.3229" fill="url(#linearGradient2642)" stroke-width=".26458"/>
  <path d="m7.2768 6.3849a4.6321 4.6321 0 0 0-1.6954 6.3275 4.6321 4.6321 0 0 0 4.2196 2.3073c-0.97658-0.017587-1.8783-0.50726-2.512-1.6014-0.53819-0.92795-0.68302-2.0043-0.40915-3.0321 0.27593-1.0327 0.94202-1.8989 1.8783-2.4394l0.34774 0.6023c-0.77478 0.4473-1.3265 1.164-1.5541 2.0163-0.22647 0.84807-0.10563 1.7363 0.33838 2.5033 0.81484 1.4058 2.2659 1.9615 3.6859 1.4311-0.26354 0.07228-0.54131 0.09397-0.82748 0.03686-1.7519-0.1389-3.0284-1.4617-3.035-3.1454-0.0030242-0.80142 0.31758-1.566 0.90281-2.153 0.59582-0.59801 1.383-0.92784 2.2151-0.92805l3.97e-4 0.6966c-0.6458 2.645e-4 -1.2575 0.25644-1.7223 0.72316-0.45379 0.45432-0.7013 1.0436-0.69961 1.6583 0.0047 1.3134 1.0117 2.3456 2.3943 2.4545 1.7038 0.13353 2.4288-0.6028 2.699-0.99761-0.38386 0.3193-0.71382 0.52647-1.8397 0.72398-0.96507 0.1701-1.645-0.16694-1.8331-0.27485-0.00119-1.57e-4 -0.019717-0.01159-0.027538-0.01679-0.00527-0.0025-0.012372-0.0065-0.012372-0.0065l0.00103-5.03e-4c-0.00401-0.0025-0.014415-0.0084-0.01492-0.0093l5.291e-4 -0.0025c-0.31387-0.19372-0.5647-0.45407-0.73858-0.75527-0.37502-0.64958-0.40336-1.4762-0.0024342-2.171 0.28998-0.50131 0.75734-0.86095 1.3167-1.0109 0.55988-0.14906 1.1438-0.072432 1.6451 0.21756l0.02032 0.012631-0.36806 0.58986c-0.34078-0.19637-0.73782-0.24886-1.117-0.14726-0.38013 0.10213-0.69768 0.34597-0.89461 0.6858-0.27154 0.47249-0.25253 1.0335 0.00212 1.4744 0.12466 0.21592 0.3062 0.40291 0.53718 0.53689 3.97e-4 5.03e-4 -0.09381-0.05596 0.0042 0.0025 0.09784 0.05843 0.60066 0.32425 1.3605 0.19041 1.2521-0.22002 1.9584-0.6808 2.4428-1.0343a4.6321 4.6321 0 0 0-0.38083-3.7693 4.6321 4.6321 0 0 0-6.3275-1.6954zm6.4667 6.06c-0.03262 0.06573-0.07551 0.1417-0.11561 0.21516a4.6321 4.6321 0 0 0 0.11561-0.21516zm-2.2594 2.1789a4.6321 4.6321 0 0 0 0.27271-0.13832c-0.09046 0.04965-0.18152 0.0952-0.27271 0.13832zm0.75504-0.42918c-0.04579 0.02893-0.0905 0.05982-0.13778 0.08628-0.10776 0.06981-0.21652 0.13503-0.32578 0.19567a4.6321 4.6321 0 0 0 0.13336-0.06834 4.6321 4.6321 0 0 0 0.33036-0.21339z" fill="#fff" fill-opacity=".9962" stroke-width=".43011"/>
 </g>
</svg>
