<?xml version="1.0" encoding="UTF-8"?>
<svg width="64" height="64" version="1.1" viewBox="0 0 16.933 16.933" xmlns="http://www.w3.org/2000/svg" xmlns:cc="http://creativecommons.org/ns#" xmlns:dc="http://purl.org/dc/elements/1.1/" xmlns:rdf="http://www.w3.org/1999/02/22-rdf-syntax-ns#">
 <defs>
  <linearGradient id="linearGradient1005-9" x1=".73911" x2="16.388" y1="16.296" y2=".64687" gradientTransform="matrix(.99999 0 0 .99999 3.0268 1.6508)" gradientUnits="userSpaceOnUse">
   <stop stop-color="#cfdade" offset="0"/>
   <stop stop-color="#eaeff2" offset="1"/>
  </linearGradient>
  <linearGradient id="linearGradient2800" x1="8.6717" x2="8.6717" y1="16.34" y2=".55818" gradientTransform="matrix(-.81359 0 0 .81359 18.446 3.228)" gradientUnits="userSpaceOnUse">
   <stop stop-color="#fcfcfd" offset="0"/>
   <stop stop-color="#90acb5" offset="1"/>
  </linearGradient>
 </defs>
 <metadata>
  <rdf:RDF>
   <cc:Work rdf:about="">
    <dc:format>image/svg+xml</dc:format>
    <dc:type rdf:resource="http://purl.org/dc/dcmitype/StillImage"/>
    <dc:title/>
   </cc:Work>
  </rdf:RDF>
 </metadata>
 <g transform="translate(-3.0616 -1.6442)">
  <path d="m19.466 10.111c0 0.95155-0.16749 1.8639-0.47464 2.7093-0.2135 0.58769-0.4944 1.1433-0.83394 1.6572-0.14222 0.21608-0.29514 0.42476-0.45746 0.62529-0.51964 0.6418-1.1372 1.2007-1.8305 1.6543-0.2553 0.16718-0.52065 0.32009-0.79536 0.45712-1.0668 0.5339-2.2711 0.8342-3.5457 0.8342-1.2745 0-2.4788-0.30033-3.5457-0.83423-0.27474-0.13706-0.54041-0.28996-0.79571-0.45712-0.70207-0.45974-1.327-1.0274-1.8509-1.6798-0.16263-0.20216-0.31522-0.41275-0.45746-0.63077-0.33046-0.50541-0.6042-1.0507-0.81349-1.627-0.3071-0.84529-0.47429-1.7573-0.47429-2.7085 0-4.3839 3.5536-7.9375 7.9375-7.9375 2.2005 0 4.1918 0.89548 5.6295 2.3417 0.41436 0.41661 0.78274 0.87929 1.0963 1.3795 0.29644 0.47106 0.54428 0.97581 0.73705 1.5068 0.30718 0.84558 0.47466 1.7579 0.47466 2.7093z" fill="url(#linearGradient1005-9)" stroke-width=".031006"/>
  <path d="m5.0709 10.111c0 0.77414 0.13627 1.5164 0.38616 2.2043 0.17371 0.47813 0.40222 0.93017 0.67847 1.3483 0.11572 0.1758 0.24013 0.34557 0.37219 0.50871 0.42278 0.52216 0.9252 0.97684 1.4892 1.3459 0.2077 0.13601 0.4236 0.26043 0.64709 0.3719 0.86791 0.43437 1.8477 0.67871 2.8848 0.67871 1.0369 0 2.0167-0.24434 2.8848-0.67871 0.22352-0.1115 0.43966-0.23591 0.64736-0.3719 0.57118-0.37402 1.0796-0.83587 1.5058-1.3667 0.13231-0.16447 0.25647-0.33581 0.37219-0.51319 0.26887-0.41119 0.49157-0.85484 0.66186-1.3237 0.24986-0.6877 0.3859-1.4297 0.3859-2.2036 0-3.5666-2.8911-6.4577-6.4577-6.4577-1.7903 0-3.4102 0.72856-4.5799 1.9051-0.33711 0.33896-0.63683 0.71538-0.89191 1.1223-0.24118 0.38325-0.44281 0.79391-0.59965 1.2259-0.24992 0.68794-0.38619 1.4302-0.38619 2.2043z" fill="url(#linearGradient2800)" stroke-width=".025227"/>
  <g stroke-width=".23321">
   <path d="m12.123 13.897c-0.49394-0.49767-0.8981-0.90743-0.8981-0.90999 0 0 0.39902-0.42001 0.8869-0.92702l0.88667-0.92188v0.4515c0.0023 0.24837 0 0.45383 0 0.45686 0 0 1.3032-0.0023 2.2922-0.02379 0.48345 0 0.50257 0 0.55201-0.02379 0.10494-0.02868 0.20523-0.09538 0.24324-0.16232 0-0.02379 0.02332-0.02869 0.02332-0.02635 0 0-0.02565 0.12407-0.04431 0.16465-0.02332 0.03825-0.17957 0.33093-0.74908 1.3594-0.07463 0.13363-0.14692 0.25537-0.16558 0.27916-0.08629 0.10494-0.21922 0.191-0.37034 0.23321-0.04898 0.02379-0.06297 0.02379-0.84959 0.02379h-0.91372l0.0023 0.45243c0 0.24884 0 0.4522-0.0023 0.4522s-0.40789-0.40719-0.9016-0.90533z" fill="#5f7b89"/>
   <path d="m10.457 5.5335c-0.03172-0.00466-0.06297-0.0042-0.09375 0.00233-0.05597 0.011893-0.09608 0.031484-0.15672 0.081624-0.08489 0.069031-0.08489 0.069264-0.43307 0.68331-0.10005 0.17584-0.34772 0.61358-0.55295 0.97296-0.20336 0.35915-0.37104 0.65812-0.37127 0.65812-2.334e-4 0.00303 0.34655 0.21246 0.7703 0.46502l-0.00188 0.0014c0.42398 0.25187 0.77706 0.45943 0.77706 0.45966 0.0035 2.334e-4 0.24184-0.41442 0.52962-0.92142l0.52379-0.92188-0.060635-0.11194c-0.3939-0.71036-0.6418-1.156-0.66512-1.1847-0.075327-0.10564-0.17071-0.16978-0.26563-0.184m4.3527 3.6976c-0.0028-9.261e-4 -0.35122 0.20639-0.7738 0.46106-0.49999 0.30084-0.76795 0.47225-0.76795 0.47225 4.76e-4 0.0054 0.13456 0.24464 0.30014 0.53149 0.16488 0.28662 0.40066 0.69894 0.52426 0.91372v9.26e-4l0.22645 0.39226 0.68681-0.0023c0.67701-0.0023 0.77473-0.0021 0.85169-0.02589 0.17887-0.04711 0.28848-0.1959 0.26516-0.36311-0.01632-0.10634-0.03032-0.14669-0.10028-0.27332-0.09865-0.17887-1.2125-2.1059-1.2125-2.1082m-6.1864 2.8319-0.24184 0.42584c-0.13223 0.23321-0.29338 0.51423-0.35402 0.62174-0.060635 0.10728-0.10961 0.21735-0.13293 0.24604-0.074628 0.17538-0.05807 0.3258 0.044543 0.43098 0.046642 0.04781 0.13736 0.08582 0.22831 0.10984l0.00188 0.0082h2.5448l-0.0023-0.91862-0.0023-0.91909-1.0432-0.0023z" fill="#7597a3"/>
   <path d="m7.8066 13.694c-0.027986-0.02868-0.060635-0.06926-0.069964-0.08606-0.048974-0.08116-0.87944-1.5576-0.89203-1.5868-0.027985-0.06693-0.041978-0.13853-0.046642-0.23881 0-0.10984 0-0.18377 0.034982-0.26563 0.02332-0.03335 0.16092-0.30364 0.43727-0.79455 0.23088-0.40905 0.41815-0.74698 0.41652-0.75094-0.00233 0-0.17491-0.10984-0.3827-0.23158-0.20989-0.12406-0.37757-0.22668-0.37547-0.22924 0.0023283-0.0023284 0.048974-0.023789 0.10261-0.031017 0.053639-0.023789 0.37151-0.10261 0.7043-0.19333 0.33326-0.090719 0.72949-0.20056 0.88037-0.24161 0.15159-0.040579 0.38177-0.10495 0.51307-0.14086 0.1306-0.035914 0.23928-0.064366 0.23997-0.064366 0 0 0 0.040579 0.02332 0.09072 0.025654 0.10028 0.23554 0.90253 0.30761 1.1754 0.025654 0.09795 0.074628 0.28382 0.10728 0.41138 0.03265 0.12664 0.095617 0.36381 0.13759 0.52519 0.041978 0.16232 0.074628 0.29478 0.074628 0.29618-0.0023 0.0023-0.17258-0.09795-0.3799-0.21968-0.20756-0.12174-0.3806-0.22202-0.3848-0.22202 0 0-0.13759 0.23158-0.29734 0.51423-0.15858 0.28265-0.46246 0.81834-0.67375 1.1901-0.21222 0.37174-0.39413 0.69707-0.40695 0.72296-0.065299 0.13363-0.07696 0.28102-0.030318 0.3855 0 0.02379 0.02332 0.04058 0.02332 0.04058s-0.027985-0.02379-0.055971-0.0548z" fill="#5f7b89"/>
   <path d="m13.742 9.2814c-0.02332 0-0.54968-0.15275-1.1707-0.32556-0.62104-0.17188-1.149-0.31903-1.1731-0.3258l-0.04431-0.023789 0.04431-0.026352c0.02332-0.023789 0.17024-0.10028 0.3251-0.191 0.15392-0.09072 0.30621-0.17911 0.33722-0.19823 0.03032-0.023789 0.0583-0.035915 0.0583-0.040579 0.0023 0-0.06996-0.13596-0.15858-0.29408-0.34375-0.61451-0.65299-1.1684-0.90859-1.6288-0.14692-0.264-0.28102-0.50141-0.29851-0.52752-0.081624-0.12407-0.21456-0.21012-0.32323-0.21012h-0.0047s0.04431-0.023789 0.07696-0.023789c0.05597-0.023789 0.06063-0.023789 0.97926 0l0.92189 0.00233 0.04897 0.023789c0.1306 0.038247 0.24324 0.10495 0.33279 0.20056l0.0583 0.059702 0.39226 0.70197c0.21689 0.3855 0.40509 0.72436 0.42071 0.75234 0.02332 0.042911 0.03032 0.050141 0.04198 0.047809 0-0.00233 0.1819-0.10261 0.38946-0.22202 0.20756-0.1194 0.37687-0.21969 0.3778-0.21735 0 0-0.04898 0.191-0.10961 0.42258-0.1236 0.46642-0.31274 1.1777-0.39646 1.4949-0.14692 0.55318-0.15392 0.5779-0.16325 0.57906h-0.05131z" fill="#5f7b89"/>
  </g>
 </g>
</svg>
