<?xml version="1.0" encoding="UTF-8"?>
<svg width="64" height="64" version="1.1" viewBox="0 0 16.933 16.933" xmlns="http://www.w3.org/2000/svg" xmlns:cc="http://creativecommons.org/ns#" xmlns:dc="http://purl.org/dc/elements/1.1/" xmlns:rdf="http://www.w3.org/1999/02/22-rdf-syntax-ns#">
 <defs>
  <linearGradient id="linearGradient1005-3-3" x1="5.2535" x2="9.3824" y1="15.383" y2="2.9421" gradientTransform="matrix(.99999 0 0 .99999 -13.226 4.155)" gradientUnits="userSpaceOnUse">
   <stop stop-color="#0098f0" offset="0"/>
   <stop stop-color="#0087e6" offset=".36953"/>
   <stop stop-color="#00b9ff" offset="1"/>
  </linearGradient>
 </defs>
 <metadata>
  <rdf:RDF>
   <cc:Work rdf:about="">
    <dc:format>image/svg+xml</dc:format>
    <dc:type rdf:resource="http://purl.org/dc/dcmitype/StillImage"/>
    <dc:title/>
   </cc:Work>
  </rdf:RDF>
 </metadata>
 <g transform="translate(13.191 -4.1483)">
  <path d="m3.2128 12.615c0 0.95155-0.16749 1.8638-0.47464 2.7093-0.2135 0.58769-0.49437 1.1433-0.83391 1.6572-0.14222 0.21608-0.29514 0.42476-0.45746 0.62529-0.51964 0.6418-1.1372 1.2007-1.8305 1.6543-0.2553 0.16717-0.52065 0.32009-0.79536 0.45712-1.0668 0.53388-2.2711 0.8342-3.5457 0.8342-1.2745 0-2.4788-0.30033-3.5457-0.83423-0.27474-0.13705-0.54041-0.28996-0.79571-0.45712-0.70207-0.45971-1.327-1.0274-1.8509-1.6798-0.16262-0.20216-0.31522-0.41275-0.45746-0.63077-0.33046-0.50538-0.6042-1.0507-0.81349-1.627-0.3071-0.84529-0.47429-1.7573-0.47429-2.7085 0-4.3839 3.5536-7.9375 7.9375-7.9375 2.2005 0 4.1915 0.89548 5.6295 2.3417 0.41436 0.41661 0.78274 0.87929 1.0963 1.3795 0.29644 0.47106 0.54427 0.97581 0.73705 1.5068 0.30718 0.84558 0.47466 1.7579 0.47466 2.7093z" fill="url(#linearGradient1005-3-3)" stroke-width=".031006"/>
  <path d="m-3.8349 8.0329-1.59 0.14913v6.1415l1.5725-0.21492v-2.6251l2.0977 2.9059 1.6426-0.49564-2.1492-2.7898 2.1668-2.6427-1.6777-0.36296-2.0802 2.6416zm-3.8597 1.6832c-0.017777 0-0.039222 0.010247-0.052634 0.017547l-0.61185 0.59433c-0.026051 0.02583-0.036639 0.0686-0.017545 0.09869l0.71713 1.1229c-0.12864 0.20431-0.22349 0.42791-0.29718 0.66014l-1.3279 0.26427c-0.037034 0.0095-0.070178 0.0309-0.070178 0.06689v0.82463c0 0.03481 0.034539 0.07376 0.070178 0.08224l1.2928 0.29826c0.06886 0.26921 0.17357 0.52446 0.31472 0.75882l-0.75115 1.0735c-0.020846 0.03032-0.00999 0.07337 0.017545 0.09869l0.61079 0.57788c0.026051 0.02358 0.07348 0.03663 0.10527 0.01755l1.1711-0.67765c0.23023 0.12548 0.47114 0.23024 0.73358 0.29718l0.27961 1.2391c0.00802 0.03593 0.032467 0.06579 0.070178 0.06579h0.87392c0.03683 0 0.078915-0.0316 0.087725-0.06579l0.31361-1.2391c0.27051-0.069 0.53393-0.18235 0.76978-0.31361l1.1536 0.727c0.031745 0.01909 0.077182 0.0088 0.10417-0.01755l0.61185-0.57788c0.02621-0.02583 0.036751-0.06871 0.017547-0.09869l-0.41889-0.66014-0.14036 0.04935c-0.019955 0.0095-0.040923 3.97e-4 -0.052634-0.01645 0 0-0.26454-0.37825-0.61185-0.8586-0.41524 0.76782-1.2614 1.2874-2.237 1.2874-1.386 0-2.5166-1.0513-2.5166-2.3609 0-0.96324 0.61275-1.7924 1.4858-2.1635v-0.61079c-0.15891 0.05277-0.30805 0.10674-0.45397 0.18203h-0.017543l-1.1711-0.72701c-0.015925-0.00954-0.034809-0.017034-0.052634-0.015351v-0.00111z" color="#4d4d4d" fill="#fff" stroke-width=".41587"/>
 </g>
</svg>
