<?xml version="1.0" encoding="UTF-8" standalone="no"?>
<svg
   xmlns:dc="http://purl.org/dc/elements/1.1/"
   xmlns:cc="http://creativecommons.org/ns#"
   xmlns:rdf="http://www.w3.org/1999/02/22-rdf-syntax-ns#"
   xmlns:svg="http://www.w3.org/2000/svg"
   xmlns="http://www.w3.org/2000/svg"
   xmlns:sodipodi="http://sodipodi.sourceforge.net/DTD/sodipodi-0.dtd"
   xmlns:inkscape="http://www.inkscape.org/namespaces/inkscape"
   height="64"
   width="64"
   version="1.1"
   id="svg13"
   sodipodi:docname="bluej.svg"
   inkscape:version="1.0.2 (e86c870879, 2021-01-15)">
  <metadata
     id="metadata19">
    <rdf:RDF>
      <cc:Work
         rdf:about="">
        <dc:format>image/svg+xml</dc:format>
        <dc:type
           rdf:resource="http://purl.org/dc/dcmitype/StillImage" />
        <dc:title></dc:title>
      </cc:Work>
    </rdf:RDF>
  </metadata>
  <defs
     id="defs17">
    <linearGradient
       id="linearGradient3764"
       y1="47"
       x2="0"
       y2="1"
       gradientUnits="userSpaceOnUse">
      <stop
         style="stop-color:#99cbff;stop-opacity:1"
         id="stop875" />
      <stop
         offset="1"
         style="stop-color:#acd5ff;stop-opacity:1"
         id="stop877" />
    </linearGradient>
    <linearGradient
       id="b"
       x1="399.57"
       x2="399.57"
       y1="545.8"
       y2="517.8"
       gradientTransform="matrix(2.1429,0,0,2.1429,-826.36,-1107.5)"
       gradientUnits="userSpaceOnUse">
      <stop
         stop-color="#3889e9"
         offset="0"
         id="stop2-3" />
      <stop
         stop-color="#5ea5fb"
         offset="1"
         id="stop4-6" />
    </linearGradient>
    <filter
       id="c"
       x="-.036"
       y="-.036"
       width="1.072"
       height="1.072"
       color-interpolation-filters="sRGB">
      <feGaussianBlur
         stdDeviation="0.41999874"
         id="feGaussianBlur7" />
    </filter>
    <linearGradient
       id="g"
       x1="32.02"
       x2="32.02"
       y1="2.043"
       y2="62.045"
       gradientUnits="userSpaceOnUse">
      <stop
         stop-color="#0369a3"
         offset="0"
         id="stop10" />
      <stop
         stop-color="#047fc6"
         offset="1"
         id="stop12" />
    </linearGradient>
    <linearGradient
       id="f"
       x1="32"
       x2="32"
       y1="7"
       y2="57"
       gradientUnits="userSpaceOnUse">
      <stop
         stop-color="#d2f3fc"
         offset="0"
         id="stop15" />
      <stop
         stop-color="#fff"
         offset="1"
         id="stop17" />
    </linearGradient>
    <linearGradient
       id="e"
       x1="45.501"
       x2="45.501"
       y1="7.1055"
       y2="29.896"
       gradientUnits="userSpaceOnUse">
      <stop
         stop-color="#ebfafe"
         offset="0"
         id="stop20" />
      <stop
         stop-color="#e7f8fc"
         offset="1"
         id="stop22" />
    </linearGradient>
    <filter
       id="k"
       x="-.036"
       y="-.036"
       width="1.072"
       height="1.072"
       color-interpolation-filters="sRGB">
      <feGaussianBlur
         stdDeviation="0.75"
         id="feGaussianBlur25" />
    </filter>
    <radialGradient
       id="d"
       cx="38.066"
       cy="26.192"
       r="25"
       gradientTransform="matrix(-.8 2.9886e-8 -1.9265e-8 -1 80.453 40.192)"
       gradientUnits="userSpaceOnUse">
      <stop
         stop-color="#1e353c"
         stop-opacity=".48538"
         offset="0"
         id="stop28" />
      <stop
         stop-color="#191919"
         stop-opacity="0"
         offset="1"
         id="stop30" />
    </radialGradient>
    <linearGradient
       id="h-26"
       x1="499.95"
       x2="499.95"
       y1="2.0078"
       y2="1026"
       gradientTransform="matrix(.99609 0 0 .99609 2 2)"
       gradientUnits="userSpaceOnUse">
      <stop
         stop-color="#fff"
         offset="0"
         id="stop33" />
      <stop
         stop-color="#d7d7d7"
         offset="1"
         id="stop35" />
    </linearGradient>
    <radialGradient
       id="i-5"
       cx="512.01"
       cy="512.01"
       r="470.16"
       gradientTransform="matrix(.97625 0 0 .97625 12.152 12.141)"
       gradientUnits="userSpaceOnUse">
      <stop
         stop-opacity="0"
         offset="0"
         id="stop38" />
      <stop
         stop-opacity=".52593"
         offset="1"
         id="stop40" />
    </radialGradient>
    <filter
       id="g-1"
       x="-.048"
       y="-.048"
       width="1.096"
       height="1.096"
       color-interpolation-filters="sRGB">
      <feGaussianBlur
         stdDeviation="6.174"
         id="feGaussianBlur43" />
    </filter>
    <linearGradient
       id="f-9"
       x1="2331.3"
       x2="2331.3"
       y1="435.51"
       y2="45.726"
       gradientTransform="matrix(2.6682,0,0,2.6682,-5700.6,-128.41)"
       gradientUnits="userSpaceOnUse">
      <stop
         stop-color="#807c76"
         offset=".057692"
         id="stop46" />
      <stop
         stop-color="#d4d7d0"
         offset=".38462"
         id="stop48" />
      <stop
         stop-color="#bdbfba"
         offset=".55769"
         id="stop50" />
      <stop
         stop-color="#acb3ac"
         offset=".63462"
         id="stop52" />
      <stop
         stop-color="#dadfda"
         offset=".75"
         id="stop54" />
      <stop
         stop-color="#c2c7c1"
         offset=".86274"
         id="stop56" />
      <stop
         stop-color="#7f7a75"
         offset=".94118"
         id="stop58" />
    </linearGradient>
    <filter
       id="d-6"
       x="-.06"
       y="-.06"
       width="1.12"
       height="1.12"
       color-interpolation-filters="sRGB">
      <feGaussianBlur
         stdDeviation="0.64998245"
         id="feGaussianBlur61" />
    </filter>
    <linearGradient
       id="a-3"
       x1="32"
       x2="32"
       y1="2"
       y2="62"
       gradientTransform="matrix(1.0000469,0,0,1.0000469,0.25231443,0.80928591)"
       gradientUnits="userSpaceOnUse">
      <stop
         stop-color="#f5faff"
         offset="0"
         id="stop927" />
      <stop
         stop-color="#cfdef0"
         offset="1"
         id="stop929" />
    </linearGradient>
  </defs>
  <sodipodi:namedview
     pagecolor="#ffffff"
     bordercolor="#666666"
     borderopacity="1"
     objecttolerance="10"
     gridtolerance="10"
     guidetolerance="10"
     inkscape:pageopacity="0"
     inkscape:pageshadow="2"
     inkscape:window-width="1920"
     inkscape:window-height="942"
     id="namedview15"
     showgrid="false"
     inkscape:zoom="5.7084141"
     inkscape:cx="-6.7685159"
     inkscape:cy="36.383302"
     inkscape:window-x="0"
     inkscape:window-y="38"
     inkscape:window-maximized="1"
     inkscape:current-layer="svg13" />
  <linearGradient
     id="a"
     gradientUnits="userSpaceOnUse"
     x1="408.57135"
     x2="408.57135"
     y1="546.7981"
     y2="500.79807">
    <stop
       offset="0"
       stop-color="#197cf1"
       id="stop2" />
    <stop
       offset="1"
       stop-color="#20bcfa"
       id="stop4" />
  </linearGradient>
  <circle
     cx="32"
     cy="32"
     r="30.001093"
     fill="url(#a-3)"
     stroke-width="1.00005"
     style="fill:url(#a-3);paint-order:stroke markers fill"
     id="circle936" />
  <g
     transform="matrix(1.2121048,0,0,1.2121048,2.9085438,2.9086719)"
     id="g918">
    <g
       id="g916">
      <!-- color: #acd5ff -->
      <g
         id="g914">
        <path
           d="m 17.508,29.16 c 0.355,-0.59 0.68,-2.715 0.559,-3.934 -0.09,-0.926 -0.367,-1.609 -0.813,-2.027 -0.211,-0.195 -0.367,-0.281 -0.879,-0.48 -0.543,-0.211 -1.031,-0.527 -1.516,-0.98 l -0.402,-0.375 0.105,-0.25 c 0.059,-0.141 0.156,-0.504 0.219,-0.813 0.598,-3.074 1.73,-5 5.203,-6.551 0.742,0.145 2.332,-0.336 3.055,-0.488 1.563,-0.336 1.348,0.91 2.848,1.199 0.988,0.191 1.371,0.305 1.848,0.547 0.418,0.207 1.01,0.758 1.227,1.137 0.309,0.539 0.281,1.293 -0.121,3.273 -0.391,1.93 -0.383,2.063 0.262,4.172 0.484,1.59 1.461,2.637 1.496,3.434 -0.848,3.516 -2.707,5.664 -4.719,8.891 -3.18,0.262 -4.77,-0.164 -7.953,-0.141 1.891,-3.066 0.215,-3.969 -0.418,-6.613 m 0,0"
           style="fill:#ffffff;fill-opacity:1;fill-rule:nonzero;stroke:none"
           id="path906" />
        <path
           d="m 14.504,21.281 c 1.379,1.602 2.082,1.395 2.566,1.73 0.457,0.316 1.098,1.012 1.082,2.848 -0.016,1.863 -0.59,3.379 -0.645,3.379 -5.148,-4.16 -13.789,0.207 -8.184,-4.125 1.566,-1.016 3.01,-2.113 4.594,-3.293 m 0.586,-0.539"
           style="fill:#2d2d2d;fill-opacity:1;fill-rule:nonzero;stroke:none"
           id="path908" />
        <path
           d="m 19.984,13.75 c 0,0 0.855,0.734 2.371,1.477 2.152,1.059 3.371,4.508 3.25,7.379 -0.109,1.746 2.313,5.5 2.01,7.906 -0.492,3.887 -1.75,5.406 -1.75,5.406 0,0 5.625,-1.746 9.988,-2.273 2.777,-0.336 4.383,0.203 4.648,-0.723 -3.125,-7.01 -11.188,-14.32 -7.03,-16.84 0.379,-0.23 1.012,-0.133 1.453,-0.566 C 35.717,9.2 22.639,13.215 19.986,13.75 m 0,0"
           style="fill:#2e69b0;fill-opacity:1;fill-rule:nonzero;stroke:none"
           id="path910" />
        <path
           d="m 33.844,12.844 c -1.867,-0.113 -4.02,1.418 -5.75,2.938 -1.727,1.52 -3,3.063 -3,3.063 l -0.063,0.063 v 0.094 c 0,0 0.086,1.121 0.063,2.469 -0.023,1.348 -0.156,2.93 -0.563,3.75 -0.535,1.078 -1.098,1.961 -1.688,2.5 -0.203,0.184 -0.469,0.422 -0.656,0.625 -0.094,0.102 -0.168,0.199 -0.219,0.313 -0.012,0.027 -0.027,0.043 -0.031,0.094 -0.004,0.051 0.012,0.125 0.063,0.188 0.051,0.063 0.109,0.086 0.156,0.094 0.047,0.008 0.09,0.004 0.125,0 1.027,-0.18 2.094,-0.879 2.938,-1.531 0.844,-0.652 1.438,-1.281 1.438,-1.281 h 0.031 l 5.625,-7.313 0.031,-0.063 v -0.063 c 0,0 0.035,-0.52 0.156,-1.094 0.059,-0.285 0.145,-0.602 0.25,-0.844 0.105,-0.242 0.25,-0.398 0.375,-0.469 0.41,-0.242 0.918,-0.387 1.281,-0.531 0.109,-0.043 0.195,-0.078 0.281,-0.125 0.086,-0.047 0.164,-0.125 0.219,-0.219 0.184,-0.313 0.086,-0.648 0.063,-0.875 -0.016,-0.156 -0.074,-0.324 -0.125,-0.469 -0.051,-0.145 -0.094,-0.25 -0.094,-0.25 0,0 -0.164,-0.395 -0.344,-0.625 -0.035,-0.047 -0.105,-0.129 -0.188,-0.219 -0.082,-0.09 -0.199,-0.207 -0.375,-0.219 m -12.719,5.563 c -0.234,0.023 -0.488,0.086 -0.719,0.188 -0.457,0.199 -0.82,0.531 -1.031,0.906 -0.211,0.375 -0.262,0.797 -0.094,1.188 0.168,0.391 0.523,0.68 0.938,0.781 0.414,0.102 0.918,0.043 1.375,-0.156 0.457,-0.199 0.82,-0.531 1.031,-0.906 0.211,-0.375 0.262,-0.828 0.094,-1.219 -0.168,-0.391 -0.523,-0.648 -0.938,-0.75 -0.207,-0.051 -0.422,-0.055 -0.656,-0.031 m 0,0"
           style="fill:#2d2d2d;fill-opacity:1;fill-rule:nonzero;stroke:none"
           id="path912" />
      </g>
    </g>
  </g>
</svg>
