<?xml version="1.0" encoding="UTF-8" standalone="no"?>
<svg
   xmlns:dc="http://purl.org/dc/elements/1.1/"
   xmlns:cc="http://creativecommons.org/ns#"
   xmlns:rdf="http://www.w3.org/1999/02/22-rdf-syntax-ns#"
   xmlns:svg="http://www.w3.org/2000/svg"
   xmlns="http://www.w3.org/2000/svg"
   xmlns:xlink="http://www.w3.org/1999/xlink"
   xmlns:sodipodi="http://sodipodi.sourceforge.net/DTD/sodipodi-0.dtd"
   xmlns:inkscape="http://www.inkscape.org/namespaces/inkscape"
   height="64"
   width="64"
   version="1.1"
   id="svg13"
   sodipodi:docname="boinc.svg"
   inkscape:version="1.0.2 (e86c870879, 2021-01-15)">
  <metadata
     id="metadata19">
    <rdf:RDF>
      <cc:Work
         rdf:about="">
        <dc:format>image/svg+xml</dc:format>
        <dc:type
           rdf:resource="http://purl.org/dc/dcmitype/StillImage" />
        <dc:title></dc:title>
      </cc:Work>
    </rdf:RDF>
  </metadata>
  <defs
     id="defs17">
    <linearGradient
       inkscape:collect="always"
       id="linearGradient3207">
      <stop
         style="stop-color:#ffb400;stop-opacity:1;"
         offset="0"
         id="stop3203" />
      <stop
         style="stop-color:#fe6e00;stop-opacity:1"
         offset="1"
         id="stop3205" />
    </linearGradient>
    <filter
       id="filter968"
       x="-0.12009"
       y="-0.12009"
       width="1.2402"
       height="1.2402"
       color-interpolation-filters="sRGB">
      <feGaussianBlur
         stdDeviation="0.066194553"
         id="feGaussianBlur846" />
    </filter>
    <filter
       id="filter1016"
       x="-0.036858"
       y="-0.17692"
       width="1.0737"
       height="1.3538001"
       color-interpolation-filters="sRGB">
      <feGaussianBlur
         stdDeviation="0.097518237"
         id="feGaussianBlur849" />
    </filter>
    <filter
       id="filter1024"
       x="-0.10615"
       y="-0.50953001"
       width="1.2122999"
       height="2.0191"
       color-interpolation-filters="sRGB">
      <feGaussianBlur
         stdDeviation="0.28085546"
         id="feGaussianBlur852" />
    </filter>
    <linearGradient
       id="linearGradient1154"
       x1="-184.75999"
       x2="-170.21001"
       y1="-15.818"
       y2="-1.2664"
       gradientTransform="matrix(3.779602,0,0,3.779602,702.8134,91.918219)"
       gradientUnits="userSpaceOnUse">
      <stop
         stop-color="#fed54f"
         offset="0"
         id="stop855" />
      <stop
         stop-color="#ffbb4d"
         offset="1"
         id="stop857" />
    </linearGradient>
    <linearGradient
       id="linearGradient1190"
       x1="-38.893002"
       x2="-38.893002"
       y1="8.9956999"
       y2="10.583"
       gradientTransform="matrix(3.6284179,0,0,3.1496557,172.63729,14.830969)"
       gradientUnits="userSpaceOnUse">
      <stop
         stop-color="#c6d4e7"
         offset="0"
         id="stop860" />
      <stop
         stop-color="#d8e5f8"
         offset=".097346"
         id="stop862" />
      <stop
         stop-color="#fff"
         offset=".20734"
         id="stop864" />
      <stop
         stop-color="#f1f4f5"
         offset=".49769"
         id="stop866" />
      <stop
         stop-color="#a1aab0"
         offset=".73738"
         id="stop868" />
      <stop
         stop-color="#a2abb0"
         offset=".78932"
         id="stop870" />
      <stop
         stop-color="#a2a7a2"
         offset=".94113"
         id="stop872" />
      <stop
         stop-color="#d6d1b4"
         offset="1"
         id="stop874" />
    </linearGradient>
    <filter
       id="filter1221"
       x="-0.018237"
       y="-0.035087001"
       width="1.0365"
       height="1.0702"
       color-interpolation-filters="sRGB">
      <feGaussianBlur
         stdDeviation="0.096503745"
         id="feGaussianBlur877" />
    </filter>
    <filter
       id="filter1227"
       x="-0.021559"
       y="-0.027063999"
       width="1.0431"
       height="1.0541"
       color-interpolation-filters="sRGB">
      <feGaussianBlur
         stdDeviation="0.1140825"
         id="feGaussianBlur880" />
    </filter>
    <filter
       id="filter1233"
       x="-0.024"
       y="-0.024"
       width="1.048"
       height="1.048"
       color-interpolation-filters="sRGB">
      <feGaussianBlur
         stdDeviation="0.1269975"
         id="feGaussianBlur883" />
    </filter>
    <linearGradient
       id="linearGradient4436">
      <stop
         stop-color="#fee8c2"
         offset="0"
         id="stop1030" />
      <stop
         stop-color="#fff9f2"
         offset=".56878"
         id="stop1032" />
      <stop
         stop-color="#fff"
         offset=".74339"
         id="stop1034" />
      <stop
         stop-color="#f9efe5"
         offset="1"
         id="stop1036" />
    </linearGradient>
    <clipPath
       id="clipPath13429">
      <path
         d="m481 318h22v22h-22z"
         id="path1039" />
    </clipPath>
    <clipPath
       id="clipPath13465">
      <path
         d="m507 318h22v22h-22z"
         id="path1042" />
    </clipPath>
    <clipPath
       id="clipPath13501">
      <path
         d="m530 318h22v22h-22z"
         id="path1045" />
    </clipPath>
    <clipPath
       id="clipPath13753">
      <path
         d="m672 1064c0-1.105 4.925-2 11-2s11 0.895 11 2-4.925 2-11 2-11-0.895-11-2"
         id="path1048" />
    </clipPath>
    <clipPath
       id="clipPath13771">
      <path
         d="m660 1057h51v65.001h-51z"
         id="path1051" />
    </clipPath>
    <clipPath
       id="clipPath14035">
      <path
         d="m659 517h53v18h-53z"
         id="path1054" />
    </clipPath>
    <clipPath
       id="clipPath14127">
      <path
         d="m659 500h53v18h-53z"
         id="path1057" />
    </clipPath>
    <clipPath
       id="clipPath14445">
      <path
         d="m648 112h73v60h-73z"
         id="path1060" />
    </clipPath>
    <clipPath
       id="clipPath14609">
      <path
         d="m826 1056h59v60h-59z"
         id="path1063" />
    </clipPath>
    <clipPath
       id="clipPath15305">
      <path
         d="m805 276h100v100h-100z"
         id="path1066" />
    </clipPath>
    <clipPath
       id="clipPath15341">
      <path
         d="m145 1063.8h74.152v45.21h-74.152z"
         id="path1069" />
    </clipPath>
    <clipPath
       id="clipPath15715">
      <path
         d="m151 667h57v57h-57z"
         id="path1072" />
    </clipPath>
    <clipPath
       id="clipPath15807">
      <path
         d="m154 697h51v51h-51z"
         id="path1075" />
    </clipPath>
    <clipPath
       id="clipPath16001">
      <path
         d="m500.04 864.45h36.012v67.52h-36.012z"
         id="path1078" />
    </clipPath>
    <clipPath
       id="clipPath16093">
      <path
         d="m836 870.54h47v55.539h-47z"
         id="path1081" />
    </clipPath>
    <clipPath
       id="clipPath16477">
      <path
         d="m318.03 702.35h62.848v37.991h-62.848z"
         id="path1084" />
    </clipPath>
    <clipPath
       id="clipPath16579">
      <path
         d="m485.03 133.35h62.847v37.991h-62.847z"
         id="path1087" />
    </clipPath>
    <clipPath
       id="clipPath16709">
      <path
         d="m493.37 677.93h45.643v68.067h-45.643z"
         id="path1090" />
    </clipPath>
    <clipPath
       id="clipPath24218">
      <path
         d="m144.34 1018.2h71.467v78h-71.467z"
         id="path1093" />
    </clipPath>
    <clipPath
       id="clipPath24382">
      <path
         d="m293.21 1068.6 66.323-38.292 36.047 62.435-66.323 38.292z"
         id="path1096" />
    </clipPath>
    <clipPath
       id="clipPath24650">
      <path
         d="m488.86 1054.5h10v10.706h-10z"
         id="path1099" />
    </clipPath>
    <clipPath
       id="clipPath24700">
      <path
         d="m508 1066.8h10.001v10.705h-10.001z"
         id="path1102" />
    </clipPath>
    <clipPath
       id="clipPath24750">
      <path
         d="m525 1045.8h10v10.706h-10z"
         id="path1105" />
    </clipPath>
    <clipPath
       id="clipPath24864">
      <path
         d="m836 1043.7h25.5v31.5h-25.5z"
         id="path1108" />
    </clipPath>
    <clipPath
       id="clipPath24896">
      <path
         d="m838 1062.2h24v24h-24z"
         id="path1111" />
    </clipPath>
    <clipPath
       id="clipPath25070">
      <path
         d="m134 489.24h7v6h-7z"
         id="path1114" />
    </clipPath>
    <clipPath
       id="clipPath25100">
      <path
         d="m216 489.24h7v6h-7z"
         id="path1117" />
    </clipPath>
    <clipPath
       id="clipPath25502">
      <path
         d="m838 477.24h22v22h-22z"
         id="path1120" />
    </clipPath>
    <clipPath
       id="clipPath25686">
      <path
         d="m704 1061.2h25v25h-25z"
         id="path1123" />
    </clipPath>
    <clipPath
       id="clipPath25788">
      <path
         d="m663.04 1078.6-1.808-3.514-21.07-47.453c13.336-18.439 48.336-26.938 73.836-3.439 0.842 0 6.476 6.246 6 7l-18.386 25.895c-0.483 0.765-1.453 0.946-2.177 0.431l-15.505-11.011c-0.359-0.255-0.847-0.153-1.07 0.238l-18.272 31.869c-0.218 0.384-0.502 0.578-0.782 0.578-0.282 0-0.561-0.197-0.766-0.594"
         id="path1126" />
    </clipPath>
    <clipPath
       id="clipPath26420">
      <path
         d="m127 820.24h100v100h-100z"
         id="path1129" />
    </clipPath>
    <clipPath
       id="clipPath26860">
      <path
         d="m809 680.24c0-22.092 17.908-40 40-40s40 17.908 40 40c0 22.091-17.908 40-40 40s-40-17.909-40-40"
         id="path1132" />
    </clipPath>
    <clipPath
       id="clipPath27506">
      <path
         d="m658 469.24h44v45h-44z"
         id="path1135" />
    </clipPath>
    <clipPath
       id="clipPath27772">
      <path
         d="m651 271.24h58v58h-58z"
         id="path1138" />
    </clipPath>
    <clipPath
       id="clipPath27864">
      <path
         d="m662 307.24h38v8h-38z"
         id="path1141" />
    </clipPath>
    <clipPath
       id="clipPath28028">
      <path
         d="m858.98 137.24c0.013-0.101 0.021-0.203 0.021-0.307v-6.693h15.75c1.237 0 2.25-1.013 2.25-2.25v-11.25l-27-4.5-27 4.5v-2.25l27-4.5 27 4.5v-27c0-1.237-1.013-2.25-2.25-2.25h-49.5c-1.237 0-2.25 1.013-2.25 2.25v-4.25h54v54zm-35.979 0v-9.25c0 1.237 1.013 2.25 2.25 2.25h15.75v6.693c0 0.104 7e-3 0.207 0.02 0.307zm22.5-7h9v4.5h-9zm1.125-9c-0.62 0-1.125-0.506-1.125-1.125v-2.25c0-0.619 0.505-1.125 1.125-1.125h6.75c0.619 0 1.125 0.506 1.125 1.125v2.25c0 0.619-0.506 1.125-1.125 1.125z"
         id="path1144" />
    </clipPath>
    <clipPath
       id="clipPath28200">
      <path
         d="m531.27 136.24c6.325-2.29 10.727-8.277 10.727-15.484 0-11.316-10.2-20.563-25.65-34.575l-4.35-3.941-4.35 3.941c-15.45 14.012-25.65 23.259-25.65 34.575v-39.516h60v55zm-26.983 0c2.995-1.052 5.686-2.883 7.71-5.25 2.024 2.367 4.715 4.198 7.71 5.25zm-22.29 0v-15.484c0 7.207 4.402 13.194 10.727 15.484z"
         id="path1147" />
    </clipPath>
    <clipPath
       id="clipPath28364">
      <path
         d="m648 79.241h64v64h-64z"
         id="path1150" />
    </clipPath>
    <clipPath
       id="clipPath28984">
      <path
         d="m500 691.74c0-3.037 2.463-5.5 5.5-5.5s5.5 2.463 5.5 5.5-2.463 5.5-5.5 5.5-5.5-2.463-5.5-5.5"
         id="path1153" />
    </clipPath>
    <clipPath
       id="clipPath29012">
      <path
         d="m500 669.74c0-3.037 2.463-5.5 5.5-5.5s5.5 2.463 5.5 5.5c0 3.038-2.463 5.5-5.5 5.5s-5.5-2.462-5.5-5.5"
         id="path1156" />
    </clipPath>
    <clipPath
       id="clipPath29040">
      <path
         d="m494 680.74c0-3.037 2.462-5.5 5.5-5.5s5.5 2.463 5.5 5.5c0 3.038-2.462 5.5-5.5 5.5s-5.5-2.462-5.5-5.5"
         id="path1159" />
    </clipPath>
    <clipPath
       id="clipPath29068">
      <path
         d="m513 691.74c0-3.037 2.463-5.5 5.5-5.5s5.5 2.463 5.5 5.5-2.463 5.5-5.5 5.5-5.5-2.463-5.5-5.5"
         id="path1162" />
    </clipPath>
    <clipPath
       id="clipPath29096">
      <path
         d="m513 669.74c0-3.037 2.463-5.5 5.5-5.5s5.5 2.463 5.5 5.5c0 3.038-2.463 5.5-5.5 5.5s-5.5-2.462-5.5-5.5"
         id="path1165" />
    </clipPath>
    <clipPath
       id="clipPath29124">
      <path
         d="m507 680.74c0-3.037 2.463-5.5 5.5-5.5s5.5 2.463 5.5 5.5c0 3.038-2.463 5.5-5.5 5.5s-5.5-2.462-5.5-5.5"
         id="path1168" />
    </clipPath>
    <clipPath
       id="clipPath29152">
      <path
         d="m520 680.74c0-3.037 2.463-5.5 5.5-5.5s5.5 2.463 5.5 5.5c0 3.038-2.463 5.5-5.5 5.5s-5.5-2.462-5.5-5.5"
         id="path1171" />
    </clipPath>
    <clipPath
       id="clipPath29252">
      <path
         d="m321 322.24c-4.97 0-9-4.029-9-9 0-4.97 4.03-9 9-9h45c4.971 0 9 4.03 9 9 0 4.971-4.029 9-9 9z"
         id="path1174" />
    </clipPath>
    <clipPath
       id="clipPath29280">
      <path
         d="m322 297.24c-4.971 0-9-4.029-9-9 0-4.97 4.029-9 9-9h45c4.971 0 9 4.03 9 9 0 4.971-4.029 9-9 9z"
         id="path1177" />
    </clipPath>
    <clipPath
       id="clipPath29400">
      <path
         d="m155 83.24h44v53h-44z"
         id="path1180" />
    </clipPath>
    <clipPath
       id="clipPath13429-6">
      <path
         d="m481 318h22v22h-22z"
         id="path1183" />
    </clipPath>
    <clipPath
       id="clipPath13465-0">
      <path
         d="m507 318h22v22h-22z"
         id="path1186" />
    </clipPath>
    <clipPath
       id="clipPath13501-6">
      <path
         d="m530 318h22v22h-22z"
         id="path1189" />
    </clipPath>
    <clipPath
       id="clipPath13753-2">
      <path
         d="m672 1064c0-1.105 4.925-2 11-2s11 0.895 11 2-4.925 2-11 2-11-0.895-11-2"
         id="path1192" />
    </clipPath>
    <clipPath
       id="clipPath13771-6">
      <path
         d="m660 1057h51v65.001h-51z"
         id="path1195" />
    </clipPath>
    <clipPath
       id="clipPath14035-1">
      <path
         d="m659 517h53v18h-53z"
         id="path1198" />
    </clipPath>
    <clipPath
       id="clipPath14127-8">
      <path
         d="m659 500h53v18h-53z"
         id="path1201" />
    </clipPath>
    <clipPath
       id="clipPath14445-7">
      <path
         d="m648 112h73v60h-73z"
         id="path1204" />
    </clipPath>
    <clipPath
       id="clipPath14609-9">
      <path
         d="m826 1056h59v60h-59z"
         id="path1207" />
    </clipPath>
    <clipPath
       id="clipPath15305-2">
      <path
         d="m805 276h100v100h-100z"
         id="path1210" />
    </clipPath>
    <clipPath
       id="clipPath15341-0">
      <path
         d="m145 1063.8h74.152v45.21h-74.152z"
         id="path1213" />
    </clipPath>
    <clipPath
       id="clipPath15715-2">
      <path
         d="m151 667h57v57h-57z"
         id="path1216" />
    </clipPath>
    <clipPath
       id="clipPath15807-3">
      <path
         d="m154 697h51v51h-51z"
         id="path1219" />
    </clipPath>
    <clipPath
       id="clipPath16001-7">
      <path
         d="m500.04 864.45h36.012v67.52h-36.012z"
         id="path1222" />
    </clipPath>
    <clipPath
       id="clipPath16093-5">
      <path
         d="m836 870.54h47v55.539h-47z"
         id="path1225" />
    </clipPath>
    <clipPath
       id="clipPath16477-9">
      <path
         d="m318.03 702.35h62.848v37.991h-62.848z"
         id="path1228" />
    </clipPath>
    <clipPath
       id="clipPath16579-2">
      <path
         d="m485.03 133.35h62.847v37.991h-62.847z"
         id="path1231" />
    </clipPath>
    <clipPath
       id="clipPath16709-2">
      <path
         d="m493.37 677.93h45.643v68.067h-45.643z"
         id="path1234" />
    </clipPath>
    <clipPath
       id="clipPath24218-8">
      <path
         d="m144.34 1018.2h71.467v78h-71.467z"
         id="path1237" />
    </clipPath>
    <clipPath
       id="clipPath24382-9">
      <path
         d="m293.21 1068.6 66.323-38.292 36.047 62.435-66.323 38.292z"
         id="path1240" />
    </clipPath>
    <clipPath
       id="clipPath24650-7">
      <path
         d="m488.86 1054.5h10v10.706h-10z"
         id="path1243" />
    </clipPath>
    <clipPath
       id="clipPath24700-3">
      <path
         d="m508 1066.8h10.001v10.705h-10.001z"
         id="path1246" />
    </clipPath>
    <clipPath
       id="clipPath24750-6">
      <path
         d="m525 1045.8h10v10.706h-10z"
         id="path1249" />
    </clipPath>
    <clipPath
       id="clipPath24864-1">
      <path
         d="m836 1043.7h25.5v31.5h-25.5z"
         id="path1252" />
    </clipPath>
    <clipPath
       id="clipPath24896-2">
      <path
         d="m838 1062.2h24v24h-24z"
         id="path1255" />
    </clipPath>
    <clipPath
       id="clipPath25070-9">
      <path
         d="m134 489.24h7v6h-7z"
         id="path1258" />
    </clipPath>
    <clipPath
       id="clipPath25100-3">
      <path
         d="m216 489.24h7v6h-7z"
         id="path1261" />
    </clipPath>
    <clipPath
       id="clipPath25502-1">
      <path
         d="m838 477.24h22v22h-22z"
         id="path1264" />
    </clipPath>
    <clipPath
       id="clipPath25686-9">
      <path
         d="m704 1061.2h25v25h-25z"
         id="path1267" />
    </clipPath>
    <clipPath
       id="clipPath25788-4">
      <path
         d="m663.04 1078.6-1.808-3.514-21.07-47.453c13.336-18.439 48.336-26.938 73.836-3.439 0.842 0 6.476 6.246 6 7l-18.386 25.895c-0.483 0.765-1.453 0.946-2.177 0.431l-15.505-11.011c-0.359-0.255-0.847-0.153-1.07 0.238l-18.272 31.869c-0.218 0.384-0.502 0.578-0.782 0.578-0.282 0-0.561-0.197-0.766-0.594"
         id="path1270" />
    </clipPath>
    <clipPath
       id="clipPath26420-7">
      <path
         d="m127 820.24h100v100h-100z"
         id="path1273" />
    </clipPath>
    <clipPath
       id="clipPath26860-8">
      <path
         d="m809 680.24c0-22.092 17.908-40 40-40s40 17.908 40 40c0 22.091-17.908 40-40 40s-40-17.909-40-40"
         id="path1276" />
    </clipPath>
    <clipPath
       id="clipPath27506-4">
      <path
         d="m658 469.24h44v45h-44z"
         id="path1279" />
    </clipPath>
    <clipPath
       id="clipPath27772-5">
      <path
         d="m651 271.24h58v58h-58z"
         id="path1282" />
    </clipPath>
    <clipPath
       id="clipPath27864-0">
      <path
         d="m662 307.24h38v8h-38z"
         id="path1285" />
    </clipPath>
    <clipPath
       id="clipPath28028-3">
      <path
         d="m858.98 137.24c0.013-0.101 0.021-0.203 0.021-0.307v-6.693h15.75c1.237 0 2.25-1.013 2.25-2.25v-11.25l-27-4.5-27 4.5v-2.25l27-4.5 27 4.5v-27c0-1.237-1.013-2.25-2.25-2.25h-49.5c-1.237 0-2.25 1.013-2.25 2.25v-4.25h54v54zm-35.979 0v-9.25c0 1.237 1.013 2.25 2.25 2.25h15.75v6.693c0 0.104 7e-3 0.207 0.02 0.307zm22.5-7h9v4.5h-9zm1.125-9c-0.62 0-1.125-0.506-1.125-1.125v-2.25c0-0.619 0.505-1.125 1.125-1.125h6.75c0.619 0 1.125 0.506 1.125 1.125v2.25c0 0.619-0.506 1.125-1.125 1.125z"
         id="path1288" />
    </clipPath>
    <clipPath
       id="clipPath28200-6">
      <path
         d="m531.27 136.24c6.325-2.29 10.727-8.277 10.727-15.484 0-11.316-10.2-20.563-25.65-34.575l-4.35-3.941-4.35 3.941c-15.45 14.012-25.65 23.259-25.65 34.575v-39.516h60v55zm-26.983 0c2.995-1.052 5.686-2.883 7.71-5.25 2.024 2.367 4.715 4.198 7.71 5.25zm-22.29 0v-15.484c0 7.207 4.402 13.194 10.727 15.484z"
         id="path1291" />
    </clipPath>
    <clipPath
       id="clipPath28364-1">
      <path
         d="m648 79.241h64v64h-64z"
         id="path1294" />
    </clipPath>
    <clipPath
       id="clipPath28984-0">
      <path
         d="m500 691.74c0-3.037 2.463-5.5 5.5-5.5s5.5 2.463 5.5 5.5-2.463 5.5-5.5 5.5-5.5-2.463-5.5-5.5"
         id="path1297" />
    </clipPath>
    <clipPath
       id="clipPath29012-6">
      <path
         d="m500 669.74c0-3.037 2.463-5.5 5.5-5.5s5.5 2.463 5.5 5.5c0 3.038-2.463 5.5-5.5 5.5s-5.5-2.462-5.5-5.5"
         id="path1300" />
    </clipPath>
    <clipPath
       id="clipPath29040-3">
      <path
         d="m494 680.74c0-3.037 2.462-5.5 5.5-5.5s5.5 2.463 5.5 5.5c0 3.038-2.462 5.5-5.5 5.5s-5.5-2.462-5.5-5.5"
         id="path1303" />
    </clipPath>
    <clipPath
       id="clipPath29068-2">
      <path
         d="m513 691.74c0-3.037 2.463-5.5 5.5-5.5s5.5 2.463 5.5 5.5-2.463 5.5-5.5 5.5-5.5-2.463-5.5-5.5"
         id="path1306" />
    </clipPath>
    <clipPath
       id="clipPath29096-0">
      <path
         d="m513 669.74c0-3.037 2.463-5.5 5.5-5.5s5.5 2.463 5.5 5.5c0 3.038-2.463 5.5-5.5 5.5s-5.5-2.462-5.5-5.5"
         id="path1309" />
    </clipPath>
    <clipPath
       id="clipPath29124-6">
      <path
         d="m507 680.74c0-3.037 2.463-5.5 5.5-5.5s5.5 2.463 5.5 5.5c0 3.038-2.463 5.5-5.5 5.5s-5.5-2.462-5.5-5.5"
         id="path1312" />
    </clipPath>
    <clipPath
       id="clipPath29152-1">
      <path
         d="m520 680.74c0-3.037 2.463-5.5 5.5-5.5s5.5 2.463 5.5 5.5c0 3.038-2.463 5.5-5.5 5.5s-5.5-2.462-5.5-5.5"
         id="path1315" />
    </clipPath>
    <clipPath
       id="clipPath29252-5">
      <path
         d="m321 322.24c-4.97 0-9-4.029-9-9 0-4.97 4.03-9 9-9h45c4.971 0 9 4.03 9 9 0 4.971-4.029 9-9 9z"
         id="path1318" />
    </clipPath>
    <clipPath
       id="clipPath29280-5">
      <path
         d="m322 297.24c-4.971 0-9-4.029-9-9 0-4.97 4.029-9 9-9h45c4.971 0 9 4.03 9 9 0 4.971-4.029 9-9 9z"
         id="path1321" />
    </clipPath>
    <clipPath
       id="clipPath29400-4">
      <path
         d="m155 83.24h44v53h-44z"
         id="path1324" />
    </clipPath>
    <linearGradient
       id="linearGradient1005-3-3"
       x1="7.4778"
       x2="9.0954"
       y1="15.67"
       y2="2.7627"
       gradientTransform="matrix(0.99998,0,0,0.99998,-40.286,-52.471)"
       gradientUnits="userSpaceOnUse">
      <stop
         stop-color="#fe6d00"
         offset="0"
         id="stop1327" />
      <stop
         stop-color="#fe7100"
         offset=".36953"
         id="stop1329" />
      <stop
         stop-color="#ffb400"
         offset="1"
         id="stop1331" />
    </linearGradient>
    <clipPath
       id="clipPath13429-3">
      <path
         d="m481 318h22v22h-22z"
         id="path1334" />
    </clipPath>
    <clipPath
       id="clipPath13465-6-6">
      <path
         d="m507 318h22v22h-22z"
         id="path1337" />
    </clipPath>
    <clipPath
       id="clipPath13501-7">
      <path
         d="m530 318h22v22h-22z"
         id="path1340" />
    </clipPath>
    <clipPath
       id="clipPath13753-5">
      <path
         d="m672 1064c0-1.105 4.925-2 11-2s11 0.895 11 2-4.925 2-11 2-11-0.895-11-2"
         id="path1343" />
    </clipPath>
    <clipPath
       id="clipPath13771-3">
      <path
         d="m660 1057h51v65.001h-51z"
         id="path1346" />
    </clipPath>
    <clipPath
       id="clipPath14035-5">
      <path
         d="m659 517h53v18h-53z"
         id="path1349" />
    </clipPath>
    <clipPath
       id="clipPath14127-6">
      <path
         d="m659 500h53v18h-53z"
         id="path1352" />
    </clipPath>
    <clipPath
       id="clipPath14445-2">
      <path
         d="m648 112h73v60h-73z"
         id="path1355" />
    </clipPath>
    <clipPath
       id="clipPath14609-9-2">
      <path
         d="m826 1056h59v60h-59z"
         id="path1358" />
    </clipPath>
    <clipPath
       id="clipPath15305-1">
      <path
         d="m805 276h100v100h-100z"
         id="path1361" />
    </clipPath>
    <clipPath
       id="clipPath15341-2">
      <path
         d="m145 1063.8h74.152v45.21h-74.152z"
         id="path1364" />
    </clipPath>
    <clipPath
       id="clipPath15715-7-9">
      <path
         d="m151 667h57v57h-57z"
         id="path1367" />
    </clipPath>
    <clipPath
       id="clipPath15807-0">
      <path
         d="m154 697h51v51h-51z"
         id="path1370" />
    </clipPath>
    <clipPath
       id="clipPath16001-9">
      <path
         d="m500.04 864.45h36.012v67.52h-36.012z"
         id="path1373" />
    </clipPath>
    <clipPath
       id="clipPath16093-3-1">
      <path
         d="m836 870.54h47v55.539h-47z"
         id="path1376" />
    </clipPath>
    <clipPath
       id="clipPath16477-6">
      <path
         d="m318.03 702.35h62.848v37.991h-62.848z"
         id="path1379" />
    </clipPath>
    <clipPath
       id="clipPath16579-0">
      <path
         d="m485.03 133.35h62.847v37.991h-62.847z"
         id="path1382" />
    </clipPath>
    <clipPath
       id="clipPath16709-6">
      <path
         d="m493.37 677.93h45.643v68.067h-45.643z"
         id="path1385" />
    </clipPath>
    <clipPath
       id="clipPath24218-2">
      <path
         d="m144.34 1018.2h71.467v78h-71.467z"
         id="path1388" />
    </clipPath>
    <clipPath
       id="clipPath24382-6">
      <path
         d="m293.21 1068.6 66.323-38.292 36.047 62.435-66.323 38.292z"
         id="path1391" />
    </clipPath>
    <clipPath
       id="clipPath24650-1">
      <path
         d="m488.86 1054.5h10v10.706h-10z"
         id="path1394" />
    </clipPath>
    <clipPath
       id="clipPath24700-8">
      <path
         d="m508 1066.8h10.001v10.705h-10.001z"
         id="path1397" />
    </clipPath>
    <clipPath
       id="clipPath24750-7">
      <path
         d="m525 1045.8h10v10.706h-10z"
         id="path1400" />
    </clipPath>
    <clipPath
       id="clipPath24864-9">
      <path
         d="m836 1043.7h25.5v31.5h-25.5z"
         id="path1403" />
    </clipPath>
    <clipPath
       id="clipPath24896-2-2">
      <path
         d="m838 1062.2h24v24h-24z"
         id="path1406" />
    </clipPath>
    <clipPath
       id="clipPath25070-0">
      <path
         d="m134 489.24h7v6h-7z"
         id="path1409" />
    </clipPath>
    <clipPath
       id="clipPath25100-2">
      <path
         d="m216 489.24h7v6h-7z"
         id="path1412" />
    </clipPath>
    <clipPath
       id="clipPath25502-3">
      <path
         d="m838 477.24h22v22h-22z"
         id="path1415" />
    </clipPath>
    <clipPath
       id="clipPath25686-7">
      <path
         d="m704 1061.2h25v25h-25z"
         id="path1418" />
    </clipPath>
    <clipPath
       id="clipPath25788-5">
      <path
         d="m663.04 1078.6-1.808-3.514-21.07-47.453c13.336-18.439 48.336-26.938 73.836-3.439 0.842 0 6.476 6.246 6 7l-18.386 25.895c-0.483 0.765-1.453 0.946-2.177 0.431l-15.505-11.011c-0.359-0.255-0.847-0.153-1.07 0.238l-18.272 31.869c-0.218 0.384-0.502 0.578-0.782 0.578-0.282 0-0.561-0.197-0.766-0.594"
         id="path1421" />
    </clipPath>
    <clipPath
       id="clipPath26420-9">
      <path
         d="m127 820.24h100v100h-100z"
         id="path1424" />
    </clipPath>
    <clipPath
       id="clipPath26860-2">
      <path
         d="m809 680.24c0-22.092 17.908-40 40-40s40 17.908 40 40c0 22.091-17.908 40-40 40s-40-17.909-40-40"
         id="path1427" />
    </clipPath>
    <clipPath
       id="clipPath27506-2">
      <path
         d="m658 469.24h44v45h-44z"
         id="path1430" />
    </clipPath>
    <clipPath
       id="clipPath27772-8">
      <path
         d="m651 271.24h58v58h-58z"
         id="path1433" />
    </clipPath>
    <clipPath
       id="clipPath27864-9-7">
      <path
         d="m662 307.24h38v8h-38z"
         id="path1436" />
    </clipPath>
    <clipPath
       id="clipPath28028-7">
      <path
         d="m858.98 137.24c0.013-0.101 0.021-0.203 0.021-0.307v-6.693h15.75c1.237 0 2.25-1.013 2.25-2.25v-11.25l-27-4.5-27 4.5v-2.25l27-4.5 27 4.5v-27c0-1.237-1.013-2.25-2.25-2.25h-49.5c-1.237 0-2.25 1.013-2.25 2.25v-4.25h54v54zm-35.979 0v-9.25c0 1.237 1.013 2.25 2.25 2.25h15.75v6.693c0 0.104 7e-3 0.207 0.02 0.307zm22.5-7h9v4.5h-9zm1.125-9c-0.62 0-1.125-0.506-1.125-1.125v-2.25c0-0.619 0.505-1.125 1.125-1.125h6.75c0.619 0 1.125 0.506 1.125 1.125v2.25c0 0.619-0.506 1.125-1.125 1.125z"
         id="path1439" />
    </clipPath>
    <clipPath
       id="clipPath28200-3">
      <path
         d="m531.27 136.24c6.325-2.29 10.727-8.277 10.727-15.484 0-11.316-10.2-20.563-25.65-34.575l-4.35-3.941-4.35 3.941c-15.45 14.012-25.65 23.259-25.65 34.575v-39.516h60v55zm-26.983 0c2.995-1.052 5.686-2.883 7.71-5.25 2.024 2.367 4.715 4.198 7.71 5.25zm-22.29 0v-15.484c0 7.207 4.402 13.194 10.727 15.484z"
         id="path1442" />
    </clipPath>
    <clipPath
       id="clipPath28364-6">
      <path
         d="m648 79.241h64v64h-64z"
         id="path1445" />
    </clipPath>
    <clipPath
       id="clipPath28984-1">
      <path
         d="m500 691.74c0-3.037 2.463-5.5 5.5-5.5s5.5 2.463 5.5 5.5-2.463 5.5-5.5 5.5-5.5-2.463-5.5-5.5"
         id="path1448" />
    </clipPath>
    <clipPath
       id="clipPath29012-2">
      <path
         d="m500 669.74c0-3.037 2.463-5.5 5.5-5.5s5.5 2.463 5.5 5.5c0 3.038-2.463 5.5-5.5 5.5s-5.5-2.462-5.5-5.5"
         id="path1451" />
    </clipPath>
    <clipPath
       id="clipPath29040-9">
      <path
         d="m494 680.74c0-3.037 2.462-5.5 5.5-5.5s5.5 2.463 5.5 5.5c0 3.038-2.462 5.5-5.5 5.5s-5.5-2.462-5.5-5.5"
         id="path1454" />
    </clipPath>
    <clipPath
       id="clipPath29068-3">
      <path
         d="m513 691.74c0-3.037 2.463-5.5 5.5-5.5s5.5 2.463 5.5 5.5-2.463 5.5-5.5 5.5-5.5-2.463-5.5-5.5"
         id="path1457" />
    </clipPath>
    <clipPath
       id="clipPath29096-1">
      <path
         d="m513 669.74c0-3.037 2.463-5.5 5.5-5.5s5.5 2.463 5.5 5.5c0 3.038-2.463 5.5-5.5 5.5s-5.5-2.462-5.5-5.5"
         id="path1460" />
    </clipPath>
    <clipPath
       id="clipPath29124-9">
      <path
         d="m507 680.74c0-3.037 2.463-5.5 5.5-5.5s5.5 2.463 5.5 5.5c0 3.038-2.463 5.5-5.5 5.5s-5.5-2.462-5.5-5.5"
         id="path1463" />
    </clipPath>
    <clipPath
       id="clipPath29152-4">
      <path
         d="m520 680.74c0-3.037 2.463-5.5 5.5-5.5s5.5 2.463 5.5 5.5c0 3.038-2.463 5.5-5.5 5.5s-5.5-2.462-5.5-5.5"
         id="path1466" />
    </clipPath>
    <clipPath
       id="clipPath29252-7">
      <path
         d="m321 322.24c-4.97 0-9-4.029-9-9 0-4.97 4.03-9 9-9h45c4.971 0 9 4.03 9 9 0 4.971-4.029 9-9 9z"
         id="path1469" />
    </clipPath>
    <clipPath
       id="clipPath29280-8">
      <path
         d="m322 297.24c-4.971 0-9-4.029-9-9 0-4.97 4.029-9 9-9h45c4.971 0 9 4.03 9 9 0 4.971-4.029 9-9 9z"
         id="path1472" />
    </clipPath>
    <clipPath
       id="clipPath29400-4-0">
      <path
         d="m155 83.24h44v53h-44z"
         id="path1475" />
    </clipPath>
    <linearGradient
       id="linearGradient4438"
       x1="-49.059"
       x2="-42.279"
       y1="-33.99"
       y2="-33.99"
       gradientTransform="matrix(0.78042,0,0,0.78042,1.2115,-17.484)"
       gradientUnits="userSpaceOnUse"
       xlink:href="#linearGradient4436" />
    <linearGradient
       id="linearGradient4448"
       x1="-49.059"
       x2="-42.279"
       y1="-33.99"
       y2="-33.99"
       gradientTransform="matrix(-0.78042,0,0,0.78042,-64.779,-17.484)"
       gradientUnits="userSpaceOnUse"
       xlink:href="#linearGradient4436" />
    <filter
       id="filter4466"
       x="-.022092"
       y="-.026268"
       width="1.0442"
       height="1.0525"
       color-interpolation-filters="sRGB">
      <feGaussianBlur
         stdDeviation="0.097419499"
         id="feGaussianBlur1480" />
    </filter>
    <linearGradient
       inkscape:collect="always"
       xlink:href="#linearGradient3207"
       id="linearGradient3209"
       x1="31.71546"
       y1="4.5069556"
       x2="31.71546"
       y2="59.516346"
       gradientUnits="userSpaceOnUse" />
  </defs>
  <sodipodi:namedview
     pagecolor="#ffffff"
     bordercolor="#666666"
     borderopacity="1"
     objecttolerance="10"
     gridtolerance="10"
     guidetolerance="10"
     inkscape:pageopacity="0"
     inkscape:pageshadow="2"
     inkscape:window-width="1920"
     inkscape:window-height="942"
     id="namedview15"
     showgrid="false"
     inkscape:zoom="5.7084141"
     inkscape:cx="10.471735"
     inkscape:cy="33.132926"
     inkscape:window-x="0"
     inkscape:window-y="38"
     inkscape:window-maximized="1"
     inkscape:current-layer="svg13" />
  <linearGradient
     id="a"
     gradientUnits="userSpaceOnUse"
     x1="408.57135"
     x2="408.57135"
     y1="545.7981"
     y2="501.79807"
     gradientTransform="translate(-449.41635,-491.798)">
    <stop
       offset="0"
       stop-color="#ff9300"
       id="stop2" />
    <stop
       offset="1"
       stop-color="#ffd702"
       id="stop4" />
  </linearGradient>
  <path
     id="rect3200"
     style="opacity:1;fill:url(#linearGradient3209);fill-opacity:1;stroke-width:1.5;stroke-linecap:round;stroke-linejoin:round;paint-order:stroke fill markers"
     d="M 9.0859375 4.5 C 6.5443623 4.5 4.4980469 6.5463155 4.4980469 9.0878906 L 4.4980469 54.912109 C 4.4980469 57.453685 6.5443623 59.5 9.0859375 59.5 L 54.910156 59.5 C 57.451731 59.5 59.498047 57.453685 59.498047 54.912109 L 59.498047 9.0878906 C 59.498047 6.5463155 57.451731 4.5 54.910156 4.5 L 9.0859375 4.5 z " />
  <circle
     cx="-1248.7047"
     cy="-1241.6373"
     r="0"
     fill="#5e4aa6"
     stroke-width="1.00001"
     id="circle888" />
  <circle
     cx="-149.14668"
     cy="23.854692"
     r="0"
     fill="#5e4aa6"
     fill-rule="evenodd"
     stroke-width="1.00001"
     id="circle890" />
  <path
     d="M 16.676654,14.499997 14.5,16.676637 l 7.787205,7.792595 v 0.03096 l 2.18203,2.176639 c 1.671858,-2.361051 4.416565,-3.911771 7.530093,-3.911771 1.204766,0 2.344909,0.257113 3.396225,0.67305 l 2.308558,-2.303182 c -1.709546,-0.909954 -3.633127,-1.445708 -5.704783,-1.445708 -2.838924,0 -5.447672,0.982653 -7.530093,2.597982 m 22.852781,-7.787205 -7.792595,7.787205 c -0.0112,-0.01132 -0.01618,-0.02154 -0.03096,-0.03096 l -2.176639,2.17664 c 2.371831,1.67186 3.906395,4.448877 3.906395,7.566444 0,1.214181 -0.247684,2.366454 -0.673064,3.428522 l 2.308572,2.308573 c 0.915344,-1.713585 1.445708,-3.660063 1.445708,-5.737095 0,-2.838924 -0.982653,-5.447672 -2.597968,-7.530093 l 7.787191,-7.787205 -2.182029,-2.18203 M 21.136279,26.262245 c -0.920734,1.713585 -1.445708,3.654659 -1.445708,5.737081 0,2.838938 0.982653,5.447686 2.597968,7.530093 l -7.787191,7.787205 2.176639,2.18203 2.308573,-2.308558 -0.03096,-0.03096 7.660661,-7.660675 c -2.328753,-1.677236 -3.848499,-4.411176 -3.848499,-7.503172 0,-1.208791 0.253059,-2.36644 0.67305,-3.428522 l -2.303186,-2.308563 m 18.393139,11.063613 c -1.671858,2.361065 -4.416565,3.906381 -7.530093,3.906381 -1.241103,0 -2.413557,-0.262487 -3.491793,-0.70401 l -2.30856,2.308572 c 1.729741,0.935538 3.6964,1.472629 5.800353,1.472629 2.838924,0 5.447672,-0.978614 7.530093,-2.592591 L 47.31797,49.500003 49.5,47.317973 44.91518,42.700841 41.712795,39.530768 c 0.0056,-0.0056 -0.0056,-0.02688 0,-0.03096 l -2.18203,-2.18203 m -1.379748,-5.318215 c 0,3.396225 -2.755471,6.151696 -6.151696,6.151696 -3.396211,0 -6.151682,-2.755471 -6.151682,-6.151696 0,-3.39621 2.755471,-6.151681 6.151682,-6.151681 3.396225,0 6.151696,2.755471 6.151696,6.151681 m 0,0"
     fill-opacity="0.758064"
     id="path1026"
     style="stroke-width:1.40729" />
  <style
     type="text/css"
     id="style1485">.st0{opacity:0.15;fill:#45413C;}
	.st1{fill:#FFE500;}
	.st2{fill:#EBCB00;}
	.st3{fill:none;stroke:#45413C;stroke-linecap:round;stroke-linejoin:round;stroke-miterlimit:10;}
	.st4{fill:#FFAA54;}
	.st5{fill:#FF8A14;}
	.st6{fill:#FFB0CA;stroke:#45413C;stroke-linecap:round;stroke-linejoin:round;stroke-miterlimit:10;}
	.st7{fill:#FF87AF;stroke:#45413C;stroke-linecap:round;stroke-linejoin:round;stroke-miterlimit:10;}
	.st8{fill:#FFCC99;}
	.st9{fill:#FFFFFF;}
	.st10{fill:#F0F0F0;}
	.st11{fill:#BF8256;}
	.st12{fill:#915E3A;}
	.st13{fill:#DEA47A;}
	.st14{fill:#F0D5A8;}
	.st15{fill:#DEBB7E;}
	.st16{fill:#F7E5C6;}
	.st17{fill:#FF8A14;stroke:#45413C;stroke-linecap:round;stroke-linejoin:round;stroke-miterlimit:10;}
	.st18{fill:#FFF5E3;}
	.st19{fill:#FFF48C;}
	.st20{fill:#FFFACF;}
	.st21{fill:#FFFCE5;}
	.st22{fill:#FF87AF;}
	.st23{fill:#FFB0CA;}
	.st24{fill:#FFE500;stroke:#45413C;stroke-linecap:round;stroke-linejoin:round;stroke-miterlimit:10;}
	.st25{fill:#9CEB60;stroke:#45413C;stroke-linecap:round;stroke-linejoin:round;stroke-miterlimit:10;}
	.st26{fill:#FFFACF;stroke:#45413C;stroke-linecap:round;stroke-linejoin:round;stroke-miterlimit:10;}
	.st27{fill:#00F5BC;stroke:#45413C;stroke-linecap:round;stroke-linejoin:round;stroke-miterlimit:10;}
	.st28{fill:#BF8256;stroke:#45413C;stroke-linecap:round;stroke-linejoin:round;stroke-miterlimit:10;}
	.st29{fill:#FFE3CF;stroke:#45413C;stroke-linecap:round;stroke-linejoin:round;stroke-miterlimit:10;}
	.st30{fill:#FF6242;}
	.st31{fill:#FF866E;}
	.st32{fill:none;stroke:#E04122;stroke-linecap:round;stroke-linejoin:round;stroke-miterlimit:10;}
	.st33{fill:#FFFEF2;stroke:#45413C;stroke-linecap:round;stroke-linejoin:round;stroke-miterlimit:10;}
	.st34{fill:#FF6242;stroke:#45413C;stroke-linecap:round;stroke-linejoin:round;stroke-miterlimit:10;}
	.st35{fill:#FFA694;}
	.st36{fill:#FFFFFF;stroke:#45413C;stroke-linecap:round;stroke-linejoin:round;stroke-miterlimit:10;}
	.st37{fill:#FFFEF2;}
	.st38{fill:#FF6196;}
	.st39{fill:#B89558;}
	.st40{fill:none;stroke:#915E3A;stroke-linecap:round;stroke-linejoin:round;stroke-miterlimit:10;}
	.st41{fill:#DEBB7E;stroke:#45413C;stroke-linecap:round;stroke-linejoin:round;stroke-miterlimit:10;}
	.st42{fill:#6DD627;stroke:#45413C;stroke-linecap:round;stroke-linejoin:round;stroke-miterlimit:10;}
	.st43{fill:#E5F8FF;}
	.st44{fill:#E8F4FA;}
	.st45{fill:#E8F4FA;stroke:#45413C;stroke-linecap:round;stroke-linejoin:round;stroke-miterlimit:10;}
	.st46{fill:#FFCCDD;}
	.st47{fill:#E5F8FF;stroke:#45413C;stroke-linecap:round;stroke-linejoin:round;stroke-miterlimit:10;}
	.st48{fill:#00B8F0;stroke:#45413C;stroke-linecap:round;stroke-linejoin:round;stroke-miterlimit:10;}
	.st49{fill:#00B8F0;}
	.st50{fill:#4ACFFF;}
	.st51{fill:#E04122;}
	.st52{fill:#E04122;stroke:#45413C;stroke-linecap:round;stroke-linejoin:round;stroke-miterlimit:10;}
	.st53{fill:#87898C;}
	.st54{fill:#BDBEC0;}
	.st55{fill:#656769;}
	.st56{fill:#525252;}
	.st57{fill:#FFF48C;stroke:#45413C;stroke-linecap:round;stroke-linejoin:round;stroke-miterlimit:10;}
	.st58{fill:#6DD627;}
	.st59{fill:#EB6D00;}
	.st60{fill:#46B000;}
	.st61{fill:#80DDFF;}
	.st62{fill:#DAEDF7;}
	.st63{fill:#BF8DF2;stroke:#45413C;stroke-linecap:round;stroke-linejoin:round;stroke-miterlimit:10;}
	.st64{fill:#9F5AE5;stroke:#45413C;stroke-linecap:round;stroke-linejoin:round;stroke-miterlimit:10;}
	.st65{fill:#C8FFA1;}
	.st66{fill:#E4FFD1;}
	.st67{fill:#9CEB60;}
	.st68{fill:#E5FEFF;}
	.st69{fill:#B8ECFF;}
	.st70{fill:#E0E0E0;stroke:#45413C;stroke-linecap:round;stroke-linejoin:round;stroke-miterlimit:10;}
	.st71{fill:#E0E0E0;}
	.st72{fill:none;stroke:#4F4B45;stroke-linejoin:round;stroke-miterlimit:10;}
	.st73{fill:none;stroke:#4F4B45;stroke-linecap:round;stroke-linejoin:round;stroke-miterlimit:10;}
	.st74{fill:#E0366F;stroke:#45413C;stroke-linecap:round;stroke-linejoin:round;stroke-miterlimit:10;}
	.st75{fill:none;stroke:#45413C;stroke-miterlimit:10;}
	.st76{fill:#FF866E;stroke:#45413C;stroke-linecap:round;stroke-linejoin:round;stroke-miterlimit:10;}
	.st77{fill:#45413C;stroke:#45413C;stroke-linecap:round;stroke-linejoin:round;stroke-miterlimit:10;}
	.st78{fill:#9F5AE5;}
	.st79{fill:#803EC2;}
	.st80{fill:#803EC2;stroke:#45413C;stroke-linecap:round;stroke-linejoin:round;stroke-miterlimit:10;}
	.st81{fill:#BF8DF2;}
	.st82{fill:#FFAA54;stroke:#45413C;stroke-linecap:round;stroke-linejoin:round;stroke-miterlimit:10;}
	.st83{fill:none;stroke:#45413C;stroke-linejoin:round;stroke-miterlimit:10;}
	.st84{fill:#FFCCDD;stroke:#45413C;stroke-linecap:round;stroke-linejoin:round;stroke-miterlimit:10;}
	.st85{fill:#FF6196;stroke:#45413C;stroke-linecap:round;stroke-linejoin:round;stroke-miterlimit:10;}
	.st86{fill:#FFE5EE;}
	.st87{fill:#F7E5C6;stroke:#45413C;stroke-linecap:round;stroke-linejoin:round;stroke-miterlimit:10;}
	.st88{fill:#E5FFF9;}
	.st89{fill:none;stroke:#45413C;stroke-width:1.0064;stroke-linecap:round;stroke-linejoin:round;stroke-miterlimit:10;}
	.st90{fill:#4AEFF7;}
	.st91{fill:#A6FBFF;}
	.st92{fill:#E5FEFF;stroke:#45413C;stroke-linecap:round;stroke-linejoin:round;stroke-miterlimit:10;}
	.st93{fill:#46B000;stroke:#45413C;stroke-linecap:round;stroke-linejoin:round;stroke-miterlimit:10;}
	.st94{fill:#FFFFFF;stroke:#45413C;stroke-linejoin:round;stroke-miterlimit:10;}
	.st95{fill:#FFFFFF;stroke:#45413C;stroke-miterlimit:10;}
	.st96{fill:#009FD9;}
	.st97{fill:#00DFEB;}
	.st98{fill:#C0DCEB;stroke:#45413C;stroke-linecap:round;stroke-linejoin:round;stroke-miterlimit:10;}
	.st99{fill:#00DFEB;stroke:#45413C;stroke-linecap:round;stroke-linejoin:round;stroke-miterlimit:10;}
	.st100{fill:#FFE5EE;stroke:#45413C;stroke-linecap:round;stroke-linejoin:round;stroke-miterlimit:10;}
	.st101{fill:#8CA4B8;}
	.st102{fill:#ADC4D9;}
	.st103{fill:#656769;stroke:#45413C;stroke-linecap:round;stroke-linejoin:round;stroke-miterlimit:10;}
	.st104{fill:#F0F0F0;stroke:#45413C;stroke-linecap:round;stroke-linejoin:round;stroke-miterlimit:10;}
	.st105{fill:#C0DCEB;}
	.st106{fill:#45413C;}
	.st107{fill:#FFCABF;}
	.st108{fill:#87898C;stroke:#45413C;stroke-linecap:round;stroke-linejoin:round;stroke-miterlimit:10;}
	.st109{fill:#EBCB00;stroke:#45413C;stroke-linecap:round;stroke-linejoin:round;stroke-miterlimit:10;}</style>
</svg>
