<?xml version="1.0" encoding="UTF-8"?>
<svg width="64" height="64" version="1.1" viewBox="0 0 64 64" xmlns="http://www.w3.org/2000/svg">
 <defs>
  <linearGradient id="linearGradient1005" x1="2.9667" x2="16.101" y1="14.069" y2=".93425" gradientTransform="matrix(3.7795 0 0 3.7795 51.738 24.405)" gradientUnits="userSpaceOnUse">
   <stop stop-color="#ff7d50" offset="0"/>
   <stop stop-color="#fa4b5a" offset=".51596"/>
   <stop stop-color="#ff509b" offset="1"/>
  </linearGradient>
 </defs>
 <g transform="translate(-51.87 -24.379)">
  <path d="m113.87 56.379c0 3.5964-0.63303 7.0444-1.7939 10.24-0.80694 2.2212-1.8685 4.3211-3.1518 6.2635-0.53754 0.81668-1.1155 1.6054-1.729 2.3633-1.964 2.4257-4.298 4.538-6.9183 6.2524-0.96491 0.63183-1.9678 1.2098-3.0061 1.7277-4.032 2.0178-8.5836 3.1529-13.401 3.1529-4.8171 0-9.3687-1.1351-13.401-3.153-1.0384-0.51799-2.0425-1.0959-3.0074-1.7277-2.6535-1.7375-5.0154-3.883-6.9954-6.3489-0.61464-0.76406-1.1914-1.56-1.729-2.384-1.249-1.9101-2.2836-3.9711-3.0746-6.1493-1.1607-3.1948-1.7926-6.6416-1.7926-10.237 0-16.569 13.431-30 30-30 8.3168 0 15.842 3.3845 21.277 8.8504 1.5661 1.5746 2.9584 3.3233 4.1434 5.2137 1.1204 1.7804 2.0571 3.6881 2.7856 5.6949 1.161 3.1959 1.794 6.6441 1.794 10.24z" fill="url(#linearGradient1005)" stroke-width=".11719"/>
  <path d="m83.869 37.397a18.983 18.983 0 0 0-3.1639 0.26879v26.624c0 0.87639-0.70554 1.5819-1.5819 1.5819h-1.5819c-0.87639 0-1.5819-0.70552-1.5819-1.5819v-25.142a18.983 18.983 0 0 0-11.073 17.231 18.983 18.983 0 0 0 18.983 18.983 18.983 18.983 0 0 0 18.983-18.983 18.983 18.983 0 0 0-18.983-18.983m-0.78477 9.4914a0.79103 0.86294 0 0 1 0.37694 0.10827l14.237 8.6294a0.79103 0.86294 0 0 1 0 1.5078l-14.237 8.6294a0.79103 0.86294 0 0 1-1.1741-0.75386v-17.259a0.79103 0.86294 0 0 1 0.79714-0.86201" fill="#fff" stroke-linejoin="round" stroke-width="4.7457"/>
 </g>
</svg>
