<?xml version="1.0" encoding="UTF-8"?>
<svg width="64" height="64" version="1.1" viewBox="0 0 64 64" xmlns="http://www.w3.org/2000/svg">
 <defs>
  <linearGradient id="linearGradient1159-3" x1="-184.75" x2="-170.2" y1="-1.2655" y2="-15.817" gradientTransform="matrix(3.7796 0 0 3.7796 753.41 86.919)" gradientUnits="userSpaceOnUse">
   <stop stop-color="#05a0f0" offset="0"/>
   <stop stop-color="#2db4f0" offset="1"/>
  </linearGradient>
 </defs>
 <g transform="translate(-50.589 -22.632)">
  <rect x="55.088" y="27.131" width="55.001" height="55.001" ry="4.5877" fill="url(#linearGradient1159-3)" stroke-width="3.7796"/>
  <g fill="#fff">
   <path d="m62.957 49.926c-0.43456 0.43456-0.43456 1.1342 0 1.5688l3.1376 3.1376-3.1376 3.1376c-0.43456 0.43456-0.43456 1.1342 0 1.5688 0.43456 0.43456 1.1342 0.43456 1.5688 0l3.1376-3.1376 3.1376 3.1376c0.43456 0.43456 1.1342 0.43456 1.5688 0 0.43456-0.43456 0.43456-1.1342 0-1.5688l-3.1376-3.1376 3.1376-3.1376c0.43456-0.43456 0.43456-1.1342 0-1.5688-0.43456-0.43456-1.1342-0.43456-1.5688 0l-3.1376 3.1376-3.1376-3.1376c-0.43456-0.43456-1.1342-0.43456-1.5688 0z"/>
   <path d="m102.22 63.364c0.43456 0.43456 0.43456 1.1342 0 1.5688l-3.1376 3.1376 3.1376 3.1376c0.43456 0.43456 0.43456 1.1342 0 1.5688-0.43456 0.43456-1.1342 0.43456-1.5688 0l-3.1376-3.1376-3.1376 3.1376c-0.43456 0.43456-1.1342 0.43456-1.5688 0-0.43456-0.43456-0.43456-1.1342 0-1.5688l3.1376-3.1376-3.1376-3.1376c-0.43456-0.43456-0.43456-1.1342 0-1.5688 0.43456-0.43456 1.1342-0.43456 1.5688 0l3.1376 3.1376 3.1376-3.1376c0.43456-0.43456 1.1342-0.43456 1.5688 0z"/>
   <path d="m62.957 37.001c-0.43456 0.43456-0.43456 1.1342 0 1.5688l3.1376 3.1376-3.1376 3.1376c-0.43456 0.43456-0.43456 1.1342 0 1.5688 0.43456 0.43456 1.1342 0.43456 1.5688 0l3.1376-3.1376 3.1376 3.1376c0.43456 0.43456 1.1342 0.43456 1.5688 0 0.43456-0.43456 0.43456-1.1342 0-1.5688l-3.1376-3.1376 3.1376-3.1376c0.43456-0.43456 0.43456-1.1342 0-1.5688-0.43456-0.43456-1.1342-0.43456-1.5688 0l-3.1376 3.1376-3.1376-3.1376c-0.43456-0.43456-1.1342-0.43456-1.5688 0z"/>
   <path d="m82.074 49.6c-3.0728 0-5.5466 2.4738-5.5466 5.5466s2.4738 5.5466 5.5466 5.5466 5.5466-2.4738 5.5466-5.5466-2.4738-5.5466-5.5466-5.5466zm0 2.2186c1.8437 0 3.3279 1.4843 3.3279 3.3279 0 1.8437-1.4843 3.3279-3.3279 3.3279s-3.3279-1.4843-3.3279-3.3279c0-1.8437 1.4843-3.3279 3.3279-3.3279z"/>
   <path d="m86.78 63.364c0.43456 0.43456 0.43456 1.1342 0 1.5688l-3.1376 3.1376 3.1376 3.1376c0.43456 0.43456 0.43456 1.1342 0 1.5688-0.43456 0.43456-1.1342 0.43456-1.5688 0l-3.1376-3.1376-3.1376 3.1376c-0.43456 0.43456-1.1342 0.43456-1.5688 0-0.43456-0.43456-0.43456-1.1342 0-1.5688l3.1376-3.1376-3.1376-3.1376c-0.43456-0.43456-0.43456-1.1342 0-1.5688 0.43456-0.43456 1.1342-0.43456 1.5688 0l3.1376 3.1376 3.1376-3.1376c0.43456-0.43456 1.1342-0.43456 1.5688 0z"/>
   <path d="m82.074 36.161c-3.0728 0-5.5466 2.4738-5.5466 5.5466s2.4738 5.5466 5.5466 5.5466 5.5466-2.4738 5.5466-5.5466-2.4738-5.5466-5.5466-5.5466zm0 2.2186c1.8437 0 3.3279 1.4843 3.3279 3.3279 0 1.8437-1.4843 3.3279-3.3279 3.3279s-3.3279-1.4843-3.3279-3.3279c0-1.8437 1.4843-3.3279 3.3279-3.3279z"/>
   <path d="m97 36.161c-3.0728 0-5.5466 2.4738-5.5466 5.5466s2.4738 5.5466 5.5466 5.5466c3.0728 0 5.5466-2.4738 5.5466-5.5466s-2.4738-5.5466-5.5466-5.5466zm0 2.2186c1.8437 0 3.3279 1.4843 3.3279 3.3279 0 1.8437-1.4843 3.3279-3.3279 3.3279-1.8436 0-3.3279-1.4843-3.3279-3.3279 0-1.8437 1.4843-3.3279 3.3279-3.3279z"/>
  </g>
 </g>
</svg>
