<?xml version="1.0" encoding="UTF-8"?>
<svg width="64" height="64" version="1.1" viewBox="0 0 16.933 16.933" xmlns="http://www.w3.org/2000/svg" xmlns:cc="http://creativecommons.org/ns#" xmlns:dc="http://purl.org/dc/elements/1.1/" xmlns:rdf="http://www.w3.org/1999/02/22-rdf-syntax-ns#">
 <defs>
  <linearGradient id="linearGradient1005-2" x1=".73911" x2="16.388" y1="16.296" y2=".64687" gradientTransform="matrix(.99999 0 0 .99999 -.28045 4.5802)" gradientUnits="userSpaceOnUse">
   <stop stop-color="#1973d2" offset="0"/>
   <stop stop-color="#1e87e6" offset="1"/>
  </linearGradient>
  <linearGradient id="linearGradient2234" x1="8.6498" x2="8.6498" y1="16.427" y2=".64687" gradientTransform="matrix(.84659 0 0 .84659 1.0238 5.878)" gradientUnits="userSpaceOnUse">
   <stop stop-color="#cfdef0" offset="0"/>
   <stop stop-color="#f5faff" offset="1"/>
  </linearGradient>
  <linearGradient id="d" x1="408.57" x2="408.57" y1="535.2" y2="512.4" gradientTransform="matrix(.32491 0 0 .32491 -124.52 -157.14)" gradientUnits="userSpaceOnUse">
   <stop stop-color="#282d32" offset="0"/>
   <stop stop-color="#464b50" offset="1"/>
  </linearGradient>
 </defs>
 <metadata>
  <rdf:RDF>
   <cc:Work rdf:about="">
    <dc:format>image/svg+xml</dc:format>
    <dc:type rdf:resource="http://purl.org/dc/dcmitype/StillImage"/>
    <dc:title/>
   </cc:Work>
  </rdf:RDF>
 </metadata>
 <g transform="translate(.24568 -4.5735)">
  <path d="m16.159 13.04c0 0.95155-0.16749 1.8639-0.47464 2.7093-0.2135 0.58769-0.4944 1.1433-0.83394 1.6572-0.14222 0.21608-0.29514 0.42476-0.45746 0.62529-0.51964 0.6418-1.1372 1.2007-1.8305 1.6543-0.2553 0.16717-0.52065 0.32009-0.79536 0.45712-1.0668 0.5339-2.2711 0.8342-3.5457 0.8342-1.2745 0-2.4788-0.30033-3.5457-0.83423-0.27474-0.13705-0.54041-0.28996-0.79571-0.45712-0.70207-0.45974-1.327-1.0274-1.8509-1.6798-0.16263-0.20216-0.31522-0.41275-0.45746-0.63077-0.33046-0.50541-0.6042-1.0507-0.81349-1.627-0.3071-0.84529-0.47429-1.7573-0.47429-2.7085 0-4.3839 3.5536-7.9375 7.9375-7.9375 2.2005 0 4.1918 0.89548 5.6295 2.3417 0.41436 0.41661 0.78274 0.87929 1.0963 1.3795 0.29644 0.47106 0.54427 0.97581 0.73705 1.5068 0.30718 0.84558 0.47466 1.7579 0.47466 2.7093z" fill="url(#linearGradient1005-2)" stroke-width=".031006"/>
  <path d="m14.941 13.04c0 0.80558-0.1418 1.5779-0.40182 2.2938-0.18076 0.49752-0.41854 0.9679-0.70599 1.403-0.12041 0.18293-0.24987 0.3596-0.38727 0.52935-0.43995 0.54335-0.96274 1.0165-1.5497 1.4005-0.21614 0.14153-0.44077 0.27099-0.67336 0.38701-0.90316 0.45199-1.9226 0.70623-3.0017 0.70623-1.079 0-2.0985-0.25425-3.0017-0.70625-0.2326-0.11603-0.45749-0.24548-0.67363-0.38701-0.59436-0.3892-1.1234-0.86979-1.5669-1.4221-0.13768-0.17114-0.26689-0.34944-0.38727-0.53401-0.27977-0.42786-0.51152-0.8895-0.68871-1.3774-0.25999-0.71562-0.40153-1.4877-0.40153-2.2929 0-3.7113 3.0086-6.7199 6.7199-6.7199 1.863 0 3.5486 0.75811 4.7659 1.9824 0.35078 0.35272 0.66268 0.74441 0.9281 1.1678 0.25097 0.39881 0.46077 0.82611 0.62397 1.2756 0.26006 0.71586 0.40185 1.4883 0.40185 2.2938z" fill="url(#linearGradient2234)" stroke-width=".02625"/>
  <path d="m4.5168 9.336v7.4083h3.3674v-1.6837h-1.6837v-4.041h1.6837v-1.6837h-1.7211zm4.041 0v1.6837h1.6837v4.041h-1.6837v1.6837h3.3674v-7.4083h-3.3674z" fill="url(#d)" stroke-width=".26458"/>
 </g>
</svg>
