<?xml version="1.0" encoding="UTF-8"?>
<svg width="64" height="64" version="1.1" viewBox="0 0 16.933 16.933" xmlns="http://www.w3.org/2000/svg" xmlns:cc="http://creativecommons.org/ns#" xmlns:dc="http://purl.org/dc/elements/1.1/" xmlns:rdf="http://www.w3.org/1999/02/22-rdf-syntax-ns#">
 <defs>
  <linearGradient id="linearGradient1343" x1="32" x2="32" y1="2" y2="62" gradientTransform="matrix(.26458 0 0 .26458 13.948 5.3557)" gradientUnits="userSpaceOnUse">
   <stop stop-color="#f5f6fa" offset="0"/>
   <stop stop-color="#e9ecf3" offset=".45933"/>
   <stop stop-color="#dee2ee" offset="1"/>
  </linearGradient>
  <filter id="filter9837" x="-.1188" y="-.099" width="1.2376" height="1.198" color-interpolation-filters="sRGB">
   <feGaussianBlur stdDeviation="1.485"/>
  </filter>
  <linearGradient id="c" x1="20.576" x2="27.051" y1="35.698" y2="18.904" gradientTransform="matrix(.39688 0 0 .39688 12.823 2.5693)" gradientUnits="userSpaceOnUse">
   <stop stop-color="#fa8200" offset="0"/>
   <stop stop-color="#ff9600" offset=".32255"/>
   <stop stop-color="#ffb400" offset="1"/>
  </linearGradient>
  <linearGradient id="b" x1="23.782" x2="23.641" y1="46.374" y2="37.257" gradientTransform="matrix(.39688 0 0 .39688 12.823 2.5693)" gradientUnits="userSpaceOnUse">
   <stop stop-color="#788c8c" offset="0"/>
   <stop stop-color="#dcddde" offset="1"/>
  </linearGradient>
  <filter id="filter5528" x="-.10312" y="-.058929" width="1.2062" height="1.1179" color-interpolation-filters="sRGB">
   <feGaussianBlur stdDeviation="0.515625"/>
  </filter>
 </defs>
 <metadata>
  <rdf:RDF>
   <cc:Work rdf:about="">
    <dc:format>image/svg+xml</dc:format>
    <dc:type rdf:resource="http://purl.org/dc/dcmitype/StillImage"/>
    <dc:title/>
   </cc:Work>
  </rdf:RDF>
 </metadata>
 <g transform="translate(-13.881 -5.1405)">
  <circle cx="22.348" cy="13.607" r="7.9375" fill="url(#linearGradient1343)" image-rendering="optimizeSpeed" stroke-width=".26458" style="paint-order:stroke markers fill"/>
  <path transform="matrix(.26458 0 0 .26458 13.881 5.1405)" d="m32 11.282c-8.2843 0-15 6.7157-15 15 3e-3 5.9616 3 9.4805 6 12.24s1.5 7.2598 3 8.7598h12c1.5-1.5 0-6 3-8.7715s5.9924-6.2712 6-12.229c0-8.2843-6.7157-15-15-15z" fill="#f0a000" filter="url(#filter9837)" stroke-width="1.5"/>
  <g stroke-width=".39688">
   <path d="m21.554 18.841h1.5875v1.1906h-1.5875z" fill="#4b4b4b"/>
   <path d="m22.348 8.1255c-2.1919 0-3.9688 1.7769-3.9688 3.9687 7.93e-4 1.5773 0.79375 2.5084 1.5875 3.2385 0.79375 0.73012 0.39688 1.9208 0.79375 2.3177h3.175c0.39688-0.39688 0-1.5875 0.79375-2.3208 0.79375-0.73329 1.5855-1.6593 1.5875-3.2356 0-2.1919-1.7769-3.9687-3.9688-3.9687z" fill="url(#c)"/>
   <path d="m20.76 17.651h3.175l-0.39688 0.39688v1.1906l-0.39688 0.39688h-1.5875l-0.39688-0.39688v-1.1906z" fill="url(#b)"/>
   <rect transform="rotate(-.19409)" x="20.696" y="18.917" width="3.175" height=".39687" ry=".19844" fill="#b9bebe"/>
   <rect transform="rotate(.11597)" x="20.797" y="18.002" width="3.175" height=".39687" ry=".19844" fill="#b9bebe"/>
  </g>
  <path transform="matrix(.26458 0 0 .26458 13.881 5.1405)" d="m33.5 17.282-7.5 12h4.5v9l7.5-12h-4.5z" fill="#f04b00" fill-rule="evenodd" filter="url(#filter5528)" stroke-width="1.5"/>
  <path d="m22.745 9.713-1.9844 3.175h1.1906v2.3812l1.9844-3.175h-1.1906z" fill="#fff" fill-rule="evenodd" stroke-width=".39688"/>
 </g>
</svg>
