<?xml version="1.0" encoding="UTF-8"?>
<svg width="64" height="64" version="1.1" xmlns="http://www.w3.org/2000/svg" xmlns:xlink="http://www.w3.org/1999/xlink">
 <defs>
  <filter id="filter4014" x="-.0625" y="-.057693" width="1.125" height="1.1154" color-interpolation-filters="sRGB">
   <feGaussianBlur stdDeviation="1.093751"/>
  </filter>
  <linearGradient id="linearGradient2614" x1="32.064" x2="32.064" y1="60.09" y2="5.2599" gradientTransform="matrix(1 0 0 1 -.00071175 -.00037667)" gradientUnits="userSpaceOnUse">
   <stop stop-color="#5a00a0" offset="0"/>
   <stop stop-color="#8c05eb" offset="1"/>
  </linearGradient>
  <linearGradient id="linearGradient4202" x1="32.198" x2="32.198" y1="10.2" y2="51.834" gradientUnits="userSpaceOnUse">
   <stop stop-color="#fff" offset="0"/>
   <stop stop-color="#dfb4fe" offset="1"/>
  </linearGradient>
 </defs>
 <circle cx="32" cy="32" r="30.001" fill="url(#linearGradient2614)" stroke-linecap="round" stroke-width=".24328"/>
 <path transform="matrix(1 0 0 1 .00028285 -.0020791)" d="m25 9.25c-0.875 0-3.9375 3.5-4.375 3.5h-2.1875c-0.875 0-3.9375 3.0625-3.9375 3.9375v2.625c0 0.4375-3.4808 3.5-3.5 4.375s6.125 21.438 7 22.312 10.5 8.75 13.125 8.75h1.75c2.625 0 12.25-7.875 13.125-8.75s7.0175-21.438 7-22.312c-0.01925-0.86975-3.5-3.9375-3.5-4.375v-2.625c0-0.875-3.0625-3.9375-3.9375-3.9375h-2.1875c-0.4375 0-3.5-3.5-4.375-3.5zm7 6.1113c0.875 0 1.7395 0.29892 2.625 0.88867 2.625 1.75 6.125-0.875 7-0.875s6.125 6.3752 6.125 8.75c0 1.75-6.5625 5.775-6.5625 7 0 0.875 1.3125 1.2973 1.3125 3.1523 0 1.2232-1.75 3.4102-3.5 3.4102s-6.1285-3.4347-6.125-4.2852v-0.52734c0-1.05 3.9375-2.373 3.9375-4.375 0-1.75-1.3125-2.3975-1.3125-4.375 0-1.701 3.5-2.1875 6.125-2.625 0.875 0-2.625-2.8791-7.4375 0.23242-1.218 0.7875 1.3125 3.9011 0.875 6.7676-0.65625 0.6125-1.8585 0.91992-3.0625 0.91992-1.2022 0-2.4062-0.30742-3.0625-0.91992-0.4375-2.8665 2.093-5.9801 0.875-6.7676-4.8125-3.1115-8.3125-0.23242-7.4375-0.23242 2.625 0.4375 6.125 0.924 6.125 2.625 0 1.9775-1.3125 2.625-1.3125 4.375 0 2.002 3.9375 3.325 3.9375 4.375v0.52734c0.0035 0.8505-4.375 4.2852-6.125 4.2852s-3.5-2.1869-3.5-3.4102c0-1.8568 1.3125-2.2773 1.3125-3.1523 0-1.225-6.5625-5.25-6.5625-7 0-2.3748 5.25-8.75 6.125-8.75s4.375 2.625 7 0.875c0.8855-0.58975 1.7535-0.88867 2.625-0.88867zm0 20.84c1.75 0 5.6875 2.7113 5.6875 3.2363s-3.9375 4.8125-5.6875 4.8125-5.6875-4.2875-5.6875-4.8125 3.9375-3.2363 5.6875-3.2363z" fill="#390066" filter="url(#filter4014)"/>
 <path d="m24.999 9.2481c-0.87502 0-3.9376 3.5001-4.3753 3.5001h-2.1876c-0.87502 0-3.9376 3.0626-3.9376 3.9376v2.625c0 0.43753-3.4809 3.5001-3.5001 4.3753-0.01928 0.87502 6.1252 21.438 7.0002 22.313 0.87498 0.87422 10.5 8.7502 13.125 8.7502h1.75c2.625 0 12.25-7.8752 13.125-8.7502 0.87502-0.87502 7.0176-21.438 7.0002-22.313-0.01928-0.86976-3.5001-3.9376-3.5001-4.3753v-2.625c0-0.87502-3.0626-3.9376-3.9376-3.9376h-2.1876c-0.43753 0-3.5001-3.5001-4.3753-3.5001zm7.0002 6.1112c0.87502 0 1.7395 0.29892 2.625 0.8887 2.625 1.75 6.1252-0.87502 7.0002-0.87502 0.87502 0 6.1252 6.3754 6.1252 8.7502 0 1.75-6.5625 5.7752-6.5625 7.0002 0 0.87502 1.3125 1.2973 1.3125 3.1524 0 1.2232-1.75 3.4103-3.5001 3.4103s-6.1286-3.4348-6.1252-4.2853v-0.52733c0-1.05 3.9376-2.3731 3.9376-4.3753 0-1.75-1.3125-2.3976-1.3125-4.3753 0-1.701 3.5001-2.1876 6.1252-2.625 0.87502 0-2.625-2.8792-7.4375 0.23242-1.218 0.78752 1.3125 3.9013 0.87502 6.7678-0.65625 0.61252-1.8585 0.91996-3.0626 0.91996-1.2022 0-2.4062-0.30743-3.0626-0.91996-0.43753-2.8666 2.093-5.9801 0.87502-6.7678-4.8126-3.1116-8.3125-0.23242-7.4375-0.23242 2.625 0.43753 6.1252 0.92404 6.1252 2.625 0 1.9775-1.3125 2.625-1.3125 4.3753 0 2.0021 3.9376 3.3251 3.9376 4.3753v0.52733c0.0035 0.85052-4.3753 4.2853-6.1252 4.2853s-3.5001-2.187-3.5001-3.4103c0-1.8568 1.3125-2.2774 1.3125-3.1524 0-1.225-6.5625-5.2502-6.5625-7.0002 0-2.3748 5.2502-8.7502 6.1252-8.7502s4.3753 2.625 7.0002 0.87502c0.88552-0.58977 1.7535-0.8887 2.625-0.8887zm0 20.84c1.75 0 5.6875 2.7113 5.6875 3.2364 0 0.52502-3.9376 4.8126-5.6875 4.8126-1.75 0-5.6875-4.2876-5.6875-4.8126 0-0.52499 3.9376-3.2364 5.6875-3.2364z" fill="url(#linearGradient4202)"/>
</svg>
