<?xml version="1.0" encoding="UTF-8"?>
<svg width="64" height="64" version="1.1" viewBox="0 0 16.933 16.933" xmlns="http://www.w3.org/2000/svg" xmlns:cc="http://creativecommons.org/ns#" xmlns:dc="http://purl.org/dc/elements/1.1/" xmlns:rdf="http://www.w3.org/1999/02/22-rdf-syntax-ns#" xmlns:xlink="http://www.w3.org/1999/xlink">
 <defs>
  <linearGradient id="linearGradient997" x1="2.0382" x2="62.401" y1="61.669" y2="2.7041" gradientTransform="matrix(.26458 0 0 .26458 4.857 8.6368)" gradientUnits="userSpaceOnUse">
   <stop stop-color="#f66b1c" offset="0"/>
   <stop stop-color="#fad961" offset="1"/>
  </linearGradient>
 </defs>
 <metadata>
  <rdf:RDF>
   <cc:Work rdf:about="">
    <dc:format>image/svg+xml</dc:format>
    <dc:type rdf:resource="http://purl.org/dc/dcmitype/StillImage"/>
    <dc:title/>
   </cc:Work>
  </rdf:RDF>
 </metadata>
 <g transform="translate(-4.857 -8.6368)">
  <path d="m18.697 9.1349c-0.08054-0.00632-0.16307-0.0046-0.2465 0.00568l-12.033 1.4826c-0.66741 0.08224-1.1385 0.68599-1.0563 1.3534l1.4826 12.033c0.082235 0.66741 0.68599 1.1385 1.3534 1.0563l12.033-1.4826c0.66741-0.08224 1.1385-0.686 1.0563-1.3534l-1.4826-12.033c-0.071956-0.58398-0.54316-1.0177-1.1069-1.062z" fill="url(#linearGradient997)" image-rendering="optimizeSpeed"/>
  <path d="m8.5643 13.926 0.034389 0.3174 0.65335 6.0302 7.7759-0.84249-0.68774-6.3476zm0.70357 0.56601 6.5063-0.70494 0.55019 5.0781-6.5063 0.70494zm0.83897 0.54956 0.12553 1.1586 1.1586-0.12553-0.12553-1.1586zm6.5468-0.54698 0.06878 0.63479 0.1587-0.0172 0.49861 4.602-6.5063 0.70494-0.0172-0.1587-0.63479 0.06878 0.08597 0.79349 7.7757-0.84246-0.63616-5.8716zm-6.3603 2.2708 0.03439 0.3174 4.6665-0.5056-0.03439-0.31739zm0.09558 0.88213 0.03439 0.3174 1.2472-0.13513-0.03439-0.31739zm1.6756-0.18155 0.03439 0.3174 1.0687-0.11579-0.03439-0.31739zm0.28396 0.86222 0.03012 0.31786 0.49284-0.04705-0.03013-0.31786zm-1.8636 0.20522 0.03439 0.3174 1.425-0.1544-0.03439-0.31739z" color="#000000" color-rendering="auto" dominant-baseline="auto" fill="#fff" image-rendering="auto" shape-rendering="auto" solid-color="#000000" style="font-feature-settings:normal;font-variant-alternates:normal;font-variant-caps:normal;font-variant-ligatures:normal;font-variant-numeric:normal;font-variant-position:normal;isolation:auto;mix-blend-mode:normal;shape-padding:0;text-decoration-color:#000000;text-decoration-line:none;text-decoration-style:solid;text-indent:0;text-orientation:mixed;text-transform:none;white-space:normal"/>
 </g>
</svg>
