<?xml version="1.0" encoding="UTF-8"?>
<svg width="64" height="64" version="1.1" viewBox="0 0 16.933 16.933" xmlns="http://www.w3.org/2000/svg" xmlns:cc="http://creativecommons.org/ns#" xmlns:dc="http://purl.org/dc/elements/1.1/" xmlns:rdf="http://www.w3.org/1999/02/22-rdf-syntax-ns#">
 <defs>
  <linearGradient id="linearGradient2023" x1="16.257" x2="881.57" y1="135.34" y2="1000.7" gradientTransform="matrix(.016817 0 0 .016817 3.1804 12.787)" gradientUnits="userSpaceOnUse">
   <stop stop-color="#37beff" offset="0"/>
   <stop stop-color="#00a0ff" offset="1"/>
  </linearGradient>
  <filter id="filter3938" x="-.046612" y="-.049473" width="1.0932" height="1.0989" color-interpolation-filters="sRGB">
   <feGaussianBlur stdDeviation="0.17448562"/>
  </filter>
 </defs>
 <metadata>
  <rdf:RDF>
   <cc:Work rdf:about="">
    <dc:format>image/svg+xml</dc:format>
    <dc:type rdf:resource="http://purl.org/dc/dcmitype/StillImage"/>
    <dc:title/>
   </cc:Work>
  </rdf:RDF>
 </metadata>
 <g transform="translate(-4.83 -12.447)">
  <rect transform="rotate(-6.792)" x="3.4538" y="15.063" width="14.552" height="14.552" ry="1.3229" fill="url(#linearGradient2023)" stroke-width=".26458"/>
  <g fill="#157ce0">
   <rect transform="matrix(.15742 -.042181 .042181 .15742 7.8664 17.631)" x=".52434" y="14.445" width="16.695" height="12.328" ry="2.6356" filter="url(#filter3938)"/>
   <rect transform="matrix(.15742 -.042181 .042181 .15742 7.8664 17.631)" x="19.651" y="14.445" width="16.695" height="12.328" ry="2.6356" filter="url(#filter3938)"/>
   <rect transform="matrix(.15742 -.042181 .042181 .15742 7.8664 17.631)" x=".30503" y="29.384" width="16.695" height="12.328" ry="2.6356" filter="url(#filter3938)"/>
   <rect transform="matrix(.15742 -.042181 .042181 .15742 7.8664 17.631)" x="19.432" y="29.384" width="16.695" height="12.328" ry="2.6356" filter="url(#filter3938)"/>
   <path transform="matrix(1 0 0 1 4.83 12.447)" d="m7.476 4.3494a4.2333 4.2333 0 0 0-2.4486 1.7944l1.3233-0.35458a3.4646 3.4646 0 0 1 1.3249-0.69757 3.4646 3.4646 0 0 1 4.2453 2.4453l1e-3 0.00383a3.4646 3.4646 0 0 1-2.449 4.243 3.4646 3.4646 0 0 1-1.5041 0.06029l-1.3244 0.35488a4.2333 4.2333 0 0 0 3.0276 0.3271 4.2333 4.2333 0 0 0 2.9924-5.1842l-0.0012-0.00464a4.2333 4.2333 0 0 0-5.187-2.9879z" filter="url(#filter3938)" stroke-width=".22689"/>
  </g>
  <g fill="#fff">
   <g stroke-width=".16298">
    <rect transform="rotate(-15)" x="3.1205" y="21.421" width="2.7209" height="2.0092" ry=".42954"/>
    <rect transform="rotate(-15)" x="6.2377" y="21.421" width="2.7209" height="2.0092" ry=".42954"/>
    <rect transform="rotate(-15)" x="3.0848" y="23.856" width="2.7209" height="2.0092" ry=".42954"/>
    <rect transform="rotate(-15)" x="6.202" y="23.856" width="2.7209" height="2.0092" ry=".42954"/>
   </g>
   <path d="m12.306 16.797a4.2334 4.2334 0 0 0-2.4486 1.7944l1.3233-0.35459a3.4647 3.4647 0 0 1 1.3249-0.69758 3.4647 3.4647 0 0 1 4.2454 2.4453l1e-3 0.0038a3.4647 3.4647 0 0 1-2.449 4.2431 3.4647 3.4647 0 0 1-1.5041 0.06029l-1.3244 0.35489a4.2334 4.2334 0 0 0 3.0277 0.32711 4.2334 4.2334 0 0 0 2.9925-5.1843l-0.0012-0.0046a4.2334 4.2334 0 0 0-5.1871-2.988z" stroke-width=".22689"/>
  </g>
 </g>
</svg>
