<?xml version="1.0" encoding="UTF-8"?>
<svg width="64" height="64" version="1" xmlns="http://www.w3.org/2000/svg" xmlns:xlink="http://www.w3.org/1999/xlink">
 <defs>
  <linearGradient id="linearGradient1559" x1="8.1125" x2="8.1125" y1="1.3658" y2="15.681" gradientTransform="matrix(3.7796 0 0 3.7796 1e-7 -.0001897)" gradientUnits="userSpaceOnUse">
   <stop stop-color="#3a3a3a" offset="0"/>
   <stop stop-color="#353535" offset="1"/>
  </linearGradient>
  <linearGradient id="linearGradient35897" x1="8.1125" x2="8.1125" y1="1.3658" y2="15.681" gradientTransform="matrix(3.7796 0 0 3.7796 1e-7 -.0001897)" gradientUnits="userSpaceOnUse" xlink:href="#linearGradient1559"/>
  <linearGradient id="linearGradient36022" x1="8.1125" x2="8.1125" y1="1.3658" y2="15.681" gradientTransform="matrix(3.7796 0 0 3.7796 0 -.0001897)" gradientUnits="userSpaceOnUse" xlink:href="#linearGradient1559"/>
  <linearGradient id="linearGradient37760" x1="42.499" x2="42.499" y1="4.7853" y2="59.387" gradientUnits="userSpaceOnUse">
   <stop stop-color="#eb6239" offset="0"/>
   <stop stop-color="#eb633d" offset="1"/>
  </linearGradient>
 </defs>
 <g fill="url(#linearGradient35897)" stroke-width="3.7796">
  <path d="m7.7207 4.7051c0.14383-0.044552 0.28986-0.080869 0.43945-0.11133 0.1496-0.030459 0.30243-0.054704 0.45703-0.070312-0.3092 0.031213-0.60883 0.092544-0.89648 0.18164z"/>
  <path d="m6.5195 5.2812c0.122-0.082289 0.24887-0.15805 0.37891-0.22852s0.26308-0.13547 0.40039-0.19336c-0.27462 0.11577-0.53531 0.25731-0.7793 0.42188z"/>
  <path d="m5.5449 6.166c0.093353-0.11321 0.19322-0.22056 0.29688-0.32422 0.10366-0.10366 0.21101-0.20352 0.32422-0.29688-0.2264 0.18669-0.4344 0.39469-0.62109 0.62109z"/>
  <path d="m4.8594 7.2988c0.057888-0.13731 0.12289-0.27036 0.19336-0.40039s0.14623-0.25691 0.22852-0.37891c-0.16457 0.24399-0.30611 0.50468-0.42188 0.7793z"/>
  <path d="m4.5234 8.6172c0.015608-0.1546 0.039854-0.30744 0.070312-0.45703 0.030459-0.1496 0.066776-0.29562 0.11133-0.43945-0.089097 0.28766-0.15043 0.58729-0.18164 0.89648z"/>
  <path d="m4.7051 56.279c-0.044552-0.14383-0.080869-0.28986-0.11133-0.43945-0.030459-0.1496-0.054704-0.30243-0.070312-0.45703 0.031213 0.3092 0.092544 0.60883 0.18164 0.89648z"/>
  <path d="m5.2812 57.48c-0.082289-0.122-0.15805-0.24887-0.22852-0.37891-0.070467-0.13004-0.13547-0.26308-0.19336-0.40039 0.11577 0.27462 0.25731 0.53531 0.42188 0.7793z"/>
  <path d="m6.166 58.455c-0.11321-0.093353-0.22056-0.19322-0.32422-0.29688-0.10366-0.10366-0.20352-0.21101-0.29688-0.32422 0.18669 0.2264 0.39469 0.4344 0.62109 0.62109z"/>
  <path d="m8.6172 59.477c-0.1546-0.015608-0.30744-0.039853-0.45703-0.070312-0.1496-0.030459-0.29562-0.066776-0.43945-0.11133 0.28766 0.089097 0.58729 0.15043 0.89648 0.18164z"/>
  <path d="m56.279 59.295c-0.14383 0.044552-0.28986 0.080869-0.43945 0.11133-0.1496 0.030459-0.30243 0.054704-0.45703 0.070312 0.3092-0.031213 0.60883-0.092543 0.89648-0.18164z"/>
  <path d="m58.455 57.834c-0.093353 0.11321-0.19322 0.22056-0.29688 0.32422-0.10366 0.10366-0.21101 0.20352-0.32422 0.29688 0.2264-0.18669 0.4344-0.39469 0.62109-0.62109z"/>
  <path d="m59.141 56.701c-0.057889 0.13731-0.12289 0.27036-0.19336 0.40039-0.070468 0.13004-0.14623 0.25691-0.22852 0.37891 0.16456-0.24399 0.30611-0.50468 0.42188-0.7793z"/>
  <path d="m58.719 6.5195c0.082289 0.122 0.15805 0.24887 0.22852 0.37891 0.070467 0.13004 0.13547 0.26308 0.19336 0.40039-0.11577-0.27462-0.25731-0.53531-0.42188-0.7793z"/>
  <path d="m57.834 5.5449c0.11321 0.093353 0.22056 0.19322 0.32422 0.29688 0.10366 0.10366 0.20352 0.21101 0.29688 0.32422-0.18669-0.2264-0.39469-0.4344-0.62109-0.62109z"/>
  <path d="m56.701 4.8594c0.13731 0.057888 0.27036 0.12289 0.40039 0.19336 0.13004 0.070467 0.25691 0.14623 0.37891 0.22852-0.24399-0.16457-0.50468-0.30611-0.7793-0.42188z"/>
  <path d="m55.383 4.5234c0.1546 0.015608 0.30744 0.039854 0.45703 0.070312 0.1496 0.030459 0.29562 0.066776 0.43945 0.11133-0.28766-0.089097-0.58729-0.15043-0.89648-0.18164z"/>
 </g>
 <path d="m34.219 4.5v10.674l-10.174 10.26h10.174v10.133h13.121l-13.121 15.865v8.0684h20.693c0.15885 0 0.3161-0.0078 0.4707-0.02344 0.1546-0.01561 0.30744-0.03985 0.45703-0.07031 0.1496-0.03046 0.29562-0.06678 0.43945-0.11133 0.57532-0.17819 1.1019-0.46646 1.5547-0.83984 0.11321-0.09335 0.22056-0.19322 0.32422-0.29688 0.10366-0.10366 0.20352-0.21101 0.29688-0.32422 0.09335-0.1132 0.18139-0.23152 0.26367-0.35352 0.08229-0.122 0.15805-0.24887 0.22852-0.37891 0.07047-0.13004 0.13547-0.26308 0.19336-0.40039 0.05788-0.13731 0.10975-0.27805 0.1543-0.42188 0.04455-0.14383 0.08087-0.28986 0.11133-0.43945 0.03046-0.1496 0.0547-0.30243 0.07031-0.45703 0.015609-0.1546 0.02344-0.31185 0.02344-0.4707v-45.824c0-0.15885-0.00783-0.3161-0.023438-0.4707-0.015608-0.1546-0.039853-0.30744-0.070312-0.45703-0.030459-0.1496-0.066776-0.29562-0.11133-0.43945-0.044549-0.14383-0.096413-0.28457-0.1543-0.42188-0.057889-0.13731-0.12289-0.27036-0.19336-0.40039-0.070468-0.13004-0.14623-0.25691-0.22852-0.37891-0.082283-0.12199-0.17033-0.24031-0.26367-0.35352-0.093353-0.11321-0.19322-0.22056-0.29688-0.32422-0.10366-0.10366-0.21101-0.20352-0.32422-0.29688-0.1132-0.093346-0.23152-0.18139-0.35352-0.26367-0.122-0.082289-0.24887-0.15805-0.37891-0.22852-0.13004-0.070467-0.26308-0.13547-0.40039-0.19336-0.13731-0.057884-0.27805-0.10975-0.42188-0.1543-0.14383-0.044552-0.28986-0.080869-0.43945-0.11133-0.1496-0.030459-0.30243-0.054704-0.45703-0.070312-0.1546-0.015607-0.31185-0.023438-0.4707-0.023438z" fill="url(#linearGradient37760)" stroke-width="3.7796"/>
 <path d="m9.0879 4.5c-0.15885 0-0.3161 0.00783-0.4707 0.023437-0.1546 0.015608-0.30744 0.039854-0.45703 0.070312-0.1496 0.030459-0.29562 0.066776-0.43945 0.11133-0.14383 0.044549-0.28457 0.096413-0.42188 0.1543-0.13731 0.057888-0.27036 0.12289-0.40039 0.19336-0.13004 0.070467-0.25691 0.14623-0.37891 0.22852-0.122 0.082283-0.24031 0.17033-0.35352 0.26367-0.11321 0.093353-0.22056 0.19322-0.32422 0.29688-0.10366 0.10366-0.20352 0.21101-0.29688 0.32422-0.09335 0.1132-0.18139 0.23152-0.26367 0.35352-0.08229 0.122-0.15805 0.24887-0.22852 0.37891-0.07047 0.13004-0.13547 0.26308-0.19336 0.40039-0.05788 0.13731-0.10975 0.27805-0.1543 0.42188-0.04455 0.14383-0.08087 0.28986-0.11133 0.43945-0.03046 0.1496-0.0547 0.30243-0.07031 0.45703-0.01561 0.1546-0.02344 0.31185-0.02344 0.4707v45.824c0 0.15885 0.0078 0.3161 0.02344 0.4707 0.01561 0.1546 0.03985 0.30744 0.07031 0.45703 0.03046 0.1496 0.06678 0.29562 0.11133 0.43945 0.04455 0.14383 0.09641 0.28457 0.1543 0.42188 0.05789 0.13731 0.12289 0.27036 0.19336 0.40039 0.07047 0.13004 0.14623 0.25691 0.22852 0.37891 0.08228 0.12199 0.17033 0.24031 0.26367 0.35352 0.09335 0.11321 0.19322 0.22056 0.29688 0.32422 0.10366 0.10366 0.21101 0.20352 0.32422 0.29688 0.45281 0.37338 0.97937 0.66165 1.5547 0.83984 0.14383 0.04455 0.28986 0.08087 0.43945 0.11133 0.1496 0.03046 0.30243 0.0547 0.45703 0.07031 0.1546 0.01561 0.31186 0.02344 0.4707 0.02344h22.131v-9.1484l9.7461-11.785h-9.7461v-10.133h-14.373l14.373-14.496v-9.4375z" fill="url(#linearGradient36022)" stroke-width="3.7796"/>
</svg>
