<?xml version="1.0" encoding="UTF-8"?>
<svg width="64" height="64" version="1.1" viewBox="0 0 16.933 16.933" xmlns="http://www.w3.org/2000/svg" xmlns:cc="http://creativecommons.org/ns#" xmlns:dc="http://purl.org/dc/elements/1.1/" xmlns:rdf="http://www.w3.org/1999/02/22-rdf-syntax-ns#">
 <defs>
  <radialGradient id="a" cx="502.62" cy="372.05" r="74.884" gradientTransform="matrix(.084108 0 0 .021049 -33.808 6.6201)" gradientUnits="userSpaceOnUse">
   <stop stop-color="#dfe5e8" offset="0"/>
   <stop stop-color="#c3cacc" offset="1"/>
  </radialGradient>
  <linearGradient id="b" x1="500.55" x2="504.38" y1="216.14" y2="349.1" gradientTransform="matrix(.089244 0 0 .089604 -36.389 -17.957)" gradientUnits="userSpaceOnUse">
   <stop stop-color="#d7e1e5" offset="0"/>
   <stop stop-color="#a1a1a2" offset="1"/>
  </linearGradient>
  <linearGradient id="d" x1="63.721" x2="64.939" y1="168.65" y2="249.61" gradientTransform="matrix(.11897 0 0 .11945 .42489 -18.638)" gradientUnits="userSpaceOnUse">
   <stop stop-color="#fff" offset="0"/>
   <stop stop-color="#e5e5e6" offset="1"/>
  </linearGradient>
  <linearGradient id="c" x1="-17.94" x2="-17.94" y1="351.1" y2="361.98" gradientTransform="matrix(.079615 0 0 .037386 9.4271 1.4235)" gradientUnits="userSpaceOnUse">
   <stop stop-color="#4c4c4c" offset="0"/>
   <stop stop-color="#828282" offset="1"/>
  </linearGradient>
 </defs>
 <metadata>
  <rdf:RDF>
   <cc:Work rdf:about="">
    <dc:format>image/svg+xml</dc:format>
    <dc:type rdf:resource="http://purl.org/dc/dcmitype/StillImage"/>
    <dc:title/>
   </cc:Work>
  </rdf:RDF>
 </metadata>
 <g stroke-width=".93728">
  <path d="m1.9983 12.59c-0.23352 0.04059-0.2281 0.42118-0.20279 0.80138 0.00914 0.49326 0.035315 1.0657 0.079007 1.5792 0.023942 0.42672 0.28488 0.77194 0.63873 0.77194h11.907c0.35386 0 0.6148-0.34522 0.63873-0.77194 0.04369-0.51347 0.06987-1.0859 0.079-1.5792 0.02532-0.3802 0.03073-0.76074-0.20279-0.80138h-11.999z" fill="url(#a)"/>
  <path d="m3.4458 1.3356c-0.1346-2.328e-4 -0.25101 0.02214-0.3456 0.069318-0.1539 0.057291-0.21908 0.16468-0.26347 0.33959l-1.0619 11.296c-0.00521 0.05547-0.0018 0.10929 9e-3 0.16067 0.00432 0.02055 0.00981 0.04073 0.016418 0.06043 0.0033 0.0099 0.0069 0.01959 0.010745 0.02922 0.011545 0.02886 0.025506 0.05667 0.041598 0.0832 0.026819 0.04425 0.059564 0.08499 0.097076 0.12141 0.00751 0.0072 0.015187 0.01441 0.02306 0.0213 0.039367 0.03466 0.083254 0.0648 0.13042 0.0896 0.00943 5e-3 0.018954 0.0097 0.02864 0.01424 0.08717 0.04073 0.18423 0.06353 0.28413 0.06353h12.101c0.23306 0 0.45068-0.12431 0.56334-0.3101 0.01609-0.02653 0.03005-0.05434 0.0416-0.0832 0.0038-0.0096 0.0074-0.01937 0.01074-0.02922 0.0066-0.01968 0.0121-0.03988 0.01641-0.06043 0.0108-0.05137 0.01421-0.1052 9e-3 -0.16067l-1.0619-11.296c-0.044391-0.17491-0.10958-0.2823-0.26347-0.33959-0.094591-0.047165-0.21105-0.069551-0.34565-0.069314l-5.0205 0.0083z" fill="#f3fdff"/>
  <path d="m3.4458 1.1907c-0.1346-2.372e-4 -0.25101 0.02214-0.3456 0.069318-0.1539 0.057286-0.21908 0.16467-0.26347 0.33958l-1.0619 11.296c-0.00521 0.05546-0.0018 0.10929 9e-3 0.16067 0.00432 0.02055 0.00981 0.04068 0.016418 0.06043 0.0033 0.0099 0.0069 0.01959 0.010745 0.02922 0.011545 0.02886 0.025506 0.05666 0.041598 0.08321 0.026819 0.04425 0.059564 0.08498 0.097076 0.12141 0.00751 0.0072 0.015187 0.01437 0.02306 0.02126 0.039367 0.03466 0.083254 0.06479 0.13042 0.08959 0.00943 0.0049 0.018954 0.0097 0.02864 0.01423 0.08717 0.04073 0.18423 0.06353 0.28413 0.06353h12.101c0.23306 0 0.45068-0.1243 0.56334-0.31009 0.01609-0.02653 0.03005-0.05434 0.0416-0.08321 0.0038-0.0096 0.0074-0.01937 0.01074-0.02922 0.0066-0.01972 0.0121-0.03989 0.01641-0.06043 0.0108-0.05138 0.01421-0.10521 9e-3 -0.16067l-1.0619-11.296c-0.044391-0.17491-0.10958-0.2823-0.26347-0.33958-0.09459-0.04717-0.21105-0.069555-0.34565-0.069318l-5.0205 0.00826z" fill="url(#b)"/>
  <path d="m3.7008 1.4235c-0.26283 0.00176-0.57144 0.040326-0.63781 0.31722l-0.80297 8.804c-0.00483 0.04318-0.00169 0.08515 0.00833 0.12518 0.00401 0.01604 0.0091 0.03167 0.015229 0.04707 0.00306 0.0077 0.00641 0.01524 0.00998 0.02279 0.010707 0.02249 0.023629 0.04412 0.038554 0.06481 0.00639 0.0089 0.013189 0.01757 0.020289 0.02609 0.00216 0.0026 0.00451 5e-3 0.00672 0.0076 0.00505 0.0058 0.010125 0.01156 0.015504 0.01718 0.00288 0.0031 0.00595 0.0059 0.00892 0.0088 0.00514 0.0052 0.010255 0.01019 0.015644 0.01511 0.0028 0.0026 0.00577 5e-3 0.00865 0.0076 0.00474 0.0039 0.00939 0.0083 0.014308 0.01239 0.00126 8.78e-4 0.0026 0.0018 0.00387 0.0031 0.00168 0.0013 0.0034 0.0026 0.00512 0.0039 0.00413 0.0031 0.00818 0.0065 0.012423 0.0096 0.00216 0.0018 0.00448 0.0031 0.00667 0.0046 0.00445 0.0031 0.00896 0.0063 0.013527 0.0094 0.00509 0.0036 0.010231 0.0068 0.01546 0.01015 0.00486 0.0031 0.00979 0.0061 0.014768 0.0091 0.00525 0.0031 0.010541 0.0062 0.01592 0.0092 0.00512 0.0026 0.010279 0.0056 0.015506 0.0083 0.00543 0.0026 0.010933 0.0056 0.01647 0.0082 0.0053 0.0026 0.010612 0.0052 0.016011 0.0077 0.00224 8.78e-4 0.00438 0.0022 0.00663 0.0031 0.00618 0.0026 0.012449 0.0052 0.018727 0.0078 0.00126 4.4e-4 0.0025 8.78e-4 0.00379 0.0013 0.00137 4.4e-4 0.00267 0.0013 0.00404 0.0018 0.0101 0.0039 0.020353 0.0077 0.030735 0.01125h4.39e-5c0.011266 0.0035 0.022759 0.0073 0.034323 0.01063 0.00375 8.8e-4 0.00755 0.0018 0.011316 0.0031 0.00814 0.0022 0.016306 0.0039 0.024569 0.0061 0.0042 8.78e-4 0.00842 0.0018 0.012652 0.0026 0.00794 0.0018 0.015926 0.0031 0.023971 0.0046 0.00411 8.78e-4 0.0082 0.0013 0.012328 0.0022 0.00866 0.0013 0.017381 0.0026 0.026134 0.0035 0.00379 4.39e-4 0.00756 8.79e-4 0.011364 0.0013 0.00943 8.79e-4 0.018914 0.0018 0.028435 0.0022 0.00312 2.37e-4 0.00621 4.38e-4 0.00934 4.38e-4 0.012724 8.79e-4 0.025487 8.79e-4 0.038327 8.79e-4h11.224c0.01284 0 0.0256-4.39e-4 0.03833-8.79e-4 0.0032-2.37e-4 0.0062-4.38e-4 0.0094-4.38e-4 0.0095-4.4e-4 0.019-0.0013 0.02844-0.0022 0.0037-3.55e-4 0.0076-8.78e-4 0.01136-0.0013 0.0087-8.79e-4 0.01747-0.0022 0.02613-0.0035 0.0041-4.4e-4 0.0082-0.0013 0.01233-0.0022 0.0081-0.0013 0.01603-0.0026 0.02397-0.0046 0.0042-8.79e-4 0.0084-0.0018 0.01265-0.0026 0.0084-0.0018 0.01681-0.0039 0.02512-0.0063 0.0035-8.78e-4 7e-3 -0.0018 0.01055-0.0026 0.01166-0.0031 0.02319-0.0068 0.03455-0.01072h4.5e-5c0.01039-0.0035 0.02063-0.0072 0.03073-0.01125 0.0013-4.4e-4 0.0024-8.79e-4 0.0037-0.0013 0.0018-8.78e-4 0.0035-0.0013 0.0052-0.0022 0.0059-0.0022 0.01179-0.0048 0.01757-0.0073 0.0022-8.79e-4 0.0044-0.0022 0.0066-0.0031 0.0055-0.0022 0.01089-0.0052 0.01629-0.0078 0.0053-0.0026 0.01068-0.0052 0.01592-8e-3 0.0053-0.0026 0.01064-0.0056 0.01588-0.0085 0.0055-0.0031 0.01092-0.0062 0.01629-0.0094 0.0048-0.0026 0.0095-0.0057 0.01417-0.0087 0.0052-0.0031 0.01049-0.0067 0.01564-0.01023 0.0046-0.0031 0.0091-0.0062 0.01352-0.0094 0.0022-0.0013 0.0045-0.0031 0.0067-0.0046 0.0042-0.0031 0.0083-0.0064 0.01242-0.0096 0.0017-0.0013 0.0034-0.0026 0.0052-0.0039 0.0013-8.78e-4 0.0026-0.0018 0.0038-0.0031 5e-3 -0.0039 0.0096-0.0082 0.01431-0.01239 0.0029-0.0026 0.0058-5e-3 0.0086-0.0076 0.0054-0.0049 0.01051-0.01002 0.01564-0.01511 3e-3 -0.0026 0.0061-0.0058 0.0089-0.0088 0.0068-0.0071 0.01341-0.01441 0.01974-0.02188 6.12e-4 -8.78e-4 0.0014-0.0013 0.0021-0.0022 3.6e-5 -4.9e-5 5.6e-5 -9.2e-5 9e-5 -2.42e-4 0.0072-0.0086 0.01412-0.01744 0.02062-0.02644 0.01492-0.02069 0.02789-0.04235 0.0386-0.06481 0.0036-0.0075 0.0068-0.01511 0.0099-0.0228 0.0061-0.01533 0.01124-0.03106 0.01523-0.04707 0.0075-0.03 0.01117-0.06113 0.01049-0.09304-2.34e-4 -0.01063-9.37e-4 -0.02135-0.0022-0.03216l-0.80291-8.8046c-0.07584-0.31646-0.4681-0.32123-0.7468-0.31643l-4.6565 0.00641-4.6565-0.00641c-0.034842-4.393e-4 -0.071446-8.786e-4 -0.10899-8.786e-4z" fill="url(#d)"/>
  <rect x="3.3552" y="14.492" width="10.223" height=".43937" ry=".21968" fill="url(#c)"/>
 </g>
 <path d="m6.8873 2.242v3.4159h-1.1868l2.766 3.7029 2.766-3.7029h-1.1868v-3.4159z" fill="#0c1010" fill-opacity=".25098" stroke-width=".072589"/>
</svg>
