<?xml version="1.0" encoding="UTF-8"?>
<svg width="64" height="64" version="1.1" viewBox="0 0 16.933 16.933" xmlns="http://www.w3.org/2000/svg" xmlns:cc="http://creativecommons.org/ns#" xmlns:dc="http://purl.org/dc/elements/1.1/" xmlns:rdf="http://www.w3.org/1999/02/22-rdf-syntax-ns#" xmlns:xlink="http://www.w3.org/1999/xlink">
 <defs>
  <linearGradient id="c-3" x1="24.535" x2="24.535" y1="7.0931" y2="44.483" gradientTransform="matrix(.38005 0 0 .38005 4.8789 13.004)" gradientUnits="userSpaceOnUse">
   <stop stop-color="#76dd38" offset="0"/>
   <stop stop-color="#42c440" offset=".48433"/>
   <stop stop-color="#14ab4b" offset="1"/>
  </linearGradient>
  <filter id="c" x="-.10802" y="-.041536" width="1.216" height="1.0831" color-interpolation-filters="sRGB">
   <feGaussianBlur stdDeviation="0.36005859"/>
  </filter>
  <filter id="b" x="-.048751" y="-.077997" width="1.0975" height="1.156" color-interpolation-filters="sRGB">
   <feGaussianBlur stdDeviation="0.65001616"/>
  </filter>
  <linearGradient id="linearGradient1005-9" x1=".73911" x2="16.388" y1="16.296" y2=".64687" gradientTransform="matrix(.49999 0 0 .49999 13.75 22.457)" gradientUnits="userSpaceOnUse">
   <stop stop-color="#cfdade" offset="0"/>
   <stop stop-color="#eaeff2" offset="1"/>
  </linearGradient>
  <radialGradient id="radialGradient1670" cx="32.002" cy="32" r="24.408" gradientTransform="matrix(.13229 0 0 .13229 13.767 22.453)" gradientUnits="userSpaceOnUse">
   <stop stop-color="#76dd38" offset="0"/>
   <stop stop-color="#14ab4b" offset="1"/>
  </radialGradient>
  <linearGradient id="linearGradient2602" x1="14.844" x2="49.435" y1="49.672" y2="15.08" gradientTransform="matrix(.13229 0 0 .13229 13.767 22.453)" gradientUnits="userSpaceOnUse">
   <stop stop-color="#e4e9ec" offset="0"/>
   <stop stop-color="#f2f5f7" offset="1"/>
  </linearGradient>
 </defs>
 <metadata>
  <rdf:RDF>
   <cc:Work rdf:about="">
    <dc:format>image/svg+xml</dc:format>
    <dc:type rdf:resource="http://purl.org/dc/dcmitype/StillImage"/>
    <dc:title/>
   </cc:Work>
  </rdf:RDF>
 </metadata>
 <g transform="translate(-5.565 -14.251)">
  <circle cx="14.032" cy="22.718" r="7.9375" color="#000000" fill="url(#c-3)" overflow="visible" stroke-width=".26458" style="isolation:auto;mix-blend-mode:normal"/>
  <path transform="matrix(.26458 0 0 .26458 5.565 14.251)" d="m15.593 7.1349a30 30 0 0 0-8 7.4238v13.381l4-3.4648 4 3.4648v-20.805z" filter="url(#c)" opacity=".15" stroke-width=".8165"/>
  <path d="m9.6906 16.07c-0.81973 0.5198-1.5371 1.2545-2.1167 2.0332v3.5404l1.0583-0.91673 1.0583 0.91673v-5.5737z" fill="#fff" stroke-width=".21603"/>
  <path transform="matrix(.26458 0 0 .26458 5.565 14.251)" d="m31.593 22.498c-3.1016 0.0304-6.2239 0.73887-8.9256 2.27-1.0768 0.70139-2.3695 1.6073-3.3436 2.52-1.5328 1.5008-2.8447 3.2511-3.7311 5.2127 2.4298 5.3602 7.7717 9.2888 13.648 9.8692 3.8546 0.43634 7.8888-0.22972 11.277-2.1371 1.0768-0.70139 2.3695-1.6073 3.3436-2.52 1.5328-1.504 2.8447-3.2543 3.7311-5.2127-2.4288-5.3599-7.7726-9.2894-13.648-9.8686-0.78078-0.0928-1.568-0.1344-2.352-0.1344zm0 4.0009c3.214-0.0712 6.0604 2.8042 5.9999 6.0012 0.10301 3.5334-3.4179 6.5829-6.8984 5.9231-3.5151-0.41273-5.9842-4.3564-4.8281-7.6968 0.73918-2.4576 3.1519-4.2559 5.7279-4.2271zm0 4.0009a2 2.0004 0 0 0-2 2.0032 2 2.0004 0 0 0 2 2 2 2.0004 0 0 0 2-2 2 2.0004 0 0 0-2-2z" filter="url(#b)" opacity=".15" stroke-width="3.1999"/>
  <path d="m13.924 20.204c-0.82063 8e-3 -1.6467 0.19549-2.3616 0.6006-0.2849 0.18558-0.62693 0.42526-0.88466 0.66675-0.40555 0.39709-0.75266 0.86019-0.98719 1.3792 0.64288 1.4182 2.0563 2.4577 3.611 2.6112 1.0199 0.11545 2.0872-0.06078 2.9837-0.56544 0.2849-0.18558 0.62693-0.42526 0.88466-0.66675 0.40555-0.39793 0.75266-0.86103 0.98719-1.3792-0.64262-1.4181-2.0565-2.4578-3.611-2.6111-0.20658-0.02455-0.41487-0.03556-0.6223-0.03556zm0 1.0586c0.85037-0.01884 1.6035 0.74194 1.5875 1.5878 0.02726 0.93488-0.90432 1.7417-1.8252 1.5672-0.93004-0.1092-1.5833-1.1526-1.2774-2.0364 0.19558-0.65024 0.83394-1.126 1.5155-1.1184zm0 1.0586a0.52917 0.52927 0 0 0-0.52917 0.53001 0.52917 0.52927 0 0 0 0.52917 0.52917 0.52917 0.52927 0 0 0 0.52917-0.52917 0.52917 0.52927 0 0 0-0.52917-0.52917z" fill="#fff" stroke-width=".84664"/>
  <path d="m21.969 26.687c0 0.47577-0.08375 0.93193-0.23732 1.3547-0.10675 0.29385-0.2472 0.57164-0.41697 0.82862-0.07111 0.10804-0.14757 0.21238-0.22873 0.31264-0.25982 0.3209-0.56859 0.60034-0.91523 0.82714-0.12765 0.08359-0.26032 0.16005-0.39768 0.22856-0.5334 0.26695-1.1355 0.4171-1.7728 0.4171-0.63726 0-1.2394-0.15016-1.7728-0.41711-0.13737-0.06853-0.2702-0.14498-0.39785-0.22856-0.35104-0.22987-0.66351-0.5137-0.92543-0.8399-0.08131-0.10108-0.15761-0.20637-0.22873-0.31538-0.16523-0.2527-0.3021-0.52534-0.40674-0.8135-0.15355-0.42264-0.23715-0.87862-0.23715-1.3543 0-2.1919 1.7768-3.9687 3.9687-3.9687 1.1003 0 2.0959 0.44774 2.8148 1.1708 0.20718 0.2083 0.39137 0.43964 0.54814 0.68974 0.14822 0.23553 0.27214 0.4879 0.36852 0.7534 0.15359 0.42279 0.23733 0.87896 0.23733 1.3547z" fill="url(#linearGradient1005-9)" image-rendering="optimizeSpeed" stroke-width=".015503"/>
  <path d="m14.772 26.687c0 0.38707 0.06813 0.75819 0.19308 1.1022 0.08685 0.23906 0.20111 0.46508 0.33923 0.67414 0.05786 0.0879 0.12006 0.17278 0.18609 0.25436 0.21139 0.26108 0.4626 0.48842 0.74461 0.67294 0.10385 0.068 0.2118 0.13021 0.32354 0.18595 0.43396 0.21718 0.92386 0.33935 1.4424 0.33935 0.51846 0 1.0083-0.12217 1.4424-0.33935 0.11176-0.05575 0.21983-0.11796 0.32368-0.18595 0.28559-0.18701 0.53982-0.41793 0.7529-0.68335 0.06615-0.08223 0.12823-0.1679 0.18609-0.25659 0.13443-0.20559 0.24578-0.42742 0.33093-0.66187 0.12493-0.34385 0.19295-0.71484 0.19295-1.1018 0-1.7833-1.4455-3.2288-3.2288-3.2288-0.89516 0-1.7051 0.36428-2.29 0.95254-0.16855 0.16948-0.31841 0.35769-0.44595 0.56117-0.12059 0.19162-0.2214 0.39695-0.29982 0.61293-0.12496 0.34397-0.19309 0.7151-0.19309 1.1022z" fill="url(#radialGradient1670)" image-rendering="optimizeSpeed" stroke-width=".012613"/>
  <path d="m20.301 26.43c-0.0073-0.06509-0.08321-0.11399-0.14884-0.11399-0.21216 0-0.40043-0.12458-0.4794-0.31722-0.08066-0.19732-0.02865-0.42745 0.12948-0.57248 0.04977-0.0455 0.05582-0.12166 0.01408-0.17457-0.10859-0.13789-0.232-0.26244-0.36678-0.37039-0.05277-0.04234-0.13019-0.03646-0.17595 0.01422-0.13799 0.15282-0.38587 0.20963-0.57741 0.12971-0.19932-0.08385-0.32503-0.28583-0.31272-0.50263 4e-3 -0.0681-0.04572-0.12732-0.11362-0.13523-0.17293-0.02-0.34738-0.02062-0.52083-0.0014-0.06712 0.0074-0.11689 0.06522-0.11464 0.13246 0.0075 0.21467-0.11966 0.41312-0.31701 0.49395-0.18924 0.0773-0.43537 0.02098-0.5731-0.13049-0.04552-0.04989-0.12168-0.05602-0.1747-0.01469-0.13876 0.10886-0.26495 0.23352-0.37453 0.37026-0.04274 0.05316-0.03645 0.13022 0.01382 0.17596 0.16113 0.14592 0.21316 0.37804 0.12945 0.57764-0.07992 0.19029-0.27753 0.31295-0.50375 0.31295-0.07341-0.0024-0.1257 0.04691-0.13372 0.11365-0.02036 0.17392-0.0206 0.35115-1e-3 0.52649 0.0073 0.06536 0.08547 0.11384 0.1518 0.11384 0.20161-0.0051 0.39515 0.11966 0.47635 0.31726 0.08094 0.19732 0.02891 0.42731-0.12945 0.57248-0.04953 0.0455-0.05582 0.12154-0.01408 0.17445 0.10757 0.13701 0.23102 0.26168 0.36625 0.37055 0.05304 0.04274 0.13023 0.03671 0.1762-0.01395 0.13851-0.15321 0.38637-0.20991 0.57715-0.12983 0.19983 0.08359 0.32552 0.28555 0.31323 0.50248-4e-3 0.06813 0.046 0.12745 0.11362 0.13524 0.08847 0.01032 0.17747 0.01547 0.2667 0.01547 0.08471 0 0.16944-0.0047 0.25414-0.01408 0.06714-0.0074 0.11688-0.06522 0.11462-0.13258-0.0078-0.21455 0.11966-0.413 0.31676-0.49368 0.19051-0.07782 0.43562-0.02086 0.57335 0.13045 0.04578 0.04979 0.1214 0.0558 0.17473 0.01461 0.1385-0.1086 0.26442-0.23315 0.37453-0.3703 0.04273-0.05304 0.0367-0.13022-0.01383-0.17595-0.16113-0.14592-0.21343-0.37808-0.12971-0.57754 0.0787-0.18776 0.26896-0.31384 0.47362-0.31384l0.02863 7.41e-4c0.06638 0.0054 0.12745-0.04574 0.13549-0.1135 0.0204-0.17407 0.02064-0.35115 1e-3 -0.52649zm-2.2968 1.0342c-0.42585 0-0.77222-0.34636-0.77222-0.77221 0-0.42581 0.34638-0.77221 0.77222-0.77221 0.42583 0 0.77221 0.3464 0.77221 0.77221 0 0.42583-0.34638 0.77221-0.77221 0.77221z" clip-rule="evenodd" fill="url(#linearGradient2602)" fill-rule="evenodd" image-rendering="optimizeSpeed" stroke-width=".019112"/>
 </g>
</svg>
