<?xml version="1.0" encoding="UTF-8"?>
<!-- Created with Inkscape (http://www.inkscape.org/) -->
<svg width="64" height="64" version="1.1" viewBox="0 0 16.933 16.933" xmlns="http://www.w3.org/2000/svg">
 <defs>
  <filter id="filter1066-6" x="-.063923" y="-.056531" width="1.1278" height="1.1131" color-interpolation-filters="sRGB">
   <feGaussianBlur stdDeviation="0.22705935"/>
  </filter>
  <filter id="filter1100-7" x="-.12197" y="-.11848" width="1.2439" height="1.237" color-interpolation-filters="sRGB">
   <feGaussianBlur stdDeviation="0.47586465"/>
  </filter>
  <radialGradient id="radialGradient13048" cx="77.813" cy="951.01" r="33.438" gradientTransform="matrix(.098131 -.011634 .014284 .12069 -15.439 -106.15)" gradientUnits="userSpaceOnUse">
   <stop stop-color="#1ac9fd" offset="0"/>
   <stop stop-color="#1c7cf4" offset="1"/>
  </radialGradient>
  <radialGradient id="radialGradient13050" cx="81.462" cy="922.53" r="2.9211" gradientTransform="matrix(.11994 .0015157 -.0013525 .10666 -2.1371 -93.738)" gradientUnits="userSpaceOnUse">
   <stop stop-color="#e46810" offset="0"/>
   <stop stop-color="#fdbb1c" offset="1"/>
  </radialGradient>
  <clipPath id="ag-7">
   <path d="m60.187 83.594 2.6875-0.15625 2.125 0.96875 9.4375 10.719-0.96875 0.375-0.8125-0.1875-2.0938-1.0312-1.875-1.7812-2-2.9688-1.25-1.4688-3.2188-2.6875z" fill="#ffe239" fill-rule="evenodd"/>
  </clipPath>
  <filter id="aa-4" x="-.048819" y="-.14623" width="1.0976" height="1.2925" color-interpolation-filters="sRGB">
   <feGaussianBlur stdDeviation="0.20463321"/>
  </filter>
  <clipPath id="ae-5">
   <path d="m79.55 948.37c-0.04419-1.1048-0.39775-0.7513 0.35355-1.2374 0.7513-0.48613 2.0329-1.6352 2.6075-2.5633 0.57452-0.92808 0.7955-1.6794 0.7955-1.6794l0.04419-4.6404s0.08839-2.6958 1.1932-3.1378c0 0 0.92808-2.6958 2.6958-4.331 0 0 1.0607-2.6958 1.9003-3.8007 0.83969-1.1048 1.9004-2.1213 1.9445-3.3146 0.04419-1.1932 0-1.5468-1.0165-1.812-1.0165-0.26517-2.2539-0.44194-2.6958-1.3258-2.6958 0.0884-2.7842-0.7071-5.5243 0.92808-0.7955 0.53033-0.61872-0.44194-1.591-0.39775-0.97227 0.0442-2.1655-0.17677-2.6075 0.13259-0.44194 0.30935-0.70711 0.30935-0.97227-0.0884s-2.4749-0.13259-3.4471 0.44194c-0.97227 0.57452-1.4584 0.66291-1.4584 1.0607-3.0494 1.1049-7.4246 3.1378-7.4246 3.1378l11.004 22.804z" fill="#ff8616" fill-rule="evenodd"/>
  </clipPath>
  <filter id="x-5" x="-.092536" y="-.094687" width="1.1851" height="1.1894" color-interpolation-filters="sRGB">
   <feGaussianBlur stdDeviation="1.3495574"/>
  </filter>
  <clipPath id="ad-9">
   <path d="m79.55 96.011c-0.04419-1.1048-0.39775-0.7513 0.35355-1.2374 0.7513-0.48613 2.0329-1.6352 2.6075-2.5633 0.57452-0.92808 0.7955-1.6794 0.7955-1.6794l0.04419-4.6404s0.08839-2.6958 1.1932-3.1378c0 0 0.92808-2.6958 2.6958-4.331 0 0 1.0607-2.6958 1.9003-3.8007 0.83969-1.1048 1.9004-2.1213 1.9445-3.3146 0.04419-1.1932 0-1.5468-1.0165-1.812-1.0165-0.26517-2.2539-0.44194-2.6958-1.3258-2.6958 0.0884-2.7842-0.7071-5.5243 0.92808-0.7955 0.53033-0.61872-0.44194-1.591-0.39775-0.97227 0.0442-2.1655-0.17677-2.6075 0.13259-0.44194 0.30935-0.70711 0.30935-0.97227-0.0884s-2.4749-0.13259-3.4471 0.44194c-0.97227 0.57452-1.4584 0.66291-1.4584 1.0607-3.0494 1.1049-7.4246 3.1378-7.4246 3.1378l11.004 22.804z" fill="#ff8616" fill-rule="evenodd"/>
  </clipPath>
  <filter id="y-7" x="-.055847" y="-.02282" width="1.1117" height="1.0456" color-interpolation-filters="sRGB">
   <feGaussianBlur stdDeviation="0.26431787"/>
  </filter>
  <linearGradient id="linearGradient13052" x1="57.541" x2="62.633" y1="937.89" y2="936.89" gradientTransform="matrix(.11332 .0056616 -.005665 .11339 2.3325 -100.2)" gradientUnits="userSpaceOnUse">
   <stop stop-color="#fcca46" offset="0"/>
   <stop stop-color="#fda324" offset=".62984"/>
   <stop stop-color="#ef8418" offset="1"/>
  </linearGradient>
  <clipPath id="af-1">
   <path d="m76.544 948.33s-1.1932-2.0771-2.2097-3.4472-4.9497-7.1594-5.8778-9.3692c-0.92808-2.2097-2.2539-6.364-1.9004-7.1153 0.35355-0.7513 0.92808-1.1048 0.92808-1.1048s-0.70711-0.92808-0.35355-1.1048c0.35355-0.17678 1.0165-0.30936 1.0165-0.57453 0-0.26516-0.39775-0.7513 0-1.0165 0.39775-0.26517 2.4307-1.5468 2.4307-1.5468s-2.5191-2.3423-3.5355-2.74-1.5026-0.53033-2.6516 0.0442-1.6352-0.13258-2.5633 0.17678c-0.92808 0.30936-1.9887 0.97227-2.1655 1.2816-3.0494 1.4584-2.8284 1.8562-2.8284 2.1655 0 0-2.6516 0.61872 0.17678 3.182s5.3475 6.2314 6.2314 7.7782c0.88388 1.5468 3.7565 5.8336 4.4194 6.7617 0.66291 0.92808 2.1213 3.6239 6.5407 6.364s2.3423 0.26517 2.3423 0.26517z" fill="#fe7612" fill-rule="evenodd"/>
  </clipPath>
  <filter id="z-5" x="-.038001" y="-.028239" width="1.076" height="1.0565" color-interpolation-filters="sRGB">
   <feGaussianBlur stdDeviation="0.39155504"/>
  </filter>
  <linearGradient id="linearGradient13054" x1="77.128" x2="78.123" y1="953.29" y2="953.18" gradientTransform="matrix(.11332 .0056616 -.005665 .11339 2.3325 -100.2)" gradientUnits="userSpaceOnUse">
   <stop stop-color="#3e640d" offset="0"/>
   <stop stop-color="#23560f" offset="1"/>
  </linearGradient>
  <linearGradient id="linearGradient13056" x1="76.69" x2="77.545" y1="948.9" y2="952.62" gradientUnits="userSpaceOnUse">
   <stop stop-color="#c68c06" offset="0"/>
   <stop stop-color="#c68c06" stop-opacity="0" offset="1"/>
  </linearGradient>
  <clipPath id="ac-1">
   <path d="m75.437 949.78c-2.2031 0.26562-1.9062-0.0625-1.9688-0.26563-0.0625-0.20312 0.09375-0.92187 0.75-1.2344s2.4062-0.78125 3.2969-0.875c0.89062-0.0937 1.0312-0.0937 2.0625 0.59375 1.0312 0.6875 0.67188 0.96875 0.09375 0.98437-0.57812 0.0156-1.6406 0.42188-1.7656 0.875-0.125 0.45313-0.28125 1.0312-0.0625 2.1875s1.5156 5.8594 1.5156 5.8594l-1.6094 0.34375s-0.45312-4.8125-1.0781-6.3906c-0.625-1.5781-1.2344-2.0781-1.2344-2.0781z" fill="url(#linearGradient5819)" fill-rule="evenodd"/>
  </clipPath>
  <filter id="w-6" x="-.050391" y="-.090749" width="1.1008" height="1.1815" color-interpolation-filters="sRGB">
   <feGaussianBlur stdDeviation="0.21226"/>
  </filter>
  <linearGradient id="linearGradient938-5" x1="80.368" x2="82.141" y1="13.177" y2="14.704" gradientTransform="matrix(.96158 0 0 .96158 -66.006 -3.2026)" gradientUnits="userSpaceOnUse">
   <stop stop-color="#fafafa" offset="0"/>
   <stop stop-color="#90a0b3" offset="1"/>
  </linearGradient>
  <linearGradient id="linearGradient1206" x1="54.456" x2="54.456" y1="6.4548" y2="11.072" gradientTransform="matrix(.96158 0 0 .96158 -45.085 -7.2662)" gradientUnits="userSpaceOnUse">
   <stop stop-color="#ffa623" offset="0"/>
   <stop stop-color="#ff9c1d" offset="1"/>
  </linearGradient>
 </defs>
 <g transform="translate(.72845 1.5115)">
  <rect transform="rotate(-6.4422)" x="-.11704" y=".51836" width="13.993" height="13.993" ry="1.1671" fill="#f3f3f3" stroke-width=".96158"/>
  <path transform="matrix(1.0331 0 0 .96966 -45.213 -4.5767)" d="m57.818 9.8288s0.05354 3.0782-2.6636 4.5408c-2.2449 1.2084 0.9386 2.689-5.8599 5.0989 8.8505-2.5748 8.5235-9.6396 8.5235-9.6396z" fill="#141414" filter="url(#filter1066-6)" opacity=".3"/>
  <path transform="matrix(.83591 0 0 .91431 -34.388 -4.5479)" d="m57.594 9.7322c-0.15355 5.725-5.0519 8.6864-8.5234 9.6397l8.2859-0.93608c0.6682-0.07545 1.1451-0.67434 1.0697-1.3425z" fill="#9cb8d7" filter="url(#filter1100-7)" opacity=".2"/>
  <path transform="matrix(1.0039 0 0 .9354 -43.478 -4.126)" d="m57.818 9.8288s0.05354 3.0782-2.6636 4.5408c-2.2449 1.2084 0.9386 2.689-5.8599 5.0989 8.8505-2.5748 8.5235-9.6396 8.5235-9.6396z" fill="#141414" filter="url(#filter1066-6)" opacity=".3"/>
  <path d="m12.932-0.91455c-0.07738-0.0069-0.1567-0.0061-0.23702 3e-3l-11.585 1.3083c-0.64252 0.072551-1.1016 0.64792-1.0291 1.2904l1.3083 11.585c0.072551 0.64252 0.64792 1.1011 1.2904 1.0286l3.623-0.40895c3.338-0.91808 8.0434-3.7659 8.191-9.2682l0.80002 7.0783-1.3078-11.585c-0.06348-0.56221-0.5123-0.98408-1.0539-1.032z" fill="#fafafa" stroke-width=".96158"/>
  <g fill-rule="evenodd">
   <g stroke-width=".27474">
    <path d="m1.7955 4.0745 6.8249-0.73898 0.55889 5.0156-6.8689 0.76521z" fill="url(#radialGradient13048)"/>
    <path d="m6.1065 7.5366c0.31199-0.27572 0.25927-0.22885 0.33579-0.35895l0.075561-0.12849s0.49401-1.2186 0.48499-1.3221c-0.0091-0.10347-0.62047-0.087852-0.62047-0.087852s-0.45789 1.7746-0.27586 1.8974z" fill="#d3510a"/>
    <path d="m5.9585 4.8046c0.27769-0.3983 0.66665-0.51781 0.76719-0.11777 0.074492 0.29649-0.59991 0.28689-0.76719 0.11777z" fill="url(#radialGradient13050)" opacity=".99"/>
    <path d="m5.9755 7.7946c0.0012-0.12553-0.040821-0.087452 0.047061-0.13832 0.087892-0.050871 0.23964-0.1739 0.31002-0.2759 0.070361-0.10199 0.099662-0.18592 0.099662-0.18592l0.031311-0.52595s0.02529-0.3052 0.153-0.34905c0 0 0.12044-0.30045 0.33004-0.47584 0 0 0.13547-0.2997 0.23688-0.42023 0.10142-0.12052 0.22738-0.22978 0.23914-0.36485 0.01178-0.13506 0.0088001-0.1754-0.10492-0.21122-0.11369-0.035831-0.25292-0.062841-0.298-0.1656-0.30601-0.0052001-0.31152-0.095952-0.6313 0.073962-0.093152 0.055651-0.067611-0.053591-0.17804-0.054121-0.11043-3.97e-4 -0.2444-0.032331-0.29625 2.91e-4 -0.051841 0.032611-0.081882 0.031111-0.10968-0.01551-0.027811-0.046621-0.27971-0.029051-0.39315 0.030571-0.11344 0.059641-0.16903 0.066911-0.17128 0.11201-0.35183 0.10802-0.85917 0.31377-0.85917 0.31377l1.1179 2.6482z" fill="#ff8616"/>
    <path d="m3.8514 6.2766 0.30546-0.0025 0.23532 0.12188 1.0088 1.2688-0.1119 0.037021-0.091012-0.02588-0.23143-0.12879-0.20239-0.21259-0.20983-0.34798-0.13333-0.17363-0.34955-0.32297z" fill="#ffe239"/>
   </g>
   <path transform="matrix(.11332 .0056616 -.005665 .11339 -2.4961 -3.5436)" d="m63.206 81.847-4.9401 0.17639c0.11695 0.07666 2.2666 1.727 2.6106 1.813 1.7457 0.0221 3.0717 0.30979 1.6133 0.61914-1.4584 0.30936-0.30859 0.75-0.30859 0.75l3.0273-0.33008 3.1174-0.95343-1.0504-1.3715z" clip-path="url(#ag-7)" fill="#feffbf" filter="url(#aa-4)"/>
   <path transform="matrix(.11332 .0056616 -.005665 .11339 2.3325 -100.2)" d="m67.131 922.87 4.5078 8.6621 3.403 2.8284-2.4749-3.2704-0.88388-9.0598 1.149 1.9004 0.30936-3.8007 3.6239 2.2981 3.2262-0.92807 1.0165 2.8726 2.3865-3.3588 1.5026-3.9333 3.403 5.3917 2.4307-4.0659 9.8995 7.3804-13.126 19.048-12.816-0.61872 0.7513 3.6239 16.838 2.74 9.8553-25.633-13.081-8.5737-13.965 0.53033z" clip-path="url(#ae-5)" fill="#fdc91c" filter="url(#x-5)"/>
   <path transform="matrix(.11332 .0056616 -.005665 .11339 -2.4961 -3.5436)" d="m71.594 68.654 0.39844 3.8906 0.57422-0.66406zm11.359 0.75195-1.1934 6.3203 0.83984-0.17773zm-4.7734 21.17v1.0605l-0.66406 0.2207-0.70703-0.75195 0.61914 3.0059-2.2969-1.0176-0.17773 3.3594 4.9941-0.17773 0.92773-1.9434 1.1484-2.4746-1.4141 1.457-0.79492 0.13281-0.2207-1.3262-0.53125 2.4316-1.2812-0.61914-0.13281-1.9883 0.53125-0.17773 0.08789 0.97266 0.35352-0.17578v-1.6797z" clip-path="url(#ad-9)" fill="#d1520b" filter="url(#y-7)"/>
   <g stroke-width=".27474">
    <path d="m5.5045 7.6606c0.067101-0.43875 0.20131-1.2157 0.10864-1.3711-0.092652-0.15534-0.28698-0.18514-0.4232-0.37283-0.13623-0.18766-0.62905-0.77496-0.62905-0.77496l-0.28222 0.42297s1.0768 1.9628 1.2258 2.0959z" fill="#f3620e"/>
    <path d="m5.4605 7.7426-0.23072-0.071891s-0.1799-0.094252-0.20345-0.12029c-0.02356-0.02603-0.18876-0.1302-0.19389-0.16954-0.0051001-0.039351-0.16963-0.37083-0.25356-0.46737-0.083932-0.096532-0.46305-0.46719-0.53404-0.53824-0.071001-0.071041-0.27995-0.22357-0.36849-0.228-0.067451-1.96e-4 -0.060561 0.075132-0.11014 0.072651l-0.053121-0.0026s-0.074531-5.291e-4 -0.041051 0.040561c0.033471 0.040771 0.052061 0.094952 0.11633 0.087512 0.064281-0.0075 0.10093-0.030471 0.21425 0.046221 0.11332 0.076712 0.33148 0.18707 0.44214 0.31695 0.11067 0.12986 0.20929 0.14544 0.42072 0.53257 0.21142 0.38711 0.87493 0.6796 0.79506 0.50154z" fill="url(#linearGradient13052)"/>
    <path d="m5.6345 7.7726s-0.12346-0.24229-0.23088-0.40341c-0.10743-0.1611-0.52038-0.83986-0.61303-1.0957-0.092652-0.25583-0.21937-0.7344-0.17505-0.81761 0.044301-0.083192 0.11143-0.12003 0.11143-0.12003s-0.074872-0.10924-0.033791-0.12728c0.041051-0.01807 0.11694-0.029361 0.11844-0.059391 0.0015-0.030081-0.040821-0.087442 0.0058-0.11526 0.046581-0.02782 0.28423-0.16164 0.28423-0.16164s-0.27221-0.27987-0.38515-0.33071c-0.11294-0.050871-0.16727-0.068661-0.30077-0.0099-0.13347 0.058641-0.18455-0.02429-0.2915 0.0056-0.10692 0.02979-0.23088 0.098992-0.25266 0.13306-0.35383 0.14811-0.33106 0.19446-0.33281 0.22954 0 0-0.30402 0.055141 2e-3 0.36183 0.30603 0.30668 0.57072 0.73688 0.6621 0.91728 0.091402 0.1804 0.39267 0.68277 0.46254 0.79176 0.069861 0.10899 0.21986 0.42294 0.70518 0.75867 0.48532 0.33572 0.26394 0.043341 0.26394 0.043341z" fill="#fe7612"/>
   </g>
   <path transform="matrix(.11332 .0056616 -.005665 .11339 2.3325 -100.2)" d="m56.127 921.28 3.7565 5.3917-2.6958-5.3033 3.6681 1.4584-0.7513-3.4913 3.5355 3.6681-2.2981-5.922 5.1707 8.5737 0.08839-8.2201 6.6291 2.2539s2.9168 20.594 1.149 22.097-1.37 2.8726-0.7955 3.5797c0.57452 0.7071 0.57452 0.7071 0.57452 0.7071l-0.08839 0.75131 3.0936 1.9445 2.2097-29.654-12.153-3.6239s-6.364 0.22097-10.562 1.5468c-4.1984 1.3258-0.53033 4.2426-0.53033 4.2426z" clip-path="url(#af-1)" fill="#fdbb1c" filter="url(#z-5)"/>
   <path d="m5.8125 7.6716c-0.01752-6.09e-4 -0.037491 7e-5 -0.062901 2e-3 -0.10146 0.0056-0.30244 0.048831-0.37857 0.080552-0.076141 0.031711-0.097912 0.11234-0.091982 0.13573 0.0059 0.023351-0.029571 0.058891 0.2216 0.041281 0 0 0.066231 0.060161 0.12811 0.24263 0.044571 0.13143 0.064491 0.39515 0.074972 0.56459l0.16177-0.01811c-0.035561-0.16245-0.091682-0.42184-0.10501-0.51856-0.01826-0.13235 0.0027-0.19702 0.01947-0.24769 0.01675-0.050651 0.13944-0.090722 0.20504-0.089222 0.065611 0.0014 0.10792-0.028401-5e-3 -0.11216-0.084732-0.062871-0.11491-0.078952-0.16749-0.080752z" fill="url(#linearGradient13054)" stroke-width=".27474"/>
   <path transform="matrix(.11332 .0056616 -.005665 .11339 2.3325 -100.2)" d="m71.969 950.08 1.9219-2.5469 6.0469-0.49999 2.1406 2.4219s-2.5267-0.53149-7.1406 3.0937c-0.875 0.6875-2.9688-2.4688-2.9688-2.4688z" clip-path="url(#ac-1)" fill="url(#linearGradient13056)" filter="url(#w-6)" opacity=".556"/>
   <path d="m5.8125 7.6716c-0.01752-6.09e-4 -0.037491 7e-5 -0.062901 2e-3 -0.10146 0.0056-0.30244 0.048831-0.37857 0.080552-0.076141 0.031711-0.097912 0.11234-0.091982 0.13573 7.141e-4 2e-3 6.081e-4 0.0045 5.031e-4 0.0069 0.11507-0.079161 0.14929-0.089672 0.23611-0.089232 0.11889 8.47e-4 0.17184-0.064241 0.22559-0.073991 0.053741-0.0097 0.11642 0.050211 0.16875 0.033281 0.01293-0.0045 0.035241-0.01255 0.060081-0.02121-0.075951-0.055731-0.10754-0.072112-0.15762-0.073822z" fill="#8a3d2d" stroke-width=".27474"/>
  </g>
  <g fill="#858585">
   <g stroke-width=".27474px">
    <path d="m9.1795 3.3365 0.054011-0.0063 0.01908 0.16372 0.19624-0.02291-0.01908-0.16372 0.054011-0.0063 0.046561 0.39942-0.054011 0.0063-0.02217-0.19021-0.19624 0.02291 0.02217 0.19021-0.054011 0.0063z"/>
    <path d="m9.8725 3.4965 0.0028 0.02408-0.22618 0.026411q0.0091 0.050451 0.039521 0.074021 0.030621 0.02327 0.079552 0.01755 0.028341-0.0033 0.054001-0.01336 0.025921-0.01008 0.050501-0.027051l0.0054 0.046551q-0.025161 0.01432-0.052281 0.02346-0.02712 0.0091-0.055721 0.01247-0.071651 0.0084-0.11849-0.028471-0.046571-0.036861-0.054871-0.10802-0.0086-0.073571 0.02597-0.12126 0.034781-0.047991 0.10216-0.055861 0.060421-0.0071 0.1 0.027911 0.039811 0.034671 0.047611 0.10155zm-0.050881-0.0087q-0.0052-0.040331-0.030241-0.061821-0.024731-0.021521-0.061091-0.01727-0.041171 0.0048-0.063321 0.030991-0.02188 0.026151-0.0207 0.068851l0.17536-0.0207z"/>
    <path d="m10.092 3.4825q-0.05962 7e-3 -0.08102 0.02329-0.021401 0.01633-0.01757 0.049231 0.0031 0.02622 0.02197 0.039741 0.01916 0.01322 0.04883 0.0098 0.04091-0.0048 0.06213-0.036541 0.02147-0.032061 0.01585-0.080222l-0.0013-0.01097-0.04893 0.0057zm0.09575-0.031791 0.01993 0.17095-0.04919 0.0057-0.0053-0.045481q-0.01366 0.029251-0.03727 0.045301-0.02363 0.01578-0.06 0.02002-0.04599 0.0054-0.076252-0.01713-0.030031-0.022801-0.035081-0.066131-0.0059-0.050561 0.0248-0.080182 0.030961-0.029651 0.098072-0.037481l0.06898-0.0081-5.56e-4 -0.0048q-4e-3 -0.033981-0.02857-0.049811-0.02437-0.01613-0.06474-0.01142-0.02567 3e-3 -0.049281 0.012t-0.044631 0.023921l-0.0053-0.045481q0.025791-0.01358 0.050591-0.02163 0.02478-0.0083 0.048841-0.01112 0.06497-0.0076 0.10098 0.02238 0.03601 0.029961 0.044 0.098452z"/>
    <path d="m10.476 3.3325-0.0189-0.16212 0.04919-0.0057 0.04852 0.41627-0.04919 0.0057-0.0052-0.044941q-0.01239 0.028561-0.03465 0.044451-0.02203 0.01559-0.05518 0.01946-0.05427 0.0063-0.09355-0.033001-0.03901-0.039371-0.04724-0.11-0.0082-0.070621 0.02067-0.11793 0.02917-0.047331 0.08344-0.053671 0.03315-0.0039 0.05821 0.0065 0.02529 0.01006 0.04392 0.035001zm-0.15544 0.12417q0.0063 0.054311 0.03214 0.082752 0.02604 0.028141 0.06508 0.023581 0.03903-0.0046 0.05791-0.037941 0.01884-0.033651 0.01251-0.087962-0.0063-0.054311-0.03238-0.082452-0.02607-0.028411-0.06511-0.02385-0.03903 0.0046-0.05787 0.038211-0.01861 0.033361-0.01227 0.087662z"/>
    <path d="m11.058 3.3385 0.02108 0.18084-0.04919 0.0057-0.02089-0.17924q-5e-3 -0.042541-0.024-0.061731-0.01904-0.0192-0.05219-0.01533-0.03984 0.0047-0.05987 0.032751-0.02003 0.028101-0.01491 0.071971l0.01974 0.16934-0.04946 0.0058-0.03493-0.29963 0.04946-0.0058 0.0054 0.046551q0.0145-0.029081 0.03673-0.045231 0.0225-0.01619 0.05378-0.01984 0.0516-6e-3 0.08181 0.022991 0.03018 0.02874 0.03741 0.090812z"/>
    <path d="m11.263 3.2295q-0.03957 0.0046-0.05894 0.038341-0.01941 0.033451-0.01314 0.087222 0.0063 0.053771 0.03261 0.082152 0.02658 0.02808 0.06641 0.02343 0.0393-0.0046 0.05868-0.038311 0.01938-0.033721 0.01314-0.087222-0.0062-0.053241-0.03282-0.081582-0.02664-0.028621-0.06594-0.02402zm-0.0049-0.041731q0.06416-0.0075 0.10566 0.029961 0.04149 0.037451 0.0501 0.11129 0.0086 0.073571-0.02316 0.11984-0.03176 0.046011-0.09593 0.053501-0.06443 0.0075-0.10592-0.029931-0.04126-0.037751-0.04983-0.11132-0.0086-0.073831 0.02289-0.11981 0.03176-0.046011 0.0962-0.053531z"/>
    <path d="m11.657 3.1945q-0.0088-0.0038-0.01899-0.0048-0.0099-0.0013-0.02167 9.5e-5 -0.04171 0.0049-0.06098 0.034781-0.01904 0.029611-0.01312 0.080442l0.0184 0.15783-0.04946 0.0058-0.03493-0.29963 0.04946-0.0058 0.0054 0.046551q0.01233-0.029101 0.03566-0.045111 0.02331-0.01628 0.05886-0.02043 0.0051-5.82e-4 0.01132-5.29e-4 0.0062-1.54e-4 0.01385 2.91e-4l0.0062 0.050531z"/>
    <path d="m11.742 3.0525 0.0099 0.085072 0.10133-0.01183 0.0045 0.038251-0.10133 0.01183 0.01896 0.16265q0.0043 0.036651 0.01538 0.045931 0.01137 0.0092 0.04212 0.0057l0.05053-0.0059 0.0048 0.041201-0.05053 0.0059q-0.05695 0.0066-0.08107-0.01196-0.02415-0.01887-0.0307-0.075051l-0.01896-0.16265-0.03609 0.0042-0.0045-0.038251 0.03609-0.0042-0.0099-0.085072 0.04946-0.0058z"/>
    <path d="m12.181 3.2075 0.02108 0.18084-0.04919 0.0057-0.02089-0.17924q-5e-3 -0.042541-0.024-0.061731-0.01904-0.0192-0.05219-0.01533-0.03984 0.0047-0.05987 0.032751-0.02003 0.028101-0.01492 0.071972l0.01974 0.16934-0.04946 0.0058-0.04852-0.41627 0.04946-0.0058 0.01902 0.16319q0.0145-0.029081 0.03673-0.045231 0.0225-0.01618 0.05379-0.01984 0.0516-6e-3 0.08181 0.022991 0.03018 0.02874 0.03741 0.090812z"/>
    <path d="m12.56 3.0775q-0.03957 0.0046-0.05894 0.038341-0.01941 0.033451-0.01314 0.087222 0.0063 0.053771 0.03261 0.082152 0.02658 0.028081 0.06641 0.02343 0.0393-0.0046 0.05868-0.038311 0.01938-0.033721 0.01314-0.087222-0.0062-0.053241-0.03281-0.081582-0.02664-0.028621-0.06594-0.02403zm-0.0049-0.041731q0.06417-0.0075 0.10566 0.029961 0.04149 0.037461 0.0501 0.11129 0.0086 0.073571-0.02316 0.11984-0.03176 0.046011-0.09593 0.053501-0.06443 0.0075-0.10592-0.029931-0.04126-0.037751-0.04983-0.11132-0.0086-0.073831 0.02289-0.11981 0.03176-0.046011 0.0962-0.053531z"/>
    <path d="m13.038 3.1075 0.02108 0.18084-0.04919 0.0057-0.02089-0.17924q-5e-3 -0.042541-0.024-0.061731-0.01904-0.0192-0.05219-0.01533-0.03984 0.0047-0.05987 0.032751-0.02003 0.0281-0.01491 0.071971l0.01974 0.16934-0.04946 0.0058-0.03493-0.29963 0.04946-0.0058 0.0054 0.046551q0.0145-0.029081 0.03673-0.045231 0.0225-0.01619 0.05378-0.01984 0.0516-6e-3 0.08181 0.02299 0.03018 0.028741 0.03741 0.090812z"/>
    <path d="m9.3305 4.1325 0.0099 0.085072 0.10133-0.01183 0.0045 0.038251-0.10133 0.01183 0.01896 0.16265q0.0043 0.036651 0.01538 0.045931 0.01138 0.0092 0.042121 0.0057l0.050531-0.0059 0.0048 0.041201-0.050531 0.0059q-0.056951 0.0066-0.081072-0.01196-0.02415-0.01887-0.030701-0.075051l-0.01896-0.16265-0.036091 0.0042-0.0045-0.038251 0.036091-0.0042-0.0099-0.085072 0.049461-0.0058z"/>
    <path d="m9.7695 4.2886 0.02108 0.18084-0.049191 0.0057-0.02089-0.17924q-5e-3 -0.042541-0.024-0.061731-0.01904-0.0192-0.052191-0.01533-0.039841 0.0047-0.059871 0.032751-0.02003 0.028101-0.01492 0.071971l0.01974 0.16933-0.049461 0.0058-0.048521-0.41627 0.049461-0.0058 0.01902 0.16319q0.0145-0.029081 0.036731-0.045231 0.0225-0.01619 0.053781-0.01984 0.051601-6e-3 0.081812 0.02299 0.030181 0.028741 0.037411 0.090812z"/>
    <path d="m10.127 4.2646 0.0028 0.024081-0.22618 0.02641q0.0091 0.050451 0.039521 0.074021 0.030631 0.023271 0.079551 0.01756 0.02834-0.0033 0.054-0.01336 0.02592-0.01008 0.0505-0.02705l0.0054 0.046551q-0.02516 0.01432-0.05228 0.02346-0.02712 0.0091-0.05572 0.01247-0.071651 0.0084-0.11849-0.02846-0.046571-0.036861-0.054871-0.10802-0.0086-0.073571 0.02597-0.12126 0.034781-0.047991 0.10216-0.055861 0.060422-0.0071 0.1 0.027911 0.03981 0.034671 0.04761 0.10155zm-0.05088-0.0087q-0.0052-0.040331-0.03024-0.061821-0.02473-0.02152-0.061092-0.01727-0.041171 0.0048-0.063321 0.030991-0.02188 0.02615-0.0207 0.068851l0.17536-0.0207z"/>
    <path d="m10.558 4.0845 0.0054 0.046551q-0.0221-0.0083-0.04518-0.01099-0.02308-0.0027-0.04714 7.5e-5 -0.03663 0.0043-0.05377 0.01766-0.01687 0.01336-0.01425 0.035831 2e-3 0.01712 0.01625 0.025491 0.01422 0.0081 0.05482 0.01231l0.01728 0.0018q0.05371 0.0051 0.07804 0.02315 0.02456 0.01774 0.02883 0.054391 0.0049 0.041731-0.02545 0.069951-0.03005 0.02818-0.0878 0.034931-0.02406 0.0028-0.05082 0.0011-0.02646-0.0015-0.05643-0.0075l-0.0059-0.050831q0.02892 0.01099 0.05623 0.01513 0.02728 0.0039 0.05321 8.471e-4 0.03476-0.0041 0.0521-0.01802 0.01731-0.01422 0.01478-0.035891-0.0023-0.02006-0.01722-0.029171-0.01462-0.0091-0.06149-0.0137l-0.01758-2e-3q-0.04684-0.0043-0.06947-0.02172-0.02266-0.01769-0.02671-0.052471-0.0049-0.042271 0.02234-0.068771 0.02726-0.026501 0.08234-0.032931 0.02727-0.0032 0.0518-2e-3t0.04578 0.0069z"/>
    <path d="m10.868 4.0515 0.0054 0.046011q-0.0222-0.0091-0.04397-0.01222-0.02154-0.0035-0.04293-9.521e-4 -0.04786 0.0056-0.07077 0.039181-0.02294 0.033321-0.01655 0.088162 0.0064 0.054841 0.03642 0.082252 0.02999 0.02714 0.07785 0.02155 0.02139-0.0025 0.04159-0.01055 0.02044-0.0084 0.03995-0.022291l0.0053 0.045481q-0.01946 0.01203-0.04109 0.01944-0.02136 0.0074-0.04623 0.01028-0.06764 0.0079-0.11243-0.029981-0.0448-0.037881-0.05321-0.11011-0.0085-0.073301 0.02666-0.11998 0.03548-0.046711 0.10552-0.054891 0.02273-0.0027 0.04494-3.7e-4 0.02219 2e-3 0.0436 9e-3z"/>
    <path d="m11.225 4.1365 0.0028 0.02408-0.22618 0.026411q0.0091 0.050451 0.03952 0.074021 0.03063 0.023271 0.07955 0.01756 0.02834-0.0033 0.054-0.01336 0.02592-0.01008 0.0505-0.02705l0.0054 0.046551q-0.02516 0.01432-0.05228 0.02346-0.02712 0.0091-0.05572 0.01247-0.07165 0.0084-0.11849-0.028471-0.04657-0.036861-0.05487-0.10802-0.0086-0.073571 0.02597-0.12126 0.03478-0.047991 0.10216-0.055861 0.06042-0.0071 0.1 0.027911 0.03981 0.034671 0.04761 0.10155zm-0.05088-0.0087q-0.0052-0.040331-0.03024-0.061821-0.02473-0.02152-0.06109-0.01727-0.04117 0.0048-0.06332 0.030991-0.02188 0.026151-0.0207 0.068851l0.17536-0.02071z"/>
    <path d="m11.553 4.0805 0.02108 0.18084-0.04919 0.0057-0.02089-0.17924q-5e-3 -0.042541-0.024-0.061731-0.01904-0.0192-0.05219-0.01533-0.03984 0.0047-0.05987 0.032751-0.02003 0.028101-0.01491 0.071972l0.01974 0.16934-0.04946 0.0058-0.03493-0.29963 0.04946-0.0058 0.0054 0.046551q0.0145-0.029081 0.03673-0.045231 0.0225-0.01619 0.05378-0.01984 0.0516-6e-3 0.08181 0.02299 0.03018 0.028741 0.03741 0.090812z"/>
    <path d="m11.637 3.9495 0.04919-0.0057 0.03492 0.29963-0.04919 0.0057zm-0.01359-0.11664 0.04919-0.0057 0.0073 0.062331-0.04919 0.0057z"/>
    <path d="m12.006 3.9185 0.0054 0.046011q-0.0222-0.0091-0.04397-0.01222-0.02154-0.0035-0.04293-9.52e-4 -0.04786 0.0056-0.07077 0.039181-0.02294 0.033321-0.01655 0.088162 0.0064 0.054841 0.03641 0.082252 0.02999 0.027141 0.07785 0.021551 0.02139-0.0025 0.04159-0.01055 0.02044-0.0084 0.03995-0.02229l0.0053 0.045481q-0.01946 0.01203-0.04109 0.01944-0.02136 0.0074-0.04623 0.01028-0.06764 0.0079-0.11243-0.029981-0.04479-0.037881-0.05321-0.11011-0.0085-0.073301 0.02666-0.11998 0.03548-0.046711 0.10552-0.054891 0.02273-0.0027 0.04494-3.7e-4 0.02219 2e-3 0.0436 9e-3z"/>
    <path d="m12.558 3.7715 0.0066 0.056981q-0.03023-0.02223-0.06271-0.031181-0.03221-9e-3 -0.06697-0.0049-0.06844 8e-3 -0.09991 0.054241-0.0315 0.045981-0.02227 0.12516 0.0092 0.078922 0.05046 0.11668 0.04123 0.037491 0.10967 0.029491 0.03476-0.0041 0.06404-0.02022 0.02955-0.01619 0.05386-0.044791l0.0066 0.056451q-0.0261 0.022571-0.05679 0.035921-0.03043 0.01331-0.06572 0.01744-0.09063 0.01058-0.14922-0.038711-0.05862-0.049561-0.06982-0.1456-0.01123-0.096312 0.03445-0.15777 0.04565-0.061731 0.13628-0.072321 0.03583-0.0042 0.0685 0.0018 0.03291 0.0056 0.06293 0.02139z"/>
    <path d="m12.778 3.7685-0.05009 0.20732 0.14678-0.01714zm-0.03668-0.049681 0.06122-0.0071 0.19868 0.38165-0.05615 0.0066-0.0483-0.098212-0.17993 0.02101-0.02442 0.1067-0.05695 0.0066z"/>
    <path d="m9.3765 4.9306 0.054011-0.0063 0.01908 0.16372 0.19624-0.02291-0.01908-0.16372 0.054011-0.0063 0.046561 0.39942-0.054011 0.0063-0.02217-0.19021-0.19624 0.02291 0.02217 0.19021-0.054011 0.0063z"/>
    <path d="m9.7975 4.9826 0.049191-0.0057 0.034931 0.29963-0.049191 0.0057zm-0.0136-0.11664 0.049191-0.0057 0.0073 0.062331-0.049191 0.0057z"/>
    <path d="m10.164 5.0886q-0.0062-0.053501-0.03186-0.080342-0.02535-0.026871-0.06519-0.02221-0.03957 0.0046-0.05833 0.036641-0.01849 0.031991-0.01225 0.085492 0.0062 0.053241 0.03156 0.080102 0.02562 0.026841 0.06519 0.02221 0.03984-0.0047 0.05833-0.036641 0.01876-0.032021 0.01255-0.085262zm0.06273 0.11036q0.0089 0.076511-0.0207 0.11766-0.02959 0.041421-0.09964 0.049601-0.02594 3e-3 -0.04939 0.0017-0.02343-0.0011-0.04602-0.0066l-0.0056-0.047891q0.02303 0.0092 0.0448 0.01239 0.02178 0.0031 0.0437 5.82e-4 0.04839-0.0057 0.06949-0.033881 0.02113-0.02796 0.01517-0.079052l-0.0028-0.024341q-0.01215 0.028261-0.03442 0.044151-0.02227 0.01588-0.05542 0.01976-0.05508 0.0064-0.093661-0.031641-0.038581-0.038071-0.046661-0.10735-0.0081-0.069551 0.02068-0.11549 0.028791-0.045931 0.083872-0.052361 0.03315-0.0039 0.05847 0.0065 0.02532 0.01033 0.04365 0.035031l-0.0053-0.045481 0.04919-0.0057 0.03059 0.26245z"/>
    <path d="m10.561 5.0146 0.02108 0.18084-0.04919 0.0057-0.02089-0.17924q-5e-3 -0.042531-0.024-0.061731-0.01904-0.0192-0.05219-0.01533-0.03984 0.0047-0.05987 0.032751-0.02003 0.028101-0.01492 0.071972l0.01974 0.16933-0.04946 0.0058-0.04852-0.41627 0.04946-0.0058 0.01902 0.16319q0.0145-0.029081 0.03673-0.045231 0.0225-0.01619 0.05378-0.01984 0.0516-6e-3 0.08181 0.02299 0.03018 0.02874 0.03741 0.090812z"/>
    <path d="m10.617 4.8866 0.04919-0.0057 0.08875 0.22664 0.03397-0.24097 0.05802-0.0068 0.08875 0.22664 0.03397-0.24097 0.04919-0.0057-0.04341 0.30877-0.05802 0.0068-0.09306-0.23806-0.03607 0.25314-0.05802 0.0068z"/>
    <path d="m11.247 4.9656q-0.05962 7e-3 -0.08102 0.02329-0.0214 0.01633-0.01757 0.049231 0.0031 0.02622 0.02197 0.039731 0.01916 0.01322 0.04883 0.0098 0.0409-0.0048 0.06213-0.036541 0.02147-0.032061 0.01585-0.080212l-0.0013-0.01097-0.04893 0.0057zm0.09575-0.031791 0.01993 0.17095-0.04919 0.0057-0.0053-0.045481q-0.01366 0.029251-0.03727 0.045301-0.02364 0.01577-0.06 0.02002-0.04599 0.0054-0.07625-0.01713-0.03003-0.0228-0.03508-0.066131-0.0059-0.050561 0.0248-0.080182 0.03096-0.029651 0.09807-0.037481l0.06898-0.0081-5.56e-4 -0.0048q-4e-3 -0.033981-0.02857-0.049811-0.02437-0.01613-0.06475-0.01142-0.02567 3e-3 -0.04928 0.012t-0.04464 0.02392l-0.0053-0.045481q0.02579-0.01358 0.05059-0.02163 0.02478-0.0083 0.04884-0.01112 0.06497-0.0076 0.10098 0.02237 0.03601 0.029961 0.04399 0.098452z"/>
    <path d="m11.592 5.1056q-0.01462 0.055941-0.0325 0.074571t-0.05103 0.022501l-0.0393 0.0046-0.0048-0.041201 0.02887-0.0034q0.02032-0.0024 0.03043-0.01331 0.01011-0.01094 0.01956-0.048381l0.0062-0.0235-0.15547-0.28067 0.05213-0.0061 0.12089 0.22342 0.06626-0.24527 0.05213-0.0061-0.09337 0.34281z"/>
    <path d="m11.974 4.9866 0.08823-0.0103-0.03552-0.30471-0.09374 0.030471-0.0057-0.049221 0.0932-0.030411 0.05401-0.0063 0.04126 0.35394 0.08823-0.0103 0.0053 0.045481-0.22992 0.026851z"/>
    <path d="m12.489 4.5826 0.0099 0.085072 0.10133-0.01183 0.0045 0.038251-0.10133 0.01183 0.01896 0.16265q0.0043 0.036651 0.01538 0.045931 0.01138 0.0092 0.04212 0.0057l0.05053-0.0059 0.0048 0.041201-0.05053 0.0059q-0.05695 0.0066-0.08107-0.01196-0.02415-0.01887-0.0307-0.075051l-0.01896-0.16265-0.03609 0.0042-0.0045-0.038251 0.03609-0.0042-0.0099-0.085072 0.04946-0.0058z"/>
    <path d="m12.786 4.6686q-0.03957 0.0046-0.05894 0.038341-0.01941 0.033451-0.01314 0.087222 0.0063 0.053771 0.03261 0.082152 0.02658 0.028081 0.06642 0.02343 0.0393-0.0046 0.05868-0.038311 0.01938-0.033721 0.01314-0.087222-0.0062-0.053241-0.03281-0.081582-0.02664-0.028611-0.06594-0.024021zm-0.0049-0.041731q0.06416-0.0075 0.10566 0.029961 0.04149 0.037461 0.0501 0.11129 0.0086 0.073571-0.02316 0.11984-0.03176 0.046011-0.09593 0.053501-0.06443 0.0075-0.10592-0.029931-0.04126-0.037751-0.04983-0.11132-0.0086-0.073831 0.02289-0.11981 0.03176-0.046011 0.0962-0.053531z"/>
    <path d="m9.5085 5.6836 0.0099 0.085072 0.10133-0.01183 0.0045 0.038251-0.10133 0.01183 0.01896 0.16265q0.0043 0.036651 0.01538 0.045931 0.01138 0.0092 0.042121 0.0057l0.050531-0.0059 0.0048 0.041201-0.050531 0.0059q-0.056951 0.0066-0.081072-0.01195-0.02415-0.01887-0.030701-0.075051l-0.01896-0.16265-0.036091 0.0042-0.0045-0.038261 0.036091-0.0042-0.0099-0.085072 0.049461-0.0058z"/>
    <path d="m9.9475 5.8386 0.02108 0.18084-0.049191 0.0057-0.020891-0.17924q-5e-3 -0.042541-0.024-0.061731-0.01904-0.0192-0.052191-0.01533-0.039841 0.0047-0.059871 0.032751-0.02003 0.0281-0.01492 0.071971l0.01974 0.16934-0.049461 0.0058-0.048521-0.41627 0.049461-0.0058 0.01902 0.16319q0.0145-0.029081 0.036731-0.045231 0.0225-0.01619 0.053781-0.01984 0.051601-6e-3 0.081812 0.02299 0.030181 0.028741 0.037411 0.090812z"/>
    <path d="m10.305 5.8156 0.0028 0.024081-0.22618 0.02641q0.0091 0.050451 0.03952 0.074022 0.03063 0.02327 0.07955 0.01756 0.02834-0.0033 0.054-0.01336 0.02592-0.01008 0.0505-0.027051l0.0054 0.046551q-0.02516 0.01432-0.05228 0.02346-0.02712 0.0091-0.05573 0.01248-0.07165 0.0084-0.11849-0.028471-0.04657-0.036861-0.05487-0.10802-0.0086-0.073571 0.02597-0.12126 0.03478-0.047991 0.10216-0.055861 0.06042-0.0071 0.1 0.02791 0.03981 0.034671 0.04761 0.10155zm-0.05088-0.0087q-0.0052-0.040331-0.03024-0.061821-0.02473-0.021521-0.06109-0.01727-0.04117 0.0048-0.06332 0.030991-0.02188 0.02615-0.0207 0.068851l0.17536-0.02071z"/>
    <path d="m10.479 5.5556 0.33769-0.039431 0.0053 0.045481-0.1417 0.01655 0.04125 0.35394-0.05427 0.0063-0.04125-0.35394-0.1417 0.01655z"/>
    <path d="m10.906 5.6416q-0.03957 0.0046-0.05894 0.038341-0.01941 0.033451-0.01314 0.087222 0.0063 0.053771 0.03261 0.082152 0.02658 0.028081 0.06641 0.02343 0.0393-0.0046 0.05868-0.038311 0.01938-0.033721 0.01314-0.087222-0.0062-0.053241-0.03281-0.081582-0.02664-0.028621-0.06594-0.02403zm-0.0049-0.041731q0.06416-0.0075 0.10566 0.029961 0.04149 0.037461 0.0501 0.11129 0.0086 0.073571-0.02316 0.11984-0.03176 0.046011-0.09593 0.053501-0.06443 0.0075-0.10592-0.029931-0.04126-0.037761-0.04983-0.11132-0.0086-0.073841 0.02289-0.11981 0.03176-0.046011 0.0962-0.053531z"/>
    <path d="m11.36 5.6116q0.01458-0.035331 0.03841-0.054111t0.05858-0.02284q0.04679-0.0055 0.07602 0.02448 0.0292 0.029671 0.03625 0.090132l0.02108 0.18084-0.04946 0.0058-0.02089-0.17924q-5e-3 -0.043071-0.02269-0.062161-0.01767-0.01909-0.04895-0.01544-0.03823 0.0045-0.05746 0.032471-0.01923 0.028011-0.01412 0.071881l0.01974 0.16934-0.04946 0.0058-0.02089-0.17924q-0.0051-0.043341-0.02269-0.062161-0.01767-0.01909-0.04949-0.01537-0.0377 0.0044-0.05689 0.032681-0.01923 0.02801-0.01414 0.071611l0.01974 0.16934-0.04946 0.0058-0.03493-0.29963 0.04946-0.0058 0.0054 0.046551q0.01363-0.029521 0.03563-0.045381t0.05435-0.01963q0.03262-0.0038 0.05728 0.01012 0.02493 0.0139 0.03957 0.044191z"/>
    <path d="m11.807 5.6516q-0.05962 7e-3 -0.08102 0.02329-0.0214 0.01633-0.01757 0.049231 0.0031 0.026221 0.02197 0.039731 0.01916 0.01322 0.04883 0.0098 0.0409-0.0048 0.06213-0.036541 0.02147-0.032061 0.01585-0.080212l-0.0013-0.01097-0.04893 0.0057zm0.09575-0.031791 0.01993 0.17095-0.04919 0.0057-0.0053-0.045481q-0.01366 0.02925-0.03727 0.045301-0.02363 0.01577-0.06 0.02002-0.04599 0.0054-0.07625-0.01713-0.03003-0.0228-0.03508-0.066131-0.0059-0.050561 0.0248-0.080182 0.03096-0.02965 0.09807-0.037481l0.06898-0.0081-5.56e-4 -0.0048q-4e-3 -0.033971-0.02857-0.049811-0.02437-0.01613-0.06474-0.01142-0.02567 3e-3 -0.04928 0.012t-0.04463 0.02392l-0.0053-0.045481q0.02579-0.01358 0.05059-0.02163 0.02477-0.0083 0.04884-0.01113 0.06497-0.0076 0.10098 0.02238 0.03601 0.029961 0.044 0.098452z"/>
    <path d="m11.976 5.3636 0.04919-0.0057 0.04852 0.41627-0.04919 0.0057z"/>
    <path d="m12.414 5.5696 0.0028 0.024081-0.22618 0.02641q0.0091 0.050451 0.03952 0.074021 0.03063 0.02327 0.07955 0.01756 0.02834-0.0033 0.054-0.01336 0.02592-0.01008 0.0505-0.02705l0.0054 0.046551q-0.02516 0.01432-0.05228 0.023461-0.02712 0.0091-0.05572 0.01248-0.07165 0.0084-0.11849-0.028461-0.04657-0.036861-0.05487-0.10802-0.0086-0.073571 0.02597-0.12126 0.03479-0.047991 0.10216-0.055861 0.06042-0.0071 0.1 0.027911 0.03981 0.034671 0.04761 0.10155zm-0.05088-0.0087q-0.0052-0.040331-0.03024-0.061821-0.02473-0.02152-0.06109-0.01727-0.04117 0.0048-0.06332 0.030991-0.02188 0.026151-0.0207 0.068851l0.17536-0.0207z"/>
    <path d="m12.67 5.4096 0.0054 0.046551q-0.0221-0.0083-0.04518-0.01099-0.02308-0.0027-0.04714 8.7e-5 -0.03663 0.0043-0.05377 0.01766-0.01687 0.01335-0.01425 0.035831 2e-3 0.01712 0.01625 0.025491 0.01422 0.0081 0.05482 0.01231l0.01728 0.0018q0.05371 0.0051 0.07804 0.02316 0.02456 0.01774 0.02883 0.054391 0.0049 0.041731-0.02545 0.069951-0.03005 0.02818-0.0878 0.034931-0.02406 0.0028-0.05082 0.0011-0.02646-0.0015-0.05643-0.0075l-0.0059-0.050831q0.02892 0.01099 0.05623 0.01513 0.02728 0.0039 0.05321 8.461e-4 0.03476-0.0041 0.0521-0.01801 0.01731-0.01422 0.01478-0.035891-0.0023-0.02006-0.01722-0.029171-0.01462-0.0091-0.06149-0.0137l-0.01758-2e-3q-0.04684-0.0043-0.06947-0.02171-0.02266-0.01769-0.02671-0.052471-0.0049-0.042271 0.02234-0.068771 0.02726-0.026501 0.08234-0.032931 0.02727-0.0032 0.0518-2e-3t0.04578 0.0069z"/>
    <path d="m9.5985 6.5406 0.01749 0.15007 0.067911-0.0079q0.037701-0.0044 0.056011-0.026331 0.01831-0.02193 0.0141-0.058051-0.0042-0.035851-0.027041-0.052971-0.022861-0.01713-0.060561-0.01272zm-0.059181-0.038101 0.12191-0.01423q0.067111-0.0078 0.10488 0.01867 0.038011 0.0262 0.044841 0.084792 0.0069 0.059121-0.024071 0.093382-0.030701 0.034221-0.097802 0.042061l-0.067911 0.0079 0.01871 0.16052-0.054011 0.0063z"/>
    <path d="m9.9805 6.5866q-0.039571 0.0046-0.058941 0.038341-0.01941 0.033451-0.01314 0.087222 0.0063 0.053771 0.032611 0.082152 0.02658 0.028081 0.066411 0.02343 0.0393-0.0046 0.05868-0.038311 0.01938-0.033721 0.01314-0.087222-0.0062-0.053241-0.03282-0.081582-0.02664-0.028621-0.065941-0.02403zm-0.0049-0.041731q0.064172-0.0075 0.10566 0.029961 0.04149 0.037461 0.0501 0.11129 0.0086 0.073571-0.02316 0.11984-0.03176 0.046011-0.09593 0.053501-0.064431 0.0075-0.10592-0.029931-0.041261-0.037751-0.049831-0.11132-0.0086-0.073831 0.02289-0.11981 0.031761-0.046011 0.096202-0.053531z"/>
    <path d="m10.196 6.5266 0.04919-0.0057 0.03493 0.29963-0.04919 0.0057zm-0.0136-0.11664 0.04919-0.0057 0.0073 0.062331-0.04919 0.0057z"/>
    <path d="m10.61 6.5986 0.02108 0.18084-0.04919 0.0057-0.02089-0.17924q-5e-3 -0.042531-0.024-0.061731-0.01904-0.0192-0.05219-0.01533-0.03984 0.0047-0.05987 0.032751-0.02003 0.028101-0.01491 0.071972l0.01974 0.16934-0.04946 0.0058-0.03493-0.29963 0.04946-0.0058 0.0054 0.046551q0.0145-0.029081 0.03673-0.045231 0.0225-0.01619 0.05379-0.01984 0.0516-6e-3 0.08181 0.02299 0.03018 0.028751 0.03741 0.090812z"/>
    <path d="m10.734 6.3776 0.0099 0.085072 0.10133-0.01183 0.0045 0.038251-0.10133 0.01183 0.01896 0.16265q0.0043 0.036651 0.01538 0.045931 0.01138 0.0092 0.04212 0.0057l0.05053-0.0059 0.0048 0.041201-0.05053 0.0059q-0.05695 0.0066-0.08107-0.01196-0.02415-0.01887-0.0307-0.075051l-0.01896-0.16265-0.03609 0.0042-0.0045-0.038251 0.03609-0.0042-0.0099-0.085072 0.04946-0.0058z"/>
    <path d="m11.019 6.3286 0.33769-0.039431 0.0053 0.045481-0.1417 0.01655 0.04125 0.35394-0.05427 0.0063-0.04125-0.35394-0.1417 0.01655z"/>
    <path d="m11.352 6.5756-0.02114-0.18138 0.04919-0.0057 0.02092 0.17951q5e-3 0.042541 0.02403 0.062001 0.01904 0.0192 0.05219 0.01533 0.03984-0.0047 0.05987-0.032751 0.0203-0.028131 0.01518-0.072001l-0.0198-0.16988 0.04919-0.0057 0.03492 0.29963-0.04919 0.0057-0.0054-0.046011q-0.01473 0.029381-0.03697 0.045531-0.022 0.01586-0.05328 0.01951-0.0516 6e-3 -0.08208-0.022951-0.03048-0.028981-0.03768-0.090782z"/>
    <path d="m11.67 6.2356 0.04919-0.0057 0.04852 0.41627-0.04919 0.0057z"/>
    <path d="m12.107 6.4436 0.0028 0.024081-0.22618 0.02641q0.0091 0.050451 0.03952 0.074021 0.03063 0.02327 0.07955 0.01756 0.02834-0.0033 0.054-0.01336 0.02592-0.01008 0.0505-0.02705l0.0054 0.046551q-0.02516 0.01432-0.05228 0.023461-0.02712 0.0091-0.05573 0.01247-0.07165 0.0084-0.11849-0.028471-0.04657-0.036861-0.05487-0.10802-0.0086-0.073571 0.02597-0.12126 0.03478-0.047991 0.10216-0.055861 0.06042-0.0071 0.1 0.027911 0.03981 0.034671 0.04761 0.10155zm-0.05088-0.0087q-0.0052-0.040331-0.03024-0.061821-0.02473-0.02152-0.06109-0.01727-0.04117 0.0048-0.06332 0.030991-0.02188 0.02615-0.0207 0.068851l0.17536-0.020701z"/>
    <path d="m12.337 6.1756 0.25238-0.029471 0.0053 0.045481-0.19838 0.023161 0.01378 0.11824 0.19009-0.0222 0.0053 0.045481-0.19009 0.0222 0.01687 0.14473 0.20319-0.023721 0.0053 0.045481-0.2572 0.030031z"/>
    <path d="m12.679 6.1186 0.04919-0.0057 0.04852 0.41627-0.04919 0.0057z"/>
    <path d="m12.829 6.1006 0.04946-0.0058 0.02866 0.24585 0.13172-0.14635 0.06283-0.0073-0.14247 0.15873 0.18408 0.14012-0.06417 0.0075-0.16918-0.12857 0.01706 0.14633-0.04946 0.0058z"/>
    <path d="m9.6665 7.3116 0.01749 0.15007 0.067911-0.0079q0.037701-0.0044 0.056011-0.026331 0.01831-0.02193 0.0141-0.058051-0.0042-0.035851-0.027041-0.052971-0.02286-0.01712-0.060561-0.01272zm-0.059181-0.038101 0.12191-0.01423q0.067111-0.0078 0.10488 0.01867 0.038011 0.026201 0.044841 0.084792 0.0069 0.059121-0.024071 0.093382-0.030701 0.034221-0.097802 0.042061l-0.067911 0.0079 0.01871 0.16052-0.054011 0.0063z"/>
    <path d="m10.117 7.3616q-0.0089-0.0038-0.01899-0.0048-0.0099-0.0013-0.02167 9.6e-5 -0.04171 0.0049-0.06099 0.034781-0.01904 0.029611-0.01311 0.080442l0.0184 0.15783-0.049461 0.0058-0.034931-0.29963 0.049461-0.0058 0.0054 0.046551q0.01233-0.029101 0.03566-0.045111 0.0233-0.01628 0.05886-0.02043 0.0051-5.82e-4 0.01132-5.29e-4 0.0062-1.55e-4 0.01385 2.91e-4l0.0062 0.050531z"/>
    <path d="m10.424 7.4186 0.0028 0.024081-0.22618 0.02641q0.0091 0.050451 0.03952 0.074021 0.03063 0.02327 0.07955 0.01755 0.02834-0.0033 0.054-0.01336 0.02592-0.01008 0.0505-0.027051l0.0054 0.046551q-0.02516 0.01432-0.05228 0.02346-0.02712 0.0091-0.05573 0.01247-0.07165 0.0084-0.11849-0.028471-0.04657-0.036861-0.05487-0.10802-0.0086-0.073571 0.02597-0.12126 0.03479-0.047991 0.10216-0.055861 0.06042-0.0071 0.1 0.02791 0.03981 0.034671 0.04761 0.10155zm-0.05088-0.0087q-0.0052-0.040331-0.03024-0.061821-0.02473-0.02152-0.06109-0.01727-0.04117 0.0048-0.06332 0.030991-0.02188 0.02615-0.0207 0.068851l0.17536-0.02071z"/>
    <path d="m10.681 7.2576 0.0054 0.046551q-0.0221-0.0083-0.04518-0.01099-0.02308-0.0027-0.04714 8.61e-5 -0.03663 0.0043-0.05377 0.01766-0.01687 0.01335-0.01425 0.035831 2e-3 0.01712 0.01625 0.025491 0.01422 0.0081 0.05482 0.01231l0.01728 0.0018q0.05371 0.0051 0.07804 0.02316 0.02456 0.01774 0.02883 0.054391 0.0049 0.041731-0.02545 0.069951-0.03005 0.028181-0.08779 0.034931-0.02406 0.0028-0.05082 0.0011-0.02646-0.0015-0.05643-0.0075l-0.0059-0.050831q0.02892 0.01099 0.05623 0.01513 0.02728 0.0039 0.05321 8.461e-4 0.03476-0.0041 0.0521-0.01801 0.01731-0.01422 0.01479-0.035891-0.0023-0.02006-0.01722-0.029171-0.01461-0.0091-0.06149-0.0137l-0.01758-2e-3q-0.04684-0.0043-0.06947-0.02171-0.02266-0.01769-0.02671-0.052471-0.0049-0.042271 0.02233-0.068771 0.02726-0.026501 0.08234-0.032941 0.02727-0.0032 0.0518-2e-3t0.04578 0.0069z"/>
    <path d="m11.047 7.3456 0.0028 0.024081-0.22618 0.02641q0.0091 0.050451 0.03952 0.074021 0.03062 0.023271 0.07955 0.01755 0.02834-0.0033 0.054-0.01336 0.02593-0.01008 0.05051-0.027051l0.0054 0.046551q-0.02516 0.01432-0.05228 0.023461-0.02712 0.0091-0.05572 0.01247-0.07165 0.0084-0.11849-0.028471-0.04657-0.036861-0.05487-0.10802-0.0086-0.073571 0.02597-0.12126 0.03478-0.047991 0.10216-0.055861 0.06042-0.0071 0.1 0.027911 0.03981 0.034671 0.04761 0.10155zm-0.05088-0.0087q-0.0052-0.040331-0.03024-0.061821-0.02473-0.02152-0.06109-0.01727-0.04117 0.0048-0.06333 0.030991-0.02188 0.02615-0.0207 0.068851l0.17536-0.02071z"/>
    <path d="m11.291 7.2246q-0.0089-0.0038-0.01899-0.0048-0.0099-0.0013-0.02167 9.5e-5 -0.04171 0.0049-0.06098 0.034781-0.01904 0.029611-0.01312 0.080442l0.0184 0.15783-0.04946 0.0058-0.03492-0.29963 0.04946-0.0058 0.0054 0.046551q0.01233-0.029101 0.03566-0.045111 0.0233-0.01628 0.05886-0.02043 0.0051-5.82e-4 0.01132-5.29e-4 0.0062-1.54e-4 0.01385 2.91e-4l0.0062 0.050531z"/>
    <path d="m11.302 7.1766 0.05213-0.0061 0.12289 0.24054 0.06426-0.2624 0.05213-0.0061-0.07737 0.31274-0.06684 0.0078z"/>
    <path d="m11.933 7.2416 0.0028 0.024081-0.22618 0.02641q0.0091 0.050451 0.03952 0.074022 0.03063 0.02327 0.07955 0.01755 0.02834-0.0033 0.054-0.01336 0.02592-0.01008 0.05051-0.027051l0.0054 0.046551q-0.02516 0.01432-0.05228 0.02346-0.02712 0.0091-0.05573 0.01247-0.07165 0.0084-0.11849-0.028471-0.04657-0.036861-0.05487-0.10802-0.0086-0.073571 0.02597-0.12126 0.03478-0.047991 0.10216-0.055861 0.06042-0.0071 0.1 0.02791 0.03981 0.034671 0.04761 0.10155zm-0.05088-0.0087q-0.0052-0.040331-0.03024-0.061821-0.02473-0.02152-0.06109-0.01727-0.04117 0.0048-0.06332 0.030981-0.02188 0.026151-0.0207 0.068851l0.17536-0.0207z"/>
    <path d="m12.211 6.9836 0.0099 0.085072 0.10133-0.01183 0.0045 0.038261-0.10133 0.01183 0.01896 0.16265q0.0043 0.036651 0.01538 0.045931 0.01138 0.0092 0.04212 0.0057l0.05053-0.0059 0.0048 0.041201-0.05053 0.0059q-0.05695 0.0066-0.08107-0.01195-0.02415-0.01887-0.0307-0.075052l-0.01896-0.16265-0.03609 0.0042-0.0045-0.038261 0.03609-0.0042-0.0099-0.085072 0.04946-0.0058z"/>
    <path d="m12.566 7.0756q-0.0089-0.0038-0.01899-0.0048-0.0099-0.0013-0.02167 9.5e-5 -0.04171 0.0049-0.06098 0.034781-0.01904 0.029611-0.01312 0.080442l0.0184 0.15783-0.04946 0.0058-0.03492-0.29963 0.04946-0.0058 0.0054 0.046551q0.01233-0.029101 0.03566-0.045111 0.0233-0.01628 0.05886-0.02043 0.0051-5.82e-4 0.01132-5.29e-4 0.0062-1.54e-4 0.01385 2.91e-4l0.0062 0.050531z"/>
    <path d="m12.766 7.1566q-0.05962 7e-3 -0.08102 0.02329-0.0214 0.01633-0.01757 0.049231 0.0031 0.02622 0.02197 0.039731 0.01916 0.01322 0.04883 0.0098 0.04091-0.0048 0.06213-0.036541 0.02147-0.032061 0.01585-0.080211l-0.0013-0.01097-0.04893 0.0057zm0.09575-0.031791 0.01993 0.17095-0.04919 0.0057-0.0053-0.045481q-0.01366 0.029251-0.03727 0.045301-0.02364 0.01577-0.06 0.02002-0.04599 0.0054-0.07625-0.01713-0.03003-0.0228-0.03508-0.066131-0.0059-0.050561 0.0248-0.080182 0.03096-0.029651 0.09807-0.037481l0.06898-0.0081-5.56e-4 -0.0048q-4e-3 -0.033971-0.02857-0.049811-0.02437-0.01613-0.06474-0.01142-0.02567 3e-3 -0.04928 0.012t-0.04463 0.023921l-0.0053-0.045481q0.02579-0.01358 0.05059-0.02163 0.02477-0.0083 0.04884-0.01113 0.06497-0.0076 0.10098 0.02238 0.03601 0.029961 0.04399 0.098452z"/>
    <path d="m9.9885 8.2786 0.021082 0.18084-0.049192 0.0057-0.02089-0.17924q-5e-3 -0.042531-0.024-0.061731-0.01904-0.0192-0.052191-0.01533-0.039841 0.0047-0.059871 0.032751-0.02003 0.028101-0.01491 0.071972l0.01974 0.16933-0.049461 0.0058-0.048521-0.41627 0.049461-0.0058 0.01902 0.16319q0.0145-0.029081 0.036731-0.045231 0.0225-0.01619 0.053781-0.01984 0.051601-6e-3 0.081812 0.02299 0.030181 0.028741 0.037411 0.090812z"/>
    <path d="m10.346 8.2546 0.0028 0.024081-0.22618 0.02641q0.0091 0.050451 0.03952 0.074021 0.03063 0.023271 0.07955 0.01756 0.02834-0.0033 0.054-0.01336 0.02592-0.01008 0.0505-0.02705l0.0054 0.046551q-0.02516 0.01432-0.05228 0.023461-0.02712 0.0091-0.05573 0.01247-0.07165 0.0084-0.11849-0.02847-0.04657-0.036861-0.05487-0.10802-0.0086-0.073571 0.02598-0.12126 0.03478-0.047991 0.10216-0.055861 0.06042-0.0071 0.1 0.027911 0.03981 0.034671 0.04761 0.10155zm-0.05088-0.0087q-0.0052-0.040331-0.03024-0.061821-0.02473-0.02152-0.06109-0.01727-0.04117 0.0048-0.06332 0.030991-0.02188 0.02615-0.0207 0.068851l0.17536-0.0207z"/>
    <path d="m10.564 8.2406q-0.05962 7e-3 -0.08102 0.02329-0.0214 0.01633-0.01757 0.049231 0.0031 0.026221 0.02197 0.039741 0.01916 0.01322 0.04883 0.0098 0.04091-0.0048 0.06214-0.036541 0.02146-0.032061 0.01585-0.080222l-0.0013-0.01097-0.04893 0.0057zm0.09575-0.031791 0.01993 0.17095-0.04919 0.0057-0.0053-0.045481q-0.01366 0.02925-0.03727 0.045301-0.02364 0.01578-0.06 0.02002-0.04598 0.0054-0.07625-0.01713-0.03003-0.0228-0.03508-0.066131-0.0059-0.050561 0.0248-0.080182 0.03096-0.02965 0.09807-0.037481l0.06898-0.0081-5.55e-4 -0.0048q-4e-3 -0.033971-0.02857-0.049811-0.02437-0.01613-0.06474-0.01142-0.02567 3e-3 -0.04928 0.012t-0.04463 0.02392l-0.0053-0.045481q0.02579-0.01358 0.05059-0.021631 0.02477-0.0083 0.04884-0.01113 0.06497-0.0076 0.10098 0.02238 0.03601 0.029961 0.04399 0.098452z"/>
    <path d="m10.949 8.0916-0.0189-0.16212 0.04919-0.0057 0.04852 0.41627-0.04919 0.0057-0.0052-0.044941q-0.01239 0.028561-0.03465 0.044451-0.02203 0.01559-0.05518 0.01946-0.05427 0.0063-0.09355-0.033001-0.03901-0.039371-0.04724-0.11-0.0082-0.070621 0.02067-0.11793 0.02917-0.047331 0.08344-0.053671 0.03315-0.0039 0.05821 0.0065 0.02529 0.01006 0.04392 0.035001zm-0.15544 0.12417q0.0063 0.054311 0.03214 0.082752 0.02604 0.02814 0.06508 0.02359 0.03903-0.0046 0.05791-0.037951 0.01884-0.033651 0.01251-0.087962-0.0063-0.054311-0.03237-0.082452-0.02608-0.02841-0.06511-0.02385-0.03903 0.0046-0.05788 0.038211-0.0186 0.033361-0.01227 0.087662z"/>
    <path d="m11.128 8.2596 0.05641-0.0066 0.0079 0.067951-0.05641 0.0066z"/>
    <path d="m11.572 7.9256-0.05009 0.20732 0.14678-0.01714zm-0.03668-0.049681 0.06123-0.0071 0.19868 0.38165-0.05615 0.0066-0.0483-0.098212-0.17993 0.02101-0.02442 0.1067-0.05695 0.0066z"/>
    <path d="m12.009 7.9306 0.0054 0.046551q-0.0221-0.0083-0.04518-0.01099-0.02308-0.0027-0.04714 8.7e-5 -0.03663 0.0043-0.05377 0.01766-0.01687 0.01335-0.01425 0.035831 2e-3 0.01712 0.01625 0.025491 0.01422 0.0081 0.05482 0.01231l0.01728 0.0018q0.05371 0.0051 0.07804 0.02316 0.02456 0.01774 0.02883 0.054391 0.0049 0.041731-0.02545 0.069951-0.03005 0.028181-0.0878 0.034931-0.02406 0.0028-0.05082 0.0011-0.02646-0.0015-0.05643-0.0075l-0.0059-0.050831q0.02892 0.01099 0.05623 0.01513 0.02728 0.0039 0.05321 8.47e-4 0.03476-0.0041 0.0521-0.01802 0.01731-0.01422 0.01478-0.035891-0.0023-0.02006-0.01722-0.029171-0.01462-0.0091-0.06149-0.0137l-0.01758-2e-3q-0.04684-0.0043-0.06947-0.02172-0.02266-0.01769-0.02671-0.052471-0.0049-0.042271 0.02233-0.068771 0.02726-0.026501 0.08234-0.032931 0.02727-0.0032 0.0518-2e-3t0.04578 0.0069z"/>
    <path d="m12.439 8.2036q-0.01462 0.055941-0.0325 0.074572-0.01788 0.01863-0.05103 0.0225l-0.0393 0.0046-0.0048-0.041201 0.02887-0.0034q0.02032-0.0024 0.03043-0.01331 0.01011-0.01094 0.01956-0.048381l0.0062-0.023501-0.15547-0.28067 0.05213-0.0061 0.12089 0.22342 0.06626-0.24527 0.05213-0.0061-0.09337 0.34281z"/>
   </g>
   <g stroke-width=".27472px">
    <path d="m2.5614 9.8847q-0.056137 0.0059-0.076532 0.02154-0.020394 0.0156-0.017365 0.047681 0.00241 0.025561 0.01995 0.038981 0.017767 0.01313 0.045709 0.01018 0.038516-0.0041 0.059017-0.034701 0.020727-0.030911 0.016296-0.077862l-0.00101-0.01069-0.046069 0.0049zm0.090518-0.029611 0.015729 0.16667-0.046319 0.0049-0.00419-0.04434q-0.013348 0.02829-0.035806 0.04357-0.022482 0.01503-0.056719 0.01865-0.043299 0.0046-0.071339-0.01774-0.027814-0.02261-0.031802-0.064862-0.00465-0.049301 0.024704-0.077701 0.029608-0.028431 0.092794-0.035121l0.064949-0.0069-4.498e-4 -0.0047q-0.00313-0.033131-0.025971-0.048891-0.022617-0.01604-0.06063-0.01202-0.024167 0.0026-0.046509 0.01099-0.022342 0.0084-0.042355 0.02266l-0.00419-0.044341q0.024466-0.01287 0.047913-0.02035 0.023421-0.0078 0.046079-0.01015 0.061172-0.0065 0.094483 0.02319 0.03331 0.029671 0.039613 0.096442z"/>
    <path d="m2.7254 9.6057 0.046321-0.0049 0.038301 0.40588-0.046321 0.0049z"/>
    <path d="m2.9914 9.7267q-0.037261 0.0039-0.056051 0.036501-0.01882 0.032291-0.01387 0.084722 0.0049 0.052431 0.029201 0.080422 0.024481 0.0277 0.061991 0.02373 0.037001-0.0039 0.055801-0.036471 0.01879-0.032551 0.01387-0.084722-0.0049-0.051911-0.029401-0.079871-0.024531-0.028221-0.061531-0.024301zm-0.0038-0.040691q0.060421-0.0064 0.098742 0.030641 0.038331 0.037041 0.045121 0.10903 0.0068 0.071732-0.02385 0.11634-0.030651 0.044341-0.091062 0.050741-0.060671 0.0064-0.099002-0.030611-0.038101-0.037331-0.044871-0.10906-0.0068-0.071991 0.023601-0.11631 0.030651-0.044341 0.091312-0.050771z"/>
    <path d="m3.4394 9.7627 0.01664 0.17633-0.046321 0.0049-0.01649-0.17476q-0.0039-0.041471-0.02147-0.060431-0.01755-0.01895-0.048771-0.01565-0.037511 4e-3 -0.056821 0.031051-0.01931 0.027071-0.01527 0.069851l0.01558 0.16511-0.046571 0.0049-0.027571-0.29215 0.046571-0.0049 0.0043 0.045381q0.01413-0.0281 0.035301-0.043521 0.021431-0.01544 0.050881-0.01856 0.048581-0.0051 0.076461 0.02352 0.027851 0.028401 0.033561 0.088912z"/>
    <path d="m3.7204 9.7597q-0.0049-0.052171-0.028531-0.078652-0.02335-0.02651-0.060861-0.022531-0.037261 0.0039-0.055441 0.034851-0.01793 0.030881-0.01301 0.083052 0.0049 0.051911 0.028251 0.078411 0.0236 0.026481 0.060861 0.022531 0.037511-4e-3 0.055441-0.034851 0.01818-0.030911 0.01329-0.082812zm0.057001 0.1083q7e-3 0.074601-0.021511 0.11424-0.02852 0.0399-0.094482 0.046891-0.02442 0.0026-0.046441 9.79e-4 -0.02199-0.0013-0.043121-7e-3l-0.0044-0.04669q0.02147 0.0093 0.041881 0.01269 0.02041 0.0034 0.041051 0.0012 0.045561-0.0048 0.065881-0.032011 0.02034-0.026921 0.01564-0.076742l-0.0022-0.02374q-0.01191 0.02734-0.033111 0.042501-0.0212 0.01516-0.052411 0.01846-0.051861 0.0055-0.087442-0.032101-0.035581-0.037591-0.041961-0.10515-0.0064-0.067821 0.02145-0.11213 0.027851-0.044311 0.079712-0.049801 0.031221-0.0033 0.054831 0.0071 0.02361 0.01041 0.040401 0.034711l-0.0042-0.044341 0.046321-0.0049 0.024151 0.25589z"/>
    <path d="m4.0504 9.4967 0.0078 0.082952 0.095412-0.01011 0.0035 0.037301-0.095412 0.01011 0.01497 0.15859q0.0034 0.035731 0.01365 0.044921 0.01052 0.0092 0.039481 0.0061l0.047581-5e-3 0.0038 0.040171-0.047581 5e-3q-0.053621 0.0057-0.075952-0.01277-0.02236-0.01871-0.027531-0.073481l-0.01497-0.15859-0.033981 0.0036-0.0035-0.037301 0.033981-0.0036-0.0078-0.082952 0.046571-0.0049z"/>
    <path d="m4.4604 9.6547 0.01664 0.17633-0.046321 0.0049-0.01649-0.17476q-0.0039-0.041471-0.02147-0.060431-0.01755-0.01895-0.048771-0.01565-0.037511 4e-3 -0.056821 0.031051-0.01931 0.027071-0.01527 0.069851l0.01558 0.1651-0.046571 0.0049-0.038311-0.40588 0.046571-0.0049 0.01501 0.1591q0.01413-0.028101 0.035301-0.043521 0.021421-0.01544 0.050881-0.01856 0.048581-0.0051 0.076462 0.02352 0.02785 0.028401 0.033561 0.088912z"/>
    <path d="m4.7964 9.6377 0.0022 0.02348-0.21296 0.02256q0.0077 0.049241 0.035841 0.072601 0.028371 0.02308 0.074432 0.01819 0.02668-0.0028 0.050961-0.01225 0.02453-0.0094 0.047921-0.025621l0.0043 0.045391q-0.02389 0.01359-0.049531 0.02211-0.02564 0.0085-0.052571 0.01136-0.067471 0.0071-0.11083-0.02936-0.043111-0.036531-0.049661-0.10591-0.0068-0.071731 0.026521-0.11767 0.033521-0.046231 0.096962-0.052951 0.056891-6e-3 0.093462 0.028561 0.036801 0.034301 0.042951 0.099512zm-0.047651-0.0092q-0.0042-0.039331-0.02733-0.060601-0.022861-0.02129-0.057091-0.01766-0.038771 0.0041-0.060041 0.029281-0.02102 0.02515-0.02065 0.066731l0.16511-0.01772z"/>
    <path d="m4.9964 9.4807 0.046321-0.0049 0.079412 0.22183 0.036131-0.23407 0.054631-0.0058 0.079412 0.22183 0.036131-0.23407 0.046321-0.0049-0.046191 0.29996-0.054631 0.0058-0.083272-0.23302-0.038321 0.2459-0.054631 0.0058z"/>
    <path d="m5.4455 9.4327 0.046321-0.0049 0.027571 0.29215-0.046321 0.0049zm-0.01073-0.11372 0.046321-0.0049 0.0057 0.060771-0.046321 0.0049z"/>
    <path d="m5.8335 9.5087 0.01664 0.17632-0.046321 0.0049-0.01649-0.17476q-0.0039-0.041471-0.02147-0.060431-0.01755-0.01896-0.048771-0.01565-0.037511 4e-3 -0.056821 0.031051-0.01931 0.027071-0.01527 0.069851l0.01558 0.16511-0.046571 0.0049-0.027571-0.29215 0.046571-0.0049 0.0043 0.045381q0.01413-0.028101 0.035301-0.043521 0.02142-0.01544 0.050881-0.01856 0.048581-0.0051 0.076462 0.02352 0.027851 0.028401 0.033561 0.088912z"/>
    <path d="m6.1055 9.4077-0.01492-0.15807 0.046321-0.0049 0.038311 0.40588-0.046321 0.0049-0.0041-0.043821q-0.01214 0.027631-0.033341 0.042781-0.02097 0.01487-0.052191 0.01817-0.051101 0.0054-0.087312-0.033431-0.035961-0.038871-0.042461-0.10773-0.0065-0.068861 0.02148-0.1145 0.028231-0.045671 0.079341-0.051081 0.031211-0.0033 0.054571 0.0071 0.02359 0.01015 0.040651 0.034681zm-0.14821 0.11871q5e-3 0.052951 0.028751 0.080992 0.02398 0.027761 0.060731 0.023861t0.055071-0.036131q0.01829-0.032501 0.01329-0.085452t-0.028971-0.080712q-0.024-0.028021-0.060761-0.024131-0.036751 0.0039-0.055041 0.036391-0.01806 0.032211-0.01306 0.085162z"/>
    <path d="m6.3905 9.6557q-0.01471 0.054251-0.031841 0.072131-0.01713 0.01789-0.048341 0.02119l-0.037011 0.0039-0.0038-0.040171 0.02719-0.0029q0.01913-2e-3 0.028821-0.01254 0.0097-0.01051 0.01923-0.046821l0.0062-0.022791-0.14116-0.27538 0.049091-0.0052 0.10967 0.21916 0.066541-0.23783 0.049091-0.0052-0.093722 0.3324z"/>
    <path d="m6.7505 9.2106 0.0078 0.082952 0.095412-0.01011 0.0035 0.037301-0.095412 0.01011 0.01497 0.15859q0.0034 0.035731 0.01365 0.044921 0.01052 0.0092 0.039471 0.0061l0.047581-5e-3 0.0038 0.040171-0.047581 5e-3q-0.053621 0.0057-0.075962-0.01277-0.02236-0.01871-0.027531-0.073482l-0.01497-0.15859-0.033981 0.0036-0.0035-0.037301 0.033981-0.0036-0.0078-0.082952 0.046571-0.0049z"/>
    <path d="m7.0825 9.3047q-0.0082-0.0039-0.01776-5e-3 -0.0093-0.0014-0.02036-2.12e-4 -0.039271 0.0042-0.057901 0.033001-0.01841 0.028561-0.01373 0.078122l0.01453 0.1539-0.046571 0.0049-0.027571-0.29215 0.046571-0.0049 0.0043 0.045381q0.01209-0.028151 0.034301-0.043411 0.02218-0.01552 0.055661-0.01907 0.0048-5.03e-4 0.01065-3.18e-4 0.0058-3.8e-5 0.01301 4.77e-4l0.0049 0.049271z"/>
    <path d="m7.2685 9.3857q-0.056141 0.0059-0.076531 0.02154-0.02039 0.0156-0.01737 0.047681 0.0024 0.02556 0.01995 0.038981 0.01777 0.01313 0.045711 0.01018 0.038511-0.0041 0.059021-0.034701 0.02073-0.030911 0.0163-0.077862l-1e-3 -0.01069-0.046071 0.0049zm0.090512-0.029611 0.01573 0.16667-0.046321 0.0049-0.0042-0.044341q-0.01335 0.028291-0.035801 0.043571-0.02248 0.01503-0.056721 0.01865-0.043301 0.0046-0.071341-0.01774-0.027811-0.022611-0.031801-0.064861-0.0047-0.049301 0.0247-0.077701 0.02961-0.028431 0.092792-0.035121l0.064951-0.0069-4.5e-4 -0.0047q-0.0031-0.033131-0.025971-0.048881-0.02262-0.01604-0.060631-0.01202-0.02417 0.0026-0.046511 0.01099-0.02234 0.0084-0.042351 0.02266l-0.0042-0.044341q0.02447-0.01287 0.047911-0.02035 0.02342-0.0078 0.046081-0.01015 0.061171-0.0065 0.094482 0.023191 0.033311 0.029671 0.039611 0.096442z"/>
    <path d="m7.4435 9.2206 0.046321-0.0049 0.027571 0.29215-0.046321 0.0049zm-0.01073-0.11372 0.046321-0.0049 0.0057 0.060771-0.046321 0.0049z"/>
    <path d="m7.5755 9.0916 0.046321-0.0049 0.038311 0.40588-0.046321 0.0049z"/>
    <path d="m7.7625 9.4157 0.053121-0.0056 0.0042 0.044861-0.033411 0.087842-0.032471 0.0034 0.01276-0.085652z"/>
    <path d="m8.1605 9.4557q-0.015 0.055441-0.032461 0.073721-0.01746 0.01828-0.049271 0.02166l-0.037711 4e-3 -0.0039-0.041051 0.02771-0.0029q0.0195-0.0021 0.029371-0.01282 0.0099-0.01075 0.0196-0.047851l0.0064-0.02329-0.14383-0.28141 0.050031-0.0053 0.11174 0.22397 0.067851-0.24307 0.050031-0.0053-0.095562 0.33972z"/>
    <path d="m8.4365 9.1316q-0.037971 4e-3 -0.057131 0.037311-0.01918 0.033001-0.01415 0.086582 5e-3 0.053581 0.029751 0.082192 0.02495 0.028311 0.063171 0.024241 0.037711-4e-3 0.056871-0.037281 0.01916-0.033271 0.01415-0.086592-5e-3 -0.053051-0.029951-0.081622-0.025-0.028841-0.062711-0.02483zm-0.0039-0.041591q0.061571-0.0065 0.10063 0.031301 0.039061 0.037851 0.045971 0.11143 0.0069 0.073311-0.024331 0.1189-0.031241 0.045321-0.092812 0.051871-0.061831 0.0066-0.10088-0.031271-0.038821-0.038141-0.045711-0.11146-0.0069-0.073571 0.02407-0.11888 0.031241-0.045321 0.093072-0.051901z"/>
    <path d="m8.6545 9.2567-0.01698-0.18074 0.047211-5e-3 0.01681 0.17887q4e-3 0.042391 0.0219 0.062021 0.01788 0.01937 0.049701 0.01598 0.038231-0.0041 0.057911-0.031741 0.01994-0.0277 0.01583-0.071421l-0.01591-0.16927 0.047211-5e-3 0.028061 0.29858-0.047211 5e-3 -0.0043-0.045851q-0.01463 0.029021-0.036211 0.044781-0.021351 0.01546-0.051371 0.01866-0.049521 0.0053-0.078182-0.023991-0.02866-0.029261-0.034451-0.090842z"/>
    <path d="m9.0115 8.9346 0.0139 0.14795-0.043611 0.0046-0.0139-0.14795z"/>
    <path d="m9.1095 8.9076 0.047211-5e-3 0.038981 0.4148-0.047211 5e-3z"/>
    <path d="m9.2555 8.8926 0.047211-5e-3 0.038981 0.4148-0.047211 5e-3z"/>
    <path d="m9.7825 9.1006q-5e-3 -0.053321-0.029061-0.080372-0.023791-0.027091-0.062021-0.02302-0.037971 4e-3 -0.056511 0.035631-0.01828 0.031561-0.01327 0.084882 5e-3 0.053051 0.028781 0.080142 0.02405 0.027061 0.062021 0.02302 0.038231-0.0041 0.056511-0.035631 0.01854-0.031591 0.01355-0.084642zm0.058081 0.11068q0.0072 0.076242-0.02194 0.11676-0.029081 0.040791-0.096292 0.047941-0.02489 0.0026-0.047331 1e-3 -0.02241-0.0014-0.043951-0.0072l-0.0045-0.047721q0.02188 0.0095 0.042681 0.01296 0.02079 0.0034 0.041831 0.0012 0.046441-0.0049 0.067151-0.032721 0.02074-0.027511 0.01595-0.078432l-0.0023-0.024261q-0.01214 0.027951-0.033751 0.043441-0.02161 0.01549-0.053421 0.01887-0.052851 0.0056-0.089112-0.032791-0.036261-0.038421-0.042751-0.10746-0.0065-0.069311 0.02188-0.1146 0.028391-0.045291 0.081242-0.050911 0.031811-0.0034 0.055871 0.0072 0.02406 0.01063 0.041161 0.035471l-0.0043-0.045321 0.047211-5e-3 0.02457 0.26152z"/>
    <path d="m10.172 9.0506 0.0022 0.02399-0.21704 0.023081q0.0078 0.050321 0.036511 0.074202 0.02891 0.02358 0.075861 0.01859 0.02719-0.0029 0.05194-0.01253 0.025-0.0097 0.04885-0.0262l0.0044 0.046391q-0.02435 0.0139-0.05048 0.0226t-0.05358 0.01162q-0.06876 0.0073-0.11294-0.029991-0.043931-0.037331-0.050591-0.10824-0.0069-0.073311 0.02705-0.12026 0.034171-0.047251 0.098822-0.054131 0.05798-0.0062 0.09525 0.029181 0.0375 0.035051 0.04376 0.1017zm-0.04856-0.0094q-0.0043-0.040201-0.02784-0.061931-0.02329-0.02175-0.05818-0.01804-0.03951 0.0042-0.061191 0.029931-0.021421 0.0257-0.02106 0.068201l0.16828-0.018131z"/>
    <path d="m10.276 8.8156 8e-3 0.084772 0.09723-0.01034 0.0036 0.038121-0.09724 0.01034 0.01523 0.16208q0.0034 0.036521 0.0139 0.045911 0.01073 0.0094 0.04023 0.0062l0.04849-0.0052 0.0039 0.041051-0.04849 0.0052q-0.05465 0.0058-0.07741-0.01304-0.02279-0.01912-0.02805-0.075101l-0.01523-0.16208-0.03464 0.0037-0.0036-0.038121 0.03464-0.0037-8e-3 -0.084772 0.04746-5e-3z"/>
    <path d="m10.818 8.8556 0.0043 0.045851q-0.02109-0.0093-0.04188-0.01278-0.02056-0.0037-0.04109-0.0016-0.04592 0.0049-0.06847 0.037971-0.02257 0.032831-0.01743 0.087472 0.0051 0.054651 0.03339 0.082342 0.02823 0.027421 0.07415 0.02254 0.02052-0.0022 0.04001-0.0099 0.01972-8e-3 0.03865-0.02161l0.0043 0.045321q-0.01885 0.0117-0.0397 0.01876-0.02059 7e-3 -0.04445 0.0096-0.06491 0.0069-0.10712-0.031421-0.04221-0.038321-0.04897-0.1103-0.0069-0.073041 0.02769-0.11899 0.03481-0.045971 0.10202-0.053121 0.02181-0.0023 0.04304 2.64e-4 0.02121 0.0023 0.04158 0.0096z"/>
    <path d="m10.889 8.7186 0.04721-5e-3 0.03898 0.4148-0.04721 5e-3z"/>
    <path d="m11.16 8.8426q-0.03797 4e-3 -0.05713 0.037311-0.01918 0.033001-0.01415 0.086582 5e-3 0.053581 0.02975 0.082192 0.02495 0.028311 0.06317 0.02424 0.03771-4e-3 0.05687-0.037281 0.01916-0.033271 0.01415-0.086582-5e-3 -0.053051-0.02996-0.081632-0.02499-0.028841-0.06271-0.024831zm-0.0039-0.041591q0.06157-0.0065 0.10063 0.031301 0.03906 0.037851 0.04597 0.11143 0.0069 0.073311-0.02433 0.11891-0.03124 0.045321-0.09281 0.051871-0.06183 0.0066-0.10089-0.031271-0.03882-0.038141-0.04571-0.11146-0.0069-0.073581 0.02407-0.11888 0.03124-0.045321 0.09307-0.051901z"/>
    <path d="m11.551 8.7736 0.0044 0.046391q-0.02101-0.0085-0.04306-0.01158-0.02205-3e-3 -0.04514-5.82e-4 -0.03515 0.0037-0.0518 0.01682-0.01639 0.01306-0.01429 0.035441 0.0016 0.01706 0.0151 0.02559 0.01347 0.0083 0.05227 0.01302l0.01651 2e-3q0.05134 0.0059 0.0743 0.02414 0.0232 0.01799 0.02663 0.054521 0.0039 0.041591-0.02563 0.069231-0.02928 0.027611-0.08469 0.033511-0.02309 0.0025-0.04868 3.17e-4 -0.02531-0.0019-0.0539-0.0083l-0.0048-0.050651q0.0275 0.01135 0.05357 0.01584 0.02605 0.0042 0.05094 0.0016 0.03335-0.0035 0.05021-0.01719 0.01683-0.01391 0.0148-0.035501-0.0019-0.01999-0.01597-0.029261-0.01383-0.0093-0.05863-0.0145l-0.01679-0.0022q-0.04477-0.0049-0.06613-0.02258-0.02138-0.01792-0.02463-0.052571-4e-3 -0.042121 0.02262-0.068101 0.02658-0.025981 0.07943-0.031601 0.02617-0.0028 0.04963-0.0012 0.02347 0.0015 0.04372 0.0075z"/>
    <path d="m11.899 8.8666 0.0022 0.023991-0.21704 0.023091q0.0078 0.050321 0.03651 0.074201 0.02891 0.02358 0.07586 0.01859 0.0272-0.0029 0.05194-0.01253 0.025-0.0097 0.04885-0.026201l0.0044 0.046381q-0.02435 0.0139-0.05048 0.0226t-0.05358 0.01162q-0.06876 0.0073-0.11294-0.029991-0.04393-0.037331-0.05059-0.10824-0.0069-0.073311 0.02705-0.12026 0.03417-0.047251 0.09882-0.054131 0.05798-0.0062 0.09525 0.02918 0.0375 0.035051 0.04376 0.1017zm-0.04856-0.0094q-0.0043-0.040201-0.02784-0.061931-0.02329-0.02175-0.05818-0.01804-0.03951 0.0042-0.06119 0.029931-0.02142 0.025701-0.02106 0.068201l0.16828-0.01813z"/>
    <path d="m11.952 8.8506 0.13828-0.01471 0.0041 0.043721-0.13828 0.01471z"/>
    <path d="m2.68 10.576q-0.037338 4e-3 -0.05617 0.03656-0.018857 0.03234-0.013898 0.08486 0.00496 0.05252 0.029267 0.08055 0.024532 0.02775 0.062122 0.02377 0.037085-0.0039 0.055918-0.03653 0.01883-0.0326 0.0139-0.08486-0.0049-0.052-0.02947-0.08001-0.024581-0.02827-0.061668-0.02435zm-0.00385-0.04076q0.060546-0.0064 0.098958 0.03069 0.038411 0.0371 0.045221 0.10921 0.0068 0.07185-0.0239 0.11653-0.030711 0.04442-0.091259 0.05083-0.060798 0.0064-0.09921-0.03066-0.038185-0.03739-0.044971-0.10924-0.00681-0.07211 0.02365-0.1165 0.030713-0.04442 0.091511-0.05085z"/>
    <path d="m3.0154 10.392 0.0038 0.03997-0.044401 0.0047q-0.02498 0.0026-0.033831 0.01413-0.0086 0.01146-6e-3 0.03864l0.0024 0.02587 0.076441-0.0081 0.0035 0.03736-0.076442 0.0081 0.024111 0.25528-0.046671 0.0049-0.02411-0.25528-0.044401 0.0047-0.0035-0.03736 0.044401-0.0047-0.0019-0.02038q-0.0046-0.04886 0.01523-0.07339 0.01983-0.02479 0.067511-0.02984l0.043891-0.0046z"/>
    <path d="m3.2674 10.396 0.0078 0.08309 0.095612-0.01012 0.0035 0.03736-0.095612 0.01012 0.01501 0.15886q0.0034 0.0358 0.01368 0.045 0.01055 0.0092 0.039561 0.0061l0.047681-5e-3 0.0038 0.04024-0.047681 5e-3q-0.053731 0.0057-0.076122-0.01279-0.02241-0.01874-0.027591-0.07361l-0.015-0.15886-0.034061 0.0036-0.0035-0.03736 0.034061-0.0036-0.0078-0.08309 0.046671-0.0049z"/>
    <path d="m3.6784 10.554 0.01668 0.17663-0.046421 0.0049-0.01653-0.17505q-0.0039-0.04154-0.02151-0.06053-0.01759-0.01898-0.048871-0.01567-0.037591 4e-3 -0.056941 0.0311-0.01935 0.02712-0.0153 0.06997l0.01562 0.16539-0.046671 0.0049-0.038401-0.40655 0.046671-0.0049 0.01505 0.15938q0.01416-0.02815 0.035381-0.04359 0.02147-0.01547 0.050991-0.01859 0.048691-0.0052 0.076621 0.02356 0.027911 0.02845 0.033641 0.08906z"/>
    <path d="m4.0144 10.537 0.0022 0.02352-0.21342 0.02259q0.0077 0.04932 0.035921 0.07273 0.02843 0.02311 0.074591 0.01823 0.026741-0.0028 0.051071-0.01227 0.02459-0.0095 0.048031-0.02567l0.0043 0.04546q-0.023941 0.01362-0.049631 0.02214-0.025691 0.0085-0.052691 0.01138-0.067611 0.0072-0.11107-0.02941-0.043201-0.03659-0.049771-0.10609-0.0068-0.07185 0.026581-0.11787 0.033591-0.04631 0.097162-0.05304 0.057011-6e-3 0.093662 0.02861 0.036881 0.03436 0.043051 0.09968zm-0.047751-0.0092q-0.0042-0.0394-0.027391-0.0607-0.02291-0.02132-0.057221-0.01769-0.038851 0.0041-0.060161 0.02933-0.02106 0.02519-0.0207 0.06684l0.16547-0.01775z"/>
    <path d="m4.4964 10.486 0.0022 0.02352-0.21342 0.02259q0.0077 0.04932 0.035921 0.07273 0.02843 0.02311 0.074591 0.01823 0.026741-0.0028 0.051071-0.01227 0.02459-0.0095 0.048031-0.02567l0.0043 0.04546q-0.023941 0.01362-0.049631 0.02214-0.025691 0.0085-0.052691 0.01138-0.067611 0.0072-0.11107-0.02941-0.043201-0.03659-0.049771-0.10609-0.0068-0.07185 0.026581-0.11787 0.033591-0.04631 0.097162-0.05304 0.057011-6e-3 0.093662 0.02861 0.036881 0.03436 0.043051 0.09968zm-0.047751-0.0092q-0.0042-0.0394-0.027391-0.0607-0.02291-0.02133-0.057221-0.01769-0.038851 0.0041-0.060161 0.02933-0.02106 0.02519-0.0207 0.06684l0.16547-0.01775z"/>
    <path d="m4.5494 10.23 0.046421-0.0049 0.038401 0.40655-0.046421 0.0049z"/>
    <path d="m4.6914 10.215 0.046671-0.0049 0.02268 0.24012 0.12657-0.14086 0.059281-0.0063-0.13692 0.15277 0.17087 0.13919-0.060541 0.0064-0.15704-0.12772 0.0135 0.14292-0.046671 0.0049z"/>
    <path d="m5.4135 10.371 0.01668 0.17663-0.046421 0.0049-0.01653-0.17505q-0.0039-0.04154-0.02151-0.06053-0.01759-0.01899-0.048871-0.01567-0.037591 4e-3 -0.056941 0.0311-0.01935 0.02712-0.0153 0.06997l0.01562 0.16539-0.046671 0.0049-0.038401-0.40655 0.046671-0.0049 0.01505 0.15938q0.01416-0.02815 0.035381-0.04359 0.02147-0.01547 0.050991-0.01859 0.048691-0.0052 0.076621 0.02356 0.027911 0.02845 0.033641 0.08906z"/>
    <path d="m5.7505 10.354 0.0022 0.02352-0.21342 0.02259q0.0077 0.04932 0.035911 0.07273 0.028431 0.02311 0.074591 0.01823 0.026741-0.0028 0.051071-0.01227 0.02459-0.0095 0.048031-0.02567l0.0043 0.04546q-0.023941 0.01362-0.049631 0.02214-0.025691 0.0085-0.052691 0.01138-0.067611 0.0072-0.11107-0.02941-0.043201-0.03659-0.049771-0.10609-0.0068-0.07185 0.026581-0.11787 0.033591-0.04631 0.097162-0.05304 0.057011-6e-3 0.093662 0.02861 0.036881 0.03436 0.043051 0.09968zm-0.047751-0.0092q-0.0042-0.0394-0.027391-0.0607-0.02291-0.02133-0.057221-0.01769-0.038851 0.0041-0.060161 0.02933-0.02106 0.02519-0.0207 0.06684l0.16547-0.01775z"/>
    <path d="m5.9815 10.238q-0.0083-0.0039-0.0178-5e-3 -0.0093-0.0014-0.0204-2.2e-4 -0.039351 0.0042-0.058031 0.03306-0.01845 0.02861-0.01376 0.07825l0.01456 0.15415-0.046671 0.0049-0.027641-0.29264 0.046671-0.0049 0.0043 0.04546q0.01212-0.0282 0.034371-0.04348 0.022231-0.01555 0.055781-0.0191 0.0048-5.03e-4 0.01067-3.17e-4 0.0059-4e-5 0.01304 4.76e-4l0.0049 0.04935z"/>
    <path d="m6.2075 10.213-0.01495-0.15833 0.046421-0.0049 0.038401 0.40655-0.046421 0.0049-0.0041-0.04389q-0.01216 0.02768-0.033411 0.04285-0.02102 0.01489-0.052301 0.0182-0.051211 0.0054-0.087502-0.03349-0.036041-0.03893-0.042551-0.10791-0.0065-0.06898 0.02153-0.1147 0.028291-0.04575 0.079502-0.05117 0.031281-0.0033 0.054691 0.0071 0.02364 0.01017 0.040741 0.03474zm-0.14853 0.1189q5e-3 0.05304 0.028811 0.08113 0.02403 0.0278 0.060861 0.0239t0.055181-0.03619q0.01833-0.03255 0.01332-0.08559-5e-3 -0.05304-0.029041-0.08084-0.02405-0.02806-0.060891-0.02417-0.036831 0.0039-0.055161 0.03645-0.0181 0.03226-0.01309 0.0853z"/>
    <path d="m6.5265 10.144 0.0043 0.04546q-0.02066-0.0084-0.042351-0.01135-0.02168-3e-3 -0.044391-5.82e-4 -0.034561 0.0037-0.050931 0.01648-0.01612 0.01279-0.01404 0.03474 0.0016 0.01672 0.01485 0.02508 0.01325 0.0081 0.051401 0.01277l0.01624 2e-3q0.050481 0.0057 0.073072 0.02367 0.02281 0.01764 0.02619 0.05344 0.0038 0.04076-0.02519 0.06785-0.028791 0.02706-0.083282 0.03283-0.022701 0.0024-0.047871 3.17e-4 -0.02489-0.0019-0.053001-0.0081l-0.0047-0.04964q0.027041 0.01112 0.052681 0.01553 0.02562 0.0041 0.050091 0.0016 0.032801-0.0035 0.049371-0.01684 0.01655-0.01363 0.01455-0.03479-0.0019-0.0196-0.0157-0.02869-0.0136-0.0091-0.057651-0.01422l-0.01652-0.0022q-0.044031-0.0048-0.065031-0.02215-0.02102-0.01757-0.02423-0.05153-0.0039-0.04128 0.022231-0.06674 0.02613-0.02546 0.078101-0.03096 0.02573-0.0027 0.048811-0.0012 0.02307 0.0015 0.042991 0.0073z"/>
    <path d="m6.6425 10.352 0.053231-0.0056 0.0063 0.06636-0.053231 0.0056z"/>
    <path d="m7.0345 10.164 0.01357 0.1494 0.083322-0.0092q0.041921-0.0046 0.060321-0.02511 0.01863-0.0208 0.01518-0.05877-0.0035-0.03824-0.025431-0.05403-0.02172-0.0161-0.063641-0.01149zm-0.01523-0.1677 0.01116 0.12291 0.076892-0.0084q0.038061-0.0042 0.055211-0.02124 0.01738-0.01736 0.01455-0.04849-0.0028-0.03086-0.02297-0.044101-0.0199-0.01326-0.057961-0.0091zm-0.056071-0.039631 0.1327-0.01458q0.059401-0.0065 0.093932 0.01616 0.034531 0.02269 0.038921 0.071032 0.0034 0.03742-0.01105 0.06135t-0.045841 0.0329q0.039111 0.0045 0.062731 0.03007 0.02385 0.02524 0.027621 0.06676 5e-3 0.05463-0.02731 0.08824-0.032271 0.03361-0.096822 0.0407l-0.13784 0.01514z"/>
    <path d="m7.5905 10.133 0.0022 0.02458-0.21756 0.0239q0.0078 0.05156 0.036511 0.07599 0.028941 0.02413 0.076011 0.01896 0.027261-3e-3 0.052071-0.01289 0.02507-0.0099 0.048981-0.0269l0.0043 0.04753q-0.024421 0.01427-0.050621 0.02321-0.0262 0.0089-0.053721 0.01197-0.068921 0.0076-0.11316-0.0306-0.043991-0.0382-0.050591-0.11086-0.0068-0.07511 0.027241-0.12326 0.034301-0.04846 0.099102-0.055571 0.058121-0.0064 0.095432 0.029791 0.037541 0.03588 0.043741 0.10416zm-0.048661-0.0096q-0.0043-0.04119-0.02784-0.06342-0.023321-0.02227-0.058291-0.01842-0.039601 0.0043-0.061361 0.03074-0.0215 0.02636-0.02118 0.06991l0.16867-0.01872z"/>
    <path d="m7.9375 9.9887q-0.038061 0.0042-0.057301 0.038291-0.01926 0.03384-0.01428 0.08874 5e-3 0.0549 0.029721 0.08418 0.024971 0.02898 0.063291 0.02477 0.037801-0.0042 0.057041-0.03827 0.01924-0.03411 0.01428-0.08874-0.0049-0.05435-0.029931-0.08361-0.02502-0.02953-0.062821-0.02537zm-0.0039-0.042611q0.061721-0.0068 0.10082 0.031961 0.039101 0.03874 0.045951 0.11413 0.0068 0.07511-0.02451 0.12187-0.031361 0.04648-0.093082 0.05326-0.061971 0.0068-0.10108-0.03193-0.038871-0.03904-0.045691-0.11415-0.0068-0.07538 0.02426-0.12184 0.031361-0.046481 0.093342-0.053291z"/>
    <path d="m8.3955 10.025 0.01677 0.18463-0.047321 0.0052-0.01662-0.183q-0.0039-0.043431-0.02185-0.063252-0.01791-0.01983-0.049791-0.01632-0.038321 0.0042-0.058081 0.032591-0.01976 0.02838-0.01569 0.073171l0.0157 0.17289-0.047581 0.0052-0.027781-0.30592 0.047581-0.0052 0.0043 0.047521q0.01447-0.029451 0.036111-0.045621 0.02191-0.0162 0.051991-0.0195 0.049631-0.0055 0.078072 0.02453 0.02841 0.029701 0.034171 0.093071z"/>
    <path d="m8.6855 9.7827 0.0079 0.086852 0.097462-0.01071 0.0035 0.039061-0.097462 0.01071 0.01508 0.16607q0.0034 0.03742 0.01388 0.04703 0.01074 0.0096 0.040311 0.0063l0.048601-0.0053 0.0038 0.04206-0.048601 0.0053q-0.054781 6e-3 -0.077571-0.01327-0.022811-0.01956-0.028021-0.07692l-0.01508-0.16606-0.034721 0.0038-0.0035-0.039061 0.034721-0.0038-0.0079-0.086852 0.047581-0.0052z"/>
    <path d="m9.1045 9.9467 0.01677 0.18463-0.047321 0.0052-0.01662-0.183q-0.0039-0.043431-0.021851-0.063251-0.0179-0.01983-0.049791-0.01632-0.038321 0.0042-0.058081 0.032591-0.01976 0.028381-0.01569 0.073172l0.0157 0.17289-0.047581 0.0052-0.038601-0.425 0.047581-0.0052 0.01513 0.16661q0.01447-0.029451 0.036111-0.045621 0.0219-0.0162 0.051991-0.0195 0.049631-0.0055 0.078072 0.02453 0.028411 0.029711 0.034171 0.093072z"/>
    <path d="m9.4475 9.9287 0.0022 0.02458-0.21756 0.0239q0.0078 0.051562 0.036511 0.075992 0.028941 0.02413 0.076002 0.01896 0.027261-3e-3 0.052071-0.01289 0.02507-0.0099 0.048981-0.0269l0.0043 0.04752q-0.024421 0.01427-0.050621 0.02322-0.0262 0.0089-0.053721 0.01197-0.068921 0.0076-0.11316-0.0306-0.043991-0.0382-0.050591-0.11085-0.0068-0.075112 0.027251-0.12326 0.034301-0.048461 0.099102-0.055571 0.058121-0.0064 0.095432 0.029791 0.037541 0.035871 0.043751 0.10416zm-0.048661-0.0096q-0.0043-0.041191-0.02784-0.063421-0.023321-0.02227-0.058291-0.01842-0.039601 0.0043-0.061361 0.030741-0.0215 0.026361-0.02118 0.069911l0.16868-0.01876z"/>
    <path d="m9.6695 9.6427 0.047321-0.0052 0.038601 0.425-0.047321 0.0052z"/>
    <path d="m9.9405 9.7687q-0.038061 0.0042-0.057301 0.038291-0.01926 0.033841-0.01428 0.088742 5e-3 0.054901 0.02972 0.084182 0.024971 0.02898 0.063291 0.02477 0.037801-0.0042 0.057041-0.038271 0.01924-0.034111 0.01428-0.088742-0.0049-0.054351-0.02993-0.083612-0.025021-0.029531-0.062821-0.02537zm-0.0039-0.042611q0.061721-0.0068 0.10082 0.031961 0.0391 0.038741 0.04595 0.11413 0.0068 0.075111-0.02451 0.12187-0.03136 0.046481-0.093082 0.053261-0.061981 0.0068-0.10108-0.03193-0.038871-0.039041-0.045691-0.11415-0.0068-0.075381 0.024261-0.12184 0.031361-0.046481 0.093342-0.053291z"/>
    <path d="m10.263 9.7327q-0.03806 0.0042-0.0573 0.038291-0.01926 0.033841-0.01428 0.088742 5e-3 0.054901 0.02972 0.084182 0.02497 0.02898 0.06329 0.024771 0.0378-0.0042 0.05704-0.038271 0.01924-0.034111 0.01428-0.088742-0.0049-0.054351-0.02993-0.083612-0.02502-0.029531-0.06282-0.025371zm-0.0039-0.042611q0.06172-0.0068 0.10082 0.031961 0.0391 0.038741 0.04595 0.11413 0.0068 0.075112-0.02451 0.12187-0.03136 0.046481-0.09308 0.053261-0.06198 0.0068-0.10108-0.03193-0.03887-0.039041-0.04569-0.11416-0.0068-0.075382 0.02426-0.12184 0.03136-0.046481 0.09334-0.053291z"/>
    <path d="m10.458 9.5567 0.04757-0.0052 0.0228 0.25102 0.1292-0.14743 0.06043-0.0066-0.13975 0.15989 0.17397 0.1453-0.06172 0.0068-0.1599-0.13332 0.01357 0.1494-0.04758 0.0052z"/>
    <path d="m11.058 9.6457q-0.03806 0.0042-0.0573 0.038291-0.01926 0.033841-0.01428 0.088742 5e-3 0.054901 0.02972 0.084182 0.02497 0.02898 0.06329 0.02477 0.0378-0.0042 0.05704-0.038271 0.01924-0.034111 0.01428-0.088742-0.0049-0.054351-0.02993-0.083612-0.02502-0.029531-0.06282-0.025371zm-0.0039-0.042611q0.06172-0.0068 0.10082 0.031961 0.0391 0.038741 0.04595 0.11413 0.0068 0.075112-0.02451 0.12187-0.03136 0.046481-0.09308 0.053261-0.06198 0.0068-0.10108-0.031931-0.03887-0.039041-0.04569-0.11416-0.0068-0.075382 0.02426-0.12184 0.03136-0.046481 0.09334-0.053291z"/>
    <path d="m11.277 9.7727-0.01682-0.18518 0.04732-0.0052 0.01665 0.18327q0.0039 0.043431 0.02187 0.063531 0.0179 0.01983 0.04979 0.01632 0.03832-0.0042 0.05808-0.032591 0.02002-0.028411 0.01595-0.073201l-0.01575-0.17343 0.04732-0.0052 0.02779 0.30592-0.04732 0.0052-0.0043-0.046981q-0.0147 0.029751-0.03635 0.045921-0.02142 0.01587-0.0515 0.01917-0.04963 0.0055-0.07833-0.024501-0.02869-0.029951-0.03442-0.093042z"/>
    <path d="m11.639 9.4587 0.0079 0.086852 0.09746-0.01071 0.0035 0.039061-0.09746 0.01071 0.01508 0.16607q0.0034 0.037421 0.01388 0.047031 0.01074 0.0096 0.04031 0.0063l0.0486-0.0053 0.0038 0.042061-0.0486 0.0053q-0.05478 6e-3 -0.07757-0.01327-0.02282-0.01956-0.02802-0.076922l-0.01508-0.16607-0.03472 0.0038-0.0035-0.039061 0.03472-0.0038-0.0079-0.086852 0.04757-0.0052z"/>
    <path d="m2.6525 11.328 0.048079-0.0051 0.082493 0.2291 0.037441-0.24172 0.056701-6e-3 0.082492 0.2291 0.037441-0.24172 0.048081-0.0051-0.047861 0.30974-0.056701 6e-3 -0.086492-0.24066-0.039711 0.25392-0.056701 6e-3z"/>
    <path d="m3.1184 11.279 0.048081-0.0051 0.028701 0.3017-0.048081 0.0051zm-0.01117-0.11744 0.048081-0.0051 6e-3 0.06276-0.048081 0.0051z"/>
    <path d="m3.2554 11.145 0.048081-0.0051 0.039871 0.41914-0.048081 0.0051z"/>
    <path d="m3.6124 11.273-0.01553-0.16324 0.048081-0.0051 0.039871 0.41914-0.048081 0.0051-0.0043-0.04525q-0.01259 0.02853-0.034591 0.04417-0.02177 0.01535-0.054161 0.01875-0.053041 0.0056-0.090642-0.03454-0.037341-0.04015-0.044101-0.11126-0.0068-0.07111 0.02227-0.11823 0.029301-0.04715 0.082342-0.05273 0.032401-0.0034 0.056651 0.0074 0.024481 0.01049 0.042201 0.03583zm-0.15381 0.12254q0.0052 0.05468 0.029861 0.08365 0.024891 0.02867 0.063041 0.02466 0.038151-4e-3 0.057151-0.03729 0.01897-0.03355 0.01377-0.08823t-0.030101-0.08335q-0.02492-0.02894-0.063071-0.02493-0.038151 4e-3 -0.057121 0.03756-0.01874 0.03326-0.01354 0.08794z"/>
    <path d="m3.7434 11.094 0.048081-0.0051 0.039871 0.41914-0.048081 0.0051z"/>
    <path d="m3.9034 11.196 0.048081-0.0051 0.028701 0.3017-0.048081 0.0051zm-0.01117-0.11744 0.048081-0.0051 6e-3 0.06276-0.048081 0.0051z"/>
    <path d="m4.1884 11.047 0.0039 0.04121-0.045991 0.0048q-0.02587 0.0027-0.035031 0.01457-0.0089 0.01182-0.0062 0.03983l0.0025 0.02667 0.079172-0.0083 0.0037 0.03852-0.079172 0.0083 0.025041 0.26318-0.048341 0.0051-0.02504-0.26318-0.045991 0.0048-0.0037-0.03852 0.045991-0.0048-2e-3 -0.02101q-0.0048-0.05037 0.01576-0.07566 0.02053-0.02556 0.069911-0.03075l0.045461-0.0048z"/>
    <path d="m4.5034 11.272 0.0023 0.02424-0.22105 0.02324q8e-3 0.05085 0.037221 0.07498 0.029451 0.02384 0.077272 0.01881 0.027701-0.0029 0.052901-0.01264 0.025461-0.0098 0.049741-0.02645l0.0045 0.04687q-0.02479 0.01404-0.051401 0.02282-0.02661 0.0088-0.054571 0.01172-0.070031 0.0074-0.11505-0.03035-0.044761-0.03774-0.051571-0.10938-7e-3 -0.07407 0.027501-0.12151 0.034781-0.04773 0.10063-0.05465 0.059051-0.0062 0.097022 0.02952 0.038201 0.03543 0.044611 0.10277zm-0.049461-0.0095q-0.0044-0.04062-0.028391-0.06258-0.02373-0.02199-0.059271-0.01825-0.040241 0.0042-0.062311 0.03022-0.02181 0.02596-0.02142 0.06891l0.17139-0.01825z"/>
    <path d="m4.5974 11.358 0.055131-0.0058 0.0065 0.06842-0.055131 0.0058z"/>
    <path d="m5.0415 11.381-0.18719-0.38651 0.055131-0.0058 0.1558 0.3256 0.091652-0.35161 0.054871-0.0058-0.11042 0.41779z"/>
    <path d="m5.3505 11.079q-0.038671 0.0041-0.058171 0.03767-0.01952 0.03334-0.01437 0.08748 0.0052 0.05414 0.030331 0.08305 0.025421 0.02861 0.064351 0.02452 0.038411-4e-3 0.057911-0.03765 0.0195-0.03361 0.01437-0.08748-0.0051-0.0536-0.030541-0.08249-0.02547-0.02915-0.063881-0.02512zm-4e-3 -0.04202q0.062711-0.0066 0.1025 0.03167 0.039791 0.03826 0.046871 0.1126 7e-3 0.07408-0.02473 0.12013-0.031801 0.04578-0.094512 0.05238-0.062971 0.0066-0.10276-0.03164-0.039561-0.03855-0.046611-0.11263-0.0071-0.07434 0.02447-0.1201 0.031801-0.04578 0.094772-0.0524z"/>
    <path d="m5.5495 10.904 0.048081-0.0051 0.039871 0.41914-0.048081 0.0051z"/>
    <path d="m5.7215 11.189-0.01737-0.18263 0.048081-0.0051 0.01719 0.18074q0.0041 0.04283 0.02232 0.06267 0.01822 0.01958 0.050621 0.01617 0.038931-0.0041 0.058971-0.03205 0.0203-0.02798 0.0161-0.07215l-0.01627-0.17105 0.048081-0.0051 0.028701 0.3017-0.048081 0.0051-0.0044-0.04633q-0.01489 0.02931-0.036871 0.04523-0.02174 0.01562-0.052311 0.01883-0.050431 0.0053-0.079632-0.02428-0.0292-0.02958-0.035121-0.0918z"/>
    <path d="m6.3035 11.064 0.01732 0.18209-0.048081 0.0051-0.01717-0.18047q-0.0041-0.04283-0.022301-0.06241-0.01822-0.01958-0.050621-0.01617-0.038931 0.0041-0.058971 0.03205t-0.01583 0.07213l0.01622 0.17051-0.048341 0.0051-0.0287-0.3017 0.048341-0.0051 0.0045 0.04687q0.01466-0.02902 0.036631-0.04493 0.02224-0.01594 0.052811-0.01915 0.050431-0.0053 0.079372 0.0243 0.028921 0.02933 0.034861 0.09183z"/>
    <path d="m6.4285 10.844 0.0081 0.08566 0.099032-0.01041 0.0037 0.03852-0.099032 0.01041 0.01558 0.16377q0.0035 0.0369 0.01418 0.04639 0.01093 0.0095 0.040981 0.0063l0.049381-0.0052 0.0039 0.04148-0.049381 0.0052q-0.055661 0.0059-0.078842-0.0132-0.02322-0.01933-0.0286-0.07589l-0.01558-0.16377-0.035271 0.0037-0.0037-0.03852 0.035271-0.0037-0.0081-0.08566 0.048341-0.0051z"/>
    <path d="m6.8625 11.024 0.0023 0.02424-0.22105 0.02324q8e-3 0.05085 0.037221 0.07498 0.029451 0.02384 0.077272 0.01881 0.0277-0.0029 0.052901-0.01264 0.02546-0.0098 0.049741-0.02645l0.0045 0.04687q-0.02479 0.01404-0.051401 0.02282-0.02661 0.0088-0.054571 0.01172-0.070031 0.0074-0.11505-0.03035-0.044761-0.03774-0.051571-0.10938-7e-3 -0.07407 0.027501-0.12151 0.034781-0.04773 0.10063-0.05465 0.059051-0.0062 0.097022 0.02952 0.038211 0.03543 0.044611 0.10277zm-0.049461-0.0095q-0.0044-0.04062-0.028381-0.06258-0.023731-0.02199-0.059271-0.01825-0.040241 0.0042-0.062311 0.03022-0.02181 0.02596-0.02142 0.06891l0.17138-0.01825z"/>
    <path d="m7.1915 10.989 0.0023 0.02424-0.22105 0.02324q8e-3 0.05085 0.037221 0.07498 0.029451 0.02384 0.077272 0.01881 0.0277-0.0029 0.052901-0.01264 0.025461-0.0098 0.049741-0.02645l0.0045 0.04687q-0.02479 0.01404-0.051401 0.02282-0.026611 0.0088-0.054571 0.01172-0.070031 0.0074-0.11505-0.03035-0.044761-0.03773-0.051571-0.10938-7e-3 -0.07407 0.027501-0.12151 0.034781-0.04773 0.10063-0.05465 0.059051-0.0062 0.097022 0.02952 0.038211 0.03543 0.044611 0.10277zm-0.049461-0.0095q-0.0044-0.04062-0.02839-0.06258-0.023731-0.02199-0.059271-0.01825-0.040241 0.0042-0.062311 0.03022-0.02181 0.02596-0.02142 0.06891l0.17138-0.01825z"/>
    <path d="m7.4315 10.872q-0.0086-4e-3 -0.01843-0.0051-0.0096-0.0014-0.02113-2.22e-4 -0.040761 0.0043-0.060101 0.03407-0.0191 0.02949-0.01423 0.08066l0.01512 0.15893-0.048341 0.0051-0.028701-0.3017 0.048341-0.0051 0.0045 0.04687q0.01254-0.02907 0.035591-0.04482 0.023021-0.01602 0.057771-0.01967 5e-3 -5.3e-4 0.01105-3.44e-4 0.0061-5.9e-5 0.01351 4.76e-4l0.0051 0.05088z"/>
    <path d="m7.6655 10.809 0.0045 0.04687q-0.02141-0.0086-0.043871-0.01171-0.022461-0.0031-0.045981-6.08e-4 -0.035801 0.0038-0.052751 0.01697-0.01669 0.01318-0.01454 0.03581 0.0016 0.01724 0.01539 0.02586 0.01373 0.0084 0.053241 0.01317l0.01682 2e-3q0.052291 0.0059 0.075692 0.02442 0.02364 0.01819 0.027151 0.05509 4e-3 0.04202-0.026071 0.06994-0.02981 0.02789-0.086252 0.03382-0.02352 0.0025-0.049591 3.18e-4 -0.02578-0.0019-0.054901-0.0084l-0.0049-0.05118q0.02801 0.01148 0.054571 0.01603 0.02653 0.0043 0.051881 0.0016 0.033971-0.0036 0.051131-0.01735 0.01714-0.01404 0.01506-0.03586-0.0019-0.0202-0.01627-0.02958-0.01409-0.0094-0.059721-0.01467l-0.01711-0.0023q-0.045601-5e-3 -0.067361-0.02284-0.02178-0.01811-0.025111-0.05313-4e-3 -0.04256 0.023011-0.0688 0.02706-0.02624 0.080892-0.0319 0.026651-0.0028 0.050551-0.0012t0.044531 0.0076z"/>
    <path d="m8.0745 10.908q-0.058271 0.0061-0.079432 0.02222-0.02116 0.0161-0.01801 0.04923 0.0025 0.0264 0.02072 0.04026 0.01844 0.01357 0.047451 0.01052 0.039981-0.0042 0.061251-0.03582 0.02151-0.03192 0.0169-0.0804l-0.0011-0.01104-0.047821 5e-3zm0.093952-0.03055 0.01637 0.17212-0.048081 0.0051-0.0044-0.04579q-0.01385 0.0292-0.037151 0.04499-0.02333 0.01551-0.058871 0.01925-0.044941 0.0047-0.074051-0.01833-0.028881-0.02335-0.033031-0.06699-0.0048-0.05091 0.025621-0.08023 0.030721-0.02935 0.096312-0.03624l0.067411-0.0071-4.5e-4 -0.0049q-0.0033-0.03421-0.026971-0.05049-0.02348-0.01657-0.062941-0.01243-0.025091 0.0026-0.048271 0.01133-0.02319 0.0087-0.043961 0.02339l-0.0044-0.04579q0.025391-0.01328 0.049731-0.02101 0.02431-8e-3 0.047831-0.01047 0.063491-0.0067 0.098082 0.02397 0.034581 0.03064 0.041141 0.0996z"/>
    <path d="m8.2445 10.621 0.048081-0.0051 0.039871 0.41914-0.048081 0.0051z"/>
    <path d="m8.5205 10.746q-0.038671 0.0041-0.058171 0.03767-0.01952 0.03334-0.01438 0.08748 0.0051 0.05414 0.030331 0.08305 0.02542 0.02861 0.064351 0.02452 0.038411-4e-3 0.057911-0.03765 0.0195-0.03361 0.01437-0.08748-0.0051-0.0536-0.030541-0.08249-0.02547-0.02915-0.063881-0.02511zm-4e-3 -0.04202q0.062711-0.0066 0.1025 0.03167 0.039791 0.03826 0.046871 0.1126 7e-3 0.07408-0.024731 0.12013-0.031801 0.04578-0.094512 0.05238-0.062971 0.0066-0.10277-0.03164-0.039561-0.03855-0.046601-0.11263-0.0071-0.07434 0.02447-0.1201 0.031801-0.04578 0.094772-0.0524z"/>
    <path d="m8.9855 10.782 0.01732 0.18209-0.048081 0.0051-0.01717-0.18047q-0.0041-0.04283-0.0223-0.06241-0.01822-0.01958-0.050621-0.01617-0.038931 0.0041-0.058971 0.03205t-0.01584 0.07213l0.01622 0.17051-0.048341 0.0051-0.028701-0.30168 0.048341-0.0051 0.0045 0.04687q0.01466-0.02902 0.036631-0.04493 0.02223-0.01594 0.052811-0.01915 0.050431-0.0053 0.079372 0.0243 0.02892 0.02933 0.034861 0.09183z"/>
    <path d="m9.2775 10.779q-0.0051-0.05387-0.029631-0.08122-0.02424-0.02738-0.063181-0.02328-0.038671 0.0041-0.057541 0.03598-0.01861 0.03188-0.01348 0.08575 0.0051 0.0536 0.029341 0.08098 0.02451 0.02735 0.063181 0.02328 0.038931-0.0041 0.057541-0.03598 0.01887-0.03191 0.01377-0.08551zm0.059201 0.11185q0.0073 0.07704-0.02229 0.11797-0.029601 0.0412-0.098062 0.04839-0.02534 0.0027-0.048201 9.79e-4 -0.02283-0.0014-0.044761-0.0073l-0.0046-0.04822q0.02229 0.0096 0.043471 0.01311 0.02118 0.0035 0.042611 0.0012 0.047291-5e-3 0.068381-0.03303 0.02111-0.02779 0.01621-0.07924l-0.0023-0.02451q-0.01236 0.02823-0.034361 0.04388-0.022 0.01564-0.054401 0.01905-0.053831 0.0057-0.090772-0.03317-0.036951-0.03883-0.043581-0.10859-0.0067-0.07003 0.02224-0.11578 0.028901-0.04575 0.082732-0.05141 0.032401-0.0034 0.056911 0.0073 0.02451 0.01075 0.041941 0.03585l-0.0044-0.04579 0.048081-0.0051 0.02513 0.26426z"/>
    <path d="m9.6145 10.503 0.0081 0.08566 0.099032-0.01041 0.0037 0.03852-0.099032 0.01041 0.01558 0.16378q0.0035 0.0369 0.01418 0.04639 0.01093 0.0095 0.040981 0.0063l0.049381-0.0052 0.0039 0.04148-0.049391 0.0052q-0.055651 0.0059-0.078842-0.0132-0.023221-0.01932-0.028601-0.07589l-0.01558-0.16378-0.035271 0.0037-0.0037-0.03852 0.035271-0.0037-0.0081-0.08566 0.048341-0.0051z"/>
    <path d="m10.04 10.666 0.01732 0.18209-0.04808 0.0051-0.01717-0.18047q-0.0041-0.04283-0.022301-0.06241-0.01823-0.01958-0.050621-0.01617-0.038931 0.0041-0.058971 0.03205t-0.01583 0.07213l0.01622 0.17051-0.048341 0.0051-0.039871-0.41914 0.048341-0.0051 0.01563 0.16432q0.01466-0.02902 0.036631-0.04493 0.02224-0.01594 0.052811-0.01915 0.050431-0.0053 0.079372 0.0243 0.02892 0.02933 0.03486 0.09183z"/>
    <path d="m10.389 10.648 0.0023 0.02424-0.22105 0.02324q8e-3 0.05085 0.03722 0.07498 0.02945 0.02384 0.07727 0.01881 0.0277-0.0029 0.0529-0.01264 0.02546-0.0098 0.04974-0.02645l0.0045 0.04687q-0.02479 0.01404-0.0514 0.02281-0.02661 0.0088-0.05457 0.01172-0.07003 0.0074-0.11505-0.03035-0.04476-0.03774-0.05157-0.10938-7e-3 -0.07407 0.0275-0.12151 0.03478-0.04773 0.10063-0.05465 0.05905-0.0062 0.09702 0.02952 0.03821 0.03543 0.04461 0.10277zm-0.04946-0.0095q-0.0044-0.04062-0.02838-0.06258-0.02373-0.02199-0.05927-0.01825-0.04024 0.0042-0.06231 0.03022-0.02181 0.02596-0.02142 0.0689l0.17138-0.01825z"/>
    <path d="m10.597 10.487 0.04808-0.0051 0.08249 0.2291 0.03744-0.24172 0.0567-6e-3 0.08249 0.2291 0.03744-0.24172 0.04808-0.0051-0.04786 0.30974-0.0567 6e-3 -0.08649-0.24066-0.03971 0.25392-0.0567 6e-3z"/>
    <path d="m11.21 10.573q-0.05827 0.0061-0.07943 0.02223-0.02116 0.0161-0.01801 0.04923 0.0025 0.0264 0.02072 0.04026 0.01844 0.01357 0.04745 0.01052 0.03998-0.0042 0.06125-0.03582 0.02151-0.03192 0.0169-0.0804l-0.0011-0.01104-0.04782 5e-3zm0.09395-0.03055 0.01637 0.17212-0.04808 0.0051-0.0044-0.04579q-0.01385 0.02921-0.03715 0.04499-0.02333 0.01551-0.05887 0.01925-0.04494 0.0047-0.07406-0.01833-0.02888-0.02335-0.03303-0.06699-0.0048-0.05091 0.02562-0.08023 0.03073-0.02935 0.09631-0.03624l0.06741-0.0071-4.49e-4 -0.0048q-0.0033-0.03421-0.02697-0.05049-0.02348-0.01657-0.06294-0.01243-0.02508 0.0026-0.04827 0.01133-0.02319 0.0087-0.04396 0.02339l-0.0044-0.04579q0.02539-0.01328 0.04973-0.02101 0.02431-8e-3 0.04783-0.01047 0.06349-0.0067 0.09808 0.02397 0.03458 0.03064 0.04114 0.0996z"/>
    <path d="m11.544 10.72q-0.01526 0.05601-0.03303 0.07448-0.01777 0.01846-0.05017 0.02187l-0.03841 4e-3 -0.0039-0.04148 0.02822-3e-3q0.01986-0.0021 0.02991-0.01294 0.01005-0.01085 0.01994-0.04835l0.0065-0.02353-0.1466-0.2844 0.05095-0.0054 0.1139 0.22635 0.06901-0.24558 0.05095-0.0054-0.0972 0.34322z"/>
   </g>
  </g>
  <path d="m14.492 4.5906s0.05148 2.96-2.5612 4.3663c-2.1586 1.1619 0.90254 2.5857-5.6347 4.903 8.5105-2.4758 8.2635-9.2355 8.2635-9.2355z" fill="url(#linearGradient938-5)" stroke-width=".96158"/>
  <path d="m12.923-0.91355c-0.07738-0.0069-0.1562-0.0061-0.23652 3e-3l-11.585 1.3078c-0.64252 0.072551-1.1011 0.64842-1.0286 1.2909l0.18087 1.6005 13.904-1.5701-0.18087-1.6005c-0.06348-0.5622-0.5123-0.9836-1.0539-1.0316z" fill="url(#linearGradient1206)" stroke-width=".96158"/>
  <path d="m14.493 4.6426s-0.18137 3.0077-2.4097 4.2397c-2.5636 1.4174 0.93318 2.6842-5.8205 4.9778" fill="none" stroke="#fafafa" stroke-width=".1272"/>
  <path d="m1.279 12.464" fill="none" stroke="#000" stroke-width=".25442px"/>
 </g>
</svg>
