<?xml version="1.0" encoding="UTF-8"?>
<svg width="64" height="64" version="1.1" viewBox="0 0 16.933 16.933" xmlns="http://www.w3.org/2000/svg" xmlns:cc="http://creativecommons.org/ns#" xmlns:dc="http://purl.org/dc/elements/1.1/" xmlns:rdf="http://www.w3.org/1999/02/22-rdf-syntax-ns#" xmlns:xlink="http://www.w3.org/1999/xlink">
 <defs>
  <filter id="filter1066" x="-.063923" y="-.056531" width="1.1278" height="1.1131" color-interpolation-filters="sRGB">
   <feGaussianBlur stdDeviation="0.22705935"/>
  </filter>
  <filter id="filter1100" x="-.12197" y="-.11848" width="1.2439" height="1.237" color-interpolation-filters="sRGB">
   <feGaussianBlur stdDeviation="0.47586465"/>
  </filter>
  <linearGradient id="linearGradient1276" x1="-223.57" x2="-227.23" y1="236.07" y2="258.84" gradientTransform="matrix(.040667 0 0 .040667 18.82 18.423)" gradientUnits="userSpaceOnUse">
   <stop stop-color="#a8c5da" offset="0"/>
   <stop stop-color="#dfe6ee" offset="1"/>
  </linearGradient>
  <linearGradient id="linearGradient1208" x1="-905.43" x2="-844.88" y1="649.29" y2="649.29" gradientTransform="matrix(.010393 -.0027849 .0027849 .010393 22.947 12.924)" gradientUnits="userSpaceOnUse">
   <stop stop-color="#dbe7f3" offset="0"/>
   <stop stop-color="#9ba7af" offset="1"/>
  </linearGradient>
  <linearGradient id="linearGradient1216" x1="-170.16" x2="-161.92" y1="-33.742" y2="-96.1" gradientTransform="matrix(.039281 -.010525 -.010525 -.039281 22.947 12.924)" gradientUnits="userSpaceOnUse">
   <stop stop-color="#0099fb" stop-opacity=".99216" offset="0"/>
   <stop stop-color="#4ecafe" stop-opacity=".97255" offset="1"/>
  </linearGradient>
  <linearGradient id="linearGradient938" x1="80.368" x2="82.141" y1="13.177" y2="14.704" gradientTransform="matrix(.96156 0 0 .96156 -58.813 10.725)" gradientUnits="userSpaceOnUse">
   <stop stop-color="#fafafa" offset="0"/>
   <stop stop-color="#90a0b3" offset="1"/>
  </linearGradient>
 </defs>
 <metadata>
  <rdf:RDF>
   <cc:Work rdf:about="">
    <dc:format>image/svg+xml</dc:format>
    <dc:type rdf:resource="http://purl.org/dc/dcmitype/StillImage"/>
    <dc:title/>
   </cc:Work>
  </rdf:RDF>
 </metadata>
 <g transform="translate(-6.4634 -12.417)">
  <rect transform="rotate(-6.4422)" x="5.4669" y="15.165" width="13.992" height="13.992" ry="1.1671" fill="#f3f3f3" stroke-width=".96156"/>
  <path transform="matrix(1.0331 0 0 .96964 -38.02 9.3511)" d="m57.818 9.8288s0.05354 3.0782-2.6636 4.5408c-2.2449 1.2084 0.9386 2.689-5.8599 5.0989 8.8505-2.5748 8.5235-9.6396 8.5235-9.6396z" fill="#141414" filter="url(#filter1066)" opacity=".3"/>
  <path transform="matrix(.8359 0 0 .91429 -27.196 9.3798)" d="m57.594 9.7322c-0.15355 5.725-5.0519 8.6864-8.5234 9.6397l8.2859-0.93608c0.6682-0.07545 1.1451-0.67434 1.0697-1.3425z" fill="#9cb8d7" filter="url(#filter1100)" opacity=".2"/>
  <path transform="matrix(1.0038 0 0 .93538 -36.285 9.8018)" d="m57.818 9.8288s0.05354 3.0782-2.6636 4.5408c-2.2449 1.2084 0.9386 2.689-5.8599 5.0989 8.8505-2.5748 8.5235-9.6396 8.5235-9.6396z" fill="#141414" filter="url(#filter1066)" opacity=".3"/>
  <path d="m20.124 13.014c-0.07737-0.0069-0.1567-0.0061-0.23701 3e-3l-11.585 1.3083c-0.64251 0.07255-1.1015 0.64791-1.029 1.2904l1.3083 11.585c0.072549 0.64251 0.64791 1.1011 1.2904 1.0286l3.6229-0.40894c3.3379-0.91806 8.0432-3.7658 8.1908-9.268l0.8 7.0782-1.3078-11.585c-0.06348-0.56219-0.51229-0.98406-1.0538-1.032z" fill="#fafafa" stroke-width=".96156"/>
  <g>
   <path d="m18.442 24.457c0.09847 0.36749-0.71479 0.9047-1.8165 1.1999-1.1017 0.29519-2.0746 0.23659-2.1731-0.1309-0.0098-0.03644-0.06312-0.19012-0.05556-0.22949 0.06866-0.35772 0.8796-0.70448 1.872-0.9704 0.9955-0.26674 1.8846-0.40269 2.103-0.11151 0.02446 0.03261 0.0606 0.207 0.07009 0.24241z" fill="#698fac"/>
   <ellipse transform="rotate(-15)" cx="9.4186" cy="28.182" rx="2.0651" ry=".68887" fill="url(#linearGradient1276)"/>
   <path d="m14.641 19.567 1.3804 5.1517 0.0011-2.91e-4a0.10866 0.32509 75 0 0 0.34079 0.01725 0.10866 0.32509 75 0 0 0.28632-0.18528l0.0012-3.44e-4 -1.3804-5.1517z" fill="url(#linearGradient1208)" stroke="#698fac" stroke-width=".014749"/>
   <path d="m11.081 21.123 8.0752-2.1638c0.09459-0.02535 0.12954-0.11117 0.10412-0.2109l-0.0398-0.15605-1.5278-3.0199c-0.0442-0.08739-0.13119-0.14233-0.22579-0.11703l-6.6801 1.786c-0.09461 0.0253-0.14999 0.09655-0.14542 0.16995l0.17591 3.421 0.04715 0.16577c0.02681 0.09419 0.1219 0.15034 0.2165 0.125z" fill="#045389"/>
   <path d="m11.031 20.936 8.0752-2.1638c0.09459-0.02535 0.14746-0.12309 0.10412-0.2109l-1.5676-3.1759c-0.04334-0.08782-0.13119-0.14232-0.2258-0.11703l-6.6801 1.786c-0.09461 0.0253-0.14999 0.09655-0.14542 0.16994l0.22308 3.5867c0.0061 0.09774 0.1219 0.15034 0.2165 0.12499z" fill="url(#linearGradient1216)"/>
   <path d="m11.812 17.374 4.8171-1.292 0.97987 2.3628-5.4685 1.4653z" opacity=".25"/>
   <path d="m11.801 17.332 4.8171-1.292 0.97987 2.3628-5.4685 1.4653z" fill="#fcfcfc"/>
   <path d="m11.018 20.581 7.9016-2.1172 0.0026 0.12272-7.8458 2.1023z" fill="#004d84"/>
   <path d="m11.006 20.468 0.01157 0.11288 7.9016-2.1172-0.03911-0.10998z" fill="#81e3fc"/>
  </g>
  <path d="m12.179 17.82 4.2835-1.1478-0.0028-0.01051" fill="none" stroke="#000" stroke-width=".014749"/>
  <g>
   <g>
    <ellipse transform="rotate(-15)" cx="9.9159" cy="20.713" rx=".12009" ry=".078778" fill="#26b1f6"/>
    <ellipse transform="rotate(-15)" cx="9.9207" cy="20.969" rx=".12009" ry=".078778" fill="#e785f8"/>
    <ellipse transform="rotate(-15)" cx="9.9268" cy="21.228" rx=".12009" ry=".078778" fill="#fc5353"/>
    <ellipse transform="rotate(-15)" cx="9.938" cy="21.505" rx=".12675" ry=".083147" fill="#ffe244"/>
    <ellipse transform="rotate(-15)" cx="9.9449" cy="21.791" rx=".13052" ry=".085619" fill="#90e564"/>
   </g>
   <g fill-rule="evenodd">
    <path d="m13.323 17.704a0.72163 1.1142 75 0 0-0.88943 0.98541 0.72163 1.1142 75 0 0 1.263 0.40868 0.72163 1.1142 75 0 0 0.88943-0.98541 0.72163 1.1142 75 0 0-4.5e-4 -0.0014l-1.0746 0.28793-0.18641-0.69569a0.72163 1.1142 75 0 0-0.0016 3.71e-4z" fill="#26b1f6"/>
    <path d="m13.511 18.4-0.58886 0.71002a0.72163 1.1142 75 0 0 0.77446-0.01125 0.72163 1.1142 75 0 0 0.80408-0.53882l-0.71891-0.17206z" fill="#90e564"/>
    <path d="m13.452 17.571 0.18287 0.68096 1.0583-0.28264c-0.0011-0.0069-0.0024-0.01368-0.0038-0.02048-0.09804-0.36588-0.63545-0.53977-1.2003-0.3884-0.01221 0.0036-0.02487 0.0068-0.03701 0.01053z" fill="#e786f9"/>
    <path d="m14.185 17.538-0.54967 0.71354 1.0583-0.28264c-0.0011-0.0069-0.0024-0.01371-0.0038-0.02051-0.05483-0.20462-0.24715-0.34912-0.50479-0.41033z" fill="#fb5352"/>
    <path d="m13.511 18.4 0.6432 0.4977a0.72163 1.1142 75 0 0 0.43181-0.78433 0.72163 1.1142 75 0 0-4.5e-4 -0.0014z" fill="#ffe244"/>
   </g>
  </g>
  <g fill="#808080">
   <path d="m15.246 17.277 0.01453-0.0039 0.02121 0.07915-0.01453 0.0039z"/>
   <path d="m15.368 17.291 0.0096 0.03584-0.01323 0.0035-0.0095-0.03552q-0.0022-0.0084-0.0078-0.01142-0.0056-3e-3 -0.0145-6.08e-4 -0.01072 0.0029-0.01556 0.0096-0.0048 0.0067-0.0025 0.01539l9e-3 0.03356-0.01331 0.0036-0.01591-0.05937 0.01331-0.0036 0.0025 0.0092q0.0033-0.0066 9e-3 -0.01099 0.0058-0.0044 0.01418-0.0066 0.01388-0.0037 0.02271 7.41e-4 0.0088 0.0044 0.01211 0.0167z"/>
   <path d="m15.423 17.226 0.0022 0.0081-0.01266 0.0034q-0.0071 0.0019-0.0094 0.0048-0.0022 0.0029-6.88e-4 0.0084l0.0014 0.0052 0.02179-0.0058 2e-3 0.0076-0.02179 0.0058 0.01388 0.05179-0.01331 0.0036-0.01388-0.05179-0.01266 0.0034-2e-3 -0.0076 0.01266-0.0034-0.0011-0.0041q-0.0027-0.0099 0.0024-0.0161 5e-3 -0.0062 0.01863-0.0099z"/>
   <path d="m15.44 17.247 0.01323-0.0035 0.01591 0.05937-0.01323 0.0035zm-0.0062-0.02311 0.01323-0.0035 0.0033 0.01235-0.01323 0.0035z"/>
   <path d="m15.554 17.241 0.0096 0.03584-0.01323 0.0035-0.0095-0.03552q-0.0022-0.0084-0.0078-0.01142-0.0056-3e-3 -0.0145-6.08e-4 -0.01072 0.0029-0.01555 0.0096-0.0048 0.0067-0.0025 0.01539l9e-3 0.03356-0.01331 0.0036-0.01591-0.05937 0.01331-0.0036 0.0025 0.0092q0.0033-0.0066 9e-3 -0.01099 0.0058-0.0044 0.01418-0.0066 0.01388-0.0037 0.02271 7.41e-4 0.0088 0.0044 0.01211 0.0167z"/>
   <path d="m15.574 17.211 0.01323-0.0035 0.01591 0.05937-0.01323 0.0035zm-0.0062-0.02311 0.01323-0.0035 0.0033 0.01235-0.01323 0.0035z"/>
   <path d="m15.624 17.179 0.0045 0.01686 0.02726-0.0073 2e-3 0.0076-0.02726 0.0073 0.0086 0.03223q2e-3 0.0073 0.0052 0.0086 0.0033 0.0013 0.01156-8.73e-4l0.01359-0.0036 0.0022 0.0082-0.01359 0.0036q-0.01532 0.0041-0.02227 0.0015-7e-3 -0.0027-0.0099-0.01381l-0.0086-0.03223-0.0097 0.0026-2e-3 -0.0076 0.0097-0.0026-0.0045-0.01686z"/>
   <path d="m15.749 17.193 0.0013 0.0048-0.06085 0.01631q0.0036 0.0098 0.01232 0.01318 0.0088 0.0033 0.02198-2.65e-4 0.0076-2e-3 0.01438-0.0053 0.0068-0.0033 0.01313-8e-3l0.0025 0.0092q-0.0065 0.0041-0.01369 0.0073-0.0072 0.0032-0.01487 0.0052-0.01928 0.0052-0.03279-7.8e-5 -0.01344-0.0053-0.01722-0.01937-0.0039-0.01458 0.0045-0.02597 0.0084-0.01146 0.02654-0.01632 0.01626-0.0044 0.02775 8.46e-4 0.01155 0.0051 0.01511 0.0184zm-0.014 6.88e-4q-0.0023-8e-3 -0.0095-0.01114-0.0072-0.0032-0.01696-5.82e-4 -0.01108 3e-3 -0.01653 0.0094-0.0054 0.0064-0.0041 0.01503z"/>
   <path d="m15.806 17.127 0.01453-0.0039 0.01879 0.07013 0.05229-0.01401 0.0024 9e-3 -0.06682 0.0179z"/>
   <path d="m15.923 17.124q-0.01065 0.0029-0.01518 0.01066-0.0046 0.0078-0.0017 0.01841 0.0029 0.01065 0.01062 0.01517 0.0078 0.0044 0.01854 0.0016 0.01057-0.0028 0.01511-0.01064 0.0045-0.0078 0.0017-0.01841-0.0028-0.01055-0.01066-0.01504-0.0078-0.0045-0.01842-0.0017zm-0.0022-0.0083q0.01726-0.0046 0.02933 1e-3t0.01599 0.02026q0.0039 0.01458-0.0037 0.02554-0.0076 0.01091-0.0249 0.01554-0.01733 0.0046-0.02941-9.79e-4 -0.01201-0.0057-0.01592-0.02028-0.0039-0.01463 0.0036-0.02552 0.0076-0.01091 0.02497-0.01555z"/>
   <path d="m16.013 17.1q-0.01065 0.0029-0.01518 0.01066-0.0046 0.0078-0.0017 0.01841 0.0029 0.01065 0.01062 0.01517 0.0078 0.0044 0.01854 0.0016 0.01057-0.0028 0.01511-0.01064 0.0045-0.0078 0.0017-0.01841-0.0028-0.01055-0.01066-0.01504-0.0078-0.0045-0.01842-0.0017zm-0.0022-0.0083q0.01726-0.0046 0.02933 1e-3t0.01599 0.02026q0.0039 0.01458-0.0037 0.02554-0.0076 0.01091-0.0249 0.01554-0.01733 0.0046-0.02941-9.79e-4 -0.01201-0.0057-0.01592-0.02028-0.0039-0.01463 0.0036-0.02552 0.0076-0.01091 0.02497-0.01555z"/>
   <path d="m16.097 17.125 0.0084 0.03149-0.01331 0.0036-0.02196-0.08196 0.01331-0.0036 0.0024 9e-3q0.0028-0.0064 0.0084-0.01066 0.0057-0.0043 0.01455-0.0067 0.01467-0.0039 0.02611 0.0022 0.01151 0.0061 0.01526 0.02012 0.0038 0.01399-0.0032 0.02505-0.0068 0.01103-0.02151 0.01497-0.0088 0.0024-0.01593 0.0015-7e-3 -9e-4 -0.01262-0.0051zm0.03947-0.03279q-0.0029-0.01076-0.01056-0.01524-0.0076-0.0046-0.01812-0.0017-0.0105 0.0028-0.0149 0.01058-0.0043 0.0077-0.0015 0.01846 0.0029 0.01076 0.0105 0.01531 0.0077 0.0045 0.01818 0.0017 0.0105-0.0028 0.01484-0.01051 0.0044-0.0078 0.0015-0.01853z"/>
   <path d="m15.319 17.529 0.02165-0.0058 0.04184 0.04652 0.01312-0.06124 0.02165-0.0058 0.02121 0.07915-0.01417 0.0038-0.01862-0.0695-0.01315 0.0617-0.0146 0.0039-0.04224-0.04686 0.01862 0.0695-0.0141 0.0038z"/>
   <path d="m15.495 17.534q-0.01604 0.0043-0.0215 0.0087-0.0055 0.0044-0.0037 0.01088 0.0014 0.0052 0.0068 7e-3 0.0055 0.0018 0.01347-3.71e-4 0.011-0.0029 0.01609-0.01045 0.0051-0.0076 0.0026-0.01711l-5.83e-4 -0.0022zm0.02532-0.0111 0.0091 0.03387-0.01323 0.0035-0.0024-9e-3q-0.0031 0.0066-0.0091 0.01103-0.0061 0.0044-0.01586 7e-3 -0.01237 0.0033-0.02107 1.92e-4 -0.0086-0.0032-0.01094-0.01178-0.0027-0.01002 5e-3 -0.01754 0.0078-0.0075 0.02583-0.01238l0.01856-5e-3 -2.56e-4 -9.53e-4q-0.0018-0.0067-0.0088-0.0088t-0.01783 7.94e-4q-0.0069 0.0019-0.01312 0.0048-0.0062 3e-3 -0.01161 7e-3l-0.0024-9e-3q0.0067-4e-3 0.01327-0.0069 0.0065-0.0029 0.01302-0.0046 0.01748-0.0047 0.0279-3.17e-4 0.01042 0.0044 0.01406 0.01794z"/>
   <path d="m15.59 17.487q-0.0025-3.44e-4 -0.0053-6.8e-5 -0.0027 2.17e-4 -0.0059 0.0011-0.01122 3e-3 -0.01581 0.01003-0.0045 7e-3 -0.0018 0.01703l0.0084 0.03128-0.01331 0.0036-0.01591-0.05937 0.01331-0.0036 0.0025 0.0092q0.0027-0.0065 0.0087-0.01091 6e-3 -0.0044 0.01555-7e-3 0.0014-3.71e-4 0.0031-6.62e-4 0.0017-3.44e-4 0.0038-6.08e-4z"/>
   <path d="m15.602 17.474 0.01323-0.0035 0.01591 0.05937-0.01323 0.0035zm-0.0062-0.02311 0.01323-0.0035 0.0033 0.01235-0.01323 0.0035z"/>
   <path d="m15.687 17.483q-0.01604 0.0043-0.0215 0.0087-0.0055 0.0044-0.0037 0.01088 0.0014 0.0052 0.0068 7e-3 0.0055 0.0018 0.01347-3.7e-4 0.011-0.0029 0.01609-0.01045 0.0051-0.0076 0.0026-0.01711l-5.82e-4 -0.0022zm0.02532-0.0111 0.0091 0.03387-0.01323 0.0035-0.0024-9e-3q-0.0031 0.0066-0.0091 0.01103-0.0061 0.0044-0.01586 7e-3 -0.01237 0.0033-0.02107 1.92e-4 -0.0086-0.0032-0.01094-0.01178-0.0027-0.01002 5e-3 -0.01754 0.0078-0.0075 0.02583-0.01238l0.01856-5e-3 -2.56e-4 -9.53e-4q-0.0018-0.0067-0.0088-0.0088t-0.01783 7.94e-4q-0.0069 0.0019-0.01312 0.0048-0.0062 3e-3 -0.01161 7e-3l-0.0024-9e-3q0.0067-4e-3 0.01327-0.0069 0.0065-0.0029 0.01302-0.0046 0.01748-0.0047 0.0279-3.18e-4 0.01042 0.0044 0.01406 0.01794z"/>
   <path d="m15.806 17.445 0.0096 0.03584-0.01323 0.0035-0.0095-0.03552q-0.0022-0.0084-0.0078-0.01142-0.0056-3e-3 -0.0145-6.08e-4 -0.01072 0.0029-0.01556 0.0096-0.0048 0.0067-0.0025 0.01539l9e-3 0.03356-0.01331 0.0036-0.01591-0.05937 0.0133-0.0036 0.0025 0.0092q0.0033-0.0066 9e-3 -0.01099 0.0058-0.0044 0.01418-0.0066 0.01388-0.0037 0.02271 7.41e-4 0.0088 0.0044 0.01211 0.0167z"/>
   <path d="m15.827 17.414 0.01323-0.0035 0.01591 0.05937-0.01323 0.0035zm-0.0062-0.02311 0.01323-0.0035 0.0033 0.01235-0.01323 0.0035z"/>
   <path d="m15.948 17.371-0.0092 0.04467 0.03949-0.01058zm-0.01103-0.0084 0.01647-0.0044 0.06214 0.06818-0.0151 4e-3 -0.01522-0.01768-0.04841 0.01297-0.0043 0.02292-0.01532 0.0041z"/>
   <path d="m15.997 17.368 0.01403-0.0038 0.03853 0.04308 0.01182-0.05658 0.01403-0.0038-0.0143 0.06747-0.01798 0.0048z"/>
   <path d="m16.17 17.351 0.0013 0.0048-0.06085 0.01631q0.0036 0.0098 0.01232 0.01318 0.0088 0.0033 0.02198-2.65e-4 0.0076-2e-3 0.01438-0.0053 0.0068-0.0033 0.01313-8e-3l0.0025 0.0092q-0.0065 0.0041-0.01369 0.0073-0.0072 0.0032-0.01487 0.0052-0.01928 0.0052-0.03279-7.8e-5 -0.01344-0.0053-0.01722-0.01937-0.0039-0.01458 0.0045-0.02597 0.0084-0.01146 0.02654-0.01632 0.01626-0.0044 0.02775 8.46e-4 0.01155 0.0051 0.01511 0.0184zm-0.014 6.88e-4q-0.0023-8e-3 -0.0095-0.01114-0.0072-0.0032-0.01696-5.82e-4 -0.01108 3e-3 -0.01653 0.0094-0.0054 0.0064-0.0041 0.01503z"/>
   <path d="m15.418 17.777 0.01649 0.06155 0.01755-0.0047q0.02223-6e-3 0.03052-0.01613 0.0084-0.0102 0.0041-0.02621-0.0043-0.0159-0.01659-0.0205-0.01227-0.0047-0.0345 0.0013zm-0.01689-0.0049 0.02985-8e-3q0.03122-0.0084 0.04839-0.0027 0.01716 0.0056 0.02261 0.02598 0.0055 0.02046-0.0066 0.03399-0.0121 0.01352-0.04318 0.02185l-0.02985 8e-3z"/>
   <path d="m15.595 17.77 0.0013 0.0048-0.06085 0.01631q0.0036 0.0098 0.01232 0.01318 0.0088 0.0033 0.02198-2.64e-4 0.0076-2e-3 0.01438-0.0053 0.0068-0.0033 0.01313-8e-3l0.0025 0.0092q-0.0065 0.0041-0.01369 0.0073-0.0072 0.0032-0.01486 0.0052-0.01928 0.0052-0.03279-7.9e-5 -0.01344-0.0053-0.01722-0.01937-0.0039-0.01458 0.0045-0.02597 0.0084-0.01146 0.02654-0.01632 0.01626-0.0044 0.02775 8.47e-4 0.01155 0.0051 0.01511 0.0184zm-0.014 6.88e-4q-0.0023-8e-3 -0.0095-0.01114-0.0072-0.0032-0.01696-5.82e-4 -0.01108 3e-3 -0.01653 0.0094-0.0054 0.0064-0.0041 0.01503z"/>
   <path d="m15.69 17.706-0.0092 0.04467 0.03949-0.01058zm-0.01103-0.0084 0.01647-0.0044 0.06214 0.06818-0.01511 4e-3 -0.01522-0.01768-0.04841 0.01297-0.0043 0.02292-0.01532 0.0041z"/>
   <path d="m15.83 17.703 0.0096 0.03584-0.01323 0.0035-0.0095-0.03552q-0.0022-0.0084-0.0078-0.01142-0.0056-3e-3 -0.0145-6.09e-4 -0.01072 0.0029-0.01556 0.0096-0.0048 0.0067-0.0025 0.01539l9e-3 0.03356-0.01331 0.0036-0.01591-0.05937 0.01331-0.0036 0.0025 0.0092q0.0033-0.0066 9e-3 -0.01099 0.0058-0.0044 0.01418-0.0066 0.01388-0.0037 0.02271 7.41e-4 0.0088 0.0044 0.01211 0.0167z"/>
   <path d="m15.845 17.674 0.06287-0.01685 0.0024 0.0089-0.03834 0.05601 0.04978-0.01334 0.0021 0.0078-0.06466 0.01733-0.0024-0.0089 0.03834-0.05601-0.04798 0.01286z"/>
   <path d="m15.972 17.672q-0.01604 0.0043-0.0215 0.0087-0.0055 0.0044-0.0037 0.01088 0.0014 0.0052 0.0068 7e-3 0.0055 0.0018 0.01347-3.7e-4 0.01101-0.0029 0.01609-0.01045 0.0051-0.0076 0.0026-0.01711l-5.82e-4 -0.0022zm0.02532-0.0111 0.0091 0.03387-0.01323 0.0035-0.0024-9e-3q-0.0031 0.0066-0.0091 0.01103-0.0061 0.0044-0.01586 7e-3 -0.01237 0.0033-0.02107 1.92e-4 -0.0086-0.0032-0.01094-0.01178-0.0027-0.01002 5e-3 -0.01754 0.0078-0.0075 0.02583-0.01237l0.01856-5e-3 -2.56e-4 -9.53e-4q-0.0018-0.0067-0.0088-0.0088t-0.01782 7.94e-4q-0.0069 0.0019-0.01312 0.0048-0.0062 3e-3 -0.01161 7e-3l-0.0024-9e-3q0.0067-4e-3 0.01327-0.0069 0.0065-0.0029 0.01302-0.0046 0.01748-0.0047 0.0279-3.18e-4 0.01042 0.0044 0.01406 0.01794z"/>
   <path d="m16.086 17.633 0.0078 0.029 0.0233-0.0062q0.01172-0.0031 0.01638-0.0082 0.0047-0.0051 0.0027-0.0125t-0.0086-0.0094-0.01829 0.0011zm-0.0087-0.03255 0.0064 0.02385 0.02151-0.0058q0.01065-0.0029 0.01505-0.0072 0.0045-0.0044 0.0028-0.01042-0.0016-6e-3 -0.0077-0.0076-6e-3 -0.0016-0.01662 0.0013zm-0.01689-0.0049 0.03712-0.0099q0.01662-0.0045 0.02697-0.0018 0.01036 0.0027 0.01287 0.01206 2e-3 0.0073-0.0015 0.01279-0.0035 0.0055-0.01209 9e-3 0.01117-0.0012 0.01852 0.0027 0.0074 0.0038 0.0096 0.01181 0.0028 0.0106-0.0054 0.019t-0.02629 0.01324l-0.03856 0.01033z"/>
   <path d="m16.16 17.565 0.01323-0.0035 0.0221 0.08248-0.01323 0.0035z"/>
   <path d="m16.197 17.58 0.01403-0.0038 0.03853 0.04308 0.01182-0.05658 0.01403-0.0038-0.0143 0.06747-0.01798 0.0048z"/>
   <path d="m16.35 17.549-0.0086-0.03213 0.01323-0.0035 0.0221 0.08249-0.01323 0.0035-0.0024-0.0089q-0.0028 0.0064-0.0085 0.01073-0.0056 0.0042-0.01457 0.0066-0.0146 0.0039-0.02611-0.0022-0.01144-0.0061-0.01519-0.02013-0.0037-0.01399 0.0031-0.02503 0.0069-0.01106 0.02151-0.01497 0.0089-0.0024 0.01595-0.0015 0.0071 8.21e-4 0.01268 5e-3zm-0.03955 0.03281q0.0029 0.01076 0.0105 0.01531 0.0077 0.0045 0.01818 0.0017 0.0105-0.0028 0.01491-0.01053 0.0044-0.0078 0.0015-0.01853-0.0029-0.01076-0.01056-0.01524-0.0077-0.0045-0.01819-0.0017-0.0105 0.0028-0.0149 0.01058-0.0043 0.0077-0.0015 0.01846z"/>
   <path d="m15.474 18.039 0.09085-0.02434 0.0024 9e-3 -0.03812 0.01022 0.01879 0.07013-0.0146 0.0039-0.01879-0.07013-0.03812 0.01022z"/>
   <path d="m15.603 18.057q-0.01604 0.0043-0.0215 0.0087-0.0055 0.0044-0.0037 0.01088 0.0014 0.0052 0.0068 7e-3 0.0055 0.0018 0.01347-3.7e-4 0.01101-3e-3 0.01609-0.01045 0.0051-0.0076 0.0026-0.01711l-5.82e-4 -0.0022zm0.02532-0.0111 0.0091 0.03387-0.01323 0.0035-0.0024-9e-3q-0.0031 0.0066-0.0091 0.01103-0.0061 0.0044-0.01586 7e-3 -0.01237 0.0033-0.02107 1.92e-4 -0.0086-0.0032-0.01094-0.01178-0.0027-0.01002 5e-3 -0.01754 0.0078-0.0075 0.02583-0.01237l0.01856-5e-3 -2.56e-4 -9.53e-4q-0.0018-0.0067-0.0088-0.0088t-0.01783 7.94e-4q-0.0069 0.0019-0.01312 0.0048-0.0062 3e-3 -0.01161 7e-3l-0.0024-9e-3q0.0067-4e-3 0.01327-0.0069 0.0065-0.0029 0.01302-0.0046 0.01748-0.0047 0.0279-3.17e-4 0.01042 0.0044 0.01406 0.01794z"/>
   <path d="m15.723 18.018 0.0096 0.03584-0.01323 0.0035-0.0095-0.03552q-0.0022-0.0084-0.0078-0.01142-0.0056-3e-3 -0.0145-6.09e-4 -0.01072 0.0029-0.01555 0.0096-0.0048 0.0067-0.0025 0.01539l9e-3 0.03356-0.01331 0.0036-0.01591-0.05937 0.01331-0.0036 0.0025 0.0092q0.0033-0.0066 9e-3 -0.01099 0.0058-0.0044 0.01418-0.0066 0.01388-0.0037 0.02271 7.41e-4 0.0088 0.0044 0.01211 0.0167z"/>
   <path d="m15.751 17.967 0.0045 0.01686 0.02726-0.0073 2e-3 0.0076-0.02726 0.0073 0.0086 0.03223q2e-3 0.0073 0.0052 0.0086 0.0033 0.0013 0.01156-8.73e-4l0.01359-0.0036 0.0022 0.0082-0.01359 0.0036q-0.01532 0.0041-0.02227 0.0015-7e-3 -0.0027-0.0099-0.01381l-0.0086-0.03223-0.0097 0.0026-2e-3 -0.0076 0.0097-0.0026-0.0045-0.01686z"/>
   <path d="m15.845 17.992q-0.01604 0.0043-0.0215 0.0087-0.0055 0.0044-0.0037 0.01088 0.0014 0.0052 0.0068 7e-3 0.0055 0.0018 0.01347-3.71e-4 0.011-3e-3 0.01609-0.01045 0.0051-0.0076 0.0026-0.01711l-5.82e-4 -0.0022zm0.02532-0.0111 0.0091 0.03387-0.01323 0.0035-0.0024-9e-3q-0.0031 0.0066-0.0091 0.01103-0.0061 0.0044-0.01586 7e-3 -0.01237 0.0033-0.02107 1.92e-4 -0.0086-0.0032-0.01094-0.01178-0.0027-0.01002 5e-3 -0.01754 0.0078-0.0075 0.02583-0.01237l0.01856-5e-3 -2.56e-4 -9.53e-4q-0.0018-0.0067-0.0088-0.0088t-0.01783 7.94e-4q-0.0069 0.0019-0.01312 0.0048-0.0062 3e-3 -0.01161 7e-3l-0.0024-9e-3q0.0067-4e-3 0.01327-0.0069 0.0065-0.0029 0.01302-0.0046 0.01748-0.0047 0.0279-3.17e-4 0.01042 0.0044 0.01406 0.01794z"/>
   <path d="m15.899 17.984-0.0096-0.03594 0.01323-0.0035 0.0095 0.03557q0.0022 0.0084 0.0079 0.01147 0.0056 3e-3 0.0145 6.08e-4 0.01072-0.0029 0.01556-0.0096 0.0049-0.0067 0.0026-0.01541l-9e-3 -0.03366 0.01323-0.0035 0.01591 0.05937-0.01323 0.0035-0.0024-0.0091q-0.0034 0.0067-0.0091 0.01106-0.0056 0.0043-0.01405 0.0065-0.01388 0.0037-0.02278-7.14e-4 -0.0089-0.0044-0.01218-0.01668z"/>
   <path d="m16.065 17.891-0.0092 0.04467 0.03949-0.01058zm-0.01103-0.0084 0.01647-0.0044 0.06214 0.06818-0.0151 4e-3 -0.01522-0.01768-0.04841 0.01297-0.0043 0.02292-0.01532 0.0041z"/>
   <path d="m16.114 17.888 0.01403-0.0038 0.03853 0.04308 0.01182-0.05658 0.01403-0.0038-0.0143 0.06747-0.01798 0.0048z"/>
   <path d="m16.287 17.871 0.0013 0.0048-0.06085 0.01631q0.0036 0.0098 0.01232 0.01318 0.0088 0.0033 0.02198-2.64e-4 0.0076-2e-3 0.01438-0.0053 0.0068-0.0033 0.01313-8e-3l0.0025 0.0092q-0.0065 0.0041-0.01369 0.0073-0.0072 0.0032-0.01487 0.0052-0.01928 0.0052-0.03279-7.9e-5 -0.01344-0.0053-0.01722-0.01937-0.0039-0.01458 0.0045-0.02597 0.0084-0.01146 0.02654-0.01632 0.01626-0.0044 0.02775 8.47e-4 0.01155 0.0051 0.0151 0.0184zm-0.014 6.88e-4q-0.0023-8e-3 -0.0095-0.01114-0.0072-0.0032-0.01696-5.82e-4 -0.01108 3e-3 -0.01653 0.0094-0.0054 0.0064-0.0041 0.01503z"/>
   <path d="m15.623 18.383-0.06221-0.06816 0.01518-0.0041 0.05188 0.05752 0.01624-0.07577 0.01511-4e-3 -0.01972 0.09011z"/>
   <path d="m15.713 18.327q-0.01604 0.0043-0.0215 0.0087-0.0055 0.0044-0.0037 0.01088 0.0014 0.0052 0.0068 7e-3 0.0055 0.0018 0.01347-3.7e-4 0.01101-0.0029 0.01609-0.01045 0.0051-0.0076 0.0026-0.01711l-5.82e-4 -0.0022zm0.02532-0.0111 0.0091 0.03387-0.01323 0.0035-0.0024-9e-3q-0.0031 0.0066-0.0091 0.01103-0.0061 0.0044-0.01586 7e-3 -0.01237 0.0033-0.02107 1.92e-4 -0.0086-0.0032-0.01094-0.01178-0.0027-0.01002 5e-3 -0.01754 0.0078-0.0075 0.02583-0.01238l0.01856-5e-3 -2.56e-4 -9.53e-4q-0.0018-0.0067-0.0088-0.0088t-0.01783 7.94e-4q-0.0069 0.0019-0.01312 0.0048-0.0062 3e-3 -0.01161 7e-3l-0.0024-9e-3q0.0067-4e-3 0.01328-0.0069 0.0065-0.0029 0.01302-0.0046 0.01748-0.0047 0.0279-3.18e-4 0.01042 0.0044 0.01406 0.01794z"/>
   <path d="m15.752 18.26 0.01323-0.0035 0.0221 0.08248-0.01323 0.0035z"/>
   <path d="m15.793 18.249 0.01323-0.0035 0.0221 0.08249-0.01323 0.0035z"/>
   <path d="m15.916 18.27 0.0013 0.0048-0.06085 0.01631q0.0036 0.0098 0.01232 0.01318 0.0088 0.0033 0.02198-2.64e-4 0.0076-2e-3 0.01438-0.0053 0.0068-0.0033 0.01313-8e-3l0.0025 0.0092q-0.0065 0.0041-0.01369 0.0073-0.0072 0.0032-0.01487 0.0052-0.01928 0.0052-0.03279-7.8e-5 -0.01344-0.0053-0.01722-0.01937-0.0039-0.01458 0.0045-0.02597 0.0084-0.01146 0.02654-0.01632 0.01626-0.0044 0.02775 8.47e-4 0.01155 0.0051 0.0151 0.01839zm-0.014 6.88e-4q-0.0023-8e-3 -0.0095-0.01114-0.0072-0.0032-0.01696-5.83e-4 -0.01108 3e-3 -0.01653 0.0094-0.0054 0.0064-0.0041 0.01503z"/>
   <path d="m15.982 18.292q-0.0028 0.0121-0.0072 0.01677-0.0045 0.0047-0.01337 0.0071l-0.01057 0.0028-0.0022-0.0082 0.0078-0.0021q0.0055-0.0015 8e-3 -0.0042t0.0043-0.01081l0.0012-0.0051-0.04824-0.04969 0.01403-0.0038 0.03762 0.03969 0.01273-0.05318 0.01402-0.0038z"/>
   <path d="m16.151 18.229-0.0057-0.02126-0.02374 0.0064-0.0024-0.0088 0.03812-0.01021 0.0091 0.03398q-0.0072 0.0067-0.01677 0.01165-0.0095 0.0049-0.02106 8e-3 -0.02518 0.0067-0.04231-2.53e-4 -0.01708-0.0071-0.02227-0.02642-0.0052-0.0194 0.0061-0.03401 0.01133-0.01468 0.03651-0.02143 0.0105-0.0028 0.02044-0.0034 0.01001-6.35e-4 0.01898 9.26e-4l0.0031 0.0114q-0.0094-0.0029-0.01915-3e-3 -0.0097-1.16e-4 -0.01974 0.0026-0.01971 0.0053-0.02746 0.01605-0.0077 0.01075-0.0034 0.02681 0.0043 0.01601 0.01632 0.02148 0.0121 0.0054 0.03181 1.7e-4 0.0077-0.0021 0.01348-0.0046 0.0058-0.0026 0.01004-6e-3z"/>
   <path d="m16.228 18.167q-0.0025-3.44e-4 -0.0053-6.8e-5 -0.0027 2.17e-4 -0.0059 0.0011-0.01122 3e-3 -0.01581 0.01003-0.0045 7e-3 -0.0018 0.01703l0.0084 0.03128-0.01331 0.0036-0.01591-0.05937 0.01331-0.0036 0.0025 0.0092q0.0027-0.0065 0.0087-0.01091 6e-3 -0.0044 0.01555-7e-3 0.0014-3.7e-4 0.0031-6.61e-4 0.0017-3.44e-4 0.0038-6.09e-4z"/>
   <path d="m16.313 18.163 0.0013 0.0048-0.06085 0.01631q0.0036 0.0098 0.01232 0.01318 0.0088 0.0033 0.02198-2.64e-4 0.0076-2e-3 0.01438-0.0053 0.0068-0.0033 0.01313-8e-3l0.0025 0.0092q-0.0065 0.0041-0.01369 0.0073-0.0072 0.0032-0.01486 0.0052-0.01928 0.0052-0.03279-7.9e-5 -0.01344-0.0053-0.01722-0.01937-0.0039-0.01458 0.0045-0.02597 0.0084-0.01146 0.02654-0.01632 0.01626-0.0044 0.02775 8.47e-4 0.01155 0.0051 0.01511 0.01839zm-0.014 6.88e-4q-0.0023-8e-3 -0.0095-0.01114-0.0072-0.0032-0.01696-5.82e-4 -0.01108 3e-3 -0.01653 0.0094-0.0054 0.0064-0.0041 0.01503z"/>
   <path d="m16.404 18.139 0.0013 0.0048-0.06085 0.01631q0.0036 0.0098 0.01232 0.01318 0.0088 0.0033 0.02198-2.64e-4 0.0076-2e-3 0.01438-0.0053 0.0068-0.0033 0.01313-0.0079l0.0025 0.0092q-0.0065 0.0041-0.01369 0.0073-0.0072 0.0032-0.01486 0.0052-0.01928 0.0052-0.03279-7.8e-5 -0.01344-0.0053-0.01722-0.01937-0.0039-0.01458 0.0045-0.02597 0.0084-0.01146 0.02654-0.01632 0.01626-0.0044 0.02775 8.47e-4 0.01155 0.0051 0.01511 0.0184zm-0.014 6.88e-4q-0.0023-8e-3 -0.0095-0.01114-0.0072-0.0032-0.01696-5.82e-4 -0.01108 3e-3 -0.01653 0.0094-0.0054 0.0064-0.0041 0.01503z"/>
   <path d="m16.491 18.111 0.0096 0.03583-0.01323 0.0035-0.0095-0.03552q-0.0022-0.0084-0.0078-0.01142-0.0056-3e-3 -0.0145-6.09e-4 -0.01072 0.0029-0.01555 0.0096-0.0048 0.0067-0.0025 0.01539l9e-3 0.03356-0.01331 0.0036-0.01591-0.05937 0.01331-0.0036 0.0025 0.0092q0.0033-0.0066 9e-3 -0.01099 0.0058-0.0044 0.01418-0.0066 0.01388-0.0037 0.02271 7.41e-4 0.0088 0.0044 0.01211 0.0167z"/>
   <path d="m16.571 18.053 0.01649 0.06155 0.01755-0.0047q0.02223-6e-3 0.03052-0.01614 0.0084-0.0102 0.0041-0.02621-0.0043-0.0159-0.01659-0.0205-0.01227-0.0047-0.0345 0.0013zm-0.01689-0.0049 0.02985-8e-3q0.03122-0.0084 0.04839-0.0027 0.01716 0.0056 0.02261 0.02598 0.0055 0.02046-0.0066 0.03399t-0.04318 0.02185l-0.02985 8e-3z"/>
   <path d="m16.721 18.034q-0.0025-3.7e-4 -0.0053-6.8e-5 -0.0027 2.17e-4 -0.0059 0.0011-0.01122 3e-3 -0.01581 0.01003-0.0045 7e-3 -0.0018 0.01703l0.0084 0.03128-0.01331 0.0036-0.01591-0.05937 0.01331-0.0036 0.0025 0.0092q0.0027-0.0065 0.0087-0.01091 6e-3 -0.0044 0.01555-7e-3 0.0014-3.7e-4 0.0031-6.62e-4 0.0017-3.43e-4 0.0038-6.08e-4z"/>
  </g>
  <g fill="#111">
   <path d="m12.161 17.367 0.05716-0.01532 0.06614 0.24684-0.05716 0.01532z"/>
   <path d="m12.332 17.321 0.08518-0.02283 0.15283 0.13909 0.06338-0.19702 0.08518-0.02282 0.06614 0.24684-0.05575 0.01494-0.05808-0.21675-0.06359 0.19849-0.05745 0.01539-0.15432-0.14011 0.05808 0.21675-0.05547 0.01486z"/>
   <path d="m12.897 17.199 0.02485 0.09275 0.07188-0.01926q0.0399-0.01069 0.05846-0.0286t0.01258-0.04023q-0.0059-0.02215-0.03096-0.02839-0.02502-0.0062-0.06493 0.0045zm-0.06452-0.01213 0.12904-0.03458q0.07103-0.01903 0.1123-0.0099 0.04151 0.0089 0.05121 0.04511 0.0098 0.03654-0.02171 0.065-0.03122 0.02839-0.10225 0.04742l-0.07188 0.01926 0.02658 0.0992-0.05716 0.01532z"/>
   <path d="m13.418 17.17q0.01937-0.0013 0.03982 6e-3 0.02074 0.0072 0.04386 0.02333l0.07609 0.05191-0.06141 0.01645-0.07102-0.04884q-0.02759-0.01919-0.04957-0.02198-0.02169-0.0029-0.05566 0.0062l-0.06226 0.01668 0.02795 0.10432-0.05716 0.01532-0.06614-0.24684 0.12904-0.03458q0.07245-0.01941 0.11284-0.01128 0.0404 0.0081 0.04997 0.04385 0.0062 0.02331-0.0083 0.04369-0.01427 0.0203-0.04805 0.03573zm-0.17097-0.06529 0.02348 0.08763 0.07188-0.01926q0.04132-0.01107 0.05929-0.02776 0.01821-0.01693 0.01241-0.03859t-0.02995-0.02688q-0.02391-0.0055-0.06523 0.0056z"/>
   <path d="m13.585 16.985 0.26715-0.07158 0.0075 0.02811-0.20998 0.05626 0.01958 0.07308 0.20121-0.05391 0.0075 0.02811-0.20121 0.05391 0.02397 0.08944 0.21508-0.05763 0.0075 0.02811-0.27224 0.07295z"/>
   <path d="m14.207 16.827 0.0087 0.03257q-0.03498-3.71e-4 -0.06504 0.0029-0.03006 0.0033-0.05695 0.01047-0.04669 0.01251-0.06933 0.02992-0.02235 0.01733-0.01712 0.03684 0.0044 0.01637 0.02334 0.02033 0.01919 0.0037 0.06754-0.0037l0.03563-0.0051q0.06586-0.01003 0.10097-1.2e-4 0.03535 0.0097 0.04341 0.03976 0.0096 0.03588-0.02674 0.06546-0.03607 0.02951-0.11559 0.05082-0.03 8e-3 -0.06502 0.01317-0.03474 0.0051-0.07305 7e-3l-0.0092-0.03439q0.03787 0.0021 0.07281-0.0011t0.0672-0.01181q0.04896-0.01312 0.07255-0.03149t0.01801-0.0392q-0.0049-0.01819-0.02686-0.02328-0.02171-0.0052-0.06666 0.0014l-0.03587 0.0054q-0.06595 0.0097-0.09879 0.0015t-0.04041-0.03648q-0.0088-0.03274 0.02551-0.06212 0.03457-0.02946 0.1039-0.04804 0.02971-8e-3 0.0614-0.01309 0.03169-0.0051 0.06563-0.0075z"/>
   <path d="m14.575 16.728 0.0087 0.03257q-0.03498-3.71e-4 -0.06504 0.0029-0.03006 0.0033-0.05695 0.01047-0.04669 0.01251-0.06933 0.02992-0.02235 0.01733-0.01712 0.03684 0.0044 0.01637 0.02334 0.02032 0.01919 0.0037 0.06754-0.0037l0.03563-0.0051q0.06586-0.01003 0.10097-1.2e-4 0.03535 0.0097 0.04341 0.03976 0.0096 0.03588-0.02674 0.06546-0.03607 0.02951-0.11559 0.05082-0.03 8e-3 -0.06502 0.01317-0.03474 0.0051-0.07305 7e-3l-0.0092-0.03439q0.03787 0.0021 0.07281-0.0011t0.0672-0.01181q0.04896-0.01312 0.07255-0.03149t0.01801-0.0392q-0.0049-0.01819-0.02686-0.02328-0.02171-0.0052-0.06666 0.0014l-0.03587 0.0054q-0.06595 0.0097-0.09879 0.0015t-0.04041-0.03649q-0.0088-0.03274 0.02551-0.06212 0.03457-0.02946 0.1039-0.04804 0.02972-8e-3 0.0614-0.01309 0.03169-0.0051 0.06563-0.0075z"/>
  </g>
  <path d="m21.684 18.518s0.05148 2.9599-2.5612 4.3663c-2.1586 1.1619 0.90252 2.5857-5.6346 4.9029 8.5103-2.4758 8.2634-9.2353 8.2634-9.2353z" fill="url(#linearGradient938)" stroke-width=".96156"/>
 </g>
</svg>
