<?xml version="1.0" encoding="UTF-8"?>
<svg width="64" height="64" version="1.1" viewBox="0 0 16.933 16.933" xmlns="http://www.w3.org/2000/svg" xmlns:cc="http://creativecommons.org/ns#" xmlns:dc="http://purl.org/dc/elements/1.1/" xmlns:rdf="http://www.w3.org/1999/02/22-rdf-syntax-ns#" xmlns:xlink="http://www.w3.org/1999/xlink">
 <defs>
  <linearGradient id="linearGradient1159" x1="-184.75" x2="-170.2" y1="-1.2655" y2="-15.817" gradientTransform="matrix(1 0 0 1 183.2 28.67)" gradientUnits="userSpaceOnUse">
   <stop stop-color="#dc3282" offset="0"/>
   <stop stop-color="#f05a50" offset="1"/>
  </linearGradient>
  <linearGradient id="linearGradient875" x1="-123.61" x2="-124.83" y1="-218.51" y2="-149.55" gradientTransform="matrix(.052501 0 0 .053458 12.58 34.029)" gradientUnits="userSpaceOnUse">
   <stop stop-color="#d9d9d9" offset="0"/>
   <stop stop-color="#fff" offset="1"/>
  </linearGradient>
  <linearGradient id="linearGradient841" x1="-194.48" x2="-194.66" y1="-239.97" y2="-166.64" gradientTransform="matrix(.052501 0 0 .053458 12.58 34.029)" gradientUnits="userSpaceOnUse">
   <stop stop-color="#f35966" offset="0"/>
   <stop stop-color="#e0283f" offset="1"/>
  </linearGradient>
  <linearGradient id="linearGradient851" x1="-145.4" x2="-145.58" y1="-167.26" y2="-280.65" gradientTransform="matrix(.052501 0 0 .053458 12.58 34.029)" gradientUnits="userSpaceOnUse">
   <stop stop-color="#f06712" offset="0"/>
   <stop stop-color="#ffb436" offset="1"/>
  </linearGradient>
  <linearGradient id="linearGradient859" x1="-98.577" x2="-101.03" y1="-166.03" y2="-348.97" gradientTransform="matrix(.052501 0 0 .053458 12.58 34.029)" gradientUnits="userSpaceOnUse">
   <stop stop-color="#01bb22" offset="0"/>
   <stop stop-color="#51e784" offset="1"/>
  </linearGradient>
  <linearGradient id="linearGradient867" x1="-50.258" x2="-52.706" y1="-167.99" y2="-309.35" gradientTransform="matrix(.052501 0 0 .053458 12.58 34.029)" gradientUnits="userSpaceOnUse">
   <stop stop-color="#017bf5" offset="0"/>
   <stop stop-color="#52cdfb" offset="1"/>
  </linearGradient>
 </defs>
 <metadata>
  <rdf:RDF>
   <cc:Work rdf:about="">
    <dc:format>image/svg+xml</dc:format>
    <dc:type rdf:resource="http://purl.org/dc/dcmitype/StillImage"/>
    <dc:title/>
   </cc:Work>
  </rdf:RDF>
 </metadata>
 <g transform="translate(2.7498 -11.661)">
  <rect x="-1.5593" y="12.851" width="14.552" height="14.552" ry="1.2138" fill="url(#linearGradient1159)"/>
  <g>
   <path d="m-0.24414 26.572h11.953c0.14001 0 0.22004-0.09708 0.22183-0.23237l0.0028-0.21168-0.99244-4.3543c-0.02872-0.126-0.12851-0.22535-0.26853-0.22542l-9.8862-0.0051c-0.14001-5.3e-5 -0.24286 0.07157-0.26372 0.16631l-1.023 4.4036 0.003785 0.22653c0.002154 0.12871 0.11272 0.23237 0.25273 0.23237z" opacity=".25"/>
   <path d="m-0.24414 26.317h11.953c0.14001 0 0.23115-0.10343 0.22183-0.23237l-0.33014-4.5659c-0.0093-0.12894-0.08851-0.22536-0.22852-0.22542l-11.412-0.0051c-0.14001-5.4e-5 -0.18877 0.06938-0.19427 0.16631l-0.26262 4.6301c-0.007321 0.12909 0.11272 0.23237 0.25273 0.23237z" fill="url(#linearGradient875)" stroke="#999" stroke-width=".038088"/>
   <rect x="1.2985" y="20.908" width="2.1734" height="4.3036" ry=".26561" fill="url(#linearGradient841)"/>
   <path d="m1.4775 20.473h1.8153c0.098756 0 0.14501 0.08111 0.15048 0.18151l0.027782 0.50997c0.00547 0.1004-0.079504 0.18151-0.17826 0.18151h-1.8153c-0.098756 0-0.18373-0.08111-0.17826-0.18151l0.027782-0.50997c0.00547-0.1004 0.051723-0.18151 0.15048-0.18151z" fill="#fe8f8a"/>
   <rect x="3.7961" y="18.579" width="2.1734" height="6.6325" ry=".26647" fill="url(#linearGradient851)"/>
   <path d="m3.9752 18.144h1.8153c0.098756 0 0.14501 0.06684 0.15048 0.14958l0.027782 0.42025c0.00547 0.08274-0.079504 0.14958-0.17826 0.14958h-1.8153c-0.098756 0-0.18373-0.06684-0.17826-0.14958l0.027781-0.42025c0.0054721-0.082735 0.051722-0.14958 0.15048-0.14958z" fill="#ffc966"/>
   <rect x="6.2938" y="14.753" width="2.1734" height="10.454" ry=".31676" fill="url(#linearGradient859)"/>
   <path d="m6.4728 14.544h1.8153c0.098756 0 0.14501 0.05722 0.15048 0.12804l0.027781 0.35973c0.00547 0.07082-0.079504 0.12804-0.17826 0.12804h-1.8153c-0.098756 0-0.18373-0.05722-0.17826-0.12804l0.027782-0.35973c0.00547-0.07082 0.051723-0.12804 0.15048-0.12804z" fill="#87ffa3"/>
   <rect x="8.7909" y="16.969" width="2.1734" height="8.2388" ry=".24963" fill="url(#linearGradient867)"/>
   <path d="m8.9699 16.605h1.8153c0.09876 0 0.14501 0.0666 0.15048 0.14905l0.02778 0.41875c0.0055 0.08244-0.0795 0.14905-0.17826 0.14905h-1.8153c-0.098756 0-0.18373-0.0666-0.17826-0.14905l0.027781-0.41875c0.00547-0.08244 0.051723-0.14905 0.15048-0.14905z" fill="#79d7ff"/>
  </g>
  <g fill="#808080">
   <path d="m0.40566 21.823 0.001958-0.05624 0.27765 0.0097-0.013671 0.39242-0.15051-0.0052 0.01171-0.33617z"/>
   <path d="m0.82496 22.974-0.001958 0.05624-0.59621-0.02077 0.22943-0.11822q0.16381-0.08232 0.19234-0.10334 0.030015-0.02161 0.03051-0.03583 0.001587-0.0038 0.00172-0.0077 8.9958e-4 -0.02586-0.037857-0.04727-0.037296-0.02135-0.10013-0.02354-0.062836-0.0022-0.10016 0.01916-0.03586 0.0214-0.036986 0.05373l-0.15782-0.0055q0.002037-0.05818 0.080783-0.09298 0.08024-0.0354 0.21468-0.03071 0.12129 0.0042 0.20332 0.04333 0.082034 0.03911 0.080142 0.09341-0.001773 0.05107-0.18177 0.13607l-0.15322 0.07234z"/>
   <path d="m0.24214 23.577q0.013515-0.05196 0.086178-0.07985 0.072662-0.02789 0.18811-0.02387 0.1169 0.0041 0.18601 0.03626 0.069107 0.03218 0.067328 0.08325-0.001984 0.05689-0.087616 0.07915 0.11322 0.02595 0.11065 0.09965-0.001984 0.05689-0.08647 0.08825-0.083005 0.03077-0.21306 0.02624-0.12129-0.0042-0.20627-0.04279-0.084979-0.03856-0.083155-0.09092l0.15052 0.0052q-9.7896e-4 0.02844 0.040711 0.04932 0.041703 0.02086 0.106 0.0231 0.065759 0.0023 0.1045-0.01773 0.040199-0.01996 0.041257-0.05034 8.7313e-4 -0.02522-0.040757-0.04802-0.040151-0.02341-0.092758-0.02524-0.005845-2.03e-4 -0.011718 3.71e-4l-0.032194 1.65e-4 0.001561-0.04461 0.018997 6.61e-4q0.055529 0.0019 0.095571-0.01351 0.041525-0.01603 0.042403-0.04124 0.00209-0.06012-0.12066-0.0644-0.12129-0.0042-0.12338 0.0559z"/>
   <path d="m0.78822 24.617-0.001773 0.05107-0.10521-0.0037-0.002593 0.07435-0.13882-0.0048 0.002593-0.07435-0.40332-0.01405 0.001005-0.02909 0.40633-0.2823 0.14613 0.0051-0.009549 0.27411zm-0.23773-0.18952-0.23427 0.17308 0.22796 0.0079z"/>
   <path d="m0.41943 25.249-0.037526 0.06925 0.068726 0.0011q0.12713 0.0044 0.20465 0.04726 0.078998 0.04224 0.077016 0.09913-0.002196 0.06335-0.092698 0.09904-0.090491 0.03568-0.23516 0.03064-0.16074-0.0056-0.26123-0.06088l0.045821-0.05536q0.082932 0.05532 0.20568 0.05959 0.075988 0.0026 0.12941-0.01879 0.054901-0.02203 0.056298-0.06212 0.001429-0.04073-0.053322-0.06529-0.054741-0.02456-0.1395-0.02751-0.084756-3e-3 -0.13973 0.02102l-0.027765-9.79e-4 0.098999-0.19591 0.38579 0.01344-0.001958 0.05625z"/>
  </g>
 </g>
</svg>
