<?xml version="1.0" encoding="UTF-8"?>
<!-- Created with Inkscape (http://www.inkscape.org/) -->
<svg width="64" height="64" version="1.1" viewBox="0 0 16.933 16.933" xmlns="http://www.w3.org/2000/svg">
 <defs>
  <filter id="filter1066" x="-.063923" y="-.056531" width="1.1278" height="1.1131" color-interpolation-filters="sRGB">
   <feGaussianBlur stdDeviation="0.22705935"/>
  </filter>
  <filter id="filter1100" x="-.12197" y="-.11848" width="1.2439" height="1.237" color-interpolation-filters="sRGB">
   <feGaussianBlur stdDeviation="0.47586465"/>
  </filter>
  <linearGradient id="linearGradient1276" x1="-223.57" x2="-227.23" y1="236.07" y2="258.84" gradientTransform="matrix(.040668 0 0 .040668 12.276 6.1602)" gradientUnits="userSpaceOnUse">
   <stop stop-color="#a8c5da" offset="0"/>
   <stop stop-color="#dfe6ee" offset="1"/>
  </linearGradient>
  <linearGradient id="linearGradient1208" x1="-905.43" x2="-844.88" y1="649.29" y2="649.29" gradientTransform="matrix(.010393 -.002785 .002785 .010393 13.452 2.7729)" gradientUnits="userSpaceOnUse">
   <stop stop-color="#dbe7f3" offset="0"/>
   <stop stop-color="#9ba7af" offset="1"/>
  </linearGradient>
  <linearGradient id="linearGradient1216" x1="-170.16" x2="-161.92" y1="-33.742" y2="-96.1" gradientTransform="matrix(.039282 -.010525 -.010525 -.039282 13.452 2.7729)" gradientUnits="userSpaceOnUse">
   <stop stop-color="#0099fb" stop-opacity=".99216" offset="0"/>
   <stop stop-color="#4ecafe" stop-opacity=".97255" offset="1"/>
  </linearGradient>
  <linearGradient id="linearGradient938" x1="80.368" x2="82.141" y1="13.177" y2="14.704" gradientTransform="matrix(.96158 0 0 .96158 -68.31 .57383)" gradientUnits="userSpaceOnUse">
   <stop stop-color="#fafafa" offset="0"/>
   <stop stop-color="#90a0b3" offset="1"/>
  </linearGradient>
 </defs>
 <g transform="translate(3.0315 -2.2655)">
  <rect transform="rotate(-6.4422)" x="-2.8297" y="4.0126" width="13.992" height="13.992" ry="1.1671" fill="#f3f3f3" stroke-width=".96158"/>
  <path transform="matrix(1.0331 0 0 .96966 -47.516 -.8001)" d="m57.818 9.8288s0.05354 3.0782-2.6636 4.5408c-2.2449 1.2084 0.9386 2.689-5.8599 5.0989 8.8505-2.5748 8.5235-9.6396 8.5235-9.6396z" fill="#141414" filter="url(#filter1066)" opacity=".3"/>
  <path transform="matrix(.83592 0 0 .91431 -36.692 -.7714)" d="m57.594 9.7322c-0.15355 5.725-5.0519 8.6864-8.5234 9.6397l8.2859-0.93608c0.6682-0.07545 1.1451-0.67434 1.0697-1.3425z" fill="#9cb8d7" filter="url(#filter1100)" opacity=".2"/>
  <path transform="matrix(1.0038 0 0 .9354 -45.781 -.34939)" d="m57.818 9.8288s0.05354 3.0782-2.6636 4.5408c-2.2449 1.2084 0.9386 2.689-5.8599 5.0989 8.8505-2.5748 8.5235-9.6396 8.5235-9.6396z" fill="#141414" filter="url(#filter1066)" opacity=".3"/>
  <path d="m10.629 2.8629c-0.07737-0.0069-0.1567-0.0061-0.23701 3e-3l-11.585 1.3083c-0.64252 0.072551-1.1015 0.64792-1.029 1.2904l1.3083 11.585c0.07255 0.64252 0.64792 1.1011 1.2904 1.0286l3.623-0.40895c3.338-0.91808 8.0434-3.7659 8.191-9.2682l0.80002 7.0783-1.3078-11.585c-0.06348-0.5622-0.5123-0.98408-1.0538-1.032z" fill="#fafafa" stroke-width=".96158"/>
  <path d="m8.9468 14.306c0.098472 0.3675-0.7148 0.90472-1.8165 1.1999-1.1017 0.2952-2.0746 0.2366-2.1731-0.1309-0.0098-0.03644-0.063121-0.19012-0.055561-0.2295 0.068661-0.35773 0.87962-0.70449 1.872-0.97042 0.99552-0.26674 1.8846-0.4027 2.103-0.11151 0.02446 0.03261 0.060601 0.207 0.070091 0.24242z" fill="#698fac"/>
  <ellipse transform="rotate(-15)" cx="2.8741" cy="15.919" rx="2.0651" ry=".68888" fill="url(#linearGradient1276)"/>
  <path d="m5.1457 9.416 1.3804 5.1518 0.0011-2.91e-4a0.10866 0.3251 75 0 0 0.3408 0.01725 0.10866 0.3251 75 0 0 0.28633-0.18528l0.0012-3.44e-4 -1.3804-5.1518z" fill="url(#linearGradient1208)" stroke="#698fac" stroke-width=".014749"/>
  <g>
   <path d="m1.5856 10.972 8.0754-2.1638c0.094592-0.02535 0.12954-0.11117 0.10412-0.2109l-0.039801-0.15605-1.5278-3.02c-0.044201-0.087392-0.13119-0.14233-0.22579-0.11703l-6.6802 1.786c-0.094612 0.025301-0.14999 0.096552-0.14542 0.16995l0.17591 3.4211 0.047151 0.16577c0.02681 0.09419 0.1219 0.15034 0.2165 0.125z" fill="#045389"/>
   <path d="m1.5356 10.785 8.0754-2.1638c0.094592-0.02535 0.14746-0.12309 0.10412-0.2109l-1.5676-3.176c-0.043341-0.087822-0.13119-0.14232-0.2258-0.11703l-6.6802 1.786c-0.094612 0.0253-0.14999 0.096552-0.14542 0.16994l0.22308 3.5868c0.0061 0.09774 0.1219 0.15034 0.2165 0.12499z" fill="url(#linearGradient1216)"/>
   <path d="m2.3166 7.223 4.8172-1.292 0.97989 2.3628-5.4686 1.4653z" opacity=".25"/>
   <path d="m2.3056 7.181 4.8172-1.292 0.97989 2.3628-5.4686 1.4653z" fill="#fcfcfc"/>
   <path d="m1.5226 10.43 7.9018-2.1172 0.0026 0.12272-7.846 2.1023z" fill="#004d84"/>
   <path d="m1.5106 10.317 0.01157 0.11288 7.9018-2.1172-0.039111-0.10998z" fill="#81e3fc"/>
  </g>
  <path d="m2.6836 7.669 4.2836-1.1478-0.0028-0.01051" fill="none" stroke="#000" stroke-width=".014749"/>
  <g>
   <ellipse transform="rotate(-15)" cx="3.3714" cy="8.4503" rx=".12009" ry=".07878" fill="#26b1f6"/>
   <ellipse transform="rotate(-15)" cx="3.3762" cy="8.7063" rx=".12009" ry=".07878" fill="#e785f8"/>
   <ellipse transform="rotate(-15)" cx="3.3823" cy="8.9653" rx=".12009" ry=".07878" fill="#fc5353"/>
   <ellipse transform="rotate(-15)" cx="3.3935" cy="9.2423" rx=".12675" ry=".083149" fill="#ffe244"/>
   <ellipse transform="rotate(-15)" cx="3.4004" cy="9.5283" rx=".13052" ry=".085621" fill="#90e564"/>
  </g>
  <g fill-rule="evenodd">
   <path d="m3.8276 7.553a0.72164 1.1142 75 0 0-0.88945 0.98543 0.72164 1.1142 75 0 0 1.263 0.40869 0.72164 1.1142 75 0 0 0.88945-0.98543 0.72164 1.1142 75 0 0-4.5e-4 -0.0014l-1.0746 0.28794-0.18641-0.6957a0.72164 1.1142 75 0 0-0.0016 3.711e-4z" fill="#26b1f6"/>
   <path d="m4.0157 8.249-0.58887 0.71003a0.72164 1.1142 75 0 0 0.77448-0.01125 0.72164 1.1142 75 0 0 0.8041-0.53883l-0.71892-0.17206z" fill="#90e564"/>
   <path d="m3.9567 7.42 0.18287 0.68097 1.0583-0.28265c-0.0011-0.0069-0.0024-0.01368-0.0038-0.02048-0.098042-0.36589-0.63546-0.53978-1.2003-0.38841-0.01221 0.0036-0.024871 0.0068-0.037011 0.01053z" fill="#e786f9"/>
   <path d="m4.6897 7.387-0.54968 0.71355 1.0583-0.28265c-0.0011-0.0069-0.0024-0.01371-0.0038-0.02051-0.054831-0.20462-0.24715-0.34913-0.5048-0.41034z" fill="#fb5352"/>
   <path d="m4.0157 8.249 0.64321 0.49771a0.72164 1.1142 75 0 0 0.43182-0.78435 0.72164 1.1142 75 0 0-4.5e-4 -0.0014z" fill="#ffe244"/>
  </g>
  <g fill="#808080">
   <path d="m5.7507 7.126 0.01453-0.0039 0.02121 0.079152-0.01453 0.0039z"/>
   <path d="m5.8727 7.14 0.0096 0.035841-0.01323 0.0035-0.0095-0.035521q-0.0022-0.0084-0.0078-0.01142-0.0056-3e-3 -0.0145-6.08e-4 -0.01072 0.0029-0.01556 0.0096-0.0048 0.0067-0.0025 0.01539l9e-3 0.033561-0.01331 0.0036-0.01591-0.059371 0.01331-0.0036 0.0025 0.0092q0.0033-0.0066 9e-3 -0.01099 0.0058-0.0044 0.01418-0.0066 0.01388-0.0037 0.022711 7.41e-4 0.0088 0.0044 0.01211 0.0167z"/>
   <path d="m5.9277 7.075 0.0022 0.0081-0.01266 0.0034q-0.0071 0.0019-0.0094 0.0048-0.0022 0.0029-6.88e-4 0.0084l0.0014 0.0052 0.021791-0.0058 2e-3 0.0076-0.02179 0.0058 0.01388 0.051791-0.01331 0.0036-0.01388-0.051791-0.01266 0.0034-2e-3 -0.0076 0.01266-0.0034-0.0011-0.0041q-0.0027-0.0099 0.0024-0.0161 5e-3 -0.0062 0.01863-0.0099z"/>
   <path d="m5.9447 7.096 0.01323-0.0035 0.01591 0.059371-0.01323 0.0035zm-0.0062-0.02311 0.01323-0.0035 0.0033 0.01235-0.01323 0.0035z"/>
   <path d="m6.0587 7.09 0.0096 0.035841-0.01323 0.0035-0.0095-0.035521q-0.0022-0.0084-0.0078-0.01142-0.0056-3e-3 -0.0145-6.08e-4 -0.01072 0.0029-0.01555 0.0096-0.0048 0.0067-0.0025 0.01539l9e-3 0.033561-0.01331 0.0036-0.01591-0.059371 0.01331-0.0036 0.0025 0.0092q0.0033-0.0066 9e-3 -0.01099 0.0058-0.0044 0.01418-0.0066 0.01388-0.0037 0.02271 7.41e-4 0.0088 0.0044 0.01211 0.0167z"/>
   <path d="m6.0787 7.06 0.01323-0.0035 0.01591 0.059371-0.01323 0.0035zm-0.0062-0.02311 0.01323-0.0035 0.0033 0.01235-0.01323 0.0035z"/>
   <path d="m6.1287 7.028 0.0045 0.01686 0.02726-0.0073 2e-3 0.0076-0.027261 0.0073 0.0086 0.032231q2e-3 0.0073 0.0052 0.0086 0.0033 0.0013 0.01156-8.73e-4l0.01359-0.0036 0.0022 0.0082-0.01359 0.0036q-0.01532 0.0041-0.02227 0.0015-7e-3 -0.0027-0.0099-0.01381l-0.0086-0.032231-0.0097 0.0026-2e-3 -0.0076 0.0097-0.0026-0.0045-0.01686z"/>
   <path d="m6.2537 7.042 0.0013 0.0048-0.060851 0.01631q0.0036 0.0098 0.01232 0.01318 0.0088 0.0033 0.02198-2.65e-4 0.0076-2e-3 0.01438-0.0053 0.0068-0.0033 0.01313-8e-3l0.0025 0.0092q-0.0065 0.0041-0.01369 0.0073-0.0072 0.0032-0.01487 0.0052-0.01928 0.0052-0.032791-7.8e-5 -0.01344-0.0053-0.01722-0.01937-0.0039-0.01458 0.0045-0.025971 0.0084-0.01146 0.02654-0.01632 0.01626-0.0044 0.027751 8.46e-4 0.01155 0.0051 0.01511 0.0184zm-0.014 6.88e-4q-0.0023-8e-3 -0.0095-0.01114-0.0072-0.0032-0.01696-5.82e-4 -0.01108 3e-3 -0.01653 0.0094-0.0054 0.0064-0.0041 0.01503z"/>
   <path d="m6.3107 6.976 0.01453-0.0039 0.01879 0.070131 0.052291-0.01401 0.0024 9e-3 -0.066821 0.0179z"/>
   <path d="m6.4277 6.973q-0.01065 0.0029-0.01518 0.01066-0.0046 0.0078-0.0017 0.01841 0.0029 0.01065 0.01062 0.01517 0.0078 0.0044 0.01854 0.0016 0.01057-0.0028 0.01511-0.01064 0.0045-0.0078 0.0017-0.01841-0.0028-0.01055-0.01066-0.01504-0.0078-0.0045-0.01842-0.0017zm-0.0022-0.0083q0.01726-0.0046 0.029331 1e-3 0.01207 0.0056 0.01599 0.02026 0.0039 0.01458-0.0037 0.02554-0.0076 0.01091-0.0249 0.01554-0.01733 0.0046-0.029411-9.79e-4 -0.01201-0.0057-0.01592-0.02028-0.0039-0.01463 0.0036-0.02552 0.0076-0.01091 0.024971-0.01555z"/>
   <path d="m6.5177 6.949q-0.01065 0.0029-0.01518 0.01066-0.0046 0.0078-0.0017 0.01841 0.0029 0.01065 0.01062 0.01517 0.0078 0.0044 0.01854 0.0016 0.01057-0.0028 0.01511-0.01064 0.0045-0.0078 0.0017-0.01841-0.0028-0.01055-0.01066-0.01504-0.0078-0.0045-0.01842-0.0017zm-0.0022-0.0083q0.01726-0.0046 0.029331 1e-3 0.01207 0.0056 0.01599 0.02026 0.0039 0.01458-0.0037 0.02554-0.0076 0.01091-0.024901 0.01554-0.01733 0.0046-0.029411-9.79e-4 -0.01201-0.0057-0.01592-0.02028-0.0039-0.01463 0.0036-0.02552 0.0076-0.01091 0.024971-0.01555z"/>
   <path d="m6.6017 6.974 0.0084 0.031491-0.01331 0.0036-0.02196-0.081962 0.01331-0.0036 0.0024 9e-3q0.0028-0.0064 0.0084-0.01066 0.0057-0.0043 0.01455-0.0067 0.01467-0.0039 0.02611 0.0022 0.01151 0.0061 0.01526 0.02012 0.0038 0.01399-0.0032 0.02505-0.0068 0.01103-0.021511 0.01497-0.0088 0.0024-0.01593 0.0015-7e-3 -9e-4 -0.01262-0.0051zm0.039471-0.032791q-0.0029-0.01076-0.01056-0.01524-0.0076-0.0046-0.01812-0.0017-0.0105 0.0028-0.0149 0.01058-0.0043 0.0077-0.0015 0.01846 0.0029 0.01076 0.0105 0.01531 0.0077 0.0045 0.01818 0.0017 0.0105-0.0028 0.01484-0.01051 0.0044-0.0078 0.0015-0.01853z"/>
   <path d="m5.8237 7.378 0.02165-0.0058 0.041841 0.046521 0.01312-0.061241 0.02165-0.0058 0.02121 0.079152-0.01417 0.0038-0.01862-0.069501-0.01315 0.061701-0.0146 0.0039-0.042241-0.046861 0.01862 0.069501-0.0141 0.0038z"/>
   <path d="m5.9997 7.383q-0.01604 0.0043-0.0215 0.0087-0.0055 0.0044-0.0037 0.01088 0.0014 0.0052 0.0068 7e-3 0.0055 0.0018 0.01347-3.71e-4 0.011-0.0029 0.01609-0.01045 0.0051-0.0076 0.0026-0.01711l-5.83e-4 -0.0022zm0.025321-0.0111 0.0091 0.033871-0.01323 0.0035-0.0024-9e-3q-0.0031 0.0066-0.0091 0.01103-0.0061 0.0044-0.01586 7e-3 -0.01237 0.0033-0.02107 1.92e-4 -0.0086-0.0032-0.01094-0.01178-0.0027-0.01002 5e-3 -0.01754 0.0078-0.0075 0.02583-0.01238l0.01856-5e-3 -2.56e-4 -9.53e-4q-0.0018-0.0067-0.0088-0.0088t-0.01783 7.94e-4q-0.0069 0.0019-0.01312 0.0048-0.0062 3e-3 -0.01161 7e-3l-0.0024-9e-3q0.0067-4e-3 0.01327-0.0069 0.0065-0.0029 0.01302-0.0046 0.01748-0.0047 0.027901-3.17e-4 0.01042 0.0044 0.01406 0.01794z"/>
   <path d="m6.0947 7.336q-0.0025-3.44e-4 -0.0053-6.8e-5 -0.0027 2.17e-4 -0.0059 0.0011-0.01122 3e-3 -0.01581 0.01003-0.0045 7e-3 -0.0018 0.01703l0.0084 0.031281-0.01331 0.0036-0.01591-0.059371 0.01331-0.0036 0.0025 0.0092q0.0027-0.0065 0.0087-0.01091 6e-3 -0.0044 0.01555-7e-3 0.0014-3.71e-4 0.0031-6.62e-4 0.0017-3.44e-4 0.0038-6.08e-4z"/>
   <path d="m6.1067 7.323 0.01323-0.0035 0.01591 0.059371-0.01323 0.0035zm-0.0062-0.02311 0.01323-0.0035 0.0033 0.01235-0.01323 0.0035z"/>
   <path d="m6.1917 7.332q-0.01604 0.0043-0.0215 0.0087-0.0055 0.0044-0.0037 0.01088 0.0014 0.0052 0.0068 7e-3 0.0055 0.0018 0.01347-3.7e-4 0.011-0.0029 0.01609-0.01045 0.0051-0.0076 0.0026-0.01711l-5.82e-4 -0.0022zm0.025321-0.0111 0.0091 0.033871-0.01323 0.0035-0.0024-9e-3q-0.0031 0.0066-0.0091 0.01103-0.0061 0.0044-0.01586 7e-3 -0.01237 0.0033-0.02107 1.92e-4 -0.0086-0.0032-0.01094-0.01178-0.0027-0.01002 5e-3 -0.01754 0.0078-0.0075 0.02583-0.01238l0.01856-5e-3 -2.56e-4 -9.53e-4q-0.0018-0.0067-0.0088-0.0088t-0.01783 7.94e-4q-0.0069 0.0019-0.01312 0.0048-0.0062 3e-3 -0.01161 7e-3l-0.0024-9e-3q0.0067-4e-3 0.01327-0.0069 0.0065-0.0029 0.01302-0.0046 0.01748-0.0047 0.027901-3.18e-4 0.01042 0.0044 0.01406 0.01794z"/>
   <path d="m6.3107 7.294 0.0096 0.035841-0.01323 0.0035-0.0095-0.035521q-0.0022-0.0084-0.0078-0.01142-0.0056-3e-3 -0.0145-6.08e-4 -0.01072 0.0029-0.01556 0.0096-0.0048 0.0067-0.0025 0.01539l9e-3 0.033561-0.01331 0.0036-0.01591-0.059371 0.0133-0.0036 0.0025 0.0092q0.0033-0.0066 9e-3 -0.01099 0.0058-0.0044 0.01418-0.0066 0.01388-0.0037 0.02271 7.41e-4 0.0088 0.0044 0.01211 0.0167z"/>
   <path d="m6.3317 7.263 0.01323-0.0035 0.01591 0.059371-0.01323 0.0035zm-0.0062-0.02311 0.01323-0.0035 0.0033 0.01235-0.01323 0.0035z"/>
   <path d="m6.4527 7.22-0.0092 0.044671 0.039491-0.01058zm-0.01103-0.0084 0.01647-0.0044 0.062141 0.068181-0.0151 4e-3 -0.01522-0.01768-0.048411 0.01297-0.0043 0.02292-0.01532 0.0041z"/>
   <path d="m6.5017 7.217 0.01403-0.0038 0.038531 0.043081 0.01182-0.056581 0.01403-0.0038-0.0143 0.067471-0.01798 0.0048z"/>
   <path d="m6.6747 7.2 0.0013 0.0048-0.060851 0.01631q0.0036 0.0098 0.01232 0.01318 0.0088 0.0033 0.02198-2.65e-4 0.0076-2e-3 0.01438-0.0053 0.0068-0.0033 0.01313-8e-3l0.0025 0.0092q-0.0065 0.0041-0.01369 0.0073-0.0072 0.0032-0.01487 0.0052-0.01928 0.0052-0.032791-7.8e-5 -0.01344-0.0053-0.01722-0.01937-0.0039-0.01458 0.0045-0.025971 0.0084-0.01146 0.026541-0.01632 0.01626-0.0044 0.02775 8.46e-4 0.01155 0.0051 0.01511 0.0184zm-0.014 6.88e-4q-0.0023-8e-3 -0.0095-0.01114-0.0072-0.0032-0.01696-5.82e-4 -0.01108 3e-3 -0.01653 0.0094-0.0054 0.0064-0.0041 0.01503z"/>
   <path d="m5.9227 7.626 0.01649 0.061551 0.01755-0.0047q0.02223-6e-3 0.030521-0.01613 0.0084-0.0102 0.0041-0.02621-0.0043-0.0159-0.01659-0.0205-0.01227-0.0047-0.034501 0.0013zm-0.01689-0.0049 0.029851-8e-3q0.031221-0.0084 0.048391-0.0027 0.01716 0.0056 0.02261 0.025981 0.0055 0.02046-0.0066 0.033991-0.0121 0.01352-0.043181 0.02185l-0.029851 8e-3z"/>
   <path d="m6.0997 7.619 0.0013 0.0048-0.060851 0.01631q0.0036 0.0098 0.01232 0.01318 0.0088 0.0033 0.02198-2.64e-4 0.0076-2e-3 0.01438-0.0053 0.0068-0.0033 0.01313-8e-3l0.0025 0.0092q-0.0065 0.0041-0.01369 0.0073-0.0072 0.0032-0.01486 0.0052-0.01928 0.0052-0.032791-7.9e-5 -0.01344-0.0053-0.01722-0.01937-0.0039-0.01458 0.0045-0.025971 0.0084-0.01146 0.026541-0.01632 0.01626-0.0044 0.02775 8.47e-4 0.01155 0.0051 0.01511 0.0184zm-0.014 6.88e-4q-0.0023-8e-3 -0.0095-0.01114-0.0072-0.0032-0.01696-5.82e-4 -0.01108 3e-3 -0.01653 0.0094-0.0054 0.0064-0.0041 0.01503z"/>
   <path d="m6.1947 7.555-0.0092 0.044671 0.039491-0.01058zm-0.01103-0.0084 0.01647-0.0044 0.062141 0.068181-0.01511 4e-3 -0.01522-0.01768-0.048411 0.01297-0.0043 0.02292-0.01532 0.0041z"/>
   <path d="m6.3347 7.552 0.0096 0.035841-0.01323 0.0035-0.0095-0.035521q-0.0022-0.0084-0.0078-0.01142-0.0056-3e-3 -0.0145-6.09e-4 -0.01072 0.0029-0.01556 0.0096-0.0048 0.0067-0.0025 0.01539l9e-3 0.033561-0.01331 0.0036-0.01591-0.059371 0.01331-0.0036 0.0025 0.0092q0.0033-0.0066 9e-3 -0.01099 0.0058-0.0044 0.01418-0.0066 0.01388-0.0037 0.02271 7.41e-4 0.0088 0.0044 0.01211 0.0167z"/>
   <path d="m6.3497 7.523 0.062871-0.01685 0.0024 0.0089-0.038341 0.056011 0.049781-0.01334 0.0021 0.0078-0.064661 0.01733-0.0024-0.0089 0.038341-0.056011-0.047981 0.01286z"/>
   <path d="m6.4767 7.521q-0.01604 0.0043-0.0215 0.0087-0.0055 0.0044-0.0037 0.01088 0.0014 0.0052 0.0068 7e-3 0.0055 0.0018 0.01347-3.7e-4 0.01101-0.0029 0.01609-0.01045 0.0051-0.0076 0.0026-0.01711l-5.82e-4 -0.0022zm0.025321-0.0111 0.0091 0.033871-0.01323 0.0035-0.0024-9e-3q-0.0031 0.0066-0.0091 0.01103-0.0061 0.0044-0.01586 7e-3 -0.01237 0.0033-0.02107 1.92e-4 -0.0086-0.0032-0.01094-0.01178-0.0027-0.01002 5e-3 -0.01754 0.0078-0.0075 0.02583-0.01237l0.01856-5e-3 -2.56e-4 -9.53e-4q-0.0018-0.0067-0.0088-0.0088t-0.01782 7.94e-4q-0.0069 0.0019-0.01312 0.0048-0.0062 3e-3 -0.01161 7e-3l-0.0024-9e-3q0.0067-4e-3 0.01327-0.0069 0.0065-0.0029 0.01302-0.0046 0.01748-0.0047 0.0279-3.181e-4 0.01042 0.0044 0.01406 0.01794z"/>
   <path d="m6.5907 7.482 0.0078 0.029001 0.023301-0.0062q0.01172-0.0031 0.01638-0.0082 0.0047-0.0051 0.0027-0.0125t-0.0086-0.0094-0.01829 0.0011zm-0.0087-0.032551 0.0064 0.02385 0.02151-0.0058q0.01065-0.0029 0.01505-0.0072 0.0045-0.0044 0.0028-0.01042-0.0016-6e-3 -0.0077-0.0076-6e-3 -0.0016-0.01662 0.0013zm-0.01689-0.0049 0.037121-0.0099q0.01662-0.0045 0.026971-0.0018 0.01036 0.0027 0.01287 0.01206 2e-3 0.0073-0.0015 0.01279-0.0035 0.0055-0.01209 9e-3 0.01117-0.0012 0.01852 0.0027 0.0074 0.0038 0.0096 0.01181 0.0028 0.0106-0.0054 0.019t-0.026291 0.01324l-0.038561 0.01033z"/>
   <path d="m6.6647 7.414 0.01323-0.0035 0.0221 0.082482-0.01323 0.0035z"/>
   <path d="m6.7017 7.429 0.01403-0.0038 0.038531 0.043081 0.01182-0.056581 0.01403-0.0038-0.0143 0.067471-0.01798 0.0048z"/>
   <path d="m6.8547 7.398-0.0086-0.032131 0.01323-0.0035 0.0221 0.082492-0.01323 0.0035-0.0024-0.0089q-0.0028 0.0064-0.0085 0.01073-0.0056 0.0042-0.01457 0.0066-0.0146 0.0039-0.02611-0.0022-0.01144-0.0061-0.01519-0.02013-0.0037-0.01399 0.0031-0.02503 0.0069-0.01106 0.02151-0.01497 0.0089-0.0024 0.01595-0.0015 0.0071 8.21e-4 0.01268 5e-3zm-0.039551 0.032811q0.0029 0.01076 0.0105 0.01531 0.0077 0.0045 0.01818 0.0017 0.0105-0.0028 0.01491-0.01053 0.0044-0.0078 0.0015-0.01853-0.0029-0.01076-0.01056-0.01524-0.0077-0.0045-0.01819-0.0017-0.0105 0.0028-0.0149 0.01058-0.0043 0.0077-0.0015 0.01846z"/>
   <path d="m5.9787 7.888 0.090852-0.024341 0.0024 9e-3 -0.038121 0.01022 0.01879 0.070131-0.0146 0.0039-0.01879-0.070131-0.038121 0.01022z"/>
   <path d="m6.1077 7.906q-0.01604 0.0043-0.021501 0.0087-0.0055 0.0044-0.0037 0.01088 0.0014 0.0052 0.0068 7e-3 0.0055 0.0018 0.01347-3.7e-4 0.01101-3e-3 0.01609-0.01045 0.0051-0.0076 0.0026-0.01711l-5.82e-4 -0.0022zm0.02532-0.0111 0.0091 0.033871-0.01323 0.0035-0.0024-9e-3q-0.0031 0.0066-0.0091 0.01103-0.0061 0.0044-0.01586 7e-3 -0.01237 0.0033-0.02107 1.92e-4 -0.0086-0.0032-0.01094-0.01178-0.0027-0.01002 5e-3 -0.01754 0.0078-0.0075 0.02583-0.01237l0.01856-5e-3 -2.56e-4 -9.53e-4q-0.0018-0.0067-0.0088-0.0088t-0.01783 7.94e-4q-0.0069 0.0019-0.01312 0.0048-0.0062 3e-3 -0.01161 7e-3l-0.0024-9e-3q0.0067-4e-3 0.01327-0.0069 0.0065-0.0029 0.01302-0.0046 0.01748-0.0047 0.027901-3.17e-4 0.01042 0.0044 0.01406 0.01794z"/>
   <path d="m6.2277 7.867 0.0096 0.035841-0.01323 0.0035-0.0095-0.035521q-0.0022-0.0084-0.0078-0.01142-0.0056-3e-3 -0.0145-6.09e-4 -0.01072 0.0029-0.01555 0.0096-0.0048 0.0067-0.0025 0.01539l9e-3 0.033561-0.01331 0.0036-0.01591-0.059371 0.01331-0.0036 0.0025 0.0092q0.0033-0.0066 9e-3 -0.01099 0.0058-0.0044 0.01418-0.0066 0.01388-0.0037 0.02271 7.41e-4 0.0088 0.0044 0.01211 0.0167z"/>
   <path d="m6.2557 7.816 0.0045 0.01686 0.027261-0.0073 2e-3 0.0076-0.02726 0.0073 0.0086 0.032231q2e-3 0.0073 0.0052 0.0086 0.0033 0.0013 0.01156-8.73e-4l0.01359-0.0036 0.0022 0.0082-0.01359 0.0036q-0.01532 0.0041-0.02227 0.0015-7e-3 -0.0027-0.0099-0.01381l-0.0086-0.032231-0.0097 0.0026-2e-3 -0.0076 0.0097-0.0026-0.0045-0.01686z"/>
   <path d="m6.3497 7.841q-0.01604 0.0043-0.0215 0.0087-0.0055 0.0044-0.0037 0.01088 0.0014 0.0052 0.0068 7e-3 0.0055 0.0018 0.01347-3.711e-4 0.011-3e-3 0.01609-0.01045 0.0051-0.0076 0.0026-0.01711l-5.82e-4 -0.0022zm0.02532-0.0111 0.0091 0.033871-0.01323 0.0035-0.0024-9e-3q-0.0031 0.0066-0.0091 0.01103-0.0061 0.0044-0.01586 7e-3 -0.01237 0.0033-0.02107 1.92e-4 -0.0086-0.0032-0.01094-0.01178-0.0027-0.01002 5e-3 -0.01754 0.0078-0.0075 0.025831-0.01237l0.01856-5e-3 -2.56e-4 -9.53e-4q-0.0018-0.0067-0.0088-0.0088t-0.01783 7.94e-4q-0.0069 0.0019-0.01312 0.0048-0.0062 3e-3 -0.01161 7e-3l-0.0024-9e-3q0.0067-4e-3 0.01327-0.0069 0.0065-0.0029 0.01302-0.0046 0.01748-0.0047 0.027901-3.17e-4 0.01042 0.0044 0.01406 0.01794z"/>
   <path d="m6.4037 7.833-0.0096-0.035941 0.01323-0.0035 0.0095 0.035571q0.0022 0.0084 0.0079 0.01147 0.0056 3e-3 0.0145 6.08e-4 0.01072-0.0029 0.01556-0.0096 0.0049-0.0067 0.0026-0.01541l-9e-3 -0.033661 0.01323-0.0035 0.01591 0.059371-0.01323 0.0035-0.0024-0.0091q-0.0034 0.0067-0.0091 0.01106-0.0056 0.0043-0.01405 0.0065-0.01388 0.0037-0.022781-7.14e-4 -0.0089-0.0044-0.01218-0.01668z"/>
   <path d="m6.5697 7.74-0.0092 0.044671 0.039491-0.01058zm-0.01103-0.0084 0.01647-0.0044 0.062141 0.068181-0.0151 4e-3 -0.01522-0.01768-0.048411 0.01297-0.0043 0.02292-0.01532 0.0041z"/>
   <path d="m6.6187 7.737 0.01403-0.0038 0.038531 0.043081 0.01182-0.056581 0.01403-0.0038-0.0143 0.067471-0.01798 0.0048z"/>
   <path d="m6.7917 7.72 0.0013 0.0048-0.060851 0.01631q0.0036 0.0098 0.01232 0.01318 0.0088 0.0033 0.02198-2.64e-4 0.0076-2e-3 0.01438-0.0053 0.0068-0.0033 0.01313-8e-3l0.0025 0.0092q-0.0065 0.0041-0.01369 0.0073-0.0072 0.0032-0.01487 0.0052-0.01928 0.0052-0.032791-7.9e-5 -0.01344-0.0053-0.01722-0.01937-0.0039-0.01458 0.0045-0.02597 0.0084-0.01146 0.026541-0.01632 0.01626-0.0044 0.02775 8.47e-4 0.01155 0.0051 0.0151 0.0184zm-0.014 6.881e-4q-0.0023-8e-3 -0.0095-0.01114-0.0072-0.0032-0.01696-5.82e-4 -0.01108 3e-3 -0.01653 0.0094-0.0054 0.0064-0.0041 0.01503z"/>
   <path d="m6.1277 8.232-0.062211-0.068161 0.01518-0.0041 0.051881 0.057521 0.01624-0.075772 0.01511-4e-3 -0.01972 0.090112z"/>
   <path d="m6.2177 8.176q-0.01604 0.0043-0.0215 0.0087-0.0055 0.0044-0.0037 0.01088 0.0014 0.0052 0.0068 7e-3 0.0055 0.0018 0.01347-3.701e-4 0.01101-0.0029 0.01609-0.01045 0.0051-0.0076 0.0026-0.01711l-5.82e-4 -0.0022zm0.02532-0.0111 0.0091 0.033871-0.01323 0.0035-0.0024-9e-3q-0.0031 0.0066-0.0091 0.01103-0.0061 0.0044-0.01586 7e-3 -0.01237 0.0033-0.02107 1.92e-4 -0.0086-0.0032-0.01094-0.01178-0.0027-0.01002 5e-3 -0.01754 0.0078-0.0075 0.025831-0.01238l0.01856-5e-3 -2.56e-4 -9.53e-4q-0.0018-0.0067-0.0088-0.0088t-0.01783 7.94e-4q-0.0069 0.0019-0.01312 0.0048-0.0062 3e-3 -0.01161 7e-3l-0.0024-9e-3q0.0067-4e-3 0.01328-0.0069 0.0065-0.0029 0.01302-0.0046 0.01748-0.0047 0.027901-3.18e-4 0.01042 0.0044 0.01406 0.01794z"/>
   <path d="m6.2567 8.109 0.01323-0.0035 0.0221 0.082482-0.01323 0.0035z"/>
   <path d="m6.2977 8.098 0.01323-0.0035 0.0221 0.082492-0.01323 0.0035z"/>
   <path d="m6.4207 8.119 0.0013 0.0048-0.060851 0.01631q0.0036 0.0098 0.01232 0.01318 0.0088 0.0033 0.02198-2.64e-4 0.0076-2e-3 0.01438-0.0053 0.0068-0.0033 0.01313-8e-3l0.0025 0.0092q-0.0065 0.0041-0.01369 0.0073-0.0072 0.0032-0.01487 0.0052-0.01928 0.0052-0.032791-7.8e-5 -0.01344-0.0053-0.01722-0.01937-0.0039-0.01458 0.0045-0.025971 0.0084-0.01146 0.026541-0.01632 0.01626-0.0044 0.02775 8.47e-4 0.01155 0.0051 0.0151 0.01839zm-0.014 6.88e-4q-0.0023-8e-3 -0.0095-0.01114-0.0072-0.0032-0.01696-5.83e-4 -0.01108 3e-3 -0.01653 0.0094-0.0054 0.0064-0.0041 0.01503z"/>
   <path d="m6.4867 8.141q-0.0028 0.0121-0.0072 0.01677-0.0045 0.0047-0.01337 0.0071l-0.01057 0.0028-0.0022-0.0082 0.0078-0.0021q0.0055-0.0015 8e-3 -0.0042t0.0043-0.01081l0.0012-0.0051-0.048241-0.049691 0.01403-0.0038 0.037621 0.039691 0.01273-0.053181 0.01402-0.0038z"/>
   <path d="m6.6557 8.078-0.0057-0.02126-0.02374 0.0064-0.0024-0.0088 0.038121-0.01021 0.0091 0.033981q-0.0072 0.0067-0.01677 0.01165-0.0095 0.0049-0.02106 8e-3 -0.025181 0.0067-0.042311-2.53e-4 -0.01708-0.0071-0.02227-0.026421-0.0052-0.0194 0.0061-0.034011 0.01133-0.01468 0.036511-0.02143 0.0105-0.0028 0.02044-0.0034 0.01001-6.35e-4 0.01898 9.26e-4l0.0031 0.0114q-0.0094-0.0029-0.01915-3e-3 -0.0097-1.16e-4 -0.01974 0.0026-0.01971 0.0053-0.027461 0.01605-0.0077 0.01075-0.0034 0.02681 0.0043 0.01601 0.01632 0.02148 0.0121 0.0054 0.031811 1.7e-4 0.0077-0.0021 0.01348-0.0046 0.0058-0.0026 0.01004-6e-3z"/>
   <path d="m6.7327 8.016q-0.0025-3.44e-4 -0.0053-6.8e-5 -0.0027 2.17e-4 -0.0059 0.0011-0.01122 3e-3 -0.01581 0.01003-0.0045 7e-3 -0.0018 0.01703l0.0084 0.031281-0.01331 0.0036-0.01591-0.059371 0.01331-0.0036 0.0025 0.0092q0.0027-0.0065 0.0087-0.01091 6e-3 -0.0044 0.01555-7e-3 0.0014-3.7e-4 0.0031-6.61e-4 0.0017-3.44e-4 0.0038-6.09e-4z"/>
   <path d="m6.8177 8.012 0.0013 0.0048-0.060851 0.01631q0.0036 0.0098 0.01232 0.01318 0.0088 0.0033 0.02198-2.64e-4 0.0076-2e-3 0.01438-0.0053 0.0068-0.0033 0.01313-8e-3l0.0025 0.0092q-0.0065 0.0041-0.01369 0.0073-0.0072 0.0032-0.01486 0.0052-0.01928 0.0052-0.032791-7.9e-5 -0.01344-0.0053-0.01722-0.01937-0.0039-0.01458 0.0045-0.02597 0.0084-0.01146 0.026541-0.01632 0.01626-0.0044 0.02775 8.47e-4 0.01155 0.0051 0.01511 0.01839zm-0.014 6.88e-4q-0.0023-8e-3 -0.0095-0.01114-0.0072-0.0032-0.01696-5.82e-4 -0.01108 3e-3 -0.01653 0.0094-0.0054 0.0064-0.0041 0.01503z"/>
   <path d="m6.9087 7.988 0.0013 0.0048-0.060851 0.01631q0.0036 0.0098 0.01232 0.01318 0.0088 0.0033 0.02198-2.64e-4 0.0076-2e-3 0.01438-0.0053 0.0068-0.0033 0.01313-0.0079l0.0025 0.0092q-0.0065 0.0041-0.01369 0.0073-0.0072 0.0032-0.01486 0.0052-0.01928 0.0052-0.032791-7.8e-5 -0.01344-0.0053-0.01722-0.01937-0.0039-0.01458 0.0045-0.025971 0.0084-0.01146 0.026541-0.01632 0.01626-0.0044 0.02775 8.471e-4 0.01155 0.0051 0.01511 0.0184zm-0.014 6.88e-4q-0.0023-8e-3 -0.0095-0.01114-0.0072-0.0032-0.01696-5.82e-4 -0.01108 3e-3 -0.01653 0.0094-0.0054 0.0064-0.0041 0.01503z"/>
   <path d="m6.9957 7.96 0.0096 0.035831-0.01323 0.0035-0.0095-0.035521q-0.0022-0.0084-0.0078-0.01142-0.0056-3e-3 -0.0145-6.09e-4 -0.01072 0.0029-0.01555 0.0096-0.0048 0.0067-0.0025 0.01539l9e-3 0.033561-0.01331 0.0036-0.01591-0.059371 0.01331-0.0036 0.0025 0.0092q0.0033-0.0066 9e-3 -0.01099 0.0058-0.0044 0.01418-0.0066 0.01388-0.0037 0.02271 7.41e-4 0.0088 0.0044 0.01211 0.0167z"/>
   <path d="m7.0757 7.902 0.01649 0.061551 0.01755-0.0047q0.02223-6e-3 0.030521-0.01614 0.0084-0.0102 0.0041-0.026211-0.0043-0.0159-0.01659-0.0205-0.01227-0.0047-0.034501 0.0013zm-0.01689-0.0049 0.029851-8e-3q0.031221-0.0084 0.048391-0.0027 0.01716 0.0056 0.02261 0.025981 0.0055 0.02046-0.0066 0.033991-0.0121 0.01353-0.043181 0.02185l-0.029851 8e-3z"/>
   <path d="m7.2257 7.883q-0.0025-3.701e-4 -0.0053-6.8e-5 -0.0027 2.17e-4 -0.0059 0.0011-0.01122 3e-3 -0.01581 0.01003-0.0045 7e-3 -0.0018 0.01703l0.0084 0.031281-0.01331 0.0036-0.01591-0.059371 0.01331-0.0036 0.0025 0.0092q0.0027-0.0065 0.0087-0.01091 6e-3 -0.0044 0.01555-7e-3 0.0014-3.7e-4 0.0031-6.62e-4 0.0017-3.43e-4 0.0038-6.08e-4z"/>
  </g>
  <g fill="#111">
   <path d="m2.6656 7.216 0.057161-0.01532 0.066141 0.24684-0.057161 0.01532z"/>
   <path d="m2.8366 7.17 0.085182-0.02283 0.15283 0.13909 0.063381-0.19702 0.085182-0.02282 0.066141 0.24684-0.055751 0.01494-0.058081-0.21675-0.063591 0.19849-0.057451 0.01539-0.15432-0.14011 0.058081 0.21675-0.055471 0.01486z"/>
   <path d="m3.4016 7.048 0.024851 0.092752 0.071881-0.01926q0.039901-0.01069 0.058461-0.028601 0.01856-0.01791 0.01258-0.040231-0.0059-0.02215-0.030961-0.028391-0.025021-0.0062-0.064931 0.0045zm-0.064521-0.01213 0.12904-0.034581q0.071031-0.01903 0.1123-0.0099 0.041511 0.0089 0.051211 0.045111 0.0098 0.036541-0.02171 0.065001-0.031221 0.028391-0.10225 0.047421l-0.071881 0.01926 0.026581 0.099202-0.057161 0.01532z"/>
   <path d="m3.9227 7.019q0.01937-0.0013 0.039821 6e-3 0.02074 0.0072 0.043861 0.02333l0.076091 0.051911-0.061411 0.01645-0.071021-0.048841q-0.027591-0.01919-0.049571-0.02198-0.021691-0.0029-0.055661 0.0062l-0.062261 0.01668 0.027951 0.10432-0.057161 0.01532-0.066141-0.24684 0.12904-0.034581q0.072451-0.01941 0.11284-0.01128 0.040401 0.0081 0.049971 0.043851 0.0062 0.02331-0.0083 0.043691-0.01427 0.0203-0.048051 0.035731zm-0.17097-0.065291 0.023481 0.087632 0.071881-0.01926q0.041321-0.01107 0.059291-0.027761 0.01821-0.01693 0.01241-0.038591-0.0058-0.02166-0.029951-0.02688-0.02391-0.0055-0.065231 0.0056z"/>
   <path d="m4.0897 6.8339 0.26716-0.071581 0.0075 0.02811-0.20998 0.056261 0.01958 0.073081 0.20121-0.053911 0.0075 0.028111-0.20121 0.053911 0.02397 0.089442 0.21508-0.057631 0.0075 0.028111-0.27225 0.072951z"/>
   <path d="m4.7117 6.6759 0.0087 0.032571q-0.034981-3.71e-4 -0.065041 0.0029-0.030061 0.0033-0.056951 0.01047-0.046691 0.01251-0.069331 0.029921-0.02235 0.01733-0.01712 0.036841 0.0044 0.01637 0.023341 0.02033 0.01919 0.0037 0.067541-0.0037l0.035631-0.0051q0.065861-0.01003 0.10097-1.2e-4 0.035351 0.0097 0.043411 0.039761 0.0096 0.035881-0.026741 0.065461-0.036071 0.029511-0.11559 0.050821-0.03 8e-3 -0.065021 0.01317-0.034741 0.0051-0.073051 7e-3l-0.0092-0.034391q0.037871 0.0021 0.072812-0.0011t0.067201-0.01181q0.048961-0.01312 0.072551-0.031491 0.023591-0.01837 0.01801-0.039201-0.0049-0.01819-0.02686-0.023281-0.021711-0.0052-0.066661 0.0014l-0.035871 0.0054q-0.065951 0.0097-0.098792 0.0015t-0.040411-0.036481q-0.0088-0.032741 0.02551-0.062121 0.034571-0.02946 0.1039-0.048041 0.029711-8e-3 0.061401-0.01309 0.031691-0.0051 0.065631-0.0075z"/>
   <path d="m5.0797 6.5769 0.0087 0.032571q-0.034981-3.71e-4 -0.065041 0.0029-0.030061 0.0033-0.056951 0.01047-0.046691 0.01251-0.069331 0.029921-0.02235 0.01733-0.01712 0.036841 0.0044 0.01637 0.02334 0.02032 0.01919 0.0037 0.067541-0.0037l0.035631-0.0051q0.065861-0.01003 0.10097-1.2e-4 0.035351 0.0097 0.043411 0.039761 0.0096 0.035881-0.026741 0.065461-0.036071 0.029511-0.11559 0.050821-0.030001 8e-3 -0.065021 0.01317-0.034741 0.0051-0.073051 7e-3l-0.0092-0.034391q0.037871 0.0021 0.072811-0.0011 0.034941-0.0032 0.067201-0.01181 0.048961-0.01312 0.072551-0.031491 0.02359-0.01837 0.01801-0.039201-0.0049-0.01819-0.02686-0.02328-0.02171-0.0052-0.066661 0.0014l-0.035871 0.0054q-0.065951 0.0097-0.098792 0.0015t-0.040411-0.036491q-0.0088-0.032741 0.02551-0.062121 0.034571-0.029461 0.1039-0.048041 0.029721-8e-3 0.061401-0.01309 0.031691-0.0051 0.065631-0.0075z"/>
  </g>
  <path d="m12.189 8.367s0.05148 2.96-2.5613 4.3664c-2.1586 1.1619 0.90254 2.5858-5.6347 4.903 8.5105-2.4758 8.2636-9.2355 8.2636-9.2355z" fill="url(#linearGradient938)" stroke-width=".96158"/>
 </g>
</svg>
