<?xml version="1.0" encoding="UTF-8" standalone="no"?>
<svg
   xmlns:dc="http://purl.org/dc/elements/1.1/"
   xmlns:cc="http://creativecommons.org/ns#"
   xmlns:rdf="http://www.w3.org/1999/02/22-rdf-syntax-ns#"
   xmlns:svg="http://www.w3.org/2000/svg"
   xmlns="http://www.w3.org/2000/svg"
   xmlns:xlink="http://www.w3.org/1999/xlink"
   xmlns:sodipodi="http://sodipodi.sourceforge.net/DTD/sodipodi-0.dtd"
   xmlns:inkscape="http://www.inkscape.org/namespaces/inkscape"
   id="Flamingo"
   width="64"
   height="64"
   enable-background="new 0 0 1024 1024"
   image-rendering="optimizeSpeed"
   version="1.1"
   viewBox="0 0 64 64"
   sodipodi:docname="carla-control.svg"
   inkscape:version="0.92.5 (6c0c36ef5a, 2020-05-15, custom)">
  <metadata
     id="metadata94">
    <rdf:RDF>
      <cc:Work
         rdf:about="">
        <dc:format>image/svg+xml</dc:format>
        <dc:type
           rdf:resource="http://purl.org/dc/dcmitype/StillImage" />
        <dc:title></dc:title>
      </cc:Work>
    </rdf:RDF>
  </metadata>
  <sodipodi:namedview
     pagecolor="#ffffff"
     bordercolor="#666666"
     borderopacity="1"
     objecttolerance="10"
     gridtolerance="10"
     guidetolerance="10"
     inkscape:pageopacity="0"
     inkscape:pageshadow="2"
     inkscape:window-width="1920"
     inkscape:window-height="932"
     id="namedview92"
     showgrid="false"
     inkscape:zoom="3.6875"
     inkscape:cx="-19.341725"
     inkscape:cy="34.866354"
     inkscape:window-x="0"
     inkscape:window-y="36"
     inkscape:window-maximized="1"
     inkscape:current-layer="Flamingo" />
  <defs
     id="defs47">
    <linearGradient
       id="b">
      <stop
         stop-color="#3af63a"
         offset="0"
         id="stop2" />
      <stop
         stop-color="#3af68b"
         offset="1"
         id="stop4" />
    </linearGradient>
    <linearGradient
       id="a">
      <stop
         stop-color="#a2a2a2"
         offset="0"
         id="stop7" />
      <stop
         stop-color="#d0d0d0"
         offset="1"
         id="stop9" />
    </linearGradient>
    <filter
       id="d"
       x="-.036"
       y="-.036"
       width="1.072"
       height="1.072"
       color-interpolation-filters="sRGB">
      <feGaussianBlur
         stdDeviation="14.16"
         id="feGaussianBlur12" />
    </filter>
    <linearGradient
       id="g"
       x1="32"
       x2="32"
       y1="16"
       y2="48"
       gradientUnits="userSpaceOnUse"
       gradientTransform="translate(8.1857659,-4.7920084)">
      <stop
         stop-color="#333"
         offset="0"
         id="stop15" />
      <stop
         stop-color="#484848"
         offset="1"
         id="stop17" />
    </linearGradient>
    <linearGradient
       id="f"
       x1="32"
       x2="32"
       y1="40"
       y2="45.333"
       gradientTransform="matrix(1.125,0,0,1.125,-78,-25.592)"
       gradientUnits="userSpaceOnUse"
       xlink:href="#a" />
    <linearGradient
       id="e"
       x1="32"
       x2="32"
       y1="40"
       y2="45.333"
       gradientTransform="matrix(1.125,0,0,1.125,-78,-15.999)"
       gradientUnits="userSpaceOnUse"
       xlink:href="#a" />
    <linearGradient
       id="c"
       x1="32"
       x2="32"
       y1="40"
       y2="45.333"
       gradientTransform="matrix(1.125,0,0,1.125,-78,-6.9994)"
       gradientUnits="userSpaceOnUse"
       xlink:href="#a" />
    <filter
       id="m"
       x="-.06"
       y="-.06"
       width="1.12"
       height="1.12"
       color-interpolation-filters="sRGB">
      <feGaussianBlur
         stdDeviation="0.8"
         id="feGaussianBlur23" />
    </filter>
    <filter
       id="l"
       x="-.06"
       y="-.06"
       width="1.12"
       height="1.12"
       color-interpolation-filters="sRGB">
      <feGaussianBlur
         stdDeviation="0.14999813"
         id="feGaussianBlur26" />
    </filter>
    <filter
       id="o"
       x="-.06"
       y="-.06"
       width="1.12"
       height="1.12"
       color-interpolation-filters="sRGB">
      <feGaussianBlur
         stdDeviation="0.14999813"
         id="feGaussianBlur29" />
    </filter>
    <filter
       id="n"
       x="-.06"
       y="-.06"
       width="1.12"
       height="1.12"
       color-interpolation-filters="sRGB">
      <feGaussianBlur
         stdDeviation="0.14999813"
         id="feGaussianBlur32" />
    </filter>
    <linearGradient
       id="k"
       x1="23.5"
       x2="23.5"
       y1="20"
       y2="36"
       gradientUnits="userSpaceOnUse"
       xlink:href="#b"
       gradientTransform="translate(8.1857659,-4.7920084)" />
    <linearGradient
       id="j"
       x1="32"
       x2="32"
       y1="30"
       y2="36"
       gradientUnits="userSpaceOnUse"
       xlink:href="#b"
       gradientTransform="translate(8.1857659,-4.7920084)" />
    <linearGradient
       id="i"
       x1="40.5"
       x2="40.5"
       y1="26"
       y2="36"
       gradientUnits="userSpaceOnUse"
       gradientTransform="translate(8.1857659,-4.7920084)">
      <stop
         stop-color="#0ef1c9"
         offset="0"
         id="stop37" />
      <stop
         stop-color="#0e95f1"
         offset="1"
         id="stop39" />
    </linearGradient>
    <linearGradient
       id="h"
       x1="32"
       x2="32"
       y1="2"
       y2="62"
       gradientUnits="userSpaceOnUse"
       gradientTransform="translate(54.101695,-8)">
      <stop
         stop-color="#999"
         offset="0"
         id="stop42" />
      <stop
         stop-color="#bebebe"
         offset="1"
         id="stop44" />
    </linearGradient>
    <style
       id="style906"
       type="text/css" />
    <linearGradient
       gradientUnits="userSpaceOnUse"
       gradientTransform="matrix(0.99241,0.12302,-0.12302,0.99241,424.5,39.144)"
       y2="60.157"
       y1="60.157"
       x2="-369.54"
       x1="-409.54"
       id="linearGradient1670">
      <stop
         id="stop908"
         offset="0"
         stop-color="#e3e9f2" />
      <stop
         id="stop910"
         offset="1"
         stop-color="#dee6f0" />
    </linearGradient>
  </defs>
  <ellipse
     cx="22.667"
     cy="42.667"
     r="2.6667"
     fill="#b0b0b0"
     stroke-width="1.3333"
     style="paint-order:normal"
     id="ellipse69" />
  <text
     x="-0.11241045"
     y="16.954878"
     id="text917">
    <tspan
       x="-0.11241045"
       y="16.954878"
       id="tspan915" />
  </text>
  <g
     style="fill:#5e4aa6;stroke-width:0.26458001"
     transform="matrix(3.7796,0,0,3.7796,0.01893545,-0.0012367)"
     id="g927">
    <circle
       cx="-330.35001"
       cy="-328.38"
       r="0"
       id="circle919" />
    <circle
       style="fill-rule:evenodd"
       cx="-39.433998"
       cy="6.4400001"
       r="0"
       id="circle921" />
    <circle
       cx="-330.38"
       cy="-328.5"
       r="0"
       id="circle923" />
    <circle
       cx="-301.70001"
       cy="-344.42999"
       r="0"
       id="circle925" />
  </g>
  <g
     id="g935"
     transform="translate(-3.1055363e-4,5.6985853e-6)">
    <rect
       style="fill:#343434;fill-opacity:1"
       x="8.3113003"
       y="4.5093999"
       width="40"
       height="55"
       ry="3.4926"
       id="rect929" />
    <path
       style="fill:url(#linearGradient1670)"
       inkscape:connector-curvature="0"
       d="m 19.152,2.6602 c -1.6221,0.12593 -2.9792,1.3725 -3.1875,3.0527 l -4.2617,34.385 h 0.002 l -1.6445,13.268 c -0.23803,1.9202 1.1148,3.6584 3.0352,3.8965 l 32.766,4.0605 c 1.9202,0.23803 3.6565,-1.1148 3.8945,-3.0352 l 1.6445,-13.27 h -0.002 l 4.2637,-34.383 C 55.90023,8.7145 54.5453,6.9763 52.6251,6.7382 L 19.8611,2.6777 C 19.62107,2.647946 19.38385,2.642133 19.15212,2.660122 Z"
       id="path931" />
    <circle
       style="fill:#5e4aa6"
       cx="-1274.8"
       cy="-1318.1"
       r="0"
       id="circle933" />
  </g>
  <g
     style="fill:#5e4aa6;stroke-width:0.26458001;image-rendering:optimizeSpeed"
     transform="matrix(3.7796,0,0,3.7796,-112.84031,-73.604994)"
     id="g945">
    <circle
       cx="-330.35001"
       cy="-328.38"
       r="0"
       id="circle937" />
    <circle
       cx="-312.10999"
       cy="-326.25"
       r="0"
       id="circle939" />
    <circle
       cx="-306.01999"
       cy="-333.07001"
       r="0"
       id="circle941" />
    <circle
       cx="-308.84"
       cy="-326.01001"
       r="0"
       id="circle943" />
  </g>
  <g
     id="g1139"
     transform="translate(-3.661017)">
    <rect
       transform="rotate(7.1527765)"
       x="24.185766"
       y="11.207992"
       width="32"
       height="32"
       rx="2.6666999"
       style="fill:url(#g);stroke-width:1.33329999;paint-order:normal"
       id="rect55" />
    <g
       transform="rotate(7.1527765,34.242605,67.881142)"
       id="g65"
       style="stroke-width:1.5">
      <circle
         id="circle59"
         style="opacity:0.15;paint-order:normal;filter:url(#n)"
         r="3"
         cy="41"
         cx="-42"
         transform="rotate(-90)" />
      <circle
         id="circle61"
         style="opacity:0.15;paint-order:normal;filter:url(#o)"
         r="3"
         cy="32"
         cx="-42"
         transform="rotate(-90)" />
      <circle
         id="circle63"
         style="opacity:0.15;paint-order:normal;filter:url(#l)"
         r="3"
         cy="22.407"
         cx="-42"
         transform="rotate(-90)" />
    </g>
    <rect
       transform="rotate(7.1527765)"
       id="rect67"
       style="fill:#202020;stroke-width:1.29279995;paint-order:normal"
       ry="1"
       height="18"
       width="26"
       y="14.207992"
       x="27.185766" />
    <rect
       transform="rotate(7.1527765)"
       id="rect71"
       style="fill:url(#k);stroke-width:1.29100001;paint-order:normal"
       height="16"
       width="5"
       y="15.207992"
       x="29.185766" />
    <rect
       transform="rotate(7.1527765)"
       id="rect73"
       style="fill:url(#j);stroke-width:1.5;paint-order:normal"
       height="6"
       width="6"
       y="25.207993"
       x="37.185764" />
    <rect
       transform="rotate(7.1527765)"
       id="rect75"
       style="fill:url(#i);stroke-width:1.33630002;paint-order:normal"
       height="10"
       width="5"
       y="21.207993"
       x="46.185764" />
    <g
       transform="rotate(7.1527765,34.242605,67.881142)"
       id="g89"
       style="stroke-width:1.5">
      <circle
         id="circle77"
         style="fill:url(#e);paint-order:normal"
         r="3"
         cy="32"
         cx="-42"
         transform="rotate(-90)" />
      <path
         id="path79"
         style="opacity:0.25;paint-order:normal"
         d="m 35,42 a 3,3 0 0 0 -0.40722,-1.5 h -2.5927 a 1.5,1.5 0 0 0 -1.5,1.5 1.5,1.5 0 0 0 1.5,1.5 h 2.5957 A 3,3 0 0 0 35.00007,42 Z"
         inkscape:connector-curvature="0" />
      <circle
         id="circle81"
         style="fill:url(#f);paint-order:normal"
         r="3"
         cy="22.407"
         cx="-42"
         transform="rotate(-90)" />
      <path
         id="path83"
         style="opacity:0.25;paint-order:normal"
         d="m 22.407,39 a 3,3 0 0 0 -1.5,0.40722 v 2.5927 a 1.5,1.5 0 0 0 1.5,1.5 1.5,1.5 0 0 0 1.5,-1.5 v -2.5957 a 3,3 0 0 0 -1.5,-0.40429 z"
         inkscape:connector-curvature="0" />
      <circle
         id="circle85"
         style="fill:url(#c);paint-order:normal"
         r="3"
         cy="41"
         cx="-42"
         transform="rotate(-90)" />
      <path
         id="path87"
         style="opacity:0.25;paint-order:normal"
         d="m 41,45 a 3,3 0 0 0 1.5,-0.40722 v -2.5927 a 1.5,1.5 0 0 0 -1.5,-1.5 1.5,1.5 0 0 0 -1.5,1.5 v 2.5957 a 3,3 0 0 0 1.5,0.40429 z"
         inkscape:connector-curvature="0" />
    </g>
  </g>
</svg>
