<?xml version="1.0" encoding="UTF-8"?>
<!-- Created with Inkscape (http://www.inkscape.org/) -->
<svg width="64" height="64" version="1.1" viewBox="0 0 16.933 16.933" xmlns="http://www.w3.org/2000/svg" xmlns:xlink="http://www.w3.org/1999/xlink">
 <defs>
  <linearGradient id="linearGradient1159-3" x1="-184.75" x2="-170.2" y1="-1.2655" y2="-15.817" gradientTransform="matrix(1 0 0 1 185.69 16.354)" gradientUnits="userSpaceOnUse">
   <stop stop-color="#dae3ed" offset="0"/>
   <stop stop-color="#dae3ed" offset="1"/>
  </linearGradient>
  <linearGradient id="linearGradient2136" x1="-184.75" x2="-170.2" y1="-1.2655" y2="-15.817" gradientTransform="matrix(1 0 0 1 185.69 16.354)" gradientUnits="userSpaceOnUse">
   <stop stop-color="#05a0f0" offset="0"/>
   <stop stop-color="#2db4f0" offset="1"/>
  </linearGradient>
  <linearGradient id="linearGradient1610" x1="-65.81" x2="-45.81" y1="177.54" y2="177.54" gradientTransform="matrix(.086537 -.067089 .077837 .075489 -5.4896 -7.9097)" gradientUnits="userSpaceOnUse" xlink:href="#linearGradient4160"/>
  <linearGradient id="linearGradient4160">
   <stop stop-color="#ffd765" offset="0"/>
   <stop stop-color="#ffd765" offset=".82176"/>
   <stop stop-color="#ffe758" offset="1"/>
  </linearGradient>
  <linearGradient id="linearGradient1612" x1="-45.695" x2="-65.754" y1="176.61" y2="176.46" gradientTransform="matrix(.086537 -.067089 .077837 .075489 -5.4896 -7.9097)" gradientUnits="userSpaceOnUse" xlink:href="#linearGradient4160-3"/>
  <linearGradient id="linearGradient4160-3">
   <stop stop-color="#ffd765" stop-opacity="0" offset="0"/>
   <stop stop-color="#ffd765" stop-opacity="0" offset=".82176"/>
   <stop stop-color="#ffe758" offset="1"/>
  </linearGradient>
  <linearGradient id="linearGradient1614" x1="-65.81" x2="-45.81" y1="177.54" y2="177.54" gradientTransform="matrix(.086537 -.067089 .077837 .075489 5.0824 -7.6881)" gradientUnits="userSpaceOnUse" xlink:href="#linearGradient4160"/>
  <linearGradient id="linearGradient1616" x1="-45.695" x2="-65.754" y1="176.61" y2="176.46" gradientTransform="matrix(.086537 -.067089 .077837 .075489 5.0824 -7.6881)" gradientUnits="userSpaceOnUse" xlink:href="#linearGradient4160-3"/>
  <linearGradient id="linearGradient1618" x1="-65.81" x2="-45.81" y1="177.54" y2="177.54" gradientTransform="matrix(.086537 -.067089 .077837 .075489 -.20364 -7.7989)" gradientUnits="userSpaceOnUse" xlink:href="#linearGradient4160"/>
  <linearGradient id="linearGradient1620" x1="-45.695" x2="-65.754" y1="176.61" y2="176.46" gradientTransform="matrix(.086537 -.067089 .077837 .075489 -.20364 -7.7989)" gradientUnits="userSpaceOnUse" xlink:href="#linearGradient4160-3"/>
  <linearGradient id="linearGradient1622" x1="53.033" x2="59.933" y1="168.63" y2="168.63" gradientTransform="matrix(.1164 0 0 .10098 -5.6542 -7.7929)" gradientUnits="userSpaceOnUse" xlink:href="#linearGradient4248"/>
  <linearGradient id="linearGradient4248">
   <stop stop-color="#f9fff3" stop-opacity="0" offset="0"/>
   <stop stop-color="#f9fff3" stop-opacity=".43137" offset=".26591"/>
   <stop stop-color="#f9fffa" stop-opacity=".54902" offset=".44318"/>
   <stop stop-color="#f9fff3" stop-opacity="0" offset="1"/>
  </linearGradient>
  <linearGradient id="linearGradient1624" x1="53.033" x2="59.933" y1="168.63" y2="168.63" gradientTransform="matrix(.1164 0 0 .10098 -22.443 -7.7929)" gradientUnits="userSpaceOnUse" xlink:href="#linearGradient4248"/>
  <linearGradient id="linearGradient1626" x1="107.38" x2="120.33" y1="121.89" y2="171.03" gradientTransform="matrix(.11637 .0024391 -.0021161 .10096 -5.4896 -7.9097)" gradientUnits="userSpaceOnUse">
   <stop stop-color="#fff" offset="0"/>
   <stop stop-color="#fff" stop-opacity="0" offset="1"/>
  </linearGradient>
  <linearGradient id="linearGradient1628" x1="262.66" x2="265.69" y1="19.845" y2="48.658" gradientTransform="matrix(.11685 0 0 .11685 -23.204 -1.0799)" gradientUnits="userSpaceOnUse">
   <stop stop-color="#f1f1f1" offset="0"/>
   <stop stop-color="#e1e1e1" offset="1"/>
  </linearGradient>
  <linearGradient id="linearGradient1630" x1="88.098" x2="87.862" y1="44.507" y2="30.558" gradientTransform="matrix(.11685 0 0 .11685 -7.8814 -.67961)" gradientUnits="userSpaceOnUse">
   <stop stop-color="#ffbdb4" offset="0"/>
   <stop stop-color="#e78074" offset=".30351"/>
   <stop stop-color="#d4604f" offset=".73507"/>
   <stop stop-color="#efdbdb" offset="1"/>
  </linearGradient>
  <linearGradient id="linearGradient1632" x1="88.098" x2="87.862" y1="44.507" y2="30.558" gradientTransform="matrix(.11685 0 0 .11685 -7.8814 -.67961)" gradientUnits="userSpaceOnUse">
   <stop stop-color="#ad7065" offset="0"/>
   <stop stop-color="#1e1f1f" offset="1"/>
  </linearGradient>
  <linearGradient id="linearGradient1634" x1="87.681" x2="87.681" y1="44.959" y2="31.101" gradientTransform="matrix(.11685 0 0 .11685 -5.1896 -1.0083)" gradientUnits="userSpaceOnUse">
   <stop stop-color="#fefda3" offset="0"/>
   <stop stop-color="#fcd46c" offset=".30351"/>
   <stop stop-color="#f0ae33" offset=".73507"/>
   <stop stop-color="#efdbdb" offset="1"/>
  </linearGradient>
  <linearGradient id="linearGradient1636" x1="115.05" x2="115.05" y1="42.01" y2="28.708" gradientTransform="matrix(.11685 0 0 .11685 -8.0736 -.77327)" gradientUnits="userSpaceOnUse">
   <stop stop-color="#a19b41" offset="0"/>
   <stop stop-color="#0d0404" offset="1"/>
  </linearGradient>
  <linearGradient id="linearGradient1638" x1="87.681" x2="87.681" y1="44.959" y2="31.101" gradientTransform="matrix(.11685 0 0 .11685 -2.4722 -1.3361)" gradientUnits="userSpaceOnUse">
   <stop stop-color="#dff3a2" offset="0"/>
   <stop stop-color="#a8d865" offset=".30351"/>
   <stop stop-color="#88bf39" offset=".73507"/>
   <stop stop-color="#def1c7" offset="1"/>
  </linearGradient>
  <linearGradient id="linearGradient1640" x1="115.05" x2="115.05" y1="42.01" y2="28.708" gradientTransform="matrix(.11685 0 0 .11685 -5.3562 -1.101)" gradientUnits="userSpaceOnUse">
   <stop stop-color="#89a25a" offset="0"/>
   <stop stop-color="#58535b" offset="1"/>
  </linearGradient>
  <filter id="filter7609-1" x="-.063962" y="-.056499" width="1.1279" height="1.113" color-interpolation-filters="sRGB">
   <feGaussianBlur stdDeviation="2.1746765"/>
  </filter>
  <linearGradient id="linearGradient1642" x1="372.07" x2="387.12" y1="947" y2="947" gradientTransform="matrix(-.059715 -.033492 -.034477 .058009 65.636 -34.137)" gradientUnits="userSpaceOnUse">
   <stop stop-color="#828398" offset="0"/>
   <stop stop-color="#4f4e50" offset=".050132"/>
   <stop stop-color="#e8e5eb" offset=".14024"/>
   <stop stop-color="#e9d3d9" stop-opacity=".94118" offset=".23171"/>
   <stop stop-color="#c4c2c7" offset=".7622"/>
   <stop stop-color="#f4f1fa" offset=".86999"/>
   <stop stop-color="#b8b8bf" offset=".9341"/>
   <stop stop-color="#c1bfcc" offset="1"/>
  </linearGradient>
  <linearGradient id="linearGradient1644" x1="368.21" x2="394.83" y1="1019" y2="1018.6" gradientTransform="matrix(-.059715 -.033492 -.034477 .058009 65.636 -34.137)" gradientUnits="userSpaceOnUse">
   <stop stop-color="#130804" offset="0"/>
   <stop stop-color="#0f0704" offset=".16971"/>
   <stop stop-color="#323033" offset=".23766"/>
   <stop stop-color="#323033" offset=".71843"/>
   <stop stop-color="#141215" offset=".84822"/>
   <stop stop-color="#00010e" offset="1"/>
  </linearGradient>
  <linearGradient id="linearGradient1646" x1="367.85" x2="372.25" y1="904.78" y2="918" gradientTransform="matrix(-.059715 -.033492 -.034477 .058009 65.636 -34.137)" gradientUnits="userSpaceOnUse">
   <stop stop-color="#2d2d39" offset="0"/>
   <stop stop-color="#acabb0" offset="1"/>
  </linearGradient>
  <linearGradient id="linearGradient1648" x1="389.51" x2="414.06" y1="902.21" y2="908.79" gradientTransform="matrix(-.059715 -.033492 -.034477 .058009 65.636 -34.137)" gradientUnits="userSpaceOnUse">
   <stop stop-color="#59585d" offset="0"/>
   <stop stop-color="#010103" offset=".19258"/>
   <stop stop-color="#5b5b5d" offset=".54332"/>
   <stop stop-color="#171719" offset="1"/>
  </linearGradient>
  <linearGradient id="linearGradient1650" x1="-353.82" x2="-353.82" y1="903.4" y2="883.11" gradientTransform="matrix(.059715 .033492 -.034477 .058009 65.636 -34.137)" gradientUnits="userSpaceOnUse">
   <stop stop-color="#202024" offset="0"/>
   <stop stop-color="#919095" offset=".33685"/>
   <stop stop-color="#4e4d51" offset=".53882"/>
   <stop stop-color="#cfcfd1" offset=".69465"/>
   <stop stop-color="#69696b" offset="1"/>
  </linearGradient>
  <linearGradient id="linearGradient1652" x1="338.85" x2="338.85" y1="903.66" y2="883.86" gradientTransform="matrix(.068466 0 0 .067481 -38.994 -61.901)" gradientUnits="userSpaceOnUse">
   <stop stop-color="#181820" offset="0"/>
   <stop stop-color="#86858a" offset=".035115"/>
   <stop stop-color="#7a797e" offset=".14091"/>
   <stop stop-color="#2f2e33" offset=".19626"/>
   <stop stop-color="#414045" offset=".33305"/>
   <stop stop-color="#545358" offset=".43142"/>
   <stop stop-color="#ebeaf0" offset=".56075"/>
   <stop stop-color="#abaaaf" offset=".69159"/>
   <stop stop-color="#d7d6dc" offset=".85981"/>
   <stop stop-color="#66656a" offset="1"/>
  </linearGradient>
  <linearGradient id="linearGradient1654" x1="367.85" x2="415.57" y1="-67.365" y2="-50.845" gradientTransform="matrix(-.059715 -.033492 -.034477 .058009 32.664 21.34)" gradientUnits="userSpaceOnUse">
   <stop stop-color="#c7c6cb" offset="0"/>
   <stop stop-color="#fcfcfd" offset=".54332"/>
   <stop stop-color="#d8d8da" offset="1"/>
  </linearGradient>
  <filter id="filter5913-8" x="-.019943" y="-.13645" width="1.0399" height="1.2729" color-interpolation-filters="sRGB">
   <feGaussianBlur stdDeviation="0.19828681"/>
  </filter>
 </defs>
 <g transform="translate(.26785 .40603)">
  <rect x=".92268" y=".53544" width="14.552" height="14.552" ry="1.2138" fill="url(#linearGradient1159-3)"/>
  <path d="m0.92278 5.9043v7.9695c0 0.67246 0.54142 1.2139 1.2139 1.2139h12.124c0.67246 0 1.2139-0.54142 1.2139-1.2139v-7.9695z" fill="url(#linearGradient2136)"/>
  <rect transform="rotate(1.2007)" x=".51931" y="7.4192" width="15.761" height="3.5925" rx=".33871" ry=".19704" fill-opacity=".099237" style="paint-order:fill markers stroke"/>
  <g>
   <rect transform="rotate(1.2007)" x=".48395" y="7.6627" width="15.792" height="3.1468" rx=".33871" ry=".19704" fill="#51534f" style="paint-order:fill markers stroke"/>
   <path d="m0.66182 7.6783c-0.10403-0.00217-0.19608 0.023622-0.259 0.065l3.2429 3.1449 3.183 0.066714-3.3171-3.2169z" fill="url(#linearGradient1610)" style="paint-order:fill markers stroke"/>
   <path d="m0.66182 7.6783c-0.10403-0.00217-0.19608 0.023622-0.259 0.065l3.2429 3.1449 3.183 0.066714-3.3171-3.2169z" fill="url(#linearGradient1612)" style="paint-order:fill markers stroke"/>
   <path d="m10.901 7.8929 3.3169 3.2169 1.4894 0.03122c0.18761 0.0039 0.34051-0.08076 0.34279-0.1899l0.02228-1.0631-1.9884-1.9285z" fill="url(#linearGradient1614)" style="paint-order:fill markers stroke"/>
   <path d="m10.901 7.8929 3.3169 3.2169 1.4894 0.03122c0.18761 0.0039 0.34051-0.08076 0.34279-0.1899l0.02228-1.0631-1.9884-1.9285z" fill="url(#linearGradient1616)" style="paint-order:fill markers stroke"/>
   <path d="m5.6148 7.7821 3.3169 3.2169 3.183 0.066715-3.3171-3.2169z" fill="url(#linearGradient1618)" style="paint-order:fill markers stroke"/>
   <path d="m5.6148 7.7821 3.3169 3.2169 3.183 0.066715-3.3171-3.2169z" fill="url(#linearGradient1620)" style="paint-order:fill markers stroke"/>
  </g>
  <path d="m15.916 8.017-0.05735 2.7364c-0.0023 0.10913-0.15519 0.19383-0.3428 0.1899l-15.111-0.31672c-0.051531-0.0011-0.099633-0.0091-0.14302-0.02194l-3.2543e-4 0.01558c-0.002289 0.10913 0.14693 0.20016 0.33454 0.20409l15.111 0.31672c0.18761 0.0039 0.34051-0.08076 0.34279-0.1899l0.05768-2.752c0.0017-0.079158-0.07693-0.14838-0.19151-0.18216z" fill-opacity=".087786" style="paint-order:fill markers stroke"/>
  <g>
   <rect transform="rotate(1.2007)" x=".48395" y="7.6627" width=".9496" height="3.1468" rx=".18195" ry=".19704" fill="url(#linearGradient1622)" style="paint-order:fill markers stroke"/>
   <rect transform="matrix(-.99978 -.020955 -.020955 .99978 0 0)" x="-16.305" y="7.6627" width=".9496" height="3.1468" rx=".18195" ry=".19704" fill="url(#linearGradient1624)" style="paint-order:fill markers stroke"/>
   <path d="m15.767 8.2612c0.18761 0.00393 0.34238-0.17125 0.34009-0.062115l-0.05768 2.7521c-0.0023 0.10913-0.15516 0.19383-0.34277 0.18989l-15.111-0.31672c-0.18761-0.0039-0.3368-0.09496-0.33451-0.20409l0.052103-2.4859z" fill="url(#linearGradient1626)" style="paint-order:fill markers stroke"/>
  </g>
  <g fill="none" stroke="#000" stroke-linecap="round" stroke-linejoin="round">
   <path d="m1.0176 2.0374c-0.22694 0.02626-0.41275 0.1642-0.50921 0.35268-0.057204 0.11177-0.082985 0.24131-0.067282 0.37588l0.11477 0.98358 0.054306 0.46538 0.13222 1.0249c0.024101 0.18683 0.19005 0.32001 0.37717 0.29835l14.54-1.6832c0.18713-0.021661 0.32245-0.19035 0.29835-0.37718l-0.13222-1.0249-0.054306-0.46538-0.11478-0.98359c-0.042179-0.36147-0.36702-0.6181-0.72853-0.57627z" stroke-opacity=".019084" stroke-width=".35055" style="paint-order:fill markers stroke"/>
   <path d="m1.0176 2.0374c-0.22694 0.02626-0.41275 0.1642-0.50921 0.35268-0.057204 0.11177-0.082985 0.24131-0.067282 0.37588l0.11477 0.98358 0.054306 0.46538 0.13222 1.0249c0.024101 0.18683 0.19005 0.32001 0.37717 0.29835l14.54-1.6832c0.18713-0.021661 0.32245-0.19035 0.29835-0.37718l-0.13222-1.0249-0.054306-0.46538-0.11478-0.98359c-0.042179-0.36147-0.36702-0.6181-0.72853-0.57627z" stroke-opacity=".019084" stroke-width=".2337" style="paint-order:fill markers stroke"/>
   <path d="m1.0176 2.0374c-0.22694 0.02626-0.41275 0.1642-0.50921 0.35268-0.057204 0.11177-0.082985 0.24131-0.067282 0.37588l0.11477 0.98358 0.054306 0.46538 0.13222 1.0249c0.024101 0.18683 0.19005 0.32001 0.37717 0.29835l14.54-1.6832c0.18713-0.021661 0.32245-0.19035 0.29835-0.37718l-0.13222-1.0249-0.054306-0.46538-0.11478-0.98359c-0.042179-0.36147-0.36702-0.6181-0.72853-0.57627z" stroke-opacity=".19084" stroke-width=".11685" style="paint-order:fill markers stroke"/>
  </g>
  <path d="m1.0176 2.0374c-0.36151 0.041834-0.61868 0.36708-0.5765 0.72855l0.11477 0.98358 0.054306 0.46538 0.13222 1.0249c0.024101 0.18683 0.19005 0.32001 0.37717 0.29835l14.54-1.6832c0.18713-0.021661 0.32245-0.19035 0.29835-0.37718l-0.13222-1.0249-0.054306-0.46538-0.11478-0.98359c-0.042179-0.36147-0.36702-0.6181-0.72853-0.57627z" fill="url(#linearGradient1628)" style="paint-order:fill markers stroke"/>
  <path d="m15.018 0.38598-13.939 1.6377c-0.39896 0.046876-0.64566 0.40635-0.63834 0.79946a0.070117 0.070117 0 0 0 4.736e-4 0.00731l0.28733 2.3199a0.070117 0.070117 0 0 0 6.985e-4 0.00434c0.040651 0.21625 0.22948 0.38166 0.45416 0.35511l14.358-1.6973c0.22461-0.026549 0.36183-0.23074 0.36036-0.44732a0.070117 0.070117 0 0 0-5.03e-4 -0.00639l-0.21725-2.1937a0.070117 0.070117 0 0 0-2.34e-4 -0.00137c-0.022118-0.18951-0.080104-0.38819-0.18646-0.54134-0.10636-0.15315-0.27246-0.26079-0.47973-0.23644zm0.01643 0.13922c0.15418-0.018115 0.26106 0.051848 0.34804 0.1771 0.08698 0.12525 0.14243 0.30571 0.1625 0.47767l0.21658 2.1866c7.4e-4 0.15991-0.08685 0.28908-0.23621 0.30673l-14.358 1.6973c-0.14936 0.017655-0.27059-0.087633-0.29966-0.24146l-0.28619-2.3103c-0.0054459-0.33378 0.19111-0.61793 0.51442-0.65591z" color="#000000" color-rendering="auto" fill="#fff" fill-opacity=".36641" image-rendering="auto" shape-rendering="auto" solid-color="#000000" style="isolation:auto;mix-blend-mode:normal;paint-order:fill markers stroke;text-decoration-color:#000000;text-decoration-line:none;text-decoration-style:solid;text-indent:0;text-transform:none;white-space:normal"/>
  <g stroke-linecap="round" stroke-linejoin="round" stroke-width=".1519">
   <circle cx="2.3691" cy="3.7135" r=".86727" fill="url(#linearGradient1630)" stroke="url(#linearGradient1632)" style="paint-order:fill markers stroke"/>
   <circle cx="5.0609" cy="3.3849" r=".86727" fill="url(#linearGradient1634)" stroke="url(#linearGradient1636)" style="paint-order:fill markers stroke"/>
   <circle cx="7.7783" cy="3.0571" r=".86727" fill="url(#linearGradient1638)" stroke="url(#linearGradient1640)" style="paint-order:fill markers stroke"/>
  </g>
  <path transform="matrix(-.11821 0 0 .11484 17.016 -106.05)" d="m53.506 964.15c-8.5815 5e-3 -14.725 2.8175-22.666 7.4023-2.3169 6.0341-5.0575 7.0237-11.129 7.0098l-5.3105 3.0664c1.584 4.457 2.1764 5.6943 5.9062 10.229l5.3105-3.0664c2.2821-3.8368 5.2839-7.8115 11.715-5.0312l-0.0039-0.01c5.714 0.059 7.1941 5.1096 7.2031 5.1406v6e-3h2e-3c8e-6 0 0.0019 2e-3 2e-3 2e-3 0.0061 2e-3 0.51592 0.17507 0.75977 0.25977l8.9297 15.467-0.0078 0.012c-0.30448 0.5273-0.09534 1.1335 0.10938 1.6289l10.621 21.502 14.141 24.814s0.9937 2.4668 1.5508 3.4316c0.55711 0.9653 2.5658 0.3223 3.8516 0.033l10.818-6.7421s1.2758-1.2156 0.35938-2.8027c-0.91642-1.5873-2.3906-3.0704-2.3906-3.0704l-11.672-17.863-7.4453-10.539-11.174-14.75c-0.1782-0.1782-0.44453-0.2861-0.75781-0.334l0.03125-0.01-9.7969-14.941 0.05273-0.71875-0.33594-0.50586-0.02539-4e-3c-0.02547-0.033-1.9462-2.5236-2.6484-4.6973-0.70696-2.1881 0.36045-3.9789 4.1621-6.1738 3.8017-2.1949 13.325-1.7583 19.85 0.65625 0.40898 0.16568 0.69373 0.19037 0.85938 0.10547l0.0039 0.0215c0.53296-0.30771 0.36763-0.96926 0.04297-1.6894l0.0098-0.0469-0.03906-0.0234c-0.0024-5e-3 -0.0034-0.0104-0.0059-0.0156l-2e-3 8e-3 -2.2617-1.4258c0.37752 0.11882 0.75506 0.23601 1.1348 0.3711 0.39906 0.17221 0.642 0.20036 0.78516 0.13476l0.0039 0.01c0.0078-5e-3 0.01202-0.0127 0.01953-0.0176 0.02382-0.0136 0.04143-0.0328 0.05859-0.0527 0.45014-0.38741 0.24222-1.3449-0.12305-2.1387l2e-3 -4e-3 -0.0039-2e-3c-0.0023-5e-3 -0.0035-0.0106-0.0059-0.0156l-0.0039 0.01c-2.1271-1.3621-4.8997-2.2578-6.875-2.8008-5.3066-1.2555-9.7107-1.8324-13.611-1.8301zm2.5078 0.52929c0.16996 2e-3 0.35497 0.0157 0.52734 0.0195-0.31102-7e-3 -0.62054-0.0119-0.92383-0.0117 0.13488-9e-5 0.2601-9e-3 0.39648-8e-3zm-1.7617 0.0371c-0.26905 0.01-0.54126 0.0155-0.80469 0.0312 0.26308-0.0157 0.536-0.0213 0.80469-0.0312zm3.7109 0.0391c0.32161 0.0175 0.64621 0.0358 0.97656 0.0605-0.33062-0.0248-0.6547-0.043-0.97656-0.0605zm-6.0039 0.11914c-0.18449 0.0193-0.37462 0.0324-0.55664 0.0547 0.18187-0.0222 0.37231-0.0354 0.55664-0.0547zm8.4902 0.0801c0.34783 0.0361 0.6929 0.0696 1.0508 0.11329-0.35823-0.0438-0.70261-0.0772-1.0508-0.11329zm2.7363 0.34766c0.35214 0.0524 0.6946 0.0969 1.0566 0.15625-0.36271-0.0595-0.70386-0.10379-1.0566-0.15625zm-15.646 0.34961c-0.19406 0.0495-0.3839 0.10904-0.57617 0.16211 0.19226-0.0531 0.38213-0.11259 0.57617-0.16211zm11.885 0.51562c0.07634 2e-3 0.15046 9e-3 0.22656 0.0117-0.45044-0.0148-0.9058-0.0164-1.3633-0.01 0.38051-6e-3 0.7612-0.0112 1.1367-2e-3zm-1.5078 2e-3c0.04331-1e-3 0.08565 1e-3 0.12891 0-0.54932 0.0128-1.1026 0.0399-1.6582 0.0879-1.7 0.14701-3.1086 0.50161-4.2676 1.0059-0.61402 0.26715-1.1389 0.58718-1.6191 0.92969 0.48051-0.34284 1.0046-0.66233 1.6191-0.92969 1.159-0.50426 2.5675-0.85885 4.2676-1.0059 0.51221-0.0443 1.0227-0.0735 1.5293-0.0879zm-12.236 0.0215c-0.21224 0.0683-0.42197 0.14422-0.63281 0.2168 0.21043-0.0724 0.421-0.14861 0.63281-0.2168zm14.357 6e-3c0.4069 0.0184 0.81032 0.0427 1.209 0.0762-0.39843-0.0338-0.80261-0.0575-1.209-0.0762zm1.6035 0.11328c0.39118 0.0377 0.7771 0.0807 1.1582 0.13086-0.38074-0.0503-0.76767-0.0929-1.1582-0.13086zm1.4863 0.17578c0.45009 0.0636 0.89137 0.13326 1.3242 0.21094-0.43161-0.0776-0.87585-0.14736-1.3242-0.21094zm1.3672 0.21875c0.35114 0.0635 0.6833 0.13418 1.0215 0.20508-0.33649-0.0706-0.67244-0.1419-1.0215-0.20508zm-20.582 0.11329c-0.24186 0.0927-0.48349 0.18899-0.72461 0.2871 0.24074-0.0979 0.48313-0.19459 0.72461-0.2871zm22.512 0.30273c0.66171 0.15557 1.2887 0.31221 1.8828 0.48242-0.59033-0.16863-1.2274-0.32832-1.8828-0.48242zm-24.311 0.43945c-0.2348 0.10336-0.46993 0.20617-0.70508 0.31446 0.2347-0.10808 0.47072-0.21129 0.70508-0.31446zm26.789 0.2168c0.60039 0.1818 1.1469 0.35777 1.6543 0.53516-0.50352-0.17512-1.0623-0.35631-1.6543-0.53516zm-28.686 0.66602c-0.18281 0.0899-0.36517 0.17686-0.54883 0.26953 0.18344-0.0926 0.36623-0.17976 0.54883-0.26953zm30.758 0.0137c0.51339 0.18568 0.95358 0.35323 1.3398 0.50976-0.3848-0.15474-0.83703-0.3287-1.3398-0.50976zm-11.291 0.33398c0.3237-8e-3 0.72449 3e-3 1.0898 4e-3 -0.45104-1e-3 -0.91184-5e-3 -1.2988 6e-3 0.0781-2e-3 0.12812-8e-3 0.20898-0.01zm-9.9316 6e-3c-0.13468 0.12365-0.2804 0.24162-0.40234 0.37109 0.12195-0.12954 0.26765-0.24738 0.40234-0.37109zm11.73 0c0.46166 9e-3 0.96688 0.0399 1.4766 0.0684-0.50546-0.0286-1.0182-0.0585-1.4766-0.0684zm-2.4336 0.0234c-0.38238 0.0157-0.76643 0.0318-1.0625 0.0527 0.30734-0.0227 0.65718-0.0356 1.0625-0.0527zm4.8164 0.0976c0.78084 0.0612 1.5892 0.1452 2.4453 0.26563 0.44938 0.0632 0.90554 0.13607 1.3711 0.21875-0.46486-0.0828-0.92234-0.15535-1.3711-0.21875-0.85358-0.12059-1.6664-0.20386-2.4453-0.26563zm8.6719 0.13672c0.48512 0.20024 0.88683 0.37515 1.1016 0.47461l-0.0039 8e-3c-0.1566-0.0749-0.42663-0.20635-1.0977-0.48243zm-33.572 0.0254c-0.93009 0.48324-1.8715 0.99216-2.8438 1.541 0.97178-0.5486 1.9141-1.058 2.8438-1.541zm17.236 0.12305c-0.21084 0.0943-0.45506 0.20638-0.66992 0.33008 0.24239-0.13954 0.44468-0.23125 0.66992-0.33008zm11.535 0.20899c0.4597 0.0823 0.92421 0.17585 1.3965 0.27929-0.47184-0.1035-0.93718-0.19682-1.3965-0.27929zm1.4277 0.28515c0.47727 0.10497 0.95837 0.22288 1.4453 0.35156-0.48602-0.1285-0.96892-0.24662-1.4453-0.35156zm-13.975 0.0762c-0.028 0.0244-0.05751 0.0488-0.07813 0.0723 0.02069-0.0237 0.04994-0.0477 0.07813-0.0723zm-0.11523 0.12305c-0.0213 0.0335-0.02951 0.0638-0.0293 0.0937 4.8e-5 -0.0298 0.0081-0.0605 0.0293-0.0937zm5.7695 4e-3c0.03411 4.4e-4 0.06934 3e-3 0.10352 4e-3 -0.36115-7e-3 -0.71512-5e-5 -1.0664 0.0117 0.31797-0.0108 0.63703-0.0199 0.96289-0.0156zm0.16602 6e-3c0.40942 8e-3 0.82363 0.0258 1.2402 0.0547-0.41697-0.0292-0.83089-0.0461-1.2402-0.0547zm-1.3945 0.0137c0.01151-5.6e-4 0.02363 5.3e-4 0.03516 0-0.41421 0.019-0.82099 0.0508-1.2148 0.0996 0.3836-0.0476 0.77736-0.0801 1.1797-0.0996zm2.8086 0.0566c0.36097 0.0273 0.72165 0.0613 1.084 0.10156-0.3624-0.0405-0.72323-0.074-1.084-0.10156zm-7.377 0.0547c0.01656 0.0398 0.05106 0.0766 0.125 0.10546 0.06996 0.0273 0.18308 0.0459 0.31445 0.0606-0.13115-0.0147-0.24456-0.0332-0.31445-0.0606-0.07488-0.0293-0.10888-0.065-0.125-0.10546zm15.596 0.0254c0.48164 0.12778 0.96511 0.26682 1.4531 0.41992-0.48739-0.15288-0.97208-0.29223-1.4531-0.41992zm-6.4375 0.12109c0.67412 0.0889 1.3407 0.18255 1.9961 0.30273-0.65301-0.1197-1.3256-0.21396-1.9961-0.30273zm-7.4883 8e-3c-0.10725 7e-3 -0.21744 0.0153-0.3125 0.0195 0.09454-4e-3 0.20594-0.0126 0.3125-0.0195zm9.9277 0.38477c0.7132 0.13828 1.4028 0.2828 2.0605 0.43945-0.65504-0.15551-1.3525-0.30224-2.0605-0.43945zm2.3984 0.52344c0.65444 0.16053 1.2691 0.31755 1.832 0.47656-0.56075-0.15747-1.1846-0.31824-1.832-0.47656zm2.2598 0.60156c0.46726 0.13637 0.89594 0.26387 1.2656 0.38281-0.36979-0.11792-0.80541-0.24923-1.2656-0.38281zm1.9551 0.61328c0.12524 0.0431 0.25954 0.0863 0.36133 0.12305-0.10264-0.0367-0.23713-0.0806-0.36133-0.12305zm0.89648 0.32812c0.0067 3e-3 0.03336 0.0129 0.03906 0.0156v2e-3c-0.0088-4e-3 -0.028-0.0126-0.03906-0.0176zm-38.064 6.3789c0.0399 0.0133 0.08712 0.0342 0.12891 0.0488 0.09595 0.0334 0.19541 0.0691 0.30078 0.10937-0.07103-0.023-0.14515-0.0506-0.21484-0.0723-0.06549-0.0233-0.15379-0.0655-0.21484-0.0859zm1.3203 0.48047c0.11936 0.0474 0.24334 0.10548 0.36524 0.1582-0.12152-0.0528-0.24626-0.11078-0.36524-0.1582zm1.2227 0.56836c0.31073 0.16457 0.62655 0.34425 0.94727 0.55469-0.3213-0.21155-0.63602-0.38918-0.94727-0.55469zm1.9082 1.2578c0.05239 0.0422 0.10373 0.0871 0.15625 0.13086-0.05228-0.0436-0.10409-0.0887-0.15625-0.13086zm2.1641 2.1953c0.05915 0.0734 0.1167 0.14481 0.17578 0.22071-0.05911-0.076-0.11661-0.14721-0.17578-0.22071zm1.125 1.5586c0.06433 0.0991 0.12729 0.20422 0.19141 0.30664-0.06404-0.1023-0.12714-0.20769-0.19141-0.30664z" fill-rule="evenodd" filter="url(#filter7609-1)" opacity=".3"/>
  <path d="m11.643 6.8551c0.0094-0.00358 0.10928-0.036319 0.10928-0.036319l0.0067-0.17726-0.76536-0.43014-0.14551 0.01878-0.03968 0.058061 0.0099 0.13106z" fill-rule="evenodd"/>
  <g>
   <path d="m11.7 6.7839-0.0047-0.11058-0.72025-0.40395-0.09004-0.00357-1.229 1.8208 0.2518 0.05512 0.58596 0.33747 0.11066 0.14811z" fill="url(#linearGradient1642)"/>
   <g fill-rule="evenodd">
    <path d="m7.6668 14.132 1.6717-2.8496 1.2556-2.4691c0.0242-0.056877 0.04906-0.12661 0.01307-0.18718l-0.10591-0.14348-0.57496-0.33476c-0.14083-0.078986-0.29263-0.083568-0.35587-0.022127l-1.321 1.694-0.87998 1.2101-1.3799 2.0513s-0.1743 0.17031-0.28263 0.35259c-0.10833 0.18228 0.042481 0.32197 0.042481 0.32197l1.2791 0.77416c0.152 0.0332 0.38943 0.10706 0.45529-0.0037 0.065854-0.1108 0.18313-0.3942 0.18313-0.3942z" fill="url(#linearGradient1644)"/>
    <path d="m11.752 6.8191s0.17482-0.58649 0.85478-0.59163l0.26406-0.57471s-0.7322 0.11262-1.1131 0.98823z" fill="url(#linearGradient1646)"/>
    <path d="m11.698 6.6081c0.40657-0.75948 0.8774-0.87791 1.1724-0.95527 0 0-0.7322 0.11262-1.1131 0.98823z" fill="#5b5c60"/>
    <path d="m10.85 6.2311s0.23053-0.28952 0.3141-0.5408c0.083572-0.25127-0.042648-0.45694-0.49206-0.70899-0.44941-0.25205-1.5753-0.20202-2.3466 0.075253-0.11398 0.044854-0.15153 0.0045773-0.096108-0.096494 0.00511-0.014666 1.1233-0.40007 1.879-0.30908 0.76148 0.091681 0.20855-0.11729 0.20855-0.11729s-0.9586-0.13301-1.961 0.21341c-0.14019 0.058768-0.12655-0.019561-0.079438-0.13684 0 0 1.0022-0.48139 2.0741-0.39135 1.0718 0.090039 1.1633 0.8583 1.0286 1.2939-0.13465 0.43558-0.37846 0.71056-0.37846 0.71056z" fill="url(#linearGradient1648)"/>
   </g>
  </g>
  <path d="m8.3124 4.5973-0.049885 0.16653c-0.066937-0.038795-0.040112-0.15928 0.0063077-0.25622z" fill-rule="evenodd"/>
  <path d="m8.2458 4.954-0.022532 0.11724c-0.065558-0.036768-0.042404-0.11722-9.259e-4 -0.20382z" fill-rule="evenodd"/>
  <g>
   <path d="m13.371 4.8269c0.2739 0.69311 0.59764 0.8068 1.3154 0.8052l-0.69808 1.1746c-0.26978-0.4406-0.62454-0.89717-1.3848-0.57789l0.25988-0.56542z" fill="url(#linearGradient1650)"/>
   <rect transform="matrix(-.87219 -.48917 -.51091 .85963 0 0)" x="-16.227" y="-2.2724" width=".71981" height="1.3664" fill="url(#linearGradient1652)"/>
   <path d="m13.37 4.8271c-1.3655-0.76583-2.281-1.1013-4.2884-0.63989 2.0278-0.39368 2.7865 0.026709 4.1794 0.82296z" fill="#3b3b3d" fill-rule="evenodd"/>
   <path d="m12.765 4.73c0.15802 0.08693 0.32216 0.18062 0.49628 0.28015l-0.43754 0.74378 0.046435-0.10115s-0.01132 0.00175-0.03184 0.00647c-2.62e-4 3.89e-5 -1.02e-4 5.11e-5 -3.7e-4 9.24e-5 -0.02051 0.00474-0.05003 0.012398-0.08676 0.024307-5.82e-4 1.821e-4 -7.94e-4 2.543e-4 -0.0013 4.498e-4 -0.0047 0.00153-0.01042 0.00376-0.01536 0.00543-0.01141 0.00386-0.02312 0.00798-0.03566 0.012634-8.73e-4 2.495e-4 -0.0017 5.821e-4 -0.0025 8.467e-4 -0.28776 0.091178-0.66419 0.28051-0.99857 0.90514l0.05409 0.029879-0.02155 0.021603-0.74091-0.43397 7.14e-4 -0.00172 0.01041-5.027e-4s0.24382-0.27501 0.37847-0.71059c0.13465-0.43558 0.04315-1.2039-1.0287-1.2939-0.96889-0.081383-1.873 0.30081-2.0394 0.37567l-0.041702-0.085779c0.25146-0.15641 0.57907-0.25929 0.81258-0.32165 1.7744-0.34447 2.577-0.065697 3.6831 0.54281zm-2.3135-0.13496c0.09506 0.053163 0.13259 0.11324-0.34333 0.055943-0.72555-0.087355-1.7746 0.26116-1.8626 0.30239l-0.023048-0.084984 0.26796-0.16408c0.95179-0.29084 1.8263-0.17052 1.8263-0.17052s0.07777 0.029358 0.13481 0.061257zm1.7389 1.4235c-0.03063 0.028356-0.06126 0.058764-0.09158 0.091548 0.03031-0.032752 0.06095-0.06322 0.09158-0.091548zm-0.09164 0.091661c-0.02656 0.028725-0.05289 0.060004-0.07883 0.092349 0.026-0.032391 0.05222-0.06359 0.07883-0.092349zm-0.09115 0.10705c-0.02533 0.032317-0.04997 0.067306-0.07432 0.10334 0.02436-0.036025 0.04899-0.07103 0.07432-0.10334zm-0.08668 0.12073c-0.02753 0.04179-0.05433 0.085967-0.08007 0.13289 0.02577-0.046986 0.05251-0.091064 0.08007-0.13289zm-0.08184 0.13613c-0.02535 0.046432-0.04963 0.095547-0.07276 0.14727 0.02313-0.051725 0.0474-0.10084 0.07276-0.14727zm-3.571-1.9647c-9.58e-5 2.016e-4 -1.048e-4 4.498e-4 -2.185e-4 6.35e-4l-2.239e-4 -4.233e-4zm-0.046484 0.35975c-0.00132 0.00276-0.00212 0.00532-0.00339 0.00807l-0.00119-0.00534z" fill="url(#linearGradient1654)"/>
   <path d="m15.314 5.9842c-0.18725 0.51182-0.25716 0.65387-0.69808 1.1746z" fill="#5b5a60"/>
   <rect transform="matrix(-.0622 -.034885 -.040944 .06889 73.384 -45.04)" x="370.97" y="1049.2" width="23.862" height="3.4876" rx="1.7438" ry="1.7438" fill="#323033" filter="url(#filter5913-8)"/>
   <rect transform="matrix(-.87219 -.48917 -.51091 .85963 0 0)" x="-13.595" y="8.9032" width="1.6338" height=".23535" rx=".11939" ry=".11767" fill="#060509"/>
  </g>
 </g>
</svg>
