<?xml version="1.0" encoding="UTF-8" standalone="no"?>
<svg
   xmlns:dc="http://purl.org/dc/elements/1.1/"
   xmlns:cc="http://creativecommons.org/ns#"
   xmlns:rdf="http://www.w3.org/1999/02/22-rdf-syntax-ns#"
   xmlns:svg="http://www.w3.org/2000/svg"
   xmlns="http://www.w3.org/2000/svg"
   xmlns:sodipodi="http://sodipodi.sourceforge.net/DTD/sodipodi-0.dtd"
   xmlns:inkscape="http://www.inkscape.org/namespaces/inkscape"
   width="64"
   height="64"
   version="1.1"
   id="svg48"
   sodipodi:docname="cockos-reaper.svg"
   inkscape:version="1.0.1 (3bc2e813f5, 2020-09-07)">
  <metadata
     id="metadata52">
    <rdf:RDF>
      <cc:Work
         rdf:about="">
        <dc:format>image/svg+xml</dc:format>
        <dc:type
           rdf:resource="http://purl.org/dc/dcmitype/StillImage" />
        <dc:title></dc:title>
      </cc:Work>
    </rdf:RDF>
  </metadata>
  <sodipodi:namedview
     pagecolor="#ffffff"
     bordercolor="#666666"
     borderopacity="1"
     objecttolerance="10"
     gridtolerance="10"
     guidetolerance="10"
     inkscape:pageopacity="0"
     inkscape:pageshadow="2"
     inkscape:window-width="1920"
     inkscape:window-height="935"
     id="namedview50"
     showgrid="false"
     inkscape:zoom="6.0546875"
     inkscape:cx="-5.3200729"
     inkscape:cy="32.230642"
     inkscape:window-x="0"
     inkscape:window-y="38"
     inkscape:window-maximized="1"
     inkscape:current-layer="svg48" />
  <defs
     id="defs28">
    <filter
       id="e"
       x="-.036"
       y="-.036"
       width="1.072"
       height="1.072"
       color-interpolation-filters="sRGB">
      <feGaussianBlur
         stdDeviation="14.343749"
         id="feGaussianBlur2" />
    </filter>
    <linearGradient
       id="linearGradient882"
       x1="41.203"
       x2="41.203"
       y1="15.899"
       y2="62"
       gradientUnits="userSpaceOnUse">
      <stop
         stop-color="#f23530"
         offset="0"
         id="stop5" />
      <stop
         stop-color="#ff6623"
         offset="1"
         id="stop7" />
    </linearGradient>
    <linearGradient
       id="linearGradient890"
       x1="16.739"
       x2="16.739"
       y1="20.762"
       y2="61.789"
       gradientUnits="userSpaceOnUse">
      <stop
         stop-color="#62d022"
         offset="0"
         id="stop10" />
      <stop
         stop-color="#95d022"
         offset="1"
         id="stop12" />
    </linearGradient>
    <linearGradient
       id="linearGradient898"
       x1="9.7217"
       x2="9.7217"
       y1="16.251"
       y2="32.277"
       gradientUnits="userSpaceOnUse">
      <stop
         stop-color="#4fa41e"
         offset="0"
         id="stop15" />
      <stop
         stop-color="#519c26"
         offset="1"
         id="stop17" />
    </linearGradient>
    <linearGradient
       id="linearGradient906"
       x1="33.145"
       x2="33.145"
       y1="2"
       y2="37.387"
       gradientUnits="userSpaceOnUse">
      <stop
         stop-color="#1fa5f9"
         offset="0"
         id="stop20" />
      <stop
         stop-color="#00e6ee"
         offset="1"
         id="stop22" />
    </linearGradient>
    <filter
       id="filter930"
       x="-.06572"
       y="-.055196"
       width="1.1314"
       height="1.1104"
       color-interpolation-filters="sRGB">
      <feGaussianBlur
         stdDeviation="0.91251952"
         id="feGaussianBlur25" />
    </filter>
  </defs>
  <path
     id="path32"
     style="fill:url(#linearGradient882)"
     d="M 33.841797 15.900391 C 32.250597 15.881991 30.652744 16.021039 29.027344 16.318359 C 29.026453 16.318522 29.024438 16.318196 29.023438 16.318359 C 26.315338 16.814009 23.538 17.748494 20.625 19.121094 C 21.02385 19.776634 21.436585 20.396628 21.859375 20.986328 C 22.282135 21.576098 22.717147 22.134828 23.154297 22.673828 C 26.214897 26.447628 29.508909 29.159778 31.412109 33.392578 L 31.412109 33.394531 C 32.362979 35.510031 32.966778 38.005072 33.017578 41.201172 L 33.017578 41.203125 C 33.068348 44.400525 32.566164 48.297203 31.308594 53.220703 C 30.900264 54.819901 29.621002 58.713588 28.699219 61.509766 C 29.58559 61.80128 30.445716 61.947718 31.267578 61.986328 A 30 30 0 0 0 31.337891 61.990234 C 35.994483 62.174464 39.410156 58.90625 39.410156 58.90625 C 39.410156 58.90625 53.025691 49.15295 58.771484 31.677734 C 55.225404 27.298599 50.857326 22.180059 48.419922 20.392578 C 43.622322 16.876278 38.650697 15.955991 33.841797 15.900391 z " />
  <path
     id="path34"
     style="fill:url(#linearGradient898)"
     d="M 13.447266 16.253906 C 11.384466 16.285326 7.8426125 16.588741 5.4453125 18.087891 A 30 30 0 0 0 4.1347656 20.9375 C 3.4852683 24.049641 3.6616053 27.226294 4.4238281 30.363281 C 8.829924 26.868574 14.47317 22.420516 17.443359 20.761719 C 16.624579 19.479719 15.834103 18.011356 15.095703 16.285156 C 15.095678 16.285065 14.446246 16.23869 13.447266 16.253906 z " />
  <path
     id="path36"
     style="fill:url(#linearGradient906)"
     d="M 31.078125,2.0136719 C 19.282331,2.3814802 8.7980286,9.6309055 4.2890625,20.537109 c 4.0167,-1.6672 8.8323405,-3.603753 10.8066405,-4.251953 1.2182,-0.40036 2.402994,-0.754266 3.558594,-1.066406 12.533,-3.3882 21.508625,-1.618172 29.765625,5.173828 2.320227,1.908709 6.313845,6.480261 10.0625,12.126953 0.479502,-1.377404 0.916788,-2.797841 1.289062,-4.273437 0.606662,-2.404651 1.130321,-4.777128 0.226563,-7.021485 C 56.396452,11.864541 48.355851,4.9232846 38.570312,2.7265625 c -0.0097,-0.00203 -0.01955,-0.00383 -0.0293,-0.00586 -0.368608,-0.076564 -0.73484,-0.1581249 -1.107422,-0.2226562 -0.0462,-0.00922 -0.09243,-0.018338 -0.138672,-0.027344 -2.022909,-0.341678 -4.100697,-0.4966116 -6.197266,-0.4570312 -0.0065,1.232e-4 -0.013,-1.272e-4 -0.01953,0 z"
     sodipodi:nodetypes="ccccccsccsccsc" />
  <path
     id="path38"
     style="fill:url(#linearGradient890)"
     d="M 17.443359 20.761719 C 15.033117 22.107567 9.1279764 25.414167 4.0449219 28.513672 C 6.2302076 41.583988 19.198853 54.301763 24.351562 58.90625 C 25.835314 60.232141 27.300142 61.04963 28.699219 61.509766 C 29.621173 58.713941 30.902305 54.821563 31.310547 53.222656 L 31.310547 53.220703 C 31.357007 52.471033 31.392877 51.746875 31.419922 51.046875 L 31.419922 51.044922 C 31.446982 50.344942 31.464316 49.670278 31.472656 49.017578 L 31.472656 49.015625 C 31.481056 48.362965 31.480303 47.7327 31.470703 47.125 C 31.451523 45.9093 31.397114 44.780569 31.310547 43.730469 C 31.267297 43.205649 31.215249 42.699891 31.15625 42.212891 C 31.0382 41.238721 30.889471 40.3368 30.712891 39.5 C 29.918101 35.7336 28.560003 33.263322 26.908203 31.232422 C 26.724643 31.006752 26.538106 30.786322 26.347656 30.570312 C 25.966756 30.138292 25.572029 29.723916 25.167969 29.316406 C 24.359899 28.501396 23.511684 27.716719 22.646484 26.886719 C 22.213714 26.471549 21.778014 26.044896 21.339844 25.597656 C 21.121144 25.374496 20.900581 25.146769 20.681641 24.912109 L 20.681641 24.910156 C 20.023801 24.205056 19.36555 23.443097 18.71875 22.591797 C 18.28753 22.024297 17.862319 21.417719 17.443359 20.761719 z " />
  <path
     d="m12.559 9.1973a30 30 0 0 0-8.2754 11.354c3.4765-1.4871 8.299-3.4403 10.812-4.2656-0.74132-1.9869-1.6756-4.6402-2.5371-7.0879z"
     fill="#3a3e3e"
     id="path40" />
  <path
     d="m15.332 7.084a30 30 0 0 0-2.8613 2.1895c0.90889 2.6506 2.0918 5.7651 2.625 7.0117 1.2182-0.40036 2.403-0.75426 3.5586-1.0664 0.07762-0.02099 0.15117-0.036041 0.22852-0.056641-0.83489-2.0184-2.2605-5.2605-3.5508-8.0781z"
     opacity=".2"
     id="path42" />
  <path
     d="m29.449 13.548c-3.3083 0.0555-6.8789 0.6119-10.795 1.6707-1.1556 0.31214-2.3394 0.66605-3.5576 1.0664 0.73837 1.7262 1.5294 3.1942 2.3481 4.4762 0.41895 0.65599 0.84364 1.2618 1.2749 1.8293 0.64683 0.85125 1.3035 1.6137 1.9613 2.3187h0.0028c0.21895 0.23466 0.4378 0.46316 0.6565 0.68633 0.43821 0.4472 0.87478 0.87545 1.3075 1.2906 0.86521 0.83002 1.7144 1.6131 2.5225 2.4281 0.40404 0.40752 0.79589 0.82306 1.1768 1.2551 0.19045 0.21601 0.3776 0.43605 0.56116 0.66172 1.6518 2.0309 3.0107 4.5024 3.8055 8.2687 0.17658 0.83676 0.32597 1.7383 0.44402 2.7125 0.059 0.48696 0.11202 0.99276 0.15527 1.5176 0.08657 1.0501 0.13882 2.1776 0.158 3.3934v0.0028c0.0096 0.60774 0.01116 1.2368 0.0028 1.8895-0.0084 0.65271-0.02742 1.3289-0.05448 2.0289v0.0028c-0.02706 0.70003-0.0625 1.4242-0.10897 2.1738 0.33954-1.3292 0.61387-2.5707 0.84718-3.757 0.07105-0.36123 0.11538-0.6876 0.17706-1.0363 0.14352-0.81122 0.2783-1.6102 0.3732-2.357 0.04647-0.36616 0.07368-0.70944 0.10897-1.0609 0.06651-0.66139 0.12117-1.3073 0.14982-1.9195 0.03006-0.64462 0.06113-1.2898 0.05176-1.884-1.4e-5 -8.83e-4 1.4e-5 -0.0018 0-0.0028v-0.0028c-0.01171-0.73743-0.06004-1.4278-0.12804-2.0945-0.0091-0.08861-0.01727-0.18054-0.02724-0.26797-0.06554-0.57422-0.15719-1.1166-0.26151-1.6434-0.09688-0.48914-0.21568-0.95011-0.34323-1.4027-0.05463-0.19392-0.09808-0.40012-0.158-0.58789-0.19068-0.59754-0.4086-1.1667-0.64833-1.709-0.01425-0.03224-0.02372-0.06912-0.03813-0.10118v-0.0028c-0.25597-0.56927-0.54201-1.1064-0.84446-1.627-0.11398-0.19621-0.23978-0.38097-0.35958-0.57148-0.20092-0.31948-0.40266-0.63734-0.61836-0.94336-0.13435-0.19065-0.2746-0.37686-0.41406-0.56328-0.22912-0.30623-0.45891-0.61299-0.70008-0.91054-0.10801-0.13328-0.2195-0.26445-0.32961-0.39648-0.66714-0.79993-1.3726-1.5826-2.0921-2.3762-0.23277-0.25677-0.4539-0.51576-0.68919-0.77656-0.7365-0.81628-1.4802-1.649-2.2119-2.5512-4.45e-4 -5.49e-4 4.44e-4 -0.0022 0-0.0028-0.43717-0.53902-0.87116-1.0973-1.2939-1.6871-0.42276-0.58975-0.83515-1.2093-1.234-1.8648 0.67409-0.31764 1.3392-0.60433 1.9995-0.875 0.17172-0.07039 0.34126-0.13513 0.51212-0.20234 0.4878-0.19189 0.9734-0.37268 1.4546-0.53867 0.2084-0.07189 0.41655-0.14077 0.62381-0.20781 0.45002-0.14554 0.89786-0.27657 1.343-0.39922 0.20168-0.05558 0.40399-0.11592 0.60474-0.1668 0.59814-0.15159 1.1934-0.2866 1.7843-0.39648 0.02522-0.0046 0.05107-0.01176 0.07628-0.01641h0.0028c0.71194-0.13023 1.4155-0.21746 2.1193-0.28711 0.19985-0.01981 0.39997-0.03704 0.59929-0.05195 0.70103-0.05236 1.4014-0.08734 2.0975-0.0793 4.809 0.05559 9.7789 0.97624 14.576 4.4926-5.6764-4.6695-11.692-6.9662-18.97-6.8441z"
     fill="#000000"
     filter="url(#filter930)"
     opacity=".15"
     id="path44" />
  <path
     d="m29.449 13.548c-3.3083 0.0555-6.8789 0.6119-10.795 1.6707-1.1556 0.31214-2.3394 0.66605-3.5576 1.0664 0.73837 1.7262 1.5294 3.1942 2.3481 4.4762 0.41895 0.65599 0.84364 1.2618 1.2749 1.8293 0.64683 0.85125 1.3035 1.6137 1.9613 2.3187h0.0028c0.21895 0.23466 0.4378 0.46316 0.6565 0.68633 0.43821 0.4472 0.87478 0.87545 1.3075 1.2906 0.86521 0.83002 1.7144 1.6131 2.5225 2.4281 0.40404 0.40752 0.79589 0.82306 1.1768 1.2551 0.19045 0.21601 0.3776 0.43605 0.56116 0.66172 1.6518 2.0309 3.0107 4.5024 3.8055 8.2687 0.17658 0.83676 0.32597 1.7383 0.44402 2.7125 0.059 0.48696 0.11202 0.99276 0.15527 1.5176 0.08657 1.0501 0.13882 2.1776 0.158 3.3934v0.0028c0.0096 0.60774 0.01116 1.2368 0.0028 1.8895-0.0084 0.65271-0.02742 1.3289-0.05448 2.0289v0.0028c-0.02706 0.70003-0.0625 1.4242-0.10897 2.1738 0.33954-1.3292 0.61387-2.5707 0.84718-3.757 0.07105-0.36123 0.11538-0.6876 0.17706-1.0363 0.14352-0.81122 0.2783-1.6102 0.3732-2.357 0.04647-0.36616 0.07368-0.70944 0.10897-1.0609 0.06651-0.66139 0.12117-1.3073 0.14982-1.9195 0.03006-0.64462 0.06113-1.2898 0.05176-1.884-1.4e-5 -8.83e-4 1.4e-5 -0.0018 0-0.0028v-0.0028c-0.01171-0.73743-0.06004-1.4278-0.12804-2.0945-0.0091-0.08861-0.01727-0.18054-0.02724-0.26797-0.06554-0.57422-0.15719-1.1166-0.26151-1.6434-0.09688-0.48914-0.21568-0.95011-0.34323-1.4027-0.05463-0.19392-0.09808-0.40012-0.158-0.58789-0.19068-0.59754-0.4086-1.1667-0.64833-1.709-0.01425-0.03224-0.02372-0.06912-0.03813-0.10118v-0.0028c-0.25597-0.56927-0.54201-1.1064-0.84446-1.627-0.11398-0.19621-0.23978-0.38097-0.35958-0.57148-0.20092-0.31948-0.40266-0.63734-0.61836-0.94336-0.13435-0.19065-0.2746-0.37686-0.41406-0.56328-0.22912-0.30623-0.45891-0.61299-0.70008-0.91054-0.10801-0.13328-0.2195-0.26445-0.32961-0.39648-0.66714-0.79993-1.3726-1.5826-2.0921-2.3762-0.23277-0.25677-0.4539-0.51576-0.68919-0.77656-0.7365-0.81628-1.4802-1.649-2.2119-2.5512-4.45e-4 -5.49e-4 4.44e-4 -0.0022 0-0.0028-0.43717-0.53902-0.87116-1.0973-1.2939-1.6871-0.42276-0.58975-0.83515-1.2093-1.234-1.8648 0.67409-0.31764 1.3392-0.60433 1.9995-0.875 0.17172-0.07039 0.34126-0.13513 0.51212-0.20234 0.4878-0.19189 0.9734-0.37268 1.4546-0.53867 0.2084-0.07189 0.41655-0.14077 0.62381-0.20781 0.45002-0.14554 0.89786-0.27657 1.343-0.39922 0.20168-0.05558 0.40399-0.11592 0.60474-0.1668 0.59814-0.15159 1.1934-0.2866 1.7843-0.39648 0.02522-0.0046 0.05107-0.01176 0.07628-0.01641h0.0028c0.71194-0.13023 1.4155-0.21746 2.1193-0.28711 0.19985-0.01981 0.39997-0.03704 0.59929-0.05195 0.70103-0.05236 1.4014-0.08734 2.0975-0.0793 4.809 0.05559 9.7789 0.97624 14.576 4.4926-5.6764-4.6695-11.692-6.9662-18.97-6.8441z"
     fill="#ffffff"
     id="path46" />
</svg>
