<?xml version="1.0" encoding="UTF-8"?>
<!-- Created with Inkscape (http://www.inkscape.org/) -->
<svg width="64" height="64" version="1.1" viewBox="0 0 16.933 16.933" xmlns="http://www.w3.org/2000/svg">
 <defs>
  <linearGradient id="linearGradient2709" x1=".73229" x2="16.404" y1="16.28" y2=".60268" gradientTransform="matrix(.46646 -.070871 .070871 .46646 -113.96 -.29803)" gradientUnits="userSpaceOnUse">
   <stop stop-color="#be5ae6" offset="0"/>
   <stop stop-color="#6e28b4" offset="1"/>
  </linearGradient>
  <filter id="filter5339" x="-.1891" y="-.079887" width="1.3782" height="1.1598" color-interpolation-filters="sRGB">
   <feGaussianBlur stdDeviation="0.21156371"/>
  </filter>
  <linearGradient id="linearGradient5324" x1="63.287" x2="65.972" y1="22.316" y2="22.316" gradientTransform="matrix(1.6733 0 0 1.6733 -93.245 -27.286)" gradientUnits="userSpaceOnUse">
   <stop stop-color="#faffff" offset="0"/>
   <stop stop-color="#fff" offset="1"/>
  </linearGradient>
  <linearGradient id="f-5" x1="86" x2="63" y1="19.458" y2="39" gradientTransform="matrix(.44273 0 0 .44273 -24.479 -4.1107)" gradientUnits="userSpaceOnUse">
   <stop stop-color="#c8a0ff" offset="0"/>
   <stop stop-color="#f0f0ff" offset="1"/>
  </linearGradient>
  <linearGradient id="d-39" x1="87" x2="63" y1="46" y2="24" gradientTransform="matrix(.44273 0 0 .44273 -24.479 -4.1107)" gradientUnits="userSpaceOnUse">
   <stop stop-color="#c8a0ff" offset="0"/>
   <stop stop-color="#ebebfa" offset=".46709"/>
   <stop stop-color="#f0f5ff" offset="1"/>
  </linearGradient>
 </defs>
 <g transform="translate(-1.2268 -1.5873)">
  <path d="m17.992 10.054c0 0.95155-0.16749 1.8638-0.47464 2.7093-0.2135 0.58769-0.4944 1.1433-0.83391 1.6572-0.14222 0.21608-0.29514 0.42474-0.45746 0.62529-0.51964 0.6418-1.1372 1.2007-1.8304 1.6543-0.25529 0.16717-0.52065 0.32009-0.79536 0.45712-1.0668 0.5339-2.2711 0.8342-3.5457 0.8342-1.2745 0-2.4789-0.30033-3.5457-0.83423-0.27474-0.13705-0.54041-0.28996-0.79571-0.45712-0.70207-0.45974-1.327-1.0274-1.8508-1.6798-0.16262-0.20216-0.31522-0.41275-0.45746-0.63077-0.33046-0.50538-0.6042-1.0507-0.81349-1.627-0.3071-0.84529-0.47429-1.7572-0.47429-2.7085 0-4.3839 3.5536-7.9375 7.9375-7.9375 2.2005 0 4.1918 0.89548 5.6295 2.3416 0.41436 0.41661 0.78274 0.87929 1.0963 1.3795 0.29644 0.47109 0.54427 0.97581 0.73705 1.5068 0.30718 0.84558 0.47466 1.7579 0.47466 2.7093z" fill="url(#linearGradient2709)" stroke-width=".031006"/>
  <g fill-rule="evenodd">
   <g stroke-width=".26458">
    <path transform="matrix(1.5906 0 0 1.678 -88.138 -27.392)" d="m63.643 18.096c-0.09052 0.0101-0.17861 0.04111-0.26664 0.09922 0.13772 0.17144-0.1403 1.7855 0.20785 2.004l0.2717 0.17053v3.8922l-0.42679 0.31977c-0.32895 0.24647 0.02978 1.6662-0.05651 1.8488 0.09533 0.05818 0.23775 0.12029 0.36237 0.10514 0.03992-0.0049 0.08033-0.01602 0.1204-0.03566l1.7368-0.85162c0.18929-0.09277 0.38033-0.16953 0.38033-0.38033v-5.9043c0-0.2108-0.19104-0.28757-0.38033-0.38033l-1.7368-0.85162c-0.04007-0.01964-0.08048-0.0308-0.1204-0.03566-0.03116-0.0038-0.06181-0.0034-0.09198 0z" filter="url(#filter5339)" opacity=".2" style="paint-order:stroke fill markers"/>
    <path transform="matrix(1.5906 0 0 1.678 -88.138 -27.392)" d="m57.616 23.498 5.6511-5.2228c0.25656-0.23712 0.58887-0.15304 0.58887 0.33742v1.7579l-5.2244 3.9957c-0.09136 0.07175-0.32943 0.24313-0.53715 0.04563l-0.52855-0.50251c-0.1387-0.13187-0.05988-0.30961 0.0501-0.41126z" filter="url(#filter5339)" opacity=".2" style="paint-order:stroke fill markers"/>
    <path transform="matrix(1.5906 0 0 1.678 -88.138 -27.392)" d="m57.616 21.132 5.6511 5.2228c0.25656 0.23712 0.58887 0.15304 0.58887-0.33742v-1.7579l-5.2244-3.9957c-0.09136-0.07175-0.32943-0.24313-0.53715-0.04563l-0.52855 0.50251c-0.1387 0.13186-0.05988 0.30961 0.0501 0.41126z" filter="url(#filter5339)" opacity=".2" style="paint-order:stroke fill markers"/>
   </g>
   <g stroke-width=".44273">
    <path d="m13.252 2.9943c-0.15147 0.016901-0.29888 0.068791-0.44618 0.16603 0.23045 0.28688-0.23477 2.9878 0.3478 3.3534l0.45465 0.28536v6.513l-0.71417 0.53508c-0.55045 0.41243 0.04983 2.7881-0.09456 3.0937 0.15952 0.09736 0.39784 0.20129 0.60637 0.17594 0.0668-0.0082 0.13442-0.02681 0.20147-0.05967l2.9063-1.4251c0.31675-0.15524 0.63642-0.28368 0.63642-0.63642v-9.8799c0-0.35274-0.31968-0.4812-0.63642-0.63642l-2.9063-1.4251c-0.06705-0.032864-0.13467-0.051539-0.20147-0.059671-0.05214-0.00636-0.10343-0.00569-0.15391 0z" fill="url(#linearGradient5324)" style="paint-order:stroke fill markers"/>
    <path d="m3.1663 12.034 9.4562-8.7395c0.42931-0.39678 0.98538-0.25609 0.98538 0.56462v2.9416l-8.7422 6.6862c-0.15288 0.12006-0.55125 0.40684-0.89884 0.07635l-0.88445-0.84087c-0.23209-0.22066-0.1002-0.51808 0.083834-0.68818z" fill="url(#f-5)" style="paint-order:stroke fill markers"/>
    <path d="m3.1663 8.0746 9.4562 8.7395c0.42931 0.39678 0.98538 0.25609 0.98538-0.56462v-2.9416l-8.7422-6.6862c-0.15288-0.12006-0.55125-0.40684-0.89884-0.076354l-0.88445 0.84087c-0.23209 0.22065-0.1002 0.51808 0.083834 0.68818z" fill="url(#d-39)" style="paint-order:stroke fill markers"/>
   </g>
  </g>
 </g>
</svg>
