<?xml version="1.0" encoding="UTF-8"?>
<!-- Created with Inkscape (http://www.inkscape.org/) -->
<svg width="64" height="64" version="1.1" viewBox="0 0 16.933 16.933" xmlns="http://www.w3.org/2000/svg">
 <defs>
  <linearGradient id="linearGradient1991" x1="4.157" x2="12.85" y1="4.154" y2="12.83" gradientTransform="matrix(1 0 0 1 -1.0583 -1.0583)" gradientUnits="userSpaceOnUse">
   <stop stop-color="#f5faff" offset="0"/>
   <stop stop-color="#cfdef0" offset="1"/>
  </linearGradient>
  <linearGradient id="linearGradient2162" x1="10.647" x2="6.1985" y1="10.727" y2="6.3145" gradientTransform="matrix(1 0 0 1 -1.0583 -1.0583)" gradientUnits="userSpaceOnUse">
   <stop stop-color="#4b8cf5" offset="0"/>
   <stop stop-color="#5faaff" offset="1"/>
  </linearGradient>
 </defs>
 <g transform="translate(1.0584 1.0584)">
  <g stroke-width=".031005">
   <path d="m7.408 7.4084 5.5981 5.5981c0.38634-0.38643 0.74737-0.79747 1.048-1.2565 0.16715-0.2553 0.32015-0.5207 0.45723-0.79543 0.53392-1.0668 0.83433-2.2714 0.83433-3.5459z" fill="#f55028"/>
   <path d="m7.408 7.4084-9e-7 7.9375c0.95117 0 1.8635-0.167 2.7088-0.47411 0.57632-0.20928 1.1216-0.483 1.627-0.81349 0.21802-0.14222 0.42869-0.29513 0.63085-0.45775 0.22578-0.1813 0.42696-0.38969 0.63139-0.59418z" fill="#ffbe19"/>
   <path d="m7.408 7.4084-5.6126 5.6126c1.4364 1.4364 3.4206 2.3249 5.6126 2.3249z" fill="#0a8c7d"/>
   <path d="m-0.52918 7.4084c1.1e-7 2.1919 0.88848 4.1763 2.3249 5.6126l5.6126-5.6126z" fill="#5fd2e6"/>
   <path d="m7.408 7.4084 7.9374-1e-7c1e-6 -1.2745-0.30044-2.4786-0.83433-3.5453-0.13702-0.27472-0.29002-0.54016-0.4572-0.79546-0.30056-0.45937-0.66217-0.87018-1.0486-1.2565z" fill="#c31932"/>
   <path d="m7.408 7.4084 5.5975-5.5975c-0.19677-0.19678-0.38891-0.39855-0.60544-0.57389-0.20053-0.16232-0.40912-0.31496-0.62519-0.45719-0.51394-0.33955-1.0697-0.62083-1.6574-0.83434-0.84558-0.30717-1.7578-0.47466-2.7093-0.47466z" fill="#eb4178"/>
   <path d="m1.7972 1.7972 5.6108 5.6108v-7.9375c-0.95151 0-1.8637 0.16749-2.7093 0.47466-0.53097 0.19277-1.0358 0.44092-1.5069 0.73738-0.50018 0.31354-0.96286 0.68155-1.3795 1.0959-0.00568 0.00567-0.00956 0.012928-0.015214 0.018591z" fill="#6914eb"/>
   <path d="m-0.52918 7.4084 7.9375 3e-7 -5.6108-5.6108c-1.4362 1.4365-2.3265 3.4192-2.3265 5.6108z" fill="#2d91e6"/>
  </g>
  <g>
   <path d="m7.4083 2.9992a4.4101 4.4101 0 0 0-0.144 5e-3c-8e-3 -1e-3 -0.015-5e-3 -0.024-5e-3h-4.0621a0.176 0.176 0 0 0-0.176 0.175v4.1301a4.4101 4.4101 0 0 0-5e-3 0.104 4.4101 4.4101 0 0 0 4.4101 4.4101 4.4101 4.4101 0 0 0 4.4101-4.4101 4.4101 4.4101 0 0 0-4.4101-4.4101z" color="#000000" fill="url(#linearGradient1991)" overflow="visible" style="isolation:auto;mix-blend-mode:normal;paint-order:fill markers stroke"/>
   <path d="m9.6759 7.4083a2.267 2.267 0 0 1-2.268 2.268 2.267 2.267 0 0 1-2.267-2.268 2.267 2.267 0 0 1 2.268-2.267 2.267 2.267 0 0 1 2.267 2.267z" color="#000000" fill="url(#linearGradient2162)" overflow="visible" style="isolation:auto;mix-blend-mode:normal;paint-order:fill markers stroke"/>
   <path d="m7.3193 6.5263v0.79402h-0.79402v0.26501h0.79402l0.017 0.79302h0.24801v-0.79302h0.79302l0.017-0.26501h-0.81002v-0.79402z" color="#000000" fill="#fff" overflow="visible" style="isolation:auto;mix-blend-mode:normal;paint-order:fill markers stroke"/>
  </g>
 </g>
</svg>
