<?xml version="1.0" encoding="UTF-8"?>
<!-- Created with Inkscape (http://www.inkscape.org/) -->
<svg width="64" height="64" version="1.1" viewBox="0 0 16.933 16.933" xmlns="http://www.w3.org/2000/svg">
 <defs>
  <linearGradient id="linearGradient1159-3-62" x1="-184.75" x2="-170.2" y1="-1.2655" y2="-15.817" gradientTransform="matrix(1 0 0 1 184.9 17.009)" gradientUnits="userSpaceOnUse">
   <stop stop-color="#323232" offset="0"/>
   <stop stop-color="#505050" offset="1"/>
  </linearGradient>
  <filter id="filter873" x="-.091612" y="-.13153" width="1.1832" height="1.2631" color-interpolation-filters="sRGB">
   <feGaussianBlur stdDeviation="1.4248792"/>
  </filter>
 </defs>
 <g transform="translate(1.0583)">
  <rect x=".13216" y="1.1905" width="14.552" height="14.552" ry="1.2138" fill="url(#linearGradient1159-3-62)"/>
  <path transform="matrix(.26458 0 0 .26458 -1.0583 2.71e-7)" d="m35.253 20.232 0.02577 2.9885 3.1322-0.02701-0.02577-2.9885zm-14.846 1.5706-1.4868 7.1054-4.7674 0.04112 0.01619 1.8772 4.3855-0.03784-1.3016 6.4271-3.9162 0.03374 0.01619 1.8772 3.4978-0.03015-1.4012 7.1065 1.9154-0.01653 1.3994-7.1064 6.3154-0.05451-1.434 7.1068 1.9135-0.01654 1.4704-7.1071 4.9239-0.04249-0.0163-1.8771-4.5237 0.03903 1.3016-6.4271 4.0544-0.035-0.0163-1.8771-3.6724 0.03168 1.4704-7.1053-1.9135 0.01653-1.4704 7.1052-6.3154 0.05446 1.4704-7.1052zm24.18 1.1303-0.88593 4.2152-2.2973 0.0198 0.01956 2.2773 2.1754-0.01863 0.10825 12.551c0.0245 2.8394 1.2892 4.2491 3.7947 4.2275 1.0788-0.0093 2.1332-0.15861 3.1632-0.44566l-0.02002-2.3119c-0.78735 0.16883-1.3902 0.25575-1.8077 0.25937-0.73076 0.0062-1.2482-0.16636-1.5526-0.52503-0.29316-0.36865-0.44343-1.0058-0.45123-1.9098l-0.1024-11.872 3.4796-0.03004-0.01956-2.2773-3.4796 0.03004-0.03627-4.2072zm-9.2731 4.2876 0.16224 18.81 3.1322-0.02703-0.16224-18.81zm-14.793 3.5511 6.2626-0.05402-1.3016 6.4271-6.299 0.05432z" filter="url(#filter873)" opacity=".35"/>
  <path d="m8.269 5.0342 0.00682 0.79071 0.82873-0.00715-0.00682-0.79071zm-3.928 0.41555-0.39338 1.88-1.2614 0.01088 0.00428 0.49668 1.1603-0.010012-0.34438 1.7005-1.0362 0.00893 0.00428 0.49668 0.92546-8e-3 -0.37073 1.8803 0.50678-0.0044 0.37026-1.8802 1.6709-0.01442-0.37941 1.8803 0.50628-0.0044 0.38905-1.8804 1.3028-0.011242-0.0043127-0.49665-1.1969 0.010327 0.34438-1.7005 1.0727-0.0092605-0.0043127-0.49665-0.97166 0.008382 0.38904-1.8799-0.50628 0.0043736-0.38904 1.8799-1.6709 0.014409 0.38904-1.8799zm6.3976 0.29906-0.2344 1.1153-0.60783 0.00524 0.00518 0.60254 0.57558-0.00493 0.02864 3.3208c0.0065 0.75126 0.3411 1.1242 1.004 1.1185 0.28543-0.0025 0.56441-0.04197 0.83693-0.11792l-0.0053-0.61169c-0.20832 0.04467-0.36782 0.06767-0.47829 0.06862-0.19335 0.0016-0.33025-0.04402-0.41079-0.13891-0.07756-0.09754-0.11732-0.26612-0.11939-0.5053l-0.02709-3.1411 0.92064-0.00795-0.0052-0.60254-0.92064 0.00795-0.0096-1.1132zm-2.4535 1.1344 0.042926 4.9768 0.82873-0.007151-0.042926-4.9768zm-3.914 0.93956 1.657-0.014293-0.34438 1.7005-1.6666 0.014372z" fill="#fff" stroke-width=".26458"/>
 </g>
</svg>
