<?xml version="1.0" encoding="UTF-8"?>
<svg id="Gimp" width="64" height="64" enable-background="new 0 0 1024 1024" image-rendering="optimizeSpeed" version="1.1" viewBox="0 0 64 64" xmlns="http://www.w3.org/2000/svg">
 <defs>
  <linearGradient id="linearGradient4497" x1="515.8" x2="435.53" y1="228.34" y2="309.15" gradientTransform="translate(216.8,-88.272)" gradientUnits="userSpaceOnUse">
   <stop stop-color="#de5f03" offset="0"/>
   <stop stop-color="#d7301c" offset="1"/>
  </linearGradient>
  <filter id="filter4539" x="-.08397" y="-.13386" width="1.1679" height="1.2677" color-interpolation-filters="sRGB">
   <feGaussianBlur stdDeviation="6.5383601"/>
  </filter>
  <linearGradient id="linearGradient5012" x1="364.15" x2="356.67" y1="424.37" y2="448.34" gradientTransform="matrix(.11118 0 0 .11118 -2.8922 2.5193)" gradientUnits="userSpaceOnUse">
   <stop stop-color="#25150f" offset="0"/>
   <stop stop-color="#3d241b" offset="1"/>
  </linearGradient>
  <linearGradient id="linearGradient5038" x1="347.85" x2="359.01" y1="476.88" y2="455.73" gradientTransform="matrix(.029416 0 0 .029416 6.2678 11.921)" gradientUnits="userSpaceOnUse">
   <stop stop-color="#25150f" offset="0"/>
   <stop stop-color="#25150f" stop-opacity="0" offset="1"/>
  </linearGradient>
  <filter id="filter5067" x="-.047296" y="-.016428" width="1.0946" height="1.0329" color-interpolation-filters="sRGB">
   <feGaussianBlur stdDeviation="2.5323039"/>
  </filter>
  <linearGradient id="linearGradient5141" x1="487.6" x2="515.04" y1="177.83" y2="187.03" gradientTransform="matrix(.11118 0 0 .11118 -9.3239 2.8028)" gradientUnits="userSpaceOnUse">
   <stop stop-color="#e3e3e3" offset="0"/>
   <stop stop-color="#ebebeb" offset=".15983"/>
   <stop stop-color="#c8c8c8" offset=".50868"/>
   <stop stop-color="#9a9a9a" offset="1"/>
  </linearGradient>
  <linearGradient id="linearGradient4979" x1="463.73" x2="489.22" y1="378.17" y2="378.17" gradientTransform="matrix(.11834 .037657 -.033712 .10595 -4.0975 -12.983)" gradientUnits="userSpaceOnUse">
   <stop stop-color="#69737a" offset="0"/>
   <stop stop-color="#6b7276" offset=".038339"/>
   <stop stop-color="#58595c" offset=".1463"/>
   <stop stop-color="#f2f3f4" offset=".32275"/>
   <stop stop-color="#f2f3f4" offset=".48029"/>
   <stop stop-color="#7f868b" offset=".60172"/>
   <stop stop-color="#525252" offset=".69846"/>
   <stop stop-color="#5c5c5c" offset=".80096"/>
   <stop stop-color="#484848" offset=".88617"/>
   <stop stop-opacity="0" offset="1"/>
  </linearGradient>
  <filter id="filter1066-8" x="-.063923" y="-.056531" width="1.1278" height="1.1131" color-interpolation-filters="sRGB">
   <feGaussianBlur stdDeviation="0.22705935"/>
  </filter>
  <linearGradient id="linearGradient938-73" x1="80.368" x2="82.141" y1="13.177" y2="14.704" gradientTransform="matrix(3.6343 0 0 3.6343 -246.72 -6.7346)" gradientUnits="userSpaceOnUse">
   <stop stop-color="#fafafa" offset="0"/>
   <stop stop-color="#90a0b3" offset="1"/>
  </linearGradient>
  <linearGradient id="linearGradient1206-2" x1="54.456" x2="54.456" y1="6.4548" y2="11.072" gradientTransform="matrix(3.6343 0 0 3.6343 -167.64 -22.092)" gradientUnits="userSpaceOnUse">
   <stop stop-color="#7b7b7b" offset="0"/>
   <stop stop-color="#676767" offset="1"/>
  </linearGradient>
 </defs>
 <rect transform="rotate(-6.4422)" x="1.6906" y="7.6047" width="52.888" height="52.888" ry="4.4112" fill="#f3f3f3" stroke-width="3.6343"/>
 <path transform="matrix(3.9047 0 0 3.6649 -168.13 -11.927)" d="m57.818 9.8288s0.05354 3.0782-2.6636 4.5408c-2.2449 1.2084 0.9386 2.689-5.8599 5.0989 8.8505-2.5748 8.5235-9.6396 8.5235-9.6396z" fill="#141414" filter="url(#filter1066-8)" opacity=".3"/>
 <path transform="matrix(3.7943 0 0 3.5354 -161.57 -10.223)" d="m57.818 9.8288s0.05354 3.0782-2.6636 4.5408c-2.2449 1.2084 0.9386 2.689-5.8599 5.0989 8.8505-2.5748 8.5235-9.6396 8.5235-9.6396z" fill="#141414" filter="url(#filter1066-8)" opacity=".3"/>
 <path d="m51.186 1.8984c-0.010306 1.221e-4 -0.020931 0.0017593-0.03125 0.0019531 0.14832-0.0016975 0.29583 0.0027171 0.44141 0.015625 0.057406 0.0050897 0.11309 0.016148 0.16992 0.023438-0.046832-0.0062019-0.091311-0.021198-0.13867-0.025391l0.001953 0.0019531c-0.14622-0.012965-0.2939-0.019349-0.44336-0.017578zm2.0508 0.5c0.022221 0.01158 0.044401 0.023207 0.066406 0.035156 0.016119 0.0087528 0.032827 0.016441 0.048828 0.025391-0.038088-0.020875-0.076504-0.040768-0.11523-0.060547zm0.47656 0.28516c0.027633 0.019163 0.052896 0.040763 0.080078 0.060547 0.003793 0.0027566 0.007934 0.005044 0.011719 0.0078125 0.004853 0.0035563 0.008833 0.0081428 0.013671 0.011719 0.053018 0.039183 0.107 0.075675 0.1582 0.11719-0.086228-0.068491-0.17251-0.13531-0.26367-0.19727zm0.29102 0.2207c0.088049 0.072582 0.17363 0.14926 0.25586 0.22852 0.13682 0.13187 0.26369 0.27473 0.38281 0.42383 0.004916 0.0061411 0.010741 0.011409 0.015625 0.017578 0.003477 0.0043999 0.006305 0.0092577 0.009766 0.013672 0.11537 0.14714 0.22196 0.30082 0.31836 0.46289 0.01178 0.019746 0.021721 0.04059 0.033203 0.060547 0.082165 0.1432 0.15649 0.29189 0.22266 0.44531 0.011722 0.027113 0.02591 0.052663 0.037109 0.080078 0.066793 0.16391 0.12265 0.33381 0.16992 0.50781 0.010539 0.038729 0.019771 0.077992 0.029297 0.11719 0.043792 0.18044 0.080161 0.36515 0.10156 0.55469l0.68359 6.0488-52.523 5.9297 4.2617 37.742c0.27421 2.4284 2.4486 4.1607 4.877 3.8867l13.693-1.5449c12.616-3.4699 30.399-14.233 30.957-35.029l3.0234 26.752-4.9414-43.787c-0.13522-1.1975-0.74297-2.212-1.6074-2.9102z" fill="#fafafa"/>
 <path d="m57.527 22.722s0.19457 11.187-9.6803 16.502c-8.1586 4.3915 3.4112 9.7725-21.297 18.531 32.166-9.3575 31.232-34.906 31.232-34.906z" fill="url(#linearGradient938-73)" stroke-width="3.6343"/>
 <path d="m51.596 1.9165c-0.29243-0.02593-0.59041-0.02302-0.89395 0.01126l-43.787 4.943c-2.4284 0.27421-4.1617 2.4507-3.8877 4.8791l0.68362 6.0493 52.552-5.9344-0.68361-6.0493c-0.23993-2.1249-1.9362-3.7175-3.9833-3.899z" fill="url(#linearGradient1206-2)" stroke-width="3.6343"/>
 <path d="m57.531 22.917s-0.6855 11.368-9.1077 16.024c-9.689 5.3572 3.527 10.145-21.999 18.814" fill="none" stroke="#fafafa" stroke-width=".48076"/>
 <path transform="matrix(.1477 0 0 .1477 -71.062 19.257)" d="m668.59 185.08c14.625-39.145 33.463-45.894 54.78-56.949s73.719 21.134 3.2542 85.153-137.64 9.014-151.32-14.644c21.598-18.065 82.149 16.257 93.288-13.559z" fill="url(#linearGradient4497)" filter="url(#filter4539)"/>
 <g transform="translate(-15.792 -3.7859)">
  <path d="m36.522 49.492c-1.8227 2.2593-0.78461 4.7956-1.0446 7.2058 1.1324-2.1062 3.5509-2.6497 3.272-6.5436-0.67738-0.83053-1.4996-0.48689-2.2274-0.66219z" fill="url(#linearGradient5012)" stroke="#1d0f0c" stroke-width=".11118px"/>
  <g transform="matrix(3.7796,0,0,3.7796,-26.582,-42.537)" fill="#2f1919" shape-rendering="auto" stroke-width=".029416">
   <path d="m16.711 25.754c0.18323-0.30298 0.38926-0.59722 0.41382-0.99945 0.02329 0.21502-0.41852 1.0079-0.41382 0.99945z" color="#000000" color-rendering="auto" dominant-baseline="auto" image-rendering="auto" solid-color="#000000" style="font-feature-settings:normal;font-variant-alternates:normal;font-variant-caps:normal;font-variant-ligatures:normal;font-variant-numeric:normal;font-variant-position:normal;isolation:auto;mix-blend-mode:normal;shape-padding:0;text-decoration-color:#000000;text-decoration-line:none;text-decoration-style:solid;text-indent:0;text-orientation:mixed;text-transform:none;white-space:normal"/>
   <path d="m16.581 25.732c0.04441-0.17553 0.14204-0.32687 0.11284-0.53586-0.0053 0.06127-0.17004 0.51683-0.11284 0.53586z" color="#000000" color-rendering="auto" dominant-baseline="auto" image-rendering="auto" solid-color="#000000" style="font-feature-settings:normal;font-variant-alternates:normal;font-variant-caps:normal;font-variant-ligatures:normal;font-variant-numeric:normal;font-variant-position:normal;isolation:auto;mix-blend-mode:normal;shape-padding:0;text-decoration-color:#000000;text-decoration-line:none;text-decoration-style:solid;text-indent:0;text-orientation:mixed;text-transform:none;white-space:normal"/>
   <path d="m16.476 25.787 0.08457-0.76716c-0.06228 0.08059-0.15138 0.7598-0.08457 0.76716z" color="#000000" color-rendering="auto" dominant-baseline="auto" image-rendering="auto" solid-color="#000000" style="font-feature-settings:normal;font-variant-alternates:normal;font-variant-caps:normal;font-variant-ligatures:normal;font-variant-numeric:normal;font-variant-position:normal;isolation:auto;mix-blend-mode:normal;shape-padding:0;text-decoration-color:#000000;text-decoration-line:none;text-decoration-style:solid;text-indent:0;text-orientation:mixed;text-transform:none;white-space:normal"/>
  </g>
  <g transform="matrix(3.7796,0,0,3.7796,-26.582,-42.537)" stroke-width=".029416">
   <path d="m16.617 25.112c0.04308-0.17586 0.02781-0.35531 0.1516-0.52622-0.02401 0.05662-0.09215 0.53625-0.1516 0.52622z" color="#000000" color-rendering="auto" dominant-baseline="auto" fill="#cc9f9f" fill-opacity=".094697" image-rendering="auto" shape-rendering="auto" solid-color="#000000" style="font-feature-settings:normal;font-variant-alternates:normal;font-variant-caps:normal;font-variant-ligatures:normal;font-variant-numeric:normal;font-variant-position:normal;isolation:auto;mix-blend-mode:normal;shape-padding:0;text-decoration-color:#000000;text-decoration-line:none;text-decoration-style:solid;text-indent:0;text-orientation:mixed;text-transform:none;white-space:normal"/>
   <path d="m16.626 25.275c0.04308-0.17586 0.02781-0.35531 0.15159-0.52622-0.02401 0.05662-0.09215 0.53625-0.15159 0.52622z" color="#000000" color-rendering="auto" dominant-baseline="auto" fill="#cc9f9f" fill-opacity=".094697" image-rendering="auto" shape-rendering="auto" solid-color="#000000" style="font-feature-settings:normal;font-variant-alternates:normal;font-variant-caps:normal;font-variant-ligatures:normal;font-variant-numeric:normal;font-variant-position:normal;isolation:auto;mix-blend-mode:normal;shape-padding:0;text-decoration-color:#000000;text-decoration-line:none;text-decoration-style:solid;text-indent:0;text-orientation:mixed;text-transform:none;white-space:normal"/>
   <path d="m16.696 24.349c-0.48224 0.59775-0.20759 1.2688-0.27639 1.9065 0.2996-0.55725 0.92553-0.70703 0.85173-1.7373-0.17922-0.21974-0.38278-0.12284-0.57534-0.16922z" fill="url(#linearGradient5038)"/>
  </g>
  <path transform="matrix(.11118 0 0 .11118 -63.81 10.43)" d="m1018.5 9.8027c-33.063 83.258-59.041 168.35-83.398 253.87l-28.205 88.637c0.976 0.19059 1.95 0.384 2.9277 0.57227-0.7881-0.076-1.5739-0.19307-2.3535-0.38086-7.0373 8.723-9.3267 17.905-9.8398 27.26l28.506-4.5957c0.96819-4.6887 1.3484-10.119 0.91211-16.576 0.346 0.23297 0.68522 0.47472 1.0156 0.72851l34.17-87.012c23.977-71.586 46.352-143.08 63.896-215.17z" fill="#161111" fill-opacity=".37879" filter="url(#filter5067)"/>
  <path d="m39.603 39.616c3.1266-10.977 6.4926-21.892 11.035-32.502 0.13879-0.31223 0.63218-0.46602 0.82089-0.35298 0.1567 0.093885 0.2987 0.49237 0.20425 0.89569-2.0587 11.086-5.3837 21.992-9.0435 32.919z" fill="url(#linearGradient5141)" stroke-width=".11118"/>
  <path d="m39.603 39.616c1.1927-0.12922 2.2256 0.12526 3.0167 0.95994l-3.7993 9.6739c-0.62125-0.47729-1.4994-0.61222-2.3534-0.77901z" fill="url(#linearGradient4979)" stroke-width=".11118" style="paint-order:fill markers stroke"/>
 </g>
</svg>
