<?xml version="1.0" encoding="UTF-8" standalone="no"?>
<svg
   xmlns:dc="http://purl.org/dc/elements/1.1/"
   xmlns:cc="http://creativecommons.org/ns#"
   xmlns:rdf="http://www.w3.org/1999/02/22-rdf-syntax-ns#"
   xmlns:svg="http://www.w3.org/2000/svg"
   xmlns="http://www.w3.org/2000/svg"
   xmlns:xlink="http://www.w3.org/1999/xlink"
   xmlns:sodipodi="http://sodipodi.sourceforge.net/DTD/sodipodi-0.dtd"
   xmlns:inkscape="http://www.inkscape.org/namespaces/inkscape"
   width="64"
   height="64"
   version="1.1"
   viewBox="0 0 16.933 16.933"
   id="svg213"
   sodipodi:docname="com.github.dahenson.agenda.svg"
   inkscape:version="1.0.1 (3bc2e813f5, 2020-09-07)">
  <metadata
     id="metadata217">
    <rdf:RDF>
      <cc:Work
         rdf:about="">
        <dc:format>image/svg+xml</dc:format>
        <dc:type
           rdf:resource="http://purl.org/dc/dcmitype/StillImage" />
        <dc:title></dc:title>
      </cc:Work>
    </rdf:RDF>
  </metadata>
  <sodipodi:namedview
     pagecolor="#ffffff"
     bordercolor="#666666"
     borderopacity="1"
     objecttolerance="10"
     gridtolerance="10"
     guidetolerance="10"
     inkscape:pageopacity="0"
     inkscape:pageshadow="2"
     inkscape:window-width="1920"
     inkscape:window-height="1004"
     id="namedview215"
     showgrid="false"
     inkscape:zoom="6.5078125"
     inkscape:cx="63.620503"
     inkscape:cy="31.715818"
     inkscape:window-x="0"
     inkscape:window-y="0"
     inkscape:window-maximized="1"
     inkscape:current-layer="svg213" />
  <defs
     id="defs25">
    <linearGradient
       id="linearGradient862"
       x1="7.9373"
       x2="7.9373"
       y1="15.081"
       y2="1.852"
       gradientUnits="userSpaceOnUse"
       gradientTransform="translate(21.203721)">
      <stop
         stop-color="#eae8e9"
         offset="0"
         id="stop2" />
      <stop
         stop-color="#f9f8f9"
         offset="1"
         id="stop4" />
    </linearGradient>
    <linearGradient
       id="linearGradient4308">
      <stop
         stop-color="#64baff"
         offset="0"
         id="stop7" />
      <stop
         stop-color="#0d52bf"
         offset="1"
         id="stop9" />
    </linearGradient>
    <clipPath
       id="clipPath7904">
      <path
         d="m66 33c-2.216 0-4 1.784-4 4l-3e-6 40h-16c-2.216 0-4 1.784-4 3.9999l3e-6 8c-4e-6 2.216 1.784 4.0001 4 4l28 1e-4c2.216 0 4-1.784 4-4.0001l1.8e-5 -52c-3e-6 -2.216-1.784-4-4-4z"
         fill="url(#linearGradient7908)"
         id="path12" />
    </clipPath>
    <linearGradient
       id="linearGradient7908"
       x1="129.43"
       x2="193.44"
       y1="903.24"
       y2="914.53"
       gradientTransform="matrix(.76604 .64279 -.64279 .76604 525.01 -731.7)"
       gradientUnits="userSpaceOnUse"
       xlink:href="#linearGradient4308" />
    <linearGradient
       id="linearGradient8451"
       x1="282.24"
       x2="261.03"
       y1="1013.7"
       y2="988.43"
       gradientTransform="matrix(0.11472,0.096265,-0.096265,0.11472,91.739,-130.23)"
       gradientUnits="userSpaceOnUse">
      <stop
         stop-color="#fff"
         offset="0"
         id="stop16" />
      <stop
         stop-color="#fff"
         stop-opacity="0"
         offset="1"
         id="stop18" />
    </linearGradient>
    <linearGradient
       id="linearGradient8453"
       x1="129.43"
       x2="193.44"
       y1="903.24"
       y2="914.53"
       gradientTransform="matrix(0.026006,0.14749,-0.14749,0.026006,156.38,-39.073)"
       gradientUnits="userSpaceOnUse"
       xlink:href="#linearGradient4308" />
    <linearGradient
       id="linearGradient8460"
       x1="151"
       x2="151"
       y1="60"
       y2="76"
       gradientTransform="matrix(0.13749,0,0,0.13749,-17.297,-4.0255)"
       gradientUnits="userSpaceOnUse"
       xlink:href="#linearGradient4308" />
    <linearGradient
       id="linearGradient957"
       x1="151"
       x2="151"
       y1="60"
       y2="76"
       gradientTransform="matrix(0.13749,0,0,0.13749,-17.297,0.0066533)"
       gradientUnits="userSpaceOnUse"
       xlink:href="#linearGradient4308" />
    <linearGradient
       id="linearGradient963"
       x1="151"
       x2="151"
       y1="60"
       y2="76"
       gradientTransform="matrix(0.13749,0,0,0.13749,-17.297,2.0607)"
       gradientUnits="userSpaceOnUse"
       xlink:href="#linearGradient4308" />
    <style
       type="text/css"
       id="style1044" />
    <style
       type="text/css"
       id="style1046" />
    <linearGradient
       id="linearGradient938"
       x1="80.368"
       x2="82.141"
       y1="13.177"
       y2="14.704"
       gradientTransform="matrix(0.96154,0,0,0.96154,-65.275,-1.6916)"
       gradientUnits="userSpaceOnUse">
      <stop
         stop-color="#fafafa"
         offset="0"
         id="stop1048" />
      <stop
         stop-color="#90a0b3"
         offset="1"
         id="stop1050" />
    </linearGradient>
    <filter
       id="filter1066"
       x="-.063923"
       y="-.056531"
       width="1.1278"
       height="1.1131"
       color-interpolation-filters="sRGB">
      <feGaussianBlur
         stdDeviation="0.22705935"
         id="feGaussianBlur1053" />
    </filter>
    <filter
       id="filter1100"
       x="-.12197"
       y="-.11848"
       width="1.2439"
       height="1.237"
       color-interpolation-filters="sRGB">
      <feGaussianBlur
         stdDeviation="0.47586465"
         id="feGaussianBlur1056" />
    </filter>
    <linearGradient
       inkscape:collect="always"
       xlink:href="#linearGradient8451"
       id="linearGradient1255"
       gradientUnits="userSpaceOnUse"
       gradientTransform="matrix(0.11217678,0.0667262,-0.0667262,0.11217678,45.189308,-119.36121)"
       x1="282.24"
       y1="1013.7"
       x2="261.03"
       y2="988.43" />
    <linearGradient
       inkscape:collect="always"
       xlink:href="#linearGradient4308"
       id="linearGradient1257"
       gradientUnits="userSpaceOnUse"
       gradientTransform="matrix(0.04304535,0.12322588,-0.12322588,0.04304535,113.57194,-50.008955)"
       x1="129.43"
       y1="903.24"
       x2="193.44"
       y2="914.53" />
    <linearGradient
       inkscape:collect="always"
       xlink:href="#linearGradient4308"
       id="linearGradient1259"
       gradientUnits="userSpaceOnUse"
       gradientTransform="matrix(0.13569999,-0.02211362,0.02211362,0.13569999,-18.902105,0.41662311)"
       x1="151"
       y1="60"
       x2="151"
       y2="76" />
    <linearGradient
       inkscape:collect="always"
       xlink:href="#linearGradient4308"
       id="linearGradient1261"
       gradientUnits="userSpaceOnUse"
       gradientTransform="matrix(0.13569999,-0.02211362,0.02211362,0.13569999,-18.27061,4.7350875)"
       x1="151"
       y1="60"
       x2="151"
       y2="76" />
    <linearGradient
       inkscape:collect="always"
       xlink:href="#linearGradient4308"
       id="linearGradient1263"
       gradientUnits="userSpaceOnUse"
       gradientTransform="matrix(0.13569999,-0.02211362,0.02211362,0.13569999,-18.360825,6.9858868)"
       x1="151"
       y1="60"
       x2="151"
       y2="76" />
  </defs>
  <style
     type="text/css"
     id="style1103">.st0{opacity:0.15;fill:#45413C;}
	.st1{fill:#FFE500;}
	.st2{fill:#EBCB00;}
	.st3{fill:none;stroke:#45413C;stroke-linecap:round;stroke-linejoin:round;stroke-miterlimit:10;}
	.st4{fill:#FFAA54;}
	.st5{fill:#FF8A14;}
	.st6{fill:#FFB0CA;stroke:#45413C;stroke-linecap:round;stroke-linejoin:round;stroke-miterlimit:10;}
	.st7{fill:#FF87AF;stroke:#45413C;stroke-linecap:round;stroke-linejoin:round;stroke-miterlimit:10;}
	.st8{fill:#FFCC99;}
	.st9{fill:#FFFFFF;}
	.st10{fill:#F0F0F0;}
	.st11{fill:#BF8256;}
	.st12{fill:#915E3A;}
	.st13{fill:#DEA47A;}
	.st14{fill:#F0D5A8;}
	.st15{fill:#DEBB7E;}
	.st16{fill:#F7E5C6;}
	.st17{fill:#FF8A14;stroke:#45413C;stroke-linecap:round;stroke-linejoin:round;stroke-miterlimit:10;}
	.st18{fill:#FFF5E3;}
	.st19{fill:#FFF48C;}
	.st20{fill:#FFFACF;}
	.st21{fill:#FFFCE5;}
	.st22{fill:#FF87AF;}
	.st23{fill:#FFB0CA;}
	.st24{fill:#FFE500;stroke:#45413C;stroke-linecap:round;stroke-linejoin:round;stroke-miterlimit:10;}
	.st25{fill:#9CEB60;stroke:#45413C;stroke-linecap:round;stroke-linejoin:round;stroke-miterlimit:10;}
	.st26{fill:#FFFACF;stroke:#45413C;stroke-linecap:round;stroke-linejoin:round;stroke-miterlimit:10;}
	.st27{fill:#00F5BC;stroke:#45413C;stroke-linecap:round;stroke-linejoin:round;stroke-miterlimit:10;}
	.st28{fill:#BF8256;stroke:#45413C;stroke-linecap:round;stroke-linejoin:round;stroke-miterlimit:10;}
	.st29{fill:#FFE3CF;stroke:#45413C;stroke-linecap:round;stroke-linejoin:round;stroke-miterlimit:10;}
	.st30{fill:#FF6242;}
	.st31{fill:#FF866E;}
	.st32{fill:none;stroke:#E04122;stroke-linecap:round;stroke-linejoin:round;stroke-miterlimit:10;}
	.st33{fill:#FFFEF2;stroke:#45413C;stroke-linecap:round;stroke-linejoin:round;stroke-miterlimit:10;}
	.st34{fill:#FF6242;stroke:#45413C;stroke-linecap:round;stroke-linejoin:round;stroke-miterlimit:10;}
	.st35{fill:#FFA694;}
	.st36{fill:#FFFFFF;stroke:#45413C;stroke-linecap:round;stroke-linejoin:round;stroke-miterlimit:10;}
	.st37{fill:#FFFEF2;}
	.st38{fill:#FF6196;}
	.st39{fill:#B89558;}
	.st40{fill:none;stroke:#915E3A;stroke-linecap:round;stroke-linejoin:round;stroke-miterlimit:10;}
	.st41{fill:#DEBB7E;stroke:#45413C;stroke-linecap:round;stroke-linejoin:round;stroke-miterlimit:10;}
	.st42{fill:#6DD627;stroke:#45413C;stroke-linecap:round;stroke-linejoin:round;stroke-miterlimit:10;}
	.st43{fill:#E5F8FF;}
	.st44{fill:#E8F4FA;}
	.st45{fill:#E8F4FA;stroke:#45413C;stroke-linecap:round;stroke-linejoin:round;stroke-miterlimit:10;}
	.st46{fill:#FFCCDD;}
	.st47{fill:#E5F8FF;stroke:#45413C;stroke-linecap:round;stroke-linejoin:round;stroke-miterlimit:10;}
	.st48{fill:#00B8F0;stroke:#45413C;stroke-linecap:round;stroke-linejoin:round;stroke-miterlimit:10;}
	.st49{fill:#00B8F0;}
	.st50{fill:#4ACFFF;}
	.st51{fill:#E04122;}
	.st52{fill:#E04122;stroke:#45413C;stroke-linecap:round;stroke-linejoin:round;stroke-miterlimit:10;}
	.st53{fill:#87898C;}
	.st54{fill:#BDBEC0;}
	.st55{fill:#656769;}
	.st56{fill:#525252;}
	.st57{fill:#FFF48C;stroke:#45413C;stroke-linecap:round;stroke-linejoin:round;stroke-miterlimit:10;}
	.st58{fill:#6DD627;}
	.st59{fill:#EB6D00;}
	.st60{fill:#46B000;}
	.st61{fill:#80DDFF;}
	.st62{fill:#DAEDF7;}
	.st63{fill:#BF8DF2;stroke:#45413C;stroke-linecap:round;stroke-linejoin:round;stroke-miterlimit:10;}
	.st64{fill:#9F5AE5;stroke:#45413C;stroke-linecap:round;stroke-linejoin:round;stroke-miterlimit:10;}
	.st65{fill:#C8FFA1;}
	.st66{fill:#E4FFD1;}
	.st67{fill:#9CEB60;}
	.st68{fill:#E5FEFF;}
	.st69{fill:#B8ECFF;}
	.st70{fill:#E0E0E0;stroke:#45413C;stroke-linecap:round;stroke-linejoin:round;stroke-miterlimit:10;}
	.st71{fill:#E0E0E0;}
	.st72{fill:none;stroke:#4F4B45;stroke-linejoin:round;stroke-miterlimit:10;}
	.st73{fill:none;stroke:#4F4B45;stroke-linecap:round;stroke-linejoin:round;stroke-miterlimit:10;}
	.st74{fill:#E0366F;stroke:#45413C;stroke-linecap:round;stroke-linejoin:round;stroke-miterlimit:10;}
	.st75{fill:none;stroke:#45413C;stroke-miterlimit:10;}
	.st76{fill:#FF866E;stroke:#45413C;stroke-linecap:round;stroke-linejoin:round;stroke-miterlimit:10;}
	.st77{fill:#45413C;stroke:#45413C;stroke-linecap:round;stroke-linejoin:round;stroke-miterlimit:10;}
	.st78{fill:#9F5AE5;}
	.st79{fill:#803EC2;}
	.st80{fill:#803EC2;stroke:#45413C;stroke-linecap:round;stroke-linejoin:round;stroke-miterlimit:10;}
	.st81{fill:#BF8DF2;}
	.st82{fill:#FFAA54;stroke:#45413C;stroke-linecap:round;stroke-linejoin:round;stroke-miterlimit:10;}
	.st83{fill:none;stroke:#45413C;stroke-linejoin:round;stroke-miterlimit:10;}
	.st84{fill:#FFCCDD;stroke:#45413C;stroke-linecap:round;stroke-linejoin:round;stroke-miterlimit:10;}
	.st85{fill:#FF6196;stroke:#45413C;stroke-linecap:round;stroke-linejoin:round;stroke-miterlimit:10;}
	.st86{fill:#FFE5EE;}
	.st87{fill:#F7E5C6;stroke:#45413C;stroke-linecap:round;stroke-linejoin:round;stroke-miterlimit:10;}
	.st88{fill:#E5FFF9;}
	.st89{fill:none;stroke:#45413C;stroke-width:1.0064;stroke-linecap:round;stroke-linejoin:round;stroke-miterlimit:10;}
	.st90{fill:#4AEFF7;}
	.st91{fill:#A6FBFF;}
	.st92{fill:#E5FEFF;stroke:#45413C;stroke-linecap:round;stroke-linejoin:round;stroke-miterlimit:10;}
	.st93{fill:#46B000;stroke:#45413C;stroke-linecap:round;stroke-linejoin:round;stroke-miterlimit:10;}
	.st94{fill:#FFFFFF;stroke:#45413C;stroke-linejoin:round;stroke-miterlimit:10;}
	.st95{fill:#FFFFFF;stroke:#45413C;stroke-miterlimit:10;}
	.st96{fill:#009FD9;}
	.st97{fill:#00DFEB;}
	.st98{fill:#C0DCEB;stroke:#45413C;stroke-linecap:round;stroke-linejoin:round;stroke-miterlimit:10;}
	.st99{fill:#00DFEB;stroke:#45413C;stroke-linecap:round;stroke-linejoin:round;stroke-miterlimit:10;}
	.st100{fill:#FFE5EE;stroke:#45413C;stroke-linecap:round;stroke-linejoin:round;stroke-miterlimit:10;}
	.st101{fill:#8CA4B8;}
	.st102{fill:#ADC4D9;}
	.st103{fill:#656769;stroke:#45413C;stroke-linecap:round;stroke-linejoin:round;stroke-miterlimit:10;}
	.st104{fill:#F0F0F0;stroke:#45413C;stroke-linecap:round;stroke-linejoin:round;stroke-miterlimit:10;}
	.st105{fill:#C0DCEB;}
	.st106{fill:#45413C;}
	.st107{fill:#FFCABF;}
	.st108{fill:#87898C;stroke:#45413C;stroke-linecap:round;stroke-linejoin:round;stroke-miterlimit:10;}
	.st109{fill:#EBCB00;stroke:#45413C;stroke-linecap:round;stroke-linejoin:round;stroke-miterlimit:10;}</style>
  <circle
     cx="-350.44617"
     cy="-328.5"
     r="0"
     fill="#5e4aa6"
     image-rendering="optimizeSpeed"
     stroke-width="0.26458"
     id="circle1061" />
  <g
     transform="translate(-5.531852e-5,-2.2622e-5)"
     id="g1099">
    <rect
       transform="rotate(-6.4422)"
       x="0.43751001"
       y="2.1015999"
       width="13.992"
       height="13.992"
       ry="1.1671"
       fill="#f3f3f3"
       stroke-width="0.96154"
       id="rect1063" />
    <path
       d="m 11.851,12.81 4.0211,-0.45566"
       fill="none"
       stroke="#dcdcdc"
       stroke-width="0.17808"
       id="path1065" />
    <path
       d="m 13.949,10.436 1.6908,-0.1916"
       fill="none"
       stroke="#dcdcdc"
       stroke-width="0.17808"
       id="path1067" />
    <path
       transform="matrix(1.0331,0,0,0.96962,-44.482,-3.0653)"
       d="m 57.818,9.8288 c 0,0 0.05354,3.0782 -2.6636,4.5408 -2.2449,1.2084 0.9386,2.689 -5.8599,5.0989 8.8505,-2.5748 8.5235,-9.6396 8.5235,-9.6396 z"
       fill="#141414"
       filter="url(#filter1066)"
       opacity="0.3"
       id="path1069" />
    <path
       transform="matrix(1.0038,0,0,0.93536,-42.747,-2.6146)"
       d="m 57.818,9.8288 c 0,0 0.05354,3.0782 -2.6636,4.5408 -2.2449,1.2084 0.9386,2.689 -5.8599,5.0989 8.8505,-2.5748 8.5235,-9.6396 8.5235,-9.6396 z"
       fill="#141414"
       filter="url(#filter1066)"
       opacity="0.3"
       id="path1073" />
    <path
       d="M 13.66,0.59712 C 13.58263,0.590264 13.5033,0.591033 13.42299,0.600101 l -11.585,1.3083 c -0.6425,0.072547 -1.1015,0.6479 -1.029,1.2904 l 1.3083,11.585 c 0.072548,0.6425 0.6479,1.1011 1.2904,1.0286 l 3.6228,-0.40893 c 3.3378,-0.91804 8.043,-3.7657 8.1906,-9.2678 l 0.79998,7.0781 -1.3078,-11.585 c -0.06348,-0.56218 -0.51228,-0.98404 -1.0538,-1.032 z"
       fill="#fafafa"
       stroke-width="0.96154"
       id="path1075" />
    <path
       d="M 1.4827,9.6492 15.3867,8.0791"
       fill="none"
       stroke="#dcdcdc"
       stroke-width="0.17808"
       id="path1077" />
    <path
       d="m 1.7914,11.78 10.932,-1.2388"
       fill="none"
       stroke="#dcdcdc"
       stroke-width="0.17808"
       id="path1079" />
    <path
       d="m 15.22,6.1017 c 0,0 0.05148,2.9598 -2.5612,4.3662 -2.1586,1.1619 0.9025,2.5856 -5.6345,4.9028 8.5101,-2.4758 8.2632,-9.2351 8.2632,-9.2351 z"
       fill="url(#linearGradient938)"
       stroke-width="0.96154"
       id="path1081"
       style="fill:url(#linearGradient938)" />
    <g
       fill="none"
       id="g1097">
      <path
         d="m 2.0077,13.973 9.3164,-1.0558"
         stroke="#dcdcdc"
         stroke-width="0.17821"
         id="path1083" />
      <path
         d="m 15.221,6.1535 c 0,0 -0.18136,3.0075 -2.4096,4.2395 -2.5635,1.4174 0.93315,2.684 -5.8203,4.9776"
         stroke="#fafafa"
         stroke-width="0.1272"
         id="path1085" />
      <path
         d="M 1.2606,7.4232 15.1646,5.8531"
         stroke="#dcdcdc"
         stroke-width="0.17808"
         id="path1087" />
      <path
         d="M 2.0077,13.974"
         stroke="#000000"
         stroke-width="0.2544px"
         id="path1089" />
      <g
         stroke="#dcdcdc"
         stroke-width="0.17808"
         id="g1095">
        <path
           d="M 1.0455,5.2233 14.9495,3.6532"
           id="path1091" />
        <path
           d="m 0.81761,3.1254 13.839,-1.5701"
           id="path1093" />
      </g>
    </g>
  </g>
  <path
     d="m 5.2095673,6.3695522 q -0.017736,0.00288 -0.033623,0.0032 -0.013666,-5.26e-5 -0.029903,-0.00195 -0.041721,-0.00458 -0.063017,-0.037529 -0.027183,-0.041092 -0.017343,-0.1064262 0.01169,-0.067911 0.044218,-0.1756285 0.00599,-0.019185 0.011232,-0.0428 0.00527,-0.023618 0.013092,-0.045378 -0.027013,0.015782 -0.055939,0.047808 -0.027065,0.029448 -0.055992,0.061475 -0.019277,0.021349 -0.046608,0.021251 -0.029542,2.649e-4 -0.050531,-0.016802 -0.021349,-0.019281 -0.021253,-0.046609 1.057e-4,-0.02733 0.016801,-0.050535 0.027427,-0.027229 0.056353,-0.059256 0.028925,-0.032026 0.063727,-0.055906 0.083313,-0.061375 0.1623119,-0.051487 0.036556,8.751e-4 0.060434,0.035672 0.023879,0.034801 0.012281,0.089041 -0.00942,0.053885 -0.038596,0.1542356 -0.00674,0.028412 -0.015717,0.057186 -0.00674,0.028412 -0.013857,0.054608 -0.003,0.0096 -0.00408,0.016598 -0.00109,0.00701 -0.00227,0.014027 0.021806,-0.00583 0.053261,-0.022336 0.033666,-0.016867 0.074398,-0.046265 0.042582,-0.031976 0.095948,-0.08164 0.053357,-0.049664 0.1212075,-0.1221755 0.051912,-0.058533 0.097541,-0.1137656 0.045621,-0.055232 0.079393,-0.099428 0.033771,-0.044197 0.054185,-0.07256 0.020414,-0.028363 0.020414,-0.028363 0.021551,-0.035377 0.06105,-0.030434 0.018458,0.00154 0.031349,0.010824 0.01289,0.00928 0.021349,0.019281 0.020574,0.028511 0.014094,0.072812 -0.00643,0.044295 -0.027459,0.1387631 -0.0086,0.030991 -0.017215,0.061983 -0.00639,0.030629 -0.013496,0.056825 -3.649e-4,0.01144 -0.00264,0.025467 0.030318,-0.00948 0.062537,-0.035229 0.03222,-0.025734 0.063727,-0.055906 0.031497,-0.03017 0.058202,-0.061835 0.026344,-0.033882 0.047481,-0.05781 0.018916,-0.023568 0.045886,-0.025686 0.026971,-0.00212 0.050169,0.014585 0.021349,0.019281 0.023464,0.046249 0.00434,0.026606 -0.01458,0.050173 -0.04341,0.054871 -0.089753,0.1056685 -0.046704,0.04858 -0.097085,0.088654 -0.048511,0.037494 -0.1017721,0.05983 -0.053622,0.020119 -0.1090088,0.015484 -0.03764,-0.00752 -0.058224,-0.036033 -0.018363,-0.028871 -0.019722,-0.065068 4.705e-4,-0.038769 0.011073,-0.099675 -0.020775,0.026146 -0.044132,0.050437 -0.021138,0.023925 -0.045984,0.05301 -0.2665813,0.291532 -0.4373092,0.3193537 z"
     opacity="0.25"
     id="path1163"
     style="fill:#333333" />
  <path
     d="m 6.6950141,5.9977959 q -0.026608,0.00434 -0.046874,-0.0083 -0.040169,-0.023043 -0.03188,-0.069915 -3.618e-4,-0.00222 0.00685,-0.05574 0.00942,-0.053885 0.021126,-0.1217936 0.00494,-0.039498 0.00947,-0.067551 0.00418,-0.030271 0.0072,-0.053523 -0.043676,0.025325 -0.099923,0.057253 -0.056247,0.031926 -0.1206449,0.069732 -0.062537,0.035229 -0.1291565,0.073397 -0.066619,0.038168 -0.1291566,0.073397 -0.022943,0.012847 -0.049138,0.00572 -0.028777,-0.00897 -0.044197,-0.033767 -0.012857,-0.022942 -0.00351,-0.049502 0.00674,-0.028412 0.031551,-0.043834 0.093993,-0.051734 0.1939156,-0.1089859 0.1021431,-0.057614 0.1854039,-0.1053231 0.083271,-0.04771 0.137297,-0.079275 0.056247,-0.031926 0.056247,-0.031926 0.010723,-0.00403 0.019594,-0.00547 0.010723,-0.00403 0.022529,-0.00139 0.031763,-6.268e-4 0.050126,0.028249 0.013973,0.015931 0.01647,0.045113 0.00434,0.026606 0.00157,0.079407 -0.00191,0.029902 -0.00725,0.067188 -0.00347,0.034706 -0.011742,0.081575 -7.255e-4,0.00923 -0.00192,0.016245 -0.00109,0.00701 -0.00192,0.016245 0.080741,-0.06323 0.2006628,-0.1374031 0.022581,-0.01506 0.048777,-0.00795 0.025834,0.0049 0.040892,0.027476 0.017279,0.022221 0.010483,0.050642 -0.00674,0.028412 -0.02933,0.043472 -0.069966,0.045542 -0.1291996,0.087059 -0.059244,0.041519 -0.1018249,0.073494 -0.050732,0.037855 -0.091103,0.069472 -0.011498,0.013254 -0.031455,0.016506 z"
     opacity="0.25"
     id="path1165"
     style="fill:#333333" />
  <path
     d="m 7.2492618,6.0371644 q -0.017736,0.00288 -0.033622,0.0032 -0.013666,-5.26e-5 -0.029903,-0.00195 -0.041721,-0.00458 -0.063016,-0.037529 -0.027183,-0.041092 -0.017343,-0.1064262 0.011699,-0.067912 0.044218,-0.1756284 0.00599,-0.019184 0.011233,-0.0428 0.00527,-0.023618 0.013092,-0.045378 -0.027013,0.015782 -0.055939,0.047809 -0.027065,0.029448 -0.055993,0.061475 -0.019277,0.021349 -0.046608,0.021251 -0.029542,2.649e-4 -0.05053,-0.016802 -0.021349,-0.019281 -0.021253,-0.046609 1.058e-4,-0.02733 0.016801,-0.050535 0.027427,-0.027229 0.056353,-0.059256 0.028925,-0.032026 0.063727,-0.055906 0.083313,-0.061374 0.1623121,-0.051488 0.036556,8.751e-4 0.060434,0.035672 0.023879,0.034801 0.012281,0.089041 -0.00942,0.053885 -0.038596,0.1542356 -0.00675,0.028412 -0.015717,0.057186 -0.00674,0.028412 -0.013857,0.054608 -0.003,0.0096 -0.00408,0.016598 -0.00109,0.00701 -0.00227,0.014027 0.021806,-0.00583 0.053261,-0.022336 0.033666,-0.016867 0.074398,-0.046264 0.042582,-0.031976 0.095948,-0.081641 0.053357,-0.049664 0.1212076,-0.1221755 0.051911,-0.058533 0.097541,-0.1137655 0.045621,-0.055232 0.079392,-0.099428 0.033771,-0.044197 0.054185,-0.07256 0.020414,-0.028364 0.020414,-0.028364 0.021551,-0.035377 0.06105,-0.030434 0.018458,0.00154 0.031349,0.010824 0.01289,0.00928 0.021349,0.019281 0.020574,0.028512 0.014094,0.072813 -0.00643,0.044295 -0.027459,0.1387631 -0.0086,0.03099 -0.017215,0.061983 -0.00639,0.030629 -0.013496,0.056825 -3.648e-4,0.01144 -0.00264,0.025467 0.030319,-0.00948 0.062537,-0.035228 0.03222,-0.025735 0.063727,-0.055906 0.031497,-0.03017 0.058202,-0.061835 0.026344,-0.033882 0.047481,-0.05781 0.018916,-0.023568 0.045886,-0.025686 0.026971,-0.00212 0.050179,0.014583 0.021349,0.019281 0.023464,0.046249 0.00434,0.026605 -0.01459,0.050175 -0.043409,0.054871 -0.089753,0.1056683 -0.046704,0.04858 -0.097085,0.088654 -0.048511,0.037494 -0.1017721,0.05983 -0.053622,0.020118 -0.1090088,0.015484 -0.03764,-0.00752 -0.058224,-0.036033 -0.018363,-0.028872 -0.019722,-0.065068 4.705e-4,-0.038769 0.011072,-0.099674 -0.020775,0.026146 -0.044132,0.050437 -0.021137,0.023929 -0.045983,0.053014 Q 7.4200594,6.009331 7.2493315,6.0371528 Z"
     opacity="0.25"
     id="path1167"
     style="fill:#333333" />
  <path
     d="m 8.4271247,5.8452202 q -0.017736,0.00288 -0.033623,0.0032 -0.013666,-5.27e-5 -0.029903,-0.00195 -0.04172,-0.00458 -0.063016,-0.037528 -0.027183,-0.041091 -0.017343,-0.106426 0.01169,-0.067911 0.044218,-0.1756286 0.00599,-0.019184 0.011233,-0.0428 0.00527,-0.023618 0.013092,-0.045378 -0.027013,0.015782 -0.055939,0.047808 -0.027066,0.029448 -0.055991,0.061475 -0.019287,0.021351 -0.046608,0.021251 -0.029542,2.65e-4 -0.050531,-0.016802 -0.021349,-0.019281 -0.021253,-0.046609 1.058e-4,-0.02733 0.016801,-0.050535 0.027427,-0.027229 0.056353,-0.059256 0.028925,-0.032026 0.063717,-0.055904 0.083313,-0.061375 0.162312,-0.051487 0.036556,8.751e-4 0.060434,0.035673 0.023879,0.034801 0.012281,0.089041 -0.00942,0.053885 -0.038596,0.1542356 -0.00674,0.028412 -0.015717,0.057186 -0.00674,0.028412 -0.013857,0.054608 -0.003,0.0096 -0.00408,0.016598 -0.00109,0.00701 -0.00227,0.014027 0.021806,-0.00583 0.053261,-0.022336 0.033666,-0.016867 0.074398,-0.046264 0.042581,-0.031976 0.095949,-0.08164 0.053357,-0.049664 0.1212075,-0.1221754 0.051911,-0.058533 0.097541,-0.1137657 0.045621,-0.055232 0.079392,-0.099428 0.03377,-0.044197 0.054185,-0.07256 0.020414,-0.028364 0.020414,-0.028364 0.021551,-0.035376 0.06105,-0.030434 0.018459,0.00154 0.031349,0.010824 0.01289,0.00928 0.021349,0.019281 0.020574,0.028512 0.014094,0.072813 -0.00643,0.044295 -0.027459,0.138763 -0.0086,0.030991 -0.017215,0.061983 -0.00639,0.030629 -0.013496,0.056824 -3.648e-4,0.01144 -0.00264,0.025467 0.030318,-0.00948 0.062537,-0.035229 0.03222,-0.025736 0.063727,-0.055906 0.031497,-0.03017 0.058202,-0.061835 0.026344,-0.033882 0.04748,-0.05781 0.018916,-0.023568 0.045886,-0.025686 0.026971,-0.00212 0.050168,0.014585 0.021354,0.019281 0.023462,0.046249 0.00438,0.026607 -0.014581,0.050173 -0.043409,0.054871 -0.089753,0.1056684 -0.046704,0.04858 -0.097075,0.088653 -0.048511,0.037494 -0.1017819,0.059831 -0.053622,0.020118 -0.1089989,0.015483 -0.03764,-0.00752 -0.058224,-0.036033 -0.018363,-0.028873 -0.019722,-0.065068 4.705e-4,-0.038769 0.011072,-0.099675 -0.020775,0.026146 -0.044132,0.050437 -0.021137,0.023929 -0.045982,0.053014 -0.2665912,0.2915335 -0.4373092,0.3193536 z"
     opacity="0.25"
     id="path1169"
     style="fill:#333333" />
  <path
     d="m 9.6049876,5.6532762 q -0.017732,0.00288 -0.033622,0.0032 -0.01367,-5.26e-5 -0.029908,-0.00195 -0.041716,-0.00458 -0.063019,-0.037529 -0.027187,-0.041091 -0.017344,-0.106426 0.011686,-0.067911 0.044223,-0.1756286 0.00601,-0.019184 0.011235,-0.0428 0.00532,-0.023619 0.013087,-0.045378 -0.027013,0.015782 -0.055939,0.047808 -0.027065,0.029448 -0.055991,0.061474 -0.019277,0.021349 -0.046609,0.021251 -0.029542,2.65e-4 -0.05053,-0.016802 -0.021349,-0.019281 -0.021253,-0.046609 1.059e-4,-0.02733 0.016801,-0.050535 0.027427,-0.027229 0.056353,-0.059256 0.028925,-0.032026 0.063728,-0.055906 0.08331,-0.061375 0.162312,-0.051488 0.036559,8.75e-4 0.060431,0.035672 0.023882,0.034801 0.012277,0.089041 -0.00944,0.053885 -0.038596,0.1542357 -0.00672,0.028413 -0.015717,0.057186 -0.00672,0.028413 -0.013854,0.054608 -0.00301,0.0096 -0.00411,0.016597 -0.00111,0.00701 -0.00231,0.014028 0.021805,-0.00583 0.053258,-0.022335 0.033664,-0.016867 0.074398,-0.046265 0.042586,-0.031976 0.095946,-0.08164 0.053361,-0.049664 0.1212075,-0.1221754 0.051908,-0.058533 0.097543,-0.1137656 0.04562,-0.055232 0.07939,-0.099428 0.03378,-0.044196 0.05419,-0.07256 0.02041,-0.028363 0.02041,-0.028363 0.02155,-0.035377 0.06105,-0.030434 0.01846,0.00154 0.03135,0.010824 0.01289,0.00928 0.02134,0.019282 0.02058,0.028512 0.01409,0.072813 -0.0065,0.044295 -0.02746,0.1387629 -0.0086,0.030991 -0.01721,0.061983 -0.0064,0.030629 -0.01349,0.056824 -3.65e-4,0.01144 -0.0026,0.025467 0.03032,-0.00948 0.06254,-0.035229 0.03222,-0.025736 0.06373,-0.055906 0.03149,-0.030169 0.0582,-0.061835 0.02635,-0.033882 0.04748,-0.05781 0.01892,-0.023568 0.04588,-0.025686 0.02697,-0.00212 0.05017,0.014585 0.02135,0.019281 0.02346,0.046249 0.0044,0.026605 -0.01459,0.050175 -0.04341,0.054871 -0.08976,0.1056684 -0.0467,0.04858 -0.09708,0.088654 -0.04851,0.037494 -0.101772,0.05983 -0.05362,0.020118 -0.109008,0.015484 -0.03764,-0.00752 -0.05822,-0.036033 -0.01836,-0.028872 -0.01973,-0.065068 4.71e-4,-0.038769 0.01107,-0.099675 -0.02077,0.026146 -0.04413,0.050437 -0.02114,0.02393 -0.04598,0.053016 -0.26658,0.2915314 -0.4373088,0.3193533 z"
     opacity="0.25"
     id="path1171"
     style="fill:#333333" />
  <path
     d="m 11.861522,5.2855524 q -0.01773,0.00288 -0.03362,0.0032 -0.01367,-5.27e-5 -0.0299,-0.00195 -0.04172,-0.00458 -0.06302,-0.037529 -0.02719,-0.041091 -0.01735,-0.1064261 0.01168,-0.067911 0.04421,-0.1756284 0.006,-0.019183 0.01123,-0.0428 0.0053,-0.023619 0.01308,-0.045378 -0.02701,0.015782 -0.05593,0.047809 -0.02706,0.029448 -0.05599,0.061475 -0.01928,0.021349 -0.04661,0.021251 -0.02954,2.65e-4 -0.05052,-0.016802 -0.02134,-0.019281 -0.02126,-0.046609 1.06e-4,-0.02733 0.0168,-0.050536 0.02743,-0.027229 0.05636,-0.059256 0.02893,-0.032026 0.06373,-0.055906 0.08332,-0.061375 0.162312,-0.051488 0.03656,8.75e-4 0.06043,0.035673 0.02389,0.034801 0.01228,0.089041 -0.0094,0.053885 -0.0386,0.1542356 -0.0068,0.028414 -0.01572,0.057186 -0.0068,0.028414 -0.01385,0.054608 -0.003,0.0096 -0.0041,0.016597 -0.0011,0.00701 -0.0023,0.014028 0.0218,-0.00583 0.05326,-0.022336 0.03366,-0.016867 0.07439,-0.046264 0.04258,-0.031976 0.09595,-0.081641 0.05336,-0.049664 0.121208,-0.1221754 0.05191,-0.058533 0.09754,-0.1137655 0.04563,-0.055232 0.07939,-0.099428 0.03378,-0.044196 0.05419,-0.07256 0.02041,-0.028363 0.02041,-0.028363 0.02155,-0.035377 0.06104,-0.030433 0.01846,0.00154 0.03135,0.010824 0.01289,0.00928 0.02134,0.019281 0.02058,0.028512 0.01409,0.072813 -0.0065,0.044295 -0.02746,0.1387631 -0.0086,0.030991 -0.01722,0.061983 -0.0064,0.030629 -0.0135,0.056825 -3.65e-4,0.01144 -0.0026,0.025467 0.03032,-0.00948 0.06254,-0.035228 0.03223,-0.025736 0.06373,-0.055906 0.03149,-0.03017 0.0582,-0.061835 0.02635,-0.033882 0.04747,-0.05781 0.01892,-0.023568 0.04589,-0.025686 0.02697,-0.00212 0.05018,0.014583 0.02134,0.019282 0.02346,0.046249 0.0044,0.026605 -0.01458,0.050173 -0.04341,0.054871 -0.08976,0.1056684 -0.04669,0.04858 -0.09708,0.088654 -0.04851,0.037494 -0.101773,0.05983 -0.05362,0.020118 -0.109009,0.015484 -0.03764,-0.00752 -0.05822,-0.036033 -0.01837,-0.028872 -0.01973,-0.065068 4.7e-4,-0.038769 0.01107,-0.099675 -0.02077,0.026146 -0.04413,0.050437 -0.02114,0.023929 -0.04598,0.053014 -0.266582,0.2915319 -0.43731,0.3193537 z"
     opacity="0.25"
     id="path1173"
     style="fill:#333333" />
  <path
     d="m 13.141373,5.0815477 q -0.01108,0.00181 -0.02253,0.00139 -0.01108,0.00181 -0.02475,0.00175 -0.02806,-0.00454 -0.05049,-0.030466 -0.0087,-0.012226 -0.01394,-0.029593 -0.0054,-0.019601 -0.005,-0.05837 0.0027,-0.039138 0.01,-0.1063307 0.0092,-0.069768 0.02539,-0.1793889 -0.04811,0.026048 -0.106213,0.060553 -0.0581,0.034506 -0.120645,0.069732 -0.02294,0.012848 -0.04913,0.00573 -0.02877,-0.00897 -0.0442,-0.033768 -0.01286,-0.022942 -0.0035,-0.0495 0.0068,-0.028413 0.03155,-0.043834 0.06662,-0.038168 0.129156,-0.073397 0.06254,-0.035228 0.110645,-0.061276 0.04775,-0.028265 0.07698,-0.044409 0.02887,-0.018361 0.02887,-0.018361 0.02072,-0.012485 0.04176,-0.00909 0.0299,0.00195 0.04755,0.026393 0.01434,0.018149 0.01239,0.034397 3.57e-4,0.015874 -0.0012,0.034335 -0.003,0.0096 -0.0034,0.021032 -7.26e-4,0.00923 -0.003,0.02325 -0.0093,0.04022 -0.01809,0.098542 -0.0068,0.05574 -0.01556,0.1140571 -0.006,0.032847 -0.009,0.056102 -0.003,0.02325 -0.0045,0.041716 0.04069,-0.015738 0.113631,-0.070866 0.06259,-0.048893 0.132239,-0.1103151 0.06965,-0.061422 0.144512,-0.132802 0.01594,-0.013977 0.03186,-0.027952 0.01593,-0.013975 0.03149,-0.03017 0.02186,-0.019494 0.04956,-0.017184 0.02733,9.54e-5 0.04904,0.021596 0.01949,0.021861 0.01719,0.049548 -4.66e-4,0.025113 -0.02231,0.044606 -0.01558,0.016193 -0.03335,0.032749 -0.01594,0.013977 -0.03372,0.030531 -0.07521,0.069158 -0.146733,0.1331639 -0.07151,0.064002 -0.136319,0.1132568 -0.131834,0.09887 -0.216082,0.1125982 z"
     opacity="0.25"
     id="path1175"
     style="fill:#333333" />
  <path
     d="m 5.430574,8.8125686 q -0.017736,0.00288 -0.033623,0.0032 Q 5.383285,8.815716 5.367048,8.8138186 5.325327,8.8092386 5.304031,8.7762906 5.276848,8.7351986 5.286688,8.6698644 5.298378,8.6019534 5.330906,8.494236 5.336896,8.475052 5.342138,8.451436 5.347408,8.427818 5.35523,8.406058 5.328217,8.42184 5.299291,8.453866 5.272225,8.483314 5.243298,8.51534 5.224021,8.536689 5.19669,8.536591 5.167148,8.5368559 5.146159,8.519789 5.12481,8.500508 5.124906,8.473179 5.1250117,8.445849 5.141707,8.422644 5.169134,8.395415 5.19806,8.363388 5.226985,8.331361 5.261787,8.307482 5.3451,8.246108 5.4240991,8.255995 q 0.036556,8.751e-4 0.060434,0.035672 0.023879,0.034801 0.012281,0.089041 -0.00942,0.053885 -0.038596,0.1542356 -0.00674,0.028412 -0.015717,0.057186 -0.00675,0.028412 -0.013857,0.054608 -0.003,0.0096 -0.00408,0.016598 -0.00109,0.00701 -0.00227,0.014026 0.021806,-0.00583 0.053261,-0.022335 0.033666,-0.016867 0.074398,-0.046264 0.042582,-0.031976 0.095948,-0.081641 0.053357,-0.049663 0.1212076,-0.1221755 0.051911,-0.058533 0.097541,-0.1137655 0.045621,-0.055232 0.079392,-0.099428 0.033772,-0.044197 0.054186,-0.07256 0.020414,-0.028363 0.020414,-0.028363 0.021551,-0.035377 0.06105,-0.030434 0.018458,0.00154 0.031349,0.010824 0.01289,0.00928 0.021349,0.019281 0.020574,0.028511 0.014094,0.072812 -0.00643,0.044295 -0.027459,0.1387631 -0.0086,0.03099 -0.017215,0.061983 -0.00639,0.030629 -0.013496,0.056825 -3.648e-4,0.01144 -0.00264,0.025467 0.030319,-0.00948 0.062537,-0.035229 0.03222,-0.025734 0.063727,-0.055906 0.031497,-0.03017 0.058202,-0.061835 0.026344,-0.033882 0.047481,-0.05781 0.018916,-0.023568 0.045886,-0.025686 0.026971,-0.00212 0.050169,0.014585 0.021349,0.019281 0.023464,0.046249 0.00434,0.026606 -0.01458,0.050173 -0.043409,0.054871 -0.089753,0.1056684 -0.046704,0.048579 -0.097085,0.088653 -0.048511,0.037494 -0.1017721,0.05983 -0.053623,0.020118 -0.1090087,0.015484 -0.03764,-0.00752 -0.058224,-0.036033 -0.018363,-0.028872 -0.019722,-0.065068 4.705e-4,-0.038769 0.011072,-0.099675 -0.020775,0.026146 -0.044132,0.050437 -0.021137,0.023929 -0.045983,0.053014 -0.2665831,0.2915304 -0.4373111,0.3193522 z"
     opacity="0.25"
     id="path1179"
     style="fill:#333333" />
  <path
     d="m 6.6085356,8.6206084 q -0.017736,0.00288 -0.033623,0.0032 -0.013666,-5.26e-5 -0.029903,-0.00195 -0.041711,-0.00458 -0.063016,-0.037529 -0.027183,-0.041092 -0.017343,-0.1064262 0.01169,-0.067911 0.044218,-0.1756285 0.00599,-0.019184 0.011232,-0.0428 0.00527,-0.023618 0.013092,-0.045378 -0.027013,0.015782 -0.055939,0.047809 -0.027065,0.029448 -0.055993,0.061475 -0.019287,0.021351 -0.046608,0.021251 -0.029542,2.65e-4 -0.05053,-0.016802 -0.021349,-0.019281 -0.021253,-0.046609 1.058e-4,-0.02733 0.016801,-0.050536 0.027427,-0.027229 0.056353,-0.059256 0.028925,-0.032026 0.063717,-0.055904 0.083313,-0.061374 0.162312,-0.051488 0.036556,8.752e-4 0.060434,0.035672 0.023879,0.034801 0.012281,0.089041 -0.00942,0.053885 -0.038596,0.1542356 -0.00674,0.028412 -0.015717,0.057186 -0.00674,0.028412 -0.013857,0.054608 -0.003,0.0096 -0.00408,0.016598 -0.00109,0.00701 -0.00227,0.014026 0.021806,-0.00583 0.053261,-0.022335 0.033666,-0.016867 0.074398,-0.046264 0.042582,-0.031976 0.095949,-0.08164 0.053357,-0.049663 0.1212075,-0.1221755 0.051912,-0.058533 0.097542,-0.1137655 0.04562,-0.055232 0.079392,-0.099428 0.033762,-0.044195 0.054185,-0.07256 0.020414,-0.028363 0.020414,-0.028363 0.021551,-0.035377 0.06105,-0.030434 0.018458,0.00154 0.031349,0.010824 0.01289,0.00928 0.021349,0.019281 0.020574,0.028511 0.014094,0.072813 -0.00643,0.044295 -0.027459,0.1387631 -0.0086,0.030991 -0.017215,0.061983 -0.00639,0.030629 -0.013496,0.056825 -3.648e-4,0.01144 -0.00264,0.025467 0.030318,-0.00948 0.062537,-0.035229 0.03222,-0.025734 0.063718,-0.055904 0.031497,-0.030169 0.058202,-0.061835 0.026344,-0.033882 0.04748,-0.05781 0.018916,-0.023568 0.045886,-0.025686 0.026971,-0.00212 0.050179,0.014583 0.021349,0.019281 0.023464,0.046249 0.00434,0.026605 -0.01458,0.050173 -0.04341,0.054871 -0.089753,0.1056684 -0.046704,0.048579 -0.097075,0.088653 -0.048511,0.037494 -0.1017821,0.059831 -0.053622,0.020119 -0.1089989,0.015483 -0.03764,-0.00752 -0.058224,-0.036033 -0.018363,-0.028872 -0.019722,-0.065068 4.707e-4,-0.038769 0.011073,-0.099675 -0.020775,0.026146 -0.044132,0.050437 -0.021137,0.023929 -0.045983,0.053014 -0.2665934,0.291529 -0.4373114,0.3193492 z"
     opacity="0.25"
     id="path1181"
     style="fill:#333333" />
  <path
     d="m 7.8724214,8.2166685 q -0.011083,0.00181 -0.018097,6.696e-4 -0.036917,-0.00309 -0.055333,-0.018295 -0.016557,-0.017786 -0.022794,-0.028151 -0.025685,-0.045887 -0.00737,-0.1012213 0.020148,-0.057909 0.052889,-0.1224203 0.010414,-0.019905 0.018245,-0.041666 0.00783,-0.021761 0.016026,-0.041304 0.00181,-0.00258 0.00517,-0.00994 -0.012582,0.0066 -0.031093,0.018722 -0.01629,0.011763 -0.037789,0.03347 -0.035929,0.030892 -0.073771,0.078027 -0.038202,0.044918 -0.077895,0.094632 -0.00928,0.012892 -0.020775,0.026146 -0.00964,0.01068 -0.018925,0.023569 -0.017067,0.020989 -0.043666,0.025323 -0.029182,0.00248 -0.05053,-0.016801 -0.023208,-0.016703 -0.025323,-0.043671 -0.00253,-0.029177 0.01458,-0.050173 0.00928,-0.012892 0.021137,-0.023929 0.00928,-0.012892 0.018564,-0.025786 0.045259,-0.057449 0.089392,-0.1078852 0.045983,-0.053014 0.08971,-0.092005 0.045939,-0.039351 0.092547,-0.060602 0.048469,-0.02383 0.097191,-0.018118 0.039499,0.00494 0.058266,0.022369 0.018767,0.017426 0.025738,0.032223 0.028267,0.047743 0.0081,0.1056529 -0.020148,0.057909 -0.054016,0.1294329 -0.00373,0.00515 -0.00855,0.017326 -0.003,0.0096 -0.0082,0.019544 0.031093,-0.018722 0.079191,-0.044769 0.049956,-0.028625 0.1225043,-0.072313 0.027373,-0.01357 0.05393,-0.00423 0.026195,0.00711 0.039404,0.032272 0.015059,0.022583 0.00614,0.05135 -0.00711,0.026196 -0.02969,0.041256 -0.066979,0.035953 -0.1213676,0.0653 -0.054398,0.029349 -0.091772,0.051372 -0.020722,0.012486 -0.037384,0.022024 -0.014793,0.00696 -0.027374,0.01357 -0.017014,0.00732 -0.027375,0.01357 -0.00853,0.00367 -0.019594,0.00547 z"
     opacity="0.25"
     id="path1183"
     style="fill:#333333" />
  <path
     d="m 8.3969448,8.3291699 q -0.017736,0.00288 -0.033623,0.0032 -0.013666,-5.26e-5 -0.029903,-0.00195 -0.04171,-0.00458 -0.063016,-0.037529 -0.027183,-0.041091 -0.017344,-0.1064261 0.01169,-0.067911 0.044208,-0.1756269 0.00599,-0.019185 0.011232,-0.0428 0.00527,-0.023618 0.013092,-0.045378 -0.027013,0.015782 -0.055939,0.047808 -0.027066,0.029448 -0.055992,0.061475 -0.019277,0.021349 -0.046608,0.021251 -0.029542,2.649e-4 -0.050531,-0.016802 -0.021349,-0.019281 -0.021253,-0.046609 1.056e-4,-0.02733 0.0168,-0.050536 0.027427,-0.027229 0.056353,-0.059256 0.028925,-0.032026 0.063727,-0.055906 0.083313,-0.061375 0.1623121,-0.051488 0.036556,8.752e-4 0.060434,0.035673 0.023879,0.034801 0.012281,0.089041 -0.00942,0.053885 -0.038596,0.1542356 -0.00674,0.028412 -0.015717,0.057186 -0.00674,0.028412 -0.013857,0.054608 -0.003,0.0096 -0.00408,0.016598 -0.00109,0.00701 -0.00227,0.014026 0.021806,-0.00583 0.053261,-0.022335 0.033666,-0.016867 0.074398,-0.046264 0.042581,-0.031976 0.095948,-0.081641 0.053357,-0.049663 0.1212077,-0.1221755 0.051911,-0.058533 0.097541,-0.1137655 0.045621,-0.055232 0.079392,-0.099428 0.03376,-0.044195 0.054185,-0.07256 0.020414,-0.028363 0.020414,-0.028363 0.021551,-0.035377 0.06105,-0.030434 0.018458,0.00154 0.031349,0.010824 0.01289,0.00928 0.021349,0.019281 0.020574,0.028511 0.014094,0.072813 -0.00643,0.044295 -0.027459,0.138763 -0.0086,0.030991 -0.017215,0.061983 -0.00639,0.030629 -0.013507,0.056826 -3.648e-4,0.01144 -0.00264,0.025467 0.030318,-0.00948 0.062537,-0.035229 0.03222,-0.025735 0.063717,-0.055904 0.031497,-0.030169 0.058202,-0.061835 0.026344,-0.033882 0.04748,-0.05781 0.018916,-0.023568 0.045886,-0.025686 0.026971,-0.00212 0.050169,0.014585 0.021349,0.019281 0.023464,0.046249 0.00438,0.026607 -0.014581,0.050173 Q 9.3454856,7.8923695 9.2991436,7.943167 9.2524396,7.991746 9.2020686,8.03182 9.1535576,8.069314 9.1002865,8.091651 9.0466645,8.111769 8.9912878,8.107134 8.9536478,8.099614 8.9330638,8.071101 8.9147008,8.042229 8.9133418,8.006033 8.9138123,7.967264 8.9244138,7.906358 8.9036388,7.932504 8.8802818,7.956795 8.8591448,7.980724 8.8342998,8.009809 8.5677099,8.3013415 8.3969917,8.3291617 Z"
     opacity="0.25"
     id="path1185"
     style="fill:#333333" />
  <path
     d="m 9.8823911,7.9574137 q -0.026603,0.00434 -0.046873,-0.0083 -0.040171,-0.023042 -0.031883,-0.069915 -3.611e-4,-0.00222 0.00685,-0.05574 0.00944,-0.053885 0.021129,-0.1217935 0.00493,-0.039499 0.00945,-0.06755 0.00422,-0.03027 0.00724,-0.053525 -0.043661,0.025323 -0.099927,0.057253 -0.056246,0.031926 -0.1206448,0.069733 -0.062538,0.035229 -0.1291568,0.073397 -0.066612,0.038166 -0.1291565,0.073397 -0.022943,0.012847 -0.049138,0.00572 -0.028777,-0.00897 -0.044197,-0.033766 -0.012857,-0.022942 -0.00351,-0.049502 0.00675,-0.028412 0.031551,-0.043834 0.093993,-0.051734 0.1939159,-0.1089858 0.102133,-0.057613 0.1854039,-0.1053232 0.083269,-0.04771 0.1372966,-0.079275 0.056246,-0.031926 0.056246,-0.031926 0.010723,-0.00403 0.019594,-0.00547 0.010723,-0.00403 0.022531,-0.00139 0.031761,-6.268e-4 0.050127,0.028249 0.013981,0.015931 0.016468,0.045113 0.0044,0.026606 0.0015,0.079407 -0.0019,0.029901 -0.0073,0.067189 -0.00339,0.034705 -0.01175,0.081576 -7.252e-4,0.00923 -0.00191,0.016244 -0.00111,0.00701 -0.00192,0.016245 0.080741,-0.06323 0.2006626,-0.1374032 0.02258,-0.01506 0.04878,-0.00795 0.02584,0.0049 0.04089,0.027476 0.01729,0.022221 0.0105,0.050642 -0.0068,0.028413 -0.02933,0.043472 -0.06996,0.045542 -0.129199,0.087059 -0.05924,0.041519 -0.101827,0.073494 -0.050731,0.037855 -0.091107,0.069471 -0.011501,0.013254 -0.031454,0.016506 z"
     opacity="0.25"
     id="path1187"
     style="fill:#333333" />
  <path
     d="m 11.013604,7.7502751 q -0.01551,0.00252 -0.02954,2.65e-4 -0.04357,-0.002 -0.06817,-0.041241 -0.01945,-0.035524 -0.0071,-0.08533 0.01237,-0.049813 0.04067,-0.1135999 0.01006,-0.022123 0.01789,-0.043882 0.0097,-0.024339 0.01567,-0.043522 0.0052,-0.00994 0.0075,-0.023978 -0.06832,-2.471e-4 -0.155926,0.02086 -0.08574,0.018523 -0.189686,0.065052 -0.09359,0.040286 -0.195722,0.097901 -0.102505,0.055397 -0.215775,0.1284805 -0.02258,0.015061 -0.04842,0.010167 -0.0262,-0.00711 -0.04126,-0.029694 -0.01729,-0.022221 -0.0105,-0.050642 0.0068,-0.028414 0.02933,-0.043472 0.117351,-0.076025 0.221706,-0.1339991 0.106213,-0.060553 0.206443,-0.1019245 0.261512,-0.1131734 0.442039,-0.094795 0.05316,0.005 0.08107,0.050518 0.02827,0.047743 0.0092,0.1123049 -0.01942,0.062343 -0.04886,0.1331423 -0.0037,0.00515 -0.0072,0.012534 -0.0011,0.00701 -0.0041,0.016597 0.04919,-0.019396 0.141323,-0.06855 0.09435,-0.049516 0.261247,-0.1427185 0.02294,-0.012847 0.0495,-0.00352 0.02841,0.00675 0.04161,0.031911 0.01506,0.022583 0.0084,0.050995 -0.0071,0.026195 -0.03412,0.041977 -0.09622,0.052097 -0.175765,0.094648 -0.07955,0.042552 -0.142823,0.073346 -0.08656,0.04142 -0.131324,0.060093 -0.0429,0.016099 -0.06729,0.020074 z"
     opacity="0.25"
     id="path1189"
     style="fill:#333333" />
  <path
     d="m 12.051578,7.603924 q -0.02661,0.00434 -0.04687,-0.0083 -0.04017,-0.023043 -0.03188,-0.069915 -3.62e-4,-0.00222 0.0068,-0.05574 0.0094,-0.053885 0.02113,-0.1217936 0.0049,-0.039497 0.0095,-0.06755 0.0042,-0.030271 0.0073,-0.053524 -0.04366,0.025323 -0.09993,0.057253 -0.05624,0.031926 -0.120645,0.069732 -0.06253,0.035227 -0.129157,0.073397 -0.06661,0.038166 -0.129157,0.073397 -0.02294,0.012847 -0.04914,0.00573 -0.02877,-0.00897 -0.0442,-0.033766 -0.01286,-0.022942 -0.0035,-0.049502 0.0068,-0.028414 0.03155,-0.043834 0.09399,-0.051734 0.193915,-0.1089859 0.102133,-0.057613 0.185404,-0.1053232 0.08327,-0.04771 0.137297,-0.079275 0.05624,-0.031926 0.05624,-0.031926 0.01072,-0.00403 0.0196,-0.00547 0.01072,-0.00403 0.02253,-0.00139 0.03177,-6.269e-4 0.05013,0.028249 0.01398,0.015931 0.01648,0.045113 0.0044,0.026605 0.0015,0.079407 -0.0019,0.029901 -0.0073,0.067189 -0.0034,0.034705 -0.01175,0.081576 -7.26e-4,0.00923 -0.0019,0.016245 -0.0011,0.00701 -0.0019,0.016244 0.08074,-0.06323 0.200661,-0.137403 0.02258,-0.015061 0.04878,-0.00795 0.02584,0.0049 0.0409,0.027476 0.01729,0.022221 0.0105,0.050642 -0.0068,0.028414 -0.02933,0.043472 -0.06996,0.045542 -0.1292,0.087059 -0.05924,0.041519 -0.101825,0.073494 -0.05073,0.037855 -0.09111,0.069471 -0.0115,0.013254 -0.03145,0.016506 z"
     opacity="0.25"
     id="path1191"
     style="fill:#333333" />
  <path
     d="m 12.913212,7.4635124 q -0.0266,0.00434 -0.04687,-0.0083 -0.04017,-0.023043 -0.03188,-0.069915 -3.62e-4,-0.00222 0.0068,-0.05574 0.0094,-0.053885 0.02112,-0.121792 0.0049,-0.039497 0.0095,-0.06755 0.0042,-0.030271 0.0073,-0.053525 -0.04367,0.025325 -0.09993,0.057253 -0.05624,0.031927 -0.120645,0.069732 -0.06253,0.035228 -0.129156,0.073397 -0.06662,0.038168 -0.129156,0.073397 -0.02294,0.012847 -0.04914,0.00572 -0.02877,-0.00897 -0.0442,-0.033766 -0.01286,-0.022941 -0.0035,-0.049501 0.0068,-0.028413 0.03155,-0.043834 0.09399,-0.051734 0.193915,-0.1089858 0.102144,-0.057614 0.185404,-0.1053232 0.08327,-0.04771 0.137296,-0.079275 0.05625,-0.031926 0.05625,-0.031926 0.01072,-0.00403 0.0196,-0.00547 0.01072,-0.00403 0.02253,-0.00139 0.03177,-6.269e-4 0.05013,0.028249 0.01398,0.01593 0.01648,0.045113 0.0044,0.026606 0.0015,0.079407 -0.0019,0.0299 -0.0073,0.067189 -0.0034,0.034705 -0.01175,0.081576 -7.25e-4,0.00923 -0.0019,0.016245 -0.0011,0.00701 -0.0019,0.016245 0.08074,-0.06323 0.200664,-0.1374031 0.02258,-0.01506 0.04878,-0.00795 0.02584,0.0049 0.04089,0.027476 0.01729,0.022221 0.0105,0.050642 -0.0068,0.028414 -0.02933,0.043472 -0.06996,0.045542 -0.129199,0.087059 -0.05924,0.041519 -0.101825,0.073494 -0.05073,0.037855 -0.09111,0.069472 -0.0115,0.013254 -0.03146,0.016506 z"
     opacity="0.25"
     id="path1193"
     style="fill:#333333" />
  <path
     d="m 5.7415963,10.795763 q -0.017736,0.0029 -0.033614,0.0033 -0.013658,-3e-6 -0.029897,-0.0019 -0.04172,-0.0045 -0.063016,-0.03752 -0.027184,-0.04109 -0.017343,-0.106426 0.01169,-0.06791 0.044216,-0.175638 0.00599,-0.01918 0.011232,-0.04281 0.00527,-0.02361 0.013092,-0.04538 -0.027014,0.01578 -0.055939,0.04781 -0.027065,0.02944 -0.055991,0.06148 -0.019277,0.02135 -0.046608,0.02126 -0.029543,2.55e-4 -0.05053,-0.0168 -0.021348,-0.01928 -0.021253,-0.04661 1.052e-4,-0.02733 0.0168,-0.05054 0.027428,-0.02723 0.056353,-0.05925 0.028925,-0.03203 0.063727,-0.05591 0.083314,-0.06137 0.1623122,-0.05149 0.03655,8.36e-4 0.060435,0.03568 0.023879,0.0348 0.012281,0.08904 -0.00942,0.05389 -0.038596,0.154235 -0.00674,0.02841 -0.015718,0.05719 -0.00674,0.02841 -0.013857,0.05461 -0.003,0.0096 -0.00408,0.0166 -0.0011,0.007 -0.00227,0.01403 0.021814,-0.0058 0.05326,-0.02233 0.033666,-0.01686 0.074397,-0.04627 0.042583,-0.03198 0.095948,-0.08164 0.053357,-0.04967 0.1212076,-0.122176 0.051911,-0.05853 0.097541,-0.113769 0.045621,-0.05523 0.079392,-0.09942 0.033772,-0.0442 0.054185,-0.07256 0.020414,-0.02836 0.020414,-0.02836 0.021551,-0.03538 0.06105,-0.03044 0.01846,0.0015 0.031348,0.01082 0.01289,0.0093 0.021348,0.01928 0.020574,0.02851 0.014094,0.07281 -0.00643,0.04429 -0.027459,0.138764 -0.0086,0.03099 -0.017215,0.06199 -0.00639,0.03063 -0.013497,0.05683 -3.652e-4,0.01143 -0.00264,0.02546 0.030317,-0.0095 0.062538,-0.03523 0.03222,-0.02574 0.063727,-0.05591 0.031497,-0.03017 0.058202,-0.06184 0.026345,-0.03388 0.047481,-0.05781 0.018915,-0.02357 0.045886,-0.02568 0.026963,-0.0022 0.050168,0.01458 0.021348,0.01928 0.023464,0.04625 0.00434,0.02661 -0.014581,0.05017 -0.043409,0.05488 -0.089752,0.105671 -0.046703,0.04858 -0.097086,0.08865 -0.048511,0.03749 -0.1017725,0.05983 -0.053622,0.02012 -0.1090007,0.01553 -0.037641,-0.0076 -0.058224,-0.03604 -0.018363,-0.02887 -0.019722,-0.06507 4.703e-4,-0.03877 0.011072,-0.09968 -0.020776,0.02614 -0.044133,0.05044 -0.021137,0.02393 -0.045983,0.05301 -0.2665813,0.291532 -0.4373092,0.319353 z"
     opacity="0.25"
     id="path1197"
     style="fill:#333333" />
  <path
     d="m 6.9194593,10.603819 q -0.017736,0.0029 -0.033615,0.0033 -0.013658,-2e-6 -0.029897,-0.0019 -0.041709,-0.0046 -0.063016,-0.03752 -0.027184,-0.04109 -0.017343,-0.106426 0.01169,-0.06791 0.044216,-0.175638 0.00599,-0.01918 0.011232,-0.0428 0.00527,-0.02361 0.013092,-0.04538 -0.027014,0.01578 -0.055939,0.04781 -0.027066,0.02945 -0.055992,0.06148 -0.019287,0.02135 -0.046608,0.02125 -0.029543,2.56e-4 -0.05053,-0.0168 -0.021348,-0.01928 -0.021253,-0.04661 1.052e-4,-0.02733 0.0168,-0.05054 0.027428,-0.02722 0.056353,-0.05926 0.028925,-0.03203 0.063717,-0.05591 0.083314,-0.06137 0.1623122,-0.05149 0.03655,8.35e-4 0.060435,0.03567 0.023879,0.0348 0.012281,0.08904 -0.00942,0.05389 -0.038596,0.154236 -0.00674,0.02841 -0.015718,0.05718 -0.00674,0.02841 -0.013857,0.05461 -0.003,0.0096 -0.00408,0.01659 -0.0011,0.007 -0.00227,0.01403 0.021814,-0.0058 0.053261,-0.02233 0.033666,-0.01686 0.074397,-0.04627 0.042582,-0.03198 0.095947,-0.08165 0.053357,-0.04967 0.1212075,-0.122176 0.051912,-0.05853 0.097542,-0.113769 0.045621,-0.05523 0.079393,-0.099424 0.033761,-0.044196 0.054185,-0.07256 0.020414,-0.028362 0.020414,-0.028362 0.021551,-0.035377 0.06105,-0.030436 0.01846,0.00155 0.031348,0.010819 0.012889,0.00928 0.021348,0.019277 0.020574,0.028512 0.014094,0.072812 -0.00643,0.044293 -0.027459,0.1387631 -0.0086,0.03099 -0.017215,0.06199 -0.00639,0.03063 -0.013497,0.05682 -3.651e-4,0.01144 -0.00264,0.02547 0.030316,-0.0095 0.062538,-0.03523 0.03222,-0.02574 0.063717,-0.05591 0.031497,-0.03017 0.058202,-0.06184 0.026345,-0.03388 0.047481,-0.05781 0.018915,-0.02357 0.045886,-0.02568 0.026963,-0.00217 0.050178,0.01458 0.021348,0.01928 0.023464,0.04625 0.00434,0.02661 -0.014581,0.05017 -0.043409,0.05488 -0.089752,0.105671 -0.046703,0.04858 -0.097076,0.08865 -0.048511,0.03749 -0.1017822,0.05983 -0.053622,0.02012 -0.1089909,0.01553 -0.037641,-0.0076 -0.058224,-0.03602 -0.018363,-0.02887 -0.019722,-0.06507 4.704e-4,-0.03877 0.011072,-0.09968 -0.020776,0.02614 -0.044133,0.05044 -0.021137,0.02393 -0.045983,0.05302 -0.2665932,0.291474 -0.4373113,0.319295 z"
     opacity="0.25"
     id="path1199"
     style="fill:#333333" />
  <path
     d="m 8.67399,10.165417 q -0.015515,0.0025 -0.029543,2.55e-4 -0.043572,-0.002 -0.068172,-0.04124 -0.019447,-0.03552 -0.00712,-0.08533 Q 8.581524,9.989295 8.609823,9.925503 8.619874,9.903378 8.627707,9.881615 8.637397,9.857279 8.64337,9.838088 8.64854,9.828138 8.65084,9.814114 8.582521,9.8138669 8.4949137,9.834964 8.4091677,9.853497 8.3052275,9.900019 8.2116485,9.940304 8.109506,9.997924 8.0070115,10.05332 7.8937309,10.126401 q -0.022583,0.01506 -0.048422,0.01012 -0.026194,-0.0071 -0.041253,-0.02969 -0.017279,-0.02222 -0.010483,-0.05064 0.00674,-0.02842 0.02933,-0.04347 0.1173502,-0.076025 0.2217036,-0.1340024 0.1062138,-0.060551 0.206445,-0.1019216 0.2615119,-0.1131744 0.4420389,-0.094791 0.053166,0.005 0.081061,0.05052 0.028267,0.047745 0.00918,0.1123052 -0.019424,0.062347 -0.048861,0.1331422 -0.00372,0.00516 -0.00708,0.012531 -0.0011,0.00697 -0.00408,0.016593 0.049191,-0.019394 0.141324,-0.068552 0.094354,-0.04952 0.2612469,-0.1427165 0.022941,-0.012857 0.0495,-0.00351 0.028415,0.00674 0.041615,0.031912 0.015058,0.022583 0.00831,0.050997 -0.00711,0.026194 -0.034133,0.041976 -0.096214,0.052093 -0.1757646,0.094652 -0.079551,0.04255 -0.1428227,0.07335 -0.086565,0.04142 -0.1313243,0.06009 -0.042897,0.01611 -0.067286,0.02008 z"
     opacity="0.25"
     id="path1201"
     style="fill:#333333" />
  <path
     d="m 9.4911774,9.9866548 q -0.011081,0.00181 -0.018091,7.19e-4 -0.036918,-0.0031 -0.055336,-0.018298 -0.016556,-0.017788 -0.022797,-0.028151 -0.025685,-0.045886 -0.00741,-0.1012213 0.020148,-0.057905 0.05288,-0.1224188 0.010416,-0.019904 0.018244,-0.041667 0.00782,-0.021763 0.016024,-0.041305 0.0018,-0.00253 0.00521,-0.00995 -0.012585,0.00661 -0.031095,0.018724 -0.01629,0.011773 -0.037787,0.033473 -0.035939,0.030893 -0.07377,0.078031 -0.038202,0.044919 -0.077895,0.094631 -0.00928,0.01289 -0.020777,0.026142 -0.00964,0.010689 -0.018915,0.02357 -0.017066,0.020989 -0.043666,0.025322 -0.029174,0.00253 -0.05053,-0.016801 -0.023209,-0.016705 -0.025322,-0.043666 -0.00253,-0.029174 0.014579,-0.050178 0.00928,-0.012889 0.021137,-0.023931 0.00928,-0.01289 0.018555,-0.02578 0.04526,-0.057447 0.089392,-0.1078822 0.045982,-0.053016 0.08971,-0.092007 0.045939,-0.03935 0.092548,-0.060605 0.048469,-0.023825 0.097195,-0.018069 0.039496,0.00494 0.058261,0.022369 0.018766,0.017428 0.025734,0.03222 0.028271,0.047745 0.00812,0.1056529 -0.020147,0.057905 -0.054016,0.1294328 -0.00371,0.00516 -0.00851,0.017322 -0.00301,0.00961 -0.00822,0.019542 0.031095,-0.018724 0.079187,-0.044769 0.049953,-0.028627 0.1225039,-0.072315 0.027371,-0.01358 0.053934,-0.00422 0.026194,0.00711 0.039404,0.032272 0.015062,0.022582 0.00616,0.051351 -0.00712,0.026195 -0.029693,0.041253 -0.066969,0.035949 -0.1213672,0.0653 -0.054394,0.029352 -0.091772,0.05137 -0.02072,0.012495 -0.037378,0.022017 -0.014796,0.00697 -0.027371,0.01358 -0.017016,0.00733 -0.027371,0.01358 -0.00851,0.00362 -0.019604,0.00542 z"
     opacity="0.25"
     id="path1203"
     style="fill:#333333" />
  <path
     d="m 10.101724,9.8871604 q -0.01108,0.00181 -0.01809,7.19e-4 -0.03692,-0.0031 -0.05533,-0.018298 -0.01655,-0.017788 -0.0228,-0.028151 -0.025683,-0.045886 -0.0074,-0.1012217 0.02014,-0.057905 0.05289,-0.1224202 0.01041,-0.019904 0.01825,-0.041667 0.0078,-0.021763 0.01602,-0.041304 0.0018,-0.00253 0.0052,-0.00995 -0.01258,0.00661 -0.0311,0.018724 -0.01629,0.011773 -0.03778,0.033473 -0.03593,0.030893 -0.073774,0.078031 -0.038206,0.044919 -0.077898,0.094631 -0.00931,0.012891 -0.020772,0.026142 -0.00961,0.010689 -0.018919,0.02357 -0.017067,0.020989 -0.043661,0.025322 -0.029172,0.00253 -0.050526,-0.016801 -0.023206,-0.016705 -0.025324,-0.043666 -0.00248,-0.029175 0.014581,-0.050178 0.00931,-0.012891 0.02114,-0.023931 0.00931,-0.012891 0.018561,-0.025782 0.045257,-0.057448 0.089398,-0.1078822 0.045983,-0.053016 0.089705,-0.092007 0.045942,-0.039351 0.09255,-0.060605 0.04847,-0.023825 0.09719,-0.018069 0.03949,0.00494 0.05826,0.022369 0.01877,0.017428 0.02574,0.03222 0.02827,0.047745 0.0082,0.1056525 -0.02014,0.057905 -0.05401,0.1294328 -0.0037,0.00516 -0.0085,0.017321 -0.003,0.00961 -0.0082,0.019542 0.0311,-0.018724 0.07918,-0.044769 0.04995,-0.028627 0.122503,-0.072316 0.02737,-0.01358 0.05393,-0.00422 0.0262,0.00711 0.03941,0.032273 0.01506,0.022582 0.0061,0.051352 -0.0071,0.026194 -0.02969,0.041253 -0.06698,0.035951 -0.121368,0.0653 -0.05439,0.029351 -0.09178,0.05137 -0.02072,0.012495 -0.03739,0.022019 -0.0148,0.00697 -0.02737,0.01358 -0.01701,0.00733 -0.02737,0.01358 -0.0085,0.00362 -0.01961,0.00542 z"
     opacity="0.25"
     id="path1205"
     style="fill:#333333" />
  <path
     d="m 10.933436,9.819914 q -0.02661,0.00434 -0.04687,-0.00829 -0.04017,-0.02304 -0.03188,-0.069913 -3.53e-4,-0.00217 0.0068,-0.055736 0.0094,-0.053887 0.02113,-0.1217936 0.0049,-0.039499 0.0095,-0.067554 0.0042,-0.030268 0.0073,-0.053526 -0.04366,0.025322 -0.09992,0.057257 -0.05624,0.031922 -0.120645,0.069732 -0.06253,0.035227 -0.129156,0.073399 -0.06662,0.038171 -0.129156,0.073399 -0.02294,0.012857 -0.04914,0.00577 -0.02878,-0.00897 -0.0442,-0.03377 -0.01286,-0.022941 -0.0035,-0.049499 0.0068,-0.028417 0.03156,-0.043836 0.09399,-0.051731 0.193915,-0.108988 0.102144,-0.057618 0.185405,-0.1053211 0.08327,-0.047714 0.137297,-0.079275 0.05624,-0.031932 0.05624,-0.031932 0.01073,-0.00398 0.01961,-0.00542 0.01073,-0.00398 0.02252,-0.00144 0.03177,-6.17e-4 0.05013,0.028246 0.01398,0.01593 0.01647,0.045118 0.0044,0.026609 0.0015,0.079402 -0.0019,0.029897 -0.0073,0.067193 -0.0034,0.034709 -0.01175,0.08157 -7.24e-4,0.00924 -0.0019,0.01624 -0.0011,0.00697 -0.0019,0.016249 0.08074,-0.063229 0.200663,-0.1374031 0.02258,-0.015059 0.04878,-0.00795 0.02584,0.00491 0.0409,0.02748 0.01729,0.02222 0.0105,0.050644 -0.0068,0.028416 -0.02933,0.043473 -0.06996,0.045546 -0.129199,0.087063 -0.05924,0.041519 -0.101825,0.073494 -0.05073,0.037852 -0.09111,0.069467 -0.0115,0.013252 -0.03146,0.016504 z"
     opacity="0.25"
     id="path1207"
     style="fill:#333333" />
  <path
     d="m 12.566766,9.6835369 q -0.01773,0.00288 -0.03361,0.00325 -0.01366,-3.3e-6 -0.02989,-0.00191 -0.04171,-0.00458 -0.06302,-0.037523 -0.02719,-0.041093 -0.01735,-0.1064261 0.01168,-0.067915 0.0442,-0.1756368 0.006,-0.019182 0.01123,-0.042804 0.0053,-0.023615 0.01309,-0.045376 -0.02701,0.015779 -0.05594,0.047809 -0.02706,0.029447 -0.05599,0.061476 -0.01928,0.021348 -0.04661,0.021253 -0.02954,2.55e-4 -0.05053,-0.0168 -0.02134,-0.019278 -0.02126,-0.046608 1.06e-4,-0.027333 0.0168,-0.050541 0.02744,-0.027225 0.05636,-0.059255 0.02893,-0.032029 0.06372,-0.055906 0.08331,-0.06137 0.162312,-0.051487 0.03655,8.351e-4 0.06043,0.035675 0.02389,0.034802 0.01228,0.089044 -0.0094,0.053887 -0.0386,0.1542358 -0.0068,0.028416 -0.01572,0.057182 -0.0068,0.028415 -0.01386,0.054612 -0.003,0.00961 -0.0041,0.016592 -0.0011,0.00697 -0.0023,0.014029 0.02182,-0.00578 0.05326,-0.022337 0.03366,-0.016865 0.07439,-0.046269 0.04258,-0.031976 0.09595,-0.081644 0.05335,-0.049668 0.121207,-0.1221754 0.05191,-0.058532 0.09754,-0.1137697 0.04563,-0.055227 0.07939,-0.099424 0.03377,-0.044196 0.05419,-0.07256 0.02041,-0.028363 0.02041,-0.028363 0.02155,-0.035377 0.06105,-0.030436 0.01846,0.00155 0.03135,0.010819 0.01289,0.00928 0.02134,0.019277 0.02058,0.028512 0.01409,0.072811 -0.0065,0.044293 -0.02746,0.1387631 -0.0086,0.030988 -0.01721,0.061986 -0.0064,0.030626 -0.01351,0.056822 -3.65e-4,0.011438 -0.0026,0.025466 0.03032,-0.00949 0.06254,-0.035227 0.03222,-0.025737 0.06372,-0.055906 0.03149,-0.030168 0.0582,-0.061837 0.02635,-0.033879 0.04747,-0.057809 0.01892,-0.02357 0.04589,-0.025685 0.02697,-0.00217 0.05017,0.014581 0.02134,0.019277 0.02347,0.046246 0.0044,0.026608 -0.01458,0.050168 -0.0434,0.054876 -0.08976,0.1056714 -0.04671,0.048584 -0.09707,0.088648 -0.04851,0.037491 -0.101782,0.059829 -0.05362,0.020117 -0.108991,0.015532 -0.03764,-0.00752 -0.05822,-0.036035 -0.01836,-0.028872 -0.01971,-0.065065 4.69e-4,-0.03877 0.01107,-0.099678 -0.02077,0.026142 -0.04413,0.050435 -0.02114,0.023931 -0.04598,0.053016 -0.26659,0.2915336 -0.437309,0.3193537 z"
     opacity="0.25"
     id="path1209"
     style="fill:#333333" />
  <path
     d="m 13.846617,9.4795323 q -0.01108,0.00181 -0.02253,0.00144 -0.01108,0.00181 -0.02474,0.0018 -0.02806,-0.00455 -0.05049,-0.030466 -0.0087,-0.012228 -0.01394,-0.029593 -0.0054,-0.019602 -0.005,-0.058373 0.0027,-0.03914 0.01,-0.1063308 0.0092,-0.069765 0.02539,-0.1793889 -0.04811,0.026047 -0.106214,0.060551 -0.0581,0.034505 -0.120645,0.069731 -0.02294,0.012857 -0.04913,0.00578 -0.02877,-0.00897 -0.0442,-0.033771 -0.01286,-0.022941 -0.0035,-0.049501 0.0068,-0.028415 0.03155,-0.043836 0.06661,-0.03817 0.129156,-0.073399 0.06254,-0.035227 0.110646,-0.061274 0.04775,-0.028267 0.07698,-0.044409 0.02887,-0.018363 0.02887,-0.018363 0.02072,-0.012495 0.04177,-0.00904 0.02989,0.00191 0.04755,0.026397 0.01434,0.018151 0.01239,0.034394 3.57e-4,0.015869 -0.0012,0.034339 -0.003,0.00961 -0.0033,0.021034 -7.25e-4,0.00924 -0.003,0.023246 -0.0093,0.040222 -0.01809,0.098542 -0.0068,0.055736 -0.01555,0.1140671 -0.006,0.032847 -0.009,0.056098 -0.003,0.023246 -0.0045,0.04172 0.04068,-0.015747 0.113631,-0.070869 0.06259,-0.048894 0.132239,-0.1103151 0.06965,-0.061421 0.144512,-0.132802 0.01594,-0.013974 0.03186,-0.027958 0.01594,-0.013974 0.03149,-0.03017 0.02186,-0.01949 0.04955,-0.017194 0.02733,1.052e-4 0.04904,0.021593 0.01949,0.02186 0.01719,0.04955 -4.67e-4,0.025112 -0.02232,0.04461 -0.01556,0.016194 -0.03335,0.032752 -0.01593,0.013974 -0.03371,0.03053 -0.07521,0.069158 -0.146733,0.133164 -0.0715,0.064003 -0.136318,0.1132597 -0.131834,0.098872 -0.216083,0.1126003 z"
     opacity="0.25"
     id="path1211"
     style="fill:#333333" />
  <path
     d="m 5.7924149,12.736293 q -0.011083,0.0018 -0.01809,7.19e-4 -0.03692,-0.0032 -0.055334,-0.01829 -0.016557,-0.01779 -0.022794,-0.02815 -0.025685,-0.04589 -0.00737,-0.101222 0.020149,-0.0579 0.052879,-0.122418 0.010414,-0.0199 0.018246,-0.04166 0.00783,-0.02177 0.016026,-0.0413 0.00182,-0.0025 0.00517,-0.01 -0.012581,0.0066 -0.031093,0.01872 -0.016289,0.01177 -0.037788,0.03347 -0.035929,0.03089 -0.073771,0.07803 -0.038202,0.04492 -0.077894,0.09462 -0.00928,0.01289 -0.020776,0.02614 -0.00964,0.0107 -0.018925,0.02358 -0.017067,0.02099 -0.043666,0.02532 -0.029174,0.0024 -0.05053,-0.0168 -0.023209,-0.0167 -0.025322,-0.04366 -0.00253,-0.02917 0.014589,-0.05018 0.00928,-0.01289 0.021137,-0.02393 0.00928,-0.01289 0.018556,-0.02578 0.04526,-0.05744 0.089392,-0.107882 0.045981,-0.05301 0.08971,-0.092 0.045939,-0.03935 0.092547,-0.06061 0.04847,-0.02383 0.0972,-0.01807 0.0395,0.0049 0.058267,0.02237 0.018768,0.01743 0.025738,0.03222 0.028267,0.04775 0.0081,0.105654 -0.020149,0.0579 -0.054016,0.129432 -0.00372,0.0052 -0.00855,0.01732 -0.003,0.0096 -0.0082,0.01955 0.031093,-0.01872 0.079191,-0.04477 0.049956,-0.02863 0.1225039,-0.07231 0.027372,-0.01358 0.053931,-0.0042 0.026194,0.0071 0.039404,0.03227 0.015059,0.02258 0.00614,0.05135 -0.00711,0.0262 -0.029691,0.04126 -0.06697,0.03595 -0.1213674,0.0653 -0.054397,0.02935 -0.091773,0.05137 -0.02072,0.0125 -0.037385,0.02202 -0.014792,0.007 -0.027372,0.01358 -0.017011,0.0073 -0.027372,0.01358 -0.00853,0.0036 -0.019602,0.0054 z"
     opacity="0.25"
     id="path1215"
     style="fill:#333333" />
  <path
     d="m 6.3168739,12.848401 q -0.017736,0.0029 -0.033615,0.0033 -0.013658,-4e-6 -0.029897,-0.0019 -0.041719,-0.0045 -0.063017,-0.03753 -0.027184,-0.04109 -0.017343,-0.106427 0.01169,-0.06791 0.044216,-0.175638 0.00599,-0.01918 0.011232,-0.0428 0.00527,-0.02361 0.013092,-0.04538 -0.027014,0.01577 -0.055939,0.0478 -0.027066,0.02944 -0.055992,0.06147 -0.019277,0.02134 -0.046608,0.02126 -0.029543,2.55e-4 -0.050531,-0.0168 -0.021348,-0.01928 -0.021253,-0.04661 1.052e-4,-0.02733 0.0168,-0.05053 0.027428,-0.02723 0.056353,-0.05926 0.028925,-0.03203 0.063727,-0.0559 0.083314,-0.06138 0.1623123,-0.05148 0.03655,8.65e-4 0.060435,0.03567 0.023879,0.0348 0.012281,0.08904 -0.00942,0.05389 -0.038596,0.154236 -0.00674,0.02841 -0.015718,0.05719 -0.00674,0.02841 -0.013866,0.05461 -0.003,0.0096 -0.00408,0.0166 -0.0011,0.007 -0.00227,0.01403 0.021824,-0.0058 0.053261,-0.02234 0.033666,-0.01686 0.074397,-0.04627 0.042581,-0.03198 0.095947,-0.08165 0.053358,-0.04966 0.1212076,-0.122175 0.051911,-0.05853 0.097541,-0.11377 0.045621,-0.05523 0.079393,-0.09942 0.033772,-0.04419 0.054185,-0.07256 0.020414,-0.02836 0.020414,-0.02836 0.021551,-0.03537 0.061049,-0.03043 0.018459,0.0015 0.031348,0.01082 0.012891,0.0093 0.02135,0.01929 0.020574,0.02852 0.014094,0.07281 -0.00643,0.0443 -0.027459,0.138762 -0.0086,0.03099 -0.017215,0.06199 -0.00639,0.03063 -0.013506,0.05681 -3.653e-4,0.01144 -0.00264,0.02546 0.030317,-0.0095 0.062538,-0.03523 0.03222,-0.02574 0.063727,-0.05591 0.031497,-0.03017 0.058202,-0.06184 0.026345,-0.03388 0.04748,-0.05781 0.018915,-0.02358 0.045886,-0.02569 0.026962,-0.0022 0.05017,0.01459 0.021348,0.01928 0.023464,0.04625 0.00434,0.0266 -0.014581,0.05017 -0.04341,0.05486 -0.089752,0.105672 -0.046703,0.04858 -0.097074,0.08866 -0.048511,0.03749 -0.1017822,0.05983 -0.053623,0.02012 -0.1089908,0.01553 -0.037641,-0.0076 -0.058224,-0.03604 -0.018363,-0.02887 -0.019722,-0.06507 4.702e-4,-0.03877 0.011072,-0.09968 -0.020774,0.02615 -0.044133,0.05044 -0.021137,0.02393 -0.045983,0.05301 -0.2665911,0.291533 -0.4373092,0.319353 z"
     opacity="0.25"
     id="path1217"
     style="fill:#333333" />
  <path
     d="m 8.0810918,12.401207 q -0.015526,0.0025 -0.029543,2.55e-4 -0.043573,-0.0021 -0.068172,-0.04124 -0.019447,-0.03552 -0.00712,-0.08532 0.012369,-0.04982 0.040668,-0.113599 0.010051,-0.02212 0.017884,-0.04389 0.00969,-0.02433 0.015663,-0.04353 0.00517,-0.01 0.00747,-0.02397 -0.068319,-2.88e-4 -0.1559264,0.02086 -0.085746,0.01853 -0.1896862,0.06505 -0.093579,0.04029 -0.1957214,0.09791 -0.1024946,0.05539 -0.2157752,0.128477 -0.022582,0.01506 -0.048423,0.01008 -0.026194,-0.0071 -0.041253,-0.02969 -0.017279,-0.02223 -0.010483,-0.05064 0.00674,-0.02841 0.02933,-0.04347 0.1173503,-0.07602 0.2217037,-0.134003 0.1062137,-0.06056 0.2064449,-0.101923 0.2615118,-0.113174 0.442039,-0.09479 0.053166,0.0051 0.081071,0.05052 0.028267,0.04775 0.00918,0.112304 -0.019425,0.06235 -0.048861,0.133142 -0.00372,0.0052 -0.00708,0.01253 -0.0011,0.007 -0.00408,0.0166 0.049191,-0.01939 0.1413239,-0.06856 0.094353,-0.04953 0.2612471,-0.142717 0.022941,-0.01286 0.049499,-0.0035 0.028416,0.0068 0.041614,0.03192 0.015059,0.02258 0.00831,0.051 -0.00711,0.0262 -0.034133,0.04197 -0.096214,0.05209 -0.1757646,0.09465 -0.079551,0.04255 -0.1428225,0.07335 -0.086564,0.04142 -0.1313243,0.0601 -0.042897,0.0161 -0.067286,0.02008 z"
     opacity="0.25"
     id="path1219"
     style="fill:#333333" />
  <path
     d="m 8.9052457,12.431666 q -0.011083,0.0018 -0.022521,0.0015 -0.011083,0.0018 -0.024742,0.0018 -0.028057,-0.0046 -0.050487,-0.03046 -0.00878,-0.01223 -0.013941,-0.02959 -0.00542,-0.01961 -0.00495,-0.05837 0.00274,-0.03913 0.00999,-0.10633 0.00912,-0.06976 0.025388,-0.179389 -0.048107,0.02605 -0.1062138,0.06056 -0.058108,0.0345 -0.1206452,0.06973 -0.022941,0.01286 -0.049131,0.0058 -0.028778,-0.009 -0.044198,-0.03378 -0.012857,-0.02294 -0.00351,-0.0495 0.00674,-0.02841 0.031551,-0.04384 0.066609,-0.03817 0.1291562,-0.07339 0.062538,-0.03523 0.1106453,-0.06127 0.047745,-0.02827 0.076979,-0.04441 0.028873,-0.01836 0.028873,-0.01836 0.02072,-0.0125 0.04177,-0.0091 0.029897,0.0019 0.047545,0.0264 0.014335,0.01815 0.012392,0.03439 3.571e-4,0.01587 -0.00123,0.03434 -0.00301,0.0096 -0.00332,0.02104 -7.234e-4,0.0092 -0.00302,0.02325 -0.00933,0.04022 -0.018087,0.09854 -0.00685,0.05574 -0.015556,0.114068 -0.00603,0.03284 -0.00906,0.0561 -0.003,0.02325 -0.00458,0.04172 0.040677,-0.01574 0.1136305,-0.07087 0.06259,-0.04889 0.132239,-0.110315 0.06966,-0.06142 0.1445122,-0.132803 0.015932,-0.01398 0.031863,-0.02794 0.015932,-0.01398 0.031494,-0.03018 0.021856,-0.01949 0.049554,-0.01719 0.02733,1.05e-4 0.049042,0.02159 0.019492,0.02186 0.01719,0.04956 -4.665e-4,0.02511 -0.022317,0.04461 -0.015563,0.0162 -0.033357,0.03275 -0.015932,0.01398 -0.033715,0.03053 -0.075216,0.06916 -0.1467326,0.133164 -0.071512,0.064 -0.1363183,0.113259 -0.1318345,0.09888 -0.216083,0.1126 z"
     opacity="0.25"
     id="path1221"
     style="fill:#333333" />
  <path
     d="m 10.949085,12.098603 q -0.01108,0.0018 -0.02252,0.0015 -0.01108,0.0018 -0.02474,0.0018 -0.02806,-0.0046 -0.05049,-0.03047 -0.0087,-0.01223 -0.01394,-0.02959 -0.0054,-0.01961 -0.005,-0.05837 0.0027,-0.03913 0.01,-0.10633 0.0092,-0.06976 0.02539,-0.179389 -0.04811,0.02605 -0.106213,0.06055 -0.0581,0.0345 -0.120646,0.06973 -0.02294,0.01285 -0.04913,0.0058 -0.02878,-0.009 -0.0442,-0.03377 -0.01286,-0.02294 -0.0035,-0.0495 0.0068,-0.02841 0.03154,-0.04384 0.06661,-0.03817 0.129157,-0.07339 0.06254,-0.03523 0.110645,-0.06127 0.04775,-0.02827 0.07698,-0.04441 0.02887,-0.01837 0.02887,-0.01837 0.02073,-0.0125 0.04176,-0.0091 0.0299,0.0019 0.04755,0.0264 0.01434,0.01815 0.01239,0.03438 3.57e-4,0.01587 -0.0012,0.03434 -0.003,0.0096 -0.0034,0.02104 -7.23e-4,0.0092 -0.003,0.02325 -0.0093,0.04022 -0.01809,0.09854 -0.0068,0.05574 -0.01555,0.114068 -0.006,0.03284 -0.009,0.0561 -0.003,0.02325 -0.0045,0.04172 0.04068,-0.01575 0.11363,-0.07087 0.06259,-0.04889 0.132239,-0.110316 0.06966,-0.06142 0.144511,-0.132802 0.01594,-0.01398 0.03186,-0.02794 0.01594,-0.01398 0.03149,-0.03018 0.02186,-0.01949 0.04956,-0.01719 0.02733,1.05e-4 0.04904,0.02159 0.01949,0.02186 0.01719,0.04956 -4.68e-4,0.02511 -0.02232,0.04461 -0.01558,0.0162 -0.03335,0.03275 -0.01594,0.01398 -0.03372,0.03053 -0.07521,0.06916 -0.146732,0.133164 -0.0715,0.06401 -0.136319,0.113259 -0.131833,0.09888 -0.216083,0.112601 z"
     opacity="0.25"
     id="path1225"
     style="fill:#333333" />
  <path
     d="m 9.6685624,12.30221 q -0.01774,0.0029 -0.03361,0.0033 -0.01366,-3e-6 -0.02989,-0.0019 -0.04171,-0.0045 -0.063019,-0.03753 -0.027187,-0.04109 -0.017344,-0.106426 0.011686,-0.06791 0.044213,-0.17564 0.006,-0.01918 0.01123,-0.0428 0.0053,-0.02361 0.01309,-0.04538 -0.02701,0.01578 -0.05594,0.04781 -0.027064,0.02944 -0.055991,0.06147 -0.019287,0.02135 -0.046607,0.02126 -0.02954,2.56e-4 -0.050527,-0.0168 -0.021344,-0.01928 -0.021252,-0.04661 1.053e-4,-0.02733 0.016801,-0.05053 0.027432,-0.02723 0.056358,-0.05925 0.028926,-0.03203 0.063715,-0.05591 0.08331,-0.06138 0.162312,-0.05148 0.03655,8.65e-4 0.06043,0.03568 0.02389,0.0348 0.01228,0.08904 -0.0094,0.05389 -0.0386,0.154236 -0.0068,0.02841 -0.01572,0.05719 -0.0068,0.02841 -0.01385,0.05461 -0.003,0.0096 -0.0041,0.0166 -0.0011,0.007 -0.0023,0.01403 0.02181,-0.0058 0.05326,-0.02233 0.03366,-0.01686 0.0744,-0.04627 0.04258,-0.03198 0.09594,-0.08164 0.05336,-0.04966 0.1212076,-0.122176 0.05191,-0.05853 0.09754,-0.113769 0.04563,-0.05523 0.07939,-0.09942 0.03378,-0.0442 0.05419,-0.07256 0.02041,-0.02836 0.02041,-0.02836 0.02155,-0.03537 0.06104,-0.03044 0.01846,0.0015 0.03135,0.01082 0.01289,0.0093 0.02135,0.01929 0.02058,0.02851 0.01409,0.07281 -0.0065,0.0443 -0.02746,0.138764 -0.0086,0.03098 -0.01721,0.06199 -0.0064,0.03063 -0.0135,0.05681 -3.66e-4,0.01144 -0.0026,0.02546 0.03032,-0.0095 0.06254,-0.03523 0.03222,-0.02574 0.06372,-0.05591 0.03149,-0.03017 0.0582,-0.06184 0.02635,-0.03388 0.04748,-0.05781 0.01893,-0.02358 0.04589,-0.02568 0.02696,-0.0022 0.05017,0.01459 0.02134,0.01928 0.02346,0.04625 0.0044,0.02661 -0.01459,0.05017 -0.04341,0.05486 -0.08976,0.105672 -0.04669,0.04858 -0.09707,0.08866 -0.04851,0.03749 -0.101781,0.05983 -0.05362,0.02012 -0.108991,0.01553 -0.03764,-0.0076 -0.05822,-0.03604 -0.01836,-0.02887 -0.01972,-0.06507 4.7e-4,-0.03877 0.01107,-0.09968 -0.02077,0.02615 -0.04413,0.05044 -0.02114,0.02393 -0.04598,0.05301 -0.2665906,0.291535 -0.4373106,0.319354 z"
     opacity="0.25"
     id="path1223"
     style="fill:#333333" />
  <path
     d="M 3.5262002,5.6386863 2.9464021,6.6135822 2.5032493,6.3500672 2.2924608,6.7043728 3.0899641,7.1789527 3.8807754,5.8494511 Z"
     fill="#ffffff"
     opacity="0.2"
     id="path1229" />
  <path
     d="M 3.5041011,5.5030752 2.924303,6.477971 2.4811503,6.2144561 2.2703617,6.5687616 3.067865,7.0433414 3.8586764,5.7138399 Z"
     fill="url(#linearGradient8460)"
     opacity="0.2"
     id="path1231"
     style="fill:url(#linearGradient1259)" />
  <path
     d="M 4.1577019,9.9571968 3.5779037,10.932093 3.134751,10.668577 l -0.2107884,0.354306 0.7975032,0.47458 0.7908114,-1.329501 z"
     fill="#ffffff"
     opacity="0.2"
     id="path1233" />
  <path
     d="M 4.1356028,9.8215856 3.5558046,10.796481 3.1126519,10.532966 2.9018635,10.887271 3.6993667,11.361851 4.4901781,10.03235 Z"
     fill="url(#linearGradient957)"
     opacity="0.2"
     id="path1235"
     style="fill:url(#linearGradient1261)" />
  <path
     d="m 4.5050764,11.64555 -0.5797982,0.974896 -0.4431527,-0.263515 -0.2107884,0.354306 0.7975033,0.47458 0.7908113,-1.329502 z"
     fill="#ffffff"
     opacity="0.2"
     id="path1237" />
  <path
     d="M 4.045429,12.072634 3.4656309,13.04753 3.0224782,12.784016 2.8116896,13.138321 3.6091929,13.612901 4.4000042,12.283399 Z"
     fill="url(#linearGradient963)"
     opacity="0.2"
     id="path1239"
     style="fill:url(#linearGradient1263)" />
  <path
     d="M 11.058002,5.147967 C 10.809409,5.0001063 10.490245,5.0811957 10.342384,5.3297828 L 7.6733632,9.8170258 5.8784717,8.7494523 C 5.6298793,8.6015914 5.310715,8.6826811 5.1628605,8.9312591 L 4.6290552,9.828699 c -0.1478611,0.248592 -0.066779,0.567767 0.1818209,0.715617 l 3.1410672,1.868297 C 8.200527,12.560474 8.5197,12.479383 8.6675688,12.230786 L 12.137325,6.3974497 C 12.285187,6.1488573 12.204095,5.829693 11.95551,5.6818312 Z"
     fill="none"
     opacity="0.5"
     stroke="url(#linearGradient8451)"
     stroke-linecap="square"
     stroke-linejoin="round"
     stroke-width="0.261047"
     id="path1243"
     style="stroke:url(#linearGradient1255)" />
  <path
     id="path5479"
     stroke="#ff5050"
     d="M 5.2753497,15.599944 3.7052497,1.6959447"
     style="fill:none;stroke-width:0.17808;opacity:1" />
  <path
     d="M 11.058002,5.147967 C 10.809409,5.0001063 10.490245,5.0811957 10.342384,5.3297837 L 7.6733492,9.8169408 5.8784577,8.7493673 C 5.6298654,8.6015063 5.310701,8.6825959 5.1628466,8.9311739 L 4.6290412,9.8286138 C 4.4811802,10.077206 4.5622622,10.39638 4.8108621,10.544231 l 3.1410674,1.868297 c 0.2485836,0.147862 0.5677566,0.06677 0.7156255,-0.181827 l 3.46967,-5.8333225 C 12.285087,6.1487861 12.203995,5.8296218 11.955411,5.68176 Z"
     fill="url(#linearGradient8453)"
     id="path1245"
     style="fill:url(#linearGradient1257);stroke-width:0.87155" />
  <path
     d="M 11.059722,5.1476867 C 10.81113,4.9998259 10.491965,5.0809154 10.344103,5.3295043 L 7.6750697,9.8166612 5.8801783,8.7490878 C 5.631586,8.6012267 5.3124202,8.6823078 5.1645667,8.9308917 L 4.6307613,9.8283318 c -0.071498,0.1202042 -0.088215,0.2566392 -0.059626,0.3824942 0.00913,-0.03127 0.020885,-0.06204 0.038345,-0.0914 L 5.2767419,8.9976625 C 5.3876378,8.8112203 5.6270109,8.7504009 5.8134534,8.8612997 L 7.7205095,9.9956322 10.456202,5.3962387 c 0.110897,-0.1864419 0.35027,-0.2472615 0.536713,-0.1363608 l 1.121767,0.6672619 c 0.02935,0.017458 0.05437,0.038886 0.07731,0.062005 C 12.157054,5.8649072 12.07723,5.7530001 11.957041,5.6815087 Z"
     opacity="0.24"
     id="path1247"
     style="stroke-width:0.87155" />
  <path
     transform="matrix(0.11217678,0.0667262,-0.0667262,0.11217678,5.8560841,-2.9578926)"
     d="m 66,34 c -1.662,0 -3,1.338 -3,3 V 78 H 46 c -1.662,0 -3,1.338 -3,3 v 10 c 0,0.90028 0.40136,1.6952 1.0254,2.2441 -0.0099,-0.0809 -0.02539,-0.16048 -0.02539,-0.24414 v -12 c 0,-1.108 0.892,-2 2,-2 h 18 v -42 c 0,-1.108 0.892,-2 2,-2 h 12 c 0.08366,0 0.16324,0.01551 0.24414,0.02539 -0.54898,-0.62403 -1.3439,-1.0254 -2.2441,-1.0254 z"
     clip-path="url(#clipPath7904)"
     opacity="0.12"
     id="path1249" />
</svg>
