<?xml version="1.0" encoding="UTF-8"?>
<svg width="64" height="64" version="1.1" viewBox="0 0 16.933 16.933" xmlns="http://www.w3.org/2000/svg" xmlns:cc="http://creativecommons.org/ns#" xmlns:dc="http://purl.org/dc/elements/1.1/" xmlns:rdf="http://www.w3.org/1999/02/22-rdf-syntax-ns#">
 <defs>
  <filter id="filter1066-2" x="-.063923" y="-.056531" width="1.1278" height="1.1131" color-interpolation-filters="sRGB">
   <feGaussianBlur stdDeviation="0.22705935"/>
  </filter>
  <filter id="filter1100-3" x="-.12197" y="-.11848" width="1.2439" height="1.237" color-interpolation-filters="sRGB">
   <feGaussianBlur stdDeviation="0.47586465"/>
  </filter>
  <linearGradient id="linearGradient938-0" x1="80.368" x2="82.141" y1="13.177" y2="14.704" gradientTransform="matrix(.96155 0 0 .96155 -66.371 1.1337)" gradientUnits="userSpaceOnUse">
   <stop stop-color="#e5e6ea" offset="0"/>
   <stop stop-color="#2f3240" offset="1"/>
  </linearGradient>
 </defs>
 <metadata>
  <rdf:RDF>
   <cc:Work rdf:about="">
    <dc:format>image/svg+xml</dc:format>
    <dc:type rdf:resource="http://purl.org/dc/dcmitype/StillImage"/>
    <dc:title/>
   </cc:Work>
  </rdf:RDF>
 </metadata>
 <g transform="translate(1.0961 -2.8254)">
  <rect transform="rotate(-6.4422)" x="-.96841" y="4.7862" width="13.992" height="13.992" ry="1.1671" fill="#333644" stroke-width=".96155"/>
  <path transform="matrix(1.0331 0 0 .96964 -45.578 -.2401)" d="m57.818 9.8288s0.05354 3.0782-2.6636 4.5408c-2.2449 1.2084 0.9386 2.689-5.8599 5.0989 8.8505-2.5748 8.5235-9.6396 8.5235-9.6396z" fill="#141414" filter="url(#filter1066-2)" opacity=".3"/>
  <path transform="matrix(.8359 0 0 .91429 -34.756 -.21126)" d="m57.594 9.7322c-0.15355 5.725-5.0519 8.6864-8.5234 9.6397l8.2859-0.93608c0.6682-0.07545 1.1451-0.67434 1.0697-1.3425z" fill="#2f3240" filter="url(#filter1100-3)" opacity=".2"/>
  <path transform="matrix(1.0038 0 0 .93538 -43.845 .2107)" d="m57.818 9.8288s0.05354 3.0782-2.6636 4.5408c-2.2449 1.2084 0.9386 2.689-5.8599 5.0989 8.8505-2.5748 8.5235-9.6396 8.5235-9.6396z" fill="#141414" filter="url(#filter1066-2)" opacity=".3"/>
  <path d="m6.9338 7.2825c-0.27728 0.030211-0.47948 0.28129-0.4493 0.55831 0.030211 0.27728 0.28179 0.47943 0.55907 0.44921 0.20997-0.022879 0.3765-0.17289 0.43189-0.3646 0.36615 0.16058 0.72918 0.54289 1.0243 1.0907 0.32322 0.59987 0.56565 1.3899 0.66147 2.2694 0.078131 0.71712 0.048691 1.3973-0.065951 1.9791l0.18375 0.03609c0.11897-0.60291 0.14878-1.3007 0.06875-2.0352-0.098213-0.90139-0.34575-1.7126-0.68329-2.3384-0.32138-0.59701-0.72452-1.0267-1.1721-1.1971a0.50813 0.50813 0 0 0-0.55862-0.44748zm0.020322 0.18653c0.17645-0.019225 0.33217 0.10613 0.35136 0.28232 0.019227 0.17645-0.10605 0.33293-0.28224 0.35213-0.17645 0.019227-0.33222-0.10663-0.35145-0.28308-0.019196-0.17619 0.10613-0.33217 0.28232-0.35136zm-1.6679 1.6425a2.6696 2.6696 0 0 0-0.62156 0.13582c-0.37257 0.13395-0.6587 0.35921-0.79821 0.6754-0.2065 0.4691-0.049325 1.0338 0.34607 1.5773l0.15175-0.11014c-0.37318-0.51282-0.496-1.0057-0.3263-1.3912 0.11452-0.25988 0.35109-0.45297 0.6903-0.57488 0.33871-0.12184 0.77721-0.16809 1.2716-0.13268l0.013224-0.18763c-0.25706-0.018412-0.50062-0.015851-0.72683 0.00778zm3.6995-0.39748 0.01835 0.18725c0.61618-0.058974 1.0916 0.081539 1.3364 0.41578 0.16774 0.22862 0.2163 0.52914 0.1528 0.8827-0.06325 0.35352-0.24056 0.75567-0.51708 1.1651l0.15602 0.10466c0.28725-0.42562 0.47643-0.8477 0.54629-1.2364 0.06986-0.38866 0.01742-0.74845-0.18634-1.0267-0.29785-0.40675-0.85269-0.55495-1.5064-0.49237zm-0.91637 0.20187c-0.59526 0.19698-1.2315 0.52545-1.8438 0.97372-0.74333 0.54468-1.329 1.1758-1.7015 1.7902-0.36155 0.59567-0.52466 1.1774-0.41901 1.6556a0.50864 0.50864 0 0 0-0.25222 0.49423c0.030211 0.27728 0.28171 0.47866 0.55873 0.44848 0.27702-0.03018 0.47872-0.2812 0.44853-0.55823-0.030184-0.27702-0.28129-0.47948-0.55831-0.4493-0.0063 6.88e-4 -0.011655 0.0031-0.017928 4e-3 -0.080176-0.40345 0.059728-0.93595 0.40052-1.4975 0.35671-0.58852 0.92693-1.2051 1.6523-1.7364 0.59764-0.43751 1.2176-0.75678 1.7917-0.94687zm-0.72485 2.1353c-0.2566 0.02796-0.44344 0.26078-0.41551 0.51713 0.027932 0.25635 0.26056 0.44373 0.51716 0.41578 0.2566-0.02796 0.44344-0.26078 0.41551-0.51713-0.02793-0.25635-0.26053-0.44347-0.51713-0.41551zm-2.3792 0.98768-0.12443 0.14083c0.46601 0.41216 1.0634 0.79394 1.7506 1.0968 0.81904 0.36095 1.6346 0.55186 2.3393 0.57686 0.66624 0.02357 1.2337-0.101 1.6108-0.38542 0.10016 0.07657 0.22782 0.1175 0.36218 0.10286 0.27728-0.03021 0.47948-0.28129 0.4493-0.55831-0.03018-0.27702-0.28179-0.47943-0.55907-0.44921-0.27728 0.03021-0.47866 0.28171-0.44845 0.55899 0.0082 0.07562 0.03357 0.14428 0.07082 0.20526-0.32675 0.23863-0.84809 0.3602-1.479 0.3379-0.67568-0.023813-1.4712-0.2085-2.2704-0.56089-0.67061-0.2955-1.252-0.66829-1.7016-1.0657zm-0.6433 1.4183c0.17619-0.0192 0.33222 0.10663 0.35145 0.28308 0.019227 0.17645-0.10613 0.33217-0.28232 0.35136-0.17619 0.01919-0.33293-0.10605-0.35213-0.28224-0.019196-0.17619 0.10655-0.33298 0.283-0.35221zm6.4923-0.70738c0.17645-0.01923 0.33298 0.10655 0.35221 0.283 0.01923 0.17645-0.10663 0.33222-0.28308 0.35145-0.17645 0.01923-0.33217-0.10613-0.35136-0.28232-0.01919-0.17619 0.10605-0.33293 0.28224-0.35213zm-4.621 1.0228-0.16885 0.08191c0.22487 0.46266 0.49596 0.83919 0.79822 1.0945 0.302 0.25531 0.64015 0.39037 0.98345 0.35296 0.49757-0.05421 0.9008-0.45471 1.1732-1.0448l-0.17027-0.07862c-0.25649 0.55566-0.61438 0.89232-1.0233 0.93686-0.28231 0.030759-0.5673-0.077706-0.84231-0.30995-0.27501-0.23224-0.53383-0.58764-0.75018-1.0329z" fill="url(#f-3)" stroke-width=".25356"/>
  <path d="m12.564 3.4224c-0.07737-0.00686-0.1567-0.00609-0.23701 0.00298l-11.585 1.3083c-0.64251 0.072549-1.1015 0.64791-1.029 1.2904l1.3083 11.585c0.072548 0.64251 0.64791 1.1011 1.2904 1.0286l3.6229-0.40894c3.338-0.91805 8.0431-3.7658 8.1907-9.2681l0.8 7.0781-1.3078-11.585c-0.063481-0.56219-0.51229-0.98406-1.0538-1.032z" fill="#2f3241" fill-opacity=".98039" stroke-width=".96155"/>
  <path d="m14.124 8.9272s0.05148 2.9599-2.5612 4.3662c-2.1586 1.1619 0.90252 2.5856-5.6346 4.903 8.5103-2.4758 8.2635-9.2353 8.2635-9.2353z" fill="url(#linearGradient938-0)" stroke-width=".96155"/>
  <path d="m9.4853 7.1224-5.2146 1.5663 0.025563 0.29046 0.15654-0.026461c0.38192-0.063316 0.59981 0.046005 0.69045 0.34776 0.025493 0.084868 0.080277 0.3357 0.084077 0.41681l0.4777 4.2257c0.063422 0.69031-0.056261 0.94214-0.55507 1.1639l-0.15464 0.06701 0.034992 0.28762 2.7158-0.81574-0.034992-0.28762-0.20369 0.04062c-0.4451 0.092581-0.68184-0.011079-0.77815-0.33169-0.031157-0.10373-0.060449-0.2697-0.081244-0.40738l-0.22799-2.0596 0.70723-0.21243c0.3489-0.1048 0.64785-0.10208 0.81009-0.0069 0.16507 0.10462 0.34718 0.36862 0.42365 0.62322 0.011329 0.03772 0.021723 0.10656 0.040622 0.20369l0.02266 0.07544 0.30175-0.09064-0.32164-2.8847-0.31118 0.093471-0.0047 0.052813-0.014918 0.49795c-0.00279 0.093366-0.04141 0.23861-0.10832 0.39236-0.14984 0.32258-0.36669 0.49052-0.82874 0.62931l-0.76381 0.22945-0.17783-1.5503c-0.04919-0.43757-0.034201-0.72992 0.025174-0.84028 0.14138-0.24808 0.36955-0.3783 1.0108-0.5709 1.1787-0.35406 2.0681-0.096903 2.9153 0.84116l0.32434-0.22079z" fill="#fff" stroke-width=".24616"/>
 </g>
</svg>
