<?xml version="1.0" encoding="UTF-8"?>
<!-- Created with Inkscape (http://www.inkscape.org/) -->
<svg width="64" height="64" version="1.1" viewBox="0 0 16.933 16.933" xmlns="http://www.w3.org/2000/svg" xmlns:xlink="http://www.w3.org/1999/xlink">
 <defs>
  <linearGradient id="linearGradient1129" x1="25.135" x2="25.135" y1="11.222" y2="9.3897" gradientTransform="translate(-10.229 .14366)" gradientUnits="userSpaceOnUse">
   <stop stop-color="#27573f" offset="0"/>
   <stop stop-color="#5bb086" offset=".40921"/>
   <stop stop-color="#75c99f" offset=".63483"/>
   <stop stop-color="#295b43" offset="1"/>
  </linearGradient>
  <linearGradient id="linearGradient1021" x1="25.135" x2="25.135" y1="11.222" y2="9.3897" gradientTransform="translate(2.1817 .14366)" gradientUnits="userSpaceOnUse">
   <stop stop-color="#2f6a4d" offset="0"/>
   <stop stop-color="#5fb68b" offset=".28446"/>
   <stop stop-color="#7bcfa5" offset=".63483"/>
   <stop stop-color="#fff" offset=".67901"/>
   <stop stop-color="#fff" offset=".76713"/>
   <stop stop-color="#4ba97b" offset=".79259"/>
   <stop stop-color="#337052" offset="1"/>
  </linearGradient>
  <filter id="filter1066-5" x="-.063923" y="-.056531" width="1.1278" height="1.1131" color-interpolation-filters="sRGB">
   <feGaussianBlur stdDeviation="0.22705935"/>
  </filter>
  <filter id="filter1100-5" x="-.12197" y="-.11848" width="1.2439" height="1.237" color-interpolation-filters="sRGB">
   <feGaussianBlur stdDeviation="0.47586465"/>
  </filter>
  <linearGradient id="linearGradient938-1" x1="80.368" x2="82.141" y1="13.177" y2="14.704" gradientTransform="matrix(.96156 0 0 .96156 -65.661 -9.5469)" gradientUnits="userSpaceOnUse">
   <stop stop-color="#fafafa" offset="0"/>
   <stop stop-color="#90a0b3" offset="1"/>
  </linearGradient>
  <linearGradient id="linearGradient1617" x1="17.367" x2="17.367" y1="10.635" y2="10.254" gradientTransform="matrix(.7852 0 0 .52347 -16.39 3.0307)" gradientUnits="userSpaceOnUse">
   <stop stop-color="#323433" offset="0"/>
   <stop stop-color="#6b6b6b" offset=".63329"/>
   <stop stop-color="#383a39" offset="1"/>
  </linearGradient>
  <linearGradient id="linearGradient1619" x1="17.409" x2="17.4" y1="10.65" y2="10.228" gradientTransform="matrix(.7852 0 0 .7852 -16.049 .29041)" gradientUnits="userSpaceOnUse" xlink:href="#linearGradient1129"/>
  <linearGradient id="linearGradient1621" x1="34.285" x2="34.256" y1="10.964" y2="9.9266" gradientTransform="matrix(.3926 -.68 .68 .3926 -7.773 14.044)" gradientUnits="userSpaceOnUse" xlink:href="#linearGradient1021"/>
  <linearGradient id="linearGradient1623" x1="25.135" x2="25.135" y1="11.222" y2="9.3897" gradientTransform="matrix(.3926 -.68 .68 .3926 -6.8188 12.617)" gradientUnits="userSpaceOnUse" xlink:href="#linearGradient1021"/>
  <linearGradient id="linearGradient1625" x1="25.135" x2="25.135" y1="11.222" y2="9.3897" gradientTransform="matrix(.3926 -.68 .68 .3926 -11.691 21.056)" gradientUnits="userSpaceOnUse" xlink:href="#linearGradient1129"/>
 </defs>
 <g transform="translate(.38411 7.8554)">
  <rect transform="rotate(-6.4422)" x=".93698" y="-5.7471" width="13.992" height="13.992" ry="1.1671" fill="#f3f3f3" stroke-width=".96156"/>
  <path d="m11.467 4.955 4.0212-0.45567" fill="none" stroke="#dcdcdc" stroke-width=".17808"/>
  <path d="m13.565 2.581 1.6908-0.1916" fill="none" stroke="#dcdcdc" stroke-width=".17808"/>
  <path transform="matrix(1.0331 0 0 .96964 -44.867 -10.921)" d="m57.818 9.8288s0.05354 3.0782-2.6636 4.5408c-2.2449 1.2084 0.9386 2.689-5.8599 5.0989 8.8505-2.5748 8.5235-9.6396 8.5235-9.6396z" fill="#141414" filter="url(#filter1066-5)" opacity=".3"/>
  <path transform="matrix(.8359 0 0 .91429 -34.044 -10.892)" d="m57.594 9.7322c-0.15355 5.725-5.0519 8.6864-8.5234 9.6397l8.2859-0.93608c0.6682-0.07545 1.1451-0.67434 1.0697-1.3425z" fill="#9cb8d7" filter="url(#filter1100-5)" opacity=".2"/>
  <path transform="matrix(1.0038 0 0 .93538 -43.132 -10.47)" d="m57.818 9.8288s0.05354 3.0782-2.6636 4.5408c-2.2449 1.2084 0.9386 2.689-5.8599 5.0989 8.8505-2.5748 8.5235-9.6396 8.5235-9.6396z" fill="#141414" filter="url(#filter1066-5)" opacity=".3"/>
  <path d="m13.276-7.2581c-0.07737-0.00686-0.1567-0.00609-0.23702 0.00298l-11.585 1.3083c-0.64251 0.072548-1.1015 0.64791-1.029 1.2904l1.3083 11.585c0.072549 0.64251 0.64791 1.1011 1.2904 1.0286l3.6229-0.40894c3.3379-0.91806 8.0432-3.7658 8.1908-9.268l0.8 7.0782-1.3078-11.585c-0.06348-0.56219-0.51229-0.98406-1.0538-1.032z" fill="#fafafa" stroke-width=".96156"/>
  <path d="m1.0984 1.7942 13.904-1.5701" fill="none" stroke="#dcdcdc" stroke-width=".17808"/>
  <path d="m1.4071 3.925 10.932-1.2388" fill="none" stroke="#dcdcdc" stroke-width=".17808"/>
  <path d="m14.836-1.7534s0.05148 2.9599-2.5612 4.3663c-2.1586 1.1619 0.90252 2.5857-5.6346 4.9029 8.5103-2.4758 8.2634-9.2353 8.2634-9.2353z" fill="url(#linearGradient938-1)" stroke-width=".96156"/>
  <g fill="none">
   <path d="m1.6234 6.118 9.3166-1.0558" stroke="#dcdcdc" stroke-width=".17821"/>
   <path d="m14.837-1.7016s-0.18136 3.0076-2.4096 4.2396c-2.5636 1.4174 0.93317 2.6841-5.8204 4.9777" stroke="#fafafa" stroke-width=".1272"/>
   <path d="m0.8763-0.43188 13.904-1.5701" stroke="#dcdcdc" stroke-width=".17808"/>
   <path d="m1.6234 6.119" stroke="#000" stroke-width=".2544px"/>
   <path d="m0.66119-2.6318 13.904-1.5701" stroke="#dcdcdc" stroke-width=".17808"/>
   <path d="m0.4333-4.7298 13.839-1.5701" stroke="#dcdcdc" stroke-width=".17808"/>
  </g>
  <g fill="#52a17a">
   <path d="m1.9471-3.7962-0.1085 0.012236-0.00485 0.13919 0.10242-0.011551 0.00641 0.056788-0.11053 0.012465-0.00764 0.22372-0.059831 0.00675 0.00764-0.22372-0.13589 0.015325-0.00967 0.22395-0.059831 0.00675 0.00967-0.22395-0.11053 0.012464-0.00641-0.056788 0.11865-0.01338 0.00789-0.13954-0.11256 0.012694-0.00628-0.055774 0.11978-0.012481 0.00822-0.2094 0.058815-0.00663-0.00721 0.20929 0.13487-0.015209 0.00721-0.20929 0.058816-0.00664-0.00721 0.20929 0.1004-0.011322zm-0.16732 0.01887-0.13487 0.015209-0.00688 0.13942 0.1369-0.015439z"/>
   <path d="m2.4531-3.8533-0.1085 0.012236-0.00485 0.13919 0.10242-0.011551 0.00641 0.056788-0.11053 0.012466-0.00764 0.22372-0.059831 0.00675 0.00764-0.22372-0.13589 0.015324-0.00967 0.22395-0.059831 0.00675 0.00966-0.22395-0.11053 0.012465-0.00641-0.056788 0.11865-0.01338 0.00789-0.13954-0.11256 0.012694-0.00628-0.055774 0.11978-0.012481 0.00822-0.2094 0.058816-0.00663-0.00721 0.20929 0.13487-0.015209 0.00721-0.20929 0.058816-0.00663-0.00721 0.20929 0.1004-0.011322zm-0.16732 0.01887-0.13487 0.015209-0.00688 0.13942 0.1369-0.015439z"/>
   <path d="m3.859-3.6073q0.0016 0.014198-0.0092 0.027738-0.010797 0.013541-0.024994 0.015143-0.025351 0.00285-0.03948-0.022249-0.057523-0.10032-0.10226-0.23289-0.020616-0.064429-0.040249-0.14745-0.016686-0.075142-0.024691-0.14613-0.047655 0.07829-0.090991 0.17663l-0.063217 0.14063q-0.02369 0.05402-0.030561 0.056849-0.033465 0.00377-0.08558-0.094074-0.042956-0.080395-0.087363-0.21917l-0.045139 0.1006q-0.039298 0.088644-0.068668 0.18335-0.041594 0.13204-0.05605 0.24972-0.0021 0.017696-0.011681 0.02391-0.00844 0.00711-0.025682 0.00906-0.011155 0.00126-0.026381-0.00626-0.010036-0.00708-0.014013-0.024094-0.00778-0.068957 0.056478-0.26414 0.051132-0.15673 0.099753-0.26286 0.070971-0.15384 0.11153-0.15841 0.019267-0.00217 0.063475 0.15305 0.030148 0.1034 0.069359 0.16881 0.057345-0.14717 0.14301-0.27082 0.073305-0.10583 0.10169-0.10903 0.022309-0.00251 0.039007 0.14554 0.013037 0.11561 0.053814 0.24041 0.029675 0.090108 0.07096 0.18301z"/>
   <path d="m4.2642-3.9672q-0.037233 0.17981-0.021793 0.31671 0.00343 0.030423-0.03059 0.038368-0.017239 0.00195-0.029882-0.00998-0.011512-0.011026-0.013458-0.028265-0.028891 0.044338-0.11408 0.053945-0.057803 0.00652-0.11004-0.02867-0.061149-0.041372-0.069612-0.11641-0.010521-0.093296 0.055631-0.16237 0.062439-0.065579 0.15776-0.076329 0.046647-0.00526 0.062103 0.00429 0.010941 0.00595 0.013 0.024208 0.0016 0.014197-0.00525 0.026266-0.00809 0.010151-0.032437 0.012897-0.074028 0.00835-0.12423 0.045846-0.060554 0.045854-0.052779 0.11481 0.00572 0.050703 0.041814 0.070253 0.025155 0.013595 0.057604 0.00994 0.063887-0.0072 0.11373-0.056987 0.010995-0.16658 0.027246-0.22284 0.011766-0.04138 0.037117-0.044239 0.032452-0.00367 0.038138 0.028562z"/>
   <path d="m4.6885-3.7008q0.00148 0.013182-0.010324 0.026839-0.010683 0.014554-0.023864 0.016042-0.00507 5.713e-4 -0.11783-0.10687-0.12404-0.11644-0.13093-0.12284l-0.01169 0.22418q0.00285 0.025352-0.034091 0.034655-0.01521 0.00172-0.025481-0.0074-0.011169-0.00798-0.013114-0.025222l0.032807-0.61064q4.26e-4 -0.014425 0.00887-0.021539 0.00642-0.00688 0.024666-0.00894 0.012169-0.00137 0.024468 0.00751 0.013312 0.00877 0.015699 0.020823l-0.017881 0.29676q0.052915-0.031642 0.14162-0.091967 0.023864-0.016042 0.041776-0.021143 0.012169-0.00137 0.023796 0.010667 0.011512 0.011026 0.013 0.024208 0.00593 0.043491-0.16128 0.12705 0.042882 0.034189 0.066921 0.056125 0.02404 0.021936 0.071563 0.069979 0.078908 0.080448 0.081309 0.10174z"/>
   <path d="m5.0917-3.8048q0.00423 0.037521-0.085634 0.078465-0.074326 0.03303-0.12401 0.038634-0.15921 0.017955-0.17488-0.12098-0.010063-0.08924 0.042547-0.16912 0.059465-0.091945 0.16087-0.10338 0.064901-0.00732 0.10742 0.014587 0.042522 0.021907 0.046296 0.05537 0.00686 0.060844-0.10583 0.1362-0.094564 0.06304-0.13107 0.067157-0.028396 0.0032-0.032283-0.031276-0.00126-0.011155 0.1003-0.066768 0.10246-0.056741 0.099142-0.086151-0.00137-0.012169-0.018742-0.020481-0.019054-0.00504-0.057588-6.909e-4 -0.076055 0.00857-0.11462 0.067355-0.034961 0.054265-0.026727 0.12728 4e-3 0.035493 0.026459 0.052473 0.022454 0.016979 0.067074 0.011947 0.050703-0.00572 0.092022-0.030918l0.092205-0.056612q0.032452-0.00367 0.037026 0.036905z"/>
   <path d="m5.4828-4.1067q0.0032 0.028395-0.014137 0.038566-0.011483 0.00746-0.03785 0.010426-0.093296 0.010521-0.16698 0.085586-0.055355 0.055537-0.063964 0.097588l-0.00464 0.12274q-0.00108 0.026824-0.034547 0.030598-0.031436 0.00354-0.040396-0.030363l0.016722-0.31614q0.00141-0.033023 0.031834-0.036454 0.035493-4e-3 0.039839 0.034533l-0.00272 0.057816q0.049942-0.058008 0.096674-0.080738 0.059343-0.029286 0.13844-0.038207 0.038536-0.00434 0.041738 0.024048z"/>
  </g>
  <g fill="#d35f5f">
   <path d="m2.0824-1.7627q-0.00573 0.012969-0.021836 0.015812l-0.011383-7.692e-4 -0.010598-0.00291-0.017711-0.011352-0.13007-0.078786 0.038106 0.14667 0.00342 0.021181q0.00557 0.031208-0.022477 0.037453-0.01521 0.00172-0.022553-0.00876-0.00824-0.00933-0.00972-0.022522l-3.78e-4 -0.021522 0.00269-0.14921-0.12219 0.11853q-0.010583 0.00633-0.022522 0.00972-0.012169 0.00137-0.022784-0.01078l-0.00566-0.01374q-0.00182-0.016225 0.016179-0.029553l0.019367-0.010395 0.13241-0.07347-0.16665-0.047961q-0.020181-0.00593-0.022354-0.025206-0.00274-0.024339 0.022263-0.03024l0.012398 6.547e-4q0.00507-5.715e-4 0.011727 0.00381l0.017483 0.00932 0.12816 0.080029-0.040399-0.16695q-0.00377-0.033465 0.024506-0.037681 0.012169-0.00137 0.020181 0.00593 0.00891 0.00618 0.010068 0.025565l0.0015 0.022424-0.0037 0.14933 0.12309-0.11966q0.011483-0.00746 0.02061-0.00848 0.014198-0.0016 0.024811 0.010553l0.00566 0.01374q0.00172 0.01521-0.017309 0.028654l-0.018123 0.012313-0.13366 0.071557 0.14624 0.039992 0.020411 0.00797 0.01557 0.010567q0.00677 0.0054 0.0078 0.014525 6.859e-4 0.00608-0.00256 0.01364z"/>
   <path d="m2.3065 0.4575q-0.00573 0.01297-0.021836 0.015812l-0.011383-7.6902e-4 -0.010599-0.00291-0.017711-0.011353-0.13007-0.078786 0.038107 0.14667 0.00342 0.021181q0.00557 0.031208-0.022477 0.037453-0.01521 0.00172-0.022553-0.00876-0.00824-0.00933-0.00972-0.022522l-3.77e-4 -0.021521 0.00269-0.14921-0.12219 0.11853q-0.010583 0.00633-0.022522 0.00972-0.012169 0.00137-0.022783-0.01078l-0.00566-0.013739q-0.00182-0.016225 0.016179-0.029553l0.019362-0.01039 0.13241-0.073472-0.16665-0.04796q-0.020181-0.00593-0.022354-0.025208-0.00274-0.024338 0.022263-0.030239l0.012398 6.5481e-4q0.00507-5.7151e-4 0.011726 0.00381l0.017483 0.00932 0.12816 0.080029-0.040394-0.16695q-0.00377-0.033465 0.024507-0.037681 0.012169-0.00137 0.020181 0.00593 0.00891 0.00618 0.010069 0.025566l0.0015 0.022424-0.0037 0.14933 0.12309-0.11966q0.011483-0.00746 0.02061-0.00848 0.014198-0.0016 0.02481 0.010553l0.00566 0.01374q0.00172 0.01521-0.017309 0.028654l-0.018123 0.012313-0.13366 0.071556 0.14624 0.039992 0.020411 0.00797 0.01557 0.010568q0.00677 0.0054 0.0078 0.014525 6.858e-4 0.00608-0.00256 0.01364z"/>
   <path d="m3.5447 2.3706q-0.00573 0.01297-0.021836 0.01581l-0.011382-7.691e-4 -0.010598-0.0029-0.017711-0.01135-0.13007-0.078782 0.038107 0.14667 0.00342 0.02118q0.00557 0.031211-0.022478 0.037451-0.01521 0.0016-0.022554-0.0087-0.00824-0.0093-0.00972-0.022521l-3.772e-4 -0.02153 0.00269-0.14921-0.12219 0.11853q-0.010583 0.0062-0.022523 0.0098-0.012168 0.0013-0.022782-0.01077l-0.00566-0.01377q-0.00184-0.01628 0.01617-0.029611l0.019367-0.0104 0.13241-0.073471-0.16665-0.047961q-0.020182-0.0059-0.022354-0.025211-0.00274-0.02434 0.022263-0.030241l0.012398 6.551e-4q0.00507-5.721e-4 0.011725 0.0038l0.017483 0.0093 0.12816 0.080032-0.040394-0.16695q-0.00377-0.033465 0.024506-0.037681 0.012169-0.00137 0.020181 0.00593 0.00891 0.00618 0.010068 0.025565l0.0015 0.022424-0.0037 0.14933 0.12309-0.11966q0.011483-0.0075 0.02061-0.0085 0.014197-0.0016 0.024811 0.01055l0.00566 0.01374q0.00172 0.01521-0.017309 0.028651l-0.018123 0.01231-0.13366 0.071561 0.14624 0.039991 0.020411 8e-3 0.01557 0.01057q0.00677 0.0054 0.0078 0.01452 6.859e-4 0.0061-0.00256 0.01364z"/>
   <path d="m3.7688 4.4849q-0.00573 0.01297-0.021836 0.01581l-0.011378-7.29e-4 -0.0106-3e-3 -0.017713-0.01136-0.13007-0.078781 0.038106 0.14667 0.00342 0.02118q0.00557 0.031211-0.022477 0.037451-0.01521 0.0017-0.022553-0.0087-0.00824-0.0093-0.00972-0.02252l-3.744e-4 -0.02152 0.00269-0.14921-0.12219 0.11853q-0.010583 0.0062-0.022528 0.0097-0.012168 0.0013-0.022783-0.01078l-0.00566-0.01374q-0.00182-0.01622 0.016179-0.029541l0.019362-0.01043 0.13241-0.073472-0.16665-0.047961q-0.020186-0.0059-0.022354-0.025211-0.00274-0.024341 0.022263-0.030231l0.012393 6.14e-4q0.00507-5.71e-4 0.011726 0.0039l0.017485 0.0093 0.12816 0.080021-0.040394-0.16695q-0.00377-0.033471 0.024506-0.037681 0.012168-0.0013 0.020187 0.0059 0.00891 0.0061 0.010068 0.02557l0.0015 0.022431-0.0037 0.14933 0.12309-0.11966q0.011485-0.0074 0.020612-0.0085 0.014197-0.0015 0.024812 0.01056l0.00566 0.01374q0.00172 0.01521-0.017309 0.028651l-0.018124 0.0123-0.13366 0.071561 0.14624 0.040001 0.02041 0.0079 0.01557 0.01057q0.00677 0.0054 0.0078 0.01452 6.835e-4 0.0061-0.00256 0.01365z"/>
   <path d="m3.993 6.5659q-0.00573 0.01297-0.021836 0.01581l-0.011378-7.3e-4 -0.010599-3e-3 -0.017713-0.01136-0.13007-0.078792 0.038106 0.14667 0.00342 0.02118q0.00557 0.031201-0.022477 0.037451-0.01521 0.0017-0.022553-0.0087-0.00824-0.0093-0.00972-0.02252l-3.744e-4 -0.02152 0.00268-0.14921-0.12219 0.11853q-0.010583 0.0062-0.022528 0.0097-0.012168 0.0013-0.022782-0.01078l-0.00566-0.01374q-0.00182-0.01622 0.016179-0.029541l0.019362-0.01044 0.13241-0.073471-0.16665-0.047961q-0.020187-0.0059-0.022353-0.025211-0.00274-0.02433 0.022264-0.030231l0.012393 6.16e-4q0.00507-5.72e-4 0.011726 0.0039l0.017485 0.0093 0.12816 0.080032-0.040394-0.16695q-0.00377-0.033471 0.024506-0.037681 0.012168-0.0013 0.020187 0.0059 0.00891 0.0061 0.010068 0.02557l0.0015 0.02242-0.0037 0.14933 0.12309-0.11966q0.011485-0.0074 0.020612-0.0085 0.014197-0.0015 0.024812 0.01056l0.00566 0.01374q0.00172 0.01521-0.017309 0.02865l-0.018124 0.01231-0.13366 0.071561 0.14624 0.039991 0.020411 0.0079 0.01557 0.01057q0.00677 0.0054 0.0078 0.01452 6.835e-4 0.0061-0.00256 0.01365z"/>
  </g>
  <g>
   <path d="m3.2512-1.7517q0.00652 0.057803 0.00313 0.12802-0.00194 0.055674-0.010713 0.13266-0.00276 0.030095-0.034875 0.036797-0.034479 0.00389-0.039281-0.038703-0.00434-0.038536 0.00296-0.11947 0.0073-0.080928 0.00284-0.12048-0.00137-0.012169-0.00385-0.015997l-0.00508-0.00866q-0.036508 0.00411-0.10073 0.081194-0.047914 0.057779-0.063949 0.10683-0.0074 0.025481-0.00845 0.070787 6.28e-5 0.036965-0.012077 0.056818-0.00787 0.012183-0.025108 0.014128-0.03752 0.00423-0.042095-0.036332l0.00612-0.1188q0.00306-0.054775-4.84e-4 -0.086212-0.0032-0.028396-0.00672-0.041349-0.00632-0.010583-0.012412-0.0099-0.033465 0.00377-0.099273 0.075895-0.059397 0.065236-0.06015 0.08586l-0.00645 0.12499q0.00141 0.030652-0.033633 0.038711-0.016225 0.00182-0.028867-0.010095-0.01264-0.011925-0.01447-0.028151l0.018308-0.32043q-0.00264-0.023324 0.032291-0.032398 0.038535-0.00434 0.042422 0.030133l-0.0034 0.060974q0.033404-0.040739 0.077078-0.072365 0.052229-0.037727 0.088736-0.041844 0.046648-0.00526 0.066235 0.050041l0.013385 0.054974q0.038002-0.054607 0.078291-0.088934 0.046929-0.039182 0.1027-0.045473 0.038536-0.00434 0.056262 0.016248 0.015812 0.021837 0.021303 0.070512z" opacity=".5"/>
   <path d="m3.6851-1.8571q-0.037233 0.17981-0.021793 0.31671 0.00343 0.030423-0.030591 0.038367-0.017239 0.00195-0.029882-0.00998-0.011512-0.011026-0.013458-0.028265-0.028891 0.044337-0.11408 0.053944-0.057803 0.00652-0.11004-0.028669-0.061149-0.041372-0.069612-0.11641-0.010521-0.093296 0.055631-0.16237 0.062439-0.065579 0.15776-0.07633 0.046647-0.00526 0.062102 0.00429 0.010941 0.00595 0.013 0.024208 0.0016 0.014198-0.00525 0.026266-0.00809 0.010151-0.032437 0.012896-0.074028 0.00835-0.12423 0.045846-0.060554 0.045855-0.052778 0.11481 0.00572 0.050703 0.041813 0.070255 0.025154 0.013595 0.057604 0.00994 0.063887-0.0072 0.11373-0.056987 0.010995-0.16658 0.027244-0.22284 0.011766-0.04138 0.037117-0.044239 0.032452-0.00367 0.038139 0.028563z" opacity=".5"/>
   <path d="m4.1047-1.9065q0.0032 0.028396-0.014137 0.038566-0.011483 0.00746-0.03785 0.010428-0.093296 0.010521-0.16698 0.085585-0.055355 0.055538-0.063964 0.097588l-0.00464 0.12274q-0.00108 0.026823-0.034547 0.030598-0.031436 0.00354-0.040396-0.030363l0.016722-0.31614q0.00141-0.033023 0.031834-0.036454 0.035493-4e-3 0.039839 0.034532l-0.00272 0.057816q0.049942-0.058008 0.096674-0.080738 0.059343-0.029286 0.13844-0.038207 0.038536-0.00434 0.041738 0.024049z" opacity=".5"/>
   <path d="m4.5293-1.6381q0.00148 0.013182-0.010324 0.026839-0.010683 0.014555-0.023865 0.016042-0.00507 5.709e-4 -0.11783-0.10687-0.12404-0.11644-0.13093-0.12284l-0.011689 0.22418q0.00285 0.025351-0.034091 0.034655-0.01521 0.00172-0.025481-0.0074-0.011169-0.00798-0.013114-0.025221l0.032807-0.61065q4.261e-4 -0.014425 0.00887-0.021539 0.00642-0.00688 0.024666-0.00894 0.012169-0.00137 0.024468 0.00751 0.013312 0.00877 0.015699 0.020823l-0.017879 0.29675q0.052915-0.031642 0.14162-0.091968 0.023865-0.016042 0.041776-0.021143 0.012168-0.00137 0.023796 0.010667 0.011512 0.011026 0.013 0.024209 0.00593 0.043491-0.16128 0.12705 0.042882 0.03419 0.066921 0.056125 0.02404 0.021936 0.071563 0.069979 0.078908 0.080448 0.081308 0.10174z" opacity=".5"/>
   <path d="m4.9439-2.2877-0.032122 0.61673q-0.00131 0.024795-0.035791 0.028684-0.032451 0.00367-0.036797-0.034875l0.00108-0.026822-0.047387 0.035127q-0.048401 0.035241-0.10722 0.041874-0.036508 0.00411-0.075986-0.018132-0.055949-0.031689-0.063726-0.10064-0.00972-0.086197 0.049089-0.16575 0.068363-0.095002 0.19614-0.10941l0.023323-0.00264q0.00709-8.002e-4 0.019495-1.456e-4l0.023782 0.00143 0.013657-0.26136q-0.00274-0.024338 0.035334-0.032741 0.016225-0.00182 0.028867 0.010095 0.00711 0.00844 0.00825 0.01858zm-0.090048 0.33982q-0.00677-0.0054-0.067614 0.00146-0.08924 0.010064-0.135 0.077871-0.038002 0.054607-0.030567 0.12053 0.00332 0.029409 0.026098 0.040189 0.016469 0.00945 0.034723 0.00738 0.041578-0.00469 0.097979-0.04186 0.037263-0.024741 0.064825-0.053524z" opacity=".5"/>
   <path d="m5.3968-1.9321q0.010635 0.094309-0.043118 0.16405-0.053754 0.069733-0.1582 0.081514-0.078083 0.0088-0.12674-0.040137-0.041768-0.04253-0.05023-0.11757-0.0087-0.077071 0.041579-0.14127 0.057353-0.074247 0.15977-0.085799 0.077071-0.0087 0.12752 0.037995 0.042552 0.040387 0.049415 0.10123zm-0.067585 0.019946q-0.00423-0.03752-0.029744-0.0634-0.031154-0.030377-0.085915-0.024201-0.057803 0.00652-0.094578 0.053798-0.032275 0.041639-0.026899 0.0893 0.012007 0.10648 0.10936 0.095499 0.058815-0.00663 0.095821-0.051885 0.038016-0.045366 0.031956-0.099112z" opacity=".5"/>
   <path d="m6.106-2.1271q-0.078153 0.17211-0.14436 0.27713-0.056652 0.089575-0.084032 0.092663-0.037521 0.00423-0.10382-0.21936-0.032818 0.055049-0.095223 0.13911-0.081074 0.10979-0.10744 0.11276-0.02231 0.00252-0.080012-0.13578-0.056804-0.13943-0.064237-0.20534-0.00411-0.036507 0.032391-0.040625 0.033465-0.00377 0.052411 0.073167 0.029393 0.12403 0.073347 0.19507 0.073906-0.082278 0.11829-0.16225 0.052024-0.094187 0.075348-0.096818 0.030423-0.00343 0.064954 0.09332 0.019603 0.064543 0.041119 0.12784l0.023835-0.034525q0.024849-0.034639 0.059793-0.098143 0.048654-0.087645 0.076156-0.15339z" opacity=".5"/>
   <path d="m6.5391-2.0753q0.00559 0.04969-5.041e-4 0.10481-0.0021 0.017696-0.00825 0.054334-0.00513 0.036522-0.011849 0.058847-0.00907 0.028752-0.027335 0.030811-0.040564 0.00457-0.044681-0.031933 0.010605-0.060761 0.015372-0.10956 0.00621-0.063346 0.00106-0.10898-0.00583-0.051718-0.031185-0.04886-0.029409 0.00332-0.10819 0.069711-0.079792 0.066509-0.08099 0.09232l-0.0071 0.13739q-0.00187 0.028965-0.034318 0.032626-0.03448 0.00389-0.038368-0.030591l0.017149-0.33057q8.521e-4 -0.028852 0.036347-0.032855 0.012168-0.00137 0.024811 0.010553 0.00891 0.00618 0.010282 0.018352l4.571e-4 0.00405-0.00258 0.068073q0.11679-0.11176 0.20502-0.12171 0.025352-0.00285 0.050994 0.033274 0.026542 0.035005 0.033861 0.099907z" opacity=".5"/>
   <path d="m7.4841-2.5741-0.032121 0.61673q-0.00131 0.024795-0.03579 0.028684-0.032452 0.00367-0.036797-0.034875l0.00108-0.026824-0.047387 0.035127q-0.048402 0.035241-0.10722 0.041874-0.036507 0.00411-0.075986-0.018132-0.05595-0.031689-0.063726-0.10064-0.00972-0.086197 0.049088-0.16575 0.068362-0.095002 0.19614-0.10941l0.023324-0.00264q0.00709-8.001e-4 0.019495-1.456e-4l0.02378 0.00143 0.013657-0.26136q-0.00274-0.024338 0.035333-0.032741 0.016225-0.00182 0.028867 0.010095 0.00711 0.00844 0.00825 0.01858zm-0.090048 0.33982q-0.00677-0.0054-0.067614 0.00146-0.089239 0.010064-0.135 0.07787-0.038002 0.054607-0.030569 0.12053 0.00332 0.029408 0.026099 0.040189 0.016469 0.00945 0.034723 0.00738 0.041578-0.00469 0.097978-0.041859 0.037262-0.024742 0.064825-0.053524z" opacity=".5"/>
   <path d="m7.9371-2.2186q0.010635 0.094309-0.043118 0.16405-0.053754 0.069733-0.1582 0.081514-0.078085 0.0088-0.12674-0.040137-0.041769-0.04253-0.05023-0.11757-0.0087-0.077071 0.041579-0.14127 0.057353-0.074248 0.15977-0.085799 0.077071-0.0087 0.12752 0.037995 0.042553 0.040387 0.049416 0.10123zm-0.067585 0.019945q-0.00423-0.037521-0.029744-0.0634-0.031154-0.030377-0.085915-0.024202-0.057803 0.00652-0.094578 0.053799-0.032274 0.041638-0.0269 0.0893 0.012008 0.10648 0.10936 0.095499 0.058816-0.00663 0.095821-0.051885 0.038016-0.045366 0.031956-0.099111z" opacity=".5"/>
   <path d="m8.3366-2.3735q0.00182 0.016225-0.00728 0.026495-0.00877 0.013312-0.024994 0.015143l-0.033595-0.00648q-0.032351-0.00456-0.059731-0.00147-0.078084 0.0088-0.13004 0.076284-0.046557 0.060707-0.039924 0.11952 0.0032 0.028396 0.024642 0.04549 0.021325 0.01608 0.053777 0.01242 0.049691-0.00559 0.084024-0.028988l0.076552-0.049711q0.034479-0.00389 0.038481 0.031604 0.00411 0.036508-0.07425 0.079236-0.067897 0.035386-0.11252 0.040418-0.061859 0.00698-0.10868-0.025742-0.046824-0.032718-0.0538-0.094578-0.010407-0.092281 0.048288-0.17284 0.067692-0.091846 0.18939-0.10557 0.047662-0.00537 0.087127 0.00764 0.040365 0.011879 0.042538 0.031148z" opacity=".5"/>
   <path d="m8.7559-2.4433-0.01971 0.14395q-0.00869 0.059517-0.00412 0.10008l0.00229 0.020282q5.717e-4 0.00507 0.00489 0.025123l0.00841 0.038078q0.00411 0.036507-0.03239 0.040624-0.02738 0.00308-0.039367-0.021234-0.00159-0.00495-0.012699-0.04889-0.017094 0.02144-0.063141 0.050254-0.045147 0.027684-0.085709 0.03226-0.058816 0.00663-0.0945-0.036584-0.032069-0.038489-0.038931-0.099336-0.00754-0.066928 0.013269-0.15554 0.021159-0.085572 0.050568-0.088889 0.01521-0.00172 0.02661 0.00829 0.012183 0.00787 0.01447 0.02815-0.012765 0.050734-0.024157 0.11364-0.011392 0.062903-0.00807 0.092312 0.00343 0.030423 0.019014 0.050231 0.018283 0.016423 0.037551 0.01425 0.036507-0.00411 0.085466-0.043529 0.042431-0.033541 0.063795-0.062652l0.024575-0.20097q-0.00251-0.022309 0.029934-0.025969 0.017239-0.00195 0.029081 0.00288 0.010936 0.00595 0.012881 0.023194z" opacity=".5"/>
   <path d="m9.4052-2.4457q0.0065 0.057803 0.0031 0.12802-2e-3 0.055679-0.01071 0.13266-0.0028 0.030093-0.034881 0.036797-0.034481 0.00389-0.039281-0.038702-0.0043-0.038535 0.0029-0.11947 0.0072-0.080929 0.0028-0.12048-0.0013-0.012168-0.0038-0.016001l-0.0051-0.00866q-0.036511 0.00411-0.10073 0.081194-0.047921 0.057779-0.063951 0.10683-0.0073 0.025482-0.0085 0.070787 4.2e-5 0.036967-0.01207 0.056818-8e-3 0.012185-0.025111 0.014127-0.037523 0.00423-0.042097-0.036332l0.00612-0.1188q0.0031-0.054777-4.637e-4 -0.086214-0.0032-0.028394-0.00668-0.041353-0.00632-0.010583-0.012417-0.0099-0.033469 0.00377-0.099273 0.075896-0.059395 0.065236-0.060147 0.085859l-0.00645 0.12499q0.00145 0.030647-0.033635 0.038711-0.016227 0.00182-0.028864-0.010095-0.012635-0.011925-0.014466-0.028152l0.018217-0.32043q-0.00264-0.023324 0.032294-0.032399 0.038537-0.00434 0.042424 0.030133l-0.00341 0.060976q0.033406-0.040739 0.077078-0.072364 0.052232-0.037727 0.088731-0.041844 0.046645-0.00526 0.066235 0.050041l0.01335 0.054979q0.038001-0.054607 0.078292-0.088934 0.046931-0.039182 0.1027-0.045473 0.038541-0.00434 0.056261 0.016247 0.01581 0.021836 0.021301 0.070512z" opacity=".5"/>
   <path d="m9.8378-2.2952q0.0042 0.037521-0.085642 0.078466-0.074331 0.033031-0.12401 0.038634-0.15921 0.017955-0.17488-0.12098-0.01007-0.089239 0.042551-0.16912 0.059451-0.091945 0.16087-0.10338 0.064891-0.00732 0.10742 0.014587 0.042521 0.021906 0.046291 0.055371 0.0069 0.060844-0.10583 0.1362-0.094562 0.06304-0.13107 0.067157-0.028391 0.0032-0.032271-0.031277-0.0012-0.011155 0.1003-0.066768 0.10246-0.056741 0.099132-0.086151-0.0013-0.012168-0.01874-0.02048-0.01905-0.00504-0.057591-6.906e-4 -0.076061 0.00857-0.11462 0.067355-0.034961 0.054265-0.02673 0.12728 4e-3 0.035493 0.02645 0.052473 0.02246 0.016979 0.067081 0.011947 0.050701-0.00572 0.092032-0.030919l0.092202-0.056612q0.032461-0.00367 0.037021 0.036904z" opacity=".5"/>
   <path d="m10.242-2.4929q0.0056 0.04969-5.09e-4 0.10481-0.0021 0.017698-0.0082 0.054334-0.0052 0.036524-0.01185 0.058847-0.0091 0.028754-0.02735 0.030812-0.04055 0.00457-0.04468-0.031933 0.01061-0.060761 0.01538-0.10956 0.0062-0.063346 0.0011-0.10898-0.0058-0.051718-0.03118-0.04886-0.02941 0.00332-0.10819 0.069712-0.079792 0.066509-0.080992 0.09232l-7e-3 0.13738q-0.0019 0.028966-0.034321 0.032627-0.034481 0.00389-0.038371-0.030591l0.01715-0.33057q8.72e-4 -0.028855 0.036351-0.032855 0.01218-0.00137 0.0248 0.010553 9e-3 0.00618 0.01032 0.018347l4.57e-4 0.00405-0.0026 0.068071q0.11679-0.11176 0.20502-0.12171 0.02535-0.00285 0.05099 0.033273 0.02654 0.035005 0.03385 0.099907z" opacity=".5"/>
   <path d="m10.613-2.6507q0.0016 0.01521-0.0063 0.02537-9e-3 0.012297-0.02387 0.016042l-0.10646 0.021244-0.0143 0.283q-2e-3 0.026939-0.03713 0.034998-0.03246 0.00367-0.03612-0.028792l0.0142-0.27478-0.0943 0.019874q-0.01217 0.00137-0.02459-0.00852-0.01105-0.00696-0.01469-0.020937-0.0021-0.018254 0.0051-0.0283 0.0081-0.011171 0.02307-0.013899l0.10962-0.020574 0.0053-0.15361q0.0019-0.028966 0.03331-0.032512 0.01217-0.00137 0.02537 0.00639 0.01139 0.010011 0.01323 0.026236l-5e-3 0.13716 0.09543-0.018973q0.01117-0.00126 0.02322 0.00559 0.01117 0.00798 0.01515 0.024993z" opacity=".5"/>
   <path d="m10.936-2.6687q2e-3 0.017239-0.0059 0.030439-0.0095 0.015454-0.02476 0.01717-0.0071 7.957e-4 -0.04836-0.00995-0.04037-0.011879-0.06774-0.00879-0.04563 0.00515-0.04535 0.034898 0.0027 0.023325 0.05483 0.040031 0.08738 0.028144 0.09719 0.033199 0.05322 0.025832 0.05849 0.07248 0.0081 0.072-0.0369 0.10994-0.03186 0.027213-0.08357 0.033045-0.08214 0.00926-0.11811-3.05e-5 -0.03597-0.00929-0.03848-0.031604-4e-3 -0.035493 0.02574-0.045009l0.05546 0.00916q0.02198 0.00369 0.05342 1.341e-4 0.07505-0.00847 0.06944-0.058153-0.0027-0.023324-0.05416-0.043186-0.091-0.032872-0.09653-0.036355-0.05346-0.027862-0.05838-0.071467-0.0056-0.04969 0.03604-0.081088 0.03422-0.024398 0.08797-0.03046 0.03651-0.00411 0.07833 0.00246 0.05839 0.00779 0.06125 0.033144z" opacity=".5"/>
   <path d="m3.4095 0.10206q0.00537 0.047663 0.00408 0.15461l-0.00216 0.26314q-0.00126 0.12543-0.00687 0.21233-0.00231 0.03415-0.042301 0.043796-0.013182 0.00148-0.023453-0.00763-0.012183-0.00787-0.014357-0.027136l0.00615-0.17322 0.00403-0.14629-0.32984 0.080331-0.031798 0.26443q-0.0059 0.047905-0.042401 0.052022-0.032451 0.00367-0.036797-0.034876-0.00217-0.019267 0.00995-0.12128l0.026574-0.21969q0.013673-0.11553 0.012743-0.26948-0.00457-0.040564 0.040045-0.045595 0.013182-0.00148 0.023567 0.00864 0.011399 0.010011 0.013686 0.030293 0.00652 0.057803-9.852e-4 0.15518l-0.00727 0.099411 0.32072-0.079303 0.00564-0.068416q0.00474-0.067288-0.00578-0.16059-0.00195-0.017239 0.00772-0.031681 0.010567-0.01557 0.027807-0.017513 0.014082-0.0026101 0.02751 0.0071701 0.011285 0.0089902 0.013801 0.031307z" opacity=".5"/>
   <path d="m4.0267 0.03043q0.00423 0.03752-0.040145 0.053821-0.014868 0.0047601-0.07424 0.015558-0.054417 0.0092202-0.12946 0.017678l0.00305 0.072571q0.00261 0.077756-0.00339 0.19756-0.00591 0.11158-0.01345 0.18124-4e-3 0.037422-0.013443 0.11757-0.00188 0.019724-0.012237 0.028082-0.013283 0.00971-0.030523 0.011654-0.012168 0.00137-0.022782-0.01078-0.00869-0.013397-0.010412-0.028608 0.00812-0.07383 0.016447-0.20931 0.00922-0.15508 0.00936-0.34509-0.096338 0.010864-0.12732 0.018464l-0.078968 0.019176q-0.020282 0.00229-0.031796-0.00873-0.011512-0.011026-0.012657-0.021166l-2.286e-4 -0.00203q-0.00137-0.012169 0.00615-0.027396 0.00967-0.014441 0.027808-0.017513l0.49785-0.093117q0.014082-0.0026101 0.026266 0.0052501 0.010265 0.0091202 0.014128 0.025108z" opacity=".5"/>
   <path d="m4.9512 0.55978q0.0016 0.014198-0.0092 0.027739-0.010797 0.013541-0.024995 0.015142-0.025352 0.00285-0.03948-0.022249-0.057524-0.10032-0.10226-0.23289-0.020616-0.064428-0.040249-0.14745-0.016686-0.075142-0.024691-0.14613-0.047654 0.07829-0.09099 0.17663l-0.063217 0.14063q-0.02369 0.05402-0.030561 0.056849-0.033465 0.00377-0.08558-0.094074-0.042956-0.080394-0.087362-0.21916l-0.045139 0.1006q-0.039298 0.088644-0.068668 0.18335-0.041594 0.13204-0.056049 0.24972-0.0021 0.017696-0.01168 0.02391-0.00844 0.00711-0.025682 0.00906-0.011155 0.00126-0.026381-0.00626-0.010036-0.00708-0.014013-0.024094-0.00778-0.068957 0.056478-0.26414 0.051133-0.15673 0.099753-0.26286 0.070971-0.15384 0.11153-0.15841 0.019266-0.00217 0.063475 0.15305 0.030148 0.1034 0.069359 0.16881 0.057346-0.14717 0.14302-0.27082 0.073304-0.10583 0.10169-0.10903 0.022309-0.00251 0.039007 0.14554 0.013037 0.11561 0.053814 0.24041 0.029675 0.090108 0.070961 0.18301z" opacity=".5"/>
   <path d="m5.549 0.42463q0.00343 0.030423-0.026077 0.041967-0.22255 0.084663-0.327 0.096441-0.095324 0.01075-0.13784-0.00191-0.042507-0.012665-0.047311-0.055256-0.012924-0.1146 0.00921-0.29168 0.022347-0.1843 0.061045-0.29649 0.00167-0.012511 0.011124-0.01974 0.010467-0.00733 0.024437-0.010967 0.015326-7.0182e-4 0.028409 0.00604 0.010151 0.0080902 0.01221 0.026352l-0.022139 0.10417q-0.029293 0.14092-0.038986 0.20979-0.01927 0.13876-0.00967 0.22395 0.00285 0.025352 0.015829 0.031079 0.012969 0.00573 0.061645 2.333e-4 0.062873-0.00709 0.15298-0.036765l0.18935-0.060375q0.038535-0.00434 0.042765 0.033175z" opacity=".5"/>
   <path d="m6.4687 0.074455q-0.037233 0.17981-0.021793 0.31671 0.00343 0.030423-0.030591 0.038368-0.017239 0.00195-0.029882-0.00998-0.011512-0.011026-0.013458-0.028265-0.028891 0.044338-0.11408 0.053944-0.057803 0.00652-0.11004-0.02867-0.061149-0.041372-0.069612-0.11641-0.010521-0.093296 0.055631-0.16237 0.062439-0.065579 0.15776-0.07633 0.046647-0.0052601 0.062103 0.0042901 0.010941 0.0059501 0.013 0.024208 0.0016 0.014197-0.00525 0.026266-0.00809 0.010151-0.032437 0.012896-0.074028 0.00835-0.12423 0.045846-0.060554 0.045854-0.052778 0.11481 0.00572 0.050703 0.041813 0.070254 0.025155 0.013595 0.057604 0.00994 0.063886-0.0072 0.11373-0.056987 0.010995-0.16658 0.027246-0.22284 0.011766-0.04138 0.037117-0.044239 0.032451-0.0036701 0.038139 0.028562z" opacity=".5"/>
   <path d="m6.9022 0.12922q0.00559 0.04969-5.041e-4 0.10481-0.0021 0.017696-0.00825 0.054334-0.00513 0.036522-0.011849 0.058847-0.00907 0.028753-0.027336 0.030811-0.040563 0.00457-0.044681-0.031934 0.010605-0.06076 0.015372-0.10956 0.00621-0.063346 0.00106-0.10898-0.00583-0.051718-0.031185-0.04886-0.029408 0.0033201-0.10819 0.069711-0.079792 0.066509-0.080989 0.092319l-0.0071 0.13739q-0.00187 0.028966-0.034319 0.032626-0.034479 0.00389-0.038368-0.030591l0.017149-0.33057q8.522e-4 -0.028852 0.036347-0.032855 0.012168-0.00137 0.024811 0.010553 0.00891 0.0061801 0.010282 0.018352l4.573e-4 0.0040501-0.00258 0.068073q0.11679-0.11176 0.20502-0.12171 0.025352-0.0028501 0.050994 0.033274 0.026542 0.035004 0.033861 0.099907z" opacity=".5"/>
   <path d="m7.3402-0.31245-0.032122 0.61673q-0.00131 0.024796-0.03579 0.028684-0.032451 0.00367-0.036797-0.034877l0.00108-0.026824-0.047388 0.035127q-0.048401 0.03524-0.10722 0.041874-0.036507 0.00411-0.075986-0.018132-0.055949-0.031689-0.063726-0.10064-0.0097202-0.086197 0.049089-0.16575 0.068364-0.095003 0.19614-0.10941l0.023323-0.0026401q0.00709-8.0011e-4 0.019495-1.455e-4l0.023781 0.00143 0.013657-0.26136q-0.00274-0.024338 0.035333-0.032741 0.016225-0.00182 0.028867 0.010095 0.00711 0.00844 0.00825 0.01858zm-0.090048 0.33982q-0.00677-0.0054001-0.067614 0.00146-0.089239 0.010064-0.135 0.077871-0.038002 0.054607-0.030569 0.12053 0.00332 0.029409 0.026098 0.040189 0.016469 0.00945 0.034723 0.00738 0.041578-0.00469 0.097979-0.04186 0.037262-0.024742 0.064825-0.053525z" opacity=".5"/>
   <path d="m8.5122 0.090456q0.00343 0.030423-0.026077 0.041967-0.22255 0.084662-0.327 0.096442-0.095324 0.01075-0.13784-0.00191-0.042507-0.012665-0.047311-0.055256-0.012924-0.1146 0.00921-0.29168 0.022349-0.1843 0.061045-0.29649 0.00167-0.012511 0.011124-0.01974 0.010467-0.00733 0.024436-0.010967 0.015325-7.0182e-4 0.028409 0.00604 0.010151 0.00809 0.01221 0.026352l-0.022142 0.10417q-0.029294 0.14092-0.038986 0.20979-0.01927 0.13876-0.00967 0.22395 0.00285 0.025352 0.015829 0.031079 0.01297 0.00573 0.061645 2.3341e-4 0.062873-0.00709 0.15298-0.036765l0.18934-0.060378q0.038536-0.0043401 0.042767 0.033175z" opacity=".5"/>
   <path d="m8.9249-0.20254q-0.037233 0.17981-0.021793 0.31671 0.00343 0.030423-0.030591 0.038368-0.017239 0.00195-0.029882-0.00998-0.011513-0.011026-0.013458-0.028264-0.028891 0.044337-0.11408 0.053944-0.057803 0.00652-0.11004-0.02867-0.061149-0.041373-0.069612-0.11641-0.010521-0.093296 0.055631-0.16237 0.062439-0.065579 0.15776-0.07633 0.046647-0.00526 0.062103 0.00429 0.010941 0.00595 0.013 0.024208 0.0016 0.014197-0.00525 0.026266-0.00809 0.010151-0.032437 0.012897-0.074029 0.00835-0.12423 0.045846-0.060554 0.045855-0.052779 0.11481 0.00572 0.050703 0.041814 0.070254 0.025154 0.013595 0.057604 0.0099402 0.063886-0.0072002 0.11373-0.056987 0.010995-0.16658 0.027246-0.22284 0.011766-0.04138 0.037117-0.044238 0.032451-0.00367 0.038139 0.028563z" opacity=".5"/>
   <path d="m9.507-0.58761q0.0042 0.037521-0.040141 0.053821-0.01486 0.00476-0.074241 0.015558-0.054421 0.00922-0.12946 0.017678l3e-3 0.072571q0.0027 0.077754-0.0034 0.19756-0.0059 0.11158-0.01346 0.18124-0.0041 0.037427-0.01344 0.11757-0.0019 0.019726-0.01224 0.028082-0.01329 0.0097102-0.030511 0.011653-0.01218 0.00137-0.02278-0.01078-0.0086-0.013401-0.01038-0.028613 0.0082-0.073829 0.01645-0.20931 0.0092-0.15508 0.0093-0.34509-0.096342 0.010865-0.12732 0.018464l-0.078969 0.019176q-0.020282 0.00229-0.031791-0.00873-0.011517-0.011025-0.012662-0.021166l-2.287e-4 -0.00203q-0.00137-0.012169 0.00617-0.027396 0.00966-0.014441 0.027804-0.017513l0.49785-0.093116q0.01408-0.00261 0.02627 0.00525 0.01028 0.00912 0.01413 0.025108z" opacity=".5"/>
   <path d="m9.9805-0.065869q0.0042 0.03752-0.085642 0.078466-0.074332 0.033031-0.12401 0.038634-0.15921 0.017955-0.17488-0.12098-0.01007-0.089239 0.042551-0.16912 0.059451-0.091946 0.16087-0.10338 0.064891-0.00732 0.10742 0.014587 0.042521 0.021906 0.046291 0.055371 0.0069 0.060844-0.10582 0.1362-0.094562 0.063041-0.13107 0.067157-0.028391 0.0032001-0.032271-0.031278-0.0012-0.011155 0.1003-0.066768 0.10246-0.056741 0.099132-0.086151-0.0013-0.012168-0.01874-0.020479-0.01905-0.00504-0.057591-6.9061e-4 -0.076062 0.00857-0.11462 0.067355-0.034961 0.054265-0.02673 0.12728 4e-3 0.035493 0.02645 0.052473 0.022461 0.016979 0.067081 0.011947 0.050711-0.0057201 0.092032-0.030919l0.092202-0.056612q0.032461-0.00367 0.037021 0.036903z" opacity=".5"/>
   <path d="m10.51-0.68218q0.0017 0.015211-0.07758 0.10426-0.07289 0.082163-0.15308 0.18158l0.05173 0.076322 0.0931 0.14252q0.04611 0.071823 0.05142 0.091762 0.0044 0.039549-0.03271 0.046823-0.02534 0.00285-0.05789-0.048928-0.12632-0.20039-0.15558-0.24125-0.07331 0.10583-0.10755 0.18466l-0.05008 0.11143q-0.01729 0.037895-0.03555 0.039953-0.02028 0.00229-0.03472-0.0073801-0.01444-0.0096702-0.01628-0.025894-3e-3 -0.026367 0.060951-0.15168 0.0656-0.12858 0.13489-0.21548-0.06066-0.091749-0.12844-0.18269-0.02666-0.03602-0.02882-0.055287-0.0014-0.013182 0.0093-0.026724 0.01115-0.010495 0.02815-0.01447 0.02332-0.00264 0.06559 0.062438 0.06214 0.095692 0.10562 0.15343l0.17046-0.20922q0.04161-0.049879 0.0575-0.054752 0.02028-0.00229 0.03371 0.0075 0.01331 0.00877 0.01583 0.031078z" opacity=".5"/>
   <path d="m4.5576 2.0726q0.00367 0.032451-0.035433 0.040968l-0.082072-0.017447q-0.044193-0.00939-0.084756-0.00482-0.053746 0.00606-0.089994 0.030689-0.045931 0.029828-0.040442 0.078504 0.0048 0.042591 0.084634 0.067481 0.12573 0.040251 0.14975 0.052941 0.084602 0.049001 0.095124 0.14229 0.013152 0.11662-0.064841 0.18087-0.063924 0.052391-0.1704 0.064411-0.063886 0.0072-0.13187-0.01286-0.076558-0.0232-0.081478-0.066811-0.0016-0.01419 0.00728-0.02649 0.0099-0.01241 0.024094-0.01401 0.00101-1.13e-4 0.062133 0.022771 0.062133 0.02277 0.11486 0.01684 0.075041-0.0084 0.11837-0.043131 0.051886-0.040761 0.043995-0.11074-0.0087-0.077071-0.088522-0.10196l-0.14883-0.044853q-0.082102-0.035931-0.091823-0.12212-0.00857-0.076056 0.052976-0.13127 0.055028-0.049338 0.14426-0.059402 0.063887-0.0072 0.1375 0.00811 0.071472 0.014533 0.075475 0.050026z" opacity=".5"/>
   <path d="m5.0079 2.2776-0.01971 0.14395q-0.00869 0.059521-0.00412 0.10008l0.00229 0.02028q5.715e-4 0.0051 0.00489 0.02512l0.00841 0.038081q0.00411 0.036511-0.032391 0.040631-0.02738 0.0031-0.039367-0.021231-0.00159-5e-3 -0.012698-0.048891-0.017094 0.02144-0.06314 0.050251-0.045146 0.02769-0.085709 0.032251-0.058816 0.0067-0.0945-0.036591-0.032069-0.038481-0.038931-0.099332-0.00754-0.066921 0.013269-0.15554 0.021159-0.085572 0.050567-0.088892 0.01521-0.0017 0.02661 0.0083 0.012183 0.0079 0.01447 0.02815-0.012765 0.050731-0.024157 0.11364-0.011392 0.062901-0.00807 0.092322 0.00343 0.030431 0.019014 0.050231 0.018283 0.01643 0.037552 0.01424 0.036507-0.0041 0.085466-0.043521 0.042431-0.033541 0.063795-0.062651l0.024576-0.20097q-0.00251-0.02231 0.029935-0.025971 0.017239-2e-3 0.029081 0.0029 0.010941 6e-3 0.012886 0.02319z" opacity=".5"/>
   <path d="m5.4578 2.3326q0.00995 0.088222-0.071839 0.17345-0.078191 0.080702-0.16844 0.090882-0.011155 0.0012-0.02154-0.0088-0.011285-0.0091-0.01277-0.02218-0.00411-0.036511 0.026306-0.039941 0.075042-0.0084 0.13094-0.077411 0.049599-0.061051 0.043423-0.11581-0.00641-0.056791-0.050009-0.051871-0.032452 0.0037-0.10046 0.038031-0.073639 0.039111-0.07495 0.063911l-0.028116 0.51563q-0.00209 0.026941-0.040633 0.031271-0.013182 0.0014-0.023912-0.01169-0.00948-0.01126-0.011196-0.026461l0.036503-0.62338q0.00221-0.02592 0.00941-0.034951 0.00809-0.01015 0.029395-0.01255 0.032451-0.0037 0.033397 0.02294l0.00175 0.033691q0.074738-0.056701 0.14572-0.064701 0.048675-0.0055 0.083528 0.01215 0.054477 0.027751 0.063512 0.10786z" opacity=".5"/>
   <path d="m5.8958 2.2832q0.00995 0.088222-0.071839 0.17345-0.07819 0.080702-0.16844 0.090882-0.011155 0.0012-0.021539-0.0088-0.011285-0.0091-0.01277-0.022181-0.00411-0.036511 0.026306-0.039941 0.075041-0.0084 0.13094-0.077411 0.049599-0.061051 0.043423-0.11581-0.00641-0.056791-0.050009-0.051871-0.032452 0.0037-0.10046 0.038031-0.073639 0.039111-0.07495 0.063911l-0.028119 0.5156q-0.00209 0.02694-0.040633 0.031271-0.013182 0.0014-0.023912-0.01169-0.00948-0.01126-0.011197-0.026461l0.036503-0.62338q0.00221-0.025921 0.00941-0.034951 0.00809-0.01015 0.029395-0.01255 0.032452-0.0037 0.033397 0.02294l0.00175 0.033691q0.074737-0.056691 0.14572-0.064701 0.048675-0.0055 0.083528 0.01215 0.054477 0.02775 0.063512 0.10785z" opacity=".5"/>
   <path d="m6.3065 2.2636q0.010635 0.094312-0.043118 0.16405-0.053754 0.069731-0.15821 0.081502-0.078086 0.0089-0.12674-0.040141-0.041769-0.042531-0.05023-0.11757-0.0087-0.077072 0.041579-0.14127 0.057353-0.074247 0.15977-0.085799 0.07707-0.0087 0.12752 0.037995 0.042554 0.040391 0.049416 0.10123zm-0.067585 0.01995q-0.00423-0.037521-0.029744-0.063401-0.031154-0.030381-0.085914-0.024201-0.057803 0.0065-0.094578 0.053801-0.032276 0.041641-0.026899 0.089302 0.012007 0.10648 0.10936 0.095502 0.058817-0.0067 0.095821-0.051881 0.038016-0.045371 0.031956-0.099112z" opacity=".5"/>
   <path d="m6.7129 2.0976q0.0032 0.028393-0.014137 0.038565-0.011483 0.00746-0.03785 0.010427-0.093296 0.01052-0.16698 0.085582-0.055355 0.055541-0.063964 0.097592l-0.00464 0.12274q-0.00108 0.02683-0.034547 0.030601-0.031437 0.0035-0.040396-0.030371l0.016722-0.31614q0.00141-0.033023 0.031834-0.036454 0.035493-4e-3 0.039839 0.034533l-0.00272 0.057817q0.049942-0.058009 0.096674-0.080739 0.059343-0.029286 0.13844-0.038208 0.038536-0.00434 0.041738 0.024049z" opacity=".5"/>
   <path d="m7.0951 2.0442q0.00172 0.01521-0.00639 0.025367-0.00889 0.012298-0.023864 0.016042l-0.10646 0.021244-0.014298 0.283q-0.00209 0.026941-0.037133 0.035001-0.032451 0.0036-0.03611-0.028791l0.014198-0.27478-0.094295 0.019873q-0.012169 0.00137-0.024582-0.00852-0.011055-0.00696-0.014684-0.020938-0.00206-0.018253 0.00502-0.028294 0.00798-0.011169 0.02308-0.013899l0.10962-0.020574 0.00527-0.15361q0.00187-0.028966 0.033305-0.032512 0.012168-0.00137 0.025367 0.00639 0.011399 0.010011 0.013229 0.026236l-0.00507 0.13716 0.095423-0.018973q0.011155-0.00126 0.023224 0.00559 0.011169 0.00798 0.015142 0.024994z" opacity=".5"/>
   <path d="m7.9986 1.6784q0.00182 0.016225-0.00604 0.028409-0.00889 0.012298-0.02815 0.01447-0.074028 0.00835-0.10952 0.085267-0.021449 0.046579-0.027626 0.12841l0.092381-0.01863q0.041578-0.00469 0.045238 0.027763 0.00298 0.026367-0.025963 0.042981-0.03345 0.013011-0.11559 0.022274l-0.015312 0.28312q3.9e-4 0.030771-0.039161 0.035231-0.029409 0.0033-0.034212-0.039271l0.015343-0.26463-0.067143 0.014758q-0.037521 0.00423-0.041295-0.029234-0.00377-0.033465 0.037004-0.045252l0.076383-0.014772q0.00209-0.099852 0.03589-0.1735 0.051994-0.11267 0.16557-0.12548 0.034479-0.00389 0.042194 0.028106z" opacity=".5"/>
   <path d="m8.3488 2.0332q0.010635 0.094308-0.043118 0.16405-0.053754 0.069731-0.1582 0.081512-0.078085 0.0088-0.12674-0.040141-0.041768-0.042531-0.05023-0.11757-0.0087-0.077071 0.041579-0.14127 0.057352-0.074247 0.15977-0.085799 0.07707-0.0087 0.12752 0.037995 0.042553 0.040387 0.049415 0.10123zm-0.067585 0.019946q-0.00423-0.03752-0.029744-0.063399-0.031154-0.030377-0.085915-0.024201-0.057803 0.00652-0.094578 0.053799-0.032275 0.041639-0.0269 0.0893 0.012008 0.10648 0.10936 0.095499 0.058815-0.0066 0.095821-0.051881 0.038016-0.045365 0.031955-0.09911z" opacity=".5"/>
   <path d="m8.7553 1.8672q0.0032 0.028394-0.014137 0.038565-0.011483 0.00746-0.03785 0.010428-0.093296 0.010521-0.16698 0.085586-0.055355 0.055538-0.063964 0.097588l-0.00464 0.12274q-0.00108 0.02682-0.034547 0.030601-0.031436 0.0035-0.040396-0.030361l0.016722-0.31614q0.00141-0.033023 0.031834-0.036454 0.035493-4e-3 0.039839 0.034532l-0.00272 0.057816q0.049942-0.058008 0.096674-0.080738 0.059343-0.029286 0.13844-0.038208 0.038535-0.00434 0.041737 0.024048z" opacity=".5"/>
   <path d="m9.8348 1.4487q0.0058 0.051718-0.22651 0.35007l3.78e-4 0.066711q-1.85e-4 0.034939-0.01586 0.22362-0.0024 0.033135-0.038931 0.037255-0.0142 0.0016-0.02547-0.0074-0.01129-0.00899-0.01358-0.029279 0.0057-0.040693 0.0086-0.078l0.0066-0.077773q0.0066-0.077773-5.41e-4 -0.14166-0.098712-0.064863-0.19185-0.1622-0.082632-0.086191-0.085262-0.10952-5e-3 -0.044619 0.033501-0.048965 0.01217-0.00137 0.091322 0.090347 0.068541 0.079565 0.18757 0.16063 0.094812-0.11544 0.15135-0.20603 0.064291-0.10379 0.073311-0.10583 0.040551-0.00457 0.045361 0.038016z" opacity=".5"/>
   <path d="m10.497 1.7766q0.01281 0.11357 0.01356 0.22954 7e-5 0.018478-0.01111 0.028981-0.0082 0.010154-0.02534 0.012096-0.03651 0.00411-0.04109-0.036445l-2e-3 -0.080909-0.0075-0.083379-0.0058-0.051714-0.0067-0.050592-0.36287 0.078922q-0.03242 0.085815-0.050931 0.20395-0.0096 0.060646-0.045101 0.06465-0.01521 0.00172-0.02841-0.00604-0.01206-0.00685-0.01424-0.026123-0.0052-0.045633 0.038581-0.18613 0.054151-0.17556 0.13496-0.30586 0.10779-0.17339 0.24068-0.23357 0.04462-0.00503 0.09837 0.12549 0.05351 0.12849 0.07478 0.31711zm-0.0988-0.11107q-0.0091-0.080113-0.04535-0.16536-0.03178-0.072411-0.04103-0.072396-0.12291 0.093965-0.22815 0.30814z" opacity=".5"/>
   <path d="m11.375 1.8881q0.0015 0.014197-0.0091 0.027739-0.0108 0.013542-0.02499 0.015142-0.02535 0.00285-0.03948-0.02225-0.05752-0.10032-0.10226-0.23289-0.02062-0.064428-0.04025-0.14745-0.01673-0.075138-0.02473-0.14612-0.04766 0.078291-0.09099 0.17663l-0.06321 0.14063q-0.02369 0.05402-0.03056 0.056849-0.03347 0.00377-0.08558-0.094074-0.04296-0.080395-0.08737-0.21916l-0.04516 0.1006q-0.03928 0.088644-0.06866 0.18335-0.0416 0.13204-0.05605 0.24972-0.0021 0.017699-0.01169 0.023912-0.0084 0.00711-0.02568 0.00906-0.01116 0.00126-0.02638-0.00626-0.01005-0.00708-0.01402-0.024093-0.0077-0.068956 0.05648-0.26414 0.05113-0.15673 0.09976-0.26286 0.07096-0.15384 0.11153-0.15841 0.01926-0.00217 0.06347 0.15305 0.03015 0.1034 0.06936 0.16881 0.05735-0.14717 0.14301-0.27082 0.07331-0.10583 0.10169-0.10903 0.0223-0.00251 0.039 0.14554 0.01303 0.11561 0.05381 0.24041 0.02968 0.090108 0.07096 0.18301z" opacity=".5"/>
   <path d="m11.972 1.753q0.0034 0.030423-0.02609 0.041966-0.22255 0.084663-0.327 0.096441-0.09532 0.01075-0.13783-0.00191-0.0425-0.012665-0.0473-0.055256-0.01293-0.1146 0.0092-0.29168 0.02235-0.1843 0.06104-0.29649 0.0018-0.012516 0.01114-0.019741 0.01047-0.00733 0.02443-0.010967 0.01533-7.022e-4 0.02841 0.00604 0.01018 0.00809 0.01223 0.02635l-0.02214 0.10417q-0.0293 0.14092-0.03898 0.20979-0.01927 0.13876-0.0097 0.22395 0.0029 0.025351 0.01582 0.031078 0.01298 0.00573 0.06165 2.333e-4 0.06288-0.00709 0.15298-0.036765l0.18941-0.060384q0.03854-0.00434 0.04276 0.033175z" opacity=".5"/>
   <path d="m4.9597 4.3446q0.016697 0.14805-0.076087 0.26327-0.080532 0.096372-0.23054 0.1595-0.13155 0.053871-0.28163 0.070781-0.044619 5e-3 -0.048964-0.033501-0.00367-0.032461 0.030803-0.045581 0.014751-0.0057 0.060385-0.01094 0.046451-0.26198 0.02701-0.43437-0.00195-0.01724 0.00885-0.030781 0.010682-0.01455 0.028935-0.01662 0.034479-0.0039 0.039054 0.036681 0.012351 0.10952 0.0052 0.20994-0.00615 0.10031-0.028488 0.22093 0.035493-4e-3 0.10813-0.033761 0.12388-0.04889 0.19354-0.11425 0.10228-0.094722 0.08833-0.21844-0.020929-0.18558-0.23692-0.16122-0.11053 0.01247-0.17427 0.039171l-0.14516 0.060521q-0.016226 0.0019-0.025371-0.0063-0.00711-0.0084-0.00917-0.02669-0.00298-0.02637 0.021791-0.043531 0.18017-0.087082 0.33127-0.10411 0.12473-0.01406 0.2089 0.040121 0.090702 0.057551 0.10443 0.17924z" opacity=".5"/>
   <path d="m5.3908 4.5063q0.010636 0.094312-0.043118 0.16405-0.053754 0.069731-0.1582 0.081502-0.078085 0.0089-0.12674-0.040141-0.041768-0.042521-0.05023-0.11758-0.0087-0.077072 0.041579-0.14127 0.057353-0.074241 0.15978-0.085802 0.07707-0.0087 0.12752 0.038001 0.042552 0.040391 0.049415 0.10123zm-0.067584 0.01995q-0.00423-0.037521-0.029743-0.063401-0.031155-0.030391-0.085916-0.024201-0.057803 0.0065-0.094578 0.053801-0.032275 0.041651-0.0269 0.089302 0.012008 0.10648 0.10936 0.095502 0.058817-0.0067 0.095821-0.051891 0.038016-0.045371 0.031955-0.099112z" opacity=".5"/>
   <path d="m5.7903 4.3516q0.00182 0.01622-0.00728 0.02649-0.00877 0.01331-0.024992 0.01515l-0.033596-0.0065q-0.032356-0.0046-0.059735-0.0015-0.078086 0.0089-0.13004 0.076291-0.046556 0.060701-0.039922 0.11953 0.0032 0.028391 0.024642 0.045481 0.021325 0.01609 0.053776 0.01242 0.04969-0.0056 0.084024-0.02899l0.076552-0.049711q0.03448-0.0039 0.038482 0.031611 0.00411 0.036511-0.074249 0.079232-0.067897 0.035381-0.11252 0.040411-0.061859 7e-3 -0.10868-0.025741-0.046823-0.032711-0.053798-0.094582-0.010406-0.092272 0.048288-0.17284 0.067693-0.091842 0.18939-0.10557 0.047663-0.0054 0.087127 0.0077 0.040366 0.01189 0.042539 0.031151z" opacity=".5"/>
   <path d="m6.2096 4.2811-0.01971 0.14395q-0.00869 0.059521-0.00412 0.10008l0.00229 0.02028q5.714e-4 0.0051 0.00489 0.02512l0.00841 0.038081q0.00411 0.036511-0.032391 0.040631-0.027379 0.0031-0.039366-0.02123-0.00159-0.0049-0.012698-0.048891-0.017094 0.02145-0.06314 0.050251-0.045147 0.027691-0.085709 0.032251-0.058817 0.0067-0.0945-0.036591-0.032069-0.038481-0.038931-0.099332-0.00754-0.066921 0.013269-0.15554 0.021159-0.085572 0.050567-0.088892 0.01521-0.0017 0.02661 0.0082 0.012185 8e-3 0.01447 0.028151-0.012765 0.050731-0.024158 0.11363-0.011392 0.062901-0.00807 0.092312 0.00343 0.030421 0.019013 0.050231 0.018283 0.01643 0.037552 0.01425 0.036507-0.0041 0.085465-0.043521 0.042432-0.033531 0.063795-0.062651l0.024576-0.20097q-0.00251-0.022301 0.029935-0.02597 0.017239-2e-3 0.029078 0.0029 0.010936 6e-3 0.012885 0.023201z" opacity=".5"/>
   <path d="m6.8593 4.2783q0.00652 0.057811 0.00313 0.12802-0.00194 0.055681-0.010713 0.13266-0.00276 0.030101-0.034877 0.036791-0.034479 0.0039-0.039282-0.038701-0.00434-0.038541 0.00296-0.11947 0.0073-0.080922 0.00284-0.12048-0.00137-0.01216-0.00385-0.016l-0.00508-0.0087q-0.036507 0.0041-0.10073 0.081182-0.047915 0.057771-0.063948 0.10683-0.0074 0.025481-0.00845 0.070791 6.3e-5 0.036971-0.012077 0.056831-0.00787 0.01219-0.025108 0.01413-0.03752 0.0042-0.042095-0.036341l0.00612-0.1188q0.00306-0.054781-4.84e-4 -0.086212-0.0032-0.028391-0.00672-0.041351-0.00632-0.01057-0.012412-0.01-0.033464 0.0037-0.099273 0.075901-0.059396 0.065241-0.06015 0.085862l-0.0064512 0.12499q0.00141 0.030651-0.033633 0.038711-0.016226 0.0019-0.028868-0.01006-0.012641-0.01193-0.01447-0.028151l0.018293-0.32042q-0.00264-0.02332 0.032291-0.032401 0.038535-0.0043 0.042424 0.030141l-0.0034 0.060971q0.033404-0.040741 0.077078-0.072371 0.052229-0.037731 0.088735-0.041851 0.046647-0.0053 0.066235 0.050041l0.013385 0.054971q0.038002-0.054611 0.078291-0.088932 0.046928-0.039181 0.1027-0.045481 0.038535-0.0043 0.056262 0.01624 0.015812 0.021831 0.021302 0.070501z" opacity=".5"/>
   <path d="m7.2912 4.4289q0.00423 0.037521-0.085634 0.078451-0.074326 0.033031-0.12401 0.038631-0.15921 0.01796-0.17488-0.12098-0.010064-0.089242 0.042547-0.16912 0.059465-0.091942 0.16087-0.10338 0.0649-0.0074 0.10742 0.01457 0.042522 0.02191 0.046296 0.055381 0.00686 0.060851-0.10583 0.1362-0.094564 0.063041-0.13107 0.067151-0.028395 0.0032-0.032283-0.031271-0.00126-0.01115 0.1003-0.066771 0.10246-0.056741 0.099142-0.086152-0.00137-0.01218-0.018742-0.02048-0.019049-5e-3 -0.057583-6.51e-4 -0.076056 0.0086-0.11462 0.067361-0.03496 0.054261-0.026725 0.12728 0.00401 0.035501 0.026458 0.052471 0.022455 0.01698 0.067074 0.01195 0.050703-0.0057 0.092022-0.030911l0.092206-0.056621q0.032452-0.0036 0.037026 0.036911z" opacity=".5"/>
   <path d="m7.6961 4.2312q0.00559 0.049681-5.041e-4 0.10481-0.0021 0.0177-0.00825 0.054341-0.00512 0.036521-0.011849 0.058851-0.00907 0.028751-0.027335 0.030801-0.040564 0.0046-0.044681-0.031931 0.010605-0.060751 0.015372-0.10957 0.00621-0.063351 0.00106-0.10898-0.00583-0.051711-0.031185-0.048861-0.029409 0.0033-0.10819 0.069711-0.079791 0.066501-0.080989 0.092322l-0.0071 0.13738q-0.00187 0.028971-0.034319 0.032621-0.034479 0.0039-0.038368-0.030591l0.01715-0.33057q8.526e-4 -0.02885 0.036348-0.032851 0.012168-0.0013 0.024812 0.01056 0.00891 0.0061 0.010282 0.01836l4.595e-4 0.0041-0.00258 0.068071q0.11679-0.11177 0.20502-0.12171 0.025352-0.0029 0.050994 0.033271 0.026541 0.035001 0.033862 0.099912z" opacity=".5"/>
   <path d="m8.0666 4.0737q0.00172 0.01521-0.00639 0.025371-0.00889 0.01229-0.023864 0.01604l-0.10646 0.02126-0.014298 0.283q-0.00209 0.026941-0.037132 0.034991-0.032452 0.0036-0.036111-0.028791l0.014199-0.27478-0.094293 0.01989q-0.012168 0.0013-0.024583-0.0085-0.011059-0.0071-0.014684-0.02094-0.00206-0.01825 0.00502-0.02829 0.00798-0.01117 0.023081-0.0139l0.10961-0.02061 0.00527-0.15361q0.00187-0.028961 0.033306-0.032501 0.012168-0.0013 0.02537 0.0063 0.011399 0.01006 0.013228 0.026231l-0.00506 0.13716 0.095419-0.01902q0.011155-0.0012 0.023229 0.0056 0.011172 0.0081 0.015142 0.02499z" opacity=".5"/>
   <path d="m8.9876 3.991q0.00182 0.01622-0.00728 0.02649-0.00877 0.01331-0.024992 0.01515l-0.033596-0.0065q-0.032356-0.0046-0.059735-0.0015-0.078086 0.0089-0.13004 0.076291-0.046556 0.060701-0.039922 0.11953 0.0032 0.028391 0.024641 0.045481 0.021325 0.01608 0.053777 0.01242 0.04969-0.0056 0.084024-0.02899l0.076552-0.049711q0.03448-0.0039 0.038482 0.031611 0.00411 0.036511-0.074248 0.079232-0.067898 0.035391-0.11252 0.040411-0.061858 7e-3 -0.10868-0.025741-0.046823-0.032721-0.053798-0.094582-0.010406-0.092272 0.048288-0.17284 0.067692-0.091842 0.18939-0.10557 0.047662-0.0054 0.087127 0.0077 0.040366 0.01189 0.042539 0.031151z" opacity=".5"/>
   <path d="m9.1643 3.6722-0.034831 0.61087q-0.0017 0.030991-0.039161 0.035221-0.01116 0.0012-0.02244-0.0077-0.00596-0.0076-0.00984-0.023541l0.032807-0.61064q0.0011-0.026821 0.033531-0.030481 0.01521-0.0017 0.02513 0.0043 0.01094 6e-3 0.01479 0.02195z" opacity=".5"/>
   <path d="m9.6367 3.9087q-0.037231 0.17981-0.0218 0.31671 0.0034 0.030431-0.030591 0.038371-0.01724 2e-3 -0.029881-0.01-0.01152-0.01102-0.01346-0.028261-0.028891 0.044351-0.11408 0.053951-0.057811 0.0065-0.11004-0.028681-0.061151-0.041371-0.069621-0.11641-0.01052-0.093302 0.055631-0.16237 0.062431-0.065591 0.15776-0.076332 0.046641-0.0054 0.062101 0.0043 0.01094 6e-3 0.013 0.02421 0.0015 0.0142-0.0052 0.026271-0.0082 0.01018-0.032441 0.01292-0.074032 0.0083-0.12423 0.045841-0.060561 0.045861-0.052781 0.11481 0.0057 0.050701 0.041801 0.070251 0.02516 0.01361 0.057601 0.0099 0.063891-0.0072 0.11373-0.056991 0.01099-0.16659 0.02724-0.22284 0.01176-0.041381 0.037121-0.044231 0.032461-0.0036 0.038141 0.028571z" opacity=".5"/>
   <path d="m9.9587 3.8784q2e-3 0.01724-0.0059 0.030441-0.0095 0.01546-0.02476 0.01717-0.0071 7.96e-4 -0.048361-0.01-0.040371-0.01189-0.067741-0.0089-0.045631 0.0052-0.045351 0.034901 0.0027 0.023321 0.054831 0.040031 0.087382 0.028151 0.097192 0.033201 0.053221 0.025831 0.058491 0.072491 0.0081 0.072001-0.036891 0.10994-0.031861 0.027221-0.083572 0.033041-0.082142 0.0093-0.11811-3.4e-5 -0.035971-0.0093-0.038481-0.031611-4e-3 -0.035501 0.02573-0.045001l0.055461 0.0091q0.02198 0.0036 0.053421 1.14e-4 0.075052-0.0084 0.069441-0.058151-0.0027-0.02332-0.054161-0.043181-0.090992-0.032871-0.096532-0.036361-0.053461-0.027871-0.058381-0.071461-0.0056-0.049681 0.036041-0.081092 0.034221-0.0244 0.087962-0.030461 0.036511-0.0041 0.078342 0.0024 0.058391 0.0078 0.061251 0.033151z" opacity=".5"/>
   <path d="m10.281 3.8421q2e-3 0.01724-0.0059 0.030441-0.0095 0.01546-0.02476 0.01717-0.0071 7.95e-4 -0.04836-0.01-0.04037-0.01189-0.06774-0.0089-0.04563 0.0052-0.04535 0.034891 0.0027 0.02332 0.05483 0.040031 0.08738 0.028151 0.09719 0.033201 0.05322 0.02583 0.05849 0.072481 0.0081 0.072001-0.0369 0.10994-0.03186 0.027221-0.08357 0.033041-0.08214 0.0093-0.11811-3.6e-5 -0.03597-0.0093-0.03848-0.031611-4e-3 -0.035501 0.02573-0.045001l0.05546 0.0091q0.02198 0.0036 0.05342 1.14e-4 0.07505-0.0084 0.06944-0.058151-0.0027-0.02332-0.05416-0.043181-0.09099-0.032871-0.09653-0.036361-0.05346-0.02787-0.05838-0.071471-0.0056-0.049681 0.03604-0.081092 0.03422-0.024401 0.08796-0.030461 0.03651-0.0041 0.07833 0.0024 0.05839 0.0078 0.06125 0.033151z" opacity=".5"/>
   <path d="m10.718 4.0424q0.0042 0.037521-0.08564 0.078462-0.07433 0.033031-0.12402 0.038631-0.15921 0.01796-0.17488-0.12098-0.01007-0.089242 0.04255-0.16912 0.05945-0.091942 0.16087-0.10338 0.0649-0.0074 0.10742 0.01458 0.04252 0.021911 0.0463 0.055381 0.0069 0.060851-0.10583 0.1362-0.09456 0.063031-0.13106 0.067151-0.02839 0.0032-0.03227-0.031271-0.0012-0.01115 0.1003-0.066761 0.10246-0.056741 0.09913-0.086152-0.0013-0.01218-0.01875-0.02048-0.01905-5e-3 -0.05759-6.51e-4 -0.07606 0.0086-0.11462 0.067361-0.03496 0.054251-0.02673 0.12728 4e-3 0.035501 0.02645 0.052471 0.02246 0.01699 0.06708 0.01195 0.0507-0.0057 0.09202-0.030911l0.0922-0.056611q0.03246-0.0036 0.03702 0.036911z" opacity=".5"/>
   <path d="m11.011 3.7598q2e-3 0.01724-0.0059 0.030441-0.0095 0.01546-0.02476 0.01717-0.0071 7.961e-4 -0.04836-0.01-0.04037-0.01189-0.06774-0.0089-0.04563 0.0052-0.04535 0.034901 0.0027 0.02332 0.05483 0.040031 0.08738 0.02815 0.09719 0.033201 0.05322 0.025831 0.05849 0.072491 0.0081 0.072002-0.03689 0.10994-0.03186 0.02721-0.08357 0.033041-0.08214 0.0093-0.11811-3.4e-5 -0.03597-0.0093-0.03849-0.031611-4e-3 -0.035501 0.02573-0.045011l0.05546 0.0091q0.02198 0.0036 0.05342 1.15e-4 0.07505-0.0084 0.06944-0.058151-0.0027-0.023331-0.05416-0.043181-0.091-0.032871-0.09652-0.036361-0.05346-0.027871-0.05838-0.071461-0.0056-0.049681 0.03604-0.081092 0.03422-0.024401 0.08796-0.030461 0.03651-0.0041 0.07834 0.0024 0.0584 0.0078 0.06125 0.033151z" opacity=".5"/>
   <path d="m5.2011 6.5967q0.021158 0.1876-0.41031 0.28658-0.10117 0.022701-0.19751 0.033561-0.019267 0.0022-0.031797-0.0088-0.00925-0.0092-0.013342-0.027251-0.00354-0.031441 0.033289-0.041751 0.013973-0.0035 0.038312-0.0063 0.047221-0.27337 0.027208-0.45083-0.00126-0.01116 0.00965-0.023681 0.010235-0.0093 0.027252-0.01333 0.036507-0.0041 0.040739 0.033401 0.00732 0.064901 7.69e-4 0.18888-0.00183 0.047451-0.00936 0.13559-0.00588 0.057151-0.019642 0.11724 0.038535-0.0043 0.12324-0.027251 0.31293-0.084592 0.30138-0.187-0.00744-0.065921-0.093005-0.087082-0.057047-0.01411-0.14122-0.0046-0.023324 0.0027-0.030026-0.029481-0.00308-0.027381 0.074606-0.066951 0.077582-0.040591 0.072893-0.082162-0.00434-0.038541-0.07322-0.048231-0.044862-0.0062-0.098608-1.7e-4 -0.081127 0.0092-0.14341 0.030551-0.021739 0.0076-0.063299 0.02152-0.017794 0.0062-0.069941 0.026381-0.014197 0.0015-0.027624-0.0081-0.00925-0.0092-0.013228-0.026241-0.00446-0.039551 0.13251-0.081692 0.10126-0.030941 0.17224-0.038941 0.10445-0.01178 0.17052 0.0095 0.080958 0.025781 0.089192 0.098802 0.00594 0.052731-0.033084 0.098212-0.013723 0.01491-0.040517 0.032291 0.063903 2e-3 0.11308 0.028331 0.073203 0.038981 0.08224 0.1191z" opacity=".5"/>
   <path d="m5.6301 6.7225q0.00423 0.037511-0.085634 0.078461-0.074326 0.033031-0.12401 0.038631-0.15921 0.01796-0.17488-0.12098-0.010064-0.089242 0.042547-0.16912 0.059465-0.091942 0.16087-0.10338 0.064901-0.0074 0.10742 0.01458 0.042522 0.02191 0.046296 0.055381 0.00686 0.060851-0.10583 0.1362-0.094564 0.063031-0.13107 0.067151-0.028395 0.0032-0.032283-0.031271-0.00126-0.01116 0.1003-0.066761 0.10246-0.056741 0.099142-0.086152-0.00137-0.01217-0.018742-0.02048-0.019048-5e-3 -0.057583-6.51e-4 -0.076056 0.0086-0.11462 0.067361-0.03496 0.054261-0.026724 0.12728 0.00401 0.035501 0.026457 0.052471 0.022455 0.01698 0.067074 0.01195 0.050703-0.0057 0.092022-0.030921l0.092206-0.056611q0.032452-0.0036 0.037026 0.036911z" opacity=".5"/>
   <path d="m6.0418 6.4204q-0.037233 0.17981-0.021793 0.31671 0.00343 0.030421-0.03059 0.038371-0.017239 2e-3 -0.029882-0.01-0.011513-0.01102-0.013456-0.02825-0.028891 0.044331-0.11408 0.053941-0.057803 0.0065-0.11004-0.02866-0.061148-0.041371-0.069612-0.11642-0.010522-0.093302 0.05563-0.16238 0.062438-0.065591 0.15776-0.076332 0.046648-0.0053 0.062104 0.0043 0.010935 6e-3 0.013 0.02421 0.0016 0.0142-0.00525 0.02627-0.00809 0.01018-0.032435 0.01292-0.074026 0.0083-0.12423 0.045851-0.060554 0.045861-0.052778 0.11481 0.00572 0.050701 0.041812 0.070241 0.025154 0.01361 0.057605 0.0099 0.063886-0.0072 0.11373-0.056991 0.010995-0.16658 0.027245-0.22284 0.011766-0.041381 0.037117-0.044231 0.032451-0.0036 0.038139 0.02857z" opacity=".5"/>
   <path d="m6.69 6.4037q0.00652 0.057811 0.00313 0.12802-0.00194 0.055681-0.010713 0.13266-0.00276 0.030101-0.034875 0.036791-0.034479 0.0039-0.039282-0.038701-0.00434-0.038541 0.00296-0.11947 0.0073-0.080922 0.00285-0.12048-0.00137-0.01218-0.00385-0.016l-0.00508-0.0087q-0.036508 0.0041-0.10073 0.081182-0.047914 0.057781-0.063948 0.10683-0.0074 0.02547-0.00845 0.070791 6.29e-5 0.036971-0.012077 0.056831-0.00787 0.01218-0.02511 0.01412-0.03752 0.0042-0.042095-0.036341l0.00612-0.1188q0.00306-0.054771-4.84e-4 -0.086212-0.0032-0.028391-0.00672-0.041351-0.00632-0.01058-0.012413-0.01-0.033464 0.0037-0.099273 0.075901-0.059396 0.065241-0.06015 0.085862l-0.00645 0.12499q0.00141 0.030651-0.033633 0.038711-0.016226 0.0019-0.028868-0.01006-0.012641-0.01193-0.014471-0.028161l0.018293-0.32042q-0.00264-0.02332 0.032291-0.032401 0.038535-0.0043 0.042424 0.030141l-0.0034 0.060971q0.033404-0.040741 0.077078-0.072371 0.05223-0.037721 0.088736-0.041841 0.046647-0.0053 0.066235 0.050041l0.013385 0.054971q0.038002-0.054601 0.078291-0.088932 0.046928-0.039191 0.1027-0.045471 0.038535-0.0043 0.056262 0.01624 0.015812 0.02183 0.021302 0.070501z" opacity=".5"/>
   <path d="m7.1219 6.5542q0.00423 0.037511-0.085634 0.078461-0.074327 0.033031-0.12401 0.038631-0.15921 0.01796-0.17488-0.12098-0.010064-0.089232 0.042547-0.16912 0.059465-0.091942 0.16087-0.10338 0.064901-0.0074 0.10742 0.01458 0.042522 0.02191 0.046296 0.055381 0.00686 0.060851-0.10583 0.1362-0.094564 0.063031-0.13107 0.067151-0.028395 0.0032-0.032283-0.031271-0.00126-0.01116 0.1003-0.066761 0.10246-0.056741 0.099141-0.086152-0.00137-0.01217-0.018742-0.02048-0.019049-5e-3 -0.057583-6.51e-4 -0.076055 0.0086-0.11462 0.067361-0.034961 0.054261-0.026726 0.12728 0.00401 0.035501 0.026458 0.052471 0.022454 0.01699 0.067074 0.01195 0.050703-0.0057 0.092022-0.030911l0.092205-0.056611q0.032451-0.0036 0.037026 0.036911z" opacity=".5"/>
   <path d="m7.5131 6.2525q0.0032 0.028391-0.014136 0.038571-0.011485 0.0074-0.037852 0.01042-0.093296 0.01052-0.16698 0.085582-0.055355 0.055541-0.063965 0.097582l-0.00464 0.12274q-0.00108 0.026811-0.034548 0.030591-0.031436 0.0035-0.040396-0.030371l0.016722-0.31614q0.00141-0.033021 0.031834-0.036461 0.035493-4e-3 0.039839 0.034531l-0.00272 0.057821q0.049942-0.057991 0.096674-0.080732 0.059342-0.029281 0.13844-0.038211 0.038536-0.0043 0.041737 0.02404z" opacity=".5"/>
  </g>
  <g stroke="#07080a" stroke-linecap="round" stroke-linejoin="round">
   <path d="m12.941-5.6867c-0.08032-0.00301-0.14448 0.019953-0.17325 0.069789l-0.34043 0.58956c-0.05543-0.014381-0.10682-0.022345-0.155-0.025969l-0.21627-0.068572c-0.02469-0.00782-0.05075-0.00498-0.0637 0.017447l-2.5502 4.4167c-0.012956 0.022433-0.00762 0.056288 0.017038 0.064109l0.034086 0.010956-2.312 4.0043c8.874e-4 -0.0016 0.00305-0.0022 0.00406-0.0037-0.00374 0.0063-0.0096 0.01036-0.012173 0.01785l-0.91986 2.676s1.377e-4 0.01544 0.027184 0.02557c-2.752e-4 4.49e-4 -9.501e-4 3.54e-4 -0.00122 7.85e-4l-0.20084 0.34773c-0.015751 0.027291-0.00659 0.062161 0.020693 0.077912l0.00203 0.0013-0.15135 0.26211c-0.0105 0.01818-0.00399 0.041431 0.014201 0.051931l0.11402 0.066141c0.01819 0.0105 0.041437 4e-3 0.051937-0.0142l0.15378-0.26658c0.024471 0.0069 0.05119 3.57e-4 0.064515-0.02272l0.20085-0.34773c0.00141-0.0024-2.009e-4 -0.0052 8.088e-4 -0.0077 8.479e-4 0.0014 0.00287 0.0027 0.00365 0.0041 0.024466 0.01141 0.033678 0.0053 0.033678 0.0053l1.8498-2.1412c0.00212-0.0025 0.00181-0.0056 0.00369-0.0081-3.731e-4 7.081e-4 -4.7e-6 0.0017-4.06e-4 0.0024l4.8256-8.3585c0.05542-0.09599-0.01145-0.24599-0.15743-0.39439l0.34043-0.58997c0.03233-0.056002 0.0094-0.13326-0.04706-0.20977-0.01326-0.017897-0.02824-0.03526-0.04545-0.052748-0.01248-0.012777-0.02455-0.025033-0.03895-0.037329-0.02794-0.023764-0.05852-0.046505-0.09292-0.067355-0.0047-0.00283-0.0078-0.00657-0.01258-0.00933-0.0046-0.00267-0.0092-0.00354-0.0138-0.00609-0.0354-0.019436-0.07081-0.03432-0.1055-0.046662-0.01799-0.00636-0.03449-0.010989-0.05193-0.015419-0.02441-0.00631-0.04751-0.010512-0.0702-0.012984-0.0095-0.00101-0.02049-0.00493-0.02962-0.00527z" opacity=".03" stroke-width=".62323"/>
   <path d="m12.941-5.6867c-0.08032-0.00301-0.14448 0.019953-0.17325 0.069789l-0.34043 0.58956c-0.05543-0.014381-0.10682-0.022345-0.155-0.025969l-0.21627-0.068572c-0.02469-0.00782-0.05075-0.00498-0.0637 0.017447l-2.5502 4.4167c-0.012956 0.022433-0.00762 0.056288 0.017038 0.064109l0.034086 0.010956-2.312 4.0043c8.874e-4 -0.0016 0.00305-0.0022 0.00406-0.0037-0.00374 0.0063-0.0096 0.01036-0.012173 0.01785l-0.91986 2.676s1.377e-4 0.01544 0.027184 0.02557c-2.752e-4 4.49e-4 -9.501e-4 3.54e-4 -0.00122 7.85e-4l-0.20084 0.34773c-0.015751 0.027291-0.00659 0.062161 0.020693 0.077912l0.00203 0.0013-0.15135 0.26211c-0.0105 0.01818-0.00399 0.041431 0.014201 0.051931l0.11402 0.066141c0.01819 0.0105 0.041437 4e-3 0.051937-0.0142l0.15378-0.26658c0.024471 0.0069 0.05119 3.57e-4 0.064515-0.02272l0.20085-0.34773c0.00141-0.0024-2.009e-4 -0.0052 8.088e-4 -0.0077 8.479e-4 0.0014 0.00287 0.0027 0.00365 0.0041 0.024466 0.01141 0.033678 0.0053 0.033678 0.0053l1.8498-2.1412c0.00212-0.0025 0.00181-0.0056 0.00369-0.0081-3.731e-4 7.081e-4 -4.7e-6 0.0017-4.06e-4 0.0024l4.8256-8.3585c0.05542-0.09599-0.01145-0.24599-0.15743-0.39439l0.34043-0.58997c0.03233-0.056002 0.0094-0.13326-0.04706-0.20977-0.01326-0.017897-0.02824-0.03526-0.04545-0.052748-0.01248-0.012777-0.02455-0.025033-0.03895-0.037329-0.02794-0.023764-0.05852-0.046505-0.09292-0.067355-0.0047-0.00283-0.0078-0.00657-0.01258-0.00933-0.0046-0.00267-0.0092-0.00354-0.0138-0.00609-0.0354-0.019436-0.07081-0.03432-0.1055-0.046662-0.01799-0.00636-0.03449-0.010989-0.05193-0.015419-0.02441-0.00631-0.04751-0.010512-0.0702-0.012984-0.0095-0.00101-0.02049-0.00493-0.02962-0.00527z" opacity=".05" stroke-width=".4155"/>
   <path d="m12.941-5.6867c-0.08032-0.00301-0.14448 0.019953-0.17325 0.069789l-0.34043 0.58956c-0.05543-0.014381-0.10682-0.022345-0.155-0.025969l-0.21627-0.068572c-0.02469-0.00782-0.05075-0.00498-0.0637 0.017447l-2.5502 4.4167c-0.012956 0.022433-0.00762 0.056288 0.017038 0.064109l0.034086 0.010956-2.312 4.0043c8.874e-4 -0.0016 0.00305-0.0022 0.00406-0.0037-0.00374 0.0063-0.0096 0.01036-0.012173 0.01785l-0.91986 2.676s1.377e-4 0.01544 0.027184 0.02557c-2.752e-4 4.49e-4 -9.501e-4 3.54e-4 -0.00122 7.85e-4l-0.20084 0.34773c-0.015751 0.027291-0.00659 0.062161 0.020693 0.077912l0.00203 0.0013-0.15135 0.26211c-0.0105 0.01818-0.00399 0.041431 0.014201 0.051931l0.11402 0.066141c0.01819 0.0105 0.041437 4e-3 0.051937-0.0142l0.15378-0.26658c0.024471 0.0069 0.05119 3.57e-4 0.064515-0.02272l0.20085-0.34773c0.00141-0.0024-2.009e-4 -0.0052 8.088e-4 -0.0077 8.479e-4 0.0014 0.00287 0.0027 0.00365 0.0041 0.024466 0.01141 0.033678 0.0053 0.033678 0.0053l1.8498-2.1412c0.00212-0.0025 0.00181-0.0056 0.00369-0.0081-3.731e-4 7.081e-4 -4.7e-6 0.0017-4.06e-4 0.0024l4.8256-8.3585c0.05542-0.09599-0.01145-0.24599-0.15743-0.39439l0.34043-0.58997c0.03233-0.056002 0.0094-0.13326-0.04706-0.20977-0.01326-0.017897-0.02824-0.03526-0.04545-0.052748-0.01248-0.012777-0.02455-0.025033-0.03895-0.037329-0.02794-0.023764-0.05852-0.046505-0.09292-0.067355-0.0047-0.00283-0.0078-0.00657-0.01258-0.00933-0.0046-0.00267-0.0092-0.00354-0.0138-0.00609-0.0354-0.019436-0.07081-0.03432-0.1055-0.046662-0.01799-0.00636-0.03449-0.010989-0.05193-0.015419-0.02441-0.00631-0.04751-0.010512-0.0702-0.012984-0.0095-0.00101-0.02049-0.00493-0.02962-0.00527z" opacity=".1" stroke-width=".20775"/>
  </g>
  <g stroke-linecap="round" stroke-linejoin="round" stroke-opacity=".35">
   <g stroke-width=".069146">
    <path d="m12.941-5.6867c-0.08032-0.00301-0.14448 0.019953-0.17325 0.069789l-0.34043 0.58956c-0.05543-0.014381-0.10682-0.022345-0.155-0.025969l-0.21627-0.068572c-0.02469-0.00782-0.05075-0.00498-0.0637 0.017447l-2.5502 4.4167c-0.012956 0.022433-0.00762 0.056288 0.017038 0.064109l0.034086 0.010956-2.312 4.0043c8.638e-4 -0.0016 0.00306-0.0022 0.00408-0.0037-0.00377 0.0063-0.0096 0.01036-0.01217 0.01785l-0.91986 2.676s1.374e-4 0.01544 0.027183 0.02557c-2.756e-4 4.49e-4 -9.423e-4 3.54e-4 -0.00118 7.85e-4l-0.20085 0.34773c-0.015751 0.027291-0.0066 0.062161 0.02069 0.077912l0.00204 0.0013-0.15135 0.26211c-0.010498 0.01818-4e-3 0.041431 0.014204 0.051931l0.11402 0.066141c0.018193 0.0105 0.041435 4e-3 0.051933-0.0142l0.15378-0.26658c0.024474 0.0069 0.051187 3.57e-4 0.064511-0.02272l0.20085-0.34773c0.00141-0.0024-2.01e-4 -0.0052 7.851e-4 -0.0077 8.637e-4 0.0014 0.00291 0.0027 0.00361 0.0041 0.024466 0.01141 0.033677 0.0053 0.033677 0.0053l1.8499-2.1413c0.00212-0.0025 0.00181-0.0056 0.00369-0.0081-3.73e-4 7.08e-4 -4.7e-6 0.0017-4.06e-4 0.0024l4.8256-8.3584c0.05542-0.09599-0.01145-0.24599-0.15743-0.39439l0.34043-0.58997c0.03233-0.056002 0.0094-0.13326-0.04706-0.20977-0.01326-0.017897-0.02823-0.03526-0.04545-0.052748-0.01248-0.012777-0.02455-0.025033-0.03895-0.037329-0.02794-0.023764-0.05852-0.046505-0.09292-0.067355-0.0047-0.00283-0.0078-0.00657-0.01258-0.00933-0.0046-0.00267-0.0092-0.00354-0.0138-0.00609-0.0354-0.019436-0.07081-0.03432-0.1055-0.046662-0.01799-0.00636-0.03449-0.010989-0.05193-0.015419-0.02441-0.00631-0.04751-0.010512-0.0702-0.012984-0.0095-0.00101-0.02049-0.00493-0.02962-0.00527z" opacity=".15"/>
    <path d="m12.837-5.6867c-0.08032-0.00301-0.14448 0.019953-0.17325 0.069789l-0.34043 0.58956c-0.05543-0.014381-0.10682-0.022345-0.155-0.025969l-0.21627-0.068572c-0.02469-0.00782-0.05076-0.00498-0.0637 0.017447l-2.5502 4.4167c-0.012956 0.022433-0.00762 0.056288 0.017038 0.064109l0.034086 0.010956-2.312 4.0043c8.637e-4 -0.0016 0.00306-0.0022 0.00408-0.0037-0.00377 0.0063-0.0096 0.01036-0.01217 0.01785l-0.91986 2.676s1.374e-4 0.01544 0.027184 0.025571c-2.757e-4 4.49e-4 -9.423e-4 3.54e-4 -0.00126 7.85e-4l-0.20085 0.34773c-0.015751 0.027291-0.0066 0.062161 0.02069 0.077912l0.00204 0.0013-0.15135 0.26211c-0.010498 0.01818-4e-3 0.041431 0.014204 0.051931l0.11402 0.066141c0.018193 0.0105 0.041435 4e-3 0.051933-0.0142l0.15378-0.26658c0.024475 0.0069 0.051187 3.57e-4 0.064511-0.02272l0.20085-0.34773c0.00141-0.0024-2.01e-4 -0.0052 7.853e-4 -0.0077 8.637e-4 0.0014 0.00291 0.0027 0.00361 0.0041 0.024466 0.01141 0.033677 0.0053 0.033677 0.0053l1.8498-2.1412c0.00212-0.0025 0.00181-0.0056 0.00369-0.0081-3.73e-4 7.081e-4 -4.7e-6 0.0017-4.06e-4 0.0024l4.8256-8.3585c0.05542-0.09599-0.01145-0.24599-0.15743-0.39439l0.34043-0.58997c0.03233-0.056002 0.0094-0.13326-0.04706-0.20977-0.01326-0.017897-0.02824-0.03526-0.04545-0.052748-0.01248-0.012777-0.02455-0.025033-0.03895-0.037329-0.02795-0.023764-0.05852-0.046505-0.09292-0.067355-0.0047-0.00283-0.0078-0.00657-0.01258-0.00933-0.0046-0.00267-0.0092-0.00354-0.0138-0.00609-0.0354-0.019436-0.07081-0.03432-0.1055-0.046662-0.01799-0.00636-0.03449-0.010989-0.05193-0.015419-0.02441-0.00631-0.04751-0.010512-0.0702-0.012984-0.0095-0.00101-0.02049-0.00493-0.02962-0.00527z" opacity=".25"/>
    <rect transform="rotate(-60)" x="-2.9809" y="8.3929" width=".51537" height=".20775" rx="0" ry=".037909" fill="url(#linearGradient1617)"/>
   </g>
   <rect transform="rotate(-60)" x="-2.6402" y="8.3332" width=".51537" height=".31162" rx="0" ry=".056862" fill="url(#linearGradient1619)" stroke-width=".084684"/>
   <path d="m11.991-4.5895c0.05755-0.099675 0.25572-0.092248 0.44437 0.016671 0.18865 0.10892 0.29418 0.27683 0.23663 0.3765l0.62325-1.0795c0.05755-0.099674-0.04797-0.26758-0.23663-0.3765-0.18865-0.10892-0.38682-0.11635-0.44437-0.016671z" fill="url(#linearGradient1621)" stroke-width=".060226"/>
   <path d="m12.22-4.9859c0.05754-0.099674 0.22458-0.03831 0.41323 0.070609 0.18865 0.10892 0.32532 0.22289 0.26777 0.32257l0.05173-0.089604c0.05755-0.099675-0.07911-0.21364-0.26777-0.32257-0.18865-0.10892-0.35568-0.17028-0.41323-0.070609z" fill="#212020" opacity=".5" stroke-width=".060226"/>
   <path d="m7.0276 3.3397c0.057547-0.099672 0.38472-0.01777 0.73357 0.18364 0.34885 0.20141 0.58337 0.44379 0.52582 0.54347l4.8258-8.3586c0.086749-0.15025-0.12443-0.43307-0.47328-0.63448-0.34885-0.20141-0.69936-0.24289-0.78611-0.092628z" fill="url(#linearGradient1623)" stroke-width=".081896"/>
   <path d="m7.1615 3.1078 0.16674 0.044731 0.23529 0.23517-0.45442-0.1218-0.00997 0.035941c0.075197-0.01238 0.20063 0.01669 0.34649 0.072601 0.02438 0.0094 0.045631 0.01504 0.07115 0.02608 0.069663 0.025501 0.14129 0.055711 0.21422 0.095562l-0.028309-0.028061 0.32096 0.085982 0.23459 0.23477-0.19303-0.051941c0.025413 0.0212 0.050817 0.042341 0.072397 0.062881l0.17981 0.048061 0.060875 0.060911 0.021507-0.037251-0.00206-0.0021 0.00284 7.34e-4 0.021506-0.037251-0.083544-0.02247-0.23494-0.23497 0.32096 0.085982 0.061228 0.061121 0.021506-0.037251-0.0024-0.0023 0.00318 9.29e-4 0.021506-0.037251-0.083544-0.02247-0.23494-0.23497 0.32096 0.085982 0.061228 0.061121 0.021506-0.037251-0.0024-0.0023 0.00318 9.29e-4 0.021506-0.037251-0.083544-0.02247-0.23494-0.23497 0.32187 0.086032 0.060528 0.060711 0.021506-0.037251-0.00172-0.0019 0.0025 5.37e-4 0.021506-0.037251-0.082844-0.02206-0.23529-0.23517 0.32006 0.085922 0.061582 0.061321 0.021506-0.037251-0.0028-0.0025 0.00359 0.0012 0.021506-0.037251-0.083544-0.02247-0.23459-0.23477 0.32152 0.085832 0.060528 0.060711 0.021506-0.037251-0.00172-0.0019 0.0025 5.37e-4 0.021506-0.037251-0.082844-0.02206-0.23529-0.23517 0.32096 0.085982 0.060875 0.060911 0.021506-0.037251-0.0024-0.0023 0.00318 9.301e-4 0.021506-0.037251-0.083544-0.02247-0.23494-0.23497 0.32131 0.086182 0.060875 0.060911 0.021502-0.037241-0.00206-0.0021 0.00284 7.34e-4 0.021502-0.037241-0.08319-0.022261-0.23529-0.23517 0.32131 0.086182 0.060875 0.060911 0.021506-0.037251-0.00206-0.0021 0.00284 7.33e-4 0.021506-0.037251-0.08319-0.02226-0.23494-0.23497 0.32096 0.085981 0.060875 0.060911 0.021506-0.037251-0.00206-0.0021 0.00284 7.331e-4 0.021507-0.037251-0.083544-0.022466-0.23494-0.23497 0.32131 0.086185 0.060875 0.060913 0.021506-0.037251-0.00206-0.00209 0.00284 7.334e-4 0.021506-0.037251-0.083191-0.022262-0.23494-0.23497 0.32096 0.085981 0.060875 0.060913 0.021506-0.037251-0.00206-0.00209 0.00284 7.333e-4 0.021506-0.037251-0.083544-0.022466-0.23494-0.23497 0.32131 0.086185 0.060874 0.060913 0.02151-0.037251-0.0024-0.00229 0.0032 9.297e-4 0.02151-0.037251-0.083192-0.022262-0.2353-0.23517 0.32096 0.085981 0.061231 0.061118 0.02151-0.037251-0.0024-0.00229 0.0032 9.297e-4 0.02151-0.037251-0.083192-0.022263-0.2353-0.23517 0.32096 0.085981 0.061231 0.061118 0.02171-0.037597-0.0017-0.0019 0.0025 5.37e-4 0.0213-0.036897-0.082282-0.022211-0.2353-0.23517 0.32006 0.085923 0.061231 0.061118 0.02151-0.037251-0.0028-0.00253 0.0036 0.00117 0.02151-0.037251-0.083902-0.02267-0.23498-0.23493 0.32131 0.086185 0.06123 0.061117 0.02151-0.037251-0.0024-0.00229 0.0032 9.2962e-4 0.02151-0.037251-0.08319-0.022262-0.23529-0.23517 0.32096 0.085981 0.06123 0.061118 0.02151-0.037251-0.0024-0.00229 0.0032 9.2962e-4 0.01461-0.025302c0.0022-0.00388 0.0022-0.00866 4e-3 -0.01266l-0.080658-0.021743-0.23494-0.23497 0.30216 0.081219c-0.054825-0.12456-0.19058-0.26825-0.37802-0.39208l0.044241 0.044286-0.32131-0.086185-0.16224-0.16208c-0.026045-0.00706-0.050829-0.012173-0.075515-0.016897l0.15778 0.15763-0.32041-0.086127-0.075958-0.076186c-0.016045 0.00404-0.029071 0.010824-0.042653 0.017071l0.037729 0.037713-0.072987-0.019653c-0.013015 0.0096702-0.023071 0.021659-0.03206 0.034431l0.16387 0.044012 0.23494 0.23497-0.32131-0.086185-0.12176-0.12183-0.021506 0.037251 0.063285 0.063239-0.08641-0.023187-0.021506 0.037251 0.16674 0.044733 0.23494 0.23497-0.32041-0.086127-0.12246-0.12224-0.021706 0.037597 0.063285 0.063239-0.08641-0.023188-0.021507 0.037251 0.16674 0.044733 0.23529 0.23517-0.32096-0.085981-0.12246-0.12224-0.021506 0.037251 0.063639 0.063443-0.086767-0.023384-0.021506 0.037251 0.16639 0.044529 0.23494 0.23497-0.32096-0.085981-0.12176-0.12183-0.021506 0.037251 0.063281 0.063246-0.08641-0.023188-0.021506 0.037251 0.16674 0.044733 0.23529 0.23517-0.32131-0.086185-0.12211-0.12204-0.021506 0.037251 0.063639 0.063443-0.086764-0.023392-0.021506 0.037251 0.16674 0.044733 0.23494 0.23497-0.32096-0.085981-0.12211-0.12204-0.021506 0.037251 0.063281 0.063246-0.08641-0.023187-0.021506 0.037251 0.16674 0.044733 0.23529 0.23517-0.32096-0.085981-0.12246-0.12224-0.021506 0.037251 0.063639 0.063443-0.086768-0.023384-0.021507 0.037251 0.16709 0.044933 0.23494 0.23497-0.32131-0.086185-0.12211-0.12204-0.021506 0.037251 0.063281 0.063246-0.08641-0.023188-0.021506 0.037251 0.16674 0.044733 0.23529 0.23517-0.32096-0.085981-0.12246-0.12224-0.021502 0.037244 0.063635 0.06345-0.086764-0.023392-0.021506 0.037251 0.16709 0.044933 0.23494 0.23497-0.32131-0.086185-0.12211-0.12204-0.021506 0.037251 0.063285 0.063239-0.08641-0.023187-0.021506 0.037251 0.16674 0.044733 0.23529 0.23517-0.32096-0.085981-0.12246-0.12224-0.021507 0.037251 0.063639 0.063443-0.086768-0.023384-0.021506 0.037251 0.16709 0.044933 0.23529 0.23517-0.32131-0.086183-0.12246-0.12224-0.021506 0.037251 0.063639 0.063443-0.086968-0.023039-0.021303 0.036898 0.16674 0.044731 0.23529 0.23517-0.32131-0.086182-0.12211-0.12204-0.021506 0.037251 0.063635 0.063451-0.086763-0.02339-0.021507 0.037251 0.16751 0.044161 0.23529 0.23517-0.32116-0.085632-0.12261-0.12279-0.021706 0.037601 0.063635 0.063451-0.086764-0.023391-0.021506 0.037251 0.16709 0.044931 0.23459 0.23477-0.32096-0.085982-0.12211-0.12203-0.021506 0.037251 0.063285 0.063241-0.086414-0.023181-0.021506 0.037251 0.16674 0.044731 0.23494 0.23497-0.32061-0.085782-0.12246-0.12224-0.021506 0.037251 0.063635 0.063451-0.086763-0.02339-0.021506 0.037251 0.16709 0.044931 0.23459 0.23477-0.32096-0.085982-0.12211-0.12204-0.021507 0.037251 0.063285 0.063241-0.086414-0.023181zm1.6447-2.3554 0.32096 0.085981 0.23529 0.23517-0.32096-0.08598zm0.10752-0.18624 0.32131 0.086185 0.23494 0.23497-0.32131-0.086185zm0.21505-0.37248 0.32131 0.086185 0.23494 0.23497-0.32131-0.086185zm-1.7203 2.9804 0.32096 0.085982 0.23529 0.23517-0.32096-0.085982zm0.21505-0.37248 0.32096 0.085982 0.23494 0.23497-0.32096-0.085982zm0.21525-0.37283 0.32096 0.085982 0.23544 0.23573-0.32076-0.086332zm0.10752-0.18624 0.32131 0.086182 0.23494 0.23497-0.32096-0.085982zm0.21505-0.37248 0.32131 0.086185 0.23494 0.23497-0.32096-0.08598zm0.10752-0.18624 0.32131 0.086185 0.23494 0.23497-0.32131-0.086185zm0.10752-0.18624 0.32131 0.086185 0.23494 0.23497-0.32096-0.085981zm0.10752-0.18624 0.32131 0.086185 0.23494 0.23497-0.32131-0.086185zm0.10752-0.18624 0.32096 0.085981 0.23529 0.23517-0.32096-0.085981zm0.10752-0.18624 0.32131 0.086185 0.23494 0.23497-0.32131-0.086185zm-1.1826 2.0492 0.32061 0.085782 0.23494 0.23497-0.32096-0.085982zm0.53782-0.93153 0.32096 0.085981 0.23529 0.23517-0.32096-0.085982zm0.96791-1.6765 0.32041 0.086127 0.23529 0.23517-0.32026-0.085576zm0.21505-0.37248 0.32041 0.086127 0.23494 0.23497-0.32041-0.086127zm-1.5054 2.6083 0.32116 0.085632 0.23494 0.23497-0.32187-0.086032zm1.4757-1.7558 0.32131 0.086185 0.23529 0.23517-0.32131-0.086185zm0.21505-0.37248 0.32131 0.086185 0.23529 0.23517-0.32131-0.086185zm0.21505-0.37248 0.32131 0.086185 0.23494 0.23497-0.32096-0.085981zm-1.8278 3.1666 0.32096 0.085982 0.23494 0.23497-0.32061-0.085782zm0.10752-0.18624 0.32096 0.085982 0.23494 0.23497-0.32096-0.085982zm0.10752-0.18624 0.32152 0.085832 0.23529 0.23517-0.32187-0.086032zm0.21525-0.37283 0.32131 0.086182 0.23529 0.23517-0.32152-0.085832zm0.21505-0.37248 0.32131 0.086182 0.23529 0.23517-0.32131-0.086182zm0.10752-0.18624 0.32131 0.086185 0.23494 0.23497-0.32096-0.085982zm0.21505-0.37248 0.32131 0.086185 0.23494 0.23497-0.32096-0.085981zm0.10752-0.18624 0.32096 0.085981 0.23494 0.23497-0.32096-0.085981zm0.10752-0.18624 0.32096 0.08598 0.23529 0.23517-0.32096-0.085981zm0.10752-0.18624 0.32096 0.085981 0.23529 0.23517-0.32131-0.086185zm-0.75234 1.3039 0.32096 0.085982 0.23494 0.23497-0.32096-0.085982zm0.32257-0.55872 0.32096 0.085981 0.23494 0.23497-0.32096-0.085981zm0.64535-1.1178 0.32041 0.086127 0.23494 0.23497-0.32041-0.086127zm0.21485-0.37212 0.32061 0.085781 0.23494 0.23497-0.32096-0.085981zm-1.3975 2.4213 0.32041 0.086132 0.23459 0.23477-0.32006-0.085922zm0.15604 1.3317c-0.00132 0.0039-3.114e-4 0.0087-0.00235 0.01223l0.00528-0.0091z" opacity=".15" stroke-width=".063866"/>
   <path d="m11.084-3.6854c0.08675-0.15025 0.43747-0.10913 0.78631 0.092282 0.34885 0.20141 0.55982 0.48457 0.47307 0.63483l0.04626-0.080118c0.08674-0.15025-0.12423-0.43342-0.47308-0.63483-0.34885-0.20141-0.69956-0.24253-0.78631-0.092282z" opacity=".25" stroke-width=".081896"/>
   <path d="m12.706-5.7299c0.07216 0.00615 0.20316 0.027546 0.33464 0.10345 0.13147 0.075905 0.22062 0.18161 0.26202 0.24103-0.02412-0.086104-0.10892-0.18352-0.23122-0.25765-0.0047-0.00273-0.0084-0.00533-0.01315-0.00807-0.0048-0.00275-0.0089-0.00464-0.01356-0.00735-0.12534-0.068832-0.25212-0.093581-0.33874-0.071414z" opacity=".36" stroke-width=".048261"/>
   <g stroke-width=".083097">
    <path d="m9.3012-0.68337 2.6709-4.289c0.01369-0.02198 0.23391-0.11228 0.24893-0.091188l0.12199 0.17131c0.01502 0.021094 0.03006 0.041429 0.01711 0.063862l-2.5501 4.4169c-0.01295 0.022426-0.039171 0.02493-0.063861 0.017112l-0.30706-0.097229c-0.02469-0.007818-0.1509-0.16932-0.13795-0.19176z" fill="#28573f"/>
    <path d="m9.289-0.74032 2.5501-4.4169c0.01295-0.022426 0.03917-0.024931 0.06386-0.017113l0.30706 0.09723c0.02469 0.00782 0.03006 0.041428 0.01711 0.063861l-2.5501 4.4169c-0.01295 0.022426-0.039171 0.024932-0.063861 0.017113l-0.30706-0.09723c-0.024691-0.00782-0.030062-0.041428-0.017111-0.063861z" fill="#83cea9"/>
    <path d="m9.2859-0.72035c-0.00242 0.019002 0.00166 0.038506 0.019884 0.044275l0.30702 0.097143c0.024692 0.00782 0.051147 0.00555 0.064093-0.016878l2.5502-4.417c0.01295-0.022433 0.0073-0.056129-0.01743-0.063946l-0.01555-0.00472c-8.64e-4 0.00666 5.58e-4 0.01364-0.0028 0.019461l-2.5502 4.417c-0.01295 0.022426-0.039052 0.0249-0.063742 0.017081z" fill="#4c9872"/>
   </g>
   <g stroke-width=".081896">
    <path d="m6.1004 6.0294s-5.558e-4 0.01588 0.027297 0.026001c0.045461-0.0075 0.12169 0.02252 0.1499 0.037941 0.02821 0.01542 0.096479 0.067421 0.12275 0.11472 0.024467 0.01141 0.033886 0.0054 0.033886 0.0054l1.8499-2.1414c0.11343-0.13129-0.16788-0.3578-0.51673-0.55921-0.34885-0.20141-0.6912-0.32347-0.74757-0.15939z" fill="url(#linearGradient1625)"/>
    <path d="m6.2168 5.9896s-0.011843 0.01983 0.044573 0.050661c0.056411 0.030851 0.069429 0.01516 0.069429 0.01516l1.3431-2.2801c0.08804-0.14951-0.15129-0.29634-0.24998-0.35331-0.14466-0.083521-0.32286-0.050631-0.34325 0.0097251z" opacity=".25"/>
    <path d="m6.2168 5.9896s-0.011843 0.01983 0.044573 0.050661c0.056411 0.030851 0.069429 0.01516 0.069429 0.01516l1.2208-2.3069c0.081186-0.15334-0.060529-0.21777-0.15922-0.27474-0.14466-0.083522-0.23786-0.052891-0.2597 0.0069001z" opacity=".15"/>
   </g>
  </g>
  <g fill="#fff" stroke-linecap="round" stroke-linejoin="round" stroke-opacity=".35">
   <path d="m6.2291 5.9967s-0.023916 0.01286 0.032504 0.043691c0.056411 0.030841 0.057107 8e-3 0.057107 8e-3l1.1523-2.3774c0.028697-0.059281 0.00116-0.10902-0.097527-0.166-0.14466-0.083522-0.16988-0.02723-0.18894 0.02201z" stroke-width=".081896"/>
   <path d="m6.1022 6.2698c0.00912 0.0053-0.03149 0.092682-0.061998 0.14553-0.030505 0.052831-0.039364 0.051091-0.048483 0.045831-0.00912-0.0053-0.015064-0.01205 0.015448-0.064901 0.030505-0.052831 0.085915-0.13172 0.095033-0.12646z" opacity=".75" stroke-width=".069043"/>
   <path d="m5.9747 6.5833c0.00912 0.0053-0.03149 0.092692-0.061998 0.14553-0.030505 0.052831-0.039364 0.051091-0.048483 0.045831-0.00912-0.0053-0.015064-0.01205 0.015448-0.064901 0.030505-0.052831 0.085915-0.13172 0.095033-0.12646z" opacity=".25" stroke-width=".069043"/>
  </g>
  <g stroke-linecap="round" stroke-linejoin="round" stroke-opacity=".35" stroke-width=".081896">
   <path d="m8.9682-0.021565c0.086749-0.15025 0.43747-0.10913 0.78631 0.092282 0.34885 0.20141 0.55982 0.48457 0.47308 0.63483l0.04626-0.080118c0.086744-0.15025-0.12423-0.43342-0.47308-0.63483-0.34885-0.20141-0.69957-0.24253-0.78631-0.092281z" opacity=".25"/>
   <path d="m7.6624 2.2401c0.086749-0.15025 0.43747-0.10913 0.78631 0.092282 0.34885 0.20141 0.55982 0.48457 0.47307 0.63483l0.046256-0.080122c0.086749-0.15025-0.12423-0.43342-0.47307-0.63482-0.34885-0.20141-0.69956-0.24253-0.78631-0.092282z" opacity=".25"/>
   <path d="m7.4214 2.6576c0.086749-0.15025 0.43747-0.10913 0.78631 0.092282 0.34885 0.20141 0.55982 0.48457 0.47307 0.63483l0.046256-0.080122c0.086748-0.15025-0.12423-0.43342-0.47307-0.63482-0.34885-0.20141-0.69956-0.24253-0.78631-0.092281z" opacity=".25"/>
  </g>
 </g>
</svg>
