<?xml version="1.0" encoding="UTF-8" standalone="no"?>
<svg
   id="Apps-Visual-Studio-Code"
   width="64"
   height="64"
   enable-background="new 0 0 1024 1024"
   image-rendering="optimizeSpeed"
   version="1.1"
   viewBox="0 0 64 64"
   sodipodi:docname="cs-drivers.svg"
   inkscape:version="1.2.1 (9c6d41e410, 2022-07-14)"
   xmlns:inkscape="http://www.inkscape.org/namespaces/inkscape"
   xmlns:sodipodi="http://sodipodi.sourceforge.net/DTD/sodipodi-0.dtd"
   xmlns="http://www.w3.org/2000/svg"
   xmlns:svg="http://www.w3.org/2000/svg">
  <sodipodi:namedview
     id="namedview14548"
     pagecolor="#ffffff"
     bordercolor="#999999"
     borderopacity="1"
     inkscape:showpageshadow="0"
     inkscape:pageopacity="0"
     inkscape:pagecheckerboard="0"
     inkscape:deskcolor="#d1d1d1"
     showgrid="false"
     inkscape:zoom="6.34375"
     inkscape:cx="46.581281"
     inkscape:cy="19.704433"
     inkscape:window-width="1920"
     inkscape:window-height="936"
     inkscape:window-x="0"
     inkscape:window-y="40"
     inkscape:window-maximized="1"
     inkscape:current-layer="Apps-Visual-Studio-Code" />
  <defs
     id="defs14517">
    <linearGradient
       id="c-3"
       x1="32"
       x2="32"
       y1="11"
       y2="53"
       gradientUnits="userSpaceOnUse">
      <stop
         stop-color="#f7bd39"
         offset="0"
         id="stop14494" />
      <stop
         stop-color="#f9e657"
         offset="1"
         id="stop14496" />
    </linearGradient>
    <filter
       id="f"
       x="-0.060000271"
       y="-0.060000271"
       width="1.1200005"
       height="1.1200005"
       color-interpolation-filters="sRGB">
      <feGaussianBlur
         stdDeviation="0.18520833"
         id="feGaussianBlur14499" />
    </filter>
    <linearGradient
       id="b-5"
       x1="8.4666"
       x2="8.4666"
       y1="284.83"
       y2="292.24"
       gradientUnits="userSpaceOnUse">
      <stop
         stop-color="#e0e0e0"
         offset="0"
         id="stop14502" />
      <stop
         stop-color="#fff"
         offset="1"
         id="stop14504" />
    </linearGradient>
    <linearGradient
       id="linearGradient964"
       x1="30"
       x2="30"
       y1="10"
       y2="70"
       gradientUnits="userSpaceOnUse"
       gradientTransform="translate(100.25018)">
      <stop
         offset="0"
         id="stop14507" />
      <stop
         stop-opacity=".35"
         offset="1"
         id="stop14509" />
    </linearGradient>
    <linearGradient
       id="linearGradient862-3"
       x1="7.9373"
       x2="7.9373"
       y1="15.081"
       y2="1.852"
       gradientTransform="matrix(3.7796,0,0,3.7796,100.25018,0)"
       gradientUnits="userSpaceOnUse">
      <stop
         stop-color="#414343"
         offset="0"
         id="stop14512" />
      <stop
         stop-color="#a5b3b6"
         offset="1"
         id="stop14514" />
    </linearGradient>
    <linearGradient
       id="linearGradient4024"
       x1="-128.75999"
       x2="-128.75999"
       y1="59.827999"
       y2="4.7894001"
       gradientTransform="translate(161.96014,10e-5)"
       gradientUnits="userSpaceOnUse">
      <stop
         stop-color="#00a965"
         offset="0"
         id="stop14675" />
      <stop
         stop-color="#09e58d"
         offset="1"
         id="stop14677" />
    </linearGradient>
    <filter
       id="f-3"
       x="-0.059999947"
       y="-0.060000271"
       width="1.1199999"
       height="1.1200005"
       color-interpolation-filters="sRGB">
      <feGaussianBlur
         stdDeviation="0.18520833"
         id="feGaussianBlur14667" />
    </filter>
    <linearGradient
       id="linearGradient1049"
       x1="8.4666004"
       x2="8.4666004"
       y1="284.82999"
       y2="292.23999"
       gradientTransform="matrix(3.7796,0,0,3.7796,375.1,-633.14)"
       gradientUnits="userSpaceOnUse">
      <stop
         stop-color="#4c5557"
         offset="0"
         id="stop14670" />
      <stop
         stop-color="#282929"
         offset="1"
         id="stop14672" />
    </linearGradient>
  </defs>
  <path
     d="m 9.0881349,4.5001 c -2.5416,0 -4.5879,2.0463 -4.5879,4.5879 v 45.824 c 0,2.5416 2.0463,4.5879 4.5879,4.5879 H 54.912135 c 2.5416,0 4.5879,-2.0463 4.5879,-4.5879 V 9.088 c 0,-2.5416 -2.0463,-4.5879 -4.5879,-4.5879 z"
     fill="url(#linearGradient4024)"
     stroke-linecap="round"
     stroke-width="1.946"
     id="path14682"
     style="fill:url(#linearGradient4024)" />
  <path
     d="m 11.660135,4.5003 v 5.2852 l 12.221,12.221 1.1055,-1.1055 -2.123,-2.125 h -2.0371 v -2.0352 l -6.1094,-6.1113 V 4.5006 Z m 5.0918,0 v 5.2852 l 4.0742,4.0742 V 4.5003 Z m 6.1113,0 v 11.396 l 3.5644,3.5645 0.6836,-0.68555 h -1.1934 v -14.275 z m 5.0918,0 v 13.434 l 3.2305,-3.2305 h -0.17578 V 4.5008 Z m 5.0918,0 v 8.3398 l 3.0547,-3.0547 V 4.5002 Z m 5.0918,0 v 6.1289 l -10.271,10.271 1.1055,1.1055 12.221,-12.221 V 4.4995 Z m 5.0918,0 v 6.1289 l -13.684,13.684 -0.57421,-0.57617 -0.57422,0.57617 -1.9707,-1.9707 -1.9726,1.9707 -0.57422,-0.57617 -0.57422,0.57617 L 9.6222649,10.6292 V 5.5745 c -1.5553,0.99217 -2.898,2.2853 -3.916,3.8242 v 7.2637 l -1.207,1.2051 v 4.166 l 2.3027,2.3047 H 16.565665 L 8.9601649,16.7308 a 1.5276,1.5276 0 0 1 -1.375,-1.5195 1.5276,1.5276 0 0 1 1.5273,-1.5274 1.5276,1.5276 0 0 1 1.5293001,1.5274 1.5276,1.5276 0 0 1 -0.0293,0.29297 l 8.834,8.834 h 29.031 l 7.6758,-8.7734 h 3.3457 v -1.0976 h -3.3457 v -4.3867 l -8.7734,9.8711 h -3.2891 l 8.7734,-9.8711 v -5.3848 c -0.15658,-0.0723 -0.32058,-0.12938 -0.48046,-0.19531 h -4.0625 v 6.1289 l -13.684,13.684 -1.4394,-1.4414 13.086,-13.086 v -5.2852 z m -28.75,32.998 -9.9805001,7.9844 v 3.4238 L 10.093735,45.176 v 2.1934 l -5.5938001,3.7285 v 0.6582 h 3.4004 v 5.3418 c 1.1184,1.0063 2.4098001,1.8228 3.8242001,2.4023 h 2.7559 v -11.033 l 6.5801,-5.4844 h 3.2891 l -6.5781,5.4844 v 11.033 h 4.0723 v -4.1934 l 13.684,-13.684 0.57422,0.57422 0.57617,-0.57422 1.9707,1.9707 1.9707,-1.9707 0.57422,0.57422 0.57617,-0.57422 13.682,13.684 v 2.3828 c 0.85589,-0.67053 1.628,-1.4415 2.2949,-2.3008 l -12.326,-12.326 1.4414,-1.4394 12.031,12.031 c 0.22694,-0.41283 0.42442,-0.84299 0.60742,-1.2812 v -4.2383 l -6.6348,-8.4434 h -2.1914 l -2.1953,-2.1934 h -13.191 l 0.24023,0.24023 -12.693,12.691 a 1.5276,1.5276 0 0 1 0.0293,0.29297 1.5276,1.5276 0 0 1 -1.5293,1.5273 1.5276,1.5276 0 0 1 -1.5274,-1.5273 1.5276,1.5276 0 0 1 1.375,-1.5195 l 11.705,-11.705 z m 21.621,6.4316 -12.221,12.221 v 3.3496 h 3.0547 v -4.1934 l 6.1113,-6.1113 v -2.0352 h 2.0371 l 2.123,-2.125 z m 5.0918,0 -1.1055,1.1055 10.271,10.271 v 4.1934 h 1.9668 c 0.37052,-0.15134 0.73517,-0.31434 1.0879,-0.49805 v -2.8516 z m -2.5449,2.5449 -3.5645,3.5644 v 9.4609 h 3.0547 v -12.342 h 1.1934 z m 1.5273,1.5273 v 11.498 h 3.0547 v -8.2676 h 0.17578 z m -7.1289,4.0742 -4.0742,4.0742 v 3.3496 h 4.0742 z m 12.221,1.0195 v 6.4043 h 3.0547 v -3.3496 z"
     fill="#047b4b"
     id="path14684" />
  <path
     d="m 20.000135,13 -0.5,2 h -0.5 v 3.9668 h -4 v 0.53321 l -2,0.5 2,0.5 v 0.46681 h 4 v 2 h -4 v 0.5332 l -2,0.50001 2,0.5 v 0.4668 h 4 v 2 h -4 v 0.5332 l -2,0.5 2,0.50001 v 0.4668 h 4 v 2 h -4 v 0.53321 l -2,0.5 2,0.5 v 0.46681 h 4 v 2 h -4 v 0.5332 l -2,0.50001 2,0.5 v 0.4668 h 4 v 2 h -4 v 0.53321 l -2,0.5 2,0.50001 v 0.4668 h 4 v 2 h -4 v 0.5332 l -2,0.50001 2,0.5 v 0.46681 h 4 v 4.0332 h 0.5 l 0.5,2 0.50001,-2 h 0.5 v -4.0332 h 2 v 4.0332 h 0.50001 l 0.5,2 0.5,-2 h 0.5 v -4.0332 h 2 v 4.0332 h 0.5 l 0.5,2 0.50001,-2 h 0.5 v -4.0332 h 2 v 4.0332 h 0.5 l 0.5,2 0.5,-2 h 0.50001 v -4.0332 h 2 v 4.0332 h 0.5 l 0.50001,2 0.5,-2 h 0.5 v -4.0332 h 2 v 4.0332 h 0.5 l 0.5,2 0.50001,-2 h 0.5 v -4.0332 h 2 v 4.0332 h 0.50001 l 0.5,2 0.5,-2 h 0.50001 v -4.0332 h 4 V 44.5001 l 2,-0.5 -2,-0.50001 v -0.5332 h -4 v -2 h 4 v -0.4668 l 2,-0.50001 -2,-0.5 v -0.53321 h -4 v -2 h 4 v -0.4668 l 2,-0.5 -2,-0.50001 v -0.5332 h -4 v -2 h 4 v -0.46681 l 2,-0.5 -2,-0.5 v -0.53321 h -4 v -2 h 4 v -0.4668 l 2,-0.50001 -2,-0.5 v -0.5332 h -4 v -2 h 4 v -0.4668 l 2,-0.5 -2,-0.50001 v -0.5332 h -4 v -2 h 4 v -0.46681 l 2,-0.5 -2,-0.5 V 18.9668 h -4 V 15 h -0.50001 l -0.5,-2 -0.5,2 h -0.50001 v 3.9668 h -2 V 15 h -0.5 l -0.50001,-2 -0.5,2 h -0.5 v 3.9668 h -2 V 15 h -0.5 l -0.5,-2 -0.50001,2 h -0.5 v 3.9668 h -2 V 15 h -0.50001 l -0.5,-2 -0.5,2 h -0.5 v 3.9668 h -2 V 15 h -0.5 l -0.50001,-2 -0.5,2 h -0.5 v 3.9668 h -2 V 15 h -0.5 l -0.5,-2 -0.5,2 h -0.50001 v 3.9668 h -2 V 15 h -0.5 z m 1,7.9669 h 2 v 2 h -2 z m 4,0 h 2 v 2 h -2 z m 4,0 h 2 v 2 h -2 z m 4,0 h 2 v 2 h -2 z m 4,0 h 2 v 2 h -2 z m 4,0 h 2 v 2 h -2 z m -20,4 h 2 v 2 h -2 z m 4,0 h 2 v 2 h -2 z m 4,0 h 2 v 2 h -2 z m 4,0 h 2 v 2 h -2 z m 4,0 h 2 v 2 h -2 z m 4,0 h 2 v 2 h -2 z m -20,4 h 2 v 2 h -2 z m 4,0 h 2 v 2 h -2 z m 4,0 h 2 v 2 h -2 z m 4,0 h 2 v 2 h -2 z m 4,0 h 2 v 2 h -2 z m 4,0 h 2 v 2 h -2 z m -20,4 h 2 v 2 h -2 z m 4,0 h 2 v 2 h -2 z m 4,0 h 2 v 2 h -2 z m 4,0 h 2 v 2 h -2 z m 4,0 h 2 v 2 h -2 z m 4,0 h 2 v 2 h -2 z m -20,4 h 2 v 2 h -2 z m 4,0 h 2 v 2 h -2 z m 4,0 h 2 v 2 h -2 z m 4,0 h 2 v 2 h -2 z m 4,0 h 2 v 2 h -2 z m 4,0 h 2 v 2 h -2 z m -20,4 h 2 v 2 h -2 z m 4,0 h 2 v 2 h -2 z m 4,0 h 2 v 2 h -2 z m 4,0 h 2 v 2 h -2 z m 4,0 h 2 v 2 h -2 z m 4,0 h 2 v 2 h -2 z"
     fill="#fae854"
     id="path14686" />
  <g
     transform="translate(-375.10026,-425.40361)"
     fill-rule="evenodd"
     id="g14702">
    <path
       transform="matrix(3.7796,0,0,3.7796,375.1,-633.14)"
       d="m 5.2917,284.83 h 6.35 c 0.29316,0 0.52917,0.236 0.52917,0.52915 v 6.35 c 0,0.29315 -0.23601,0.52915 -0.52917,0.52915 h -6.35 c -0.29316,0 -0.52917,-0.236 -0.52917,-0.52915 v -6.35 c 0,-0.29315 0.23601,-0.52915 0.52917,-0.52915 z"
       filter="url(#f)"
       opacity="0.5"
       id="path14688"
       style="filter:url(#f-3)" />
    <g
       stroke-width="3.7796"
       id="g14700">
      <path
         d="m 395.1,443.4 h 24 c 1.108,0 2,0.89198 2,2 v 24 c 0,1.108 -0.89202,2 -2,2 h -24 c -1.108,0 -2,-0.89199 -2,-2 v -24 c 0,-1.108 0.89202,-2 2,-2 z"
         fill="url(#linearGradient1049)"
         id="path14690"
         style="fill:url(#linearGradient1049)" />
      <path
         d="m 396.1,445.93 a 0.5,0.5 0 0 1 -0.5,0.50001 0.5,0.5 0 0 1 -0.50001,-0.50001 0.5,0.5 0 0 1 0.50001,-0.5 0.5,0.5 0 0 1 0.5,0.5"
         opacity="0.35"
         style="paint-order:stroke fill markers"
         id="path14692" />
      <path
         d="m 419.1,445.93 a 0.5,0.5 0 0 1 -0.5,0.50001 0.5,0.5 0 0 1 -0.5,-0.50001 0.5,0.5 0 0 1 0.5,-0.5 0.5,0.5 0 0 1 0.5,0.5"
         opacity="0.35"
         style="paint-order:stroke fill markers"
         id="path14694" />
      <path
         d="m 396.1,468.95 a 0.5,0.5 0 0 1 -0.5,0.5 0.5,0.5 0 0 1 -0.50001,-0.5 0.5,0.5 0 0 1 0.50001,-0.50001 0.5,0.5 0 0 1 0.5,0.50001"
         opacity="0.35"
         style="paint-order:stroke fill markers"
         id="path14696" />
      <path
         d="m 419.1,468.95 a 0.5,0.5 0 0 1 -0.5,0.5 0.5,0.5 0 0 1 -0.5,-0.5 0.5,0.5 0 0 1 0.5,-0.50001 0.5,0.5 0 0 1 0.5,0.50001"
         opacity="0.35"
         style="paint-order:stroke fill markers"
         id="path14698" />
    </g>
  </g>
  <path
     id="path15393"
     style="opacity:0.6;fill:#e1e1e1;fill-opacity:1"
     d="M 25.470703 28 C 24.822344 28 24.260196 28.202136 23.785156 28.607422 C 23.309957 29.012495 22.963294 29.512476 22.746094 30.105469 C 22.528707 30.698401 22.419922 31.329667 22.419922 32 C 22.419922 32.707179 22.524355 33.353834 22.734375 33.939453 C 22.944201 34.525053 23.286373 35.01407 23.757812 35.408203 C 24.229279 35.802336 24.800237 36 25.470703 36 C 26.229289 36 26.847359 35.735498 27.326172 35.205078 C 27.804985 34.674679 28.044922 33.932688 28.044922 32.982422 L 28.044922 31.912109 L 25.347656 31.912109 L 25.347656 33.148438 L 26.695312 33.148438 L 26.695312 33.314453 C 26.695312 33.741639 26.590879 34.088303 26.380859 34.353516 C 26.17104 34.618729 25.868429 34.751953 25.470703 34.751953 C 24.92557 34.751953 24.508036 34.483105 24.220703 33.945312 C 23.933383 33.407713 23.791016 32.758799 23.791016 32 C 23.791016 31.550667 23.842099 31.128508 23.945312 30.734375 C 24.048339 30.340269 24.230574 29.993606 24.492188 29.695312 C 24.753627 29.397019 25.08017 29.248047 25.470703 29.248047 C 25.941929 29.248047 26.349006 29.572517 26.695312 30.220703 L 27.857422 29.558594 C 27.592215 29.079748 27.276756 28.699875 26.912109 28.419922 C 26.547496 28.139969 26.067289 28 25.470703 28 z M 29.591797 28.132812 L 29.591797 35.867188 L 30.90625 35.867188 L 30.90625 32.927734 L 32.320312 32.927734 C 33.174732 32.927734 33.819127 32.687484 34.253906 32.205078 C 34.688486 31.722459 34.90625 31.164696 34.90625 30.53125 C 34.90625 29.860924 34.69749 29.292198 34.28125 28.828125 C 33.864984 28.364052 33.211578 28.132812 32.320312 28.132812 L 29.591797 28.132812 z M 36.353516 28.132812 L 36.353516 32.916016 C 36.353516 33.991635 36.595845 34.775845 37.082031 35.265625 C 37.568231 35.755598 38.195005 36 38.960938 36 C 39.734483 36 40.365376 35.751246 40.851562 35.253906 C 41.337755 34.756773 41.580078 33.976881 41.580078 32.916016 L 41.580078 28.132812 L 40.265625 28.132812 L 40.265625 32.916016 C 40.265625 34.138881 39.83027 34.751953 38.960938 34.751953 C 38.548471 34.751953 38.228346 34.612111 38 34.335938 C 37.771647 34.059738 37.658203 33.586482 37.658203 32.916016 L 37.658203 28.132812 L 36.353516 28.132812 z M 30.90625 29.369141 L 32.386719 29.369141 C 32.799185 29.369141 33.099216 29.486936 33.287109 29.722656 C 33.475003 29.958376 33.568359 30.227224 33.568359 30.529297 C 33.568359 30.846117 33.470657 31.11931 33.275391 31.347656 C 33.080111 31.576003 32.784432 31.691406 32.386719 31.691406 L 30.90625 31.691406 L 30.90625 29.369141 z " />
</svg>
