<?xml version="1.0" encoding="UTF-8"?>
<svg width="64" height="64" version="1.1" viewBox="0 0 64 64" xmlns="http://www.w3.org/2000/svg" xmlns:xlink="http://www.w3.org/1999/xlink">
 <defs>
  <linearGradient id="linearGradient1005-2" x1="8.4438" x2="8.4438" y1="12.112" y2=".54482" gradientTransform="matrix(3.7795 0 0 3.7795 51.271 21.025)" gradientUnits="userSpaceOnUse">
   <stop stop-color="#87a5af" offset="0"/>
   <stop stop-color="#c8d7dc" offset="1"/>
  </linearGradient>
  <linearGradient id="linearGradient2299" x1="-90.581" x2="-90.581" y1="2.3395" y2="-9.213" gradientTransform="matrix(4.1232 0 0 4.1232 456.58 67.457)" gradientUnits="userSpaceOnUse">
   <stop stop-color="#46737d" offset="0"/>
   <stop stop-color="#6e91a0" offset="1"/>
  </linearGradient>
  <linearGradient id="linearGradient1467" x1="162.64" x2="162.64" y1="13.7" y2="27.83" gradientTransform="matrix(2.7534 0 0 2.7534 -364.7 -5.7214)" gradientUnits="userSpaceOnUse" xlink:href="#linearGradient2389"/>
  <linearGradient id="linearGradient2389" x1="162.64" x2="162.64" y1="13.7" y2="27.83" gradientUnits="userSpaceOnUse">
   <stop stop-color="#b4c3c8" offset="0"/>
   <stop stop-color="#7396a0" offset="1"/>
  </linearGradient>
  <linearGradient id="linearGradient2277" x1="162.61" x2="162.61" y1="15.335" y2="27.41" gradientTransform="matrix(2.7682 0 0 2.7682 -367.09 -6.164)" gradientUnits="userSpaceOnUse" xlink:href="#linearGradient924-3"/>
  <linearGradient id="linearGradient924-3" x1="162.61" x2="162.61" y1="15.335" y2="27.41" gradientTransform="matrix(.73241 0 0 .73241 -138.67 7.9524)" gradientUnits="userSpaceOnUse">
   <stop stop-color="#d2dcdc" offset="0"/>
   <stop stop-color="#a0b4be" offset="1"/>
  </linearGradient>
  <linearGradient id="linearGradient2107" x1="20.636" x2="26.575" y1="19.491" y2="19.491" gradientTransform="matrix(3.7796 0 0 3.7796 -36.221 -157.03)" gradientUnits="userSpaceOnUse">
   <stop stop-color="#446672" offset="0"/>
   <stop stop-color="#4e7883" offset="1"/>
  </linearGradient>
  <filter id="filter2245" x="-.059999" y="-.059999" width="1.12" height="1.12" color-interpolation-filters="sRGB">
   <feGaussianBlur stdDeviation="0.069138527"/>
  </filter>
  <linearGradient id="linearGradient2143" x1="-19.444" x2="-19.444" y1="20.449" y2="22.386" gradientTransform="matrix(3.7494 0 0 3.7494 156.44 -35.546)" gradientUnits="userSpaceOnUse" xlink:href="#linearGradient2141"/>
  <linearGradient id="linearGradient2141">
   <stop stop-color="#7d9ca6" offset="0"/>
   <stop stop-color="#809fa9" offset="1"/>
  </linearGradient>
  <filter id="filter2249" x="-.056499" y="-.063964" width="1.113" height="1.1279" color-interpolation-filters="sRGB">
   <feGaussianBlur stdDeviation="0.044763837"/>
  </filter>
  <linearGradient id="linearGradient2155" x1="-19.444" x2="-19.444" y1="20.449" y2="22.386" gradientTransform="matrix(1.8698 3.2386 -3.2386 1.8698 182.24 79.975)" gradientUnits="userSpaceOnUse" xlink:href="#linearGradient2141"/>
  <filter id="filter2253" x="-.056642" y="-.06378" width="1.1133" height="1.1276" color-interpolation-filters="sRGB">
   <feGaussianBlur stdDeviation="0.04472385"/>
  </filter>
  <linearGradient id="linearGradient2161" x1="-19.444" x2="-19.444" y1="20.449" y2="22.386" gradientTransform="matrix(-1.8827 3.2609 -3.2609 -1.8827 123.66 160.87)" gradientUnits="userSpaceOnUse" xlink:href="#linearGradient2141"/>
  <linearGradient id="linearGradient2133" x1="162.61" x2="162.61" y1="15.335" y2="27.41" gradientTransform="matrix(.85487 0 0 .85487 -55.711 -71.271)" gradientUnits="userSpaceOnUse" xlink:href="#linearGradient924-3"/>
 </defs>
 <g transform="translate(-51.404 -21.001)">
  <path d="m113.4 53c0 3.5964-0.63304 7.0444-1.7939 10.24-0.80695 2.2212-1.8686 4.3212-3.1518 6.2636-0.53753 0.8167-1.1155 1.6053-1.729 2.3633-1.964 2.4257-4.2982 4.5382-6.9182 6.2526-0.96493 0.63184-1.9678 1.2098-3.0061 1.7277-4.0321 2.0179-8.5839 3.1529-13.401 3.1529s-9.3689-1.1351-13.401-3.153c-1.0384-0.518-2.0425-1.0959-3.0074-1.7277-2.6535-1.7376-5.0155-3.8832-6.9953-6.349-0.61464-0.76408-1.1914-1.56-1.729-2.384-1.249-1.9101-2.2836-3.9712-3.0746-6.1494-1.1607-3.1948-1.7926-6.6415-1.7926-10.237 0-16.569 13.431-30 30-30 8.317 0 15.843 3.3845 21.277 8.8503 1.5661 1.5746 2.9584 3.3233 4.1436 5.214 1.1204 1.7805 2.0571 3.6881 2.7857 5.6951 1.161 3.1959 1.794 6.6442 1.794 10.24z" fill="url(#linearGradient1005-2)" stroke-width=".11719"/>
  <path d="m107.84 53c0 2.9291-0.51558 5.7374-1.461 8.3404-0.65723 1.8091-1.5218 3.5193-2.567 5.1013-0.43779 0.66517-0.9085 1.3075-1.4082 1.9248-1.5996 1.9756-3.5005 3.696-5.6346 5.0923-0.78589 0.51463-1.6027 0.98534-2.4483 1.4071-3.2839 1.6434-6.9908 2.5679-10.914 2.5679-3.9232 0-7.6303-0.92445-10.914-2.568-0.84572-0.42188-1.6635-0.89259-2.4493-1.4071-2.1611-1.4152-4.085-3.1626-5.6974-5.1709-0.50061-0.62231-0.97034-1.2706-1.4082-1.9417-1.0172-1.5557-1.8599-3.2343-2.5041-5.0084-0.94535-2.602-1.46-5.4094-1.46-8.337 0-13.494 10.939-24.434 24.434-24.434 6.7734 0 12.903 2.7565 17.329 7.2081 1.2755 1.2825 2.4095 2.7067 3.3746 4.2464 0.91255 1.4501 1.6754 3.0038 2.2688 4.6383 0.94558 2.6029 1.4611 5.4113 1.4611 8.3404z" fill="url(#linearGradient2299)" stroke-width=".095442"/>
  <g fill="url(#linearGradient1467)" stroke-width="2.7534">
   <path d="m80.102 31.978h6.6367c0.64597 0 1.0806 0.5257 1.166 1.166l0.73176 5.4869c0.08536 0.6403-0.52006 1.166-1.166 1.166h-8.2221c-0.64597 0-1.2653-0.52771-1.166-1.166l0.85371-5.4869c0.0994-0.63828 0.52006-1.166 1.166-1.166z"/>
   <path d="m80.102 74.022h6.6367c0.64597 0 1.0806-0.5257 1.166-1.166l0.73176-5.4869c0.08535-0.64029-0.52006-1.166-1.166-1.166h-8.2221c-0.64597 0-1.2653 0.52771-1.166 1.166l0.85371 5.4869c0.0994 0.63828 0.52006 1.166 1.166 1.166z"/>
   <path d="m99.926 39.671 3.3184 5.7476c0.32297 0.55943 0.0851 1.1987-0.4268 1.5928l-4.3858 3.3773c-0.51183 0.39406-1.2698 0.13263-1.5928-0.4268l-4.111-7.1208c-0.32297-0.55943-0.17568-1.3597 0.4268-1.5928l5.1785-2.0041c0.60249-0.23307 1.2698-0.13263 1.5928 0.42683z"/>
   <path d="m63.526 60.693 3.3184 5.7476c0.323 0.55943 0.99559 0.67298 1.5928 0.4268l5.1177-2.1097c0.59718-0.24624 0.74977-1.0334 0.42677-1.5928l-4.111-7.1208c-0.323-0.55943-1.0897-0.83196-1.5928-0.4268l-4.325 3.4827c-0.50307 0.40524-0.74974 1.0334-0.42674 1.5928z"/>
   <path d="m103.26 60.693-3.3184 5.7476c-0.323 0.5594-0.99556 0.67303-1.5928 0.4268l-5.1177-2.1097c-0.59718-0.2462-0.74977-1.0334-0.42677-1.5928l4.111-7.1208c0.323-0.5594 1.0897-0.83196 1.5928-0.42677l4.325 3.4827c0.50309 0.40524 0.74977 1.0334 0.42677 1.5928z"/>
   <path d="m66.858 39.671-3.3184 5.7476c-0.32297 0.55943-0.08508 1.1987 0.42677 1.5928l4.3858 3.3773c0.51182 0.39406 1.2698 0.13263 1.5928-0.4268l4.111-7.1208c0.32297-0.55943 0.17566-1.3597-0.4268-1.5928l-5.1785-2.0041c-0.60246-0.23304-1.2698-0.1326-1.5928 0.42685z"/>
  </g>
  <circle cx="83.405" cy="53" r="16.924" fill="url(#linearGradient2277)" stroke-width="4.6058"/>
  <circle transform="rotate(90)" cx="53" cy="-83.364" r="11.224" fill="#608591" stroke="url(#linearGradient2107)" stroke-dashoffset=".42096" stroke-width=".1"/>
  <circle transform="matrix(3.7796 0 0 -3.7796 157.03 -35.788)" cx="-19.48" cy="-23.606" r="1.3828" fill="#323232" filter="url(#filter2245)" opacity=".3" stroke-width=".37633"/>
  <path d="m85.287 42.006a11.134 11.134 0 0 0-0.81182-0.12208 11.134 11.134 0 0 0-1.1121-0.0562 11.134 11.134 0 0 0-0.78661 0.02721 11.134 11.134 0 0 0-1.054 0.12979v6.1517a5.1845 5.1845 0 0 1 0.35067-0.12786 5.1845 5.1845 0 0 1 0.50182-0.12786 5.1845 5.1845 0 0 1 0.51149-0.07748 5.1845 5.1845 0 0 1 0.51924-0.02532 5.1845 5.1845 0 0 1 0.36621 0.01172 5.1845 5.1845 0 0 1 0.51342 0.06395 5.1845 5.1845 0 0 1 0.50567 0.11237 5.1845 5.1845 0 0 1 0.49214 0.16468 5.1845 5.1845 0 0 1 0.0038 0.0019z" fill="url(#linearGradient2143)" stroke-width="3.7796"/>
  <path transform="matrix(3.7796 0 0 3.7796 51.403 20.999)" d="m5.752 9.507a2.9382 2.9382 0 0 0 0.01943 0.05778 2.9382 2.9382 0 0 0 0.12015 0.26792 2.9382 2.9382 0 0 0 0.14623 0.25514 2.9382 2.9382 0 0 0 0.17077 0.23877 2.9382 2.9382 0 0 0 0.03784 0.04295l1.4071-0.81245a1.3682 1.3682 0 0 1-0.0859-0.07567 1.3682 1.3682 0 0 1-0.09305-0.10021 1.3682 1.3682 0 0 1-0.08283-0.10839 1.3682 1.3682 0 0 1-0.07158-0.11658 1.3682 1.3682 0 0 1-0.05931-0.12322 1.3682 1.3682 0 0 1-0.04704-0.12885 1.3682 1.3682 0 0 1-0.03375-0.13242 1.3682 1.3682 0 0 1-0.01227-0.08181z" fill="#323232" filter="url(#filter2249)" opacity=".3"/>
  <path d="m72.902 56.814a11.105 11.105 0 0 0 0.07344 0.21838 11.105 11.105 0 0 0 0.45412 1.0126 11.105 11.105 0 0 0 0.55269 0.96433 11.105 11.105 0 0 0 0.64544 0.90246 11.105 11.105 0 0 0 0.14302 0.16233l5.3183-3.0707a5.1713 5.1713 0 0 1-0.32467-0.286 5.1713 5.1713 0 0 1-0.35169-0.37875 5.1713 5.1713 0 0 1-0.31306-0.40967 5.1713 5.1713 0 0 1-0.27054-0.44063 5.1713 5.1713 0 0 1-0.22417-0.46572 5.1713 5.1713 0 0 1-0.17779-0.487 5.1713 5.1713 0 0 1-0.12756-0.5005 5.1713 5.1713 0 0 1-0.04638-0.30921z" fill="url(#linearGradient2155)" stroke-width="3.7796"/>
  <path transform="matrix(3.7796 0 0 3.7796 51.403 20.999)" d="m10.708 10.405a2.9584 2.9584 0 0 0 0.15444-0.20387 2.9584 2.9584 0 0 0 0.15496-0.25174 2.9584 2.9584 0 0 0 0.12819-0.26667 2.9584 2.9584 0 0 0 0.05457-0.1493l-1.406-0.81135a1.3776 1.3776 0 0 1-0.0051 0.04273 1.3776 1.3776 0 0 1-0.02986 0.13437 1.3776 1.3776 0 0 1-0.04324 0.13076 1.3776 1.3776 0 0 1-0.05663 0.12562 1.3776 1.3776 0 0 1-0.06847 0.11944 1.3776 1.3776 0 0 1-0.0798 0.11223 1.3776 1.3776 0 0 1-0.09112 0.10348 1.3776 1.3776 0 0 1-0.1009 0.0937 1.3776 1.3776 0 0 1-0.0139 0.0103z" fill="#323232" filter="url(#filter2253)" opacity=".3"/>
  <path d="m92.019 60.083a11.182 11.182 0 0 0 0.58372-0.77055 11.182 11.182 0 0 0 0.58569-0.95148 11.182 11.182 0 0 0 0.48451-1.0079 11.182 11.182 0 0 0 0.20625-0.56429l-5.3141-3.0666a5.2068 5.2068 0 0 1-0.01928 0.1615 5.2068 5.2068 0 0 1-0.11286 0.50786 5.2068 5.2068 0 0 1-0.16343 0.49422 5.2068 5.2068 0 0 1-0.21404 0.47479 5.2068 5.2068 0 0 1-0.25879 0.45144 5.2068 5.2068 0 0 1-0.30161 0.42418 5.2068 5.2068 0 0 1-0.3444 0.39111 5.2068 5.2068 0 0 1-0.38136 0.35415 5.2068 5.2068 0 0 1-0.05254 0.03893z" fill="url(#linearGradient2161)" stroke-width="3.7796"/>
  <circle transform="scale(1,-1)" cx="83.405" cy="-53" r="5.2264" fill="url(#linearGradient2133)" stroke-width="1.4224"/>
 </g>
</svg>
