<?xml version="1.0" encoding="UTF-8"?>
<!-- Created with Inkscape (http://www.inkscape.org/) -->
<svg width="64" height="64" version="1.1" viewBox="0 0 16.933 16.933" xmlns="http://www.w3.org/2000/svg" xmlns:xlink="http://www.w3.org/1999/xlink">
 <defs>
  <linearGradient id="a-3" x1="99.036" x2="99.036" y1="-.50472" y2="199.84" gradientTransform="matrix(.079375 0 0 .079375 17.804 14.476)" gradientUnits="userSpaceOnUse">
   <stop stop-color="#4bd2f5" offset="0"/>
   <stop stop-color="#5587ff" offset="1"/>
  </linearGradient>
 </defs>
 <g transform="translate(-17.275 -13.947)">
  <circle cx="25.742" cy="22.414" r="7.9375" color="#000000" fill="url(#a-3)" stroke-width=".26459"/>
  <path d="m27.281 20.221a1.0831 0.82509 0 0 0-0.03514 0.0016v0.43408c0.0059 0.0072 0.02194 0.0062 0.02739 0.01344 0.11073 0.14733 0.15806 0.31581 0.15813 0.49041-6.5e-5 0.1746-0.04739 0.34308-0.15813 0.49041-0.05599 0.0745-0.18403 0.09025-0.27956 0.14262-0.0337 0.12312-0.04251 0.23914-0.10697 0.36691-0.01194 0.02379-0.02597 0.04701-0.04134 0.06873l-0.22427 0.3142 2.2029 1.3771c0.02411 0.01507 0.04682 0.03191 0.06821 0.05064 0.45345 0.39946 0.65114 0.9103 0.60565 1.3487h0.04909c0.31624 0 0.76616-0.49114 0.17156-1.0857l-1.9507-1.2195 0.38964-0.5488c0.05974-0.13443 0.08836-0.26068 0.0987-0.37517h0.10904v-5.29e-4a0.13231 0.17607 0 0 0 0.12299-0.1757 0.13231 0.17607 0 0 0-0.12299-0.1757v-0.7152h-0.0021a1.0831 0.82509 0 0 0-1.082-0.80254zm-1.1777 3.2463-1.2273 0.76688c-0.66534 0.58613-0.15062 1.0857 0.17156 1.0857h3.2706c0.03639-0.02402 0.11516-0.0657 0.13281-0.10645 0.02545-0.05877 0.07161-0.1451-0.25012-0.43563z" fill="#fff" style="paint-order:markers fill stroke"/>
  <path d="m25.213 18.817a1.498 1.1411 0 0 0-1.496 1.1105h-0.0031v0.98857a0.18299 0.24351 0 0 0-0.0041 0 0.18299 0.24351 0 0 0-0.18293 0.2434 0.18299 0.24351 0 0 0 0.18293 0.2434 0.18299 0.24351 0 0 0 0.0041 0h0.15089c0.01534 0.15907 0.05869 0.33402 0.15193 0.51882l0.5488 0.77206-2.6784 1.6743c-0.92023 0.81067-0.20842 1.5012 0.23719 1.5012h6.223c0.43739 0 1.0595-0.67884 0.23719-1.5012l-2.6986-1.6872 0.53951-0.75912c0.08263-0.18592 0.12212-0.36047 0.13642-0.51882h0.15038v-5.29e-4a0.18299 0.24351 0 0 1 5.3e-4 0 0.18299 0.24351 0 0 0 0.17001-0.24288 0.18299 0.24351 0 0 0-0.17053-0.24288v-0.98907h-0.0026a1.498 1.1411 0 0 0-1.4965-1.1105z" fill="#fff" style="paint-order:markers fill stroke"/>
 </g>
</svg>
