<?xml version="1.0" encoding="UTF-8" standalone="no"?>
<svg
   xmlns:dc="http://purl.org/dc/elements/1.1/"
   xmlns:cc="http://creativecommons.org/ns#"
   xmlns:rdf="http://www.w3.org/1999/02/22-rdf-syntax-ns#"
   xmlns:svg="http://www.w3.org/2000/svg"
   xmlns="http://www.w3.org/2000/svg"
   xmlns:xlink="http://www.w3.org/1999/xlink"
   xmlns:sodipodi="http://sodipodi.sourceforge.net/DTD/sodipodi-0.dtd"
   xmlns:inkscape="http://www.inkscape.org/namespaces/inkscape"
   inkscape:version="1.0 (4035a4fb49, 2020-05-01)"
   sodipodi:docname="darktable.svg"
   viewBox="0 0 64 64"
   version="1.1"
   image-rendering="optimizeSpeed"
   enable-background="new 0 0 1024 1024"
   height="64"
   width="64"
   id="Calculator">
  <metadata
     id="metadata96">
    <rdf:RDF>
      <cc:Work
         rdf:about="">
        <dc:format>image/svg+xml</dc:format>
        <dc:type
           rdf:resource="http://purl.org/dc/dcmitype/StillImage" />
        <dc:title></dc:title>
      </cc:Work>
    </rdf:RDF>
  </metadata>
  <sodipodi:namedview
     inkscape:current-layer="Calculator"
     inkscape:window-maximized="1"
     inkscape:window-y="0"
     inkscape:window-x="0"
     inkscape:cy="57.63754"
     inkscape:cx="32.090901"
     inkscape:zoom="3.1875"
     showgrid="false"
     id="namedview94"
     inkscape:window-height="985"
     inkscape:window-width="1920"
     inkscape:pageshadow="2"
     inkscape:pageopacity="0"
     guidetolerance="10"
     gridtolerance="10"
     objecttolerance="10"
     borderopacity="1"
     bordercolor="#666666"
     pagecolor="#ffffff" />
  <defs
     id="defs45">
    <linearGradient
       id="linearGradient2109"
       inkscape:collect="always">
      <stop
         id="stop2105"
         offset="0"
         style="stop-color:#d0dff1;stop-opacity:1" />
      <stop
         id="stop2107"
         offset="1"
         style="stop-color:#f5faff;stop-opacity:1" />
    </linearGradient>
    <linearGradient
       gradientUnits="userSpaceOnUse"
       gradientTransform="matrix(0.093746,0,0,0.093741,0.94485,5.2946)"
       y2="170.3"
       y1="329.65"
       x2="273.56"
       x1="273.56"
       id="m">
      <stop
         id="stop2"
         offset="0"
         stop-color="#b0b0b0" />
      <stop
         id="stop4"
         offset="1"
         stop-color="#fff" />
    </linearGradient>
    <linearGradient
       gradientUnits="userSpaceOnUse"
       gradientTransform="translate(0.8557,5.2881)"
       y2="12.823"
       y1="35.137"
       x2="14.562"
       x1="14.562"
       id="g">
      <stop
         id="stop7"
         offset="0"
         stop-color="#68377d" />
      <stop
         id="stop9"
         offset="1"
         stop-color="#cb7cec" />
    </linearGradient>
    <linearGradient
       gradientUnits="userSpaceOnUse"
       gradientTransform="translate(0.94915,5.2881)"
       y2="6.2638"
       y1="36.168"
       x2="21.3"
       x1="21.3"
       id="h">
      <stop
         id="stop12"
         offset="0"
         stop-color="#bf4231" />
      <stop
         id="stop14"
         offset="1"
         stop-color="#f58273" />
    </linearGradient>
    <linearGradient
       gradientUnits="userSpaceOnUse"
       gradientTransform="translate(0.94915,5.2881)"
       y2="8.1237"
       y1="35.756"
       x2="30.728"
       x1="30.728"
       id="a">
      <stop
         id="stop17"
         offset="0"
         stop-color="#cd7223" />
      <stop
         id="stop19"
         offset="1"
         stop-color="#ffc169" />
    </linearGradient>
    <linearGradient
       gradientUnits="userSpaceOnUse"
       gradientTransform="translate(0.94915,5.2881)"
       y2="11.247"
       y1="38.07"
       x2="38.091"
       x1="38.091"
       id="b">
      <stop
         id="stop22"
         offset="0"
         stop-color="#ffa92d" />
      <stop
         id="stop24"
         offset="1"
         stop-color="#edf573" />
    </linearGradient>
    <linearGradient
       gradientUnits="userSpaceOnUse"
       gradientTransform="translate(0.94915,5.2881)"
       y2="24.027"
       y1="47.869"
       x2="31.632"
       x1="31.632"
       id="c">
      <stop
         id="stop27"
         offset="0"
         stop-color="#2b4d37" />
      <stop
         id="stop29"
         offset="1"
         stop-color="#3bb566" />
    </linearGradient>
    <linearGradient
       gradientUnits="userSpaceOnUse"
       gradientTransform="translate(0.94915,5.2881)"
       y2="27.686"
       y1="47.295"
       x2="19.26"
       x1="19.26"
       id="f">
      <stop
         id="stop32"
         offset="0"
         stop-color="#375a7d" />
      <stop
         id="stop34"
         offset="1"
         stop-color="#54a3d8" />
    </linearGradient>
    <linearGradient
       gradientUnits="userSpaceOnUse"
       gradientTransform="matrix(3.7795,0,0,3.7795,-70.535932,0.031541)"
       y2="1.852"
       y1="15.081"
       x2="7.9373"
       x1="7.9373"
       id="linearGradient862-3">
      <stop
         id="stop37"
         offset="0"
         stop-color="#f1efeb" />
      <stop
         id="stop39"
         offset="1"
         stop-color="#fdfcfc" />
    </linearGradient>
    <filter
       color-interpolation-filters="sRGB"
       height="1.216"
       width="1.216"
       y="-.108"
       x="-.108"
       id="filter920">
      <feGaussianBlur
         id="feGaussianBlur42"
         stdDeviation="1.800018" />
    </filter>
    <linearGradient
       id="linearGradient1005-9"
       x1=".73911"
       x2="16.388"
       y1="16.296"
       y2=".64687"
       gradientTransform="matrix(3.7795,0,0,3.7795,-0.13143,0.0251)"
       gradientUnits="userSpaceOnUse">
      <stop
         stop-color="#cfdade"
         offset="0"
         id="stop923" />
      <stop
         stop-color="#eaeff2"
         offset="1"
         id="stop925" />
    </linearGradient>
    <clipPath
       id="clipPath13429">
      <path
         d="m481 318h22v22h-22z"
         id="path928" />
    </clipPath>
    <clipPath
       id="clipPath13465">
      <path
         d="m507 318h22v22h-22z"
         id="path931" />
    </clipPath>
    <clipPath
       id="clipPath13501">
      <path
         d="m530 318h22v22h-22z"
         id="path934" />
    </clipPath>
    <clipPath
       id="clipPath13753">
      <path
         d="m672 1064c0-1.105 4.925-2 11-2s11 0.895 11 2-4.925 2-11 2-11-0.895-11-2"
         id="path937" />
    </clipPath>
    <clipPath
       id="clipPath13771">
      <path
         d="m660 1057h51v65.001h-51z"
         id="path940" />
    </clipPath>
    <clipPath
       id="clipPath14035">
      <path
         d="m659 517h53v18h-53z"
         id="path943" />
    </clipPath>
    <clipPath
       id="clipPath14127">
      <path
         d="m659 500h53v18h-53z"
         id="path946" />
    </clipPath>
    <clipPath
       id="clipPath14445">
      <path
         d="m648 112h73v60h-73z"
         id="path949" />
    </clipPath>
    <clipPath
       id="clipPath14609">
      <path
         d="m826 1056h59v60h-59z"
         id="path952" />
    </clipPath>
    <clipPath
       id="clipPath15305">
      <path
         d="m805 276h100v100h-100z"
         id="path955" />
    </clipPath>
    <clipPath
       id="clipPath15341">
      <path
         d="m145 1063.8h74.152v45.21h-74.152z"
         id="path958" />
    </clipPath>
    <clipPath
       id="clipPath15715">
      <path
         d="m151 667h57v57h-57z"
         id="path961" />
    </clipPath>
    <clipPath
       id="clipPath15807">
      <path
         d="m154 697h51v51h-51z"
         id="path964" />
    </clipPath>
    <clipPath
       id="clipPath16001">
      <path
         d="m500.04 864.45h36.012v67.52h-36.012z"
         id="path967" />
    </clipPath>
    <clipPath
       id="clipPath16093">
      <path
         d="m836 870.54h47v55.539h-47z"
         id="path970" />
    </clipPath>
    <clipPath
       id="clipPath16477">
      <path
         d="m318.03 702.35h62.848v37.991h-62.848z"
         id="path973" />
    </clipPath>
    <clipPath
       id="clipPath16579">
      <path
         d="m485.03 133.35h62.847v37.991h-62.847z"
         id="path976" />
    </clipPath>
    <clipPath
       id="clipPath16709">
      <path
         d="m493.37 677.93h45.643v68.067h-45.643z"
         id="path979" />
    </clipPath>
    <clipPath
       id="clipPath24218">
      <path
         d="m144.34 1018.2h71.467v78h-71.467z"
         id="path982" />
    </clipPath>
    <clipPath
       id="clipPath24382">
      <path
         d="m293.21 1068.6 66.323-38.292 36.047 62.435-66.323 38.292z"
         id="path985" />
    </clipPath>
    <clipPath
       id="clipPath24650">
      <path
         d="m488.86 1054.5h10v10.706h-10z"
         id="path988" />
    </clipPath>
    <clipPath
       id="clipPath24700">
      <path
         d="m508 1066.8h10.001v10.705h-10.001z"
         id="path991" />
    </clipPath>
    <clipPath
       id="clipPath24750">
      <path
         d="m525 1045.8h10v10.706h-10z"
         id="path994" />
    </clipPath>
    <clipPath
       id="clipPath24864">
      <path
         d="m836 1043.7h25.5v31.5h-25.5z"
         id="path997" />
    </clipPath>
    <clipPath
       id="clipPath24896">
      <path
         d="m838 1062.2h24v24h-24z"
         id="path1000" />
    </clipPath>
    <clipPath
       id="clipPath25070">
      <path
         d="m134 489.24h7v6h-7z"
         id="path1003" />
    </clipPath>
    <clipPath
       id="clipPath25100">
      <path
         d="m216 489.24h7v6h-7z"
         id="path1006" />
    </clipPath>
    <clipPath
       id="clipPath25502">
      <path
         d="m838 477.24h22v22h-22z"
         id="path1009" />
    </clipPath>
    <clipPath
       id="clipPath25686">
      <path
         d="m704 1061.2h25v25h-25z"
         id="path1012" />
    </clipPath>
    <clipPath
       id="clipPath25788">
      <path
         d="m663.04 1078.6-1.808-3.514-21.07-47.453c13.336-18.439 48.336-26.938 73.836-3.439 0.842 0 6.476 6.246 6 7l-18.386 25.895c-0.483 0.765-1.453 0.946-2.177 0.431l-15.505-11.011c-0.359-0.255-0.847-0.153-1.07 0.238l-18.272 31.869c-0.218 0.384-0.502 0.578-0.782 0.578-0.282 0-0.561-0.197-0.766-0.594"
         id="path1015" />
    </clipPath>
    <clipPath
       id="clipPath26420">
      <path
         d="m127 820.24h100v100h-100z"
         id="path1018" />
    </clipPath>
    <clipPath
       id="clipPath26860">
      <path
         d="m809 680.24c0-22.092 17.908-40 40-40s40 17.908 40 40c0 22.091-17.908 40-40 40s-40-17.909-40-40"
         id="path1021" />
    </clipPath>
    <clipPath
       id="clipPath27506">
      <path
         d="m658 469.24h44v45h-44z"
         id="path1024" />
    </clipPath>
    <clipPath
       id="clipPath27772">
      <path
         d="m651 271.24h58v58h-58z"
         id="path1027" />
    </clipPath>
    <clipPath
       id="clipPath27864">
      <path
         d="m662 307.24h38v8h-38z"
         id="path1030" />
    </clipPath>
    <clipPath
       id="clipPath28028">
      <path
         d="m858.98 137.24c0.013-0.101 0.021-0.203 0.021-0.307v-6.693h15.75c1.237 0 2.25-1.013 2.25-2.25v-11.25l-27-4.5-27 4.5v-2.25l27-4.5 27 4.5v-27c0-1.237-1.013-2.25-2.25-2.25h-49.5c-1.237 0-2.25 1.013-2.25 2.25v-4.25h54v54zm-35.979 0v-9.25c0 1.237 1.013 2.25 2.25 2.25h15.75v6.693c0 0.104 7e-3 0.207 0.02 0.307zm22.5-7h9v4.5h-9zm1.125-9c-0.62 0-1.125-0.506-1.125-1.125v-2.25c0-0.619 0.505-1.125 1.125-1.125h6.75c0.619 0 1.125 0.506 1.125 1.125v2.25c0 0.619-0.506 1.125-1.125 1.125z"
         id="path1033" />
    </clipPath>
    <clipPath
       id="clipPath28200">
      <path
         d="m531.27 136.24c6.325-2.29 10.727-8.277 10.727-15.484 0-11.316-10.2-20.563-25.65-34.575l-4.35-3.941-4.35 3.941c-15.45 14.012-25.65 23.259-25.65 34.575v-39.516h60v55zm-26.983 0c2.995-1.052 5.686-2.883 7.71-5.25 2.024 2.367 4.715 4.198 7.71 5.25zm-22.29 0v-15.484c0 7.207 4.402 13.194 10.727 15.484z"
         id="path1036" />
    </clipPath>
    <clipPath
       id="clipPath28364">
      <path
         d="m648 79.241h64v64h-64z"
         id="path1039" />
    </clipPath>
    <clipPath
       id="clipPath28984">
      <path
         d="m500 691.74c0-3.037 2.463-5.5 5.5-5.5s5.5 2.463 5.5 5.5-2.463 5.5-5.5 5.5-5.5-2.463-5.5-5.5"
         id="path1042" />
    </clipPath>
    <clipPath
       id="clipPath29012">
      <path
         d="m500 669.74c0-3.037 2.463-5.5 5.5-5.5s5.5 2.463 5.5 5.5c0 3.038-2.463 5.5-5.5 5.5s-5.5-2.462-5.5-5.5"
         id="path1045" />
    </clipPath>
    <clipPath
       id="clipPath29040">
      <path
         d="m494 680.74c0-3.037 2.462-5.5 5.5-5.5s5.5 2.463 5.5 5.5c0 3.038-2.462 5.5-5.5 5.5s-5.5-2.462-5.5-5.5"
         id="path1048" />
    </clipPath>
    <clipPath
       id="clipPath29068">
      <path
         d="m513 691.74c0-3.037 2.463-5.5 5.5-5.5s5.5 2.463 5.5 5.5-2.463 5.5-5.5 5.5-5.5-2.463-5.5-5.5"
         id="path1051" />
    </clipPath>
    <clipPath
       id="clipPath29096">
      <path
         d="m513 669.74c0-3.037 2.463-5.5 5.5-5.5s5.5 2.463 5.5 5.5c0 3.038-2.463 5.5-5.5 5.5s-5.5-2.462-5.5-5.5"
         id="path1054" />
    </clipPath>
    <clipPath
       id="clipPath29124">
      <path
         d="m507 680.74c0-3.037 2.463-5.5 5.5-5.5s5.5 2.463 5.5 5.5c0 3.038-2.463 5.5-5.5 5.5s-5.5-2.462-5.5-5.5"
         id="path1057" />
    </clipPath>
    <clipPath
       id="clipPath29152">
      <path
         d="m520 680.74c0-3.037 2.463-5.5 5.5-5.5s5.5 2.463 5.5 5.5c0 3.038-2.463 5.5-5.5 5.5s-5.5-2.462-5.5-5.5"
         id="path1060" />
    </clipPath>
    <clipPath
       id="clipPath29252">
      <path
         d="m321 322.24c-4.97 0-9-4.029-9-9 0-4.97 4.03-9 9-9h45c4.971 0 9 4.03 9 9 0 4.971-4.029 9-9 9z"
         id="path1063" />
    </clipPath>
    <clipPath
       id="clipPath29280">
      <path
         d="m322 297.24c-4.971 0-9-4.029-9-9 0-4.97 4.029-9 9-9h45c4.971 0 9 4.03 9 9 0 4.971-4.029 9-9 9z"
         id="path1066" />
    </clipPath>
    <clipPath
       id="clipPath29400">
      <path
         d="m155 83.24h44v53h-44z"
         id="path1069" />
    </clipPath>
    <linearGradient
       id="linearGradient1011">
      <stop
         stop-color="#4bebfb"
         offset="0"
         id="stop1072" />
      <stop
         stop-color="#2fcaf5"
         offset=".49979"
         id="stop1074" />
      <stop
         stop-color="#40bce8"
         offset="1"
         id="stop1076" />
    </linearGradient>
    <style
       type="text/css"
       id="style1079" />
    <linearGradient
       id="linearGradient995"
       x1="32.342"
       x2="32.342"
       y1="2.1827"
       y2="62.01"
       gradientTransform="scale(0.26458)"
       gradientUnits="userSpaceOnUse">
      <stop
         stop-color="#99b4c0"
         offset="0"
         id="stop1081" />
      <stop
         stop-color="#537080"
         offset="1"
         id="stop1083" />
    </linearGradient>
    <linearGradient
       id="linearGradient1013"
       x1="6.0853"
       x2="10.848"
       y1="-8.4665"
       y2="-8.4665"
       gradientTransform="matrix(0.94444,0,0,0.94444,0.47036,-0.47036)"
       gradientUnits="userSpaceOnUse"
       xlink:href="#linearGradient1011" />
    <linearGradient
       id="linearGradient1025"
       x1="3.5957"
       x2="7.5688"
       y1="-8.4665"
       y2="-8.4665"
       gradientUnits="userSpaceOnUse">
      <stop
         stop-color="#58edfd"
         offset="0"
         id="stop1087" />
      <stop
         stop-color="#24ccf5"
         offset="1"
         id="stop1089" />
    </linearGradient>
    <linearGradient
       id="linearGradient1029"
       x1="13.313"
       x2="7.3018"
       y1="-8.4665"
       y2="-8.4665"
       gradientUnits="userSpaceOnUse">
      <stop
         stop-color="#7dafc6"
         offset="0"
         id="stop1092" />
      <stop
         stop-color="#cee1ea"
         offset="1"
         id="stop1094" />
    </linearGradient>
    <filter
       id="filter1139"
       x="-.432"
       y="-.432"
       width="1.864"
       height="1.864"
       color-interpolation-filters="sRGB">
      <feGaussianBlur
         stdDeviation="0.80960904"
         id="feGaussianBlur1097" />
    </filter>
    <filter
       id="filter904"
       x="-.108"
       y="-.108"
       width="1.216"
       height="1.216"
       color-interpolation-filters="sRGB">
      <feGaussianBlur
         stdDeviation="0.20240099"
         id="feGaussianBlur1100" />
    </filter>
    <linearGradient
       id="a-3"
       x1="32"
       x2="32"
       y1="2"
       y2="62"
       gradientTransform="translate(147.7029,0.81327822)"
       gradientUnits="userSpaceOnUse">
      <stop
         stop-color="#f5faff"
         offset="0"
         id="stop1884" />
      <stop
         stop-color="#cfdef0"
         offset="1"
         id="stop1886" />
    </linearGradient>
    <linearGradient
       id="b-6"
       x1="25.869"
       x2="24.539"
       y1="39.24"
       y2="10.624"
       gradientTransform="matrix(1.3028,0,0,1.3028,-2.503,2.2271)"
       gradientUnits="userSpaceOnUse">
      <stop
         stop-color="#1973c8"
         offset="0"
         id="stop1889" />
      <stop
         stop-color="#3ca0f0"
         offset="1"
         id="stop1891" />
    </linearGradient>
    <linearGradient
       id="d"
       x1="27.04"
       x2="24.839"
       y1="16.621"
       y2="17.991"
       gradientUnits="userSpaceOnUse">
      <stop
         stop-color="#fff"
         offset="0"
         id="stop1894" />
      <stop
         stop-color="#afd2f5"
         offset="1"
         id="stop1896" />
    </linearGradient>
    <linearGradient
       id="g-7"
       x1="3.783"
       x2="19.574"
       y1="23.644"
       y2="22.495"
       gradientUnits="userSpaceOnUse">
      <stop
         stop-color="#2980b9"
         offset="0"
         id="stop1899" />
      <stop
         stop-color="#34495e"
         offset="1"
         id="stop1901" />
    </linearGradient>
    <linearGradient
       id="c-5"
       x1="29.507"
       x2="35.895"
       y1="28.849"
       y2="32.639"
       gradientUnits="userSpaceOnUse">
      <stop
         offset="0"
         id="stop1904" />
      <stop
         stop-opacity="0"
         offset="1"
         id="stop1906" />
    </linearGradient>
    <filter
       id="h-3"
       x="-.023485"
       y="-.024538"
       width="1.047"
       height="1.0491"
       color-interpolation-filters="sRGB">
      <feGaussianBlur
         stdDeviation="0.29216796"
         id="feGaussianBlur1909" />
    </filter>
    <linearGradient
       gradientTransform="translate(-65.28054)"
       gradientUnits="userSpaceOnUse"
       y2="2.336828"
       x2="98.305794"
       y1="61.98315"
       x1="98.305794"
       id="linearGradient2111"
       xlink:href="#linearGradient2109"
       inkscape:collect="always" />
  </defs>
  <circle
     r="30"
     cy="32"
     cx="32"
     id="path2103"
     style="fill:url(#linearGradient2111);fill-opacity:1;stroke-width:2.53919;stroke-linecap:round" />
  <g
     id="g91"
     stroke-width="0.83333"
     transform="matrix(1.2,0,0,1.2,2.06072,-3.1456)">
    <path
       style="fill:url(#a)"
       id="path77"
       fill="url(#a)"
       d="m 28.589,9.6673 -4.7684,13.484 18.773,-3.1379 C 39.8121,14.7074 34.6874,10.809 28.5846,9.6674" />
    <path
       style="fill:url(#b)"
       id="path79"
       fill="url(#b)"
       d="m 43.829,22.952 -14.139,2.6401 12.125,14.584 c 3.2355,-5.0452 4.0725,-11.403 2.0145,-17.225" />
    <path
       style="fill:url(#c)"
       id="path81"
       fill="url(#c)"
       d="M 39.989,42.39 30.6181,31.546 23.9655,49.269 c 6.016,0.25977 11.978,-2.1986 16.025,-6.8794" />
    <path
       style="fill:url(#f)"
       id="path83"
       fill="url(#f)"
       d="m 21.186,48.919 4.7684,-13.484 -18.773,3.1379 c 2.7815,5.306 7.9062,9.2044 14.009,10.346" />
    <path
       style="fill:url(#g)"
       id="path85"
       fill="url(#g)"
       d="M 6.0698,35.614 20.2088,32.9739 8.0838,18.3899 C 4.8483,23.4351 4.0113,29.7929 6.0693,35.6149" />
    <circle
       style="fill:url(#m)"
       id="circle87"
       fill="url(#m)"
       r="3"
       cy="29.288"
       cx="24.948999" />
    <path
       style="fill:url(#h)"
       id="path89"
       fill="url(#h)"
       d="M 9.8646,16.186 19.2355,27.03 25.8881,9.307 c -6.016,-0.25977 -11.978,2.1986 -16.025,6.8794" />
  </g>
</svg>
