<?xml version="1.0" encoding="UTF-8"?>
<!-- Created with Inkscape (http://www.inkscape.org/) -->
<svg width="64" height="64" version="1.1" viewBox="0 0 16.933 16.933" xmlns="http://www.w3.org/2000/svg" xmlns:xlink="http://www.w3.org/1999/xlink">
 <defs>
  <linearGradient id="linearGradient1854" x1="32" x2="32" y1="2" y2="62" gradientTransform="matrix(.26458 0 0 .26458 14.218 11.242)" gradientUnits="userSpaceOnUse">
   <stop stop-color="#f5faff" offset="0"/>
   <stop stop-color="#cfdef0" offset="1"/>
  </linearGradient>
 </defs>
 <g transform="translate(-14.151 -11.027)">
  <circle cx="22.618" cy="19.493" r="7.9375" fill="url(#linearGradient1854)" stroke-width=".26458" style="paint-order:stroke markers fill"/>
  <path d="m24.544 23.333h-0.18645v1.6781l-2.1111-1.6781h-1.5558a1.8645 1.8645 0 0 1-1.8645-1.8645v-3.8533a1.8645 1.8645 0 0 1 1.8645-1.8645h3.8533a1.8645 1.8645 0 0 1 1.8645 1.8645v3.8533a1.8645 1.8645 0 0 1-1.8645 1.8645zm0.6547-4.1374-0.24618-0.76942a0.12492 0.12492 0 0 0-0.15631-0.0808l-1.634 0.52268-0.03319-1.7526a0.12474 0.12474 0 0 0-0.12834-0.12119l-0.81914 0.01554a0.12486 0.12486 0 0 0-0.12368 0.12616l0.03294 1.7415-1.6856-0.58111a0.1243 0.1243 0 0 0-0.15805 0.07707l-0.26346 0.76383a0.1243 0.1243 0 0 0 0.077 0.15786l1.6692 0.57551-1.057 1.4145a0.1243 0.1243 0 0 0 0.02483 0.17402l0.64724 0.48353a0.1243 0.1243 0 0 0 0.17402-0.02486l1.057-1.4145 1.025 1.4375a0.1243 0.1243 0 0 0 0.17334 0.02921l0.65792-0.46924a0.1243 0.1243 0 0 0 0.02902-0.1734l-1.0249-1.4375 1.6817-0.53822a0.12387 0.12387 0 0 0 0.08067-0.156z" fill="#0188fb" stroke-width=".0090434" p-id="3776"/>
 </g>
</svg>
