<?xml version="1.0" encoding="UTF-8" standalone="no"?>
<svg
   xmlns:dc="http://purl.org/dc/elements/1.1/"
   xmlns:cc="http://creativecommons.org/ns#"
   xmlns:rdf="http://www.w3.org/1999/02/22-rdf-syntax-ns#"
   xmlns:svg="http://www.w3.org/2000/svg"
   xmlns="http://www.w3.org/2000/svg"
   xmlns:xlink="http://www.w3.org/1999/xlink"
   xmlns:sodipodi="http://sodipodi.sourceforge.net/DTD/sodipodi-0.dtd"
   xmlns:inkscape="http://www.inkscape.org/namespaces/inkscape"
   inkscape:version="1.0 (4035a4fb49, 2020-05-01)"
   sodipodi:docname="deluge.svg"
   id="svg48"
   version="1.1"
   height="64"
   width="64">
  <metadata
     id="metadata52">
    <rdf:RDF>
      <cc:Work
         rdf:about="">
        <dc:format>image/svg+xml</dc:format>
        <dc:type
           rdf:resource="http://purl.org/dc/dcmitype/StillImage" />
        <dc:title></dc:title>
      </cc:Work>
    </rdf:RDF>
  </metadata>
  <sodipodi:namedview
     inkscape:current-layer="svg48"
     inkscape:window-maximized="1"
     inkscape:window-y="65"
     inkscape:window-x="0"
     inkscape:cy="30.056419"
     inkscape:cx="-58.549353"
     inkscape:zoom="2.8671875"
     showgrid="false"
     id="namedview50"
     inkscape:window-height="903"
     inkscape:window-width="1920"
     inkscape:pageshadow="2"
     inkscape:pageopacity="0"
     guidetolerance="10"
     gridtolerance="10"
     objecttolerance="10"
     borderopacity="1"
     bordercolor="#666666"
     pagecolor="#ffffff" />
  <defs
     id="defs20">
    <linearGradient
       id="linearGradient1083"
       inkscape:collect="always">
      <stop
         id="stop1079"
         offset="0"
         style="stop-color:#1a84f2;stop-opacity:1" />
      <stop
         id="stop1081"
         offset="1"
         style="stop-color:#21c2fa;stop-opacity:1" />
    </linearGradient>
    <linearGradient
       gradientUnits="userSpaceOnUse"
       gradientTransform="matrix(2.1429,0,0,2.1429,-826.36,-1107.5)"
       y2="517.8"
       y1="545.8"
       x2="399.57"
       x1="399.57"
       id="b">
      <stop
         id="stop2"
         offset="0"
         stop-color="#3889e9" />
      <stop
         id="stop4"
         offset="1"
         stop-color="#5ea5fb" />
    </linearGradient>
    <filter
       color-interpolation-filters="sRGB"
       height="1.1962"
       width="1.2551"
       y="-.098103"
       x="-.12753"
       id="e">
      <feGaussianBlur
         id="feGaussianBlur7"
         stdDeviation="1.062784" />
    </filter>
    <linearGradient
       gradientUnits="userSpaceOnUse"
       gradientTransform="matrix(3.7795,0,0,3.7795,-98.844288,0.031541)"
       y2="1.852"
       y1="15.081"
       x2="7.9373"
       x1="7.9373"
       id="linearGradient862-3">
      <stop
         id="stop10"
         offset="0"
         stop-color="#197ff1" />
      <stop
         id="stop12"
         offset="1"
         stop-color="#21c6fb" />
    </linearGradient>
    <radialGradient
       gradientUnits="userSpaceOnUse"
       gradientTransform="matrix(1,0,0,1.8994,0,-32.571)"
       r="10"
       cy="37.736"
       cx="31.397"
       id="radialGradient879">
      <stop
         id="stop15"
         offset="0"
         stop-color="#fff" />
      <stop
         id="stop17"
         offset="1"
         stop-color="#d1d1d1" />
    </radialGradient>
    <linearGradient
       id="linearGradient938"
       x1="80.368"
       x2="82.141"
       y1="13.177"
       y2="14.704"
       gradientTransform="matrix(3.6342385,0,0,3.6342385,-246.71373,-6.3936606)"
       gradientUnits="userSpaceOnUse">
      <stop
         stop-color="#fafafa"
         offset="0"
         id="stop879" />
      <stop
         stop-color="#90a0b3"
         offset="1"
         id="stop881" />
    </linearGradient>
    <filter
       id="filter1066"
       x="-.063923"
       y="-.056531"
       width="1.1278"
       height="1.1131"
       color-interpolation-filters="sRGB">
      <feGaussianBlur
         stdDeviation="0.22705935"
         id="feGaussianBlur884" />
    </filter>
    <filter
       id="filter1100"
       x="-.12197"
       y="-.11848"
       width="1.2439"
       height="1.237"
       color-interpolation-filters="sRGB">
      <feGaussianBlur
         stdDeviation="0.47586465"
         id="feGaussianBlur887" />
    </filter>
    <linearGradient
       gradientTransform="translate(124.02441,0.98354026)"
       gradientUnits="userSpaceOnUse"
       y2="31.01646"
       x2="-63.24884"
       y1="31.01646"
       x1="-120.79999"
       id="linearGradient1085"
       xlink:href="#linearGradient1083"
       inkscape:collect="always" />
  </defs>
  <path
     d="m 51.821287,3.2413528 c -0.292429,-0.025922 -0.59294,-0.022556 -0.896484,0.011719 L 7.1416024,8.1964309 c -2.42836,0.2741953 -4.16287,2.4485941 -3.88867,4.8769531 l 4.94336,43.785156 c 0.27419,2.428359 2.4505396,4.162867 4.8788996,3.888672 l 43.783204,-4.945313 c 2.428359,-0.274195 4.162868,-2.448594 3.888672,-4.876953 L 55.803709,7.1397903 C 55.563788,5.0149763 53.868289,3.4228038 51.821287,3.2413528 Z"
     style="fill:url(#linearGradient1085);fill-opacity:1;stroke:none;stroke-linecap:round"
     id="rect1074" />
  <circle
     id="circle38"
     stroke-width="1.5715"
     fill="url(#b)"
     r="0"
     cy="32.044"
     cx="32.02" />
  <path
     d="M 7.5880975,52.816073"
     stroke="#000000"
     stroke-width="0.961531px"
     id="path918"
     style="fill:none" />
  <g
     id="g46"
     transform="matrix(1.4,0,0,1.4,-11.95636,-14.436491)">
    <path
       id="path40"
       style="paint-order:normal"
       opacity="0.15"
       filter="url(#e)"
       d="m 21.397,38.169 c 0,-7 10,-18 10,-18 0,0 10,11 10,18 0,4 -2,8 -9,8 -7,0 -11,-3 -11,-8 z" />
    <path
       id="path42"
       style="fill:url(#radialGradient879);paint-order:normal"
       opacity="0.9"
       fill="url(#radialGradient879)"
       d="m 21.397,38.169 c 0,-7 10,-18 10,-18 0,0 10,11 10,18 0,4 -2,8 -9,8 -7,0 -11,-3 -11,-8 z" />
    <path
       id="path44"
       opacity="0.1"
       d="m 30.397,28.169 c -2,0 -2.8289,0.46684 -4,1 -1.7933,2.5 -3,5 -3,8 0,4 4,8 8,8 4.3813,0 6,-1 7,-2 -0.773,-0.824 -1.6138,-1.0841 -3,-1.5 -5,-1.5 -6,-4.5 -6,-6.5 0,-1.8538 1,-4 3,-4 2,0 3.5,1.5 3.5,1.5 -0.82469,-2.5 -1.5,-4.5 -5.5,-4.5 z" />
  </g>
</svg>
