<?xml version="1.0" encoding="UTF-8" standalone="no"?>
<svg
   xmlns:dc="http://purl.org/dc/elements/1.1/"
   xmlns:cc="http://creativecommons.org/ns#"
   xmlns:rdf="http://www.w3.org/1999/02/22-rdf-syntax-ns#"
   xmlns:svg="http://www.w3.org/2000/svg"
   xmlns="http://www.w3.org/2000/svg"
   xmlns:xlink="http://www.w3.org/1999/xlink"
   xmlns:sodipodi="http://sodipodi.sourceforge.net/DTD/sodipodi-0.dtd"
   xmlns:inkscape="http://www.inkscape.org/namespaces/inkscape"
   width="64"
   height="64"
   version="1.1"
   id="svg41"
   sodipodi:docname="dingtalk.svg"
   inkscape:version="1.0.1 (3bc2e813f5, 2020-09-07)">
  <sodipodi:namedview
     pagecolor="#ffffff"
     bordercolor="#666666"
     borderopacity="1"
     objecttolerance="10"
     gridtolerance="10"
     guidetolerance="10"
     inkscape:pageopacity="0"
     inkscape:pageshadow="2"
     inkscape:window-width="1920"
     inkscape:window-height="935"
     id="namedview43"
     showgrid="false"
     inkscape:zoom="6.0546875"
     inkscape:cx="-5.7803864"
     inkscape:cy="35.36067"
     inkscape:window-x="0"
     inkscape:window-y="38"
     inkscape:window-maximized="1"
     inkscape:current-layer="svg41"
     inkscape:document-rotation="0" />
  <metadata
     id="metadata2">
    <rdf:RDF>
      <cc:Work
         rdf:about="">
        <dc:format>image/svg+xml</dc:format>
        <dc:type
           rdf:resource="http://purl.org/dc/dcmitype/StillImage" />
        <dc:title></dc:title>
      </cc:Work>
    </rdf:RDF>
  </metadata>
  <defs
     id="defs25">
    <linearGradient
       id="b"
       x1="399.57"
       x2="399.57"
       y1="545.8"
       y2="517.8"
       gradientTransform="matrix(2.1429,0,0,2.1429,-826.36,-1107.5)"
       gradientUnits="userSpaceOnUse">
      <stop
         stop-color="#3889e9"
         offset="0"
         id="stop4" />
      <stop
         stop-color="#5ea5fb"
         offset="1"
         id="stop6" />
    </linearGradient>
    <linearGradient
       id="a"
       x1="399.99"
       x2="399.99"
       y1="545.14"
       y2="518.14"
       gradientTransform="matrix(2.1429,0,0,2.1429,-826.36,-1107.5)"
       gradientUnits="userSpaceOnUse">
      <stop
         stop-color="#197ff1"
         offset="0"
         id="stop9" />
      <stop
         stop-color="#21c6fb"
         offset="1"
         id="stop11" />
    </linearGradient>
    <filter
       id="c"
       x="-.036"
       y="-.036"
       width="1.072"
       height="1.072"
       color-interpolation-filters="sRGB">
      <feGaussianBlur
         stdDeviation="0.41999874"
         id="feGaussianBlur14" />
    </filter>
    <linearGradient
       id="linearGradient862"
       x1="31.757"
       x2="31.757"
       y1="50.499"
       y2="14.54"
       gradientUnits="userSpaceOnUse">
      <stop
         stop-color="#e4f9ff"
         offset="0"
         id="stop17" />
      <stop
         stop-color="#acd9fb"
         offset="1"
         id="stop19" />
    </linearGradient>
    <filter
       id="filter882"
       x="-.068068"
       y="-.053642"
       width="1.1361"
       height="1.1073"
       color-interpolation-filters="sRGB">
      <feGaussianBlur
         stdDeviation="0.80369539"
         id="feGaussianBlur22" />
    </filter>
    <style
       type="text/css"
       id="style870" />
    <linearGradient
       id="linearGradient1005"
       x1=".73911"
       x2="16.388"
       y1="16.296"
       y2=".64687"
       gradientTransform="matrix(3.7795622,0,0,3.7795622,-0.13165,0.0246129)"
       gradientUnits="userSpaceOnUse">
      <stop
         stop-color="#00a0ff"
         offset="0"
         id="stop872" />
      <stop
         stop-color="#37beff"
         offset="1"
         id="stop874" />
    </linearGradient>
    <linearGradient
       id="w"
       x1="123.64"
       x2="146.53"
       y1="131.03"
       y2="174.71"
       gradientTransform="matrix(4.2812,0,0,3.5908,41,42)"
       gradientUnits="userSpaceOnUse">
      <stop
         stop-color="#fafafa"
         offset="0"
         id="stop877" />
      <stop
         stop-color="#fff"
         offset="1"
         id="stop879" />
    </linearGradient>
    <filter
       id="filter1152"
       x="-.055255"
       y="-.065641"
       width="1.1105"
       height="1.1313"
       color-interpolation-filters="sRGB">
      <feGaussianBlur
         stdDeviation="2.9934784"
         id="feGaussianBlur882" />
    </filter>
    <linearGradient
       id="linearGradient882"
       x1="38.775"
       x2="38.775"
       y1="33.726"
       y2="14.795"
       gradientTransform="matrix(1.3043,0,0,1.3043,-19.132,0.1443)"
       gradientUnits="userSpaceOnUse">
      <stop
         stop-color="#d5ecf6"
         offset="0"
         id="stop864" />
      <stop
         stop-color="#f7fbfd"
         offset="1"
         id="stop866" />
    </linearGradient>
    <linearGradient
       id="linearGradient1159-3"
       x1="-184.75"
       x2="-170.2"
       y1="-1.2655"
       y2="-15.817"
       gradientTransform="matrix(3.7796,0,0,3.7796,702.82,64.287)"
       gradientUnits="userSpaceOnUse">
      <stop
         stop-color="#05a0f0"
         offset="0"
         id="stop869" />
      <stop
         stop-color="#2db4f0"
         offset="1"
         id="stop871" />
    </linearGradient>
    <filter
       id="c-3"
       x="-.036"
       y="-.036"
       width="1.072"
       height="1.072"
       color-interpolation-filters="sRGB">
      <feGaussianBlur
         stdDeviation="0.23812031"
         id="feGaussianBlur2" />
    </filter>
    <filter
       id="b-6"
       x="-.055391"
       y="-.065445"
       width="1.1108"
       height="1.1309"
       color-interpolation-filters="sRGB">
      <feGaussianBlur
         stdDeviation="0.18996709"
         id="feGaussianBlur5" />
    </filter>
    <linearGradient
       id="a-75"
       x1="8.4665"
       x2="8.4665"
       y1=".52916"
       y2="16.404"
       gradientUnits="userSpaceOnUse">
      <stop
         stop-color="#0891ff"
         offset="0"
         id="stop8" />
      <stop
         stop-color="#12f1ff"
         offset="1"
         id="stop10" />
    </linearGradient>
    <linearGradient
       inkscape:collect="always"
       id="linearGradient1007">
      <stop
         style="stop-color:#37beff;stop-opacity:1"
         offset="0"
         id="stop1003" />
      <stop
         style="stop-color:#00a0ff;stop-opacity:1"
         offset="1"
         id="stop1005" />
    </linearGradient>
    <filter
       id="b-3"
       x="-.036"
       y="-.036"
       width="1.072"
       height="1.072"
       color-interpolation-filters="sRGB">
      <feGaussianBlur
         stdDeviation="0.23812032"
         id="feGaussianBlur2-6" />
    </filter>
    <linearGradient
       id="a-7"
       x1="8.4665"
       x2="8.4665"
       y1=".52915"
       y2="16.404"
       gradientUnits="userSpaceOnUse"
       gradientTransform="translate(19.451456)">
      <stop
         stop-color="#1c2d44"
         offset="0"
         id="stop5" />
      <stop
         stop-color="#334057"
         offset="1"
         id="stop7" />
    </linearGradient>
    <linearGradient
       id="linearGradient1056"
       x1="-170.14"
       x2="-177.47"
       y1="-1.3647"
       y2="-8.5413"
       gradientTransform="translate(169.34311,16.756286)"
       gradientUnits="userSpaceOnUse">
      <stop
         stop-color="#0096ff"
         offset="0"
         id="stop857" />
      <stop
         stop-color="#00dcff"
         offset="1"
         id="stop859" />
    </linearGradient>
    <linearGradient
       id="linearGradient1058"
       x1="-184.75"
       x2="-170.19"
       y1="-8.5413"
       y2="-15.811"
       gradientTransform="translate(169.34311,16.756286)"
       gradientUnits="userSpaceOnUse">
      <stop
         stop-color="#505f64"
         offset="0"
         id="stop862" />
      <stop
         stop-color="#647378"
         offset="1"
         id="stop864-3" />
    </linearGradient>
    <filter
       id="filter1255"
       x="-.06"
       y="-.06"
       width="1.12"
       height="1.12"
       color-interpolation-filters="sRGB">
      <feGaussianBlur
         stdDeviation="0.064633745"
         id="feGaussianBlur867" />
    </filter>
    <filter
       id="filter1269"
       x="-.06"
       y="-.06"
       width="1.12"
       height="1.12"
       color-interpolation-filters="sRGB">
      <feGaussianBlur
         stdDeviation="0.082435125"
         id="feGaussianBlur870" />
    </filter>
    <filter
       id="filter1287"
       x="-.051958"
       y="-.070988"
       width="1.1039"
       height="1.142"
       color-interpolation-filters="sRGB">
      <feGaussianBlur
         stdDeviation="0.07138584"
         id="feGaussianBlur873" />
    </filter>
    <filter
       id="filter959"
       x="-.037149"
       y="-.14184"
       width="1.0743"
       height="1.2837"
       color-interpolation-filters="sRGB">
      <feGaussianBlur
         stdDeviation="0.051039421"
         id="feGaussianBlur876" />
    </filter>
    <linearGradient
       inkscape:collect="always"
       xlink:href="#linearGradient1007"
       id="linearGradient1009"
       x1="15.656315"
       y1="1.2555197"
       x2="1.3523924"
       y2="15.794305"
       gradientUnits="userSpaceOnUse"
       gradientTransform="scale(3.779602)" />
    <linearGradient
       id="linearGradient1005-5"
       x1=".73911"
       x2="16.388"
       y1="16.296"
       y2=".64687"
       gradientTransform="matrix(0.99999,0,0,0.99999,-0.035256,0.0065427)"
       gradientUnits="userSpaceOnUse">
      <stop
         stop-color="#00a0ff"
         offset="0"
         id="stop920" />
      <stop
         stop-color="#37beff"
         offset="1"
         id="stop922" />
    </linearGradient>
    <filter
       id="filter1152-6"
       x="-.055255"
       y="-.065641"
       width="1.1105"
       height="1.1313"
       color-interpolation-filters="sRGB">
      <feGaussianBlur
         stdDeviation="2.9934784"
         id="feGaussianBlur930" />
    </filter>
  </defs>
  <path
     id="path883"
     style="fill:url(#linearGradient1009);fill-opacity:1;stroke-width:3.7796"
     d="m 9.0878895,4.5000011 c -2.541555,0 -4.587888,2.0444963 -4.587888,4.5859389 v 22.914061 22.912105 c 0,2.541556 2.046522,4.587893 4.587888,4.587893 H 32 54.912109 c 2.541556,0 4.587889,-2.046148 4.587889,-4.587893 V 32.04297 9.08594 c 0,-2.541556 -2.044568,-4.5859389 -4.585935,-4.5859389 z" />
  <path
     d="m45.862 27.982c-0.0601 0.26078-0.21596 0.6476-0.43192 1.1094h6e-3l-0.0241 0.0449c-1.2598 2.6924-4.5472 7.9752-4.5472 7.9752l-0.0149-0.036-0.96 1.673h4.6282l-8.842 11.75 2.0094-7.9932h-3.6442l1.2658-5.2857c-1.0226 0.24596-2.2346 0.58448-3.6682 1.0462 0 0-1.9377 1.1335-5.5848-2.1824 0 0-2.4596-2.1679-1.0317-2.7075 0.60582-0.23072 2.9422-0.52469 4.7809-0.77058 2.4894-0.33568 4.016-0.51554 4.016-0.51554s-7.6633 0.11383-9.4809-0.17099c-1.8178-0.28476-4.1241-3.3191-4.6161-5.9846 0 0-0.75887-1.4631 1.6348-0.77058 2.3936 0.69284 12.3 2.6986 12.3 2.6986s-12.882-3.9486-13.743-4.9142c-0.8578-0.95931-2.5224-5.2588-2.3064-7.8971 0 0 0.0931-0.65965 0.77092-0.47986 0 0 9.5259 4.3476 16.038 6.7311 6.5146 2.3836 12.177 3.5948 11.446 6.68z"
     filter="url(#filter882)"
     opacity=".15"
     stroke-width=".069284"
     p-id="582"
     id="path37" />
  <circle
     cx="-1325.0029"
     cy="-1245.4514"
     r="0"
     fill="#5e4aa6"
     id="circle887" />
  <g
     transform="matrix(3.7796,0,0,3.7796,-158.82535,-0.46148529)"
     fill="#5e4aa6"
     stroke-width="0.26458"
     id="g899">
    <circle
       cx="-330.35001"
       cy="-328.38"
       r="0"
       id="circle891" />
    <circle
       cx="-312.10999"
       cy="-326.25"
       r="0"
       id="circle893" />
    <circle
       cx="-306.01999"
       cy="-333.07001"
       r="0"
       id="circle895" />
    <circle
       cx="-308.84"
       cy="-326.01001"
       r="0"
       id="circle897" />
  </g>
  <path
     id="rect980"
     style="fill:#ffffff;fill-opacity:1;stroke-width:2.01449;stroke-linecap:round;stroke-linejoin:round;paint-order:stroke fill markers"
     d="M 18.150391 14.541016 C 17.678484 14.546832 17.607422 15.050781 17.607422 15.050781 C 17.391422 17.689081 19.056262 21.987956 19.914062 22.947266 C 20.775063 23.912866 33.65625 27.861328 33.65625 27.861328 C 33.65625 27.861328 23.751022 25.856903 21.357422 25.164062 C 18.963752 24.471543 19.722656 25.933594 19.722656 25.933594 C 20.214656 28.599094 22.520091 31.633209 24.337891 31.917969 C 26.155491 32.202789 33.818359 32.089844 33.818359 32.089844 C 33.818359 32.089844 32.292134 32.269789 29.802734 32.605469 C 27.964034 32.851359 25.627304 33.14428 25.021484 33.375 C 23.593584 33.9146 26.054688 36.083984 26.054688 36.083984 C 29.701788 39.399884 31.638672 38.265625 31.638672 38.265625 C 33.072272 37.803905 34.284041 37.46471 35.306641 37.21875 L 34.041016 42.505859 L 37.685547 42.505859 L 35.675781 50.498047 L 44.517578 38.748047 L 39.890625 38.748047 L 40.849609 37.076172 L 40.865234 37.111328 C 40.865234 37.111328 44.152309 31.829119 45.412109 29.136719 L 45.435547 29.091797 L 45.429688 29.091797 C 45.645647 28.629997 45.801228 28.243202 45.861328 27.982422 L 45.863281 27.982422 C 46.594281 24.897222 40.930616 23.686334 34.416016 21.302734 C 27.903916 18.919234 18.378906 14.570312 18.378906 14.570312 C 18.294179 14.547839 18.217806 14.540185 18.150391 14.541016 z " />
</svg>
