<?xml version="1.0" encoding="UTF-8"?>
<!-- Created with Inkscape (http://www.inkscape.org/) -->
<svg width="64" height="64" version="1.1" viewBox="0 0 16.933 16.933" xmlns="http://www.w3.org/2000/svg" xmlns:xlink="http://www.w3.org/1999/xlink">
 <defs>
  <linearGradient id="linearGradient2323" x1=".73911" x2="16.388" y1="16.296" y2=".64687" gradientTransform="matrix(.91667 0 0 .91667 20.683 11.331)" gradientUnits="userSpaceOnUse">
   <stop stop-color="#0354f8" offset="0"/>
   <stop stop-color="#008df8" offset="1"/>
  </linearGradient>
  <filter id="filter873" x="-.051553" y="-.071757" width="1.1031" height="1.1435" color-interpolation-filters="sRGB">
   <feGaussianBlur stdDeviation="0.22066716"/>
  </filter>
 </defs>
 <g transform="translate(-20.06 -10.619)">
  <path d="m35.752 19.086c0 0.87225-0.15353 1.7085-0.43509 2.4836-0.19571 0.53871-0.45319 1.048-0.76444 1.5191-0.13037 0.19807-0.27054 0.38936-0.41934 0.57318-0.47635 0.58831-1.0424 1.1006-1.6779 1.5164-0.23402 0.15324-0.47726 0.29343-0.72908 0.41903-0.9779 0.4894-2.0818 0.7647-3.2502 0.7647s-2.2722-0.2753-3.2502-0.76472c-0.25184-0.12563-0.49537-0.2658-0.7294-0.41903-0.64356-0.42142-1.2164-0.94178-1.6966-1.5398-0.14907-0.18531-0.28897-0.37836-0.41934-0.57821-0.30293-0.46328-0.55386-0.96314-0.7457-1.4914-0.28152-0.77484-0.43478-1.6108-0.43478-2.4827 0-4.0185 3.2576-7.276 7.276-7.276 2.0171 0 3.8424 0.82086 5.1604 2.1465 0.37983 0.3819 0.71751 0.80602 1.0049 1.2645 0.27174 0.43182 0.49892 0.8945 0.67562 1.3812 0.28159 0.77512 0.43511 1.6114 0.43511 2.4836z" fill="url(#linearGradient2323)" stroke-width=".028423"/>
  <path transform="matrix(1.3317 0 0 1.3741 16.66 7.4948)" d="m10.792 11.321c0.62511-0.19624 1.1645-0.50057 1.5837-1.0425-2.2945 1.326-4.5644 1.2854-6.8546 0.0092 0.18686 0.26661 0.41187 0.46916 0.6745 0.6212 0.26185 0.1516 0.53978 0.27545 0.82004 0.41624-0.12085 0.15091-0.26427 0.3087-0.3824 0.48353-0.11244 0.16658-0.23994 0.22493-0.44545 0.20104-0.77436-0.08999-1.4705-0.3477-2.0477-0.8867-0.01673-0.01567-0.03246-0.0324-0.04944-0.0477-0.23566-0.21224-0.33404-0.44913-0.31376-0.7918 0.09588-1.622 0.50059-3.1568 1.2091-4.6146 0.03473-0.071457 0.09405-0.14024 0.15895-0.18629 0.566-0.40175 1.1867-0.67927 1.8734-0.79923 0.13107-0.022912 0.26405-0.040069 0.39677-0.045958 0.05395-0.00238 0.10958 0.032329 0.16324 0.07116-0.81592 0.27275-1.5913 0.60135-2.2732 1.1504 2.3432-1.1162 4.6728-1.1714 7.0088-0.028293-0.62447-0.50465-1.3464-0.81737-2.1016-1.0645 0.05638-0.116 0.13508-0.13831 0.25569-0.12708 0.81731 0.075948 1.5471 0.37637 2.2134 0.8437 0.06252 0.043851 0.1209 0.1083 0.15455 0.17635 0.51692 1.0465 0.86535 2.1476 1.0629 3.2979 0.09173 0.53459 0.13898 1.0729 0.14835 1.6143 0.0012 0.07611-0.03103 0.16682-0.0779 0.22763-0.43529 0.56479-1.0155 0.91363-1.6988 1.0881-0.2639 0.06738-0.53912 0.09137-0.8101 0.12864-0.04197 0.0058-0.10548-0.0092-0.13064-0.03879-0.18048-0.21153-0.35356-0.42927-0.53783-0.6559zm-3.6193-1.4464c0.29954-7.29e-4 0.47713-0.06417 0.633-0.19365 0.25477-0.21178 0.34982-0.49078 0.36944-0.81467 0.0219-0.3622-0.11872-0.63159-0.41964-0.81539-0.31046-0.18959-0.63486-0.20526-0.94909-0.0081-0.50436 0.3165-0.59909 1.0694-0.19778 1.5231 0.1756 0.1985 0.39373 0.30659 0.56408 0.3087zm3.3061 0.01398c0.10297-0.02362 0.21076-0.03485 0.30813-0.0729 0.60094-0.23446 0.79229-1.0414 0.37677-1.5732-0.3238-0.4144-0.92712-0.45174-1.296-0.07641-0.24402 0.24824-0.32014 0.55193-0.27855 0.8918 0.0551 0.45044 0.44937 0.81476 0.8897 0.83071z" filter="url(#filter873)" opacity=".2" stroke-width=".045727"/>
  <path d="m31.111 23.051c0.85897-0.26966 1.6001-0.68783 2.1761-1.4325-3.1529 1.822-6.2719 1.7662-9.4189 0.01264 0.25676 0.36635 0.56595 0.64467 0.92683 0.85359 0.35981 0.20831 0.74172 0.3785 1.1268 0.57196-0.16606 0.20736-0.36314 0.42419-0.52546 0.66442-0.1545 0.2289-0.32971 0.30908-0.61209 0.27625-1.064-0.12365-2.0206-0.47777-2.8138-1.2184-0.02299-0.02153-0.0446-0.04452-0.06793-0.06554-0.32382-0.29164-0.45901-0.61715-0.43114-1.088 0.13175-2.2287 0.68786-4.3378 1.6614-6.3409 0.04772-0.09819 0.12923-0.1927 0.21842-0.25598 0.77774-0.55204 1.6306-0.93339 2.5742-1.0982 0.1801-0.03148 0.36283-0.05506 0.5452-0.06315 0.07413-0.0033 0.15057 0.04442 0.2243 0.09778-1.1211 0.37479-2.1866 0.82632-3.1236 1.5807 3.2198-1.5337 6.4209-1.6096 9.6308-0.03888-0.85809-0.69344-1.8501-1.1231-2.8879-1.4627 0.07747-0.15939 0.18561-0.19005 0.35135-0.17462 1.123 0.10436 2.1258 0.51717 3.0415 1.1593 0.08591 0.06025 0.16612 0.14881 0.21236 0.24232 0.7103 1.438 1.1891 2.9511 1.4605 4.5317 0.12604 0.73458 0.19097 1.4742 0.20384 2.2182 0.0016 0.10458-0.04264 0.22922-0.10704 0.31279-0.59813 0.77608-1.3954 1.2554-2.3343 1.4951-0.36263 0.09258-0.7408 0.12555-1.1131 0.17676-0.05767 8e-3 -0.14494-0.01264-0.17951-0.0533-0.248-0.29067-0.48583-0.58986-0.73904-0.90128zm-4.9733-1.9875c0.4116-1e-3 0.65562-0.08817 0.86981-0.2661 0.35008-0.29101 0.48069-0.67438 0.50765-1.1194 0.03009-0.4977-0.16313-0.86787-0.57663-1.1204-0.4266-0.26052-0.87236-0.28205-1.3041-0.01113-0.69304 0.4349-0.82321 1.4694-0.27177 2.0929 0.2413 0.27276 0.54102 0.42129 0.7751 0.42419zm4.5429 0.01921c0.14149-0.03246 0.28961-0.04789 0.4234-0.10017 0.82576-0.32217 1.0887-1.431 0.51772-2.1617-0.44493-0.56943-1.2739-0.62073-1.7808-0.10499-0.33531 0.34111-0.43991 0.7584-0.38276 1.2254 0.07571 0.61895 0.61748 1.1195 1.2225 1.1415z" fill="#fff" stroke-width=".062833"/>
 </g>
</svg>
