<?xml version="1.0" encoding="UTF-8"?>
<!-- Created with Inkscape (http://www.inkscape.org/) -->
<svg width="64" height="64" version="1.1" viewBox="0 0 16.933 16.933" xmlns="http://www.w3.org/2000/svg" xmlns:xlink="http://www.w3.org/1999/xlink">
 <defs>
  <linearGradient id="linearGradient2670" x1="115.54" x2="116.74" y1="32.849" y2="19.81" gradientTransform="matrix(1 0 0 1 -102.61 -5.2282)" gradientUnits="userSpaceOnUse">
   <stop stop-color="#323232" offset="0"/>
   <stop stop-color="#505050" offset="1"/>
  </linearGradient>
  <filter id="filter1012" x="-.10384" y="-.11251" width="1.2077" height="1.225" color-interpolation-filters="sRGB">
   <feGaussianBlur stdDeviation="1.5000926"/>
  </filter>
  <linearGradient id="linearGradient884" x1="21.016" x2="44.623" y1="26.164" y2="37.223" gradientTransform="matrix(.26458 0 0 .26458 13.268 10.212)" gradientUnits="userSpaceOnUse">
   <stop stop-color="#d1d1d1" offset="0"/>
   <stop stop-color="#fff" offset=".4419"/>
   <stop stop-color="#d1d1d1" offset="1"/>
  </linearGradient>
 </defs>
 <g transform="translate(-13.268 -10.212)">
  <rect transform="rotate(-6.4422)" x="12.225" y="13.723" width="14.552" height="14.552" ry="1.2138" fill="url(#linearGradient2670)"/>
  <path transform="matrix(.26458 0 0 .26458 13.268 10.212)" d="m36.097 17.243c-3.3072 0.42673-6.8611 2.0363-9.7522 6.7984-6.6104 10.882-6.141 14.669-7.1945 15.893-1.0575 1.2189-3.9073 1.8803-3.4952 3.2658 0.41206 1.3802 0.82813 1.2029 0.82813 1.2029s4.162 6.0276 16.232 4.4647c12.069-1.5629 13.742-4.11 13.633-5.3742-0.10935-1.2655-2.6564-2.1883-2.6564-2.1883s-1.8856-6.6464-1.4016-9.3748c0.48408-2.7298 2.323-6.7077 4.1406-7.5639 1.8123-0.86413 2.7191 2.8911 3.6566 1.9643 0.93214-0.92681-1.5736-8.0813-4.3447-8.1373-1.5522-0.03067-5.4128-1.4949-9.6468-0.94281m0.01066 9.1321 0.92148 2.7244 2.7978 0.79212-2.3644 1.6829 0.10402 2.8604-2.3644-1.6829-2.7871 0.97349 0.89614-2.6938-1.7976-2.2604 2.9378-0.02667m-7.7879 5.6369 0.09868 1.9736 1.7656 1.0575-1.907 0.68811-0.47874 1.9536-1.2975-1.5216-2.031 0.13069 1.0882-1.6456-0.77612-1.8496 1.9696 0.51075m9.4441-0.88547 1.891 2.5311 3.1938-0.12535-1.855 2.5631 1.0882 2.9178-3.0631-0.94815-2.5164 1.943-0.02134-3.1458-2.6511-1.7296 3.0365-0.99482" filter="url(#filter1012)" opacity=".35"/>
  <path d="m22.567 14.476c-0.87503 0.11291-1.8153 0.53877-2.5803 1.7987-1.749 2.8792-1.6248 3.8812-1.9035 4.205-0.2798 0.3225-1.0338 0.4975-0.92477 0.86408 0.10902 0.36518 0.21911 0.31827 0.21911 0.31827s1.1012 1.5948 4.2947 1.1813c3.1933-0.41352 3.6359-1.0874 3.6071-1.4219-0.02893-0.33483-0.70284-0.57899-0.70284-0.57899s-0.4989-1.7585-0.37084-2.4804c0.12808-0.72226 0.61463-1.7747 1.0955-2.0013 0.4795-0.22864 0.71943 0.76494 0.96748 0.51972 0.24663-0.24522-0.41635-2.1382-1.1495-2.153-0.41069-0.0081-1.4321-0.39553-2.5524-0.24945m0.0028 2.4162 0.24381 0.72083 0.74025 0.20958-0.62558 0.44527 0.02752 0.75681-0.62558-0.44527-0.73742 0.25757 0.2371-0.71273-0.47562-0.59806 0.77729-0.0071m-2.0605 1.4914 0.02611 0.52218 0.46715 0.2798-0.50456 0.18206-0.12667 0.51689-0.3433-0.40259-0.53737 0.03458 0.28792-0.4354-0.20535-0.48937 0.52112 0.13514m2.4988-0.23428 0.50033 0.66969 0.84503-0.03317-0.4908 0.67815 0.28792 0.772-0.81044-0.25086-0.6658 0.51408-0.0056-0.83233-0.70144-0.45762 0.80341-0.26321" fill="url(#linearGradient884)" stroke-width=".26458"/>
 </g>
</svg>
