<?xml version="1.0" encoding="UTF-8"?>
<svg width="64" height="64" version="1.1" viewBox="0 0 16.933 16.933" xmlns="http://www.w3.org/2000/svg" xmlns:cc="http://creativecommons.org/ns#" xmlns:dc="http://purl.org/dc/elements/1.1/" xmlns:rdf="http://www.w3.org/1999/02/22-rdf-syntax-ns#">
 <metadata>
  <rdf:RDF>
   <cc:Work rdf:about="">
    <dc:format>image/svg+xml</dc:format>
    <dc:type rdf:resource="http://purl.org/dc/dcmitype/StillImage"/>
    <dc:title/>
   </cc:Work>
  </rdf:RDF>
 </metadata>
 <g transform="translate(.10394 -5.1877)">
  <rect transform="rotate(-6.4422)" x="-.21823" y="7.5104" width="13.992" height="13.992" ry="1.1671" fill="#333644" stroke-width=".96155"/>
  <path d="m8.4484 9.7018-1.349 0.19418-0.24812 0.24108 0.025871 0.02006-0.89038 0.1361 0.056232-0.10078-2.0434 0.2118-0.00543 0.14135 0.00318 0.20925 0.16912 0.23524-0.00106 0.53644-0.057225 0.47456 0.12439 0.42689 0.06663 0.34188 0.19521 0.44125-0.017047 0.23648 0.054955 0.24969 0.18332 0.16311 0.084064 0.29267-0.28259 0.15312 0.16115 0.91187 0.20091 0.11521-0.012414 0.81786-0.086325 0.05793 0.12687 1.5465 0.079413-0.02039 0.19989 0.01501s0.24495 0.05231 0.29562 0.06289c0.050505 0.0093 0.11096-0.08972 0.11096-0.08972l0.19486-0.02468 0.15864-0.05276 0.093768 0.02979 0.080892-0.01924 0.20046-0.04105 0.090926-0.05318 0.053346 0.09224 0.029076-0.02835 0.084365-0.05235 0.18373-0.03893 0.046841 0.0514s0.22976-0.0044 0.31079-0.01469c0.082013-0.01039 0.057015-0.07355 0.057015-0.07355s0.023445-0.0096 0.068208 0.02536c0.0462 0.03581 0.095313-0.02907 0.095313-0.02907l0.075508-0.05123 0.06505 0.05043 0.061619 0.03386 0.14962-0.05295 0.25129-0.03182 0.054306-0.02388 0.27808 0.30343-0.00602-0.17123 0.38054-0.04819c0.032148-0.0041 0.031024 0.11073 0.031024 0.11073l0.23976-0.11236 0.14599 0.11317 0.24609-0.20449 0.14291-0.04276 0.28116-0.05128 0.40482-0.05127 0.46532-0.02627 0.11556-0.06397 0.07819-0.09323 0.26095 0.10761 0.16887-0.09572s0.20413 0.04848 0.23707 0.0533c0.03311 0.0035 0.32775-0.07551 0.32775-0.07551l0.17953-0.07207-0.13161-0.07333 0.07646-0.04368 0.34149-0.02758 0.46845 0.059-0.38314-2.9646-0.02368-0.18699-0.11204 0.03119-0.14291 0.04276-0.01122-0.08857 0.07258-0.08486 0.05163-0.10553-0.02744-0.35084-0.05639-0.25051-0.14395-0.29442-0.11397-0.11823-0.03214-0.11959 0.01405-0.08378 0.0058-0.0254 0.09978-0.0543 0.01022-0.04296-0.09807-0.12691 0.0678-0.05158 0.10671-0.08384-0.0073-0.41838-0.01194-0.27847-0.12219-0.96481-0.10281-0.26696 0.0071-0.30422 0.0085-0.11707-0.21802-0.06605-0.79535-0.039929-0.09503 0.17603-0.068328-0.179-1.4918 0.16693-0.014266 0.25846-0.36058 0.092664-0.065218-0.1544-0.32752-0.0068527m-2.6481 1.5137 5.7869 2.9469-0.23022 1.5641-1.0008 0.15941-5.2756-4.3783m4.9535-0.76001 0.62336 0.2347-0.01875 1.1573-0.10992 0.04792-1.7044-0.9884m-2.7476 3.3678 1.7881 1.3908-0.91295 0.46061-0.50501 0.0313-0.68231-0.44223" fill="#d63d20"/>
 </g>
</svg>
