<?xml version="1.0" encoding="UTF-8"?>
<!-- Created with Inkscape (http://www.inkscape.org/) -->
<svg width="64" height="64" version="1.1" viewBox="0 0 16.933 16.933" xmlns="http://www.w3.org/2000/svg" xmlns:xlink="http://www.w3.org/1999/xlink">
 <defs>
  <linearGradient id="linearGradient1005-3-3-7" x1="5.2535" x2="9.3824" y1="15.383" y2="2.9421" gradientTransform="matrix(.99999 0 0 .99999 19.413 15.448)" gradientUnits="userSpaceOnUse">
   <stop stop-color="#fa8200" offset="0"/>
   <stop stop-color="#ff9600" offset=".36953"/>
   <stop stop-color="#ffb400" offset="1"/>
  </linearGradient>
  <filter id="filter3977" x="-.055846" y="-.0605" width="1.1117" height="1.121" color-interpolation-filters="sRGB">
   <feGaussianBlur stdDeviation="0.84699915"/>
  </filter>
 </defs>
 <g transform="translate(-19.449 -15.441)">
  <path d="m35.853 23.908c0 0.95155-0.16749 1.8639-0.47464 2.7093-0.21351 0.58769-0.4944 1.1433-0.83394 1.6572-0.14222 0.21608-0.29514 0.42476-0.45746 0.62529-0.51964 0.6418-1.1372 1.2007-1.8305 1.6543-0.2553 0.16717-0.52065 0.32009-0.79536 0.45712-1.0668 0.5339-2.2711 0.8342-3.5457 0.8342s-2.4788-0.30033-3.5457-0.83423c-0.27474-0.13705-0.54041-0.28996-0.79571-0.45712-0.70207-0.45974-1.327-1.0274-1.8509-1.6798-0.16262-0.20216-0.31522-0.41275-0.45746-0.63077-0.33046-0.50541-0.6042-1.0507-0.81349-1.627-0.3071-0.84529-0.47429-1.7573-0.47429-2.7085 0-4.3839 3.5536-7.9375 7.9375-7.9375 2.2005 0 4.1918 0.89548 5.6295 2.3417 0.41436 0.41661 0.78274 0.87929 1.0963 1.3795 0.29644 0.47106 0.54428 0.97581 0.73705 1.5068 0.30718 0.84558 0.47466 1.7579 0.47466 2.7093z" fill="url(#linearGradient1005-3-3-7)" stroke-width=".031006"/>
  <path transform="matrix(.26458 0 0 .26458 19.449 15.441)" d="m27.8 15.2c-1.5512 0-2.8 1.2488-2.8 2.8v7c0 1.1906 0.7394 2.1967 1.7828 2.6032l-5.0285 8.5968h-5.1542c-1.5512 0-2.8 1.2488-2.8 2.8v7c0 1.5512 1.2488 2.8 2.8 2.8h8.4c1.5512 0 2.8-1.2488 2.8-2.8v-7c0-1.5512-1.2488-2.8-2.8-2.8h-0.20782l4.9109-8.4h4.5937l4.9301 8.4h-0.22695c-1.5512 0-2.8 1.2488-2.8 2.8v7c0 1.5512 1.2488 2.8 2.8 2.8h8.4c1.5512 0 2.8-1.2488 2.8-2.8v-7c0-1.5512-1.2488-2.8-2.8-2.8h-5.1981l-5.0231-8.5833c1.0634-0.39645 1.8211-1.4119 1.8211-2.6167v-7c0-1.5512-1.2488-2.8-2.8-2.8z" fill="#f04b00" filter="url(#filter3977)" stroke-width="0"/>
  <path d="m26.804 19.463c-0.41042 0-0.74083 0.33041-0.74083 0.74083v1.8521c0 0.31501 0.19563 0.58121 0.4717 0.68876l-1.3305 2.2746h-1.3637c-0.41042 0-0.74083 0.33041-0.74083 0.74083v1.8521c0 0.41042 0.33041 0.74083 0.74083 0.74083h2.2225c0.41042 0 0.74083-0.33041 0.74083-0.74083v-1.8521c0-0.41042-0.33041-0.74083-0.74083-0.74083h-0.05499l1.2993-2.2225h1.2162l1.3037 2.2225h-0.06005c-0.41042 0-0.74083 0.33041-0.74083 0.74083v1.8521c0 0.41042 0.33041 0.74083 0.74083 0.74083h2.2225c0.41042 0 0.74083-0.33041 0.74083-0.74083v-1.8521c0-0.41042-0.33041-0.74083-0.74083-0.74083h-1.3753l-1.329-2.271c0.28136-0.10489 0.48183-0.37357 0.48183-0.69234v-1.8521c0-0.41042-0.33041-0.74083-0.74083-0.74083z" fill="#f9f9f9" stroke-width=".057042"/>
 </g>
</svg>
