<?xml version="1.0" encoding="UTF-8" standalone="no"?>
<svg
   xmlns:dc="http://purl.org/dc/elements/1.1/"
   xmlns:cc="http://creativecommons.org/ns#"
   xmlns:rdf="http://www.w3.org/1999/02/22-rdf-syntax-ns#"
   xmlns:svg="http://www.w3.org/2000/svg"
   xmlns="http://www.w3.org/2000/svg"
   xmlns:sodipodi="http://sodipodi.sourceforge.net/DTD/sodipodi-0.dtd"
   xmlns:inkscape="http://www.inkscape.org/namespaces/inkscape"
   inkscape:version="1.0 (4035a4fb49, 2020-05-01)"
   height="64"
   width="64"
   sodipodi:docname="eclipse-cdt.svg"
   id="svg25"
   viewBox="0 0 64 64"
   version="1.1">
  <metadata
     id="metadata29">
    <rdf:RDF>
      <cc:Work
         rdf:about="">
        <dc:format>image/svg+xml</dc:format>
        <dc:type
           rdf:resource="http://purl.org/dc/dcmitype/StillImage" />
        <dc:title></dc:title>
      </cc:Work>
    </rdf:RDF>
  </metadata>
  <sodipodi:namedview
     inkscape:current-layer="svg25"
     inkscape:window-maximized="1"
     inkscape:window-y="0"
     inkscape:window-x="0"
     inkscape:cy="-22.232212"
     inkscape:cx="-26.31726"
     inkscape:zoom="4.328125"
     showgrid="false"
     id="namedview27"
     inkscape:window-height="1000"
     inkscape:window-width="1920"
     inkscape:pageshadow="2"
     inkscape:pageopacity="0"
     guidetolerance="10"
     gridtolerance="10"
     objecttolerance="10"
     borderopacity="1"
     bordercolor="#666666"
     pagecolor="#ffffff" />
  <defs
     id="defs7">
    <linearGradient
       gradientTransform="translate(0,-65.617949)"
       gradientUnits="userSpaceOnUse"
       y2="47"
       y1="1"
       x2="0"
       id="bg">
      <stop
         id="stop2"
         offset="0"
         style="stop-color:#ebe8f4" />
      <stop
         id="stop4"
         offset="1"
         style="stop-color:#dfdbed" />
    </linearGradient>
    <linearGradient
       id="a-3"
       x1="32"
       x2="32"
       y1="2"
       y2="62"
       gradientTransform="matrix(1.0000071,0,0,1.0000071,0.25273681,0.81329336)"
       gradientUnits="userSpaceOnUse">
      <stop
         stop-color="#f5faff"
         offset="0"
         id="stop854" />
      <stop
         stop-color="#cfdef0"
         offset="1"
         id="stop856" />
    </linearGradient>
    <linearGradient
       gradientTransform="matrix(3.779602,0,0,3.779602,-1.3999348e-6,-1.3999348e-6)"
       id="linearGradient1075"
       x1="8.8559999"
       x2="8.8559999"
       y1="13.489"
       y2="3.5157001"
       gradientUnits="userSpaceOnUse">
      <stop
         stop-color="#273238"
         offset="0"
         id="stop859" />
      <stop
         stop-color="#36474f"
         offset="1"
         id="stop861" />
    </linearGradient>
  </defs>
  <g
     id="g876"
     stroke-width="0.26458"
     fill="#5e4aa6"
     transform="matrix(3.779602,0,0,3.779602,-82.520052,3.3911331)">
    <circle
       id="circle868"
       r="0"
       cy="-328.38"
       cx="-330.35001" />
    <circle
       id="circle870"
       r="0"
       cy="-326.25"
       cx="-312.10999" />
    <circle
       id="circle872"
       r="0"
       cy="-333.07001"
       cx="-306.01999" />
    <circle
       id="circle874"
       r="0"
       cy="-326.01001"
       cx="-308.84" />
  </g>
  <circle
     id="circle878"
     style="fill:url(#a-3);paint-order:stroke markers fill"
     stroke-width="1.00001"
     fill="url(#a-3)"
     r="29.999836"
     cy="32"
     cx="32" />
  <g
     transform="matrix(1.500004,0,0,1.500004,-4.000036,94.430376)"
     id="g914">
    <path
       id="path908"
       style="fill:#f4941e;fill-rule:evenodd"
       d="m 21,-53.617949 c -6.648,0 -12,5.352 -12,12 0,6.648 5.352,12 12,12 0.34,0 0.664,-0.035 1,-0.063 -6.172,-0.512 -11,-5.633 -11,-11.938 0,-6.309 4.828,-11.43 11,-11.938 -0.336,-0.031 -0.66,-0.066 -1,-0.066" />
    <path
       id="path910"
       style="fill:#2c2053;paint-order:normal"
       d="m 25.83,-53.615949 c -1.2024,0.01689 -2.3954,0.21441 -3.5391,0.58594 -3.9004,1.2683 -6.8829,4.4409 -7.9082,8.4121 h 4.207 c 1.2216,-3.02 4.1525,-4.9975 7.4102,-5 2.5592,0.0035 4.9622,1.2312 6.4648,3.3027 l 3.2441,-2.3555 c -2.2933,-3.1564 -5.9778,-5.0008 -9.8789,-4.9453 z m 0.19922,5.998 c -0.61248,0.0085 -1.2202,0.10729 -1.8027,0.29297 -1.4345,0.46006 -2.6449,1.4242 -3.3984,2.707 h 5.1719 c 0.99277,0 1.9207,0.49319 2.4785,1.3145 l 2.584,-1.8418 c -1.1684,-1.5778 -3.0456,-2.4999 -5.0332,-2.4727 z m -11.855,4 c -0.05369,0.33152 -0.09344,0.66515 -0.11914,1 h 4.0156 c 0.04379,-0.33714 0.10903,-0.67116 0.19531,-1 z m 6.1797,0 c -0.11769,0.32522 -0.20656,0.65979 -0.26562,1 h 3.0879 c 0.13079,-0.36887 0.3325,-0.70859 0.59375,-1 z m 10.646,0 v 1 h -1 v 2 h 1 v 1 h 2 v -1 h 1 v -2 h -1 v -1 z m 5,0 v 1 h -1 v 2 h 1 v 1 h 2 v -1 h 1 v -2 h -1 v -1 z m -21.949,3 c 0.02959,0.33502 0.07325,0.66865 0.13086,1 h 4.0781 c -0.08366,-0.32902 -0.14628,-0.66303 -0.1875,-1 z m 6.041,0 c 0.05906,0.34021 0.14794,0.67478 0.26562,1 h 3.4121 c -0.26195,-0.29125 -0.46433,-0.63097 -0.5957,-1 z m 8.3887,0.6875 c -0.55862,0.82109 -1.4874,1.3125 -2.4805,1.3125 h -5.1758 c 0.75451,1.2835 1.9664,2.2478 3.4023,2.707 2.5193,0.80246 5.2789,-0.07743 6.8359,-2.1797 z m -14.084,1.3125 c 1.0227,3.968 3.9994,7.1399 7.8945,8.4121 4.9448,1.6072 10.362,-0.15281 13.418,-4.3594 l -3.2422,-2.3555 c -1.503,2.0721 -3.9069,3.2999 -6.4668,3.3027 -3.2584,-0.0017 -6.1902,-1.9794 -7.4121,-5 z" />
  </g>
</svg>
