<?xml version="1.0" encoding="UTF-8" standalone="no"?>
<svg
   xmlns:dc="http://purl.org/dc/elements/1.1/"
   xmlns:cc="http://creativecommons.org/ns#"
   xmlns:rdf="http://www.w3.org/1999/02/22-rdf-syntax-ns#"
   xmlns:svg="http://www.w3.org/2000/svg"
   xmlns="http://www.w3.org/2000/svg"
   xmlns:sodipodi="http://sodipodi.sourceforge.net/DTD/sodipodi-0.dtd"
   xmlns:inkscape="http://www.inkscape.org/namespaces/inkscape"
   inkscape:version="1.0 (4035a4fb49, 2020-05-01)"
   height="64"
   width="64"
   sodipodi:docname="eclipse.svg"
   id="svg25"
   viewBox="0 0 64 64"
   version="1.1">
  <metadata
     id="metadata29">
    <rdf:RDF>
      <cc:Work
         rdf:about="">
        <dc:format>image/svg+xml</dc:format>
        <dc:type
           rdf:resource="http://purl.org/dc/dcmitype/StillImage" />
        <dc:title></dc:title>
      </cc:Work>
    </rdf:RDF>
  </metadata>
  <sodipodi:namedview
     inkscape:current-layer="svg25"
     inkscape:window-maximized="1"
     inkscape:window-y="0"
     inkscape:window-x="0"
     inkscape:cy="2.4003875"
     inkscape:cx="-14.439316"
     inkscape:zoom="4.328125"
     showgrid="false"
     id="namedview27"
     inkscape:window-height="1000"
     inkscape:window-width="1920"
     inkscape:pageshadow="2"
     inkscape:pageopacity="0"
     guidetolerance="10"
     gridtolerance="10"
     objecttolerance="10"
     borderopacity="1"
     bordercolor="#666666"
     pagecolor="#ffffff" />
  <defs
     id="defs7">
    <linearGradient
       gradientTransform="translate(0,-62.857305)"
       gradientUnits="userSpaceOnUse"
       y2="47"
       y1="1"
       x2="0"
       id="bg">
      <stop
         id="stop2"
         offset="0"
         style="stop-color:#ebe8f4" />
      <stop
         id="stop4"
         offset="1"
         style="stop-color:#dfdbed" />
    </linearGradient>
    <linearGradient
       gradientTransform="translate(0,-65.617949)"
       gradientUnits="userSpaceOnUse"
       y2="47"
       y1="1"
       x2="0"
       id="bg-3">
      <stop
         id="stop2-5"
         offset="0"
         style="stop-color:#ebe8f4" />
      <stop
         id="stop4-6"
         offset="1"
         style="stop-color:#dfdbed" />
    </linearGradient>
    <linearGradient
       id="a-3"
       x1="32"
       x2="32"
       y1="2"
       y2="62"
       gradientTransform="matrix(1.0000071,0,0,1.0000071,0.25273681,0.81329336)"
       gradientUnits="userSpaceOnUse">
      <stop
         stop-color="#f5faff"
         offset="0"
         id="stop854" />
      <stop
         stop-color="#cfdef0"
         offset="1"
         id="stop856" />
    </linearGradient>
    <linearGradient
       gradientTransform="matrix(3.779602,0,0,3.779602,-1.3999348e-6,-1.3999348e-6)"
       id="linearGradient1075"
       x1="8.8559999"
       x2="8.8559999"
       y1="13.489"
       y2="3.5157001"
       gradientUnits="userSpaceOnUse">
      <stop
         stop-color="#273238"
         offset="0"
         id="stop859" />
      <stop
         stop-color="#36474f"
         offset="1"
         id="stop861" />
    </linearGradient>
  </defs>
  <g
     transform="matrix(3.779602,0,0,3.779602,-82.520052,3.3911331)"
     fill="#5e4aa6"
     stroke-width="0.26458"
     id="g876">
    <circle
       cx="-330.35001"
       cy="-328.38"
       r="0"
       id="circle868" />
    <circle
       cx="-312.10999"
       cy="-326.25"
       r="0"
       id="circle870" />
    <circle
       cx="-306.01999"
       cy="-333.07001"
       r="0"
       id="circle872" />
    <circle
       cx="-308.84"
       cy="-326.01001"
       r="0"
       id="circle874" />
  </g>
  <circle
     cx="32"
     cy="32"
     r="29.999836"
     fill="url(#a-3)"
     stroke-width="1.00001"
     style="fill:url(#a-3);paint-order:stroke markers fill"
     id="circle878" />
  <g
     transform="matrix(1.4854817,0,0,1.4854817,-2.8693358,89.725529)"
     id="g911">
    <path
       id="path905"
       style="fill:#2c2053;fill-rule:evenodd"
       d="m 25.996,-50.857305 c -4.8562,0 -9.012,2.8654 -10.902,7 h 21.809 0.0039 c -1.8906,-4.1346 -6.0474,-7 -10.906,-7 H 25.997 Z m -11.602,9 c -0.16635,0.64807 -0.28745,1.3133 -0.34375,2 h 0.0078 23.875 0.01367 c -0.05623,-0.68609 -0.17185,-1.3522 -0.33789,-2 h -23.215 z m -0.34375,4 c 0.05609,0.6867 0.17747,1.3519 0.34375,2 h 23.213 c 0.1661,-0.64797 0.28374,-1.3136 0.33984,-2 h -0.01367 -23.875 -0.0078 z m 1.041,4 c 1.8896,4.1344 6.0466,7 10.904,7 h 0.0039 c 4.86,0 9.0183,-2.8656 10.908,-7 h -0.0059 -21.811 z" />
    <path
       id="path907"
       style="fill:#f4941e;fill-rule:evenodd"
       d="m 21,-50.857305 c -6.648,0 -12,5.352 -12,12 0,6.648 5.352,12 12,12 0.34,0 0.664,-0.035 1,-0.063 -6.172,-0.512 -11,-5.633 -11,-11.938 0,-6.309 4.828,-11.43 11,-11.938 -0.336,-0.031 -0.66,-0.066 -1,-0.066" />
  </g>
</svg>
