<?xml version="1.0" encoding="UTF-8"?>
<svg width="64" height="64" version="1.1" viewBox="0 0 16.933 16.933" xmlns="http://www.w3.org/2000/svg" xmlns:cc="http://creativecommons.org/ns#" xmlns:dc="http://purl.org/dc/elements/1.1/" xmlns:rdf="http://www.w3.org/1999/02/22-rdf-syntax-ns#">
 <metadata>
  <rdf:RDF>
   <cc:Work rdf:about="">
    <dc:format>image/svg+xml</dc:format>
    <dc:type rdf:resource="http://purl.org/dc/dcmitype/StillImage"/>
    <dc:title/>
   </cc:Work>
  </rdf:RDF>
 </metadata>
 <defs>
  <filter id="filter881" x="-.11186" y="-.1044" width="1.2237" height="1.2088" color-interpolation-filters="sRGB">
   <feGaussianBlur stdDeviation="0.41433022"/>
  </filter>
  <linearGradient id="linearGradient893" x1="8.2019" x2="8.2019" y1="4.2333" y2="12.7" gradientUnits="userSpaceOnUse">
   <stop stop-color="#fff" offset="0"/>
   <stop stop-color="#c0f6cc" offset="1"/>
  </linearGradient>
  <linearGradient id="b-3" x1="399.57" x2="399.57" y1="545.8" y2="517.8" gradientTransform="matrix(.56696 0 0 .56696 -218.64 -293.04)" gradientUnits="userSpaceOnUse">
   <stop stop-color="#3889e9" offset="0"/>
   <stop stop-color="#5ea5fb" offset="1"/>
  </linearGradient>
  <linearGradient id="h" x1="8.4665" x2="8.4665" y1=".52916" y2="16.404" gradientUnits="userSpaceOnUse">
   <stop stop-color="#a4e20f" offset="0"/>
   <stop stop-color="#19b031" offset="1"/>
  </linearGradient>
 </defs>
 <circle cx="8.4665" cy="8.4665" r="7.9373" fill="url(#h)" stroke-width=".14032"/>
 <path d="m8.149 4.0759a0.63504 0.63504 0 1 0 0 1.27s0.11753-0.0061 0.39439 0.086193c0.27686 0.092285 0.66022 0.27885 1.0616 0.68025 0.4014 0.4014 0.58796 0.78474 0.68025 1.0616s0.0862 0.39439 0.0862 0.39439a0.63504 0.63504 0 1 0 1.27 0s-0.0061-0.3587-0.15192-0.7962c-0.14584-0.4375-0.43551-1.0066-0.98658-1.5577-0.55107-0.55107-1.1202-0.84075-1.5577-0.98657-0.4375-0.14583-0.7962-0.15193-0.7962-0.15193zm-0.63498 1.5875s-0.3587 0.0061-0.7962 0.15193-1.0066 0.4355-1.5577 0.98657c-0.55107 0.55107-0.84075 1.1202-0.98657 1.5577-0.14583 0.4375-0.15192 0.7962-0.15192 0.7962a0.63504 0.63504 0 1 0 1.27 0s-0.00612-0.11753 0.086195-0.39439c0.092291-0.27686 0.27884-0.66022 0.68025-1.0616 0.4014-0.4014 0.78474-0.58796 1.0616-0.68025 0.27686-0.092285 0.39439-0.086193 0.39439-0.086193a0.63504 0.63504 0 1 0 0-1.27zm4.7531 2.2138a0.63504 0.63504 0 0 0-0.62568 0.64365s0.0061 0.11753-0.0862 0.39439c-0.09229 0.27686-0.27885 0.66022-0.68026 1.0616-0.4014 0.4014-0.78474 0.58796-1.0616 0.68025s-0.39439 0.0862-0.39439 0.0862a0.63504 0.63504 0 1 0 0 1.27s0.3587-0.0061 0.7962-0.15193 1.0066-0.4355 1.5577-0.98657c0.55107-0.55107 0.84075-1.1202 0.98657-1.5577 0.14583-0.4375 0.15193-0.7962 0.15193-0.7962a0.63504 0.63504 0 0 0-0.64428-0.64366zm-6.3498 1.5875a0.63504 0.63504 0 0 0-0.62568 0.64365s0.00612 0.3587 0.15193 0.7962c0.14583 0.4375 0.4355 1.0066 0.98657 1.5577 0.55107 0.55107 1.1202 0.84075 1.5577 0.98657 0.4375 0.14583 0.7962 0.15192 0.7962 0.15192a0.63504 0.63504 0 1 0 0-1.27s-0.11753 0.0061-0.39439-0.0862c-0.27686-0.092274-0.66022-0.27884-1.0616-0.68025-0.4014-0.4014-0.58796-0.78474-0.68025-1.0616-0.092285-0.27686-0.086193-0.39439-0.086193-0.39439a0.63504 0.63504 0 0 0-0.64428-0.64365z" filter="url(#filter881)" opacity=".15" stroke-width=".31749"/>
 <path d="m8.149 3.7042a0.63504 0.63504 0 1 0 0 1.27s0.11753-0.0061 0.39439 0.086193c0.27686 0.092285 0.66022 0.27885 1.0616 0.68025 0.4014 0.4014 0.58796 0.78474 0.68025 1.0616s0.0862 0.39439 0.0862 0.39439a0.63504 0.63504 0 1 0 1.27 0s-0.0061-0.3587-0.15192-0.7962c-0.14584-0.4375-0.43551-1.0066-0.98658-1.5577-0.55107-0.55107-1.1202-0.84075-1.5577-0.98657-0.4375-0.14583-0.7962-0.15193-0.7962-0.15193zm-0.63498 1.5875s-0.3587 0.0061-0.7962 0.15193-1.0066 0.4355-1.5577 0.98657c-0.55107 0.55107-0.84075 1.1202-0.98657 1.5577-0.14583 0.4375-0.15192 0.7962-0.15192 0.7962a0.63504 0.63504 0 1 0 1.27 0s-0.00612-0.11753 0.086195-0.39439c0.092291-0.27686 0.27884-0.66022 0.68025-1.0616 0.4014-0.4014 0.78474-0.58796 1.0616-0.68025 0.27686-0.092285 0.39439-0.086193 0.39439-0.086193a0.63504 0.63504 0 1 0 0-1.27zm4.7531 2.2138a0.63504 0.63504 0 0 0-0.62568 0.64365s0.0061 0.11753-0.0862 0.39439c-0.09229 0.27686-0.27885 0.66022-0.68026 1.0616-0.4014 0.4014-0.78474 0.58796-1.0616 0.68025s-0.39439 0.0862-0.39439 0.0862a0.63504 0.63504 0 1 0 0 1.27s0.3587-0.0061 0.7962-0.15193 1.0066-0.4355 1.5577-0.98657c0.55107-0.55107 0.84075-1.1202 0.98657-1.5577 0.14583-0.4375 0.15193-0.7962 0.15193-0.7962a0.63504 0.63504 0 0 0-0.64428-0.64366zm-6.3498 1.5875a0.63504 0.63504 0 0 0-0.62568 0.64365s0.00612 0.3587 0.15193 0.7962c0.14583 0.4375 0.4355 1.0066 0.98657 1.5577 0.55107 0.55107 1.1202 0.84075 1.5577 0.98657 0.4375 0.14583 0.7962 0.15192 0.7962 0.15192a0.63504 0.63504 0 1 0 0-1.27s-0.11753 0.0061-0.39439-0.0862c-0.27686-0.092274-0.66022-0.27884-1.0616-0.68025-0.4014-0.4014-0.58796-0.78474-0.68025-1.0616-0.092285-0.27686-0.086193-0.39439-0.086193-0.39439a0.63504 0.63504 0 0 0-0.64428-0.64365z" fill="url(#linearGradient893)" stroke-width=".31749"/>
 <circle cx="8.4717" cy="8.4622" r="7.9376" fill-opacity="0" stroke-width=".41578"/>
 <circle cx="8.4717" cy="8.4622" r="0" fill="url(#b-3)" stroke-width=".41578"/>
 <circle cx="-360.54" cy="-329.71" r="0" fill="#5e4aa6" stroke-width=".26458"/>
 <circle cx="-69.625" cy="5.1106" r="0" fill="#5e4aa6" fill-rule="evenodd" stroke-width=".26458"/>
</svg>
