<?xml version="1.0" encoding="UTF-8"?>
<svg width="64" height="64" version="1.1" viewBox="0 0 16.933 16.933" xmlns="http://www.w3.org/2000/svg">
 <defs>
  <linearGradient id="linearGradient1978" x1="-59.235" x2="-59.235" y1=".7041" y2="-11.929" gradientTransform="matrix(1.0909 0 0 1.0909 72.897 15.613)" gradientUnits="userSpaceOnUse">
   <stop stop-color="#0fd3cd" offset="0"/>
   <stop stop-color="#52ffb9" offset="1"/>
  </linearGradient>
  <linearGradient id="linearGradient1988" x1="-59.235" x2="-59.235" y1=".7041" y2="-11.929" gradientTransform="matrix(.9134 0 0 .9134 62.406 14.45)" gradientUnits="userSpaceOnUse">
   <stop stop-color="#00a0a2" offset="0"/>
   <stop stop-color="#2fde8b" offset="1"/>
  </linearGradient>
  <filter id="filter1877" x="-.027478" y="-.021303" width="1.055" height="1.0426" color-interpolation-filters="sRGB">
   <feGaussianBlur stdDeviation="0.072702461"/>
  </filter>
  <linearGradient id="k" x1="430.56" x2="433.31" y1="536.57" y2="524.17" gradientTransform="matrix(.52732 0 0 .52732 -219.14 -271.37)" gradientUnits="userSpaceOnUse">
   <stop stop-color="#c4e7f9" offset="0"/>
   <stop stop-color="#edfafd" offset="1"/>
  </linearGradient>
 </defs>
 <path d="m16.404 8.4664c0 0.95152-0.16748 1.8638-0.47463 2.7094-0.2135 0.58767-0.49437 1.1433-0.83391 1.6572-0.14222 0.21607-0.29513 0.42474-0.45745 0.62527-0.51964 0.64178-1.1372 1.2006-1.8304 1.6542-0.25529 0.16717-0.52063 0.32009-0.79534 0.45711-1.0668 0.53388-2.271 0.83419-3.5455 0.83419-1.2745 0-2.4787-0.30031-3.5455-0.83421-0.27473-0.13705-0.54039-0.28996-0.79568-0.45711-0.70205-0.45972-1.327-1.0274-1.8508-1.6798-0.16262-0.20216-0.31523-0.41274-0.45745-0.63076-0.33046-0.50538-0.6042-1.0507-0.81347-1.627-0.3071-0.84526-0.47429-1.7572-0.47429-2.7084 0-4.3837 3.5536-7.9373 7.9373-7.9373 2.2005 0 4.1916 0.89545 5.6294 2.3416 0.41435 0.4166 0.78272 0.87927 1.0962 1.3794 0.29644 0.47106 0.54426 0.97579 0.73702 1.5068 0.30718 0.84557 0.47465 1.7579 0.47465 2.7094z" fill="url(#linearGradient1978)" stroke-width=".031006"/>
 <path d="m15.104 8.4665c0 0.7967-0.14024 1.5605-0.3974 2.2685-0.17877 0.49205-0.41393 0.95724-0.69822 1.3875-0.11908 0.18091-0.24711 0.35563-0.38302 0.52353-0.43508 0.53736-0.95213 1.0053-1.5326 1.3851-0.21375 0.13997-0.43592 0.26801-0.66593 0.38273-0.8932 0.44701-1.9015 0.69846-2.9687 0.69846-1.0671 0-2.0754-0.25145-2.9687-0.69847-0.23003-0.11475-0.45246-0.24278-0.66621-0.38273-0.58782-0.38491-1.1111-0.8602-1.5496-1.4065-0.13616-0.16926-0.26393-0.34559-0.38302-0.52813-0.27668-0.42315-0.50588-0.87971-0.68111-1.3622-0.25712-0.70773-0.39712-1.4713-0.39712-2.2677 0-3.6704 2.9754-6.6458 6.6458-6.6458 1.8424 0 3.5095 0.74975 4.7135 1.9606 0.34693 0.34882 0.65537 0.73619 0.91787 1.155 0.24821 0.39441 0.4557 0.81702 0.6171 1.2616 0.25719 0.70798 0.39741 1.4718 0.39741 2.2685z" fill="url(#linearGradient1988)" stroke-width=".02596"/>
 <g fill="#fff" stroke-width="1.0909">
  <path d="m2.1817 6.3603c-0.08517 0.25336-0.18347 0.5007-0.23789 0.76667-0.0087 0.042794-0.0056 0.089386-0.01353 0.13248h13.057c-0.05676-0.30891-0.14279-0.60674-0.24071-0.89914z" opacity=".25"/>
  <path d="m1.8413 8.18c-0.0042 0.097051-0.02875 0.18829-0.02875 0.28637 0 0.2092 0.03521 0.40909 0.05412 0.61334h13.184c0.01893-0.20433 0.05355-0.40407 0.05355-0.61334h5.66e-4c0-0.097714-0.02119-0.18969-0.02536-0.28637z" opacity=".25"/>
  <path d="m2.0137 9.9996c0.05888 0.24781 0.11148 0.49831 0.19731 0.73454 0.02123 0.05846 0.0595 0.10749 0.0823 0.16517h12.332c0.02278-0.0576 0.06167-0.10624 0.08286-0.16461 0.08585-0.23636 0.13838-0.48714 0.19731-0.7351z" opacity=".25"/>
 </g>
 <path transform="matrix(1.1158 0 0 1.1136 74.235 15.403)" d="m-60.157-9.1368c-0.27072 0.07597-0.48865 0.37808-0.48865 0.67158v4.6529c-0.27453-0.1505-0.62705-0.21136-0.99256-0.1119-0.65954 0.17943-1.0729 0.75934-0.93147 1.2951 0.14138 0.53575 0.79112 0.83498 1.4507 0.65552 0.52617-0.14314 0.8889-0.54821 0.94674-0.97531l0.01541-4.397 3.4205-0.95936v3.4697c-0.2745-0.15051-0.62705-0.21137-0.99256-0.11194-0.65954 0.17944-1.0728 0.75936-0.93147 1.2951 0.14139 0.53577 0.79112 0.83498 1.4507 0.65554 0.52619-0.14314 0.8889-0.54818 0.94674-0.97531l0.01548-5.7241c0-0.22008-0.12991-0.38472-0.3054-0.4157l-3.6038 0.97531z" filter="url(#filter1877)" image-rendering="optimizeSpeed" opacity=".35" stroke-width=".26458"/>
 <path d="m7.0496 5.2027c-0.29533 0.082876-0.53307 0.41245-0.53307 0.73263v5.0758c-0.29948-0.16418-0.68405-0.23057-1.0828-0.12207-0.71949 0.19574-1.1704 0.82836-1.0161 1.4128 0.15423 0.58444 0.86303 0.91088 1.5826 0.71511 0.574-0.15615 0.9697-0.59804 1.0328-1.064l0.01681-4.7967 3.7314-1.0466v3.7851c-0.29945-0.16419-0.68405-0.23058-1.0828-0.12212-0.71949 0.19575-1.1703 0.8284-1.0161 1.4128 0.15424 0.58447 0.86303 0.91088 1.5826 0.71513 0.57402-0.15615 0.9697-0.59801 1.0328-1.064l0.01689-6.2444c0-0.24009-0.14172-0.41969-0.33316-0.45349l-3.9314 1.064z" fill="url(#k)" image-rendering="optimizeSpeed" stroke-width=".28863"/>
 <path d="m7.0496 5.2027c-0.29533 0.082876-0.53307 0.41245-0.53307 0.73263v5.0758c-0.29948-0.16418-0.68405-0.23057-1.0828-0.12207-0.71949 0.19574-1.1704 0.82836-1.0161 1.4128 0.15423 0.58444 0.86303 0.91088 1.5826 0.71511 0.574-0.15615 0.9697-0.59804 1.0328-1.064l0.01681-4.7967 3.7314-1.0466v3.7851c-0.29945-0.16419-0.68405-0.23058-1.0828-0.12212-0.71949 0.19575-1.1703 0.8284-1.0161 1.4128 0.15424 0.58447 0.86303 0.91088 1.5826 0.71513 0.57402-0.15615 0.9697-0.59801 1.0328-1.064l0.01689-6.2444c0-0.24009-0.14172-0.41969-0.33316-0.45349l-3.9314 1.064z" fill="none" image-rendering="optimizeSpeed" stroke="#40efc4" stroke-width=".086588"/>
</svg>
