<?xml version="1.0" encoding="UTF-8" standalone="no"?>
<svg
   xmlns:dc="http://purl.org/dc/elements/1.1/"
   xmlns:cc="http://creativecommons.org/ns#"
   xmlns:rdf="http://www.w3.org/1999/02/22-rdf-syntax-ns#"
   xmlns:svg="http://www.w3.org/2000/svg"
   xmlns="http://www.w3.org/2000/svg"
   xmlns:xlink="http://www.w3.org/1999/xlink"
   xmlns:sodipodi="http://sodipodi.sourceforge.net/DTD/sodipodi-0.dtd"
   xmlns:inkscape="http://www.inkscape.org/namespaces/inkscape"
   width="64"
   height="64"
   version="1.1"
   viewBox="0 0 64 64"
   id="svg35"
   sodipodi:docname="emacs.svg"
   inkscape:version="1.0.1 (3bc2e813f5, 2020-09-07)">
  <metadata
     id="metadata39">
    <rdf:RDF>
      <cc:Work
         rdf:about="">
        <dc:format>image/svg+xml</dc:format>
        <dc:type
           rdf:resource="http://purl.org/dc/dcmitype/StillImage" />
        <dc:title></dc:title>
      </cc:Work>
    </rdf:RDF>
  </metadata>
  <sodipodi:namedview
     pagecolor="#ffffff"
     bordercolor="#666666"
     borderopacity="1"
     objecttolerance="10"
     gridtolerance="10"
     guidetolerance="10"
     inkscape:pageopacity="0"
     inkscape:pageshadow="2"
     inkscape:window-width="1920"
     inkscape:window-height="998"
     id="namedview37"
     showgrid="false"
     inkscape:zoom="6.4921875"
     inkscape:cx="27.5726"
     inkscape:cy="30.604329"
     inkscape:window-x="0"
     inkscape:window-y="0"
     inkscape:window-maximized="1"
     inkscape:current-layer="svg35" />
  <defs
     id="defs19">
    <linearGradient
       id="c">
      <stop
         stop-color="#6e3a84"
         offset="0"
         id="stop2" />
      <stop
         stop-color="#a75ec4"
         offset="1"
         id="stop4" />
    </linearGradient>
    <linearGradient
       id="a"
       x1="24"
       x2="24"
       y1="1048.4"
       y2="1008.4"
       gradientUnits="userSpaceOnUse"
       xlink:href="#c"
       gradientTransform="matrix(1.5,0,0,1.5,1.3104505,-1526.3568)" />
    <linearGradient
       id="b"
       x1="23.771"
       x2="23.771"
       y1="1049.4"
       y2="1016.9"
       gradientTransform="matrix(1.7127,0,0,1.7127,-10.69675,-1729.195)"
       gradientUnits="userSpaceOnUse">
      <stop
         stop-color="#dde0e2"
         offset="0"
         id="stop8" />
      <stop
         stop-color="#fcfcfc"
         offset="1"
         id="stop10" />
    </linearGradient>
    <filter
       id="e"
       x="-.036"
       y="-.036"
       width="1.072"
       height="1.072"
       color-interpolation-filters="sRGB">
      <feGaussianBlur
         stdDeviation="0.6"
         id="feGaussianBlur13" />
    </filter>
    <filter
       id="d"
       x="-.058131"
       y="-.061993"
       width="1.1163"
       height="1.124"
       color-interpolation-filters="sRGB">
      <feGaussianBlur
         stdDeviation="0.66412739"
         id="feGaussianBlur16" />
    </filter>
    <linearGradient
       id="linearGradient1249"
       inkscape:collect="always">
      <stop
         id="stop1245"
         offset="0"
         style="stop-color:#7f479a;stop-opacity:1" />
      <stop
         id="stop1247"
         offset="1"
         style="stop-color:#4c569b;stop-opacity:1" />
    </linearGradient>
    <linearGradient
       gradientUnits="userSpaceOnUse"
       gradientTransform="rotate(-90,-10.323333,58.323333)"
       x2="47"
       x1="1"
       id="linearGradient3764">
      <stop
         id="stop2-3"
         offset="0"
         style="stop-color:#4c5699" />
      <stop
         id="stop4-6"
         offset="1"
         style="stop-color:#525da6" />
    </linearGradient>
    <linearGradient
       id="linearGradient958"
       x1="-272.20999"
       x2="-275.5"
       y1="44.527"
       y2="50.384998"
       gradientTransform="matrix(1.5573094,0,0,1.5573094,465.83557,-49.528283)"
       gradientUnits="userSpaceOnUse">
      <stop
         stop-color="#3650ae"
         offset="0"
         id="stop854" />
      <stop
         stop-color="#388fc9"
         offset="1"
         id="stop856" />
    </linearGradient>
    <linearGradient
       id="linearGradient966"
       x1="-272.85999"
       x2="-267.62"
       y1="54.907001"
       y2="49.026001"
       gradientTransform="matrix(1.5573094,0,0,1.5573094,465.83557,-49.528283)"
       gradientUnits="userSpaceOnUse">
      <stop
         stop-color="#3491cb"
         offset="0"
         id="stop859" />
      <stop
         stop-color="#3850bb"
         offset="1"
         id="stop861" />
    </linearGradient>
    <linearGradient
       id="linearGradient974"
       x1="-277.66"
       x2="-270.88"
       y1="59.727001"
       y2="58.222"
       gradientTransform="matrix(1.5573094,0,0,1.5573094,465.83557,-49.528283)"
       gradientUnits="userSpaceOnUse">
      <stop
         stop-color="#2fb1dc"
         offset="0"
         id="stop864" />
      <stop
         stop-color="#3491cb"
         offset="1"
         id="stop866" />
    </linearGradient>
    <linearGradient
       id="linearGradient982"
       x1="-282.60999"
       x2="-278.76001"
       y1="54.153999"
       y2="62.018002"
       gradientTransform="matrix(1.5573094,0,0,1.5573094,465.83557,-49.528283)"
       gradientUnits="userSpaceOnUse">
      <stop
         stop-color="#30add9"
         offset="0"
         id="stop869" />
      <stop
         stop-color="#329ed2"
         offset="1"
         id="stop871" />
    </linearGradient>
    <linearGradient
       id="linearGradient990"
       x1="-286.34"
       x2="-282.53"
       y1="57.278"
       y2="49.414001"
       gradientTransform="matrix(1.5573094,0,0,1.5573094,465.83557,-49.528283)"
       gradientUnits="userSpaceOnUse">
      <stop
         stop-color="#329fd2"
         offset="0"
         id="stop874" />
      <stop
         stop-color="#2c80c1"
         offset="1"
         id="stop876" />
    </linearGradient>
    <linearGradient
       id="linearGradient998"
       x1="-281.51001"
       x2="-282.54999"
       y1="43.16"
       y2="49.908001"
       gradientTransform="matrix(1.5573094,0,0,1.5573094,465.83557,-49.528283)"
       gradientUnits="userSpaceOnUse">
      <stop
         stop-color="#3857ba"
         offset="0"
         id="stop879" />
      <stop
         stop-color="#367dc1"
         offset="1"
         id="stop881" />
    </linearGradient>
    <filter
       id="filter1030"
       x="-0.061721001"
       y="-0.058451001"
       width="1.1234"
       height="1.1169"
       color-interpolation-filters="sRGB">
      <feGaussianBlur
         stdDeviation="0.24897588"
         id="feGaussianBlur884" />
    </filter>
    <filter
       id="filter1040"
       x="-0.066212997"
       y="-0.054853"
       width="1.1324"
       height="1.1097"
       color-interpolation-filters="sRGB">
      <feGaussianBlur
         stdDeviation="0.2340379"
         id="feGaussianBlur887" />
    </filter>
    <filter
       id="filter1046"
       x="-0.047272999"
       y="-0.082105003"
       width="1.0944999"
       height="1.1641999"
       color-interpolation-filters="sRGB">
      <feGaussianBlur
         stdDeviation="0.22334751"
         id="feGaussianBlur890" />
    </filter>
    <filter
       id="filter1052"
       x="-0.06168"
       y="-0.058409002"
       width="1.1234"
       height="1.1168"
       color-interpolation-filters="sRGB">
      <feGaussianBlur
         stdDeviation="0.24881069"
         id="feGaussianBlur893" />
    </filter>
    <filter
       id="filter1058"
       x="-0.066212997"
       y="-0.054853"
       width="1.1324"
       height="1.1097"
       color-interpolation-filters="sRGB">
      <feGaussianBlur
         stdDeviation="0.23403799"
         id="feGaussianBlur896" />
    </filter>
    <filter
       id="filter1064"
       x="-0.047272999"
       y="-0.082105003"
       width="1.0944999"
       height="1.1641999"
       color-interpolation-filters="sRGB">
      <feGaussianBlur
         stdDeviation="0.22334755"
         id="feGaussianBlur899" />
    </filter>
    <linearGradient
       id="linearGradient1098"
       x1="-272.20999"
       x2="-275.5"
       y1="44.527"
       y2="50.384998"
       gradientTransform="matrix(1.5573094,0,0,1.5573094,465.83557,-49.528283)"
       gradientUnits="userSpaceOnUse">
      <stop
         stop-color="#3851ba"
         offset="0"
         id="stop902" />
      <stop
         stop-color="#348dc9"
         offset="1"
         id="stop904" />
    </linearGradient>
    <filter
       id="filter1103"
       x="-0.059886001"
       y="-0.060125001"
       width="1.1198"
       height="1.1203001"
       color-interpolation-filters="sRGB">
      <feGaussianBlur
         stdDeviation="0.60007942"
         id="feGaussianBlur907" />
    </filter>
    <linearGradient
       id="linearGradient1227"
       x1="-228.53999"
       x2="-228.53999"
       y1="49.422001"
       y2="52.341999"
       gradientTransform="translate(237.02,-44.947)"
       gradientUnits="userSpaceOnUse">
      <stop
         stop-color="#fff"
         offset="0"
         id="stop910" />
      <stop
         stop-color="#fff"
         stop-opacity="0"
         offset="1"
         id="stop912" />
    </linearGradient>
    <filter
       id="filter1229"
       x="-0.069095999"
       y="-0.1071"
       width="1.1382"
       height="1.2142"
       color-interpolation-filters="sRGB">
      <feGaussianBlur
         stdDeviation="0.1347133"
         id="feGaussianBlur915" />
    </filter>
    <filter
       id="filter1251"
       x="-0.208"
       y="-0.28364"
       width="1.416"
       height="1.5673"
       color-interpolation-filters="sRGB">
      <feGaussianBlur
         stdDeviation="0.069956252"
         id="feGaussianBlur918" />
    </filter>
    <filter
       id="filter1275"
       x="-0.059999999"
       y="-0.059999999"
       width="1.12"
       height="1.12"
       color-interpolation-filters="sRGB">
      <feGaussianBlur
         stdDeviation="0.04134033"
         id="feGaussianBlur921" />
    </filter>
    <filter
       id="filter1299"
       x="-0.024"
       y="-0.024"
       width="1.048"
       height="1.048"
       color-interpolation-filters="sRGB">
      <feGaussianBlur
         stdDeviation="0.18834042"
         id="feGaussianBlur924" />
    </filter>
    <filter
       id="filter1305"
       x="-0.059999999"
       y="-0.059999999"
       width="1.12"
       height="1.12"
       color-interpolation-filters="sRGB">
      <feGaussianBlur
         stdDeviation="0.61852427"
         id="feGaussianBlur927" />
    </filter>
    <linearGradient
       id="linearGradient1159-3"
       x1="-184.75"
       x2="-170.2"
       y1="-1.2654999"
       y2="-15.817"
       gradientTransform="matrix(3.779602,0,0,3.779602,702.81661,64.286872)"
       gradientUnits="userSpaceOnUse">
      <stop
         style="stop-color:#4c569a;stop-opacity:1"
         stop-color="#05a0f0"
         offset="0"
         id="stop930" />
      <stop
         style="stop-color:#525da6;stop-opacity:1"
         stop-color="#2db4f0"
         offset="1"
         id="stop932" />
    </linearGradient>
    <linearGradient
       gradientUnits="userSpaceOnUse"
       y2="58.471863"
       x2="5.838995"
       y1="5.4336996"
       x1="58.877159"
       id="linearGradient1251"
       xlink:href="#linearGradient1249"
       inkscape:collect="always" />
    <linearGradient
       inkscape:collect="always"
       xlink:href="#c"
       id="linearGradient997"
       gradientUnits="userSpaceOnUse"
       x1="24"
       y1="1048.4"
       x2="24"
       y2="1008.4"
       gradientTransform="matrix(1.5,0,0,1.5,-4,-1510.54)" />
  </defs>
  <path
     d="M 9.087891,4.5 C 6.546315,4.5 4.5,6.5463154 4.5,9.0878906 V 54.912109 C 4.5,57.453684 6.546315,59.5 9.087891,59.5 H 54.912109 C 57.453684,59.5 59.5,57.453684 59.5,54.912109 V 9.0878906 C 59.5,6.5463154 57.453684,4.5 54.912109,4.5 Z"
     style="fill:url(#linearGradient1251);fill-opacity:1;stroke-width:2;stroke-linecap:round"
     id="rect1229" />
  <circle
     cx="32"
     cy="32.060036"
     r="0"
     fill="url(#a)"
     id="circle23"
     style="fill:url(#linearGradient997);stroke-width:1.00001" />
  <path
     d="m 14.682,1037.3 c -1.726,-1.0129 -2.5644,-1.6218 -3.4876,-2.5336 -1.1108,-1.0968 -1.6125,-1.9384 -1.7574,-2.9475 -0.1993,-1.3878 0.76485,-2.8171 2.4565,-3.6413 3.3157,-1.6158 7.8078,-1.969 12.117,-0.9528 0.9122,0.2152 0.88263,0.1473 -0.2204,-0.5038 -1.4519,-0.8576 -3.6965,-2.6295 -5.0009,-3.9477 -1.5472,-1.5637 -2.5067,-3.2165 -2.5067,-4.2646 0,-0.6917 0.34126,-1.425 1.1443,-1.867 1.8791,-1.0342 8.4749,0.7065 12.891,0.9536 1.3985,0.072 2.3344,0.084 2.3302,-0.726 -0.0035,-0.6934 -1.8576,-1.0736 -2.7545,-1.0089 0.78767,-0.2647 1.5428,-0.4023 2.552,-0.4238 2.0183,-0.043 2.4257,0.2164 2.837,0.4088 0.82878,0.3876 1.5817,1.2784 1.5472,2.412 -0.11134,3.6536 -4.4699,2.028 -7.3709,1.5033 -3.2005,-0.5789 -5.9477,-1.0532 -6.8772,0.039 -2.1944,2.5793 5.4818,7.639 7.8525,9.4377 -1.9789,0.1508 -12.552,-0.9457 -14.008,2.7564 -0.51426,1.6807 2.3116,3.4751 4.9491,4.3848 2.1462,0.7069 4.7557,1.5082 7.9963,1.7206 2.9362,0.1925 4.4399,-0.2267 4.1636,-2.4529 2.3328,1.2064 2.1809,3.6088 0.66548,4.6677 -2.4544,1.715 -9.805,0.2513 -10.249,0.1594 -3.5779,-0.7411 -6.9359,-1.8173 -9.2694,-3.1738 z"
     filter="url(#d)"
     opacity="0.15"
     stroke-width="0.66667"
     id="path27"
     transform="matrix(1.5,0,0,1.5,-4,-1510.54)" />
  <path
     d="m 18.023,45.41 c -2.589,-1.51935 -3.8466,-2.4327 -5.2314,-3.8004 -1.6662,-1.6452 -2.41875,-2.9076 -2.6361,-4.42125 -0.29895,-2.0817 1.147275,-4.22565 3.68475,-5.46195 4.97355,-2.4237 11.7117,-2.9535 18.1755,-1.4292 1.3683,0.3228 1.323945,0.22095 -0.3306,-0.7557 C 29.5073,28.2551 26.1404,25.59725 24.1838,23.61995 21.863,21.2744 20.42375,18.7952 20.42375,17.22305 c 0,-1.03755 0.51189,-2.1375 1.71645,-2.8005 2.81865,-1.5513 12.71235,1.05975 19.3365,1.4304 2.09775,0.108 3.5016,0.126 3.4953,-1.089 -0.0053,-1.0401 -2.7864,-1.6104 -4.13175,-1.51335 1.181505,-0.39705 2.3142,-0.60345 3.828,-0.6357 3.02745,-0.0645 3.63855,0.3246 4.2555,0.6132 1.24317,0.5814 2.37255,1.9176 2.3208,3.618 -0.16701,5.4804 -6.70485,3.042 -11.05635,2.25495 -4.80075,-0.86835 -8.92155,-1.5798 -10.3158,0.0585 -3.2916,3.86895 8.2227,11.4585 11.77875,14.15655 -2.96835,0.2262 -18.828,-1.41855 -21.012,4.1346 -0.77139,2.52105 3.4674,5.21265 7.42365,6.5772 3.2193,1.06035 7.13355,2.2623 11.99445,2.5809 4.4043,0.28875 6.65985,-0.34005 6.2454,-3.67935 3.4992,1.8096 3.27135,5.4132 0.99822,7.00155 -3.6816,2.5725 -14.7075,0.37695 -15.3735,0.2391 -5.36685,-1.11165 -10.40385,-2.72595 -13.9041,-4.7607 z"
     fill="url(#b)"
     stroke-width="1.00001"
     id="path29"
     style="fill:url(#b)" />
  <g
     id="g21"
     transform="translate(-66.387382,1)" />
</svg>
