<?xml version="1.0" encoding="UTF-8" standalone="no"?>
<svg
   xmlns:dc="http://purl.org/dc/elements/1.1/"
   xmlns:cc="http://creativecommons.org/ns#"
   xmlns:rdf="http://www.w3.org/1999/02/22-rdf-syntax-ns#"
   xmlns:svg="http://www.w3.org/2000/svg"
   xmlns="http://www.w3.org/2000/svg"
   xmlns:xlink="http://www.w3.org/1999/xlink"
   xmlns:sodipodi="http://sodipodi.sourceforge.net/DTD/sodipodi-0.dtd"
   xmlns:inkscape="http://www.inkscape.org/namespaces/inkscape"
   width="64"
   height="64"
   version="1.1"
   id="svg44"
   sodipodi:docname="email.svg"
   inkscape:version="1.0.1 (3bc2e813f5, 2020-09-07)">
  <metadata
     id="metadata48">
    <rdf:RDF>
      <cc:Work
         rdf:about="">
        <dc:format>image/svg+xml</dc:format>
        <dc:type
           rdf:resource="http://purl.org/dc/dcmitype/StillImage" />
        <dc:title></dc:title>
      </cc:Work>
    </rdf:RDF>
  </metadata>
  <sodipodi:namedview
     pagecolor="#ffffff"
     bordercolor="#666666"
     borderopacity="1"
     objecttolerance="10"
     gridtolerance="10"
     guidetolerance="10"
     inkscape:pageopacity="0"
     inkscape:pageshadow="2"
     inkscape:window-width="1920"
     inkscape:window-height="998"
     id="namedview46"
     showgrid="false"
     inkscape:zoom="4.5906698"
     inkscape:cx="5.2720581"
     inkscape:cy="21.748088"
     inkscape:window-x="0"
     inkscape:window-y="0"
     inkscape:window-maximized="1"
     inkscape:current-layer="svg44" />
  <defs
     id="defs18">
    <linearGradient
       id="b"
       x1="97.425"
       x2="97.425"
       y1="-9.0071"
       y2="209.87"
       gradientTransform="matrix(0.29999639,0,0,0.29999639,1.9999969,2.0050606)"
       gradientUnits="userSpaceOnUse">
      <stop
         stop-color="#f22c42"
         offset="0"
         id="stop2" />
      <stop
         stop-color="#f76363"
         offset="1"
         id="stop4" />
    </linearGradient>
    <filter
       id="d"
       x="-.036"
       y="-.036"
       width="1.072"
       height="1.072"
       color-interpolation-filters="sRGB">
      <feGaussianBlur
         stdDeviation="3.0898947"
         id="feGaussianBlur7" />
    </filter>
    <linearGradient
       id="a"
       x1="105.41"
       x2="105.41"
       y1="-101.99"
       y2="308.4"
       gradientUnits="userSpaceOnUse">
      <stop
         stop-color="#fff"
         offset="0"
         id="stop10" />
      <stop
         stop-color="#d7d7d7"
         offset="1"
         id="stop12" />
    </linearGradient>
    <filter
       id="c"
       x="-.036"
       y="-.036"
       width="1.072"
       height="1.072"
       color-interpolation-filters="sRGB">
      <feGaussianBlur
         stdDeviation="14.343749"
         id="feGaussianBlur15" />
    </filter>
    <linearGradient
       id="b-3">
      <stop
         id="stop2-6"
         offset="0"
         stop-color="#111" />
      <stop
         id="stop4-7"
         offset=".54902"
         stop-color="#4c4c4c" />
      <stop
         id="stop6"
         offset="1"
         stop-color="#888" />
    </linearGradient>
    <linearGradient
       gradientUnits="userSpaceOnUse"
       gradientTransform="matrix(1.0007 0 0 1.0007 -.028835 -.81993)"
       y2="1026.1"
       y1="2.8257"
       x2="519.68"
       x1="519.68"
       id="c-5">
      <stop
         id="stop9"
         offset="0"
         stop-color="#d7d7d7" />
      <stop
         id="stop11"
         offset=".5"
         stop-color="#faf8f6" />
      <stop
         id="stop13"
         offset="1"
         stop-color="#fff" />
    </linearGradient>
    <filter
       color-interpolation-filters="sRGB"
       height="1.0723"
       width="1.0717"
       y="-.036138"
       x="-.035863"
       id="e">
      <feGaussianBlur
         id="feGaussianBlur16"
         stdDeviation="0.75453" />
    </filter>
    <linearGradient
       xlink:href="#b-3"
       gradientUnits="userSpaceOnUse"
       y2="75.049"
       y1="-25.544"
       x2="25.655"
       x1="23.683"
       id="a-3" />
    <filter
       color-interpolation-filters="sRGB"
       height="1.072"
       width="1.072"
       y="-.036"
       x="-.036"
       id="d-5">
      <feGaussianBlur
         id="feGaussianBlur20"
         stdDeviation="14.170353" />
    </filter>
    <clipPath
       id="clipPath927">
      <rect
         width="384"
         height="384"
         id="rect925" />
    </clipPath>
    <clipPath
       id="clipPath931">
      <rect
         width="384"
         height="384"
         id="rect929" />
    </clipPath>
    <clipPath
       id="clipPath935">
      <rect
         width="384"
         height="384"
         id="rect933" />
    </clipPath>
    <linearGradient
       id="linearGradient1634"
       x1="-59.235"
       x2="-59.235"
       y1=".7041"
       y2="-11.929"
       gradientTransform="matrix(4.1232,0,0,4.1232,275.52045,59.01085)"
       gradientUnits="userSpaceOnUse">
      <stop
         stop-color="#d73782"
         offset="0"
         id="stop937" />
      <stop
         stop-color="#eb554b"
         offset="1"
         id="stop939" />
    </linearGradient>
    <linearGradient
       id="i"
       x1="400.4"
       x2="400.4"
       y1="545.62"
       y2="517.62"
       gradientTransform="matrix(1.5862,0,0,1.5862,-825.04045,-698.05015)"
       gradientUnits="userSpaceOnUse">
      <stop
         stop-color="#d3d3d3"
         offset="0"
         id="stop942" />
      <stop
         stop-color="#fcf9f9"
         offset="1"
         id="stop944" />
    </linearGradient>
    <linearGradient
       id="f"
       x1="400.4"
       x2="400.4"
       y1="545.62"
       y2="517.62"
       gradientTransform="matrix(1.6382,0,0,1.6382,-899.68045,-703.57015)"
       gradientUnits="userSpaceOnUse">
      <stop
         stop-color="#8d3aff"
         offset="0"
         id="stop947" />
      <stop
         stop-color="#ff3680"
         offset="1"
         id="stop949" />
    </linearGradient>
    <linearGradient
       inkscape:collect="always"
       xlink:href="#a"
       id="linearGradient983"
       gradientUnits="userSpaceOnUse"
       x1="105.41"
       y1="-101.99"
       x2="105.41"
       y2="308.4" />
    <linearGradient
       inkscape:collect="always"
       xlink:href="#a"
       id="linearGradient985"
       gradientUnits="userSpaceOnUse"
       x1="105.41"
       y1="-101.99"
       x2="105.41"
       y2="308.4" />
    <linearGradient
       inkscape:collect="always"
       xlink:href="#a"
       id="linearGradient987"
       gradientUnits="userSpaceOnUse"
       x1="105.41"
       y1="-101.99"
       x2="105.41"
       y2="308.4" />
  </defs>
  <path
     id="path960"
     stroke-width="0.11719"
     image-rendering="optimizeSpeed"
     fill="url(#linearGradient1634)"
     d="m 62.00045,31.99985 c 0,3.5964 -0.63305,7.0444 -1.7939,10.24 -0.80694,2.2212 -1.8685,4.3212 -3.1519,6.2636 -0.53754,0.8167 -1.1155,1.6054 -1.729,2.3634 -1.9641,2.4256 -4.2982,4.5382 -6.9186,6.2526 -0.9649,0.63184 -1.9678,1.2098 -3.0061,1.7277 -4.0321,2.0179 -8.5839,3.153 -13.401,3.153 -4.8171,0 -9.3689,-1.1351 -13.401,-3.1531 -1.0384,-0.51799 -2.0425,-1.0959 -3.0074,-1.7277 -2.6535,-1.7376 -5.0155,-3.8832 -6.9957,-6.349 -0.61464,-0.76408 -1.1915,-1.56 -1.729,-2.3841 -1.249,-1.9102 -2.2836,-3.9712 -3.0746,-6.1494 -1.1607,-3.1947 -1.7927,-6.6415 -1.7927,-10.237 0,-16.569 13.431,-30 30,-30 8.317,0 15.842,3.3845 21.277,8.8503 1.5661,1.5746 2.9585,3.3234 4.1436,5.214 1.1205,1.7805 2.0571,3.6882 2.7857,5.6951 1.1611,3.1959 1.794,6.6442 1.794,10.24 z"
     style="fill:url(#linearGradient1634)" />
  <g
     transform="matrix(0.1559527,0,0,0.1559527,16.06272,16.788598)"
     filter="url(#d)"
     opacity="0.2"
     stroke-width="15.938"
     id="g30">
    <g
       stroke-width="15.938"
       id="g28">
      <path
         d="m 103,61.363 c 22.958,0 41.635,18.678 41.635,41.635 0,3.313 2.687,6 6,6 3.313,0 6,-2.687 6,-6 0,-29.574 -24.061,-53.635 -53.635,-53.635 -29.574,0 -53.636,24.061 -53.636,53.635 0,29.574 24.061,53.635 53.635,53.635 18.99,0 36.745,-10.195 46.336,-26.607 1.672,-2.861 0.708,-6.535 -2.153,-8.208 -2.86,-1.67 -6.535,-0.707 -8.208,2.153 -7.448,12.745 -21.233,20.662 -35.976,20.662 -22.958,0 -41.635,-18.678 -41.635,-41.635 0,-22.957 18.679,-41.635 41.637,-41.635 z"
         id="path24" />
      <path
         d="M 205.7,95.053 C 201.94,44.994 161.374,4.271 111.341,0.326 81.097,-2.059 51.512,8.817 30.165,30.165 8.817,51.513 -2.059,81.1 0.326,111.341 c 3.931,49.847 44.483,90.399 94.329,94.329 2.747,0.217 5.484,0.323 8.214,0.323 27.329,0 53.553,-10.753 72.962,-30.161 2.343,-2.344 2.343,-6.143 0,-8.485 -2.343,-2.342 -6.142,-2.344 -8.485,-0.001 -18.862,18.861 -45.012,28.47 -71.747,26.361 C 51.576,190.236 15.761,154.421 12.289,110.397 10.181,83.662 19.789,57.51 38.65,38.65 57.511,19.789 83.658,10.177 110.397,12.289 c 44.189,3.483 80.016,39.451 83.337,83.662 0.455,6.057 0.321,12.142 -0.397,18.086 -0.762,6.304 -4.578,11.805 -10.208,14.713 -5.095,2.633 -10.819,2.623 -15.706,-0.026 -2.913,-1.582 -6.556,-0.499 -8.134,2.415 -1.58,2.913 -0.499,6.555 2.415,8.134 8.435,4.573 18.251,4.623 26.933,0.139 9.164,-4.734 15.375,-13.682 16.613,-23.935 0.812,-6.719 0.963,-13.59 0.45,-20.424 z"
         id="path26" />
    </g>
  </g>
  <g
     transform="matrix(0.1559527,0,0,0.1559527,16.06272,16.035658)"
     stroke-width="15.938"
     id="g38">
    <g
       fill="url(#a)"
       stroke-width="15.938"
       id="g36"
       style="fill:url(#linearGradient987)">
      <path
         d="m 103,61.363 c 22.958,0 41.635,18.678 41.635,41.635 0,3.313 2.687,6 6,6 3.313,0 6,-2.687 6,-6 0,-29.574 -24.061,-53.635 -53.635,-53.635 -29.574,0 -53.636,24.061 -53.636,53.635 0,29.574 24.061,53.635 53.635,53.635 18.99,0 36.745,-10.195 46.336,-26.607 1.672,-2.861 0.708,-6.535 -2.153,-8.208 -2.86,-1.67 -6.535,-0.707 -8.208,2.153 -7.448,12.745 -21.233,20.662 -35.976,20.662 -22.958,0 -41.635,-18.678 -41.635,-41.635 0,-22.957 18.679,-41.635 41.637,-41.635 z"
         id="path32"
         style="fill:url(#linearGradient983)" />
      <path
         d="M 205.7,95.053 C 201.94,44.994 161.374,4.271 111.341,0.326 81.097,-2.059 51.512,8.817 30.165,30.165 8.817,51.513 -2.059,81.1 0.326,111.341 c 3.931,49.847 44.483,90.399 94.329,94.329 2.747,0.217 5.484,0.323 8.214,0.323 27.329,0 53.553,-10.753 72.962,-30.161 2.343,-2.344 2.343,-6.143 0,-8.485 -2.343,-2.342 -6.142,-2.344 -8.485,-0.001 -18.862,18.861 -45.012,28.47 -71.747,26.361 C 51.576,190.236 15.761,154.421 12.289,110.397 10.181,83.662 19.789,57.51 38.65,38.65 57.511,19.789 83.658,10.177 110.397,12.289 c 44.189,3.483 80.016,39.451 83.337,83.662 0.455,6.057 0.321,12.142 -0.397,18.086 -0.762,6.304 -4.578,11.805 -10.208,14.713 -5.095,2.633 -10.819,2.623 -15.706,-0.026 -2.913,-1.582 -6.556,-0.499 -8.134,2.415 -1.58,2.913 -0.499,6.555 2.415,8.134 8.435,4.573 18.251,4.623 26.933,0.139 9.164,-4.734 15.375,-13.682 16.613,-23.935 0.812,-6.719 0.963,-13.59 0.45,-20.424 z"
         id="path34"
         style="fill:url(#linearGradient985)" />
    </g>
  </g>
  <g
     transform="matrix(0.99609,0,0,0.99609,-62.920904,-958)"
     id="shadow"
     style="image-rendering:optimizeSpeed" />
  <circle
     id="circle954"
     fill="#5e4aa6"
     r="0"
     cy="-1246.0001"
     cx="-1223.0204"
     style="image-rendering:optimizeSpeed" />
  <g
     id="g970"
     image-rendering="optimizeSpeed"
     fill="#5e4aa6"
     transform="translate(-169.87045,-24.40715)">
    <circle
       id="circle962"
       r="0"
       cy="-1237.8"
       cx="-1331.1" />
    <circle
       id="circle964"
       r="0"
       cy="-1229.7"
       cx="-1262.2" />
    <circle
       id="circle966"
       r="0"
       cy="-1255.5"
       cx="-1239.2" />
    <circle
       id="circle968"
       r="0"
       cy="-1228.8"
       cx="-1249.8" />
  </g>
  <circle
     id="circle972"
     image-rendering="optimizeSpeed"
     fill="url(#i)"
     r="0"
     cy="145.49985"
     cx="-189.65045"
     style="fill:url(#i)" />
  <circle
     id="circle974"
     stroke-width="2.1297"
     stroke="url(#f)"
     image-rendering="optimizeSpeed"
     fill="none"
     r="0"
     cy="167.65985"
     cx="-243.44046"
     style="stroke:url(#f)" />
</svg>
