<?xml version="1.0" encoding="UTF-8"?>
<!-- Created with Inkscape (http://www.inkscape.org/) -->
<svg width="64" height="64" version="1.1" viewBox="0 0 16.933 16.933" xmlns="http://www.w3.org/2000/svg">
 <defs>
  <linearGradient id="linearGradient1831" x1="-185.29" x2="-178.3" y1="-.14299" y2="-13.59" gradientTransform="matrix(1.0545 0 0 1 190.47 17.946)" gradientUnits="userSpaceOnUse">
   <stop stop-color="#0a87d2" offset="0"/>
   <stop stop-color="#2db9f5" offset="1"/>
  </linearGradient>
  <filter id="filter1877" x="-.041878" y="-.031569" width="1.0838" height="1.0631" color-interpolation-filters="sRGB">
   <feGaussianBlur stdDeviation="0.19012955"/>
  </filter>
  <linearGradient id="linearGradient1817" x1="-176.72" x2="-170.2" y1="-1.2665" y2="-15.817" gradientTransform="matrix(1.0545 0 0 1 190.47 17.946)" gradientUnits="userSpaceOnUse">
   <stop stop-color="#c8e6f0" offset="0"/>
   <stop stop-color="#fff" offset="1"/>
  </linearGradient>
 </defs>
 <g transform="matrix(.96551 0 0 .96551 5.2775 -.65169)">
  <path d="m4.0683 2.1285h-7.3853c-0.5832 0-1.0528 0.54142-1.0528 1.2139v12.124c0 0.67245 0.46955 1.2139 1.0528 1.2139h7.4198c-0.013763-0.04621-0.033225-0.06792-0.045714-0.11937-0.051794-0.21336-0.093111-0.47-0.12548-0.755-0.064759-0.56999-0.094568-1.2531-0.10621-1.929-0.023303-1.3518 0.026895-2.6748 0.019722-3.0055-0.00356-0.16536-0.061845-0.26872-0.14968-0.33125-0.087847-0.06253-0.20526-0.08423-0.32717-0.0863-0.2438-0.0041-0.50554 0.07028-0.58441 0.05374-0.078878-0.016541-0.27302-0.054142-0.45982-0.23668-0.093397-0.091271-0.18486-0.21868-0.25949-0.39791-0.07463-0.17923-0.1324-0.41031-0.15775-0.70848-0.012679-0.14908 0.012705-0.37355 0.06678-0.65267s0.13711-0.6131 0.23932-0.97978c0.2044-0.73337 0.48653-1.599 0.77175-2.4277 0.53615-1.5579 1.0198-2.8103 1.0836-2.9761z" fill="url(#linearGradient1831)" stroke-width="1.0269"/>
  <path transform="matrix(.81577 0 0 .94698 -71.42 -13.931)" d="m92.249 17.499c-0.07668 0.16466-0.6576 1.4086-1.3015 2.956-0.34255 0.82318-0.6814 1.683-0.9269 2.4114-0.12275 0.36422-0.2225 0.69595-0.28744 0.9732-0.06495 0.27725-0.09543 0.5002-0.08021 0.64829 0.03045 0.29617 0.09984 0.52569 0.18947 0.70372 0.08964 0.17803 0.19948 0.30458 0.31166 0.39524 0.22435 0.18131 0.45753 0.21866 0.55227 0.23509 0.09474 0.01642 0.40908-0.05749 0.7019-0.05338 0.14641 0.0021 0.28744 0.02361 0.39294 0.08572s0.17547 0.16477 0.17978 0.32902c0.0086 0.32851-0.05168 1.6425-0.02369 2.9853 0.014 0.67138 0.0498 1.35 0.12757 1.9161 0.0389 0.28308 0.08852 0.53799 0.15072 0.74992 0.015 0.05111 0.03838 0.07268 0.0549 0.11857h6.9905c0.70045 0 1.2644-0.53778 1.2644-1.2057v-12.043c0-0.66794-0.56396-1.2057-1.2644-1.2057z" filter="url(#filter1877)" opacity=".2" stroke-width="1.1216"/>
  <path d="m4.0683 2.1285c-0.06384 0.16577-0.54752 1.4181-1.0836 2.9761-0.28522 0.82875-0.56734 1.6944-0.77175 2.4277-0.1022 0.36669-0.18525 0.70066-0.23932 0.97978-0.054075 0.27913-0.079452 0.50359-0.06678 0.65267 0.025351 0.29818 0.083129 0.52925 0.15775 0.70848 0.074629 0.17923 0.16609 0.30664 0.25949 0.39791 0.18679 0.18254 0.38094 0.22014 0.45982 0.23667 0.078879 0.01653 0.34061-0.05788 0.58441-0.05374 0.1219 0.0021 0.23932 0.02377 0.32717 0.0863 0.087838 0.06253 0.1461 0.16588 0.14968 0.33125 0.0072 0.33073-0.043026 1.6536-0.019721 3.0055 0.011656 0.67592 0.041456 1.3591 0.10621 1.929 0.032384 0.285 0.073701 0.54163 0.12548 0.755 0.012488 0.05145 0.031951 0.07317 0.045714 0.11937h5.8204c0.5832 0 1.0528-0.54142 1.0528-1.2139v-12.124c0-0.67245-0.46955-1.2139-1.0528-1.2139z" fill="url(#linearGradient1817)" stroke-width="1.0269"/>
  <circle cx="-.55221" cy="7.3002" r=".83593" fill="#0a4682" stroke-width=".86414" style="paint-order:stroke fill markers"/>
  <circle cx="6.3592" cy="7.3002" r=".83593" fill="#0a4682" stroke-width=".86414" style="paint-order:stroke fill markers"/>
 </g>
</svg>
