<?xml version="1.0" encoding="UTF-8"?>
<svg width="64" height="64" version="1.1" xmlns="http://www.w3.org/2000/svg" xmlns:cc="http://creativecommons.org/ns#" xmlns:dc="http://purl.org/dc/elements/1.1/" xmlns:rdf="http://www.w3.org/1999/02/22-rdf-syntax-ns#" xmlns:xlink="http://www.w3.org/1999/xlink">
 <metadata>
  <rdf:RDF>
   <cc:Work rdf:about="">
    <dc:format>image/svg+xml</dc:format>
    <dc:type rdf:resource="http://purl.org/dc/dcmitype/StillImage"/>
    <dc:title/>
   </cc:Work>
  </rdf:RDF>
 </metadata>
 <defs>
  <linearGradient id="d-7" x1="24" x2="24" y1="32.602" y2="15.721" gradientTransform="matrix(1.5,0,0,1.5,-4,-4)" gradientUnits="userSpaceOnUse">
   <stop stop-color="#eff1f1" offset="0"/>
   <stop stop-color="#fcfcfc" offset="1"/>
  </linearGradient>
  <linearGradient id="e" x1="24" x2="24" y1="34" y2="14" gradientTransform="matrix(1.5,0,0,1.5,-4,-4)" gradientUnits="userSpaceOnUse" xlink:href="#a-3"/>
  <linearGradient id="a-3">
   <stop stop-color="#4d4d4d" offset="0"/>
   <stop stop-color="#536161" offset="1"/>
  </linearGradient>
  <linearGradient id="g" x1="24" x2="24" y1="31.214" y2="17.22" gradientTransform="matrix(1.5,0,0,1.5,-4,-4)" gradientUnits="userSpaceOnUse" xlink:href="#a-3"/>
  <filter id="filter1014" x="-.06" y="-.06" width="1.12" height="1.12" color-interpolation-filters="sRGB">
   <feGaussianBlur stdDeviation="0.75"/>
  </filter>
  <linearGradient id="linearGradient952" x1="72.526" x2="72.526" y1="6.9746" y2="56.936" gradientTransform="translate(-42.018 .02539)" gradientUnits="userSpaceOnUse">
   <stop stop-color="#f2b52d" offset="0"/>
   <stop stop-color="#f54c44" offset="1"/>
  </linearGradient>
 </defs>
 <rect x="4.4996" y="4.4996" width="55.001" height="55.001" ry="4.5877" fill="#f0f0f0" stroke-width="3.7796"/>
 <path d="m10.334 7c-1.8474 0-3.334 1.4866-3.334 3.334v2.1289h23.508v-5.4629h-20.174zm23.174 0v5.4629h23.492v-2.1289c0-1.8474-1.4866-3.334-3.334-3.334h-20.158zm-26.508 8.5254v9h8.4785v-9h-8.4785zm11.508 0v9h27v-9h-27zm30.014 0v9h8.4785v-9h-8.4785zm-41.521 12v9h23.508v-9h-23.508zm26.508 0v9h23.492v-9h-23.492zm-26.508 12.006v9h8.4785v-9h-8.4785zm11.508 0v9h27v-9h-27zm30.014 0v9h8.4785v-9h-8.4785zm-41.521 12.006v2.1289c0 1.8474 1.4866 3.334 3.334 3.334h20.174v-5.4629h-23.508zm26.508 0v5.4629h20.158c1.8474 0 3.334-1.4866 3.334-3.334v-2.1289h-23.492z" fill="url(#linearGradient952)" stroke-width="2"/>
 <g stroke-width="1.5">
  <path d="m32 17s-3.75 4.9845-15 6.234c0 0 0 17.5 15 23.766 15-6.2655 15-23.766 15-23.766-11.25-1.2495-15-6.234-15-6.234zm0 2.58c2.976 2.523 7.269 4.2045 12.836 5.052-0.303 2.709-0.5925 4.749-1.293 6.72-1.4715 4.143-3.189 6.66-4.728 8.4735-2.385 2.808-4.551 3.945-6.8145 5.0775-2.2635-1.131-4.4295-2.2695-6.8145-5.0775-1.539-1.812-3.255-4.3305-4.728-8.4735-0.7005-1.971-0.99-4.011-1.293-6.72 5.5665-0.8475 9.8595-2.529 12.836-5.0505z" filter="url(#filter1014)" opacity=".25"/>
  <path d="m18.875 24.5 13.125-5.625 13.125 5.625v7.5l-5.625 7.5-5.625 5.625h-3.75l-5.625-5.625-5.625-7.5z" fill="url(#d-7)"/>
  <path d="m32 17s-3.75 4.9845-15 6.234c0 0 0 17.5 15 23.766 15-6.2655 15-23.766 15-23.766-11.25-1.2495-15-6.234-15-6.234zm0 2.58c2.976 2.523 7.269 4.2045 12.836 5.052-0.303 2.709-0.5925 4.749-1.293 6.72-1.4715 4.143-3.189 6.66-4.728 8.4735-2.385 2.808-4.551 3.945-6.8145 5.0775-2.2635-1.131-4.4295-2.2695-6.8145-5.0775-1.539-1.812-3.255-4.3305-4.728-8.4735-0.7005-1.971-0.99-4.011-1.293-6.72 5.5665-0.8475 9.8595-2.529 12.836-5.0505z" fill="url(#e)"/>
  <path d="m32 21.83c-3.27 2.2695-6.942 3.42-10.628 4.2 1.746 9.9045 5.505 14.139 10.628 16.791 5.1225-2.652 8.8815-6.8865 10.628-16.79-3.6855-0.783-7.359-1.932-10.628-4.2z" fill="url(#g)"/>
 </g>
</svg>
