<?xml version="1.0" encoding="UTF-8"?>
<!-- Created with Inkscape (http://www.inkscape.org/) -->
<svg width="64" height="64" version="1.1" viewBox="0 0 16.933 16.933" xmlns="http://www.w3.org/2000/svg">
 <defs>
  <linearGradient id="linearGradient1005-9" x1=".73911" x2="16.388" y1="16.296" y2=".64687" gradientTransform="matrix(.99999 0 0 .99999 -16.969 5.1712)" gradientUnits="userSpaceOnUse">
   <stop stop-color="#cfdade" offset="0"/>
   <stop stop-color="#eaeff2" offset="1"/>
  </linearGradient>
  <filter id="e" x="-.10714" y="-.10714" width="1.2143" height="1.2143" color-interpolation-filters="sRGB">
   <feGaussianBlur stdDeviation="0.1653553"/>
  </filter>
  <linearGradient id="a" x1="5.8476" x2="5.8476" y1="286.86" y2="290.2" gradientTransform="matrix(1.1111 0 0 1.1111 -17.875 -306.96)" gradientUnits="userSpaceOnUse">
   <stop stop-color="#0083dc" offset="0"/>
   <stop stop-color="#00c7dc" offset="1"/>
  </linearGradient>
  <filter id="d" x="-.10714" y="-.10714" width="1.2143" height="1.2143" color-interpolation-filters="sRGB">
   <feGaussianBlur stdDeviation="0.1653553"/>
  </filter>
  <linearGradient id="b" x1="11.086" x2="11.086" y1="286.86" y2="290.2" gradientTransform="matrix(1.1111 0 0 1.1111 -17.875 -306.96)" gradientUnits="userSpaceOnUse">
   <stop stop-color="#f5348d" offset="0"/>
   <stop stop-color="#f53459" offset="1"/>
  </linearGradient>
 </defs>
 <g transform="translate(16.934 -5.1644)">
  <path d="m-0.52963 13.631c0 0.95155-0.16749 1.8638-0.47464 2.7094-0.2135 0.58769-0.4944 1.1433-0.83394 1.6572-0.14222 0.21608-0.29515 0.42476-0.45747 0.62529-0.51964 0.6418-1.1372 1.2007-1.8304 1.6542-0.2553 0.16717-0.52065 0.3201-0.79537 0.45712-1.0668 0.5339-2.2711 0.83421-3.5457 0.83421s-2.4788-0.30032-3.5457-0.83423c-0.27474-0.13705-0.54041-0.28996-0.79571-0.45712-0.70207-0.45974-1.327-1.0274-1.8508-1.6798-0.16262-0.20216-0.31523-0.41275-0.45747-0.63076-0.33047-0.50541-0.6042-1.0507-0.81349-1.627-0.30711-0.8453-0.47429-1.7572-0.47429-2.7086 0-4.3839 3.5536-7.9375 7.9375-7.9375 2.2005 0 4.1918 0.89548 5.6295 2.3416 0.41437 0.41661 0.78275 0.87929 1.0963 1.3795 0.29644 0.47106 0.54427 0.97581 0.73705 1.5068 0.30719 0.84559 0.47466 1.7579 0.47466 2.7094z" fill="url(#linearGradient1005-9)" image-rendering="optimizeSpeed" stroke-width=".031007"/>
  <path transform="matrix(1 0 0 1 -16.934 5.1645)" d="m7.4082 8.4235a1.852 1.852 0 1 1-3.7031 0 1.852 1.852 0 0 1 3.7031 0" filter="url(#e)" opacity=".15" stroke-width=".99949"/>
  <path d="m-9.5256 13.588a1.852 1.852 0 1 1-3.7032 0 1.852 1.852 0 0 1 3.7032 0" fill="url(#a)" stroke-width=".99951"/>
  <path transform="matrix(1 0 0 1 -16.934 5.1645)" d="m13.228 8.4235a1.852 1.852 0 1 1-3.7031 0 1.852 1.852 0 0 1 3.7031 0" filter="url(#d)" opacity=".15" stroke-width=".99949"/>
  <path d="m-3.7057 13.588a1.852 1.852 0 1 1-3.7032 0 1.852 1.852 0 0 1 3.7032 0" fill="url(#b)" stroke-width=".99951"/>
 </g>
</svg>
