<?xml version="1.0" encoding="UTF-8"?>
<svg id="SimpleNote" width="64" height="64" enable-background="new 0 0 1024 1024" image-rendering="optimizeSpeed" version="1.1" viewBox="0 0 64 64" xmlns="http://www.w3.org/2000/svg" xmlns:cc="http://creativecommons.org/ns#" xmlns:dc="http://purl.org/dc/elements/1.1/" xmlns:rdf="http://www.w3.org/1999/02/22-rdf-syntax-ns#" xmlns:xlink="http://www.w3.org/1999/xlink">
 <metadata>
  <rdf:RDF>
   <cc:Work rdf:about="">
    <dc:format>image/svg+xml</dc:format>
    <dc:type rdf:resource="http://purl.org/dc/dcmitype/StillImage"/>
    <dc:title/>
   </cc:Work>
  </rdf:RDF>
 </metadata>
 <defs>
  <linearGradient id="linear0" x1="64" x2="120" y1="246" y2="246" gradientTransform="matrix(.33929 0 0 .33929 10.286 -45.187)" gradientUnits="userSpaceOnUse">
   <stop stop-color="#c0bfbc" offset="0"/>
   <stop stop-color="#c0bfbc" offset=".85714"/>
   <stop stop-color="#deddda" offset=".92857"/>
   <stop stop-color="#c0bfbc" offset="1"/>
  </linearGradient>
  <linearGradient id="linear1" x1="64" x2="120" y1="246" y2="246" gradientTransform="matrix(-.33929 0 0 .33929 53.714 -45.187)" gradientUnits="userSpaceOnUse">
   <stop stop-color="#c0bfbc" offset="0"/>
   <stop stop-color="#c0bfbc" offset=".85714"/>
   <stop stop-color="#deddda" offset=".92857"/>
   <stop stop-color="#c0bfbc" offset="1"/>
  </linearGradient>
  <clipPath id="clip1">
   <rect width="192" height="152"/>
  </clipPath>
  <linearGradient id="linear2" x1="320" x2="416" y1="116" y2="116" gradientTransform="matrix(-.084821 0 0 .084821 67.286 21.652)" gradientUnits="userSpaceOnUse">
   <stop stop-color="#f5f5f4" offset="0"/>
   <stop stop-color="#fff" offset=".5"/>
   <stop stop-color="#e0dedb" offset="1"/>
  </linearGradient>
  <linearGradient id="linear3" x1="320" x2="416" y1="116" y2="116" gradientTransform="matrix(.084821 0 0 .084821 -3.2857 21.652)" gradientUnits="userSpaceOnUse">
   <stop stop-color="#f5f5f4" offset="0"/>
   <stop stop-color="#f5f5f4" offset=".5"/>
   <stop stop-color="#cccbc8" offset="1"/>
  </linearGradient>
  <linearGradient id="linear4" x1="59.092" x2="46.289" y1="216.78" y2="169" gradientTransform="matrix(.33929 0 0 .33929 6.2608 -46.199)" gradientUnits="userSpaceOnUse">
   <stop stop-color="#0cc" offset="0"/>
   <stop stop-color="#31e5d2" offset="1"/>
  </linearGradient>
  <filter id="filter1191" x="-.050357" y="-.045854" width="1.1007" height="1.0917" color-interpolation-filters="sRGB">
   <feGaussianBlur stdDeviation="0.79732141"/>
  </filter>
  <linearGradient id="linearGradient1084" x1="33.278" x2="33.278" y1="4.4398" y2="59.394" gradientUnits="userSpaceOnUse">
   <stop stop-color="#00e0b5" offset="0"/>
   <stop stop-color="#00e0b5" offset="1"/>
  </linearGradient>
 </defs>
 <rect x="4.4995" y="4.4995" width="55.001" height="55.001" ry="4.5877" fill="url(#linearGradient1084)" stroke-width="3.7796"/>
 <g filter="url(#filter1191)" opacity=".15">
  <path d="m51 43.147v2.2544c0 1.5043-1.21 2.7143-2.7143 2.7143h-7.4643c-3.2855 0-6.1151 1.9469-7.402 4.75h-2.8389c-1.2869-2.8031-4.1165-4.75-7.402-4.75h-7.4643c-1.5043 0-2.7143-1.21-2.7143-2.7143v-2.2544z"/>
  <path d="m32.79 29.462c-0.05434 0.33531-0.09277 0.67194-0.11133 1.0112h-0.67857v21.375h1.4194c1.2869-2.8031 4.1165-4.75 7.402-4.75h7.4643c1.5043 0 2.7143-1.21 2.7143-2.7143v-12.094c0-1.5043-1.21-2.7143-2.7143-2.7143z"/>
  <path d="m31.211 29.462c0.05301 0.33531 0.09145 0.67194 0.11 1.0112h0.67857v21.375h-1.4194c-1.2869-2.8031-4.1165-4.75-7.402-4.75h-7.4643c-1.5043 0-2.7143-1.21-2.7143-2.7143v-12.094c0-1.5043 1.21-2.7143 2.7143-2.7143z"/>
  <g transform="matrix(.33929 0 0 .33929 7.5714 5.7054)" clip-path="url(#clip1)" opacity=".25">
   <path d="m128 107.66c-0.08203 4.0898-3.3789 7.3438-7.4922 7.3438h-0.5v1h0.5c3.2461 0 6.0586-1.8125 7.4922-4.4805zm-32 7.3438 24 1v-1z"/>
   <path d="m128 111.52c-0.082 4.0898-3.3789 7.3438-7.4922 7.3438h-0.5v1h0.5c3.2227 0 6.0234-1.7891 7.4648-4.4258 0.0117-0.19141 0.0273-0.38281 0.0273-0.57422zm-26 7.3438 18 1v-1z" opacity="1"/>
  </g>
  <path d="m48.286 18.259c1.5043 0 2.7143 1.21 2.7143 2.7143v20.018c0 1.5043-1.21 2.7143-2.7143 2.7143h-8.1429c-4.4969 0-8.1429 3.646-8.1429 8.1429v-24.768c0-4.4969 3.646-8.8214 8.1429-8.8214z"/>
  <path d="m15.714 18.259c-1.5043 0-2.7143 1.21-2.7143 2.7143v20.018c0 1.5043 1.21 2.7143 2.7143 2.7143h8.1429c4.4969 0 8.1429 3.646 8.1429 8.1429v-24.768c0-4.4969-3.646-8.8214-8.1429-8.8214z"/>
  <path d="m44.893 21.991v2.0357h-4.0714c-1.4844 0.06229-2.872 0.44001-4.0714 1.1133v-1.8833c1.1981-0.79255 2.5871-1.2657 4.0714-1.2657z"/>
  <path d="m46.929 26.062v1.3571h-6.1071c-1.4844 0.06229-2.872 0.44001-4.0714 1.1133v-1.2047c1.1981-0.79255 2.5871-1.2657 4.0714-1.2657z"/>
  <path d="m46.929 28.777v1.3571h-6.1071c-1.4844 0.062291-2.872 0.44001-4.0714 1.1133v-1.2047c1.1981-0.79255 2.5871-1.2657 4.0714-1.2657z"/>
  <path d="m46.929 31.491v1.3571h-6.1071c-1.4844 0.06229-2.872 0.44001-4.0714 1.1133v-1.2047c1.1981-0.79255 2.5871-1.2657 4.0714-1.2657z"/>
  <path d="m22.5 36.92h-5.4286v1.3571h5.4286z"/>
  <path d="m17.071 26.062v1.3571h6.7857c1.2127 0.05036 2.3591 0.31543 3.3929 0.77797v-1.267c-1.0338-0.54869-2.1802-0.8681-3.3929-0.8681z"/>
  <path d="m17.071 28.777v1.3571h6.7857c1.2127 0.05036 2.3591 0.31543 3.3929 0.77797v-1.267c-1.0338-0.54869-2.1802-0.86809-3.3929-0.86809z"/>
  <path d="m17.071 31.491v1.3571h6.7857c1.2127 0.05036 2.3591 0.31543 3.3929 0.77797v-1.267c-1.0338-0.54869-2.1802-0.86809-3.3929-0.86809z"/>
  <path d="m17.071 23.348v1.3571h6.7857c1.2127 0.05036 2.3591 0.31543 3.3929 0.77797v-1.267c-1.0338-0.54869-2.1802-0.86809-3.3929-0.86809z"/>
  <path d="m17.071 34.205v1.3571h6.7857c1.2127 0.05036 2.3591 0.31543 3.3929 0.77797v-1.267c-1.0338-0.54869-2.1802-0.8681-3.3929-0.8681z"/>
  <path d="m44.214 34.205v1.3571h-3.3929c-1.4844 0.06229-2.872 0.44001-4.0714 1.1133v-1.2047c1.1981-0.79255 2.5871-1.2657 4.0714-1.2657z"/>
  <path d="m21.969 11.134s-2.7925 6.9342-2.7845 10.581c0.0053 2.7143 0.37374 5.7771 2.1073 7.8659 1.332 1.6037 5.642 2.7024 5.642 2.7024l1.3108-0.35121s3.1821-3.1066 3.5347-5.1609c0.45724-2.6759-0.75544-5.5121-2.1073-7.8659-1.817-3.1636-7.7028-7.7718-7.7028-7.7718z"/>
  <path d="m28.341 37.537c-3.6553-13.64-3.5585-15.163-5.3464-22.67 2.216 7.3636 3.0019 8.6783 6.6572 22.319z"/>
  <path d="m24.566 21.335c1.2273-2.1245 1.6673-2.5499 2.102-3.2563-0.39362 0.73026-0.55532 1.3161-1.7826 3.4406z"/>
  <path d="m25.417 24.632c1.7031-2.9502 2.314-3.5413 2.9171-4.5234-0.54471 1.0152-0.77002 1.829-2.4744 4.7792z"/>
  <path d="m26.354 28.17c1.8025-3.1212 2.4479-3.7467 3.0867-4.7845-0.57785 1.0735-0.81641 1.9337-2.6175 5.0548z"/>
  <path d="m24.819 21.267c-2.1258-1.2259-2.7183-1.3744-3.4485-1.7693 0.70508 0.43604 1.1385 0.86279 3.263 2.0887z"/>
  <path d="m25.731 24.549c-2.9502-1.7044-3.7746-1.9111-4.7884-2.4585 0.98075 0.60568 1.5811 1.1981 4.5326 2.9012z"/>
  <path d="m26.688 28.08c-3.1212-1.8025-3.9932-2.0211-5.0654-2.6003 1.0364 0.64146 1.6739 1.267 4.7951 3.0695z"/>
 </g>
 <path d="m51 43.147v2.2544c0 1.5043-1.21 2.7143-2.7143 2.7143h-7.4643c-3.2855 0-6.1151 1.9469-7.402 4.75h-2.8389c-1.2869-2.8031-4.1165-4.75-7.402-4.75h-7.4643c-1.5043 0-2.7143-1.21-2.7143-2.7143v-2.2544z" fill="#1ca8a8"/>
 <path d="m32.79 29.462c-0.05434 0.33531-0.09277 0.67194-0.11133 1.0112h-0.67857v21.375h1.4194c1.2869-2.8031 4.1165-4.75 7.402-4.75h7.4643c1.5043 0 2.7143-1.21 2.7143-2.7143v-12.094c0-1.5043-1.21-2.7143-2.7143-2.7143z" fill="url(#linear0)"/>
 <path d="m31.211 29.462c0.05301 0.33531 0.09145 0.67194 0.11 1.0112h0.67857v21.375h-1.4194c-1.2869-2.8031-4.1165-4.75-7.402-4.75h-7.4643c-1.5043 0-2.7143-1.21-2.7143-2.7143v-12.094c0-1.5043 1.21-2.7143 2.7143-2.7143z" fill="url(#linear1)"/>
 <g transform="matrix(.33929 0 0 .33929 7.5714 5.7054)" clip-path="url(#clip1)" opacity=".25">
  <path d="m128 107.66c-0.08203 4.0898-3.3789 7.3438-7.4922 7.3438h-0.5v1h0.5c3.2461 0 6.0586-1.8125 7.4922-4.4805zm-32 7.3438 24 1v-1z"/>
  <path d="m128 111.52c-0.082 4.0898-3.3789 7.3438-7.4922 7.3438h-0.5v1h0.5c3.2227 0 6.0234-1.7891 7.4648-4.4258 0.0117-0.19141 0.0273-0.38281 0.0273-0.57422zm-26 7.3438 18 1v-1z" opacity="1"/>
 </g>
 <path d="m48.286 18.259c1.5043 0 2.7143 1.21 2.7143 2.7143v20.018c0 1.5043-1.21 2.7143-2.7143 2.7143h-8.1429c-4.4969 0-8.1429 3.646-8.1429 8.1429v-24.768c0-4.4969 3.646-8.8214 8.1429-8.8214z" fill="url(#linear2)"/>
 <path d="m15.714 18.259c-1.5043 0-2.7143 1.21-2.7143 2.7143v20.018c0 1.5043 1.21 2.7143 2.7143 2.7143h8.1429c4.4969 0 8.1429 3.646 8.1429 8.1429v-24.768c0-4.4969-3.646-8.8214-8.1429-8.8214z" fill="url(#linear3)"/>
 <path d="m44.893 21.991v2.0357h-4.0714c-1.4844 0.06229-2.872 0.44001-4.0714 1.1133v-1.8833c1.1981-0.79255 2.5871-1.2657 4.0714-1.2657z" fill="#0cc"/>
 <g fill="#dedcd9">
  <path d="m46.929 26.062v1.3571h-6.1071c-1.4844 0.06229-2.872 0.44001-4.0714 1.1133v-1.2047c1.1981-0.79255 2.5871-1.2657 4.0714-1.2657z"/>
  <path d="m46.929 28.777v1.3571h-6.1071c-1.4844 0.062291-2.872 0.44001-4.0714 1.1133v-1.2047c1.1981-0.79255 2.5871-1.2657 4.0714-1.2657z"/>
  <path d="m46.929 31.491v1.3571h-6.1071c-1.4844 0.06229-2.872 0.44001-4.0714 1.1133v-1.2047c1.1981-0.79255 2.5871-1.2657 4.0714-1.2657z"/>
  <path d="m22.5 36.92h-5.4286v1.3571h5.4286z"/>
  <path d="m17.071 26.062v1.3571h6.7857c1.2127 0.05036 2.3591 0.31543 3.3929 0.77797v-1.267c-1.0338-0.54869-2.1802-0.8681-3.3929-0.8681z"/>
  <path d="m17.071 28.777v1.3571h6.7857c1.2127 0.05036 2.3591 0.31543 3.3929 0.77797v-1.267c-1.0338-0.54869-2.1802-0.86809-3.3929-0.86809z"/>
  <path d="m17.071 31.491v1.3571h6.7857c1.2127 0.05036 2.3591 0.31543 3.3929 0.77797v-1.267c-1.0338-0.54869-2.1802-0.86809-3.3929-0.86809z"/>
  <path d="m17.071 23.348v1.3571h6.7857c1.2127 0.05036 2.3591 0.31543 3.3929 0.77797v-1.267c-1.0338-0.54869-2.1802-0.86809-3.3929-0.86809z"/>
  <path d="m17.071 34.205v1.3571h6.7857c1.2127 0.05036 2.3591 0.31543 3.3929 0.77797v-1.267c-1.0338-0.54869-2.1802-0.8681-3.3929-0.8681z"/>
  <path d="m44.214 34.205v1.3571h-3.3929c-1.4844 0.06229-2.872 0.44001-4.0714 1.1133v-1.2047c1.1981-0.79255 2.5871-1.2657 4.0714-1.2657z"/>
 </g>
 <path d="m21.969 11.134s-2.7925 6.9342-2.7845 10.581c0.0053 2.7143 0.37374 5.7771 2.1073 7.8659 1.332 1.6037 5.642 2.7024 5.642 2.7024l1.3108-0.35121s3.1821-3.1066 3.5347-5.1609c0.45724-2.6759-0.75544-5.5121-2.1073-7.8659-1.817-3.1636-7.7028-7.7718-7.7028-7.7718z" fill="url(#linear4)"/>
 <g fill="#1ca8a8">
  <path d="m28.341 37.537c-3.6553-13.64-3.5585-15.163-5.3464-22.67 2.216 7.3636 3.0019 8.6783 6.6572 22.319z"/>
  <path d="m24.566 21.335c1.2273-2.1245 1.6673-2.5499 2.102-3.2563-0.39362 0.73026-0.55532 1.3161-1.7826 3.4406z"/>
  <path d="m25.417 24.632c1.7031-2.9502 2.314-3.5413 2.9171-4.5234-0.54471 1.0152-0.77002 1.829-2.4744 4.7792z"/>
  <path d="m26.354 28.17c1.8025-3.1212 2.4479-3.7467 3.0867-4.7845-0.57785 1.0735-0.81641 1.9337-2.6175 5.0548z"/>
  <path d="m24.819 21.267c-2.1258-1.2259-2.7183-1.3744-3.4485-1.7693 0.70508 0.43604 1.1385 0.86279 3.263 2.0887z"/>
  <path d="m25.731 24.549c-2.9502-1.7044-3.7746-1.9111-4.7884-2.4585 0.98075 0.60568 1.5811 1.1981 4.5326 2.9012z"/>
  <path d="m26.688 28.08c-3.1212-1.8025-3.9932-2.0211-5.0654-2.6003 1.0364 0.64146 1.6739 1.267 4.7951 3.0695z"/>
 </g>
</svg>
