<?xml version="1.0" encoding="UTF-8"?>
<svg id="SimpleNote" width="64" height="64" enable-background="new 0 0 1024 1024" image-rendering="optimizeSpeed" version="1.1" viewBox="0 0 64 64" xmlns="http://www.w3.org/2000/svg" xmlns:cc="http://creativecommons.org/ns#" xmlns:dc="http://purl.org/dc/elements/1.1/" xmlns:rdf="http://www.w3.org/1999/02/22-rdf-syntax-ns#" xmlns:xlink="http://www.w3.org/1999/xlink">
 <metadata>
  <rdf:RDF>
   <cc:Work rdf:about="">
    <dc:format>image/svg+xml</dc:format>
    <dc:type rdf:resource="http://purl.org/dc/dcmitype/StillImage"/>
    <dc:title/>
   </cc:Work>
  </rdf:RDF>
 </metadata>
 <defs>
  <linearGradient id="linearGradient990">
   <stop stop-color="#fffffc" offset="0"/>
   <stop stop-color="#abb7bc" offset="1"/>
  </linearGradient>
  <linearGradient id="linearGradient932" x1="-66.145" x2="-66.145" y1="25.229" y2="84.939" gradientTransform="translate(19.55 -23.162)" gradientUnits="userSpaceOnUse">
   <stop stop-color="#2d8dde" offset="0"/>
   <stop stop-color="#1660bd" offset=".75733"/>
   <stop stop-color="#2679c2" offset="1"/>
  </linearGradient>
  <linearGradient id="linearGradient992" x1="31.583" x2="31.583" y1="17.943" y2="48.96" gradientUnits="userSpaceOnUse" xlink:href="#linearGradient990"/>
  <filter id="filter1064" x="-.048382" y="-.048382" width="1.0968" height="1.0968" color-interpolation-filters="sRGB">
   <feGaussianBlur stdDeviation="0.64509988"/>
  </filter>
 </defs>
 <g transform="translate(78.374)">
  <circle cx="-46.374" cy="32" r="30" fill="url(#linearGradient932)" stroke-width="5.1299"/>
  <g transform="matrix(.77425 0 0 1.0706 -71.15 -.083359)" fill="#1355a0" filter="url(#filter1064)" stroke-width=".37015">
   <path d="m22.865 17v12.321h-6.8652l16 19.679 16-19.679h-6.8652v-12.321z"/>
   <path d="m25.661 23.865 5.9223-5.9223v11.845l-5.9223 5.9223z" opacity=".15"/>
   <path d="m16 32.355 6.3789 6.6367 3.2832-3.2832-3.2832-3.3535z" opacity=".15"/>
   <path d="m37.467 23.775-11.805 11.934v6.6973l2.5234 2.625 9.3203-9.3223z" opacity=".15"/>
   <path d="m32.527 17-0.94336 0.94336v11.844l9.5508-9.5508v-3.2363z" opacity=".15"/>
   <path d="m22.865 21.057v5.6055l2.7969-2.7969zm-6.8652 11.299 0.57422 0.59766 0.5957-0.59766z" opacity=".15"/>
   <path d="m22.865 17v4.0684l2.7969 2.7969 6.8594-6.8652z" opacity=".15"/>
   <path d="m43.43 32.355v4.7539l3.2324-3.3613 0.35352-0.36914 0.98438-1.0234h-2.7305z" opacity=".15"/>
   <path d="m41.135 20.236-9.5508 9.5508 5.9219 5.9219 3.6289-3.6289z" opacity=".15"/>
   <path d="m41.135 32.08-3.6289 3.6289 3.7109 3.7031 2.2148-2.3047-2e-3 -4.752h-2.2949z" opacity=".15"/>
   <path d="m25.662 35.709-3.2832 3.2832 3.2832 3.4141z" opacity=".15"/>
  </g>
  <g transform="matrix(.77708 0 0 1 -71.241 -1)" fill="url(#linearGradient992)" stroke-width=".37015">
   <path d="m22.865 17v15.355h-6.8652l16 16.645 16-16.645h-6.8652v-15.355z"/>
   <path d="m25.661 23.865 5.9223-5.9223v11.845l-5.9223 5.9223z" opacity=".15"/>
   <path d="m16 32.355 6.3789 6.6367 3.2832-3.2832-3.2832-3.3535z" opacity=".15"/>
   <path d="m37.467 23.775-11.805 11.934v6.6973l2.5234 2.625 9.3203-9.3223z" opacity=".15"/>
   <path d="m32.527 17-0.94336 0.94336v11.844l9.5508-9.5508v-3.2363z" opacity=".15"/>
   <path d="m22.865 21.057v5.6055l2.7969-2.7969zm-6.8652 11.299 0.57422 0.59766 0.5957-0.59766z" opacity=".15"/>
   <path d="m22.865 17v4.0684l2.7969 2.7969 6.8594-6.8652z" opacity=".15"/>
   <path d="m43.43 32.355v4.7539l3.2324-3.3613 0.35352-0.36914 0.98438-1.0234h-2.7305z" opacity=".15"/>
   <path d="m41.135 20.236-9.5508 9.5508 5.9219 5.9219 3.6289-3.6289z" opacity=".15"/>
   <path d="m41.135 32.08-3.6289 3.6289 3.7109 3.7031 2.2148-2.3047-2e-3 -4.752h-2.2949z" opacity=".15"/>
   <path d="m25.662 35.709-3.2832 3.2832 3.2832 3.4141z" opacity=".15"/>
  </g>
 </g>
</svg>
