<?xml version="1.0" encoding="UTF-8"?>
<!-- Created with Inkscape (http://www.inkscape.org/) -->
<svg width="64" height="64" version="1.1" viewBox="0 0 16.933 16.933" xmlns="http://www.w3.org/2000/svg">
 <defs>
  <linearGradient id="linearGradient1559" x1="8.1125" x2="8.1125" y1="1.3658" y2="15.681" gradientTransform="matrix(1 0 0 1 12.126 5.4156)" gradientUnits="userSpaceOnUse">
   <stop stop-color="#f5f5f5" offset="0"/>
   <stop stop-color="#dae4ea" offset="1"/>
  </linearGradient>
  <filter id="filter2224" x="-.029372" y="-.044468" width="1.0587" height="1.0889" color-interpolation-filters="sRGB">
   <feGaussianBlur stdDeviation="6.2610835"/>
  </filter>
 </defs>
 <g transform="translate(-12.126 -5.4156)">
  <rect x="13.317" y="6.6061" width="14.552" height="14.552" ry="1.2138" fill="url(#linearGradient1559)"/>
  <path transform="matrix(.019077 0 0 .02314 15.942 8.9223)" d="m243.68 248.14c-14.299-0.13568-13.813-16.021-13.241-26.339-4.8917-17.029 22.596-25.377 26.213-7.2263-0.40299 11.9 4.9575 32.647-12.972 33.565zm0 119.17c-13.099-1.9965-7.6929-17.443-8.828-26.688 0.45418-24.595-0.91382-49.372 0.69313-73.852 12.477-15.348 19.94 6.4893 16.963 17.724-0.4551 25.786 0.91509 51.753-0.69327 77.424-1.3139 3.2075-4.659 5.4447-8.1347 5.392zm0-145.66c-7.6697-4.1445-10.286-14.441-15.732-21.257-10.82-17.743-22.466-35.078-32.765-53.079 4.0553-12.697 12.596 3.5694 15.673 9.0772 10.941 17.506 21.883 35.012 32.824 52.518 13.966-21.894 27.175-44.376 41.609-65.908 13.179-1.9023 2.2951 12.895-1.3025 18.072-12.86 19.895-24.589 40.712-38.164 60.024zm0 13.387c57.834 8.0814 116.5 7.5515 174.78 8.5915 19.561-0.58972 30.713-18.873 36.546-35.311 17.261-39.177 37.307-78.162 44.575-120.69 1.312-26.981-34.21-20.214-49.617-12.169-55.392 25.082-101.73 65.788-147.53 104.98-20.029 17.712-39.676 35.864-58.754 54.598zm4.966 0.406c46.161 1.2873 92.322 2.5747 138.48 3.862 24.927 11.764 51.573 31.31 53.142 61.287 5.3316 44.948-27.497 88.558-70.649 99.855-19.204 5.1145-42.404 10.206-60.378-0.9461-25.601-26.132-38.95-61.346-54.396-93.917-4.5895-12.535-14.029-24.534-9.8197-38.384 1.206-10.586 2.4121-21.171 3.6181-31.757zm-241-167.15c-28.105-1.3816-19.753 32.769-12.928 48.91 13.453 38.711 29.686 76.683 48.841 112.85 13.762 18.896 38.84 12.793 58.777 13.218 47.15-1.4207 94.608-1.2335 141.35-8.2321-56.477-53.933-114.63-107.52-182.05-147.62-16.743-9.12-34.548-18.458-53.99-19.128zm231.07 167.15c-46.161 1.2873-92.322 2.5747-138.48 3.862-24.927 11.764-51.573 31.31-53.142 61.287-5.3316 44.948 27.497 88.558 70.649 99.855 19.204 5.1145 42.404 10.206 60.378-0.9461 25.601-26.132 38.95-61.346 54.396-93.917 4.5895-12.535 14.029-24.534 9.8197-38.384-1.206-10.586-2.4121-21.171-3.6181-31.757z" fill="#4d4d4d" filter="url(#filter2224)" opacity=".25"/>
  <g stroke-width=".020489">
   <path d="m20.554 14.275-2.5763 0.08715s-0.48684 0.26022-0.78006 0.69721c-0.2395 0.3569-0.39687 1.3114 0.16423 2.1912 0.50242 0.78778 1.5396 1.0085 1.9707 0.79679 0.48138-0.23633 1.3138-2.7888 1.3138-2.7888z" fill="#ffaa41"/>
   <path d="m20.591 14.664-0.03652-0.38883-2.5763 0.08715s-0.06295 0.03389-0.15653 0.09676c0.82648 0.09997 1.9971 0.49908 2.7693 0.20492z" fill="#be824b"/>
   <path d="m16.255 10.503c-0.07049 0-0.13519 0.01155-0.19346 0.03597-0.07568 0.03177-0.17789 0.14112-0.17789 0.34031 0 0.6064 0.64115 2.3069 0.96582 3.129 0.1095 0.27733 0.33925 0.45323 0.59232 0.45323 0.0024 0 0.0048-2.2e-5 0.0072-4.5e-5 0.7383-0.0097 2.5864-0.04768 3.1972-0.19587 0 2.2e-5 -3.1204-3.7626-4.3912-3.7626z" fill="#594759"/>
   <path d="m17.442 14.064c-0.12738 0-0.24084-0.08695-0.29609-0.22694l-0.0013-0.0034c-0.09322-0.23613-0.15698-0.48809-0.18896-0.74699-0.0557-0.45075-0.07449-0.88762-0.01671-0.97874 0.09493-0.14972 0.5217-0.13961 0.99079-0.04578 0.10786 0.02157 0.21003 0.07338 0.29669 0.15424 0.51137 0.47722 1.0394 1.026 1.5059 1.5443 0.06919 0.07686 0.02889 0.21713-0.06476 0.22369-0.56702 0.03985-1.3322 0.06779-2.2255 0.07954z" fill="#ffaa41"/>
   <ellipse cx="16.623" cy="11.375" rx=".30793" ry=".3735" fill="#be824b"/>
   <ellipse cx="17.281" cy="11.53" rx=".16066" ry=".19488" fill="#908490"/>
   <ellipse cx="16.57" cy="12.156" rx=".12933" ry=".15688" fill="#908490"/>
   <path d="m17.567 16.317c-0.247-0.60634-0.07279-0.92575-0.2995-1.3534-0.02417 0.03105-0.04777 0.0628-0.07 0.09595-0.2395 0.3569-0.39687 1.3114 0.16423 2.1912 0.50242 0.78778 1.5396 1.0085 1.9707 0.79679 0.10827-0.05316 0.23431-0.22403 0.36461-0.45607-0.84149 0.16369-1.7518-0.34591-2.13-1.2745z" fill="#594759"/>
   <path d="m18.226 12.216c-0.08666-0.08085-0.18883-0.13266-0.29669-0.15424-0.4074-0.08151-0.7822-0.09949-0.93611-0.0048 0.89537 0.52826 2.0394 1.4847 2.5604 1.9345 0.03788-0.0025 0.07724-0.0048 0.11352-0.0074 0.09367-0.0066 0.13394-0.14681 0.06476-0.22369-0.46645-0.51831-0.99453-1.0671-1.5059-1.5443z" fill="#be824b"/>
   <path d="m20.739 14.275 2.5763 0.08715s0.48684 0.26022 0.78006 0.69721c0.2395 0.3569 0.39687 1.3114-0.16423 2.1912-0.50242 0.78778-1.5396 1.0085-1.9707 0.79679-0.48138-0.23633-1.3138-2.7888-1.3138-2.7888z" fill="#ffaa41"/>
   <path d="m20.702 14.664 0.03652-0.38883 2.5763 0.08715s0.06295 0.03389 0.15653 0.09676c-0.82648 0.09997-1.9971 0.49908-2.7693 0.20492z" fill="#be824b"/>
   <path d="m20.646 14.266c0.61081 0.14819 2.4589 0.18612 3.1972 0.19587 0.0024 2.2e-5 0.0048 4.5e-5 0.0072 4.5e-5 0.25306 0 0.48282-0.1759 0.59232-0.45323 0.32467-0.82217 0.96582-2.5226 0.96582-3.1291 0-0.19921-0.10221-0.30856-0.17792-0.34031-0.05827-0.02441-0.12297-0.03597-0.19346-0.03597-1.2707 0-4.3911 3.7627-4.3911 3.7627z" fill="#594759"/>
   <path d="m21.625 13.984c-0.09367-0.0066-0.13395-0.14683-0.06476-0.22369 0.46646-0.51833 0.99454-1.0672 1.5059-1.5443 0.08666-0.08085 0.18884-0.13266 0.29669-0.15424 0.46909-0.09383 0.89583-0.10394 0.99079 0.04579 0.05778 0.09114 0.03897 0.52801-0.01671 0.97873-0.03198 0.25892-0.09573 0.51086-0.18896 0.74699l-0.0013 0.0034c-0.05525 0.14-0.16872 0.22694-0.29609 0.22694-0.89338-0.01178-1.6586-0.03972-2.2255-0.07954z" fill="#ffaa41"/>
   <ellipse cx="24.67" cy="11.375" rx=".30793" ry=".3735" fill="#be824b"/>
   <ellipse cx="24.011" cy="11.53" rx=".16066" ry=".19488" fill="#908490"/>
   <ellipse cx="24.723" cy="12.156" rx=".12933" ry=".15688" fill="#908490"/>
   <path d="m23.726 16.317c0.247-0.60634 0.07279-0.92575 0.2995-1.3534 0.02417 0.03105 0.04777 0.0628 0.07001 0.09595 0.2395 0.3569 0.39687 1.3114-0.16423 2.1912-0.50242 0.78778-1.5396 1.0085-1.9707 0.79679-0.10827-0.05316-0.23431-0.22403-0.36461-0.45607 0.84149 0.16369 1.7518-0.34591 2.13-1.2745z" fill="#594759"/>
   <path d="m23.066 12.216c0.08666-0.08085 0.18883-0.13266 0.29669-0.15424 0.4074-0.08151 0.7822-0.09949 0.93611-0.0048-0.89537 0.52826-2.0394 1.4847-2.5604 1.9345-0.03788-0.0025-0.07724-0.0048-0.11352-0.0074-0.09367-0.0066-0.13394-0.14681-0.06476-0.22369 0.46645-0.51831 0.99453-1.0671 1.5059-1.5443z" fill="#be824b"/>
   <path d="m20.646 13.964c-0.02839 0-0.05469-0.01771-0.06961-0.04678l-0.82112-1.5936c-0.02405-0.04669-0.01235-0.10816 0.02614-0.13724 0.03816-0.02909 0.08917-0.01516 0.11307 0.03161l0.75153 1.4585 0.75151-1.4585c0.02422-0.04678 0.07521-0.06068 0.11307-0.03161 0.03849 0.02909 0.05019 0.09056 0.02614 0.13724l-0.82112 1.5936c-0.0149 0.02906-0.04121 0.04676-0.0696 0.04676z" fill="#908490"/>
   <path d="m20.646 17.251c-0.09077 0-0.16423-0.0892-0.16423-0.19921v-1.992c0-0.11001 0.07345-0.19921 0.16423-0.19921 0.09077 0 0.16423 0.0892 0.16423 0.19921v1.992c0 0.11001-0.07346 0.19921-0.16423 0.19921z" fill="#463246"/>
   <path d="m20.646 14.562c-0.13599 0-0.24633-0.13375-0.24633-0.29879v-0.39839c0-0.16507 0.11034-0.29879 0.24633-0.29879 0.13599 0 0.24633 0.13375 0.24633 0.29879v0.39839c0 0.16507-0.11034 0.29879-0.24633 0.29879z" fill="#463246"/>
   <path d="m20.646 15.259c-0.1814 0-0.32844-0.17836-0.32844-0.39839v-0.3984c0-0.22004 0.14704-0.39839 0.32844-0.39839 0.1814 0 0.32844 0.17836 0.32844 0.39839v0.3984c0 0.22004-0.14704 0.39839-0.32844 0.39839z" fill="#594759"/>
  </g>
 </g>
</svg>
