<?xml version="1.0" encoding="UTF-8"?>
<!-- Created with Inkscape (http://www.inkscape.org/) -->
<svg width="64" height="64" version="1.1" viewBox="0 0 16.933 16.933" xmlns="http://www.w3.org/2000/svg">
 <defs>
  <linearGradient id="linearGradient1005-3-3" x1="5.2535" x2="9.3824" y1="15.383" y2="2.9421" gradientTransform="matrix(.99999 0 0 .99999 14.064 4.5999)" gradientUnits="userSpaceOnUse">
   <stop stop-color="#fa8200" offset="0"/>
   <stop stop-color="#ff9600" offset=".36953"/>
   <stop stop-color="#ffb400" offset="1"/>
  </linearGradient>
 </defs>
 <g transform="translate(-14.1 -4.5932)">
  <path d="m30.504 13.06c0 0.95155-0.16748 1.8638-0.47464 2.7094-0.2135 0.58769-0.4944 1.1433-0.83394 1.6572-0.14222 0.21608-0.29514 0.42476-0.45747 0.62529-0.51964 0.6418-1.1372 1.2007-1.8304 1.6542-0.2553 0.16717-0.52065 0.3201-0.79536 0.45712-1.0668 0.5339-2.2711 0.83421-3.5457 0.83421s-2.4788-0.30033-3.5457-0.83423c-0.27474-0.13705-0.54041-0.28996-0.79571-0.45712-0.70207-0.45974-1.327-1.0274-1.8508-1.6798-0.16262-0.20216-0.31523-0.41275-0.45747-0.63076-0.33047-0.50541-0.6042-1.0507-0.81349-1.627-0.30711-0.8453-0.47429-1.7572-0.47429-2.7086 0-4.3839 3.5536-7.9375 7.9375-7.9375 2.2005 0 4.1918 0.89548 5.6295 2.3416 0.41437 0.41661 0.78274 0.87929 1.0963 1.3795 0.29644 0.47106 0.54427 0.97581 0.73706 1.5068 0.30719 0.84559 0.47466 1.7579 0.47466 2.7094z" fill="url(#linearGradient1005-3-3)" stroke-width=".031007"/>
  <path d="m24.817 9.4503v1.018q-0.59428-0.28422-1.1214-0.42375-0.5271-0.13952-1.018-0.13952-0.85266 0-1.3177 0.33073-0.45992 0.33073-0.45992 0.94051 0 0.5116 0.30489 0.77514 0.31006 0.25838 1.1679 0.41858l0.63045 0.12919q1.1679 0.2222 1.7208 0.78548 0.5581 0.5581 0.5581 1.4986 0 1.1214-0.75448 1.7001-0.7493 0.57877-2.2014 0.57877-0.54777 0-1.1679-0.12402-0.61495-0.12402-1.2764-0.36691v-1.0748q0.63562 0.35657 1.2454 0.53743 0.6098 0.18086 1.1989 0.18086 0.894 0 1.3797-0.3514 0.48576-0.3514 0.48576-1.0025 0-0.56844-0.3514-0.88884-0.34624-0.3204-1.142-0.48059l-0.63562-0.12402q-1.1679-0.23254-1.6898-0.72864-0.52191-0.49609-0.52193-1.3797 0-1.0232 0.7183-1.6123 0.72348-0.58911 1.9895-0.58911 0.5426 0 1.1059 0.098185 0.56327 0.098185 1.1524 0.29456z" fill="#fff" stroke-width=".26458"/>
 </g>
</svg>
