<?xml version="1.0" encoding="UTF-8" standalone="no"?>
<svg
   xmlns:dc="http://purl.org/dc/elements/1.1/"
   xmlns:cc="http://creativecommons.org/ns#"
   xmlns:rdf="http://www.w3.org/1999/02/22-rdf-syntax-ns#"
   xmlns:svg="http://www.w3.org/2000/svg"
   xmlns="http://www.w3.org/2000/svg"
   xmlns:xlink="http://www.w3.org/1999/xlink"
   xmlns:sodipodi="http://sodipodi.sourceforge.net/DTD/sodipodi-0.dtd"
   xmlns:inkscape="http://www.inkscape.org/namespaces/inkscape"
   id="Flamingo"
   width="64"
   height="64"
   enable-background="new 0 0 1024 1024"
   image-rendering="optimizeSpeed"
   version="1.1"
   viewBox="0 0 64 64"
   sodipodi:docname="genymotion.svg"
   inkscape:version="1.0.1 (3bc2e813f5, 2020-09-07)">
  <metadata
     id="metadata26">
    <rdf:RDF>
      <cc:Work
         rdf:about="">
        <dc:format>image/svg+xml</dc:format>
        <dc:type
           rdf:resource="http://purl.org/dc/dcmitype/StillImage" />
        <dc:title></dc:title>
      </cc:Work>
    </rdf:RDF>
  </metadata>
  <sodipodi:namedview
     pagecolor="#ffffff"
     bordercolor="#666666"
     borderopacity="1"
     objecttolerance="10"
     gridtolerance="10"
     guidetolerance="10"
     inkscape:pageopacity="0"
     inkscape:pageshadow="2"
     inkscape:window-width="1920"
     inkscape:window-height="935"
     id="namedview24"
     showgrid="false"
     inkscape:zoom="6.0546875"
     inkscape:cx="10.54413"
     inkscape:cy="39.127001"
     inkscape:window-x="0"
     inkscape:window-y="38"
     inkscape:window-maximized="1"
     inkscape:current-layer="Flamingo" />
  <defs
     id="defs13">
    <filter
       id="d"
       x="-.036"
       y="-.036"
       width="1.072"
       height="1.072"
       color-interpolation-filters="sRGB">
      <feGaussianBlur
         stdDeviation="14.16"
         id="feGaussianBlur2" />
    </filter>
    <linearGradient
       id="a"
       x1="19.751"
       x2="18.792"
       y1="2.9252"
       y2="58.151"
       gradientTransform="matrix(1.0827 0 0 1.0827 11.135 -1.4784)"
       gradientUnits="userSpaceOnUse">
      <stop
         stop-color="#eb474d"
         offset="0"
         id="stop5" />
      <stop
         stop-color="#e72a6a"
         offset="1"
         id="stop7" />
    </linearGradient>
    <filter
       id="b"
       x="-.045999"
       y="-.086254"
       width="1.092"
       height="1.1725"
       color-interpolation-filters="sRGB">
      <feGaussianBlur
         stdDeviation="0.7500326"
         id="feGaussianBlur10" />
    </filter>
    <filter
       id="d-6"
       x="-.036"
       y="-.036"
       width="1.072"
       height="1.072"
       color-interpolation-filters="sRGB">
      <feGaussianBlur
         stdDeviation="14.16"
         id="feGaussianBlur2-7" />
    </filter>
    <filter
       id="b-53"
       x="-.045999"
       y="-.086254"
       width="1.092"
       height="1.1725"
       color-interpolation-filters="sRGB">
      <feGaussianBlur
         stdDeviation="0.7500326"
         id="feGaussianBlur5" />
    </filter>
    <linearGradient
       id="c"
       x1="12.434"
       x2="51.566"
       y1="32"
       y2="32"
       gradientTransform="matrix(1.0827,0,0,1.0827,-81.924952,23.330844)"
       gradientUnits="userSpaceOnUse">
      <stop
         stop-color="#eb474d"
         offset="0"
         id="stop8" />
      <stop
         stop-color="#e72a6a"
         offset="1"
         id="stop10" />
    </linearGradient>
    <linearGradient
       id="a-56"
       x1="30.339"
       x2="31.763"
       y1="59.932"
       y2="5.1525"
       gradientUnits="userSpaceOnUse"
       gradientTransform="translate(-132.43592)">
      <stop
         stop-color="#fde9ea"
         offset="0"
         id="stop13" />
      <stop
         stop-color="#fef7f7"
         offset="1"
         id="stop15" />
    </linearGradient>
    <filter
       id="c-3"
       x="-.036"
       y="-.036"
       width="1.072"
       height="1.072"
       color-interpolation-filters="sRGB">
      <feGaussianBlur
         stdDeviation="0.23812031"
         id="feGaussianBlur2-67" />
    </filter>
    <filter
       id="b-5"
       x="-.055391"
       y="-.065445"
       width="1.1108"
       height="1.1309"
       color-interpolation-filters="sRGB">
      <feGaussianBlur
         stdDeviation="0.18996709"
         id="feGaussianBlur5-3" />
    </filter>
    <linearGradient
       id="a-5"
       x1="8.4665"
       x2="8.4665"
       y1=".52916"
       y2="16.404"
       gradientUnits="userSpaceOnUse">
      <stop
         stop-color="#0891ff"
         offset="0"
         id="stop8-6" />
      <stop
         stop-color="#12f1ff"
         offset="1"
         id="stop10-2" />
    </linearGradient>
    <linearGradient
       inkscape:collect="always"
       id="linearGradient1007">
      <stop
         style="stop-color:#eb464e;stop-opacity:1"
         offset="0"
         id="stop1003" />
      <stop
         style="stop-color:#e72a6a;stop-opacity:1"
         offset="1"
         id="stop1005" />
    </linearGradient>
    <filter
       id="b-3"
       x="-.036"
       y="-.036"
       width="1.072"
       height="1.072"
       color-interpolation-filters="sRGB">
      <feGaussianBlur
         stdDeviation="0.23812032"
         id="feGaussianBlur2-6" />
    </filter>
    <linearGradient
       id="a-7"
       x1="8.4665"
       x2="8.4665"
       y1=".52915"
       y2="16.404"
       gradientUnits="userSpaceOnUse"
       gradientTransform="translate(19.451456)">
      <stop
         stop-color="#1c2d44"
         offset="0"
         id="stop5-2" />
      <stop
         stop-color="#334057"
         offset="1"
         id="stop7-9" />
    </linearGradient>
    <linearGradient
       id="linearGradient1056"
       x1="-170.14"
       x2="-177.47"
       y1="-1.3647"
       y2="-8.5413"
       gradientTransform="translate(169.34311,16.756286)"
       gradientUnits="userSpaceOnUse">
      <stop
         stop-color="#0096ff"
         offset="0"
         id="stop857" />
      <stop
         stop-color="#00dcff"
         offset="1"
         id="stop859" />
    </linearGradient>
    <linearGradient
       id="linearGradient1058"
       x1="-184.75"
       x2="-170.19"
       y1="-8.5413"
       y2="-15.811"
       gradientTransform="translate(169.34311,16.756286)"
       gradientUnits="userSpaceOnUse">
      <stop
         stop-color="#505f64"
         offset="0"
         id="stop862" />
      <stop
         stop-color="#647378"
         offset="1"
         id="stop864" />
    </linearGradient>
    <filter
       id="filter1255"
       x="-.06"
       y="-.06"
       width="1.12"
       height="1.12"
       color-interpolation-filters="sRGB">
      <feGaussianBlur
         stdDeviation="0.064633745"
         id="feGaussianBlur867" />
    </filter>
    <filter
       id="filter1269"
       x="-.06"
       y="-.06"
       width="1.12"
       height="1.12"
       color-interpolation-filters="sRGB">
      <feGaussianBlur
         stdDeviation="0.082435125"
         id="feGaussianBlur870" />
    </filter>
    <filter
       id="filter1287"
       x="-.051958"
       y="-.070988"
       width="1.1039"
       height="1.142"
       color-interpolation-filters="sRGB">
      <feGaussianBlur
         stdDeviation="0.07138584"
         id="feGaussianBlur873" />
    </filter>
    <filter
       id="filter959"
       x="-.037149"
       y="-.14184"
       width="1.0743"
       height="1.2837"
       color-interpolation-filters="sRGB">
      <feGaussianBlur
         stdDeviation="0.051039421"
         id="feGaussianBlur876" />
    </filter>
    <linearGradient
       inkscape:collect="always"
       xlink:href="#linearGradient1007"
       id="linearGradient1009"
       x1="15.656315"
       y1="1.2555197"
       x2="1.3523924"
       y2="15.794305"
       gradientUnits="userSpaceOnUse"
       gradientTransform="scale(3.779602)" />
    <linearGradient
       id="linearGradient1005"
       x1=".73911"
       x2="16.388"
       y1="16.296"
       y2=".64687"
       gradientTransform="matrix(0.99999,0,0,0.99999,-0.035256,0.0065427)"
       gradientUnits="userSpaceOnUse">
      <stop
         stop-color="#00a0ff"
         offset="0"
         id="stop920" />
      <stop
         stop-color="#37beff"
         offset="1"
         id="stop922" />
    </linearGradient>
    <linearGradient
       id="w"
       x1="123.64"
       x2="146.53"
       y1="131.03"
       y2="174.71"
       gradientTransform="matrix(4.2812,0,0,3.5908,41,42)"
       gradientUnits="userSpaceOnUse">
      <stop
         stop-color="#fafafa"
         offset="0"
         id="stop925" />
      <stop
         stop-color="#fff"
         offset="1"
         id="stop927" />
    </linearGradient>
    <filter
       id="filter1152"
       x="-.055255"
       y="-.065641"
       width="1.1105"
       height="1.1313"
       color-interpolation-filters="sRGB">
      <feGaussianBlur
         stdDeviation="2.9934784"
         id="feGaussianBlur930" />
    </filter>
  </defs>
  <path
     id="path883"
     style="fill:url(#linearGradient1009);fill-opacity:1;stroke-width:3.7796;image-rendering:optimizeSpeed"
     d="m 9.0878893,4.500001 c -2.541555,0 -4.587888,2.044496 -4.587888,4.585939 v 22.914061 22.912105 c 0,2.541556 2.046521,4.587893 4.587888,4.587893 H 31.999999 54.912108 c 2.541556,0 4.587891,-2.046148 4.587891,-4.587893 V 32.04297 9.08594 c 0,-2.541556 -2.04457,-4.585939 -4.585937,-4.585939 z" />
  <path
     d="m41.129 21.565c-5.7633 0-10.435 4.667-10.435 10.435 0 5.7633 4.667 10.435 10.435 10.435 5.7633 0 10.437-4.667 10.437-10.435 0-5.7633-4.6694-10.435-10.437-10.435zm0 2.6061c4.3213 0 7.8261 3.5023 7.8261 7.8235s-3.5048 7.8261-7.8261 7.8261c-4.3213 0-7.8235-3.5048-7.8235-7.8261 0-4.3213 3.5023-7.8235 7.8235-7.8235zm-20.872 1.3018c-4.3213 0-7.8235 3.5048-7.8235 7.8261 0 4.3213 3.5023 7.8235 7.8235 7.8235 4.3212 0 7.8261-3.5023 7.8261-7.8235 0-4.3213-3.5048-7.8261-7.8261-7.8261zm0 2.6087c2.8793 0 5.22 2.3335 5.22 5.2174 0 2.8793-2.336 5.2174-5.22 5.2174-2.8793 0-5.2174-2.3335-5.2174-5.2174 0-2.8793 2.3335-5.2174 5.2174-5.2174z"
     filter="url(#b)"
     opacity=".15"
     stroke-width="1.3043"
     id="path19" />
  <path
     d="m41.129 21.565c-5.7633 0-10.435 4.667-10.435 10.435 0 5.7633 4.667 10.435 10.435 10.435 5.7633 0 10.437-4.667 10.437-10.435 0-5.7633-4.6694-10.435-10.437-10.435zm0 2.6061c4.3213 0 7.8261 3.5023 7.8261 7.8235s-3.5048 7.8261-7.8261 7.8261c-4.3213 0-7.8235-3.5048-7.8235-7.8261 0-4.3213 3.5023-7.8235 7.8235-7.8235zm-20.872 1.3018c-4.3213 0-7.8235 3.5048-7.8235 7.8261 0 4.3213 3.5023 7.8235 7.8235 7.8235 4.3212 0 7.8261-3.5023 7.8261-7.8235 0-4.3213-3.5048-7.8261-7.8261-7.8261zm0 2.6087c2.8793 0 5.22 2.3335 5.22 5.2174 0 2.8793-2.336 5.2174-5.22 5.2174-2.8793 0-5.2174-2.3335-5.2174-5.2174 0-2.8793 2.3335-5.2174 5.2174-5.2174z"
     fill="#f9f9f9"
     stroke-width="1.3043"
     id="path21" />
</svg>
