<?xml version="1.0" encoding="UTF-8"?>
<svg id="Flamingo" width="64" height="64" enable-background="new 0 0 1024 1024" image-rendering="optimizeSpeed" version="1.1" viewBox="0 0 64 64" xmlns="http://www.w3.org/2000/svg" xmlns:cc="http://creativecommons.org/ns#" xmlns:dc="http://purl.org/dc/elements/1.1/" xmlns:rdf="http://www.w3.org/1999/02/22-rdf-syntax-ns#" xmlns:xlink="http://www.w3.org/1999/xlink">
 <metadata>
  <rdf:RDF>
   <cc:Work rdf:about="">
    <dc:format>image/svg+xml</dc:format>
    <dc:type rdf:resource="http://purl.org/dc/dcmitype/StillImage"/>
   </cc:Work>
  </rdf:RDF>
 </metadata>
 <defs>
  <linearGradient id="linearGradient936" x1="-26.286" x2="-86.14" y1="2.0268" y2="62.103" gradientTransform="translate(138.74 24.599)" gradientUnits="userSpaceOnUse">
   <stop stop-color="#15afff" offset="0"/>
   <stop stop-color="#1560ff" offset="1"/>
  </linearGradient>
 </defs>
 <g transform="translate(-50.001 -24.599)">
  <path d="m102.31 26.482c-0.30438-0.02385-0.61634-0.01733-0.93165 0.02148l-45.48 5.6035c-2.5225 0.31081-4.303 2.5927-3.9922 5.1152l5.6035 45.48c0.3108 2.5225 2.5927 4.303 5.1152 3.9922l45.48-5.6035c2.5225-0.3108 4.303-2.5927 3.9922-5.1152l-5.6035-45.48c-0.27196-2.2072-2.0529-3.8466-4.1836-4.0137z" fill="url(#linearGradient936)" stroke-linecap="round" stroke-width="2"/>
  <path d="m95.115 39.657-30.758 4.5352 4.5352 30.758 30.758-4.5352zm-4.1211 4.0996-4.3711 5.877-11.254 1.6602-5.8848-4.3613 2e-3 -0.0059zm1.3867 1.0332 3.1719 21.508-5.8828-4.3711-1.6602-11.256 4.3672-5.877zm-23.924 3.5273 5.8789 4.3711 1.6602 11.254-4.3672 5.8789-3.1699-21.5zm17.918 3.1035 1.5117 10.252-10.252 1.5137-1.5137-10.254zm2.2656 11.889 5.877 4.3672-21.5 3.1699 4.3672-5.8789z" fill="#fff" stroke-width="4.3768"/>
  <path d="m65.558 40.523a5.1818 5.1818 0 0 0-4.3673 5.878 5.1818 5.1818 0 0 0 5.8791 4.3748 5.1818 5.1818 0 0 0 4.3774-5.8872 5.1818 5.1818 0 0 0-5.8892-4.3656zm27.345-4.0321a5.1818 5.1818 0 0 0-4.371 5.8786 5.1818 5.1818 0 0 0 5.8791 4.3748 5.1818 5.1818 0 0 0 4.3742-5.8829 5.1818 5.1818 0 0 0-5.8823-4.3705zm-18.141 13.151a2.5928 2.5928 0 0 0-2.1836 2.939 2.5928 2.5928 0 0 0 2.9396 2.1874 2.5928 2.5928 0 0 0 2.1868-2.9433 2.5928 2.5928 0 0 0-2.9428-2.1831zm11.965-1.7644a2.5928 2.5928 0 0 0-2.1874 2.9396 2.5928 2.5928 0 0 0 2.9396 2.1874 2.5928 2.5928 0 0 0 2.1868-2.9433 2.5928 2.5928 0 0 0-2.9428-2.1831zm-10.202 13.726a2.5928 2.5928 0 0 0-2.1836 2.939 2.5928 2.5928 0 0 0 2.9396 2.1874 2.5928 2.5928 0 0 0 2.1868-2.9433 2.5928 2.5928 0 0 0-2.9428-2.1831zm11.965-1.7644a2.5928 2.5928 0 0 0-2.1874 2.9396 2.5928 2.5928 0 0 0 2.9396 2.1874 2.5928 2.5928 0 0 0 2.1868-2.9433 2.5928 2.5928 0 0 0-2.9428-2.1831zm-18.902 8.0174a5.1818 5.1818 0 0 0-4.3699 5.8861 5.1818 5.1818 0 0 0 5.878 4.3673 5.1818 5.1818 0 0 0 4.3748-5.8791 5.1818 5.1818 0 0 0-5.8823-4.3705zm27.341-4.0316a5.1818 5.1818 0 0 0-4.3699 5.8861 5.1818 5.1818 0 0 0 5.878 4.3673 5.1818 5.1818 0 0 0 4.3748-5.8791 5.1818 5.1818 0 0 0-5.8823-4.3705z" fill="#fff" stroke-width="4.3768"/>
 </g>
</svg>
