<?xml version="1.0" encoding="UTF-8"?>
<svg id="Flamingo" width="64" height="64" enable-background="new 0 0 1024 1024" image-rendering="optimizeSpeed" version="1.1" viewBox="0 0 64 64" xmlns="http://www.w3.org/2000/svg" xmlns:cc="http://creativecommons.org/ns#" xmlns:dc="http://purl.org/dc/elements/1.1/" xmlns:rdf="http://www.w3.org/1999/02/22-rdf-syntax-ns#" xmlns:xlink="http://www.w3.org/1999/xlink">
 <metadata>
  <rdf:RDF>
   <cc:Work rdf:about="">
    <dc:format>image/svg+xml</dc:format>
    <dc:type rdf:resource="http://purl.org/dc/dcmitype/StillImage"/>
   </cc:Work>
  </rdf:RDF>
 </metadata>
 <defs>
  <linearGradient id="linearGradient4149" x1="2" x2="62" y1="32" y2="32" gradientTransform="translate(60.113 31.135)" gradientUnits="userSpaceOnUse">
   <stop stop-color="#0093ed" offset="0"/>
   <stop stop-color="#00a7f1" offset="1"/>
  </linearGradient>
  <linearGradient id="f-7" x1="40.75" x2="30.933" y1="1001.4" y2="1010.3" gradientTransform="matrix(.20548 -.40714 .40714 .20548 -323.41 -131.17)" gradientUnits="userSpaceOnUse" xlink:href="#b-5"/>
  <linearGradient id="b-5">
   <stop stop-color="#fff" offset="0"/>
   <stop stop-color="#fff" stop-opacity="0" offset="1"/>
  </linearGradient>
  <linearGradient id="a-3" x1="23.426" x2="23.066" y1="18.306" y2="18.666" gradientTransform="matrix(1.7946 0 0 1.7946 47.709 19.655)" gradientUnits="userSpaceOnUse" xlink:href="#b-5"/>
  <linearGradient id="c-5" x1="21.826" x2="15.488" y1="20.094" y2="26.833" gradientTransform="matrix(1.7946 0 0 1.7946 47.709 19.655)" gradientUnits="userSpaceOnUse" xlink:href="#b-5"/>
  <linearGradient id="d-6" x1="22.376" x2="16.038" y1="20.504" y2="27.243" gradientTransform="matrix(1.7946 0 0 1.7946 47.709 19.655)" gradientUnits="userSpaceOnUse" xlink:href="#b-5"/>
  <linearGradient id="e-2" x1="15.464" x2="14.757" y1="28.261" y2="28.072" gradientTransform="matrix(1.7946 0 0 1.7946 47.709 19.655)" gradientUnits="userSpaceOnUse" xlink:href="#b-5"/>
  <linearGradient id="g-9" x1="40.75" x2="30.933" y1="1001.4" y2="1010.3" gradientTransform="matrix(.2939 -.58235 .58235 .2939 -495.08 -205.06)" gradientUnits="userSpaceOnUse" xlink:href="#b-5"/>
  <filter id="h-1" x="-.063962" y="-.056499" width="1.1279" height="1.113" color-interpolation-filters="sRGB">
   <feGaussianBlur stdDeviation="2.1746765"/>
  </filter>
  <linearGradient id="i-2" x1="372.07" x2="387.12" y1="947" y2="947" gradientTransform="matrix(.25796 -.14468 .14893 .25059 -146.1 -125.29)" gradientUnits="userSpaceOnUse">
   <stop stop-color="#828398" offset="0"/>
   <stop stop-color="#4f4e50" offset=".050132"/>
   <stop stop-color="#e8e5eb" offset=".14024"/>
   <stop stop-color="#e9d3d9" stop-opacity=".94118" offset=".23171"/>
   <stop stop-color="#c4c2c7" offset=".7622"/>
   <stop stop-color="#f4f1fa" offset=".86999"/>
   <stop stop-color="#b8b8bf" offset=".9341"/>
   <stop stop-color="#c1bfcc" offset="1"/>
  </linearGradient>
  <linearGradient id="j-9" x1="368.21" x2="394.83" y1="1019" y2="1018.6" gradientTransform="matrix(.25796 -.14468 .14893 .25059 -146.1 -125.29)" gradientUnits="userSpaceOnUse">
   <stop stop-color="#130804" offset="0"/>
   <stop stop-color="#0f0704" offset=".16971"/>
   <stop stop-color="#323033" offset=".23766"/>
   <stop stop-color="#323033" offset=".71843"/>
   <stop stop-color="#141215" offset=".84822"/>
   <stop stop-color="#00010e" offset="1"/>
  </linearGradient>
  <linearGradient id="k-0" x1="367.85" x2="372.25" y1="904.78" y2="918" gradientTransform="matrix(.25796 -.14468 .14893 .25059 -146.1 -125.29)" gradientUnits="userSpaceOnUse">
   <stop stop-color="#2d2d39" offset="0"/>
   <stop stop-color="#acabb0" offset="1"/>
  </linearGradient>
  <linearGradient id="l-6" x1="389.51" x2="414.06" y1="902.21" y2="908.79" gradientTransform="matrix(.25796 -.14468 .14893 .25059 -146.1 -125.29)" gradientUnits="userSpaceOnUse">
   <stop stop-color="#59585d" offset="0"/>
   <stop stop-color="#010103" offset=".19258"/>
   <stop stop-color="#5b5b5d" offset=".54332"/>
   <stop stop-color="#171719" offset="1"/>
  </linearGradient>
  <linearGradient id="m-2" x1="-353.82" x2="-353.82" y1="903.4" y2="883.11" gradientTransform="matrix(-.25796 .14468 .14893 .25059 -146.1 -125.29)" gradientUnits="userSpaceOnUse">
   <stop stop-color="#202024" offset="0"/>
   <stop stop-color="#919095" offset=".33685"/>
   <stop stop-color="#4e4d51" offset=".53882"/>
   <stop stop-color="#cfcfd1" offset=".69465"/>
   <stop stop-color="#69696b" offset="1"/>
  </linearGradient>
  <linearGradient id="n-6" x1="338.85" x2="338.85" y1="903.66" y2="883.86" gradientTransform="matrix(.25796 -.14468 .14893 .25059 -146.1 -125.29)" gradientUnits="userSpaceOnUse">
   <stop stop-color="#181820" offset="0"/>
   <stop stop-color="#86858a" offset=".035115"/>
   <stop stop-color="#7a797e" offset=".14091"/>
   <stop stop-color="#2f2e33" offset=".19626"/>
   <stop stop-color="#414045" offset=".33305"/>
   <stop stop-color="#545358" offset=".43142"/>
   <stop stop-color="#ebeaf0" offset=".56075"/>
   <stop stop-color="#abaaaf" offset=".69159"/>
   <stop stop-color="#d7d6dc" offset=".85981"/>
   <stop stop-color="#66656a" offset="1"/>
  </linearGradient>
  <linearGradient id="o-1" x1="367.85" x2="415.57" y1="-67.365" y2="-50.845" gradientTransform="matrix(.25796 -.14468 .14893 .25059 -3.6696 114.36)" gradientUnits="userSpaceOnUse">
   <stop stop-color="#c7c6cb" offset="0"/>
   <stop stop-color="#fcfcfd" offset=".54332"/>
   <stop stop-color="#d8d8da" offset="1"/>
  </linearGradient>
  <filter id="p-8" x="-.019943" y="-.13645" width="1.0399" height="1.2729" color-interpolation-filters="sRGB">
   <feGaussianBlur stdDeviation=".19828681"/>
  </filter>
 </defs>
 <g transform="translate(-60.113 -31.135)">
  <circle cx="92.113" cy="63.135" r="30" fill="url(#linearGradient4149)" stroke-linecap="round" stroke-width=".49523"/>
  <g fill="#fff" stroke="#fff" stroke-width=".22802">
   <path d="m89.736 53.985c1.5582 3.7834 3.0188 7.5962 5.0658 11.233l-0.19788 0.07657c-2.055-3.5778-3.5611-7.4051-5.0658-11.233z" opacity=".75"/>
   <path d="m90.627 53.665c2.168 3.5797 4.445 7.1522 5.875 10.781-0.06596 0.02554-0.13192 0.05103-0.19788 0.07652-1.5204-3.6611-3.7061-7.2198-5.875-10.781 0.06596-0.02549 0.13192-0.05102 0.19788-0.07653z" opacity=".75"/>
   <path d="m97.25 66.262 3.3611 5.2278-0.17659 0.11766-3.3611-5.2279z" opacity=".75"/>
   <path d="m95.821 66.609 2.3586 6.2271-0.19788 0.07648-2.3586-6.2271z" opacity=".75"/>
   <path d="m94.882 65.062 1.856 3.6355-0.17312 0.10699-1.856-3.6355z" opacity=".75"/>
   <path d="m96.28 63.909 1.6746 3.7225-0.17818 0.09832-1.6746-3.7225z" opacity=".75"/>
   <path d="m89.524 54.124h0.10236c0.08718-0.63049 0.68119-0.6939 0.96061-0.4084l0.06127-0.05737c-0.40456-0.34706-1.0733-0.13182-1.1242 0.46577z" opacity=".75"/>
  </g>
  <path d="m93.847 63.097-3.9863-9.1901c0.09354-0.17746 0.18729-0.20938 0.40346-0.20619 2.1219 3.4299 3.8657 6.2974 5.574 10.049z" fill="url(#f-7)" fill-rule="evenodd" opacity=".5" stroke-width="1.2546"/>
  <g fill="#fff">
   <g stroke-width="1.7946">
    <path d="m75.708 64.82-3.457 9.6537-0.14285-0.05116 3.457-9.6537z"/>
    <path d="m80.148 68.814-8.8259 5.2199-0.07724-0.1306 8.8259-5.2199z"/>
    <path d="m78.401 71.37-5.0902-3.6492 0.0884-0.12332 5.0902 3.6492z"/>
    <path d="m79.107 70.504-5.0193-3.7462 0.09076-0.1216 5.0193 3.7462z"/>
    <path d="m75.129 72.881-2.6889-2.1263 0.09445-0.11878 2.6889 2.1263z"/>
   </g>
   <g stroke="#fff" stroke-width=".32616">
    <path d="m88.177 51.499-14.307 17.31-0.23391-0.19334 14.307-17.31z" opacity=".75"/>
    <path d="m91.145 54.137-14.307 17.31-0.23391-0.19334 14.307-17.31z" opacity=".75"/>
    <path d="m74.938 67.184-2.2752 6.2182-0.28027-0.078669 2.2752-6.2181z" opacity=".75"/>
    <path d="m78.275 70.032-5.6799 3.403-0.16843-0.23744 5.6799-3.403z" opacity=".75"/>
    <path d="m89.222 51.29a1.8964 1.8964 0 0 0-1.3686 0.55479l0.20982 0.16122a1.6353 1.6353 0 0 1 1.1309-0.45521 1.6353 1.6353 0 0 1 1.6353 1.6353 1.6353 1.6353 0 0 1-0.20212 0.78773l0.20923 0.16063a1.8964 1.8964 0 0 0-0.48781-2.4533 1.8964 1.8964 0 0 0-1.1268-0.3912z" opacity=".75"/>
   </g>
   <path d="m91.234 55.695-5.0193-3.7462 0.09076-0.1216 5.0193 3.7462z" stroke-width="1.7946"/>
  </g>
  <path d="m88.098 52.105c0.41887-0.41886 1.0425-0.55711 1.5991-0.35451 0.55664 0.2026 0.94548 0.70935 0.99711 1.2995 0.05163 0.59011-0.24331 1.1567-0.75631 1.4529z" fill="url(#a-3)" opacity=".65" stroke-width="1.7946"/>
  <g fill="#fff">
   <g stroke-width="1.7946">
    <path d="m76.021 68.029 0.05805 1.3852-0.20981 0.03196-0.05805-1.3852z"/>
    <path d="m77.364 69.177-1.323 0.41468-0.0855-0.19432 1.323-0.41461z"/>
    <path d="m76.031 68.16-1.323 0.41461-0.08549-0.19426 1.323-0.41461z"/>
    <path d="m77.45 69.073 0.05805 1.3852-0.20981 0.03262-0.05805-1.3852z"/>
    <path d="m74.811 67.136 0.05806 1.3852-0.20981 0.03196-0.05805-1.3852z"/>
    <path d="m72.65 69.908 2.1935-2.6344 0.11635 0.09739-2.1935 2.6345z"/>
    <path d="m75.865 72.354 2.1935-2.6344 0.11634 0.09745-2.1935 2.6344z"/>
    <path d="m106.46 65.621 3.4185 0.25603-0.0117 0.15127-3.4185-0.25603z"/>
    <path d="m106.41 60.344 3.4185 0.2561-0.0117 0.15127-3.4185-0.25603z"/>
    <path d="m75.056 56.159-1.292 8.4474-0.14466-0.03458 1.292-8.4474z"/>
    <path d="m106.5 59.19-0.32782 7.756-0.14762-0.01836 0.32783-7.756z"/>
   </g>
   <g stroke="#fff" stroke-width=".32616">
    <path d="m106.42 60.525-31.999-2.5768 0.01277-0.30321 31.999 2.5768z" opacity=".75"/>
    <path d="m106.42 65.889-32.815-2.6935 0.01278-0.3032 32.815 2.6935z" opacity=".75"/>
    <path d="m74.946 57.204-0.96215 6.551-0.29042-0.02022 0.96216-6.551z" opacity=".75"/>
    <path d="m106.51 60.24-0.21472 5.8345-0.29081 0.01305 0.21471-5.8345z" opacity=".75"/>
   </g>
   <g stroke-width="1.7946">
    <path d="m70.236 62.664 3.414 0.31031-0.01418 0.15109-3.414-0.3103z"/>
    <path d="m71.06 57.38 3.414 0.3103-0.01418 0.15109-3.414-0.3103z"/>
    <path d="m72.764 58.809 35.131 2.9488-0.0142 0.15108-35.131-2.9488z"/>
    <path d="m87.876 53.608-11.984 14.599-0.10737-0.10723 11.984-14.599z"/>
    <path d="m89.25 54.487-11.984 14.599-0.10737-0.10717 11.984-14.599z"/>
    <path d="m102.82 65.861-5.6725 2.6552-0.06433-0.13742 5.6725-2.6552z"/>
    <path d="m100.99 62.004-5.7223 2.5459-0.06168-0.13863 5.7223-2.5459z"/>
    <path d="m101.11 65.419-3.1303 1.3975-0.06146-0.13876 3.1303-1.3975z"/>
    <path d="m100.92 64.911-3.1303 1.3975-0.06146-0.13881 3.1303-1.3974z"/>
    <path d="m100.52 63.949-3.1303 1.3975-0.06146-0.13874 3.1303-1.3974z"/>
    <path d="m100.46 63.372-3.5563 1.6036-0.06146-0.13874 3.5563-1.6036z"/>
    <path d="m107.85 73.887-6.8543 3.1499-0.0643-0.13739 6.8543-3.1499z"/>
    <path d="m106.16 72.558-5.7223 2.5459-0.0617-0.13863 5.7223-2.5459z"/>
    <path d="m104.5 76.148-4.9916-2.0213 0.05628-0.14089 4.9916 2.0213z"/>
    <path d="m105.09 75.669 0.77045-4.6026 0.15068 0.01836-0.77046 4.6026z"/>
    <path d="m100.55 70.116-1.6963-2.979 0.13208-0.07476 1.6963 2.979z"/>
    <path d="m102.21 69.521-1.1121-3.2427 0.14371-0.04894 1.112 3.2427z"/>
    <path d="m100.24 63.217-1.986-3.3578 0.13113-0.07638 1.9859 3.3578z"/>
    <path d="m96.502 64.446-1.4674-3.6147 0.14097-0.0561 1.4673 3.6147z"/>
   </g>
  </g>
  <g fill-rule="evenodd">
   <g stroke-width="1.7946">
    <path d="m76.35 67.917 11.747-14.393 0.95249 0.74083-11.811 14.33-1.0583-0.63496z" fill="url(#c-5)" opacity=".5"/>
    <path d="m77.6 69.005 11.819-14.502 0.61912 0.49741-11.811 14.33z" fill="url(#d-6)" opacity=".5"/>
    <path d="m74.969 68.771 2.0051 1.5044-3.7985 2.2984z" fill="url(#e-2)" opacity=".5"/>
    <path d="m102.16 74.205-2.6114-6.7951 1.3814-0.67586 3.9088 6.3728z" fill="url(#g-9)" opacity=".5"/>
   </g>
   <path transform="matrix(.51066 0 0 .49607 63.924 -435.95)" d="m53.506 964.15c-8.5815 5e-3 -14.725 2.8175-22.666 7.4023-2.3169 6.0341-5.0575 7.0237-11.129 7.0098l-5.3105 3.0664c1.584 4.457 2.1764 5.6943 5.9062 10.229l5.3105-3.0664c2.2821-3.8368 5.2839-7.8115 11.715-5.0312l-0.0039-0.01c5.714 0.059 7.1941 5.1096 7.2031 5.1406v6e-3h2e-3c8e-6 0 0.0019 2e-3 2e-3 2e-3 0.0061 2e-3 0.51592 0.17507 0.75977 0.25977l8.9297 15.467-0.0078 0.012c-0.30448 0.5273-0.09534 1.1335 0.10938 1.6289l10.621 21.502 14.141 24.814s0.9937 2.4668 1.5508 3.4316c0.55711 0.9653 2.5658 0.3223 3.8516 0.033l10.818-6.7421s1.2758-1.2156 0.35938-2.8027c-0.91642-1.5873-2.3906-3.0704-2.3906-3.0704l-11.672-17.863-7.4453-10.539-11.174-14.75c-0.1782-0.1782-0.44453-0.2861-0.75781-0.334l0.03125-0.01-9.7969-14.941 0.05273-0.71875-0.33594-0.50586-0.02539-4e-3c-0.02547-0.033-1.9462-2.5236-2.6484-4.6973-0.70696-2.1881 0.36045-3.9789 4.1621-6.1738 3.8017-2.1949 13.325-1.7583 19.85 0.65625 0.40898 0.16568 0.69373 0.19037 0.85938 0.10547l0.0039 0.0215c0.53296-0.30771 0.36763-0.96926 0.04297-1.6894l0.0098-0.0469-0.03906-0.0234c-0.0024-5e-3 -0.0034-0.0104-0.0059-0.0156l-2e-3 8e-3 -2.2617-1.4258c0.37752 0.11882 0.75506 0.23601 1.1348 0.3711 0.39906 0.17221 0.642 0.20036 0.78516 0.13476l0.0039 0.01c0.0078-5e-3 0.01202-0.0127 0.01953-0.0176 0.02382-0.0136 0.04143-0.0328 0.05859-0.0527 0.45014-0.38741 0.24222-1.3449-0.12305-2.1387l2e-3 -4e-3 -0.0039-2e-3c-0.0023-5e-3 -0.0035-0.0106-0.0059-0.0156l-0.0039 0.01c-2.1271-1.3621-4.8997-2.2578-6.875-2.8008-5.3066-1.2555-9.7107-1.8324-13.611-1.8301zm2.5078 0.52929c0.16996 2e-3 0.35497 0.0157 0.52734 0.0195-0.31102-7e-3 -0.62054-0.0119-0.92383-0.0117 0.13488-9e-5 0.2601-9e-3 0.39648-8e-3zm-1.7617 0.0371c-0.26905 0.01-0.54126 0.0155-0.80469 0.0312 0.26308-0.0157 0.536-0.0213 0.80469-0.0312zm3.7109 0.0391c0.32161 0.0175 0.64621 0.0358 0.97656 0.0605-0.33062-0.0248-0.6547-0.043-0.97656-0.0605zm-6.0039 0.11914c-0.18449 0.0193-0.37462 0.0324-0.55664 0.0547 0.18187-0.0222 0.37231-0.0354 0.55664-0.0547zm8.4902 0.0801c0.34783 0.0361 0.6929 0.0696 1.0508 0.11329-0.35823-0.0438-0.70261-0.0772-1.0508-0.11329zm2.7363 0.34766c0.35214 0.0524 0.6946 0.0969 1.0566 0.15625-0.36271-0.0595-0.70386-0.10379-1.0566-0.15625zm-15.646 0.34961c-0.19406 0.0495-0.3839 0.10904-0.57617 0.16211 0.19226-0.0531 0.38213-0.11259 0.57617-0.16211zm11.885 0.51562c0.07634 2e-3 0.15046 9e-3 0.22656 0.0117-0.45044-0.0148-0.9058-0.0164-1.3633-0.01 0.38051-6e-3 0.7612-0.0112 1.1367-2e-3zm-1.5078 2e-3c0.04331-1e-3 0.08565 1e-3 0.12891 0-0.54932 0.0128-1.1026 0.0399-1.6582 0.0879-1.7 0.14701-3.1086 0.50161-4.2676 1.0059-0.61402 0.26715-1.1389 0.58718-1.6191 0.92969 0.48051-0.34284 1.0046-0.66233 1.6191-0.92969 1.159-0.50426 2.5675-0.85885 4.2676-1.0059 0.51221-0.0443 1.0227-0.0735 1.5293-0.0879zm-12.236 0.0215c-0.21224 0.0683-0.42197 0.14422-0.63281 0.2168 0.21043-0.0724 0.421-0.14861 0.63281-0.2168zm14.357 6e-3c0.4069 0.0184 0.81032 0.0427 1.209 0.0762-0.39843-0.0338-0.80261-0.0575-1.209-0.0762zm1.6035 0.11328c0.39118 0.0377 0.7771 0.0807 1.1582 0.13086-0.38074-0.0503-0.76767-0.0929-1.1582-0.13086zm1.4863 0.17578c0.45009 0.0636 0.89137 0.13326 1.3242 0.21094-0.43161-0.0776-0.87585-0.14736-1.3242-0.21094zm1.3672 0.21875c0.35114 0.0635 0.6833 0.13418 1.0215 0.20508-0.33649-0.0706-0.67244-0.1419-1.0215-0.20508zm-20.582 0.11329c-0.24186 0.0927-0.48349 0.18899-0.72461 0.2871 0.24074-0.0979 0.48313-0.19459 0.72461-0.2871zm22.512 0.30273c0.66171 0.15557 1.2887 0.31221 1.8828 0.48242-0.59033-0.16863-1.2274-0.32832-1.8828-0.48242zm-24.311 0.43945c-0.2348 0.10336-0.46993 0.20617-0.70508 0.31446 0.2347-0.10808 0.47072-0.21129 0.70508-0.31446zm26.789 0.2168c0.60039 0.1818 1.1469 0.35777 1.6543 0.53516-0.50352-0.17512-1.0623-0.35631-1.6543-0.53516zm-28.686 0.66602c-0.18281 0.0899-0.36517 0.17686-0.54883 0.26953 0.18344-0.0926 0.36623-0.17976 0.54883-0.26953zm30.758 0.0137c0.51339 0.18568 0.95358 0.35323 1.3398 0.50976-0.3848-0.15474-0.83703-0.3287-1.3398-0.50976zm-11.291 0.33398c0.3237-8e-3 0.72449 3e-3 1.0898 4e-3 -0.45104-1e-3 -0.91184-5e-3 -1.2988 6e-3 0.0781-2e-3 0.12812-8e-3 0.20898-0.01zm-9.9316 6e-3c-0.13468 0.12365-0.2804 0.24162-0.40234 0.37109 0.12195-0.12954 0.26765-0.24738 0.40234-0.37109zm11.73 0c0.46166 9e-3 0.96688 0.0399 1.4766 0.0684-0.50546-0.0286-1.0182-0.0585-1.4766-0.0684zm-2.4336 0.0234c-0.38238 0.0157-0.76643 0.0318-1.0625 0.0527 0.30734-0.0227 0.65718-0.0356 1.0625-0.0527zm4.8164 0.0976c0.78084 0.0612 1.5892 0.1452 2.4453 0.26563 0.44938 0.0632 0.90554 0.13607 1.3711 0.21875-0.46486-0.0828-0.92234-0.15535-1.3711-0.21875-0.85358-0.12059-1.6664-0.20386-2.4453-0.26563zm8.6719 0.13672c0.48512 0.20024 0.88683 0.37515 1.1016 0.47461l-0.0039 8e-3c-0.1566-0.0749-0.42663-0.20635-1.0977-0.48243zm-33.572 0.0254c-0.93009 0.48324-1.8715 0.99216-2.8438 1.541 0.97178-0.5486 1.9141-1.058 2.8438-1.541zm17.236 0.12305c-0.21084 0.0943-0.45506 0.20638-0.66992 0.33008 0.24239-0.13954 0.44468-0.23125 0.66992-0.33008zm11.535 0.20899c0.4597 0.0823 0.92421 0.17585 1.3965 0.27929-0.47184-0.1035-0.93718-0.19682-1.3965-0.27929zm1.4277 0.28515c0.47727 0.10497 0.95837 0.22288 1.4453 0.35156-0.48602-0.1285-0.96892-0.24662-1.4453-0.35156zm-13.975 0.0762c-0.028 0.0244-0.05751 0.0488-0.07813 0.0723 0.02069-0.0237 0.04994-0.0477 0.07813-0.0723zm-0.11523 0.12305c-0.0213 0.0335-0.02951 0.0638-0.0293 0.0937 4.8e-5 -0.0298 0.0081-0.0605 0.0293-0.0937zm5.7695 4e-3c0.03411 4.4e-4 0.06934 3e-3 0.10352 4e-3 -0.36115-7e-3 -0.71512-5e-5 -1.0664 0.0117 0.31797-0.0108 0.63703-0.0199 0.96289-0.0156zm0.16602 6e-3c0.40942 8e-3 0.82363 0.0258 1.2402 0.0547-0.41697-0.0292-0.83089-0.0461-1.2402-0.0547zm-1.3945 0.0137c0.01151-5.6e-4 0.02363 5.3e-4 0.03516 0-0.41421 0.019-0.82099 0.0508-1.2148 0.0996 0.3836-0.0476 0.77736-0.0801 1.1797-0.0996zm2.8086 0.0566c0.36097 0.0273 0.72165 0.0613 1.084 0.10156-0.3624-0.0405-0.72323-0.074-1.084-0.10156zm-7.377 0.0547c0.01656 0.0398 0.05106 0.0766 0.125 0.10546 0.06996 0.0273 0.18308 0.0459 0.31445 0.0606-0.13115-0.0147-0.24456-0.0332-0.31445-0.0606-0.07488-0.0293-0.10888-0.065-0.125-0.10546zm15.596 0.0254c0.48164 0.12778 0.96511 0.26682 1.4531 0.41992-0.48739-0.15288-0.97208-0.29223-1.4531-0.41992zm-6.4375 0.12109c0.67412 0.0889 1.3407 0.18255 1.9961 0.30273-0.65301-0.1197-1.3256-0.21396-1.9961-0.30273zm-7.4883 8e-3c-0.10725 7e-3 -0.21744 0.0153-0.3125 0.0195 0.09454-4e-3 0.20594-0.0126 0.3125-0.0195zm9.9277 0.38477c0.7132 0.13828 1.4028 0.2828 2.0605 0.43945-0.65504-0.15551-1.3525-0.30224-2.0605-0.43945zm2.3984 0.52344c0.65444 0.16053 1.2691 0.31755 1.832 0.47656-0.56075-0.15747-1.1846-0.31824-1.832-0.47656zm2.2598 0.60156c0.46726 0.13637 0.89594 0.26387 1.2656 0.38281-0.36979-0.11792-0.80541-0.24923-1.2656-0.38281zm1.9551 0.61328c0.12524 0.0431 0.25954 0.0863 0.36133 0.12305-0.10264-0.0367-0.23713-0.0806-0.36133-0.12305zm0.89648 0.32812c0.0067 3e-3 0.03336 0.0129 0.03906 0.0156v2e-3c-0.0088-4e-3 -0.028-0.0126-0.03906-0.0176zm-38.064 6.3789c0.0399 0.0133 0.08712 0.0342 0.12891 0.0488 0.09595 0.0334 0.19541 0.0691 0.30078 0.10937-0.07103-0.023-0.14515-0.0506-0.21484-0.0723-0.06549-0.0233-0.15379-0.0655-0.21484-0.0859zm1.3203 0.48047c0.11936 0.0474 0.24334 0.10548 0.36524 0.1582-0.12152-0.0528-0.24626-0.11078-0.36524-0.1582zm1.2227 0.56836c0.31073 0.16457 0.62655 0.34425 0.94727 0.55469-0.3213-0.21155-0.63602-0.38918-0.94727-0.55469zm1.9082 1.2578c0.05239 0.0422 0.10373 0.0871 0.15625 0.13086-0.05228-0.0436-0.10409-0.0887-0.15625-0.13086zm2.1641 2.1953c0.05915 0.0734 0.1167 0.14481 0.17578 0.22071-0.05911-0.076-0.11661-0.14721-0.17578-0.22071zm1.125 1.5586c0.06433 0.0991 0.12729 0.20422 0.19141 0.30664-0.06404-0.1023-0.12714-0.20769-0.19141-0.30664z" filter="url(#h-1)" opacity=".3"/>
   <path d="m87.136 51.789c-0.04077-0.01547-0.47205-0.15689-0.47205-0.15689l-0.02894-0.76572 3.3062-1.8581 0.62857 0.08113 0.17139 0.25081-0.04296 0.56618z" stroke-width=".29358"/>
  </g>
  <path d="m86.888 51.481 0.02048-0.47767 3.1114-1.745 0.38897-0.01543 5.3089 7.8654-1.0877 0.23811-2.5312 1.4578-0.47803 0.63983z" fill="url(#i-2)" stroke-width=".29358"/>
  <g fill-rule="evenodd" stroke-width=".29358">
   <path d="m104.31 83.224-7.2213-12.31-5.4239-10.666c-0.10454-0.2457-0.21194-0.54695-0.05646-0.80857l0.45752-0.6198 2.4837-1.4461c0.60837-0.3412 1.2641-0.361 1.5373-0.09559l5.7064 7.3176 3.8014 5.2276 5.961 8.8613s0.75292 0.73571 1.2209 1.5231-0.18351 1.3909-0.18351 1.3909l-5.5253 3.3442c-0.6566 0.14339-1.6823 0.46248-1.9668-0.0162-0.28447-0.47865-0.7911-1.7029-0.7911-1.7029z" fill="url(#j-9)"/>
   <path d="m86.667 51.633s-0.7552-2.5335-3.6925-2.5557l-1.1407-2.4826s3.163 0.48652 4.8084 4.269z" fill="url(#k-0)"/>
   <path d="m86.898 50.721c-1.7563-3.2808-3.7902-3.7924-5.0647-4.1266 0 0 3.163 0.48652 4.8084 4.269z" fill="#5b5c60"/>
   <path d="m90.562 49.093s-0.99586-1.2507-1.3569-2.3361c-0.36102-1.0855 0.18423-1.9739 2.1256-3.0627s6.8048-0.87269 10.137 0.32508c0.49237 0.19376 0.65458 0.01978 0.41516-0.41684-0.0221-0.06336-4.8524-1.7282-8.1171-1.3352-3.2895 0.39604-0.9009-0.50667-0.9009-0.50667s4.141-0.57459 8.4712 0.9219c0.60558 0.25387 0.54668-0.0845 0.34315-0.5911 0 0-4.3295-2.0795-8.9596-1.6906s-5.0252 3.7077-4.4435 5.5893c0.58168 1.8816 1.6349 3.0695 1.6349 3.0695z" fill="url(#l-6)"/>
   <path d="m101.52 42.035 0.2155 0.71937c0.28915-0.16759 0.17327-0.68805-0.0273-1.1068z"/>
   <path d="m101.81 43.576 0.0973 0.50647c0.2832-0.15883 0.18318-0.50638 4e-3 -0.88045z"/>
  </g>
  <g stroke-width=".29358">
   <path d="m79.673 43.027c-1.1832 2.9941-2.5817 3.4853-5.6824 3.4783l3.0156 5.0739c1.1654-1.9033 2.6979-3.8756 5.9819-2.4964l-1.1226-2.4425z" fill="url(#m-2)"/>
   <path d="m71.278 48.026 2.712-1.521 3.0156 5.0739-2.712 1.521z" fill="url(#n-6)"/>
   <path d="m79.673 43.028c5.8986-3.3082 9.8536-4.7572 18.525-2.7642-8.76-1.7006-12.037 0.11538-18.054 3.555z" fill="#3b3b3d" fill-rule="evenodd"/>
   <path d="m82.288 42.608c-0.6826 0.37552-1.3917 0.78024-2.1438 1.2102l1.8901 3.213-0.20059-0.43697s0.04888 0.0075 0.13752 0.02793c0.0011 1.67e-4 4.41e-4 2.21e-4 0.0016 3.99e-4 0.0886 0.02047 0.21612 0.05356 0.37478 0.105 0.0025 7.86e-4 0.0034 0.0011 0.0059 0.0019 0.02038 0.0066 0.04501 0.01625 0.06635 0.02348 0.04928 0.01667 0.09987 0.03448 0.15403 0.05457 0.0037 0.0011 0.0073 0.0025 0.01092 0.0037 1.2431 0.39387 2.8692 1.2118 4.3136 3.91l-0.23365 0.12907 0.09308 0.09332 3.2006-1.8747-3e-3 -0.0074-0.04497-0.0022s-1.0533-1.188-1.6349-3.0696c-0.58168-1.8816-0.18641-5.2005 4.4437-5.5894 4.1851-0.35157 8.0908 1.2995 8.8094 1.6228l0.18015-0.37055c-1.0863-0.67569-2.5015-1.1201-3.5103-1.3895-7.665-1.4881-11.132-0.2838-15.911 2.3449zm9.9941-0.58299c-0.41066 0.22965-0.57277 0.48919 1.4831 0.24166 3.1342-0.37736 7.666 1.1282 8.0463 1.3063l0.0996-0.36712-1.1575-0.70881c-4.1116-1.2564-7.8891-0.73661-7.8891-0.73661s-0.33595 0.12682-0.58235 0.26462zm-7.5116 6.1491c0.13234 0.12249 0.26464 0.25385 0.39559 0.39547-0.13094-0.14148-0.26328-0.2731-0.39559-0.39547zm0.39588 0.39596c0.11472 0.12409 0.22849 0.25921 0.34055 0.39893-0.11229-0.13992-0.2256-0.2747-0.34055-0.39893zm0.39374 0.46242c0.10942 0.1396 0.21587 0.29075 0.32107 0.4464-0.10522-0.15562-0.21163-0.30684-0.32107-0.4464zm0.37445 0.52153c0.11892 0.18053 0.23471 0.37136 0.34591 0.57408-0.11131-0.20297-0.22682-0.39338-0.34591-0.57408zm0.35354 0.58807c0.10951 0.20058 0.21439 0.41275 0.31429 0.63619-0.09992-0.22344-0.20476-0.43562-0.31429-0.63619zm15.426-8.4873c4.2e-4 8.7e-4 4.6e-4 0.0019 9.5e-4 0.0027l9.6e-4 -0.0018zm0.20081 1.5541c6e-3 0.01192 9e-3 0.02298 0.0147 0.03485l5e-3 -0.02309z" fill="url(#o-1)"/>
   <path d="m71.278 48.026c0.80887 2.211 1.1109 2.8246 3.0156 5.0739z" fill="#5b5a60"/>
  </g>
  <rect transform="matrix(.26869 -.1507 .17687 .29759 -179.57 -172.39)" x="370.97" y="1049.2" width="23.862" height="3.4876" rx="1.7438" fill="#323033" filter="url(#p-8)"/>
  <rect transform="matrix(.87219 -.48917 .51091 .85963 0 0)" x="48.115" y="125.06" width="7.0576" height="1.0167" rx=".51575" fill="#060509" stroke-width=".29363"/>
 </g>
</svg>
