<?xml version="1.0" encoding="UTF-8"?>
<svg width="64" height="64" version="1.1" xmlns="http://www.w3.org/2000/svg" xmlns:cc="http://creativecommons.org/ns#" xmlns:dc="http://purl.org/dc/elements/1.1/" xmlns:rdf="http://www.w3.org/1999/02/22-rdf-syntax-ns#">
 <metadata>
  <rdf:RDF>
   <cc:Work rdf:about="">
    <dc:format>image/svg+xml</dc:format>
    <dc:type rdf:resource="http://purl.org/dc/dcmitype/StillImage"/>
    <dc:title/>
   </cc:Work>
  </rdf:RDF>
 </metadata>
 <defs>
  <linearGradient id="e" x1="100.01" x2="100.01" y1="15.314" y2="30.966" gradientUnits="userSpaceOnUse">
   <stop stop-color="#268bcf" offset="0"/>
   <stop stop-color="#18bfe8" offset="1"/>
  </linearGradient>
  <linearGradient id="d" x1="107.85" x2="107.85" y1="16.618" y2="45.309" gradientUnits="userSpaceOnUse">
   <stop stop-color="#40a800" offset="0"/>
   <stop stop-color="#7cd000" offset="1"/>
  </linearGradient>
  <linearGradient id="c" x1="92.191" x2="92.191" y1="16.618" y2="45.309" gradientUnits="userSpaceOnUse">
   <stop stop-color="#ec1f4b" offset="0"/>
   <stop stop-color="#e94545" offset="1"/>
  </linearGradient>
  <linearGradient id="a" x1="100.01" x2="100.01" y1="30.971" y2="46.618" gradientUnits="userSpaceOnUse">
   <stop stop-color="#6534d2" offset="0"/>
   <stop stop-color="#a553e5" offset="1"/>
  </linearGradient>
  <filter id="f" x="-.06" y="-.06" width="1.12" height="1.12" color-interpolation-filters="sRGB">
   <feGaussianBlur stdDeviation="0.78260866"/>
  </filter>
 </defs>
 <g transform="matrix(1.0545 0 0 1.0545 -12.26 -12.259)">
  <g transform="matrix(1.5687 0 0 1.5687 -114.93 -6.6073)" filter="url(#f)" opacity=".5">
   <path d="m86.973 15.314-1.3043 1.3043 14.348 14.348 14.343-14.348-1.3044-1.3043"/>
   <path d="m113.06 46.618 1.3044-1.3043-14.343-14.343-14.348 14.343 1.3043 1.3043"/>
   <path d="m84.365 44.004 1.3043 1.3043 14.348-14.343-14.348-14.348-1.3043 1.3043"/>
   <path d="m115.67 17.923-1.3043-1.3043-14.343 14.348 14.343 14.343 1.3043-1.3043"/>
  </g>
  <g transform="matrix(1.5687 0 0 1.5687 -114.93 -6.6073)">
   <path d="m86.973 15.314-1.3043 1.3043 14.348 14.348 14.343-14.348-1.3044-1.3043" fill="url(#e)"/>
   <path d="m113.06 46.618 1.3044-1.3043-14.343-14.343-14.348 14.343 1.3043 1.3043" fill="url(#a)"/>
   <path d="m84.365 44.004 1.3043 1.3043 14.348-14.343-14.348-14.348-1.3043 1.3043" fill="url(#c)"/>
   <path d="m115.67 17.923-1.3043-1.3043-14.343 14.348 14.343 14.343 1.3043-1.3043" fill="url(#d)"/>
  </g>
 </g>
</svg>
