<?xml version="1.0" encoding="UTF-8"?>
<svg id="Flamingo" width="64" height="64" enable-background="new 0 0 1024 1024" image-rendering="optimizeSpeed" version="1.1" viewBox="0 0 64 64" xmlns="http://www.w3.org/2000/svg" xmlns:cc="http://creativecommons.org/ns#" xmlns:dc="http://purl.org/dc/elements/1.1/" xmlns:rdf="http://www.w3.org/1999/02/22-rdf-syntax-ns#" xmlns:xlink="http://www.w3.org/1999/xlink">
 <metadata>
  <rdf:RDF>
   <cc:Work rdf:about="">
    <dc:format>image/svg+xml</dc:format>
    <dc:type rdf:resource="http://purl.org/dc/dcmitype/StillImage"/>
   </cc:Work>
  </rdf:RDF>
 </metadata>
 <defs>
  <linearGradient id="linearGradient1394" x1="-9.4731" x2="-9.4731" y1="16.326" y2=".57806" gradientTransform="matrix(3.7796 0 0 3.7796 120.93 14.365)" gradientUnits="userSpaceOnUse">
   <stop stop-color="#d0dff0" offset="0"/>
   <stop stop-color="#f5faff" offset="1"/>
  </linearGradient>
  <filter id="filter908" x="-.44633" y="-.74271" width="1.8927" height="2.4854" color-interpolation-filters="sRGB">
   <feGaussianBlur stdDeviation="0.74084545"/>
  </filter>
  <linearGradient id="linearGradient867" x1="32.243" x2="32.42" y1="47.827" y2="14.844" gradientTransform="matrix(1.1081 0 0 1.1081 46.291 11.207)" gradientUnits="userSpaceOnUse">
   <stop stop-color="#ff4c1c" offset="0"/>
   <stop stop-color="#ffbf25" offset="1"/>
  </linearGradient>
  <linearGradient id="linearGradient1062" x1="12.684" x2="48.336" y1="29.802" y2="29.802" gradientTransform="matrix(1.1081 0 0 1.1081 46.291 11.207)" gradientUnits="userSpaceOnUse" xlink:href="#linearGradient863"/>
  <linearGradient id="linearGradient863">
   <stop stop-color="#f60" offset="0"/>
   <stop stop-color="#f60" stop-opacity="0" offset="1"/>
  </linearGradient>
 </defs>
 <g transform="translate(-51.851 -14.365)">
  <circle cx="83.851" cy="46.365" r="30" fill="url(#linearGradient1394)" stroke-linecap="round" stroke-width=".83649"/>
  <path transform="matrix(1.1081 0 0 1.1081 47.478 11.58)" d="m24.323 26.059a0.6331 0.87195 0 0 1-1.2662 0 0.6331 0.87195 0 1 1 1.2662 0zm2.7175-0.65009a0.6331 0.87195 0 0 1-1.2662 0 0.6331 0.87195 0 1 1 1.2662 0z" filter="url(#filter908)" opacity=".15" stroke-width="3.7796"/>
  <path transform="matrix(1.1081 0 0 1.1081 47.478 11.58)" d="m28.719 28.705c-0.41576 0.54804-1.2964 0.9638-2.7591 1.6063 1.6668-0.3515 1.6366-0.01134 1.6895 0.49891a7.0679 7.0679 0 0 0 1.0696-2.1052zm-3.515 1.8974c-1.5496 0.45355-2.23 0.55938-2.8801 0.36662a3.0842 3.0842 0 0 0 1.4665 1.3985c-0.25323-0.51025-0.25323-0.97514 1.4098-1.7651z" filter="url(#filter908)" opacity=".075" stroke-width="3.7796"/>
  <g stroke-width="4.1882">
   <path d="m77.047 29.53a8.0331 8.0331 0 0 0-2.1989 0.26404c-1.935 0.50258-3.7862 1.6743-5.1055 3.2659-1.3151 1.5831-2.1014 3.5974-1.8418 5.7417 0.27223 3.6605 1.9893 9.6825 4.1294 14.834 1.0722 2.5799 2.249 4.9339 3.4217 6.6595 0.58634 0.86697 1.1688 1.5751 1.7552 2.0777 0.57378 0.4942 1.1631 0.80065 1.7704 0.79646a3.585 3.585 0 0 0 2.7898-0.80944c0.80831-0.63242 1.4999-1.5398 2.1492-2.5409 1.2565-1.9433 2.387-4.4099 3.6728-5.8716 0.12565 0.14659 0.29688 0.60983 0.5021 0.98259 0.40206 0.7497 0.92279 1.84 1.5929 2.9499 0.67011 1.1141 1.4935 2.1764 2.5322 3.0559 1.0345 0.87114 2.2964 1.4242 3.7875 1.4285 0.89629 0.06701 1.8011 0.0051 2.5257-0.35927 0.73293-0.36855 1.2888-0.95893 1.3224-1.8677v-0.0086a1.7842 1.7842 0 0 0-0.89601-1.5539c-0.50677-0.3183-1.1256-0.53079-1.7791-0.87004-1.3026-0.67849-2.7806-1.7804-3.6684-4.9842-0.70361-2.5422-1.6343-4.445-2.6145-5.7267-0.98005-1.2774-1.7712-2.4149-3.0234-2.2725-2.1821 0.24711-3.2076 3.3755-4.2462 5.0341-0.6366 1.0219-1.2359 2.0377-1.7552 2.846-0.41882 0.65755-0.73332 1.0235-0.98042 1.2748-0.80414-0.86277-1.2827-1.792-1.199-2.8893 0.10052-1.2313 0.80521-2.6386 1.4544-4.1338 1.2984-2.9862 2.9515-6.3465 2.6122-9.6678-0.2471-2.4292-1.5185-5.1502-3.3027-6.5491a5.876 5.876 0 0 0-2.6815-1.0475 6.3828 6.3828 0 0 0-0.72503-0.05843zm-0.1753 4.1164c1.2607 0.4942 2.2457 1.5754 2.6728 2.4088a9.7711 9.7711 0 0 0-2.6815-1.1319 6.4079 6.4079 0 0 0-2.2227 1.2856 4.1882 4.1882 0 0 1 2.2314-2.5625zm-4.8825 1.9219c1.0215 0.01531 2.0073 0.29565 2.6512 0.62547-1.1183 0.03351-2.161 0.20754-2.9022 0.45882-0.46489 0.56541-0.85974 1.2582-1.0692 2.121-0.38531-1.1224-0.29404-2.1871 0.2965-3.1252 0.33715-0.06178 0.68321-0.08518 1.0237-0.08008zm4.6856 0.5995c1.0931-0.1047 2.0389 1.2948 2.1102 3.1209 0.03351 0.7832-0.10365 1.3811-0.35494 1.9716a10.868 10.868 0 0 0-2.9564 0.47397c-0.05863-0.09214-0.12721-0.17651-0.17747-0.27702-0.0084 0.11727-0.02883 0.23537-0.04978 0.34844-0.96748 0.32249-1.808 0.89149-2.478 1.4024-0.46908-0.51096-0.83473-1.333-0.94362-2.2963-0.19265-1.6669 0.42806-3.3708 1.3829-3.4671 0.62404-0.06282 1.2299 0.73782 1.6362 1.5713 0.12146-1.5328 0.87606-2.7561 1.8309-2.8481zm2.8698 5.8046c-0.02932 2.6302-2.6395 5.7803-4.2268 5.7678-2.2323-0.02094-2.9943-1.537-3.4801-2.5841 2.5213-0.59891 5.7259-2.0193 7.7069-3.1836z" fill="url(#linearGradient867)" fill-rule="evenodd"/>
   <path d="m74.43 40.456a0.70154 0.96621 0 0 1-1.4031 0 0.70154 0.96621 0 1 1 1.4031 0zm3.0113-0.72036a0.70154 0.96621 0 0 1-1.4031 0 0.70154 0.96621 0 1 1 1.4031 0z" fill="url(#linearGradient1062)"/>
   <path d="m79.302 43.388c-0.4607 0.60728-1.4365 1.068-3.0574 1.7799 1.847-0.3895 1.8135-0.01257 1.8721 0.55284a7.8319 7.8319 0 0 0 1.1852-2.3328zm-3.895 2.1025c-1.7171 0.50258-2.4711 0.61985-3.1914 0.40625a3.4176 3.4176 0 0 0 1.625 1.5497c-0.2806-0.56541-0.2806-1.0806 1.5622-1.9559z" fill="url(#linearGradient1062)" opacity=".5"/>
  </g>
 </g>
</svg>
