<?xml version="1.0" encoding="UTF-8"?>
<svg id="Flamingo" width="64" height="64" enable-background="new 0 0 1024 1024" image-rendering="optimizeSpeed" version="1.1" viewBox="0 0 64 64" xmlns="http://www.w3.org/2000/svg" xmlns:cc="http://creativecommons.org/ns#" xmlns:dc="http://purl.org/dc/elements/1.1/" xmlns:rdf="http://www.w3.org/1999/02/22-rdf-syntax-ns#" xmlns:xlink="http://www.w3.org/1999/xlink">
 <metadata>
  <rdf:RDF>
   <cc:Work rdf:about="">
    <dc:format>image/svg+xml</dc:format>
    <dc:type rdf:resource="http://purl.org/dc/dcmitype/StillImage"/>
   </cc:Work>
  </rdf:RDF>
 </metadata>
 <defs>
  <linearGradient id="b-5-6" x1="9.2603" x2="9.2603" y1="-.26249" y2="15.612" gradientTransform="matrix(3.7796 0 0 3.7796 53.231 15.507)" gradientUnits="userSpaceOnUse">
   <stop stop-color="#1c1d1d" offset="0"/>
   <stop stop-color="#313232" offset="1"/>
  </linearGradient>
  <filter id="l" x="-.48378" y="-.48378" width="1.9676" height="1.9676" color-interpolation-filters="sRGB">
   <feGaussianBlur stdDeviation="2.035925"/>
  </filter>
  <radialGradient id="radialGradient1234" cx="18.685" cy="25.668" r="5.05" gradientTransform="matrix(1.5842 0 0 1.5842 58.68 3.8065)" gradientUnits="userSpaceOnUse" xlink:href="#k"/>
  <linearGradient id="k">
   <stop stop-color="#a40000" offset="0"/>
   <stop stop-color="#a40000" stop-opacity="0" offset="1"/>
  </linearGradient>
  <radialGradient id="radialGradient1236" cx="18.685" cy="25.668" r="5.05" gradientTransform="matrix(1.1316 0 0 1.1316 67.137 15.491)" gradientUnits="userSpaceOnUse" xlink:href="#j"/>
  <linearGradient id="j">
   <stop stop-color="#c00" offset="0"/>
   <stop stop-color="#c00" stop-opacity="0" offset="1"/>
  </linearGradient>
  <radialGradient id="radialGradient1238" cx="18.685" cy="25.668" r="5.05" gradientTransform="matrix(.67895 0 0 .67895 75.595 27.11)" gradientUnits="userSpaceOnUse" xlink:href="#i"/>
  <linearGradient id="i">
   <stop stop-color="#ef2929" offset="0"/>
   <stop stop-color="#ef2929" stop-opacity="0" offset="1"/>
  </linearGradient>
  <radialGradient id="radialGradient1240" cx="18.685" cy="25.668" r="5.05" gradientTransform="matrix(1.5842 0 0 1.5842 48.68 3.8065)" gradientUnits="userSpaceOnUse" xlink:href="#k"/>
  <radialGradient id="radialGradient1242" cx="18.685" cy="25.668" r="5.05" gradientTransform="matrix(1.1316 0 0 1.1316 57.137 15.491)" gradientUnits="userSpaceOnUse" xlink:href="#j"/>
  <radialGradient id="radialGradient1244" cx="18.685" cy="25.668" r="5.05" gradientTransform="matrix(.67895 0 0 .67895 65.595 27.11)" gradientUnits="userSpaceOnUse" xlink:href="#i"/>
  <radialGradient id="e-9" cx="18.685" cy="25.668" r="5.05" gradientTransform="matrix(1.5842 0 0 1.5842 68.68 3.8065)" gradientUnits="userSpaceOnUse" xlink:href="#k"/>
  <radialGradient id="c-2" cx="18.685" cy="25.668" r="5.05" gradientTransform="matrix(1.1316 0 0 1.1316 77.137 15.491)" gradientUnits="userSpaceOnUse" xlink:href="#j"/>
  <radialGradient id="a" cx="18.685" cy="25.668" r="5.05" gradientTransform="matrix(.67895 0 0 .67895 85.595 27.11)" gradientUnits="userSpaceOnUse" xlink:href="#i"/>
  <radialGradient id="h" cx="13.199" cy="12.464" r="21.009" gradientTransform="matrix(1.0649 .61482 -.62301 1.0791 71.186 11.368)" gradientUnits="userSpaceOnUse">
   <stop stop-color="#d3d7cf" offset="0"/>
   <stop stop-color="#888a85" offset="1"/>
  </radialGradient>
  <linearGradient id="linearGradient1246" x1="5.6934" x2="40.503" y1="5.4583" y2="40.081" gradientTransform="translate(64.278 20.468)" gradientUnits="userSpaceOnUse">
   <stop stop-color="#eeeeec" offset="0"/>
   <stop stop-color="#eeeeec" stop-opacity="0" offset="1"/>
  </linearGradient>
 </defs>
 <g transform="translate(-56.29 -12.515)">
  <circle cx="88.231" cy="44.515" r="30" fill="url(#b-5-6)" image-rendering="optimizeSpeed" stroke-width="3.6397" style="paint-order:stroke markers fill"/>
  <path d="m71.791 38.922h32.998v11.778h-32.998c3e-4 -3.926 3e-4 -7.852 3e-4 -11.778z" filter="url(#l)" opacity=".5" stroke="#2e3436"/>
  <path transform="matrix(1.5842 0 0 1.5842 58.68 3.8065)" d="m23.735 25.668c0 2.789-2.261 5.05-5.05 5.05s-5.05-2.261-5.05-5.05 2.261-5.05 5.05-5.05 5.05 2.261 5.05 5.05z" filter="url(#l)" opacity=".375"/>
  <path transform="matrix(1.1316 0 0 1.1316 67.137 15.491)" d="m23.735 25.668c0 2.789-2.261 5.05-5.05 5.05s-5.05-2.261-5.05-5.05 2.261-5.05 5.05-5.05 5.05 2.261 5.05 5.05z" filter="url(#l)" opacity=".375"/>
  <path transform="matrix(.67895 0 0 .67895 75.595 27.11)" d="m23.735 25.668c0 2.789-2.261 5.05-5.05 5.05s-5.05-2.261-5.05-5.05 2.261-5.05 5.05-5.05 5.05 2.261 5.05 5.05z" filter="url(#l)" opacity=".375"/>
  <path transform="matrix(1.5842 0 0 1.5842 48.68 3.8065)" d="m23.735 25.668c0 2.789-2.261 5.05-5.05 5.05s-5.05-2.261-5.05-5.05 2.261-5.05 5.05-5.05 5.05 2.261 5.05 5.05z" filter="url(#l)" opacity=".5"/>
  <path transform="matrix(1.1316 0 0 1.1316 57.137 15.491)" d="m23.735 25.668c0 2.789-2.261 5.05-5.05 5.05s-5.05-2.261-5.05-5.05 2.261-5.05 5.05-5.05 5.05 2.261 5.05 5.05z" filter="url(#l)" opacity=".5"/>
  <path transform="matrix(.67895 0 0 .67895 65.595 27.11)" d="m23.735 25.668c0 2.789-2.261 5.05-5.05 5.05s-5.05-2.261-5.05-5.05 2.261-5.05 5.05-5.05 5.05 2.261 5.05 5.05z" filter="url(#l)" opacity=".5"/>
  <path transform="matrix(1.5842 0 0 1.5842 68.68 3.8065)" d="m23.735 25.668c0 2.789-2.261 5.05-5.05 5.05s-5.05-2.261-5.05-5.05 2.261-5.05 5.05-5.05 5.05 2.261 5.05 5.05z" filter="url(#l)" opacity=".25"/>
  <path transform="matrix(1.1316 0 0 1.1316 77.137 15.491)" d="m23.735 25.668c0 2.789-2.261 5.05-5.05 5.05s-5.05-2.261-5.05-5.05 2.261-5.05 5.05-5.05 5.05 2.261 5.05 5.05z" filter="url(#l)" opacity=".25"/>
  <path transform="matrix(.67895 0 0 .67895 85.595 27.11)" d="m23.735 25.668c0 2.789-2.261 5.05-5.05 5.05s-5.05-2.261-5.05-5.05 2.261-5.05 5.05-5.05 5.05 2.261 5.05 5.05z" filter="url(#l)" opacity=".25"/>
  <path d="m71.791 38.922h32.998v11.778h-32.998c3e-4 -3.926 3e-4 -7.852 3e-4 -11.778z" fill="#2e3436" stroke="#2e3436"/>
  <path d="m96.28 44.469c0 4.4183-3.5818 8.0001-8.0001 8.0001-4.4183 0-8.0001-3.5818-8.0001-8.0001s3.5818-8.0001 8.0001-8.0001c4.4183 0 8.0001 3.5818 8.0001 8.0001z" fill="url(#radialGradient1234)" opacity=".75" stroke-width="1.5842"/>
  <path d="m93.995 44.537c0 3.156-2.5585 5.7145-5.7145 5.7145-3.156 0-5.7145-2.5585-5.7145-5.7145s2.5585-5.7145 5.7145-5.7145c3.156 0 5.7145 2.5585 5.7145 5.7145z" fill="url(#radialGradient1236)" opacity=".75" stroke-width="1.1316"/>
  <path d="m91.709 44.537c0 1.8936-1.5351 3.4287-3.4287 3.4287-1.8936 0-3.4287-1.5351-3.4287-3.4287 0-1.8936 1.5351-3.4287 3.4287-3.4287 1.8936 0 3.4287 1.5351 3.4287 3.4287z" fill="url(#radialGradient1238)" opacity=".75" stroke-width=".67895"/>
  <path d="m86.28 44.469c0 4.4183-3.5818 8.0001-8.0001 8.0001-4.4183 0-8.0001-3.5818-8.0001-8.0001s3.5818-8.0001 8.0001-8.0001c4.4183 0 8.0001 3.5818 8.0001 8.0001z" fill="url(#radialGradient1240)" stroke-width="1.5842"/>
  <path d="m83.995 44.537c0 3.156-2.5585 5.7145-5.7145 5.7145-3.156 0-5.7145-2.5585-5.7145-5.7145s2.5585-5.7145 5.7145-5.7145c3.156 0 5.7145 2.5585 5.7145 5.7145z" fill="url(#radialGradient1242)" stroke-width="1.1316"/>
  <path d="m81.709 44.537c0 1.8936-1.5351 3.4287-3.4287 3.4287s-3.4287-1.5351-3.4287-3.4287c0-1.8936 1.5351-3.4287 3.4287-3.4287s3.4287 1.5351 3.4287 3.4287z" fill="url(#radialGradient1244)" stroke-width=".67895"/>
  <path d="m106.28 44.469c0 4.4183-3.5818 8.0001-8.0001 8.0001-4.4183 0-8.0001-3.5818-8.0001-8.0001s3.5818-8.0001 8.0001-8.0001c4.4183 0 8.0001 3.5818 8.0001 8.0001z" fill="url(#e-9)" opacity=".5" stroke-width="1.5842"/>
  <path d="m104 44.537c0 3.156-2.5585 5.7145-5.7145 5.7145-3.156 0-5.7145-2.5585-5.7145-5.7145s2.5585-5.7145 5.7145-5.7145c3.156 0 5.7145 2.5585 5.7145 5.7145z" fill="url(#c-2)" opacity=".5" stroke-width="1.1316"/>
  <path d="m101.71 44.537c0 1.8936-1.5351 3.4287-3.4287 3.4287s-3.4287-1.5351-3.4287-3.4287c0-1.8936 1.5351-3.4287 3.4287-3.4287s3.4287 1.5351 3.4287 3.4287z" fill="url(#a)" opacity=".5" stroke-width=".67895"/>
  <path d="m88.247 23.999c-10.117 0-18.544 7.3288-20.219 16.969h40.406c-1.676-9.639-10.071-16.969-20.187-16.969zm-20.188 24.063c1.6902 9.622 10.083 16.968 20.188 16.968s18.498-7.344 20.187-16.968z" fill="url(#h)" fill-rule="evenodd" stroke="#2e3436" stroke-width="1px"/>
  <path d="m88.247 24.999c-9.226 0-16.95 6.4498-18.969 15.063h37.938c-2.02-8.613-9.744-15.063-18.969-15.063zm-18.969 23.969c2.0192 8.613 9.743 15.031 18.969 15.031 9.225 0 16.949-6.418 18.969-15.031z" fill="none" stroke="url(#linearGradient1246)" stroke-width="1px"/>
 </g>
</svg>
