<?xml version="1.0" encoding="UTF-8"?>
<svg id="Flamingo" width="64" height="64" enable-background="new 0 0 1024 1024" image-rendering="optimizeSpeed" version="1.1" viewBox="0 0 64 64" xmlns="http://www.w3.org/2000/svg" xmlns:cc="http://creativecommons.org/ns#" xmlns:dc="http://purl.org/dc/elements/1.1/" xmlns:rdf="http://www.w3.org/1999/02/22-rdf-syntax-ns#" xmlns:xlink="http://www.w3.org/1999/xlink">
 <metadata>
  <rdf:RDF>
   <cc:Work rdf:about="">
    <dc:format>image/svg+xml</dc:format>
    <dc:type rdf:resource="http://purl.org/dc/dcmitype/StillImage"/>
   </cc:Work>
  </rdf:RDF>
 </metadata>
 <defs>
  <linearGradient id="b-5-7" x1="9.2603" x2="9.2603" y1="-.26249" y2="15.612" gradientTransform="matrix(3.7796 0 0 3.7796 48.974 24.509)" gradientUnits="userSpaceOnUse">
   <stop stop-color="#1c1d1d" offset="0"/>
   <stop stop-color="#313232" offset="1"/>
  </linearGradient>
  <filter id="e" x="-.063829" y="-.056605" width="1.1277" height="1.1132" color-interpolation-filters="sRGB">
   <feGaussianBlur stdDeviation="0.89623432"/>
  </filter>
  <linearGradient id="d" x1="32" x2="32" y1="13" y2="51" gradientTransform="translate(51.975 21.517)" gradientUnits="userSpaceOnUse">
   <stop stop-color="#fff" offset="0"/>
   <stop stop-color="#d7d7d7" offset="1"/>
  </linearGradient>
 </defs>
 <g transform="translate(-51.974 -21.517)">
  <circle cx="83.974" cy="53.517" r="30" fill="url(#b-5-7)" stroke-width="3.6397" style="paint-order:stroke markers fill"/>
  <path d="m83.898 34.517c-1.3507 0-2.2123 0.99172-2.2976 2.302v2.67c0.12116 1.1981 1.1443 2.154 2.3738 2.154a2.4232 2.4232 0 0 0 0.88851-0.15257 2.4277 2.4277 0 0 0 1.4808-2.0014v-2.5982a2.4142 2.4142 0 0 0-2.4456-2.3738zm-4.5996 5.5644a14.844 14.844 0 0 0-4.3079 2.4501 4.3977 4.3977 0 0 1 1.3373 1.4808c0.01346 0.01796-0.0091 0.05833 0 0.07629a4.2586 4.2586 0 0 1 0.37246 0.893c9e-3 0.02244 0 0.04937 0 0.0718a4.5458 4.5458 0 0 1 0.0763 1.9296c-0.0583 0.2872-0.18847 0.55644-0.29617 0.81671a4.2586 4.2586 0 0 1-3.9355 2.67 3.9265 3.9265 0 0 1-2.2258-0.66863c-0.09423 0.26924-0.23783 0.52952-0.29617 0.81671v0.07628c-0.08974 0.43977-0.1795 0.87954-0.22437 1.3328v0.07628c-0.04488 0.45772-0.0718 0.94236-0.0718 1.4091v0.14808c0 0.44426 0.03141 0.90646 0.0718 1.3373v0.14809c0.04937 0.4263 0.13462 0.84364 0.22437 1.261 0.08077 0.41284 0.1795 0.79428 0.29617 1.1892a5.9234 5.9234 0 0 1 2.5219-0.74491c0.86159-0.04488 1.6603 0.20642 2.302 0.67311a3.9444 3.9444 0 0 1 1.4091 1.8488 4.631 4.631 0 0 1 0.29617 1.7052c0 1.2071-0.98723 2.7912-1.7052 3.5675 0.29168 0.22437 0.57439 0.45772 0.88851 0.66414 0.37694 0.2513 0.71799 0.52952 1.1129 0.74491 0.56542 0.30514 1.1757 0.58336 1.7815 0.81671 0.11667 0.04488 0.24681 0.05385 0.37246 0.0718a2.513 2.513 0 0 1-0.0763-0.52054c0-1.8847 2.127-3.4104 4.7522-3.4104 2.6207 0 4.7477 1.5257 4.7477 3.4104 0 0.17052-0.0449 0.35899-0.0763 0.52054 0.71799-0.24681 1.4225-0.53849 2.0777-0.88851 0.50708-0.26924 0.94236-0.5699 1.4135-0.893 0.1436-0.09872 0.30514-0.18847 0.44426-0.29617 0.11218-0.08077 0.18847-0.20642 0.29617-0.29617a4.5906 4.5906 0 0 1-0.81671-0.81671 3.8951 3.8951 0 0 1-0.81671-1.7815 5.0932 5.0932 0 0 1-0.0718-0.88851c0-0.57888 0.13014-1.1443 0.29617-1.6334 4e-3 -0.02244-9e-3 -0.05385 0-0.07629a3.6797 3.6797 0 0 1 0.29617-0.66414c0.13462-0.22437 0.27822-0.40387 0.44874-0.59683 0.17501-0.20642 0.37694-0.3545 0.59234-0.51605a3.6348 3.6348 0 0 1 1.3328-0.67311 4.3573 4.3573 0 0 1 0.81671-0.1436c0.66863-0.04039 1.795 0.22886 2.67 0.74042 0.1077-0.37246 0.22437-0.72696 0.30066-1.1129 0.0853-0.41733 0.17052-0.83466 0.22437-1.261 0-0.04936-9e-3 -0.09873 0-0.14809a14.943 14.943 0 0 0 0-2.9707c-0.0494-0.44874-0.13462-0.893-0.22437-1.3328-9e-3 -0.02244 0-0.05386 0-0.07629-0.0673-0.31412-0.19296-0.59683-0.30066-0.88851a3.922 3.922 0 0 1-2.2258 0.66862 4.2316 4.2316 0 0 1-3.0425-1.261 4.5099 4.5099 0 0 1-0.51605-0.67311 4.2496 4.2496 0 0 1-0.22437-4.4515 4.2496 4.2496 0 0 1 0.52054-0.81222 4.5323 4.5323 0 0 1 0.74042-0.67312 14.18 14.18 0 0 0-4.2272-2.4456c0.0314 0.16604 0.0718 0.35002 0.0718 0.52054 0 1.8847-2.127 3.4104-4.7477 3.4104-1.6424 0-3.0784-0.57439-3.9355-1.4808a3.4104 3.4104 0 0 1-0.44427-0.59232 2.6251 2.6251 0 0 1-0.36797-1.3373c0-0.17052 0.0404-0.35899 0.0718-0.52054zm-10.317 1.6334a2.4726 2.4726 0 0 0-1.4808 1.1129 2.4232 2.4232 0 0 0 0.74042 3.3386l1.9296 1.1892 0.74042 0.44425a2.9168 2.9168 0 0 0 0.9648 0.22437 2.8405 2.8405 0 0 0 1.8578-0.74491 2.3335 2.3335 0 0 0 0.74043-1.7052 2.4771 2.4771 0 0 0-0.81671-1.8578l-0.88851-0.51606-2.0059-1.1892a2.3065 2.3065 0 0 0-1.7815-0.29617zm29.092 0a2.3155 2.3155 0 0 0-0.893 0.29617l-2.0014 1.1892-0.893 0.52054c-0.0269 0.01795-0.0449 0.04488-0.0718 0.0718a2.1091 2.1091 0 0 0-0.74491 1.7052 2.3335 2.3335 0 0 0 0.74491 1.7052 2.8361 2.8361 0 0 0 2.8181 0.59234l0.74043-0.43977 1.9296-1.1892a2.4232 2.4232 0 0 0 0.74491-3.3386 2.3559 2.3559 0 0 0-2.3783-1.1129zm-14.099 7.0497a4.75 4.75 0 1 1 0 9.4999c-1.3148 0-2.4815-0.55195-3.3386-1.4135-0.2154-0.21091-0.42631-0.41284-0.59683-0.66414a4.7836 4.7836 0 0 1-0.81671-2.6745c0-0.32758 0.0135-0.65516 0.0763-0.9648 0.44425-2.1629 2.3783-3.7829 4.6759-3.7829zm0 2.3783c-0.98723 0-1.795 0.62824-2.154 1.4808a2.2303 2.2303 0 0 0-0.22437 0.88851 2.3738 2.3738 0 1 0 2.3783-2.3738zm-12.098 7.9383c-0.55195 0.05833-0.70004 0.19745-0.9648 0.29617l-0.51605 0.29617-1.9296 1.1847a2.4232 2.4232 0 0 0-0.74491 3.3431 2.4456 2.4456 0 0 0 3.3386 0.81222l1.9296-1.1847 0.67311-0.44874a2.7553 2.7553 0 0 0 0.73594-1.1847 1.4853 1.4853 0 0 0 0.07629-0.44874 2.863 2.863 0 0 0-0.74042-1.8533 2.6027 2.6027 0 0 0-0.81671-0.66414 2.0642 2.0642 0 0 0-1.0411-0.14808zm24.268 0.14808a2.5309 2.5309 0 0 0-2.5264 2.5219c0 0.65068 0.18398 1.1219 0.59683 1.5571l0.74043 0.52054 1.9296 1.1847a2.4456 2.4456 0 0 0 3.3386-0.81222 2.4232 2.4232 0 0 0-0.74042-3.3431l-1.9296-1.1847c-0.17052-0.09873-0.33207-0.21091-0.52054-0.29617a2.7553 2.7553 0 0 0-0.88851-0.14808zm-12.17 6.1567a2.4456 2.4456 0 0 0-0.893 0.14808 3.0918 3.0918 0 0 0-0.81671 0.52054 2.1988 2.1988 0 0 0-0.81222 1.4808v2.6072c0 1.3103 1.0949 2.3738 2.4456 2.3738a2.4142 2.4142 0 0 0 2.4501-2.3783v-2.5937a2.4097 2.4097 0 0 0-2.3783-2.154z" filter="url(#e)" opacity=".75" stroke-width="3.7796"/>
  <path d="m83.899 34.517c-1.3507 0-2.2123 0.99172-2.2976 2.302v2.67c0.12116 1.1981 1.1443 2.154 2.3738 2.154a2.4232 2.4232 0 0 0 0.88851-0.15257 2.4277 2.4277 0 0 0 1.4808-2.0014v-2.5982a2.4142 2.4142 0 0 0-2.4456-2.3738zm-4.5996 5.5644a14.844 14.844 0 0 0-4.3079 2.4501 4.3977 4.3977 0 0 1 1.3373 1.4808c0.01346 0.01796-0.0091 0.05833 0 0.07629a4.2586 4.2586 0 0 1 0.37246 0.893c9e-3 0.02244 0 0.04937 0 0.0718a4.5458 4.5458 0 0 1 0.0763 1.9296c-0.0583 0.2872-0.18847 0.55644-0.29617 0.81671a4.2586 4.2586 0 0 1-3.9355 2.67 3.9265 3.9265 0 0 1-2.2258-0.66863c-0.09423 0.26924-0.23783 0.52952-0.29617 0.81671v0.07628c-0.08974 0.43977-0.1795 0.87954-0.22437 1.3328v0.07628c-0.04488 0.45772-0.0718 0.94236-0.0718 1.4091v0.14808c0 0.44426 0.03141 0.90646 0.0718 1.3373v0.14809c0.04937 0.4263 0.13462 0.84364 0.22437 1.261 0.08077 0.41284 0.1795 0.79428 0.29617 1.1892a5.9234 5.9234 0 0 1 2.5219-0.74491c0.86159-0.04488 1.6603 0.20642 2.302 0.67311a3.9444 3.9444 0 0 1 1.4091 1.8488 4.631 4.631 0 0 1 0.29617 1.7052c0 1.2071-0.98723 2.7912-1.7052 3.5675 0.29168 0.22437 0.57439 0.45772 0.88851 0.66414 0.37694 0.2513 0.71799 0.52952 1.1129 0.74491 0.56542 0.30514 1.1757 0.58336 1.7815 0.81671 0.11667 0.04488 0.24681 0.05385 0.37246 0.0718a2.513 2.513 0 0 1-0.0763-0.52054c0-1.8847 2.127-3.4104 4.7522-3.4104 2.6207 0 4.7477 1.5257 4.7477 3.4104 0 0.17052-0.0449 0.35899-0.0763 0.52054 0.71799-0.24681 1.4225-0.53849 2.0777-0.88851 0.50708-0.26924 0.94236-0.5699 1.4135-0.893 0.1436-0.09872 0.30514-0.18847 0.44426-0.29617 0.11218-0.08077 0.18847-0.20642 0.29617-0.29617a4.5906 4.5906 0 0 1-0.81671-0.81671 3.8951 3.8951 0 0 1-0.81671-1.7815 5.0932 5.0932 0 0 1-0.0718-0.88851c0-0.57888 0.13014-1.1443 0.29617-1.6334 4e-3 -0.02244-9e-3 -0.05385 0-0.07629a3.6797 3.6797 0 0 1 0.29617-0.66414c0.13462-0.22437 0.27822-0.40387 0.44874-0.59683 0.17501-0.20642 0.37694-0.3545 0.59234-0.51605a3.6348 3.6348 0 0 1 1.3328-0.67311 4.3573 4.3573 0 0 1 0.81671-0.1436c0.66863-0.04039 1.795 0.22886 2.67 0.74042 0.1077-0.37246 0.22437-0.72696 0.30066-1.1129 0.0853-0.41733 0.17052-0.83466 0.22437-1.261 0-0.04936-9e-3 -0.09873 0-0.14809a14.943 14.943 0 0 0 0-2.9707c-0.0494-0.44874-0.13462-0.893-0.22437-1.3328-9e-3 -0.02244 0-0.05386 0-0.07629-0.0673-0.31412-0.19296-0.59683-0.30066-0.88851a3.922 3.922 0 0 1-2.2258 0.66862 4.2316 4.2316 0 0 1-3.0425-1.261 4.5099 4.5099 0 0 1-0.51605-0.67311 4.2496 4.2496 0 0 1-0.22437-4.4515 4.2496 4.2496 0 0 1 0.52054-0.81222 4.5323 4.5323 0 0 1 0.74042-0.67312 14.18 14.18 0 0 0-4.2272-2.4456c0.0314 0.16604 0.0718 0.35002 0.0718 0.52054 0 1.8847-2.127 3.4104-4.7477 3.4104-1.6424 0-3.0784-0.57439-3.9355-1.4808a3.4104 3.4104 0 0 1-0.44427-0.59232 2.6251 2.6251 0 0 1-0.36797-1.3373c0-0.17052 0.0404-0.35899 0.0718-0.52054zm-10.317 1.6334a2.4726 2.4726 0 0 0-1.4808 1.1129 2.4232 2.4232 0 0 0 0.74042 3.3386l1.9296 1.1892 0.74042 0.44425a2.9168 2.9168 0 0 0 0.9648 0.22437 2.8405 2.8405 0 0 0 1.8578-0.74491 2.3335 2.3335 0 0 0 0.74043-1.7052 2.4771 2.4771 0 0 0-0.81671-1.8578l-0.88851-0.51606-2.0059-1.1892a2.3065 2.3065 0 0 0-1.7815-0.29617zm29.092 0a2.3155 2.3155 0 0 0-0.893 0.29617l-2.0014 1.1892-0.893 0.52054c-0.0269 0.01795-0.0449 0.04488-0.0718 0.0718a2.1091 2.1091 0 0 0-0.74491 1.7052 2.3335 2.3335 0 0 0 0.74491 1.7052 2.8361 2.8361 0 0 0 2.8181 0.59234l0.74043-0.43977 1.9296-1.1892a2.4232 2.4232 0 0 0 0.7449-3.3386 2.3559 2.3559 0 0 0-2.3783-1.1129zm-14.099 7.0497a4.75 4.75 0 1 1 0 9.4999c-1.3148 0-2.4815-0.55195-3.3386-1.4135-0.2154-0.21091-0.42631-0.41284-0.59683-0.66414a4.7836 4.7836 0 0 1-0.81671-2.6745c0-0.32758 0.0135-0.65516 0.0763-0.9648 0.44425-2.1629 2.3783-3.7829 4.6759-3.7829zm0 2.3783c-0.98723 0-1.795 0.62824-2.154 1.4808a2.2303 2.2303 0 0 0-0.22437 0.88851 2.3738 2.3738 0 1 0 2.3783-2.3738zm-12.098 7.9383c-0.55195 0.05833-0.70004 0.19745-0.9648 0.29617l-0.51605 0.29617-1.9296 1.1847a2.4232 2.4232 0 0 0-0.74491 3.3431 2.4456 2.4456 0 0 0 3.3386 0.81222l1.9296-1.1847 0.67311-0.44874a2.7553 2.7553 0 0 0 0.73594-1.1847 1.4853 1.4853 0 0 0 0.07629-0.44874 2.863 2.863 0 0 0-0.74042-1.8533 2.6027 2.6027 0 0 0-0.81671-0.66414 2.0642 2.0642 0 0 0-1.0411-0.14808zm24.268 0.14808a2.5309 2.5309 0 0 0-2.5264 2.5219c0 0.65068 0.18398 1.1219 0.59683 1.5571l0.74043 0.52054 1.9296 1.1847a2.4456 2.4456 0 0 0 3.3386-0.81222 2.4232 2.4232 0 0 0-0.74042-3.3431l-1.9296-1.1847c-0.17052-0.09873-0.33207-0.21091-0.52054-0.29617a2.7553 2.7553 0 0 0-0.88851-0.14808zm-12.17 6.1567a2.4456 2.4456 0 0 0-0.893 0.14808 3.0918 3.0918 0 0 0-0.81671 0.52054 2.1988 2.1988 0 0 0-0.81222 1.4808v2.6072c0 1.3103 1.0949 2.3738 2.4456 2.3738a2.4142 2.4142 0 0 0 2.4501-2.3783v-2.5937a2.4097 2.4097 0 0 0-2.3783-2.154z" fill="url(#d)" stroke-width="3.7796"/>
 </g>
</svg>
