<?xml version="1.0" encoding="UTF-8"?>
<svg width="64" height="64" version="1.1" viewBox="0 0 16.933 16.933" xmlns="http://www.w3.org/2000/svg" xmlns:cc="http://creativecommons.org/ns#" xmlns:dc="http://purl.org/dc/elements/1.1/" xmlns:rdf="http://www.w3.org/1999/02/22-rdf-syntax-ns#">
 <defs>
  <linearGradient id="linearGradient1005-8" x1=".73911" x2="16.388" y1="16.296" y2=".64687" gradientTransform="matrix(.99999 0 0 .99999 2.3654 4.155)" gradientUnits="userSpaceOnUse">
   <stop stop-color="#a0afb9" offset="0"/>
   <stop stop-color="#aabec3" offset="1"/>
  </linearGradient>
  <filter id="filter991" x="-.036" y="-.036" width="1.072" height="1.072" color-interpolation-filters="sRGB">
   <feGaussianBlur stdDeviation="0.18598837"/>
  </filter>
  <radialGradient id="radialGradient2496" cx="8.4665" cy="8.4665" r="6.1996" gradientTransform="matrix(1.0909 0 0 1.0909 1.6309 3.3787)" gradientUnits="userSpaceOnUse">
   <stop stop-color="#d4dde0" offset="0"/>
   <stop stop-color="#d5dde0" offset="1"/>
  </radialGradient>
  <linearGradient id="linearGradient2612" x1="8.578" x2="8.578" y1="11.815" y2="5.118" gradientTransform="matrix(.8961 0 0 .8961 3.2804 5.0281)" gradientUnits="userSpaceOnUse">
   <stop stop-color="#fe706e" offset="0"/>
   <stop stop-color="#ee3827" offset=".24336"/>
   <stop stop-color="#ff0a00" offset=".53124"/>
   <stop stop-color="#ff0a00" offset=".74336"/>
   <stop stop-color="#fd6030" offset="1"/>
  </linearGradient>
  <linearGradient id="linearGradient2632" x1="8.3388" x2="8.3388" y1="11.265" y2="5.6504" gradientTransform="matrix(1.0909 0 0 1.0909 1.6309 3.3787)" gradientUnits="userSpaceOnUse">
   <stop stop-color="#fafafa" offset="0"/>
   <stop stop-color="#870000" offset="1"/>
  </linearGradient>
 </defs>
 <metadata>
  <rdf:RDF>
   <cc:Work rdf:about="">
    <dc:format>image/svg+xml</dc:format>
    <dc:type rdf:resource="http://purl.org/dc/dcmitype/StillImage"/>
    <dc:title/>
   </cc:Work>
  </rdf:RDF>
 </metadata>
 <g transform="translate(-2.4001 -4.1483)">
  <path d="m18.804 12.615c0 0.95153-0.16749 1.8638-0.47464 2.7094-0.2135 0.58768-0.49438 1.1433-0.83392 1.6572-0.14222 0.21608-0.29514 0.42475-0.45746 0.62528-0.51965 0.64179-1.1372 1.2007-1.8305 1.6543-0.2553 0.16717-0.52064 0.3201-0.79536 0.45712-1.0668 0.53389-2.2711 0.8342-3.5456 0.8342-1.2745 0-2.4788-0.30032-3.5456-0.83423-0.27474-0.13705-0.5404-0.28997-0.7957-0.45712-0.70206-0.45972-1.327-1.0274-1.8509-1.6798-0.16262-0.20216-0.31523-0.41275-0.45746-0.63077-0.33046-0.50539-0.60421-1.0507-0.81349-1.627-0.30711-0.84528-0.4743-1.7573-0.4743-2.7084 0-4.3838 3.5537-7.9374 7.9374-7.9374 2.2005 0 4.1916 0.89547 5.6295 2.3417 0.41435 0.41661 0.78274 0.87928 1.0963 1.3795 0.29645 0.47107 0.54427 0.97581 0.73704 1.5068 0.30718 0.84558 0.47466 1.7579 0.47466 2.7094z" fill="url(#linearGradient1005-8)" stroke-width=".031006"/>
  <path transform="matrix(1.0982 0 0 1.0982 1.569 3.3167)" d="m14.666 8.4664c0 0.74321-0.13082 1.4558-0.37072 2.1162-0.16676 0.45902-0.38615 0.89298-0.65135 1.2944-0.11109 0.16877-0.23052 0.33176-0.3573 0.48839-0.40588 0.50128-0.88821 0.9378-1.4297 1.2921-0.1994 0.13057-0.40666 0.25002-0.62123 0.35704-0.83323 0.417-1.7739 0.65157-2.7693 0.65157-0.99548 0-1.9361-0.23457-2.7693-0.65158-0.21459-0.10705-0.42209-0.22648-0.62149-0.35704-0.54836-0.35908-1.0365-0.80246-1.4456-1.312-0.12702-0.1579-0.24622-0.32238-0.3573-0.49267-0.25811-0.39474-0.47192-0.82066-0.63539-1.2708-0.23987-0.66022-0.37046-1.3725-0.37046-2.1155 0-3.424 2.7756-6.1996 6.1996-6.1996 1.7187 0 3.2739 0.69942 4.397 1.829 0.32364 0.3254 0.61137 0.68678 0.85625 1.0775 0.23154 0.36794 0.42511 0.76217 0.57567 1.1769 0.23993 0.66046 0.37074 1.373 0.37074 2.1162z" filter="url(#filter991)" opacity=".5" stroke-width=".024218"/>
  <path d="m17.63 12.615c0 0.81078-0.14271 1.5882-0.40443 2.3086-0.18192 0.50076-0.42126 0.97417-0.71057 1.4121-0.12119 0.18412-0.25148 0.36192-0.38978 0.5328-0.44278 0.54686-0.96897 1.0231-1.5597 1.4096-0.21753 0.14244-0.44363 0.27275-0.67771 0.3895-0.90899 0.45491-1.9352 0.71081-3.0211 0.71081-1.086 0-2.1121-0.2559-3.0211-0.71082-0.2341-0.11678-0.46047-0.24707-0.678-0.3895-0.59822-0.39173-1.1307-0.87542-1.577-1.4313-0.13857-0.17226-0.26861-0.35169-0.38979-0.53746-0.28158-0.43063-0.51483-0.89528-0.69316-1.3863-0.26168-0.72025-0.40414-1.4973-0.40414-2.3078 0-3.7353 3.028-6.7633 6.7633-6.7633 1.875 0 3.5716 0.76301 4.7968 1.9953 0.35306 0.35499 0.66696 0.74922 0.9341 1.1755 0.25259 0.40139 0.46376 0.83147 0.62801 1.2839 0.26175 0.72051 0.40445 1.4978 0.40445 2.3086z" fill="url(#radialGradient2496)" stroke-width=".02642"/>
  <g fill="none" stroke="#fafafa">
   <path d="m15.826 12.615c0 0.59436-0.10462 1.1642-0.29647 1.6923-0.13336 0.36707-0.30881 0.71412-0.52088 1.0351-0.08883 0.13497-0.18434 0.2653-0.28574 0.39056-0.32459 0.40087-0.7103 0.74996-1.1433 1.0333-0.15947 0.10442-0.3252 0.19993-0.4968 0.28553-0.66634 0.33347-1.4186 0.52106-2.2146 0.52106-0.79609 0-1.5482-0.18758-2.2146-0.52108-0.1716-0.085605-0.33754-0.18111-0.497-0.28553-0.43852-0.28715-0.82887-0.64172-1.156-1.0492-0.10158-0.12626-0.1969-0.25781-0.28573-0.39399-0.20641-0.31568-0.3774-0.65628-0.50812-1.0162-0.19183-0.52798-0.29625-1.0977-0.29625-1.6917 0-2.7382 2.2197-4.9578 4.9578-4.9578 1.3745 0 2.6181 0.55934 3.5163 1.4626 0.25881 0.26023 0.48891 0.54921 0.68475 0.86164 0.18517 0.29423 0.33996 0.60951 0.46037 0.94118 0.19187 0.52817 0.29648 1.098 0.29648 1.6923z" stroke-width=".011964"/>
   <path d="m15.61 12.615c0 0.56858-0.10008 1.1137-0.28362 1.6189-0.12757 0.35116-0.29541 0.68315-0.49829 0.99025-0.08498 0.12911-0.17635 0.2538-0.27334 0.37363-0.31051 0.38349-0.6795 0.71743-1.0938 0.98853-0.15256 0.09989-0.3111 0.19127-0.47525 0.27314-0.63745 0.31902-1.3571 0.49846-2.1186 0.49846-0.76157 0-1.4811-0.17944-2.1186-0.49848-0.16416-0.081893-0.32291-0.17326-0.47546-0.27314-0.4195-0.2747-0.79293-0.61389-1.106-1.0037-0.097174-0.12079-0.18836-0.24662-0.27334-0.3769-0.19747-0.30199-0.36104-0.62782-0.48608-0.97218-0.1835-0.50509-0.28341-1.05-0.28341-1.6184 0-2.6194 2.1235-4.7429 4.7429-4.7429 1.3149 0 2.5046 0.53508 3.3637 1.3992 0.24758 0.24894 0.46771 0.5254 0.65506 0.82428 0.17714 0.28148 0.32523 0.58308 0.4404 0.90036 0.18355 0.50527 0.28362 1.0504 0.28362 1.6189z" stroke-width=".011445"/>
   <path d="m17.467 12.615c0 0.79117-0.13927 1.5498-0.39464 2.2528-0.17751 0.48862-0.41107 0.9506-0.69337 1.3779-0.11826 0.17966-0.24539 0.35316-0.38036 0.51989-0.43207 0.53361-0.94551 0.9983-1.5219 1.3755-0.21227 0.139-0.43289 0.26614-0.6613 0.38008-0.887 0.44391-1.8884 0.69361-2.948 0.69361-1.0597 0-2.061-0.2497-2.948-0.69363-0.22843-0.11396-0.44933-0.24109-0.66159-0.38008-0.58373-0.38225-1.1034-0.85422-1.5389-1.3967-0.13522-0.16808-0.2621-0.34318-0.38035-0.52445-0.27477-0.42021-0.50238-0.87361-0.67638-1.3527-0.25535-0.70282-0.39436-1.4611-0.39436-2.2519 0-3.6449 2.9548-6.5996 6.5996-6.5996 1.8296 0 3.4852 0.74455 4.6807 1.947 0.34451 0.34639 0.65081 0.73108 0.91151 1.147 0.24648 0.39167 0.45254 0.81134 0.61281 1.2528 0.25541 0.70307 0.39465 1.4616 0.39465 2.2528z" stroke-width=".015925"/>
   <path d="m14.673 12.615c0 0.45611-0.08029 0.89342-0.22751 1.2987-0.10234 0.2817-0.23698 0.54802-0.39972 0.79438-0.06817 0.10357-0.14147 0.2036-0.21928 0.29972-0.24909 0.30763-0.54509 0.57553-0.87738 0.79299-0.12238 0.08014-0.24956 0.15344-0.38124 0.21912-0.51136 0.25591-1.0886 0.39987-1.6995 0.39987-0.61093 0-1.1881-0.14396-1.6995-0.39989-0.1317-0.065695-0.25904-0.13899-0.38141-0.21912-0.33653-0.22037-0.63608-0.49246-0.88717-0.80521-0.077953-0.096899-0.1511-0.19785-0.21928-0.30235-0.1584-0.24225-0.28962-0.50364-0.38994-0.77988-0.14721-0.40518-0.22735-0.84233-0.22735-1.2982 0-2.1013 1.7034-3.8047 3.8047-3.8047 1.0548 0 2.0092 0.42923 2.6984 1.1224 0.19861 0.19969 0.37519 0.42148 0.52549 0.66124 0.1421 0.2258 0.26089 0.46774 0.3533 0.72227 0.14724 0.40532 0.22752 0.84262 0.22752 1.2987z" stroke-width=".0091812"/>
   <path d="m17.207 12.615c0 0.76003-0.13378 1.4887-0.37912 2.1641-0.17053 0.4694-0.39489 0.91318-0.66608 1.3237-0.1136 0.1726-0.23574 0.33926-0.36538 0.49943-0.41507 0.51261-0.9083 0.95902-1.4621 1.3214-0.20392 0.13353-0.41586 0.25567-0.63529 0.36512-0.85209 0.42644-1.814 0.66631-2.8319 0.66631-1.018 0-1.9799-0.23987-2.8319-0.66634-0.21944-0.10947-0.43164-0.2316-0.63555-0.36512-0.56076-0.3672-1.0599-0.8206-1.4783-1.3417-0.1299-0.16147-0.25178-0.32968-0.36538-0.50382-0.26395-0.40367-0.4826-0.83922-0.64976-1.2995-0.24529-0.67516-0.37883-1.4036-0.37883-2.1633 0-3.5014 2.8385-6.3399 6.3399-6.3399 1.7576 0 3.3479 0.71525 4.4965 1.8704 0.33095 0.33276 0.6252 0.70231 0.87563 1.1018 0.23678 0.37626 0.43473 0.77941 0.5887 1.2035 0.24536 0.6754 0.37913 1.404 0.37913 2.1641z" stroke-width=".015299"/>
   <path d="m16.92 12.615c0 0.72556-0.12771 1.4213-0.36192 2.066-0.1628 0.44811-0.37698 0.87177-0.63588 1.2636-0.10845 0.16476-0.22505 0.32387-0.34881 0.47679-0.39624 0.48937-0.86711 0.91552-1.3957 1.2614-0.19468 0.12747-0.397 0.24407-0.60648 0.34856-0.81345 0.4071-1.7317 0.63609-2.7035 0.63609-0.97184 0-1.8901-0.229-2.7035-0.63612-0.20949-0.1045-0.41206-0.22111-0.60673-0.34856-0.53533-0.35054-1.0119-0.78339-1.4113-1.2809-0.124-0.15415-0.24036-0.31472-0.34881-0.48096-0.25198-0.38537-0.46072-0.80116-0.6203-1.2406-0.23418-0.64454-0.36165-1.34-0.36165-2.0652 0-3.3427 2.7097-6.0523 6.0523-6.0523 1.6779 0 3.1962 0.68282 4.2926 1.7855 0.31595 0.31768 0.59684 0.67046 0.83592 1.0519 0.22605 0.3592 0.41501 0.74406 0.562 1.149 0.23423 0.64477 0.36194 1.3404 0.36194 2.066z" stroke-width=".014605"/>
   <path d="m15.063 12.615c0 0.50297-0.08854 0.9852-0.25089 1.4322-0.11286 0.31064-0.26133 0.60433-0.4408 0.87599-0.07517 0.11422-0.156 0.22451-0.2418 0.33052-0.27468 0.33923-0.6011 0.63465-0.96753 0.87446-0.13495 0.08836-0.27521 0.1692-0.42042 0.24163-0.5639 0.28221-1.2004 0.44095-1.8741 0.44095-0.6737 0-1.3102-0.15874-1.8741-0.44096-0.14522-0.072445-0.28565-0.15327-0.42059-0.24163-0.3711-0.243-0.70144-0.54306-0.97832-0.88793-0.085961-0.10686-0.16663-0.21817-0.2418-0.33342-0.17468-0.26714-0.31938-0.55538-0.43-0.86-0.16233-0.44681-0.2507-0.92888-0.2507-1.4316 0-2.3172 1.8785-4.1956 4.1956-4.1956 1.1631 0 2.2157 0.47334 2.9757 1.2378 0.21902 0.22021 0.41374 0.46478 0.57948 0.72917 0.1567 0.249 0.2877 0.5158 0.38959 0.79647 0.16237 0.44696 0.2509 0.92918 0.2509 1.4322z" stroke-width=".010124"/>
   <path d="m15.513 12.615c0 0.55686-0.09802 1.0908-0.27777 1.5857-0.12494 0.34392-0.28932 0.66907-0.48802 0.96985-0.08322 0.12646-0.17272 0.24858-0.26771 0.36593-0.30412 0.37558-0.6655 0.70265-1.0712 0.96815-0.14941 0.09783-0.30469 0.18732-0.46546 0.26752-0.62431 0.31244-1.3291 0.4882-2.0749 0.4882-0.74587 0-1.4506-0.17575-2.0749-0.48821-0.16078-0.080206-0.31626-0.16969-0.46566-0.26752-0.41086-0.26904-0.77659-0.60125-1.0831-0.98307-0.095172-0.1183-0.18447-0.24155-0.26771-0.36914-0.1934-0.29577-0.3536-0.61489-0.47607-0.95213-0.17973-0.49468-0.27756-1.0284-0.27756-1.585 0-2.5654 2.0796-4.6451 4.6451-4.6451 1.2877 0 2.453 0.52406 3.2945 1.3704 0.24249 0.24381 0.45808 0.51458 0.64156 0.8073 0.17349 0.27568 0.31852 0.57106 0.43133 0.88181 0.17977 0.49485 0.27778 1.0287 0.27778 1.5857z" stroke-width=".011209"/>
   <path d="m16.061 12.615c0 0.62247-0.10957 1.2193-0.3105 1.7724-0.13967 0.38444-0.32341 0.7479-0.54552 1.0841-0.09303 0.14135-0.19307 0.27786-0.29925 0.40904-0.33994 0.41983-0.7439 0.78543-1.1974 1.0822-0.16701 0.10936-0.34059 0.20939-0.5203 0.29903-0.69786 0.34925-1.4857 0.54571-2.3194 0.54571-0.83375 0-1.6215-0.19645-2.3194-0.54573-0.17972-0.089655-0.35351-0.18969-0.52052-0.29903-0.45927-0.30074-0.86808-0.67208-1.2107-1.0989-0.10638-0.13224-0.20622-0.27-0.29925-0.41263-0.21618-0.33062-0.39525-0.68732-0.53216-1.0643-0.2009-0.55296-0.31027-1.1496-0.31027-1.7718 0-2.8677 2.3246-5.1923 5.1924-5.1923 1.4395 0 2.742 0.58579 3.6826 1.5319 0.27105 0.27253 0.51204 0.5752 0.71715 0.90241 0.19393 0.30815 0.35604 0.63834 0.48214 0.9857 0.20095 0.55315 0.31051 1.1499 0.31051 1.7724z" stroke-width=".01253"/>
   <path d="m14.868 12.615c0 0.47955-0.0844 0.9393-0.23921 1.3654-0.1076 0.29616-0.24916 0.57617-0.42027 0.83519-0.07167 0.1089-0.14874 0.21406-0.23054 0.31511-0.26189 0.32344-0.57309 0.60509-0.92245 0.83373-0.12866 0.08425-0.26239 0.16132-0.40083 0.23037-0.53763 0.26906-1.1446 0.42041-1.7868 0.42041-0.64231 0-1.2492-0.15135-1.7868-0.42042-0.13846-0.069069-0.27235-0.14613-0.401-0.23037-0.35381-0.23169-0.66876-0.51776-0.93275-0.84657-0.081957-0.10188-0.15886-0.20801-0.23054-0.31788-0.16654-0.2547-0.3045-0.52951-0.40997-0.81994-0.15477-0.42599-0.23903-0.88561-0.23903-1.365 0-2.2092 1.791-4.0002 4.0002-4.0002 1.1089 0 2.1125 0.45129 2.8371 1.18 0.20882 0.20996 0.39447 0.44312 0.55248 0.6952 0.1494 0.2374 0.27429 0.49178 0.37144 0.75937 0.15481 0.42615 0.23921 0.88589 0.23921 1.3654z" stroke-width=".0096529"/>
   <path d="m16.75 12.615c0 0.70524-0.12414 1.3814-0.35178 2.0081-0.15824 0.43556-0.36642 0.84735-0.61806 1.2283-0.1054 0.16015-0.21874 0.31481-0.33905 0.46343-0.38514 0.47566-0.84282 0.88988-1.3567 1.2261-0.18921 0.1239-0.38588 0.23724-0.58948 0.3388-0.79066 0.39569-1.6832 0.61827-2.6278 0.61827-0.94463 0-1.8372-0.22258-2.6278-0.61829-0.20362-0.10158-0.40052-0.21491-0.58973-0.3388-0.52034-0.34073-0.98351-0.76145-1.3717-1.245-0.12052-0.14983-0.23363-0.30592-0.33905-0.4675-0.24492-0.37457-0.44781-0.77872-0.60292-1.2059-0.22761-0.62648-0.35153-1.3024-0.35153-2.0074 0-3.2491 2.6338-5.8829 5.8829-5.8829 1.6309 0 3.1066 0.66368 4.1723 1.7355 0.30711 0.30877 0.58013 0.65168 0.81251 1.0224 0.21971 0.34914 0.40339 0.72323 0.54626 1.1168 0.22766 0.62671 0.3518 1.3029 0.3518 2.0081z" stroke-width=".014196"/>
   <path d="m15.294 12.615c0 0.53068-0.09341 1.0395-0.26471 1.511-0.11907 0.32776-0.27572 0.63762-0.46508 0.92423-0.07932 0.12051-0.1646 0.23688-0.25512 0.34872-0.28981 0.35793-0.63422 0.66962-1.0208 0.92258-0.14239 0.09323-0.29037 0.17852-0.44358 0.25494-0.59496 0.29776-1.2667 0.46523-1.9774 0.46523-0.71081 0-1.3825-0.16749-1.9774-0.46526-0.15322-0.076435-0.30139-0.16172-0.44376-0.25494-0.39154-0.25639-0.74007-0.57298-1.0323-0.93681-0.090696-0.11275-0.17581-0.2302-0.25512-0.35178-0.1843-0.28186-0.33697-0.58598-0.45368-0.90737-0.17127-0.47142-0.26453-0.98006-0.26453-1.5105 0-2.4449 1.9819-4.4267 4.4267-4.4267 1.2273 0 2.3377 0.49941 3.1396 1.3059 0.23109 0.23234 0.43654 0.49038 0.6114 0.76934 0.16533 0.26273 0.30355 0.54422 0.41105 0.84036 0.17132 0.47158 0.26472 0.98039 0.26472 1.511z" stroke-width=".01066"/>
   <path d="m16.427 12.615c0 0.66658-0.11733 1.3056-0.33249 1.898-0.14956 0.41168-0.34632 0.8009-0.58419 1.161-0.09963 0.15137-0.20675 0.29755-0.32046 0.43803-0.36403 0.44959-0.79662 0.8411-1.2823 1.1589-0.17885 0.11711-0.36472 0.22424-0.55717 0.32022-0.74731 0.374-1.591 0.58438-2.4838 0.58438-0.89283 0-1.7364-0.21038-2.4838-0.5844-0.19246-0.096008-0.37856-0.20313-0.55741-0.32022-0.49181-0.32205-0.9296-0.71972-1.2966-1.1768-0.11392-0.14161-0.22082-0.28914-0.32046-0.44187-0.23149-0.35404-0.42327-0.73604-0.56986-1.1398-0.21513-0.59214-0.33226-1.231-0.33226-1.8973 0-3.0709 2.4895-5.5604 5.5604-5.5604 1.5415 0 2.9363 0.6273 3.9436 1.6404 0.29026 0.29184 0.54833 0.61596 0.76796 0.96635 0.20767 0.32999 0.38128 0.68358 0.51631 1.0555 0.21518 0.59235 0.33251 1.2314 0.33251 1.898z" stroke-width=".013417"/>
   <path d="m16.291 12.615c0 0.65017-0.11444 1.2735-0.32431 1.8513-0.14589 0.40156-0.3378 0.7812-0.56981 1.1324-0.09718 0.14765-0.20167 0.29023-0.31257 0.42725-0.35507 0.43853-0.77702 0.82041-1.2507 1.1303-0.17444 0.11423-0.35575 0.21872-0.54345 0.31234-0.72892 0.36479-1.5518 0.57001-2.4227 0.57001-0.87087 0-1.6938-0.2052-2.4227-0.57002-0.18773-0.093645-0.36924-0.19813-0.54369-0.31234-0.47971-0.31413-0.90672-0.70201-1.2647-1.1478-0.11112-0.13813-0.21539-0.28202-0.31257-0.431-0.2258-0.34533-0.41285-0.71792-0.55585-1.1118-0.20984-0.57757-0.32408-1.2007-0.32408-1.8506 0-2.9953 2.4282-5.4235 5.4235-5.4235 1.5036 0 2.8641 0.61187 3.8466 1.6001 0.28313 0.28466 0.53483 0.6008 0.74907 0.94258 0.20256 0.32188 0.3719 0.66676 0.50361 1.0296 0.20989 0.57777 0.32433 1.2012 0.32433 1.8513z" stroke-width=".013088"/>
   <path d="m16.34 12.615c0 0.65602-0.11547 1.285-0.32723 1.868-0.1472 0.40517-0.34085 0.78823-0.57494 1.1425-0.09806 0.14898-0.20348 0.29285-0.31538 0.4311-0.35827 0.44248-0.78402 0.82779-1.262 1.1406-0.17601 0.11526-0.35896 0.22069-0.54835 0.31516-0.73549 0.36809-1.5658 0.57514-2.4445 0.57514-0.87872 0-1.709-0.20706-2.4445-0.57516-0.18942-0.094489-0.37257-0.19992-0.54859-0.31516-0.48403-0.31696-0.91489-0.70832-1.2761-1.1581-0.11212-0.13938-0.21733-0.28457-0.31539-0.43488-0.22784-0.34844-0.41657-0.72439-0.56085-1.1217-0.21174-0.58277-0.327-1.2116-0.327-1.8673 0-3.0224 2.4501-5.4724 5.4724-5.4724 1.5171 0 2.89 0.61737 3.8812 1.6145 0.28568 0.28723 0.53966 0.60621 0.75581 0.95107 0.20438 0.32478 0.37524 0.67276 0.50815 1.0388 0.21178 0.58299 0.32726 1.212 0.32726 1.868z" stroke-width=".013206"/>
  </g>
  <path d="m14.449 12.615c0 0.42943-0.07559 0.84117-0.2142 1.2228-0.09635 0.26522-0.22312 0.51597-0.37636 0.74791-0.06419 0.09751-0.1332 0.1917-0.20646 0.2822-0.23453 0.28964-0.51321 0.54187-0.8261 0.74658-0.11522 0.07545-0.23496 0.14446-0.35894 0.2063-0.48145 0.24094-1.025 0.37648-1.6002 0.37648-0.57521 0-1.1187-0.13554-1.6002-0.37649-0.12399-0.061852-0.24389-0.13087-0.3591-0.2063-0.31685-0.20747-0.59888-0.46366-0.83531-0.7581-0.073393-0.091235-0.14227-0.18628-0.20646-0.28466-0.14914-0.22809-0.27269-0.47418-0.36714-0.73428-0.1386-0.38148-0.21405-0.79306-0.21405-1.2224 0-1.9784 1.6038-3.5823 3.5823-3.5823 0.9931 0 1.8918 0.40413 2.5406 1.0568 0.18701 0.18802 0.35325 0.39682 0.49476 0.62257 0.13379 0.2126 0.24563 0.44038 0.33263 0.68002 0.13864 0.38162 0.21421 0.79336 0.21421 1.2228z" fill="#870000" stroke-width=".013993"/>
  <path d="m13.922 12.615c0 0.36623-0.06446 0.71737-0.18268 1.0428-0.08218 0.22619-0.19028 0.44003-0.32097 0.63784-0.05474 0.08317-0.1136 0.16349-0.17608 0.24067-0.20001 0.24702-0.43769 0.46212-0.70452 0.6367-0.09826 0.06434-0.20039 0.1232-0.30612 0.17594-0.41059 0.20549-0.87411 0.32108-1.3646 0.32108s-0.95405-0.11559-1.3646-0.32108c-0.10574-0.05275-0.208-0.1116-0.30625-0.17594-0.27021-0.17695-0.51075-0.39543-0.71237-0.64653-0.062592-0.077808-0.12133-0.15886-0.17606-0.24277-0.12719-0.19452-0.23255-0.40439-0.31311-0.62621-0.1182-0.32534-0.18255-0.67635-0.18255-1.0424 0-1.6872 1.3678-3.055 3.055-3.055 0.84695 0 1.6134 0.34465 2.1667 0.90128 0.15948 0.16034 0.30127 0.33843 0.42194 0.53094 0.1141 0.18131 0.20948 0.37557 0.28367 0.57994 0.11823 0.32545 0.18268 0.6766 0.18268 1.0428z" fill="url(#linearGradient2612)" stroke="url(#linearGradient2632)" stroke-width=".028864"/>
 </g>
</svg>
