<?xml version="1.0" encoding="UTF-8" standalone="no"?>
<svg
   xmlns:dc="http://purl.org/dc/elements/1.1/"
   xmlns:cc="http://creativecommons.org/ns#"
   xmlns:rdf="http://www.w3.org/1999/02/22-rdf-syntax-ns#"
   xmlns:svg="http://www.w3.org/2000/svg"
   xmlns="http://www.w3.org/2000/svg"
   xmlns:xlink="http://www.w3.org/1999/xlink"
   xmlns:sodipodi="http://sodipodi.sourceforge.net/DTD/sodipodi-0.dtd"
   xmlns:inkscape="http://www.inkscape.org/namespaces/inkscape"
   width="64"
   height="64"
   version="1.1"
   viewBox="0 0 16.933 16.933"
   id="svg39"
   sodipodi:docname="goa-account-google.svg"
   inkscape:version="1.0.1 (3bc2e813f5, 2020-09-07)">
  <metadata
     id="metadata43">
    <rdf:RDF>
      <cc:Work
         rdf:about="">
        <dc:format>image/svg+xml</dc:format>
        <dc:type
           rdf:resource="http://purl.org/dc/dcmitype/StillImage" />
        <dc:title></dc:title>
      </cc:Work>
    </rdf:RDF>
  </metadata>
  <sodipodi:namedview
     pagecolor="#ffffff"
     bordercolor="#666666"
     borderopacity="1"
     objecttolerance="10"
     gridtolerance="10"
     guidetolerance="10"
     inkscape:pageopacity="0"
     inkscape:pageshadow="2"
     inkscape:window-width="1920"
     inkscape:window-height="942"
     id="namedview41"
     showgrid="false"
     inkscape:zoom="2.1406553"
     inkscape:cx="-29.203659"
     inkscape:cy="29.833918"
     inkscape:window-x="0"
     inkscape:window-y="38"
     inkscape:window-maximized="1"
     inkscape:current-layer="svg39" />
  <defs
     id="defs13">
    <linearGradient
       inkscape:collect="always"
       id="linearGradient1871">
      <stop
         style="stop-color:#f5f5f5;stop-opacity:1"
         offset="0"
         id="stop1867" />
      <stop
         style="stop-color:#e1e9ed;stop-opacity:1"
         offset="1"
         id="stop1869" />
    </linearGradient>
    <linearGradient
       id="a"
       x1="8.3931"
       x2="8.4385"
       y1="1.7188"
       y2="13.844"
       gradientUnits="userSpaceOnUse"
       gradientTransform="translate(19.557386,-12.570581)">
      <stop
         stop-color="#f9f9f9"
         offset="0"
         id="stop2" />
      <stop
         stop-color="#fff"
         offset="1"
         id="stop4" />
    </linearGradient>
    <filter
       id="c"
       x="-.036"
       y="-.036"
       width="1.072"
       height="1.072"
       color-interpolation-filters="sRGB">
      <feGaussianBlur
         stdDeviation="0.23812031"
         id="feGaussianBlur7" />
    </filter>
    <filter
       id="b"
       x="-.059997"
       y="-.060003"
       width="1.12"
       height="1.12"
       color-interpolation-filters="sRGB">
      <feGaussianBlur
         stdDeviation="0.18521029"
         id="feGaussianBlur10" />
    </filter>
    <linearGradient
       id="linearGradient1343"
       x1="32"
       x2="32"
       y1="2"
       y2="62"
       gradientTransform="translate(0.25274,0.81329)"
       gradientUnits="userSpaceOnUse">
      <stop
         stop-color="#f5f6fa"
         offset="0"
         id="stop884" />
      <stop
         stop-color="#e9ecf3"
         offset=".45933"
         id="stop886" />
      <stop
         stop-color="#dee2ee"
         offset="1"
         id="stop888" />
    </linearGradient>
    <clipPath
       id="clipPath13429">
      <path
         d="m481 318h22v22h-22z"
         id="path891" />
    </clipPath>
    <clipPath
       id="clipPath13465">
      <path
         d="m507 318h22v22h-22z"
         id="path894" />
    </clipPath>
    <clipPath
       id="clipPath13501">
      <path
         d="m530 318h22v22h-22z"
         id="path897" />
    </clipPath>
    <clipPath
       id="clipPath13753">
      <path
         d="m672 1064c0-1.105 4.925-2 11-2s11 0.895 11 2-4.925 2-11 2-11-0.895-11-2"
         id="path900" />
    </clipPath>
    <clipPath
       id="clipPath13771">
      <path
         d="m660 1057h51v65.001h-51z"
         id="path903" />
    </clipPath>
    <clipPath
       id="clipPath14035">
      <path
         d="m659 517h53v18h-53z"
         id="path906" />
    </clipPath>
    <clipPath
       id="clipPath14127">
      <path
         d="m659 500h53v18h-53z"
         id="path909" />
    </clipPath>
    <clipPath
       id="clipPath14445">
      <path
         d="m648 112h73v60h-73z"
         id="path912" />
    </clipPath>
    <clipPath
       id="clipPath14609">
      <path
         d="m826 1056h59v60h-59z"
         id="path915" />
    </clipPath>
    <clipPath
       id="clipPath15305">
      <path
         d="m805 276h100v100h-100z"
         id="path918" />
    </clipPath>
    <clipPath
       id="clipPath15341">
      <path
         d="m145 1063.8h74.152v45.21h-74.152z"
         id="path921" />
    </clipPath>
    <clipPath
       id="clipPath15715">
      <path
         d="m151 667h57v57h-57z"
         id="path924" />
    </clipPath>
    <clipPath
       id="clipPath15807">
      <path
         d="m154 697h51v51h-51z"
         id="path927" />
    </clipPath>
    <clipPath
       id="clipPath16001">
      <path
         d="m500.04 864.45h36.012v67.52h-36.012z"
         id="path930" />
    </clipPath>
    <clipPath
       id="clipPath16093">
      <path
         d="m836 870.54h47v55.539h-47z"
         id="path933" />
    </clipPath>
    <clipPath
       id="clipPath16477">
      <path
         d="m318.03 702.35h62.848v37.991h-62.848z"
         id="path936" />
    </clipPath>
    <clipPath
       id="clipPath16579">
      <path
         d="m485.03 133.35h62.847v37.991h-62.847z"
         id="path939" />
    </clipPath>
    <clipPath
       id="clipPath16709">
      <path
         d="m493.37 677.93h45.643v68.067h-45.643z"
         id="path942" />
    </clipPath>
    <clipPath
       id="clipPath24218">
      <path
         d="m144.34 1018.2h71.467v78h-71.467z"
         id="path945" />
    </clipPath>
    <clipPath
       id="clipPath24382">
      <path
         d="m293.21 1068.6 66.323-38.292 36.047 62.435-66.323 38.292z"
         id="path948" />
    </clipPath>
    <clipPath
       id="clipPath24650">
      <path
         d="m488.86 1054.5h10v10.706h-10z"
         id="path951" />
    </clipPath>
    <clipPath
       id="clipPath24700">
      <path
         d="m508 1066.8h10.001v10.705h-10.001z"
         id="path954" />
    </clipPath>
    <clipPath
       id="clipPath24750">
      <path
         d="m525 1045.8h10v10.706h-10z"
         id="path957" />
    </clipPath>
    <clipPath
       id="clipPath24864">
      <path
         d="m836 1043.7h25.5v31.5h-25.5z"
         id="path960" />
    </clipPath>
    <clipPath
       id="clipPath24896">
      <path
         d="m838 1062.2h24v24h-24z"
         id="path963" />
    </clipPath>
    <clipPath
       id="clipPath25070">
      <path
         d="m134 489.24h7v6h-7z"
         id="path966" />
    </clipPath>
    <clipPath
       id="clipPath25100">
      <path
         d="m216 489.24h7v6h-7z"
         id="path969" />
    </clipPath>
    <clipPath
       id="clipPath25502">
      <path
         d="m838 477.24h22v22h-22z"
         id="path972" />
    </clipPath>
    <clipPath
       id="clipPath25686">
      <path
         d="m704 1061.2h25v25h-25z"
         id="path975" />
    </clipPath>
    <clipPath
       id="clipPath25788">
      <path
         d="m663.04 1078.6-1.808-3.514-21.07-47.453c13.336-18.439 48.336-26.938 73.836-3.439 0.842 0 6.476 6.246 6 7l-18.386 25.895c-0.483 0.765-1.453 0.946-2.177 0.431l-15.505-11.011c-0.359-0.255-0.847-0.153-1.07 0.238l-18.272 31.869c-0.218 0.384-0.502 0.578-0.782 0.578-0.282 0-0.561-0.197-0.766-0.594"
         id="path978" />
    </clipPath>
    <clipPath
       id="clipPath26420">
      <path
         d="m127 820.24h100v100h-100z"
         id="path981" />
    </clipPath>
    <clipPath
       id="clipPath26860">
      <path
         d="m809 680.24c0-22.092 17.908-40 40-40s40 17.908 40 40c0 22.091-17.908 40-40 40s-40-17.909-40-40"
         id="path984" />
    </clipPath>
    <clipPath
       id="clipPath27506">
      <path
         d="m658 469.24h44v45h-44z"
         id="path987" />
    </clipPath>
    <clipPath
       id="clipPath27772">
      <path
         d="m651 271.24h58v58h-58z"
         id="path990" />
    </clipPath>
    <clipPath
       id="clipPath27864">
      <path
         d="m662 307.24h38v8h-38z"
         id="path993" />
    </clipPath>
    <clipPath
       id="clipPath28028">
      <path
         d="m858.98 137.24c0.013-0.101 0.021-0.203 0.021-0.307v-6.693h15.75c1.237 0 2.25-1.013 2.25-2.25v-11.25l-27-4.5-27 4.5v-2.25l27-4.5 27 4.5v-27c0-1.237-1.013-2.25-2.25-2.25h-49.5c-1.237 0-2.25 1.013-2.25 2.25v-4.25h54v54zm-35.979 0v-9.25c0 1.237 1.013 2.25 2.25 2.25h15.75v6.693c0 0.104 7e-3 0.207 0.02 0.307zm22.5-7h9v4.5h-9zm1.125-9c-0.62 0-1.125-0.506-1.125-1.125v-2.25c0-0.619 0.505-1.125 1.125-1.125h6.75c0.619 0 1.125 0.506 1.125 1.125v2.25c0 0.619-0.506 1.125-1.125 1.125z"
         id="path996" />
    </clipPath>
    <clipPath
       id="clipPath28200">
      <path
         d="m531.27 136.24c6.325-2.29 10.727-8.277 10.727-15.484 0-11.316-10.2-20.563-25.65-34.575l-4.35-3.941-4.35 3.941c-15.45 14.012-25.65 23.259-25.65 34.575v-39.516h60v55zm-26.983 0c2.995-1.052 5.686-2.883 7.71-5.25 2.024 2.367 4.715 4.198 7.71 5.25zm-22.29 0v-15.484c0 7.207 4.402 13.194 10.727 15.484z"
         id="path999" />
    </clipPath>
    <clipPath
       id="clipPath28364">
      <path
         d="m648 79.241h64v64h-64z"
         id="path1002" />
    </clipPath>
    <clipPath
       id="clipPath28984">
      <path
         d="m500 691.74c0-3.037 2.463-5.5 5.5-5.5s5.5 2.463 5.5 5.5-2.463 5.5-5.5 5.5-5.5-2.463-5.5-5.5"
         id="path1005" />
    </clipPath>
    <clipPath
       id="clipPath29012">
      <path
         d="m500 669.74c0-3.037 2.463-5.5 5.5-5.5s5.5 2.463 5.5 5.5c0 3.038-2.463 5.5-5.5 5.5s-5.5-2.462-5.5-5.5"
         id="path1008" />
    </clipPath>
    <clipPath
       id="clipPath29040">
      <path
         d="m494 680.74c0-3.037 2.462-5.5 5.5-5.5s5.5 2.463 5.5 5.5c0 3.038-2.462 5.5-5.5 5.5s-5.5-2.462-5.5-5.5"
         id="path1011" />
    </clipPath>
    <clipPath
       id="clipPath29068">
      <path
         d="m513 691.74c0-3.037 2.463-5.5 5.5-5.5s5.5 2.463 5.5 5.5-2.463 5.5-5.5 5.5-5.5-2.463-5.5-5.5"
         id="path1014" />
    </clipPath>
    <clipPath
       id="clipPath29096">
      <path
         d="m513 669.74c0-3.037 2.463-5.5 5.5-5.5s5.5 2.463 5.5 5.5c0 3.038-2.463 5.5-5.5 5.5s-5.5-2.462-5.5-5.5"
         id="path1017" />
    </clipPath>
    <clipPath
       id="clipPath29124">
      <path
         d="m507 680.74c0-3.037 2.463-5.5 5.5-5.5s5.5 2.463 5.5 5.5c0 3.038-2.463 5.5-5.5 5.5s-5.5-2.462-5.5-5.5"
         id="path1020" />
    </clipPath>
    <clipPath
       id="clipPath29152">
      <path
         d="m520 680.74c0-3.037 2.463-5.5 5.5-5.5s5.5 2.463 5.5 5.5c0 3.038-2.463 5.5-5.5 5.5s-5.5-2.462-5.5-5.5"
         id="path1023" />
    </clipPath>
    <clipPath
       id="clipPath29252">
      <path
         d="m321 322.24c-4.97 0-9-4.029-9-9 0-4.97 4.03-9 9-9h45c4.971 0 9 4.03 9 9 0 4.971-4.029 9-9 9z"
         id="path1026" />
    </clipPath>
    <clipPath
       id="clipPath29280">
      <path
         d="m322 297.24c-4.971 0-9-4.029-9-9 0-4.97 4.029-9 9-9h45c4.971 0 9 4.03 9 9 0 4.971-4.029 9-9 9z"
         id="path1029" />
    </clipPath>
    <clipPath
       id="clipPath29400">
      <path
         d="m155 83.24h44v53h-44z"
         id="path1032" />
    </clipPath>
    <linearGradient
       id="a-3"
       x1="32"
       x2="32"
       y1="2"
       y2="62"
       gradientTransform="matrix(0.26458,0,0,0.26458,0.066869,0.21518)"
       gradientUnits="userSpaceOnUse">
      <stop
         stop-color="#f5faff"
         offset="0"
         id="stop1818" />
      <stop
         stop-color="#cfdef0"
         offset="1"
         id="stop1820" />
    </linearGradient>
    <linearGradient
       id="linearGradient1075"
       x1="8.856"
       x2="8.856"
       y1="13.489"
       y2="3.5157"
       gradientUnits="userSpaceOnUse">
      <stop
         stop-color="#273238"
         offset="0"
         id="stop1823" />
      <stop
         stop-color="#36474f"
         offset="1"
         id="stop1825" />
    </linearGradient>
    <linearGradient
       inkscape:collect="always"
       xlink:href="#linearGradient1871"
       id="linearGradient1873"
       x1="-4.0765996"
       y1="16.911951"
       x2="-4.0765996"
       y2="32.971287"
       gradientUnits="userSpaceOnUse"
       gradientTransform="translate(12.709277,-16.50752)" />
  </defs>
  <circle
     style="opacity:1;fill:url(#linearGradient1873);fill-opacity:1;stroke-width:0.295364;stroke-linecap:round;stroke-linejoin:round;paint-order:stroke fill markers"
     id="path1865"
     cx="8.4665003"
     cy="8.4665003"
     r="7.9373436" />
  <g
     transform="matrix(1.594251,0,0,1.5943904,-5.0314026,-451.5693)"
     filter="url(#b)"
     opacity="0.15"
     stroke-width="0.429"
     id="g27">
    <path
       d="m 5.663,286.12 c -0.355,0.409 -0.629,0.9 -0.778,1.456 -0.077,0.29 -0.116,0.582 -0.121,0.87 a 3.619,3.619 0 0 0 0.898,2.503 l 0.761,-1.024 a 2.433,2.433 0 0 1 -0.425,-1.28 c -0.001,-0.039 -0.003,-0.077 -0.003,-0.116 l 0.002,-0.068 c 0.006,-0.187 0.03,-0.376 0.081,-0.565 0.074,-0.277 0.194,-0.529 0.345,-0.752 l -0.76,-1.024"
       style="white-space:normal;isolation:auto;mix-blend-mode:normal"
       id="path19" />
    <path
       d="m 6.133,289.35 -1,0.791 a 3.717,3.717 0 0 0 3.33,2.097 c 0.298,0 0.586,-0.039 0.863,-0.106 l 0.02,-0.004 a 3.96,3.96 0 0 0 0.359,-0.107 l 0.014,-0.004 0.002,-10e-4 a 3.663,3.663 0 0 0 1.798,-1.401 l -1.186,-0.47 c -0.173,0.2 -0.381,0.377 -0.624,0.519 l -0.022,0.013 a 2.395,2.395 0 0 1 -0.564,0.235 l -0.016,0.004 a 2.485,2.485 0 0 1 -0.645,0.086 2.458,2.458 0 0 1 -2.33,-1.652"
       style="white-space:normal;isolation:auto;mix-blend-mode:normal"
       id="path21" />
    <path
       d="m 8.466,287.92 v 1.234 h 2.392 a 2.457,2.457 0 0 1 -1.061,1.465 l 1,0.791 a 3.7,3.7 0 0 0 1.374,-2.873 c 0,-0.21 -0.022,-0.416 -0.056,-0.617 H 8.467 Z"
       style="white-space:normal;isolation:auto;mix-blend-mode:normal"
       id="path23" />
    <path
       d="m 8.463,284.83 a 3.71,3.71 0 0 0 -3.33,2.096 l 1,0.792 a 2.458,2.458 0 0 1 2.33,-1.654 c 0.633,0 1.206,0.236 1.641,0.624 l 0.868,-0.868 a 3.685,3.685 0 0 0 -2.509,-0.99"
       style="white-space:normal;isolation:auto;mix-blend-mode:normal"
       id="path25" />
  </g>
  <g
     transform="matrix(1.594251,0,0,1.5943904,-5.0313672,-451.56934)"
     stroke-width=".429"
     id="g37">
    <path
       d="m 5.663,286.12 c -0.355,0.409 -0.629,0.9 -0.778,1.456 -0.077,0.29 -0.116,0.582 -0.121,0.87 a 3.619,3.619 0 0 0 0.898,2.503 l 0.761,-1.024 a 2.433,2.433 0 0 1 -0.425,-1.28 c -0.001,-0.039 -0.003,-0.077 -0.003,-0.116 l 0.002,-0.068 c 0.006,-0.187 0.03,-0.376 0.081,-0.565 0.074,-0.277 0.194,-0.529 0.345,-0.752 l -0.76,-1.024"
       fill="#fbbc05"
       style="white-space:normal;isolation:auto;mix-blend-mode:normal"
       id="path29" />
    <path
       d="m 6.133,289.35 -1,0.791 a 3.717,3.717 0 0 0 3.33,2.097 c 0.298,0 0.586,-0.039 0.863,-0.106 l 0.02,-0.004 a 3.96,3.96 0 0 0 0.359,-0.107 l 0.014,-0.004 0.002,-10e-4 a 3.663,3.663 0 0 0 1.798,-1.401 l -1.186,-0.47 c -0.173,0.2 -0.381,0.377 -0.624,0.519 l -0.022,0.013 a 2.395,2.395 0 0 1 -0.564,0.235 l -0.016,0.004 a 2.485,2.485 0 0 1 -0.645,0.086 2.458,2.458 0 0 1 -2.33,-1.652"
       fill="#34a853"
       style="white-space:normal;isolation:auto;mix-blend-mode:normal"
       id="path31" />
    <path
       d="m 8.466,287.92 v 1.234 h 2.392 a 2.457,2.457 0 0 1 -1.061,1.465 l 1,0.791 a 3.7,3.7 0 0 0 1.374,-2.873 c 0,-0.21 -0.022,-0.416 -0.056,-0.617 H 8.467 Z"
       fill="#4285f4"
       style="white-space:normal;isolation:auto;mix-blend-mode:normal"
       id="path33" />
    <path
       d="m 8.463,284.83 a 3.71,3.71 0 0 0 -3.33,2.096 l 1,0.792 a 2.458,2.458 0 0 1 2.33,-1.654 c 0.633,0 1.206,0.236 1.641,0.624 l 0.868,-0.868 a 3.685,3.685 0 0 0 -2.509,-0.99"
       fill="#ea4335"
       style="white-space:normal;isolation:auto;mix-blend-mode:normal"
       id="path35" />
  </g>
</svg>
