<?xml version="1.0" encoding="UTF-8" standalone="no"?>
<svg
   xmlns:dc="http://purl.org/dc/elements/1.1/"
   xmlns:cc="http://creativecommons.org/ns#"
   xmlns:rdf="http://www.w3.org/1999/02/22-rdf-syntax-ns#"
   xmlns:svg="http://www.w3.org/2000/svg"
   xmlns="http://www.w3.org/2000/svg"
   xmlns:xlink="http://www.w3.org/1999/xlink"
   xmlns:sodipodi="http://sodipodi.sourceforge.net/DTD/sodipodi-0.dtd"
   xmlns:inkscape="http://www.inkscape.org/namespaces/inkscape"
   width="64"
   height="64"
   version="1.1"
   viewBox="0 0 16.933 16.933"
   id="svg25"
   sodipodi:docname="goa-account-twitter.svg"
   inkscape:version="1.0.1 (3bc2e813f5, 2020-09-07)">
  <metadata
     id="metadata29">
    <rdf:RDF>
      <cc:Work
         rdf:about="">
        <dc:format>image/svg+xml</dc:format>
        <dc:type
           rdf:resource="http://purl.org/dc/dcmitype/StillImage" />
        <dc:title></dc:title>
      </cc:Work>
    </rdf:RDF>
  </metadata>
  <sodipodi:namedview
     pagecolor="#ffffff"
     bordercolor="#666666"
     borderopacity="1"
     objecttolerance="10"
     gridtolerance="10"
     guidetolerance="10"
     inkscape:pageopacity="0"
     inkscape:pageshadow="2"
     inkscape:window-width="1920"
     inkscape:window-height="942"
     id="namedview27"
     showgrid="false"
     inkscape:zoom="4.2813106"
     inkscape:cx="2.3265402"
     inkscape:cy="55.003816"
     inkscape:window-x="0"
     inkscape:window-y="38"
     inkscape:window-maximized="1"
     inkscape:current-layer="svg25" />
  <defs
     id="defs13">
    <filter
       id="c"
       x="-.036"
       y="-.036"
       width="1.072"
       height="1.072"
       color-interpolation-filters="sRGB">
      <feGaussianBlur
         stdDeviation="0.23812031"
         id="feGaussianBlur2" />
    </filter>
    <filter
       id="b"
       x="-.055391"
       y="-.065445"
       width="1.1108"
       height="1.1309"
       color-interpolation-filters="sRGB">
      <feGaussianBlur
         stdDeviation="0.18996709"
         id="feGaussianBlur5" />
    </filter>
    <linearGradient
       id="a"
       x1="8.4665"
       x2="8.4665"
       y1=".52916"
       y2="16.404"
       gradientUnits="userSpaceOnUse">
      <stop
         stop-color="#0891ff"
         offset="0"
         id="stop8" />
      <stop
         stop-color="#12f1ff"
         offset="1"
         id="stop10" />
    </linearGradient>
    <linearGradient
       inkscape:collect="always"
       id="linearGradient1007">
      <stop
         style="stop-color:#37beff;stop-opacity:1"
         offset="0"
         id="stop1003" />
      <stop
         style="stop-color:#00a0ff;stop-opacity:1"
         offset="1"
         id="stop1005" />
    </linearGradient>
    <filter
       id="b-3"
       x="-.036"
       y="-.036"
       width="1.072"
       height="1.072"
       color-interpolation-filters="sRGB">
      <feGaussianBlur
         stdDeviation="0.23812032"
         id="feGaussianBlur2-6" />
    </filter>
    <linearGradient
       id="a-7"
       x1="8.4665"
       x2="8.4665"
       y1=".52915"
       y2="16.404"
       gradientUnits="userSpaceOnUse"
       gradientTransform="translate(19.451456)">
      <stop
         stop-color="#1c2d44"
         offset="0"
         id="stop5" />
      <stop
         stop-color="#334057"
         offset="1"
         id="stop7" />
    </linearGradient>
    <linearGradient
       id="linearGradient1056"
       x1="-170.14"
       x2="-177.47"
       y1="-1.3647"
       y2="-8.5413"
       gradientTransform="translate(169.34311,16.756286)"
       gradientUnits="userSpaceOnUse">
      <stop
         stop-color="#0096ff"
         offset="0"
         id="stop857" />
      <stop
         stop-color="#00dcff"
         offset="1"
         id="stop859" />
    </linearGradient>
    <linearGradient
       id="linearGradient1058"
       x1="-184.75"
       x2="-170.19"
       y1="-8.5413"
       y2="-15.811"
       gradientTransform="translate(169.34311,16.756286)"
       gradientUnits="userSpaceOnUse">
      <stop
         stop-color="#505f64"
         offset="0"
         id="stop862" />
      <stop
         stop-color="#647378"
         offset="1"
         id="stop864" />
    </linearGradient>
    <filter
       id="filter1255"
       x="-.06"
       y="-.06"
       width="1.12"
       height="1.12"
       color-interpolation-filters="sRGB">
      <feGaussianBlur
         stdDeviation="0.064633745"
         id="feGaussianBlur867" />
    </filter>
    <filter
       id="filter1269"
       x="-.06"
       y="-.06"
       width="1.12"
       height="1.12"
       color-interpolation-filters="sRGB">
      <feGaussianBlur
         stdDeviation="0.082435125"
         id="feGaussianBlur870" />
    </filter>
    <filter
       id="filter1287"
       x="-.051958"
       y="-.070988"
       width="1.1039"
       height="1.142"
       color-interpolation-filters="sRGB">
      <feGaussianBlur
         stdDeviation="0.07138584"
         id="feGaussianBlur873" />
    </filter>
    <filter
       id="filter959"
       x="-.037149"
       y="-.14184"
       width="1.0743"
       height="1.2837"
       color-interpolation-filters="sRGB">
      <feGaussianBlur
         stdDeviation="0.051039421"
         id="feGaussianBlur876" />
    </filter>
    <linearGradient
       inkscape:collect="always"
       xlink:href="#linearGradient1007"
       id="linearGradient1009"
       x1="15.656315"
       y1="1.2555197"
       x2="1.3523924"
       y2="15.794305"
       gradientUnits="userSpaceOnUse" />
    <linearGradient
       id="linearGradient1005"
       x1=".73911"
       x2="16.388"
       y1="16.296"
       y2=".64687"
       gradientTransform="matrix(0.99999,0,0,0.99999,-0.035256,0.0065427)"
       gradientUnits="userSpaceOnUse">
      <stop
         stop-color="#00a0ff"
         offset="0"
         id="stop920" />
      <stop
         stop-color="#37beff"
         offset="1"
         id="stop922" />
    </linearGradient>
    <linearGradient
       id="w"
       x1="123.64"
       x2="146.53"
       y1="131.03"
       y2="174.71"
       gradientTransform="matrix(4.2812,0,0,3.5908,41,42)"
       gradientUnits="userSpaceOnUse">
      <stop
         stop-color="#fafafa"
         offset="0"
         id="stop925" />
      <stop
         stop-color="#fff"
         offset="1"
         id="stop927" />
    </linearGradient>
    <filter
       id="filter1152"
       x="-.055255"
       y="-.065641"
       width="1.1105"
       height="1.1313"
       color-interpolation-filters="sRGB">
      <feGaussianBlur
         stdDeviation="2.9934784"
         id="feGaussianBlur930" />
    </filter>
  </defs>
  <path
     id="path883"
     style="fill:url(#linearGradient1009);fill-opacity:1;stroke-width:0.999999"
     d="m 2.404457,1.1906019 c -0.67244,0 -1.213855,0.540929 -1.213855,1.2133391 v 6.0625592 6.0620418 c 0,0.67244 0.541465,1.213856 1.213855,1.213856 H 8.4665 14.528543 c 0.67244,0 1.213855,-0.541366 1.213855,-1.213856 V 8.4778689 2.403941 c 0,-0.6724401 -0.540948,-1.2133391 -1.213338,-1.2133391 z" />
  <path
     d="M 9.5055,5.065 C 8.76217,5.34278 8.2933,6.05389 8.3455,6.8361 L 8.364389,7.13721 8.066609,7.100543 c -1.0811,-0.14111 -2.0267,-0.62 -2.83,-1.4256 l -0.39222,-0.4 -0.10111,0.29667 c -0.21444,0.65667 -0.077778,1.3522 0.36778,1.8189 0.23778,0.25778 0.18444,0.29444 -0.22667,0.14111 -0.14222,-0.048889 -0.26778,-0.085556 -0.28,-0.066667 -0.041111,0.043333 0.10222,0.60222 0.21444,0.82445 0.15444,0.30778 0.47,0.60889 0.81445,0.78667 l 0.29222,0.14111 -0.34444,0.00667 c -0.33333,0 -0.34444,0.00667 -0.31111,0.13556 0.11889,0.4 0.58889,0.82445 1.1122,1.0089 l 0.36889,0.12889 -0.32111,0.19667 a 3.2889,3.2889 0 0 1 -1.5922,0.45556 c -0.26778,0.0056 -0.48667,0.03 -0.48667,0.04778 0,0.06111 0.72445,0.40444 1.1467,0.54 1.2667,0.4 2.7711,0.22778 3.9022,-0.45444 0.80222,-0.48556 1.6056,-1.45 1.98,-2.3844 0.20222,-0.49889 0.40444,-1.4078 0.40444,-1.8478 0,-0.28222 0.01778,-0.32 0.35111,-0.65778 0.19667,-0.19667 0.38111,-0.41111 0.41667,-0.47333 0.06,-0.11778 0.05333,-0.11778 -0.25,-0.011111 -0.50556,0.18444 -0.57778,0.16111 -0.32667,-0.11667 0.18444,-0.19667 0.40444,-0.55222 0.40444,-0.65667 0,-0.017778 -0.08889,0.01 -0.19,0.066667 -0.10667,0.061111 -0.34444,0.15333 -0.52334,0.20778 l -0.32222,0.10444 -0.29111,-0.20222 c -0.16,-0.11111 -0.38667,-0.23333 -0.50556,-0.27111 a 1.9944,1.9944 0 0 0 -1.04,0.024444"
     filter="url(#b)"
     opacity="0.15"
     id="path19"
     style="stroke-width:1.1111" />
  <path
     d="M 9.5055,5.065 C 8.76217,5.34278 8.2933,6.05389 8.3455,6.8361 L 8.364389,7.13721 8.066609,7.100543 c -1.0811,-0.14111 -2.0267,-0.62 -2.83,-1.4256 l -0.39222,-0.4 -0.10111,0.29667 c -0.21444,0.65667 -0.077778,1.3522 0.36778,1.8189 0.23778,0.25778 0.18444,0.29444 -0.22667,0.14111 -0.14222,-0.048889 -0.26778,-0.085556 -0.28,-0.066667 -0.041111,0.043333 0.10222,0.60222 0.21444,0.82445 0.15444,0.30778 0.47,0.60889 0.81445,0.78667 l 0.29222,0.14111 -0.34444,0.00667 c -0.33333,0 -0.34444,0.00667 -0.31111,0.13556 0.11889,0.4 0.58889,0.82445 1.1122,1.0089 l 0.36889,0.12889 -0.32111,0.19667 a 3.2889,3.2889 0 0 1 -1.5922,0.45556 c -0.26778,0.0056 -0.48667,0.03 -0.48667,0.04778 0,0.06111 0.72445,0.40444 1.1467,0.54 1.2667,0.4 2.7711,0.22778 3.9022,-0.45444 0.80222,-0.48556 1.6056,-1.45 1.98,-2.3844 0.20222,-0.49889 0.40444,-1.4078 0.40444,-1.8478 0,-0.28222 0.01778,-0.32 0.35111,-0.65778 0.19667,-0.19667 0.38111,-0.41111 0.41667,-0.47333 0.06,-0.11778 0.05333,-0.11778 -0.25,-0.011111 -0.50556,0.18444 -0.57778,0.16111 -0.32667,-0.11667 0.18444,-0.19667 0.40444,-0.55222 0.40444,-0.65667 0,-0.017778 -0.08889,0.01 -0.19,0.066667 -0.10667,0.061111 -0.34444,0.15333 -0.52334,0.20778 l -0.32222,0.10444 -0.29111,-0.20222 c -0.16,-0.11111 -0.38667,-0.23333 -0.50556,-0.27111 a 1.9944,1.9944 0 0 0 -1.04,0.024444"
     fill="#ffffff"
     id="path21"
     style="stroke-width:1.1111" />
</svg>
