<?xml version="1.0" encoding="UTF-8" standalone="no"?>
<svg
   xmlns:dc="http://purl.org/dc/elements/1.1/"
   xmlns:cc="http://creativecommons.org/ns#"
   xmlns:rdf="http://www.w3.org/1999/02/22-rdf-syntax-ns#"
   xmlns:svg="http://www.w3.org/2000/svg"
   xmlns="http://www.w3.org/2000/svg"
   xmlns:xlink="http://www.w3.org/1999/xlink"
   xmlns:sodipodi="http://sodipodi.sourceforge.net/DTD/sodipodi-0.dtd"
   xmlns:inkscape="http://www.inkscape.org/namespaces/inkscape"
   width="64"
   height="64"
   version="1.1"
   viewBox="0 0 16.933 16.933"
   id="svg28"
   sodipodi:docname="goa-account-owncloud.svg"
   inkscape:version="1.0.1 (3bc2e813f5, 2020-09-07)">
  <metadata
     id="metadata32">
    <rdf:RDF>
      <cc:Work
         rdf:about="">
        <dc:format>image/svg+xml</dc:format>
        <dc:type
           rdf:resource="http://purl.org/dc/dcmitype/StillImage" />
        <dc:title></dc:title>
      </cc:Work>
    </rdf:RDF>
  </metadata>
  <sodipodi:namedview
     pagecolor="#ffffff"
     bordercolor="#666666"
     borderopacity="1"
     objecttolerance="10"
     gridtolerance="10"
     guidetolerance="10"
     inkscape:pageopacity="0"
     inkscape:pageshadow="2"
     inkscape:window-width="1920"
     inkscape:window-height="942"
     id="namedview30"
     showgrid="false"
     inkscape:zoom="8.5626212"
     inkscape:cx="21.218342"
     inkscape:cy="32.284537"
     inkscape:window-x="0"
     inkscape:window-y="38"
     inkscape:window-maximized="1"
     inkscape:current-layer="svg28"
     inkscape:document-rotation="0" />
  <defs
     id="defs10">
    <linearGradient
       inkscape:collect="always"
       id="linearGradient1007">
      <stop
         style="stop-color:#1c2d44;stop-opacity:1"
         offset="0"
         id="stop1003" />
      <stop
         style="stop-color:#334057;stop-opacity:1"
         offset="1"
         id="stop1005" />
    </linearGradient>
    <filter
       id="b"
       x="-.036"
       y="-.036"
       width="1.072"
       height="1.072"
       color-interpolation-filters="sRGB">
      <feGaussianBlur
         stdDeviation="0.23812032"
         id="feGaussianBlur2" />
    </filter>
    <linearGradient
       id="a"
       x1="8.4665"
       x2="8.4665"
       y1=".52915"
       y2="16.404"
       gradientUnits="userSpaceOnUse"
       gradientTransform="translate(19.451456)">
      <stop
         stop-color="#1c2d44"
         offset="0"
         id="stop5" />
      <stop
         stop-color="#334057"
         offset="1"
         id="stop7" />
    </linearGradient>
    <linearGradient
       id="linearGradient1056"
       x1="-170.14"
       x2="-177.47"
       y1="-1.3647"
       y2="-8.5413"
       gradientTransform="translate(169.34311,16.756286)"
       gradientUnits="userSpaceOnUse">
      <stop
         stop-color="#0096ff"
         offset="0"
         id="stop857" />
      <stop
         stop-color="#00dcff"
         offset="1"
         id="stop859" />
    </linearGradient>
    <linearGradient
       id="linearGradient1058"
       x1="-184.75"
       x2="-170.19"
       y1="-8.5413"
       y2="-15.811"
       gradientTransform="translate(169.34311,16.756286)"
       gradientUnits="userSpaceOnUse">
      <stop
         stop-color="#505f64"
         offset="0"
         id="stop862" />
      <stop
         stop-color="#647378"
         offset="1"
         id="stop864" />
    </linearGradient>
    <filter
       id="filter1255"
       x="-.06"
       y="-.06"
       width="1.12"
       height="1.12"
       color-interpolation-filters="sRGB">
      <feGaussianBlur
         stdDeviation="0.064633745"
         id="feGaussianBlur867" />
    </filter>
    <filter
       id="filter1269"
       x="-.06"
       y="-.06"
       width="1.12"
       height="1.12"
       color-interpolation-filters="sRGB">
      <feGaussianBlur
         stdDeviation="0.082435125"
         id="feGaussianBlur870" />
    </filter>
    <filter
       id="filter1287"
       x="-.051958"
       y="-.070988"
       width="1.1039"
       height="1.142"
       color-interpolation-filters="sRGB">
      <feGaussianBlur
         stdDeviation="0.07138584"
         id="feGaussianBlur873" />
    </filter>
    <filter
       id="filter959"
       x="-.037149"
       y="-.14184"
       width="1.0743"
       height="1.2837"
       color-interpolation-filters="sRGB">
      <feGaussianBlur
         stdDeviation="0.051039421"
         id="feGaussianBlur876" />
    </filter>
    <linearGradient
       inkscape:collect="always"
       xlink:href="#linearGradient1007"
       id="linearGradient1009"
       x1="8.3286219"
       y1="1.2563854"
       x2="8.3286219"
       y2="15.674216"
       gradientUnits="userSpaceOnUse" />
  </defs>
  <path
     id="path883"
     style="fill:url(#linearGradient1009);fill-opacity:1;stroke-width:0.999999"
     d="m 2.4044573,1.1906015 c -0.6724401,0 -1.2138556,0.540929 -1.2138556,1.213339 v 6.0625593 6.0620422 c 0,0.67244 0.5414655,1.213856 1.2138556,1.213856 H 8.4665 14.528543 c 0.67244,0 1.213855,-0.541366 1.213855,-1.213856 V 8.4778684 2.4039405 c 0,-0.67244 -0.540948,-1.213339 -1.213338,-1.213339 z" />
  <g
     transform="matrix(1.0079325,0,0,1.0079325,-0.06700229,-282.01506)"
     fill="#ffffff"
     stroke="#1c2d44"
     stroke-width="0.265"
     id="g26">
    <path
       d="m 6.814,286.59 a 0.884,0.884 0 1 1 -1.766,0 0.884,0.884 0 1 1 1.766,0 z m -0.884,3.076 c 0,0.896 -0.725,1.622 -1.619,1.622 a 1.62,1.62 0 0 1 -1.617,-1.622 1.619,1.619 0 1 1 3.236,0 z"
       id="path16" />
    <path
       d="m 7.886,288.59 c 0,0.967 -0.783,1.753 -1.75,1.753 a 1.752,1.752 0 0 1 -1.748,-1.754 1.75,1.75 0 0 1 1.749,-1.752 1.75,1.75 0 0 1 1.749,1.752 z m 3.436,-0.711 a 1.619,1.619 0 0 1 -3.235,0 1.62,1.62 0 0 1 1.617,-1.622 1.62,1.62 0 0 1 1.618,1.622 z"
       id="path18" />
    <path
       d="m 9.548,286.62 a 1.619,1.619 0 1 1 -3.236,0 1.619,1.619 0 0 1 3.236,0 z m 4.692,3.678 a 0.9265,0.9265 0 1 1 -1.853,0 0.9265,0.9265 0 0 1 1.853,0 z"
       id="path20" />
    <path
       d="m 13.097,289.58 a 1.75,1.75 0 0 1 -1.75,1.753 1.75,1.75 0 0 1 -1.749,-1.753 c 0,-0.97 0.783,-1.754 1.749,-1.754 0.967,0 1.75,0.785 1.75,1.754 z m -6.142,0.803 a 0.925,0.925 0 1 1 -1.85,0 0.925,0.925 0 1 1 1.85,0 z"
       id="path22" />
    <path
       d="m 10.693,289.06 c 0,1.234 -1,2.234 -2.23,2.234 -1.232,0 -2.23,-1 -2.23,-2.235 0,-1.234 0.998,-2.234 2.23,-2.234 1.23,0 2.23,1 2.23,2.235 z"
       id="path24" />
  </g>
</svg>
