<?xml version="1.0" encoding="UTF-8" standalone="no"?>
<svg
   xmlns:dc="http://purl.org/dc/elements/1.1/"
   xmlns:cc="http://creativecommons.org/ns#"
   xmlns:rdf="http://www.w3.org/1999/02/22-rdf-syntax-ns#"
   xmlns:svg="http://www.w3.org/2000/svg"
   xmlns="http://www.w3.org/2000/svg"
   xmlns:sodipodi="http://sodipodi.sourceforge.net/DTD/sodipodi-0.dtd"
   xmlns:inkscape="http://www.inkscape.org/namespaces/inkscape"
   width="64"
   height="64"
   version="1.1"
   viewBox="0 0 16.933 16.933"
   id="svg23"
   sodipodi:docname="goa-account-lastfm.svg"
   inkscape:version="1.0.1 (3bc2e813f5, 2020-09-07)">
  <metadata
     id="metadata27">
    <rdf:RDF>
      <cc:Work
         rdf:about="">
        <dc:format>image/svg+xml</dc:format>
        <dc:type
           rdf:resource="http://purl.org/dc/dcmitype/StillImage" />
        <dc:title></dc:title>
      </cc:Work>
    </rdf:RDF>
  </metadata>
  <sodipodi:namedview
     pagecolor="#ffffff"
     bordercolor="#666666"
     borderopacity="1"
     objecttolerance="10"
     gridtolerance="10"
     guidetolerance="10"
     inkscape:pageopacity="0"
     inkscape:pageshadow="2"
     inkscape:window-width="1920"
     inkscape:window-height="942"
     id="namedview25"
     showgrid="false"
     inkscape:zoom="4.2813106"
     inkscape:cx="50.63979"
     inkscape:cy="43.321055"
     inkscape:window-x="0"
     inkscape:window-y="38"
     inkscape:window-maximized="1"
     inkscape:current-layer="svg23" />
  <defs
     id="defs13">
    <filter
       id="c"
       x="-.036"
       y="-.036"
       width="1.072"
       height="1.072"
       color-interpolation-filters="sRGB">
      <feGaussianBlur
         stdDeviation="0.214308"
         id="feGaussianBlur2" />
    </filter>
    <filter
       id="b"
       x="-.048466"
       y="-.078737"
       width="1.0969"
       height="1.1575"
       color-interpolation-filters="sRGB">
      <feGaussianBlur
         stdDeviation="0.1899708"
         id="feGaussianBlur5" />
    </filter>
    <linearGradient
       id="a"
       x1="8.4665"
       x2="8.4665"
       y1=".52915"
       y2="16.404"
       gradientUnits="userSpaceOnUse"
       gradientTransform="translate(6.3716318,-5.9248231)">
      <stop
         stop-color="#f0236a"
         offset="0"
         id="stop8" />
      <stop
         stop-color="#f95e2f"
         offset="1"
         id="stop10" />
    </linearGradient>
    <linearGradient
       id="a-3"
       x1="99.036"
       x2="99.036"
       y1="11.64"
       y2="199.84"
       gradientTransform="matrix(0.07937344,0,0,0.07937344,0.52915655,0.52902392)"
       gradientUnits="userSpaceOnUse">
      <stop
         stop-color="#ff4b00"
         offset="0"
         id="stop854" />
      <stop
         stop-color="#f50f2d"
         offset="1"
         id="stop856" />
    </linearGradient>
  </defs>
  <circle
     cx="8.4665003"
     cy="8.4665003"
     r="7.9373436"
     color="#000000"
     fill="url(#a-3)"
     id="circle861"
     style="fill:url(#a-3);stroke-width:0.264578" />
  <path
     d="m 6.1459,11.331605 a 3.0333,3.0333 0 0 1 -0.74556,-0.24222 c -1.4556,-0.69667 -2.05,-2.4522002 -1.3333,-3.9311002 0.81778,-1.6911 3.0522,-2.1222 4.3956,-0.84778 0.38889,0.36667 0.56111,0.68111 1.1467,2.0722 0.61111,1.4556 0.72444,1.6844002 0.92222,1.8778002 0.21111,0.20667 0.40889,0.27556 0.78445,0.27556 0.61889,0 1.06,-0.38111 1.06,-0.9144502 0,-0.45 -0.15889,-0.59445 -0.96667,-0.88222 -1.2322,-0.44444 -1.6311,-0.84445 -1.6333,-1.6511 0,-0.43 0.11,-0.71667 0.38667,-1.0133 0.39778,-0.42444 1.0833,-0.56445 1.6889,-0.35333 0.26,0.091111 0.80111,0.57111 0.80111,0.70778 0,0.066667 -0.31333,0.27 -0.48778,0.31778 -0.09222,0.024445 -0.17111,-0.00667 -0.27778,-0.10889 -0.21444,-0.20556 -0.36,-0.27 -0.61778,-0.27 -0.44333,0 -0.71889,0.26778 -0.71889,0.69889 0,0.43 0.17556,0.57556 1.0511,0.87111 1.2056,0.40667 1.5611,0.77445 1.5689,1.6256 0.0067,0.7344502 -0.32333,1.2644002 -0.98222,1.5778002 -0.3,0.14222 -0.40222,0.16 -0.89,0.16 -0.7,-0.0011 -1.0133,-0.13 -1.4044,-0.57111 -0.26333,-0.29667 -0.53,-0.8533302 -1.3856,-2.8867002 -0.35556,-0.84222 -0.81111,-1.2556 -1.5689,-1.4178 a 2.0922,2.0922 0 0 0 -1.27,0.17778 c -0.34,0.17778 -0.72111,0.58 -0.9,0.94667 -0.14889,0.29889 -0.16333,0.38222 -0.16333,0.9 0,0.49556 0.02,0.61222 0.14444,0.88333 0.18889,0.41556 0.55778,0.7977802 0.96556,1.0044002 0.29444,0.14778 0.38556,0.16667 0.85556,0.16667 0.45,0 0.56667,-0.02222 0.83556,-0.14889 0.30667,-0.15 0.71889,-0.5177802 0.88778,-0.7933302 l 0.087778,-0.14333 0.17222,0.39444 c 0.096667,0.2177802 0.17333,0.4222202 0.17333,0.4600002 0,0.10889 -0.38889,0.46444 -0.74778,0.68667 a 2.72,2.72 0 0 1 -1.8322,0.37"
     filter="url(#b)"
     opacity="0.25"
     stroke-width="0.41667"
     id="path19" />
  <path
     d="M 6.1459,11.33168 A 3.0333,3.0333 0 0 1 5.40034,11.08946 c -1.4556,-0.69667 -2.05,-2.4521998 -1.3333,-3.9310998 0.81778,-1.6911 3.0522,-2.1222 4.3956,-0.84778 0.38889,0.36667 0.56111,0.68111 1.1467,2.0722 0.61111,1.4556 0.72444,1.6843998 0.92222,1.8777998 0.21111,0.20667 0.40889,0.27556 0.78445,0.27556 0.61889,0 1.06,-0.38111 1.06,-0.9144498 0,-0.45 -0.15889,-0.59445 -0.96667,-0.88222 -1.2322,-0.44444 -1.6311,-0.84445 -1.6333,-1.6511 0,-0.43 0.11,-0.71667 0.38667,-1.0133 0.39778,-0.42444 1.0833,-0.56445 1.6889,-0.35333 0.26,0.091111 0.80111,0.57111 0.80111,0.70778 0,0.066667 -0.31333,0.27 -0.48778,0.31778 -0.09222,0.024445 -0.17111,-0.00667 -0.27778,-0.10889 -0.21444,-0.20556 -0.36,-0.27 -0.61778,-0.27 -0.44333,0 -0.71889,0.26778 -0.71889,0.69889 0,0.43 0.17556,0.57556 1.0511,0.87111 1.2056,0.40667 1.5611,0.77445 1.5689,1.6256 0.0067,0.7344498 -0.32333,1.2643998 -0.98222,1.5777998 -0.3,0.14222 -0.40222,0.16 -0.89,0.16 -0.7,-0.0011 -1.0133,-0.13 -1.4044,-0.57111 -0.26333,-0.29667 -0.53,-0.8533298 -1.3856,-2.8866998 -0.35556,-0.84222 -0.81111,-1.2556 -1.5689,-1.4178 a 2.0922,2.0922 0 0 0 -1.27,0.17778 c -0.34,0.17778 -0.72111,0.58 -0.9,0.94667 -0.14889,0.29889 -0.16333,0.38222 -0.16333,0.9 0,0.49556 0.02,0.61222 0.14444,0.88333 0.18889,0.41556 0.55778,0.7977798 0.96556,1.0043998 0.29444,0.14778 0.38556,0.16667 0.85556,0.16667 0.45,0 0.56667,-0.02222 0.83556,-0.14889 0.30667,-0.15 0.71889,-0.5177798 0.88778,-0.7933298 l 0.087778,-0.14333 0.17222,0.39444 c 0.096667,0.2177798 0.17333,0.4222198 0.17333,0.4599998 0,0.10889 -0.38889,0.46444 -0.74778,0.68667 a 2.72,2.72 0 0 1 -1.8322,0.37"
     fill="#ffffff"
     stroke-width="0.41667"
     id="path21" />
  <style
     type="text/css"
     id="style865">.st0{opacity:0.15;fill:#45413C;}
	.st1{fill:#FFE500;}
	.st2{fill:#EBCB00;}
	.st3{fill:none;stroke:#45413C;stroke-linecap:round;stroke-linejoin:round;stroke-miterlimit:10;}
	.st4{fill:#FFAA54;}
	.st5{fill:#FF8A14;}
	.st6{fill:#FFB0CA;stroke:#45413C;stroke-linecap:round;stroke-linejoin:round;stroke-miterlimit:10;}
	.st7{fill:#FF87AF;stroke:#45413C;stroke-linecap:round;stroke-linejoin:round;stroke-miterlimit:10;}
	.st8{fill:#FFCC99;}
	.st9{fill:#FFFFFF;}
	.st10{fill:#F0F0F0;}
	.st11{fill:#BF8256;}
	.st12{fill:#915E3A;}
	.st13{fill:#DEA47A;}
	.st14{fill:#F0D5A8;}
	.st15{fill:#DEBB7E;}
	.st16{fill:#F7E5C6;}
	.st17{fill:#FF8A14;stroke:#45413C;stroke-linecap:round;stroke-linejoin:round;stroke-miterlimit:10;}
	.st18{fill:#FFF5E3;}
	.st19{fill:#FFF48C;}
	.st20{fill:#FFFACF;}
	.st21{fill:#FFFCE5;}
	.st22{fill:#FF87AF;}
	.st23{fill:#FFB0CA;}
	.st24{fill:#FFE500;stroke:#45413C;stroke-linecap:round;stroke-linejoin:round;stroke-miterlimit:10;}
	.st25{fill:#9CEB60;stroke:#45413C;stroke-linecap:round;stroke-linejoin:round;stroke-miterlimit:10;}
	.st26{fill:#FFFACF;stroke:#45413C;stroke-linecap:round;stroke-linejoin:round;stroke-miterlimit:10;}
	.st27{fill:#00F5BC;stroke:#45413C;stroke-linecap:round;stroke-linejoin:round;stroke-miterlimit:10;}
	.st28{fill:#BF8256;stroke:#45413C;stroke-linecap:round;stroke-linejoin:round;stroke-miterlimit:10;}
	.st29{fill:#FFE3CF;stroke:#45413C;stroke-linecap:round;stroke-linejoin:round;stroke-miterlimit:10;}
	.st30{fill:#FF6242;}
	.st31{fill:#FF866E;}
	.st32{fill:none;stroke:#E04122;stroke-linecap:round;stroke-linejoin:round;stroke-miterlimit:10;}
	.st33{fill:#FFFEF2;stroke:#45413C;stroke-linecap:round;stroke-linejoin:round;stroke-miterlimit:10;}
	.st34{fill:#FF6242;stroke:#45413C;stroke-linecap:round;stroke-linejoin:round;stroke-miterlimit:10;}
	.st35{fill:#FFA694;}
	.st36{fill:#FFFFFF;stroke:#45413C;stroke-linecap:round;stroke-linejoin:round;stroke-miterlimit:10;}
	.st37{fill:#FFFEF2;}
	.st38{fill:#FF6196;}
	.st39{fill:#B89558;}
	.st40{fill:none;stroke:#915E3A;stroke-linecap:round;stroke-linejoin:round;stroke-miterlimit:10;}
	.st41{fill:#DEBB7E;stroke:#45413C;stroke-linecap:round;stroke-linejoin:round;stroke-miterlimit:10;}
	.st42{fill:#6DD627;stroke:#45413C;stroke-linecap:round;stroke-linejoin:round;stroke-miterlimit:10;}
	.st43{fill:#E5F8FF;}
	.st44{fill:#E8F4FA;}
	.st45{fill:#E8F4FA;stroke:#45413C;stroke-linecap:round;stroke-linejoin:round;stroke-miterlimit:10;}
	.st46{fill:#FFCCDD;}
	.st47{fill:#E5F8FF;stroke:#45413C;stroke-linecap:round;stroke-linejoin:round;stroke-miterlimit:10;}
	.st48{fill:#00B8F0;stroke:#45413C;stroke-linecap:round;stroke-linejoin:round;stroke-miterlimit:10;}
	.st49{fill:#00B8F0;}
	.st50{fill:#4ACFFF;}
	.st51{fill:#E04122;}
	.st52{fill:#E04122;stroke:#45413C;stroke-linecap:round;stroke-linejoin:round;stroke-miterlimit:10;}
	.st53{fill:#87898C;}
	.st54{fill:#BDBEC0;}
	.st55{fill:#656769;}
	.st56{fill:#525252;}
	.st57{fill:#FFF48C;stroke:#45413C;stroke-linecap:round;stroke-linejoin:round;stroke-miterlimit:10;}
	.st58{fill:#6DD627;}
	.st59{fill:#EB6D00;}
	.st60{fill:#46B000;}
	.st61{fill:#80DDFF;}
	.st62{fill:#DAEDF7;}
	.st63{fill:#BF8DF2;stroke:#45413C;stroke-linecap:round;stroke-linejoin:round;stroke-miterlimit:10;}
	.st64{fill:#9F5AE5;stroke:#45413C;stroke-linecap:round;stroke-linejoin:round;stroke-miterlimit:10;}
	.st65{fill:#C8FFA1;}
	.st66{fill:#E4FFD1;}
	.st67{fill:#9CEB60;}
	.st68{fill:#E5FEFF;}
	.st69{fill:#B8ECFF;}
	.st70{fill:#E0E0E0;stroke:#45413C;stroke-linecap:round;stroke-linejoin:round;stroke-miterlimit:10;}
	.st71{fill:#E0E0E0;}
	.st72{fill:none;stroke:#4F4B45;stroke-linejoin:round;stroke-miterlimit:10;}
	.st73{fill:none;stroke:#4F4B45;stroke-linecap:round;stroke-linejoin:round;stroke-miterlimit:10;}
	.st74{fill:#E0366F;stroke:#45413C;stroke-linecap:round;stroke-linejoin:round;stroke-miterlimit:10;}
	.st75{fill:none;stroke:#45413C;stroke-miterlimit:10;}
	.st76{fill:#FF866E;stroke:#45413C;stroke-linecap:round;stroke-linejoin:round;stroke-miterlimit:10;}
	.st77{fill:#45413C;stroke:#45413C;stroke-linecap:round;stroke-linejoin:round;stroke-miterlimit:10;}
	.st78{fill:#9F5AE5;}
	.st79{fill:#803EC2;}
	.st80{fill:#803EC2;stroke:#45413C;stroke-linecap:round;stroke-linejoin:round;stroke-miterlimit:10;}
	.st81{fill:#BF8DF2;}
	.st82{fill:#FFAA54;stroke:#45413C;stroke-linecap:round;stroke-linejoin:round;stroke-miterlimit:10;}
	.st83{fill:none;stroke:#45413C;stroke-linejoin:round;stroke-miterlimit:10;}
	.st84{fill:#FFCCDD;stroke:#45413C;stroke-linecap:round;stroke-linejoin:round;stroke-miterlimit:10;}
	.st85{fill:#FF6196;stroke:#45413C;stroke-linecap:round;stroke-linejoin:round;stroke-miterlimit:10;}
	.st86{fill:#FFE5EE;}
	.st87{fill:#F7E5C6;stroke:#45413C;stroke-linecap:round;stroke-linejoin:round;stroke-miterlimit:10;}
	.st88{fill:#E5FFF9;}
	.st89{fill:none;stroke:#45413C;stroke-width:1.0064;stroke-linecap:round;stroke-linejoin:round;stroke-miterlimit:10;}
	.st90{fill:#4AEFF7;}
	.st91{fill:#A6FBFF;}
	.st92{fill:#E5FEFF;stroke:#45413C;stroke-linecap:round;stroke-linejoin:round;stroke-miterlimit:10;}
	.st93{fill:#46B000;stroke:#45413C;stroke-linecap:round;stroke-linejoin:round;stroke-miterlimit:10;}
	.st94{fill:#FFFFFF;stroke:#45413C;stroke-linejoin:round;stroke-miterlimit:10;}
	.st95{fill:#FFFFFF;stroke:#45413C;stroke-miterlimit:10;}
	.st96{fill:#009FD9;}
	.st97{fill:#00DFEB;}
	.st98{fill:#C0DCEB;stroke:#45413C;stroke-linecap:round;stroke-linejoin:round;stroke-miterlimit:10;}
	.st99{fill:#00DFEB;stroke:#45413C;stroke-linecap:round;stroke-linejoin:round;stroke-miterlimit:10;}
	.st100{fill:#FFE5EE;stroke:#45413C;stroke-linecap:round;stroke-linejoin:round;stroke-miterlimit:10;}
	.st101{fill:#8CA4B8;}
	.st102{fill:#ADC4D9;}
	.st103{fill:#656769;stroke:#45413C;stroke-linecap:round;stroke-linejoin:round;stroke-miterlimit:10;}
	.st104{fill:#F0F0F0;stroke:#45413C;stroke-linecap:round;stroke-linejoin:round;stroke-miterlimit:10;}
	.st105{fill:#C0DCEB;}
	.st106{fill:#45413C;}
	.st107{fill:#FFCABF;}
	.st108{fill:#87898C;stroke:#45413C;stroke-linecap:round;stroke-linejoin:round;stroke-miterlimit:10;}
	.st109{fill:#EBCB00;stroke:#45413C;stroke-linecap:round;stroke-linejoin:round;stroke-miterlimit:10;}</style>
  <g
     transform="translate(-53.097177,-13.60079)"
     fill="#5e4aa6"
     stroke-width="0.26458"
     id="g879">
    <circle
       cx="-330.38"
       cy="-328.51001"
       r="0"
       id="circle867" />
    <circle
       cx="-301.70999"
       cy="-344.42999"
       r="0"
       id="circle869" />
    <circle
       cx="-259.01001"
       cy="-348.26001"
       r="0"
       id="circle871" />
    <circle
       cx="31.886"
       cy="-13.442"
       r="0"
       fill-rule="evenodd"
       id="circle873" />
    <circle
       cx="-257.29001"
       cy="-350.64999"
       r="0"
       id="circle875" />
    <circle
       cx="33.611"
       cy="-15.826"
       r="0"
       fill-rule="evenodd"
       id="circle877" />
  </g>
</svg>
