<?xml version="1.0" encoding="UTF-8" standalone="no"?>
<svg
   xmlns:dc="http://purl.org/dc/elements/1.1/"
   xmlns:cc="http://creativecommons.org/ns#"
   xmlns:rdf="http://www.w3.org/1999/02/22-rdf-syntax-ns#"
   xmlns:svg="http://www.w3.org/2000/svg"
   xmlns="http://www.w3.org/2000/svg"
   xmlns:xlink="http://www.w3.org/1999/xlink"
   xmlns:sodipodi="http://sodipodi.sourceforge.net/DTD/sodipodi-0.dtd"
   xmlns:inkscape="http://www.inkscape.org/namespaces/inkscape"
   width="64"
   height="64"
   version="1.1"
   id="svg54"
   sodipodi:docname="godot.svg"
   inkscape:version="1.0.1 (3bc2e813f5, 2020-09-07)">
  <metadata
     id="metadata58">
    <rdf:RDF>
      <cc:Work
         rdf:about="">
        <dc:format>image/svg+xml</dc:format>
        <dc:type
           rdf:resource="http://purl.org/dc/dcmitype/StillImage" />
        <dc:title></dc:title>
      </cc:Work>
    </rdf:RDF>
  </metadata>
  <sodipodi:namedview
     pagecolor="#ffffff"
     bordercolor="#666666"
     borderopacity="1"
     objecttolerance="10"
     gridtolerance="10"
     guidetolerance="10"
     inkscape:pageopacity="0"
     inkscape:pageshadow="2"
     inkscape:window-width="1920"
     inkscape:window-height="942"
     id="namedview56"
     showgrid="false"
     inkscape:zoom="6.0546875"
     inkscape:cx="9.9291872"
     inkscape:cy="42.75189"
     inkscape:window-x="0"
     inkscape:window-y="38"
     inkscape:window-maximized="1"
     inkscape:current-layer="svg54" />
  <defs
     id="defs32">
    <linearGradient
       inkscape:collect="always"
       id="linearGradient2932">
      <stop
         style="stop-color:#00a8f1;stop-opacity:1"
         offset="0"
         id="stop2928" />
      <stop
         style="stop-color:#0093ed;stop-opacity:1"
         offset="1"
         id="stop2930" />
    </linearGradient>
    <linearGradient
       id="a">
      <stop
         stop-color="#505050"
         offset="0"
         id="stop2" />
      <stop
         stop-color="#232323"
         offset="1"
         id="stop4" />
    </linearGradient>
    <linearGradient
       id="b"
       x1="408.25"
       x2="407.94"
       y1="547.6"
       y2="498.89"
       gradientTransform="matrix(1.3276,0,0,1.3276,-480.62154,-678.75956)"
       gradientUnits="userSpaceOnUse">
      <stop
         stop-color="#fff"
         offset="0"
         id="stop7" />
      <stop
         stop-color="#e6e6e6"
         offset="1"
         id="stop9" />
    </linearGradient>
    <filter
       id="d"
       x="-.058883"
       y="-.061161"
       width="1.1178"
       height="1.1223"
       color-interpolation-filters="sRGB">
      <feGaussianBlur
         stdDeviation="10.562379"
         id="feGaussianBlur12" />
    </filter>
    <filter
       id="c"
       x="-.036"
       y="-.036"
       width="1.072"
       height="1.072"
       color-interpolation-filters="sRGB">
      <feGaussianBlur
         stdDeviation="0.88972449"
         id="feGaussianBlur15" />
    </filter>
    <filter
       x="-.05999"
       y="-.06001"
       width="1.12"
       height="1.12"
       color-interpolation-filters="sRGB"
       id="filter20">
      <feGaussianBlur
         stdDeviation="0.21163584"
         id="feGaussianBlur18" />
    </filter>
    <linearGradient
       id="g"
       x1="32"
       x2="32"
       y1="17.238"
       y2="46.762"
       gradientUnits="userSpaceOnUse"
       gradientTransform="matrix(1.2607609,0,0,1.2607609,60.123512,-8.3439029)">
      <stop
         stop-color="#476fbf"
         offset="0"
         id="stop22"
         style="stop-color:#00a8f1;stop-opacity:1" />
      <stop
         stop-color="#47aebf"
         offset="1"
         id="stop24"
         style="stop-color:#0093ed;stop-opacity:1" />
    </linearGradient>
    <linearGradient
       id="f"
       x1="22.704"
       x2="22.704"
       y1="42.59"
       y2="45.59"
       gradientUnits="userSpaceOnUse"
       xlink:href="#a"
       gradientTransform="matrix(1.6810145,0,0,1.6810145,-15.410287,-41.394329)" />
    <linearGradient
       id="e"
       x1="33.704"
       x2="33.704"
       y1="42.59"
       y2="45.59"
       gradientUnits="userSpaceOnUse"
       xlink:href="#a"
       gradientTransform="matrix(1.6810145,0,0,1.6810145,-15.410287,-41.394329)" />
    <filter
       id="h"
       x="-.057678"
       y="-.062517"
       width="1.1154"
       height="1.125"
       color-interpolation-filters="sRGB">
      <feGaussianBlur
         stdDeviation="0.57678086"
         id="feGaussianBlur29" />
    </filter>
    <linearGradient
       id="linearGradient947"
       x1="31.952"
       x2="31.952"
       y1="49.045"
       y2="12.132"
       gradientUnits="userSpaceOnUse"
       gradientTransform="translate(-62.829322,-78.021916)">
      <stop
         stop-color="#282828"
         offset="0"
         id="stop885" />
      <stop
         stop-color="#505050"
         offset="1"
         id="stop887" />
    </linearGradient>
    <linearGradient
       id="linearGradient1159-3"
       x1="-184.75"
       x2="-170.2"
       y1="-1.2655"
       y2="-15.817"
       gradientTransform="matrix(3.7796,0,0,3.7796,702.82,64.286999)"
       gradientUnits="userSpaceOnUse">
      <stop
         stop-color="#cfddef"
         offset="0"
         id="stop890" />
      <stop
         stop-color="#f4f9ff"
         offset="1"
         id="stop892" />
    </linearGradient>
    <linearGradient
       id="linearGradient3888">
      <stop
         stop-color="#d7eafb"
         offset="0"
         id="stop938" />
      <stop
         stop-color="#f7fafe"
         offset=".1241"
         id="stop940" />
      <stop
         stop-color="#edf6fb"
         offset=".7851"
         id="stop942" />
      <stop
         stop-color="#dfeefc"
         offset=".84074"
         id="stop944" />
      <stop
         stop-color="#ecf5fe"
         offset="1"
         id="stop946" />
    </linearGradient>
    <clipPath
       id="clipPath13429">
      <path
         d="m481 318h22v22h-22z"
         id="path949" />
    </clipPath>
    <clipPath
       id="clipPath13465">
      <path
         d="m507 318h22v22h-22z"
         id="path952" />
    </clipPath>
    <clipPath
       id="clipPath13501">
      <path
         d="m530 318h22v22h-22z"
         id="path955" />
    </clipPath>
    <clipPath
       id="clipPath13753">
      <path
         d="m672 1064c0-1.105 4.925-2 11-2s11 0.895 11 2-4.925 2-11 2-11-0.895-11-2"
         id="path958" />
    </clipPath>
    <clipPath
       id="clipPath13771">
      <path
         d="m660 1057h51v65.001h-51z"
         id="path961" />
    </clipPath>
    <clipPath
       id="clipPath14035">
      <path
         d="m659 517h53v18h-53z"
         id="path964" />
    </clipPath>
    <clipPath
       id="clipPath14127">
      <path
         d="m659 500h53v18h-53z"
         id="path967" />
    </clipPath>
    <clipPath
       id="clipPath14445">
      <path
         d="m648 112h73v60h-73z"
         id="path970" />
    </clipPath>
    <clipPath
       id="clipPath14609">
      <path
         d="m826 1056h59v60h-59z"
         id="path973" />
    </clipPath>
    <clipPath
       id="clipPath15305">
      <path
         d="m805 276h100v100h-100z"
         id="path976" />
    </clipPath>
    <clipPath
       id="clipPath15341">
      <path
         d="m145 1063.8h74.152v45.21h-74.152z"
         id="path979" />
    </clipPath>
    <clipPath
       id="clipPath15715">
      <path
         d="m151 667h57v57h-57z"
         id="path982" />
    </clipPath>
    <clipPath
       id="clipPath15807">
      <path
         d="m154 697h51v51h-51z"
         id="path985" />
    </clipPath>
    <clipPath
       id="clipPath16001">
      <path
         d="m500.04 864.45h36.012v67.52h-36.012z"
         id="path988" />
    </clipPath>
    <clipPath
       id="clipPath16093">
      <path
         d="m836 870.54h47v55.539h-47z"
         id="path991" />
    </clipPath>
    <clipPath
       id="clipPath16477">
      <path
         d="m318.03 702.35h62.848v37.991h-62.848z"
         id="path994" />
    </clipPath>
    <clipPath
       id="clipPath16579">
      <path
         d="m485.03 133.35h62.847v37.991h-62.847z"
         id="path997" />
    </clipPath>
    <clipPath
       id="clipPath16709">
      <path
         d="m493.37 677.93h45.643v68.067h-45.643z"
         id="path1000" />
    </clipPath>
    <clipPath
       id="clipPath24218">
      <path
         d="m144.34 1018.2h71.467v78h-71.467z"
         id="path1003" />
    </clipPath>
    <clipPath
       id="clipPath24382">
      <path
         d="m293.21 1068.6 66.323-38.292 36.047 62.435-66.323 38.292z"
         id="path1006" />
    </clipPath>
    <clipPath
       id="clipPath24650">
      <path
         d="m488.86 1054.5h10v10.706h-10z"
         id="path1009" />
    </clipPath>
    <clipPath
       id="clipPath24700">
      <path
         d="m508 1066.8h10.001v10.705h-10.001z"
         id="path1012" />
    </clipPath>
    <clipPath
       id="clipPath24750">
      <path
         d="m525 1045.8h10v10.706h-10z"
         id="path1015" />
    </clipPath>
    <clipPath
       id="clipPath24864">
      <path
         d="m836 1043.7h25.5v31.5h-25.5z"
         id="path1018" />
    </clipPath>
    <clipPath
       id="clipPath24896">
      <path
         d="m838 1062.2h24v24h-24z"
         id="path1021" />
    </clipPath>
    <clipPath
       id="clipPath25070">
      <path
         d="m134 489.24h7v6h-7z"
         id="path1024" />
    </clipPath>
    <clipPath
       id="clipPath25100">
      <path
         d="m216 489.24h7v6h-7z"
         id="path1027" />
    </clipPath>
    <clipPath
       id="clipPath25502">
      <path
         d="m838 477.24h22v22h-22z"
         id="path1030" />
    </clipPath>
    <clipPath
       id="clipPath25686">
      <path
         d="m704 1061.2h25v25h-25z"
         id="path1033" />
    </clipPath>
    <clipPath
       id="clipPath25788">
      <path
         d="m663.04 1078.6-1.808-3.514-21.07-47.453c13.336-18.439 48.336-26.938 73.836-3.439 0.842 0 6.476 6.246 6 7l-18.386 25.895c-0.483 0.765-1.453 0.946-2.177 0.431l-15.505-11.011c-0.359-0.255-0.847-0.153-1.07 0.238l-18.272 31.869c-0.218 0.384-0.502 0.578-0.782 0.578-0.282 0-0.561-0.197-0.766-0.594"
         id="path1036" />
    </clipPath>
    <clipPath
       id="clipPath26420">
      <path
         d="m127 820.24h100v100h-100z"
         id="path1039" />
    </clipPath>
    <clipPath
       id="clipPath26860">
      <path
         d="m809 680.24c0-22.092 17.908-40 40-40s40 17.908 40 40c0 22.091-17.908 40-40 40s-40-17.909-40-40"
         id="path1042" />
    </clipPath>
    <clipPath
       id="clipPath27506">
      <path
         d="m658 469.24h44v45h-44z"
         id="path1045" />
    </clipPath>
    <clipPath
       id="clipPath27772">
      <path
         d="m651 271.24h58v58h-58z"
         id="path1048" />
    </clipPath>
    <clipPath
       id="clipPath27864">
      <path
         d="m662 307.24h38v8h-38z"
         id="path1051" />
    </clipPath>
    <clipPath
       id="clipPath28028">
      <path
         d="m858.98 137.24c0.013-0.101 0.021-0.203 0.021-0.307v-6.693h15.75c1.237 0 2.25-1.013 2.25-2.25v-11.25l-27-4.5-27 4.5v-2.25l27-4.5 27 4.5v-27c0-1.237-1.013-2.25-2.25-2.25h-49.5c-1.237 0-2.25 1.013-2.25 2.25v-4.25h54v54zm-35.979 0v-9.25c0 1.237 1.013 2.25 2.25 2.25h15.75v6.693c0 0.104 7e-3 0.207 0.02 0.307zm22.5-7h9v4.5h-9zm1.125-9c-0.62 0-1.125-0.506-1.125-1.125v-2.25c0-0.619 0.505-1.125 1.125-1.125h6.75c0.619 0 1.125 0.506 1.125 1.125v2.25c0 0.619-0.506 1.125-1.125 1.125z"
         id="path1054" />
    </clipPath>
    <clipPath
       id="clipPath28200">
      <path
         d="m531.27 136.24c6.325-2.29 10.727-8.277 10.727-15.484 0-11.316-10.2-20.563-25.65-34.575l-4.35-3.941-4.35 3.941c-15.45 14.012-25.65 23.259-25.65 34.575v-39.516h60v55zm-26.983 0c2.995-1.052 5.686-2.883 7.71-5.25 2.024 2.367 4.715 4.198 7.71 5.25zm-22.29 0v-15.484c0 7.207 4.402 13.194 10.727 15.484z"
         id="path1057" />
    </clipPath>
    <clipPath
       id="clipPath28364">
      <path
         d="m648 79.241h64v64h-64z"
         id="path1060" />
    </clipPath>
    <clipPath
       id="clipPath28984">
      <path
         d="m500 691.74c0-3.037 2.463-5.5 5.5-5.5s5.5 2.463 5.5 5.5-2.463 5.5-5.5 5.5-5.5-2.463-5.5-5.5"
         id="path1063" />
    </clipPath>
    <clipPath
       id="clipPath29012">
      <path
         d="m500 669.74c0-3.037 2.463-5.5 5.5-5.5s5.5 2.463 5.5 5.5c0 3.038-2.463 5.5-5.5 5.5s-5.5-2.462-5.5-5.5"
         id="path1066" />
    </clipPath>
    <clipPath
       id="clipPath29040">
      <path
         d="m494 680.74c0-3.037 2.462-5.5 5.5-5.5s5.5 2.463 5.5 5.5c0 3.038-2.462 5.5-5.5 5.5s-5.5-2.462-5.5-5.5"
         id="path1069" />
    </clipPath>
    <clipPath
       id="clipPath29068">
      <path
         d="m513 691.74c0-3.037 2.463-5.5 5.5-5.5s5.5 2.463 5.5 5.5-2.463 5.5-5.5 5.5-5.5-2.463-5.5-5.5"
         id="path1072" />
    </clipPath>
    <clipPath
       id="clipPath29096">
      <path
         d="m513 669.74c0-3.037 2.463-5.5 5.5-5.5s5.5 2.463 5.5 5.5c0 3.038-2.463 5.5-5.5 5.5s-5.5-2.462-5.5-5.5"
         id="path1075" />
    </clipPath>
    <clipPath
       id="clipPath29124">
      <path
         d="m507 680.74c0-3.037 2.463-5.5 5.5-5.5s5.5 2.463 5.5 5.5c0 3.038-2.463 5.5-5.5 5.5s-5.5-2.462-5.5-5.5"
         id="path1078" />
    </clipPath>
    <clipPath
       id="clipPath29152">
      <path
         d="m520 680.74c0-3.037 2.463-5.5 5.5-5.5s5.5 2.463 5.5 5.5c0 3.038-2.463 5.5-5.5 5.5s-5.5-2.462-5.5-5.5"
         id="path1081" />
    </clipPath>
    <clipPath
       id="clipPath29252">
      <path
         d="m321 322.24c-4.97 0-9-4.029-9-9 0-4.97 4.03-9 9-9h45c4.971 0 9 4.03 9 9 0 4.971-4.029 9-9 9z"
         id="path1084" />
    </clipPath>
    <clipPath
       id="clipPath29280">
      <path
         d="m322 297.24c-4.971 0-9-4.029-9-9 0-4.97 4.029-9 9-9h45c4.971 0 9 4.03 9 9 0 4.971-4.029 9-9 9z"
         id="path1087" />
    </clipPath>
    <clipPath
       id="clipPath29400">
      <path
         d="m155 83.24h44v53h-44z"
         id="path1090" />
    </clipPath>
    <clipPath
       id="clipPath13429-6">
      <path
         d="m481 318h22v22h-22z"
         id="path1093" />
    </clipPath>
    <clipPath
       id="clipPath13465-0">
      <path
         d="m507 318h22v22h-22z"
         id="path1096" />
    </clipPath>
    <clipPath
       id="clipPath13501-6">
      <path
         d="m530 318h22v22h-22z"
         id="path1099" />
    </clipPath>
    <clipPath
       id="clipPath13753-2">
      <path
         d="m672 1064c0-1.105 4.925-2 11-2s11 0.895 11 2-4.925 2-11 2-11-0.895-11-2"
         id="path1102" />
    </clipPath>
    <clipPath
       id="clipPath13771-6">
      <path
         d="m660 1057h51v65.001h-51z"
         id="path1105" />
    </clipPath>
    <clipPath
       id="clipPath14035-1">
      <path
         d="m659 517h53v18h-53z"
         id="path1108" />
    </clipPath>
    <clipPath
       id="clipPath14127-8">
      <path
         d="m659 500h53v18h-53z"
         id="path1111" />
    </clipPath>
    <clipPath
       id="clipPath14445-7">
      <path
         d="m648 112h73v60h-73z"
         id="path1114" />
    </clipPath>
    <clipPath
       id="clipPath14609-9">
      <path
         d="m826 1056h59v60h-59z"
         id="path1117" />
    </clipPath>
    <clipPath
       id="clipPath15305-2">
      <path
         d="m805 276h100v100h-100z"
         id="path1120" />
    </clipPath>
    <clipPath
       id="clipPath15341-0">
      <path
         d="m145 1063.8h74.152v45.21h-74.152z"
         id="path1123" />
    </clipPath>
    <clipPath
       id="clipPath15715-2">
      <path
         d="m151 667h57v57h-57z"
         id="path1126" />
    </clipPath>
    <clipPath
       id="clipPath15807-3">
      <path
         d="m154 697h51v51h-51z"
         id="path1129" />
    </clipPath>
    <clipPath
       id="clipPath16001-7">
      <path
         d="m500.04 864.45h36.012v67.52h-36.012z"
         id="path1132" />
    </clipPath>
    <clipPath
       id="clipPath16093-5">
      <path
         d="m836 870.54h47v55.539h-47z"
         id="path1135" />
    </clipPath>
    <clipPath
       id="clipPath16477-9">
      <path
         d="m318.03 702.35h62.848v37.991h-62.848z"
         id="path1138" />
    </clipPath>
    <clipPath
       id="clipPath16579-2">
      <path
         d="m485.03 133.35h62.847v37.991h-62.847z"
         id="path1141" />
    </clipPath>
    <clipPath
       id="clipPath16709-2">
      <path
         d="m493.37 677.93h45.643v68.067h-45.643z"
         id="path1144" />
    </clipPath>
    <clipPath
       id="clipPath24218-8">
      <path
         d="m144.34 1018.2h71.467v78h-71.467z"
         id="path1147" />
    </clipPath>
    <clipPath
       id="clipPath24382-9">
      <path
         d="m293.21 1068.6 66.323-38.292 36.047 62.435-66.323 38.292z"
         id="path1150" />
    </clipPath>
    <clipPath
       id="clipPath24650-7">
      <path
         d="m488.86 1054.5h10v10.706h-10z"
         id="path1153" />
    </clipPath>
    <clipPath
       id="clipPath24700-3">
      <path
         d="m508 1066.8h10.001v10.705h-10.001z"
         id="path1156" />
    </clipPath>
    <clipPath
       id="clipPath24750-6">
      <path
         d="m525 1045.8h10v10.706h-10z"
         id="path1159" />
    </clipPath>
    <clipPath
       id="clipPath24864-1">
      <path
         d="m836 1043.7h25.5v31.5h-25.5z"
         id="path1162" />
    </clipPath>
    <clipPath
       id="clipPath24896-2">
      <path
         d="m838 1062.2h24v24h-24z"
         id="path1165" />
    </clipPath>
    <clipPath
       id="clipPath25070-9">
      <path
         d="m134 489.24h7v6h-7z"
         id="path1168" />
    </clipPath>
    <clipPath
       id="clipPath25100-3">
      <path
         d="m216 489.24h7v6h-7z"
         id="path1171" />
    </clipPath>
    <clipPath
       id="clipPath25502-1">
      <path
         d="m838 477.24h22v22h-22z"
         id="path1174" />
    </clipPath>
    <clipPath
       id="clipPath25686-9">
      <path
         d="m704 1061.2h25v25h-25z"
         id="path1177" />
    </clipPath>
    <clipPath
       id="clipPath25788-4">
      <path
         d="m663.04 1078.6-1.808-3.514-21.07-47.453c13.336-18.439 48.336-26.938 73.836-3.439 0.842 0 6.476 6.246 6 7l-18.386 25.895c-0.483 0.765-1.453 0.946-2.177 0.431l-15.505-11.011c-0.359-0.255-0.847-0.153-1.07 0.238l-18.272 31.869c-0.218 0.384-0.502 0.578-0.782 0.578-0.282 0-0.561-0.197-0.766-0.594"
         id="path1180" />
    </clipPath>
    <clipPath
       id="clipPath26420-7">
      <path
         d="m127 820.24h100v100h-100z"
         id="path1183" />
    </clipPath>
    <clipPath
       id="clipPath26860-8">
      <path
         d="m809 680.24c0-22.092 17.908-40 40-40s40 17.908 40 40c0 22.091-17.908 40-40 40s-40-17.909-40-40"
         id="path1186" />
    </clipPath>
    <clipPath
       id="clipPath27506-4">
      <path
         d="m658 469.24h44v45h-44z"
         id="path1189" />
    </clipPath>
    <clipPath
       id="clipPath27772-5">
      <path
         d="m651 271.24h58v58h-58z"
         id="path1192" />
    </clipPath>
    <clipPath
       id="clipPath27864-0">
      <path
         d="m662 307.24h38v8h-38z"
         id="path1195" />
    </clipPath>
    <clipPath
       id="clipPath28028-3">
      <path
         d="m858.98 137.24c0.013-0.101 0.021-0.203 0.021-0.307v-6.693h15.75c1.237 0 2.25-1.013 2.25-2.25v-11.25l-27-4.5-27 4.5v-2.25l27-4.5 27 4.5v-27c0-1.237-1.013-2.25-2.25-2.25h-49.5c-1.237 0-2.25 1.013-2.25 2.25v-4.25h54v54zm-35.979 0v-9.25c0 1.237 1.013 2.25 2.25 2.25h15.75v6.693c0 0.104 7e-3 0.207 0.02 0.307zm22.5-7h9v4.5h-9zm1.125-9c-0.62 0-1.125-0.506-1.125-1.125v-2.25c0-0.619 0.505-1.125 1.125-1.125h6.75c0.619 0 1.125 0.506 1.125 1.125v2.25c0 0.619-0.506 1.125-1.125 1.125z"
         id="path1198" />
    </clipPath>
    <clipPath
       id="clipPath28200-6">
      <path
         d="m531.27 136.24c6.325-2.29 10.727-8.277 10.727-15.484 0-11.316-10.2-20.563-25.65-34.575l-4.35-3.941-4.35 3.941c-15.45 14.012-25.65 23.259-25.65 34.575v-39.516h60v55zm-26.983 0c2.995-1.052 5.686-2.883 7.71-5.25 2.024 2.367 4.715 4.198 7.71 5.25zm-22.29 0v-15.484c0 7.207 4.402 13.194 10.727 15.484z"
         id="path1201" />
    </clipPath>
    <clipPath
       id="clipPath28364-1">
      <path
         d="m648 79.241h64v64h-64z"
         id="path1204" />
    </clipPath>
    <clipPath
       id="clipPath28984-0">
      <path
         d="m500 691.74c0-3.037 2.463-5.5 5.5-5.5s5.5 2.463 5.5 5.5-2.463 5.5-5.5 5.5-5.5-2.463-5.5-5.5"
         id="path1207" />
    </clipPath>
    <clipPath
       id="clipPath29012-6">
      <path
         d="m500 669.74c0-3.037 2.463-5.5 5.5-5.5s5.5 2.463 5.5 5.5c0 3.038-2.463 5.5-5.5 5.5s-5.5-2.462-5.5-5.5"
         id="path1210" />
    </clipPath>
    <clipPath
       id="clipPath29040-3">
      <path
         d="m494 680.74c0-3.037 2.462-5.5 5.5-5.5s5.5 2.463 5.5 5.5c0 3.038-2.462 5.5-5.5 5.5s-5.5-2.462-5.5-5.5"
         id="path1213" />
    </clipPath>
    <clipPath
       id="clipPath29068-2">
      <path
         d="m513 691.74c0-3.037 2.463-5.5 5.5-5.5s5.5 2.463 5.5 5.5-2.463 5.5-5.5 5.5-5.5-2.463-5.5-5.5"
         id="path1216" />
    </clipPath>
    <clipPath
       id="clipPath29096-0">
      <path
         d="m513 669.74c0-3.037 2.463-5.5 5.5-5.5s5.5 2.463 5.5 5.5c0 3.038-2.463 5.5-5.5 5.5s-5.5-2.462-5.5-5.5"
         id="path1219" />
    </clipPath>
    <clipPath
       id="clipPath29124-6">
      <path
         d="m507 680.74c0-3.037 2.463-5.5 5.5-5.5s5.5 2.463 5.5 5.5c0 3.038-2.463 5.5-5.5 5.5s-5.5-2.462-5.5-5.5"
         id="path1222" />
    </clipPath>
    <clipPath
       id="clipPath29152-1">
      <path
         d="m520 680.74c0-3.037 2.463-5.5 5.5-5.5s5.5 2.463 5.5 5.5c0 3.038-2.463 5.5-5.5 5.5s-5.5-2.462-5.5-5.5"
         id="path1225" />
    </clipPath>
    <clipPath
       id="clipPath29252-5">
      <path
         d="m321 322.24c-4.97 0-9-4.029-9-9 0-4.97 4.03-9 9-9h45c4.971 0 9 4.03 9 9 0 4.971-4.029 9-9 9z"
         id="path1228" />
    </clipPath>
    <clipPath
       id="clipPath29280-5">
      <path
         d="m322 297.24c-4.971 0-9-4.029-9-9 0-4.97 4.029-9 9-9h45c4.971 0 9 4.03 9 9 0 4.971-4.029 9-9 9z"
         id="path1231" />
    </clipPath>
    <clipPath
       id="clipPath29400-4">
      <path
         d="m155 83.24h44v53h-44z"
         id="path1234" />
    </clipPath>
    <linearGradient
       id="a-3"
       x1="99.036"
       x2="99.036"
       y1="-.50472"
       y2="199.84"
       gradientTransform="matrix(0.079373,0,0,0.079373,0.52919,0.52915)"
       gradientUnits="userSpaceOnUse">
      <stop
         stop-color="#00a8f1"
         offset="0"
         id="stop1237" />
      <stop
         stop-color="#0093ed"
         offset="1"
         id="stop1239" />
    </linearGradient>
    <linearGradient
       id="linearGradient3787"
       x1="84.22"
       x2="84.22"
       y1="11.58"
       y2="14.802"
       gradientUnits="userSpaceOnUse">
      <stop
         stop-color="#fff"
         offset="0"
         id="stop1242" />
      <stop
         stop-color="#bdd9fb"
         offset=".051181"
         id="stop1244" />
      <stop
         stop-color="#8bc5f5"
         offset=".85827"
         id="stop1246" />
      <stop
         stop-color="#7fc5f5"
         offset="1"
         id="stop1248" />
    </linearGradient>
    <linearGradient
       id="linearGradient3871"
       x1="313.57"
       x2="318.45"
       y1="22.23"
       y2="24.271"
       gradientUnits="userSpaceOnUse">
      <stop
         stop-color="#f5ad5c"
         offset="0"
         id="stop1251" />
      <stop
         stop-color="#e98f58"
         offset="1"
         id="stop1253" />
    </linearGradient>
    <linearGradient
       id="linearGradient3890"
       x1="320.3"
       x2="325.61"
       y1="10.191"
       y2="13.513"
       gradientUnits="userSpaceOnUse"
       xlink:href="#linearGradient3888" />
    <linearGradient
       id="linearGradient3904"
       x1="328.55"
       x2="333.87"
       y1="-3.2207"
       y2=".029296"
       gradientUnits="userSpaceOnUse">
      <stop
         stop-color="#5b7586"
         offset="0"
         id="stop1257" />
      <stop
         stop-color="#eeedee"
         offset=".35949"
         id="stop1259" />
      <stop
         stop-color="#7592a5"
         offset=".73723"
         id="stop1261" />
      <stop
         stop-color="#f0f9fc"
         offset="1"
         id="stop1263" />
    </linearGradient>
    <linearGradient
       id="linearGradient3916"
       x1="330.09"
       x2="335.32"
       y1="-5.5021"
       y2="-2.5959"
       gradientUnits="userSpaceOnUse">
      <stop
         stop-color="#f9916a"
         offset="0"
         id="stop1266" />
      <stop
         stop-color="#ff8e77"
         offset=".5262"
         id="stop1268" />
      <stop
         stop-color="#db6f66"
         offset="1"
         id="stop1270" />
    </linearGradient>
    <linearGradient
       id="linearGradient3948"
       x1="365.23"
       x2="372.26"
       y1=".18723"
       y2="8.5877"
       gradientUnits="userSpaceOnUse">
      <stop
         stop-color="#e78a54"
         offset="0"
         id="stop1273" />
      <stop
         stop-color="#e58651"
         offset=".067938"
         id="stop1275" />
      <stop
         stop-color="#ef9a5b"
         offset=".32262"
         id="stop1277" />
      <stop
         stop-color="#fbb365"
         offset=".5445"
         id="stop1279" />
      <stop
         stop-color="#fab969"
         offset=".91984"
         id="stop1281" />
      <stop
         stop-color="#fe9e49"
         offset="1"
         id="stop1283" />
    </linearGradient>
    <linearGradient
       id="linearGradient3966"
       x1="361.89"
       x2="366.1"
       y1="-.86426"
       y2="-3.3955"
       gradientUnits="userSpaceOnUse">
      <stop
         stop-color="#5b7586"
         offset="0"
         id="stop1286" />
      <stop
         stop-color="#6d93b1"
         offset=".29189"
         id="stop1288" />
      <stop
         stop-color="#edf0f3"
         offset=".73723"
         id="stop1290" />
      <stop
         stop-color="#7795ac"
         offset="1"
         id="stop1292" />
    </linearGradient>
    <linearGradient
       id="linearGradient3984"
       x1="355.3"
       x2="360.33"
       y1="-11.943"
       y2="-15.006"
       gradientUnits="userSpaceOnUse"
       xlink:href="#linearGradient3888" />
    <filter
       id="filter4061"
       x="-.036655"
       y="-.16524"
       width="1.0733"
       height="1.3305"
       color-interpolation-filters="sRGB">
      <feGaussianBlur
         stdDeviation="0.21657465"
         id="feGaussianBlur1296" />
    </filter>
    <filter
       id="filter4089"
       x="-.074273"
       y="-.050329"
       width="1.1485"
       height="1.1007"
       color-interpolation-filters="sRGB">
      <feGaussianBlur
         stdDeviation="0.18887916"
         id="feGaussianBlur1299" />
    </filter>
    <filter
       id="filter4101"
       x="-.074803"
       y="-.050088"
       width="1.1496"
       height="1.1002"
       color-interpolation-filters="sRGB">
      <feGaussianBlur
         stdDeviation="0.22294494"
         id="feGaussianBlur1302" />
    </filter>
    <linearGradient
       inkscape:collect="always"
       xlink:href="#linearGradient2932"
       id="linearGradient2934"
       x1="-38.232422"
       y1="13.388672"
       x2="-38.232422"
       y2="50.942459"
       gradientUnits="userSpaceOnUse"
       gradientTransform="translate(74.432617)" />
  </defs>
  <rect
     x="4.4995003"
     y="4.4995003"
     width="55.000999"
     height="55.000999"
     ry="4.5876999"
     fill="url(#linearGradient1159-3)"
     stroke-width="3.7796"
     id="rect897"
     style="fill:url(#linearGradient1159-3)" />
  <g
     transform="matrix(1.6810145,0,0,1.6810145,-15.411173,-41.393696)"
     filter="url(#h)"
     opacity="0.15"
     stroke-width="0.75"
     id="g44">
    <path
       transform="matrix(0.75,0,0,0.75,4.2034,19.661)"
       d="m 28.666,17.238 -3.957,1.334 0.625,4 -3.416,1.875 -1.918,-1.875 -4,4 2.666,2.666 v 7.25 l 0.66797,0.04297 v 2.166 l 2.666,1.041 v -2.291 c 1.98,0.43067 2.872,0.61636 4,0.70703 v 2.084 l 2.666,0.79297 v -2.459 h 3.334 3.334 v 2.459 l 2.666,-0.79297 v -2.084 c 1.128,-0.09067 2.02,-0.27636 4,-0.70703 v 2.291 l 2.666,-1.041 v -2.166 L 45.33394,36.488 v -7.25 l 2.666,-2.666 -4,-4 -1.918,1.875 -3.416,-1.875 0.625,-4 -3.959,-1.334 -1.5,2.666 h -1.834 -1.832 l -1.5,-2.666 z m -3.998,12 c 1.8413,0 3.334,1.4927 3.334,3.334 0,1.8413 -1.4927,3.332 -3.334,3.332 -1.8413,0 -3.334,-1.4907 -3.334,-3.332 0,-1.8413 1.4927,-3.334 3.334,-3.334 z m 14.666,0 c 1.8413,0 3.334,1.4927 3.334,3.334 0,1.8413 -1.4927,3.332 -3.334,3.332 -1.8413,0 -3.332,-1.4907 -3.332,-3.332 0,-1.8413 1.4907,-3.334 3.332,-3.334 z m -7.332,2.666 c 0.73867,0 1.332,0.59532 1.332,1.334 v 2.666 c 0,0.73867 -0.59336,1.334 -1.332,1.334 -0.73864,0 -1.334,-0.59532 -1.334,-1.334 v -2.666 c 0,-0.73867 0.59532,-1.334 1.334,-1.334 z m -15.584,4.668 0.04297,2.666 c 3.2213,4.9213 8.0797,7.8147 15.541,7.5 7.4653,0.31467 12.32,-2.5787 15.541,-7.5 l 0.04102,-2.666 -2.25,0.70703 v 1.959 c -0.652,0.42 -2.6667,0.97132 -4,1.334 v -2.168 l -2.668,0.41797 v 1.75 c -0.75467,0.63733 -2.1613,1.058 -4,1.334 V 39.24 h -2.666 -2.666 v 2.666 c -1.8387,-0.276 -3.2453,-0.69665 -4,-1.334 v -1.75 l -2.668,-0.41797 v 2.168 c -1.3333,-0.36267 -3.348,-0.91398 -4,-1.334 v -1.959 l -2.248,-0.70703 z"
       id="path38" />
    <path
       d="m 24.204,44.09 a 1.5,1.5 0 1 1 -3,0 1.5,1.5 0 1 1 3,0 z"
       id="path40" />
    <path
       d="m 35.204,44.09 a 1.5,1.5 0 1 1 -3,0 1.5,1.5 0 1 1 3,0 z"
       id="path42" />
  </g>
  <path
     d="m 25.276988,32.7216 a 2.521522,2.521522 0 1 1 -5.043044,0 2.521522,2.521522 0 1 1 5.043044,0 z"
     fill="url(#f)"
     id="path48"
     style="fill:url(#f);stroke-width:1.68101" />
  <path
     d="m 43.768147,32.7216 a 2.5215218,2.5215218 0 1 1 -5.043043,0 2.5215218,2.5215218 0 1 1 5.043043,0 z"
     fill="url(#e)"
     id="path50"
     style="fill:url(#e);stroke-width:1.68101" />
  <path
     id="rect2924"
     style="fill:url(#linearGradient2934);fill-opacity:1;stroke-width:0.5;stroke-linecap:round;stroke-linejoin:round;paint-order:stroke fill markers"
     d="m 27.795898,13.388672 -4.988281,1.68164 0.789062,5.042969 -4.30664,2.365235 -2.417969,-2.365235 -5.044922,5.042969 3.361328,3.361328 v 9.140625 l 0.84375,0.05469 v 2.730468 l 3.361329,1.3125 v -2.888671 c 2.496307,0.542971 3.62083,0.778265 5.042968,0.892578 v 2.626953 l 3.359375,1 v -3.101563 h 4.205078 4.203125 v 3.101563 l 3.361328,-1 v -2.626953 c 1.422138,-0.114313 2.546663,-0.349606 5.042969,-0.892578 v 2.888671 l 3.361328,-1.3125 v -2.730468 l 0.841797,-0.05469 v -9.140625 l 3.361328,-3.361328 -5.042968,-5.042969 -2.417969,2.365235 -4.306641,-2.365235 0.78711,-5.042969 -4.992188,-1.68164 L 34.30957,16.75 h -2.3125 -2.308594 z m -5.039062,15.128906 c 2.321439,0 4.203125,1.881686 4.203125,4.203125 0,2.321439 -1.881686,4.201172 -4.203125,4.201172 -2.321439,0 -4.203125,-1.879733 -4.203125,-4.201172 0,-2.321439 1.881686,-4.203125 4.203125,-4.203125 z m 18.490234,0 c 2.321439,0 4.203125,1.881686 4.203125,4.203125 0,2.321439 -1.881686,4.201172 -4.203125,4.201172 -2.32144,0 -4.201172,-1.879733 -4.201172,-4.201172 0,-2.321439 1.879732,-4.203125 4.201172,-4.203125 z m -9.244141,3.361328 c 0.931287,0 1.679688,0.750342 1.679688,1.681641 v 3.361328 c 0,0.931287 -0.74844,1.681641 -1.679688,1.681641 -0.931249,0 -1.68164,-0.750342 -1.68164,-1.681641 v -3.361328 c 0,-0.931286 0.750342,-1.681641 1.68164,-1.681641 z m -19.648437,5.884766 0.05469,3.361328 c 4.06129,6.204583 10.186835,9.853792 19.59375,9.457031 9.411958,0.396724 15.532839,-3.252448 19.59375,-9.457031 l 0.05078,-3.361328 -2.835938,0.892578 V 41.125 c -0.822016,0.52952 -3.361997,1.226341 -5.042968,1.683594 v -2.734375 l -3.363282,0.527343 v 2.207032 c -0.951459,0.803521 -2.724807,1.33367 -5.042968,1.68164 v -3.361328 h -3.361329 -3.361328 v 3.361328 c -2.318161,-0.34797 -4.091471,-0.878094 -5.042969,-1.68164 v -2.207032 l -3.365234,-0.527343 v 2.734375 C 18.550473,42.351354 16.010492,41.654545 15.188476,41.125 v -2.46875 z" />
</svg>
