<?xml version="1.0" encoding="UTF-8" standalone="no"?>
<svg
   xmlns:dc="http://purl.org/dc/elements/1.1/"
   xmlns:cc="http://creativecommons.org/ns#"
   xmlns:rdf="http://www.w3.org/1999/02/22-rdf-syntax-ns#"
   xmlns:svg="http://www.w3.org/2000/svg"
   xmlns="http://www.w3.org/2000/svg"
   xmlns:xlink="http://www.w3.org/1999/xlink"
   xmlns:sodipodi="http://sodipodi.sourceforge.net/DTD/sodipodi-0.dtd"
   xmlns:inkscape="http://www.inkscape.org/namespaces/inkscape"
   inkscape:version="1.0 (4035a4fb49, 2020-05-01)"
   sodipodi:docname="goland.svg"
   id="svg43"
   viewBox="0 0 16.933 16.933"
   version="1.1"
   height="64"
   width="64">
  <metadata
     id="metadata47">
    <rdf:RDF>
      <cc:Work
         rdf:about="">
        <dc:format>image/svg+xml</dc:format>
        <dc:type
           rdf:resource="http://purl.org/dc/dcmitype/StillImage" />
        <dc:title></dc:title>
      </cc:Work>
    </rdf:RDF>
  </metadata>
  <sodipodi:namedview
     inkscape:current-layer="svg43"
     inkscape:window-maximized="1"
     inkscape:window-y="0"
     inkscape:window-x="0"
     inkscape:cy="20.753008"
     inkscape:cx="-20.21748"
     inkscape:zoom="4.5078057"
     showgrid="false"
     id="namedview45"
     inkscape:window-height="985"
     inkscape:window-width="1920"
     inkscape:pageshadow="2"
     inkscape:pageopacity="0"
     guidetolerance="10"
     gridtolerance="10"
     objecttolerance="10"
     borderopacity="1"
     bordercolor="#666666"
     pagecolor="#ffffff" />
  <defs
     id="defs15">
    <filter
       color-interpolation-filters="sRGB"
       height="1.12"
       width="1.12"
       y="-.06"
       x="-.06"
       id="h">
      <feGaussianBlur
         id="feGaussianBlur2"
         stdDeviation="0.85" />
    </filter>
    <linearGradient
       gradientUnits="userSpaceOnUse"
       gradientTransform="matrix(0.26458,0,0,0.26458,-25.036065,0)"
       y2="49"
       y1="15"
       x2="32"
       x1="32"
       id="g">
      <stop
         id="stop5"
         offset="0"
         stop-color="#303030" />
      <stop
         id="stop7"
         offset="1"
         stop-color="#424242" />
    </linearGradient>
    <linearGradient
       gradientUnits="userSpaceOnUse"
       gradientTransform="translate(1086.1639)"
       y2="2.0085"
       y1="14.87"
       x2="7.6938"
       x1="7.6938"
       id="linearGradient912">
      <stop
         id="stop10"
         offset="0"
         stop-color="#3aea62" />
      <stop
         id="stop12"
         offset="1"
         stop-color="#b763fd" />
    </linearGradient>
    <linearGradient
       gradientTransform="matrix(0.26457812,0,0,0.26457812,0,2.684851e-5)"
       inkscape:collect="always"
       xlink:href="#linearGradient995"
       id="linearGradient997"
       x1="2.038218"
       y1="61.669224"
       x2="62.401379"
       y2="2.7041159"
       gradientUnits="userSpaceOnUse" />
    <linearGradient
       inkscape:collect="always"
       id="linearGradient995">
      <stop
         style="stop-color:#3aea62;stop-opacity:1"
         offset="0"
         id="stop991" />
      <stop
         style="stop-color:#b763fd;stop-opacity:1"
         offset="1"
         id="stop993" />
    </linearGradient>
    <linearGradient
       y2="49"
       x2="32"
       y1="15"
       x1="32"
       gradientTransform="matrix(0.26458,0,0,0.26458,-25.036065,0)"
       gradientUnits="userSpaceOnUse"
       id="linearGradient906"
       xlink:href="#g"
       inkscape:collect="always" />
  </defs>
  <path
     id="rect980"
     style="opacity:1;fill:url(#linearGradient997);fill-opacity:1;stroke:none;stroke-width:0.514869;stroke-linecap:round"
     d="m 13.83971,0.49817785 c -0.08053,-0.00631 -0.163068,-0.00459 -0.246492,0.00568 L 1.560081,1.9864297 C 0.892683,2.0686637 0.421602,2.6724108 0.503835,3.3398088 L 1.986403,15.372946 c 0.08223,0.667398 0.685981,1.138479 1.353379,1.056246 l 12.033137,-1.482568 c 0.667398,-0.08223 1.138479,-0.685981 1.056246,-1.353379 L 14.946597,1.5601076 C 14.874647,0.97613425 14.403451,0.54238175 13.83971,0.49817785 Z" />
  <g
     transform="translate(25.036108,-5.279314e-5)"
     id="g904">
    <rect
       id="rect886"
       style="paint-order:stroke fill markers"
       opacity="0.5"
       filter="url(#h)"
       fill-rule="evenodd"
       fill="#303030"
       ry="5"
       height="34"
       width="34"
       y="15.16"
       x="15.16"
       transform="matrix(0.26458,0,0,0.26458,-25.078501,-0.04234)" />
    <path
       id="path888"
       style="fill:url(#linearGradient906);paint-order:stroke fill markers"
       stroke-width="0.26458"
       fill-rule="evenodd"
       fill="url(#g)"
       d="m -19.744465,3.9687 h 6.3499 c 0.73289,0 1.3229,0.59001 1.3229,1.3229 v 6.3499 c 0,0.73289 -0.59001,1.3229 -1.3229,1.3229 h -6.3499 c -0.73289,0 -1.3229,-0.59001 -1.3229,-1.3229 V 5.2916 c 0,-0.73289 0.59001,-1.3229 1.3229,-1.3229 z" />
    <path
       id="path890"
       stroke-width="0.26457"
       fill="#f9f9f9"
       d="m -19.744465,11.02 h 3.1059 v 0.62118 h -3.1059 z" />
    <g
       transform="translate(-25.036065)"
       id="g896"
       aria-label="GO"
       stroke-width="0.1127"
       fill="#ffffff">
      <path
         id="path892"
         d="m 6.8538,8.8866 c 0.46431,0 0.8565,-0.18032 1.0819,-0.4012 V 6.9798 H 6.7501 V 7.52525 H 7.34063 V 8.1834 C 7.245964,8.264542 7.08368,8.30962 6.9259,8.30962 c -0.65815,0 -0.99173,-0.43726 -0.99173,-1.163 0,-0.71675 0.38768,-1.1495 0.94215,-1.1495 0.30203,0 0.49136,0.12171 0.65815,0.27949 L 7.88609,5.85287 C 7.66971,5.63198 7.33613,5.42462 6.85379,5.42462 c -0.88805,0 -1.6003,0.64463 -1.6003,1.7446 0,1.1134 0.69421,1.7175 1.6003,1.7175 z" />
      <path
         id="path894"
         d="m 9.9777,8.8866 c 0.88355,0 1.4921,-0.66266 1.4921,-1.7446 0,-1.0819 -0.60856,-1.7175 -1.4921,-1.7175 -0.88354,0 -1.4921,0.6311 -1.4921,1.7175 0,1.0819 0.60856,1.7446 1.4921,1.7446 z m 0,-0.57701 c -0.49587,0 -0.81142,-0.4553 -0.81142,-1.1675 0,-0.71675 0.31555,-1.145 0.81142,-1.145 0.49587,0 0.81142,0.42825 0.81142,1.145 0,0.71225 -0.31555,1.1675 -0.81142,1.1675 z" />
    </g>
  </g>
</svg>
