<?xml version="1.0" encoding="UTF-8"?>
<svg width="64" height="64" version="1" xmlns="http://www.w3.org/2000/svg">
 <defs>
  <linearGradient id="e" x1="17.187" x2="17.187" y1="46.737" y2="199.98" gradientTransform="matrix(.3 0 0 .3 -95.362 -20.694)" gradientUnits="userSpaceOnUse">
   <stop stop-color="#35C130" offset="0"/>
   <stop stop-color="#34BD30" offset=".3483"/>
   <stop stop-color="#31B231" offset=".6809"/>
   <stop stop-color="#2C9F32" offset="1"/>
  </linearGradient>
  <linearGradient id="c" x1="114.75" x2="114.75" y1="56.681" y2="188.93" gradientTransform="matrix(.32519 0 0 .32519 -97.849 -23.245)" gradientUnits="userSpaceOnUse">
   <stop stop-color="#ffce00" offset="0"/>
   <stop stop-color="#e6bc00" offset="1"/>
  </linearGradient>
  <linearGradient id="a" x1="97.425" x2="97.425" y1="-9.0071" y2="209.87" gradientTransform="matrix(.3 0 0 .3 -95.362 -20.694)" gradientUnits="userSpaceOnUse">
   <stop stop-color="#F6503B" offset="0"/>
   <stop stop-color="#F24735" offset=".2174"/>
   <stop stop-color="#E62F25" offset=".5719"/>
   <stop stop-color="#D4090D" offset="1"/>
  </linearGradient>
  <filter id="g" x="-.036" y="-.036" width="1.072" height="1.072" color-interpolation-filters="sRGB">
   <feGaussianBlur stdDeviation="6.5097789"/>
  </filter>
  <linearGradient id="b-3" x1="103.67" x2="103.67" y1="-4.6623" y2="206.5" gradientTransform="matrix(.13836 0 0 .13836 -79.166 -4.562)" gradientUnits="userSpaceOnUse">
   <stop stop-color="#fff" offset="0"/>
   <stop stop-color="#d7d7d7" offset="1"/>
  </linearGradient>
  <linearGradient id="d-6" x1="95.97" x2="95.97" y1="2.2922" y2="198.44" gradientTransform="matrix(.10961 0 0 .10961 -76.291 -1.6875)" gradientUnits="userSpaceOnUse">
   <stop stop-color="#47B9FF" offset="0"/>
   <stop stop-color="#3D8AFF" offset="1"/>
  </linearGradient>
 </defs>
 <g transform="translate(97.362 22.694)">
  <g stroke-width=".99999">
   <circle cx="-65.362" cy="9.3057" r="30" color="#000000" fill="url(#e)"/>
   <path d="m-46.111-13.697c-6.1675 1.4686-35.335 8.7004-19.138 10.451 18.048 1.9511 11.178 20.243 11.178 20.243l-13.215 22.213a30 30 0 0 0 1.9236 0.09627 30 30 0 0 0 30-30 30 30 0 0 0-10.75-23.003z" fill="url(#c)"/>
   <path d="m-65.362-20.694a30 30 0 0 0-25.151 13.697l13.412 22.562s-0.35922-10.868 0.53899-11.947c0.89822-1.0778 5.2995-5.2096 5.2995-5.2096l6.018-1.7964-0.32554-1.1676 26.698-0.1756a30 30 0 0 0-26.491-15.964z" color="#000000" fill="url(#a)"/>
  </g>
  <circle transform="matrix(.063762 0 0 .063762 -97.976 -25.181)" cx="512" cy="550.36" r="216.99" color="#000000" fill="#111" filter="url(#g)" opacity=".2" stroke-width="15.683"/>
  <circle cx="-65.33" cy="9.2739" r="13.836" color="#000000" fill="url(#b-3)" stroke-width=".99999"/>
  <circle cx="-65.33" cy="9.2739" r="10.961" color="#000000" fill="url(#d-6)" stroke-width=".99999"/>
 </g>
</svg>
