<?xml version="1.0" encoding="UTF-8" standalone="no"?>
<svg
   xmlns:dc="http://purl.org/dc/elements/1.1/"
   xmlns:cc="http://creativecommons.org/ns#"
   xmlns:rdf="http://www.w3.org/1999/02/22-rdf-syntax-ns#"
   xmlns:svg="http://www.w3.org/2000/svg"
   xmlns="http://www.w3.org/2000/svg"
   xmlns:sodipodi="http://sodipodi.sourceforge.net/DTD/sodipodi-0.dtd"
   xmlns:inkscape="http://www.inkscape.org/namespaces/inkscape"
   width="64"
   height="64"
   version="1.1"
   viewBox="0 0 16.933 16.933"
   id="svg59"
   sodipodi:docname="gparted.svg"
   inkscape:version="1.0.1 (3bc2e813f5, 2020-09-07)">
  <sodipodi:namedview
     pagecolor="#ffffff"
     bordercolor="#666666"
     borderopacity="1"
     objecttolerance="10"
     gridtolerance="10"
     guidetolerance="10"
     inkscape:pageopacity="0"
     inkscape:pageshadow="2"
     inkscape:window-width="1920"
     inkscape:window-height="998"
     id="namedview61"
     showgrid="false"
     inkscape:zoom="6.4921875"
     inkscape:cx="10.677411"
     inkscape:cy="53.893611"
     inkscape:window-x="0"
     inkscape:window-y="0"
     inkscape:window-maximized="1"
     inkscape:current-layer="svg59" />
  <defs
     id="defs25">
    <radialGradient
       id="a"
       cx="502.62"
       cy="372.05"
       r="74.884"
       gradientTransform="matrix(0.08973571,0,0,0.02245726,-36.636314,6.1075462)"
       gradientUnits="userSpaceOnUse">
      <stop
         stop-color="#dfe5e8"
         offset="0"
         id="stop2" />
      <stop
         stop-color="#c3cacc"
         offset="1"
         id="stop4" />
    </radialGradient>
    <linearGradient
       id="b"
       x1="500.55"
       x2="504.38"
       y1="216.14"
       y2="349.1"
       gradientTransform="matrix(0.09521582,0,0,0.09559931,-39.389909,-20.11454)"
       gradientUnits="userSpaceOnUse">
      <stop
         stop-color="#d7e1e5"
         offset="0"
         id="stop7" />
      <stop
         stop-color="#a1a1a2"
         offset="1"
         id="stop9" />
    </linearGradient>
    <linearGradient
       id="d"
       x1="63.721"
       x2="64.939"
       y1="168.65"
       y2="249.61"
       gradientTransform="matrix(0.12692954,0,0,0.12744075,-0.11317098,-20.840979)"
       gradientUnits="userSpaceOnUse">
      <stop
         stop-color="#fff"
         offset="0"
         id="stop12" />
      <stop
         stop-color="#e5e5e6"
         offset="1"
         id="stop14" />
    </linearGradient>
    <linearGradient
       id="c"
       x1="-17.94"
       x2="-17.94"
       y1="351.1"
       y2="361.98"
       gradientTransform="matrix(0.08494178,0,0,0.03988757,9.4914067,0.5631801)"
       gradientUnits="userSpaceOnUse">
      <stop
         stop-color="#4c4c4c"
         offset="0"
         id="stop17" />
      <stop
         stop-color="#828282"
         offset="1"
         id="stop19" />
    </linearGradient>
    <filter
       id="e"
       x="-.037001"
       y="-.15751"
       width="1.074"
       height="1.315"
       color-interpolation-filters="sRGB">
      <feGaussianBlur
         stdDeviation="0.47098093"
         id="feGaussianBlur22" />
    </filter>
  </defs>
  <metadata
     id="metadata27">
    <rdf:RDF>
      <cc:Work
         rdf:about="">
        <dc:format>image/svg+xml</dc:format>
        <dc:type
           rdf:resource="http://purl.org/dc/dcmitype/StillImage" />
        <dc:title></dc:title>
      </cc:Work>
    </rdf:RDF>
  </metadata>
  <g
     transform="matrix(.33777 0 0 .33777 .19138 .19104)"
     id="g33">
    <g
       transform="translate(1,1)"
       id="g31">
      <g
         opacity=".1"
         id="g29">
        <!-- color: #1f4a5e -->
      </g>
    </g>
  </g>
  <g
     transform="matrix(.33777 0 0 .33777 .19138 .19104)"
     id="g35">
    <!-- color: #1f4a5e -->
  </g>
  <style
     type="text/css"
     id="style37">.st0{opacity:0.15;fill:#45413C;}
	.st1{fill:#FFE500;}
	.st2{fill:#EBCB00;}
	.st3{fill:none;stroke:#45413C;stroke-linecap:round;stroke-linejoin:round;stroke-miterlimit:10;}
	.st4{fill:#FFAA54;}
	.st5{fill:#FF8A14;}
	.st6{fill:#FFB0CA;stroke:#45413C;stroke-linecap:round;stroke-linejoin:round;stroke-miterlimit:10;}
	.st7{fill:#FF87AF;stroke:#45413C;stroke-linecap:round;stroke-linejoin:round;stroke-miterlimit:10;}
	.st8{fill:#FFCC99;}
	.st9{fill:#FFFFFF;}
	.st10{fill:#F0F0F0;}
	.st11{fill:#BF8256;}
	.st12{fill:#915E3A;}
	.st13{fill:#DEA47A;}
	.st14{fill:#F0D5A8;}
	.st15{fill:#DEBB7E;}
	.st16{fill:#F7E5C6;}
	.st17{fill:#FF8A14;stroke:#45413C;stroke-linecap:round;stroke-linejoin:round;stroke-miterlimit:10;}
	.st18{fill:#FFF5E3;}
	.st19{fill:#FFF48C;}
	.st20{fill:#FFFACF;}
	.st21{fill:#FFFCE5;}
	.st22{fill:#FF87AF;}
	.st23{fill:#FFB0CA;}
	.st24{fill:#FFE500;stroke:#45413C;stroke-linecap:round;stroke-linejoin:round;stroke-miterlimit:10;}
	.st25{fill:#9CEB60;stroke:#45413C;stroke-linecap:round;stroke-linejoin:round;stroke-miterlimit:10;}
	.st26{fill:#FFFACF;stroke:#45413C;stroke-linecap:round;stroke-linejoin:round;stroke-miterlimit:10;}
	.st27{fill:#00F5BC;stroke:#45413C;stroke-linecap:round;stroke-linejoin:round;stroke-miterlimit:10;}
	.st28{fill:#BF8256;stroke:#45413C;stroke-linecap:round;stroke-linejoin:round;stroke-miterlimit:10;}
	.st29{fill:#FFE3CF;stroke:#45413C;stroke-linecap:round;stroke-linejoin:round;stroke-miterlimit:10;}
	.st30{fill:#FF6242;}
	.st31{fill:#FF866E;}
	.st32{fill:none;stroke:#E04122;stroke-linecap:round;stroke-linejoin:round;stroke-miterlimit:10;}
	.st33{fill:#FFFEF2;stroke:#45413C;stroke-linecap:round;stroke-linejoin:round;stroke-miterlimit:10;}
	.st34{fill:#FF6242;stroke:#45413C;stroke-linecap:round;stroke-linejoin:round;stroke-miterlimit:10;}
	.st35{fill:#FFA694;}
	.st36{fill:#FFFFFF;stroke:#45413C;stroke-linecap:round;stroke-linejoin:round;stroke-miterlimit:10;}
	.st37{fill:#FFFEF2;}
	.st38{fill:#FF6196;}
	.st39{fill:#B89558;}
	.st40{fill:none;stroke:#915E3A;stroke-linecap:round;stroke-linejoin:round;stroke-miterlimit:10;}
	.st41{fill:#DEBB7E;stroke:#45413C;stroke-linecap:round;stroke-linejoin:round;stroke-miterlimit:10;}
	.st42{fill:#6DD627;stroke:#45413C;stroke-linecap:round;stroke-linejoin:round;stroke-miterlimit:10;}
	.st43{fill:#E5F8FF;}
	.st44{fill:#E8F4FA;}
	.st45{fill:#E8F4FA;stroke:#45413C;stroke-linecap:round;stroke-linejoin:round;stroke-miterlimit:10;}
	.st46{fill:#FFCCDD;}
	.st47{fill:#E5F8FF;stroke:#45413C;stroke-linecap:round;stroke-linejoin:round;stroke-miterlimit:10;}
	.st48{fill:#00B8F0;stroke:#45413C;stroke-linecap:round;stroke-linejoin:round;stroke-miterlimit:10;}
	.st49{fill:#00B8F0;}
	.st50{fill:#4ACFFF;}
	.st51{fill:#E04122;}
	.st52{fill:#E04122;stroke:#45413C;stroke-linecap:round;stroke-linejoin:round;stroke-miterlimit:10;}
	.st53{fill:#87898C;}
	.st54{fill:#BDBEC0;}
	.st55{fill:#656769;}
	.st56{fill:#525252;}
	.st57{fill:#FFF48C;stroke:#45413C;stroke-linecap:round;stroke-linejoin:round;stroke-miterlimit:10;}
	.st58{fill:#6DD627;}
	.st59{fill:#EB6D00;}
	.st60{fill:#46B000;}
	.st61{fill:#80DDFF;}
	.st62{fill:#DAEDF7;}
	.st63{fill:#BF8DF2;stroke:#45413C;stroke-linecap:round;stroke-linejoin:round;stroke-miterlimit:10;}
	.st64{fill:#9F5AE5;stroke:#45413C;stroke-linecap:round;stroke-linejoin:round;stroke-miterlimit:10;}
	.st65{fill:#C8FFA1;}
	.st66{fill:#E4FFD1;}
	.st67{fill:#9CEB60;}
	.st68{fill:#E5FEFF;}
	.st69{fill:#B8ECFF;}
	.st70{fill:#E0E0E0;stroke:#45413C;stroke-linecap:round;stroke-linejoin:round;stroke-miterlimit:10;}
	.st71{fill:#E0E0E0;}
	.st72{fill:none;stroke:#4F4B45;stroke-linejoin:round;stroke-miterlimit:10;}
	.st73{fill:none;stroke:#4F4B45;stroke-linecap:round;stroke-linejoin:round;stroke-miterlimit:10;}
	.st74{fill:#E0366F;stroke:#45413C;stroke-linecap:round;stroke-linejoin:round;stroke-miterlimit:10;}
	.st75{fill:none;stroke:#45413C;stroke-miterlimit:10;}
	.st76{fill:#FF866E;stroke:#45413C;stroke-linecap:round;stroke-linejoin:round;stroke-miterlimit:10;}
	.st77{fill:#45413C;stroke:#45413C;stroke-linecap:round;stroke-linejoin:round;stroke-miterlimit:10;}
	.st78{fill:#9F5AE5;}
	.st79{fill:#803EC2;}
	.st80{fill:#803EC2;stroke:#45413C;stroke-linecap:round;stroke-linejoin:round;stroke-miterlimit:10;}
	.st81{fill:#BF8DF2;}
	.st82{fill:#FFAA54;stroke:#45413C;stroke-linecap:round;stroke-linejoin:round;stroke-miterlimit:10;}
	.st83{fill:none;stroke:#45413C;stroke-linejoin:round;stroke-miterlimit:10;}
	.st84{fill:#FFCCDD;stroke:#45413C;stroke-linecap:round;stroke-linejoin:round;stroke-miterlimit:10;}
	.st85{fill:#FF6196;stroke:#45413C;stroke-linecap:round;stroke-linejoin:round;stroke-miterlimit:10;}
	.st86{fill:#FFE5EE;}
	.st87{fill:#F7E5C6;stroke:#45413C;stroke-linecap:round;stroke-linejoin:round;stroke-miterlimit:10;}
	.st88{fill:#E5FFF9;}
	.st89{fill:none;stroke:#45413C;stroke-width:1.0064;stroke-linecap:round;stroke-linejoin:round;stroke-miterlimit:10;}
	.st90{fill:#4AEFF7;}
	.st91{fill:#A6FBFF;}
	.st92{fill:#E5FEFF;stroke:#45413C;stroke-linecap:round;stroke-linejoin:round;stroke-miterlimit:10;}
	.st93{fill:#46B000;stroke:#45413C;stroke-linecap:round;stroke-linejoin:round;stroke-miterlimit:10;}
	.st94{fill:#FFFFFF;stroke:#45413C;stroke-linejoin:round;stroke-miterlimit:10;}
	.st95{fill:#FFFFFF;stroke:#45413C;stroke-miterlimit:10;}
	.st96{fill:#009FD9;}
	.st97{fill:#00DFEB;}
	.st98{fill:#C0DCEB;stroke:#45413C;stroke-linecap:round;stroke-linejoin:round;stroke-miterlimit:10;}
	.st99{fill:#00DFEB;stroke:#45413C;stroke-linecap:round;stroke-linejoin:round;stroke-miterlimit:10;}
	.st100{fill:#FFE5EE;stroke:#45413C;stroke-linecap:round;stroke-linejoin:round;stroke-miterlimit:10;}
	.st101{fill:#8CA4B8;}
	.st102{fill:#ADC4D9;}
	.st103{fill:#656769;stroke:#45413C;stroke-linecap:round;stroke-linejoin:round;stroke-miterlimit:10;}
	.st104{fill:#F0F0F0;stroke:#45413C;stroke-linecap:round;stroke-linejoin:round;stroke-miterlimit:10;}
	.st105{fill:#C0DCEB;}
	.st106{fill:#45413C;}
	.st107{fill:#FFCABF;}
	.st108{fill:#87898C;stroke:#45413C;stroke-linecap:round;stroke-linejoin:round;stroke-miterlimit:10;}
	.st109{fill:#EBCB00;stroke:#45413C;stroke-linecap:round;stroke-linejoin:round;stroke-miterlimit:10;}</style>
  <g
     id="g914"
     transform="matrix(0.93728548,0,0,0.93728548,0.53096255,0.89562588)">
    <path
       d="m 1.5654992,12.476771 c -0.2491491,0.04331 -0.2433656,0.449361 -0.2163571,0.854995 0.00975,0.52627 0.037678,1.136994 0.084293,1.684822 0.025544,0.455275 0.3039363,0.823594 0.6814667,0.823594 H 14.818125 c 0.377535,0 0.655933,-0.368319 0.681466,-0.823594 0.04661,-0.547828 0.07454,-1.158552 0.08429,-1.684822 0.02701,-0.405638 0.03279,-0.811643 -0.216357,-0.854995 H 2.5653447 Z"
       fill="url(#a)"
       id="path41"
       style="fill:url(#a);stroke-width:1" />
    <path
       d="M 3.1098273,0.4694461 C 2.966224,0.4691977 2.8420205,0.49306707 2.7411005,0.54340223 2.5769071,0.60452617 2.5073601,0.71909724 2.4600042,0.90571226 L 1.3270582,12.95803 c -0.00556,0.05918 -0.00192,0.116605 0.0096,0.171421 0.00461,0.02193 0.010465,0.04345 0.017516,0.06447 0.00352,0.01055 0.00736,0.0209 0.011464,0.03117 0.012317,0.03079 0.027213,0.06046 0.044381,0.08877 0.028613,0.04721 0.063549,0.09068 0.1035713,0.129535 0.00801,0.0077 0.016203,0.01537 0.024603,0.02273 0.042001,0.03698 0.088825,0.06913 0.1391454,0.09559 0.010063,0.0053 0.020222,0.01036 0.030556,0.01519 0.093003,0.04345 0.1965559,0.06778 0.3031381,0.06778 h 12.910941 c 0.248654,0 0.48084,-0.132624 0.601039,-0.330848 0.01717,-0.02831 0.03206,-0.05797 0.04438,-0.08877 0.0041,-0.01026 0.0079,-0.02067 0.01146,-0.03117 0.007,-0.021 0.01291,-0.04255 0.01751,-0.06447 0.01152,-0.05481 0.01516,-0.112241 0.0096,-0.17142 L 14.473025,0.90568882 C 14.425664,0.7190738 14.356117,0.60450273 14.191928,0.54337411 14.091008,0.49305301 13.966753,0.46916958 13.823155,0.46942267 l -5.3564154,0.008858 z"
       fill="#f3fdff"
       id="path43"
       style="stroke-width:1" />
    <path
       d="M 3.1098273,0.314785 C 2.966224,0.31453192 2.8420205,0.33840597 2.7411005,0.38874113 2.5769071,0.44986038 2.5073601,0.56443145 2.4600042,0.75104647 L 1.3270582,12.803364 c -0.00556,0.05917 -0.00192,0.116601 0.0096,0.171421 0.00461,0.02193 0.010465,0.0434 0.017516,0.06447 0.00352,0.01054 0.00736,0.0209 0.011464,0.03117 0.012317,0.03079 0.027213,0.06045 0.044381,0.08878 0.028613,0.04721 0.063549,0.09067 0.1035713,0.129531 0.00801,0.0077 0.016203,0.01533 0.024603,0.02268 0.042001,0.03698 0.088825,0.06913 0.1391454,0.09559 0.010063,0.0052 0.020222,0.01036 0.030556,0.01518 0.093003,0.04345 0.1965559,0.06778 0.3031381,0.06778 h 12.910941 c 0.248654,0 0.48084,-0.132619 0.601039,-0.330838 0.01717,-0.02831 0.03206,-0.05798 0.04438,-0.08878 0.0041,-0.01026 0.0079,-0.02067 0.01146,-0.03117 0.007,-0.02104 0.01291,-0.04256 0.01751,-0.06447 0.01152,-0.05482 0.01516,-0.112247 0.0096,-0.171421 L 14.473025,0.75097617 C 14.425664,0.56436115 14.356117,0.44979008 14.191928,0.38867083 14.091008,0.33834504 13.966753,0.31446162 13.823155,0.3147147 l -5.3564154,0.008811 z"
       fill="url(#b)"
       id="path45"
       style="fill:url(#b);stroke-width:1" />
    <path
       d="M 3.3819658,0.5631801 C 3.1015464,0.56505478 2.7722914,0.60620401 2.7014794,0.90162077 L 1.8447797,10.294705 c -0.00515,0.04607 -0.0018,0.09085 0.00889,0.133561 0.00428,0.01711 0.00971,0.03379 0.016248,0.05022 0.00326,0.0082 0.00684,0.01626 0.01065,0.02432 0.011423,0.024 0.02521,0.04707 0.041134,0.06915 0.00682,0.0095 0.014072,0.01875 0.021647,0.02784 0.0023,0.0028 0.00481,0.0053 0.00717,0.0081 0.00539,0.0062 0.010802,0.01233 0.016541,0.01833 0.00307,0.0033 0.00635,0.0063 0.00952,0.0094 0.00548,0.0055 0.010941,0.01087 0.016691,0.01612 0.00299,0.0028 0.00616,0.0053 0.00923,0.0081 0.00506,0.0042 0.010015,0.0089 0.015265,0.01322 0.00134,9.37e-4 0.00277,0.0019 0.00413,0.0033 0.00179,0.0014 0.00363,0.0028 0.00546,0.0042 0.00441,0.0033 0.00873,0.0069 0.013254,0.01022 0.0023,0.0019 0.00478,0.0033 0.00712,0.0049 0.00475,0.0033 0.00956,0.0067 0.014432,0.01003 0.00543,0.0038 0.010916,0.0073 0.016494,0.01083 0.00518,0.0033 0.010446,0.0065 0.015756,0.0097 0.0056,0.0033 0.011246,0.0066 0.016985,0.0098 0.00546,0.0028 0.010967,0.006 0.016543,0.0089 0.00579,0.0028 0.011665,0.006 0.017572,0.0088 0.00566,0.0028 0.011322,0.0055 0.017082,0.0082 0.00239,9.37e-4 0.00467,0.0023 0.00707,0.0033 0.00659,0.0028 0.013282,0.0056 0.01998,0.0083 0.00134,4.69e-4 0.00267,9.37e-4 0.00404,0.0014 0.00146,4.69e-4 0.00285,0.0014 0.00431,0.0019 0.010776,0.0042 0.021715,0.0082 0.032791,0.012 h 4.69e-5 c 0.01202,0.0037 0.024282,0.0078 0.03662,0.01134 0.004,9.38e-4 0.00805,0.0019 0.012073,0.0033 0.00868,0.0023 0.017397,0.0042 0.026213,0.0065 0.00448,9.37e-4 0.00898,0.0019 0.013499,0.0028 0.00847,0.0019 0.016992,0.0033 0.025575,0.0049 0.00438,9.37e-4 0.00875,0.0014 0.013153,0.0023 0.00924,0.0014 0.018544,0.0028 0.027883,0.0037 0.00404,4.69e-4 0.00807,9.38e-4 0.012124,0.0014 0.010062,9.38e-4 0.020179,0.0019 0.030338,0.0023 0.00333,2.53e-4 0.00663,4.68e-4 0.00996,4.68e-4 0.013575,9.38e-4 0.027192,9.38e-4 0.040891,9.38e-4 H 14.453717 c 0.0137,0 0.02731,-4.69e-4 0.04089,-9.38e-4 0.0034,-2.53e-4 0.0066,-4.68e-4 0.01,-4.68e-4 0.01015,-4.69e-4 0.02027,-0.0014 0.03034,-0.0023 0.004,-3.79e-4 0.0081,-9.37e-4 0.01212,-0.0014 0.0093,-9.37e-4 0.01864,-0.0023 0.02788,-0.0037 0.0044,-4.69e-4 0.0088,-0.0014 0.01316,-0.0023 0.0086,-0.0014 0.0171,-0.0028 0.02557,-0.0049 0.0045,-9.38e-4 0.009,-0.0019 0.0135,-0.0028 0.009,-0.0019 0.01793,-0.0042 0.0268,-0.0067 0.0037,-9.37e-4 0.0075,-0.0019 0.01125,-0.0028 0.01244,-0.0033 0.02474,-0.0073 0.03686,-0.01144 h 4.8e-5 c 0.01108,-0.0037 0.02201,-0.0077 0.03279,-0.012 0.0014,-4.69e-4 0.0026,-9.37e-4 0.004,-0.0014 0.0019,-9.37e-4 0.0037,-0.0014 0.0056,-0.0023 0.0063,-0.0023 0.01258,-0.0051 0.01875,-0.0078 0.0024,-9.38e-4 0.0047,-0.0023 0.007,-0.0033 0.0059,-0.0023 0.01162,-0.0055 0.01738,-0.0083 0.0057,-0.0028 0.01139,-0.0056 0.01699,-0.0085 0.0057,-0.0028 0.01135,-0.006 0.01694,-0.0091 0.0059,-0.0033 0.01165,-0.0066 0.01738,-0.01 0.0051,-0.0028 0.01012,-0.0061 0.01512,-0.0093 0.0056,-0.0033 0.01119,-0.0072 0.01669,-0.01092 0.0049,-0.0033 0.0097,-0.0066 0.01443,-0.01003 0.0023,-0.0014 0.0048,-0.0033 0.0071,-0.0049 0.0045,-0.0033 0.0089,-0.0068 0.01325,-0.01022 0.0018,-0.0014 0.0036,-0.0028 0.0055,-0.0042 0.0014,-9.37e-4 0.0028,-0.0019 0.0041,-0.0033 0.0053,-0.0042 0.01019,-0.0088 0.01527,-0.01322 0.0031,-0.0028 0.0062,-0.0053 0.0092,-0.0081 0.0058,-0.0052 0.01121,-0.01069 0.01669,-0.01612 0.0032,-0.0028 0.0065,-0.0062 0.0095,-0.0094 0.0073,-0.0076 0.01431,-0.01537 0.02106,-0.02334 6.53e-4,-9.37e-4 0.0015,-0.0014 0.0022,-0.0023 3.9e-5,-5.2e-5 6e-5,-9.8e-5 9.6e-5,-2.58e-4 0.0077,-0.0092 0.01506,-0.01861 0.022,-0.02821 0.01592,-0.02207 0.02976,-0.04518 0.04118,-0.06915 0.0038,-0.008 0.0073,-0.01612 0.0106,-0.02432 0.0065,-0.01636 0.01199,-0.03314 0.01625,-0.05022 0.008,-0.03201 0.01192,-0.06522 0.01119,-0.09926 -2.5e-4,-0.01134 -10e-4,-0.02278 -0.0023,-0.03431 L 14.231385,0.90144736 C 14.150467,0.5638128 13.731967,0.55872774 13.434621,0.56384561 l -4.9680457,0.006843 -4.9680461,-0.006843 C 3.4613554,0.56337694 3.4223024,0.56290827 3.3822424,0.56290827 Z"
       fill="url(#d)"
       id="path47"
       style="fill:url(#d);stroke-width:1" />
    <rect
       x="3.0132482"
       y="14.506112"
       width="10.906549"
       height="0.46876374"
       ry="0.23437718"
       fill="url(#c)"
       id="rect49"
       style="fill:url(#c);stroke-width:1" />
    <path
       d="m 10.861741,3.23664 c 0,-0.33309 -0.26946,-0.60255 -0.60068,-0.60255 -0.3312202,0 -0.6006802,0.26946 -0.6006802,0.60068 0,0.22642 0.12538,0.42478 0.31063,0.5277 0.02433,0.028069 0.04117,0.084207 0.04117,0.11228 v 0.00749 c -0.01497,0.32934 -0.07111,0.59693 -0.1328608,0.78032 -0.08046,0.23578 -0.71482,0.74102 -0.9637,0.78968 -0.10853,0.022455 -0.14783,-0.011228 -0.14783,-0.19087 v -2.6273 c 0,-0.028069 0.0037,-0.065494 0.03555,-0.093564 0.16093,-0.10853 0.26759,-0.29192 0.26759,-0.5015 0,-0.33309 -0.26946,-0.60255 -0.60068,-0.60255 -0.33122,0 -0.60068,0.26946 -0.60068,0.60255 0,0.21145 0.10853,0.39858 0.2732,0.50524 l 0.0019,0.00187 c 0.0019,0.00187 0.0037,0.00187 0.0075,0.00374 0.0037,0.00187 0.0075,0.00374 0.01123,0.00749 0.04304,0.028069 0.06175,0.056138 0.06175,0.078593 v 3.6733 c 0,0.13099 -0.02058,0.23016 -0.15719,0.22081 -0.1366,-0.0094 -0.78032,-0.43975 -0.96183,-0.82523 -0.08421,-0.17777 -0.12725,-0.3518 -0.12725,-0.52396 v -0.00936 c 0,-0.058009 0,-0.21145 0.05988,-0.25449 0.14596,-0.1104 0.23952,-0.28443 0.23952,-0.48092 0,-0.33309 -0.26946,-0.60255 -0.60068,-0.60255 -0.33122,0 -0.60629,0.26572 -0.60629,0.59881 0,0.22268 0.12163,0.41729 0.2994,0.52021 0.04491,0.028069 0.05614,0.054267 0.07111,0.19835 0.01497,0.14409 0.05614,0.46033 0.17028,0.74664 0.1366,0.34806 0.3911,0.61003 0.74289,0.84581 0.25449,0.17403 0.47343,0.31063 0.60068,0.49402 0.12725,0.18338 0.19087,0.25262 0.19087,0.50524 0,0.23952 -0.07485,0.26198 -0.17403,0.33309 -0.26385,0.1628 -0.43975,0.45285 -0.43975,0.78593 v 0.0206 c 0,0.5146 0.41729,0.93189 0.93189,0.93189 0.5146,0 0.93189,-0.41729 0.93189,-0.93189 0,-0.24888 -0.0973,-0.4753 -0.25636,-0.64184 -0.05427,-0.05988 -0.11228,-0.11228 -0.17964,-0.15532 -0.14034,-0.09731 -0.19274,-0.2152 -0.19274,-0.3387 v -0.45099 c 0,-0.46969 0.07672,-0.76909 0.20771,-0.99739 0.1366,-0.23765 0.34244,-0.42291 0.66243,-0.63997 0.3518,-0.23578 0.6025508,-0.49776 0.7410208,-0.84581 0.10666,-0.26946 0.14222,-0.58009 0.16093,-0.95248 0.0019,-0.033683 0.0262,-0.10853 0.06175,-0.12725 0.15532,-0.10853 0.26011,-0.29005 0.26011,-0.49589 z"
       fill="#0d0e0e"
       opacity="0.25"
       stroke-width="0.027926"
       id="path55" />
  </g>
</svg>
