<?xml version="1.0" encoding="UTF-8" standalone="no"?>
<svg
   xmlns:dc="http://purl.org/dc/elements/1.1/"
   xmlns:cc="http://creativecommons.org/ns#"
   xmlns:rdf="http://www.w3.org/1999/02/22-rdf-syntax-ns#"
   xmlns:svg="http://www.w3.org/2000/svg"
   xmlns="http://www.w3.org/2000/svg"
   xmlns:xlink="http://www.w3.org/1999/xlink"
   xmlns:sodipodi="http://sodipodi.sourceforge.net/DTD/sodipodi-0.dtd"
   xmlns:inkscape="http://www.inkscape.org/namespaces/inkscape"
   id="Activity-Monitor"
   width="64"
   height="64"
   enable-background="new 0 0 1024 1024"
   image-rendering="optimizeSpeed"
   version="1.1"
   viewBox="0 0 64 64"
   sodipodi:docname="gtick.svg"
   inkscape:version="1.0.1 (3bc2e813f5, 2020-09-07)">
  <metadata
     id="metadata59">
    <rdf:RDF>
      <cc:Work
         rdf:about="">
        <dc:format>image/svg+xml</dc:format>
        <dc:type
           rdf:resource="http://purl.org/dc/dcmitype/StillImage" />
        <dc:title></dc:title>
      </cc:Work>
    </rdf:RDF>
  </metadata>
  <sodipodi:namedview
     pagecolor="#ffffff"
     bordercolor="#666666"
     borderopacity="1"
     objecttolerance="10"
     gridtolerance="10"
     guidetolerance="10"
     inkscape:pageopacity="0"
     inkscape:pageshadow="2"
     inkscape:window-width="1920"
     inkscape:window-height="942"
     id="namedview57"
     showgrid="false"
     inkscape:zoom="4.2813106"
     inkscape:cx="-25.282016"
     inkscape:cy="26.684145"
     inkscape:window-x="0"
     inkscape:window-y="38"
     inkscape:window-maximized="1"
     inkscape:current-layer="Activity-Monitor" />
  <defs
     id="defs36">
    <linearGradient
       id="a"
       x1="528.77"
       x2="537.94"
       y1="1036.3"
       y2="92.612"
       gradientTransform="matrix(.063513 0 0 .063513 -1.624 -1.204)"
       gradientUnits="userSpaceOnUse">
      <stop
         stop-color="#351f1f"
         offset="0"
         id="stop2" />
      <stop
         stop-color="#352b1f"
         stop-opacity="0"
         offset="1"
         id="stop4" />
    </linearGradient>
    <filter
       id="d"
       x="-.036"
       y="-.036"
       width="1.072"
       height="1.072"
       color-interpolation-filters="sRGB">
      <feGaussianBlur
         stdDeviation="14.16"
         id="feGaussianBlur7" />
    </filter>
    <linearGradient
       id="g"
       x1="31.926"
       x2="31.618"
       y1="26.908"
       y2="39.216"
       gradientTransform="matrix(1 0 0 1 5.3798e-7 .00015621)"
       gradientUnits="userSpaceOnUse">
      <stop
         stop-color="#fff"
         offset="0"
         id="stop10" />
      <stop
         stop-color="#d0d0d0"
         offset="1"
         id="stop12" />
    </linearGradient>
    <linearGradient
       id="f"
       x1="33.569"
       x2="38.583"
       y1="19.695"
       y2="21.627"
       gradientTransform="matrix(1 0 0 1 1.1161e-7 -.00012774)"
       gradientUnits="userSpaceOnUse">
      <stop
         stop-color="#f4f4f4"
         offset="0"
         id="stop15" />
      <stop
         stop-color="#bfbfbf"
         offset="1"
         id="stop17" />
    </linearGradient>
    <linearGradient
       id="e"
       x1="7.9004"
       x2="56.17"
       y1="19.867"
       y2="19.867"
       gradientTransform="matrix(1 0 0 1 7.9728e-7 1.1868e-6)"
       gradientUnits="userSpaceOnUse">
      <stop
         stop-color="#fff"
         stop-opacity=".45395"
         offset="0"
         id="stop20" />
      <stop
         stop-color="#fff"
         stop-opacity=".27632"
         offset="1"
         id="stop22" />
    </linearGradient>
    <filter
       id="i"
       x="-.06"
       y="-.06"
       width="1.12"
       height="1.12"
       color-interpolation-filters="sRGB">
      <feGaussianBlur
         stdDeviation="0.30405273"
         id="feGaussianBlur25" />
    </filter>
    <filter
       id="h"
       x="-.061916"
       y="-.025378"
       width="1.1238"
       height="1.0508"
       color-interpolation-filters="sRGB">
      <feGaussianBlur
         stdDeviation="0.30106875"
         id="feGaussianBlur28" />
    </filter>
    <linearGradient
       id="b"
       x2="0"
       y1="1"
       y2="47"
       gradientTransform="matrix(1.3043 0 0 1.3043 .69565 .69565)"
       gradientUnits="userSpaceOnUse">
      <stop
         stop-color="#d87921"
         offset="0"
         id="stop31" />
      <stop
         stop-color="#e97f1b"
         offset="1"
         id="stop33" />
    </linearGradient>
    <linearGradient
       id="b-6"
       x1="540.11"
       x2="540.11"
       y1="2.0078"
       y2="1026"
       gradientUnits="userSpaceOnUse">
      <stop
         stop-color="#262d44"
         offset="0"
         id="stop886" />
      <stop
         stop-color="#262d44"
         offset="1"
         id="stop888" />
    </linearGradient>
    <filter
       id="i-3"
       x="-.06"
       y="-.06"
       width="1.12"
       height="1.12"
       color-interpolation-filters="sRGB">
      <feGaussianBlur
         stdDeviation="0.30405273"
         id="feGaussianBlur891" />
    </filter>
    <filter
       id="h-6"
       x="-.061916"
       y="-.025378"
       width="1.1238"
       height="1.0508"
       color-interpolation-filters="sRGB">
      <feGaussianBlur
         stdDeviation="0.30106875"
         id="feGaussianBlur894" />
    </filter>
    <linearGradient
       id="a-3-0"
       x1="32"
       x2="32"
       y1="2"
       y2="62"
       gradientTransform="translate(.25273 .8133)"
       gradientUnits="userSpaceOnUse">
      <stop
         stop-color="#f5faff"
         offset="0"
         id="stop897" />
      <stop
         stop-color="#cfdef0"
         offset="1"
         id="stop899" />
    </linearGradient>
    <linearGradient
       id="linearGradient1806"
       x1="7.9004"
       x2="56.17"
       y1="19.867"
       y2="19.867"
       gradientUnits="userSpaceOnUse">
      <stop
         stop-color="#3a7aec"
         offset="0"
         id="stop902" />
      <stop
         stop-color="#5082ee"
         offset=".49479"
         id="stop904" />
      <stop
         stop-color="#24ebfe"
         offset="1"
         id="stop906" />
    </linearGradient>
    <linearGradient
       id="linearGradient1808"
       x1="558.02"
       x2="537.94"
       y1="1036.3"
       y2="92.612"
       gradientUnits="userSpaceOnUse">
      <stop
         stop-color="#01a2eb"
         offset="0"
         id="stop909" />
      <stop
         stop-color="#beffff"
         stop-opacity="0"
         offset="1"
         id="stop911" />
    </linearGradient>
    <linearGradient
       id="linearGradient1810"
       x1="33.569"
       x2="38.583"
       y1="19.695"
       y2="21.627"
       gradientUnits="userSpaceOnUse"
       xlink:href="#a-3-0" />
    <linearGradient
       id="linearGradient1812"
       x1="31.926"
       x2="31.618"
       y1="26.908"
       y2="39.216"
       gradientUnits="userSpaceOnUse"
       xlink:href="#a-3-0" />
    <linearGradient
       id="linearGradient1924"
       x1="32"
       x2="32"
       y1="2"
       y2="62"
       gradientTransform="translate(.25273 -63.187)"
       gradientUnits="userSpaceOnUse"
       xlink:href="#a-3-0" />
  </defs>
  <path
     d="m32 2c16.569 0 30 13.431 30 30 0 16.569-13.431 30-30 30-16.569 0-30-13.431-30-30 0-16.569 13.431-30 30-30z"
     fill="url(#b)"
     stroke-width="1.3043"
     id="path40" />
  <path
     d="m56.17 31.974v-0.07939h-7.685v0.07939c0 4.5412-1.6069 8.4186-4.8206 11.629h-0.0016l-0.0016 0.0016v0.0016c-3.2106 3.2106-7.0848 4.8174-11.626 4.8174-4.5443 0-8.4218-1.6069-11.632-4.8174l-0.0016-0.0016h0.0016v0.0016c-3.2105-3.2138-4.8174-7.0912-4.8174-11.632v-0.07939h-7.685v0.07939c0 6.6625 2.3563 12.35 7.0658 17.066v-0.0016h0.0016l0.0016 0.0016c4.7126 4.7126 10.4 7.069 17.066 7.069 6.6625 0 12.35-2.3563 17.063-7.069v-0.0016l-0.0016 0.0016h0.0016c4.7158-4.7158 7.0721-10.403 7.0721-17.066z"
     opacity=".35"
     stroke-width=".99607"
     id="path42" />
  <path
     d="m31.971 7.8399c-6.6371 0.015878-12.305 2.3696-17.002 7.0665h-2e-3v2e-3c-0.02223 0.01905-0.04149 0.04222-0.06055 0.06445-4.6523 4.6809-6.9869 10.32-7.006 16.922h7.6856c0.01905-4.4776 1.6037-8.3064 4.7539-11.488l0.0625-0.06445c3.1979-3.1979 7.0527-4.8005 11.568-4.8164v-7.6856zm2e-3 0v7.6856h0.0625c4.4799 0 8.3161 1.5647 11.504 4.6914l0.12305 0.12305v2e-3h2e-3c3.1947 3.1947 4.8013 7.0466 4.8203 11.553h7.6856c-0.01905-6.6307-2.3755-12.292-7.0724-16.988h-2e-3l-0.12305-0.12305c-4.6868-4.6288-10.333-6.9435-16.938-6.9435h-0.0625z"
     fill="url(#e)"
     stroke-width=".99608"
     id="path44" />
  <path
     d="m46.569 46.761q6.0877-6.0877 6.0877-14.7c0-5.7415-2.0292-10.642-6.0877-14.7s-8.9585-6.0877-14.7-6.0877-10.642 2.0292-14.7 6.0877-6.0877 8.9585-6.0877 14.7 2.0292 10.642 6.0877 14.7 8.9585 6.0877 14.7 6.0877 10.642-2.0292 14.7-6.0877z"
     fill="url(#a)"
     opacity=".35"
     stroke-width=".99607"
     id="path46" />
  <path
     transform="matrix(1 0 0 1 1.1161e-7 -.00012774)"
     d="m40.408 7.3909-11.67 25.263 2.6803 3.2092 4.2617-0.68945z"
     filter="url(#h)"
     opacity=".35"
     stroke-width=".99607"
     id="path48" />
  <path
     d="m40.408 7.3908-11.67 25.263 2.6803 3.2092 4.2617-0.68946z"
     fill="url(#f)"
     stroke-width=".99608"
     id="path50" />
  <path
     transform="matrix(1 0 0 1 5.3798e-7 .00015621)"
     d="m31.926 26.908c-0.85107 0-1.64 0.1529-2.3672 0.46094-0.70499 0.29533-1.3493 0.736-1.9336 1.3203-0.82566 0.82566-1.3644 1.7682-1.6152 2.832-0.11115 0.46682-0.16602 0.95747-0.16602 1.4688 0 0.80026 0.13632 1.5453 0.40625 2.2344 0.29533 0.7558 0.75575 1.4452 1.375 2.0645 1.1877 1.1877 2.6209 1.7813 4.3008 1.7812 1.6799 0 3.1111-0.59356 4.2988-1.7812 1.1877-1.1877 1.7812-2.6189 1.7812-4.2988 0-1.6291-0.55869-3.0306-1.6797-4.1992l-0.10156-0.10156c-0.42871-0.42871-0.89132-0.78036-1.3867-1.0566-0.13655-0.07304-0.27434-0.14352-0.41406-0.20703-0.75898-0.34614-1.5903-0.51758-2.4922-0.51758h-0.0059z"
     filter="url(#i)"
     opacity=".5"
     stroke-width=".99607"
     id="path52" />
  <path
     d="m31.926 26.908c-0.85108 0-1.64 0.1529-2.3672 0.46094-0.705 0.29533-1.3493 0.736-1.9336 1.3203-0.82567 0.82567-1.3644 1.7682-1.6152 2.832-0.11115 0.46682-0.16602 0.95748-0.16602 1.4688 0 0.80027 0.13632 1.5453 0.40625 2.2344 0.29533 0.75581 0.75576 1.4452 1.375 2.0645 1.1877 1.1877 2.6209 1.7813 4.3008 1.7812 1.6799 0 3.1111-0.59356 4.2988-1.7812 1.1877-1.1877 1.7812-2.6189 1.7812-4.2988 0-1.6291-0.55869-3.0306-1.6797-4.1992l-0.10156-0.10156c-0.42871-0.42871-0.89133-0.78037-1.3867-1.0566-0.13655-0.07304-0.27434-0.14352-0.41406-0.20703-0.75899-0.34614-1.5903-0.51758-2.4922-0.51758h-0.0059z"
     fill="url(#g)"
     stroke-width=".99608"
     id="path54" />
</svg>
