<?xml version="1.0" encoding="UTF-8"?>
<svg width="64" height="64" version="1" xmlns="http://www.w3.org/2000/svg">
 <defs>
  <linearGradient id="linearGradient2670" x1="115.54" x2="116.74" y1="32.849" y2="19.81" gradientTransform="matrix(3.7796 0 0 3.7796 -366.3 -32.624)" gradientUnits="userSpaceOnUse">
   <stop stop-color="#f3a833" offset="0"/>
   <stop stop-color="#f2a934" offset="1"/>
  </linearGradient>
  <filter id="filter1066-1" x="-.063923" y="-.056531" width="1.1278" height="1.1131" color-interpolation-filters="sRGB">
   <feGaussianBlur stdDeviation="0.22705935"/>
  </filter>
  <filter id="filter1100-2" x="-.12197" y="-.11848" width="1.2439" height="1.237" color-interpolation-filters="sRGB">
   <feGaussianBlur stdDeviation="0.47586465"/>
  </filter>
  <linearGradient id="linearGradient2606" x1="4.0581" x2="14.758" y1="2.6881" y2="14.509" gradientTransform="matrix(3.7796 0 0 3.7796 71.105 22.923)" gradientUnits="userSpaceOnUse">
   <stop stop-color="#ffef5c" offset="0"/>
   <stop stop-color="#fef78c" offset="1"/>
  </linearGradient>
  <linearGradient id="linearGradient938" x1="80.368" x2="82.141" y1="13.177" y2="14.704" gradientTransform="matrix(3.7541 .42006 -.42006 3.7541 -177.11 -16.084)" gradientUnits="userSpaceOnUse">
   <stop stop-color="#fbc54c" offset="0"/>
   <stop stop-color="#fde465" offset="1"/>
  </linearGradient>
 </defs>
 <g transform="matrix(.91239 0 0 .91239 -62.513 -18.356)">
  <rect transform="rotate(-6.4422)" x="67.708" y="39.002" width="55.001" height="55.001" ry="4.5877" fill="url(#linearGradient2670)" stroke-width="3.7796"/>
  <rect transform="rotate(-.057549)" x="78.711" y="27.37" width="54.971" height="54.971" ry="4.585" fill="#fdd440" stroke-width="3.7775"/>
  <path transform="matrix(4.0332 .45132 -.42358 3.7856 -95.334 -12.363)" d="m57.818 9.8288s0.05354 3.0782-2.6636 4.5408c-2.2449 1.2084 0.9386 2.689-5.8599 5.0989 8.8505-2.5748 8.5235-9.6396 8.5235-9.6396z" fill="#f69418" filter="url(#filter1066-1)" opacity=".3"/>
  <path transform="matrix(3.2634 .36517 -.39943 3.5695 -53.086 -7.5224)" d="m57.594 9.7322c-0.15355 5.725-5.0519 8.6864-8.5234 9.6397l8.2859-0.93608c0.6682-0.07545 1.1451-0.67434 1.0697-1.3425z" fill="#f8a827" filter="url(#filter1100-2)" opacity=".2"/>
  <path transform="matrix(3.9191 .43855 -.40861 3.6519 -88.754 -9.8454)" d="m57.818 9.8288s0.05354 3.0782-2.6636 4.5408c-2.2449 1.2084 0.9386 2.689-5.8599 5.0989 8.8505-2.5748 8.5235-9.6396 8.5235-9.6396z" fill="#f79418" filter="url(#filter1066-1)" opacity=".3"/>
  <path d="m130.08 27.336c-0.29934-0.06063-0.60908-0.09226-0.9266-0.09188l-45.801 0.04683c-2.5402 0.0024-4.5835 2.0483-4.5813 4.5884l0.04687 45.801c0.0024 2.5402 2.0485 4.5816 4.5884 4.5794l14.323-0.01361c13.433-2.126 33.047-11.188 36.026-32.605l0.0302 27.984-0.0454-45.801c-4e-3 -2.2226-1.5701-4.0657-3.6636-4.4898z" fill="url(#linearGradient2606)" stroke-width="3.7775"/>
  <path d="m133.75 49.508s-1.092 11.578-11.907 15.928c-8.935 3.5934 2.3941 10.489-24.14 16.68 34.307-5.948 36.296-32.446 36.296-32.446z" fill="url(#linearGradient938)" stroke-width="3.7775"/>
  <g fill="#f4af3c" stroke-width=".50255">
   <path d="m97.309 58.351v-3.936h-3.2391v-1.6294h5.2021v6.2919q-1.1484 0.81468-2.5324 1.2368-1.384 0.41224-2.9545 0.41224-3.4354 0-5.3788-2.0023-1.9336-2.0121-1.9336-5.5947 0-3.5924 1.9336-5.5947 1.9435-2.0121 5.3788-2.0121 1.4331 0 2.7188 0.35335 1.2956 0.35335 2.3851 1.0404v2.1103q-1.0993-0.93249-2.3361-1.4036-1.2368-0.47114-2.6011-0.47114-2.6894 0-4.0439 1.5017-1.3447 1.5017-1.3447 4.4758 0 2.9642 1.3447 4.466 1.3545 1.5017 4.0439 1.5017 1.0502 0 1.8747-0.17668 0.82451-0.18649 1.4821-0.56929z"/>
   <path d="m100.15 45.788h12.397v1.6686h-5.2021v12.986h-1.9925v-12.986h-5.2021z"/>
   <path d="m114.46 45.788h1.9827v6.1936l6.5763-6.1936h2.552l-7.2734 6.8314 7.7934 7.8227h-2.6109l-7.0377-7.0573v7.0573h-1.9827z"/>
  </g>
 </g>
</svg>
