<?xml version="1.0" encoding="UTF-8"?>
<svg width="64" height="64" version="1" xmlns="http://www.w3.org/2000/svg" xmlns:xlink="http://www.w3.org/1999/xlink">
 <defs>
  <filter id="filter937" x="-.065882" y="-.055082" width="1.1318" height="1.1102" color-interpolation-filters="sRGB">
   <feGaussianBlur stdDeviation="0.17430987"/>
  </filter>
 </defs>
 <g transform="translate(-94.736 -29.374)">
  <g stroke-width=".11718">
   <path d="m147.89 40.219-21.154 21.154h29.998c0-4.8171-1.1345-9.3668-3.1524-13.398-0.51787-1.0383-1.0967-2.0429-1.7285-3.0078-1.136-1.7362-2.5025-3.2879-3.9629-4.748zm-21.154 21.154 21.158 21.158c1.4602-1.4605 2.8247-3.0131 3.9609-4.748 0.63175-0.9649 1.2085-1.9694 1.7266-3.0078 2.018-4.0321 3.1543-8.5833 3.1543-13.4z" fill="#f55028"/>
   <path d="m126.74 61.374-21.213 21.213c5.429 5.429 12.928 8.7871 21.213 8.7871 3.595 0 7.0417-0.63026 10.236-1.791 2.1782-0.79099 4.2401-1.8251 6.1504-3.0742 0.82402-0.53754 1.6207-1.1158 2.3848-1.7305 0.85333-0.68523 1.6121-1.4732 2.3848-2.2461z" fill="#ffbe19"/>
   <path d="m105.53 40.169c-5.4282 5.4294-8.793 12.922-8.793 21.205h-2e-3c0 8.2843 3.3583 15.784 8.7871 21.213l21.213-21.213z" fill="#2d91e6"/>
   <path d="m126.74 31.374c-3.5963 0-7.0444 0.63201-10.24 1.793-2.0068 0.72856-3.9148 1.6666-5.6953 2.7871-1.8904 1.185-3.6402 2.5764-5.2148 4.1426-0.0215 0.02144-0.0353 0.04891-0.0566 0.07031l21.207 21.207 21.154-21.156c-0.7437-0.74374-1.4687-1.5053-2.2871-2.168-0.75792-0.61349-1.5466-1.1909-2.3633-1.7285-1.9425-1.2833-4.0424-2.3454-6.2637-3.1523-3.1959-1.161-6.644-1.7949-10.24-1.7949z" fill="#6914eb"/>
  </g>
  <path transform="matrix(4.1995 0 0 4.1995 91.18 25.846)" d="m10.147 7.6157-0.33202 1.7016h1.4526v0.70554h-1.5771l-0.45653 2.2411h-0.74704l0.45653-2.2411h-1.5356l-0.41502 2.2411h-0.74704l0.41502-2.2411h-1.3696v-0.70554h1.4941l0.33202-1.7016h-1.4111v-0.70554h1.5356l0.45653-2.2411h0.74704l-0.41502 2.2411h1.4941l0.45653-2.2411h0.74704l-0.45653 2.2411h1.3696v0.70554zm-2.6147 1.7016h1.5356l0.33202-1.7016h-1.5356z" filter="url(#filter937)" opacity=".25" stroke-width=".26458"/>
  <path d="m133.79 57.828-1.3943 7.1459h6.1002v2.9629h-6.623l-1.9172 9.4115h-3.1372l1.9172-9.4115h-6.4488l-1.7429 9.4115h-3.1372l1.7429-9.4115h-5.7516v-2.9629h6.2745l1.3943-7.1459h-5.9259v-2.9629h6.4488l1.9172-9.4115h3.1372l-1.7429 9.4115h6.2745l1.9172-9.4115h3.1372l-1.9172 9.4115h5.7516v2.9629zm-10.98 7.1459h6.4488l1.3943-7.1459h-6.4488z" fill="#fff" stroke-width="1.1111"/>
 </g>
</svg>
