<?xml version="1.0" encoding="UTF-8"?>
<svg width="64" height="64" version="1.1" viewBox="0 0 64 64" xmlns="http://www.w3.org/2000/svg" xmlns:xlink="http://www.w3.org/1999/xlink">
 <defs>
  <linearGradient id="linearGradient1005-5" x1=".73911" x2="16.388" y1="16.296" y2=".64687" gradientTransform="matrix(3.7795 0 0 3.7795 42.651 21.958)" gradientUnits="userSpaceOnUse">
   <stop stop-color="#00a0ff" offset="0"/>
   <stop stop-color="#37beff" offset="1"/>
  </linearGradient>
 </defs>
 <g transform="translate(-42.784 -21.933)">
  <path d="m104.78 53.933c0 3.5964-0.63303 7.0444-1.7939 10.24-0.80695 2.2212-1.8685 4.3211-3.1518 6.2635-0.53754 0.81668-1.1155 1.6054-1.729 2.3633-1.964 2.4257-4.298 4.538-6.9183 6.2524-0.9649 0.63184-1.9678 1.2098-3.0061 1.7277-4.032 2.0178-8.5836 3.1529-13.401 3.1529s-9.3687-1.1351-13.401-3.153c-1.0384-0.51799-2.0425-1.0959-3.0074-1.7277-2.6535-1.7375-5.0154-3.883-6.9954-6.3489-0.61464-0.76406-1.1914-1.56-1.729-2.384-1.249-1.9101-2.2836-3.9711-3.0746-6.1493-1.1607-3.1948-1.7926-6.6416-1.7926-10.237 0-16.569 13.431-30 30-30 8.3168 0 15.842 3.3845 21.277 8.8504 1.5661 1.5746 2.9584 3.3233 4.1434 5.2137 1.1204 1.7804 2.0571 3.6881 2.7856 5.6949 1.161 3.1959 1.794 6.6441 1.794 10.24z" fill="url(#linearGradient1005-5)" stroke-width=".11719"/>
  <path d="m74.188 35.988c-1.5906 0-3.0984 0.18265-4.5235 0.54702-1.3919 0.36407-2.6512 0.84521-3.778 1.4416l1.2924 3.5797c2.0877-1.1267 4.2258-1.69 6.4128-1.69 1.7232 0 3.0325 0.4465 3.9272 1.3414 0.89473 0.86162 1.3414 1.9884 1.3414 3.3803 0 0.86158-0.19845 1.6573-0.59609 2.3864-0.36453 0.72881-0.84521 1.425-1.4416 2.0878-0.5965 0.66259-1.2257 1.3248-1.8885 1.9877-0.66276 0.6299-1.293 1.3256-1.8895 2.0878-0.5965 0.72877-1.0931 1.5247-1.4907 2.3864-0.36457 0.86162-0.54698 1.8218-0.54698 2.8822 0 0.72877 0.06618 1.4252 0.19836 2.0879h3.8771c-0.03341-0.16615-0.04944-0.34674-0.04944-0.54615v-0.54698c0-1.0935 0.21535-2.0719 0.64618-2.9334 0.43079-0.89473 0.96132-1.7065 1.591-2.4355 0.62957-0.76225 1.3246-1.4911 2.0868-2.187 0.76217-0.69611 1.4582-1.4249 2.0879-2.1871 0.62969-0.76225 1.1602-1.5739 1.591-2.4354 0.43079-0.89489 0.64618-1.9059 0.64618-3.0326 0-0.89473-0.14854-1.8221-0.44679-2.7831-0.26512-0.99414-0.76266-1.8896-1.4918-2.685-0.72902-0.79577-1.7062-1.4415-2.9324-1.9385-1.193-0.53028-2.7346-0.79581-4.6237-0.79581zm-0.79577 29.23c-1.0273 0-1.839 0.33068-2.4355 0.99377-0.5965 0.66263-0.89464 1.4415-0.89464 2.3364 0 0.89481 0.2981 1.6734 0.89464 2.3363 0.5965 0.66259 1.4082 0.99492 2.4355 0.99492 1.0273 0 1.84-0.33234 2.4365-0.99492 0.5965-0.66259 0.89464-1.4415 0.89464-2.3363 0-0.89481-0.2981-1.6736-0.89464-2.3364-0.5965-0.6626-1.4092-0.99377-2.4365-0.99377z" enable-background="new" fill="#fff" stroke-width="8.3766"/>
 </g>
</svg>
