<?xml version="1.0" encoding="UTF-8" standalone="no"?>
<svg
   xmlns:dc="http://purl.org/dc/elements/1.1/"
   xmlns:cc="http://creativecommons.org/ns#"
   xmlns:rdf="http://www.w3.org/1999/02/22-rdf-syntax-ns#"
   xmlns:svg="http://www.w3.org/2000/svg"
   xmlns="http://www.w3.org/2000/svg"
   xmlns:xlink="http://www.w3.org/1999/xlink"
   xmlns:sodipodi="http://sodipodi.sourceforge.net/DTD/sodipodi-0.dtd"
   xmlns:inkscape="http://www.inkscape.org/namespaces/inkscape"
   width="64"
   height="64"
   version="1.1"
   id="svg29"
   sodipodi:docname="help.svg"
   inkscape:version="1.0.1 (3bc2e813f5, 2020-09-07)">
  <metadata
     id="metadata33">
    <rdf:RDF>
      <cc:Work
         rdf:about="">
        <dc:format>image/svg+xml</dc:format>
        <dc:type
           rdf:resource="http://purl.org/dc/dcmitype/StillImage" />
        <dc:title></dc:title>
      </cc:Work>
    </rdf:RDF>
  </metadata>
  <sodipodi:namedview
     pagecolor="#ffffff"
     bordercolor="#666666"
     borderopacity="1"
     objecttolerance="10"
     gridtolerance="10"
     guidetolerance="10"
     inkscape:pageopacity="0"
     inkscape:pageshadow="2"
     inkscape:window-width="1920"
     inkscape:window-height="998"
     id="namedview31"
     showgrid="false"
     inkscape:zoom="4.5906698"
     inkscape:cx="61.341885"
     inkscape:cy="40.565348"
     inkscape:window-x="0"
     inkscape:window-y="0"
     inkscape:window-maximized="1"
     inkscape:current-layer="svg29" />
  <defs
     id="defs17">
    <linearGradient
       id="a"
       x1="540"
       x2="540"
       y1="212.36"
       y2="872.36"
       gradientTransform="matrix(0.063513,0,0,0.063513,118.10482,-2.556)"
       gradientUnits="userSpaceOnUse">
      <stop
         stop-color="#fff"
         offset="0"
         id="stop2" />
      <stop
         stop-color="#d7d7d7"
         offset="1"
         id="stop4" />
    </linearGradient>
    <linearGradient
       id="linearGradient898"
       x1="200"
       x2="400"
       y1="952.36"
       y2="952.36"
       gradientTransform="matrix(0.16259,0,0,0.16259,101.84577,15.636)"
       gradientUnits="userSpaceOnUse">
      <stop
         stop-color="#f4fbfc"
         offset="0"
         id="stop7" />
      <stop
         stop-color="#d6d6d6"
         offset="1"
         id="stop9" />
    </linearGradient>
    <linearGradient
       id="linearGradient862-3"
       x1="7.9373"
       x2="7.9373"
       y1="15.081"
       y2="1.852"
       gradientTransform="matrix(3.7796,0,0,3.7796,118.51277,0)"
       gradientUnits="userSpaceOnUse">
      <stop
         stop-color="#2ec2b4"
         offset="0"
         id="stop12" />
      <stop
         stop-color="#79eec1"
         offset="1"
         id="stop14" />
    </linearGradient>
    <linearGradient
       id="c">
      <stop
         stop-color="#f4fbfc"
         offset="0"
         id="stop858" />
      <stop
         stop-color="#d6d6d6"
         offset="1"
         id="stop860" />
    </linearGradient>
    <linearGradient
       id="b"
       x1="99.036"
       x2="99.036"
       y1="-.50472"
       y2="199.84"
       gradientTransform="matrix(0.30000021,0,0,0.30000021,1.9999781,2.0001065)"
       gradientUnits="userSpaceOnUse">
      <stop
         stop-color="#81e9c0"
         offset="0"
         id="stop863" />
      <stop
         stop-color="#31c6b7"
         offset="1"
         id="stop865" />
    </linearGradient>
    <linearGradient
       id="g"
       x1="303.12"
       x2="303.12"
       y1="846.85"
       y2="1057.8"
       gradientUnits="userSpaceOnUse">
      <stop
         stop-color="#fff"
         offset="0"
         id="stop868" />
      <stop
         stop-color="#d7d7d7"
         offset="1"
         id="stop870" />
    </linearGradient>
    <linearGradient
       id="d"
       x1="200"
       x2="400"
       y1="952.36"
       y2="952.36"
       gradientUnits="userSpaceOnUse"
       xlink:href="#c" />
    <filter
       id="f"
       x="-.036"
       y="-.036"
       width="1.072"
       height="1.072"
       color-interpolation-filters="sRGB">
      <feGaussianBlur
         stdDeviation="3"
         id="feGaussianBlur874" />
    </filter>
    <linearGradient
       id="a-3"
       x1="540"
       x2="540"
       y1="212.36"
       y2="872.36"
       gradientTransform="matrix(0.06351269,0,0,0.06351269,-0.40797469,-2.5623515)"
       gradientUnits="userSpaceOnUse">
      <stop
         stop-color="#fff"
         offset="0"
         id="stop877" />
      <stop
         stop-color="#d7d7d7"
         offset="1"
         id="stop879" />
    </linearGradient>
    <filter
       id="e"
       x="-.036"
       y="-.036"
       width="1.072"
       height="1.072"
       color-interpolation-filters="sRGB">
      <feGaussianBlur
         stdDeviation="14.115"
         id="feGaussianBlur882" />
    </filter>
    <linearGradient
       inkscape:collect="always"
       xlink:href="#c"
       id="linearGradient935"
       gradientUnits="userSpaceOnUse"
       x1="200"
       y1="952.36"
       x2="400"
       y2="952.36" />
    <linearGradient
       inkscape:collect="always"
       xlink:href="#c"
       id="linearGradient939"
       gradientUnits="userSpaceOnUse"
       x1="200"
       y1="952.36"
       x2="400"
       y2="952.36" />
    <linearGradient
       inkscape:collect="always"
       xlink:href="#c"
       id="linearGradient1008"
       gradientUnits="userSpaceOnUse"
       x1="200"
       y1="952.36"
       x2="400"
       y2="952.36" />
    <linearGradient
       inkscape:collect="always"
       xlink:href="#c"
       id="linearGradient1010"
       gradientUnits="userSpaceOnUse"
       x1="200"
       y1="952.36"
       x2="400"
       y2="952.36" />
    <linearGradient
       inkscape:collect="always"
       xlink:href="#c"
       id="linearGradient1012"
       gradientUnits="userSpaceOnUse"
       x1="200"
       y1="952.36"
       x2="400"
       y2="952.36" />
    <linearGradient
       inkscape:collect="always"
       xlink:href="#c"
       id="linearGradient1014"
       gradientUnits="userSpaceOnUse"
       x1="200"
       y1="952.36"
       x2="400"
       y2="952.36" />
    <linearGradient
       inkscape:collect="always"
       xlink:href="#c"
       id="linearGradient1016"
       gradientUnits="userSpaceOnUse"
       x1="200"
       y1="952.36"
       x2="400"
       y2="952.36" />
  </defs>
  <circle
     cx="32"
     cy="32"
     r="30.000021"
     color="#000000"
     fill="url(#b)"
     id="circle889"
     style="fill:url(#b);stroke-width:0.999979" />
  <circle
     cx="32.099468"
     cy="31.877577"
     r="20.959206"
     fill="url(#a)"
     opacity="0.2"
     style="fill:url(#a-3);stroke-width:0.999979;paint-order:stroke markers fill"
     id="circle891" />
  <g
     transform="matrix(0.1625931,0,0,0.1625931,-16.666985,-122.32062)"
     filter="url(#f)"
     opacity="0.2"
     stroke-width="15.683"
     id="g907">
    <path
       transform="translate(0,852.36)"
       d="M 300,0 A 100,100 0 0 0 200,100 100,100 0 0 0 300,200 100,100 0 0 0 400,100 100,100 0 0 0 300,0 Z m 0,12.723 A 87.277,87.277 0 0 1 387.277,100 87.277,87.277 0 0 1 300,187.277 87.277,87.277 0 0 1 212.723,100 87.277,87.277 0 0 1 300,12.723 Z"
       opacity="1"
       id="path893" />
    <path
       transform="translate(0,852.36)"
       d="M 300,38.822 A 61.178,61.178 0 0 0 238.822,100 61.178,61.178 0 0 0 300,161.178 61.178,61.178 0 0 0 361.178,100 61.178,61.178 0 0 0 300,38.822 Z m 0,12.07 A 49.108,49.108 0 0 1 349.107,99.999 49.108,49.108 0 0 1 300,149.106 49.108,49.108 0 0 1 250.893,99.999 49.108,49.108 0 0 1 300,50.892 Z"
       opacity="1"
       id="path895" />
    <g
       fill-rule="evenodd"
       id="g905">
      <path
         d="m 220.53,911.65 26.759,14.994 26.759,-28.374 -16.84,-27.451 c 0,0 -31.373,14.764 -36.678,40.83 z"
         id="path897" />
      <path
         d="m 326.18,898.73 15.917,-27.22 14.764,7.6125 21.915,32.065 -31.603,18.224 -5.3056,-15.225 z"
         id="path899" />
      <path
         d="m 352.71,978.08 31.373,18.454 -14.994,23.299 -27.912,11.073 -17.762,-28.374 z"
         id="path901" />
      <path
         d="m 258.59,1030.7 15.225,-24.683 -26.759,-27.451 -27.451,15.686 7.6125,19.377 z"
         id="path903" />
    </g>
  </g>
  <g
     transform="matrix(0.1625931,0,0,0.1625931,-16.666985,-122.95824)"
     fill="url(#d)"
     stroke-width="15.683"
     id="g923"
     style="fill:url(#d)">
    <path
       transform="translate(0,852.36)"
       d="M 300,0 A 100,100 0 0 0 200,100 100,100 0 0 0 300,200 100,100 0 0 0 400,100 100,100 0 0 0 300,0 Z m 0,12.723 A 87.277,87.277 0 0 1 387.277,100 87.277,87.277 0 0 1 300,187.277 87.277,87.277 0 0 1 212.723,100 87.277,87.277 0 0 1 300,12.723 Z"
       id="path909"
       style="fill:url(#linearGradient1008)" />
    <path
       transform="translate(0,852.36)"
       d="M 300,38.822 A 61.178,61.178 0 0 0 238.822,100 61.178,61.178 0 0 0 300,161.178 61.178,61.178 0 0 0 361.178,100 61.178,61.178 0 0 0 300,38.822 Z m 0,12.07 A 49.108,49.108 0 0 1 349.107,99.999 49.108,49.108 0 0 1 300,149.106 49.108,49.108 0 0 1 250.893,99.999 49.108,49.108 0 0 1 300,50.892 Z"
       id="path911"
       style="fill:url(#linearGradient935)" />
    <g
       fill-rule="evenodd"
       id="g921"
       style="fill:url(#linearGradient939)">
      <path
         d="m 220.53,911.65 26.759,14.994 26.759,-28.374 -16.84,-27.451 c 0,0 -31.373,14.764 -36.678,40.83 z"
         id="path913"
         style="fill:url(#linearGradient1010)" />
      <path
         d="m 326.18,898.73 15.917,-27.22 14.764,7.6125 21.915,32.065 -31.603,18.224 -5.3056,-15.225 z"
         id="path915"
         style="fill:url(#linearGradient1012)" />
      <path
         d="m 352.71,978.08 31.373,18.454 -14.994,23.299 -27.912,11.073 -17.762,-28.374 z"
         id="path917"
         style="fill:url(#linearGradient1014)" />
      <path
         d="m 258.59,1030.7 15.225,-24.683 -26.759,-27.451 -27.451,15.686 7.6125,19.377 z"
         id="path919"
         style="fill:url(#linearGradient1016)" />
    </g>
  </g>
</svg>
