<?xml version="1.0" encoding="UTF-8" standalone="no"?>
<svg
   xmlns:dc="http://purl.org/dc/elements/1.1/"
   xmlns:cc="http://creativecommons.org/ns#"
   xmlns:rdf="http://www.w3.org/1999/02/22-rdf-syntax-ns#"
   xmlns:svg="http://www.w3.org/2000/svg"
   xmlns="http://www.w3.org/2000/svg"
   xmlns:xlink="http://www.w3.org/1999/xlink"
   xmlns:sodipodi="http://sodipodi.sourceforge.net/DTD/sodipodi-0.dtd"
   xmlns:inkscape="http://www.inkscape.org/namespaces/inkscape"
   inkscape:version="1.0 (4035a4fb49, 2020-05-01)"
   sodipodi:docname="iagno.svg"
   id="svg88"
   version="1.1"
   height="64"
   width="64">
  <metadata
     id="metadata92">
    <rdf:RDF>
      <cc:Work
         rdf:about="">
        <dc:format>image/svg+xml</dc:format>
        <dc:type
           rdf:resource="http://purl.org/dc/dcmitype/StillImage" />
        <dc:title></dc:title>
      </cc:Work>
    </rdf:RDF>
  </metadata>
  <sodipodi:namedview
     inkscape:current-layer="svg88"
     inkscape:window-maximized="1"
     inkscape:window-y="0"
     inkscape:window-x="0"
     inkscape:cy="28.927978"
     inkscape:cx="5.5303108"
     inkscape:zoom="6.375"
     showgrid="false"
     id="namedview90"
     inkscape:window-height="985"
     inkscape:window-width="1920"
     inkscape:pageshadow="2"
     inkscape:pageopacity="0"
     guidetolerance="10"
     gridtolerance="10"
     objecttolerance="10"
     borderopacity="1"
     bordercolor="#666666"
     pagecolor="#ffffff" />
  <defs
     id="defs46">
    <linearGradient
       id="linearGradient1784"
       inkscape:collect="always">
      <stop
         id="stop1780"
         offset="0"
         style="stop-color:#4d4d4d;stop-opacity:1" />
      <stop
         id="stop1782"
         offset="1"
         style="stop-color:#1a1a1a;stop-opacity:1" />
    </linearGradient>
    <linearGradient
       id="linearGradient905">
      <stop
         id="stop2"
         offset="0"
         stop-color="#ffb22a" />
      <stop
         id="stop4"
         offset="1"
         stop-color="#ffec4a" />
    </linearGradient>
    <linearGradient
       id="linearGradient889">
      <stop
         id="stop7"
         offset="0"
         stop-color="#373737" />
      <stop
         id="stop9"
         offset="1"
         stop-color="#646464" />
    </linearGradient>
    <linearGradient
       id="linearGradient873">
      <stop
         id="stop12"
         offset="0"
         stop-color="#f9f9f9" />
      <stop
         id="stop14"
         offset="1"
         stop-color="#dedede" />
    </linearGradient>
    <linearGradient
       xlink:href="#linearGradient873"
       gradientUnits="userSpaceOnUse"
       y2="31.424"
       y1="31.424"
       x2="34.169"
       x1="22.169"
       id="linearGradient875" />
    <linearGradient
       xlink:href="#linearGradient873"
       gradientUnits="userSpaceOnUse"
       y2="43.424"
       y1="43.424"
       x2="46.169"
       x1="34.169"
       id="linearGradient883" />
    <linearGradient
       xlink:href="#linearGradient889"
       gradientUnits="userSpaceOnUse"
       y2="43.424"
       y1="43.424"
       x2="34.169"
       x1="22.169"
       id="linearGradient891" />
    <linearGradient
       xlink:href="#linearGradient889"
       gradientUnits="userSpaceOnUse"
       y2="31.424"
       y1="31.424"
       x2="46.169"
       x1="34.169"
       id="linearGradient899" />
    <linearGradient
       xlink:href="#linearGradient905"
       gradientUnits="userSpaceOnUse"
       y2="43.424"
       y1="43.424"
       x2="32.368"
       x1="23.978"
       id="linearGradient907" />
    <linearGradient
       xlink:href="#linearGradient905"
       gradientUnits="userSpaceOnUse"
       y2="31.424"
       y1="31.424"
       x2="44.368"
       x1="35.978"
       id="linearGradient915" />
    <filter
       color-interpolation-filters="sRGB"
       height="1.24"
       width="1.24"
       y="-.12"
       x="-.12"
       id="filter989">
      <feGaussianBlur
         id="feGaussianBlur23"
         stdDeviation="0.6" />
    </filter>
    <filter
       color-interpolation-filters="sRGB"
       height="1.24"
       width="1.24"
       y="-.12"
       x="-.12"
       id="filter993">
      <feGaussianBlur
         id="feGaussianBlur26"
         stdDeviation="0.6" />
    </filter>
    <filter
       color-interpolation-filters="sRGB"
       height="1.24"
       width="1.24"
       y="-.12"
       x="-.12"
       id="filter997">
      <feGaussianBlur
         id="feGaussianBlur29"
         stdDeviation="0.6" />
    </filter>
    <filter
       color-interpolation-filters="sRGB"
       height="1.24"
       width="1.24"
       y="-.12"
       x="-.12"
       id="filter1001">
      <feGaussianBlur
         id="feGaussianBlur32"
         stdDeviation="0.6" />
    </filter>
    <filter
       color-interpolation-filters="sRGB"
       height="1.3029"
       width="1.2888"
       y="-.15146"
       x="-.14442"
       id="filter1049">
      <feGaussianBlur
         id="feGaussianBlur35"
         stdDeviation="0.504875" />
    </filter>
    <filter
       color-interpolation-filters="sRGB"
       height="1.3029"
       width="1.2888"
       y="-.15146"
       x="-.14442"
       id="filter1053">
      <feGaussianBlur
         id="feGaussianBlur38"
         stdDeviation="0.504875" />
    </filter>
    <linearGradient
       gradientUnits="userSpaceOnUse"
       gradientTransform="matrix(3.7795,0,0,3.7795,-75.942528,0.031541)"
       y2="1.852"
       y1="15.081"
       x2="7.9373"
       x1="7.9373"
       id="linearGradient862-3">
      <stop
         id="stop41"
         offset="0"
         stop-color="#1a1a1a" />
      <stop
         id="stop43"
         offset="1"
         stop-color="#4d4d4d" />
    </linearGradient>
    <clipPath
       id="clipPath13429">
      <path
         d="m481 318h22v22h-22z"
         id="path917" />
    </clipPath>
    <clipPath
       id="clipPath13465">
      <path
         d="m507 318h22v22h-22z"
         id="path920" />
    </clipPath>
    <clipPath
       id="clipPath13501">
      <path
         d="m530 318h22v22h-22z"
         id="path923" />
    </clipPath>
    <clipPath
       id="clipPath13753">
      <path
         d="m672 1064c0-1.105 4.925-2 11-2s11 0.895 11 2-4.925 2-11 2-11-0.895-11-2"
         id="path926" />
    </clipPath>
    <clipPath
       id="clipPath13771">
      <path
         d="m660 1057h51v65.001h-51z"
         id="path929" />
    </clipPath>
    <clipPath
       id="clipPath14035">
      <path
         d="m659 517h53v18h-53z"
         id="path932" />
    </clipPath>
    <clipPath
       id="clipPath14127">
      <path
         d="m659 500h53v18h-53z"
         id="path935" />
    </clipPath>
    <clipPath
       id="clipPath14445">
      <path
         d="m648 112h73v60h-73z"
         id="path938" />
    </clipPath>
    <clipPath
       id="clipPath14609">
      <path
         d="m826 1056h59v60h-59z"
         id="path941" />
    </clipPath>
    <clipPath
       id="clipPath15305">
      <path
         d="m805 276h100v100h-100z"
         id="path944" />
    </clipPath>
    <clipPath
       id="clipPath15341">
      <path
         d="m145 1063.8h74.152v45.21h-74.152z"
         id="path947" />
    </clipPath>
    <clipPath
       id="clipPath15715">
      <path
         d="m151 667h57v57h-57z"
         id="path950" />
    </clipPath>
    <clipPath
       id="clipPath15807">
      <path
         d="m154 697h51v51h-51z"
         id="path953" />
    </clipPath>
    <clipPath
       id="clipPath16001">
      <path
         d="m500.04 864.45h36.012v67.52h-36.012z"
         id="path956" />
    </clipPath>
    <clipPath
       id="clipPath16093">
      <path
         d="m836 870.54h47v55.539h-47z"
         id="path959" />
    </clipPath>
    <clipPath
       id="clipPath16477">
      <path
         d="m318.03 702.35h62.848v37.991h-62.848z"
         id="path962" />
    </clipPath>
    <clipPath
       id="clipPath16579">
      <path
         d="m485.03 133.35h62.847v37.991h-62.847z"
         id="path965" />
    </clipPath>
    <clipPath
       id="clipPath16709">
      <path
         d="m493.37 677.93h45.643v68.067h-45.643z"
         id="path968" />
    </clipPath>
    <clipPath
       id="clipPath24218">
      <path
         d="m144.34 1018.2h71.467v78h-71.467z"
         id="path971" />
    </clipPath>
    <clipPath
       id="clipPath24382">
      <path
         d="m293.21 1068.6 66.323-38.292 36.047 62.435-66.323 38.292z"
         id="path974" />
    </clipPath>
    <clipPath
       id="clipPath24650">
      <path
         d="m488.86 1054.5h10v10.706h-10z"
         id="path977" />
    </clipPath>
    <clipPath
       id="clipPath24700">
      <path
         d="m508 1066.8h10.001v10.705h-10.001z"
         id="path980" />
    </clipPath>
    <clipPath
       id="clipPath24750">
      <path
         d="m525 1045.8h10v10.706h-10z"
         id="path983" />
    </clipPath>
    <clipPath
       id="clipPath24864">
      <path
         d="m836 1043.7h25.5v31.5h-25.5z"
         id="path986" />
    </clipPath>
    <clipPath
       id="clipPath24896">
      <path
         d="m838 1062.2h24v24h-24z"
         id="path989" />
    </clipPath>
    <clipPath
       id="clipPath25070">
      <path
         d="m134 489.24h7v6h-7z"
         id="path992" />
    </clipPath>
    <clipPath
       id="clipPath25100">
      <path
         d="m216 489.24h7v6h-7z"
         id="path995" />
    </clipPath>
    <clipPath
       id="clipPath25502">
      <path
         d="m838 477.24h22v22h-22z"
         id="path998" />
    </clipPath>
    <clipPath
       id="clipPath25686">
      <path
         d="m704 1061.2h25v25h-25z"
         id="path1001" />
    </clipPath>
    <clipPath
       id="clipPath25788">
      <path
         d="m663.04 1078.6-1.808-3.514-21.07-47.453c13.336-18.439 48.336-26.938 73.836-3.439 0.842 0 6.476 6.246 6 7l-18.386 25.895c-0.483 0.765-1.453 0.946-2.177 0.431l-15.505-11.011c-0.359-0.255-0.847-0.153-1.07 0.238l-18.272 31.869c-0.218 0.384-0.502 0.578-0.782 0.578-0.282 0-0.561-0.197-0.766-0.594"
         id="path1004" />
    </clipPath>
    <clipPath
       id="clipPath26420">
      <path
         d="m127 820.24h100v100h-100z"
         id="path1007" />
    </clipPath>
    <clipPath
       id="clipPath26860">
      <path
         d="m809 680.24c0-22.092 17.908-40 40-40s40 17.908 40 40c0 22.091-17.908 40-40 40s-40-17.909-40-40"
         id="path1010" />
    </clipPath>
    <clipPath
       id="clipPath27506">
      <path
         d="m658 469.24h44v45h-44z"
         id="path1013" />
    </clipPath>
    <clipPath
       id="clipPath27772">
      <path
         d="m651 271.24h58v58h-58z"
         id="path1016" />
    </clipPath>
    <clipPath
       id="clipPath27864">
      <path
         d="m662 307.24h38v8h-38z"
         id="path1019" />
    </clipPath>
    <clipPath
       id="clipPath28028">
      <path
         d="m858.98 137.24c0.013-0.101 0.021-0.203 0.021-0.307v-6.693h15.75c1.237 0 2.25-1.013 2.25-2.25v-11.25l-27-4.5-27 4.5v-2.25l27-4.5 27 4.5v-27c0-1.237-1.013-2.25-2.25-2.25h-49.5c-1.237 0-2.25 1.013-2.25 2.25v-4.25h54v54zm-35.979 0v-9.25c0 1.237 1.013 2.25 2.25 2.25h15.75v6.693c0 0.104 7e-3 0.207 0.02 0.307zm22.5-7h9v4.5h-9zm1.125-9c-0.62 0-1.125-0.506-1.125-1.125v-2.25c0-0.619 0.505-1.125 1.125-1.125h6.75c0.619 0 1.125 0.506 1.125 1.125v2.25c0 0.619-0.506 1.125-1.125 1.125z"
         id="path1022" />
    </clipPath>
    <clipPath
       id="clipPath28200">
      <path
         d="m531.27 136.24c6.325-2.29 10.727-8.277 10.727-15.484 0-11.316-10.2-20.563-25.65-34.575l-4.35-3.941-4.35 3.941c-15.45 14.012-25.65 23.259-25.65 34.575v-39.516h60v55zm-26.983 0c2.995-1.052 5.686-2.883 7.71-5.25 2.024 2.367 4.715 4.198 7.71 5.25zm-22.29 0v-15.484c0 7.207 4.402 13.194 10.727 15.484z"
         id="path1025" />
    </clipPath>
    <clipPath
       id="clipPath28364">
      <path
         d="m648 79.241h64v64h-64z"
         id="path1028" />
    </clipPath>
    <clipPath
       id="clipPath28984">
      <path
         d="m500 691.74c0-3.037 2.463-5.5 5.5-5.5s5.5 2.463 5.5 5.5-2.463 5.5-5.5 5.5-5.5-2.463-5.5-5.5"
         id="path1031" />
    </clipPath>
    <clipPath
       id="clipPath29012">
      <path
         d="m500 669.74c0-3.037 2.463-5.5 5.5-5.5s5.5 2.463 5.5 5.5c0 3.038-2.463 5.5-5.5 5.5s-5.5-2.462-5.5-5.5"
         id="path1034" />
    </clipPath>
    <clipPath
       id="clipPath29040">
      <path
         d="m494 680.74c0-3.037 2.462-5.5 5.5-5.5s5.5 2.463 5.5 5.5c0 3.038-2.462 5.5-5.5 5.5s-5.5-2.462-5.5-5.5"
         id="path1037" />
    </clipPath>
    <clipPath
       id="clipPath29068">
      <path
         d="m513 691.74c0-3.037 2.463-5.5 5.5-5.5s5.5 2.463 5.5 5.5-2.463 5.5-5.5 5.5-5.5-2.463-5.5-5.5"
         id="path1040" />
    </clipPath>
    <clipPath
       id="clipPath29096">
      <path
         d="m513 669.74c0-3.037 2.463-5.5 5.5-5.5s5.5 2.463 5.5 5.5c0 3.038-2.463 5.5-5.5 5.5s-5.5-2.462-5.5-5.5"
         id="path1043" />
    </clipPath>
    <clipPath
       id="clipPath29124">
      <path
         d="m507 680.74c0-3.037 2.463-5.5 5.5-5.5s5.5 2.463 5.5 5.5c0 3.038-2.463 5.5-5.5 5.5s-5.5-2.462-5.5-5.5"
         id="path1046" />
    </clipPath>
    <clipPath
       id="clipPath29152">
      <path
         d="m520 680.74c0-3.037 2.463-5.5 5.5-5.5s5.5 2.463 5.5 5.5c0 3.038-2.463 5.5-5.5 5.5s-5.5-2.462-5.5-5.5"
         id="path1049" />
    </clipPath>
    <clipPath
       id="clipPath29252">
      <path
         d="m321 322.24c-4.97 0-9-4.029-9-9 0-4.97 4.03-9 9-9h45c4.971 0 9 4.03 9 9 0 4.971-4.029 9-9 9z"
         id="path1052" />
    </clipPath>
    <clipPath
       id="clipPath29280">
      <path
         d="m322 297.24c-4.971 0-9-4.029-9-9 0-4.97 4.029-9 9-9h45c4.971 0 9 4.03 9 9 0 4.971-4.029 9-9 9z"
         id="path1055" />
    </clipPath>
    <clipPath
       id="clipPath29400">
      <path
         d="m155 83.24h44v53h-44z"
         id="path1058" />
    </clipPath>
    <filter
       id="c-6"
       x="-.035763"
       y="-.03624"
       width="1.0715"
       height="1.0725"
       color-interpolation-filters="sRGB">
      <feGaussianBlur
         stdDeviation="7.629403"
         id="feGaussianBlur1061" />
    </filter>
    <linearGradient
       id="b-3"
       x1="101.53"
       x2="101.53"
       y1="18.888"
       y2="183.55"
       gradientTransform="matrix(0.0611,0,0,0.0611,2.3916,2.1691)"
       gradientUnits="userSpaceOnUse">
      <stop
         stop-color="#f5faff"
         offset="0"
         id="stop1064" />
      <stop
         stop-color="#cfdef0"
         offset="1"
         id="stop1066" />
    </linearGradient>
    <clipPath
       id="a">
      <circle
         cx="8.467"
         cy="288.53"
         r="6.879"
         fill="#d86eb0"
         stroke-opacity=".039"
         stroke-width=".491"
         style="paint-order:stroke markers fill"
         id="circle1069" />
    </clipPath>
    <linearGradient
       id="b"
       x1="9.2603"
       x2="9.2603"
       y1="-.26249"
       y2="15.612"
       gradientTransform="translate(-0.79384,0.79164)"
       gradientUnits="userSpaceOnUse">
      <stop
         stop-color="#36474f"
         offset="0"
         id="stop1072" />
      <stop
         stop-color="#273238"
         stop-opacity=".98824"
         offset="1"
         id="stop1074" />
    </linearGradient>
    <linearGradient
       gradientUnits="userSpaceOnUse"
       y2="59.787029"
       x2="31.153847"
       y1="4.9898996"
       x1="31.153847"
       id="linearGradient1786"
       xlink:href="#linearGradient1784"
       inkscape:collect="always" />
  </defs>
  <circle
     r="30"
     cy="32"
     cx="32"
     id="path1778"
     style="opacity:1;fill:url(#linearGradient1786);stroke-width:2.68331;stroke-linecap:round;fill-opacity:1" />
  <g
     id="g86"
     transform="matrix(1.3333,0,0,1.3333,-13.557528,-17.897419)">
    <path
       id="path62"
       opacity="0.25"
       filter="url(#filter989)"
       d="m 34.169,31.424 c 0,3.313 -2.688,6 -6,6 -3.313,0 -6,-2.688 -6,-6 0,-3.313 2.688,-6 6,-6 3.313,0 6,2.688 6,6" />
    <path
       id="path64"
       opacity="0.25"
       filter="url(#filter993)"
       d="m 46.169,43.424 c 0,3.313 -2.688,6 -6,6 -3.313,0 -6,-2.688 -6,-6 0,-3.313 2.688,-6 6,-6 3.313,0 6,2.688 6,6" />
    <path
       id="path66"
       opacity="0.25"
       filter="url(#filter997)"
       d="m 34.169,43.424 c 0,3.313 -2.688,6 -6,6 -3.313,0 -6,-2.688 -6,-6 0,-3.313 2.688,-6 6,-6 3.313,0 6,2.688 6,6" />
    <path
       id="path68"
       opacity="0.25"
       filter="url(#filter1001)"
       d="m 46.169,31.424 c 0,3.313 -2.688,6 -6,6 -3.313,0 -6,-2.688 -6,-6 0,-3.313 2.688,-6 6,-6 3.313,0 6,2.688 6,6" />
    <path
       style="fill:url(#linearGradient875)"
       id="path70"
       fill="url(#linearGradient875)"
       d="m 34.169,31.424 c 0,3.313 -2.688,6 -6,6 -3.313,0 -6,-2.688 -6,-6 0,-3.313 2.688,-6 6,-6 3.313,0 6,2.688 6,6" />
    <path
       style="fill:url(#linearGradient883)"
       id="path72"
       fill="url(#linearGradient883)"
       d="m 46.169,43.424 c 0,3.313 -2.688,6 -6,6 -3.313,0 -6,-2.688 -6,-6 0,-3.313 2.688,-6 6,-6 3.313,0 6,2.688 6,6" />
    <path
       style="fill:url(#linearGradient891)"
       id="path74"
       fill="url(#linearGradient891)"
       d="m 34.169,43.424 c 0,3.313 -2.688,6 -6,6 -3.313,0 -6,-2.688 -6,-6 0,-3.313 2.688,-6 6,-6 3.313,0 6,2.688 6,6" />
    <path
       id="path76"
       opacity="0.25"
       filter="url(#filter1049)"
       d="m 30.724,47.424 -2.582,-1.383 -2.602,1.34 0.52,-2.883 -2.082,-2.059 2.902,-0.398 1.316,-2.617 1.277,2.637 2.895,0.445 -2.117,2.027" />
    <path
       style="fill:url(#linearGradient907)"
       id="path78"
       fill="url(#linearGradient907)"
       d="m 30.724,47.424 -2.582,-1.383 -2.602,1.34 0.52,-2.883 -2.082,-2.059 2.902,-0.398 1.316,-2.617 1.277,2.637 2.895,0.445 -2.117,2.027" />
    <path
       style="fill:url(#linearGradient899)"
       id="path80"
       fill="url(#linearGradient899)"
       d="m 46.169,31.424 c 0,3.313 -2.688,6 -6,6 -3.313,0 -6,-2.688 -6,-6 0,-3.313 2.688,-6 6,-6 3.313,0 6,2.688 6,6" />
    <path
       id="path82"
       opacity="0.25"
       filter="url(#filter1053)"
       d="m 42.724,35.424 -2.582,-1.383 -2.602,1.34 0.52,-2.883 -2.082,-2.059 2.902,-0.398 1.316,-2.617 1.277,2.637 2.895,0.445 -2.117,2.027" />
    <path
       style="fill:url(#linearGradient915)"
       id="path84"
       fill="url(#linearGradient915)"
       d="m 42.724,35.424 -2.582,-1.383 -2.602,1.34 0.52,-2.883 -2.082,-2.059 2.902,-0.398 1.316,-2.617 1.277,2.637 2.895,0.445 -2.117,2.027" />
  </g>
</svg>
