<?xml version="1.0" encoding="UTF-8"?>
<svg width="64" height="64" version="1.1" xmlns="http://www.w3.org/2000/svg">
 <defs>
  <filter id="c-3" x="-.06" y="-.06" width="1.12" height="1.12" color-interpolation-filters="sRGB">
   <feGaussianBlur stdDeviation="0.6999997"/>
  </filter>
  <linearGradient id="linearGradient1159-3" x1="-184.75" x2="-170.2" y1="-1.2655" y2="-15.817" gradientTransform="matrix(3.7796 0 0 3.7796 702.82 64.287)" gradientUnits="userSpaceOnUse">
   <stop stop-color="#cfddef" offset="0"/>
   <stop stop-color="#f4f9ff" offset="1"/>
  </linearGradient>
 </defs>
 <g transform="matrix(3.7796 0 0 3.7796 60.314 32.107)" fill="#5e4aa6" stroke-width=".26458">
  <circle cx="-330.35" cy="-328.38" r="0"/>
  <circle cx="-312.11" cy="-326.25" r="0"/>
  <circle cx="-306.02" cy="-333.07" r="0"/>
  <circle cx="-308.84" cy="-326.01" r="0"/>
 </g>
 <rect x="4.4995" y="4.4995" width="55.001" height="55.001" ry="4.5877" fill="url(#linearGradient1159-3)" stroke-width="3.7796"/>
 <g transform="matrix(4.2184 0 0 4.2184 -1.6272 -4.4562)">
  <path transform="matrix(.26458 0 0 .26458 -.495 .17548)" d="m40.384 34.728-2.7879 0.0201-0.0402-5.5758 2.7879-0.0201c3.0793-0.0222 5.5579-2.5368 5.5357-5.616-0.02221-3.0792-2.5368-5.5578-5.6161-5.5356-3.0796 0.0222-5.5579 2.5368-5.5357 5.616l0.0201 2.7879-5.5759 0.04021-0.0201-2.7879c-0.02221-3.0792-2.5368-5.5578-5.6161-5.5356s-5.5579 2.5368-5.5357 5.616c0.02221 3.0792 2.5368 5.5578 5.6161 5.5356l2.7879-0.0201 0.04023 5.5758-2.7879 0.0201c-3.0793 0.0222-5.5579 2.5368-5.5357 5.616s2.5368 5.5578 5.6161 5.5356c3.0796-0.0222 5.5579-2.5368 5.5357-5.616l-0.0201-2.7879 5.5759-0.04021 0.02005 2.7809c2e-5 0.0028-3.13e-4 0.0049-2.99e-4 7e-3 0.02221 3.0792 2.5368 5.5578 5.6161 5.5356s5.5579-2.5368 5.5357-5.616c-0.02221-3.0792-2.5365-5.5571-5.6157-5.5356zm-0.10053-13.94c1.5396-0.01108 2.7969 1.2282 2.808 2.7678 0.0112 1.5396-1.2282 2.7969-2.7678 2.808l-2.7879 0.0201-0.0201-2.7879c-0.0112-1.5396 1.2282-2.7969 2.7678-2.808zm-19.495 2.9287c-0.0112-1.5396 1.2282-2.7969 2.7678-2.808 1.5396-0.01108 2.7969 1.2282 2.808 2.7678l0.0201 2.7879-2.7879 0.0201c-1.5396 0.01108-2.7969-1.2285-2.808-2.7678zm2.9287 19.495c-1.5396 0.01108-2.7969-1.2282-2.808-2.7678-0.0112-1.5396 1.2282-2.7969 2.7678-2.808l2.7879-0.0201 0.0201 2.7879c0.0112 1.5396-1.2282 2.7969-2.7678 2.808zm5.5156-8.4039-0.0402-5.5758 5.5759-0.04021 0.0402 5.5758zm11.212 8.2833c-1.5396 0.01108-2.7969-1.2282-2.808-2.7678l-0.0201-2.7879 2.7876-0.0201c1.5396-0.01108 2.7969 1.2282 2.808 2.7678 0.0112 1.5396-1.2278 2.7969-2.7675 2.808z" filter="url(#c-3)" image-rendering="optimizeSpeed" opacity=".15" stroke-width=".24412"/>
  <path d="m10.19 9.3638-0.73762 0.00532-0.01064-1.4752 0.73762-0.00532c0.81472-0.00587 1.4705-0.67118 1.4646-1.4859-0.0059-0.81469-0.67118-1.4705-1.4859-1.4646-0.81479 0.00587-1.4705 0.67118-1.4646 1.4859l0.0053 0.73762-1.4753 0.010639-0.0053-0.73762c-0.0059-0.81469-0.67118-1.4705-1.4859-1.4646-0.81472 0.00587-1.4705 0.67118-1.4646 1.4859 0.0059 0.81469 0.67118 1.4705 1.4859 1.4646l0.73762-0.00532 0.01064 1.4752-0.73762 0.00532c-0.81472 0.00587-1.4705 0.67118-1.4646 1.4859 0.0059 0.81469 0.67118 1.4705 1.4859 1.4646 0.8148-0.0059 1.4705-0.67118 1.4646-1.4859l-0.0053-0.73762 1.4753-0.01064 0.0053 0.73576c6e-6 7.41e-4 -8.2e-5 0.0013-7.9e-5 0.0019 0.0059 0.81469 0.67118 1.4705 1.4859 1.4646s1.4705-0.67118 1.4646-1.4859c-0.0059-0.81469-0.6711-1.4703-1.4858-1.4646zm-0.0266-3.6882c0.40734-0.00293 0.74 0.32495 0.74294 0.7323 3e-3 0.40734-0.32496 0.74-0.7323 0.74294l-0.73762 0.00532-0.0053-0.73762c-3e-3 -0.40734 0.32496-0.74 0.7323-0.74294zm-5.158 0.77487c-3e-3 -0.40734 0.32496-0.74 0.7323-0.74294 0.40734-0.00293 0.74 0.32495 0.74294 0.7323l0.0053 0.73762-0.73762 0.00532c-0.40734 0.00293-0.74-0.32503-0.74294-0.7323zm0.77487 5.158c-0.40734 0.0029-0.74-0.32496-0.74294-0.7323-3e-3 -0.40734 0.32496-0.74 0.7323-0.74294l0.73762-0.0053 0.0053 0.73762c3e-3 0.40734-0.32496 0.74-0.7323 0.74294zm1.4593-2.2235-0.01064-1.4752 1.4753-0.010639 0.01064 1.4752zm2.9664 2.1916c-0.40734 0.0029-0.74-0.32496-0.74293-0.7323l-0.0053-0.73762 0.73754-0.0053c0.40734-0.0029 0.74 0.32496 0.74294 0.7323 3e-3 0.40734-0.32485 0.74-0.73222 0.74294z" fill="#2d3237" image-rendering="optimizeSpeed" stroke-width=".064589"/>
 </g>
</svg>
