<?xml version="1.0" encoding="UTF-8" standalone="no"?>
<svg
   xmlns:dc="http://purl.org/dc/elements/1.1/"
   xmlns:cc="http://creativecommons.org/ns#"
   xmlns:rdf="http://www.w3.org/1999/02/22-rdf-syntax-ns#"
   xmlns:svg="http://www.w3.org/2000/svg"
   xmlns="http://www.w3.org/2000/svg"
   xmlns:xlink="http://www.w3.org/1999/xlink"
   xmlns:sodipodi="http://sodipodi.sourceforge.net/DTD/sodipodi-0.dtd"
   xmlns:inkscape="http://www.inkscape.org/namespaces/inkscape"
   inkscape:version="1.0 (4035a4fb49, 2020-05-01)"
   sodipodi:docname="idea.svg"
   viewBox="0 0 64 64"
   version="1.1"
   image-rendering="optimizeSpeed"
   enable-background="new 0 0 1024 1024"
   height="64"
   width="64"
   id="Calculator">
  <metadata
     id="metadata37">
    <rdf:RDF>
      <cc:Work
         rdf:about="">
        <dc:format>image/svg+xml</dc:format>
        <dc:type
           rdf:resource="http://purl.org/dc/dcmitype/StillImage" />
        <dc:title></dc:title>
      </cc:Work>
    </rdf:RDF>
  </metadata>
  <sodipodi:namedview
     inkscape:current-layer="Calculator"
     inkscape:window-maximized="1"
     inkscape:window-y="0"
     inkscape:window-x="0"
     inkscape:cy="32.630467"
     inkscape:cx="-35.712583"
     inkscape:zoom="6.375"
     showgrid="false"
     id="namedview35"
     inkscape:window-height="985"
     inkscape:window-width="1920"
     inkscape:pageshadow="2"
     inkscape:pageopacity="0"
     guidetolerance="10"
     gridtolerance="10"
     objecttolerance="10"
     borderopacity="1"
     bordercolor="#666666"
     pagecolor="#ffffff"
     inkscape:document-rotation="0" />
  <defs
     id="defs10">
    <linearGradient
       id="linearGradient966"
       inkscape:collect="always">
      <stop
         id="stop962"
         offset="0"
         style="stop-color:#424242;stop-opacity:1" />
      <stop
         id="stop964"
         offset="1"
         style="stop-color:#303030;stop-opacity:1" />
    </linearGradient>
    <filter
       color-interpolation-filters="sRGB"
       height="1.216"
       width="1.216"
       y="-.108"
       x="-.108"
       id="g">
      <feGaussianBlur
         id="feGaussianBlur2"
         stdDeviation="25.2" />
    </filter>
    <linearGradient
       gradientTransform="translate(-95.106168)"
       gradientUnits="userSpaceOnUse"
       y2="56.785"
       y1="10.214"
       x2="28.165"
       x1="28.165"
       id="linearGradient948">
      <stop
         id="stop5"
         offset="0"
         stop-color="#fad961" />
      <stop
         id="stop7"
         offset="1"
         stop-color="#f66b1c" />
    </linearGradient>
    <linearGradient
       gradientTransform="translate(-3.4834731e-6,1.109862e-4)"
       inkscape:collect="always"
       xlink:href="#linearGradient995"
       id="linearGradient997"
       x1="2.038218"
       y1="61.669224"
       x2="62.401379"
       y2="2.7041159"
       gradientUnits="userSpaceOnUse" />
    <linearGradient
       inkscape:collect="always"
       id="linearGradient995">
      <stop
         style="stop-color:#f66b1c;stop-opacity:1"
         offset="0"
         id="stop991" />
      <stop
         style="stop-color:#fad961;stop-opacity:1"
         offset="1"
         id="stop993" />
    </linearGradient>
    <filter
       id="h"
       x="-.06"
       y="-.06"
       width="1.12"
       height="1.12"
       color-interpolation-filters="sRGB">
      <feGaussianBlur
         stdDeviation="0.85"
         id="feGaussianBlur2-3" />
    </filter>
    <linearGradient
       id="g-6"
       x1="32"
       x2="32"
       y1="15"
       y2="49"
       gradientTransform="matrix(0.26458,0,0,0.26458,-22.458237,0)"
       gradientUnits="userSpaceOnUse">
      <stop
         stop-color="#303030"
         offset="0"
         id="stop5-7" />
      <stop
         stop-color="#424242"
         offset="1"
         id="stop7-5" />
    </linearGradient>
    <linearGradient
       id="linearGradient862-3"
       x1="7.9373"
       x2="7.9373"
       y1="15.081"
       y2="1.852"
       gradientTransform="matrix(0.99996,0,0,0.99996,-22.458199,0.0083453)"
       gradientUnits="userSpaceOnUse">
      <stop
         stop-color="#33db7f"
         offset="0"
         id="stop10" />
      <stop
         stop-color="#addf4f"
         offset="1"
         id="stop12" />
    </linearGradient>
    <filter
       color-interpolation-filters="sRGB"
       height="1.12"
       width="1.12"
       y="-.06"
       x="-.06"
       id="h-3">
      <feGaussianBlur
         id="feGaussianBlur2-6"
         stdDeviation="0.85" />
    </filter>
    <linearGradient
       gradientTransform="translate(118.59621)"
       gradientUnits="userSpaceOnUse"
       y2="15.242048"
       x2="-85.127556"
       y1="48.973778"
       x1="-85.127556"
       id="linearGradient968"
       xlink:href="#linearGradient966"
       inkscape:collect="always" />
  </defs>
  <path
     id="rect980"
     style="opacity:1;fill:url(#linearGradient997);fill-opacity:1;stroke:none;stroke-width:1.946;stroke-linecap:round"
     d="m 52.308597,1.882924 c -0.30439,-0.02387 -0.61633,-0.01737 -0.93164,0.02148 L 5.8964815,7.50792 c -2.5225,0.31081 -4.302998,2.592735 -3.992188,5.115234 l 5.603516,45.480469 c 0.31081,2.522498 2.5927355,4.302997 5.1152345,3.992187 l 45.480473,-5.603515 c 2.5225,-0.31081 4.303,-2.592737 3.99219,-5.115235 L 56.492187,5.896592 C 56.220227,3.689405 54.439317,2.049993 52.308597,1.88292 Z" />
  <rect
     transform="matrix(1.0000071,0,0,1.0000071,-0.16022867,-0.16022822)"
     x="15.16"
     y="15.16"
     width="34"
     height="34"
     ry="5"
     fill="#303030"
     fill-rule="evenodd"
     filter="url(#h)"
     opacity="0.5"
     style="paint-order:stroke fill markers"
     id="rect888" />
  <path
     d="M 19.999996,15 C 17.22998,15 15,17.229981 15,20 v 24 c 0,2.77002 2.22998,5 4.999996,5 H 44 c 2.77002,0 5,-2.22998 5,-5 V 20 c 0,-2.770019 -2.22998,-5 -5,-5 z"
     style="opacity:1;fill:url(#linearGradient968);fill-opacity:1;stroke:none;stroke-width:1.946;stroke-linecap:round"
     id="rect957" />
  <path
     style="fill:#f9f9f9;stroke-width:0.999969"
     id="path896"
     d="m 19.000222,41.390222 h 11.739066 v 2.347813 H 19.000222 Z" />
  <path
     d="m 27.718565,22.607751 v -2.5977 h -7.793 v 2.5977 h 2.5977 v 9.0918 h -2.5977 v 2.5977 h 7.793 v -2.5977 h -2.5977 v -9.0918 m 8.5626,11.667 c -1.5687,-0.17917 -2.6735,-1.2029 -3.6617,-2.1052 l 1.5774,-1.7814 c 0.51808,0.53779 1.2982,1.1818 2.1082,1.2895 0.81003,0.10768 1.8516,0.01878 2.4773,-0.51218 0.62568,-0.53096 0.62568,-1.2518 0.62568,-2.1117 v -9.044 h 2.5977 l -0.0073,9.2002 c 0.0073,1.8299 -0.68716,3.064 -1.3289,3.7523 -1.0264,1.0505 -2.3557,1.1571 -3.5959,1.3289"
     fill="#f9f9f9"
     stroke-width="20.371"
     id="path880" />
</svg>
