<?xml version="1.0" encoding="UTF-8"?>
<svg width="64" height="64" version="1.1" viewBox="0 0 16.933 16.933" xmlns="http://www.w3.org/2000/svg" xmlns:cc="http://creativecommons.org/ns#" xmlns:dc="http://purl.org/dc/elements/1.1/" xmlns:rdf="http://www.w3.org/1999/02/22-rdf-syntax-ns#" xmlns:xlink="http://www.w3.org/1999/xlink">
 <defs>
  <linearGradient id="a-3-43" x1="99.036" x2="99.036" y1="-.50472" y2="199.84" gradientTransform="matrix(.079375 0 0 .079375 1.417 3.221)" gradientUnits="userSpaceOnUse">
   <stop stop-color="#00a8f1" offset="0"/>
   <stop stop-color="#0093ed" offset="1"/>
  </linearGradient>
  <filter id="filter4061" x="-.036655" y="-.16524" width="1.0733" height="1.3305" color-interpolation-filters="sRGB">
   <feGaussianBlur stdDeviation="0.21657465"/>
  </filter>
  <linearGradient id="linearGradient3787" x1="84.22" x2="84.22" y1="11.58" y2="14.802" gradientTransform="matrix(.83963 0 0 .83963 -63.179 -.073919)" gradientUnits="userSpaceOnUse">
   <stop stop-color="#fff" offset="0"/>
   <stop stop-color="#bdd9fb" offset=".051181"/>
   <stop stop-color="#8bc5f5" offset=".85827"/>
   <stop stop-color="#7fc5f5" offset="1"/>
  </linearGradient>
  <filter id="filter4089" x="-.074273" y="-.050329" width="1.1485" height="1.1007" color-interpolation-filters="sRGB">
   <feGaussianBlur stdDeviation="0.18887916"/>
  </filter>
  <linearGradient id="linearGradient3871" x1="313.57" x2="318.45" y1="22.23" y2="24.271" gradientTransform="matrix(.22215 0 0 .22215 -65.459 9.4234)" gradientUnits="userSpaceOnUse">
   <stop stop-color="#f5ad5c" offset="0"/>
   <stop stop-color="#e98f58" offset="1"/>
  </linearGradient>
  <linearGradient id="linearGradient3890" x1="320.3" x2="325.61" y1="10.191" y2="13.513" gradientTransform="matrix(.22215 0 0 .22215 -65.459 9.4234)" gradientUnits="userSpaceOnUse" xlink:href="#linearGradient3888"/>
  <linearGradient id="linearGradient3888">
   <stop stop-color="#d7eafb" offset="0"/>
   <stop stop-color="#f7fafe" offset=".1241"/>
   <stop stop-color="#edf6fb" offset=".7851"/>
   <stop stop-color="#dfeefc" offset=".84074"/>
   <stop stop-color="#ecf5fe" offset="1"/>
  </linearGradient>
  <linearGradient id="linearGradient3904" x1="328.55" x2="333.87" y1="-3.2207" y2=".029296" gradientTransform="matrix(.22215 0 0 .22215 -65.459 9.4234)" gradientUnits="userSpaceOnUse">
   <stop stop-color="#5b7586" offset="0"/>
   <stop stop-color="#eeedee" offset=".35949"/>
   <stop stop-color="#7592a5" offset=".73723"/>
   <stop stop-color="#f0f9fc" offset="1"/>
  </linearGradient>
  <linearGradient id="linearGradient3916" x1="330.09" x2="335.32" y1="-5.5021" y2="-2.5959" gradientTransform="matrix(.22215 0 0 .22215 -65.459 9.4234)" gradientUnits="userSpaceOnUse">
   <stop stop-color="#f9916a" offset="0"/>
   <stop stop-color="#ff8e77" offset=".5262"/>
   <stop stop-color="#db6f66" offset="1"/>
  </linearGradient>
  <filter id="filter4101" x="-.074803" y="-.050088" width="1.1496" height="1.1002" color-interpolation-filters="sRGB">
   <feGaussianBlur stdDeviation="0.22294494"/>
  </filter>
  <linearGradient id="linearGradient3948" x1="365.23" x2="372.26" y1=".18723" y2="8.5877" gradientTransform="matrix(.22215 0 0 .22215 -67.984 13.366)" gradientUnits="userSpaceOnUse">
   <stop stop-color="#e78a54" offset="0"/>
   <stop stop-color="#e58651" offset=".067938"/>
   <stop stop-color="#ef9a5b" offset=".32262"/>
   <stop stop-color="#fbb365" offset=".5445"/>
   <stop stop-color="#fab969" offset=".91984"/>
   <stop stop-color="#fe9e49" offset="1"/>
  </linearGradient>
  <linearGradient id="linearGradient3966" x1="361.89" x2="366.1" y1="-.86426" y2="-3.3955" gradientTransform="matrix(.22215 0 0 .22215 -67.984 13.366)" gradientUnits="userSpaceOnUse">
   <stop stop-color="#5b7586" offset="0"/>
   <stop stop-color="#6d93b1" offset=".29189"/>
   <stop stop-color="#edf0f3" offset=".73723"/>
   <stop stop-color="#7795ac" offset="1"/>
  </linearGradient>
  <linearGradient id="linearGradient3984" x1="355.3" x2="360.33" y1="-11.943" y2="-15.006" gradientTransform="matrix(.22215 0 0 .22215 -67.984 13.366)" gradientUnits="userSpaceOnUse" xlink:href="#linearGradient3888"/>
 </defs>
 <metadata>
  <rdf:RDF>
   <cc:Work rdf:about="">
    <dc:format>image/svg+xml</dc:format>
    <dc:type rdf:resource="http://purl.org/dc/dcmitype/StillImage"/>
    <dc:title/>
   </cc:Work>
  </rdf:RDF>
 </metadata>
 <g transform="translate(-.88777 -2.6918)">
  <circle cx="9.3544" cy="11.159" r="7.9375" color="#000000" fill="url(#a-3-43)" stroke-width=".26458"/>
  <rect transform="matrix(.81729 0 0 .83449 -61.249 .12679)" x="79.299" y="11.613" width="14.18" height="3.1456" ry=".50735" fill="#0170ba" filter="url(#filter4061)"/>
  <g fill="#0192e6">
   <rect transform="matrix(.81729 0 0 .83449 -61.195 .12679)" x="80.598" y="11.613" width=".32344" height="1.4459" filter="url(#filter4061)"/>
   <rect transform="matrix(.81729 0 0 .83449 -61.195 .12679)" x="82.187" y="11.613" width=".32344" height="1.4459" filter="url(#filter4061)"/>
   <rect transform="matrix(.81729 0 0 .83449 -61.195 .12679)" x="83.777" y="11.613" width=".32344" height="1.4459" filter="url(#filter4061)"/>
   <rect transform="matrix(.81729 0 0 .83449 -61.195 .12679)" x="85.366" y="11.613" width=".32344" height="1.4459" filter="url(#filter4061)"/>
   <rect transform="matrix(.81729 0 0 .83449 -61.195 .12679)" x="86.956" y="11.613" width=".32344" height="1.4459" filter="url(#filter4061)"/>
   <rect transform="matrix(.81729 0 0 .83449 -61.195 .12679)" x="88.545" y="11.613" width=".32344" height="1.4459" filter="url(#filter4061)"/>
   <rect transform="matrix(.81729 0 0 .83449 -61.195 .12679)" x="90.135" y="11.613" width=".32344" height="1.4459" filter="url(#filter4061)"/>
   <rect transform="matrix(.81729 0 0 .83449 -61.195 .12679)" x="91.724" y="11.613" width=".32344" height="1.4459" filter="url(#filter4061)"/>
  </g>
  <rect x="3.4021" y="9.6767" width="11.906" height="2.6411" ry=".42598" fill="url(#linearGradient3787)" stroke-width=".83963"/>
  <g fill="#73b3d7" stroke-width=".83963">
   <rect x="4.5484" y="9.6767" width=".27157" height="1.214"/>
   <rect x="5.8825" y="9.6767" width=".27157" height="1.214"/>
   <rect x="7.2176" y="9.6767" width=".27157" height="1.214"/>
   <rect x="8.5517" y="9.6767" width=".27157" height="1.214"/>
   <rect x="9.8867" y="9.6767" width=".27157" height="1.214"/>
   <rect x="11.221" y="9.6767" width=".27157" height="1.214"/>
   <rect x="12.556" y="9.6767" width=".27157" height="1.214"/>
   <rect x="13.89" y="9.6767" width=".27157" height="1.214"/>
  </g>
  <g fill="#016bb8">
   <path transform="matrix(.21425 0 0 .22068 -62.945 9.6857)" d="m319.23 23.551c-0.0177-0.05831-0.0366-0.11627-0.0566-0.17383-0.0555-0.14171-0.11811-0.28055-0.1875-0.41602-0.0689-0.13585-0.14448-0.26818-0.22656-0.39648-0.0829-0.12875-0.1722-0.25326-0.26758-0.37305-0.0945-0.11952-0.19486-0.23425-0.30078-0.34375-0.10609-0.10901-0.21756-0.21265-0.33398-0.31055-0.11703-0.0985-0.23893-0.19106-0.36524-0.27734-0.12551-0.08584-0.25523-0.16537-0.38867-0.23828-0.13396-0.07325-0.2715-0.13973-0.41211-0.19922-0.14053-0.05922-0.28394-0.11136-0.42969-0.15625-0.14516-0.04507-0.29248-0.08288-0.4414-0.11328-0.14981-0.03035-0.30104-0.05316-0.45313-0.06836-0.15121-0.01537-0.30309-0.02319-0.45508-0.02344-0.10818 6.9e-5 -0.21632 4e-3 -0.32422 0.01172-0.24978 2.54e-4 -0.3694 0.01606-0.5391 0.02344-0.11022 0.3612-0.74864 2.0389-0.88101 4.2403 0.0468-0.0034 0.26556 0.04943 0.3125 0.04883 0.0763 1.14e-4 0.15259 4e-3 0.22852 0.01172 0.0767 0.0079 0.15298 0.01962 0.22851 0.03516 0.0751 0.01516 0.14943 0.03406 0.22266 0.05664 0.0735 0.0224 0.14588 0.04847 0.2168 0.07813 0.0706 0.02973 0.13972 0.06298 0.20703 0.09961 0.0671 0.03709 0.13226 0.0775 0.19531 0.12109 0.0635 0.04313 0.12474 0.08942 0.18359 0.13867 0.0586 0.04989 0.11466 0.10269 0.16797 0.1582 0.0536 0.05472 0.10446 0.11208 0.15235 0.17188 0.0474 0.06025 0.0917 0.12283 0.13281 0.1875 0.0417 0.06444 0.0802 0.13093 0.11523 0.19922 0.0347 0.06806 0.0661 0.13781 0.0937 0.20898 7e-3 0.02009 0.0367 0.08325 0.0429 0.10352 0.30991-0.1556 2.7894-1.7193 3.5625-2.8047z" filter="url(#filter4089)"/>
   <path transform="matrix(.21425 0 0 .22068 -62.945 9.6857)" d="m315.62 26.252c-0.0278-0.07117-0.059-0.14092-0.0937-0.20898-0.0351-0.06829-0.0735-0.13478-0.11523-0.19922-0.0411-0.06467-0.0854-0.12725-0.13281-0.1875-0.0479-0.05979-0.0987-0.11716-0.15235-0.17188-0.0533-0.05551-0.10937-0.10831-0.16797-0.1582-0.0589-0.04926-0.12012-0.09554-0.18359-0.13867-0.0631-0.04359-0.12823-0.08401-0.19531-0.12109-0.0673-0.03663-0.1364-0.06987-0.20703-0.09961-0.0709-0.02965-0.14327-0.05572-0.2168-0.07813-0.0732-0.02258-0.14754-0.04148-0.22266-0.05664-0.0755-0.01554-0.1518-0.02727-0.22851-0.03516-0.0759-0.0077-0.17173-0.03113-0.2793-0.04297-0.0469 5.19e-4 -0.21513-0.02092-0.26195-0.01752-0.0783 0.59987 6e-3 1.2682 0.0237 1.7715 0.16487 0.97548 1.2619 0.70064 2.4762-0.15231-0.0191-0.05025-0.0299-0.07256-0.0427-0.10358z" filter="url(#filter4089)"/>
   <path transform="matrix(.21425 0 0 .22068 -62.945 9.6857)" d="m328.24-1.8496a5.5446 5.5446 0 0 0-0.39258 0.013672 5.5446 5.5446 0 0 0-0.10352 0.013672l-3.0078 4.8711-10.529 17.053s-0.14708 0.35809-0.1582 0.39453c0.1883-6e-3 0.43092-0.0097 0.53906-0.02344 0.1079-0.0077 0.21604-0.01165 0.32422-0.01172 0.15199 2.42e-4 0.30387 0.0081 0.45508 0.02344 0.15209 0.0152 0.30332 0.03801 0.45313 0.06836 0.14892 0.0304 0.29624 0.06821 0.4414 0.11328 0.14575 0.04489 0.28916 0.09703 0.42969 0.15625 0.14061 0.05948 0.27815 0.12597 0.41211 0.19922 0.13344 0.07291 0.26316 0.15244 0.38867 0.23828 0.12631 0.08628 0.24821 0.17884 0.36524 0.27734 0.11642 0.0979 0.22789 0.20154 0.33398 0.31055 0.10592 0.1095 0.20631 0.22423 0.30078 0.34375 0.0954 0.11979 0.18469 0.2443 0.26758 0.37305 0.0821 0.12831 0.15769 0.26063 0.22656 0.39648 0.0694 0.13546 0.13196 0.27431 0.1875 0.41602 0.02 0.05756 0.0389 0.11551 0.0566 0.17383 7e-3 -0.0068 0.16406-0.12695 0.16406-0.12695l10.377-16.799 3.3887-5.4844a5.5446 5.5446 0 0 0-0.25391-0.44141 5.5446 5.5446 0 0 0-0.32226-0.45117 5.5446 5.5446 0 0 0-0.36524-0.41602 5.5446 5.5446 0 0 0-0.40625-0.37695 5.5446 5.5446 0 0 0-0.4414-0.33594 5.5446 5.5446 0 0 0-0.47266-0.28906 5.5446 5.5446 0 0 0-0.49805-0.24219 5.5446 5.5446 0 0 0-0.52148-0.18945 5.5446 5.5446 0 0 0-0.53711-0.13672 5.5446 5.5446 0 0 0-0.54687-0.083984 5.5446 5.5446 0 0 0-0.55469-0.027344z" filter="url(#filter4089)"/>
   <path transform="matrix(.21425 0 0 .22068 -62.945 9.6857)" d="m329.92-4.457a5.5446 5.5446 0 0 0-0.39258 0.013672 5.5446 5.5446 0 0 0-0.17969 0.021484l-1.6035 2.5996a5.5446 5.5446 0 0 1 0.10352-0.013672 5.5446 5.5446 0 0 1 0.39258-0.013672 5.5446 5.5446 0 0 1 0.55469 0.027344 5.5446 5.5446 0 0 1 0.54687 0.083984 5.5446 5.5446 0 0 1 0.53711 0.13672 5.5446 5.5446 0 0 1 0.52148 0.18945 5.5446 5.5446 0 0 1 0.49805 0.24219 5.5446 5.5446 0 0 1 0.47266 0.28906 5.5446 5.5446 0 0 1 0.4414 0.33594 5.5446 5.5446 0 0 1 0.40625 0.37695 5.5446 5.5446 0 0 1 0.36524 0.41602 5.5446 5.5446 0 0 1 0.32226 0.45117 5.5446 5.5446 0 0 1 0.25391 0.44141l1.6465-2.666a5.5446 5.5446 0 0 0-0.2207-0.38281 5.5446 5.5446 0 0 0-0.32226-0.45117 5.5446 5.5446 0 0 0-0.36719-0.41602 5.5446 5.5446 0 0 0-0.4043-0.37695 5.5446 5.5446 0 0 0-0.4414-0.33594 5.5446 5.5446 0 0 0-0.47266-0.28906 5.5446 5.5446 0 0 0-0.5-0.24219 5.5446 5.5446 0 0 0-0.51953-0.18945 5.5446 5.5446 0 0 0-0.53711-0.13672 5.5446 5.5446 0 0 0-0.54883-0.083984 5.5446 5.5446 0 0 0-0.55273-0.027344z" filter="url(#filter4089)"/>
   <path transform="matrix(.21425 0 0 .22068 -62.945 9.6857)" d="m333.25-6.8203c-0.71459-0.17528-1.5767-0.13067-2.6074 0.30078l-1.2949 2.0977a5.5446 5.5446 0 0 1 0.17969-0.021484 5.5446 5.5446 0 0 1 0.39258-0.013672 5.5446 5.5446 0 0 1 0.55273 0.027344 5.5446 5.5446 0 0 1 0.54883 0.083984 5.5446 5.5446 0 0 1 0.53711 0.13672 5.5446 5.5446 0 0 1 0.51953 0.18945 5.5446 5.5446 0 0 1 0.5 0.24219 5.5446 5.5446 0 0 1 0.47266 0.28906 5.5446 5.5446 0 0 1 0.4414 0.33594 5.5446 5.5446 0 0 1 0.4043 0.37695 5.5446 5.5446 0 0 1 0.36719 0.41602 5.5446 5.5446 0 0 1 0.32226 0.45117 5.5446 5.5446 0 0 1 0.2207 0.38281l1.3965-2.2617s-0.80934-2.5074-2.9531-3.0332z" filter="url(#filter4089)"/>
  </g>
  <g stroke-width=".22215">
   <path d="m5.4579 14.655c-0.00393-0.01295-0.00813-0.02583-0.012573-0.03862-0.012329-0.03148-0.026238-0.06232-0.041653-0.09242-0.015306-0.03018-0.032096-0.05958-0.05033-0.08808-0.018416-0.0286-0.038254-0.05626-0.059442-0.08287-0.020993-0.02655-0.043288-0.05204-0.066817-0.07636-0.023568-0.02421-0.048331-0.04724-0.074194-0.06899-0.025997-0.02188-0.053078-0.04244-0.081138-0.06161-0.027881-0.01907-0.056699-0.03674-0.086343-0.05293-0.029759-0.01627-0.060313-0.03104-0.09155-0.04426-0.031219-0.01316-0.063076-0.02474-0.095455-0.03471-0.032247-0.01001-0.064974-0.01841-0.098056-0.02516-0.03328-0.0067-0.066875-0.01181-0.10066-0.01519-0.033591-0.0034-0.067331-0.0052-0.1011-0.0052-0.024031 1.5e-5 -0.048055 8.88e-4 -0.072025 0.0026-0.055488 5.7e-5 -0.082062 0.0036-0.11976 0.0052-0.024485 0.08024-0.16631 0.45294-0.19572 0.94198 0.010396-7.56e-4 0.058994 0.01098 0.069421 0.01085 0.01695 2.5e-5 0.033898 8.89e-4 0.050765 0.0026 0.017038 0.0018 0.033985 0.0044 0.050763 0.0078 0.016683 0.0034 0.033196 0.0076 0.049464 0.01258 0.016328 5e-3 0.032407 0.01077 0.048162 0.01736 0.015683 0.0066 0.031039 0.01399 0.045991 0.02213 0.014906 0.0082 0.029382 0.01722 0.043388 0.0269 0.014106 0.0096 0.027711 0.01986 0.040784 0.0308 0.013018 0.01108 0.025472 0.02281 0.037314 0.03514 0.011907 0.01216 0.023206 0.0249 0.033845 0.03818 0.01053 0.01338 0.020371 0.02729 0.029503 0.04165 0.00926 0.01432 0.017816 0.02909 0.025599 0.04426 0.00771 0.01512 0.014684 0.03061 0.020815 0.04642 0.00155 0.0045 0.00815 0.01849 0.00953 0.023 0.068846-0.03457 0.61966-0.38194 0.7914-0.62306z" fill="url(#linearGradient3871)"/>
   <path d="m4.6559 15.255c-0.00618-0.01581-0.013107-0.0313-0.020815-0.04642-0.0078-0.01517-0.016328-0.02994-0.025599-0.04426-0.00913-0.01437-0.018971-0.02827-0.029504-0.04165-0.010641-0.01328-0.021926-0.02603-0.033845-0.03818-0.01184-0.01233-0.024297-0.02406-0.037314-0.03514-0.013084-0.01094-0.026685-0.02122-0.040784-0.03081-0.014017-0.0097-0.028487-0.01866-0.043388-0.0269-0.01495-0.0081-0.030301-0.01552-0.045991-0.02213-0.01575-0.0066-0.031828-0.01238-0.048162-0.01736-0.016261-5e-3 -0.032776-0.0092-0.049464-0.01258-0.016772-0.0035-0.033722-0.0061-0.050763-0.0078-0.016861-0.0017-0.03815-0.0069-0.062046-0.0095-0.010419 1.15e-4 -0.047791-0.0046-0.058192-0.0039-0.017394 0.13326 0.00133 0.28173 0.00526 0.39354 0.036626 0.2167 0.28033 0.15565 0.55008-0.03383-0.00424-0.01116-0.00664-0.01612-0.00949-0.02301z" fill="#edf7fd"/>
   <path d="m7.4594 9.0125a1.2317 1.2317 0 0 0-0.087211 0.00304 1.2317 1.2317 0 0 0-0.022996 0.00304l-0.66818 1.0821-2.339 3.7883s-0.032674 0.07955-0.035144 0.08764c0.041831-0.0013 0.095728-0.0022 0.11975-0.0052 0.023969-0.0017 0.047993-0.0026 0.072025-0.0026 0.033765 5.4e-5 0.067504 0.0018 0.1011 0.0052 0.033787 0.0034 0.067382 0.0084 0.10066 0.01519 0.033083 0.0068 0.065809 0.01515 0.098056 0.02516 0.032378 0.01 0.064236 0.02155 0.095455 0.03471 0.031237 0.01321 0.06179 0.02798 0.09155 0.04426 0.029644 0.0162 0.05846 0.03386 0.086343 0.05293 0.02806 0.01917 0.055139 0.03973 0.081138 0.06161 0.025863 0.02175 0.050625 0.04477 0.074193 0.06899 0.023531 0.02432 0.045832 0.04981 0.066818 0.07636 0.021192 0.02661 0.041029 0.05427 0.059442 0.08287 0.018238 0.0285 0.035031 0.0579 0.05033 0.08808 0.015417 0.03009 0.029315 0.06094 0.041653 0.09242 0.00444 0.01279 0.00864 0.02566 0.012573 0.03862 0.00155-0.0015 0.036446-0.0282 0.036446-0.0282l2.3052-3.7319 0.75279-1.2184a1.2317 1.2317 0 0 0-0.056406-0.098058 1.2317 1.2317 0 0 0-0.07159-0.10023 1.2317 1.2317 0 0 0-0.081138-0.092418 1.2317 1.2317 0 0 0-0.090248-0.083739 1.2317 1.2317 0 0 0-0.098056-0.074628 1.2317 1.2317 0 0 0-0.105-0.064214 1.2317 1.2317 0 0 0-0.11064-0.053802 1.2317 1.2317 0 0 0-0.11585-0.042086 1.2317 1.2317 0 0 0-0.11932-0.030372 1.2317 1.2317 0 0 0-0.12149-0.018657 1.2317 1.2317 0 0 0-0.12322-0.0060744z" fill="url(#linearGradient3890)"/>
   <path d="m7.8327 8.4333a1.2317 1.2317 0 0 0-0.087211 0.00304 1.2317 1.2317 0 0 0-0.039918 0.00477l-0.35621 0.5775a1.2317 1.2317 0 0 1 0.022997-0.00304 1.2317 1.2317 0 0 1 0.087211-0.00304 1.2317 1.2317 0 0 1 0.12322 0.00607 1.2317 1.2317 0 0 1 0.12149 0.018657 1.2317 1.2317 0 0 1 0.11932 0.030373 1.2317 1.2317 0 0 1 0.11585 0.042086 1.2317 1.2317 0 0 1 0.11064 0.053802 1.2317 1.2317 0 0 1 0.105 0.064214 1.2317 1.2317 0 0 1 0.098056 0.074628 1.2317 1.2317 0 0 1 0.090248 0.083739 1.2317 1.2317 0 0 1 0.081138 0.092418 1.2317 1.2317 0 0 1 0.071589 0.10023 1.2317 1.2317 0 0 1 0.056406 0.098059l0.36577-0.59224a1.2317 1.2317 0 0 0-0.049028-0.08504 1.2317 1.2317 0 0 0-0.07159-0.10023 1.2317 1.2317 0 0 0-0.081571-0.092418 1.2317 1.2317 0 0 0-0.089814-0.083739 1.2317 1.2317 0 0 0-0.098056-0.074628 1.2317 1.2317 0 0 0-0.105-0.064214 1.2317 1.2317 0 0 0-0.11107-0.053802 1.2317 1.2317 0 0 0-0.11541-0.042086 1.2317 1.2317 0 0 0-0.11932-0.030372 1.2317 1.2317 0 0 0-0.12192-0.018657 1.2317 1.2317 0 0 0-0.12279-0.0060744z" fill="url(#linearGradient3904)"/>
   <path d="m8.5724 7.9082c-0.15874-0.038938-0.35026-0.029028-0.57923 0.066818l-0.28766 0.466a1.2317 1.2317 0 0 1 0.039918-0.00477 1.2317 1.2317 0 0 1 0.087211-0.00304 1.2317 1.2317 0 0 1 0.12279 0.00607 1.2317 1.2317 0 0 1 0.12192 0.018657 1.2317 1.2317 0 0 1 0.11932 0.030373 1.2317 1.2317 0 0 1 0.11541 0.042086 1.2317 1.2317 0 0 1 0.11107 0.053802 1.2317 1.2317 0 0 1 0.105 0.064214 1.2317 1.2317 0 0 1 0.098056 0.074628 1.2317 1.2317 0 0 1 0.089815 0.083739 1.2317 1.2317 0 0 1 0.081571 0.092418 1.2317 1.2317 0 0 1 0.071589 0.10023 1.2317 1.2317 0 0 1 0.049028 0.085041l0.31023-0.50243s-0.17979-0.55701-0.65603-0.67382z" fill="url(#linearGradient3916)"/>
  </g>
  <g fill="#006cb4">
   <path transform="matrix(.21832 0 0 .21999 -66.66 13.46)" d="m367.38-0.80859c-0.0469 0.001058-0.0938 0.003012-0.14063 0.005859-0.12238 0.00824-0.24428 0.02258-0.36523 0.042969-0.12109 0.021335-0.24103 0.048713-0.35938 0.082031-0.11838 0.032567-0.23506 0.071026-0.34961 0.11523-0.11441 0.044507-0.22653 0.0947-0.33594 0.15039-0.10977 0.055811-0.21667 0.11709-0.32031 0.18359-0.10379 0.066541-0.20417 0.13825-0.30078 0.21484-0.0958 0.076746-0.18771 0.15823-0.27539 0.24414-0.0884 0.085583-0.17252 0.17554-0.25195 0.26953-0.079 0.09389-0.15336 0.19167-0.22266 0.29297-0.0697 0.10152-0.1342 0.20647-0.19336 0.31445-0.0589 0.10794-0.11234 0.21875-0.16015 0.33203-0.048 0.11305-0.0904 0.22843-0.12696 0.3457-0.0359 0.11757-0.0659 0.23686-0.0898 0.35742-2e-3 0.014311-4e-3 0.028634-6e-3 0.042969 0.72811 1.1029 1.5995 2.5756 2.5606 4.2207 0.49103 0.84051 1.2164 2.0272 1.3086 2.1562 1.2188 1.7813 1.8125 1.6875 2.0625 1.6875 0.24998 0 4.1875-2.6875 4.375-3.75s-0.9375-1.8125-2.625-3.125c-0.13711-0.10664-0.23381-0.26005-0.38086-0.38086-1.4683-1.2062-3.1053-2.8358-3.8027-3.8027z" filter="url(#filter4101)"/>
   <path transform="matrix(.21832 0 0 .21999 -66.66 13.46)" d="m364.21-7.1641c-0.17271 0.013222-0.34476 0.034075-0.51563 0.0625-0.19344 0.033349-0.38509 0.076372-0.57422 0.12891-0.18849 0.051898-0.37426 0.11317-0.55664 0.18359-0.18227 0.071117-0.36088 0.1513-0.53515 0.24023-0.17471 0.089087-0.34484 0.18687-0.50977 0.29297-0.16511 0.10587-0.32481 0.21995-0.47851 0.3418-0.15349 0.12147-0.30081 0.25054-0.44141 0.38672-0.14054 0.13646-0.27417 0.27987-0.40039 0.42969-0.12624 0.15022-0.24488 0.30666-0.35547 0.46875-0.0246 0.038779-0.0486 0.077844-0.0723 0.11719 1.4764 2.3588 3.3509 5.5461 3.5469 5.7617 0.08 0.087984 0.40691 0.69099 0.56836 0.93555 2e-3 -0.014334 4e-3 -0.028658 6e-3 -0.042969 0.024-0.12056 0.0539-0.23985 0.0898-0.35742 0.0365-0.11728 0.0789-0.23266 0.12696-0.3457 0.0478-0.11328 0.10126-0.22409 0.16015-0.33203 0.0592-0.10798 0.1237-0.21293 0.19336-0.31445 0.0693-0.1013 0.14361-0.19908 0.22266-0.29297 0.0794-0.093992 0.16352-0.18395 0.25195-0.26953 0.0877-0.085913 0.17959-0.16739 0.27539-0.24414 0.0966-0.076598 0.19699-0.1483 0.30078-0.21484 0.10364-0.066508 0.21054-0.12778 0.32031-0.18359 0.10941-0.055691 0.22153-0.10588 0.33594-0.15039 0.11455-0.044208 0.23123-0.082667 0.34961-0.11523 0.11835-0.033318 0.23829-0.060696 0.35938-0.082031 0.12095-0.020388 0.24285-0.034729 0.36523-0.042969 0.0468-0.002848 0.0937-0.004801 0.14063-0.005859-0.0924-0.12813-0.45688-0.56452-0.50391-0.65859-0.39767-0.79535-1.9152-4.253-2.6699-5.6969z" filter="url(#filter4101)"/>
   <path transform="matrix(.21832 0 0 .21999 -66.66 13.46)" d="m349.88-30.125s-2.375 0-2.6875 1.5625 4.25 10.188 4.8125 11.438c0.38613 0.85806 4.5336 7.4493 7.7656 12.613a5.875 5.875 0 0 1 0.0723-0.11719 5.875 5.875 0 0 1 0.35547-0.46875 5.875 5.875 0 0 1 0.40039-0.42969 5.875 5.875 0 0 1 0.44141-0.38672 5.875 5.875 0 0 1 0.47851-0.3418 5.875 5.875 0 0 1 0.50977-0.29297 5.875 5.875 0 0 1 0.53515-0.24023 5.875 5.875 0 0 1 0.55664-0.18359 5.875 5.875 0 0 1 0.57422-0.12891 5.875 5.875 0 0 1 0.51563-0.0625c-0.0756-0.14461-0.21069-0.49491-0.26758-0.58594-0.625-1-12.125-22.375-14.062-22.375z" filter="url(#filter4101)"/>
  </g>
  <g stroke-width=".22215">
   <path d="m13.629 13.186c-0.01042 2.35e-4 -0.02084 6.69e-4 -0.03124 0.0013-0.02719 0.0018-0.05426 5e-3 -0.08113 0.0095-0.0269 0.0047-0.05354 0.01082-0.07983 0.01822-0.0263 0.0072-0.05222 0.01578-0.07766 0.0256-0.02542 0.0099-0.05032 0.02104-0.07463 0.03341-0.02439 0.0124-0.04813 0.02601-0.07115 0.04078-0.02306 0.01478-0.04536 0.03071-0.06682 0.04773-0.02128 0.01705-0.0417 0.03515-0.06118 0.05423-0.01964 0.01901-0.03832 0.03899-0.05597 0.05987-0.01755 0.02086-0.03407 0.04258-0.04946 0.06508-0.01548 0.02255-0.02981 0.04587-0.04295 0.06985-0.01308 0.02398-0.02496 0.04859-0.03558 0.07376-0.01066 0.02511-0.02008 0.05074-0.0282 0.0768-8e-3 0.02612-0.01464 0.05262-0.01995 0.0794-4.44e-4 0.0032-8.88e-4 0.0064-0.0013 0.0095 0.16175 0.24501 0.35533 0.57216 0.56883 0.93762 0.10908 0.18672 0.27022 0.45034 0.2907 0.479 0.27075 0.39571 0.40264 0.37488 0.45818 0.37488 0.05553 0 0.93025-0.59702 0.9719-0.83306 0.04165-0.23603-0.20826-0.40264-0.58314-0.69421-0.03046-0.02369-0.05194-0.05777-0.08461-0.08461-0.32618-0.26796-0.68984-0.62997-0.84476-0.84476z" fill="url(#linearGradient3948)"/>
   <path d="m12.925 11.775c-0.03837 0.0029-0.07659 0.0076-0.11455 0.01388-0.04297 0.0074-0.08555 0.01697-0.12756 0.02864-0.04187 0.01153-0.08314 0.02514-0.12366 0.04078-0.04049 0.0158-0.08017 0.03361-0.11888 0.05337-0.03881 0.01979-0.0766 0.04151-0.11324 0.06508-0.03668 0.02352-0.07215 0.04886-0.1063 0.07593-0.0341 0.02699-0.06682 0.05566-0.09806 0.08591-0.03122 0.03031-0.06091 0.06217-0.08895 0.09545-0.02804 0.03337-0.0544 0.06812-0.07897 0.10413-0.0055 0.0086-0.0108 0.01729-0.01606 0.02603 0.32798 0.524 0.7444 1.2321 0.78794 1.28 0.01777 0.01954 0.09039 0.1535 0.12626 0.20783 4.44e-4 -0.0032 8.89e-4 -0.0064 0.0013-0.0095 0.0053-0.02678 0.01197-0.05328 0.01995-0.0794 0.0081-0.02605 0.01753-0.05168 0.0282-0.07679 0.01062-0.02517 0.02249-0.04978 0.03558-0.07376 0.01315-0.02399 0.02748-0.0473 0.04295-0.06985 0.01539-0.0225 0.0319-0.04422 0.04946-0.06508 0.01764-0.02088 0.03632-0.04086 0.05597-0.05987 0.01948-0.01909 0.03989-0.03719 0.06118-0.05423 0.02146-0.01702 0.04376-0.03294 0.06682-0.04773 0.02302-0.01477 0.04677-0.02839 0.07115-0.04078 0.02431-0.01237 0.04921-0.02352 0.07463-0.03341 0.02545-0.0098 0.05137-0.01836 0.07766-0.0256 0.02629-0.0074 0.05293-0.01348 0.07983-0.01822 0.02687-0.0045 0.05395-0.0077 0.08113-0.0095 0.0104-6.33e-4 0.02082-0.0011 0.03124-0.0013-0.02053-0.02846-0.1015-0.12541-0.11194-0.1463-0.08834-0.17669-0.42546-0.9448-0.59311-1.2656z" fill="url(#linearGradient3966)"/>
   <path d="m9.7417 6.6738s-0.5276 0-0.59702 0.34711c-0.069421 0.34711 0.94413 2.2632 1.0691 2.5409 0.08578 0.19062 1.0071 1.6549 1.7251 2.802a1.3051 1.3051 0 0 1 0.01606-0.02603 1.3051 1.3051 0 0 1 0.07897-0.10413 1.3051 1.3051 0 0 1 0.08894-0.09545 1.3051 1.3051 0 0 1 0.09806-0.08591 1.3051 1.3051 0 0 1 0.1063-0.07593 1.3051 1.3051 0 0 1 0.11324-0.06508 1.3051 1.3051 0 0 1 0.11888-0.05337 1.3051 1.3051 0 0 1 0.12366-0.04078 1.3051 1.3051 0 0 1 0.12756-0.02864 1.3051 1.3051 0 0 1 0.11455-0.01388c-0.01679-0.03213-0.0468-0.10994-0.05944-0.13017-0.13884-0.22216-2.6935-4.9706-3.1239-4.9706z" fill="url(#linearGradient3984)"/>
  </g>
 </g>
</svg>
