<?xml version="1.0" encoding="UTF-8" standalone="no"?>
<svg
   xmlns:dc="http://purl.org/dc/elements/1.1/"
   xmlns:cc="http://creativecommons.org/ns#"
   xmlns:rdf="http://www.w3.org/1999/02/22-rdf-syntax-ns#"
   xmlns:svg="http://www.w3.org/2000/svg"
   xmlns="http://www.w3.org/2000/svg"
   xmlns:sodipodi="http://sodipodi.sourceforge.net/DTD/sodipodi-0.dtd"
   xmlns:inkscape="http://www.inkscape.org/namespaces/inkscape"
   width="64"
   height="64"
   version="1.1"
   id="svg45"
   sodipodi:docname="ktorrent.svg"
   inkscape:version="1.0.2 (e86c870879, 2021-01-15)">
  <metadata
     id="metadata49">
    <rdf:RDF>
      <cc:Work
         rdf:about="">
        <dc:format>image/svg+xml</dc:format>
        <dc:type
           rdf:resource="http://purl.org/dc/dcmitype/StillImage" />
        <dc:title></dc:title>
      </cc:Work>
    </rdf:RDF>
  </metadata>
  <sodipodi:namedview
     pagecolor="#ffffff"
     bordercolor="#666666"
     borderopacity="1"
     objecttolerance="10"
     gridtolerance="10"
     guidetolerance="10"
     inkscape:pageopacity="0"
     inkscape:pageshadow="2"
     inkscape:window-width="1920"
     inkscape:window-height="998"
     id="namedview47"
     showgrid="false"
     inkscape:zoom="3.2460938"
     inkscape:cx="28.297403"
     inkscape:cy="20.435619"
     inkscape:window-x="0"
     inkscape:window-y="0"
     inkscape:window-maximized="1"
     inkscape:current-layer="svg45" />
  <defs
     id="defs23">
    <linearGradient
       id="b"
       x1="408.25"
       x2="407.94"
       y1="547.6"
       y2="498.89"
       gradientTransform="matrix(1.3276 0 0 1.3276 -510.64 -663.52)"
       gradientUnits="userSpaceOnUse">
      <stop
         stop-color="#fff"
         offset="0"
         id="stop2" />
      <stop
         stop-color="#e6e6e6"
         offset="1"
         id="stop4" />
    </linearGradient>
    <filter
       id="c"
       x="-.036"
       y="-.036"
       width="1.072"
       height="1.072"
       color-interpolation-filters="sRGB">
      <feGaussianBlur
         stdDeviation="0.88972449"
         id="feGaussianBlur7" />
    </filter>
    <linearGradient
       id="e"
       x2="0"
       y1="510.8"
       y2="527.14"
       gradientUnits="userSpaceOnUse">
      <stop
         stop-color="#7cbaf8"
         offset="0"
         id="stop10" />
      <stop
         stop-color="#f4fcff"
         offset="1"
         id="stop12" />
    </linearGradient>
    <linearGradient
       id="d"
       x1="408.57"
       x2="387.57"
       y1="542.8"
       y2="521.8"
       gradientTransform="translate(-384.57,-499.8)"
       gradientUnits="userSpaceOnUse">
      <stop
         stop-color="#197cf1"
         offset="0"
         id="stop15" />
      <stop
         stop-color="#20bcfa"
         offset="1"
         id="stop17" />
    </linearGradient>
    <filter
       id="a"
       x="-.059272"
       y="-.060746"
       width="1.1185"
       height="1.1215"
       color-interpolation-filters="sRGB">
      <feGaussianBlur
         stdDeviation="1.0125899"
         id="feGaussianBlur20" />
    </filter>
    <linearGradient
       id="a-7"
       gradientUnits="userSpaceOnUse"
       x1="3.3645329"
       x2="36.073566"
       y1="1046.2201"
       y2="1007.7176">
      <stop
         offset="0"
         stop-color="#235ea2"
         id="stop8" />
      <stop
         offset="1"
         stop-color="#1992f1"
         id="stop10-5" />
    </linearGradient>
    <linearGradient
       id="b-3"
       gradientUnits="userSpaceOnUse"
       x1="400.57144"
       x2="400.79395"
       y1="545.79791"
       y2="517.62671">
      <stop
         offset="0"
         stop-color="#197ff1"
         id="stop13" />
      <stop
         offset="1"
         stop-color="#21c6fb"
         id="stop15-5" />
    </linearGradient>
    <style
       type="text/css"
       id="style980" />
    <linearGradient
       id="a-3"
       x1="99.036"
       x2="99.036"
       y1="-.50472"
       y2="199.84"
       gradientTransform="matrix(0.29999835,0,0,0.29999835,2.0001262,1.999975)"
       gradientUnits="userSpaceOnUse">
      <stop
         stop-color="#4bd2f5"
         offset="0"
         id="stop982" />
      <stop
         stop-color="#5587ff"
         offset="1"
         id="stop984" />
    </linearGradient>
  </defs>
  <circle
     cx="32"
     cy="32"
     r="29.999836"
     color="#000000"
     fill="url(#a-3)"
     stroke-width="1.00001"
     id="circle991"
     style="fill:url(#a-3)" />
  <g
     fill="#5e4aa6"
     stroke-width="0.26458"
     id="g1001"
     transform="matrix(3.779602,0,0,3.779602,-1.3999348e-6,-1.3999348e-6)">
    <circle
       cx="-330.35001"
       cy="-328.38"
       r="0"
       id="circle993" />
    <circle
       cx="-330.35001"
       cy="-328.37"
       r="0"
       id="circle995" />
    <circle
       cx="-330.35001"
       cy="-328.37"
       r="0"
       id="circle997" />
    <circle
       cx="-352.63"
       cy="-336.82999"
       r="0"
       id="circle999" />
  </g>
  <g
     fill="#ffffff"
     fill-opacity="0.851852"
     transform="matrix(1.3346351,0,0,1.3346351,-537.72949,-649.40433)"
     id="g1035">
    <path
       d="m 416.51125,503.96117 c -3.645,3.65517 -5.64798,8.53043 -5.63781,13.73613 0.0152,10.85875 8.14696,15.80603 18.1323,15.30028 l 0.11973,-0.10815 c -8.84562,0 -14.86122,-6.32065 -14.87647,-15.20185 -0.005,-4.3008 1.64203,-8.32751 4.65157,-11.34214 3.0248,-3.02988 7.08158,-4.70241 11.42305,-4.70241 v -3.37557 c -5.24636,0 -10.14704,2.0233 -13.81238,5.69373"
       id="path1029" />
    <path
       d="m 426.59451,503.35086 c -3.88394,1.04724 -7.08666,3.48232 -9.01846,6.85789 -4.05679,7.09175 -1.9013,15.74927 5.12435,20.58386 5.40001,4.74257 14.71367,0.67754 16.83911,-1.08381 -0.17793,0.0457 -5.75158,4.60186 -14.92256,-1.69683 -5.5463,-3.81276 -7.27475,-10.59441 -4.10762,-16.12546 1.48444,-2.5876 3.95511,-4.46348 6.96466,-5.27178 3.0858,-0.83373 6.27835,-0.42703 8.99304,1.13874 l 1.68779,-2.9282 c -3.49758,-2.01823 -7.6052,-2.54185 -11.56031,-1.47427"
       id="path1031" />
    <path
       d="m 425.7034,508.96637 c -3.37048,1.94705 -5.25653,5.49039 -5.25653,9.13031 0,1.68778 0.42195,3.39082 1.27092,4.96676 l -0.0102,0.0102 c 0,0.005 0.0305,0.0559 0.0407,0.0763 h -0.005 c 0,0 0.0203,0.0305 0.0356,0.0559 0.0203,0.0407 0.0712,0.13218 0.0763,0.13726 0.5287,0.90998 2.56726,3.97544 7.03582,5.60223 5.41611,1.97683 7.23934,1.82836 9.76869,1.37607 2.7532,-1.57322 4.22759,-2.97515 4.22759,-2.97515 -2.89677,0.31368 -7.00282,0.55615 -12.84228,-1.57316 -3.51792,-1.28109 -4.9871,-3.61959 -5.25654,-4.10254 -0.26944,-0.48295 -0.0102,-0.0153 -0.0102,-0.0203 -0.64563,-1.12349 -0.95574,-2.34866 -0.95574,-3.55858 0,-2.47067 1.28109,-4.87526 3.56875,-6.2021 1.6522,-0.95065 3.57892,-1.20483 5.4243,-0.71171 1.84029,0.49311 3.38065,1.67761 4.33638,3.32981 l 2.97904,-1.58611 -0.0559,-0.10167 c -1.40309,-2.43509 -3.67042,-4.17371 -6.38511,-4.90576 -2.71469,-0.72697 -5.55139,-0.35078 -7.98648,1.05232"
       id="path1033" />
  </g>
</svg>
