<?xml version="1.0" encoding="UTF-8" standalone="no"?>
<svg
   xmlns:dc="http://purl.org/dc/elements/1.1/"
   xmlns:cc="http://creativecommons.org/ns#"
   xmlns:rdf="http://www.w3.org/1999/02/22-rdf-syntax-ns#"
   xmlns:svg="http://www.w3.org/2000/svg"
   xmlns="http://www.w3.org/2000/svg"
   xmlns:sodipodi="http://sodipodi.sourceforge.net/DTD/sodipodi-0.dtd"
   xmlns:inkscape="http://www.inkscape.org/namespaces/inkscape"
   width="64"
   height="64"
   version="1.1"
   id="svg31"
   sodipodi:docname="mendeleydesktop.svg"
   inkscape:version="1.0.2 (e86c870879, 2021-01-15)">
  <metadata
     id="metadata35">
    <rdf:RDF>
      <cc:Work
         rdf:about="">
        <dc:format>image/svg+xml</dc:format>
        <dc:type
           rdf:resource="http://purl.org/dc/dcmitype/StillImage" />
        <dc:title></dc:title>
      </cc:Work>
    </rdf:RDF>
  </metadata>
  <sodipodi:namedview
     pagecolor="#ffffff"
     bordercolor="#666666"
     borderopacity="1"
     objecttolerance="10"
     gridtolerance="10"
     guidetolerance="10"
     inkscape:pageopacity="0"
     inkscape:pageshadow="2"
     inkscape:window-width="1920"
     inkscape:window-height="998"
     id="namedview33"
     showgrid="false"
     inkscape:zoom="4.5906698"
     inkscape:cx="34.707374"
     inkscape:cy="15.071027"
     inkscape:window-x="0"
     inkscape:window-y="0"
     inkscape:window-maximized="1"
     inkscape:current-layer="svg31" />
  <defs
     id="defs18">
    <linearGradient
       id="b"
       x1="14.023"
       x2="27.879"
       y1="8.129"
       y2="34.944"
       gradientTransform="matrix(1.2 0 0 1.2 3.1999 3.1999)"
       gradientUnits="userSpaceOnUse">
      <stop
         stop-color="#fff"
         offset="0"
         id="stop2" />
      <stop
         stop-color="#eea9a9"
         offset="1"
         id="stop4" />
    </linearGradient>
    <filter
       id="d"
       x="-.036"
       y="-.036"
       width="1.072"
       height="1.072"
       color-interpolation-filters="sRGB">
      <feGaussianBlur
         stdDeviation="14.16"
         id="feGaussianBlur7" />
    </filter>
    <linearGradient
       id="a"
       x1="512.05"
       x2="512.05"
       y1="40.05"
       y2="984.05"
       gradientUnits="userSpaceOnUse">
      <stop
         stop-color="#cf2134"
         offset="0"
         id="stop10" />
      <stop
         stop-color="#e55a6a"
         offset="1"
         id="stop12" />
    </linearGradient>
    <filter
       id="c"
       x="-.052"
       y="-.070909"
       width="1.104"
       height="1.1418"
       color-interpolation-filters="sRGB">
      <feGaussianBlur
         stdDeviation="0.78000102"
         id="feGaussianBlur15" />
    </filter>
    <filter
       id="c-3"
       x="-.036"
       y="-.036"
       width="1.072"
       height="1.072"
       color-interpolation-filters="sRGB">
      <feGaussianBlur
         stdDeviation="0.214308"
         id="feGaussianBlur2" />
    </filter>
    <filter
       id="b-6"
       x="-.048466"
       y="-.078737"
       width="1.0969"
       height="1.1575"
       color-interpolation-filters="sRGB">
      <feGaussianBlur
         stdDeviation="0.1899708"
         id="feGaussianBlur5" />
    </filter>
    <linearGradient
       id="a-7"
       x1="8.4665"
       x2="8.4665"
       y1=".52915"
       y2="16.404"
       gradientUnits="userSpaceOnUse"
       gradientTransform="translate(6.3716318,-5.9248231)">
      <stop
         stop-color="#f0236a"
         offset="0"
         id="stop8" />
      <stop
         stop-color="#f95e2f"
         offset="1"
         id="stop10-5" />
    </linearGradient>
    <linearGradient
       id="a-3"
       x1="99.036"
       x2="99.036"
       y1="11.64"
       y2="199.84"
       gradientTransform="matrix(0.30000001,0,0,0.30000001,2.0000023,1.9994987)"
       gradientUnits="userSpaceOnUse">
      <stop
         stop-color="#ff4b00"
         offset="0"
         id="stop854" />
      <stop
         stop-color="#f50f2d"
         offset="1"
         id="stop856" />
    </linearGradient>
  </defs>
  <circle
     cx="32"
     cy="32"
     r="30"
     color="#000000"
     fill="url(#a-3)"
     id="circle861"
     style="fill:url(#a-3);stroke-width:1" />
  <path
     d="m21.824 18.803c-1.5668 0.04884-3.0803 0.75665-4.2396 1.8289-1.1782 1.0898-2.0227 2.5871-2.1937 4.1969-0.08554 0.80494-0.0024 1.63 0.26044 2.3941 0.26279 0.76428 0.70739 1.4664 1.2974 2.0102 0.69594 0.64134 1.5658 1.0459 2.365 1.5476 0.39965 0.2509 0.78578 0.52931 1.1168 0.86799 0.33103 0.33868 0.60627 0.74044 0.75784 1.1923 0.13486 0.40205 0.16813 0.83644 0.10793 1.2566-0.0602 0.42036-0.21338 0.82595-0.43641 1.1851-0.44603 0.7185-1.1652 1.2416-1.9544 1.5214-0.9154 0.3244-1.9238 0.34049-2.8061 0.74876-0.69819 0.32305-1.2854 0.8864-1.6518 1.5714-0.36626 0.68505-0.51135 1.4886-0.42233 2.263 0.1046 0.90994 0.53297 1.7754 1.1755 2.418 0.6425 0.64257 1.4927 1.0611 2.3838 1.1995 1.3066 0.20279 2.7033-0.22229 3.6531-1.1565 0.47491-0.46711 0.83716-1.0513 1.0394-1.6907 0.20222-0.63951 0.24401-1.3328 0.11262-1.9912-0.10034-0.50265-0.298-0.979-0.48099-1.4569-0.18298-0.4781-0.35474-0.96749-0.39886-1.4784-0.07789-0.90213 0.26214-1.8199 0.85169-2.499 0.58955-0.67907 1.4132-1.1259 2.2829-1.3235 0.56109-0.12746 1.1461-0.15601 1.7128-0.05723 0.56667 0.0989 1.1152 0.3256 1.5743 0.67722 0.45916 0.35162 0.82614 0.82955 1.03 1.3759 0.20386 0.54636 0.23998 1.1611 0.07742 1.7216-0.16649 0.57407-0.52437 1.0664-0.88688 1.538-0.36251 0.47163-0.74184 0.94532-0.95727 1.5023-0.23756 0.61423-0.26131 1.3068-0.09854 1.9458 0.16277 0.63891 0.50675 1.225 0.95727 1.7002 0.49841 0.52584 1.1296 0.9197 1.816 1.1351 0.68643 0.2155 1.3885 0.25277 2.107 0.25277 0.71841 0 1.4674-0.03727 2.1539-0.25277 0.68643-0.21536 1.3176-0.60922 1.816-1.1351 0.45052-0.4753 0.7945-1.0613 0.95727-1.7002 0.16277-0.63903 0.13902-1.3315-0.09854-1.9458-0.21542-0.55698-0.59475-1.0307-0.95727-1.5023-0.36252-0.47164-0.7204-0.96399-0.88688-1.538-0.16254-0.56052-0.12643-1.1753 0.07742-1.7216 0.20386-0.54635 0.57084-1.0243 1.03-1.3759 0.45916-0.35163 1.0077-0.57833 1.5743-0.67722 0.56667-0.09877 1.1517-0.07022 1.7128 0.05723 0.86963 0.19754 1.6933 0.64438 2.2829 1.3235 0.58955 0.67907 0.92957 1.597 0.85169 2.499-0.04411 0.51095-0.21588 1.0003-0.39886 1.4784-0.18298 0.47799-0.38064 0.95434-0.48098 1.4569-0.13139 0.65831-0.0896 1.3516 0.11262 1.9912 0.20222 0.63939 0.56448 1.2235 1.0394 1.6907 0.94982 0.93424 2.3465 1.3594 3.6531 1.1565 0.89104-0.13832 1.7413-0.55689 2.3838-1.1995 0.6425-0.64257 1.0709-1.508 1.1755-2.418 0.08903-0.77442-0.05605-1.5779-0.42233-2.263-0.36628-0.68505-0.95357-1.2484-1.6518-1.5714-0.88232-0.40827-1.8907-0.42437-2.8061-0.74876-0.78922-0.27971-1.5084-0.80286-1.9544-1.5214-0.22302-0.3592-0.3762-0.76479-0.4364-1.1851-0.0602-0.42024-0.02693-0.85463 0.10793-1.2566 0.15157-0.45186 0.42679-0.85361 0.75784-1.1923 0.33103-0.33868 0.71717-0.61709 1.1168-0.86799 0.7993-0.50167 1.6691-0.90626 2.365-1.5476 0.59008-0.54379 1.0347-1.246 1.2974-2.0102 0.26278-0.76416 0.34596-1.5892 0.26044-2.3941-0.17107-1.6098-1.0155-3.107-2.1937-4.1969-1.1593-1.0723-2.6728-1.7801-4.2396-1.8289-0.78342-0.02442-1.5725 0.11484-2.2946 0.42445-0.72215 0.30962-1.3751 0.79065-1.8746 1.4045-0.57271 0.70373-0.93267 1.5589-1.2623 2.4084-0.32962 0.84963-0.64116 1.7158-1.1403 2.4752-0.82306 1.2523-2.1221 2.4418-3.6039 2.4418-1.4818 0-2.7808-1.1895-3.6039-2.4418-0.49911-0.75941-0.81066-1.6255-1.1403-2.4752-0.32962-0.84951-0.68957-1.7047-1.2623-2.4084-0.49956-0.61387-1.1525-1.0949-1.8746-1.4045-0.72215-0.30962-1.5112-0.44887-2.2946-0.42445zm10.176 11.596a2.4025 2.4419 0 0 1 2.4025 2.4418 2.4025 2.4419 0 0 1-2.4025 2.4418 2.4025 2.4419 0 0 1-2.4025-2.4418 2.4025 2.4419 0 0 1 2.4025-2.4418z"
     filter="url(#c)"
     opacity=".15"
     id="path27" />
  <style
     type="text/css"
     id="style865">.st0{opacity:0.15;fill:#45413C;}
	.st1{fill:#FFE500;}
	.st2{fill:#EBCB00;}
	.st3{fill:none;stroke:#45413C;stroke-linecap:round;stroke-linejoin:round;stroke-miterlimit:10;}
	.st4{fill:#FFAA54;}
	.st5{fill:#FF8A14;}
	.st6{fill:#FFB0CA;stroke:#45413C;stroke-linecap:round;stroke-linejoin:round;stroke-miterlimit:10;}
	.st7{fill:#FF87AF;stroke:#45413C;stroke-linecap:round;stroke-linejoin:round;stroke-miterlimit:10;}
	.st8{fill:#FFCC99;}
	.st9{fill:#FFFFFF;}
	.st10{fill:#F0F0F0;}
	.st11{fill:#BF8256;}
	.st12{fill:#915E3A;}
	.st13{fill:#DEA47A;}
	.st14{fill:#F0D5A8;}
	.st15{fill:#DEBB7E;}
	.st16{fill:#F7E5C6;}
	.st17{fill:#FF8A14;stroke:#45413C;stroke-linecap:round;stroke-linejoin:round;stroke-miterlimit:10;}
	.st18{fill:#FFF5E3;}
	.st19{fill:#FFF48C;}
	.st20{fill:#FFFACF;}
	.st21{fill:#FFFCE5;}
	.st22{fill:#FF87AF;}
	.st23{fill:#FFB0CA;}
	.st24{fill:#FFE500;stroke:#45413C;stroke-linecap:round;stroke-linejoin:round;stroke-miterlimit:10;}
	.st25{fill:#9CEB60;stroke:#45413C;stroke-linecap:round;stroke-linejoin:round;stroke-miterlimit:10;}
	.st26{fill:#FFFACF;stroke:#45413C;stroke-linecap:round;stroke-linejoin:round;stroke-miterlimit:10;}
	.st27{fill:#00F5BC;stroke:#45413C;stroke-linecap:round;stroke-linejoin:round;stroke-miterlimit:10;}
	.st28{fill:#BF8256;stroke:#45413C;stroke-linecap:round;stroke-linejoin:round;stroke-miterlimit:10;}
	.st29{fill:#FFE3CF;stroke:#45413C;stroke-linecap:round;stroke-linejoin:round;stroke-miterlimit:10;}
	.st30{fill:#FF6242;}
	.st31{fill:#FF866E;}
	.st32{fill:none;stroke:#E04122;stroke-linecap:round;stroke-linejoin:round;stroke-miterlimit:10;}
	.st33{fill:#FFFEF2;stroke:#45413C;stroke-linecap:round;stroke-linejoin:round;stroke-miterlimit:10;}
	.st34{fill:#FF6242;stroke:#45413C;stroke-linecap:round;stroke-linejoin:round;stroke-miterlimit:10;}
	.st35{fill:#FFA694;}
	.st36{fill:#FFFFFF;stroke:#45413C;stroke-linecap:round;stroke-linejoin:round;stroke-miterlimit:10;}
	.st37{fill:#FFFEF2;}
	.st38{fill:#FF6196;}
	.st39{fill:#B89558;}
	.st40{fill:none;stroke:#915E3A;stroke-linecap:round;stroke-linejoin:round;stroke-miterlimit:10;}
	.st41{fill:#DEBB7E;stroke:#45413C;stroke-linecap:round;stroke-linejoin:round;stroke-miterlimit:10;}
	.st42{fill:#6DD627;stroke:#45413C;stroke-linecap:round;stroke-linejoin:round;stroke-miterlimit:10;}
	.st43{fill:#E5F8FF;}
	.st44{fill:#E8F4FA;}
	.st45{fill:#E8F4FA;stroke:#45413C;stroke-linecap:round;stroke-linejoin:round;stroke-miterlimit:10;}
	.st46{fill:#FFCCDD;}
	.st47{fill:#E5F8FF;stroke:#45413C;stroke-linecap:round;stroke-linejoin:round;stroke-miterlimit:10;}
	.st48{fill:#00B8F0;stroke:#45413C;stroke-linecap:round;stroke-linejoin:round;stroke-miterlimit:10;}
	.st49{fill:#00B8F0;}
	.st50{fill:#4ACFFF;}
	.st51{fill:#E04122;}
	.st52{fill:#E04122;stroke:#45413C;stroke-linecap:round;stroke-linejoin:round;stroke-miterlimit:10;}
	.st53{fill:#87898C;}
	.st54{fill:#BDBEC0;}
	.st55{fill:#656769;}
	.st56{fill:#525252;}
	.st57{fill:#FFF48C;stroke:#45413C;stroke-linecap:round;stroke-linejoin:round;stroke-miterlimit:10;}
	.st58{fill:#6DD627;}
	.st59{fill:#EB6D00;}
	.st60{fill:#46B000;}
	.st61{fill:#80DDFF;}
	.st62{fill:#DAEDF7;}
	.st63{fill:#BF8DF2;stroke:#45413C;stroke-linecap:round;stroke-linejoin:round;stroke-miterlimit:10;}
	.st64{fill:#9F5AE5;stroke:#45413C;stroke-linecap:round;stroke-linejoin:round;stroke-miterlimit:10;}
	.st65{fill:#C8FFA1;}
	.st66{fill:#E4FFD1;}
	.st67{fill:#9CEB60;}
	.st68{fill:#E5FEFF;}
	.st69{fill:#B8ECFF;}
	.st70{fill:#E0E0E0;stroke:#45413C;stroke-linecap:round;stroke-linejoin:round;stroke-miterlimit:10;}
	.st71{fill:#E0E0E0;}
	.st72{fill:none;stroke:#4F4B45;stroke-linejoin:round;stroke-miterlimit:10;}
	.st73{fill:none;stroke:#4F4B45;stroke-linecap:round;stroke-linejoin:round;stroke-miterlimit:10;}
	.st74{fill:#E0366F;stroke:#45413C;stroke-linecap:round;stroke-linejoin:round;stroke-miterlimit:10;}
	.st75{fill:none;stroke:#45413C;stroke-miterlimit:10;}
	.st76{fill:#FF866E;stroke:#45413C;stroke-linecap:round;stroke-linejoin:round;stroke-miterlimit:10;}
	.st77{fill:#45413C;stroke:#45413C;stroke-linecap:round;stroke-linejoin:round;stroke-miterlimit:10;}
	.st78{fill:#9F5AE5;}
	.st79{fill:#803EC2;}
	.st80{fill:#803EC2;stroke:#45413C;stroke-linecap:round;stroke-linejoin:round;stroke-miterlimit:10;}
	.st81{fill:#BF8DF2;}
	.st82{fill:#FFAA54;stroke:#45413C;stroke-linecap:round;stroke-linejoin:round;stroke-miterlimit:10;}
	.st83{fill:none;stroke:#45413C;stroke-linejoin:round;stroke-miterlimit:10;}
	.st84{fill:#FFCCDD;stroke:#45413C;stroke-linecap:round;stroke-linejoin:round;stroke-miterlimit:10;}
	.st85{fill:#FF6196;stroke:#45413C;stroke-linecap:round;stroke-linejoin:round;stroke-miterlimit:10;}
	.st86{fill:#FFE5EE;}
	.st87{fill:#F7E5C6;stroke:#45413C;stroke-linecap:round;stroke-linejoin:round;stroke-miterlimit:10;}
	.st88{fill:#E5FFF9;}
	.st89{fill:none;stroke:#45413C;stroke-width:1.0064;stroke-linecap:round;stroke-linejoin:round;stroke-miterlimit:10;}
	.st90{fill:#4AEFF7;}
	.st91{fill:#A6FBFF;}
	.st92{fill:#E5FEFF;stroke:#45413C;stroke-linecap:round;stroke-linejoin:round;stroke-miterlimit:10;}
	.st93{fill:#46B000;stroke:#45413C;stroke-linecap:round;stroke-linejoin:round;stroke-miterlimit:10;}
	.st94{fill:#FFFFFF;stroke:#45413C;stroke-linejoin:round;stroke-miterlimit:10;}
	.st95{fill:#FFFFFF;stroke:#45413C;stroke-miterlimit:10;}
	.st96{fill:#009FD9;}
	.st97{fill:#00DFEB;}
	.st98{fill:#C0DCEB;stroke:#45413C;stroke-linecap:round;stroke-linejoin:round;stroke-miterlimit:10;}
	.st99{fill:#00DFEB;stroke:#45413C;stroke-linecap:round;stroke-linejoin:round;stroke-miterlimit:10;}
	.st100{fill:#FFE5EE;stroke:#45413C;stroke-linecap:round;stroke-linejoin:round;stroke-miterlimit:10;}
	.st101{fill:#8CA4B8;}
	.st102{fill:#ADC4D9;}
	.st103{fill:#656769;stroke:#45413C;stroke-linecap:round;stroke-linejoin:round;stroke-miterlimit:10;}
	.st104{fill:#F0F0F0;stroke:#45413C;stroke-linecap:round;stroke-linejoin:round;stroke-miterlimit:10;}
	.st105{fill:#C0DCEB;}
	.st106{fill:#45413C;}
	.st107{fill:#FFCABF;}
	.st108{fill:#87898C;stroke:#45413C;stroke-linecap:round;stroke-linejoin:round;stroke-miterlimit:10;}
	.st109{fill:#EBCB00;stroke:#45413C;stroke-linecap:round;stroke-linejoin:round;stroke-miterlimit:10;}</style>
  <g
     transform="matrix(3.779602,0,0,3.779602,-81.292166,-78.831079)"
     fill="#5e4aa6"
     stroke-width="0.26458"
     id="g879">
    <circle
       cx="-330.38"
       cy="-328.51001"
       r="0"
       id="circle867" />
    <circle
       cx="-301.70999"
       cy="-344.42999"
       r="0"
       id="circle869" />
    <circle
       cx="-259.01001"
       cy="-348.26001"
       r="0"
       id="circle871" />
    <circle
       cx="31.886"
       cy="-13.442"
       r="0"
       fill-rule="evenodd"
       id="circle873" />
    <circle
       cx="-257.29001"
       cy="-350.64999"
       r="0"
       id="circle875" />
    <circle
       cx="33.611"
       cy="-15.826"
       r="0"
       fill-rule="evenodd"
       id="circle877" />
  </g>
  <path
     id="rect918"
     style="fill:#ffffff;fill-opacity:1;stroke-linecap:round;paint-order:stroke fill markers"
     d="M 21.824219 18.802734 C 20.257419 18.851574 18.743284 19.560562 17.583984 20.632812 C 16.405784 21.722613 15.561625 23.218325 15.390625 24.828125 C 15.305085 25.633065 15.387551 26.458556 15.650391 27.222656 C 15.913181 27.986936 16.359209 28.688622 16.949219 29.232422 C 17.645159 29.873762 18.515253 30.27955 19.314453 30.78125 C 19.714103 31.03215 20.098667 31.309758 20.429688 31.648438 C 20.760717 31.987118 21.03593 32.389937 21.1875 32.841797 C 21.32236 33.243847 21.357075 33.677496 21.296875 34.097656 C 21.236675 34.518016 21.082405 34.924053 20.859375 35.283203 C 20.413345 36.001703 19.69545 36.524887 18.90625 36.804688 C 17.99085 37.129087 16.981909 37.144464 16.099609 37.552734 C 15.401419 37.875784 14.813666 38.44 14.447266 39.125 C 14.081006 39.81005 13.936371 40.612319 14.025391 41.386719 C 14.129991 42.296659 14.558642 43.162088 15.201172 43.804688 C 15.843672 44.447257 16.692884 44.865506 17.583984 45.003906 C 18.890584 45.206696 20.288481 44.781866 21.238281 43.847656 C 21.713191 43.380546 22.075104 42.797603 22.277344 42.158203 C 22.479564 41.518693 22.520062 40.824416 22.388672 40.166016 C 22.288332 39.663366 22.091193 39.186884 21.908203 38.708984 C 21.725223 38.230884 21.553886 37.741379 21.509766 37.230469 C 21.431876 36.328339 21.771778 35.411522 22.361328 34.732422 C 22.950878 34.053352 23.774831 33.605803 24.644531 33.408203 C 25.205621 33.280743 25.790722 33.252782 26.357422 33.351562 C 26.924092 33.450463 27.472541 33.677677 27.931641 34.029297 C 28.390801 34.380917 28.757077 34.857947 28.960938 35.404297 C 29.164797 35.950657 29.201623 36.566453 29.039062 37.126953 C 28.872573 37.701023 28.514854 38.192463 28.152344 38.664062 C 27.789834 39.135692 27.410742 39.609036 27.195312 40.166016 C 26.957753 40.780246 26.932933 41.472328 27.095703 42.111328 C 27.258473 42.750238 27.602214 43.3373 28.052734 43.8125 C 28.551144 44.33834 29.182741 44.731866 29.869141 44.947266 C 30.555571 45.162766 31.258062 45.201172 31.976562 45.201172 C 32.694972 45.201172 33.444359 45.162766 34.130859 44.947266 C 34.817289 44.731906 35.446912 44.33838 35.945312 43.8125 C 36.395832 43.3372 36.741527 42.750228 36.904297 42.111328 C 37.067067 41.472298 37.042248 40.780316 36.804688 40.166016 C 36.589267 39.609036 36.210176 39.135663 35.847656 38.664062 C 35.485136 38.192422 35.127418 37.700963 34.960938 37.126953 C 34.798398 36.566433 34.835212 35.950597 35.039062 35.404297 C 35.242922 34.857947 35.609199 34.380897 36.068359 34.029297 C 36.527519 33.677667 37.075978 33.450452 37.642578 33.351562 C 38.209248 33.252792 38.794369 33.280753 39.355469 33.408203 C 40.225099 33.605743 41.049072 34.053302 41.638672 34.732422 C 42.228222 35.411492 42.568114 36.328469 42.490234 37.230469 C 42.446124 37.741419 42.274777 38.230884 42.091797 38.708984 C 41.908817 39.186974 41.709715 39.663456 41.609375 40.166016 C 41.477985 40.824326 41.520436 41.518603 41.722656 42.158203 C 41.924876 42.797593 42.286799 43.380456 42.761719 43.847656 C 43.711539 44.781896 45.109416 45.206806 46.416016 45.003906 C 47.307056 44.865586 48.156328 44.447297 48.798828 43.804688 C 49.441328 43.162118 49.870009 42.296719 49.974609 41.386719 C 50.063639 40.612299 49.919014 39.8101 49.552734 39.125 C 49.186454 38.43995 48.598621 37.875734 47.900391 37.552734 C 47.018071 37.144464 46.00915 37.129077 45.09375 36.804688 C 44.30453 36.524977 43.586625 36.001743 43.140625 35.283203 C 42.917605 34.924003 42.763325 34.517966 42.703125 34.097656 C 42.642925 33.677416 42.675687 33.243767 42.810547 32.841797 C 42.962117 32.389937 43.237309 31.987128 43.568359 31.648438 C 43.899389 31.309757 44.285917 31.03215 44.685547 30.78125 C 45.484847 30.27958 46.354881 29.873762 47.050781 29.232422 C 47.640861 28.688632 48.084956 27.986856 48.347656 27.222656 C 48.610436 26.458496 48.694895 25.633025 48.609375 24.828125 C 48.438305 23.218325 47.594216 21.722713 46.416016 20.632812 C 45.256716 19.560513 43.742581 18.851534 42.175781 18.802734 C 41.392361 18.778314 40.602959 18.916952 39.880859 19.226562 C 39.158709 19.536182 38.505359 20.018963 38.005859 20.632812 C 37.433149 21.336543 37.073771 22.191516 36.744141 23.041016 C 36.414521 23.890646 36.102656 24.756225 35.603516 25.515625 C 34.780456 26.767925 33.4818 27.957031 32 27.957031 C 30.5182 27.957031 29.219584 26.767925 28.396484 25.515625 C 27.897374 24.756215 27.585499 23.890716 27.255859 23.041016 C 26.926239 22.191506 26.566871 21.336513 25.994141 20.632812 C 25.494581 20.018943 24.841241 19.536163 24.119141 19.226562 C 23.396991 18.916943 22.607619 18.778314 21.824219 18.802734 z M 31.990234 30.398438 A 2.4025 2.4419 0 0 1 32 30.398438 A 2.4025 2.4419 0 0 1 34.402344 32.839844 A 2.4025 2.4419 0 0 1 32 35.283203 A 2.4025 2.4419 0 0 1 29.597656 32.839844 A 2.4025 2.4419 0 0 1 31.990234 30.398438 z " />
</svg>
