<?xml version="1.0" encoding="UTF-8"?>
<svg width="64" height="64" version="1.1" viewBox="0 0 16.933 16.933" xmlns="http://www.w3.org/2000/svg" xmlns:cc="http://creativecommons.org/ns#" xmlns:dc="http://purl.org/dc/elements/1.1/" xmlns:rdf="http://www.w3.org/1999/02/22-rdf-syntax-ns#">
 <defs>
  <linearGradient id="linearGradient12717" x1="3.5809" x2="53.374" y1="10.482" y2="58.376" gradientTransform="matrix(.26458 0 0 .26458 -6.6296 6.3924)" gradientUnits="userSpaceOnUse">
   <stop stop-color="#fafafa" offset="0"/>
   <stop stop-color="#f3f3f3" stop-opacity=".99522" offset="1"/>
  </linearGradient>
  <filter id="f" x="-.064666" y="-.056002" width="1.1293" height="1.112" color-interpolation-filters="sRGB">
   <feGaussianBlur stdDeviation="0.66144363"/>
  </filter>
  <linearGradient id="e" x1="25.68" x2="26.448" y1="39.395" y2="17.376" gradientTransform="matrix(.34488 0 0 .34845 -6.5843 4.7497)" gradientUnits="userSpaceOnUse">
   <stop stop-color="#345f29" offset="0"/>
   <stop stop-color="#59a446" offset="1"/>
  </linearGradient>
  <linearGradient id="a" x1="15.707" x2="25.68" y1="32.561" y2="39.395" gradientTransform="matrix(.34488 0 0 .34845 -6.5843 4.7497)" gradientUnits="userSpaceOnUse">
   <stop stop-color="#ad7c59" offset="0"/>
   <stop stop-color="#835b41" offset="1"/>
  </linearGradient>
 </defs>
 <metadata>
  <rdf:RDF>
   <cc:Work rdf:about="">
    <dc:format>image/svg+xml</dc:format>
    <dc:type rdf:resource="http://purl.org/dc/dcmitype/StillImage"/>
    <dc:title/>
   </cc:Work>
  </rdf:RDF>
 </metadata>
 <g transform="translate(5.9296 -6.8356)">
  <rect transform="rotate(-6.4422)" x="-6.1921" y="8.494" width="13.992" height="13.992" ry="1.1671" fill="url(#linearGradient12717)" stroke-width=".96153"/>
  <g fill-rule="evenodd">
   <path transform="matrix(.35278 0 0 .35277 -6.0177 6.8356)" d="m25 11-12 7v14l12 7 12-7v-14z" filter="url(#f)" opacity=".1"/>
   <g stroke-width=".34666">
    <path d="m-1.6963 12.834 4.2334 7.407 4.2327-7.407-4.2327-2.4705" fill="url(#e)"/>
    <path d="m-1.6963 12.834v1.2346l4.233 2.4705 3.44e-4 -1.236z" fill="#59a849"/>
    <path d="m2.5371 16.537 4.233-2.4695v-1.2346l-4.233 2.4691z" fill="#3e7231"/>
    <path d="m-1.6963 14.067v3.704l4.233 2.4695v-3.704z" fill="url(#a)"/>
    <path d="m2.5371 16.537 4.233-2.4695v3.704l-4.233 2.4695z" fill="#573d2b"/>
   </g>
  </g>
 </g>
</svg>
