<?xml version="1.0" encoding="UTF-8"?>
<svg width="64" height="64" version="1.1" xmlns="http://www.w3.org/2000/svg" xmlns:cc="http://creativecommons.org/ns#" xmlns:dc="http://purl.org/dc/elements/1.1/" xmlns:rdf="http://www.w3.org/1999/02/22-rdf-syntax-ns#">
 <metadata>
  <rdf:RDF>
   <cc:Work rdf:about="">
    <dc:format>image/svg+xml</dc:format>
    <dc:type rdf:resource="http://purl.org/dc/dcmitype/StillImage"/>
    <dc:title/>
   </cc:Work>
  </rdf:RDF>
 </metadata>
 <defs>
  <linearGradient id="linearGradient886" x1="74.341" x2="74.032" y1="15.186" y2="49.356" gradientTransform="matrix(1.5385 -.41223 .41223 1.5385 -110.96 17.54)" gradientUnits="userSpaceOnUse">
   <stop stop-color="#336df5" offset="0"/>
   <stop stop-color="#42afe6" offset="1"/>
  </linearGradient>
  <linearGradient id="linearGradient894" x1="76.747" x2="91.891" y1="32" y2="32" gradientTransform="matrix(1.5385 -.41223 .41223 1.5385 -110.96 17.54)" gradientUnits="userSpaceOnUse">
   <stop stop-color="#63c644" offset="0"/>
   <stop stop-color="#96ca6b" stop-opacity=".98204" offset="1"/>
  </linearGradient>
  <linearGradient id="linearGradient902" x1="95.889" x2="95.172" y1="17.085" y2="48.949" gradientTransform="matrix(1.5385 -.41223 .41223 1.5385 -110.96 17.54)" gradientUnits="userSpaceOnUse">
   <stop stop-color="#5da624" offset="0"/>
   <stop stop-color="#6ba63f" stop-opacity=".9521" offset="1"/>
  </linearGradient>
  <filter id="filter936" x="-.065455" y="-.055385" width="1.1309" height="1.1108" color-interpolation-filters="sRGB">
   <feGaussianBlur stdDeviation="0.7826087"/>
  </filter>
 </defs>
 <g stroke-width="1.3043">
  <path transform="matrix(1.5385 -.41223 .41223 1.5385 -110.96 17.54)" d="m98.698 21.565-7.8261-6.5217v33.913l7.8261-6.5217z" filter="url(#filter936)" opacity=".25"/>
  <path transform="matrix(1.5385 -.41223 .41223 1.5385 -110.96 17.54)" d="m70.002 21.565 7.8261-6.5217v33.913l-7.8261-6.5217z" filter="url(#filter936)" opacity=".25"/>
  <path transform="matrix(1.5385 -.41223 .41223 1.5385 -110.96 17.54)" d="m77.828 15.043c-1.5887 4.5443-1.2874 9.1957 0 13.912l13.043 20.001c0.83609-4.5639 1.7987-9.1265 0-13.69z" filter="url(#filter936)" opacity=".25"/>
  <path transform="matrix(1.5385 -.41223 .41223 1.5385 -110.96 17.54)" d="m90.872 35.266v13.69l5.8696-4.8913z" filter="url(#filter936)" opacity=".25"/>
  <path transform="matrix(1.5385 -.41223 .41223 1.5385 -110.96 17.54)" d="m77.828 15.043-5.88 4.8991 5.88 9.013z" filter="url(#filter936)" opacity=".25"/>
 </g>
 <g stroke-width="2.0774">
  <path d="m49.772 10.031-14.729-6.8073 13.98 52.174 9.3518-13.26z" fill="url(#linearGradient902)"/>
  <path d="m5.6245 21.861 9.3518-13.26 13.98 52.174-14.729-6.8073z" fill="url(#linearGradient886)"/>
  <path d="m14.976 8.6005c-0.57086 7.6462 1.8101 14.678 5.735 21.403l28.311 25.394c-0.59509-7.3661-0.99499-14.782-5.6435-21.062z" fill="url(#linearGradient894)"/>
  <path d="m43.38 34.336 5.6435 21.062 7.0139-9.9448z" fill="#569e41"/>
  <path d="m14.976 8.6005-7.0266 9.961 12.762 11.442z" fill="#5db54e"/>
 </g>
</svg>
