<?xml version="1.0" encoding="UTF-8"?>
<svg width="64" height="64" version="1.1" viewBox="0 0 16.933 16.933" xmlns="http://www.w3.org/2000/svg" xmlns:cc="http://creativecommons.org/ns#" xmlns:dc="http://purl.org/dc/elements/1.1/" xmlns:rdf="http://www.w3.org/1999/02/22-rdf-syntax-ns#" xmlns:xlink="http://www.w3.org/1999/xlink">
 <metadata>
  <rdf:RDF>
   <cc:Work rdf:about="">
    <dc:format>image/svg+xml</dc:format>
    <dc:type rdf:resource="http://purl.org/dc/dcmitype/StillImage"/>
    <dc:title/>
   </cc:Work>
  </rdf:RDF>
 </metadata>
 <defs>
  <linearGradient id="f" x1="9.7333" x2="12.236" y1="5.7579" y2="5.7938" gradientUnits="userSpaceOnUse">
   <stop stop-color="#ff482c" offset="0"/>
   <stop stop-color="#ff9a63" offset="1"/>
  </linearGradient>
  <linearGradient id="linearGradient9252" x1="313.5" x2="318.45" y1="22.384" y2="24.271" gradientTransform="matrix(-.43876 .16872 -.27305 -.27112 143.09 -40.49)" gradientUnits="userSpaceOnUse">
   <stop stop-color="#f6b669" offset="0"/>
   <stop stop-color="#d49353" offset=".19183"/>
   <stop stop-color="#e7c387" offset=".41812"/>
   <stop stop-color="#e9c68b" offset=".73563"/>
   <stop stop-color="#d39f64" offset="1"/>
  </linearGradient>
  <linearGradient id="linearGradient9254" x1="320.3" x2="325.61" y1="10.191" y2="13.513" gradientTransform="matrix(-.43876 .16872 -.27305 -.27112 143.09 -40.49)" gradientUnits="userSpaceOnUse">
   <stop stop-color="#cedbe4" offset="0"/>
   <stop stop-color="#d6e3eb" offset=".14129"/>
   <stop stop-color="#fdfffe" offset=".25656"/>
   <stop stop-color="#f0f5f8" offset=".74517"/>
   <stop stop-color="#d4e1e9" offset=".84074"/>
   <stop stop-color="#c4d3dd" offset="1"/>
  </linearGradient>
  <linearGradient id="linearGradient1021" x1="313.5" x2="318.45" y1="22.384" y2="24.271" gradientTransform="matrix(-.43876 .16872 -.27305 -.27112 143.09 -40.49)" gradientUnits="userSpaceOnUse" xlink:href="#linearGradient9252"/>
  <linearGradient id="linearGradient1023" x1="320.3" x2="325.61" y1="10.191" y2="13.513" gradientTransform="matrix(-.43876 .16872 -.27305 -.27112 143.09 -40.49)" gradientUnits="userSpaceOnUse" xlink:href="#linearGradient9254"/>
  <linearGradient id="linearGradient1035" x1="320.41" x2="325.61" y1="10.661" y2="13.513" gradientTransform="matrix(-.42955 .19095 -.0013686 .38479 137.86 -48.934)" gradientUnits="userSpaceOnUse" xlink:href="#linearGradient9254"/>
  <linearGradient id="linearGradient1061" x1="320.3" x2="325.61" y1="10.191" y2="13.513" gradientTransform="matrix(-.43876 .16872 -.27305 -.27112 148 -33.027)" gradientUnits="userSpaceOnUse" xlink:href="#linearGradient9254"/>
  <linearGradient id="linearGradient1074" x1="1.4551" x2="4.6443" y1="14.084" y2="14.084" gradientTransform="translate(-6.0994)" gradientUnits="userSpaceOnUse" xlink:href="#linearGradient9254"/>
  <linearGradient id="linearGradient1082" x1="1.4551" x2="4.6443" y1="14.084" y2="14.084" gradientTransform="matrix(1 0 0 .55976 -6.0994 4.7167)" gradientUnits="userSpaceOnUse" xlink:href="#f"/>
  <linearGradient id="linearGradient1086" x1="1.4551" x2="4.6443" y1="14.084" y2="14.084" gradientTransform="matrix(1 0 0 .18162 -6.0994 10.985)" gradientUnits="userSpaceOnUse" xlink:href="#linearGradient9252"/>
  <linearGradient id="linearGradient1090" x1="1.4551" x2="4.6443" y1="14.084" y2="14.084" gradientTransform="matrix(1 0 0 .55976 -6.0994 5.1786)" gradientUnits="userSpaceOnUse" xlink:href="#f"/>
 </defs>
 <g transform="matrix(1.2957 0 0 1.2957 9.3291 -14.214)">
  <path d="m-2.7744 13.101 1.0702 1.2013 5.3849 6.0936s0.062687 0.1097 0.067437 0.12158c-0.080884 0.03365-0.18509 0.07855-0.23153 0.09391-0.046355 0.01765-0.092789 0.03677-0.13926 0.0574-0.06529 0.02911-0.13054 0.06115-0.19551 0.09593-0.065353 0.03489-0.13035 0.07255-0.19474 0.11283-0.064017 0.04013-0.12735 0.08281-0.18976 0.12788-0.062671 0.04511-0.12435 0.09256-0.1848 0.14217-0.060486 0.04974-0.11965 0.10159-0.1773 0.15536-0.057452 0.05349-0.11327 0.10889-0.16729 0.1659-0.054362 0.05733-0.10687 0.1162-0.15727 0.17646-0.050148 0.05991-0.098172 0.12107-0.14389 0.18327-0.045651 0.06237-0.088927 0.12568-0.12967 0.18971-0.041146 0.06431-0.079677 0.12927-0.11545 0.19465-0.035433 0.06505-0.068098 0.13039-0.097862 0.19582-0.03001 0.06538-0.057066 0.13075-0.081109 0.19589-0.00866 0.02596-0.016886 0.05189-0.024544 0.07769-0.00311-0.0013-0.070293-0.01753-0.070293-0.01753l-5.288-6.0376-1.3009-1.316c-0.080069-0.63224 0.39587-1.0365 0.86342-1.504 0.6912-0.6912 0.9265-0.76411 1.5032-0.70623z" fill="url(#linearGradient1035)" stroke-width=".40624"/>
  <g transform="matrix(1 0 0 -1 -2.557 28.192)" stroke-width=".40624">
   <path d="m-3.4065 6.9834c0.02372 0.01282 0.04781 0.02535 0.07229 0.03758 0.06303 0.02906 0.12843 0.05613 0.19586 0.08116 0.06731 0.02521 0.13663 0.04833 0.20767 0.06927 0.07154 0.02092 0.14471 0.03961 0.21927 0.056 0.0741 0.01646 0.14946 0.03063 0.22583 0.04245 0.07632 0.01165 0.15352 0.02095 0.23134 0.02785 0.07824 7e-3 0.157 0.01149 0.23599 0.01357 0.07851 0.0021 0.15714 0.0018 0.2356-9.79e-4 0.07878-0.0028 0.15728-0.0079 0.23522-0.01552 0.07783-0.0077 0.155-0.01772 0.2312-0.03014 0.075999-0.01227 0.15096-0.02688 0.22461-0.04376 0.074017-0.01705 0.1466-0.03638 0.21749-0.05792 0.070544-0.02135 0.13932-0.04485 0.20608-0.07042 0.047467-0.01827 0.093829-0.03758 0.13906-0.05788 0.10953-0.04221 0.1577-0.06668 0.23015-0.09732-0.050267-0.11652-0.22824-0.6791-0.77125-1.2983-0.019566 0.00882-0.13001 0.031403-0.15044 0.039484-0.033542 0.012845-0.06805 0.024661-0.10347 0.03538-0.03579 0.0108-0.07248 0.020489-0.10987 0.029019-0.0371 0.00856-0.07486 0.015975-0.11316 0.022209-0.03833 0.00633-0.07724 0.011472-0.11646 0.015393-0.03909 0.00386-0.0785 0.0065-0.11803 0.00792-0.0396 0.0012-0.0792 0.0013-0.11876 1.37e-4 -0.03964-9.79e-4 -0.07915-0.0032-0.11842-0.00662-0.03939-0.00364-0.07835-0.0085-0.1169-0.014552-0.0385-0.00579-0.07644-0.012763-0.11378-0.020899-0.03723-0.00834-0.07376-0.017835-0.10947-0.02843-0.03587-0.010435-0.07095-0.021963-0.10496-0.034571-0.0338-0.012597-0.06662-0.026214-0.09817-0.040848-0.0088-0.00419-0.03879-0.016385-0.04709-0.020825-0.0935 0.094472-0.75448 0.93676-0.7973 1.3615z" fill="url(#linearGradient1021)"/>
   <path d="m-2.5637 5.6422c0.03164 0.014599 0.06437 0.028252 0.09818 0.040848 0.03401 0.012594 0.06906 0.024135 0.10496 0.034571 0.0357 0.010596 0.07223 0.020087 0.10947 0.02843 0.03735 0.00812 0.0753 0.01511 0.11378 0.020899 0.03854 0.00606 0.07757 0.010914 0.1169 0.014552 0.0393 0.00343 0.07879 0.00564 0.11842 0.00662 0.0396 0.0012 0.0792 0.0011 0.11876-1.38e-4 0.03951-0.0014 0.07892-0.0041 0.11803-0.00792 0.03918-0.00394 0.07808-0.00906 0.11646-0.015393 0.03829-0.00623 0.07607-0.013644 0.11317-0.022209 0.03735-0.00852 0.07405-0.018216 0.10987-0.029019 0.03536-0.01071 0.083846-0.020537 0.13428-0.035478 0.020454-0.00806 0.10011-0.030624 0.11972-0.039446-0.12945-0.17584-0.34873-0.34289-0.49411-0.47628-0.33869-0.23665-0.745 0.02295-1.0449 0.45909 0.02207 0.010401 0.03295 0.014629 0.04704 0.020875z" fill="#eaf1f5"/>
   <path d="m-0.21744 15.091 0.0058-1.62-0.052604-6.3997s-0.033245-0.1219-0.038285-0.13366c-0.080988 0.0334-0.18642 0.07533-0.23013 0.09731-0.045256 0.0203-0.091614 0.03961-0.13906 0.05788-0.066754 0.02558-0.13554 0.04907-0.20608 0.07042-0.070883 0.02154-0.14347 0.04087-0.21749 0.05792-0.073644 0.01689-0.14861 0.03149-0.2246 0.04376-0.07621 0.01242-0.15338 0.02248-0.2312 0.03014-0.07794 0.0076-0.15644 0.01277-0.23523 0.01552-0.07845 0.0028-0.15709 0.0031-0.2356 9.79e-4 -0.07898-0.0021-0.15774-0.0066-0.23598-0.01357-0.07782-0.0069-0.15503-0.01619-0.23134-0.02785-0.07638-0.01182-0.15175-0.02599-0.22584-0.04245-0.07457-0.01638-0.14775-0.03507-0.21928-0.056-0.07105-0.02094-0.14036-0.04405-0.20767-0.06927-0.06745-0.02501-0.1328-0.0521-0.19586-0.08116-0.02448-0.01223-0.04863-0.02475-0.07229-0.03758-0.0013 0.0031-0.03731 0.0621-0.03731 0.0621l-0.01698 6.3052 0.01067 1.8505c0.39045 0.50368 1.0128 0.45299 1.6741 0.45299 0.9775 0 1.1954-0.11483 1.5623-0.56352z" fill="url(#linearGradient1023)"/>
  </g>
  <path d="m4.6843 22.554 0.0058-1.62-0.052604-6.3997s-0.033245-0.1219-0.038285-0.13366c-0.080988 0.0334-0.18642 0.07533-0.23013 0.09731-0.045256 0.0203-0.091614 0.03961-0.13906 0.05788-0.066754 0.02558-0.13554 0.04907-0.20608 0.07042-0.070883 0.02154-0.14347 0.04087-0.21749 0.05792-0.073644 0.01689-0.14861 0.03149-0.2246 0.04376-0.07621 0.01242-0.15338 0.02248-0.2312 0.03014-0.07794 0.0076-0.15644 0.01277-0.23523 0.01552-0.07845 0.0028-0.15709 0.0031-0.2356 9.79e-4 -0.07898-0.0021-0.15774-0.0066-0.23598-0.01357-0.07782-0.0069-0.15503-0.01619-0.23134-0.02785-0.07638-0.01182-0.15175-0.02599-0.22584-0.04245-0.07457-0.01638-0.14775-0.03507-0.21928-0.056-0.07105-0.02094-0.14036-0.04405-0.20767-0.06927-0.06745-0.02501-0.1328-0.0521-0.19586-0.08116-0.02448-0.01223-0.04863-0.02475-0.07229-0.03758-0.0013 0.0031-0.03731 0.0621-0.03731 0.0621l-0.01698 6.3052 0.01067 1.8505c0.39045 0.50368 1.0128 0.45299 1.6741 0.45299 0.9775 0 1.1954-0.11483 1.5623-0.56352z" fill="url(#linearGradient1061)" stroke-width=".40624"/>
  <rect transform="scale(-1,1)" x="-4.6443" y="12.812" width="3.1891" height="2.5431" ry=".84741" fill="url(#linearGradient1074)" stroke-width=".74334"/>
  <rect transform="scale(-1,1)" x="-4.6443" y="11.889" width="3.1891" height="1.4235" ry=".48011" fill="url(#linearGradient1082)" stroke-width=".55614"/>
  <rect transform="scale(-1,1)" x="-4.6443" y="12.35" width="3.1891" height="1.4235" ry=".48011" fill="url(#linearGradient1090)" stroke-width=".55614"/>
  <rect transform="scale(-1,1)" x="-4.6443" y="13.312" width="3.1891" height=".46188" ry="0" fill="url(#linearGradient1086)" stroke-width=".31679"/>
 </g>
</svg>
