<?xml version="1.0" encoding="UTF-8" standalone="no"?>
<svg
   xmlns:dc="http://purl.org/dc/elements/1.1/"
   xmlns:cc="http://creativecommons.org/ns#"
   xmlns:rdf="http://www.w3.org/1999/02/22-rdf-syntax-ns#"
   xmlns:svg="http://www.w3.org/2000/svg"
   xmlns="http://www.w3.org/2000/svg"
   xmlns:sodipodi="http://sodipodi.sourceforge.net/DTD/sodipodi-0.dtd"
   xmlns:inkscape="http://www.inkscape.org/namespaces/inkscape"
   id="Iterm"
   width="64"
   height="64"
   enable-background="new 0 0 1024 1024"
   image-rendering="optimizeSpeed"
   version="1.1"
   viewBox="0 0 64 64"
   sodipodi:docname="onboard.svg"
   inkscape:version="1.0.1 (3bc2e813f5, 2020-09-07, custom)">
  <metadata
     id="metadata36">
    <rdf:RDF>
      <cc:Work
         rdf:about="">
        <dc:format>image/svg+xml</dc:format>
        <dc:type
           rdf:resource="http://purl.org/dc/dcmitype/StillImage" />
        <dc:title></dc:title>
      </cc:Work>
    </rdf:RDF>
  </metadata>
  <sodipodi:namedview
     pagecolor="#ffffff"
     bordercolor="#666666"
     borderopacity="1"
     objecttolerance="10"
     gridtolerance="10"
     guidetolerance="10"
     inkscape:pageopacity="0"
     inkscape:pageshadow="2"
     inkscape:window-width="1920"
     inkscape:window-height="985"
     id="namedview34"
     showgrid="false"
     inkscape:zoom="3.2460938"
     inkscape:cx="-13.415828"
     inkscape:cy="10.835065"
     inkscape:window-x="0"
     inkscape:window-y="0"
     inkscape:window-maximized="1"
     inkscape:current-layer="Iterm" />
  <defs
     id="defs18">
    <linearGradient
       id="b"
       x1="-506.45"
       x2="-506.45"
       y1="-19.101"
       y2="1013.6"
       gradientTransform="matrix(.058824 0 0 .058824 61.791 3.1236)"
       gradientUnits="userSpaceOnUse">
      <stop
         stop-color="#f6f6f6"
         offset="0"
         id="stop2" />
      <stop
         stop-color="#d3d3d3"
         offset="1"
         id="stop4" />
    </linearGradient>
    <filter
       id="d"
       x="-.036"
       y="-.036"
       width="1.072"
       height="1.072"
       color-interpolation-filters="sRGB">
      <feGaussianBlur
         stdDeviation="0.90000006"
         id="feGaussianBlur7" />
    </filter>
    <linearGradient
       id="a"
       x1="32.113"
       x2="32.495"
       y1="20.763"
       y2="53.185"
       gradientTransform="matrix(1.1667 0 0 1.1667 -5.8133 -6.2518)"
       gradientUnits="userSpaceOnUse">
      <stop
         stop-color="#2c2c2c"
         offset="0"
         id="stop10" />
      <stop
         stop-color="#595959"
         offset="1"
         id="stop12" />
    </linearGradient>
    <filter
       id="c"
       x="-.06"
       y="-.06"
       width="1.12"
       height="1.12"
       color-interpolation-filters="sRGB">
      <feGaussianBlur
         stdDeviation="0.6999997"
         id="feGaussianBlur15" />
    </filter>
    <style
       type="text/css"
       id="style863" />
    <filter
       id="c-3"
       x="-.06"
       y="-.06"
       width="1.12"
       height="1.12"
       color-interpolation-filters="sRGB">
      <feGaussianBlur
         stdDeviation="0.6999997"
         id="feGaussianBlur865" />
    </filter>
    <linearGradient
       id="a-3"
       x1="32"
       x2="32"
       y1="2"
       y2="62"
       gradientTransform="matrix(0.26459,0,0,0.26459,0.066756,0.21412)"
       gradientUnits="userSpaceOnUse">
      <stop
         stop-color="#f5faff"
         offset="0"
         id="stop868" />
      <stop
         stop-color="#cfdef0"
         offset="1"
         id="stop870" />
    </linearGradient>
  </defs>
  <mask
     id="mask23">
    <g
       id="g">
      <path
         d="m969.75 392.05c-1.1-4.35-2.35-9-3.65-13.6-1-3.4-2-6.85-3.15-10.5-1.6-5.15-3.4-10.5-5.3-15.85-6.45-18.25-14.15-36.05-23.15-53.65-3.8-7.4-7.95-14.95-12.3-22.4-20.3-34.5-45.8-67.2-76.35-97.75-72.6-72.6-157.15-116.65-253.65-132.05-16.25-2.6-32.8-4.4-50.05-5.35-9.7-0.55-19.85-0.85-30.1-0.85-9.35 0-18.6 0.25-27.9 0.75-118.35 6.1-220.3 51.95-305.85 137.5q-138.25 138.25-138.25 333.75c0 130.35 46.1 241.65 138.25 333.8 56.7 56.65 120.55 95.9 191.1 117.55 36.75 11.25 74.8 17.85 114.75 19.95h0.4c8.5 0.45 16.6 0.7 24.5 0.7h3c10.3 0 20.5-0.3 30.1-0.8 2.5-0.15 4.75-0.3 6.95-0.45 20.2-1.45 39.9-4.05 58.7-7.7 7.95-1.55 15.8-3.3 23.4-5.15 80.8-20.3 152.15-61.6 214.65-124.1 48.6-48.6 84.4-102.5 107.35-161.8 18.45-47.65 28.65-98.8 30.55-153.5 0.2-6.05 0.3-12.25 0.3-18.5v-3c-0.2-40.65-4.95-79.5-14.3-117z"
         fill="#fff"
         id="path20" />
    </g>
  </mask>
  <g
     id="g912"
     transform="matrix(3.779602,0,0,3.779602,-1.3999348e-6,-1.3999348e-6)">
    <g
       transform="translate(-0.0272,0.0065001)"
       fill="#5e4aa6"
       stroke-width="0.26458"
       id="g883">
      <circle
         cx="-330.35001"
         cy="-328.38"
         r="0"
         id="circle875" />
      <circle
         cx="-312.10999"
         cy="-326.25"
         r="0"
         id="circle877" />
      <circle
         cx="-306.01999"
         cy="-333.07001"
         r="0"
         id="circle879" />
      <circle
         cx="-308.84"
         cy="-326.01001"
         r="0"
         id="circle881" />
    </g>
    <circle
       cx="8.4665003"
       cy="8.4665003"
       r="7.9376001"
       fill="url(#a-3)"
       stroke-width="0.26459"
       style="fill:url(#a-3);paint-order:stroke markers fill"
       id="circle885" />
    <g
       transform="matrix(1.1161,0,0,1.1161,-0.43021,-1.1787)"
       id="g891">
      <path
         transform="matrix(0.26458,0,0,0.26458,-0.495,0.17548)"
         d="m 40.384,34.728 -2.7879,0.0201 -0.0402,-5.5758 2.7879,-0.0201 c 3.0793,-0.0222 5.5579,-2.5368 5.5357,-5.616 -0.02221,-3.0792 -2.5368,-5.5578 -5.6161,-5.5356 -3.0796,0.0222 -5.5579,2.5368 -5.5357,5.616 l 0.0201,2.7879 -5.5759,0.04021 -0.0201,-2.7879 c -0.02221,-3.0792 -2.5368,-5.5578 -5.6161,-5.5356 -3.0793,0.0222 -5.5579,2.5368 -5.5357,5.616 0.02221,3.0792 2.5368,5.5578 5.6161,5.5356 l 2.7879,-0.0201 0.04023,5.5758 -2.7879,0.0201 c -3.0793,0.0222 -5.5579,2.5368 -5.5357,5.616 0.0222,3.0792 2.5368,5.5578 5.6161,5.5356 3.0796,-0.0222 5.5579,-2.5368 5.5357,-5.616 l -0.0201,-2.7879 5.5759,-0.04021 0.02005,2.7809 c 2e-5,0.0028 -3.13e-4,0.0049 -2.99e-4,0.007 0.02221,3.0792 2.5368,5.5578 5.6161,5.5356 3.0793,-0.0222 5.5579,-2.5368 5.5357,-5.616 -0.02221,-3.0792 -2.5365,-5.5571 -5.6157,-5.5356 z m -0.10053,-13.94 c 1.5396,-0.01108 2.7969,1.2282 2.808,2.7678 0.0112,1.5396 -1.2282,2.7969 -2.7678,2.808 l -2.7879,0.0201 -0.0201,-2.7879 c -0.0112,-1.5396 1.2282,-2.7969 2.7678,-2.808 z m -19.495,2.9287 c -0.0112,-1.5396 1.2282,-2.7969 2.7678,-2.808 1.5396,-0.01108 2.7969,1.2282 2.808,2.7678 l 0.0201,2.7879 -2.7879,0.0201 c -1.5396,0.01108 -2.7969,-1.2285 -2.808,-2.7678 z m 2.9287,19.495 c -1.5396,0.01108 -2.7969,-1.2282 -2.808,-2.7678 -0.0112,-1.5396 1.2282,-2.7969 2.7678,-2.808 l 2.7879,-0.0201 0.0201,2.7879 c 0.0112,1.5396 -1.2282,2.7969 -2.7678,2.808 z m 5.5156,-8.4039 -0.0402,-5.5758 5.5759,-0.04021 0.0402,5.5758 z m 11.212,8.2833 c -1.5396,0.01108 -2.7969,-1.2282 -2.808,-2.7678 l -0.0201,-2.7879 2.7876,-0.0201 c 1.5396,-0.01108 2.7969,1.2282 2.808,2.7678 0.0112,1.5396 -1.2278,2.7969 -2.7675,2.808 z"
         filter="url(#c)"
         image-rendering="optimizeSpeed"
         opacity="0.15"
         stroke-width="0.24412"
         id="path887"
         style="filter:url(#c-3)" />
      <path
         d="M 10.19,9.3638 9.45238,9.36912 9.44174,7.89392 10.17936,7.8886 C 10.99408,7.88273 11.64986,7.21742 11.64396,6.4027 11.63806,5.58801 10.97278,4.9322 10.15806,4.9381 9.34327,4.94397 8.68756,5.60928 8.69346,6.424 l 0.0053,0.73762 -1.4753,0.010639 -0.0053,-0.73762 c -0.0059,-0.81469 -0.67118,-1.4705 -1.4859,-1.4646 -0.81472,0.00587 -1.4705,0.67118 -1.4646,1.4859 0.0059,0.81469 0.67118,1.4705 1.4859,1.4646 l 0.73762,-0.00532 0.01064,1.4752 -0.73762,0.00532 c -0.81472,0.00587 -1.4705,0.67118 -1.4646,1.4859 0.0059,0.81469 0.67118,1.4705 1.4859,1.4646 0.8148,-0.0059 1.4705,-0.67118 1.4646,-1.4859 l -0.0053,-0.73762 1.4753,-0.01064 0.0053,0.73576 c 6e-6,7.41e-4 -8.2e-5,0.0013 -7.9e-5,0.0019 0.0059,0.81469 0.67118,1.4705 1.4859,1.4646 0.81472,-0.0059 1.4705,-0.67118 1.4646,-1.4859 -0.0059,-0.81469 -0.6711,-1.4703 -1.4858,-1.4646 z M 10.1634,5.6756 c 0.40734,-0.00293 0.74,0.32495 0.74294,0.7323 0.003,0.40734 -0.32496,0.74 -0.7323,0.74294 L 9.43642,7.15616 9.43112,6.41854 c -0.003,-0.40734 0.32496,-0.74 0.7323,-0.74294 z m -5.158,0.77487 c -0.003,-0.40734 0.32496,-0.74 0.7323,-0.74294 0.40734,-0.00293 0.74,0.32495 0.74294,0.7323 L 6.48594,7.17745 5.74832,7.18277 C 5.34098,7.1857 5.00832,6.85774 5.00538,6.45047 Z m 0.77487,5.158 c -0.40734,0.0029 -0.74,-0.32496 -0.74294,-0.7323 -0.003,-0.40734 0.32496,-0.74 0.7323,-0.74294 l 0.73762,-0.0053 0.0053,0.73762 c 0.003,0.40734 -0.32496,0.74 -0.7323,0.74294 z m 1.4593,-2.2235 -0.01064,-1.4752 1.4753,-0.010639 0.01064,1.4752 z m 2.9664,2.1916 c -0.40734,0.0029 -0.74,-0.32496 -0.74293,-0.7323 l -0.0053,-0.73762 0.73754,-0.0053 c 0.40734,-0.0029 0.74,0.32496 0.74294,0.7323 0.003,0.40734 -0.32485,0.74 -0.73222,0.74294 z"
         fill="#2d3237"
         image-rendering="optimizeSpeed"
         stroke-width="0.064589"
         id="path889" />
    </g>
  </g>
</svg>
