<?xml version="1.0" encoding="UTF-8" standalone="no"?>
<svg
   xmlns:dc="http://purl.org/dc/elements/1.1/"
   xmlns:cc="http://creativecommons.org/ns#"
   xmlns:rdf="http://www.w3.org/1999/02/22-rdf-syntax-ns#"
   xmlns:svg="http://www.w3.org/2000/svg"
   xmlns="http://www.w3.org/2000/svg"
   xmlns:xlink="http://www.w3.org/1999/xlink"
   xmlns:sodipodi="http://sodipodi.sourceforge.net/DTD/sodipodi-0.dtd"
   xmlns:inkscape="http://www.inkscape.org/namespaces/inkscape"
   width="64"
   height="64"
   version="1.1"
   id="svg30"
   sodipodi:docname="org.gnome.PasswordSafe.svg"
   inkscape:version="1.0.1 (3bc2e813f5, 2020-09-07, custom)">
  <metadata
     id="metadata34">
    <rdf:RDF>
      <cc:Work
         rdf:about="">
        <dc:format>image/svg+xml</dc:format>
        <dc:type
           rdf:resource="http://purl.org/dc/dcmitype/StillImage" />
        <dc:title></dc:title>
      </cc:Work>
    </rdf:RDF>
  </metadata>
  <sodipodi:namedview
     pagecolor="#ffffff"
     bordercolor="#666666"
     borderopacity="1"
     objecttolerance="10"
     gridtolerance="10"
     guidetolerance="10"
     inkscape:pageopacity="0"
     inkscape:pageshadow="2"
     inkscape:window-width="1920"
     inkscape:window-height="985"
     id="namedview32"
     showgrid="false"
     inkscape:zoom="3.2460938"
     inkscape:cx="-10.113846"
     inkscape:cy="-21.356968"
     inkscape:window-x="0"
     inkscape:window-y="0"
     inkscape:window-maximized="1"
     inkscape:current-layer="svg30" />
  <defs
     id="defs18">
    <linearGradient
       inkscape:collect="always"
       id="linearGradient1070">
      <stop
         style="stop-color:#7f7f7f;stop-opacity:1"
         offset="0"
         id="stop1066" />
      <stop
         style="stop-color:#333333;stop-opacity:1"
         offset="1"
         id="stop1068" />
    </linearGradient>
    <filter
       id="d"
       x="-.036"
       y="-.036"
       width="1.072"
       height="1.072"
       color-interpolation-filters="sRGB">
      <feGaussianBlur
         stdDeviation="14.343749"
         id="feGaussianBlur2" />
    </filter>
    <linearGradient
       id="a"
       x1="32"
       x2="32"
       y1="2"
       y2="62"
       gradientUnits="userSpaceOnUse"
       gradientTransform="translate(0,-93.692164)">
      <stop
         stop-color="#65257e"
         offset="0"
         id="stop5" />
      <stop
         stop-color="#b665d8"
         offset="1"
         id="stop7" />
    </linearGradient>
    <linearGradient
       id="b"
       x1="-254"
       x2="-206"
       y1="64"
       y2="64"
       gradientTransform="translate(291.69216,-32)"
       gradientUnits="userSpaceOnUse">
      <stop
         stop-color="#deddda"
         offset="0"
         id="stop10" />
      <stop
         stop-color="#f6f5f4"
         offset="1"
         id="stop12" />
    </linearGradient>
    <filter
       id="c"
       x="-.06"
       y="-.06"
       width="1.12"
       height="1.12"
       color-interpolation-filters="sRGB">
      <feGaussianBlur
         stdDeviation="1.1999992"
         id="feGaussianBlur15" />
    </filter>
    <radialGradient
       id="radialGradient4514-5"
       cx="259.52"
       cy="558.97"
       r="34"
       gradientTransform="matrix(0.1323,7.0812e-8,-7.0812e-8,0.1323,-25.866,-65.48)"
       gradientUnits="userSpaceOnUse">
      <stop
         stop-color="#65257e"
         offset="0"
         id="stop859" />
      <stop
         stop-color="#672680"
         offset=".72383"
         id="stop861" />
      <stop
         stop-color="#a558c5"
         offset=".80104"
         id="stop863" />
      <stop
         stop-color="#b363d5"
         offset=".94118"
         id="stop865" />
      <stop
         stop-color="#66267f"
         offset="1"
         id="stop867" />
    </radialGradient>
    <linearGradient
       id="linearGradient1019-1"
       x1="16.933"
       x2="16.933"
       y1="291.12"
       y2="268.25"
       gradientTransform="matrix(0.37026,0,0,0.37026,2.1972,-95.086)"
       gradientUnits="userSpaceOnUse">
      <stop
         stop-color="#4e1d61"
         offset="0"
         id="stop870" />
      <stop
         stop-color="#c68ede"
         offset="1"
         id="stop872" />
    </linearGradient>
    <linearGradient
       id="linearGradient1033-0"
       x1="16.933"
       x2="16.933"
       y1="288.26"
       y2="272.06"
       gradientTransform="matrix(0.37026,0,0,0.37026,2.1972,-95.086)"
       gradientUnits="userSpaceOnUse">
      <stop
         stop-color="#e5e5e5"
         offset="0"
         id="stop875" />
      <stop
         stop-color="#f1f1f1"
         offset="1"
         id="stop877" />
    </linearGradient>
    <linearGradient
       id="linearGradient4590-6"
       x1="47.902"
       x2="47.902"
       y1="1016.9"
       y2="991.52"
       gradientTransform="matrix(0.067905,0,0,0.067905,-12.692,-12.307)"
       gradientUnits="userSpaceOnUse">
      <stop
         stop-color="#fff"
         offset="0"
         id="stop880" />
      <stop
         stop-color="#fff"
         stop-opacity="0"
         offset="1"
         id="stop882" />
    </linearGradient>
    <linearGradient
       id="linearGradient4574-2"
       x1="48.543"
       x2="48.543"
       y1="1016.1"
       y2="993.68"
       gradientTransform="matrix(0.067905,0,0,0.067905,-12.692,-12.307)"
       gradientUnits="userSpaceOnUse">
      <stop
         stop-color="#d6d6d6"
         offset="0"
         id="stop885" />
      <stop
         stop-color="#d0d0d0"
         offset="1"
         id="stop887" />
    </linearGradient>
    <linearGradient
       id="linearGradient1011-8"
       x1="31.807"
       x2="31.807"
       y1="26.918"
       y2="36.986"
       gradientTransform="matrix(1.0000449,0,0,1.0000449,-89.818126,-3.4977363)"
       gradientUnits="userSpaceOnUse">
      <stop
         offset="0"
         id="stop890" />
      <stop
         stop-opacity=".5"
         offset="1"
         id="stop892" />
    </linearGradient>
    <linearGradient
       id="linearGradient4612-2"
       x1="299.74"
       x2="323.46"
       y1="304.59"
       y2="304.59"
       gradientTransform="matrix(0.25299522,0,0,0.25106384,-136.65094,-46.965731)"
       gradientUnits="userSpaceOnUse">
      <stop
         stop-color="#1a1d1e"
         offset="0"
         id="stop895" />
      <stop
         stop-color="#282d30"
         offset=".16667"
         id="stop897" />
      <stop
         stop-color="#34393d"
         offset=".50565"
         id="stop899" />
      <stop
         stop-color="#2a2e32"
         offset=".83333"
         id="stop901" />
      <stop
         stop-color="#1b1d1f"
         offset="1"
         id="stop903" />
    </linearGradient>
    <linearGradient
       id="linearGradient1000"
       x1="8.5867"
       x2="8.5867"
       y1="15.747"
       y2="1.0975"
       gradientUnits="userSpaceOnUse"
       gradientTransform="matrix(3.779602,0,0,3.779602,-89.817887,-3.5116467)">
      <stop
         stop-color="#333"
         offset="0"
         id="stop906" />
      <stop
         stop-color="#808080"
         offset="1"
         id="stop908" />
    </linearGradient>
    <linearGradient
       id="linearGradient987"
       x1="8.3788"
       x2="8.3788"
       y1="13.822"
       y2="3.4058"
       gradientUnits="userSpaceOnUse">
      <stop
         stop-color="#e0e0e0"
         offset="0"
         id="stop911" />
      <stop
         stop-color="#fff"
         offset="1"
         id="stop913" />
    </linearGradient>
    <linearGradient
       inkscape:collect="always"
       xlink:href="#linearGradient1070"
       id="linearGradient1072"
       x1="33.232117"
       y1="1.9674916"
       x2="33.232117"
       y2="62.135651"
       gradientUnits="userSpaceOnUse" />
    <linearGradient
       inkscape:collect="always"
       xlink:href="#linearGradient987"
       id="linearGradient1210"
       gradientUnits="userSpaceOnUse"
       x1="8.3788"
       y1="13.822"
       x2="8.3788"
       y2="3.4058" />
    <radialGradient
       inkscape:collect="always"
       xlink:href="#radialGradient4514-5"
       id="radialGradient1212"
       gradientUnits="userSpaceOnUse"
       gradientTransform="matrix(0.1323,7.0812e-8,-7.0812e-8,0.1323,-25.866,-65.48)"
       cx="259.52"
       cy="558.97"
       r="34" />
    <linearGradient
       inkscape:collect="always"
       xlink:href="#linearGradient1019-1"
       id="linearGradient1214"
       gradientUnits="userSpaceOnUse"
       gradientTransform="matrix(0.37026,0,0,0.37026,2.1972,-95.086)"
       x1="16.933"
       y1="291.12"
       x2="16.933"
       y2="268.25" />
    <linearGradient
       inkscape:collect="always"
       xlink:href="#linearGradient1033-0"
       id="linearGradient1216"
       gradientUnits="userSpaceOnUse"
       gradientTransform="matrix(0.37026,0,0,0.37026,2.1972,-95.086)"
       x1="16.933"
       y1="288.26"
       x2="16.933"
       y2="272.06" />
    <linearGradient
       inkscape:collect="always"
       xlink:href="#linearGradient4590-6"
       id="linearGradient1218"
       gradientUnits="userSpaceOnUse"
       gradientTransform="matrix(0.067905,0,0,0.067905,-12.692,-12.307)"
       x1="47.902"
       y1="1016.9"
       x2="47.902"
       y2="991.52" />
    <linearGradient
       inkscape:collect="always"
       xlink:href="#linearGradient4574-2"
       id="linearGradient1220"
       gradientUnits="userSpaceOnUse"
       gradientTransform="matrix(0.067905,0,0,0.067905,-12.692,-12.307)"
       x1="48.543"
       y1="1016.1"
       x2="48.543"
       y2="993.68" />
    <linearGradient
       inkscape:collect="always"
       xlink:href="#linearGradient1011-8"
       id="linearGradient1222"
       gradientUnits="userSpaceOnUse"
       gradientTransform="matrix(1.0000449,0,0,1.0000449,-89.818126,-3.4977363)"
       x1="31.807"
       y1="26.918"
       x2="31.807"
       y2="36.986" />
    <linearGradient
       inkscape:collect="always"
       xlink:href="#linearGradient4612-2"
       id="linearGradient1224"
       gradientUnits="userSpaceOnUse"
       gradientTransform="matrix(0.25299522,0,0,0.25106384,-136.65094,-46.965731)"
       x1="299.74"
       y1="304.59"
       x2="323.46"
       y2="304.59" />
  </defs>
  <circle
     style="fill:url(#linearGradient1072);stroke-width:0.560477;stroke-linecap:round;paint-order:stroke fill markers;fill-opacity:1"
     id="path1064"
     cx="32"
     cy="32"
     r="30" />
  <g
     id="g1208"
     transform="translate(89.816374,3.500029)">
    <g
       stroke-width="0.35931"
       id="g1127"
       transform="matrix(3.779602,0,0,3.779602,-89.817887,-3.5116467)">
      <rect
         x="2.6459"
         y="3.1436"
         width="11.642"
         height="11.642"
         rx="5.8211999"
         ry="5.8211999"
         opacity="0.0375"
         id="rect1109" />
      <rect
         x="2.6459"
         y="2.9103"
         width="11.642"
         height="11.642"
         rx="5.8211999"
         ry="5.8211999"
         opacity="0.0625"
         id="rect1111" />
      <rect
         x="3.9688001"
         y="4.2321"
         width="8.9961996"
         height="8.9961996"
         rx="4.4983001"
         ry="4.4983001"
         opacity="0.25"
         id="rect1113" />
      <rect
         x="4.0218"
         y="4.2839999"
         width="8.8902998"
         height="8.8902998"
         rx="4.4453001"
         ry="4.4453001"
         opacity="0.25"
         id="rect1115" />
      <rect
         x="4.0218"
         y="4.2839999"
         width="8.8902998"
         height="8.8902998"
         rx="4.4453001"
         ry="4.4453001"
         opacity="0.0875"
         id="rect1117" />
      <rect
         x="5.0272002"
         y="5.2911"
         width="6.8793998"
         height="6.8793998"
         rx="3.4396999"
         ry="3.4396999"
         opacity="0.25"
         id="rect1119" />
      <rect
         x="6.6433001"
         y="6.9053998"
         width="3.6468999"
         height="3.6468999"
         rx="1.8235"
         ry="1.8235"
         opacity="0.25"
         id="rect1121" />
      <rect
         x="6.7835999"
         y="7.0461001"
         width="3.3664"
         height="3.3664"
         rx="1.6832"
         ry="1.6832"
         opacity="0.25"
         id="rect1123" />
      <rect
         x="6.6148"
         y="6.8794999"
         width="3.7044001"
         height="3.7044001"
         rx="1.8521"
         ry="1.8521"
         opacity="0.25"
         id="rect1125" />
    </g>
    <path
       d="m -57.816375,22.4837 c -3.878249,0 -7.000579,3.122178 -7.000579,7.000579 0,3.878401 3.122178,7.000579 7.000579,7.000579 3.878401,0 7.000579,-3.122178 7.000579,-7.000579 0,-3.878401 -3.122178,-7.000579 -7.000579,-7.000579 z m 0,0.214851 c 3.758739,0 6.78552,3.026895 6.78552,6.78552 0,3.758738 -3.026895,6.785519 -6.78552,6.785519 -3.758738,0 -6.785519,-3.026894 -6.785519,-6.785519 0,-3.758739 3.026894,-6.78552 6.785519,-6.78552 z"
       opacity="0.0875"
       stroke-width="0.970488"
       id="path1129" />
    <path
       d="m -60.308266,19.483452 c -0.281706,0 -0.507828,0.226133 -0.507828,0.507827 v 5.504235 l 1.988411,1.935609 -1.988411,1.937613 v 9.608127 c 0,0.281693 0.226134,0.507827 0.507828,0.507827 h 4.984539 c 0.281705,0 0.507827,-0.226134 0.507827,-0.507827 v -5.545055 l -2.000128,-1.947402 2.000128,-1.947402 v -9.545385 c 0,-0.281705 -0.226134,-0.507827 -0.507827,-0.507827 z"
       opacity="0.25"
       stroke-width="0.970488"
       id="path1131" />
    <g
       stroke-width="0.35931"
       id="g1149"
       transform="matrix(3.779602,0,0,3.779602,-89.817887,-3.5116467)">
      <rect
         x="2.6459"
         y="2.7701001"
         width="11.642"
         height="11.642"
         rx="5.8211999"
         ry="5.8211999"
         opacity="0.175"
         id="rect1133" />
      <rect
         x="3.9688001"
         y="4.0918999"
         width="8.9961996"
         height="8.9961996"
         rx="4.4983001"
         ry="4.4983001"
         opacity="0.35"
         id="rect1135" />
      <rect
         x="4.0218"
         y="4.1437001"
         width="8.8902998"
         height="8.8902998"
         rx="4.4453001"
         ry="4.4453001"
         opacity="0.35"
         id="rect1137" />
      <rect
         x="4.0218"
         y="4.1437001"
         width="8.8902998"
         height="8.8902998"
         rx="4.4453001"
         ry="4.4453001"
         opacity="0.1225"
         id="rect1139" />
      <rect
         x="5.0272002"
         y="5.1508002"
         width="6.8793998"
         height="6.8793998"
         rx="3.4396999"
         ry="3.4396999"
         opacity="0.35"
         id="rect1141" />
      <rect
         x="6.6433001"
         y="6.7652001"
         width="3.6468999"
         height="3.6468999"
         rx="1.8235"
         ry="1.8235"
         opacity="0.35"
         id="rect1143" />
      <rect
         x="6.7835999"
         y="6.9059"
         width="3.3664"
         height="3.3664"
         rx="1.6832"
         ry="1.6832"
         opacity="0.35"
         id="rect1145" />
      <rect
         x="6.6148"
         y="6.7392998"
         width="3.7044001"
         height="3.7044001"
         rx="1.8521"
         ry="1.8521"
         opacity="0.35"
         id="rect1147" />
    </g>
    <path
       d="m -57.816375,21.9538 c -3.878249,0 -7.000579,3.122178 -7.000579,7.000579 0,3.8784 3.122178,7.000578 7.000579,7.000578 3.878401,0 7.000579,-3.122178 7.000579,-7.000578 0,-3.878401 -3.122178,-7.000579 -7.000579,-7.000579 z m 0,0.214851 c 3.758739,0 6.78552,3.026894 6.78552,6.78552 0,3.758738 -3.026895,6.785519 -6.78552,6.785519 -3.758738,0 -6.785519,-3.026894 -6.785519,-6.785519 0,-3.758739 3.026894,-6.78552 6.785519,-6.78552 z"
       opacity="0.1225"
       stroke-width="0.970488"
       id="path1151" />
    <path
       d="m -60.308266,18.953552 c -0.281706,0 -0.507828,0.226133 -0.507828,0.507827 v 5.504234 l 1.988411,1.93561 -1.988411,1.937613 v 9.608126 c 0,0.281694 0.226134,0.507828 0.507828,0.507828 h 4.984539 c 0.281705,0 0.507827,-0.226134 0.507827,-0.507828 v -5.545054 l -2.000128,-1.947402 2.000128,-1.947402 v -9.545385 c 0,-0.281705 -0.226134,-0.507827 -0.507827,-0.507827 z"
       opacity="0.35"
       stroke-width="0.970488"
       id="path1153" />
    <g
       stroke-width="0.37026"
       id="g1169"
       transform="matrix(3.779602,0,0,3.779602,-89.817887,-3.5116467)">
      <rect
         x="2.6459"
         y="2.651"
         width="11.642"
         height="11.642"
         rx="5.8211999"
         ry="5.8211999"
         fill="url(#linearGradient987)"
         id="rect1155"
         style="fill:url(#linearGradient1210)" />
      <rect
         x="4.0218"
         y="4.0247002"
         width="8.8902998"
         height="8.8902998"
         rx="4.4453001"
         ry="4.4453001"
         fill="url(#radialGradient4514-5)"
         id="rect1157"
         style="fill:url(#radialGradient1212)" />
      <rect
         x="4.0216999"
         y="4.0247002"
         width="8.8902998"
         height="8.8902998"
         rx="4.4453001"
         ry="4.4453001"
         fill="url(#linearGradient1019-1)"
         opacity="0.35"
         id="rect1159"
         style="fill:url(#linearGradient1214)" />
      <rect
         x="5.0272002"
         y="5.0317998"
         width="6.8793998"
         height="6.8793998"
         rx="3.4396999"
         ry="3.4396999"
         fill="url(#linearGradient1033-0)"
         id="rect1161"
         style="fill:url(#linearGradient1216)" />
      <rect
         x="6.6433001"
         y="6.6461"
         width="3.6468999"
         height="3.6468999"
         rx="1.8235"
         ry="1.8235"
         fill="url(#linearGradient4590-6)"
         id="rect1163"
         style="fill:url(#linearGradient1218)" />
      <rect
         x="6.7835999"
         y="6.7867999"
         width="3.3664"
         height="3.3664"
         rx="1.6832"
         ry="1.6832"
         fill="url(#linearGradient4574-2)"
         id="rect1165"
         style="fill:url(#linearGradient1220)" />
      <rect
         x="6.6148"
         y="6.6202002"
         width="3.7044001"
         height="3.7044001"
         rx="1.8521"
         ry="1.8521"
         fill="#dfdfdf"
         id="rect1167" />
    </g>
    <path
       d="m -57.816375,21.503649 c -3.878249,0 -7.000579,3.122178 -7.000579,7.000579 0,3.878401 3.122178,7.000579 7.000579,7.000579 3.878401,0 7.000579,-3.122178 7.000579,-7.000579 0,-3.878401 -3.122178,-7.000579 -7.000579,-7.000579 z m 0,0.214852 c 3.758739,0 6.78552,3.026894 6.78552,6.785519 0,3.758739 -3.026895,6.78552 -6.78552,6.78552 -3.758738,0 -6.785519,-3.026895 -6.785519,-6.78552 0,-3.758739 3.026894,-6.785519 6.785519,-6.785519 z"
       fill="url(#linearGradient1011-8)"
       opacity="0.35"
       stroke-width="1.00004"
       id="path1171"
       style="fill:url(#linearGradient1222)" />
    <path
       d="m -60.308266,18.503401 c -0.281706,0 -0.507828,0.226134 -0.507828,0.507827 v 5.504235 l 1.988411,1.93561 -1.988411,1.937613 v 9.608126 c 0,0.281694 0.226134,0.507827 0.507828,0.507827 h 4.984539 c 0.281705,0 0.507827,-0.226133 0.507827,-0.507827 v -5.545054 l -2.000128,-1.947402 2.000128,-1.947403 v -9.545384 c 0,-0.281706 -0.226134,-0.507828 -0.507827,-0.507828 h -4.984539 z"
       fill="url(#linearGradient4612-2)"
       stroke-width="1.00004"
       id="path1173"
       style="fill:url(#linearGradient1224)" />
  </g>
</svg>
