<?xml version="1.0" encoding="UTF-8" standalone="no"?>
<svg
   xmlns:dc="http://purl.org/dc/elements/1.1/"
   xmlns:cc="http://creativecommons.org/ns#"
   xmlns:rdf="http://www.w3.org/1999/02/22-rdf-syntax-ns#"
   xmlns:svg="http://www.w3.org/2000/svg"
   xmlns="http://www.w3.org/2000/svg"
   xmlns:xlink="http://www.w3.org/1999/xlink"
   xmlns:sodipodi="http://sodipodi.sourceforge.net/DTD/sodipodi-0.dtd"
   xmlns:inkscape="http://www.inkscape.org/namespaces/inkscape"
   width="64"
   height="64"
   version="1.1"
   id="svg38"
   sodipodi:docname="org.freedesktop.Piper.svg"
   inkscape:version="1.0.1 (3bc2e813f5, 2020-09-07, custom)">
  <metadata
     id="metadata42">
    <rdf:RDF>
      <cc:Work
         rdf:about="">
        <dc:format>image/svg+xml</dc:format>
        <dc:type
           rdf:resource="http://purl.org/dc/dcmitype/StillImage" />
        <dc:title></dc:title>
      </cc:Work>
    </rdf:RDF>
  </metadata>
  <sodipodi:namedview
     pagecolor="#ffffff"
     bordercolor="#666666"
     borderopacity="1"
     objecttolerance="10"
     gridtolerance="10"
     guidetolerance="10"
     inkscape:pageopacity="0"
     inkscape:pageshadow="2"
     inkscape:window-width="1920"
     inkscape:window-height="985"
     id="namedview40"
     showgrid="false"
     inkscape:zoom="4.5906698"
     inkscape:cx="51.462591"
     inkscape:cy="18.003119"
     inkscape:window-x="0"
     inkscape:window-y="0"
     inkscape:window-maximized="1"
     inkscape:current-layer="svg38" />
  <defs
     id="defs16">
    <linearGradient
       inkscape:collect="always"
       id="linearGradient1252">
      <stop
         style="stop-color:#fed44f;stop-opacity:1"
         offset="0"
         id="stop1248" />
      <stop
         style="stop-color:#ffbc4d;stop-opacity:1"
         offset="1"
         id="stop1250" />
    </linearGradient>
    <filter
       id="f"
       x="-.036"
       y="-.036"
       width="1.072"
       height="1.072"
       color-interpolation-filters="sRGB">
      <feGaussianBlur
         stdDeviation="14.343749"
         id="feGaussianBlur2" />
    </filter>
    <linearGradient
       id="a"
       x1="32"
       x2="32"
       y1="4.4929"
       y2="62"
       gradientUnits="userSpaceOnUse"
       gradientTransform="translate(-89.886582)">
      <stop
         stop-color="#efca6b"
         offset="0"
         id="stop5" />
      <stop
         stop-color="#e4c030"
         offset="1"
         id="stop7" />
    </linearGradient>
    <filter
       id="c"
       x="-.075"
       y="-.05"
       width="1.15"
       height="1.1"
       color-interpolation-filters="sRGB">
      <feGaussianBlur
         stdDeviation="0.875"
         id="feGaussianBlur10" />
    </filter>
    <filter
       id="b"
       x="-.06"
       y="-.06"
       width="1.12"
       height="1.12"
       color-interpolation-filters="sRGB">
      <feGaussianBlur
         stdDeviation="0.25"
         id="feGaussianBlur13" />
    </filter>
    <style
       type="text/css"
       id="style869" />
    <filter
       id="filter968"
       x="-.12009"
       y="-.12009"
       width="1.2402"
       height="1.2402"
       color-interpolation-filters="sRGB">
      <feGaussianBlur
         stdDeviation="0.066194553"
         id="feGaussianBlur871" />
    </filter>
    <filter
       id="filter1016"
       x="-.036858"
       y="-.17692"
       width="1.0737"
       height="1.3538"
       color-interpolation-filters="sRGB">
      <feGaussianBlur
         stdDeviation="0.097518237"
         id="feGaussianBlur874" />
    </filter>
    <filter
       id="filter1024"
       x="-.10615"
       y="-.50953"
       width="1.2123"
       height="2.0191"
       color-interpolation-filters="sRGB">
      <feGaussianBlur
         stdDeviation="0.28085546"
         id="feGaussianBlur877" />
    </filter>
    <linearGradient
       id="linearGradient1154"
       x1="-184.76"
       x2="-170.21"
       y1="-15.818"
       y2="-1.2664"
       gradientTransform="matrix(3.7796,0,0,3.7796,772.45764,91.918188)"
       gradientUnits="userSpaceOnUse">
      <stop
         stop-color="#fed54f"
         offset="0"
         id="stop880" />
      <stop
         stop-color="#ffbb4d"
         offset="1"
         id="stop882" />
    </linearGradient>
    <linearGradient
       id="linearGradient1190"
       x1="-38.893"
       x2="-38.893"
       y1="8.9957"
       y2="10.583"
       gradientTransform="matrix(0.96,0,0,0.83333,-12.871,2.9791)"
       gradientUnits="userSpaceOnUse">
      <stop
         stop-color="#c6d4e7"
         offset="0"
         id="stop885" />
      <stop
         stop-color="#d8e5f8"
         offset=".097346"
         id="stop887" />
      <stop
         stop-color="#fff"
         offset=".20734"
         id="stop889" />
      <stop
         stop-color="#f1f4f5"
         offset=".49769"
         id="stop891" />
      <stop
         stop-color="#a1aab0"
         offset=".73738"
         id="stop893" />
      <stop
         stop-color="#a2abb0"
         offset=".78932"
         id="stop895" />
      <stop
         stop-color="#a2a7a2"
         offset=".94113"
         id="stop897" />
      <stop
         stop-color="#d6d1b4"
         offset="1"
         id="stop899" />
    </linearGradient>
    <filter
       id="filter1221"
       x="-.018237"
       y="-.035087"
       width="1.0365"
       height="1.0702"
       color-interpolation-filters="sRGB">
      <feGaussianBlur
         stdDeviation="0.096503745"
         id="feGaussianBlur902" />
    </filter>
    <filter
       id="filter1227"
       x="-.021559"
       y="-.027064"
       width="1.0431"
       height="1.0541"
       color-interpolation-filters="sRGB">
      <feGaussianBlur
         stdDeviation="0.1140825"
         id="feGaussianBlur905" />
    </filter>
    <filter
       id="filter1233"
       x="-.024"
       y="-.024"
       width="1.048"
       height="1.048"
       color-interpolation-filters="sRGB">
      <feGaussianBlur
         stdDeviation="0.1269975"
         id="feGaussianBlur908" />
    </filter>
    <linearGradient
       inkscape:collect="always"
       xlink:href="#linearGradient1252"
       id="linearGradient1254"
       x1="4.3465471"
       y1="4.6249437"
       x2="59.392769"
       y2="59.341003"
       gradientUnits="userSpaceOnUse" />
  </defs>
  <path
     id="rect1243"
     style="fill:url(#linearGradient1254);fill-opacity:1;stroke:none;stroke-width:0.5;stroke-linecap:round;paint-order:stroke fill markers"
     d="M 9.0859375 4.5 C 6.5443636 4.5 4.4980469 6.5463167 4.4980469 9.0878906 L 4.4980469 54.912109 C 4.4980469 57.453683 6.5443636 59.5 9.0859375 59.5 L 54.910156 59.5 C 57.45173 59.5 59.498047 57.453683 59.498047 54.912109 L 59.498047 9.0878906 C 59.498047 6.5463167 57.45173 4.5 54.910156 4.5 L 9.0859375 4.5 z " />
  <circle
     cx="-1308.1"
     cy="-1305.7"
     r="0"
     id="circle913"
     style="fill:#5e4aa6" />
  <circle
     cx="-208.58998"
     cy="-40.191986"
     r="0"
     fill-rule="evenodd"
     id="circle915"
     style="fill:#5e4aa6" />
  <circle
     cx="-1248.7"
     cy="-1241.6"
     r="0"
     id="circle917"
     style="fill:#5e4aa6" />
  <circle
     cx="-1173.2"
     cy="-1243.8"
     r="0"
     id="circle919"
     style="fill:#5e4aa6" />
  <circle
     cx="-73.662987"
     cy="21.658018"
     r="0"
     fill-rule="evenodd"
     id="circle921"
     style="fill:#5e4aa6" />
  <circle
     cx="-1077.585"
     cy="-1226.4412"
     r="0"
     id="circle923"
     style="fill:#5e4aa6;stroke-width:1.00001" />
  <circle
     cx="-1106.1965"
     cy="-1244.6965"
     r="0"
     id="circle925"
     style="fill:#5e4aa6;stroke-width:1.00001" />
  <circle
     cx="-1106.1965"
     cy="-1244.6965"
     r="0"
     id="circle927"
     style="fill:#5e4aa6;stroke-width:1.00001" />
  <circle
     cx="-1037.2566"
     cy="-1236.6461"
     r="0"
     id="circle929"
     style="fill:#5e4aa6;stroke-width:1.00001" />
  <circle
     cx="-1014.2389"
     cy="-1262.423"
     r="0"
     id="circle931"
     style="fill:#5e4aa6;stroke-width:1.00001" />
  <circle
     cx="-1024.8973"
     cy="-1235.7389"
     r="0"
     id="circle933"
     style="fill:#5e4aa6;stroke-width:1.00001" />
  <circle
     cx="-1100.3381"
     cy="-1252.5204"
     r="0"
     id="circle935"
     style="fill:#5e4aa6;stroke-width:1.00001" />
  <circle
     cx="-1308.1"
     cy="-1305.7"
     r="0"
     id="circle939"
     style="fill:#5e4aa6" />
  <circle
     cx="-208.58998"
     cy="-40.191986"
     r="0"
     fill-rule="evenodd"
     id="circle941"
     style="fill:#5e4aa6" />
  <circle
     cx="-1248.7"
     cy="-1241.6"
     r="0"
     fill="#5e4aa6"
     id="circle945" />
  <circle
     cx="-1248.7041"
     cy="-1241.6367"
     r="0"
     fill="#5e4aa6"
     stroke-width="1.00001"
     id="circle947" />
  <circle
     cx="-149.14659"
     cy="23.854698"
     r="0"
     fill="#5e4aa6"
     fill-rule="evenodd"
     stroke-width="1.00001"
     id="circle949" />
  <g
     id="g1177"
     transform="translate(89.886582)">
    <g
       id="g1171"
       transform="translate(-89.886582)">
      <rect
         x="18"
         y="11"
         width="28"
         height="42"
         ry="3"
         filter="url(#c)"
         opacity="0.15"
         style="paint-order:stroke fill markers"
         id="rect1161" />
      <rect
         x="18"
         y="11"
         width="28"
         height="42"
         ry="3"
         fill="#cc8a30"
         style="paint-order:stroke fill markers"
         id="rect1163" />
      <path
         d="m 29,40 c -1.108,0 -2,0.892 -2,2 v 6 c 0,1.108 0.892,2 2,2 h 6 c 1.108,0 2,-0.892 2,-2 v -6 c 0,-1.108 -0.892,-2 -2,-2 z m 5,1 a 1,1 0 0 1 1,1 1,1 0 0 1 -1,1 1,1 0 0 1 -1,-1 1,1 0 0 1 1,-1 z m -3,2 a 2,2 0 0 1 2,2 2,2 0 0 1 -2,2 2,2 0 0 1 -2,-2 2,2 0 0 1 2,-2 z"
         filter="url(#b)"
         opacity="0.15"
         style="paint-order:stroke fill markers"
         id="path1165" />
      <rect
         x="28"
         y="41"
         width="8"
         height="6"
         ry="0"
         fill="#cc8e22"
         style="paint-order:stroke fill markers"
         id="rect1167" />
      <path
         d="m 29,40 c -1.108,0 -2,0.892 -2,2 v 6 c 0,1.108 0.892,2 2,2 h 6 c 1.108,0 2,-0.892 2,-2 v -6 c 0,-1.108 -0.892,-2 -2,-2 z m 5,1 a 1,1 0 0 1 1,1 1,1 0 0 1 -1,1 1,1 0 0 1 -1,-1 1,1 0 0 1 1,-1 z m -3,2 a 2,2 0 0 1 2,2 2,2 0 0 1 -2,2 2,2 0 0 1 -2,-2 2,2 0 0 1 2,-2 z"
         fill="#ffb22b"
         style="paint-order:stroke fill markers"
         id="path1169" />
    </g>
    <path
       d="m -68.886582,14 v 20 h 22 V 14 Z m 2,2 h 18 v 16 h -18 z"
       fill="#ffffff"
       stroke-width="1.8257"
       id="path1173" />
    <path
       d="m -58.886582,14 v 18 h -4 v 5 h 10 v -5 h -4 V 14 Z"
       fill="#cccccc"
       stroke-width="1.7303"
       id="path1175" />
  </g>
</svg>
