<?xml version="1.0" encoding="UTF-8" standalone="no"?>
<svg
   xmlns:dc="http://purl.org/dc/elements/1.1/"
   xmlns:cc="http://creativecommons.org/ns#"
   xmlns:rdf="http://www.w3.org/1999/02/22-rdf-syntax-ns#"
   xmlns:svg="http://www.w3.org/2000/svg"
   xmlns="http://www.w3.org/2000/svg"
   xmlns:xlink="http://www.w3.org/1999/xlink"
   xmlns:sodipodi="http://sodipodi.sourceforge.net/DTD/sodipodi-0.dtd"
   xmlns:inkscape="http://www.inkscape.org/namespaces/inkscape"
   inkscape:version="1.0 (4035a4fb49, 2020-05-01)"
   sodipodi:docname="phpstorm.svg"
   id="svg41"
   viewBox="0 0 16.933 16.933"
   version="1.1"
   height="64"
   width="64">
  <metadata
     id="metadata45">
    <rdf:RDF>
      <cc:Work
         rdf:about="">
        <dc:format>image/svg+xml</dc:format>
        <dc:type
           rdf:resource="http://purl.org/dc/dcmitype/StillImage" />
        <dc:title></dc:title>
      </cc:Work>
    </rdf:RDF>
  </metadata>
  <sodipodi:namedview
     inkscape:current-layer="svg41"
     inkscape:window-maximized="1"
     inkscape:window-y="0"
     inkscape:window-x="0"
     inkscape:cy="18.569554"
     inkscape:cx="12.156637"
     inkscape:zoom="4.5078057"
     showgrid="false"
     id="namedview43"
     inkscape:window-height="985"
     inkscape:window-width="1920"
     inkscape:pageshadow="2"
     inkscape:pageopacity="0"
     guidetolerance="10"
     gridtolerance="10"
     objecttolerance="10"
     borderopacity="1"
     bordercolor="#666666"
     pagecolor="#ffffff" />
  <defs
     id="defs15">
    <filter
       color-interpolation-filters="sRGB"
       height="1.12"
       width="1.12"
       y="-.06"
       x="-.06"
       id="h">
      <feGaussianBlur
         id="feGaussianBlur2"
         stdDeviation="0.85" />
    </filter>
    <linearGradient
       gradientUnits="userSpaceOnUse"
       gradientTransform="matrix(0.26458,0,0,0.26458,-25.221291,0)"
       y2="49"
       y1="15"
       x2="32"
       x1="32"
       id="g">
      <stop
         id="stop5"
         offset="0"
         stop-color="#303030" />
      <stop
         id="stop7"
         offset="1"
         stop-color="#424242" />
    </linearGradient>
    <linearGradient
       gradientUnits="userSpaceOnUse"
       gradientTransform="matrix(0.99996,0,0,0.99996,-25.221253,0.0083453)"
       y2="1.852"
       y1="15.081"
       x2="7.9373"
       x1="7.9373"
       id="linearGradient862-3">
      <stop
         id="stop10"
         offset="0"
         stop-color="#873df0" />
      <stop
         id="stop12"
         offset="1"
         stop-color="#f25ef3" />
    </linearGradient>
    <linearGradient
       gradientTransform="matrix(0.26457812,0,0,0.26457812,1.0578876e-7,1.7516666e-5)"
       inkscape:collect="always"
       xlink:href="#linearGradient995"
       id="linearGradient997"
       x1="2.038218"
       y1="61.669224"
       x2="62.401379"
       y2="2.7041159"
       gradientUnits="userSpaceOnUse" />
    <linearGradient
       inkscape:collect="always"
       id="linearGradient995">
      <stop
         style="stop-color:#873df0;stop-opacity:1"
         offset="0"
         id="stop991" />
      <stop
         style="stop-color:#f25ef3;stop-opacity:1"
         offset="1"
         id="stop993" />
    </linearGradient>
    <linearGradient
       y2="49"
       x2="32"
       y1="15"
       x1="32"
       gradientTransform="matrix(0.26458,0,0,0.26458,-25.221291,0)"
       gradientUnits="userSpaceOnUse"
       id="linearGradient898"
       xlink:href="#g"
       inkscape:collect="always" />
  </defs>
  <path
     id="rect980"
     style="opacity:1;fill:url(#linearGradient997);fill-opacity:1;stroke:none;stroke-width:0.514869;stroke-linecap:round"
     d="m 13.83971,0.49816852 c -0.08053,-0.0063 -0.163068,-0.0046 -0.246492,0.0057 L 1.5600801,1.9864365 c -0.66739799,0.08223 -1.13847899,0.685981 -1.05624499,1.353379 L 1.9864031,15.372953 c 0.08223,0.667398 0.685981,1.138479 1.353379,1.056246 L 15.372919,14.946631 c 0.667398,-0.08223 1.138479,-0.685981 1.056246,-1.353379 L 14.946597,1.5600985 C 14.874643,0.97612552 14.403451,0.54237252 13.83971,0.49816852 Z" />
  <g
     transform="translate(25.221334)"
     id="g896">
    <rect
       id="rect884"
       style="paint-order:stroke fill markers"
       opacity="0.5"
       filter="url(#h)"
       fill-rule="evenodd"
       fill="#303030"
       ry="5"
       height="34"
       width="34"
       y="15.16"
       x="15.16"
       transform="matrix(0.26458,0,0,0.26458,-25.263727,-0.04234)" />
    <rect
       id="rect886"
       style="fill:url(#linearGradient898);paint-order:stroke fill markers"
       stroke-width="0.26458"
       fill-rule="evenodd"
       fill="url(#g)"
       ry="1.3229001"
       height="8.9956999"
       width="8.9956999"
       y="3.9686999"
       x="-21.25259" />
    <path
       id="path888"
       stroke-width="0.26457"
       fill="#f9f9f9"
       d="m -19.929691,11.02 h 3.1059 v 0.62118 h -3.1059 z" />
    <path
       id="path890"
       stroke-width="0.26457"
       fill="#f9f9f9"
       d="m -19.308491,5.4287 v 3.4165 h 0.62118 V 7.6029 h 0.62118 c 0.74772,0 1.2423,-0.30489 1.2423,-1.0713 V 6.515829 c 0,-0.69164 -0.33726,-1.0871 -1.141,-1.0871 z m 4.3561,6.066e-4 c -0.67294,0 -1.2569,0.33795 -1.2569,0.95482 v 0.018806 c 0,0.43285 0.43413,0.81752 1.1071,0.98576 0.56078,0.14954 0.77101,0.28502 0.77101,0.47194 v 0.018806 c 0,0.20562 -0.32209,0.34516 -0.62118,0.34516 -0.37385,0 -0.63268,-0.13976 -0.93176,-0.38277 l -0.40583,0.4398 c 0.39255,0.35516 0.83288,0.54546 1.3375,0.56415 0.71033,0 1.229,-0.44413 1.229,-1.0222 v -0.018806 c 0,-0.51188 -0.40077,-0.72542 -1.0737,-0.91236 -0.56078,-0.14954 -0.77648,-0.25431 -0.77648,-0.47862 v -0.058235 c 0,-0.16823 0.34078,-0.30513 0.62118,-0.30513 0.2804,0 0.49072,0.02004 0.78981,0.22566 l 0.34577,-0.47134 c -0.35323,-0.21339 -0.64958,-0.3755 -1.1356,-0.3755 z m -3.735,0.62057 h 0.62118 c 0.37385,0 0.62118,0.12941 0.62118,0.46589 v 0.015771 c 0,0.2804 -0.24732,0.45011 -0.62118,0.45011 h -0.62118 z" />
  </g>
</svg>
