<?xml version="1.0" encoding="UTF-8" standalone="no"?>
<svg
   xmlns:dc="http://purl.org/dc/elements/1.1/"
   xmlns:cc="http://creativecommons.org/ns#"
   xmlns:rdf="http://www.w3.org/1999/02/22-rdf-syntax-ns#"
   xmlns:svg="http://www.w3.org/2000/svg"
   xmlns="http://www.w3.org/2000/svg"
   xmlns:sodipodi="http://sodipodi.sourceforge.net/DTD/sodipodi-0.dtd"
   xmlns:inkscape="http://www.inkscape.org/namespaces/inkscape"
   width="64"
   height="64"
   version="1.1"
   id="svg28"
   sodipodi:docname="playmymusic.svg"
   inkscape:version="1.0.1 (3bc2e813f5, 2020-09-07, custom)">
  <metadata
     id="metadata32">
    <rdf:RDF>
      <cc:Work
         rdf:about="">
        <dc:format>image/svg+xml</dc:format>
        <dc:type
           rdf:resource="http://purl.org/dc/dcmitype/StillImage" />
        <dc:title></dc:title>
      </cc:Work>
    </rdf:RDF>
  </metadata>
  <sodipodi:namedview
     pagecolor="#ffffff"
     bordercolor="#666666"
     borderopacity="1"
     objecttolerance="10"
     gridtolerance="10"
     guidetolerance="10"
     inkscape:pageopacity="0"
     inkscape:pageshadow="2"
     inkscape:window-width="1920"
     inkscape:window-height="985"
     id="namedview30"
     showgrid="false"
     inkscape:zoom="6.4921875"
     inkscape:cx="32.679571"
     inkscape:cy="27.08062"
     inkscape:window-x="0"
     inkscape:window-y="0"
     inkscape:window-maximized="1"
     inkscape:current-layer="svg28" />
  <defs
     id="defs18">
    <linearGradient
       id="b"
       x1="100"
       x2="100"
       y1="852.36"
       y2="1052.4"
       gradientTransform="matrix(.2518 0 0 .2518 7.0767 -206.2)"
       gradientUnits="userSpaceOnUse">
      <stop
         stop-color="#fff"
         offset="0"
         id="stop2" />
      <stop
         stop-color="#d7d7d7"
         offset="1"
         id="stop4" />
    </linearGradient>
    <filter
       id="d"
       x="-.040073"
       y="-.032678"
       width="1.0801"
       height="1.0654"
       color-interpolation-filters="sRGB">
      <feGaussianBlur
         stdDeviation="6.7721544"
         id="feGaussianBlur7" />
    </filter>
    <filter
       id="c"
       x="-.036"
       y="-.036"
       width="1.072"
       height="1.072"
       color-interpolation-filters="sRGB">
      <feGaussianBlur
         stdDeviation="14.115"
         id="feGaussianBlur10" />
    </filter>
    <linearGradient
       id="a"
       x1="520"
       x2="520.03"
       y1="44"
       y2="985.85"
       gradientTransform="matrix(.06356 0 0 .06356 -.54217 -.54245)"
       gradientUnits="userSpaceOnUse">
      <stop
         stop-color="#15c4fc"
         offset="0"
         id="stop13" />
      <stop
         stop-color="#1863ee"
         offset="1"
         id="stop15" />
    </linearGradient>
    <linearGradient
       id="i"
       x1="400.4"
       x2="400.4"
       y1="545.62"
       y2="517.62"
       gradientTransform="matrix(0.41967,0,0,0.41967,-173.34,-178.23)"
       gradientUnits="userSpaceOnUse">
      <stop
         stop-color="#d3d3d3"
         offset="0"
         id="stop857" />
      <stop
         stop-color="#fcf9f9"
         offset="1"
         id="stop859" />
    </linearGradient>
    <linearGradient
       id="f"
       x1="400.4"
       x2="400.4"
       y1="545.62"
       y2="517.62"
       gradientTransform="matrix(0.43343,0,0,0.43343,-193.09,-179.69)"
       gradientUnits="userSpaceOnUse">
      <stop
         stop-color="#8d3aff"
         offset="0"
         id="stop862" />
      <stop
         stop-color="#ff3680"
         offset="1"
         id="stop864" />
    </linearGradient>
    <linearGradient
       id="k"
       x1="430.56"
       x2="433.31"
       y1="536.57"
       y2="524.17"
       gradientTransform="matrix(0.48338,0,0,0.48338,-200.17,-248.05)"
       gradientUnits="userSpaceOnUse">
      <stop
         stop-color="#c4e7f9"
         offset="0"
         id="stop867" />
      <stop
         stop-color="#edfafd"
         offset="1"
         id="stop869" />
    </linearGradient>
    <filter
       id="filter1877"
       x="-.027479"
       y="-.021303"
       width="1.055"
       height="1.0426"
       color-interpolation-filters="sRGB">
      <feGaussianBlur
         stdDeviation="0.072702461"
         id="feGaussianBlur872" />
    </filter>
    <linearGradient
       id="linearGradient1978"
       x1="-59.235"
       x2="-59.235"
       y1=".7041"
       y2="-11.929"
       gradientTransform="translate(-27.818,0.64364)"
       gradientUnits="userSpaceOnUse">
      <stop
         stop-color="#005ad7"
         offset="0"
         id="stop875" />
      <stop
         stop-color="#0aaff0"
         offset="1"
         id="stop877" />
    </linearGradient>
    <linearGradient
       id="linearGradient1988"
       x1="-59.235"
       x2="-59.235"
       y1=".7041"
       y2="-11.929"
       gradientTransform="matrix(0.83729,0,0,0.83729,-37.435,-0.42228)"
       gradientUnits="userSpaceOnUse">
      <stop
         stop-color="#0273dc"
         offset="0"
         id="stop880" />
      <stop
         stop-color="#0ab9f0"
         offset="1"
         id="stop882" />
    </linearGradient>
  </defs>
  <g
     id="g967"
     transform="matrix(3.779602,0,0,3.779602,4.62398e-4,4.7268797e-4)">
    <g
       transform="translate(-21.834,0.89695)"
       fill="#5e4aa6"
       stroke-width="0.26458"
       id="g897">
      <circle
         cx="-330.35001"
         cy="-328.38"
         r="0"
         id="circle889" />
      <circle
         cx="-312.10999"
         cy="-326.25"
         r="0"
         id="circle891" />
      <circle
         cx="-306.01999"
         cy="-333.07001"
         r="0"
         id="circle893" />
      <circle
         cx="-308.84"
         cy="-326.01001"
         r="0"
         id="circle895" />
    </g>
    <circle
       cx="-5.2346001"
       cy="44.956001"
       r="0"
       fill="url(#i)"
       image-rendering="optimizeSpeed"
       stroke-width="0.26458"
       id="circle899"
       style="fill:url(#i)" />
    <circle
       cx="-19.466"
       cy="50.818001"
       r="0"
       fill="none"
       image-rendering="optimizeSpeed"
       stroke="url(#f)"
       stroke-width="0.56347"
       id="circle901"
       style="stroke:url(#f)" />
    <g
       transform="matrix(1.0909,0,0,1.0909,-0.77042,-0.76985)"
       id="g925">
      <g
         transform="translate(95.347,14.374)"
         id="g915">
        <path
           d="m -79.604,-5.9075 c 0,0.87223 -0.15353,1.7085 -0.43508,2.4836 -0.19571,0.5387 -0.45318,1.048 -0.76442,1.5191 -0.13037,0.19807 -0.27054,0.38935 -0.41933,0.57317 -0.47634,0.5883 -1.0424,1.1006 -1.6779,1.5164 -0.23402,0.15324 -0.47725,0.29342 -0.72907,0.41902 -0.97788,0.48939 -2.0818,0.76468 -3.2501,0.76468 -1.1683,0 -2.2722,-0.27529 -3.2501,-0.7647 -0.25184,-0.12563 -0.49536,-0.2658 -0.72938,-0.41902 -0.64355,-0.42141 -1.2164,-0.94176 -1.6966,-1.5398 -0.14907,-0.18531 -0.28896,-0.37835 -0.41933,-0.5782 -0.30292,-0.46327 -0.55385,-0.96312 -0.74569,-1.4914 -0.28151,-0.77483 -0.43477,-1.6108 -0.43477,-2.4827 0,-4.0184 3.2575,-7.2759 7.2759,-7.2759 2.0171,0 3.8423,0.82084 5.1603,2.1465 0.37982,0.38189 0.7175,0.806 1.0049,1.2645 0.27174,0.43181 0.49891,0.89448 0.67561,1.3812 0.28158,0.77511 0.4351,1.6114 0.4351,2.4836 z"
           fill="url(#linearGradient1978)"
           stroke-width="0.028422"
           id="path903"
           style="fill:url(#linearGradient1978)" />
        <path
           d="m -80.795,-5.9074 c 0,0.73031 -0.12855,1.4305 -0.36429,2.0795 -0.16387,0.45105 -0.37944,0.87748 -0.64004,1.2719 -0.10916,0.16584 -0.22652,0.326 -0.3511,0.47991 -0.39883,0.49258 -0.87279,0.92152 -1.4049,1.2697 -0.19594,0.12831 -0.3996,0.24568 -0.61044,0.35084 -0.81877,0.40976 -1.7431,0.64026 -2.7213,0.64026 -0.9782,0 -1.9025,-0.2305 -2.7213,-0.64027 -0.21086,-0.10519 -0.41476,-0.22255 -0.6107,-0.35084 -0.53884,-0.35284 -1.0185,-0.78852 -1.4205,-1.2893 -0.12481,-0.15516 -0.24194,-0.31679 -0.3511,-0.48412 -0.25363,-0.38789 -0.46373,-0.80641 -0.62436,-1.2487 -0.2357,-0.64876 -0.36403,-1.3487 -0.36403,-2.0787 0,-3.3646 2.7275,-6.092 6.092,-6.092 1.6889,0 3.2171,0.68728 4.3207,1.7972 0.31802,0.31975 0.60076,0.67485 0.84139,1.0588 0.22753,0.36155 0.41773,0.74894 0.56568,1.1565 0.23576,0.64899 0.3643,1.3492 0.3643,2.0795 z"
           fill="url(#linearGradient1988)"
           stroke-width="0.023797"
           id="path905"
           style="fill:url(#linearGradient1988)" />
        <g
           fill="#ffffff"
           id="g913">
          <path
             d="m -92.641,-7.8381 c -0.07807,0.23225 -0.16818,0.45898 -0.21807,0.70279 -0.008,0.039228 -0.0051,0.081938 -0.0124,0.12144 h 11.969 c -0.05203,-0.28317 -0.13089,-0.55618 -0.22065,-0.82422 z"
             opacity="0.25"
             id="path907" />
          <path
             d="m -92.953,-6.17 c -0.0039,0.088964 -0.02635,0.1726 -0.02635,0.26251 0,0.19177 0.03228,0.375 0.04961,0.56223 h 12.085 c 0.01735,-0.1873 0.04909,-0.3704 0.04909,-0.56223 h 5.18e-4 c 0,-0.089572 -0.01942,-0.17388 -0.02325,-0.26251 z"
             opacity="0.25"
             id="path909" />
          <path
             d="m -92.795,-4.502 c 0.05397,0.22716 0.10219,0.45679 0.18087,0.67333 0.01946,0.053588 0.05454,0.098531 0.07544,0.15141 h 11.304 c 0.02088,-0.052803 0.05653,-0.097384 0.07596,-0.15089 0.0787,-0.21667 0.12685,-0.44655 0.18087,-0.67385 z"
             opacity="0.25"
             id="path911" />
        </g>
      </g>
      <path
         transform="matrix(1.0228,0,0,1.0208,68.755,14.825)"
         d="m -60.157,-9.1368 c -0.27072,0.07597 -0.48865,0.37808 -0.48865,0.67158 v 4.6529 c -0.27453,-0.1505 -0.62705,-0.21136 -0.99256,-0.1119 -0.65954,0.17943 -1.0729,0.75934 -0.93147,1.2951 0.14138,0.53575 0.79112,0.83498 1.4507,0.65552 0.52617,-0.14314 0.8889,-0.54821 0.94674,-0.97531 l 0.01541,-4.397 3.4205,-0.95936 v 3.4697 c -0.2745,-0.15051 -0.62705,-0.21137 -0.99256,-0.11194 -0.65954,0.17944 -1.0728,0.75936 -0.93147,1.2951 0.14139,0.53577 0.79112,0.83498 1.4507,0.65554 0.52619,-0.14314 0.8889,-0.54818 0.94674,-0.97531 l 0.01548,-5.7241 c 0,-0.22008 -0.12991,-0.38472 -0.3054,-0.4157 l -3.6038,0.97531 z"
         filter="url(#filter1877)"
         image-rendering="optimizeSpeed"
         opacity="0.35"
         stroke-width="0.26458"
         id="path917" />
      <path
         d="M 7.1683,5.4748 C 6.89758,5.55077 6.67965,5.85288 6.67965,6.14638 v 4.6529 c -0.27453,-0.1505 -0.62705,-0.21136 -0.99256,-0.1119 -0.65954,0.17943 -1.0729,0.75934 -0.93147,1.2951 0.14138,0.53574 0.79112,0.83498 1.4507,0.65552 0.52617,-0.14314 0.8889,-0.54821 0.94674,-0.97531 l 0.01541,-4.397 3.4205,-0.95936 v 3.4697 C 10.31447,9.62552 9.96192,9.56466 9.59641,9.66409 c -0.65954,0.17944 -1.0728,0.75937 -0.93147,1.2951 0.14139,0.53577 0.79112,0.83498 1.4507,0.65554 0.52619,-0.14314 0.8889,-0.54818 0.94674,-0.97531 l 0.01548,-5.7241 c 0,-0.22008 -0.12991,-0.38472 -0.3054,-0.4157 l -3.6038,0.97531 z"
         fill="url(#k)"
         image-rendering="optimizeSpeed"
         stroke-width="0.26458"
         id="path919"
         style="fill:url(#k)" />
      <path
         d="M 7.1683,5.4748 C 6.89758,5.55077 6.67965,5.85288 6.67965,6.14638 v 4.6529 c -0.27453,-0.1505 -0.62705,-0.21136 -0.99256,-0.1119 -0.65954,0.17943 -1.0729,0.75934 -0.93147,1.2951 0.14138,0.53574 0.79112,0.83498 1.4507,0.65552 0.52617,-0.14314 0.8889,-0.54821 0.94674,-0.97531 l 0.01541,-4.397 3.4205,-0.95936 v 3.4697 C 10.31447,9.62552 9.96192,9.56466 9.59641,9.66409 c -0.65954,0.17944 -1.0728,0.75937 -0.93147,1.2951 0.14139,0.53577 0.79112,0.83498 1.4507,0.65554 0.52619,-0.14314 0.8889,-0.54818 0.94674,-0.97531 l 0.01548,-5.7241 c 0,-0.22008 -0.12991,-0.38472 -0.3054,-0.4157 l -3.6038,0.97531 z"
         fill="none"
         image-rendering="optimizeSpeed"
         stroke="#f56e82"
         stroke-width="0.079373"
         id="path921" />
      <path
         d="M 7.1683,5.4748 C 6.89758,5.55077 6.67965,5.85288 6.67965,6.14638 v 4.6529 c -0.27453,-0.1505 -0.62705,-0.21136 -0.99256,-0.1119 -0.65954,0.17943 -1.0729,0.75934 -0.93147,1.2951 0.14138,0.53574 0.79112,0.83498 1.4507,0.65552 0.52617,-0.14314 0.8889,-0.54821 0.94674,-0.97531 l 0.01541,-4.397 3.4205,-0.95936 v 3.4697 C 10.31447,9.62552 9.96192,9.56466 9.59641,9.66409 c -0.65954,0.17944 -1.0728,0.75937 -0.93147,1.2951 0.14139,0.53577 0.79112,0.83498 1.4507,0.65554 0.52619,-0.14314 0.8889,-0.54818 0.94674,-0.97531 l 0.01548,-5.7241 c 0,-0.22008 -0.12991,-0.38472 -0.3054,-0.4157 l -3.6038,0.97531 z"
         fill="none"
         image-rendering="optimizeSpeed"
         stroke="#0ab9f0"
         stroke-width="0.079373"
         id="path923" />
    </g>
  </g>
</svg>
