<?xml version="1.0" encoding="UTF-8"?>
<svg width="64" height="64" version="1.1" viewBox="0 0 16.933 16.933" xmlns="http://www.w3.org/2000/svg" xmlns:cc="http://creativecommons.org/ns#" xmlns:dc="http://purl.org/dc/elements/1.1/" xmlns:rdf="http://www.w3.org/1999/02/22-rdf-syntax-ns#" xmlns:xlink="http://www.w3.org/1999/xlink">
 <metadata>
  <rdf:RDF>
   <cc:Work rdf:about="">
    <dc:format>image/svg+xml</dc:format>
    <dc:type rdf:resource="http://purl.org/dc/dcmitype/StillImage"/>
   </cc:Work>
  </rdf:RDF>
 </metadata>
 <defs>
  <linearGradient id="linearGradient181485">
   <stop stop-color="#542a2e" offset="0"/>
   <stop stop-color="#482a2d" offset=".063817"/>
   <stop stop-color="#341e21" offset=".19594"/>
   <stop stop-color="#664748" offset=".53477"/>
   <stop stop-color="#d2cad1" offset=".66939"/>
   <stop stop-color="#55363a" offset=".95152"/>
   <stop stop-color="#70494f" offset="1"/>
  </linearGradient>
  <style type="text/css"/>
  <radialGradient id="radialGradient1539" cx="33.299" cy="5.9839" r="3.2704" gradientTransform="translate(-24.85 5.0297)" gradientUnits="userSpaceOnUse">
   <stop stop-color="#fff" stop-opacity=".204" offset="0"/>
   <stop stop-color="#fff" stop-opacity=".204" offset=".7"/>
   <stop stop-color="#191919" offset="1"/>
  </radialGradient>
  <linearGradient id="linearGradient2181" x1="32.855" x2="32.855" y1="1.7684" y2="10.314" gradientTransform="rotate(-10.161 40.223 134.85)" gradientUnits="userSpaceOnUse">
   <stop stop-color="#f6ffff" offset="0"/>
   <stop stop-color="#583e3f" offset="1"/>
  </linearGradient>
  <linearGradient id="linearGradient27086" x1="32.855" x2="32.855" y1="1.7684" y2="10.314" gradientTransform="matrix(.96953 -.17377 .17377 .96953 -22.657 9.2135)" gradientUnits="userSpaceOnUse">
   <stop stop-color="#f4fbfb" offset="0"/>
   <stop stop-color="#565050" offset=".49983"/>
   <stop stop-color="#c2b4b2" offset="1"/>
  </linearGradient>
  <linearGradient id="linearGradient59103" x1="31.418" x2="31.418" y1="9.3065" y2="2.6166" gradientTransform="translate(-22.906 4.981)" gradientUnits="userSpaceOnUse">
   <stop stop-color="#f3f7f6" offset="0"/>
   <stop stop-color="#605e5d" offset="1"/>
  </linearGradient>
  <linearGradient id="linearGradient80038" x1="33.014" x2="34.219" y1="10.136" y2="9.4466" gradientTransform="rotate(-10.161 39.453 126.19)" gradientUnits="userSpaceOnUse">
   <stop stop-color="#3c292c" offset="0"/>
   <stop stop-color="#c2bbc2" offset=".1557"/>
   <stop stop-color="#50393c" offset=".42952"/>
   <stop stop-color="#dddee3" offset=".60187"/>
   <stop stop-color="#6a5a5b" offset=".88993"/>
   <stop stop-color="#806e74" offset="1"/>
  </linearGradient>
  <linearGradient id="linearGradient126082" x1="33.173" x2="34.636" y1="10.722" y2="9.847" gradientTransform="rotate(-10.161 39.453 126.19)" gradientUnits="userSpaceOnUse">
   <stop stop-color="#533c3c" offset="0"/>
   <stop stop-color="#c2bac0" offset=".079999"/>
   <stop stop-color="#432c2d" offset=".46848"/>
   <stop stop-color="#cecbd2" offset=".60206"/>
   <stop stop-color="#675556" offset=".91407"/>
   <stop stop-color="#8a7b84" offset="1"/>
  </linearGradient>
  <linearGradient id="linearGradient181487" x1="33.624" x2="35.493" y1="12.027" y2="10.924" gradientTransform="matrix(3.7203 -.66681 .66681 3.7203 -81.808 33.789)" gradientUnits="userSpaceOnUse" xlink:href="#linearGradient181485"/>
  <linearGradient id="linearGradient2163" x1="-177.09" x2="-177.09" y1="-1.3372" y2="-15.638" gradientTransform="translate(186.83 16.907)" gradientUnits="userSpaceOnUse">
   <stop stop-color="#78b4dc" offset="0"/>
   <stop stop-color="#0096f0" offset="1"/>
  </linearGradient>
  <linearGradient id="linearGradient2208" x1="-230.89" x2="-207.22" y1="41.878" y2="41.878" gradientTransform="matrix(.26458 0 0 .26458 63.159 .05697)" gradientUnits="userSpaceOnUse">
   <stop stop-color="#b4dcff" offset="0"/>
   <stop stop-color="#c8faff" offset="1"/>
  </linearGradient>
  <linearGradient id="linearGradient2216" x1="-192.39" x2="-175.89" y1="41.967" y2="34.297" gradientTransform="matrix(.26458 0 0 .26458 63.159 .05697)" gradientUnits="userSpaceOnUse">
   <stop stop-color="#96d9ff" offset="0"/>
   <stop stop-color="#f0fafa" offset="1"/>
  </linearGradient>
  <linearGradient id="linearGradient2230" x1="-235.64" x2="-175.89" y1="49.391" y2="49.391" gradientTransform="matrix(.26458 0 0 .26458 63.159 .05697)" gradientUnits="userSpaceOnUse">
   <stop stop-color="#2d69e6" offset="0"/>
   <stop stop-color="#3791d7" offset=".3497"/>
   <stop stop-color="#2887cd" offset="1"/>
  </linearGradient>
  <filter id="filter1229" x="-.069096" y="-.1071" width="1.1382" height="1.2142" color-interpolation-filters="sRGB">
   <feGaussianBlur stdDeviation="0.1347133"/>
  </filter>
  <filter id="filter1251" x="-.208" y="-.28364" width="1.416" height="1.5673" color-interpolation-filters="sRGB">
   <feGaussianBlur stdDeviation="0.069956252"/>
  </filter>
  <linearGradient id="linearGradient997" x1="-228.54" x2="-228.54" y1="49.422" y2="52.342" gradientTransform="translate(237.02,-44.947)" gradientUnits="userSpaceOnUse">
   <stop stop-color="#fff" offset="0"/>
   <stop stop-color="#fff" stop-opacity="0" offset="1"/>
  </linearGradient>
  <linearGradient id="linearGradient286294" x1="33.624" x2="35.493" y1="12.027" y2="10.924" gradientTransform="rotate(-10.161 41.978 97.796)" gradientUnits="userSpaceOnUse" xlink:href="#linearGradient181485"/>
  <linearGradient id="linearGradient1286" x1="37.459" x2="37.459" y1="4.243" y2="58.996" gradientUnits="userSpaceOnUse">
   <stop stop-color="#f5f5f5" offset="0"/>
   <stop stop-color="#dcdcdc" offset="1"/>
  </linearGradient>
 </defs>
 <rect transform="rotate(-7.0243)" x="-.089936" y="2.14" width="14.552" height="14.552" ry="1.2138" fill="#c8c8c8"/>
 <rect x="2.0689" y="1.0891" width="14.552" height="14.552" ry="1.2138" fill="url(#linearGradient2163)"/>
 <path d="m2.5399 9.9017c-0.15476 0.00254-0.31262 0.024365-0.47025 0.063561v2.4076l6.2636-0.69245s-0.71731-0.37649-1.4707-0.81596c-0.75337-0.43947-1.4798 0.08985-1.6412 0.26923-0.16144 0.17937-0.12559 0.03583-0.37671-0.0987-0.25112-0.13454-0.30527 0.43056-0.53846-0.17931-0.18946-0.49552-0.93514-0.96759-1.7663-0.95393z" fill="url(#linearGradient2208)"/>
 <path d="m16.621 7.0435c-0.41945 0.018065-0.89944 0.23252-1.0283 1.0805 0 0-0.53287 0.27929-0.62166 0.85006 0 0-0.84988 0.037692-1.0909 0.90019 0 0-1.002 0.16501-1.6743 1.3446l4.4151-0.51727z" fill="url(#linearGradient2216)"/>
 <path d="m16.621 10.608-14.552 1.6758v2.1435c0 0.67244 0.54141 1.2139 1.2139 1.2139h12.125c0.67245 0 1.2133-0.54141 1.2133-1.2139z" fill="url(#linearGradient2230)"/>
 <path transform="scale(.26458)" d="m12.408 4.1172c-2.5416 0-4.5879 2.0444-4.5879 4.5859v45.826c0 2.5416 2.0463 4.5879 4.5879 4.5879h45.824c2.5416 0 4.5879-2.0463 4.5879-4.5879v-45.826c0-2.5416-2.0463-4.5859-4.5879-4.5859h-45.824zm2.2832 3.9102h41.256c1.6409 0 2.9629 1.32 2.9629 2.9609v41.256c0 1.6409-1.322 2.9629-2.9629 2.9629h-41.256c-1.6409 0-2.9609-1.322-2.9609-2.9629v-41.256c0-1.6409 1.32-2.9609 2.9609-2.9609z" fill="url(#linearGradient1286)" stroke-width="3.7796"/>
 <g transform="translate(25.037 .05697)" fill="#b9e7f2">
  <path transform="matrix(.80005 .15607 -.15607 .80005 38.674 12.43)" d="m-68.859 3.7133-0.75886 0.017016-0.51314 0.54931-0.25068-0.71646-0.68099-0.31827 0.60392-0.45981 0.09226-0.74602 0.62393 0.43228 0.73801-0.14279-0.21832 0.72697z" opacity=".3"/>
  <path transform="matrix(.33479 .065311 -.065311 .33479 3.485 8.5236)" d="m-68.859 3.7133-0.75886 0.017016-0.51314 0.54931-0.25068-0.71646-0.68099-0.31827 0.60392-0.45981 0.09226-0.74602 0.62393 0.43228 0.73801-0.14279-0.21832 0.72697z" opacity=".3"/>
  <path transform="matrix(.33479 .065311 -.065311 .33479 4.7788 9.4622)" d="m-68.859 3.7133-0.75886 0.017016-0.51314 0.54931-0.25068-0.71646-0.68099-0.31827 0.60392-0.45981 0.09226-0.74602 0.62393 0.43228 0.73801-0.14279-0.21832 0.72697z" opacity=".6"/>
  <path transform="matrix(.18182 .035468 -.035468 .18182 -7.0481 9.4207)" d="m-68.859 3.7133-0.75886 0.017016-0.51314 0.54931-0.25068-0.71646-0.68099-0.31827 0.60392-0.45981 0.09226-0.74602 0.62393 0.43228 0.73801-0.14279-0.21832 0.72697z"/>
 </g>
 <g transform="translate(-19.369)" fill="#5e4aa6" stroke-width=".26458">
  <circle cx="-330.35" cy="-328.38" r="0"/>
  <circle cx="-330.35" cy="-328.37" r="0"/>
  <circle cx="-330.35" cy="-328.37" r="0"/>
  <circle cx="-352.63" cy="-336.83" r="0"/>
 </g>
 <path d="m12.455 12.886 0.40007 0.45215 1.0537-0.90196-0.43174-0.46639z" fill="url(#linearGradient80038)"/>
 <path d="m12.716 13.443 0.33894 0.38186 1.2999-1.107-0.34112-0.39107z" fill="url(#linearGradient126082)"/>
 <path transform="scale(.26458)" d="m53.842 59.117h4.3945c0.079425 0 0.15792-0.00191 0.23633-0.00586 0.078406-0.003949 0.15708-0.009774 0.23438-0.017578s0.15438-0.017733 0.23047-0.029297 0.15178-0.023833 0.22656-0.039062c0.074784-0.01523 0.14732-0.033934 0.2207-0.052735 0.073387-0.0188 0.14685-0.03827 0.21875-0.060547 0.071896-0.022276 0.14258-0.046607 0.21289-0.072265 0.070312-0.025658 0.14035-0.053087 0.20898-0.082032 0.068632-0.028944 0.13627-0.05966 0.20312-0.091796 0.066858-0.032137 0.13228-0.066329 0.19726-0.10156 0.06499-0.035234 0.13033-0.071138 0.19336-0.10938 0.063026-0.038237 0.12458-0.077995 0.18555-0.11914 0.060969-0.041146 0.12087-0.082995 0.17969-0.12695 0.058818-0.043958 0.11726-0.090041 0.17383-0.13672 0.056572-0.046678 0.11178-0.09523 0.16602-0.14453 0.054231-0.049301 0.10641-0.098559 0.1582-0.15039s0.10308-0.10589 0.15234-0.16016c0.049267-0.054266 0.095934-0.10941 0.14258-0.16602s0.092793-0.11498 0.13672-0.17383c0.043926-0.058852 0.08584-0.11868 0.12695-0.17969 0.041113-0.061002 0.080934-0.12249 0.11914-0.18555 0.038207-0.063058 0.076123-0.12639 0.11133-0.19141 0.035206-0.06502 0.0675-0.13233 0.09961-0.19922 0.023168-0.048261 0.044892-0.097293 0.066406-0.14648-1.8117-2.1868-7.2344-8.5977-7.2344-8.5977s-0.39714-0.20424-0.63672 0.003906c-0.23959 0.20818-5.6016 4.7305-5.6016 4.7305s-0.40804 0.40562 0.041015 0.90625c0.30741 0.34272 2.8952 3.4032 4.8359 5.6992z" fill="url(#linearGradient181487)"/>
 <path d="m9.5042 5.1319a4.2857 4.2857 0 0 0-3.4627 4.9744 4.2857 4.2857 0 0 0 4.9749 3.4626 4.2857 4.2857 0 0 0 3.4621-4.9748 4.2857 4.2857 0 0 0-4.9743-3.4622zm0.17905 0.99899a3.2704 3.2704 0 0 1 3.7957 2.6423 3.2704 3.2704 0 0 1-2.6417 3.7961 3.2704 3.2704 0 0 1-3.7962-2.6422 3.2704 3.2704 0 0 1 2.6422-3.7962z" fill="url(#linearGradient2181)"/>
 <path d="m9.5156 5.195a4.2213 4.2213 0 0 0-3.4104 4.8999 4.2213 4.2213 0 0 0 4.8999 3.4104 4.2213 4.2213 0 0 0 3.4099-4.8998 4.2213 4.2213 0 0 0-4.8994-3.4105zm0.16775 0.93591a3.2704 3.2704 0 0 1 3.7957 2.6423 3.2704 3.2704 0 0 1-2.6417 3.7961 3.2704 3.2704 0 0 1-3.7962-2.6422 3.2704 3.2704 0 0 1 2.6422-3.7962z" fill="url(#linearGradient27086)"/>
 <circle transform="rotate(-10.161)" cx="8.4496" cy="11.014" r="3.2704" fill="url(#radialGradient1539)" opacity=".302"/>
 <circle transform="rotate(-10.161)" cx="8.4496" cy="10.951" r="3.3137" fill="none" stroke="url(#linearGradient59103)" stroke-linecap="round" stroke-linejoin="round" stroke-width=".10723"/>
 <ellipse transform="matrix(.99354 0 0 1.1029 1.9041 1.1254)" cx="8.4666" cy="6.4479" rx="2.3396" ry="1.5094" fill="url(#linearGradient997)" filter="url(#filter1229)" opacity=".4"/>
 <ellipse transform="matrix(.99354 0 0 1.1029 1.9041 1.1254)" cx="8.4666" cy="6.4479" rx="2.3396" ry="1.5094" fill="url(#linearGradient997)" filter="url(#filter1229)" opacity=".4"/>
 <ellipse cx="10.316" cy="7.2596" rx=".40359" ry=".29597" fill="#fff" filter="url(#filter1251)" opacity=".7"/>
 <path d="m18.005 13.894s-0.10816 0.10733 0.01065 0.23978c0.11881 0.13246 1.8282 2.1567 1.8282 2.1567s0.4721 0.51314 0.91231 0.47875c0.44021-0.03438 0.85303-0.24218 1.0116-0.63646 0.1586-0.39428 0.09476-0.8455-0.04996-1.0351s-2.0625-2.4563-2.0625-2.4563-0.10495-0.05428-0.16834 7.91e-4c-0.06339 0.05508-1.482 1.2519-1.482 1.2519z" fill="url(#linearGradient286294)"/>
</svg>
