<?xml version="1.0" encoding="UTF-8"?>
<!-- Created with Inkscape (http://www.inkscape.org/) -->
<svg width="64" height="64" version="1.1" viewBox="0 0 16.933 16.933" xmlns="http://www.w3.org/2000/svg" xmlns:xlink="http://www.w3.org/1999/xlink">
 <defs>
  <linearGradient id="linearGradient858" x1="-149.66" x2="-149.66" y1="195.4" y2="197.12" gradientTransform="matrix(.06616 0 0 .06616 19.298 5.8895)" gradientUnits="userSpaceOnUse">
   <stop stop-color="#918a98" offset="0"/>
   <stop stop-color="#656268" offset="1"/>
  </linearGradient>
  <linearGradient id="linearGradient838" x1="-146.65" x2="-146.65" y1="195.59" y2="157.63" gradientTransform="matrix(.06616 0 0 .06616 19.298 5.8895)" gradientUnits="userSpaceOnUse">
   <stop stop-color="#dee2e7" offset="0"/>
   <stop stop-color="#d5d9e1" offset=".187"/>
   <stop stop-color="#afb4b9" offset=".43348"/>
   <stop stop-color="#979da4" offset=".54615"/>
   <stop stop-color="#9398a0" offset=".69404"/>
   <stop stop-color="#818b91" offset=".81846"/>
   <stop stop-color="#6b7177" offset="1"/>
  </linearGradient>
  <linearGradient id="linearGradient886" x1="44.171" x2="44.171" y1="13.358" y2="154.97" gradientTransform="matrix(.06616 0 0 .06616 6.4745 5.8187)" gradientUnits="userSpaceOnUse">
   <stop stop-color="#4d717b" offset="0"/>
   <stop stop-color="#251e3c" offset="1"/>
  </linearGradient>
  <linearGradient id="linearGradient898" x1="37.639" x2="37.639" y1="15.912" y2="150.34" gradientTransform="matrix(.06616 0 0 .06616 6.4745 5.8187)" gradientUnits="userSpaceOnUse">
   <stop stop-color="#c1fff7" offset="0"/>
   <stop stop-color="#88feea" offset=".038424"/>
   <stop stop-color="#2f8ffe" offset="1"/>
  </linearGradient>
  <linearGradient id="linearGradient2356" x1="9.9403" x2="9.9403" y1="10.837" y2="13.468" gradientTransform="matrix(.06616 0 0 .06616 6.4745 5.8187)" gradientUnits="userSpaceOnUse">
   <stop stop-color="#4d717b" offset="0"/>
   <stop stop-color="#251f3d" offset="1"/>
  </linearGradient>
 </defs>
 <g transform="translate(-1.0585 -4.3575)">
  <g stroke-width=".06616">
   <path d="m7.265 17.954c-0.24933 0.3173-0.48936 0.55834-0.48545 0.71182 0.00352 0.13833 0.13351 0.32494 0.27189 0.32494h4.9704c0.13837 0 0.24627-0.19103 0.24979-0.32936 0.0039-0.15345-0.23613-0.39448-0.48545-0.71182z" fill-opacity=".1623" style="paint-order:fill markers stroke"/>
   <path d="m7.265 17.908c-0.24933 0.3173-0.48936 0.55834-0.48545 0.71182 0.00352 0.13833 0.13351 0.32494 0.27189 0.32494h4.9704c0.13837 0 0.24627-0.19103 0.24979-0.32936 0.0039-0.15345-0.23613-0.39448-0.48545-0.71182z" fill="url(#linearGradient858)" style="paint-order:fill markers stroke"/>
   <path d="m7.265 18.039c-0.24933 0.31731-0.48936 0.55834-0.48545 0.71182 0.00352 0.13833 0.13351 0.32494 0.27189 0.32494h4.9704c0.13837 0 0.24627-0.19103 0.24979-0.32936 0.0039-0.15344-0.23613-0.39448-0.48545-0.71182z" fill-opacity=".036649" style="paint-order:fill markers stroke"/>
   <path d="m7.265 17.99c-0.24933 0.3173-0.48936 0.55834-0.48545 0.71182 0.00352 0.13833 0.13351 0.32494 0.27189 0.32494h4.9704c0.13837 0 0.24627-0.19103 0.24979-0.32936 0.0039-0.15345-0.23613-0.39448-0.48545-0.71182z" fill-opacity=".04712" style="paint-order:fill markers stroke"/>
   <path d="m9.4774 16.217-3.37e-5 1e-3 -1.4002 0.012c-0.13837 0.0012-0.26153 0.11191-0.24976 0.24979 0.065281 0.76462-0.25259 1.0175-0.53985 1.3831-0.24933 0.3173-0.48936 0.55834-0.48545 0.71182 0.00352 0.13833 0.11141 0.24979 0.24979 0.24979h4.9704c0.13838 0 0.24627-0.11145 0.24979-0.24979 0.0039-0.15345-0.23613-0.39448-0.48545-0.71182-0.28726-0.36559-0.60513-0.61849-0.53985-1.3831 0.01177-0.13788-0.11138-0.2486-0.24976-0.24979l-1.4002-0.012-3.38e-5 -1e-3 -0.059694 5.29e-4z" fill="url(#linearGradient838)" style="paint-order:fill markers stroke"/>
  </g>
  <g stroke-width=".47143">
   <path d="m4.0486 6.573h10.965c1.0103 0 1.4583 0.48571 1.6001 1.6001l0.83863 6.591c0.1119 0.87941-0.71369 1.6001-1.6001 1.6001h-12.654c-0.88653 0-1.7136-0.72095-1.6001-1.6001l0.85027-6.591c0.14063-1.0902 0.48378-1.6001 1.6001-1.6001z" fill="#7a8693" style="paint-order:fill markers stroke"/>
   <path d="m4.0486 6.573h10.965c1.0103 0 1.4572 0.48586 1.6001 1.6001l0.81364 6.3407c0.10214 0.79601-0.53861 1.6001-1.5752 1.6001h-12.654c-1.3109 0-1.6592-1.1598-1.6001-1.6001l0.85027-6.3407c0.14608-1.0895 0.48378-1.6001 1.6001-1.6001z" fill="url(#linearGradient886)" style="paint-order:fill markers stroke"/>
   <path d="m4.3107 6.8747h10.415c1.1164 0 1.425 0.21386 1.6001 1.6001l0.7252 5.7396c0.14541 1.1509-0.45022 1.6001-1.4867 1.6001h-12.104c-1.3109 0-1.5856-0.73732-1.4764-1.6001l0.72647-5.7396c0.14374-1.1357 0.32466-1.6001 1.6001-1.6001z" fill="url(#linearGradient898)" style="paint-order:fill markers stroke"/>
  </g>
  <path d="m5.6856 8.4959c-0.15615 4e-7 -0.26606 0.12271-0.28199 0.2734l-0.55613 5.2652c-1.4e-6 0.15153 0.12583 0.2734 0.28198 0.2734l8.8451-2.9e-5c0.15616 0 0.29536-0.12246 0.28199-0.2734l-0.46636-5.2652c1e-6 -0.15153-0.12583-0.2734-0.28198-0.2734zm0.12976 1.4621 7.5634-2.08e-5c0.11226-2e-7 0.18909 0.088563 0.20241 0.19669l0.46637 3.7851c-1e-6 0.10894-0.09015 0.19669-0.20241 0.19669l-8.586 2.7e-5c-0.11226 0-0.21866-0.0889-0.20282-0.19669l0.55612-3.7851c9e-7 -0.10894 0.090558-0.19669 0.20282-0.19669z" fill="#fafafa" stroke-width=".16887"/>
  <g stroke-width=".096607">
   <ellipse cx="7.8426" cy="9.2274" rx=".31341" ry=".3134" fill="#fa5050"/>
   <ellipse cx="7.007" cy="9.2274" rx=".31341" ry=".3134" fill="#1e82ff"/>
   <ellipse cx="6.1715" cy="9.2274" rx=".31341" ry=".3134" fill="#5eff54"/>
  </g>
  <path d="m9.3527 10.82c-0.06725-0.0037-0.12107 0.05666-0.11961 0.13897h1.256e-4v2.0078c0 0.06563 0.059733 0.12549 0.12549 0.12549h0.45099l0.33702 0.33713c0.03702 0.03715 0.09841 0.04712 0.1451 0.02365l0.12549-0.06275c0.04116-0.02008 0.06959-0.064 0.07071-0.1098v-0.45099l0.34118-0.34131c0.0458-0.04643 0.0458-0.12992 0-0.17635l-1.3804-1.4431c-0.032157-0.03216-0.065512-0.04709-0.096076-0.04877zm0.00539 0.13738 1.3804 1.4431-0.37648 0.37648v0.50197l-0.12549 0.06275-0.37648-0.37648h-0.50197z" fill="url(#linearGradient2356)" stroke-width=".090582"/>
  <path d="m9.358 12.966v-2.0078l1.3804 1.4431-0.37648 0.37648v0.50197l-0.12549 0.06275-0.37648-0.37648z" fill="#fff" stroke-width=".090582"/>
 </g>
</svg>
