<?xml version="1.0" encoding="UTF-8" standalone="no"?>
<svg
   xmlns:dc="http://purl.org/dc/elements/1.1/"
   xmlns:cc="http://creativecommons.org/ns#"
   xmlns:rdf="http://www.w3.org/1999/02/22-rdf-syntax-ns#"
   xmlns:svg="http://www.w3.org/2000/svg"
   xmlns="http://www.w3.org/2000/svg"
   xmlns:sodipodi="http://sodipodi.sourceforge.net/DTD/sodipodi-0.dtd"
   xmlns:inkscape="http://www.inkscape.org/namespaces/inkscape"
   width="64"
   height="64"
   version="1.1"
   viewBox="0 0 16.933 16.933"
   id="svg8"
   sodipodi:docname="preferences-system-search.svg"
   inkscape:version="1.0.1 (3bc2e813f5, 2020-09-07)">
  <metadata
     id="metadata14">
    <rdf:RDF>
      <cc:Work
         rdf:about="">
        <dc:format>image/svg+xml</dc:format>
        <dc:type
           rdf:resource="http://purl.org/dc/dcmitype/StillImage" />
        <dc:title></dc:title>
      </cc:Work>
    </rdf:RDF>
  </metadata>
  <defs
     id="defs12">
    <style
       type="text/css"
       id="style839" />
    <linearGradient
       id="a-3"
       x1="99.036"
       x2="99.036"
       y1="-.50472"
       y2="199.84"
       gradientTransform="matrix(0.079373,0,0,0.079373,0.52919,0.52915)"
       gradientUnits="userSpaceOnUse">
      <stop
         stop-color="#4bd2f5"
         offset="0"
         id="stop841" />
      <stop
         stop-color="#5587ff"
         offset="1"
         id="stop843" />
    </linearGradient>
  </defs>
  <sodipodi:namedview
     pagecolor="#ffffff"
     bordercolor="#666666"
     borderopacity="1"
     objecttolerance="10"
     gridtolerance="10"
     guidetolerance="10"
     inkscape:pageopacity="0"
     inkscape:pageshadow="2"
     inkscape:window-width="1920"
     inkscape:window-height="942"
     id="namedview10"
     showgrid="false"
     inkscape:zoom="3.0273438"
     inkscape:cx="-1.4212395"
     inkscape:cy="37.089314"
     inkscape:window-x="0"
     inkscape:window-y="38"
     inkscape:window-maximized="1"
     inkscape:current-layer="svg8" />
  <g
     id="g879">
    <circle
       cx="8.4665003"
       cy="8.4665003"
       r="7.9373002"
       color="#000000"
       fill="url(#a-3)"
       stroke-width="0.26458"
       id="circle850"
       style="fill:url(#a-3)" />
    <g
       fill="#5e4aa6"
       stroke-width="0.26458"
       id="g860">
      <circle
         cx="-330.35001"
         cy="-328.38"
         r="0"
         id="circle852" />
      <circle
         cx="-330.35001"
         cy="-328.37"
         r="0"
         id="circle854" />
      <circle
         cx="-330.35001"
         cy="-328.37"
         r="0"
         id="circle856" />
      <circle
         cx="-352.63"
         cy="-336.82999"
         r="0"
         id="circle858" />
    </g>
    <path
       d="m 8.3841,4.6139 a 3.1526,3.1526 0 0 0 -3.1526,3.1526 3.1526,3.1526 0 0 0 3.1526,3.1526 3.1526,3.1526 0 0 0 1.885,-0.6307 l 2.4365,2.4365 0.63671,-0.63671 -2.4365,-2.4365 a 3.1526,3.1526 0 0 0 0.63069,-1.885 3.1526,3.1526 0 0 0 -3.1526,-3.1526 m 0,0.90074 a 2.2518,2.2518 0 0 1 2.2518,2.2518 2.2518,2.2518 0 0 1 -0.01145,0.22518 2.2518,2.2518 0 0 1 -0.36329,1.0151 2.2518,2.2518 0 0 1 -0.63684,0.63684 2.2518,2.2518 0 0 1 -0.17153,0.10204 2.2518,2.2518 0 0 1 -0.021989,0.0132 2.2518,2.2518 0 0 1 -0.00451,0.0018 2.2518,2.2518 0 0 1 -0.19968,0.09236 2.2518,2.2518 0 0 1 -0.19616,0.06861 2.2518,2.2518 0 0 1 -0.016725,0.0062 2.2518,2.2518 0 0 1 -0.00271,9.01e-4 2.2518,2.2518 0 0 1 -0.20495,0.04838 2.2518,2.2518 0 0 1 -0.011445,0.0027 2.2518,2.2518 0 0 1 -0.00181,0 2.2518,2.2518 0 0 1 -0.16537,0.02289 2.2518,2.2518 0 0 1 -0.066853,0.0088 2.2518,2.2518 0 0 1 -0.17681,0.007 2.2518,2.2518 0 0 1 -2.2518,-2.2518 2.2518,2.2518 0 0 1 0.011445,-0.22518 2.2518,2.2518 0 0 1 1.0239,-1.6695 2.2518,2.2518 0 0 1 0.40023,-0.20407 2.2518,2.2518 0 0 1 0.81629,-0.15306"
       fill="#ffffff"
       stroke-width="0.58579"
       id="path862" />
  </g>
</svg>
