<?xml version="1.0" encoding="UTF-8"?>
<svg width="64" height="64" version="1.1" xmlns="http://www.w3.org/2000/svg" xmlns:cc="http://creativecommons.org/ns#" xmlns:dc="http://purl.org/dc/elements/1.1/" xmlns:rdf="http://www.w3.org/1999/02/22-rdf-syntax-ns#">
 <metadata>
  <rdf:RDF>
   <cc:Work rdf:about="">
    <dc:format>image/svg+xml</dc:format>
    <dc:type rdf:resource="http://purl.org/dc/dcmitype/StillImage"/>
   </cc:Work>
  </rdf:RDF>
 </metadata>
 <defs>
  <linearGradient id="b" x1="399.57" x2="399.57" y1="545.8" y2="517.8" gradientTransform="matrix(2.1429 0 0 2.1429 -826.36 -1107.5)" gradientUnits="userSpaceOnUse">
   <stop stop-color="#3889e9" offset="0"/>
   <stop stop-color="#5ea5fb" offset="1"/>
  </linearGradient>
  <linearGradient id="linearGradient1343" x1="32" x2="32" y1="2" y2="62" gradientTransform="translate(54.628 33.142)" gradientUnits="userSpaceOnUse">
   <stop stop-color="#f5f6fa" offset="0"/>
   <stop stop-color="#e9ecf3" offset=".45933"/>
   <stop stop-color="#dee2ee" offset="1"/>
  </linearGradient>
 </defs>
 <circle cx="32.02" cy="32.044" r="0" fill="url(#b)" stroke-width="1.5715"/>
 <g transform="translate(-54.375 -32.329)">
  <circle cx="86.375" cy="64.329" r="30" fill="url(#linearGradient1343)" image-rendering="optimizeSpeed" style="paint-order:stroke markers fill"/>
  <g fill="none" stroke="#65433a" stroke-linecap="round" stroke-linejoin="round" stroke-width="1.0411">
   <circle cx="86.387" cy="64.33" r="10.805"/>
   <circle cx="86.387" cy="64.33" r="15.185"/>
   <circle cx="86.387" cy="64.33" r="19.48"/>
  </g>
  <g fill="#65433a" stroke-width="1.0411">
   <rect x="85.762" y="44.641" width="1.1729" height="9.0336"/>
   <rect x="85.762" y="75.07" width="1.1729" height="9.0336"/>
   <rect transform="rotate(30)" x="106.38" y="-7.158" width="1.1729" height="9.0336"/>
   <rect transform="rotate(30)" x="106.38" y="23.271" width="1.1729" height="9.0336"/>
   <rect transform="rotate(150)" x="-43.179" y="-118.65" width="1.1729" height="9.0336"/>
   <rect transform="rotate(150)" x="-43.179" y="-88.229" width="1.1729" height="9.0336"/>
   <rect transform="rotate(-15)" x="66.155" y="64.796" width="1.1729" height="4.3921"/>
   <rect transform="rotate(-15)" x="66.155" y="99.867" width="1.1729" height="4.3921"/>
   <rect transform="rotate(15)" x="99.479" y="20.099" width="1.1729" height="4.3921"/>
   <rect transform="rotate(15)" x="99.479" y="55.169" width="1.1729" height="4.3921"/>
   <rect transform="rotate(45)" x="105.99" y="-35.269" width="1.1729" height="4.3921"/>
   <rect transform="rotate(45)" x="105.99" y="-.20462" width="1.1729" height="4.3921"/>
   <rect transform="rotate(60)" x="98.339" y="-62.325" width="1.1729" height="4.3921"/>
   <rect transform="rotate(60)" x="98.339" y="-27.25" width="1.1729" height="4.3921"/>
   <rect transform="rotate(75)" x="83.941" y="-86.477" width="1.1729" height="4.3921"/>
   <rect transform="rotate(75)" x="83.941" y="-51.403" width="1.1729" height="4.3921"/>
   <rect transform="rotate(90)" x="63.786" y="-106.08" width="1.1729" height="4.3921"/>
   <rect transform="rotate(90)" x="63.786" y="-71.01" width="1.1729" height="4.3921"/>
   <rect transform="rotate(105)" x="39.244" y="-119.8" width="1.1729" height="4.3921"/>
   <rect transform="rotate(105)" x="39.244" y="-84.727" width="1.1729" height="4.3921"/>
   <rect transform="rotate(120)" x="11.988" y="-126.7" width="1.1729" height="4.3921"/>
   <rect transform="rotate(120)" x="11.988" y="-91.623" width="1.1729" height="4.3921"/>
   <rect transform="rotate(135)" x="-16.123" y="-126.31" width="1.1729" height="4.3921"/>
   <rect transform="rotate(135)" x="-16.123" y="-91.235" width="1.1729" height="4.3921"/>
   <rect transform="rotate(60)" x="98.339" y="-57.807" width="1.1729" height="4.5164"/>
   <rect transform="rotate(60)" x="98.339" y="-31.894" width="1.1729" height="4.5164"/>
   <rect transform="rotate(60)" x="98.339" y="-57.807" width="1.1729" height="4.5164"/>
   <rect transform="rotate(60)" x="98.339" y="-31.894" width="1.1729" height="4.5164"/>
   <rect transform="rotate(90)" x="63.786" y="-101.57" width="1.1729" height="4.5164"/>
   <rect transform="rotate(90)" x="63.786" y="-75.653" width="1.1729" height="4.5164"/>
   <rect transform="rotate(120)" x="11.988" y="-122.18" width="1.1729" height="4.5164"/>
   <rect transform="rotate(120)" x="11.988" y="-96.266" width="1.1729" height="4.5164"/>
  </g>
 </g>
</svg>
