<?xml version="1.0" encoding="UTF-8"?>
<svg width="64" height="64" version="1.1" viewBox="0 0 16.933 16.933" xmlns="http://www.w3.org/2000/svg" xmlns:cc="http://creativecommons.org/ns#" xmlns:dc="http://purl.org/dc/elements/1.1/" xmlns:osb="http://www.openswatchbook.org/uri/2009/osb" xmlns:rdf="http://www.w3.org/1999/02/22-rdf-syntax-ns#" xmlns:xlink="http://www.w3.org/1999/xlink">
 <metadata>
  <rdf:RDF>
   <cc:Work rdf:about="">
    <dc:format>image/svg+xml</dc:format>
    <dc:type rdf:resource="http://purl.org/dc/dcmitype/StillImage"/>
    <dc:title/>
   </cc:Work>
  </rdf:RDF>
 </metadata>
 <defs>
  <linearGradient id="linearGradient908">
   <stop stop-color="#d4d4d4" offset="0"/>
   <stop stop-color="#d3d3d3" offset="1"/>
  </linearGradient>
  <clipPath id="clipPath13429">
   <path d="m481 318h22v22h-22z"/>
  </clipPath>
  <clipPath id="clipPath13465">
   <path d="m507 318h22v22h-22z"/>
  </clipPath>
  <clipPath id="clipPath13501">
   <path d="m530 318h22v22h-22z"/>
  </clipPath>
  <clipPath id="clipPath13753">
   <path d="m672 1064c0-1.105 4.925-2 11-2s11 0.895 11 2-4.925 2-11 2-11-0.895-11-2"/>
  </clipPath>
  <clipPath id="clipPath13771">
   <path d="m660 1057h51v65.001h-51z"/>
  </clipPath>
  <clipPath id="clipPath14035">
   <path d="m659 517h53v18h-53z"/>
  </clipPath>
  <clipPath id="clipPath14127">
   <path d="m659 500h53v18h-53z"/>
  </clipPath>
  <clipPath id="clipPath14445">
   <path d="m648 112h73v60h-73z"/>
  </clipPath>
  <clipPath id="clipPath14609">
   <path d="m826 1056h59v60h-59z"/>
  </clipPath>
  <clipPath id="clipPath15305">
   <path d="m805 276h100v100h-100z"/>
  </clipPath>
  <clipPath id="clipPath15341">
   <path d="m145 1063.8h74.152v45.21h-74.152z"/>
  </clipPath>
  <clipPath id="clipPath15715">
   <path d="m151 667h57v57h-57z"/>
  </clipPath>
  <clipPath id="clipPath15807">
   <path d="m154 697h51v51h-51z"/>
  </clipPath>
  <clipPath id="clipPath16001">
   <path d="m500.04 864.45h36.012v67.52h-36.012z"/>
  </clipPath>
  <clipPath id="clipPath16093">
   <path d="m836 870.54h47v55.539h-47z"/>
  </clipPath>
  <clipPath id="clipPath16477">
   <path d="m318.03 702.35h62.848v37.991h-62.848z"/>
  </clipPath>
  <clipPath id="clipPath16579">
   <path d="m485.03 133.35h62.847v37.991h-62.847z"/>
  </clipPath>
  <clipPath id="clipPath16709">
   <path d="m493.37 677.93h45.643v68.067h-45.643z"/>
  </clipPath>
  <clipPath id="clipPath24218">
   <path d="m144.34 1018.2h71.467v78h-71.467z"/>
  </clipPath>
  <clipPath id="clipPath24382">
   <path d="m293.21 1068.6 66.323-38.292 36.047 62.435-66.323 38.292z"/>
  </clipPath>
  <clipPath id="clipPath24650">
   <path d="m488.86 1054.5h10v10.706h-10z"/>
  </clipPath>
  <clipPath id="clipPath24700">
   <path d="m508 1066.8h10.001v10.705h-10.001z"/>
  </clipPath>
  <clipPath id="clipPath24750">
   <path d="m525 1045.8h10v10.706h-10z"/>
  </clipPath>
  <clipPath id="clipPath24864">
   <path d="m836 1043.7h25.5v31.5h-25.5z"/>
  </clipPath>
  <clipPath id="clipPath24896">
   <path d="m838 1062.2h24v24h-24z"/>
  </clipPath>
  <clipPath id="clipPath25070">
   <path d="m134 489.24h7v6h-7z"/>
  </clipPath>
  <clipPath id="clipPath25100">
   <path d="m216 489.24h7v6h-7z"/>
  </clipPath>
  <clipPath id="clipPath25502">
   <path d="m838 477.24h22v22h-22z"/>
  </clipPath>
  <clipPath id="clipPath25686">
   <path d="m704 1061.2h25v25h-25z"/>
  </clipPath>
  <clipPath id="clipPath25788">
   <path d="m663.04 1078.6-1.808-3.514-21.07-47.453c13.336-18.439 48.336-26.938 73.836-3.439 0.842 0 6.476 6.246 6 7l-18.386 25.895c-0.483 0.765-1.453 0.946-2.177 0.431l-15.505-11.011c-0.359-0.255-0.847-0.153-1.07 0.238l-18.272 31.869c-0.218 0.384-0.502 0.578-0.782 0.578-0.282 0-0.561-0.197-0.766-0.594"/>
  </clipPath>
  <clipPath id="clipPath26420">
   <path d="m127 820.24h100v100h-100z"/>
  </clipPath>
  <clipPath id="clipPath26860">
   <path d="m809 680.24c0-22.092 17.908-40 40-40s40 17.908 40 40c0 22.091-17.908 40-40 40s-40-17.909-40-40"/>
  </clipPath>
  <clipPath id="clipPath27506">
   <path d="m658 469.24h44v45h-44z"/>
  </clipPath>
  <clipPath id="clipPath27772">
   <path d="m651 271.24h58v58h-58z"/>
  </clipPath>
  <clipPath id="clipPath27864">
   <path d="m662 307.24h38v8h-38z"/>
  </clipPath>
  <clipPath id="clipPath28028">
   <path d="m858.98 137.24c0.013-0.101 0.021-0.203 0.021-0.307v-6.693h15.75c1.237 0 2.25-1.013 2.25-2.25v-11.25l-27-4.5-27 4.5v-2.25l27-4.5 27 4.5v-27c0-1.237-1.013-2.25-2.25-2.25h-49.5c-1.237 0-2.25 1.013-2.25 2.25v-4.25h54v54zm-35.979 0v-9.25c0 1.237 1.013 2.25 2.25 2.25h15.75v6.693c0 0.104 7e-3 0.207 0.02 0.307zm22.5-7h9v4.5h-9zm1.125-9c-0.62 0-1.125-0.506-1.125-1.125v-2.25c0-0.619 0.505-1.125 1.125-1.125h6.75c0.619 0 1.125 0.506 1.125 1.125v2.25c0 0.619-0.506 1.125-1.125 1.125z"/>
  </clipPath>
  <clipPath id="clipPath28200">
   <path d="m531.27 136.24c6.325-2.29 10.727-8.277 10.727-15.484 0-11.316-10.2-20.563-25.65-34.575l-4.35-3.941-4.35 3.941c-15.45 14.012-25.65 23.259-25.65 34.575v-39.516h60v55zm-26.983 0c2.995-1.052 5.686-2.883 7.71-5.25 2.024 2.367 4.715 4.198 7.71 5.25zm-22.29 0v-15.484c0 7.207 4.402 13.194 10.727 15.484z"/>
  </clipPath>
  <clipPath id="clipPath28364">
   <path d="m648 79.241h64v64h-64z"/>
  </clipPath>
  <clipPath id="clipPath28984">
   <path d="m500 691.74c0-3.037 2.463-5.5 5.5-5.5s5.5 2.463 5.5 5.5-2.463 5.5-5.5 5.5-5.5-2.463-5.5-5.5"/>
  </clipPath>
  <clipPath id="clipPath29012">
   <path d="m500 669.74c0-3.037 2.463-5.5 5.5-5.5s5.5 2.463 5.5 5.5c0 3.038-2.463 5.5-5.5 5.5s-5.5-2.462-5.5-5.5"/>
  </clipPath>
  <clipPath id="clipPath29040">
   <path d="m494 680.74c0-3.037 2.462-5.5 5.5-5.5s5.5 2.463 5.5 5.5c0 3.038-2.462 5.5-5.5 5.5s-5.5-2.462-5.5-5.5"/>
  </clipPath>
  <clipPath id="clipPath29068">
   <path d="m513 691.74c0-3.037 2.463-5.5 5.5-5.5s5.5 2.463 5.5 5.5-2.463 5.5-5.5 5.5-5.5-2.463-5.5-5.5"/>
  </clipPath>
  <clipPath id="clipPath29096">
   <path d="m513 669.74c0-3.037 2.463-5.5 5.5-5.5s5.5 2.463 5.5 5.5c0 3.038-2.463 5.5-5.5 5.5s-5.5-2.462-5.5-5.5"/>
  </clipPath>
  <clipPath id="clipPath29124">
   <path d="m507 680.74c0-3.037 2.463-5.5 5.5-5.5s5.5 2.463 5.5 5.5c0 3.038-2.463 5.5-5.5 5.5s-5.5-2.462-5.5-5.5"/>
  </clipPath>
  <clipPath id="clipPath29152">
   <path d="m520 680.74c0-3.037 2.463-5.5 5.5-5.5s5.5 2.463 5.5 5.5c0 3.038-2.463 5.5-5.5 5.5s-5.5-2.462-5.5-5.5"/>
  </clipPath>
  <clipPath id="clipPath29252">
   <path d="m321 322.24c-4.97 0-9-4.029-9-9 0-4.97 4.03-9 9-9h45c4.971 0 9 4.03 9 9 0 4.971-4.029 9-9 9z"/>
  </clipPath>
  <clipPath id="clipPath29280">
   <path d="m322 297.24c-4.971 0-9-4.029-9-9 0-4.97 4.029-9 9-9h45c4.971 0 9 4.03 9 9 0 4.971-4.029 9-9 9z"/>
  </clipPath>
  <clipPath id="clipPath29400">
   <path d="m155 83.24h44v53h-44z"/>
  </clipPath>
  <linearGradient id="linearGradient2325" x1="8.5162" x2="8.5162" y1="16.296" y2=".46165" gradientTransform="matrix(0 -.83833 .83833 0 1.3737 15.596)" gradientUnits="userSpaceOnUse">
   <stop stop-color="#d7e1e6" offset="0"/>
   <stop stop-color="#faffff" offset="1"/>
  </linearGradient>
  <radialGradient id="radialGradient2694" cx="60.904" cy="45.024" r="6.6955" gradientTransform="matrix(.51822 0 0 .53141 -23.095 -15.46)" gradientUnits="userSpaceOnUse">
   <stop stop-color="#060806" offset="0"/>
   <stop stop-color="#060806" stop-opacity=".89804" offset=".7"/>
   <stop stop-color="#060806" stop-opacity="0" offset=".97028"/>
   <stop stop-color="#060806" stop-opacity="0" offset="1"/>
  </radialGradient>
  <linearGradient id="linearGradient2696" x1="-175.51" x2="-96.577" y1=".90455" y2=".90455" gradientTransform="matrix(.031444 0 0 .031444 3.8623 7.1984)" gradientUnits="userSpaceOnUse">
   <stop stop-color="#262626" offset="0"/>
   <stop stop-color="#4f4f51" stop-opacity=".99608" offset=".023484"/>
   <stop stop-color="#232326" offset=".05193"/>
   <stop stop-color="#99999b" offset=".18099"/>
   <stop stop-color="#848486" offset=".24556"/>
   <stop stop-color="#37373a" offset=".28352"/>
   <stop stop-color="#303033" offset=".45813"/>
   <stop stop-color="#8c8c8e" offset=".49426"/>
   <stop stop-color="#acacae" offset=".54029"/>
   <stop stop-color="#727274" offset=".59514"/>
   <stop stop-color="#212123" offset=".72393"/>
   <stop stop-color="#a3a3a4" offset=".76575"/>
   <stop stop-color="#7d7d7f" offset=".89494"/>
   <stop stop-color="#4a4a4b" offset=".9321"/>
   <stop stop-color="#737375" offset="1"/>
  </linearGradient>
  <linearGradient id="linearGradient2698" x1="-9.203" x2=".33398" y1="15.718" y2="25.255" gradientTransform="matrix(0 .031444 .031444 0 2.8203 3.0912)" gradientUnits="userSpaceOnUse">
   <stop stop-color="#29292c" offset="0"/>
   <stop stop-color="#29292c" stop-opacity="0" offset="1"/>
  </linearGradient>
  <linearGradient id="linearGradient2700" x1="202.31" x2="218.72" y1="326.96" y2="310.56" gradientUnits="userSpaceOnUse">
   <stop stop-color="#88898a" stop-opacity=".48083" offset="0"/>
   <stop stop-color="#c8c8c9" stop-opacity=".66275" offset=".025279"/>
   <stop stop-color="#969698" stop-opacity=".83529" offset=".049003"/>
   <stop stop-color="#9d9d9f" offset=".16334"/>
   <stop stop-color="#b6b6b7" offset=".20346"/>
   <stop stop-color="#c8c8c9" offset=".40682"/>
   <stop stop-color="#bec1c7" offset=".48806"/>
   <stop stop-color="#d6d8df" offset=".8067"/>
   <stop stop-color="#fafbfc" offset=".87424"/>
   <stop stop-color="#787878" stop-opacity=".32549" offset="1"/>
  </linearGradient>
  <linearGradient id="linearGradient2702" x1="296.64" x2="255.43" y1="407.9" y2="352.77" gradientUnits="userSpaceOnUse" xlink:href="#linearGradient908"/>
  <linearGradient id="linearGradient2706" x1="868.27" x2="917.14" y1="325.57" y2="372.18" gradientTransform="matrix(.031444 0 0 .031444 -23.04 .44974)" gradientUnits="userSpaceOnUse">
   <stop stop-color="#aeaeaf" offset="0"/>
   <stop stop-color="#b9b9bb" offset=".7745"/>
   <stop stop-color="#d0d0d1" offset=".82772"/>
   <stop stop-color="#d5d5d6" offset="1"/>
  </linearGradient>
  <linearGradient id="linearGradient2708" x1="836.05" x2="899.16" y1="412.51" y2="357.08" gradientTransform="matrix(.031444 0 0 .031444 -23.04 .44974)" gradientUnits="userSpaceOnUse">
   <stop stop-color="#ddd" offset="0"/>
   <stop stop-color="#ddd" stop-opacity="0" offset="1"/>
  </linearGradient>
  <linearGradient id="linearGradient2710" x1="982.01" x2="1099" y1="159.5" y2="276.5" gradientTransform="matrix(.031444 0 0 .031444 -23.04 .44974)" gradientUnits="userSpaceOnUse">
   <stop stop-color="#e9e9ea" offset="0"/>
   <stop stop-color="#cfcfd1" offset=".17622"/>
   <stop stop-color="#b3b4b9" offset=".3217"/>
   <stop stop-color="#a7a9ae" offset=".5"/>
   <stop stop-color="#bdbfc1" offset=".51435"/>
   <stop stop-color="#ececed" offset=".75"/>
   <stop stop-color="#fafafa" offset="1"/>
  </linearGradient>
  <linearGradient id="linearGradient2712" x1="919.45" x2="1003" y1="22.262" y2="132.86" gradientTransform="matrix(.031444 0 0 .031444 -17.077 1.4029)" gradientUnits="userSpaceOnUse">
   <stop stop-color="#383839" offset="0"/>
   <stop stop-color="#9fa0a2" offset=".125"/>
   <stop stop-color="#dbdbdf" offset=".25"/>
   <stop stop-color="#6f727a" stop-opacity=".96078" offset=".5"/>
   <stop stop-color="#bdbdbf" offset=".75"/>
   <stop stop-color="#070707" stop-opacity=".12157" offset=".875"/>
   <stop stop-color="#eee" offset="1"/>
  </linearGradient>
  <linearGradient id="linearGradient2714" x1="828.69" x2="872.75" y1="309.02" y2="355.63" gradientTransform="matrix(.031444 0 0 .031444 -23.04 .44974)" gradientUnits="userSpaceOnUse">
   <stop stop-color="#404040" offset="0"/>
   <stop stop-color="#404040" stop-opacity="0" offset="1"/>
  </linearGradient>
  <linearGradient id="linearGradient2879" x1="8.5162" x2="8.5162" y1="16.296" y2=".46165" gradientTransform="matrix(0 -.4 .4 0 5.0828 11.867)" gradientUnits="userSpaceOnUse" xlink:href="#linearGradient2325"/>
 </defs>
 <g transform="translate(0 9.9258)">
  <path d="m-0.053863 15.686h42.007" color="#000000" fill="none" stroke-width=".5"/>
 </g>
 <g transform="matrix(1 0 0 1 -21.836 .89609)" fill="#5e4aa6" stroke-width=".26458">
  <circle cx="-330.35" cy="-328.38" r="0"/>
  <circle cx="-312.11" cy="-326.25" r="0"/>
  <circle cx="-306.02" cy="-333.07" r="0"/>
  <circle cx="-308.84" cy="-326.01" r="0"/>
 </g>
 <g transform="matrix(1 0 0 1 53.926 9.4009)" fill="#5e4aa6" stroke-width=".26458">
  <g transform="translate(-21.833 .89722)">
   <circle cx="-330.35" cy="-328.38" r="0"/>
   <circle cx="-312.11" cy="-326.25" r="0"/>
   <circle cx="-306.02" cy="-333.07" r="0"/>
   <circle cx="-308.84" cy="-326.01" r="0"/>
  </g>
  <circle cx="-284.23" cy="-330.42" r="0"/>
  <circle cx="6.6786" cy="4.3998" r="0" fill-rule="evenodd"/>
 </g>
 <g transform="matrix(.35278 0 0 -.35278 252.67 252.3)">
  <g clip-path="url(#clipPath13429)">
   <g transform="translate(448,326)">
    <path d="m0 0c3.866 0 7 3.134 7 7s-3.134 7-7 7-7-3.134-7-7 3.134-7 7-7" fill="#fff" fill-rule="evenodd"/>
   </g>
  </g>
 </g>
 <g transform="matrix(.35278 0 0 -.35278 252.67 252.3)">
  <g clip-path="url(#clipPath13465)">
   <g transform="translate(474,326)">
    <path d="m0 0c3.866 0 7 3.134 7 7s-3.134 7-7 7-7-3.134-7-7 3.134-7 7-7" fill="#fff" fill-rule="evenodd"/>
   </g>
  </g>
 </g>
 <g transform="matrix(.35278 0 0 -.35278 252.67 252.3)">
  <g clip-path="url(#clipPath13501)">
   <g transform="translate(497,326)">
    <path d="m0 0c3.866 0 7 3.134 7 7s-3.134 7-7 7-7-3.134-7-7 3.134-7 7-7" fill="#fff" fill-rule="evenodd"/>
   </g>
  </g>
 </g>
 <g transform="matrix(.35278 0 0 -.35278 252.67 252.3)">
  <g clip-path="url(#clipPath13753)">
   <path d="m593 1073h36v-18h-36zm18-11c6.075 0 11 0.895 11 2s-4.925 2-11 2-11-0.895-11-2 4.925-2 11-2" fill="#fff" fill-rule="evenodd"/>
  </g>
 </g>
 <g transform="matrix(.35278 0 0 -.35278 252.67 252.3)">
  <g clip-path="url(#clipPath13771)">
   <g transform="translate(583.42,1063)">
    <path d="m0 0s21.582 23.182 21.582 35.147c0 12.048-9.684 21.853-21.582 21.853-11.816 0-21.418-9.805-21.418-21.853 0-8.06 9.766-21.188 16.002-28.832zm0 42.542c3.938 0 7.14-3.323 7.14-7.395 0-3.822-3.202-7.146-7.14-7.146-3.856 0-7.222 3.324-7.222 7.146 0 4.072 3.366 7.395 7.222 7.395" fill="#fff"/>
   </g>
  </g>
 </g>
 <g transform="matrix(.35278 0 0 -.35278 252.67 252.3)">
  <g clip-path="url(#clipPath14035)">
   <g transform="translate(562,535)">
    <path d="m0 0h35c2.762 0 5-2.238 5-5s-2.238-5-5-5h-35c-2.762 0-5 2.238-5 5s2.238 5 5 5" fill="#fff" fill-rule="evenodd"/>
   </g>
  </g>
 </g>
 <g transform="matrix(.35278 0 0 -.35278 252.67 252.3)">
  <g clip-path="url(#clipPath14127)">
   <g transform="translate(562,518)">
    <path d="m0 0h35c2.762 0 5-2.238 5-5s-2.238-5-5-5h-35c-2.762 0-5 2.238-5 5s2.238 5 5 5" fill="#fff" fill-rule="evenodd"/>
   </g>
  </g>
 </g>
 <g transform="matrix(.35278 0 0 -.35278 252.67 252.3)">
  <g clip-path="url(#clipPath14445)">
   <g transform="translate(536.43,133.83)">
    <path d="m0 0c-10.01-12.916-22.288-9.047-24.23-8.072-4.847 1.293-6.464 10.015-0.326 12.918 10.018 3.226 19.06-0.325 25.524-3.553-0.644-0.967-0.968-1.293-0.968-1.293m10.667 3.553c4.521 8.072 6.139 15.826 6.139 15.826h-15.189v5.812h17.767v2.26h-17.767v8.723h-8.074v-8.723h-16.156v-2.584h16.156v-5.812h-13.57v-2.585h27.783c0-0.325 0-0.325-0.324-0.968 0-2.909-1.936-6.779-3.554-10.014-20.677 8.079-26.491 3.235-28.108 2.584-13.564-9.689-0.968-21.963 1.293-21.638 14.538-3.227 23.905 2.91 30.369 10.657 0.324-0.325 0.967-0.325 1.292-0.325 4.528-2.578 25.848-12.592 25.848-12.592v12.274c-3.878 0.325-15.506 4.195-23.905 7.105" fill="#fff"/>
   </g>
  </g>
 </g>
 <g transform="matrix(.35278 0 0 -.35278 252.67 252.3)">
  <g clip-path="url(#clipPath14609)">
   <g transform="translate(720.03,1091.5)">
    <path d="m0 0c-0.149 0.354-0.224 0.837-0.224 1.451 0 0.372 0.103 0.828 0.306 1.368 0.205 0.539 0.428 0.958 0.671 1.256-0.019 0.409 0.051 0.902 0.209 1.478 0.159 0.576 0.368 0.976 0.629 1.2 0 2.586 0.86 5.269 2.581 8.05 1.722 2.782 3.744 4.73 6.07 5.846 2.585 1.228 5.6 1.842 9.041 1.842 2.475 0 4.949-0.511 7.423-1.534 0.912-0.391 1.749-0.837 2.512-1.34 0.762-0.502 1.423-1.022 1.981-1.562 0.559-0.54 1.07-1.172 1.534-1.897 0.465-0.725 0.856-1.413 1.172-2.064 0.318-0.651 0.619-1.437 0.908-2.358 0.287-0.921 0.524-1.753 0.71-2.497s0.391-1.655 0.614-2.734l0.028-0.14c1.023-1.543 1.535-2.939 1.535-4.186 0-0.26-0.084-0.632-0.252-1.115-0.168-0.484-0.252-0.837-0.252-1.061 0-0.019 0.015-0.052 0.043-0.099s0.061-0.093 0.098-0.139c0.038-0.046 0.057-0.077 0.057-0.098 1.432-2.121 2.553-4.116 3.363-5.985 0.809-1.869 1.214-3.808 1.214-5.817 0-0.8-0.182-1.73-0.544-2.791-0.363-1.06-0.879-1.59-1.549-1.59-0.167 0-0.349 0.069-0.544 0.209-0.194 0.14-0.371 0.303-0.529 0.489-0.159 0.186-0.335 0.428-0.53 0.725s-0.344 0.543-0.447 0.739-0.228 0.438-0.377 0.725c-0.147 0.288-0.231 0.451-0.251 0.489-0.019 0.019-0.047 0.028-0.085 0.028l-0.138-0.111c-1.099-2.864-2.327-4.938-3.684-6.222 0.372-0.372 0.944-0.73 1.716-1.075s1.414-0.73 1.925-1.158c0.511-0.426 0.841-1.031 0.991-1.814-0.037-0.074-0.074-0.223-0.112-0.447-0.036-0.224-0.101-0.391-0.195-0.501-1.19-1.804-4-2.706-8.427-2.706-0.986 0-2.013 0.084-3.084 0.251-1.069 0.168-1.981 0.354-2.734 0.558s-1.726 0.483-2.916 0.837c-0.279 0.093-0.493 0.158-0.643 0.196-0.259 0.075-0.687 0.115-1.282 0.125-0.595 9e-3 -0.967 0.023-1.116 0.042-0.763-0.838-1.949-1.442-3.559-1.814-1.609-0.372-3.176-0.558-4.702-0.558-0.65 0-1.293 0.014-1.925 0.042s-1.498 0.113-2.595 0.252c-1.098 0.139-2.038 0.33-2.82 0.572-0.781 0.241-1.473 0.613-2.078 1.115-0.604 0.502-0.906 1.098-0.906 1.786 0 0.744 0.093 1.298 0.279 1.661 0.187 0.364 0.569 0.815 1.144 1.353 0.205 0.038 0.581 0.159 1.131 0.363 0.549 0.204 1.009 0.316 1.381 0.334 0.074 0 0.204 0.019 0.39 0.057 0.038 0.037 0.057 0.074 0.057 0.111l-0.057 0.084c-0.892 0.204-1.897 1.185-3.014 2.944-1.117 1.758-1.796 3.214-2.038 4.367l-0.139 0.084c-0.074 0-0.186-0.185-0.334-0.557-0.335-0.763-0.842-1.455-1.521-2.079-0.679-0.622-1.4-0.971-2.163-1.046h-0.028c-0.073 0-0.129 0.041-0.167 0.125-0.037 0.083-0.084 0.134-0.139 0.153-0.428 1.004-0.642 1.934-0.642 2.79 0 5.116 2.343 9.45 7.032 13.002z" fill="#fff"/>
   </g>
  </g>
 </g>
 <g transform="matrix(.35278 0 0 -.35278 252.67 252.3)">
  <g clip-path="url(#clipPath15305)">
   <g transform="translate(655,300)">
    <path d="m0 0c16.568 0 30 13.432 30 30s-13.432 30-30 30-30-13.432-30-30 13.432-30 30-30z" fill="none" stroke="#fff" stroke-miterlimit="10" stroke-width="8"/>
   </g>
  </g>
 </g>
 <g transform="matrix(.35278 0 0 -.35278 252.67 252.3)">
  <g clip-path="url(#clipPath15341)">
   <g transform="translate(66.849,1083.1)">
    <path d="m0 0c0 5.302-3.661 9.749-8.591 10.948-0.209 8.314-7.006 14.991-15.366 14.991-4.897 0-9.254-2.293-12.07-5.861-1.579 2.041-4.05 3.358-6.828 3.358-4.769 0-8.633-3.868-8.633-8.639 0-0.416 0.031-0.825 0.089-1.224-0.726 0.13-1.47 0.203-2.232 0.203-6.913 0-12.515-5.607-12.515-12.524 0-6.916 5.602-12.523 12.515-12.523h42.394c6.21 0.013 11.241 5.053 11.241 11.269z" fill="#fff"/>
   </g>
  </g>
 </g>
 <g transform="matrix(.35278 0 0 -.35278 252.67 252.3)">
  <g clip-path="url(#clipPath15715)">
   <g transform="translate(65.5,681)">
    <path d="m0 0c9.113 0 16.5 7.387 16.5 16.5s-7.387 16.5-16.5 16.5-16.5-7.387-16.5-16.5 7.387-16.5 16.5-16.5z" fill="none" stroke="#fff" stroke-miterlimit="10" stroke-width="4"/>
   </g>
  </g>
 </g>
 <g transform="matrix(.35278 0 0 -.35278 252.67 252.3)">
  <g clip-path="url(#clipPath15807)">
   <g transform="translate(77.5,711)">
    <path d="m0 0c7.456 0 13.5 6.044 13.5 13.5s-6.044 13.5-13.5 13.5-13.5-6.044-13.5-13.5 6.044-13.5 13.5-13.5z" fill="none" stroke="#fff" stroke-miterlimit="10" stroke-width="4"/>
   </g>
  </g>
 </g>
 <g transform="matrix(.35278 0 0 -.35278 252.67 252.3)">
  <g clip-path="url(#clipPath16001)">
   <g transform="translate(455.91,931.53)">
    <path d="m0 0c-0.742-1.039-4.75-2.821-8.165-3.563-4.305-0.891-6.531-1.633-8.758-2.82-2.969-1.782-4.601-4.009-4.305-6.087 0.149-0.445 3.711-5.64 7.868-11.578 4.304-5.938 7.868-10.985 8.016-11.134 0.149-0.297-0.445-0.297-2.524-0.148-6.531 0.445-12.469-2.969-15.142-8.314-0.742-1.632-0.89-2.523-0.89-4.453 0-4.453 2.376-8.016 6.829-10.094 1.781-0.742 2.375-0.891 6.086-0.891 4.007 0 4.156 0 6.829 1.336 7.125 3.414 10.093 10.095 7.125 16.181-0.594 1.336-4.305 7.719-8.313 14.251l-7.274 12.024h1.187c4.75 0.297 8.017 1.781 10.244 4.305 1.929 2.227 2.523 4.453 2.374 8.016-0.148 3.266-0.445 4.008-1.187 2.969" fill="#fff"/>
   </g>
  </g>
 </g>
 <g transform="matrix(.35278 0 0 -.35278 252.67 252.3)">
  <g clip-path="url(#clipPath16093)">
   <g transform="translate(784,902.31)">
    <path d="m0 0c0-1.565-0.904-2.931-2.251-3.674l-27.781-18.472c-0.012-8e-3 -0.026-0.014-0.037-0.02l-0.017-0.011c-0.684-0.376-1.48-0.592-2.331-0.592-2.53 0-4.583 1.913-4.583 4.269v37c0 2.356 2.053 4.27 4.583 4.27 0.851 0 1.647-0.217 2.331-0.596l0.017-8e-3c0.011-9e-3 0.022-0.014 0.037-0.02l27.781-18.471c1.347-0.743 2.251-2.11 2.251-3.675" fill="#fff"/>
   </g>
  </g>
 </g>
 <g transform="matrix(.35278 0 0 -.35278 252.67 252.3)">
  <g clip-path="url(#clipPath16477)">
   <g transform="translate(223.75,708.35)">
    <path d="m0 0c-15.123 0-27.418 12.329-27.418 27.486 0 1.382 1.111 2.505 2.487 2.505 1.379 0 2.499-1.123 2.499-2.505 0-12.4 10.06-22.487 22.432-22.487 12.375 0 22.443 10.087 22.443 22.487 0 1.382 1.112 2.505 2.488 2.505 1.378 0 2.499-1.123 2.499-2.505 0-15.157-12.304-27.486-27.43-27.486" fill="#fff" fill-rule="evenodd"/>
   </g>
  </g>
 </g>
 <g transform="matrix(.35278 0 0 -.35278 252.67 252.3)">
  <g clip-path="url(#clipPath16579)">
   <g transform="translate(390.75,139.35)">
    <path d="m0 0c-15.123 0-27.418 12.329-27.418 27.485 0 1.383 1.111 2.506 2.487 2.506 1.379 0 2.499-1.123 2.499-2.506 0-12.398 10.06-22.486 22.432-22.486 12.375 0 22.443 10.088 22.443 22.486 0 1.383 1.112 2.506 2.488 2.506 1.378 0 2.499-1.123 2.499-2.506 0-15.156-12.304-27.485-27.43-27.485" fill="#fff" fill-rule="evenodd"/>
   </g>
  </g>
 </g>
 <g transform="matrix(.35278 0 0 -.35278 252.67 252.3)">
  <g clip-path="url(#clipPath16709)">
   <g transform="translate(423.93,686.39)">
    <path d="m0 0c0.245-0.286 0.605-0.456 0.986-0.456 0.382 0 0.743 0.17 0.988 0.456l17.516 20.497c0.333 0.388 0.408 0.933 0.191 1.388-0.211 0.463-0.674 0.756-1.184 0.756h-9.93c-2.118 4.172-3.109 8.382-2.973 12.63 0.135 4.248 1.954 12.361 5.455 24.34-10.956-6.59-17.656-18.44-17.656-31.225v-5.745h-9.93c-0.51 0-0.966-0.293-1.184-0.756-0.211-0.462-0.135-1 0.191-1.388z" fill="#fff"/>
   </g>
  </g>
 </g>
 <g transform="matrix(.35278 0 0 -.35278 217.5 293.51)">
  <g clip-path="url(#clipPath24218)">
   <g transform="translate(9.1685,1040.9)">
    <path d="m0 0 25.314 21.067-26.077 18.651c5.846 7.671 15.079 12.622 25.468 12.622 17.673 0 32-14.327 32-32s-14.327-32-32-32c-9.948 0-18.836 4.539-24.705 11.66m27.349 31.812c2.835 0 5.132 2.297 5.132 5.132 0 2.834-2.297 5.132-5.132 5.132-2.834 0-5.132-2.298-5.132-5.132 0-2.835 2.298-5.132 5.132-5.132" fill="#fff" fill-rule="evenodd"/>
   </g>
  </g>
 </g>
 <g transform="matrix(.35278 0 0 -.35278 217.5 293.51)">
  <g clip-path="url(#clipPath24382)">
   <g transform="translate(194.25,1130.3)">
    <path d="m0 0c20.173-11.579 43.841 2 51.309 14.862 7.467 12.861 5.032 31.138-10.468 37.638s-45.487 6.611-54.5-9-6.515-31.922 13.659-43.5" fill="#fff" fill-rule="evenodd"/>
   </g>
  </g>
 </g>
 <g transform="matrix(.35278 0 0 -.35278 217.5 293.51)">
  <g clip-path="url(#clipPath24650)">
   <g transform="translate(473.86,1057.5)">
    <path d="m0 0c1.657 0 3 1.501 3 3.353s-1.343 3.353-3 3.353c-1.656 0-3-1.501-3-3.353s1.344-3.353 3-3.353" fill="#fff" fill-rule="evenodd"/>
   </g>
  </g>
 </g>
 <g transform="matrix(.35278 0 0 -.35278 217.5 293.51)">
  <g clip-path="url(#clipPath24700)">
   <g transform="translate(493,1069.8)">
    <path d="m0 0c1.657 0 3 1.501 3 3.353s-1.343 3.353-3 3.353-3-1.501-3-3.353 1.343-3.353 3-3.353" fill="#fff" fill-rule="evenodd"/>
   </g>
  </g>
 </g>
 <g transform="matrix(.35278 0 0 -.35278 217.5 293.51)">
  <g clip-path="url(#clipPath24750)">
   <g transform="translate(510,1048.8)">
    <path d="m0 0c1.657 0 3 1.501 3 3.353s-1.343 3.353-3 3.353-3-1.501-3-3.353 1.343-3.353 3-3.353" fill="#fff" fill-rule="evenodd"/>
   </g>
  </g>
 </g>
 <g transform="matrix(.35278 0 0 -.35278 217.5 293.51)">
  <g clip-path="url(#clipPath24864)">
   <g transform="translate(806.5,1072.2)">
    <path d="m0 0c-3.667-14-9.5-21.833-17.5-23.5" fill="none" stroke="#fff" stroke-linecap="round" stroke-miterlimit="10"/>
   </g>
  </g>
 </g>
 <g transform="matrix(.35278 0 0 -.35278 217.5 293.51)">
  <g clip-path="url(#clipPath24896)">
   <g transform="translate(802,1066.2)">
    <path d="m0 0c-4.971 0-9 4.029-9 9s4.029 9 9 9 9-4.029 9-9-4.029-9-9-9m0 6c1.657 0 3 1.343 3 3s-1.343 3-3 3-3-1.343-3-3 1.343-3 3-3" fill="#fff" fill-rule="evenodd"/>
   </g>
  </g>
 </g>
 <g transform="matrix(.35278 0 0 -.35278 217.5 293.51)">
  <g clip-path="url(#clipPath25070)">
   <g transform="translate(122,495.24)">
    <path d="m0 0h3c0.553 0 1-0.447 1-1v-2c0-0.553-0.447-1-1-1h-3c-0.553 0-1 0.447-1 1v2c0 0.553 0.447 1 1 1" fill="#fff" fill-rule="evenodd"/>
   </g>
  </g>
 </g>
 <g transform="matrix(.35278 0 0 -.35278 217.5 293.51)">
  <g clip-path="url(#clipPath25100)">
   <g transform="translate(204,495.24)">
    <path d="m0 0h3c0.553 0 1-0.447 1-1v-2c0-0.553-0.447-1-1-1h-3c-0.553 0-1 0.447-1 1v2c0 0.553 0.447 1 1 1" fill="#fff" fill-rule="evenodd"/>
   </g>
  </g>
 </g>
 <g transform="matrix(.35278 0 0 -.35278 217.5 293.51)">
  <g clip-path="url(#clipPath25502)">
   <g transform="translate(805,482.24)">
    <path d="m0 0c4.418 0 8 3.582 8 8s-3.582 8-8 8-8-3.582-8-8 3.582-8 8-8" fill="#fff" fill-rule="evenodd"/>
   </g>
  </g>
 </g>
 <g transform="matrix(.35278 0 0 -.35278 217.5 293.51)">
  <g clip-path="url(#clipPath25686)">
   <g transform="translate(658,1075.7)">
    <path d="m0 0c0-4.694 3.806-8.5 8.5-8.5s8.5 3.806 8.5 8.5-3.806 8.5-8.5 8.5-8.5-3.806-8.5-8.5" fill="#fff"/>
   </g>
  </g>
 </g>
 <g transform="matrix(.35278 0 0 -.35278 217.5 293.51)">
  <g clip-path="url(#clipPath25788)">
   <path d="m465.44 1082.2h85.864v-75.319h-85.864zm64.45-25.106c-0.483 0.765-1.453 0.947-2.178 0.431l-15.504-11.01c-0.359-0.255-0.847-0.153-1.071 0.238l-18.271 31.869c-0.438 0.771-1.139 0.776-1.549-0.016l-1.807-3.514-21.07-47.452c13.336-18.44 48.336-26.94 73.836-3.44 0.841 0 6.477 6.246 6 7z" fill="#fff" fill-rule="evenodd"/>
  </g>
 </g>
 <g transform="matrix(.35278 0 0 -.35278 217.5 293.51)">
  <g clip-path="url(#clipPath26420)">
   <g transform="translate(-23,837.24)">
    <path d="m0 0c18.778 0 34 15.222 34 34s-15.222 34-34 34-34-15.222-34-34 15.222-34 34-34z" fill="none" stroke="#fff" stroke-miterlimit="10" stroke-width="8"/>
   </g>
  </g>
 </g>
 <g transform="matrix(.35278 0 0 -.35278 217.5 293.51)">
  <g clip-path="url(#clipPath26860)">
   <path d="m644 721.24h82v-82h-82zm41-81c22.092 0 40 17.908 40 40s-17.908 40-40 40-40-17.908-40-40 17.908-40 40-40" fill="#fff" fill-rule="evenodd"/>
  </g>
 </g>
 <g transform="matrix(.35278 0 0 -.35278 217.5 293.51)">
  <g clip-path="url(#clipPath27506)">
   <g transform="translate(613.88,476.03)">
    <path d="m0 0c0.187-0.771 0.148-1.502-0.116-2.193-0.266-0.692-0.678-1.303-1.239-1.833-0.561-0.531-1.247-0.949-2.057-1.255-0.81-0.305-1.683-0.457-2.617-0.457-5.889-0.033-11.156-0.049-15.798-0.049h-15.891c-1.122 0-2.111 0.209-2.968 0.627s-1.543 0.932-2.056 1.543c-0.515 0.611-0.858 1.279-1.029 2.002s-0.148 1.375 0.071 1.953c0.186 0.451 0.373 0.917 0.56 1.398 0.157 0.418 0.343 0.893 0.561 1.424 0.219 0.53 0.452 1.069 0.701 1.615l1.776 4.438h5.329l-2.01-6.077h30.099l-2.009 6.077h5.094c0.655-1.64 1.246-3.119 1.777-4.438 0.218-0.578 0.435-1.14 0.654-1.687 0.218-0.547 0.412-1.037 0.584-1.472 0.171-0.433 0.312-0.804 0.421-1.109 0.108-0.306 0.163-0.474 0.163-0.507m-22.922 9.236c-0.601 0.698-1.289 1.571-2.064 2.618-0.776 1.046-1.575 2.125-2.398 3.235-0.822 1.11-1.637 2.204-2.443 3.283-0.808 1.079-1.527 2.015-2.16 2.808-0.728 0.856-1.013 1.562-0.855 2.117s0.696 0.832 1.614 0.832c0.506-0.031 1.187-0.024 2.041 0.024 0.855 0.048 1.567 0.072 2.136 0.072 0.633 0 1.029 0.19 1.187 0.57 0.158 0.381 0.237 0.889 0.237 1.523 0 0.698-8e-3 1.467-0.024 2.308s-0.024 1.705-0.024 2.593-8e-3 1.76-0.023 2.617c-0.016 0.856-0.024 1.65-0.024 2.379 0 0.318 0.024 0.65 0.071 1 0.047 0.348 0.158 0.666 0.333 0.951 0.173 0.285 0.426 0.523 0.758 0.714 0.332 0.19 0.784 0.285 1.353 0.285 0.665 0 1.274 9e-3 1.827 0.024 0.555 0.016 1.195 0.024 1.923 0.024 1.044 0 1.748-0.246 2.112-0.737 0.364-0.492 0.562-1.277 0.593-2.356v-1.855c0-0.73 8e-3 -1.507 0.023-2.331 0.017-0.826 0.025-1.651 0.025-2.475v-2.236c0-0.92 0.095-1.659 0.284-2.213 0.191-0.555 0.617-0.817 1.282-0.785 0.475 0 1.052-0.016 1.732-0.047 0.68-0.032 1.274-0.049 1.78-0.049 0.855 0 1.4-0.23 1.638-0.69 0.237-0.46 0.071-1.054-0.498-1.784-0.602-0.76-1.298-1.68-2.089-2.759-0.791-1.08-1.606-2.197-2.445-3.355-0.838-1.158-1.661-2.284-2.467-3.379-0.807-1.094-1.528-2.037-2.16-2.83-0.57-0.73-1.116-1.103-1.637-1.119-0.523-0.016-1.069 0.326-1.638 1.023" fill="#fff"/>
   </g>
  </g>
 </g>
 <g transform="matrix(.35278 0 0 -.35278 217.5 293.51)">
  <g clip-path="url(#clipPath27772)">
   <g transform="translate(588.67,331.24)">
    <path d="m0 0h-49.301c-2.41 0-4.367-1.941-4.367-4.299v-49.402c0-2.393 1.957-4.299 4.367-4.299h49.301c2.41 0 4.332 1.941 4.332 4.299v49.367c0 2.393-1.957 4.334-4.332 4.334m-33.403-53.008h-8.839v6.795h8.839zm-8.91 24.58h8.84v-6.795h-8.84zm8.945-15.566h-8.84v6.795h8.84zm12.998-9.014h-8.84v6.795h8.84zm-8.91 24.58h8.84v-6.795h-8.84zm8.944-15.566h-8.839v6.795h8.839zm13.277-9.014h-8.84v6.795h8.84zm-8.909 24.58h8.84v-6.795h-8.84zm8.945-15.566h-8.84v6.795h8.84zm5.276 24.441c0-2.392-1.957-4.299-4.368-4.299h-37.77c-2.411-0.035-4.367 1.907-4.367 4.299v10.054c0 2.392 1.956 4.333 4.332 4.333h37.805c2.411 0 4.368-1.941 4.368-4.333z" fill="#fff"/>
   </g>
  </g>
 </g>
 <g transform="matrix(.35278 0 0 -.35278 217.5 293.51)">
  <g clip-path="url(#clipPath27864)">
   <g transform="translate(609.3,312.46)">
    <path d="m0 0h-0.72c-0.206 0-0.377 0-0.514-0.212-0.103-0.142-0.103-0.283-0.103-0.46v-0.566c0-0.178 0-0.319 0.103-0.461 0.137-0.212 0.308-0.212 0.514-0.212h0.72c0.205 0 0.376 0 0.514 0.212 0.102 0.142 0.102 0.283 0.102 0.461v0.566c0 0.213 0 0.318-0.102 0.46-0.138 0.212-0.275 0.212-0.514 0.212m-5.003 4.779h-2.947c-0.548 0-0.993-0.46-0.993-1.026v-2.407h0.993v2.407h2.947v-2.407h0.993v2.407c0 0.566-0.445 1.026-0.993 1.026m0-6.973h-2.947v2.407h-0.993v-2.407c0-0.567 0.411-1.027 0.993-1.027h2.947c0.582 0 0.993 0.46 0.993 1.027v2.407h-0.993zm-14.357 0h-2.947v2.584h-0.994v-2.584c0-0.567 0.411-1.027 0.994-1.027h2.947c0.583 0 0.994 0.46 0.994 1.027v2.584h-0.994zm0 6.973h-2.947c-0.548 0-0.994-0.46-0.994-1.026v-2.231h0.994v2.231h2.947v-2.231h0.994v2.231c0 0.566-0.446 1.026-0.994 1.026m7.195 0h-2.946c-0.549 0-0.994-0.46-0.994-1.026v-2.231h0.994v2.231h2.946v-2.231h0.994v2.231c0 0.566-0.445 1.026-0.994 1.026m0-6.973h-2.946v2.584h-0.994v-2.584c0-0.567 0.445-1.027 0.994-1.027h2.946c0.583 0 0.994 0.46 0.994 1.027v2.584h-0.994zm18.675 6.973h-2.947c-0.548 0-0.994-0.46-0.994-1.026v-2.584h0.994v2.584h2.947v-2.584h0.994v2.584c0 0.566-0.445 1.026-0.994 1.026m0-6.973h-2.947v2.23h-0.994v-2.23c0-0.567 0.446-1.027 0.994-1.027h2.947c0.583 0 0.994 0.46 0.994 1.027v2.23h-0.994zm7.195 0h-2.946v2.053h-0.994v-2.053c0-0.567 0.411-1.027 0.994-1.027h2.946c0.583 0 0.994 0.46 0.994 1.027v2.053h-0.994zm0 6.973h-2.946c-0.548 0-0.994-0.46-0.994-1.026v-2.761h0.994v2.761h2.946v-2.761h0.994v2.761c0 0.566-0.479 1.026-0.994 1.026" fill="#fff"/>
   </g>
  </g>
 </g>
 <g transform="matrix(.35278 0 0 -.35278 217.5 293.51)">
  <g clip-path="url(#clipPath28028)">
   <g transform="translate(766.75,130.24)">
    <path d="m0 0h-15.75v6.693c0 1.239-1.013 2.307-2.307 2.307h-13.386c-1.239 0-2.307-1.013-2.307-2.307v-6.693h-15.75c-1.237 0-2.25-1.013-2.25-2.25v-11.25l27-4.5 27 4.5v11.25c0 1.237-1.013 2.25-2.25 2.25m-29.25 4.5h9v-4.5h-9zm9-16.875c0-0.619-0.506-1.125-1.125-1.125h-6.75c-0.619 0-1.125 0.506-1.125 1.125v2.25c0 0.619 0.506 1.125 1.125 1.125h6.75c0.619 0 1.125-0.506 1.125-1.125zm-4.5-7.875 27 4.5v-27c0-1.237-1.013-2.25-2.25-2.25h-49.5c-1.237 0-2.25 1.013-2.25 2.25v27z" fill="#fff"/>
   </g>
  </g>
 </g>
 <g transform="matrix(.35278 0 0 -.35278 217.5 293.51)">
  <g clip-path="url(#clipPath28200)">
   <g transform="translate(392,82.24)">
    <path d="M 0,0 -4.35,3.941 C -19.8,17.953 -30,27.2 -30,38.516 -30,47.762 -22.755,55 -13.5,55 -8.28,55 -3.27,52.572 0,48.75 3.27,52.572 8.28,55 13.5,55 22.755,55 30,47.762 30,38.516 30,27.2 19.8,17.953 4.35,3.941 Z" fill="#fff"/>
   </g>
  </g>
 </g>
 <g transform="matrix(.35278 0 0 -.35278 217.5 293.51)">
  <g clip-path="url(#clipPath28364)">
   <g transform="translate(542.77,113.24)">
    <path d="m0 0c0 2.621 0.885 4.8 2.689 6.604s3.983 2.689 6.604 2.689c2.622 0 4.801-0.885 6.604-2.689 1.805-1.804 2.69-3.983 2.69-6.604s-0.885-4.834-2.69-6.639c-1.803-1.803-3.982-2.689-6.604-2.689-2.621 0-4.809 0.877-6.604 2.689-1.813 1.83-2.689 4.051-2.689 6.639m-13.141-6.06c0.545-1.94 1.363-3.846 2.35-5.617l-6.128-7.523 6.944-6.945 7.524 6.127c1.769-0.986 3.71-1.803 5.65-2.382l1.022-9.6h10.008l1.022 9.6c1.94 0.579 3.778 1.396 5.651 2.382l7.49-6.127 7.012 6.945-6.162 7.523c0.953 1.771 1.805 3.677 2.383 5.617l9.601 1.056v10.008l-9.601 1.021c-0.578 1.941-1.43 3.745-2.383 5.618l6.162 7.523-7.012 7.013-7.49-6.161c-1.907 0.953-3.711 1.803-5.651 2.382l-1.022 9.6h-10.008l-1.022-9.6c-2.008-0.579-3.88-1.429-5.65-2.382l-7.524 6.161-6.944-7.013 6.128-7.523c-0.953-1.873-1.771-3.677-2.35-5.618l-9.633-1.021v-10.008z" fill="#fff"/>
   </g>
  </g>
 </g>
 <g transform="matrix(.35278 0 0 -.35278 217.5 293.51)">
  <g clip-path="url(#clipPath28984)">
   <path d="m473 698.24h13v-13h-13zm6.5-12c3.037 0 5.5 2.463 5.5 5.5 0 3.038-2.463 5.5-5.5 5.5s-5.5-2.462-5.5-5.5c0-3.037 2.463-5.5 5.5-5.5" fill="#fff" fill-rule="evenodd"/>
  </g>
 </g>
 <g transform="matrix(.35278 0 0 -.35278 217.5 293.51)">
  <g clip-path="url(#clipPath29012)">
   <path d="m473 676.24h13v-13h-13zm6.5-12c3.037 0 5.5 2.463 5.5 5.5 0 3.038-2.463 5.5-5.5 5.5s-5.5-2.462-5.5-5.5c0-3.037 2.463-5.5 5.5-5.5" fill="#fff" fill-rule="evenodd"/>
  </g>
 </g>
 <g transform="matrix(.35278 0 0 -.35278 217.5 293.51)">
  <g clip-path="url(#clipPath29040)">
   <path d="m467 687.24h13v-13h-13zm6.5-12c3.037 0 5.5 2.463 5.5 5.5 0 3.038-2.463 5.5-5.5 5.5s-5.5-2.462-5.5-5.5c0-3.037 2.463-5.5 5.5-5.5" fill="#fff" fill-rule="evenodd"/>
  </g>
 </g>
 <g transform="matrix(.35278 0 0 -.35278 217.5 293.51)">
  <g clip-path="url(#clipPath29068)">
   <path d="m486 698.24h13v-13h-13zm6.5-12c3.037 0 5.5 2.463 5.5 5.5 0 3.038-2.463 5.5-5.5 5.5s-5.5-2.462-5.5-5.5c0-3.037 2.463-5.5 5.5-5.5" fill="#fff" fill-rule="evenodd"/>
  </g>
 </g>
 <g transform="matrix(.35278 0 0 -.35278 217.5 293.51)">
  <g clip-path="url(#clipPath29096)">
   <path d="m486 676.24h13v-13h-13zm6.5-12c3.037 0 5.5 2.463 5.5 5.5 0 3.038-2.463 5.5-5.5 5.5s-5.5-2.462-5.5-5.5c0-3.037 2.463-5.5 5.5-5.5" fill="#fff" fill-rule="evenodd"/>
  </g>
 </g>
 <g transform="matrix(.35278 0 0 -.35278 217.5 293.51)">
  <g clip-path="url(#clipPath29124)">
   <path d="m480 687.24h13v-13h-13zm6.5-12c3.037 0 5.5 2.463 5.5 5.5 0 3.038-2.463 5.5-5.5 5.5s-5.5-2.462-5.5-5.5c0-3.037 2.463-5.5 5.5-5.5" fill="#fff" fill-rule="evenodd"/>
  </g>
 </g>
 <g transform="matrix(.35278 0 0 -.35278 217.5 293.51)">
  <g clip-path="url(#clipPath29152)">
   <path d="m493 687.24h13v-13h-13zm6.5-12c3.037 0 5.5 2.463 5.5 5.5 0 3.038-2.463 5.5-5.5 5.5s-5.5-2.462-5.5-5.5c0-3.037 2.463-5.5 5.5-5.5" fill="#fff" fill-rule="evenodd"/>
  </g>
 </g>
 <g transform="matrix(.35278 0 0 -.35278 217.5 293.51)">
  <g clip-path="url(#clipPath29252)">
   <path d="m161 327.24h73v-28h-73zm14-5h45c4.971 0 9-4.029 9-9 0-4.97-4.029-9-9-9h-45c-4.971 0-9 4.03-9 9 0 4.971 4.029 9 9 9" fill="#fff" fill-rule="evenodd"/>
  </g>
 </g>
 <g transform="matrix(.35278 0 0 -.35278 217.5 293.51)">
  <g clip-path="url(#clipPath29280)">
   <path d="m162 302.24h73v-28h-73zm14-5h45c4.971 0 9-4.029 9-9 0-4.97-4.029-9-9-9h-45c-4.971 0-9 4.03-9 9 0 4.971 4.029 9 9 9" fill="#fff" fill-rule="evenodd"/>
  </g>
 </g>
 <g transform="matrix(.35278 0 0 -.35278 217.5 293.51)">
  <g clip-path="url(#clipPath29400)">
   <g transform="translate(104.49,129.57)">
    <path d="m0 0c-4.298-0.338-8.165-0.637-11.604-0.898-1.458-0.113-2.906-0.225-4.344-0.336-1.44-0.114-2.747-0.207-3.924-0.282-1.178-0.074-2.168-0.149-2.972-0.224-0.803-0.074-1.28-0.113-1.428-0.113-0.188-0.037-0.403-0.065-0.645-0.084-0.244-0.018-0.459-0.065-0.645-0.139l-0.673-0.225-2.467 1.121c0.187 0.263 0.412 0.506 0.674 0.731 0.185 0.186 0.42 0.364 0.7 0.533 0.28 0.168 0.569 0.27 0.868 0.309 0.225 0.037 0.822 0.093 1.795 0.168 0.971 0.074 2.167 0.168 3.588 0.28 0 0.486 0.047 1.15 0.14 1.992 0.092 0.841 0.317 1.674 0.672 2.497 0.356 0.822 0.869 1.553 1.541 2.188 0.673 0.636 1.589 1.009 2.747 1.123 1.346 0.111 2.439-0.094 3.281-0.618 0.84-0.523 1.494-1.169 1.961-1.935 0.467-0.768 0.795-1.553 0.981-2.358 0.187-0.804 0.299-1.43 0.337-1.878 1.606 0.111 2.942 0.205 4.008 0.279 1.064 0.076 1.653 0.131 1.765 0.169 0.412 0.038 0.87-0.038 1.373-0.225 0.505-0.186 0.907-0.43 1.206-0.729 0.075-0.075 0.177-0.188 0.308-0.336 0.131-0.151 0.252-0.3 0.365-0.449 0.149-0.151 0.28-0.337 0.392-0.561m-15.528 6.676c-0.709-0.074-1.28-0.326-1.709-0.757-0.43-0.431-0.758-0.944-0.982-1.543-0.223-0.599-0.374-1.206-0.448-1.823-0.075-0.617-0.112-1.114-0.112-1.488 1.159 0.076 2.344 0.169 3.559 0.281s2.402 0.206 3.56 0.281c-0.037 0.336-0.121 0.804-0.252 1.402-0.131 0.599-0.346 1.178-0.645 1.74-0.299 0.561-0.691 1.028-1.176 1.403-0.487 0.373-1.084 0.542-1.795 0.504m21.919-41.24c0.186-1.047 0.159-1.917-0.084-2.61-0.244-0.691-0.925-1.168-2.046-1.43-0.374-0.113-1.187-0.299-2.439-0.562-1.252-0.262-2.747-0.579-4.485-0.953-1.737-0.374-3.597-0.777-5.577-1.207-1.982-0.43-3.878-0.832-5.691-1.205-1.812-0.375-3.437-0.711-4.877-1.011-1.438-0.3-2.457-0.505-3.054-0.617-1.383-0.3-2.402-0.206-3.055 0.28-0.654 0.486-0.982 1.217-0.982 2.189v34.452c0 0.934 0.197 1.691 0.589 2.271 0.393 0.58 0.962 0.889 1.709 0.926 0.299 0 0.664 0.02 1.094 0.057s0.85 0.074 1.261 0.112c0.485 0.037 0.991 0.075 1.514 0.112l0.504-8.023c-0.037-0.038-0.112-0.057-0.224-0.057-0.074 0-0.187-0.01-0.336-0.027-0.15-0.02-0.318-0.029-0.505-0.029-0.784-0.075-1.159-0.542-1.121-1.403 0.038-0.336 0.075-0.805 0.112-1.402 0.037-0.599 0.066-1.225 0.084-1.88 0.019-0.655 0.047-1.29 0.084-1.907s0.074-1.114 0.113-1.488c0.037-0.711 0.149-1.112 0.336-1.206 0.186-0.093 0.598-0.14 1.233-0.14h0.785c0.225 0 0.439 0.01 0.645 0.027 0.205 0.02 0.439 0.038 0.701 0.057 0.261 0.018 0.597 0.047 1.008 0.084 0.785 0.075 1.29 0.243 1.513 0.506 0.225 0.261 0.319 0.654 0.281 1.177 0 0.262-0.028 0.721-0.084 1.375-0.056 0.655-0.113 1.337-0.168 2.048-0.056 0.71-0.103 1.384-0.14 2.02-0.037 0.635-0.074 1.085-0.112 1.346-0.076 0.45-0.168 0.768-0.281 0.954-0.112 0.187-0.318 0.262-0.617 0.224-0.148 0-0.299-9e-3 -0.447-0.027-0.151-0.019-0.3-0.028-0.449-0.028h-0.449l-0.505 7.967c2.542 0.225 4.877 0.412 7.008 0.561 0.897 0.076 1.803 0.15 2.719 0.224 0.916 0.076 1.766 0.141 2.551 0.198 0.785 0.055 1.476 0.111 2.074 0.168 0.598 0.056 1.046 0.103 1.346 0.14 1.083 0.074 1.942-0.113 2.578-0.561 0.635-0.449 1.027-1.122 1.178-2.021 0.037-0.299 0.168-1.196 0.391-2.693 0.224-1.496 0.505-3.291 0.841-5.386s0.691-4.349 1.065-6.761c0.374-2.413 0.729-4.667 1.066-6.761 0.336-2.095 0.625-3.891 0.869-5.387 0.242-1.496 0.4-2.395 0.476-2.693m-35.261-4.881c0-0.525 0.028-0.983 0.084-1.375 0.057-0.393 0.122-0.701 0.197-0.926 0.074-0.299 0.168-0.524 0.279-0.674-0.933 0.486-1.831 0.973-2.69 1.459-0.747 0.412-1.495 0.832-2.242 1.263-0.747 0.43-1.383 0.795-1.906 1.094-0.972 0.561-1.635 1.235-1.99 2.02s-0.439 1.608-0.253 2.469c0.076 0.224 0.244 1.047 0.505 2.469 0.262 1.421 0.588 3.142 0.981 5.162 0.392 2.019 0.803 4.189 1.233 6.508 0.43 2.32 0.831 4.49 1.205 6.509 0.374 2.02 0.701 3.76 0.982 5.218 0.28 1.459 0.439 2.319 0.476 2.581 0.15 0.823 0.42 1.459 0.813 1.908 0.392 0.449 0.849 0.561 1.373 0.336 0.299-0.149 0.543-0.317 0.728-0.504 0.114-0.113 0.188-0.207 0.225-0.281z" fill="#fff"/>
   </g>
  </g>
 </g>
 <g transform="matrix(1.0909 0 0 1.0909 -.76982 -.76924)" stroke-width=".028421">
  <path d="m8.4665 8.4663 5.1315 5.1315c0.35414-0.35422 0.68508-0.73101 0.96066-1.1518 0.15322-0.23402 0.29347-0.4773 0.41912-0.72914 0.48942-0.97792 0.76479-2.0821 0.76479-3.2504z" fill="#f55028"/>
  <path d="m8.4665 8.4663-8e-7 7.276c0.8719 0 1.7082-0.15308 2.483-0.4346 0.52829-0.19184 1.0281-0.44275 1.4914-0.74569 0.19985-0.13037 0.39296-0.27053 0.57827-0.4196 0.20696-0.16619 0.39137-0.35721 0.57877-0.54466z" fill="#ffbe19"/>
  <path d="m8.4665 8.4663-5.1448 5.1448c1.3167 1.3167 3.1355 2.1311 5.1448 2.1311z" fill="#0a8c7d"/>
  <path d="m1.1908 8.4663c1e-7 2.0092 0.81443 3.8282 2.1311 5.1448l5.1448-5.1448z" fill="#5fd2e6"/>
  <path d="m8.4665 8.4663 7.2759-1e-7c1e-6 -1.1683-0.2754-2.272-0.76479-3.2498-0.1256-0.25182-0.26585-0.49514-0.41909-0.72916-0.27551-0.42108-0.60698-0.79766-0.96117-1.1518z" fill="#c31932"/>
  <path d="m8.4665 8.4663 5.131-5.131c-0.18037-0.18038-0.3565-0.36533-0.55498-0.52606-0.18382-0.14879-0.37502-0.28871-0.57308-0.41909-0.47111-0.31125-0.98056-0.56909-1.5193-0.7648-0.77511-0.28157-1.6113-0.4351-2.4835-0.4351z" fill="#eb4178"/>
  <path d="m3.3233 3.3228 5.1432 5.1432v-7.276c-0.87221 0-1.7084 0.15353-2.4835 0.4351-0.48672 0.1767-0.94947 0.40417-1.3813 0.67592-0.45849 0.28741-0.88261 0.62475-1.2645 1.0046-0.00521 0.0052-0.00876 0.011851-0.013946 0.017042z" fill="#6914eb"/>
  <path d="m1.1908 8.4663 7.276 3e-7 -5.1432-5.1432c-1.3165 1.3168-2.1326 3.1342-2.1326 5.1432z" fill="#2d91e6"/>
 </g>
 <path d="m8.4658 1.8143c0.79771 7e-7 1.5625 0.14038 2.2714 0.3979 0.49267 0.17898 0.95845 0.41445 1.3893 0.69912 0.18114 0.11922 0.35608 0.24743 0.5242 0.38351 0.53803 0.43565 1.0066 0.95333 1.3869 1.5346 0.14017 0.214 0.26837 0.43648 0.38323 0.66679 0.44758 0.89434 0.69935 1.904 0.69935 2.9724 0 1.0685-0.25174 2.0781-0.69937 2.9724-0.11482 0.23036-0.24312 0.45299-0.38323 0.66708-0.38541 0.58857-0.8613 1.1124-1.4083 1.5516-0.16948 0.13634-0.34602 0.26429-0.5288 0.38351-0.42368 0.27705-0.88083 0.50653-1.364 0.68198-0.70862 0.25748-1.4732 0.39762-2.2706 0.39762-3.6751 2e-6 -6.6543-2.9792-6.6543-6.6543 0-1.8447 0.75072-3.514 1.9631-4.7194 0.34927-0.34736 0.73715-0.6562 1.1565-0.91906 0.39492-0.24853 0.81806-0.45629 1.2632-0.61789 0.70888-0.25752 1.4737-0.39792 2.2714-0.39792z" fill="url(#linearGradient2325)" stroke-width=".025994"/>
 <path d="m2.9009 13.224c0.00977-0.14898-0.020406-0.30791 0.050702-0.42341 0.59064-0.95938 2.6544-2.5655 3.7819-3.6849l0.82747 2.1779-5.276 3.7874z" fill="url(#linearGradient2714)"/>
 <g transform="matrix(.94646 0 0 .94646 .4235 1.0023)">
  <g>
   <ellipse cx="8.4667" cy="8.4667" rx="3.4697" ry="3.5581" fill="url(#radialGradient2694)" opacity=".4019"/>
   <rect transform="matrix(-.71559 .69852 .69852 .71559 0 0)" x="-1.6564" y="3.7975" width="2.4819" height="6.8587" rx=".70586" ry=".70586" fill="url(#linearGradient2696)" style="paint-order:fill markers stroke"/>
   <path d="m2.3481 3.3003c0.0021772-0.18042 0.073502-0.35996 0.21341-0.49654l0.76578-0.74754c0.27441-0.26786 0.70774-0.26773 0.98202-0.0037462-0.18543-0.11769-0.52912-0.28533-0.73304-0.071364-0.086838 0.08981-0.092893 0.17679-0.031751 0.26138 0.011829 0.016099 0.16004 0.16513 0.29485 0.30032l-0.36284 0.35418-0.15839-0.14832c-0.37664-0.34293-0.69523 0.21951-0.4238 0.49093l-0.29391-0.19599c-0.28137-0.18762-0.083807 0.50139-0.050949 0.75831-0.13658-0.13991-0.20355-0.32122-0.20138-0.50163z" fill="url(#linearGradient2698)" style="paint-order:fill markers stroke"/>
  </g>
  <g transform="matrix(0 .031444 .031444 0 1.115 4.0616)">
   <path d="m293.22 419.49c2.5424-0.42373 20.339-19.915 20.339-19.915l-48.729-61.017-27.966-9.322-69.915-70.763-16.525 19.068 70.763 67.797 8.8983 27.119z" fill="url(#linearGradient2700)"/>
   <path d="m293.22 419.49c2.5424-0.42373 20.339-19.915 20.339-19.915l-48.729-61.017c-31.365-3.8006-38.504 0.25902-34.746 33.898z" fill="url(#linearGradient2702)"/>
   <path d="m235.56 331.07 1.0157 2.6827 24.029 6.978 50.833 59.054 0.60437-1.0884-49.77-60.622z" color="#000000" color-rendering="auto" dominant-baseline="auto" fill="#fff" fill-opacity=".25475" image-rendering="auto" shape-rendering="auto" solid-color="#000000" style="font-feature-settings:normal;font-variant-alternates:normal;font-variant-caps:normal;font-variant-ligatures:normal;font-variant-numeric:normal;font-variant-position:normal;isolation:auto;mix-blend-mode:normal;shape-padding:0;text-decoration-color:#000000;text-decoration-line:none;text-decoration-style:solid;text-indent:0;text-orientation:mixed;text-transform:none;white-space:normal"/>
   <path d="m293.22 419.49c2.5424-0.42373 20.339-19.915 20.339-19.915l-48.729-61.017c-31.365-3.8006-38.504 0.25902-34.746 33.898z" fill="url(#linearGradient2702)"/>
  </g>
  <g>
   <path d="m6.714 8.7396-3.7229 3.5089c-0.89948 0.98752 0.40677 2.3246 1.439 1.2924l3.8473-3.8651zm-3.068 3.7298a0.52841 0.48049 85.347 0 1 0.45121 0.39139 0.52841 0.48049 85.347 0 1-0.33133 0.64651 0.52841 0.48049 85.347 0 1-0.59382-0.37389 0.52841 0.48049 85.347 0 1 0.33133-0.64651 0.52841 0.48049 85.347 0 1 0.1426-0.0175z" fill="url(#linearGradient2706)"/>
   <path d="m4.9984 10.663-0.48051 0.45226s-1.4697 1.4462-1.498 1.4697c-0.44044 1.1216 0.56933 1.1397 0.81024 1.1447l2.3553-2.1292zm-1.3524 1.8067a0.52841 0.48049 85.347 0 1 6.29e-5 0 0.52841 0.48049 85.347 0 1 0.45121 0.39139 0.52841 0.48049 85.347 0 1-0.33133 0.64651 0.52841 0.48049 85.347 0 1-0.59382-0.37389 0.52841 0.48049 85.347 0 1 0.33133-0.64651 0.52841 0.48049 85.347 0 1 0.14254-0.0175z" fill="url(#linearGradient2708)"/>
   <path d="m11.918 3.4814 1.2258-1.2524c-1.4299-0.66562-3.5303 0.45321-3.2377 2.6514l-1.7092 2.4614-0.83256 0.78472 1.4447 1.015 1.3768-1.3832 1.5456-1.0792c2.0981 0.51331 3.3545-1.904 2.7047-3.1977l-1.2125 1.2125-0.59957 0.053295-0.74613-0.73281z" fill="url(#linearGradient2710)"/>
  </g>
  <g shape-rendering="auto">
   <path d="m12.225 2.0413c-0.80813 0.0326-1.3917 0.40795-1.7658 0.89333-0.48882 0.63421-0.63117 1.4433-0.48235 1.9455l-2.9263 4.3217 2.6259-1.0178 2.0928-1.5136c0.73911 0.25986 1.5841-0.062973 2.1655-0.67015 0.59053-0.61664 0.91511-1.534 0.57514-2.4429l-0.03439-0.091937-1.2286 1.2368-0.62305 0.045018-0.72819-0.72297 0.07143-0.59664 1.2509-1.2707-0.1095-0.025303c-0.31983-0.073931-0.61414-0.10115-0.88351-0.09028zm0.0046 0.12381c0.22418-0.00834 0.47155 0.01717 0.73538 0.069582l-1.1176 1.1352-0.0025 0.021372-0.08131 0.67894 0.81232 0.80649 0.72715-0.052448 1.1171-1.1246c0.26323 0.82563-0.034286 1.6476-0.57625 2.2135-0.5635 0.58841-1.3784 0.88966-2.0652 0.62999l-0.031689-0.011976-2.1312 1.5413-2.2355 0.8665 2.7332-4.0365-0.009639-0.029295c-0.14379-0.43766-0.01847-1.2476 0.4549-1.8618 0.35503-0.46062 0.89817-0.81761 1.6708-0.84635z" color="#000000" color-rendering="auto" dominant-baseline="auto" fill="url(#linearGradient2712)" image-rendering="auto" solid-color="#000000" style="font-feature-settings:normal;font-variant-alternates:normal;font-variant-caps:normal;font-variant-ligatures:normal;font-variant-numeric:normal;font-variant-position:normal;isolation:auto;mix-blend-mode:normal;shape-padding:0;text-decoration-color:#000000;text-decoration-line:none;text-decoration-style:solid;text-indent:0;text-orientation:mixed;text-transform:none;white-space:normal"/>
   <path d="m6.2407 9.4423-1.75 1.6325c-0.42022 0.40279-0.88135 0.7803-1.1977 1.1165-0.31634 0.3362-0.44968 0.68643-0.39208 1.033l0.031014-0.0051c-0.055141-0.33177 0.13663-0.64598 0.4506-0.97966 0.31397-0.33368 0.74843-0.68479 1.1699-1.0888l1.71-1.6391z" color="#000000" color-rendering="auto" dominant-baseline="auto" fill="#d4d4d5" image-rendering="auto" solid-color="#000000" style="font-feature-settings:normal;font-variant-alternates:normal;font-variant-caps:normal;font-variant-ligatures:normal;font-variant-numeric:normal;font-variant-position:normal;isolation:auto;mix-blend-mode:normal;shape-padding:0;text-decoration-color:#000000;text-decoration-line:none;text-decoration-style:solid;text-indent:0;text-orientation:mixed;text-transform:none;white-space:normal"/>
   <path d="m6.1489 9.374c-0.7514 0.70053-1.6672 1.5607-2.5965 2.4064-0.16211 0.14752-0.34506 0.30758-0.4942 0.46761-0.14914 0.16003-0.26625 0.31915-0.29117 0.47363-0.028208 0.17488-0.035282 0.35772 0.00148 0.55175-0.04068-0.29479 0.0678-0.80219 0.33569-0.98251 0.1459-0.15655 0.32775-0.31586 0.49052-0.46398 0.92893-0.84536 1.9736-1.8031 2.7259-2.5045z" color="#000000" color-rendering="auto" dominant-baseline="auto" fill="#fff" fill-opacity=".53232" image-rendering="auto" solid-color="#000000" style="font-feature-settings:normal;font-variant-alternates:normal;font-variant-caps:normal;font-variant-ligatures:normal;font-variant-numeric:normal;font-variant-position:normal;isolation:auto;mix-blend-mode:normal;shape-padding:0;text-decoration-color:#000000;text-decoration-line:none;text-decoration-style:solid;text-indent:0;text-orientation:mixed;text-transform:none;white-space:normal"/>
  </g>
  <path d="m3.7591 12.46a0.52841 0.48049 85.347 0 0-0.10981 0.0097 0.52841 0.48049 85.347 0 1 0.44796 0.39109 0.52841 0.48049 85.347 0 1-0.33133 0.64651 0.52841 0.48049 85.347 0 1-0.032918 0.0077 0.52841 0.48049 85.347 0 0 0.14598-0.01713 0.52841 0.48049 85.347 0 0 0.33133-0.64651 0.52841 0.48049 85.347 0 0-0.45121-0.39139z" fill="#fff" fill-opacity=".38403" style="paint-order:fill markers stroke"/>
  <path d="m3.4087 12.528a0.52841 0.48049 85.347 0 0-0.32138 0.64319 0.52841 0.48049 85.347 0 0 0.59375 0.37389 0.52841 0.48049 85.347 0 0 0.094947-0.04115 0.52841 0.48049 85.347 0 1-0.010133 0.0034 0.52841 0.48049 85.347 0 1-0.59382-0.37389 0.52841 0.48049 85.347 0 1 0.23663-0.60548z" opacity=".196" style="paint-order:fill markers stroke"/>
  <path d="m2.9009 13.224c0.12488 0.56062 0.92785 0.65703 1.1553 0.48145 0 0 2.2046-2.0915 2.1104-2.035-0.094213 0.05653-2.1481 1.8277-2.1481 1.8277-0.19362 0.15954-0.74653 0.36455-1.1176-0.27418z" fill="#d3d3d4"/>
  <path d="m8.4666 5.2917c0.38062 3e-7 0.74554 0.06698 1.0838 0.18985 0.23507 0.085396 0.45731 0.19775 0.66288 0.33357 0.08643 0.056882 0.1699 0.11806 0.25011 0.18299 0.25671 0.20786 0.48027 0.45487 0.66173 0.73221 0.06688 0.1021 0.12805 0.20826 0.18285 0.31815 0.21356 0.42672 0.33368 0.90846 0.33368 1.4183 0 0.50982-0.12012 0.99153-0.33369 1.4183-0.05479 0.10991-0.116 0.21614-0.18285 0.31829-0.18389 0.28083-0.41096 0.53077-0.67194 0.74033-0.08087 0.06506-0.1651 0.1261-0.25231 0.18299-0.20216 0.13219-0.42028 0.24168-0.6508 0.3254-0.33811 0.12285-0.70291 0.18972-1.0834 0.18972-1.7535 0-3.175-1.4215-3.175-3.175 0-0.88019 0.35819-1.6766 0.93667-2.2518 0.16665-0.16574 0.35172-0.3131 0.5518-0.43852 0.18843-0.11858 0.39032-0.21771 0.60271-0.29482 0.33823-0.12287 0.70317-0.18986 1.0838-0.18986z" fill="url(#linearGradient2879)" stroke-width=".012403"/>
  <g transform="matrix(.36364 0 0 .36364 5.3878 5.388)" stroke-width=".028421">
   <path d="m8.4665 8.4663 5.1315 5.1315c0.35414-0.35422 0.68508-0.73101 0.96066-1.1518 0.15322-0.23402 0.29347-0.4773 0.41912-0.72914 0.48942-0.97792 0.76479-2.0821 0.76479-3.2504z" fill="#f55028"/>
   <path d="m8.4665 8.4663-8e-7 7.276c0.8719 0 1.7082-0.15308 2.483-0.4346 0.52829-0.19184 1.0281-0.44275 1.4914-0.74569 0.19985-0.13037 0.39296-0.27053 0.57827-0.4196 0.20696-0.16619 0.39137-0.35721 0.57877-0.54466z" fill="#ffbe19"/>
   <path d="m8.4665 8.4663-5.1448 5.1448c1.3167 1.3167 3.1355 2.1311 5.1448 2.1311z" fill="#0a8c7d"/>
   <path d="m1.1908 8.4663c1e-7 2.0092 0.81443 3.8282 2.1311 5.1448l5.1448-5.1448z" fill="#5fd2e6"/>
   <path d="m8.4665 8.4663 7.2759-1e-7c1e-6 -1.1683-0.2754-2.272-0.76479-3.2498-0.1256-0.25182-0.26585-0.49514-0.41909-0.72916-0.27551-0.42108-0.60698-0.79766-0.96117-1.1518z" fill="#c31932"/>
   <path d="m8.4665 8.4663 5.131-5.131c-0.18037-0.18038-0.3565-0.36533-0.55498-0.52606-0.18382-0.14879-0.37502-0.28871-0.57308-0.41909-0.47111-0.31125-0.98056-0.56909-1.5193-0.7648-0.77511-0.28157-1.6113-0.4351-2.4835-0.4351z" fill="#eb4178"/>
   <path d="m3.3233 3.3228 5.1432 5.1432v-7.276c-0.87221 0-1.7084 0.15353-2.4835 0.4351-0.48672 0.1767-0.94947 0.40417-1.3813 0.67592-0.45849 0.28741-0.88261 0.62475-1.2645 1.0046-0.00521 0.0052-0.00876 0.011851-0.013946 0.017042z" fill="#6914eb"/>
   <path d="m1.1908 8.4663 7.276 3e-7 -5.1432-5.1432c-1.3165 1.3168-2.1326 3.1342-2.1326 5.1432z" fill="#2d91e6"/>
  </g>
 </g>
 <style><![CDATA[.B{clip-path:url(#C)}.C{fill:#3e2723}.D{fill-opacity:.15}.E{fill-opacity:.2}]]></style>
 <style><![CDATA[.B{clip-path:url(#C)}.C{fill:#3e2723}.D{fill-opacity:.15}.E{fill-opacity:.2}]]></style>
</svg>
