<?xml version="1.0" encoding="UTF-8"?>
<svg width="64" height="64" version="1.1" xmlns="http://www.w3.org/2000/svg" xmlns:cc="http://creativecommons.org/ns#" xmlns:dc="http://purl.org/dc/elements/1.1/" xmlns:rdf="http://www.w3.org/1999/02/22-rdf-syntax-ns#">
 <metadata>
  <rdf:RDF>
   <cc:Work rdf:about="">
    <dc:format>image/svg+xml</dc:format>
    <dc:type rdf:resource="http://purl.org/dc/dcmitype/StillImage"/>
    <dc:title/>
   </cc:Work>
  </rdf:RDF>
 </metadata>
 <defs>
  <filter id="d" x="-.048462" y="-.07875" width="1.0969" height="1.1575" color-interpolation-filters="sRGB">
   <feGaussianBlur stdDeviation="0.72187499"/>
  </filter>
  <linearGradient id="linearGradient1978" x1="-59.235" x2="-59.235" y1=".7041" y2="-11.929" gradientTransform="matrix(4.1232 0 0 4.1232 275.52 59.011)" gradientUnits="userSpaceOnUse">
   <stop stop-color="#005ad7" offset="0"/>
   <stop stop-color="#0aaff0" offset="1"/>
  </linearGradient>
 </defs>
 <path d="m62 32c0 3.5964-0.63302 7.0444-1.7939 10.24-0.80695 2.2212-1.8685 4.3211-3.1518 6.2635-0.53754 0.81667-1.1155 1.6054-1.729 2.3633-1.964 2.4257-4.298 4.538-6.9183 6.2524-0.9649 0.63183-1.9678 1.2098-3.0061 1.7277-4.032 2.0178-8.5836 3.1529-13.401 3.1529s-9.3687-1.1351-13.401-3.153c-1.0384-0.51799-2.0425-1.0959-3.0074-1.7277-2.6535-1.7375-5.0154-3.883-6.9954-6.3489-0.61464-0.76407-1.1914-1.56-1.729-2.384-1.249-1.9101-2.2836-3.9711-3.0746-6.1493-1.1607-3.1948-1.7926-6.6416-1.7926-10.237 0-16.569 13.431-30 30-30 8.3168 0 15.842 3.3845 21.277 8.8504 1.5661 1.5746 2.9584 3.3233 4.1434 5.2137 1.1204 1.7804 2.0571 3.6881 2.7857 5.6949 1.161 3.1959 1.794 6.6441 1.794 10.24z" fill="url(#linearGradient1978)" stroke-width=".11719"/>
 <path d="m29.938 21c-2.42 0.0014-4.8125 2.1065-4.8125 5.5h-1.375c-1.5194 0-2.75 1.5386-2.75 3.4375v2.0625h-2.0625c-2.6579 0-4.8125 2.1546-4.8125 4.8125s1.8164 4.8125 4.125 4.8125c1.375 0 2.3966-0.70675 2.75-1.375 1.0175 1.375 3.6204 2.75 5.5 2.75 2.0254 0 4.1937-1.2017 5.5-2.75 1.0395 1.5359 2.409 2.75 4.125 2.75 2.2674 0 4.125-0.80575 5.5-2.75 1.0065 0.90337 1.397 1.3736 2.75 1.375 3.0374 0.0014 5.5-2.4626 5.5-5.5s-2.4626-5.5014-5.5-5.5c-0.98175 0-2.0804 0.62975-2.75 1.375 0-3.5186-1.9113-5.5-5.5-5.5h-1.375c0-4.125-2.4736-5.5014-4.8125-5.5zm0.6875 6.875h5.5v1.375l-4.125 1.375c-0.0014 2.013-0.0041 4.3134 0 5.1838 0.0055 1.2911-1.1289 2.5108-2.7184 2.9233-1.8562 0.48262-3.6809-0.29425-4.0782-1.7339-0.39738-1.441 0.78237-3.0002 2.64-3.4801 0.97212-0.253 1.9869-0.16363 2.7816 0.24062z" filter="url(#d)" opacity=".15" stroke-width="1.375"/>
 <path d="m29.938 21c-2.42 0.0014-4.8125 2.1065-4.8125 5.5h-1.375c-1.5194 0-2.75 1.5386-2.75 3.4375v2.0625h-2.0625c-2.6579 0-4.8125 2.1546-4.8125 4.8125s1.8164 4.8125 4.125 4.8125c1.375 0 2.3966-0.70675 2.75-1.375 1.0175 1.375 3.6204 2.75 5.5 2.75 2.0254 0 4.1937-1.2017 5.5-2.75 1.0395 1.5359 2.409 2.75 4.125 2.75 2.2674 0 4.125-0.80575 5.5-2.75 1.0065 0.90337 1.397 1.3736 2.75 1.375 3.0374 0.0014 5.5-2.4626 5.5-5.5s-2.4626-5.5014-5.5-5.5c-0.98175 0-2.0804 0.62975-2.75 1.375 0-3.5186-1.9113-5.5-5.5-5.5h-1.375c0-4.125-2.4736-5.5014-4.8125-5.5zm0.6875 6.875h5.5v1.375l-4.125 1.375c-0.0014 2.013-0.0041 4.3134 0 5.1838 0.0055 1.2911-1.1289 2.5108-2.7184 2.9233-1.8562 0.48262-3.6809-0.29425-4.0782-1.7339-0.39738-1.441 0.78237-3.0002 2.64-3.4801 0.97212-0.253 1.9869-0.16363 2.7816 0.24062z" fill="#f9f9f9" stroke-width="1.375"/>
</svg>
