<?xml version="1.0" encoding="UTF-8"?>
<svg width="64" height="64" version="1.1" viewBox="0 0 16.933 16.933" xmlns="http://www.w3.org/2000/svg" xmlns:cc="http://creativecommons.org/ns#" xmlns:dc="http://purl.org/dc/elements/1.1/" xmlns:rdf="http://www.w3.org/1999/02/22-rdf-syntax-ns#">
 <defs>
  <linearGradient id="linearGradient925" x1="32.791" x2="32.791" y1="54.857" y2="4.8769" gradientTransform="matrix(.31901 0 0 .31901 -2.1859 -.88724)" gradientUnits="userSpaceOnUse">
   <stop stop-color="#ffdc00" offset="0"/>
   <stop stop-color="#ffa814" offset="1"/>
  </linearGradient>
  <linearGradient id="linearGradient933" x1="34.203" x2="34.203" y1="51.464" y2="4.8769" gradientTransform="matrix(.31901 0 0 .31901 -2.1859 -.88724)" gradientUnits="userSpaceOnUse">
   <stop stop-color="#0bca9d" offset="0"/>
   <stop stop-color="#0ac047" offset="1"/>
  </linearGradient>
  <linearGradient id="b" x1="399.57" x2="399.57" y1="545.8" y2="517.8" gradientTransform="matrix(2.1429,0,0,2.1429,-826.36,-1107.5)" gradientUnits="userSpaceOnUse">
   <stop stop-color="#3889e9" offset="0"/>
   <stop stop-color="#5ea5fb" offset="1"/>
  </linearGradient>
 </defs>
 <metadata>
  <rdf:RDF>
   <cc:Work rdf:about="">
    <dc:format>image/svg+xml</dc:format>
    <dc:type rdf:resource="http://purl.org/dc/dcmitype/StillImage"/>
    <dc:title/>
   </cc:Work>
  </rdf:RDF>
 </metadata>
 <g transform="translate(.19844 -.17954)">
  <path d="m12.91 2.2262-0.25546-1.5577s-0.16823 1.5763-2.025 3.2647c-0.8536 0.77883-2.3614 1.6324-2.3614 1.6324l3.5451 6.1371s0.33646 1.0156-0.11215 1.9689c-0.52336 1.1153-1.5763 1.8006-3.6013 1.8567-1.8006 0.049845-3.0405-1.0156-3.2647-2.4736-0.2243-1.4455 0.71652-2.5608 1.8006-2.9845 1.0156-0.39254 2.7041-0.2243 2.7041-0.2243l-3.9378-6.6417 0.056075-0.67292s1.2648 0.162 3.4893-0.28038c1.0156-0.20561 1.8692-0.54206 2.5047-0.8536-0.97198-0.42367-2.0499-0.66044-3.1776-0.66044-4.38 0-7.9379 3.5515-7.9379 7.9379 0 4.38 3.5515 7.9379 7.9379 7.9379 4.38 0 7.9379-3.5515 7.9379-7.9379-0.012461-2.6605-1.3084-5.0033-3.3024-6.4487z" fill="url(#linearGradient925)" stroke-width=".31901" p-id="736"/>
  <path d="m12.655 0.66853s-1.4642 1.1278-3.7136 1.5763c-2.2243 0.44237-3.4893 0.28038-3.4893 0.28038l-0.056075 0.67292 3.9378 6.6481s-1.6885-0.16823-2.7041 0.2243c-1.0841 0.41745-2.025 1.539-1.8006 2.9845 0.2243 1.4642 1.4642 2.5234 3.2647 2.4736 2.025-0.05608 3.0779-0.74144 3.6013-1.8567 0.44859-0.95951 0.11215-1.9689 0.11215-1.9689l-3.5451-6.1371s1.5078-0.8536 2.3614-1.6324c1.8629-1.6885 2.0312-3.2647 2.0312-3.2647z" fill="url(#linearGradient933)" stroke-width=".31901" p-id="737"/>
  <g transform="matrix(.26458 0 0 .26458 -.21043 .20781)" stroke-width="1.5715">
   <circle cx="32.02" cy="32.044" r="30.001" fill-opacity="0"/>
   <circle cx="32.02" cy="32.044" r="0" fill="url(#b)"/>
  </g>
 </g>
</svg>
