<?xml version="1.0" encoding="UTF-8" standalone="no"?>
<svg
   xmlns:dc="http://purl.org/dc/elements/1.1/"
   xmlns:cc="http://creativecommons.org/ns#"
   xmlns:rdf="http://www.w3.org/1999/02/22-rdf-syntax-ns#"
   xmlns:svg="http://www.w3.org/2000/svg"
   xmlns="http://www.w3.org/2000/svg"
   xmlns:xlink="http://www.w3.org/1999/xlink"
   xmlns:sodipodi="http://sodipodi.sourceforge.net/DTD/sodipodi-0.dtd"
   xmlns:inkscape="http://www.inkscape.org/namespaces/inkscape"
   inkscape:version="1.0 (4035a4fb49, 2020-05-01)"
   sodipodi:docname="rubymine.svg"
   id="svg41"
   viewBox="0 0 16.933 16.933"
   version="1.1"
   height="64"
   width="64">
  <metadata
     id="metadata45">
    <rdf:RDF>
      <cc:Work
         rdf:about="">
        <dc:format>image/svg+xml</dc:format>
        <dc:type
           rdf:resource="http://purl.org/dc/dcmitype/StillImage" />
        <dc:title></dc:title>
      </cc:Work>
    </rdf:RDF>
  </metadata>
  <sodipodi:namedview
     inkscape:current-layer="svg41"
     inkscape:window-maximized="1"
     inkscape:window-y="0"
     inkscape:window-x="0"
     inkscape:cy="33.763193"
     inkscape:cx="-4.8116476"
     inkscape:zoom="4.5078057"
     showgrid="false"
     id="namedview43"
     inkscape:window-height="985"
     inkscape:window-width="1920"
     inkscape:pageshadow="2"
     inkscape:pageopacity="0"
     guidetolerance="10"
     gridtolerance="10"
     objecttolerance="10"
     borderopacity="1"
     bordercolor="#666666"
     pagecolor="#ffffff" />
  <defs
     id="defs15">
    <filter
       color-interpolation-filters="sRGB"
       height="1.12"
       width="1.12"
       y="-.06"
       x="-.06"
       id="h">
      <feGaussianBlur
         id="feGaussianBlur2"
         stdDeviation="0.85" />
    </filter>
    <linearGradient
       gradientUnits="userSpaceOnUse"
       gradientTransform="matrix(0.26458,0,0,0.26458,-21.071002,0)"
       y2="49"
       y1="15"
       x2="32"
       x1="32"
       id="g">
      <stop
         id="stop5"
         offset="0"
         stop-color="#303030" />
      <stop
         id="stop7"
         offset="1"
         stop-color="#424242" />
    </linearGradient>
    <linearGradient
       gradientUnits="userSpaceOnUse"
       gradientTransform="matrix(0.99996,0,0,0.99996,-21.070964,0.0083453)"
       y2="1.852"
       y1="15.081"
       x2="7.9373"
       x1="7.9373"
       id="linearGradient862-3">
      <stop
         id="stop10"
         offset="0"
         stop-color="#ff483d" />
      <stop
         id="stop12"
         offset="1"
         stop-color="#ffd570" />
    </linearGradient>
    <linearGradient
       gradientTransform="matrix(0.26457812,0,0,0.26457812,0,2.8331112e-5)"
       inkscape:collect="always"
       xlink:href="#linearGradient995"
       id="linearGradient997"
       x1="2.038218"
       y1="61.669224"
       x2="62.401379"
       y2="2.7041159"
       gradientUnits="userSpaceOnUse" />
    <linearGradient
       inkscape:collect="always"
       id="linearGradient995">
      <stop
         style="stop-color:#ff483d;stop-opacity:1"
         offset="0"
         id="stop991" />
      <stop
         style="stop-color:#ffd570;stop-opacity:1"
         offset="1"
         id="stop993" />
    </linearGradient>
    <linearGradient
       y2="49"
       x2="32"
       y1="15"
       x1="32"
       gradientTransform="matrix(0.26458,0,0,0.26458,-21.071002,0)"
       gradientUnits="userSpaceOnUse"
       id="linearGradient898"
       xlink:href="#g"
       inkscape:collect="always" />
  </defs>
  <path
     id="rect980"
     style="opacity:1;fill:url(#linearGradient997);fill-opacity:1;stroke:none;stroke-width:0.514869;stroke-linecap:round"
     d="m 13.83971,0.49817933 c -0.08053,-0.00631 -0.163068,-0.0046 -0.246492,0.00568 L 1.560081,1.9864312 C 0.892683,2.0686652 0.421602,2.6724122 0.503835,3.3398102 L 1.986403,15.372947 c 0.08223,0.667398 0.685981,1.138479 1.353379,1.056246 l 12.033137,-1.482568 c 0.667398,-0.08223 1.138479,-0.685981 1.056246,-1.353379 L 14.946597,1.5601091 C 14.874643,0.97613573 14.403451,0.54238323 13.83971,0.49817933 Z" />
  <g
     transform="translate(21.071045)"
     id="g896">
    <rect
       id="rect884"
       style="paint-order:stroke fill markers"
       opacity="0.5"
       filter="url(#h)"
       fill-rule="evenodd"
       fill="#303030"
       ry="5"
       height="34"
       width="34"
       y="15.16"
       x="15.16"
       transform="matrix(0.26458,0,0,0.26458,-21.113438,-0.04234)" />
    <rect
       id="rect886"
       style="fill:url(#linearGradient898);paint-order:stroke fill markers"
       stroke-width="0.26458"
       fill-rule="evenodd"
       fill="url(#g)"
       ry="1.3229001"
       height="8.9956999"
       width="8.9956999"
       y="3.9686999"
       x="-17.102303" />
    <path
       id="path888"
       stroke-width="0.26457"
       fill="#f9f9f9"
       d="m -12.627502,5.4294 h 0.62117 l 0.93176,1.553 0.93176,-1.553 h 0.6211702 V 8.8459 H -10.142812 V 6.6718 l -0.93176,1.553 -0.93176,-1.553 v 2.1741 h -0.62117 m -1.8636,-3.4165 c 0.62117,0 1.2423,0.48368 1.2423,1.0871 0,0.46589 -0.29258,0.74855 -0.68514,0.97105 l 0.68514,1.3583 h -0.62117 l -0.62117,-1.2423 h -0.62117 v 1.2423 h -0.62117 v -3.4165 z m 0,1.553 c 0.48459,0 0.62117,-0.22126 0.6298,-0.46589 -0.0086,-0.21671 -0.13728,-0.46589 -0.6298,-0.46589 h -0.62117 v 0.93176 z" />
    <path
       id="path890"
       stroke-width="0.26457"
       fill="#f9f9f9"
       d="m -16.044002,11.02 h 3.1059 v 0.62118 h -3.1059 z" />
  </g>
</svg>
