<?xml version="1.0" encoding="UTF-8" standalone="no"?>
<svg
   xmlns:dc="http://purl.org/dc/elements/1.1/"
   xmlns:cc="http://creativecommons.org/ns#"
   xmlns:rdf="http://www.w3.org/1999/02/22-rdf-syntax-ns#"
   xmlns:svg="http://www.w3.org/2000/svg"
   xmlns="http://www.w3.org/2000/svg"
   xmlns:sodipodi="http://sodipodi.sourceforge.net/DTD/sodipodi-0.dtd"
   xmlns:inkscape="http://www.inkscape.org/namespaces/inkscape"
   width="64"
   height="64"
   version="1.1"
   id="svg49"
   sodipodi:docname="slack.svg"
   inkscape:version="1.0.2 (e86c870879, 2021-01-15)">
  <metadata
     id="metadata53">
    <rdf:RDF>
      <cc:Work
         rdf:about="">
        <dc:format>image/svg+xml</dc:format>
        <dc:type
           rdf:resource="http://purl.org/dc/dcmitype/StillImage" />
        <dc:title></dc:title>
      </cc:Work>
    </rdf:RDF>
  </metadata>
  <sodipodi:namedview
     pagecolor="#ffffff"
     bordercolor="#666666"
     borderopacity="1"
     objecttolerance="10"
     gridtolerance="10"
     guidetolerance="10"
     inkscape:pageopacity="0"
     inkscape:pageshadow="2"
     inkscape:window-width="1920"
     inkscape:window-height="936"
     id="namedview51"
     showgrid="false"
     inkscape:zoom="4.2813106"
     inkscape:cx="46.992344"
     inkscape:cy="31.656779"
     inkscape:window-x="0"
     inkscape:window-y="38"
     inkscape:window-maximized="1"
     inkscape:current-layer="svg49" />
  <defs
     id="defs25">
    <linearGradient
       id="b"
       x1="408.25"
       x2="407.94"
       y1="547.6"
       y2="498.89"
       gradientTransform="matrix(1.3276,0,0,1.3276,-503.21157,-686.8097)"
       gradientUnits="userSpaceOnUse">
      <stop
         stop-color="#fff"
         offset="0"
         id="stop2" />
      <stop
         stop-color="#e6e6e6"
         offset="1"
         id="stop4" />
    </linearGradient>
    <filter
       id="d"
       x="-.058883"
       y="-.061161"
       width="1.1178"
       height="1.1223"
       color-interpolation-filters="sRGB">
      <feGaussianBlur
         stdDeviation="10.562379"
         id="feGaussianBlur7" />
    </filter>
    <filter
       id="c"
       x="-.036"
       y="-.036"
       width="1.072"
       height="1.072"
       color-interpolation-filters="sRGB">
      <feGaussianBlur
         stdDeviation="0.88972449"
         id="feGaussianBlur10" />
    </filter>
    <filter
       id="g"
       x="-.13"
       y="-.13"
       width="1.26"
       height="1.26"
       color-interpolation-filters="sRGB">
      <feGaussianBlur
         stdDeviation="0.84782609"
         id="feGaussianBlur13" />
    </filter>
    <filter
       id="f"
       x="-.13"
       y="-.13"
       width="1.26"
       height="1.26"
       color-interpolation-filters="sRGB">
      <feGaussianBlur
         stdDeviation="0.84782609"
         id="feGaussianBlur16" />
    </filter>
    <filter
       id="e"
       x="-.13"
       y="-.13"
       width="1.26"
       height="1.26"
       color-interpolation-filters="sRGB">
      <feGaussianBlur
         stdDeviation="0.84782609"
         id="feGaussianBlur19" />
    </filter>
    <filter
       id="a"
       x="-.13"
       y="-.13"
       width="1.26"
       height="1.26"
       color-interpolation-filters="sRGB">
      <feGaussianBlur
         stdDeviation="0.84782609"
         id="feGaussianBlur22" />
    </filter>
    <linearGradient
       gradientUnits="userSpaceOnUse"
       y2="13.758"
       y1="3.175"
       x2="6.6145"
       x1="6.6145"
       id="f-3">
      <stop
         id="stop2-6"
         offset="0"
         stop-color="#15c4fc" />
      <stop
         id="stop4-7"
         offset="1"
         stop-color="#1863ee" />
    </linearGradient>
    <filter
       color-interpolation-filters="sRGB"
       height="1.12"
       width="1.12"
       y="-.06"
       x="-.06"
       id="k">
      <feGaussianBlur
         id="feGaussianBlur7-5"
         stdDeviation="0.264575" />
    </filter>
    <filter
       color-interpolation-filters="sRGB"
       height="1.1007"
       width="1.1484"
       y="-.050355"
       x="-.074214"
       id="i">
      <feGaussianBlur
         id="feGaussianBlur10-3"
         stdDeviation="0.089997363" />
    </filter>
    <linearGradient
       gradientTransform="translate(22.63352)"
       gradientUnits="userSpaceOnUse"
       y2="1.852"
       y1="15.081"
       x2="7.9373"
       x1="7.9373"
       id="linearGradient862">
      <stop
         id="stop13"
         offset="0"
         stop-color="#f1efeb" />
      <stop
         id="stop15"
         offset="1"
         stop-color="#fff" />
    </linearGradient>
    <linearGradient
       id="b-5"
       x1="408.25"
       x2="407.94"
       y1="547.6"
       y2="498.89"
       gradientTransform="matrix(1.3276,0,0,1.3276,-507.38576,-679.24881)"
       gradientUnits="userSpaceOnUse">
      <stop
         stop-color="#fff"
         offset="0"
         id="stop4-3" />
      <stop
         stop-color="#f5f5f5"
         offset="1"
         id="stop6" />
    </linearGradient>
    <filter
       id="d-6"
       x="-.058883"
       y="-.061161"
       width="1.1178"
       height="1.1223"
       color-interpolation-filters="sRGB">
      <feGaussianBlur
         stdDeviation="10.562379"
         id="feGaussianBlur9" />
    </filter>
    <filter
       id="c-2"
       x="-.036"
       y="-.036"
       width="1.072"
       height="1.072"
       color-interpolation-filters="sRGB">
      <feGaussianBlur
         stdDeviation="0.88972449"
         id="feGaussianBlur12" />
    </filter>
    <filter
       x="-.05999"
       y="-.06001"
       width="1.12"
       height="1.12"
       color-interpolation-filters="sRGB"
       id="filter17">
      <feGaussianBlur
         stdDeviation="0.21163584"
         id="feGaussianBlur15" />
    </filter>
    <linearGradient
       id="linearGradient862-6"
       x1="31.174"
       x2="58.826"
       y1="21.203"
       y2="21.203"
       gradientTransform="translate(-15,3)"
       gradientUnits="userSpaceOnUse">
      <stop
         stop-color="#ff0ae7"
         offset="0"
         id="stop19" />
      <stop
         stop-color="#ffb814"
         offset="1"
         id="stop21" />
    </linearGradient>
    <linearGradient
       id="linearGradient880"
       x1="15.938"
       x2="44.062"
       y1="44.845"
       y2="44.845"
       gradientTransform="rotate(2.3768,118.86,41.374)"
       gradientUnits="userSpaceOnUse">
      <stop
         stop-color="#8638fd"
         offset="0"
         id="stop24" />
      <stop
         stop-color="#4ec2fa"
         offset="1"
         id="stop26" />
    </linearGradient>
    <filter
       id="filter928"
       x="-.063061"
       y="-.057222"
       width="1.1261"
       height="1.1144"
       color-interpolation-filters="sRGB">
      <feGaussianBlur
         stdDeviation="0.7391235"
         id="feGaussianBlur29" />
    </filter>
    <filter
       color-interpolation-filters="sRGB"
       height="1.1223"
       width="1.1178"
       y="-.061161"
       x="-.058883"
       id="d-3">
      <feGaussianBlur
         id="feGaussianBlur864"
         stdDeviation="10.562379" />
    </filter>
    <filter
       color-interpolation-filters="sRGB"
       height="1.12"
       width="1.12"
       y="-.06001"
       x="-.05999"
       id="filter883">
      <feGaussianBlur
         id="feGaussianBlur867"
         stdDeviation="0.21163584" />
    </filter>
    <linearGradient
       gradientUnits="userSpaceOnUse"
       gradientTransform="translate(0.25273797,0.81327915)"
       y2="62"
       y1="2"
       x2="32"
       x1="32"
       id="a-3">
      <stop
         id="stop870"
         offset="0"
         stop-color="#f5faff" />
      <stop
         id="stop872"
         offset="1"
         stop-color="#cfdef0" />
    </linearGradient>
  </defs>
  <circle
     id="circle877"
     style="fill:url(#a-3);stroke-width:1;paint-order:stroke markers fill"
     r="30"
     cy="32"
     cx="32" />
  <g
     stroke-width="1.3043"
     id="g47">
    <path
       d="m36.565 15.043a3.2609 3.2609 0 0 0-3.2609 3.2609v9.1304a3.2609 3.2609 0 0 0 3.2609 3.2609 3.2609 3.2609 0 0 0 3.2609-3.2609v-9.1304a3.2609 3.2609 0 0 0-3.2609-3.2609zm9.1304 9.1304a3.2609 3.2609 0 0 0-3.2609 3.2609v3.2609h3.2609a3.2609 3.2609 0 0 0 3.2609-3.2609 3.2609 3.2609 0 0 0-3.2609-3.2609z"
       filter="url(#g)"
       opacity=".15"
       id="path31" />
    <path
       d="m36.565 15.043a3.2609 3.2609 0 0 0-3.2609 3.2609v9.1304a3.2609 3.2609 0 0 0 3.2609 3.2609 3.2609 3.2609 0 0 0 3.2609-3.2609v-9.1304a3.2609 3.2609 0 0 0-3.2609-3.2609zm9.1304 9.1304a3.2609 3.2609 0 0 0-3.2609 3.2609v3.2609h3.2609a3.2609 3.2609 0 0 0 3.2609-3.2609 3.2609 3.2609 0 0 0-3.2609-3.2609z"
       fill="#2eb67d"
       id="path33" />
    <path
       d="m48.957 36.565a3.2609 3.2609 0 0 0-3.2609-3.2609h-9.1304a3.2609 3.2609 0 0 0-3.2609 3.2609 3.2609 3.2609 0 0 0 3.2609 3.2609h9.1304a3.2609 3.2609 0 0 0 3.2609-3.2609zm-9.1304 9.1304a3.2609 3.2609 0 0 0-3.2609-3.2609h-3.2609v3.2609a3.2609 3.2609 0 0 0 3.2609 3.2609 3.2609 3.2609 0 0 0 3.2609-3.2609z"
       filter="url(#f)"
       opacity=".15"
       id="path35" />
    <path
       d="m48.957 36.565a3.2609 3.2609 0 0 0-3.2609-3.2609h-9.1304a3.2609 3.2609 0 0 0-3.2609 3.2609 3.2609 3.2609 0 0 0 3.2609 3.2609h9.1304a3.2609 3.2609 0 0 0 3.2609-3.2609zm-9.1304 9.1304a3.2609 3.2609 0 0 0-3.2609-3.2609h-3.2609v3.2609a3.2609 3.2609 0 0 0 3.2609 3.2609 3.2609 3.2609 0 0 0 3.2609-3.2609z"
       fill="#ecb22e"
       id="path37" />
    <path
       d="m27.435 48.957a3.2609 3.2609 0 0 0 3.2609-3.2609v-9.1304a3.2609 3.2609 0 0 0-3.2609-3.2609 3.2609 3.2609 0 0 0-3.2609 3.2609v9.1304a3.2609 3.2609 0 0 0 3.2609 3.2609zm-9.1304-9.1304a3.2609 3.2609 0 0 0 3.2609-3.2609v-3.2609h-3.2609a3.2609 3.2609 0 0 0-3.2609 3.2609 3.2609 3.2609 0 0 0 3.2609 3.2609z"
       filter="url(#e)"
       opacity=".15"
       id="path39" />
    <path
       d="m27.435 48.957a3.2609 3.2609 0 0 0 3.2609-3.2609v-9.1304a3.2609 3.2609 0 0 0-3.2609-3.2609 3.2609 3.2609 0 0 0-3.2609 3.2609v9.1304a3.2609 3.2609 0 0 0 3.2609 3.2609zm-9.1304-9.1304a3.2609 3.2609 0 0 0 3.2609-3.2609v-3.2609h-3.2609a3.2609 3.2609 0 0 0-3.2609 3.2609 3.2609 3.2609 0 0 0 3.2609 3.2609z"
       fill="#d6285e"
       id="path41" />
    <path
       d="m15.043 27.435a3.2609 3.2609 0 0 0 3.2609 3.2609h9.1304a3.2609 3.2609 0 0 0 3.2609-3.2609 3.2609 3.2609 0 0 0-3.2609-3.2609h-9.1304a3.2609 3.2609 0 0 0-3.2609 3.2609zm9.1304-9.1304a3.2609 3.2609 0 0 0 3.2609 3.2609h3.2609v-3.2609a3.2609 3.2609 0 0 0-3.2609-3.2609 3.2609 3.2609 0 0 0-3.2609 3.2609z"
       filter="url(#a)"
       opacity=".15"
       id="path43" />
    <path
       d="m15.043 27.435a3.2609 3.2609 0 0 0 3.2609 3.2609h9.1304a3.2609 3.2609 0 0 0 3.2609-3.2609 3.2609 3.2609 0 0 0-3.2609-3.2609h-9.1304a3.2609 3.2609 0 0 0-3.2609 3.2609zm9.1304-9.1304a3.2609 3.2609 0 0 0 3.2609 3.2609h3.2609v-3.2609a3.2609 3.2609 0 0 0-3.2609-3.2609 3.2609 3.2609 0 0 0-3.2609 3.2609z"
       fill="#36c5f0"
       id="path45" />
  </g>
</svg>
