<?xml version="1.0" encoding="UTF-8" standalone="no"?>
<svg
   xmlns:dc="http://purl.org/dc/elements/1.1/"
   xmlns:cc="http://creativecommons.org/ns#"
   xmlns:rdf="http://www.w3.org/1999/02/22-rdf-syntax-ns#"
   xmlns:svg="http://www.w3.org/2000/svg"
   xmlns="http://www.w3.org/2000/svg"
   xmlns:xlink="http://www.w3.org/1999/xlink"
   xmlns:sodipodi="http://sodipodi.sourceforge.net/DTD/sodipodi-0.dtd"
   xmlns:inkscape="http://www.inkscape.org/namespaces/inkscape"
   width="64"
   height="64"
   version="1.1"
   id="svg33"
   sodipodi:docname="slingscold.svg"
   inkscape:version="1.0.1 (3bc2e813f5, 2020-09-07)">
  <metadata
     id="metadata37">
    <rdf:RDF>
      <cc:Work
         rdf:about="">
        <dc:format>image/svg+xml</dc:format>
        <dc:type
           rdf:resource="http://purl.org/dc/dcmitype/StillImage" />
        <dc:title></dc:title>
      </cc:Work>
    </rdf:RDF>
  </metadata>
  <sodipodi:namedview
     pagecolor="#ffffff"
     bordercolor="#666666"
     borderopacity="1"
     objecttolerance="10"
     gridtolerance="10"
     guidetolerance="10"
     inkscape:pageopacity="0"
     inkscape:pageshadow="2"
     inkscape:window-width="1920"
     inkscape:window-height="1004"
     id="namedview35"
     showgrid="false"
     inkscape:zoom="1.4142136"
     inkscape:cx="38.665715"
     inkscape:cy="102.74738"
     inkscape:window-x="0"
     inkscape:window-y="0"
     inkscape:window-maximized="1"
     inkscape:current-layer="svg33" />
  <defs
     id="defs15">
    <linearGradient
       inkscape:collect="always"
       id="linearGradient1136">
      <stop
         style="stop-color:#4f7b87;stop-opacity:1"
         offset="0"
         id="stop1132" />
      <stop
         style="stop-color:#48747f;stop-opacity:1"
         offset="1"
         id="stop1134" />
    </linearGradient>
    <linearGradient
       inkscape:collect="always"
       id="linearGradient1124">
      <stop
         style="stop-color:#446e7c;stop-opacity:1"
         offset="0"
         id="stop1120" />
      <stop
         style="stop-color:#385b66;stop-opacity:1"
         offset="1"
         id="stop1122" />
    </linearGradient>
    <linearGradient
       inkscape:collect="always"
       id="linearGradient1043">
      <stop
         style="stop-color:#eaa40f;stop-opacity:1"
         offset="0"
         id="stop1039" />
      <stop
         style="stop-color:#eb7438;stop-opacity:1"
         offset="1"
         id="stop1041" />
    </linearGradient>
    <linearGradient
       inkscape:collect="always"
       id="linearGradient1027">
      <stop
         style="stop-color:#ffffff;stop-opacity:1"
         offset="0"
         id="stop1023" />
      <stop
         style="stop-color:#ebebeb;stop-opacity:1"
         offset="1"
         id="stop1025" />
    </linearGradient>
    <linearGradient
       id="b"
       x1="102.3"
       x2="102.3"
       y1="-.42687"
       y2="199.17"
       gradientTransform="matrix(0.3000024,0,0,0.3000024,1.9997604,1.9998801)"
       gradientUnits="userSpaceOnUse">
      <stop
         stop-color="#fff"
         offset="0"
         id="stop2"
         style="stop-color:#446e7c;stop-opacity:1" />
      <stop
         stop-color="#d7d7d7"
         offset="1"
         id="stop4"
         style="stop-color:#385a65;stop-opacity:1" />
    </linearGradient>
    <linearGradient
       id="a"
       x1="99.036"
       x2="99.036"
       y1="-.50472"
       y2="199.84"
       gradientTransform="matrix(0.225,0,0,0.225,9.5000012,9.5001017)"
       gradientUnits="userSpaceOnUse">
      <stop
         stop-color="#cbe2e7"
         offset="0"
         id="stop7"
         style="stop-color:#4f7b88;stop-opacity:1" />
      <stop
         stop-color="#797979"
         offset="1"
         id="stop9"
         style="stop-color:#48747f;stop-opacity:1" />
    </linearGradient>
    <filter
       id="c"
       x="-.036"
       y="-.036"
       width="1.072"
       height="1.072"
       color-interpolation-filters="sRGB">
      <feGaussianBlur
         stdDeviation="15.3"
         id="feGaussianBlur12" />
    </filter>
    <linearGradient
       id="b-3"
       x1="410.79"
       x2="410.79"
       y1="546.47"
       y2="501.28"
       gradientTransform="matrix(1.2084,0,0,1.2084,-461.94,-601.1)"
       gradientUnits="userSpaceOnUse">
      <stop
         stop-color="#cfdef0"
         offset="0"
         id="stop878" />
      <stop
         stop-color="#f5faff"
         offset="1"
         id="stop880" />
    </linearGradient>
    <linearGradient
       id="linearGradient905"
       x1="25.093"
       x2="25.093"
       y1="31.228"
       y2="4.6139"
       gradientUnits="userSpaceOnUse">
      <stop
         stop-color="#f5501e"
         offset="0"
         id="stop883" />
      <stop
         stop-color="#ff640a"
         offset="1"
         id="stop885" />
    </linearGradient>
    <linearGradient
       id="linearGradient913"
       x1="26.502"
       x2="26.502"
       y1="58.559"
       y2="33.547"
       gradientUnits="userSpaceOnUse">
      <stop
         stop-color="#64c82d"
         offset="0"
         id="stop888" />
      <stop
         stop-color="#87eb32"
         offset="1"
         id="stop890" />
    </linearGradient>
    <linearGradient
       id="linearGradient921"
       x1="42.579"
       x2="42.579"
       y1="58.516"
       y2="32.964"
       gradientUnits="userSpaceOnUse">
      <stop
         stop-color="#1973d2"
         offset="0"
         id="stop893" />
      <stop
         stop-color="#1e87e6"
         offset="1"
         id="stop895" />
    </linearGradient>
    <filter
       id="filter1025"
       x="-.12462"
       y="-.12462"
       width="1.2492"
       height="1.2492"
       color-interpolation-filters="sRGB">
      <feGaussianBlur
         stdDeviation="1.3487305"
         id="feGaussianBlur898" />
    </filter>
    <filter
       id="filter1029"
       x="-.12462"
       y="-.12462"
       width="1.2492"
       height="1.2492"
       color-interpolation-filters="sRGB">
      <feGaussianBlur
         stdDeviation="1.3487305"
         id="feGaussianBlur901" />
    </filter>
    <filter
       id="filter1033"
       x="-.12462"
       y="-.12462"
       width="1.2492"
       height="1.2492"
       color-interpolation-filters="sRGB">
      <feGaussianBlur
         stdDeviation="1.3487305"
         id="feGaussianBlur904" />
    </filter>
    <filter
       id="filter1139"
       x="-.2494"
       y="-.18634"
       width="1.4988"
       height="1.3727"
       color-interpolation-filters="sRGB">
      <feGaussianBlur
         stdDeviation="0.77642176"
         id="feGaussianBlur907" />
    </filter>
    <filter
       id="filter1143"
       x="-.23972"
       y="-.18634"
       width="1.4794"
       height="1.3727"
       color-interpolation-filters="sRGB">
      <feGaussianBlur
         stdDeviation="0.77642176"
         id="feGaussianBlur910" />
    </filter>
    <filter
       id="filter1147"
       x="-.22342"
       y="-.18634"
       width="1.4468"
       height="1.3727"
       color-interpolation-filters="sRGB">
      <feGaussianBlur
         stdDeviation="0.77642176"
         id="feGaussianBlur913" />
    </filter>
    <linearGradient
       inkscape:collect="always"
       xlink:href="#linearGradient1027"
       id="linearGradient1029"
       x1="-25.740234"
       y1="6.9628906"
       x2="-25.740234"
       y2="42.028233"
       gradientUnits="userSpaceOnUse" />
    <linearGradient
       inkscape:collect="always"
       xlink:href="#linearGradient1043"
       id="linearGradient1037"
       x1="-25.966347"
       y1="41.233616"
       x2="-25.966347"
       y2="51.820198"
       gradientUnits="userSpaceOnUse" />
    <filter
       inkscape:collect="always"
       style="color-interpolation-filters:sRGB"
       id="filter1059"
       x="-0.071113836"
       width="1.1422277"
       y="-0.036225708"
       height="1.0724514">
      <feGaussianBlur
         inkscape:collect="always"
         stdDeviation="0.67784644"
         id="feGaussianBlur1061" />
    </filter>
    <linearGradient
       inkscape:collect="always"
       xlink:href="#linearGradient1124"
       id="linearGradient1126"
       x1="-60.139481"
       y1="1.9809531"
       x2="-60.139481"
       y2="61.71891"
       gradientUnits="userSpaceOnUse"
       gradientTransform="translate(90.891106)" />
    <linearGradient
       inkscape:collect="always"
       xlink:href="#linearGradient1136"
       id="linearGradient1130"
       gradientUnits="userSpaceOnUse"
       x1="-60.139481"
       y1="1.9809531"
       x2="-60.139481"
       y2="61.71891"
       gradientTransform="matrix(0.75,0,0,0.75,76.168331,8)" />
  </defs>
  <circle
     style="opacity:1;fill:url(#linearGradient1126);fill-opacity:1;stroke-width:2.24178;stroke-linecap:round"
     id="path1118"
     cx="32"
     cy="32"
     r="30" />
  <circle
     style="opacity:1;fill:url(#linearGradient1130);fill-opacity:1;stroke-width:1.68133;stroke-linecap:round"
     id="circle1128"
     cx="32"
     cy="32"
     r="22.5" />
  <g
     id="g1053"
     transform="matrix(1.1133823,0,0,1.1133823,60.738699,-0.75235855)"
     style="fill:#000000;fill-opacity:1;opacity:0.3;filter:url(#filter1059)">
    <path
       id="path1049"
       style="opacity:1;fill:#000000;fill-opacity:1;stroke-width:1.00001"
       d="m -23.650391,41.228516 c 0,0 -1.097946,2.40035 -2.294921,4.232422 0,0 -1.220942,-2.230432 -2.521485,-4.173829 0,0 -2.475915,4.064959 2.390625,10.583985 2.562368,-2.562368 4.20644,-7.602989 2.425781,-10.642578 z" />
    <path
       id="path1051"
       style="opacity:1;fill:#000000;fill-opacity:1;stroke-width:1.00001"
       d="m -25.740234,6.9628906 c -3.650299,1.7050801 -8.766813,11.8010104 -6.494141,21.7773434 -7.266864,4.646903 -4.498047,13.273438 -4.498047,13.273438 2.617179,-1.974581 6.667804,-11.52907 7.548828,-3.292969 2.605751,0.868583 6.548828,0.128906 6.548828,0.128906 1.185422,-7.665524 4.970972,0.181668 7.728516,3.175782 2.479056,-9.52276 -4.503906,-13.089844 -4.503906,-13.089844 C -17.1514,15.587478 -23.747025,8.3788169 -25.740234,6.9628906 Z m -0.123047,9.9082034 c 0.01693,-1.43e-4 0.03385,-1.43e-4 0.05078,0 1.656854,0 3,1.343146 3,3 0,1.656854 -1.343146,3 -3,3 -1.656854,0 -3,-1.343146 -3,-3 -2.35e-4,-1.637224 1.312229,-2.972287 2.949219,-3 z m -1.072266,23.564453 h 2.408203 z" />
  </g>
  <g
     id="g1047"
     transform="matrix(1.1133823,0,0,1.1133823,60.738699,-0.75235855)">
    <path
       id="path25"
       style="opacity:1;fill:url(#linearGradient1037);fill-opacity:1;stroke-width:1.00001"
       d="m -23.650391,41.228516 c 0,0 -1.097946,2.40035 -2.294921,4.232422 0,0 -1.220942,-2.230432 -2.521485,-4.173829 0,0 -2.475915,4.064959 2.390625,10.583985 2.562368,-2.562368 4.20644,-7.602989 2.425781,-10.642578 z" />
    <path
       id="path1020"
       style="opacity:1;fill:url(#linearGradient1029);fill-opacity:1;stroke-width:1.00001"
       d="m -25.740234,6.9628906 c -3.650299,1.7050801 -8.766813,11.8010104 -6.494141,21.7773434 -7.266864,4.646903 -4.498047,13.273438 -4.498047,13.273438 2.617179,-1.974581 6.667804,-11.52907 7.548828,-3.292969 2.605751,0.868583 6.548828,0.128906 6.548828,0.128906 1.185422,-7.665524 4.970972,0.181668 7.728516,3.175782 2.479056,-9.52276 -4.503906,-13.089844 -4.503906,-13.089844 C -17.1514,15.587478 -23.747025,8.3788169 -25.740234,6.9628906 Z m -0.123047,9.9082034 c 0.01693,-1.43e-4 0.03385,-1.43e-4 0.05078,0 1.656854,0 3,1.343146 3,3 0,1.656854 -1.343146,3 -3,3 -1.656854,0 -3,-1.343146 -3,-3 -2.35e-4,-1.637224 1.312229,-2.972287 2.949219,-3 z m -1.072266,23.564453 h 2.408203 z" />
  </g>
</svg>
