<?xml version="1.0" encoding="UTF-8" standalone="no"?>
<svg
   xmlns:dc="http://purl.org/dc/elements/1.1/"
   xmlns:cc="http://creativecommons.org/ns#"
   xmlns:rdf="http://www.w3.org/1999/02/22-rdf-syntax-ns#"
   xmlns:svg="http://www.w3.org/2000/svg"
   xmlns="http://www.w3.org/2000/svg"
   xmlns:sodipodi="http://sodipodi.sourceforge.net/DTD/sodipodi-0.dtd"
   xmlns:inkscape="http://www.inkscape.org/namespaces/inkscape"
   inkscape:version="1.0 (4035a4fb49, 2020-05-01)"
   height="64"
   width="64"
   sodipodi:docname="spotify-client.svg"
   id="svg45"
   version="1.1"
   viewBox="0 0 64 64">
  <metadata
     id="metadata49">
    <rdf:RDF>
      <cc:Work
         rdf:about="">
        <dc:format>image/svg+xml</dc:format>
        <dc:type
           rdf:resource="http://purl.org/dc/dcmitype/StillImage" />
        <dc:title></dc:title>
      </cc:Work>
    </rdf:RDF>
  </metadata>
  <sodipodi:namedview
     inkscape:current-layer="svg45"
     inkscape:window-maximized="1"
     inkscape:window-y="0"
     inkscape:window-x="0"
     inkscape:cy="14.139366"
     inkscape:cx="-67.693767"
     inkscape:zoom="3.0604465"
     showgrid="false"
     id="namedview47"
     inkscape:window-height="1000"
     inkscape:window-width="1920"
     inkscape:pageshadow="2"
     inkscape:pageopacity="0"
     guidetolerance="10"
     gridtolerance="10"
     objecttolerance="10"
     borderopacity="1"
     bordercolor="#666666"
     pagecolor="#ffffff" />
  <defs
     id="defs7">
    <linearGradient
       gradientUnits="userSpaceOnUse"
       x2="47"
       x1="1"
       id="linearGradient4193">
      <stop
         id="stop2"
         style="stop-color:#2ebd59;stop-opacity:1" />
      <stop
         id="stop4"
         style="stop-color:#33cd61;stop-opacity:1"
         offset="1" />
    </linearGradient>
    <linearGradient
       id="c"
       x1="520.03003"
       x2="520.03003"
       y1="283.10999"
       y2="825.21997"
       gradientTransform="matrix(0.07954172,0,0,0.07954172,-13.262509,-20.292067)"
       gradientUnits="userSpaceOnUse">
      <stop
         stop-color="#fff"
         offset="0"
         id="stop876" />
      <stop
         stop-color="#e1e1e1"
         offset="1"
         id="stop878" />
    </linearGradient>
    <filter
       id="h"
       x="-0.035999998"
       y="-0.035999998"
       width="1.072"
       height="1.072"
       color-interpolation-filters="sRGB">
      <feGaussianBlur
         stdDeviation="7.5294119"
         id="feGaussianBlur881" />
    </filter>
    <linearGradient
       id="c-6"
       x1="24.535"
       x2="24.535"
       y1="7.0931001"
       y2="44.483002"
       gradientTransform="matrix(1.4363999,0,0,1.4363999,-2.5929974,-4.713921)"
       gradientUnits="userSpaceOnUse">
      <stop
         stop-color="#76dd38"
         offset="0"
         id="stop884" />
      <stop
         stop-color="#42c440"
         offset=".48433"
         id="stop886" />
      <stop
         stop-color="#14ab4b"
         offset="1"
         id="stop888" />
    </linearGradient>
    <linearGradient
       id="linearGradient844"
       x1="15"
       x2="35"
       y1="8"
       y2="38"
       gradientTransform="translate(0,16)"
       gradientUnits="userSpaceOnUse">
      <stop
         stop-color="#18d862"
         offset="0"
         id="stop956" />
      <stop
         stop-color="#1cd664"
         offset="1"
         id="stop958" />
    </linearGradient>
  </defs>
  <g
     id="g27">
    <g
       id="g25">
      <g
         id="g23"
         transform="translate(1,1)">
        <g
           id="g21"
           style="opacity:0.1" />
      </g>
    </g>
  </g>
  <g
     id="g31">
    <g
       id="g29" />
  </g>
  <circle
     id="circle899"
     stroke-width="1.00001"
     fill="#5e4aa6"
     r="0"
     cy="-1247.4955"
     cx="-1325.8467" />
  <circle
     id="circle901"
     stroke-width="1.00001"
     fill-rule="evenodd"
     fill="#5e4aa6"
     r="0"
     cy="17.989014"
     cx="-226.2999" />
  <g
     transform="matrix(1.3636,0,0,1.3636,-0.7264,-22.544)"
     id="g967">
    <circle
       style="fill:url(#linearGradient844)"
       cx="24"
       cy="40"
       r="22"
       fill="url(#linearGradient844)"
       id="circle963" />
    <path
       d="m 33.214,48.835 c -0.35824,0.58751 -1.1273,0.77379 -1.7148,0.41317 -4.6958,-2.8683 -10.607,-3.5179 -17.569,-1.9273 -0.67086,0.15285 -1.3396,-0.26748 -1.4924,-0.93858 -0.15356,-0.6711 0.2651,-1.3398 0.93762,-1.4927 7.6185,-1.7406 14.153,-0.99112 19.425,2.2306 0.58751,0.36063 0.77379,1.1273 0.41317,1.7148 z m 2.4479,-5.4457 c -0.45138,0.73367 -1.4115,0.96533 -2.1446,0.51395 -5.3759,-3.3044 -13.571,-4.2613 -19.929,-2.3312 -0.82466,0.24909 -1.6957,-0.21566 -1.9459,-1.0389 -0.24838,-0.82466 0.21661,-1.694 1.0398,-1.9447 7.2634,-2.2039 16.293,-1.1363 22.467,2.6574 0.73319,0.45138 0.96485,1.4115 0.51347,2.1437 z m 0.21016,-5.6706 c -6.4459,-3.8286 -17.081,-4.1806 -23.235,-2.3128 -0.98825,0.29972 -2.0334,-0.25817 -2.3328,-1.2464 -0.29949,-0.98873 0.25793,-2.0331 1.2469,-2.3336 7.0647,-2.1446 18.809,-1.7303 26.23,2.6753 0.89082,0.52756 1.1822,1.6756 0.65438,2.5633 -0.52541,0.8889 -1.6765,1.1819 -2.5626,0.65414 z"
       fill="#111111"
       id="path965" />
  </g>
</svg>
