<?xml version="1.0" encoding="UTF-8" standalone="no"?>
<svg
   xmlns:dc="http://purl.org/dc/elements/1.1/"
   xmlns:cc="http://creativecommons.org/ns#"
   xmlns:rdf="http://www.w3.org/1999/02/22-rdf-syntax-ns#"
   xmlns:svg="http://www.w3.org/2000/svg"
   xmlns="http://www.w3.org/2000/svg"
   xmlns:sodipodi="http://sodipodi.sourceforge.net/DTD/sodipodi-0.dtd"
   xmlns:inkscape="http://www.inkscape.org/namespaces/inkscape"
   id="Iterm"
   width="64"
   height="64"
   enable-background="new 0 0 1024 1024"
   image-rendering="optimizeSpeed"
   version="1.1"
   viewBox="0 0 64 64"
   sodipodi:docname="stacer.svg"
   inkscape:version="1.0.1 (3bc2e813f5, 2020-09-07)">
  <metadata
     id="metadata25">
    <rdf:RDF>
      <cc:Work
         rdf:about="">
        <dc:format>image/svg+xml</dc:format>
        <dc:type
           rdf:resource="http://purl.org/dc/dcmitype/StillImage" />
        <dc:title></dc:title>
      </cc:Work>
    </rdf:RDF>
  </metadata>
  <sodipodi:namedview
     pagecolor="#ffffff"
     bordercolor="#666666"
     borderopacity="1"
     objecttolerance="10"
     gridtolerance="10"
     guidetolerance="10"
     inkscape:pageopacity="0"
     inkscape:pageshadow="2"
     inkscape:window-width="1920"
     inkscape:window-height="1002"
     id="namedview23"
     showgrid="false"
     inkscape:zoom="6.4921875"
     inkscape:cx="23.921353"
     inkscape:cy="13.648004"
     inkscape:window-x="0"
     inkscape:window-y="0"
     inkscape:window-maximized="1"
     inkscape:current-layer="Iterm" />
  <defs
     id="defs7">
    <linearGradient
       id="linearGradient862"
       x1="7.9373"
       x2="7.9373"
       y1="15.081"
       y2="1.852"
       gradientTransform="scale(3.7796)"
       gradientUnits="userSpaceOnUse">
      <stop
         stop-color="#424242"
         offset="0"
         id="stop2" />
      <stop
         stop-color="#808080"
         offset="1"
         id="stop4" />
    </linearGradient>
    <linearGradient
       id="linearGradient954"
       x1="10.941"
       x2="53.059"
       y1="28.918"
       y2="28.918"
       gradientUnits="userSpaceOnUse"
       gradientTransform="translate(-5.0009e-4,0.0984993)">
      <stop
         stop-color="#81fecb"
         offset="0"
         id="stop852" />
      <stop
         stop-color="#3bb3f3"
         offset="1"
         id="stop854" />
    </linearGradient>
    <linearGradient
       id="linearGradient1000"
       x1="32.297"
       x2="45.728"
       y1="17.619"
       y2="40.322"
       gradientTransform="translate(0.13507,0.43733)"
       gradientUnits="userSpaceOnUse">
      <stop
         stop-color="#286c81"
         offset="0"
         id="stop857" />
      <stop
         stop-color="#16afc2"
         offset="1"
         id="stop859" />
    </linearGradient>
    <linearGradient
       id="b"
       x1="410.79"
       x2="410.79"
       y1="546.47"
       y2="501.28"
       gradientTransform="matrix(1.3182436,0,0,1.3182436,-506.82072,-658.62599)"
       gradientUnits="userSpaceOnUse">
      <stop
         stop-color="#cfdef0"
         offset="0"
         id="stop1018" />
      <stop
         stop-color="#f5faff"
         offset="1"
         id="stop1020" />
    </linearGradient>
    <linearGradient
       id="linearGradient905"
       x1="25.093"
       x2="25.093"
       y1="31.228"
       y2="4.6139"
       gradientUnits="userSpaceOnUse">
      <stop
         stop-color="#f5501e"
         offset="0"
         id="stop1023" />
      <stop
         stop-color="#ff640a"
         offset="1"
         id="stop1025" />
    </linearGradient>
    <linearGradient
       id="linearGradient913"
       x1="26.502"
       x2="26.502"
       y1="58.559"
       y2="33.547"
       gradientUnits="userSpaceOnUse">
      <stop
         stop-color="#64c82d"
         offset="0"
         id="stop1028" />
      <stop
         stop-color="#87eb32"
         offset="1"
         id="stop1030" />
    </linearGradient>
    <linearGradient
       id="linearGradient921"
       x1="42.579"
       x2="42.579"
       y1="58.516"
       y2="32.964"
       gradientUnits="userSpaceOnUse">
      <stop
         stop-color="#1973d2"
         offset="0"
         id="stop1033" />
      <stop
         stop-color="#1e87e6"
         offset="1"
         id="stop1035" />
    </linearGradient>
    <filter
       id="filter1025"
       x="-.12462"
       y="-.12462"
       width="1.2492"
       height="1.2492"
       color-interpolation-filters="sRGB">
      <feGaussianBlur
         stdDeviation="1.3487305"
         id="feGaussianBlur1038" />
    </filter>
    <filter
       id="filter1029"
       x="-.12462"
       y="-.12462"
       width="1.2492"
       height="1.2492"
       color-interpolation-filters="sRGB">
      <feGaussianBlur
         stdDeviation="1.3487305"
         id="feGaussianBlur1041" />
    </filter>
    <filter
       id="filter1033"
       x="-.12462"
       y="-.12462"
       width="1.2492"
       height="1.2492"
       color-interpolation-filters="sRGB">
      <feGaussianBlur
         stdDeviation="1.3487305"
         id="feGaussianBlur1044" />
    </filter>
    <filter
       id="filter1139"
       x="-.2494"
       y="-.18634"
       width="1.4988"
       height="1.3727"
       color-interpolation-filters="sRGB">
      <feGaussianBlur
         stdDeviation="0.77642176"
         id="feGaussianBlur1047" />
    </filter>
    <filter
       id="filter1143"
       x="-.23972"
       y="-.18634"
       width="1.4794"
       height="1.3727"
       color-interpolation-filters="sRGB">
      <feGaussianBlur
         stdDeviation="0.77642176"
         id="feGaussianBlur1050" />
    </filter>
    <filter
       id="filter1147"
       x="-.22342"
       y="-.18634"
       width="1.4468"
       height="1.3727"
       color-interpolation-filters="sRGB">
      <feGaussianBlur
         stdDeviation="0.77642176"
         id="feGaussianBlur1053" />
    </filter>
  </defs>
  <mask
     id="mask12">
    <g
       id="g">
      <path
         d="m969.75 392.05c-1.1-4.35-2.35-9-3.65-13.6-1-3.4-2-6.85-3.15-10.5-1.6-5.15-3.4-10.5-5.3-15.85-6.45-18.25-14.15-36.05-23.15-53.65-3.8-7.4-7.95-14.95-12.3-22.4-20.3-34.5-45.8-67.2-76.35-97.75-72.6-72.6-157.15-116.65-253.65-132.05-16.25-2.6-32.8-4.4-50.05-5.35-9.7-0.55-19.85-0.85-30.1-0.85-9.35 0-18.6 0.25-27.9 0.75-118.35 6.1-220.3 51.95-305.85 137.5q-138.25 138.25-138.25 333.75c0 130.35 46.1 241.65 138.25 333.8 56.7 56.65 120.55 95.9 191.1 117.55 36.75 11.25 74.8 17.85 114.75 19.95h0.4c8.5 0.45 16.6 0.7 24.5 0.7h3c10.3 0 20.5-0.3 30.1-0.8 2.5-0.15 4.75-0.3 6.95-0.45 20.2-1.45 39.9-4.05 58.7-7.7 7.95-1.55 15.8-3.3 23.4-5.15 80.8-20.3 152.15-61.6 214.65-124.1 48.6-48.6 84.4-102.5 107.35-161.8 18.45-47.65 28.65-98.8 30.55-153.5 0.2-6.05 0.3-12.25 0.3-18.5v-3c-0.2-40.65-4.95-79.5-14.3-117z"
         fill="#fff"
         id="path9" />
    </g>
  </mask>
  <rect
     x="2.2118855"
     y="2.2118855"
     width="59.576229"
     height="59.576229"
     ry="29.788115"
     fill="url(#b)"
     stroke-width="1.00441"
     id="rect1058"
     style="fill:url(#b)" />
  <circle
     cx="32"
     cy="32"
     r="25"
     fill="#202c3a"
     stroke-width="0.74996"
     id="circle875"
     style="fill:#31475d;fill-opacity:1;image-rendering:optimizeSpeed" />
  <path
     d="m 17.8115,46.286499 a 20.065,20.065 0 0 1 0,-28.377 20.065,20.065 0 0 1 28.377,0 20.065,20.065 0 0 1 0,28.377"
     fill="none"
     stroke="url(#linearGradient954)"
     stroke-width="2"
     id="path881"
     style="stroke:url(#linearGradient954);image-rendering:optimizeSpeed" />
  <g
     id="g917"
     style="image-rendering:optimizeSpeed"
     transform="translate(-5.9604644e-7,0.0984993)">
    <rect
       transform="rotate(45)"
       x="45.785999"
       y="-18.155001"
       width="1.1"
       height="2.8"
       ry="0"
       fill="#ffffff"
       id="rect883" />
    <rect
       transform="rotate(45)"
       x="45.477001"
       y="15.901"
       width="1.1"
       height="2.8"
       ry="0"
       fill="#38acfd"
       id="rect885" />
    <rect
       transform="rotate(90)"
       x="32.226002"
       y="-50.407001"
       width="1.1"
       height="2.8"
       ry="0"
       fill="#ffffff"
       id="rect887" />
    <rect
       transform="rotate(90)"
       x="32.226002"
       y="-16.393"
       width="1.1"
       height="2.8"
       ry="0"
       fill="#ffffff"
       id="rect889" />
    <rect
       transform="rotate(135)"
       x="0.14943001"
       y="-64.028999"
       width="1.1"
       height="2.8"
       ry="0"
       fill="#38acfd"
       id="rect891" />
    <rect
       transform="rotate(135)"
       x="0.53074002"
       y="-29.9"
       width="1.1"
       height="2.8"
       ry="0"
       fill="#ffffff"
       id="rect893" />
    <path
       d="m 32.083,17.794 a 13.979,13.979 0 0 1 12.685,8.1049 13.979,13.979 0 0 1 -2.0241,14.917 l -10.661,-9.0422 z"
       fill="url(#linearGradient1000)"
       id="path895"
       style="fill:url(#linearGradient1000)" />
    <path
       d="m 43.372,41.314 c 0,0 -3.5133,-3.6056 -5.9353,-5.4988 -2.1187,-1.656 -3.3719,-2.5279 -3.3719,-2.5279 l -0.79464,0.88806 3.5681,2.676 c 0,0 4.9672,3.7607 6.5338,4.4626"
       fill="#33d6b9"
       id="path897" />
    <circle
       cx="32"
       cy="32"
       r="2.5"
       fill="#192a39"
       id="circle899" />
    <rect
       x="31.450001"
       y="13.951"
       width="1.1"
       height="2.8"
       ry="0"
       fill="#ffffff"
       id="rect901" />
    <g
       fill="#ffffff"
       stroke-width="0.086648"
       style="font-variant-ligatures:normal;font-variant-caps:normal;font-variant-numeric:normal;font-variant-east-asian:normal"
       aria-label="STACER"
       id="g915">
      <path
         d="m 26.409,51.768 0.06769,-0.29785 q 0.29785,0.13539 0.5957,0.13539 0.27077,0 0.40616,-0.09477 0.14893,-0.09477 0.18954,-0.29785 0.04062,-0.16246 -0.04062,-0.27077 -0.05416,-0.06769 -0.44678,-0.25724 -0.25724,-0.13539 -0.35201,-0.29785 -0.08123,-0.16246 -0.02708,-0.4197 0.05415,-0.28431 0.28431,-0.44678 0.23016,-0.176 0.58216,-0.176 0.36554,0 0.62278,0.13539 l -0.16246,0.25724 q -0.25724,-0.12185 -0.51447,-0.12185 -0.21662,0 -0.35201,0.09477 -0.12185,0.09477 -0.14893,0.25724 -0.04062,0.18954 0.02708,0.28431 0.06769,0.08123 0.39262,0.2437 0.33847,0.14893 0.4197,0.31139 0.08123,0.14893 0.04062,0.37908 -0.06769,0.31139 -0.32493,0.50093 -0.2437,0.18954 -0.64986,0.18954 -0.39262,0 -0.60924,-0.10831 z"
         style="font-variant-ligatures:normal;font-variant-caps:normal;font-variant-numeric:normal;font-variant-east-asian:normal"
         id="path903" />
      <path
         d="m 29.076,51.85 h -0.31139 l 0.43324,-2.1933 h -0.70401 l 0.06769,-0.28431 h 1.7194 l -0.06769,0.28431 h -0.70401 z"
         style="font-variant-ligatures:normal;font-variant-caps:normal;font-variant-numeric:normal;font-variant-east-asian:normal"
         id="path905" />
      <path
         d="M 31.404,51.85 31.28215,51.07829 H 30.36152 L 29.94182,51.85 h -0.32493 l 1.408,-2.4911 h 0.28431 l 0.4197,2.4911 z m -0.16246,-1.0425 -0.10831,-0.71755 q -0.04062,-0.23016 -0.02708,-0.39262 -0.08123,0.18954 -0.20308,0.39262 l -0.39262,0.71755 z"
         style="font-variant-ligatures:normal;font-variant-caps:normal;font-variant-numeric:normal;font-variant-east-asian:normal"
         id="path907" />
      <path
         d="m 33.652,51.511 -0.05415,0.27077 q -0.25724,0.09477 -0.62278,0.09477 -0.50093,0 -0.73109,-0.31139 -0.21662,-0.32493 -0.09477,-0.96125 0.12185,-0.5957 0.48739,-0.92063 0.37908,-0.33847 0.89356,-0.33847 0.37908,0 0.62278,0.13539 l -0.18954,0.27078 q -0.23016,-0.13539 -0.48739,-0.13539 -0.35201,0 -0.63632,0.27077 -0.27077,0.25724 -0.36554,0.73109 -0.09477,0.48739 0.05415,0.74463 0.16246,0.2437 0.55509,0.2437 0.21662,0 0.56862,-0.09477 z"
         style="font-variant-ligatures:normal;font-variant-caps:normal;font-variant-numeric:normal;font-variant-east-asian:normal"
         id="path909" />
      <path
         d="m 35.398,51.85 h -1.2862 l 0.50093,-2.4776 h 1.2862 l -0.06769,0.28431 h -0.97479 l -0.14893,0.75817 h 0.90709 l -0.05415,0.27078 h -0.90709 l -0.176,0.88002 h 0.97479 z"
         style="font-variant-ligatures:normal;font-variant-caps:normal;font-variant-numeric:normal;font-variant-east-asian:normal"
         id="path911" />
      <path
         d="m 36.454,50.821 -0.20308,1.0289 h -0.31139 l 0.50093,-2.4776 h 0.5957 q 0.44678,0 0.62278,0.176 0.176,0.176 0.10831,0.52801 -0.09477,0.48739 -0.62278,0.6634 l 0.46032,1.1102 h -0.36554 l -0.39262,-1.0289 z m 0.05415,-0.25724 h 0.28431 q 0.28431,0 0.44678,-0.12185 0.16246,-0.12185 0.20308,-0.35201 0.04062,-0.23016 -0.06769,-0.33847 -0.09477,-0.10831 -0.40616,-0.10831 H 36.6977 Z"
         style="font-variant-ligatures:normal;font-variant-caps:normal;font-variant-numeric:normal;font-variant-east-asian:normal"
         id="path913" />
    </g>
  </g>
</svg>
