<?xml version="1.0" encoding="UTF-8"?>
<svg width="64" height="64" version="1.1" xmlns="http://www.w3.org/2000/svg" xmlns:cc="http://creativecommons.org/ns#" xmlns:dc="http://purl.org/dc/elements/1.1/" xmlns:rdf="http://www.w3.org/1999/02/22-rdf-syntax-ns#" xmlns:xlink="http://www.w3.org/1999/xlink">
 <metadata>
  <rdf:RDF>
   <cc:Work rdf:about="">
    <dc:format>image/svg+xml</dc:format>
    <dc:type rdf:resource="http://purl.org/dc/dcmitype/StillImage"/>
   </cc:Work>
  </rdf:RDF>
 </metadata>
 <defs>
  <linearGradient id="linearGradient78248">
   <stop stop-color="#2e2e2e" offset="0"/>
   <stop stop-color="#363636" offset="1"/>
  </linearGradient>
  <linearGradient id="linearGradient68458">
   <stop stop-color="#272727" offset="0"/>
   <stop stop-color="#595959" offset="1"/>
  </linearGradient>
  <linearGradient id="linearGradient903" x1="70.761" x2="70.904" y1=".3203" y2="25.186" gradientTransform="translate(-47.378 36.24)" gradientUnits="userSpaceOnUse">
   <stop stop-color="#464646" offset="0"/>
   <stop stop-color="#343434" offset="1"/>
  </linearGradient>
  <linearGradient id="linearGradient13429" x1="85.944" x2="85.868" y1="-28.549" y2="27.338" gradientTransform="translate(-47.378 36.24)" gradientUnits="userSpaceOnUse">
   <stop stop-color="#8e9094" offset="0"/>
   <stop stop-color="#171619" offset="1"/>
  </linearGradient>
  <linearGradient id="linearGradient57848" x1="-5.8711" x2="78.271" y1="-60.021" y2="-60.021" gradientUnits="userSpaceOnUse">
   <stop stop-color="#f1f7fc" offset="0"/>
   <stop stop-color="#fbfdff" offset="1"/>
  </linearGradient>
  <filter id="filter68326" x="-.022228" y="-.034381" width="1.0445" height="1.0688" color-interpolation-filters="sRGB">
   <feGaussianBlur stdDeviation="0.7793042"/>
  </filter>
  <linearGradient id="linearGradient68460" x1="29.907" x2="29.907" y1="-90.767" y2="-85.565" gradientTransform="matrix(1.0634 0 0 1.0634 -25.985 107.24)" gradientUnits="userSpaceOnUse" xlink:href="#linearGradient68458"/>
  <linearGradient id="linearGradient78250" x1="29.868" x2="29.868" y1="-90.371" y2="-86.011" gradientTransform="matrix(1.0634 0 0 1.0634 -25.985 107.24)" gradientUnits="userSpaceOnUse" xlink:href="#linearGradient78248"/>
  <linearGradient id="linearGradient86688" x1="29.907" x2="29.907" y1="-90.767" y2="-85.565" gradientTransform="matrix(1.0634 0 0 1.0634 -18.636 107.24)" gradientUnits="userSpaceOnUse" xlink:href="#linearGradient68458"/>
  <linearGradient id="linearGradient86690" x1="29.868" x2="29.868" y1="-90.371" y2="-86.011" gradientTransform="matrix(1.0634 0 0 1.0634 -18.636 107.24)" gradientUnits="userSpaceOnUse" xlink:href="#linearGradient78248"/>
  <linearGradient id="linearGradient86698" x1="29.907" x2="29.907" y1="-90.767" y2="-85.565" gradientTransform="matrix(1.0634 0 0 1.0634 -11.287 107.24)" gradientUnits="userSpaceOnUse" xlink:href="#linearGradient68458"/>
  <linearGradient id="linearGradient86700" x1="29.868" x2="29.868" y1="-90.371" y2="-86.011" gradientTransform="matrix(1.0634 0 0 1.0634 -11.287 107.24)" gradientUnits="userSpaceOnUse" xlink:href="#linearGradient78248"/>
  <linearGradient id="linearGradient86708" x1="29.907" x2="29.907" y1="-90.767" y2="-85.565" gradientTransform="matrix(1.0634 0 0 1.0634 -3.9379 107.24)" gradientUnits="userSpaceOnUse" xlink:href="#linearGradient68458"/>
  <linearGradient id="linearGradient86710" x1="29.868" x2="29.868" y1="-90.371" y2="-86.011" gradientTransform="matrix(1.0634 0 0 1.0634 -3.9379 107.24)" gradientUnits="userSpaceOnUse" xlink:href="#linearGradient78248"/>
  <linearGradient id="linearGradient86718" x1="29.907" x2="29.907" y1="-90.767" y2="-85.565" gradientTransform="matrix(1.0634 0 0 1.0634 3.4113 107.24)" gradientUnits="userSpaceOnUse" xlink:href="#linearGradient68458"/>
  <linearGradient id="linearGradient86720" x1="29.868" x2="29.868" y1="-90.371" y2="-86.011" gradientTransform="matrix(1.0634 0 0 1.0634 3.4113 107.24)" gradientUnits="userSpaceOnUse" xlink:href="#linearGradient78248"/>
  <linearGradient id="linearGradient86728" x1="29.907" x2="29.907" y1="-90.767" y2="-85.565" gradientTransform="matrix(1.0634 0 0 1.0634 10.76 107.24)" gradientUnits="userSpaceOnUse" xlink:href="#linearGradient68458"/>
  <linearGradient id="linearGradient86730" x1="29.868" x2="29.868" y1="-90.371" y2="-86.011" gradientTransform="matrix(1.0634 0 0 1.0634 10.76 107.24)" gradientUnits="userSpaceOnUse" xlink:href="#linearGradient78248"/>
  <linearGradient id="linearGradient86738" x1="29.907" x2="29.907" y1="-90.767" y2="-85.565" gradientTransform="matrix(1.0634 0 0 1.0634 18.11 107.24)" gradientUnits="userSpaceOnUse" xlink:href="#linearGradient68458"/>
  <linearGradient id="linearGradient86740" x1="29.868" x2="29.868" y1="-90.371" y2="-86.011" gradientTransform="matrix(1.0634 0 0 1.0634 18.11 107.24)" gradientUnits="userSpaceOnUse" xlink:href="#linearGradient78248"/>
  <linearGradient id="linearGradient88203" x1="29.907" x2="29.907" y1="-90.767" y2="-85.565" gradientTransform="matrix(1.0634 0 0 1.0634 -25.985 151.99)" gradientUnits="userSpaceOnUse" xlink:href="#linearGradient68458"/>
  <linearGradient id="linearGradient88205" x1="29.868" x2="29.868" y1="-90.371" y2="-86.011" gradientTransform="matrix(1.0634 0 0 1.0634 -25.985 151.99)" gradientUnits="userSpaceOnUse" xlink:href="#linearGradient78248"/>
  <linearGradient id="linearGradient88207" x1="29.907" x2="29.907" y1="-90.767" y2="-85.565" gradientTransform="matrix(1.0634 0 0 1.0634 -18.636 151.99)" gradientUnits="userSpaceOnUse" xlink:href="#linearGradient68458"/>
  <linearGradient id="linearGradient88209" x1="29.868" x2="29.868" y1="-90.371" y2="-86.011" gradientTransform="matrix(1.0634 0 0 1.0634 -18.636 151.99)" gradientUnits="userSpaceOnUse" xlink:href="#linearGradient78248"/>
  <linearGradient id="linearGradient88211" x1="29.907" x2="29.907" y1="-90.767" y2="-85.565" gradientTransform="matrix(1.0634 0 0 1.0634 -11.287 151.99)" gradientUnits="userSpaceOnUse" xlink:href="#linearGradient68458"/>
  <linearGradient id="linearGradient88213" x1="29.868" x2="29.868" y1="-90.371" y2="-86.011" gradientTransform="matrix(1.0634 0 0 1.0634 -11.287 151.99)" gradientUnits="userSpaceOnUse" xlink:href="#linearGradient78248"/>
  <linearGradient id="linearGradient88215" x1="29.907" x2="29.907" y1="-90.767" y2="-85.565" gradientTransform="matrix(1.0634 0 0 1.0634 -3.9379 151.99)" gradientUnits="userSpaceOnUse" xlink:href="#linearGradient68458"/>
  <linearGradient id="linearGradient88217" x1="29.868" x2="29.868" y1="-90.371" y2="-86.011" gradientTransform="matrix(1.0634 0 0 1.0634 -3.9379 151.99)" gradientUnits="userSpaceOnUse" xlink:href="#linearGradient78248"/>
  <linearGradient id="linearGradient88219" x1="29.907" x2="29.907" y1="-90.767" y2="-85.565" gradientTransform="matrix(1.0634 0 0 1.0634 3.4113 151.99)" gradientUnits="userSpaceOnUse" xlink:href="#linearGradient68458"/>
  <linearGradient id="linearGradient88221" x1="29.868" x2="29.868" y1="-90.371" y2="-86.011" gradientTransform="matrix(1.0634 0 0 1.0634 3.4113 151.99)" gradientUnits="userSpaceOnUse" xlink:href="#linearGradient78248"/>
  <linearGradient id="linearGradient88223" x1="29.907" x2="29.907" y1="-90.767" y2="-85.565" gradientTransform="matrix(1.0634 0 0 1.0634 10.76 151.99)" gradientUnits="userSpaceOnUse" xlink:href="#linearGradient68458"/>
  <linearGradient id="linearGradient88225" x1="29.868" x2="29.868" y1="-90.371" y2="-86.011" gradientTransform="matrix(1.0634 0 0 1.0634 10.76 151.99)" gradientUnits="userSpaceOnUse" xlink:href="#linearGradient78248"/>
  <linearGradient id="linearGradient88227" x1="29.907" x2="29.907" y1="-90.767" y2="-85.565" gradientTransform="matrix(1.0634 0 0 1.0634 18.11 151.99)" gradientUnits="userSpaceOnUse" xlink:href="#linearGradient68458"/>
  <linearGradient id="linearGradient88229" x1="29.868" x2="29.868" y1="-90.371" y2="-86.011" gradientTransform="matrix(1.0634 0 0 1.0634 18.11 151.99)" gradientUnits="userSpaceOnUse" xlink:href="#linearGradient78248"/>
  <linearGradient id="linearGradient88355" x1="29.907" x2="29.907" y1="-90.767" y2="-85.565" gradientTransform="matrix(1.0634 0 0 1.0634 -25.985 144.53)" gradientUnits="userSpaceOnUse" xlink:href="#linearGradient68458"/>
  <linearGradient id="linearGradient88357" x1="29.868" x2="29.868" y1="-90.371" y2="-86.011" gradientTransform="matrix(1.0634 0 0 1.0634 -25.985 144.53)" gradientUnits="userSpaceOnUse" xlink:href="#linearGradient78248"/>
  <linearGradient id="linearGradient88359" x1="29.907" x2="29.907" y1="-90.767" y2="-85.565" gradientTransform="matrix(1.0634 0 0 1.0634 -18.636 144.53)" gradientUnits="userSpaceOnUse" xlink:href="#linearGradient68458"/>
  <linearGradient id="linearGradient88361" x1="29.868" x2="29.868" y1="-90.371" y2="-86.011" gradientTransform="matrix(1.0634 0 0 1.0634 -18.636 144.53)" gradientUnits="userSpaceOnUse" xlink:href="#linearGradient78248"/>
  <linearGradient id="linearGradient88363" x1="29.907" x2="29.907" y1="-90.767" y2="-85.565" gradientTransform="matrix(1.0634 0 0 1.0634 -11.287 144.53)" gradientUnits="userSpaceOnUse" xlink:href="#linearGradient68458"/>
  <linearGradient id="linearGradient88365" x1="29.868" x2="29.868" y1="-90.371" y2="-86.011" gradientTransform="matrix(1.0634 0 0 1.0634 -11.287 144.53)" gradientUnits="userSpaceOnUse" xlink:href="#linearGradient78248"/>
  <linearGradient id="linearGradient88367" x1="29.907" x2="29.907" y1="-90.767" y2="-85.565" gradientTransform="matrix(1.0634 0 0 1.0634 -3.9379 144.53)" gradientUnits="userSpaceOnUse" xlink:href="#linearGradient68458"/>
  <linearGradient id="linearGradient88369" x1="29.868" x2="29.868" y1="-90.371" y2="-86.011" gradientTransform="matrix(1.0634 0 0 1.0634 -3.9379 144.53)" gradientUnits="userSpaceOnUse" xlink:href="#linearGradient78248"/>
  <linearGradient id="linearGradient88371" x1="29.907" x2="29.907" y1="-90.767" y2="-85.565" gradientTransform="matrix(1.0634 0 0 1.0634 3.4113 144.53)" gradientUnits="userSpaceOnUse" xlink:href="#linearGradient68458"/>
  <linearGradient id="linearGradient88373" x1="29.868" x2="29.868" y1="-90.371" y2="-86.011" gradientTransform="matrix(1.0634 0 0 1.0634 3.4113 144.53)" gradientUnits="userSpaceOnUse" xlink:href="#linearGradient78248"/>
  <linearGradient id="linearGradient88375" x1="29.907" x2="29.907" y1="-90.767" y2="-85.565" gradientTransform="matrix(1.0634 0 0 1.0634 10.76 144.53)" gradientUnits="userSpaceOnUse" xlink:href="#linearGradient68458"/>
  <linearGradient id="linearGradient88377" x1="29.868" x2="29.868" y1="-90.371" y2="-86.011" gradientTransform="matrix(1.0634 0 0 1.0634 10.76 144.53)" gradientUnits="userSpaceOnUse" xlink:href="#linearGradient78248"/>
  <linearGradient id="linearGradient88379" x1="29.907" x2="29.907" y1="-90.767" y2="-85.565" gradientTransform="matrix(1.0634 0 0 1.0634 18.11 144.53)" gradientUnits="userSpaceOnUse" xlink:href="#linearGradient68458"/>
  <linearGradient id="linearGradient88381" x1="29.868" x2="29.868" y1="-90.371" y2="-86.011" gradientTransform="matrix(1.0634 0 0 1.0634 18.11 144.53)" gradientUnits="userSpaceOnUse" xlink:href="#linearGradient78248"/>
  <linearGradient id="linearGradient88427" x1="29.907" x2="29.907" y1="-90.767" y2="-85.565" gradientTransform="matrix(1.0634 0 0 1.0634 -25.985 137.08)" gradientUnits="userSpaceOnUse" xlink:href="#linearGradient68458"/>
  <linearGradient id="linearGradient88429" x1="29.868" x2="29.868" y1="-90.371" y2="-86.011" gradientTransform="matrix(1.0634 0 0 1.0634 -25.985 137.08)" gradientUnits="userSpaceOnUse" xlink:href="#linearGradient78248"/>
  <linearGradient id="linearGradient88431" x1="29.907" x2="29.907" y1="-90.767" y2="-85.565" gradientTransform="matrix(1.0634 0 0 1.0634 -18.636 137.08)" gradientUnits="userSpaceOnUse" xlink:href="#linearGradient68458"/>
  <linearGradient id="linearGradient88433" x1="29.868" x2="29.868" y1="-90.371" y2="-86.011" gradientTransform="matrix(1.0634 0 0 1.0634 -18.636 137.08)" gradientUnits="userSpaceOnUse" xlink:href="#linearGradient78248"/>
  <linearGradient id="linearGradient88435" x1="29.907" x2="29.907" y1="-90.767" y2="-85.565" gradientTransform="matrix(1.0634 0 0 1.0634 -11.287 137.08)" gradientUnits="userSpaceOnUse" xlink:href="#linearGradient68458"/>
  <linearGradient id="linearGradient88437" x1="29.868" x2="29.868" y1="-90.371" y2="-86.011" gradientTransform="matrix(1.0634 0 0 1.0634 -11.287 137.08)" gradientUnits="userSpaceOnUse" xlink:href="#linearGradient78248"/>
  <linearGradient id="linearGradient88439" x1="29.907" x2="29.907" y1="-90.767" y2="-85.565" gradientTransform="matrix(1.0634 0 0 1.0634 -3.9379 137.08)" gradientUnits="userSpaceOnUse" xlink:href="#linearGradient68458"/>
  <linearGradient id="linearGradient88441" x1="29.868" x2="29.868" y1="-90.371" y2="-86.011" gradientTransform="matrix(1.0634 0 0 1.0634 -3.9379 137.08)" gradientUnits="userSpaceOnUse" xlink:href="#linearGradient78248"/>
  <linearGradient id="linearGradient88443" x1="29.907" x2="29.907" y1="-90.767" y2="-85.565" gradientTransform="matrix(1.0634 0 0 1.0634 3.4113 137.08)" gradientUnits="userSpaceOnUse" xlink:href="#linearGradient68458"/>
  <linearGradient id="linearGradient88445" x1="29.868" x2="29.868" y1="-90.371" y2="-86.011" gradientTransform="matrix(1.0634 0 0 1.0634 3.4113 137.08)" gradientUnits="userSpaceOnUse" xlink:href="#linearGradient78248"/>
  <linearGradient id="linearGradient88447" x1="29.907" x2="29.907" y1="-90.767" y2="-85.565" gradientTransform="matrix(1.0634 0 0 1.0634 10.76 137.08)" gradientUnits="userSpaceOnUse" xlink:href="#linearGradient68458"/>
  <linearGradient id="linearGradient88449" x1="29.868" x2="29.868" y1="-90.371" y2="-86.011" gradientTransform="matrix(1.0634 0 0 1.0634 10.76 137.08)" gradientUnits="userSpaceOnUse" xlink:href="#linearGradient78248"/>
  <linearGradient id="linearGradient88451" x1="29.907" x2="29.907" y1="-90.767" y2="-85.565" gradientTransform="matrix(1.0634 0 0 1.0634 18.11 137.08)" gradientUnits="userSpaceOnUse" xlink:href="#linearGradient68458"/>
  <linearGradient id="linearGradient88453" x1="29.868" x2="29.868" y1="-90.371" y2="-86.011" gradientTransform="matrix(1.0634 0 0 1.0634 18.11 137.08)" gradientUnits="userSpaceOnUse" xlink:href="#linearGradient78248"/>
  <linearGradient id="linearGradient88499" x1="29.907" x2="29.907" y1="-90.767" y2="-85.565" gradientTransform="matrix(1.0634 0 0 1.0634 -25.985 129.62)" gradientUnits="userSpaceOnUse" xlink:href="#linearGradient68458"/>
  <linearGradient id="linearGradient88501" x1="29.868" x2="29.868" y1="-90.371" y2="-86.011" gradientTransform="matrix(1.0634 0 0 1.0634 -25.985 129.62)" gradientUnits="userSpaceOnUse" xlink:href="#linearGradient78248"/>
  <linearGradient id="linearGradient88503" x1="29.907" x2="29.907" y1="-90.767" y2="-85.565" gradientTransform="matrix(1.0634 0 0 1.0634 -18.636 129.62)" gradientUnits="userSpaceOnUse" xlink:href="#linearGradient68458"/>
  <linearGradient id="linearGradient88505" x1="29.868" x2="29.868" y1="-90.371" y2="-86.011" gradientTransform="matrix(1.0634 0 0 1.0634 -18.636 129.62)" gradientUnits="userSpaceOnUse" xlink:href="#linearGradient78248"/>
  <linearGradient id="linearGradient88507" x1="29.907" x2="29.907" y1="-90.767" y2="-85.565" gradientTransform="matrix(1.0634 0 0 1.0634 -11.287 129.62)" gradientUnits="userSpaceOnUse" xlink:href="#linearGradient68458"/>
  <linearGradient id="linearGradient88509" x1="29.868" x2="29.868" y1="-90.371" y2="-86.011" gradientTransform="matrix(1.0634 0 0 1.0634 -11.287 129.62)" gradientUnits="userSpaceOnUse" xlink:href="#linearGradient78248"/>
  <linearGradient id="linearGradient88511" x1="29.907" x2="29.907" y1="-90.767" y2="-85.565" gradientTransform="matrix(1.0634 0 0 1.0634 -3.9379 129.62)" gradientUnits="userSpaceOnUse" xlink:href="#linearGradient68458"/>
  <linearGradient id="linearGradient88513" x1="29.868" x2="29.868" y1="-90.371" y2="-86.011" gradientTransform="matrix(1.0634 0 0 1.0634 -3.9379 129.62)" gradientUnits="userSpaceOnUse" xlink:href="#linearGradient78248"/>
  <linearGradient id="linearGradient88515" x1="29.907" x2="29.907" y1="-90.767" y2="-85.565" gradientTransform="matrix(1.0634 0 0 1.0634 3.4113 129.62)" gradientUnits="userSpaceOnUse" xlink:href="#linearGradient68458"/>
  <linearGradient id="linearGradient88517" x1="29.868" x2="29.868" y1="-90.371" y2="-86.011" gradientTransform="matrix(1.0634 0 0 1.0634 3.4113 129.62)" gradientUnits="userSpaceOnUse" xlink:href="#linearGradient78248"/>
  <linearGradient id="linearGradient88519" x1="29.907" x2="29.907" y1="-90.767" y2="-85.565" gradientTransform="matrix(1.0634 0 0 1.0634 10.76 129.62)" gradientUnits="userSpaceOnUse" xlink:href="#linearGradient68458"/>
  <linearGradient id="linearGradient88521" x1="29.868" x2="29.868" y1="-90.371" y2="-86.011" gradientTransform="matrix(1.0634 0 0 1.0634 10.76 129.62)" gradientUnits="userSpaceOnUse" xlink:href="#linearGradient78248"/>
  <linearGradient id="linearGradient88523" x1="29.907" x2="29.907" y1="-90.767" y2="-85.565" gradientTransform="matrix(1.0634 0 0 1.0634 18.11 129.62)" gradientUnits="userSpaceOnUse" xlink:href="#linearGradient68458"/>
  <linearGradient id="linearGradient88525" x1="29.868" x2="29.868" y1="-90.371" y2="-86.011" gradientTransform="matrix(1.0634 0 0 1.0634 18.11 129.62)" gradientUnits="userSpaceOnUse" xlink:href="#linearGradient78248"/>
  <linearGradient id="linearGradient88571" x1="29.907" x2="29.907" y1="-90.767" y2="-85.565" gradientTransform="matrix(1.0634 0 0 1.0634 -25.985 122.16)" gradientUnits="userSpaceOnUse" xlink:href="#linearGradient68458"/>
  <linearGradient id="linearGradient88573" x1="29.868" x2="29.868" y1="-90.371" y2="-86.011" gradientTransform="matrix(1.0634 0 0 1.0634 -25.985 122.16)" gradientUnits="userSpaceOnUse" xlink:href="#linearGradient78248"/>
  <linearGradient id="linearGradient88575" x1="29.907" x2="29.907" y1="-90.767" y2="-85.565" gradientTransform="matrix(1.0634 0 0 1.0634 -18.636 122.16)" gradientUnits="userSpaceOnUse" xlink:href="#linearGradient68458"/>
  <linearGradient id="linearGradient88577" x1="29.868" x2="29.868" y1="-90.371" y2="-86.011" gradientTransform="matrix(1.0634 0 0 1.0634 -18.636 122.16)" gradientUnits="userSpaceOnUse" xlink:href="#linearGradient78248"/>
  <linearGradient id="linearGradient88579" x1="29.907" x2="29.907" y1="-90.767" y2="-85.565" gradientTransform="matrix(1.0634 0 0 1.0634 -11.287 122.16)" gradientUnits="userSpaceOnUse" xlink:href="#linearGradient68458"/>
  <linearGradient id="linearGradient88581" x1="29.868" x2="29.868" y1="-90.371" y2="-86.011" gradientTransform="matrix(1.0634 0 0 1.0634 -11.287 122.16)" gradientUnits="userSpaceOnUse" xlink:href="#linearGradient78248"/>
  <linearGradient id="linearGradient88583" x1="29.907" x2="29.907" y1="-90.767" y2="-85.565" gradientTransform="matrix(1.0634 0 0 1.0634 -3.9379 122.16)" gradientUnits="userSpaceOnUse" xlink:href="#linearGradient68458"/>
  <linearGradient id="linearGradient88585" x1="29.868" x2="29.868" y1="-90.371" y2="-86.011" gradientTransform="matrix(1.0634 0 0 1.0634 -3.9379 122.16)" gradientUnits="userSpaceOnUse" xlink:href="#linearGradient78248"/>
  <linearGradient id="linearGradient88587" x1="29.907" x2="29.907" y1="-90.767" y2="-85.565" gradientTransform="matrix(1.0634 0 0 1.0634 3.4113 122.16)" gradientUnits="userSpaceOnUse" xlink:href="#linearGradient68458"/>
  <linearGradient id="linearGradient88589" x1="29.868" x2="29.868" y1="-90.371" y2="-86.011" gradientTransform="matrix(1.0634 0 0 1.0634 3.4113 122.16)" gradientUnits="userSpaceOnUse" xlink:href="#linearGradient78248"/>
  <linearGradient id="linearGradient88591" x1="29.907" x2="29.907" y1="-90.767" y2="-85.565" gradientTransform="matrix(1.0634 0 0 1.0634 10.76 122.16)" gradientUnits="userSpaceOnUse" xlink:href="#linearGradient68458"/>
  <linearGradient id="linearGradient88593" x1="29.868" x2="29.868" y1="-90.371" y2="-86.011" gradientTransform="matrix(1.0634 0 0 1.0634 10.76 122.16)" gradientUnits="userSpaceOnUse" xlink:href="#linearGradient78248"/>
  <linearGradient id="linearGradient88595" x1="29.907" x2="29.907" y1="-90.767" y2="-85.565" gradientTransform="matrix(1.0634 0 0 1.0634 18.11 122.16)" gradientUnits="userSpaceOnUse" xlink:href="#linearGradient68458"/>
  <linearGradient id="linearGradient88597" x1="29.868" x2="29.868" y1="-90.371" y2="-86.011" gradientTransform="matrix(1.0634 0 0 1.0634 18.11 122.16)" gradientUnits="userSpaceOnUse" xlink:href="#linearGradient78248"/>
  <linearGradient id="linearGradient88643" x1="29.907" x2="29.907" y1="-90.767" y2="-85.565" gradientTransform="matrix(1.0634 0 0 1.0634 -25.985 114.7)" gradientUnits="userSpaceOnUse" xlink:href="#linearGradient68458"/>
  <linearGradient id="linearGradient88645" x1="29.868" x2="29.868" y1="-90.371" y2="-86.011" gradientTransform="matrix(1.0634 0 0 1.0634 -25.985 114.7)" gradientUnits="userSpaceOnUse" xlink:href="#linearGradient78248"/>
  <linearGradient id="linearGradient88647" x1="29.907" x2="29.907" y1="-90.767" y2="-85.565" gradientTransform="matrix(1.0634 0 0 1.0634 -18.636 114.7)" gradientUnits="userSpaceOnUse" xlink:href="#linearGradient68458"/>
  <linearGradient id="linearGradient88649" x1="29.868" x2="29.868" y1="-90.371" y2="-86.011" gradientTransform="matrix(1.0634 0 0 1.0634 -18.636 114.7)" gradientUnits="userSpaceOnUse" xlink:href="#linearGradient78248"/>
  <linearGradient id="linearGradient88651" x1="29.907" x2="29.907" y1="-90.767" y2="-85.565" gradientTransform="matrix(1.0634 0 0 1.0634 -11.287 114.7)" gradientUnits="userSpaceOnUse" xlink:href="#linearGradient68458"/>
  <linearGradient id="linearGradient88653" x1="29.868" x2="29.868" y1="-90.371" y2="-86.011" gradientTransform="matrix(1.0634 0 0 1.0634 -11.287 114.7)" gradientUnits="userSpaceOnUse" xlink:href="#linearGradient78248"/>
  <linearGradient id="linearGradient88655" x1="29.907" x2="29.907" y1="-90.767" y2="-85.565" gradientTransform="matrix(1.0634 0 0 1.0634 -3.9379 114.7)" gradientUnits="userSpaceOnUse" xlink:href="#linearGradient68458"/>
  <linearGradient id="linearGradient88657" x1="29.868" x2="29.868" y1="-90.371" y2="-86.011" gradientTransform="matrix(1.0634 0 0 1.0634 -3.9379 114.7)" gradientUnits="userSpaceOnUse" xlink:href="#linearGradient78248"/>
  <linearGradient id="linearGradient88659" x1="29.907" x2="29.907" y1="-90.767" y2="-85.565" gradientTransform="matrix(1.0634 0 0 1.0634 3.4113 114.7)" gradientUnits="userSpaceOnUse" xlink:href="#linearGradient68458"/>
  <linearGradient id="linearGradient88661" x1="29.868" x2="29.868" y1="-90.371" y2="-86.011" gradientTransform="matrix(1.0634 0 0 1.0634 3.4113 114.7)" gradientUnits="userSpaceOnUse" xlink:href="#linearGradient78248"/>
  <linearGradient id="linearGradient88663" x1="29.907" x2="29.907" y1="-90.767" y2="-85.565" gradientTransform="matrix(1.0634 0 0 1.0634 10.76 114.7)" gradientUnits="userSpaceOnUse" xlink:href="#linearGradient68458"/>
  <linearGradient id="linearGradient88665" x1="29.868" x2="29.868" y1="-90.371" y2="-86.011" gradientTransform="matrix(1.0634 0 0 1.0634 10.76 114.7)" gradientUnits="userSpaceOnUse" xlink:href="#linearGradient78248"/>
  <linearGradient id="linearGradient88667" x1="29.907" x2="29.907" y1="-90.767" y2="-85.565" gradientTransform="matrix(1.0634 0 0 1.0634 18.11 114.7)" gradientUnits="userSpaceOnUse" xlink:href="#linearGradient68458"/>
  <linearGradient id="linearGradient88669" x1="29.868" x2="29.868" y1="-90.371" y2="-86.011" gradientTransform="matrix(1.0634 0 0 1.0634 18.11 114.7)" gradientUnits="userSpaceOnUse" xlink:href="#linearGradient78248"/>
 </defs>
 <rect transform="rotate(-6.792)" x=".49055" y="8.0595" width="55.001" height="55.001" ry="5" fill="url(#linearGradient903)" stroke="url(#linearGradient13429)"/>
 <g transform="translate(-.3637)" fill-rule="evenodd">
  <circle transform="rotate(-7.3138)" cx="5.8278" cy="13.526" r="2.75" fill="url(#linearGradient68460)" style="paint-order:stroke fill markers"/>
  <circle transform="rotate(-7.3138)" cx="5.8278" cy="13.526" r="2.4909" fill="url(#linearGradient78250)" style="paint-order:stroke fill markers"/>
  <circle transform="rotate(-7.3138)" cx="13.177" cy="13.526" r="2.75" fill="url(#linearGradient86688)" style="paint-order:stroke fill markers"/>
  <circle transform="rotate(-7.3138)" cx="13.177" cy="13.526" r="2.4909" fill="url(#linearGradient86690)" style="paint-order:stroke fill markers"/>
  <circle transform="rotate(-7.3138)" cx="20.526" cy="13.526" r="2.75" fill="url(#linearGradient86698)" style="paint-order:stroke fill markers"/>
  <circle transform="rotate(-7.3138)" cx="20.526" cy="13.526" r="2.4909" fill="url(#linearGradient86700)" style="paint-order:stroke fill markers"/>
  <circle transform="rotate(-7.3138)" cx="27.875" cy="13.526" r="2.75" fill="url(#linearGradient86708)" style="paint-order:stroke fill markers"/>
  <circle transform="rotate(-7.3138)" cx="27.875" cy="13.526" r="2.4909" fill="url(#linearGradient86710)" style="paint-order:stroke fill markers"/>
  <circle transform="rotate(-7.3138)" cx="35.224" cy="13.526" r="2.75" fill="url(#linearGradient86718)" style="paint-order:stroke fill markers"/>
  <circle transform="rotate(-7.3138)" cx="35.224" cy="13.526" r="2.4909" fill="url(#linearGradient86720)" style="paint-order:stroke fill markers"/>
  <circle transform="rotate(-7.3138)" cx="42.574" cy="13.526" r="2.75" fill="url(#linearGradient86728)" style="paint-order:stroke fill markers"/>
  <circle transform="rotate(-7.3138)" cx="42.574" cy="13.526" r="2.4909" fill="url(#linearGradient86730)" style="paint-order:stroke fill markers"/>
  <circle transform="rotate(-7.3138)" cx="49.923" cy="13.526" r="2.75" fill="url(#linearGradient86738)" style="paint-order:stroke fill markers"/>
  <circle transform="rotate(-7.3138)" cx="49.923" cy="13.526" r="2.4909" fill="url(#linearGradient86740)" style="paint-order:stroke fill markers"/>
  <circle transform="rotate(-7.3138)" cx="5.8278" cy="58.274" r="2.75" fill="url(#linearGradient88203)" style="paint-order:stroke fill markers"/>
  <circle transform="rotate(-7.3138)" cx="5.8278" cy="58.274" r="2.4909" fill="url(#linearGradient88205)" style="paint-order:stroke fill markers"/>
  <circle transform="rotate(-7.3138)" cx="13.177" cy="58.274" r="2.75" fill="url(#linearGradient88207)" style="paint-order:stroke fill markers"/>
  <circle transform="rotate(-7.3138)" cx="13.177" cy="58.274" r="2.4909" fill="url(#linearGradient88209)" style="paint-order:stroke fill markers"/>
  <circle transform="rotate(-7.3138)" cx="20.526" cy="58.274" r="2.75" fill="url(#linearGradient88211)" style="paint-order:stroke fill markers"/>
  <circle transform="rotate(-7.3138)" cx="20.526" cy="58.274" r="2.4909" fill="url(#linearGradient88213)" style="paint-order:stroke fill markers"/>
  <circle transform="rotate(-7.3138)" cx="27.875" cy="58.274" r="2.75" fill="url(#linearGradient88215)" style="paint-order:stroke fill markers"/>
  <circle transform="rotate(-7.3138)" cx="27.875" cy="58.274" r="2.4909" fill="url(#linearGradient88217)" style="paint-order:stroke fill markers"/>
  <circle transform="rotate(-7.3138)" cx="35.224" cy="58.274" r="2.75" fill="url(#linearGradient88219)" style="paint-order:stroke fill markers"/>
  <circle transform="rotate(-7.3138)" cx="35.224" cy="58.274" r="2.4909" fill="url(#linearGradient88221)" style="paint-order:stroke fill markers"/>
  <circle transform="rotate(-7.3138)" cx="42.574" cy="58.274" r="2.75" fill="url(#linearGradient88223)" style="paint-order:stroke fill markers"/>
  <circle transform="rotate(-7.3138)" cx="42.574" cy="58.274" r="2.4909" fill="url(#linearGradient88225)" style="paint-order:stroke fill markers"/>
  <circle transform="rotate(-7.3138)" cx="49.923" cy="58.274" r="2.75" fill="url(#linearGradient88227)" style="paint-order:stroke fill markers"/>
  <circle transform="rotate(-7.3138)" cx="49.923" cy="58.274" r="2.4909" fill="url(#linearGradient88229)" style="paint-order:stroke fill markers"/>
  <circle transform="rotate(-7.3138)" cx="5.8278" cy="50.816" r="2.75" fill="url(#linearGradient88355)" style="paint-order:stroke fill markers"/>
  <circle transform="rotate(-7.3138)" cx="5.8278" cy="50.816" r="2.4909" fill="url(#linearGradient88357)" style="paint-order:stroke fill markers"/>
  <circle transform="rotate(-7.3138)" cx="13.177" cy="50.816" r="2.75" fill="url(#linearGradient88359)" style="paint-order:stroke fill markers"/>
  <circle transform="rotate(-7.3138)" cx="13.177" cy="50.816" r="2.4909" fill="url(#linearGradient88361)" style="paint-order:stroke fill markers"/>
  <circle transform="rotate(-7.3138)" cx="20.526" cy="50.816" r="2.75" fill="url(#linearGradient88363)" style="paint-order:stroke fill markers"/>
  <circle transform="rotate(-7.3138)" cx="20.526" cy="50.816" r="2.4909" fill="url(#linearGradient88365)" style="paint-order:stroke fill markers"/>
  <circle transform="rotate(-7.3138)" cx="27.875" cy="50.816" r="2.75" fill="url(#linearGradient88367)" style="paint-order:stroke fill markers"/>
  <circle transform="rotate(-7.3138)" cx="27.875" cy="50.816" r="2.4909" fill="url(#linearGradient88369)" style="paint-order:stroke fill markers"/>
  <circle transform="rotate(-7.3138)" cx="35.224" cy="50.816" r="2.75" fill="url(#linearGradient88371)" style="paint-order:stroke fill markers"/>
  <circle transform="rotate(-7.3138)" cx="35.224" cy="50.816" r="2.4909" fill="url(#linearGradient88373)" style="paint-order:stroke fill markers"/>
  <circle transform="rotate(-7.3138)" cx="42.574" cy="50.816" r="2.75" fill="url(#linearGradient88375)" style="paint-order:stroke fill markers"/>
  <circle transform="rotate(-7.3138)" cx="42.574" cy="50.816" r="2.4909" fill="url(#linearGradient88377)" style="paint-order:stroke fill markers"/>
  <circle transform="rotate(-7.3138)" cx="49.923" cy="50.816" r="2.75" fill="url(#linearGradient88379)" style="paint-order:stroke fill markers"/>
  <circle transform="rotate(-7.3138)" cx="49.923" cy="50.816" r="2.4909" fill="url(#linearGradient88381)" style="paint-order:stroke fill markers"/>
  <circle transform="rotate(-7.3138)" cx="5.8278" cy="43.358" r="2.75" fill="url(#linearGradient88427)" style="paint-order:stroke fill markers"/>
  <circle transform="rotate(-7.3138)" cx="5.8278" cy="43.358" r="2.4909" fill="url(#linearGradient88429)" style="paint-order:stroke fill markers"/>
  <circle transform="rotate(-7.3138)" cx="13.177" cy="43.358" r="2.75" fill="url(#linearGradient88431)" style="paint-order:stroke fill markers"/>
  <circle transform="rotate(-7.3138)" cx="13.177" cy="43.358" r="2.4909" fill="url(#linearGradient88433)" style="paint-order:stroke fill markers"/>
  <circle transform="rotate(-7.3138)" cx="20.526" cy="43.358" r="2.75" fill="url(#linearGradient88435)" style="paint-order:stroke fill markers"/>
  <circle transform="rotate(-7.3138)" cx="20.526" cy="43.358" r="2.4909" fill="url(#linearGradient88437)" style="paint-order:stroke fill markers"/>
  <circle transform="rotate(-7.3138)" cx="27.875" cy="43.358" r="2.75" fill="url(#linearGradient88439)" style="paint-order:stroke fill markers"/>
  <circle transform="rotate(-7.3138)" cx="27.875" cy="43.358" r="2.4909" fill="url(#linearGradient88441)" style="paint-order:stroke fill markers"/>
  <circle transform="rotate(-7.3138)" cx="35.224" cy="43.358" r="2.75" fill="url(#linearGradient88443)" style="paint-order:stroke fill markers"/>
  <circle transform="rotate(-7.3138)" cx="35.224" cy="43.358" r="2.4909" fill="url(#linearGradient88445)" style="paint-order:stroke fill markers"/>
  <circle transform="rotate(-7.3138)" cx="42.574" cy="43.358" r="2.75" fill="url(#linearGradient88447)" style="paint-order:stroke fill markers"/>
  <circle transform="rotate(-7.3138)" cx="42.574" cy="43.358" r="2.4909" fill="url(#linearGradient88449)" style="paint-order:stroke fill markers"/>
  <circle transform="rotate(-7.3138)" cx="49.923" cy="43.358" r="2.75" fill="url(#linearGradient88451)" style="paint-order:stroke fill markers"/>
  <circle transform="rotate(-7.3138)" cx="49.923" cy="43.358" r="2.4909" fill="url(#linearGradient88453)" style="paint-order:stroke fill markers"/>
  <circle transform="rotate(-7.3138)" cx="5.8278" cy="35.9" r="2.75" fill="url(#linearGradient88499)" style="paint-order:stroke fill markers"/>
  <circle transform="rotate(-7.3138)" cx="5.8278" cy="35.9" r="2.4909" fill="url(#linearGradient88501)" style="paint-order:stroke fill markers"/>
  <circle transform="rotate(-7.3138)" cx="13.177" cy="35.9" r="2.75" fill="url(#linearGradient88503)" style="paint-order:stroke fill markers"/>
  <circle transform="rotate(-7.3138)" cx="13.177" cy="35.9" r="2.4909" fill="url(#linearGradient88505)" style="paint-order:stroke fill markers"/>
  <circle transform="rotate(-7.3138)" cx="20.526" cy="35.9" r="2.75" fill="url(#linearGradient88507)" style="paint-order:stroke fill markers"/>
  <circle transform="rotate(-7.3138)" cx="20.526" cy="35.9" r="2.4909" fill="url(#linearGradient88509)" style="paint-order:stroke fill markers"/>
  <circle transform="rotate(-7.3138)" cx="27.875" cy="35.9" r="2.75" fill="url(#linearGradient88511)" style="paint-order:stroke fill markers"/>
  <circle transform="rotate(-7.3138)" cx="27.875" cy="35.9" r="2.4909" fill="url(#linearGradient88513)" style="paint-order:stroke fill markers"/>
  <circle transform="rotate(-7.3138)" cx="35.224" cy="35.9" r="2.75" fill="url(#linearGradient88515)" style="paint-order:stroke fill markers"/>
  <circle transform="rotate(-7.3138)" cx="35.224" cy="35.9" r="2.4909" fill="url(#linearGradient88517)" style="paint-order:stroke fill markers"/>
  <circle transform="rotate(-7.3138)" cx="42.574" cy="35.9" r="2.75" fill="url(#linearGradient88519)" style="paint-order:stroke fill markers"/>
  <circle transform="rotate(-7.3138)" cx="42.574" cy="35.9" r="2.4909" fill="url(#linearGradient88521)" style="paint-order:stroke fill markers"/>
  <circle transform="rotate(-7.3138)" cx="49.923" cy="35.9" r="2.75" fill="url(#linearGradient88523)" style="paint-order:stroke fill markers"/>
  <circle transform="rotate(-7.3138)" cx="49.923" cy="35.9" r="2.4909" fill="url(#linearGradient88525)" style="paint-order:stroke fill markers"/>
  <circle transform="rotate(-7.3138)" cx="5.8278" cy="28.442" r="2.75" fill="url(#linearGradient88571)" style="paint-order:stroke fill markers"/>
  <circle transform="rotate(-7.3138)" cx="5.8278" cy="28.442" r="2.4909" fill="url(#linearGradient88573)" style="paint-order:stroke fill markers"/>
  <circle transform="rotate(-7.3138)" cx="13.177" cy="28.442" r="2.75" fill="url(#linearGradient88575)" style="paint-order:stroke fill markers"/>
  <circle transform="rotate(-7.3138)" cx="13.177" cy="28.442" r="2.4909" fill="url(#linearGradient88577)" style="paint-order:stroke fill markers"/>
  <circle transform="rotate(-7.3138)" cx="20.526" cy="28.442" r="2.75" fill="url(#linearGradient88579)" style="paint-order:stroke fill markers"/>
  <circle transform="rotate(-7.3138)" cx="20.526" cy="28.442" r="2.4909" fill="url(#linearGradient88581)" style="paint-order:stroke fill markers"/>
  <circle transform="rotate(-7.3138)" cx="27.875" cy="28.442" r="2.75" fill="url(#linearGradient88583)" style="paint-order:stroke fill markers"/>
  <circle transform="rotate(-7.3138)" cx="27.875" cy="28.442" r="2.4909" fill="url(#linearGradient88585)" style="paint-order:stroke fill markers"/>
  <circle transform="rotate(-7.3138)" cx="35.224" cy="28.442" r="2.75" fill="url(#linearGradient88587)" style="paint-order:stroke fill markers"/>
  <circle transform="rotate(-7.3138)" cx="35.224" cy="28.442" r="2.4909" fill="url(#linearGradient88589)" style="paint-order:stroke fill markers"/>
  <circle transform="rotate(-7.3138)" cx="42.574" cy="28.442" r="2.75" fill="url(#linearGradient88591)" style="paint-order:stroke fill markers"/>
  <circle transform="rotate(-7.3138)" cx="42.574" cy="28.442" r="2.4909" fill="url(#linearGradient88593)" style="paint-order:stroke fill markers"/>
  <circle transform="rotate(-7.3138)" cx="49.923" cy="28.442" r="2.75" fill="url(#linearGradient88595)" style="paint-order:stroke fill markers"/>
  <circle transform="rotate(-7.3138)" cx="49.923" cy="28.442" r="2.4909" fill="url(#linearGradient88597)" style="paint-order:stroke fill markers"/>
  <circle transform="rotate(-7.3138)" cx="5.8278" cy="20.984" r="2.75" fill="url(#linearGradient88643)" style="paint-order:stroke fill markers"/>
  <circle transform="rotate(-7.3138)" cx="5.8278" cy="20.984" r="2.4909" fill="url(#linearGradient88645)" style="paint-order:stroke fill markers"/>
  <circle transform="rotate(-7.3138)" cx="13.177" cy="20.984" r="2.75" fill="url(#linearGradient88647)" style="paint-order:stroke fill markers"/>
  <circle transform="rotate(-7.3138)" cx="13.177" cy="20.984" r="2.4909" fill="url(#linearGradient88649)" style="paint-order:stroke fill markers"/>
  <circle transform="rotate(-7.3138)" cx="20.526" cy="20.984" r="2.75" fill="url(#linearGradient88651)" style="paint-order:stroke fill markers"/>
  <circle transform="rotate(-7.3138)" cx="20.526" cy="20.984" r="2.4909" fill="url(#linearGradient88653)" style="paint-order:stroke fill markers"/>
  <circle transform="rotate(-7.3138)" cx="27.875" cy="20.984" r="2.75" fill="url(#linearGradient88655)" style="paint-order:stroke fill markers"/>
  <circle transform="rotate(-7.3138)" cx="27.875" cy="20.984" r="2.4909" fill="url(#linearGradient88657)" style="paint-order:stroke fill markers"/>
  <circle transform="rotate(-7.3138)" cx="35.224" cy="20.984" r="2.75" fill="url(#linearGradient88659)" style="paint-order:stroke fill markers"/>
  <circle transform="rotate(-7.3138)" cx="35.224" cy="20.984" r="2.4909" fill="url(#linearGradient88661)" style="paint-order:stroke fill markers"/>
  <circle transform="rotate(-7.3138)" cx="42.574" cy="20.984" r="2.75" fill="url(#linearGradient88663)" style="paint-order:stroke fill markers"/>
  <circle transform="rotate(-7.3138)" cx="42.574" cy="20.984" r="2.4909" fill="url(#linearGradient88665)" style="paint-order:stroke fill markers"/>
  <circle transform="rotate(-7.3138)" cx="49.923" cy="20.984" r="2.75" fill="url(#linearGradient88667)" style="paint-order:stroke fill markers"/>
  <circle transform="rotate(-7.3138)" cx="49.923" cy="20.984" r="2.4909" fill="url(#linearGradient88669)" style="paint-order:stroke fill markers"/>
 </g>
 <g transform="matrix(.71688 0 0 .71308 5.7351 76.343)" filter="url(#filter68326)" opacity=".3" style="mix-blend-mode:normal">
  <g fill-rule="evenodd">
   <path d="m63.271-87.221a15 15 0 0 0-15 15 15 15 0 0 0 15 15 15 15 0 0 0 15-15 15 15 0 0 0-15-15zm0 5.2129a9.7873 9.7873 0 0 1 9.7871 9.7871 9.7873 9.7873 0 0 1-9.7871 9.7871 9.7873 9.7873 0 0 1-9.7871-9.7871 9.7873 9.7873 0 0 1 9.7871-9.7871z" opacity="1" style="paint-order:stroke fill markers"/>
   <path d="m43.086-54.82a11 11 0 0 0-11 11 11 11 0 0 0 11 11 11 11 0 0 0 11-11 11 11 0 0 0-11-11zm0 2.7852a8.214 8.214 0 0 1 8.2148 8.2148 8.214 8.214 0 0 1-8.2148 8.2148 8.214 8.214 0 0 1-8.2129-8.2148 8.214 8.214 0 0 1 8.2129-8.2148z" opacity="1" style="paint-order:stroke fill markers"/>
   <path d="m5.1289-63.809a11 11 0 0 0-11 11 11 11 0 0 0 11 11 11 11 0 0 0 11-11 11 11 0 0 0-11-11zm0 2.6641a8.3359 8.3359 0 0 1 8.3359 8.3359 8.3359 8.3359 0 0 1-8.3359 8.3359 8.3359 8.3359 0 0 1-8.3359-8.3359 8.3359 8.3359 0 0 1 8.3359-8.3359z" opacity="1" style="paint-order:stroke fill markers"/>
   <circle cx="63.288" cy="-72.093" r="7.5" opacity="1" style="paint-order:stroke fill markers"/>
   <rect transform="rotate(12.959)" x="-13.38" y="-58.304" width="51.7" height="11.779" ry="5.8897" opacity="1" style="paint-order:stroke fill markers"/>
  </g>
  <path d="m48.926-69.982-7.6523 16.284 6.9851 1.948 4.9543 6.2651 13.146-12.989-10.201-4.113z" opacity="1"/>
 </g>
 <g transform="matrix(.71308 0 0 .71308 6.1865 74.799)" fill="url(#linearGradient57848)">
  <g fill-rule="evenodd">
   <path d="m63.271-87.221a15 15 0 0 0-15 15 15 15 0 0 0 15 15 15 15 0 0 0 15-15 15 15 0 0 0-15-15zm0 5.2129a9.7873 9.7873 0 0 1 9.7871 9.7871 9.7873 9.7873 0 0 1-9.7871 9.7871 9.7873 9.7873 0 0 1-9.7871-9.7871 9.7873 9.7873 0 0 1 9.7871-9.7871z" style="paint-order:stroke fill markers"/>
   <path d="m43.086-54.82a11 11 0 0 0-11 11 11 11 0 0 0 11 11 11 11 0 0 0 11-11 11 11 0 0 0-11-11zm0 2.7852a8.214 8.214 0 0 1 8.2148 8.2148 8.214 8.214 0 0 1-8.2148 8.2148 8.214 8.214 0 0 1-8.2129-8.2148 8.214 8.214 0 0 1 8.2129-8.2148z" style="paint-order:stroke fill markers"/>
   <path d="m5.1289-63.809a11 11 0 0 0-11 11 11 11 0 0 0 11 11 11 11 0 0 0 11-11 11 11 0 0 0-11-11zm0 2.6641a8.3359 8.3359 0 0 1 8.3359 8.3359 8.3359 8.3359 0 0 1-8.3359 8.3359 8.3359 8.3359 0 0 1-8.3359-8.3359 8.3359 8.3359 0 0 1 8.3359-8.3359z" style="paint-order:stroke fill markers"/>
   <circle cx="63.288" cy="-72.093" r="7.5" style="paint-order:stroke fill markers"/>
   <rect transform="rotate(12.959)" x="-13.38" y="-58.304" width="51.7" height="11.779" ry="5.8897" style="paint-order:stroke fill markers"/>
  </g>
  <path d="m48.926-69.982-7.6523 16.284 6.9851 1.948 4.9543 6.2651 13.146-12.989-10.201-4.113z"/>
 </g>
</svg>
