<?xml version="1.0" encoding="UTF-8" standalone="no"?>
<svg
   xmlns:dc="http://purl.org/dc/elements/1.1/"
   xmlns:cc="http://creativecommons.org/ns#"
   xmlns:rdf="http://www.w3.org/1999/02/22-rdf-syntax-ns#"
   xmlns:svg="http://www.w3.org/2000/svg"
   xmlns="http://www.w3.org/2000/svg"
   xmlns:xlink="http://www.w3.org/1999/xlink"
   xmlns:sodipodi="http://sodipodi.sourceforge.net/DTD/sodipodi-0.dtd"
   xmlns:inkscape="http://www.inkscape.org/namespaces/inkscape"
   inkscape:version="1.0 (4035a4fb49, 2020-05-01)"
   sodipodi:docname="stoken-gui.svg"
   id="svg40"
   viewBox="0 0 16.933 16.933"
   version="1.1"
   height="64"
   width="64">
  <metadata
     id="metadata44">
    <rdf:RDF>
      <cc:Work
         rdf:about="">
        <dc:format>image/svg+xml</dc:format>
        <dc:type
           rdf:resource="http://purl.org/dc/dcmitype/StillImage" />
        <dc:title></dc:title>
      </cc:Work>
    </rdf:RDF>
  </metadata>
  <sodipodi:namedview
     inkscape:current-layer="svg40"
     inkscape:window-maximized="1"
     inkscape:window-y="36"
     inkscape:window-x="0"
     inkscape:cy="31.80988"
     inkscape:cx="43.855234"
     inkscape:zoom="5.9609375"
     showgrid="false"
     id="namedview42"
     inkscape:window-height="932"
     inkscape:window-width="1920"
     inkscape:pageshadow="2"
     inkscape:pageopacity="0"
     guidetolerance="10"
     gridtolerance="10"
     objecttolerance="10"
     borderopacity="1"
     bordercolor="#666666"
     pagecolor="#ffffff" />
  <defs
     id="defs18">
    <linearGradient
       gradientUnits="userSpaceOnUse"
       y2="13.758"
       y1="3.175"
       x2="6.6145"
       x1="6.6145"
       id="f">
      <stop
         id="stop2"
         offset="0"
         stop-color="#15c4fc" />
      <stop
         id="stop4"
         offset="1"
         stop-color="#1863ee" />
    </linearGradient>
    <filter
       color-interpolation-filters="sRGB"
       height="1.12"
       width="1.12"
       y="-.06"
       x="-.06"
       id="k">
      <feGaussianBlur
         id="feGaussianBlur7"
         stdDeviation="0.264575" />
    </filter>
    <filter
       color-interpolation-filters="sRGB"
       height="1.1007"
       width="1.1484"
       y="-.050355"
       x="-.074214"
       id="i">
      <feGaussianBlur
         id="feGaussianBlur10"
         stdDeviation="0.089997363" />
    </filter>
    <linearGradient
       gradientTransform="translate(22.63352)"
       gradientUnits="userSpaceOnUse"
       y2="1.852"
       y1="15.081"
       x2="7.9373"
       x1="7.9373"
       id="linearGradient862">
      <stop
         id="stop13"
         offset="0"
         stop-color="#f1efeb" />
      <stop
         id="stop15"
         offset="1"
         stop-color="#fff" />
    </linearGradient>
    <linearGradient
       id="b"
       x1="408.25"
       x2="407.94"
       y1="547.6"
       y2="498.89"
       gradientTransform="matrix(1.3276,0,0,1.3276,-507.38576,-679.24881)"
       gradientUnits="userSpaceOnUse">
      <stop
         stop-color="#fff"
         offset="0"
         id="stop4-3" />
      <stop
         stop-color="#f5f5f5"
         offset="1"
         id="stop6" />
    </linearGradient>
    <filter
       id="d"
       x="-.058883"
       y="-.061161"
       width="1.1178"
       height="1.1223"
       color-interpolation-filters="sRGB">
      <feGaussianBlur
         stdDeviation="10.562379"
         id="feGaussianBlur9" />
    </filter>
    <filter
       id="c"
       x="-.036"
       y="-.036"
       width="1.072"
       height="1.072"
       color-interpolation-filters="sRGB">
      <feGaussianBlur
         stdDeviation="0.88972449"
         id="feGaussianBlur12" />
    </filter>
    <filter
       x="-.05999"
       y="-.06001"
       width="1.12"
       height="1.12"
       color-interpolation-filters="sRGB"
       id="filter17">
      <feGaussianBlur
         stdDeviation="0.21163584"
         id="feGaussianBlur15" />
    </filter>
    <linearGradient
       id="linearGradient862-6"
       x1="31.174"
       x2="58.826"
       y1="21.203"
       y2="21.203"
       gradientTransform="translate(-15,3)"
       gradientUnits="userSpaceOnUse">
      <stop
         stop-color="#ff0ae7"
         offset="0"
         id="stop19" />
      <stop
         stop-color="#ffb814"
         offset="1"
         id="stop21" />
    </linearGradient>
    <linearGradient
       id="linearGradient880"
       x1="15.938"
       x2="44.062"
       y1="44.845"
       y2="44.845"
       gradientTransform="rotate(2.3768,118.86,41.374)"
       gradientUnits="userSpaceOnUse">
      <stop
         stop-color="#8638fd"
         offset="0"
         id="stop24" />
      <stop
         stop-color="#4ec2fa"
         offset="1"
         id="stop26" />
    </linearGradient>
    <filter
       id="filter928"
       x="-.063061"
       y="-.057222"
       width="1.1261"
       height="1.1144"
       color-interpolation-filters="sRGB">
      <feGaussianBlur
         stdDeviation="0.7391235"
         id="feGaussianBlur29" />
    </filter>
    <filter
       color-interpolation-filters="sRGB"
       height="1.1223"
       width="1.1178"
       y="-.061161"
       x="-.058883"
       id="d-3">
      <feGaussianBlur
         id="feGaussianBlur864"
         stdDeviation="10.562379" />
    </filter>
    <filter
       color-interpolation-filters="sRGB"
       height="1.12"
       width="1.12"
       y="-.06001"
       x="-.05999"
       id="filter883">
      <feGaussianBlur
         id="feGaussianBlur867"
         stdDeviation="0.21163584" />
    </filter>
    <linearGradient
       gradientUnits="userSpaceOnUse"
       gradientTransform="matrix(0.26457812,0,0,0.26457812,0.06686976,0.21517624)"
       y2="62"
       y1="2"
       x2="32"
       x1="32"
       id="a-3">
      <stop
         id="stop870"
         offset="0"
         stop-color="#f5faff" />
      <stop
         id="stop872"
         offset="1"
         stop-color="#cfdef0" />
    </linearGradient>
    <linearGradient
       y2="13.758"
       x2="6.6145"
       y1="3.175"
       x1="6.6145"
       gradientUnits="userSpaceOnUse"
       id="linearGradient960"
       xlink:href="#f"
       inkscape:collect="always" />
  </defs>
  <circle
     id="circle877"
     style="fill:url(#a-3);stroke-width:0.264578;paint-order:stroke markers fill"
     r="7.9373436"
     cy="8.4665003"
     cx="8.4665003" />
  <g
     transform="translate(29.978)"
     id="g958">
    <g
       transform="translate(-28.126)"
       id="g950">
      <circle
         cx="6.6145"
         cy="8.4665003"
         r="5.2915001"
         filter="url(#k)"
         opacity="0.25"
         style="paint-order:stroke markers fill"
         id="circle944" />
      <circle
         cx="6.6145"
         cy="8.4665003"
         r="5.2915001"
         fill="url(#f)"
         style="fill:url(#linearGradient960);paint-order:stroke markers fill"
         id="circle946" />
      <path
         transform="matrix(0.26458,0,0,0.26458,-0.26457,0)"
         d="M 26,16 A 15.999,15.999 0 0 0 15.816,19.6719 V 22.418 A 14,14 0 0 0 11.9996,32 14,14 0 0 0 15.816,41.5938 v 2.7363 A 15.999,15.999 0 0 0 26,48 15.999,15.999 0 0 0 41.998,32.002 15.999,15.999 0 0 0 26,16 Z"
         opacity="0.25"
         stroke-width="3.7796"
         style="paint-order:stroke markers fill"
         id="path948" />
    </g>
    <g
       transform="translate(-28.126)"
       stroke-width="0.26458"
       aria-label="S"
       id="g956">
      <path
         d="M 7.8204,6.5323 V 7.07782 Q 7.50195,6.92552 7.2195,6.85075 6.93705,6.77598 6.67398,6.775983 q -0.45691,0 -0.70613,0.17722 -0.24645,0.17722 -0.24645,0.50398 0,0.27414 0.16338,0.41537 0.16615,0.13846 0.62582,0.2243 l 0.33783,0.069228 q 0.62582,0.11907 0.92212,0.42091 0.29907,0.29907 0.29907,0.80305 0,0.6009 -0.40429,0.91104 -0.40152,0.31014 -1.1797,0.31014 -0.29353,0 -0.62582,-0.06646 -0.32953,-0.06646 -0.68398,-0.19661 v -0.57598 q 0.3406,0.19107 0.66736,0.28799 0.32676,0.09692 0.64244,0.09692 0.47906,0 0.73936,-0.1883 0.2603,-0.1883 0.2603,-0.53721 0,-0.3046 -0.1883,-0.47629 Q 7.11146,8.783591 6.68501,8.697751 L 6.34441,8.631292 Q 5.71859,8.506682 5.4389,8.240842 5.15922,7.975002 5.15922,7.501482 q 0,-0.54829 0.38491,-0.86397 0.38768,-0.31568 1.0661,-0.31568 0.29076,0 0.59259,0.052614 0.30184,0.052613 0.61752,0.15784 z"
         filter="url(#i)"
         opacity="0.25"
         id="path952" />
      <path
         d="M 7.8204,6.5323 V 7.07782 Q 7.50195,6.92552 7.2195,6.85075 6.93705,6.77598 6.67398,6.775983 q -0.45691,0 -0.70613,0.17722 -0.24645,0.17722 -0.24645,0.50398 0,0.27414 0.16338,0.41537 0.16615,0.13846 0.62582,0.2243 l 0.33783,0.069228 q 0.62582,0.11907 0.92212,0.42091 0.29907,0.29907 0.29907,0.80305 0,0.6009 -0.40429,0.91104 -0.40152,0.31014 -1.1797,0.31014 -0.29353,0 -0.62582,-0.06646 -0.32953,-0.06646 -0.68398,-0.19661 v -0.57598 q 0.3406,0.19107 0.66736,0.28799 0.32676,0.09692 0.64244,0.09692 0.47906,0 0.73936,-0.1883 0.2603,-0.1883 0.2603,-0.53721 0,-0.3046 -0.1883,-0.47629 Q 7.11146,8.783591 6.68501,8.697751 L 6.34441,8.631292 Q 5.71859,8.506682 5.4389,8.240842 5.15922,7.975002 5.15922,7.501482 q 0,-0.54829 0.38491,-0.86397 0.38768,-0.31568 1.0661,-0.31568 0.29076,0 0.59259,0.052614 0.30184,0.052613 0.61752,0.15784 z"
         fill="#ffffff"
         id="path954" />
    </g>
  </g>
</svg>
