<?xml version="1.0" encoding="UTF-8" standalone="no"?>
<svg
   xmlns:dc="http://purl.org/dc/elements/1.1/"
   xmlns:cc="http://creativecommons.org/ns#"
   xmlns:rdf="http://www.w3.org/1999/02/22-rdf-syntax-ns#"
   xmlns:svg="http://www.w3.org/2000/svg"
   xmlns="http://www.w3.org/2000/svg"
   xmlns:xlink="http://www.w3.org/1999/xlink"
   xmlns:sodipodi="http://sodipodi.sourceforge.net/DTD/sodipodi-0.dtd"
   xmlns:inkscape="http://www.inkscape.org/namespaces/inkscape"
   inkscape:version="1.0 (4035a4fb49, 2020-05-01)"
   sodipodi:docname="swell-foop.svg"
   id="svg63"
   version="1.1"
   height="64"
   width="64">
  <metadata
     id="metadata67">
    <rdf:RDF>
      <cc:Work
         rdf:about="">
        <dc:format>image/svg+xml</dc:format>
        <dc:type
           rdf:resource="http://purl.org/dc/dcmitype/StillImage" />
        <dc:title></dc:title>
      </cc:Work>
    </rdf:RDF>
  </metadata>
  <sodipodi:namedview
     inkscape:current-layer="svg63"
     inkscape:window-maximized="1"
     inkscape:window-y="36"
     inkscape:window-x="0"
     inkscape:cy="20.131477"
     inkscape:cx="8.4778169"
     inkscape:zoom="4.2150193"
     showgrid="false"
     id="namedview65"
     inkscape:window-height="932"
     inkscape:window-width="1920"
     inkscape:pageshadow="2"
     inkscape:pageopacity="0"
     guidetolerance="10"
     gridtolerance="10"
     objecttolerance="10"
     borderopacity="1"
     bordercolor="#666666"
     pagecolor="#ffffff" />
  <defs
     id="defs23">
    <linearGradient
       id="a">
      <stop
         id="stop2"
         offset="0"
         stop-color="#68b0e3" />
      <stop
         id="stop4"
         offset="1"
         stop-color="#6884e3" />
    </linearGradient>
    <linearGradient
       gradientTransform="matrix(1.2966262,-0.14127658,0.14127658,1.2966262,-2.510759,4.2710084)"
       xlink:href="#a"
       gradientUnits="userSpaceOnUse"
       y2="24.003"
       y1="12"
       x2="18.002"
       x1="18.002"
       id="f" />
    <linearGradient
       gradientTransform="matrix(1.2966262,-0.14127658,0.14127658,1.2966262,-2.510759,4.2710084)"
       xlink:href="#a"
       gradientUnits="userSpaceOnUse"
       y2="24.003"
       y1="12"
       x2="30.004"
       x1="30.004"
       id="e" />
    <linearGradient
       gradientTransform="matrix(1.2966262,-0.14127658,0.14127658,1.2966262,-2.510759,4.2710084)"
       xlink:href="#a"
       gradientUnits="userSpaceOnUse"
       y2="35.999"
       y1="24"
       x2="30.004"
       x1="30.004"
       id="d" />
    <linearGradient
       gradientTransform="matrix(1.2966262,-0.14127658,0.14127658,1.2966262,-2.510759,4.2710084)"
       gradientUnits="userSpaceOnUse"
       y2="35.999"
       y1="24"
       x2="18.002"
       x1="18.002"
       id="c">
      <stop
         id="stop10"
         offset="0"
         stop-color="#eeee4c" />
      <stop
         id="stop12"
         offset="1"
         stop-color="#ebf06f" />
    </linearGradient>
    <filter
       color-interpolation-filters="sRGB"
       height="1.12"
       width="1.12"
       y="-.060005"
       x="-.059995"
       id="h">
      <feGaussianBlur
         id="feGaussianBlur15"
         stdDeviation="0.78264129" />
    </filter>
    <linearGradient
       gradientUnits="userSpaceOnUse"
       gradientTransform="matrix(3.7795,0,0,3.7795,23.591868,-31.46963)"
       y2="1.852"
       y1="15.081"
       x2="7.9373"
       x1="7.9373"
       id="linearGradient862-3">
      <stop
         id="stop18"
         offset="0"
         stop-color="#1a1a1a" />
      <stop
         id="stop20"
         offset="1"
         stop-color="#4d4d4d" />
    </linearGradient>
    <style
       type="text/css"
       id="style894" />
    <style
       type="text/css"
       id="style896" />
    <linearGradient
       id="linearGradient938"
       x1="80.368"
       x2="82.141"
       y1="13.177"
       y2="14.704"
       gradientTransform="matrix(3.6342,0,0,3.6342,-246.70951,-6.3936282)"
       gradientUnits="userSpaceOnUse">
      <stop
         stop-color="#e5e6ea"
         offset="0"
         id="stop898" />
      <stop
         stop-color="#2f3240"
         offset="1"
         id="stop900" />
    </linearGradient>
    <filter
       id="filter1066"
       x="-.063923"
       y="-.056531"
       width="1.1278"
       height="1.1131"
       color-interpolation-filters="sRGB">
      <feGaussianBlur
         stdDeviation="0.22705935"
         id="feGaussianBlur903" />
    </filter>
    <filter
       id="filter1100"
       x="-.12197"
       y="-.11848"
       width="1.2439"
       height="1.237"
       color-interpolation-filters="sRGB">
      <feGaussianBlur
         stdDeviation="0.47586465"
         id="feGaussianBlur906" />
    </filter>
    <style
       type="text/css"
       id="style981" />
    <style
       type="text/css"
       id="style983" />
    <filter
       id="filter1066-6"
       x="-.063923"
       y="-.056531"
       width="1.1278"
       height="1.1131"
       color-interpolation-filters="sRGB">
      <feGaussianBlur
         stdDeviation="0.22705935"
         id="feGaussianBlur990" />
    </filter>
    <filter
       id="filter1100-7"
       x="-.12197"
       y="-.11848"
       width="1.2439"
       height="1.237"
       color-interpolation-filters="sRGB">
      <feGaussianBlur
         stdDeviation="0.47586465"
         id="feGaussianBlur993" />
    </filter>
  </defs>
  <g
     transform="translate(4.9400803e-4,-2.817126e-5)"
     id="g932"
     fill="#5e4aa6">
    <circle
       id="circle918"
       r="0"
       cy="-1241.6"
       cx="-1248.7" />
    <circle
       id="circle920"
       fill-rule="evenodd"
       r="0"
       cy="23.855"
       cx="-149.14999" />
    <circle
       id="circle922"
       r="0"
       cy="-1241.6"
       cx="-1248.7" />
    <g
       id="g930"
       stroke-width="0.26458"
       transform="matrix(3.7796,0,0,3.7796,8.8756e-4,-5.7313e-5)">
      <circle
         id="circle924"
         r="0"
         cy="-328.5"
         cx="-330.38" />
      <circle
         id="circle926"
         fill-rule="evenodd"
         r="0"
         cy="6.3115001"
         cx="-39.462002" />
      <circle
         id="circle928"
         image-rendering="optimizeSpeed"
         r="0"
         cy="-328.5"
         cx="-330.38" />
    </g>
  </g>
  <rect
     id="rect934"
     stroke-width="3.6342"
     fill="#333644"
     ry="4.4112"
     height="52.883999"
     width="52.883999"
     y="7.9433274"
     x="1.654694"
     transform="rotate(-6.4422)" />
  <path
     id="path936"
     opacity="0.3"
     filter="url(#filter1066)"
     fill="#141414"
     d="m 57.818,9.8288 c 0,0 0.05354,3.0782 -2.6636,4.5408 -2.2449,1.2084 0.9386,2.689 -5.8599,5.0989 8.8505,-2.5748 8.5235,-9.6396 8.5235,-9.6396 z"
     transform="matrix(3.9047,0,0,3.6648,-168.11951,-11.586028)" />
  <path
     id="path938"
     opacity="0.2"
     filter="url(#filter1100)"
     fill="#2f3240"
     d="m 57.594,9.7322 c -0.15355,5.725 -5.0519,8.6864 -8.5234,9.6397 l 8.2859,-0.93608 c 0.6682,-0.07545 1.1451,-0.67434 1.0697,-1.3425 z"
     transform="matrix(3.1593,0,0,3.4556,-127.21951,-11.477028)" />
  <path
     id="path940"
     opacity="0.3"
     filter="url(#filter1066)"
     fill="#141414"
     d="m 57.818,9.8288 c 0,0 0.05354,3.0782 -2.6636,4.5408 -2.2449,1.2084 0.9386,2.689 -5.8599,5.0989 8.8505,-2.5748 8.5235,-9.6396 8.5235,-9.6396 z"
     transform="matrix(3.794,0,0,3.5353,-161.56951,-9.8822282)" />
  <path
     style="fill:url(#f-3)"
     id="path946"
     stroke-width="0.95833"
     fill="url(#f)"
     d="m 30.349506,16.84567 c -1.047999,0.114183 -1.812209,1.063126 -1.698128,2.110149 0.114183,1.047999 1.065034,1.812002 2.113032,1.697814 0.793593,-0.08647 1.422995,-0.653437 1.632343,-1.378016 1.383881,0.606925 2.755963,2.051857 3.871412,4.122519 1.221633,2.267217 2.137888,5.253239 2.500053,8.577167 0.295314,2.71036 0.184019,5.281039 -0.249273,7.479909 l 0.694482,0.136409 c 0.449655,-2.278711 0.562323,-4.916032 0.259851,-7.692103 -0.371199,-3.406837 -1.306779,-6.472636 -2.582499,-8.838072 -1.214671,-2.256407 -2.738345,-3.880625 -4.429927,-4.524387 a 1.9205,1.9205 0 0 0 -2.111313,-1.691261 z m 0.07681,0.704988 c 0.666883,-0.07266 1.255436,0.401126 1.327991,1.067035 0.07267,0.666883 -0.400813,1.258317 -1.066721,1.330873 -0.666883,0.07267 -1.255641,-0.403025 -1.328305,-1.069918 -0.07255,-0.665929 0.401127,-1.255434 1.067035,-1.32799 z m -6.30399,6.207746 a 10.09,10.09 0 0 0 -2.349218,0.513348 c -1.40815,0.506255 -2.489593,1.357651 -3.016853,2.552693 -0.780461,1.772967 -0.186426,3.907181 1.307963,5.961501 l 0.573533,-0.416283 c -1.410439,-1.938229 -1.87466,-3.801208 -1.233268,-5.258253 0.432813,-0.98224 1.326969,-1.712005 2.609002,-2.17278 1.280154,-0.460491 2.937472,-0.635283 4.805859,-0.501463 l 0.04998,-0.709166 c -0.971583,-0.06959 -1.89212,-0.05991 -2.747078,0.0294 z m 13.982543,-1.502292 0.06937,0.707731 c 2.328859,-0.222895 4.125755,0.308177 5.05103,1.571438 0.633983,0.864073 0.817512,1.999916 0.577509,3.336175 -0.239049,1.336154 -0.90919,2.856083 -1.954329,4.403492 l 0.589685,0.395576 c 1.085644,-1.608658 1.800663,-3.203891 2.064705,-4.672834 0.264044,-1.468943 0.06582,-2.828772 -0.704287,-3.880445 -1.125719,-1.537311 -3.22275,-2.097465 -5.693668,-1.860933 z m -3.463435,0.762964 c -2.249798,0.74448 -4.654675,1.98596 -6.968779,3.680183 -2.809447,2.05862 -5.023115,4.443829 -6.431049,6.766195 -1.366482,2.251358 -1.982964,4.449968 -1.583646,6.257349 a 1.9224,1.9224 0 0 0 -0.95328,1.867946 c 0.114183,1.047997 1.064721,1.809117 2.111724,1.695038 1.047003,-0.114081 1.809326,-1.062812 1.695245,-2.109835 -0.114081,-1.047023 -1.063127,-1.812208 -2.11015,-1.698128 -0.02382,0.0026 -0.04405,0.01154 -0.06776,0.01513 -0.303028,-1.524848 0.225744,-3.537465 1.513763,-5.659764 1.348203,-2.224319 3.503348,-4.554867 6.244992,-6.562744 2.258779,-1.653592 4.601861,-2.860284 6.771608,-3.578729 z m -2.739574,8.070322 c -0.96984,0.105673 -1.676001,0.985627 -1.570435,1.954502 0.105571,0.968877 0.984781,1.6771 1.954611,1.571431 0.96983,-0.105673 1.676001,-0.985627 1.570436,-1.954504 -0.105562,-0.968885 -0.984673,-1.676105 -1.954503,-1.570435 z m -8.992265,3.732969 -0.470273,0.53228 c 1.761297,1.557789 4.019073,3.000725 6.616433,4.145323 3.09558,1.364226 6.178073,2.085787 8.841276,2.180276 2.518063,0.08907 4.662684,-0.381749 6.088035,-1.456702 0.378575,0.289407 0.861039,0.444099 1.368864,0.388767 1.047997,-0.114183 1.812208,-1.063126 1.698128,-2.110149 -0.114082,-1.047004 -1.065035,-1.812001 -2.113033,-1.697814 -1.047998,0.114183 -1.809118,1.064721 -1.694931,2.112718 0.03114,0.285809 0.126891,0.545295 0.267683,0.77577 -1.234974,0.901904 -3.205397,1.361406 -5.589956,1.277116 -2.553769,-0.09 -5.560469,-0.788049 -8.581201,-2.11989 -2.534584,-1.116835 -4.731828,-2.525828 -6.431103,-4.027706 z m -2.431367,5.360595 c 0.665929,-0.07255 1.255642,0.403025 1.328305,1.069919 0.07267,0.666883 -0.401127,1.255434 -1.067035,1.32799 -0.66593,0.07255 -1.258318,-0.400812 -1.330874,-1.066722 -0.07255,-0.665928 0.402711,-1.258524 1.069604,-1.331187 z m 24.537778,-2.673565 c 0.666883,-0.07267 1.258525,0.402712 1.331187,1.069605 0.07267,0.666883 -0.403024,1.255642 -1.069917,1.328304 -0.666894,0.07267 -1.255436,-0.401126 -1.327991,-1.067035 -0.07255,-0.665929 0.400812,-1.258318 1.066721,-1.330874 z m -17.465039,3.865688 -0.638184,0.309567 c 0.849905,1.748629 1.874477,3.171725 3.016905,4.136558 1.141435,0.964941 2.419446,1.475416 3.716967,1.334042 1.880571,-0.204902 3.404581,-1.718582 4.434079,-3.948714 l -0.643553,-0.297162 c -0.969423,2.100161 -2.32206,3.37256 -3.867415,3.540937 -1.066985,0.116253 -2.144126,-0.293695 -3.183518,-1.171466 -1.039392,-0.877772 -2.017643,-2.221024 -2.835321,-3.903758 z" />
  <path
     id="path942"
     stroke-width="3.6342"
     fill-opacity="0.98039"
     fill="#2f3241"
     d="m 51.630494,2.2566718 c -0.29243,-0.025913 -0.59226,-0.023006 -0.8958,0.011267 l -43.787,4.9449 c -2.4284,0.2742 -4.1632,2.4488 -3.8892,4.8772002 l 4.9449,43.787 c 0.2742,2.4284 2.4488,4.1617 4.8772,3.8877 l 13.693,-1.5456 c 12.616,-3.4698 30.399,-14.233 30.957,-35.029 l 3.0236,26.752 -4.943,-43.7870002 c -0.23993,-2.1248 -1.9362,-3.7193 -3.9829,-3.9005 z" />
  <path
     transform="matrix(1.2966262,-0.14127658,0.14127658,1.2966262,-2.510759,4.2710084)"
     id="path39"
     d="m 26.402,12 h 7.203 c 1.324,0 2.398,1.074 2.398,2.398 v 7.207 c 0,1.324 -1.074,2.398 -2.398,2.398 h -7.203 c -1.324,0 -2.398,-1.074 -2.398,-2.398 V 14.398 C 24.004,13.074 25.078,12 26.402,12"
     style="filter:url(#h)" />
  <path
     transform="matrix(1.2966262,-0.14127658,0.14127658,1.2966262,-2.510759,4.2710084)"
     id="path41"
     d="m 14.398,12 h 7.207 c 1.324,0 2.398,1.074 2.398,2.398 v 7.207 c 0,1.324 -1.074,2.398 -2.398,2.398 H 14.398 C 13.074,24.003 12,22.929 12,21.605 V 14.398 C 12,13.074 13.074,12 14.398,12"
     style="filter:url(#h)" />
  <path
     transform="matrix(1.2966262,-0.14127658,0.14127658,1.2966262,-2.510759,4.2710084)"
     id="path43"
     d="m 26.402,24 h 7.203 c 1.324,0 2.398,1.074 2.398,2.398 v 7.203 c 0,1.324 -1.074,2.398 -2.398,2.398 h -7.203 c -1.324,0 -2.398,-1.074 -2.398,-2.398 V 26.398 C 24.004,25.074 25.078,24 26.402,24"
     style="filter:url(#h)" />
  <path
     transform="matrix(1.2966262,-0.14127658,0.14127658,1.2966262,-2.510759,4.2710084)"
     id="path45"
     d="m 14.398,24 h 7.207 c 1.324,0 2.398,1.074 2.398,2.398 v 7.203 c 0,1.324 -1.074,2.398 -2.398,2.398 H 14.398 C 13.074,35.999 12,34.925 12,33.601 V 26.398 C 12,25.074 13.074,24 14.398,24"
     style="filter:url(#h)" />
  <path
     style="fill:url(#e);stroke-width:1.3043"
     id="path51"
     fill="url(#e)"
     d="m 33.418084,16.100538 9.339599,-1.017616 c 1.716733,-0.18705 3.26104,1.053796 3.44809,2.770528 l 1.018181,9.344787 c 0.18705,1.716732 -1.053795,3.261039 -2.770528,3.44809 l -9.339599,1.017615 c -1.716733,0.18705 -3.261041,-1.053795 -3.448091,-2.770528 l -1.018181,-9.344786 c -0.187049,-1.716732 1.053796,-3.26104 2.770529,-3.44809" />
  <path
     style="fill:url(#f);stroke-width:1.3043"
     id="path53"
     fill="url(#f)"
     d="m 17.853383,17.796422 9.344785,-1.01818 c 1.716734,-0.18705 3.261041,1.053795 3.448091,2.770528 l 1.018181,9.344785 c 0.18705,1.716733 -1.053795,3.26104 -2.770529,3.44809 l -9.344785,1.018181 c -1.716733,0.18705 -3.261041,-1.053795 -3.44809,-2.770528 l -1.018181,-9.344785 c -0.18705,-1.716734 1.053795,-3.261041 2.770528,-3.448091" />
  <path
     style="fill:url(#d);stroke-width:1.3043"
     id="path55"
     fill="url(#d)"
     d="m 35.113404,31.660052 9.339597,-1.017616 c 1.716734,-0.187049 3.261041,1.053796 3.448092,2.770528 l 1.017615,9.339599 c 0.18705,1.716733 -1.053795,3.261041 -2.770529,3.448091 L 36.808581,47.21827 C 35.091848,47.40532 33.54754,46.164474 33.36049,44.447741 l -1.017615,-9.339599 c -0.18705,-1.716732 1.053795,-3.26104 2.770529,-3.44809" />
  <path
     style="fill:url(#c);stroke-width:1.3043"
     id="path57"
     fill="url(#c)"
     d="m 19.548702,33.355936 9.344785,-1.01818 c 1.716734,-0.18705 3.261041,1.053795 3.448092,2.770528 l 1.017615,9.339597 c 0.18705,1.716734 -1.053795,3.261042 -2.770529,3.448093 l -9.344785,1.018179 c -1.716733,0.187051 -3.261041,-1.053795 -3.44809,-2.770529 l -1.017616,-9.339597 c -0.18705,-1.716734 1.053796,-3.261041 2.770528,-3.448091" />
  <path
     id="path944"
     stroke-width="3.6342"
     fill="url(#linearGradient938)"
     d="m 57.526494,23.061972 c 0,0 0.19457,11.187 -9.6803,16.502 -8.1586,4.3915 3.4111,9.7725 -21.296,18.531 32.165,-9.3575 31.232,-34.905 31.232,-34.905 z"
     style="fill:url(#linearGradient938)" />
  <style
     type="text/css"
     id="style916">.st0{opacity:0.15;fill:#45413C;}
	.st1{fill:#FFE500;}
	.st2{fill:#EBCB00;}
	.st3{fill:none;stroke:#45413C;stroke-linecap:round;stroke-linejoin:round;stroke-miterlimit:10;}
	.st4{fill:#FFAA54;}
	.st5{fill:#FF8A14;}
	.st6{fill:#FFB0CA;stroke:#45413C;stroke-linecap:round;stroke-linejoin:round;stroke-miterlimit:10;}
	.st7{fill:#FF87AF;stroke:#45413C;stroke-linecap:round;stroke-linejoin:round;stroke-miterlimit:10;}
	.st8{fill:#FFCC99;}
	.st9{fill:#FFFFFF;}
	.st10{fill:#F0F0F0;}
	.st11{fill:#BF8256;}
	.st12{fill:#915E3A;}
	.st13{fill:#DEA47A;}
	.st14{fill:#F0D5A8;}
	.st15{fill:#DEBB7E;}
	.st16{fill:#F7E5C6;}
	.st17{fill:#FF8A14;stroke:#45413C;stroke-linecap:round;stroke-linejoin:round;stroke-miterlimit:10;}
	.st18{fill:#FFF5E3;}
	.st19{fill:#FFF48C;}
	.st20{fill:#FFFACF;}
	.st21{fill:#FFFCE5;}
	.st22{fill:#FF87AF;}
	.st23{fill:#FFB0CA;}
	.st24{fill:#FFE500;stroke:#45413C;stroke-linecap:round;stroke-linejoin:round;stroke-miterlimit:10;}
	.st25{fill:#9CEB60;stroke:#45413C;stroke-linecap:round;stroke-linejoin:round;stroke-miterlimit:10;}
	.st26{fill:#FFFACF;stroke:#45413C;stroke-linecap:round;stroke-linejoin:round;stroke-miterlimit:10;}
	.st27{fill:#00F5BC;stroke:#45413C;stroke-linecap:round;stroke-linejoin:round;stroke-miterlimit:10;}
	.st28{fill:#BF8256;stroke:#45413C;stroke-linecap:round;stroke-linejoin:round;stroke-miterlimit:10;}
	.st29{fill:#FFE3CF;stroke:#45413C;stroke-linecap:round;stroke-linejoin:round;stroke-miterlimit:10;}
	.st30{fill:#FF6242;}
	.st31{fill:#FF866E;}
	.st32{fill:none;stroke:#E04122;stroke-linecap:round;stroke-linejoin:round;stroke-miterlimit:10;}
	.st33{fill:#FFFEF2;stroke:#45413C;stroke-linecap:round;stroke-linejoin:round;stroke-miterlimit:10;}
	.st34{fill:#FF6242;stroke:#45413C;stroke-linecap:round;stroke-linejoin:round;stroke-miterlimit:10;}
	.st35{fill:#FFA694;}
	.st36{fill:#FFFFFF;stroke:#45413C;stroke-linecap:round;stroke-linejoin:round;stroke-miterlimit:10;}
	.st37{fill:#FFFEF2;}
	.st38{fill:#FF6196;}
	.st39{fill:#B89558;}
	.st40{fill:none;stroke:#915E3A;stroke-linecap:round;stroke-linejoin:round;stroke-miterlimit:10;}
	.st41{fill:#DEBB7E;stroke:#45413C;stroke-linecap:round;stroke-linejoin:round;stroke-miterlimit:10;}
	.st42{fill:#6DD627;stroke:#45413C;stroke-linecap:round;stroke-linejoin:round;stroke-miterlimit:10;}
	.st43{fill:#E5F8FF;}
	.st44{fill:#E8F4FA;}
	.st45{fill:#E8F4FA;stroke:#45413C;stroke-linecap:round;stroke-linejoin:round;stroke-miterlimit:10;}
	.st46{fill:#FFCCDD;}
	.st47{fill:#E5F8FF;stroke:#45413C;stroke-linecap:round;stroke-linejoin:round;stroke-miterlimit:10;}
	.st48{fill:#00B8F0;stroke:#45413C;stroke-linecap:round;stroke-linejoin:round;stroke-miterlimit:10;}
	.st49{fill:#00B8F0;}
	.st50{fill:#4ACFFF;}
	.st51{fill:#E04122;}
	.st52{fill:#E04122;stroke:#45413C;stroke-linecap:round;stroke-linejoin:round;stroke-miterlimit:10;}
	.st53{fill:#87898C;}
	.st54{fill:#BDBEC0;}
	.st55{fill:#656769;}
	.st56{fill:#525252;}
	.st57{fill:#FFF48C;stroke:#45413C;stroke-linecap:round;stroke-linejoin:round;stroke-miterlimit:10;}
	.st58{fill:#6DD627;}
	.st59{fill:#EB6D00;}
	.st60{fill:#46B000;}
	.st61{fill:#80DDFF;}
	.st62{fill:#DAEDF7;}
	.st63{fill:#BF8DF2;stroke:#45413C;stroke-linecap:round;stroke-linejoin:round;stroke-miterlimit:10;}
	.st64{fill:#9F5AE5;stroke:#45413C;stroke-linecap:round;stroke-linejoin:round;stroke-miterlimit:10;}
	.st65{fill:#C8FFA1;}
	.st66{fill:#E4FFD1;}
	.st67{fill:#9CEB60;}
	.st68{fill:#E5FEFF;}
	.st69{fill:#B8ECFF;}
	.st70{fill:#E0E0E0;stroke:#45413C;stroke-linecap:round;stroke-linejoin:round;stroke-miterlimit:10;}
	.st71{fill:#E0E0E0;}
	.st72{fill:none;stroke:#4F4B45;stroke-linejoin:round;stroke-miterlimit:10;}
	.st73{fill:none;stroke:#4F4B45;stroke-linecap:round;stroke-linejoin:round;stroke-miterlimit:10;}
	.st74{fill:#E0366F;stroke:#45413C;stroke-linecap:round;stroke-linejoin:round;stroke-miterlimit:10;}
	.st75{fill:none;stroke:#45413C;stroke-miterlimit:10;}
	.st76{fill:#FF866E;stroke:#45413C;stroke-linecap:round;stroke-linejoin:round;stroke-miterlimit:10;}
	.st77{fill:#45413C;stroke:#45413C;stroke-linecap:round;stroke-linejoin:round;stroke-miterlimit:10;}
	.st78{fill:#9F5AE5;}
	.st79{fill:#803EC2;}
	.st80{fill:#803EC2;stroke:#45413C;stroke-linecap:round;stroke-linejoin:round;stroke-miterlimit:10;}
	.st81{fill:#BF8DF2;}
	.st82{fill:#FFAA54;stroke:#45413C;stroke-linecap:round;stroke-linejoin:round;stroke-miterlimit:10;}
	.st83{fill:none;stroke:#45413C;stroke-linejoin:round;stroke-miterlimit:10;}
	.st84{fill:#FFCCDD;stroke:#45413C;stroke-linecap:round;stroke-linejoin:round;stroke-miterlimit:10;}
	.st85{fill:#FF6196;stroke:#45413C;stroke-linecap:round;stroke-linejoin:round;stroke-miterlimit:10;}
	.st86{fill:#FFE5EE;}
	.st87{fill:#F7E5C6;stroke:#45413C;stroke-linecap:round;stroke-linejoin:round;stroke-miterlimit:10;}
	.st88{fill:#E5FFF9;}
	.st89{fill:none;stroke:#45413C;stroke-width:1.0064;stroke-linecap:round;stroke-linejoin:round;stroke-miterlimit:10;}
	.st90{fill:#4AEFF7;}
	.st91{fill:#A6FBFF;}
	.st92{fill:#E5FEFF;stroke:#45413C;stroke-linecap:round;stroke-linejoin:round;stroke-miterlimit:10;}
	.st93{fill:#46B000;stroke:#45413C;stroke-linecap:round;stroke-linejoin:round;stroke-miterlimit:10;}
	.st94{fill:#FFFFFF;stroke:#45413C;stroke-linejoin:round;stroke-miterlimit:10;}
	.st95{fill:#FFFFFF;stroke:#45413C;stroke-miterlimit:10;}
	.st96{fill:#009FD9;}
	.st97{fill:#00DFEB;}
	.st98{fill:#C0DCEB;stroke:#45413C;stroke-linecap:round;stroke-linejoin:round;stroke-miterlimit:10;}
	.st99{fill:#00DFEB;stroke:#45413C;stroke-linecap:round;stroke-linejoin:round;stroke-miterlimit:10;}
	.st100{fill:#FFE5EE;stroke:#45413C;stroke-linecap:round;stroke-linejoin:round;stroke-miterlimit:10;}
	.st101{fill:#8CA4B8;}
	.st102{fill:#ADC4D9;}
	.st103{fill:#656769;stroke:#45413C;stroke-linecap:round;stroke-linejoin:round;stroke-miterlimit:10;}
	.st104{fill:#F0F0F0;stroke:#45413C;stroke-linecap:round;stroke-linejoin:round;stroke-miterlimit:10;}
	.st105{fill:#C0DCEB;}
	.st106{fill:#45413C;}
	.st107{fill:#FFCABF;}
	.st108{fill:#87898C;stroke:#45413C;stroke-linecap:round;stroke-linejoin:round;stroke-miterlimit:10;}
	.st109{fill:#EBCB00;stroke:#45413C;stroke-linecap:round;stroke-linejoin:round;stroke-miterlimit:10;}</style>
  <style
     type="text/css"
     id="style1003">.st0{opacity:0.15;fill:#45413C;}
	.st1{fill:#FFE500;}
	.st2{fill:#EBCB00;}
	.st3{fill:none;stroke:#45413C;stroke-linecap:round;stroke-linejoin:round;stroke-miterlimit:10;}
	.st4{fill:#FFAA54;}
	.st5{fill:#FF8A14;}
	.st6{fill:#FFB0CA;stroke:#45413C;stroke-linecap:round;stroke-linejoin:round;stroke-miterlimit:10;}
	.st7{fill:#FF87AF;stroke:#45413C;stroke-linecap:round;stroke-linejoin:round;stroke-miterlimit:10;}
	.st8{fill:#FFCC99;}
	.st9{fill:#FFFFFF;}
	.st10{fill:#F0F0F0;}
	.st11{fill:#BF8256;}
	.st12{fill:#915E3A;}
	.st13{fill:#DEA47A;}
	.st14{fill:#F0D5A8;}
	.st15{fill:#DEBB7E;}
	.st16{fill:#F7E5C6;}
	.st17{fill:#FF8A14;stroke:#45413C;stroke-linecap:round;stroke-linejoin:round;stroke-miterlimit:10;}
	.st18{fill:#FFF5E3;}
	.st19{fill:#FFF48C;}
	.st20{fill:#FFFACF;}
	.st21{fill:#FFFCE5;}
	.st22{fill:#FF87AF;}
	.st23{fill:#FFB0CA;}
	.st24{fill:#FFE500;stroke:#45413C;stroke-linecap:round;stroke-linejoin:round;stroke-miterlimit:10;}
	.st25{fill:#9CEB60;stroke:#45413C;stroke-linecap:round;stroke-linejoin:round;stroke-miterlimit:10;}
	.st26{fill:#FFFACF;stroke:#45413C;stroke-linecap:round;stroke-linejoin:round;stroke-miterlimit:10;}
	.st27{fill:#00F5BC;stroke:#45413C;stroke-linecap:round;stroke-linejoin:round;stroke-miterlimit:10;}
	.st28{fill:#BF8256;stroke:#45413C;stroke-linecap:round;stroke-linejoin:round;stroke-miterlimit:10;}
	.st29{fill:#FFE3CF;stroke:#45413C;stroke-linecap:round;stroke-linejoin:round;stroke-miterlimit:10;}
	.st30{fill:#FF6242;}
	.st31{fill:#FF866E;}
	.st32{fill:none;stroke:#E04122;stroke-linecap:round;stroke-linejoin:round;stroke-miterlimit:10;}
	.st33{fill:#FFFEF2;stroke:#45413C;stroke-linecap:round;stroke-linejoin:round;stroke-miterlimit:10;}
	.st34{fill:#FF6242;stroke:#45413C;stroke-linecap:round;stroke-linejoin:round;stroke-miterlimit:10;}
	.st35{fill:#FFA694;}
	.st36{fill:#FFFFFF;stroke:#45413C;stroke-linecap:round;stroke-linejoin:round;stroke-miterlimit:10;}
	.st37{fill:#FFFEF2;}
	.st38{fill:#FF6196;}
	.st39{fill:#B89558;}
	.st40{fill:none;stroke:#915E3A;stroke-linecap:round;stroke-linejoin:round;stroke-miterlimit:10;}
	.st41{fill:#DEBB7E;stroke:#45413C;stroke-linecap:round;stroke-linejoin:round;stroke-miterlimit:10;}
	.st42{fill:#6DD627;stroke:#45413C;stroke-linecap:round;stroke-linejoin:round;stroke-miterlimit:10;}
	.st43{fill:#E5F8FF;}
	.st44{fill:#E8F4FA;}
	.st45{fill:#E8F4FA;stroke:#45413C;stroke-linecap:round;stroke-linejoin:round;stroke-miterlimit:10;}
	.st46{fill:#FFCCDD;}
	.st47{fill:#E5F8FF;stroke:#45413C;stroke-linecap:round;stroke-linejoin:round;stroke-miterlimit:10;}
	.st48{fill:#00B8F0;stroke:#45413C;stroke-linecap:round;stroke-linejoin:round;stroke-miterlimit:10;}
	.st49{fill:#00B8F0;}
	.st50{fill:#4ACFFF;}
	.st51{fill:#E04122;}
	.st52{fill:#E04122;stroke:#45413C;stroke-linecap:round;stroke-linejoin:round;stroke-miterlimit:10;}
	.st53{fill:#87898C;}
	.st54{fill:#BDBEC0;}
	.st55{fill:#656769;}
	.st56{fill:#525252;}
	.st57{fill:#FFF48C;stroke:#45413C;stroke-linecap:round;stroke-linejoin:round;stroke-miterlimit:10;}
	.st58{fill:#6DD627;}
	.st59{fill:#EB6D00;}
	.st60{fill:#46B000;}
	.st61{fill:#80DDFF;}
	.st62{fill:#DAEDF7;}
	.st63{fill:#BF8DF2;stroke:#45413C;stroke-linecap:round;stroke-linejoin:round;stroke-miterlimit:10;}
	.st64{fill:#9F5AE5;stroke:#45413C;stroke-linecap:round;stroke-linejoin:round;stroke-miterlimit:10;}
	.st65{fill:#C8FFA1;}
	.st66{fill:#E4FFD1;}
	.st67{fill:#9CEB60;}
	.st68{fill:#E5FEFF;}
	.st69{fill:#B8ECFF;}
	.st70{fill:#E0E0E0;stroke:#45413C;stroke-linecap:round;stroke-linejoin:round;stroke-miterlimit:10;}
	.st71{fill:#E0E0E0;}
	.st72{fill:none;stroke:#4F4B45;stroke-linejoin:round;stroke-miterlimit:10;}
	.st73{fill:none;stroke:#4F4B45;stroke-linecap:round;stroke-linejoin:round;stroke-miterlimit:10;}
	.st74{fill:#E0366F;stroke:#45413C;stroke-linecap:round;stroke-linejoin:round;stroke-miterlimit:10;}
	.st75{fill:none;stroke:#45413C;stroke-miterlimit:10;}
	.st76{fill:#FF866E;stroke:#45413C;stroke-linecap:round;stroke-linejoin:round;stroke-miterlimit:10;}
	.st77{fill:#45413C;stroke:#45413C;stroke-linecap:round;stroke-linejoin:round;stroke-miterlimit:10;}
	.st78{fill:#9F5AE5;}
	.st79{fill:#803EC2;}
	.st80{fill:#803EC2;stroke:#45413C;stroke-linecap:round;stroke-linejoin:round;stroke-miterlimit:10;}
	.st81{fill:#BF8DF2;}
	.st82{fill:#FFAA54;stroke:#45413C;stroke-linecap:round;stroke-linejoin:round;stroke-miterlimit:10;}
	.st83{fill:none;stroke:#45413C;stroke-linejoin:round;stroke-miterlimit:10;}
	.st84{fill:#FFCCDD;stroke:#45413C;stroke-linecap:round;stroke-linejoin:round;stroke-miterlimit:10;}
	.st85{fill:#FF6196;stroke:#45413C;stroke-linecap:round;stroke-linejoin:round;stroke-miterlimit:10;}
	.st86{fill:#FFE5EE;}
	.st87{fill:#F7E5C6;stroke:#45413C;stroke-linecap:round;stroke-linejoin:round;stroke-miterlimit:10;}
	.st88{fill:#E5FFF9;}
	.st89{fill:none;stroke:#45413C;stroke-width:1.0064;stroke-linecap:round;stroke-linejoin:round;stroke-miterlimit:10;}
	.st90{fill:#4AEFF7;}
	.st91{fill:#A6FBFF;}
	.st92{fill:#E5FEFF;stroke:#45413C;stroke-linecap:round;stroke-linejoin:round;stroke-miterlimit:10;}
	.st93{fill:#46B000;stroke:#45413C;stroke-linecap:round;stroke-linejoin:round;stroke-miterlimit:10;}
	.st94{fill:#FFFFFF;stroke:#45413C;stroke-linejoin:round;stroke-miterlimit:10;}
	.st95{fill:#FFFFFF;stroke:#45413C;stroke-miterlimit:10;}
	.st96{fill:#009FD9;}
	.st97{fill:#00DFEB;}
	.st98{fill:#C0DCEB;stroke:#45413C;stroke-linecap:round;stroke-linejoin:round;stroke-miterlimit:10;}
	.st99{fill:#00DFEB;stroke:#45413C;stroke-linecap:round;stroke-linejoin:round;stroke-miterlimit:10;}
	.st100{fill:#FFE5EE;stroke:#45413C;stroke-linecap:round;stroke-linejoin:round;stroke-miterlimit:10;}
	.st101{fill:#8CA4B8;}
	.st102{fill:#ADC4D9;}
	.st103{fill:#656769;stroke:#45413C;stroke-linecap:round;stroke-linejoin:round;stroke-miterlimit:10;}
	.st104{fill:#F0F0F0;stroke:#45413C;stroke-linecap:round;stroke-linejoin:round;stroke-miterlimit:10;}
	.st105{fill:#C0DCEB;}
	.st106{fill:#45413C;}
	.st107{fill:#FFCABF;}
	.st108{fill:#87898C;stroke:#45413C;stroke-linecap:round;stroke-linejoin:round;stroke-miterlimit:10;}
	.st109{fill:#EBCB00;stroke:#45413C;stroke-linecap:round;stroke-linejoin:round;stroke-miterlimit:10;}</style>
</svg>
