<?xml version="1.0" encoding="UTF-8"?>
<svg id="Apps-Opera" width="64" height="64" enable-background="new 0 0 1024 1024" image-rendering="optimizeSpeed" version="1.1" viewBox="0 0 64 64" xmlns="http://www.w3.org/2000/svg" xmlns:cc="http://creativecommons.org/ns#" xmlns:dc="http://purl.org/dc/elements/1.1/" xmlns:rdf="http://www.w3.org/1999/02/22-rdf-syntax-ns#" xmlns:xlink="http://www.w3.org/1999/xlink">
 <circle cx="-238.16" cy="1.6791" r="0" fill="#5e4aa6" fill-rule="evenodd"/>
 <metadata>
  <rdf:RDF>
   <cc:Work rdf:about="">
    <dc:format>image/svg+xml</dc:format>
    <dc:type rdf:resource="http://purl.org/dc/dcmitype/StillImage"/>
   </cc:Work>
  </rdf:RDF>
 </metadata>
 <defs>
  <linearGradient id="linearGradient1537" x1="-101.09" x2="-101.09" y1="24.823" y2="12.616" gradientTransform="matrix(3.7796 0 0 3.7796 377.6 -28.928)" gradientUnits="userSpaceOnUse">
   <stop stop-color="#f55a37" offset="0"/>
   <stop stop-color="#fa8c19" offset="1"/>
  </linearGradient>
  <linearGradient id="linearGradient1545" x1="-111.51" x2="-103.44" y1="22.313" y2="22.313" gradientTransform="matrix(3.7796 0 0 3.7796 377.6 -28.928)" gradientUnits="userSpaceOnUse">
   <stop stop-color="#b4329b" offset="0"/>
   <stop stop-color="#870f50" offset="1"/>
  </linearGradient>
  <linearGradient id="linearGradient1529" x1="-112.02" x2="-97.816" y1="16.153" y2="16.153" gradientTransform="matrix(3.7796 0 0 3.7796 377.6 -28.928)" gradientUnits="userSpaceOnUse">
   <stop stop-color="#19d264" offset="0"/>
   <stop stop-color="#19c869" offset="1"/>
  </linearGradient>
  <linearGradient id="linearGradient1493" x1="-111.06" x2="-111.06" y1="15.413" y2="24.998" gradientTransform="matrix(3.7796 0 0 3.7796 377.6 -28.928)" gradientUnits="userSpaceOnUse">
   <stop stop-color="#2d96f0" offset="0"/>
   <stop stop-color="#28f0c8" offset="1"/>
  </linearGradient>
  <linearGradient id="linearGradient1485" x1="-112.01" x2="-101.23" y1="18.859" y2="18.859" gradientTransform="matrix(4.0578 0 0 3.7796 408.76 -28.928)" gradientUnits="userSpaceOnUse">
   <stop stop-color="#00f0f0" offset="0"/>
   <stop stop-color="#f0f000" offset="1"/>
  </linearGradient>
  <filter id="filter1106" x="-.06" y="-.06" width="1.12" height="1.12" color-interpolation-filters="sRGB">
   <feGaussianBlur stdDeviation="0.093859583"/>
  </filter>
  <radialGradient id="radialGradient1082" cx="8.4727" cy="3.9956" r="1.8772" gradientTransform="matrix(1.1816 1.0623e-7 -1.0451e-7 1.1624 -1.5383 -.64906)" gradientUnits="userSpaceOnUse">
   <stop stop-color="#fff" offset="0"/>
   <stop stop-color="#fff" offset=".18"/>
   <stop stop-color="#ddf0fc" offset=".6"/>
   <stop stop-color="#badef9" offset="1"/>
  </radialGradient>
  <linearGradient id="linearGradient2575" x1=".73911" x2="16.388" y1="16.296" y2=".64687" gradientTransform="matrix(1.5748 0 0 1.5748 114.4 20.001)" gradientUnits="userSpaceOnUse">
   <stop stop-color="#00a0ff" offset="0"/>
   <stop stop-color="#37beff" offset="1"/>
  </linearGradient>
  <linearGradient id="linearGradient2577" x1="8.397" x2="8.397" y1="13.274" y2="3.3723" gradientTransform="matrix(1.5748 0 0 1.5748 114.46 19.99)" gradientUnits="userSpaceOnUse">
   <stop stop-color="#b7d8f5" offset="0"/>
   <stop stop-color="#f8fcfd" offset="1"/>
  </linearGradient>
  <radialGradient id="radialGradient2579" cx="8.4727" cy="3.9956" r="1.8772" gradientTransform="matrix(1.8608 1.6729e-7 -1.6459e-7 1.8306 112.03 18.968)" gradientUnits="userSpaceOnUse" xlink:href="#radialGradient1082"/>
  <radialGradient id="radialGradient2581" cx="8.4727" cy="3.9956" r="1.8772" gradientTransform="matrix(1.8608 1.6729e-7 -1.6459e-7 1.8306 105.25 29.364)" gradientUnits="userSpaceOnUse" xlink:href="#radialGradient1082"/>
  <radialGradient id="radialGradient2583" cx="8.4727" cy="3.9956" r="1.8772" gradientTransform="matrix(1.8608 1.6729e-7 -1.6459e-7 1.8306 118.81 29.364)" gradientUnits="userSpaceOnUse" xlink:href="#radialGradient1082"/>
 </defs>
 <circle cx="-1248.7" cy="-1241.6" r="0" fill="#5e4aa6"/>
 <circle cx="-1337.7" cy="-1263.8" r="0" fill="#5e4aa6"/>
 <g transform="translate(50.286 -6.0541)">
  <rect x="-45.786" y="10.553" width="55.001" height="55.001" ry="4.5877" fill="#2d9b91" stroke-width="3.7796"/>
  <rect x="-42.717" y="13.622" width="48.863" height="48.863" ry="4.0759" fill="#197d78" stroke-width="3.3579"/>
  <path d="m5.4757 18.99-25.342 26.28 18.7 20.269h6.496c2.1517 0 3.8847-1.7311 3.8847-3.8828v-38.798c0-2.1015-1.6565-3.7909-3.7383-3.8692z" fill="url(#linearGradient1537)" stroke-width="3.1291"/>
  <path d="m-19.867 45.269-24.021 19.712c0.58191 0.34712 1.2548 0.55666 1.9844 0.55666h43.911z" fill="url(#linearGradient1545)" stroke-width="2.0649"/>
  <path d="m-41.902 18.978c-2.1517 0-3.8847 1.7311-3.8847 3.8828v1.0781l25.922 21.333 27.756-25.315c-0.68377-0.60232-1.5735-0.97854-2.5605-0.97854z" fill="url(#linearGradient1529)" stroke-width="2.8381"/>
  <path d="m-45.53 21.598c-0.1818 0.39455-0.24227 0.84482-0.24227 1.3066v38.798c0 2.0527 1.5826 3.704 3.5957 3.8537l22.31-20.282z" fill="url(#linearGradient1493)" stroke-width="2.827"/>
  <path d="m-45.568 21.696c-0.11641 0.36749-0.18558 0.75596-0.18558 1.1641v5.8263l25.906 16.584z" image-rendering="optimizeSpeed" opacity=".1" stroke-width="3.4549"/>
  <path d="m-42.166 65.554 26.62-24.206-21.898 24.192z" opacity=".4" stroke-width="3.7796"/>
  <path d="m-42.809 19.16c-1.7163 0.4808-2.9692 1.9418-2.9692 3.7012v38.794c0 2.1517 1.8607 3.8847 4.1708 3.8847h4.9233l31.998-17.738c1.1326-0.62432 1.9096-1.4643 2.3423-2.4981 0.43261-1.044 0.43261-2.0872 0-3.1211-0.43261-1.0337-1.2097-1.8733-2.3297-2.5078l-35.552-19.701c-0.80842-0.45212-1.6736-0.71015-2.5834-0.81447z" fill="url(#linearGradient1485)" image-rendering="optimizeSpeed" opacity=".5" stroke-width="3.5798"/>
  <ellipse cx="-30.099" cy="30.968" rx="2.2983" ry="2.4307" fill="#197d78" stroke-width="3.6752" style="paint-order:stroke fill markers"/>
  <ellipse cx="-6.4763" cy="30.968" rx="2.2983" ry="2.4307" fill="#197d78" stroke-width="3.6752" style="paint-order:stroke fill markers"/>
  <path d="m-6.5013 31.339a11.795 14.04 0 0 1 0.010583 0.56157 11.795 14.04 0 0 1-11.795 14.04 11.795 14.04 0 0 1-11.795-14.04 11.795 14.04 0 0 1 0.01073-0.56237" fill="none" opacity=".4" stroke="#000" stroke-dashoffset=".42096" stroke-linecap="round" stroke-width="2.059"/>
  <path d="m-6.4656 31.313a11.819 12.5 0 0 1 0.010583 0.49997 11.819 12.5 0 0 1-11.819 12.5 11.819 12.5 0 0 1-11.819-12.5 11.819 12.5 0 0 1 0.01073-0.50068" fill="none" stroke="#fff" stroke-dashoffset=".42096" stroke-linecap="round" stroke-width="1.9448"/>
 </g>
 <g transform="translate(-78.085 16.42)">
  <path d="m140.29 33.324c0 1.4985-0.26378 2.9352-0.74747 4.2669-0.33623 0.92548-0.77856 1.8005-1.3133 2.6098-0.22398 0.34028-0.46478 0.6689-0.72041 0.98472-0.81834 1.0107-1.7909 1.8909-2.8826 2.6052-0.40206 0.26325-0.81992 0.50409-1.2526 0.71987-1.68 0.84078-3.5766 1.3137-5.5837 1.3137s-3.9037-0.47295-5.5837-1.3138c-0.43265-0.21582-0.85102-0.45664-1.2531-0.71987-1.1056-0.72399-2.0898-1.618-2.9147-2.6454-0.25611-0.31836-0.49643-0.65-0.72041-0.99334-0.52042-0.79589-0.95151-1.6547-1.2811-2.5623-0.48363-1.3312-0.74692-2.7673-0.74692-4.2653 0-6.9036 5.5963-12.5 12.5-12.5 3.4654 0 6.6011 1.4102 8.8654 3.6876 0.65253 0.65609 1.2327 1.3847 1.7265 2.1725 0.46684 0.74184 0.85712 1.5367 1.1607 2.373 0.48376 1.3316 0.74749 2.7684 0.74749 4.2669z" fill="url(#linearGradient2575)" stroke-width=".048829"/>
  <circle cx="127.79" cy="33.324" r="7.2882" fill="none" stroke="url(#linearGradient2577)" stroke-width="1.25"/>
  <circle transform="matrix(1.5748 0 0 1.5748 114.45 19.99)" cx="8.4727" cy="4.1419" r="1.8772" fill="#0074d6" filter="url(#filter1106)"/>
  <circle cx="127.79" cy="26.283" r="2.9563" fill="url(#radialGradient2579)" stroke-width="1.5748"/>
  <circle transform="matrix(1.5748 0 0 1.5748 107.67 30.386)" cx="8.4727" cy="4.1419" r="1.8772" fill="#0074d6" filter="url(#filter1106)"/>
  <circle cx="121.01" cy="36.678" r="2.9563" fill="url(#radialGradient2581)" stroke-width="1.5748"/>
  <circle transform="matrix(1.5748 0 0 1.5748 121.23 30.386)" cx="8.4727" cy="4.1419" r="1.8772" fill="#0074d6" filter="url(#filter1106)"/>
  <circle cx="134.57" cy="36.678" r="2.9563" fill="url(#radialGradient2583)" stroke-width="1.5748"/>
 </g>
</svg>
