<?xml version="1.0" encoding="UTF-8"?>
<svg width="64" height="64" version="1.1" viewBox="0 0 16.933 16.933" xmlns="http://www.w3.org/2000/svg" xmlns:cc="http://creativecommons.org/ns#" xmlns:dc="http://purl.org/dc/elements/1.1/" xmlns:rdf="http://www.w3.org/1999/02/22-rdf-syntax-ns#" xmlns:xlink="http://www.w3.org/1999/xlink">
 <defs>
  <linearGradient id="linearGradient1854" x1="32" x2="32" y1="2" y2="62" gradientTransform="matrix(.26458 0 0 .26458 -3.5804 15.144)" gradientUnits="userSpaceOnUse">
   <stop stop-color="#f5faff" offset="0"/>
   <stop stop-color="#cfdef0" offset="1"/>
  </linearGradient>
 </defs>
 <metadata>
  <rdf:RDF>
   <cc:Work rdf:about="">
    <dc:format>image/svg+xml</dc:format>
    <dc:type rdf:resource="http://purl.org/dc/dcmitype/StillImage"/>
   </cc:Work>
  </rdf:RDF>
 </metadata>
 <g transform="translate(3.6473 -14.929)">
  <circle cx="4.8192" cy="23.395" r="7.9373" fill="url(#linearGradient1854)" stroke-width=".26458" style="paint-order:stroke markers fill"/>
  <path d="m6.7458 27.235h-0.18645v1.678l-2.1111-1.678h-1.5557a1.8645 1.8645 0 0 1-1.8645-1.8645v-3.8533a1.8645 1.8645 0 0 1 1.8645-1.8645h3.8533a1.8645 1.8645 0 0 1 1.8645 1.8645v3.8533a1.8645 1.8645 0 0 1-1.8645 1.8645zm0.65468-4.1373-0.24617-0.76941a0.12492 0.12492 0 0 0-0.1563-0.080793l-1.634 0.52268-0.033188-1.7526a0.12473 0.12473 0 0 0-0.12834-0.12119l-0.81913 0.01554a0.12486 0.12486 0 0 0-0.12368 0.12616l0.032941 1.7414-1.6856-0.5811a0.1243 0.1243 0 0 0-0.15804 0.07707l-0.26345 0.76381a0.1243 0.1243 0 0 0 0.077003 0.15786l1.6691 0.5755-1.057 1.4145a0.1243 0.1243 0 0 0 0.024833 0.17402l0.64722 0.48352a0.1243 0.1243 0 0 0 0.17402-0.024865l1.057-1.4145 1.025 1.4375a0.1243 0.1243 0 0 0 0.17334 0.02921l0.65791-0.46923a0.1243 0.1243 0 0 0 0.029015-0.1734l-1.0249-1.4375 1.6816-0.53821a0.12386 0.12386 0 0 0 0.080668-0.156z" fill="#0188fb" stroke-width=".0090432" p-id="3776"/>
 </g>
</svg>
