<?xml version="1.0" encoding="UTF-8"?>
<svg width="64" height="64" version="1.1" viewBox="0 0 16.933 16.933" xmlns="http://www.w3.org/2000/svg" xmlns:cc="http://creativecommons.org/ns#" xmlns:dc="http://purl.org/dc/elements/1.1/" xmlns:rdf="http://www.w3.org/1999/02/22-rdf-syntax-ns#" xmlns:xlink="http://www.w3.org/1999/xlink">
 <defs>
  <linearGradient id="a-3-7" x1="99.036" x2="99.036" y1="11.64" y2="199.84" gradientTransform="matrix(.079373 0 0 .079373 10.2 18.086)" gradientUnits="userSpaceOnUse">
   <stop stop-color="#ff4b00" offset="0"/>
   <stop stop-color="#f50f2d" offset="1"/>
  </linearGradient>
  <linearGradient id="linearGradient1097" x1="32" x2="32" y1="12.436" y2="51.565" gradientTransform="matrix(.26457 0 0 .26457 9.6718 17.558)" gradientUnits="userSpaceOnUse">
   <stop stop-color="#fedede" offset="0"/>
   <stop stop-color="#fdc3cb" offset="1"/>
  </linearGradient>
 </defs>
 <metadata>
  <rdf:RDF>
   <cc:Work rdf:about="">
    <dc:format>image/svg+xml</dc:format>
    <dc:type rdf:resource="http://purl.org/dc/dcmitype/StillImage"/>
   </cc:Work>
  </rdf:RDF>
 </metadata>
 <g transform="translate(-9.6713 -17.557)">
  <circle cx="18.138" cy="26.024" r="7.9373" color="#000000" fill="url(#a-3-7)" stroke-width=".26458"/>
  <path d="m12.962 26.024c0 2.8588 2.3176 5.1762 5.1762 5.1762 0.17254-0.21568 0.17254-0.44587 0-0.69018-2.4777 0-4.4862-2.0084-4.4862-4.4862z" opacity=".15" stroke-width=".34509"/>
  <path d="m18.138 20.848a5.1762 5.1762 0 0 0-5.1759 5.1759 5.1762 5.1762 0 0 0 0.31575 1.7703l2.0995-3.1506h-1.5053a4.4862 4.4862 0 0 1 4.2661-3.1061 4.4862 4.4862 0 0 1 4.4862 4.4862 4.4862 4.4862 0 0 1-4.4862 4.4862v0.68983a5.1762 5.1762 0 0 0 5.1759-5.1759 5.1762 5.1762 0 0 0-5.1759-5.1759z" fill="url(#linearGradient1097)" stroke-width=".26457"/>
 </g>
</svg>
