<?xml version="1.0" encoding="UTF-8"?>
<svg width="64" height="64" version="1.1" viewBox="0 0 16.933 16.933" xmlns="http://www.w3.org/2000/svg" xmlns:cc="http://creativecommons.org/ns#" xmlns:dc="http://purl.org/dc/elements/1.1/" xmlns:rdf="http://www.w3.org/1999/02/22-rdf-syntax-ns#" xmlns:xlink="http://www.w3.org/1999/xlink">
 <defs>
  <linearGradient id="linearGradient1005-3-3-7" x1="5.2535" x2="9.3824" y1="15.383" y2="2.9421" gradientTransform="translate(8.4967 20.105)" gradientUnits="userSpaceOnUse">
   <stop stop-color="#fa8200" offset="0"/>
   <stop stop-color="#ff9600" offset=".36953"/>
   <stop stop-color="#ffb400" offset="1"/>
  </linearGradient>
  <filter id="e" x="-.06995" y="-.052462" width="1.1399" height="1.1049" color-interpolation-filters="sRGB">
   <feGaussianBlur stdDeviation="0.52470471"/>
  </filter>
  <linearGradient id="linearGradient2479" x1="24.001" x2="24.14" y1="11.999" y2="36.645" gradientTransform="matrix(.025708 0 0 .025443 6.9008 18.237)" gradientUnits="userSpaceOnUse">
   <stop stop-color="#fff" offset="0"/>
   <stop stop-color="#fffedf" offset="1"/>
  </linearGradient>
 </defs>
 <metadata>
  <rdf:RDF>
   <cc:Work rdf:about="">
    <dc:format>image/svg+xml</dc:format>
    <dc:type rdf:resource="http://purl.org/dc/dcmitype/StillImage"/>
   </cc:Work>
  </rdf:RDF>
 </metadata>
 <g transform="translate(-8.5322 -20.098)">
  <path d="m24.936 28.565c0 0.95153-0.16749 1.8638-0.47465 2.7093-0.2135 0.58768-0.49439 1.1433-0.83392 1.6572-0.14222 0.21608-0.29514 0.42475-0.45746 0.62528-0.51966 0.64179-1.1372 1.2007-1.8304 1.6543-0.2553 0.16717-0.52064 0.32011-0.79535 0.45711-1.0668 0.53389-2.2711 0.83419-3.5456 0.83419s-2.4788-0.30032-3.5456-0.83421c-0.27474-0.13705-0.5404-0.28995-0.79569-0.45711-0.70206-0.45973-1.327-1.0274-1.8508-1.6798-0.16262-0.20216-0.31522-0.41274-0.45746-0.63078-0.33046-0.5054-0.60419-1.0507-0.81347-1.627-0.3071-0.84527-0.47431-1.7572-0.47431-2.7085 0-4.3838 3.5538-7.9373 7.9373-7.9373 2.2005 0 4.1917 0.89546 5.6294 2.3416 0.41436 0.4166 0.78273 0.87927 1.0963 1.3795 0.29643 0.47108 0.54426 0.97579 0.73704 1.5068 0.30718 0.84559 0.47465 1.7579 0.47465 2.7093z" fill="url(#linearGradient1005-3-3-7)" stroke-width=".031006"/>
  <path transform="matrix(.40318 0 0 .39904 7.3247 18.988)" d="m24.01 12c-2.898 4e-3 -5.734 1.297-7.48 3.691-2.715 3.738-1.73 8.801 2.145 11.441v7.871h1.328v1h8v-1h1.313v-7.871c0.832-0.57 1.566-1.258 2.145-2.059 2.77-3.828 1.691-9.04-2.43-11.633-1.543-0.969-3.289-1.441-5.03-1.441m-0.012 1.523c1.418 0 2.852 0.383 4.121 1.18 3.379 2.125 4.266 6.367 1.984 9.512-0.527 0.723-1.195 1.355-1.977 1.848l-0.133 1.941h-8l-0.117-1.941c-3.387-2.125-4.27-6.367-1.98-9.512 1.426-1.965 3.742-3.03 6.102-3.02m-4 15.477h8v1.996h-8m0 1h8v1.715h-8" fill="#f04b00" filter="url(#e)" opacity=".5" stroke-width=".59201"/>
  <path d="m17.005 23.777c-1.1684 0.0016-2.3118 0.51755-3.0158 1.4728-1.0946 1.4916-0.6975 3.5119 0.86482 4.5654v3.1408h0.53543v0.39904h3.2255v-0.39904h0.52938v-3.1408c0.33545-0.22745 0.63138-0.50199 0.86482-0.82162 1.1168-1.5275 0.68178-3.6073-0.97973-4.642-0.62211-0.38667-1.3261-0.57501-2.028-0.57501m-0.0048 0.60774c0.57171 0 1.1499 0.15283 1.6615 0.47086 1.3624 0.84796 1.72 2.5407 0.79991 3.7957-0.21248 0.2885-0.4818 0.5407-0.79709 0.73742l-0.05362 0.77453h-3.2255l-0.04717-0.77453c-1.3656-0.84796-1.7216-2.5407-0.7983-3.7957 0.57494-0.78411 1.5087-1.2091 2.4602-1.2051m-1.6128 6.1759h3.2255v0.79648h-3.2255m0 0.39904h3.2255v0.68435h-3.2255" fill="url(#linearGradient2479)" stroke-width=".23746"/>
 </g>
</svg>
