<?xml version="1.0" encoding="UTF-8"?>
<!-- Created with Inkscape (http://www.inkscape.org/) -->
<svg width="64" height="64" version="1.1" viewBox="0 0 16.933 16.933" xmlns="http://www.w3.org/2000/svg">
 <defs>
  <linearGradient id="linearGradient2023-5" x1="16.257" x2="881.57" y1="135.34" y2="1000.7" gradientTransform="matrix(.016817 0 0 .016817 -7.9404 14.004)" gradientUnits="userSpaceOnUse">
   <stop stop-color="#37beff" offset="0"/>
   <stop stop-color="#00a0ff" offset="1"/>
  </linearGradient>
  <filter id="filter1054" x="-.011077" y="-.013091" width="1.0222" height="1.0262" color-interpolation-filters="sRGB">
   <feGaussianBlur stdDeviation="0.1199987"/>
  </filter>
 </defs>
 <g transform="translate(6.0688 -14.971)">
  <rect transform="rotate(-6.792)" x="-7.667" y="16.28" width="14.552" height="14.552" ry="1.3229" fill="url(#linearGradient2023-5)" stroke-width=".26458"/>
  <path transform="matrix(.29398 0 0 .29398 -4.6355 16.396)" d="m27.29 13.258c-2.348 0.875-3.832 3.129-3.664 5.594l0.055 0.953-0.938-0.117c-3.418-0.445-6.406-1.961-8.941-4.504l-1.242-1.266-0.316 0.934c-0.68 2.078-0.246 4.273 1.164 5.75 0.75 0.813 0.582 0.93-0.715 0.445-0.449-0.156-0.848-0.273-0.883-0.215-0.133 0.137 0.316 1.906 0.676 2.602 0.488 0.973 1.484 1.926 2.574 2.488l0.918 0.445-1.086 0.02c-1.055 0-1.09 0.02-0.98 0.426 0.379 1.266 1.863 2.605 3.523 3.188l1.164 0.41-1.023 0.617c-1.5 0.895-3.266 1.398-5.03 1.438-0.848 0.02-1.543 0.098-1.543 0.156 0 0.195 2.293 1.281 3.625 1.707 4 1.266 8.754 0.719 12.324-1.434 2.535-1.535 5.074-4.586 6.258-7.535 0.637-1.574 1.277-4.449 1.277-5.828 0-0.891 0.055-1.01 1.109-2.078 0.617-0.621 1.199-1.301 1.313-1.492 0.188-0.371 0.168-0.371-0.789-0.039-1.598 0.578-1.824 0.504-1.031-0.371 0.582-0.621 1.273-1.746 1.273-2.078 0-0.059-0.281 0.039-0.598 0.215-0.34 0.191-1.09 0.484-1.652 0.66l-1.016 0.328-0.922-0.641c-0.516-0.348-1.227-0.738-1.605-0.855-0.957-0.27-2.422-0.23-3.285 0.078" fill="#0a1496" filter="url(#filter1054)" opacity=".1"/>
  <path d="m3.2563 20.18c-0.69027 0.25724-1.1265 0.91987-1.0772 1.6445l0.016168 0.28016-0.27576-0.0344c-1.0048-0.13082-1.8833-0.5765-2.6285-1.3241l-0.36513-0.37218-0.092898 0.27458c-0.19991 0.6109-0.07232 1.2562 0.3422 1.6904 0.22049 0.23901 0.1711 0.2734-0.2102 0.13082-0.132-0.04586-0.2493-0.08026-0.25959-0.06321-0.0391 0.04028 0.092899 0.56033 0.19873 0.76494 0.14346 0.28604 0.43627 0.56621 0.75671 0.73143l0.26988 0.13082-0.31927 0.0059c-0.31015 0-0.32044 0.0059-0.2881 0.12524 0.11142 0.37218 0.54769 0.76582 1.0357 0.93722l0.3422 0.12052-0.30074 0.18139c-0.44097 0.26311-0.96015 0.41099-1.4787 0.42275-0.2493 0.0059-0.45362 0.02881-0.45362 0.04586 0 0.05733 0.6741 0.37659 1.0657 0.50183 1.1759 0.37218 2.5735 0.21137 3.623-0.42157 0.74525-0.45126 1.4917-1.3482 1.8397-2.2152 0.18727-0.46273 0.37542-1.3079 0.37542-1.7133 0-0.26194 0.016168-0.29692 0.32603-0.6109 0.18139-0.18256 0.35248-0.38247 0.386-0.43862 0.055269-0.10907 0.049389-0.10907-0.23195-0.01146-0.46978 0.16992-0.53622 0.14817-0.3031-0.10907 0.1711-0.18256 0.37424-0.51329 0.37424-0.6109 0-0.01735-0.082609 0.01146-0.1758 0.06321-0.099954 0.05615-0.32044 0.14229-0.48566 0.19403l-0.29869 0.09642-0.27105-0.18844c-0.1517-0.10231-0.36072-0.21696-0.47184-0.25136-0.28134-0.079375-0.71203-0.067616-0.96573 0.022931" fill="#f1f5f8"/>
 </g>
</svg>
