<?xml version="1.0" encoding="UTF-8"?>
<svg width="64" height="64" version="1.1" viewBox="0 0 16.933 16.933" xmlns="http://www.w3.org/2000/svg" xmlns:cc="http://creativecommons.org/ns#" xmlns:dc="http://purl.org/dc/elements/1.1/" xmlns:rdf="http://www.w3.org/1999/02/22-rdf-syntax-ns#">
 <defs>
  <filter id="filter1066-2" x="-.063923" y="-.056531" width="1.1278" height="1.1131" color-interpolation-filters="sRGB">
   <feGaussianBlur stdDeviation="0.22705935"/>
  </filter>
  <filter id="filter1100-3" x="-.12197" y="-.11848" width="1.2439" height="1.237" color-interpolation-filters="sRGB">
   <feGaussianBlur stdDeviation="0.47586465"/>
  </filter>
  <linearGradient id="linearGradient938" x1="80.368" x2="82.141" y1="13.177" y2="14.704" gradientTransform="matrix(.96153 0 0 .96153 -94.157 12.186)" gradientUnits="userSpaceOnUse">
   <stop stop-color="#e5e6ea" offset="0"/>
   <stop stop-color="#2f3240" offset="1"/>
  </linearGradient>
 </defs>
 <metadata>
  <rdf:RDF>
   <cc:Work rdf:about="">
    <dc:format>image/svg+xml</dc:format>
    <dc:type rdf:resource="http://purl.org/dc/dcmitype/StillImage"/>
   </cc:Work>
  </rdf:RDF>
 </metadata>
 <g transform="translate(28.882 -13.877)">
  <rect transform="rotate(-6.4422)" x="-29.82" y="12.651" width="13.992" height="13.992" ry="1.1671" fill="#333644" stroke-width=".96153"/>
  <path transform="matrix(1.0331 0 0 .96963 -73.363 10.812)" d="m57.818 9.8288s0.05354 3.0782-2.6636 4.5408c-2.2449 1.2084 0.9386 2.689-5.8599 5.0989 8.8505-2.5748 8.5235-9.6396 8.5235-9.6396z" fill="#141414" filter="url(#filter1066-2)" opacity=".3"/>
  <path transform="matrix(.83588 0 0 .91428 -62.542 10.841)" d="m57.594 9.7322c-0.15355 5.725-5.0519 8.6864-8.5234 9.6397l8.2859-0.93608c0.6682-0.07545 1.1451-0.67434 1.0697-1.3425z" fill="#2f3240" filter="url(#filter1100-3)" opacity=".2"/>
  <path transform="matrix(1.0038 0 0 .93536 -71.63 11.263)" d="m57.818 9.8288s0.05354 3.0782-2.6636 4.5408c-2.2449 1.2084 0.9386 2.689-5.8599 5.0989 8.8505-2.5748 8.5235-9.6396 8.5235-9.6396z" fill="#141414" filter="url(#filter1066-2)" opacity=".3"/>
  <path d="m-20.853 18.334c-0.27728 0.03021-0.47947 0.28128-0.44929 0.5583 0.03021 0.27728 0.28178 0.47942 0.55906 0.4492 0.20997-0.02288 0.37649-0.17288 0.43188-0.36459 0.36614 0.16058 0.72917 0.54288 1.0243 1.0907 0.32322 0.59986 0.56564 1.3899 0.66146 2.2693 0.07813 0.7171 0.04869 1.3972-0.06595 1.979l0.18374 0.03609c0.11897-0.6029 0.14878-1.3007 0.06875-2.0352-0.09821-0.90138-0.34574-1.7125-0.68327-2.3384-0.32138-0.597-0.72451-1.0267-1.1721-1.1971a0.50812 0.50812 0 0 0-0.55861-0.44747zm0.02032 0.18652c0.17644-0.01922 0.33216 0.10613 0.35136 0.28231 0.01923 0.17644-0.10605 0.33292-0.28223 0.35212-0.17644 0.01923-0.33222-0.10663-0.35144-0.28308-0.01919-0.17619 0.10613-0.33216 0.28231-0.35136zm-1.6679 1.6424a2.6696 2.6696 0 0 0-0.62155 0.13582c-0.37257 0.13394-0.65869 0.3592-0.79819 0.67539-0.20649 0.46909-0.04932 1.0338 0.34606 1.5773l0.15174-0.11014c-0.37317-0.51281-0.49599-1.0057-0.3263-1.3912 0.11451-0.25988 0.35109-0.45296 0.69028-0.57487 0.3387-0.12184 0.77719-0.16808 1.2715-0.13268l0.01322-0.18763c-0.25706-0.01841-0.50061-0.01585-0.72682 0.0078zm3.6995-0.39747 0.01835 0.18725c0.61617-0.05897 1.0916 0.08154 1.3364 0.41577 0.16774 0.22861 0.2163 0.52913 0.1528 0.88268-0.06325 0.35352-0.24055 0.75566-0.51707 1.1651l0.15602 0.10466c0.28724-0.42562 0.47642-0.84768 0.54628-1.2363 0.06986-0.38865 0.01741-0.74843-0.18634-1.0267-0.29784-0.40674-0.85267-0.55494-1.5064-0.49236zm-0.91635 0.20186c-0.59525 0.19697-1.2315 0.52544-1.8438 0.9737-0.74332 0.54467-1.329 1.1757-1.7015 1.7902-0.36154 0.59566-0.52465 1.1774-0.419 1.6556a0.50862 0.50862 0 0 0-0.25222 0.49422c0.03021 0.27728 0.2817 0.47865 0.55872 0.44847 0.27701-0.03018 0.47871-0.2812 0.44852-0.55822-0.03018-0.27702-0.28128-0.47947-0.5583-0.44929-0.0063 6.88e-4 -0.01165 0.0031-0.01793 4e-3 -0.08017-0.40344 0.05973-0.93594 0.40051-1.4974 0.3567-0.58851 0.92691-1.2051 1.6523-1.7364 0.59762-0.4375 1.2176-0.75677 1.7916-0.94685zm-0.72483 2.1352c-0.2566 0.02796-0.44343 0.26078-0.4155 0.51712 0.02793 0.25634 0.26055 0.44372 0.51715 0.41577 0.2566-0.02796 0.44343-0.26078 0.4155-0.51712-0.02793-0.25635-0.26052-0.44346-0.51712-0.4155zm-2.3792 0.98766-0.12442 0.14083c0.466 0.41216 1.0634 0.79393 1.7506 1.0968 0.81902 0.36094 1.6346 0.55185 2.3392 0.57685 0.66622 0.02357 1.2336-0.101 1.6108-0.38541 0.10016 0.07657 0.22781 0.1175 0.36217 0.10286 0.27728-0.03021 0.47947-0.28128 0.44929-0.5583-0.03018-0.27702-0.28178-0.47942-0.55906-0.4492-0.27728 0.03021-0.47865 0.2817-0.44844 0.55898 0.0082 0.07562 0.03357 0.14427 0.07082 0.20525-0.32675 0.23862-0.84808 0.3602-1.479 0.3379-0.67567-0.02381-1.4712-0.2085-2.2704-0.56088-0.6706-0.29549-1.2519-0.66828-1.7015-1.0656zm-0.64329 1.4183c0.17619-0.0192 0.33222 0.10663 0.35144 0.28308 0.01923 0.17644-0.10613 0.33216-0.28232 0.35136-0.17619 0.01919-0.33292-0.10605-0.35212-0.28223-0.01919-0.17619 0.10655-0.33298 0.28299-0.3522zm6.4922-0.70737c0.17644-0.01923 0.33298 0.10655 0.3522 0.28299 0.01923 0.17644-0.10663 0.33222-0.28308 0.35144-0.17645 0.01923-0.33216-0.10613-0.35136-0.28231-0.01919-0.17619 0.10605-0.33292 0.28223-0.35212zm-4.6209 1.0228-0.16885 0.08191c0.22487 0.46265 0.49594 0.83917 0.79821 1.0944 0.302 0.2553 0.64013 0.39036 0.98343 0.35296 0.49756-0.05421 0.90078-0.4547 1.1732-1.0447l-0.17027-0.07862c-0.25649 0.55566-0.61437 0.89231-1.0232 0.93685-0.2823 0.03076-0.56729-0.0777-0.84229-0.30994-0.275-0.23224-0.53382-0.58763-0.75016-1.0328z" fill="url(#f-3)" stroke-width=".25355"/>
  <path d="m-15.222 14.474c-0.07737-0.0069-0.1567-0.0061-0.23701 3e-3l-11.585 1.3083c-0.6425 0.07255-1.1015 0.6479-1.029 1.2904l1.3083 11.585c0.07255 0.6425 0.6479 1.1011 1.2904 1.0286l3.6229-0.40893c3.3379-0.91803 8.0429-3.7657 8.1905-9.2679l0.79998 7.078-1.3078-11.585c-0.06348-0.56218-0.51228-0.98404-1.0538-1.032z" fill="#2f3241" fill-opacity=".98039" stroke-width=".96153"/>
  <path d="m-13.662 19.979s0.05148 2.9598-2.5612 4.3661c-2.1586 1.1619 0.9025 2.5856-5.6345 4.9029 8.5102-2.4758 8.2633-9.2351 8.2633-9.2351z" fill="url(#linearGradient938)" stroke-width=".96153"/>
  <path d="m-18.333 25.245 0.04757 0.26682-3.0298 0.57108-0.04757-0.26682 0.19055-0.03592c0.30489-0.05747 0.54971-0.2309 0.63881-0.44923 0.08323-0.19601 0.08254-0.36559-0.0126-0.89923l-0.88916-4.9875-0.6193 0.11673c-0.97182 0.18318-1.2636 0.53517-1.1748 1.42l-0.24772 0.04669-0.18426-1.6412 5.2593-0.99131 0.39387 1.6017-0.23819 0.0449c-0.24492-0.87666-0.58785-1.0878-1.512-0.9136l-0.70505 0.13289 0.88916 4.9875c0.09697 0.5439 0.14163 0.68398 0.2889 0.84715 0.16815 0.16984 0.44735 0.2445 0.76177 0.18524z" fill="#dbe6f0" image-rendering="optimizeSpeed"/>
 </g>
</svg>
