<?xml version="1.0" encoding="UTF-8"?>
<svg id="Activity-Monitor" width="64" height="64" enable-background="new 0 0 1024 1024" image-rendering="optimizeSpeed" version="1.1" viewBox="0 0 64 64" xmlns="http://www.w3.org/2000/svg" xmlns:cc="http://creativecommons.org/ns#" xmlns:dc="http://purl.org/dc/elements/1.1/" xmlns:rdf="http://www.w3.org/1999/02/22-rdf-syntax-ns#" xmlns:xlink="http://www.w3.org/1999/xlink">
 <metadata>
  <rdf:RDF>
   <cc:Work rdf:about="">
    <dc:format>image/svg+xml</dc:format>
    <dc:type rdf:resource="http://purl.org/dc/dcmitype/StillImage"/>
   </cc:Work>
  </rdf:RDF>
 </metadata>
 <defs>
  <linearGradient id="linearGradient32309">
   <stop stop-color="#434343" offset="0"/>
   <stop stop-color="#242525" offset="1"/>
  </linearGradient>
  <linearGradient id="linearGradient1017" x1="-93.394" x2="-93.394" y1="2.0224" y2="62.01" gradientTransform="translate(126.54)" gradientUnits="userSpaceOnUse">
   <stop stop-color="#fafafa" offset="0"/>
   <stop stop-color="#dcdcdc" offset=".96308"/>
   <stop stop-color="#c8c8c8" offset="1"/>
  </linearGradient>
  <linearGradient id="linearGradient12519" x1="-93.394" x2="-93.394" y1="2.0224" y2="62.01" gradientTransform="matrix(.91667 0 0 .91667 118.66 2.6667)" gradientUnits="userSpaceOnUse">
   <stop stop-color="#547488" offset="0"/>
   <stop stop-color="#a9a7c5" offset="1"/>
  </linearGradient>
  <linearGradient id="linearGradient32311" x1="-53.149" x2="-45.005" y1="12.828" y2="12.828" gradientUnits="userSpaceOnUse" xlink:href="#linearGradient32309"/>
  <linearGradient id="linearGradient40095" x1="-53.149" x2="-45.005" y1="12.828" y2="12.828" gradientTransform="rotate(23.169 -42.743 75.622)" gradientUnits="userSpaceOnUse" xlink:href="#linearGradient32309"/>
  <linearGradient id="linearGradient40106" x1="-53.149" x2="-45.005" y1="12.828" y2="12.828" gradientTransform="rotate(45.298 -42.584 53.434)" gradientUnits="userSpaceOnUse" xlink:href="#linearGradient32309"/>
  <linearGradient id="linearGradient40114" x1="-53.149" x2="-45.005" y1="12.828" y2="12.828" gradientTransform="rotate(68.239 -42.308 45.156)" gradientUnits="userSpaceOnUse" xlink:href="#linearGradient32309"/>
  <linearGradient id="linearGradient40122" x1="-53.149" x2="-45.005" y1="12.828" y2="12.828" gradientTransform="rotate(89.402 -42.563 41.144)" gradientUnits="userSpaceOnUse" xlink:href="#linearGradient32309"/>
  <linearGradient id="linearGradient40130" x1="-53.149" x2="-45.005" y1="12.828" y2="12.828" gradientTransform="rotate(119.13 -41.035 36.164)" gradientUnits="userSpaceOnUse" xlink:href="#linearGradient32309"/>
  <linearGradient id="linearGradient40138" x1="-53.149" x2="-45.005" y1="12.828" y2="12.828" gradientTransform="rotate(139.08 -41.595 34.871)" gradientUnits="userSpaceOnUse" xlink:href="#linearGradient32309"/>
  <linearGradient id="linearGradient40146" x1="-53.149" x2="-45.005" y1="12.828" y2="12.828" gradientTransform="rotate(165.19 -40.853 32.615)" gradientUnits="userSpaceOnUse" xlink:href="#linearGradient32309"/>
  <linearGradient id="linearGradient40154" x1="-53.149" x2="-45.005" y1="12.828" y2="12.828" gradientTransform="rotate(184.76 -41.37 31.368)" gradientUnits="userSpaceOnUse" xlink:href="#linearGradient32309"/>
  <linearGradient id="linearGradient40162" x1="-53.149" x2="-45.005" y1="12.828" y2="12.828" gradientTransform="rotate(208.47 -41.036 29.748)" gradientUnits="userSpaceOnUse" xlink:href="#linearGradient32309"/>
  <linearGradient id="linearGradient40170" x1="-53.149" x2="-45.005" y1="12.828" y2="12.828" gradientTransform="rotate(228 -41.567 27.989)" gradientUnits="userSpaceOnUse" xlink:href="#linearGradient32309"/>
  <linearGradient id="linearGradient40178" x1="-53.149" x2="-45.005" y1="12.828" y2="12.828" gradientTransform="rotate(252.84 -41.212 25.949)" gradientUnits="userSpaceOnUse" xlink:href="#linearGradient32309"/>
  <linearGradient id="linearGradient40186" x1="-53.149" x2="-45.005" y1="12.828" y2="12.828" gradientTransform="rotate(-86.707 -41.525 22.801)" gradientUnits="userSpaceOnUse" xlink:href="#linearGradient32309"/>
  <linearGradient id="linearGradient40194" x1="-53.149" x2="-45.005" y1="12.828" y2="12.828" gradientTransform="rotate(-63.069 -41.209 18.56)" gradientUnits="userSpaceOnUse" xlink:href="#linearGradient32309"/>
  <linearGradient id="linearGradient40202" x1="-53.149" x2="-45.005" y1="12.828" y2="12.828" gradientTransform="rotate(-44.629 -41.946 9.9064)" gradientUnits="userSpaceOnUse" xlink:href="#linearGradient32309"/>
  <linearGradient id="linearGradient40210" x1="-53.149" x2="-45.005" y1="12.828" y2="12.828" gradientTransform="rotate(-23.303 -41.905 -12.557)" gradientUnits="userSpaceOnUse" xlink:href="#linearGradient32309"/>
  <radialGradient id="radialGradient57354" cx="32" cy="32" r="22.5" gradientTransform="matrix(.95556 0 0 .95556 1.4222 1.4222)" gradientUnits="userSpaceOnUse">
   <stop stop-color="#40cfff" offset="0"/>
   <stop stop-color="#25c6ff" offset=".86806"/>
   <stop stop-color="#2097db" offset="1"/>
  </radialGradient>
  <radialGradient id="radialGradient103615" cx="32" cy="32" r="22.5" gradientTransform="matrix(.95556 0 0 .95556 1.4222 1.4222)" gradientUnits="userSpaceOnUse">
   <stop stop-color="#7e50f0" offset="0"/>
   <stop stop-color="#883de5" offset=".86806"/>
   <stop stop-color="#621ddb" offset="1"/>
  </radialGradient>
  <radialGradient id="radialGradient260358" cx="35.158" cy="30.238" r="20.053" gradientTransform="matrix(.91975 .054341 -.062756 1.0622 4.7189 -2.4347)" gradientUnits="userSpaceOnUse">
   <stop stop-color="#fc686c" offset="0"/>
   <stop stop-color="#fb6266" offset=".8"/>
   <stop stop-color="#f6353c" offset="1"/>
  </radialGradient>
  <linearGradient id="linearGradient264323" x1="32.115" x2="32.115" y1="22.517" y2="41.345" gradientUnits="userSpaceOnUse">
   <stop stop-color="#595a64" offset="0"/>
   <stop stop-color="#3c336d" offset="1"/>
  </linearGradient>
  <linearGradient id="linearGradient281374" x1="32.047" x2="32.047" y1="21.953" y2="41.97" gradientUnits="userSpaceOnUse">
   <stop stop-color="#2b4f66" offset="0"/>
   <stop stop-color="#372a61" offset="1"/>
  </linearGradient>
  <linearGradient id="linearGradient301171" x1="-33.97" x2="-15.354" y1="32.729" y2="22.117" gradientUnits="userSpaceOnUse">
   <stop stop-color="#f1f1f1" offset="0"/>
   <stop stop-color="#eee" offset="1"/>
  </linearGradient>
 </defs>
 <g fill-rule="evenodd" stroke-linecap="round" stroke-linejoin="round">
  <circle cx="32" cy="32" r="30" fill="url(#linearGradient1017)" stroke-width="7.4787"/>
  <circle cx="32" cy="32" r="27.5" fill="url(#linearGradient12519)" stroke-width="6.8555"/>
  <circle cx="32" cy="32" r="26" fill="#0f0f0f" stroke-width="6.4816"/>
 </g>
 <g transform="translate(65.197 .23849)">
  <g transform="translate(18.159)">
   <path d="m-51.562 6.9316a25.069 25.069 0 0 0-1.5879 0.11328v11.68h5.1367l3.0078-10.914a25.069 25.069 0 0 0-6.5566-0.87891z" fill="url(#linearGradient32311)"/>
   <path d="m-51.562 7.8555a25.069 25.069 0 0 0-1.5879 0.11328v0.26367c1.1031 0.017 4.4021 0.23356 7.4512 2.0938l0.45508-1.6504a25.069 25.069 0 0 0-6.3184-0.82031z" fill="#0f0f0f"/>
   <path d="m-51.562 6.9316a25.069 25.069 0 0 0-1.5879 0.11328v1.1875c1.1031 0.017 4.4021 0.23356 7.4512 2.0938l0.69336-2.5156a25.069 25.069 0 0 0-6.5566-0.87891z" opacity=".5"/>
  </g>
  <path d="m-23.824 9.0023a25.069 25.069 0 0 0-1.5044-0.52061l-4.5954 10.738 4.7224 2.0211 7.0594-8.8504a25.069 25.069 0 0 0-5.682-3.3877z" fill="url(#linearGradient40095)"/>
  <path d="m-24.188 9.8513a25.069 25.069 0 0 0-1.5044-0.52061l-0.10374 0.24241c1.0074 0.44964 3.9551 1.9467 6.0264 4.8566l1.0677-1.3382a25.069 25.069 0 0 0-5.486-3.2401z" fill="#0f0f0f"/>
  <path d="m-23.824 9.0023a25.069 25.069 0 0 0-1.5044-0.52061l-0.46722 1.0917c1.0074 0.44964 3.9551 1.9467 6.0264 4.8566l1.6272-2.0399a25.069 25.069 0 0 0-5.682-3.3877z" opacity=".5"/>
  <path d="m-15.846 14.342a25.069 25.069 0 0 0-1.1975-1.0489l-8.3016 8.2157 3.6133 3.6511 9.8732-5.5393a25.069 25.069 0 0 0-3.9874-5.2785z" fill="url(#linearGradient40106)"/>
  <path d="m-16.504 14.991a25.069 25.069 0 0 0-1.1975-1.049l-0.18741 0.18547c0.76385 0.796 2.9305 3.2932 3.7531 6.7689l1.4932-0.83746a25.069 25.069 0 0 0-3.8614-5.068z" fill="#0f0f0f"/>
  <path d="m-15.846 14.342a25.069 25.069 0 0 0-1.1975-1.0489l-0.84405 0.83531c0.76385 0.796 2.9305 3.2932 3.7531 6.7689l2.2758-1.2767a25.069 25.069 0 0 0-3.9874-5.2785z" opacity=".5"/>
  <path d="m-10.238 22.392a25.069 25.069 0 0 0-0.69389-1.4327l-10.847 4.33 1.9044 4.7707 11.251-1.2527a25.069 25.069 0 0 0-1.6145-6.4153z" fill="url(#linearGradient40114)"/>
  <path d="m-11.096 22.733a25.069 25.069 0 0 0-0.69389-1.4327l-0.24488 0.09776c0.39316 1.0308 1.4151 4.175 0.81784 7.6964l1.7015-0.1892a25.069 25.069 0 0 0-1.5806-6.1722z" fill="#0f0f0f"/>
  <path d="m-10.238 22.392a25.069 25.069 0 0 0-0.69389-1.4327l-1.1029 0.44024c0.39316 1.0308 1.4151 4.175 0.81784 7.6964l2.5934-0.28867a25.069 25.069 0 0 0-1.6145-6.4153z" opacity=".5"/>
  <path d="m-8.4459 31.789a25.069 25.069 0 0 0-0.12986-1.5866l-11.679 0.122 0.05366 5.1364 10.945 2.8936a25.069 25.069 0 0 0 0.81037-6.5655z" fill="url(#linearGradient40122)"/>
  <path d="m-9.3697 31.797a25.069 25.069 0 0 0-0.12986-1.5866l-0.26366 0.0028c-0.00548 1.1032-0.18757 4.4043-2.0158 7.4726l1.6551 0.43782a25.069 25.069 0 0 0 0.75427-6.3266z" fill="#0f0f0f"/>
  <path d="m-8.4459 31.789a25.069 25.069 0 0 0-0.12986-1.5866l-1.1874 0.0124c-0.00548 1.1032-0.18757 4.4043-2.0158 7.4726l2.5227 0.66705a25.069 25.069 0 0 0 0.81037-6.5655z" opacity=".5"/>
  <path d="m-10.376 41.202a25.069 25.069 0 0 0 0.67413-1.4421l-10.202-5.6864-2.5009 4.4868 8.0688 7.9409a25.069 25.069 0 0 0 3.9599-5.2992z" fill="url(#linearGradient40130)"/>
  <path d="m-11.182 40.751a25.069 25.069 0 0 0 0.67413-1.4421l-0.23034-0.12833c-0.55192 0.95524-2.3472 3.7314-5.4565 5.4891l1.22 1.201a25.069 25.069 0 0 0 3.7927-5.1196z" fill="#0f0f0f"/>
  <path d="m-10.376 41.202a25.069 25.069 0 0 0 0.67413-1.4421l-1.0373-0.57815c-0.55192 0.95524-2.3472 3.7314-5.4565 5.4891l1.8598 1.8304a25.069 25.069 0 0 0 3.9599-5.2992z" opacity=".5"/>
  <path d="m-15.765 49.456a25.069 25.069 0 0 0 1.1257-1.1256l-7.6499-8.8258-3.8816 3.3644 4.8756 10.217a25.069 25.069 0 0 0 5.5302-3.6303z" fill="url(#linearGradient40138)"/>
  <path d="m-16.369 48.757a25.069 25.069 0 0 0 1.1257-1.1256l-0.17273-0.19922c-0.8447 0.70963-3.4794 2.7068-7.0018 3.2982l0.73708 1.5452a25.069 25.069 0 0 0 5.3118-3.5185z" fill="#0f0f0f"/>
  <path d="m-15.765 49.456a25.069 25.069 0 0 0 1.1257-1.1256l-0.77778-0.89734c-0.8447 0.70963-3.4794 2.7067-7.0018 3.2982l1.1237 2.3551a25.069 25.069 0 0 0 5.5302-3.6303z" opacity=".5"/>
  <path d="m-23.933 54.706a25.069 25.069 0 0 0 1.5061-0.5155l-2.9862-11.291-4.966 1.3133-0.1174 11.32a25.069 25.069 0 0 0 6.5634-0.82667z" fill="url(#linearGradient40146)"/>
  <path d="m-24.168 53.813a25.069 25.069 0 0 0 1.5062-0.5155l-0.06746-0.2549c-1.0708 0.26557-4.3155 0.8997-7.7388-0.11909l-0.01799 1.7119a25.069 25.069 0 0 0 6.3181-0.82239z" fill="#0f0f0f"/>
  <path d="m-23.933 54.706a25.069 25.069 0 0 0 1.5061-0.5155l-0.30361-1.148c-1.0708 0.26557-4.3155 0.8997-7.7388-0.11909l-0.02713 2.6093a25.069 25.069 0 0 0 6.5634-0.82667z" opacity=".5"/>
  <path d="m-33.244 56.567a25.069 25.069 0 0 0 1.5918 0.01901l0.97019-11.639-5.119-0.42668-3.904 10.626a25.069 25.069 0 0 0 6.461 1.4205z" fill="url(#linearGradient40154)"/>
  <path d="m-33.166 55.647a25.069 25.069 0 0 0 1.5918 0.01901l0.02185-0.26276c-1.0979-0.10859-4.3675-0.59842-7.2515-2.7055l-0.5906 1.6069a25.069 25.069 0 0 0 6.2284 1.3423z" fill="#0f0f0f"/>
  <path d="m-33.244 56.567a25.069 25.069 0 0 0 1.5918 0.01901l0.09864-1.1834c-1.0979-0.1086-4.3675-0.59842-7.2515-2.7055l-0.89992 2.4493a25.069 25.069 0 0 0 6.461 1.4205z" opacity=".5"/>
  <path d="m-42.66 54.824a25.069 25.069 0 0 0 1.4498 0.65741l5.5681-10.267-4.5154-2.4488-7.8471 8.1601a25.069 25.069 0 0 0 5.3446 3.8984z" fill="url(#linearGradient40162)"/>
  <path d="m-42.219 54.012a25.069 25.069 0 0 0 1.4498 0.65742l0.12565-0.23181c-0.96155-0.54084-3.7583-2.3039-5.5518-5.3927l-1.1868 1.2338a25.069 25.069 0 0 0 5.1631 3.7332z" fill="#0f0f0f"/>
  <path d="m-42.66 54.824a25.069 25.069 0 0 0 1.4498 0.65741l0.56612-1.0439c-0.96155-0.54084-3.7583-2.3039-5.5518-5.3927l-1.8088 1.8808a25.069 25.069 0 0 0 5.3446 3.8984z" opacity=".5"/>
  <path d="m-50.527 49.506a25.069 25.069 0 0 0 1.1467 1.1042l8.6794-7.8156-3.4373-3.8172-10.123 5.0681a25.069 25.069 0 0 0 3.7343 5.4605z" fill="url(#linearGradient40170)"/>
  <path d="m-49.84 48.889a25.069 25.069 0 0 0 1.1467 1.1042l0.1959-0.17648c-0.72549-0.83112-2.7721-3.4276-3.4301-6.9382l-1.531 0.7662a25.069 25.069 0 0 0 3.6184 5.2442z" fill="#0f0f0f"/>
  <path d="m-50.527 49.506a25.069 25.069 0 0 0 1.1467 1.1042l0.88245-0.79462c-0.72549-0.83112-2.7721-3.4276-3.4301-6.9382l-2.3334 1.1681a25.069 25.069 0 0 0 3.7343 5.4605z" opacity=".5"/>
  <path d="m-56.33 41.449a25.069 25.069 0 0 0 0.57666 1.4838l11.16-3.4454-1.5153-4.9081-11.316 0.34559a25.069 25.069 0 0 0 1.0944 6.5241z" fill="url(#linearGradient40178)"/>
  <path d="m-55.447 41.177a25.069 25.069 0 0 0 0.57666 1.4838l0.25192-0.07783c-0.30914-1.059-1.0754-4.2751-0.19745-7.7372l-1.7112 0.05203a25.069 25.069 0 0 0 1.0801 6.2792z" fill="#0f0f0f"/>
  <path d="m-56.33 41.449a25.069 25.069 0 0 0 0.57666 1.4838l1.1347-0.3503c-0.30913-1.059-1.0754-4.2751-0.19745-7.7372l-2.6082 0.07959a25.069 25.069 0 0 0 1.0944 6.5241z" opacity=".5"/>
  <path d="m-57.945 31.909a25.069 25.069 0 0 0 0.0219 1.5918l11.66 0.67085 0.29503-5.1282-10.723-3.6297a25.069 25.069 0 0 0-1.2541 6.4953z" fill="url(#linearGradient40186)"/>
  <path d="m-57.023 31.963a25.069 25.069 0 0 0 0.02189 1.5918l0.26324 0.01509c0.08035-1.1003 0.48602-4.3814 2.5183-7.3186l-1.6215-0.54912a25.069 25.069 0 0 0-1.1819 6.2608z" fill="#0f0f0f"/>
  <path d="m-57.945 31.909a25.069 25.069 0 0 0 0.0219 1.5918l1.1855 0.0682c0.08036-1.1003 0.48602-4.3814 2.5183-7.3186l-2.4717-0.8367a25.069 25.069 0 0 0-1.2541 6.4953z" opacity=".5"/>
  <path d="m-56.265 22.523a25.069 25.069 0 0 0-0.61819 1.467l10.413 5.29 2.3265-4.5796-8.3681-7.6248a25.069 25.069 0 0 0-3.7532 5.4475z" fill="url(#linearGradient40194)"/>
  <path d="m-55.442 22.943a25.069 25.069 0 0 0-0.6182 1.467l0.2351 0.11937c0.51478-0.97575 2.202-3.8189 5.2415-5.6948l-1.2653-1.1532a25.069 25.069 0 0 0-3.5931 5.2616z" fill="#0f0f0f"/>
  <path d="m-56.265 22.523a25.069 25.069 0 0 0-0.61819 1.467l1.0587 0.53784c0.5148-0.97574 2.202-3.8189 5.2415-5.6948l-1.9288-1.7575a25.069 25.069 0 0 0-3.7532 5.4475z" opacity=".5"/>
  <path d="m-50.879 14.544a25.069 25.069 0 0 0-1.0505 1.1961l8.2051 8.3121 3.6557-3.6086-5.5267-9.8803a25.069 25.069 0 0 0-5.2836 3.9806z" fill="url(#linearGradient40202)"/>
  <path d="m-50.231 15.202a25.069 25.069 0 0 0-1.0505 1.1961l0.18527 0.18761c0.79699-0.76282 3.2969-2.9263 6.7737-3.7445l-0.83556-1.4942a25.069 25.069 0 0 0-5.0729 3.8549z" fill="#0f0f0f"/>
  <path d="m-50.879 14.544a25.069 25.069 0 0 0-1.0505 1.1961l0.83424 0.8451c0.797-0.76281 3.2969-2.9263 6.7737-3.7445l-1.2738-2.2774a25.069 25.069 0 0 0-5.2836 3.9806z" opacity=".5"/>
  <path d="m-43.064 9.1621a25.069 25.069 0 0 0-1.4135 0.73221l4.6205 10.727 4.7177-2.0321-1.5551-11.214a25.069 25.069 0 0 0-6.3695 1.7866z" fill="url(#linearGradient40210)"/>
  <path d="m-42.7 10.011a25.069 25.069 0 0 0-1.4135 0.73221l0.10436 0.24214c1.0198-0.42075 4.1354-1.5269 7.6716-1.0247l-0.23494-1.6958a25.069 25.069 0 0 0-6.1274 1.7461z" fill="#0f0f0f"/>
  <path d="m-43.064 9.1621a25.069 25.069 0 0 0-1.4135 0.73221l0.46978 1.0906c1.0198-0.42074 4.1354-1.5269 7.6716-1.0247l-0.35839-2.5847a25.069 25.069 0 0 0-6.3695 1.7866z" opacity=".5"/>
 </g>
 <g fill-rule="evenodd" stroke-linecap="round" stroke-linejoin="round">
  <circle cx="32" cy="32" r="21.5" fill="url(#radialGradient57354)" stroke-width="5.3598"/>
  <g fill="url(#radialGradient260358)" stroke-width="5.3598">
   <path d="m31.455 32.18-18.061 10.494a21.5 21.5 0 0 0 18.605 10.826 21.5 21.5 0 0 0 17.969-9.7285l-18.514-11.592z"/>
   <path d="m31.455 32.18 18.514 11.592a21.5 21.5 0 0 0 3.5312-11.771 21.5 21.5 0 0 0-2.9727-10.902l-19.072 11.082z"/>
  </g>
  <path d="m31.455 32.18-18.061 10.494a21.5 21.5 0 0 0 18.605 10.826 21.5 21.5 0 0 0 17.969-9.7285l-18.514-11.592z" fill="url(#radialGradient103615)" stroke-width="5.3598"/>
  <circle cx="32" cy="32" r="10" fill="url(#linearGradient281374)" stroke-width="2.4929"/>
  <circle cx="32" cy="32" r="9.5" fill="url(#linearGradient264323)" stroke-width="2.3683"/>
  <path d="m32 22.5a9.5 9.5 0 0 0-9.5 9.5 9.5 9.5 0 0 0 0.013672 0.17969 9.5 9.5 0 0 1 9.4863-9.3184 9.5 9.5 0 0 1 9.4941 9.2324 9.5 9.5 0 0 0 0.005859-0.09375 9.5 9.5 0 0 0-9.5-9.5z" fill="#fff" opacity=".2" stroke-width="2.3683"/>
  <path d="m41.994 32.096a10 10 0 0 1-9.9941 9.9043 10 10 0 0 1-9.9863-9.8086 10 10 0 0 0-0.013672 0.18945 10 10 0 0 0 10 10 10 10 0 0 0 10-10 10 10 0 0 0-0.005859-0.28516z" fill="#fff" opacity=".2" stroke-width="2.4929"/>
 </g>
 <g transform="translate(64.043 .02762)" fill="url(#linearGradient301171)">
  <circle cx="-32.051" cy="31.978" r="2.75" fill-rule="evenodd"/>
  <path d="m-33.216 29.502s17.394-7.6667 17.744-7.5217c0.34919 0.14501 0.64545 0.56028 0.16442 0.9154-0.48103 0.35513-14.842 11.075-14.842 11.075z"/>
 </g>
</svg>
