<?xml version="1.0" encoding="UTF-8"?>
<svg width="64" height="64" version="1.1" viewBox="0 0 16.933 16.933" xmlns="http://www.w3.org/2000/svg" xmlns:cc="http://creativecommons.org/ns#" xmlns:dc="http://purl.org/dc/elements/1.1/" xmlns:rdf="http://www.w3.org/1999/02/22-rdf-syntax-ns#" xmlns:xlink="http://www.w3.org/1999/xlink">
 <defs>
  <linearGradient id="linearGradient997" x1="35.909" x2="28.985" y1="62.323" y2="1.9703" gradientTransform="matrix(.26458 0 0 .26458 13.089 11.862)" gradientUnits="userSpaceOnUse">
   <stop stop-color="#3aa315" offset="0"/>
   <stop stop-color="#aeeb51" offset="1"/>
  </linearGradient>
  <filter id="g" x="-.053572" y="-.068181" width="1.1071" height="1.1364" color-interpolation-filters="sRGB">
   <feGaussianBlur stdDeviation="0.81521739"/>
  </filter>
  <linearGradient id="linearGradient1773" x1="32" x2="32" y1="17.652" y2="46.348" gradientTransform="matrix(.26458 0 0 .26458 13.089 11.862)" gradientUnits="userSpaceOnUse">
   <stop stop-color="#fbfbfb" offset="0"/>
   <stop stop-color="#c4e4de" offset="1"/>
  </linearGradient>
 </defs>
 <metadata>
  <rdf:RDF>
   <cc:Work rdf:about="">
    <dc:format>image/svg+xml</dc:format>
    <dc:type rdf:resource="http://purl.org/dc/dcmitype/StillImage"/>
   </cc:Work>
  </rdf:RDF>
 </metadata>
 <g transform="translate(-13.089 -11.862)">
  <path d="m26.928 12.36c-0.08053-0.0063-0.16307-0.0046-0.24649 0.0057l-12.033 1.4826c-0.6674 0.08223-1.1385 0.68598-1.0562 1.3534l1.4826 12.033c0.08223 0.6674 0.68598 1.1385 1.3534 1.0562l12.033-1.4826c0.6674-0.08223 1.1385-0.68598 1.0562-1.3534l-1.4826-12.033c-0.07195-0.58397-0.54315-1.0177-1.1069-1.0619z" fill="url(#linearGradient997)" image-rendering="optimizeSpeed"/>
  <path d="m21.555 15.497 4.8315 4.8315-4.8315 4.8315-4.8315-4.8315z" opacity=".25" stroke-width=".26458"/>
  <path transform="matrix(.26458 0 0 .26458 13.089 11.862)" d="m14.392 17.652-0.65217 0.65217v1.3043l0.65217 0.65217h1.9565v25.435l0.65218 0.65217h1.9565l28.696-26.739v-1.3043l-0.65217-0.65217h-11.739l-0.65218 0.65217v1.3043l0.65218 0.65217h1.9565v1.3043l-14.348 13.043v-14.348h1.9565l0.65218-0.65217v-1.3043l-0.65218-0.65217zm20.08 15.652-0.92479 0.65217-0.43826 1.3043 0.48913 0.65217h1.4113l0.92478-0.65217 0.43565-1.3043-0.48652-0.65217m-4.7948 3.913-0.39261 1.3043h1.1739l-2.4783 6.5217h3.913l0.48131-1.3043h-1.1335l2.4783-6.5217m1.5639 0-0.45652 1.3043h0.97826l-2.4783 6.5217h3.3274l0.45653-1.3043h-0.7187l1.3709-3.913h2.7717l-1.86 5.2174h3.2609l0.52174-1.3043h-0.71609l1.3683-3.913h2.6087l-1.8261 5.2174h3.4187l0.59869-1.3043h-0.91174l1.8522-5.2174-1.0448-1.3043h-1.5639l-1.3044 1.3043h-1.1087l-1.11-1.3043h-1.2378l-1.2391 1.3043h-1.3044l-1.1739-1.3043" filter="url(#g)" opacity=".25"/>
  <path d="m16.896 16.532-0.17255 0.17255v0.34509l0.17255 0.17255h0.51765v6.7295l0.17255 0.17255h0.51765l7.5923-7.0746v-0.34509l-0.17255-0.17255h-3.1059l-0.17255 0.17255v0.34509l0.17255 0.17255h0.51765v0.34509l-3.7962 3.4509v-3.7962h0.51765l0.17255-0.17255v-0.34509l-0.17255-0.17255zm5.3127 4.1412-0.24468 0.17255-0.11595 0.34509 0.12941 0.17255h0.3734l0.24468-0.17255 0.11526-0.34509-0.12872-0.17255m-1.2686 1.0353-0.10388 0.34509h0.31059l-0.6557 1.7255h1.0353l0.12734-0.34509h-0.2999l0.6557-1.7255m0.41377 0-0.12079 0.34509h0.25883l-0.6557 1.7255h0.88036l0.12079-0.34509h-0.19015l0.36271-1.0353h0.73333l-0.49212 1.3804h0.86276l0.13804-0.34509h-0.18946l0.36202-1.0353h0.6902l-0.48315 1.3804h0.90451l0.1584-0.34509h-0.24123l0.49005-1.3804-0.27643-0.34509h-0.41377l-0.34512 0.34509h-0.29334l-0.29368-0.34509h-0.3275l-0.32784 0.34509h-0.34512l-0.31059-0.34509" fill="url(#linearGradient1773)" stroke-width=".26458"/>
 </g>
</svg>
