<?xml version="1.0" encoding="UTF-8"?>
<svg width="64" height="64" version="1.1" viewBox="0 0 16.933 16.933" xmlns="http://www.w3.org/2000/svg" xmlns:cc="http://creativecommons.org/ns#" xmlns:dc="http://purl.org/dc/elements/1.1/" xmlns:rdf="http://www.w3.org/1999/02/22-rdf-syntax-ns#" xmlns:xlink="http://www.w3.org/1999/xlink">
 <defs>
  <linearGradient id="linearGradient997-2" x1="35.64" x2="29.387" y1="56.734" y2="10.147" gradientTransform="matrix(.26458 0 0 .26458 11.249 16.593)" gradientUnits="userSpaceOnUse">
   <stop stop-color="#bec4c8" offset="0"/>
   <stop stop-color="#eeeff0" offset="1"/>
  </linearGradient>
  <filter id="filter929" x="-.076235" y="-.18514" width="1.1525" height="1.3703" color-interpolation-filters="sRGB">
   <feGaussianBlur stdDeviation="1.62"/>
  </filter>
  <linearGradient id="linearGradient2800" x1="428.37" x2="428.37" y1="530.8" y2="525.8" gradientTransform="matrix(1.0032 -.11807 .11571 .98316 -474.83 -443.59)" gradientUnits="userSpaceOnUse">
   <stop stop-color="#da4453" offset="0"/>
   <stop stop-color="#fa4e5f" offset="1"/>
  </linearGradient>
  <linearGradient id="linearGradient2802" x1="29" x2="29" y1="17" y2="31" gradientTransform="matrix(.35113 -.041324 .041324 .35113 10.149 17.38)" gradientUnits="userSpaceOnUse">
   <stop stop-color="#31363b" offset="0"/>
   <stop stop-color="#4d4d4d" offset="1"/>
  </linearGradient>
  <linearGradient id="linearGradient2804" x1="26" x2="26" y1="17" y2="31" gradientTransform="matrix(.35113 -.041324 .041324 .35113 10.149 17.38)" gradientUnits="userSpaceOnUse">
   <stop stop-color="#7f8c8d" offset="0"/>
   <stop stop-color="#afb0b3" offset="1"/>
  </linearGradient>
  <linearGradient id="linearGradient2806" x1="32" x2="32" y1="31" y2="17" gradientTransform="matrix(.35113 -.041324 .041324 .35113 10.149 17.38)" gradientUnits="userSpaceOnUse">
   <stop stop-color="#afb0b3" offset="0"/>
   <stop stop-color="#bdc3c7" offset="1"/>
  </linearGradient>
  <linearGradient id="linearGradient2808" x1="34" x2="34" y1="31" y2="17" gradientTransform="matrix(.35113 -.041324 .041324 .35113 10.149 17.38)" gradientUnits="userSpaceOnUse">
   <stop stop-color="#4d4d4d" offset="0"/>
   <stop stop-color="#585858" offset="1"/>
  </linearGradient>
 </defs>
 <metadata>
  <rdf:RDF>
   <cc:Work rdf:about="">
    <dc:format>image/svg+xml</dc:format>
    <dc:type rdf:resource="http://purl.org/dc/dcmitype/StillImage"/>
   </cc:Work>
  </rdf:RDF>
 </metadata>
 <g transform="translate(-11.249 -16.593)">
  <path d="m25.088 17.092c-0.08054-0.0063-0.16307-0.0046-0.24649 0.0057l-12.033 1.4826c-0.6674 0.08223-1.1385 0.68598-1.0562 1.3534l1.4826 12.033c0.08223 0.6674 0.68598 1.1385 1.3534 1.0562l12.033-1.4826c0.6674-0.08223 1.1385-0.68598 1.0562-1.3534l-1.4826-12.033c-0.071954-0.58397-0.54315-1.0177-1.1069-1.0619z" fill="url(#linearGradient997-2)" image-rendering="optimizeSpeed"/>
  <path transform="matrix(.23409 -.027549 .027549 .23409 11.326 18.31)" d="m6.4992 22.103 7.5 21h13.5l3-8.4004 3 8.4004h9l3-8.4004 3 8.4004h9l-7.5-21h-9l-3 8.4004-3-8.4004h-13.5l-5.25 15-5.25-15z" filter="url(#filter929)" opacity=".25" stroke-width="1.5"/>
  <g stroke-width=".35355">
   <path d="m13.309 23.06 1.0534-0.12397 1.6422 3.3667 0.81572-3.6559 1.0534-0.12397-1.1771 5.1224-1.0534 0.12395z" fill="url(#linearGradient2800)"/>
   <path d="m17.75 27.521 1.1771-5.1224 1.0534-0.12397-1.1771 5.1224zm3.5113-0.41324 1.1771-5.1224 1.0534-0.12397-1.1771 5.1224z" fill="url(#linearGradient2802)"/>
   <path d="m16.696 27.645 1.1771-5.1224 1.0534-0.12397-1.1771 5.1224zm3.5113-0.41324 1.1771-5.1224 1.0534-0.12397-1.1771 5.1224z" fill="url(#linearGradient2804)"/>
   <path d="m21.261 27.108-1.0534 0.12397-2.3342-4.7092 1.0534-0.12397zm3.5113-0.41324-1.0534 0.12397-2.3342-4.7092 1.0534-0.12397z" fill="url(#linearGradient2806)"/>
   <path d="m18.927 22.399 2.3342 4.7092 1.0534-0.12397-2.3342-4.7092zm3.5113-0.41324 2.3342 4.7092 1.0534-0.12397-2.3342-4.7092z" fill="url(#linearGradient2808)"/>
  </g>
 </g>
</svg>
