<?xml version="1.0" encoding="UTF-8"?>
<svg width="64" height="64" version="1.1" viewBox="0 0 16.933 16.933" xmlns="http://www.w3.org/2000/svg" xmlns:cc="http://creativecommons.org/ns#" xmlns:dc="http://purl.org/dc/elements/1.1/" xmlns:rdf="http://www.w3.org/1999/02/22-rdf-syntax-ns#">
 <defs>
  <linearGradient id="c-3" x1="24.535" x2="24.535" y1="7.0931" y2="44.483" gradientTransform="matrix(.38004 0 0 .38004 9.3459 -39.506)" gradientUnits="userSpaceOnUse">
   <stop stop-color="#76dd38" offset="0"/>
   <stop stop-color="#42c440" offset=".48433"/>
   <stop stop-color="#14ab4b" offset="1"/>
  </linearGradient>
  <filter id="filter5339" x="-.1891" y="-.079887" width="1.3782" height="1.1598" color-interpolation-filters="sRGB">
   <feGaussianBlur stdDeviation="0.21156371"/>
  </filter>
  <linearGradient id="linearGradient4773" x1="63.287" x2="65.973" y1="22.316" y2="22.316" gradientTransform="matrix(1.6733 0 0 1.6733 -84.799 -7.5482)" gradientUnits="userSpaceOnUse">
   <stop stop-color="#faffff" offset="0"/>
   <stop stop-color="#fff" offset="1"/>
  </linearGradient>
  <linearGradient id="linearGradient3039" x1="63.887" x2="57.767" y1="19.031" y2="24.171" gradientTransform="matrix(.44272 0 0 .44272 -16.034 15.627)" gradientUnits="userSpaceOnUse">
   <stop stop-color="#82dc82" offset="0"/>
   <stop stop-color="#f0f0ff" offset="1"/>
  </linearGradient>
  <linearGradient id="d-39" x1="87" x2="63" y1="46" y2="24" gradientTransform="matrix(.44272 0 0 .44272 -16.034 15.627)" gradientUnits="userSpaceOnUse">
   <stop stop-color="#82dc82" offset="0"/>
   <stop stop-color="#ebebfa" offset=".46709"/>
   <stop stop-color="#f0f5ff" offset="1"/>
  </linearGradient>
 </defs>
 <metadata>
  <rdf:RDF>
   <cc:Work rdf:about="">
    <dc:format>image/svg+xml</dc:format>
    <dc:type rdf:resource="http://purl.org/dc/dcmitype/StillImage"/>
   </cc:Work>
  </rdf:RDF>
 </metadata>
 <g transform="translate(-9.6713 -21.325)">
  <circle transform="scale(1,-1)" cx="18.498" cy="-29.792" r="7.9373" color="#000000" fill="url(#c-3)" overflow="visible" stroke-width=".26458" style="isolation:auto;mix-blend-mode:normal"/>
  <g fill-rule="evenodd">
   <g stroke-width=".26458">
    <path transform="matrix(1.5906 0 0 1.678 -79.692 -7.6541)" d="m63.643 18.096c-0.09052 0.0101-0.17861 0.04111-0.26664 0.09922 0.13772 0.17144-0.1403 1.7855 0.20785 2.004l0.2717 0.17053v3.8922l-0.42679 0.31977c-0.32895 0.24647 0.02978 1.6662-0.05651 1.8488 0.09533 0.05818 0.23775 0.12029 0.36237 0.10514 0.03992-0.0049 0.08033-0.01602 0.1204-0.03566l1.7368-0.85162c0.18929-0.09277 0.38033-0.16953 0.38033-0.38033v-5.9043c0-0.2108-0.19104-0.28757-0.38033-0.38033l-1.7368-0.85162c-0.04007-0.01964-0.08048-0.0308-0.1204-0.03566-0.03116-0.0038-0.06181-0.0034-0.09198 0z" filter="url(#filter5339)" opacity=".2" style="paint-order:stroke fill markers"/>
    <path transform="matrix(1.5906 0 0 1.678 -79.692 -7.6541)" d="m57.616 23.498 5.6511-5.2228c0.25656-0.23712 0.58887-0.15304 0.58887 0.33742v1.7579l-5.2244 3.9957c-0.09136 0.07175-0.32943 0.24313-0.53715 0.04563l-0.52855-0.50251c-0.1387-0.13187-0.05988-0.30961 0.0501-0.41126z" filter="url(#filter5339)" opacity=".2" style="paint-order:stroke fill markers"/>
    <path transform="matrix(1.5906 0 0 1.678 -79.692 -7.6541)" d="m57.616 21.132 5.6511 5.2228c0.25656 0.23712 0.58887 0.15304 0.58887-0.33742v-1.7579l-5.2244-3.9957c-0.09136-0.07175-0.32943-0.24313-0.53715-0.04563l-0.52855 0.50251c-0.1387 0.13186-0.05988 0.30961 0.0501 0.41126z" filter="url(#filter5339)" opacity=".2" style="paint-order:stroke fill markers"/>
   </g>
   <g stroke-width=".44272">
    <path d="m21.696 22.732c-0.15147 0.0169-0.29887 0.06879-0.44617 0.16603 0.23045 0.28687-0.23477 2.9877 0.3478 3.3533l0.45464 0.28535v6.5129l-0.71415 0.53507c-0.55044 0.41242 0.04983 2.7881-0.09456 3.0936 0.15952 0.09735 0.39783 0.20128 0.60636 0.17593 0.0668-0.0082 0.13442-0.02681 0.20147-0.05967l2.9062-1.425c0.31674-0.15523 0.63641-0.28368 0.63641-0.63641v-9.8797c0-0.35273-0.31967-0.48119-0.63641-0.63641l-2.9062-1.425c-0.06705-0.03286-0.13467-0.05154-0.20147-0.05967-0.05214-0.0064-0.10343-0.0057-0.15391 0z" fill="url(#linearGradient4773)" style="paint-order:stroke fill markers"/>
    <path d="m11.611 31.771 9.456-8.7394c0.4293-0.39678 0.98536-0.25608 0.98536 0.56461v2.9415l-8.742 6.686c-0.15287 0.12006-0.55124 0.40683-0.89882 0.07635l-0.88443-0.84086c-0.23209-0.22066-0.1002-0.51807 0.08383-0.68816z" fill="url(#linearGradient3039)" style="paint-order:stroke fill markers"/>
    <path d="m11.611 27.812 9.456 8.7394c0.4293 0.39678 0.98536 0.25608 0.98536-0.56461v-2.9415l-8.742-6.686c-0.15287-0.12006-0.55124-0.40683-0.89882-0.07635l-0.88443 0.84086c-0.23209 0.22064-0.1002 0.51807 0.08383 0.68816z" fill="url(#d-39)" style="paint-order:stroke fill markers"/>
   </g>
  </g>
 </g>
</svg>
