<?xml version="1.0" encoding="UTF-8"?>
<!-- Created with Inkscape (http://www.inkscape.org/) -->
<svg width="64" height="64" version="1.1" viewBox="0 0 16.933 16.933" xmlns="http://www.w3.org/2000/svg" xmlns:xlink="http://www.w3.org/1999/xlink">
 <defs>
  <filter id="filter5339" x="-.1891" y="-.079887" width="1.3782" height="1.1598" color-interpolation-filters="sRGB">
   <feGaussianBlur stdDeviation="0.21156371"/>
  </filter>
  <linearGradient id="linearGradient113420" x1=".73911" x2="16.388" y1="16.296" y2=".64687" gradientTransform="translate(.32561 .006622)" gradientUnits="userSpaceOnUse">
   <stop stop-color="#00a0ff" offset="0"/>
   <stop stop-color="#37beff" offset="1"/>
  </linearGradient>
  <linearGradient id="linearGradient113422" x1="63.287" x2="65.972" y1="22.316" y2="22.316" gradientTransform="matrix(1.6734 0 0 1.6734 -94.476 -28.875)" gradientUnits="userSpaceOnUse">
   <stop stop-color="#faffff" offset="0"/>
   <stop stop-color="#fff" offset="1"/>
  </linearGradient>
  <linearGradient id="linearGradient113424" x1="86" x2="63" y1="19.458" y2="39" gradientTransform="matrix(.44275 0 0 .44275 -25.707 -5.6986)" gradientUnits="userSpaceOnUse">
   <stop stop-color="#99daff" offset="0"/>
   <stop stop-color="#f0faff" offset="1"/>
  </linearGradient>
  <linearGradient id="linearGradient113426" x1="87" x2="63" y1="46" y2="24" gradientTransform="matrix(.44275 0 0 .44275 -25.707 -5.6986)" gradientUnits="userSpaceOnUse">
   <stop stop-color="#cef" offset="0"/>
   <stop stop-color="#ebf5fa" offset=".46709"/>
   <stop stop-color="#f0f5ff" offset="1"/>
  </linearGradient>
 </defs>
 <path d="m16.765 8.4666c0 0.95154-0.16749 1.8638-0.47464 2.7095-0.2135 0.58768-0.49439 1.1433-0.83393 1.6572-0.14222 0.21608-0.29514 0.42475-0.45746 0.62529-0.51965 0.64179-1.1372 1.2007-1.8304 1.6543-0.2553 0.16717-0.52065 0.3201-0.79536 0.45712-1.0668 0.53389-2.2711 0.83422-3.5457 0.83422-1.2745 0-2.4788-0.30033-3.5457-0.83424-0.27474-0.13705-0.5404-0.28997-0.79571-0.45712-0.70206-0.45973-1.327-1.0274-1.8508-1.6798-0.16262-0.20216-0.31524-0.41275-0.45746-0.63077-0.33047-0.50539-0.60421-1.0507-0.8135-1.627-0.30711-0.84529-0.4743-1.7572-0.4743-2.7085 0-4.3838 3.5537-7.9375 7.9375-7.9375 2.2005 0 4.1917 0.89548 5.6295 2.3416 0.41436 0.41662 0.78274 0.87929 1.0963 1.3795 0.29645 0.47108 0.54427 0.97582 0.73704 1.5068 0.30719 0.84559 0.47466 1.7579 0.47466 2.7095z" fill="url(#linearGradient113420)" stroke-width=".031007"/>
 <g fill-rule="evenodd">
  <g stroke-width=".26458">
   <path transform="matrix(1.5907 0 0 1.6781 -89.368 -28.981)" d="m63.643 18.096c-0.09052 0.0101-0.17861 0.04111-0.26664 0.09922 0.13772 0.17144-0.1403 1.7855 0.20785 2.004l0.2717 0.17053v3.8922l-0.42679 0.31977c-0.32895 0.24647 0.02978 1.6662-0.05651 1.8488 0.09533 0.05818 0.23775 0.12029 0.36237 0.10514 0.03992-0.0049 0.08033-0.01602 0.1204-0.03566l1.7368-0.85162c0.18929-0.09277 0.38033-0.16953 0.38033-0.38033v-5.9043c0-0.2108-0.19104-0.28757-0.38033-0.38033l-1.7368-0.85162c-0.04007-0.01964-0.08048-0.0308-0.1204-0.03566-0.03116-0.0038-0.06181-0.0034-0.09198 0z" filter="url(#filter5339)" opacity=".2" style="paint-order:stroke fill markers"/>
   <path transform="matrix(1.5907 0 0 1.6781 -89.368 -28.981)" d="m57.616 23.498 5.6511-5.2228c0.25656-0.23712 0.58887-0.15304 0.58887 0.33742v1.7579l-5.2244 3.9957c-0.09136 0.07175-0.32943 0.24313-0.53715 0.04563l-0.52855-0.50251c-0.1387-0.13187-0.05988-0.30961 0.0501-0.41126z" filter="url(#filter5339)" opacity=".2" style="paint-order:stroke fill markers"/>
   <path transform="matrix(1.5907 0 0 1.6781 -89.368 -28.981)" d="m57.616 21.132 5.6511 5.2228c0.25656 0.23712 0.58887 0.15304 0.58887-0.33742v-1.7579l-5.2244-3.9957c-0.09136-0.07175-0.32943-0.24313-0.53715-0.04563l-0.52855 0.50251c-0.1387 0.13186-0.05988 0.30961 0.0501 0.41126z" filter="url(#filter5339)" opacity=".2" style="paint-order:stroke fill markers"/>
  </g>
  <g stroke-width=".44275">
   <path d="m12.025 1.4067c-0.15148 0.016901-0.29889 0.068794-0.4462 0.16604 0.23046 0.28689-0.23478 2.9879 0.34782 3.3535l0.45467 0.28537v6.5133l-0.7142 0.53511c-0.55047 0.41244 0.04983 2.7882-0.09456 3.0938 0.15953 0.09736 0.39785 0.2013 0.60639 0.17594 0.0668-0.0082 0.13442-0.02681 0.20148-0.05967l2.9064-1.4251c0.31676-0.15524 0.63645-0.28369 0.63645-0.63645v-9.8803c0-0.35276-0.31969-0.48122-0.63645-0.63645l-2.9064-1.4251c-0.06705-0.032866-0.13468-0.051541-0.20148-0.059674-0.05214-0.00636-0.10343-0.00569-0.15392 0z" fill="url(#linearGradient113422)" style="paint-order:stroke fill markers"/>
   <path d="m1.9395 10.447 9.4566-8.7399c0.42933-0.3968 0.98542-0.2561 0.98542 0.56464v2.9417l-8.7426 6.6865c-0.15288 0.12007-0.55127 0.40686-0.89887 0.07636l-0.88448-0.84091c-0.2321-0.22067-0.1002-0.5181 0.083838-0.68821z" fill="url(#linearGradient113424)" style="paint-order:stroke fill markers"/>
   <path d="m1.9395 6.4872 9.4566 8.7399c0.42933 0.3968 0.98542 0.2561 0.98542-0.56464v-2.9417l-8.7426-6.6865c-0.15288-0.12007-0.55127-0.40686-0.89887-0.076357l-0.88448 0.84091c-0.2321 0.22066-0.1002 0.5181 0.083838 0.68821z" fill="url(#linearGradient113426)" style="paint-order:stroke fill markers"/>
  </g>
 </g>
</svg>
