<?xml version="1.0" encoding="UTF-8"?>
<!-- Created with Inkscape (http://www.inkscape.org/) -->
<svg width="64" height="64" version="1.1" viewBox="0 0 16.933 16.933" xmlns="http://www.w3.org/2000/svg">
 <defs>
  <linearGradient id="linearGradient2023" x1="-23.596" x2="903.39" y1="580.53" y2="690.94" gradientTransform="matrix(.016817 0 0 .016817 -20.223 -3.9986)" gradientUnits="userSpaceOnUse">
   <stop stop-color="#15c4fc" offset="0"/>
   <stop stop-color="#1863ee" offset="1"/>
  </linearGradient>
  <filter id="e" x="-.075" y="-.075" width="1.15" height="1.15" color-interpolation-filters="sRGB">
   <feGaussianBlur stdDeviation="7.9999998"/>
  </filter>
  <filter id="d" x="-.075" y="-.075" width="1.15" height="1.15" color-interpolation-filters="sRGB">
   <feGaussianBlur stdDeviation="7.9999998"/>
  </filter>
  <linearGradient id="c" x1="-1.3559" x2="-1.3559" y1="-59.119" y2="196.88" gradientTransform="matrix(.026337 -.0025255 .0025255 .026337 -12.829 6.1193)" gradientUnits="userSpaceOnUse">
   <stop stop-color="#ffeb42" offset="0"/>
   <stop stop-color="#ff9311" offset="1"/>
  </linearGradient>
  <linearGradient id="a" x1="62.644" x2="62.644" y1="-123.12" y2="132.88" gradientTransform="matrix(.026337 -.0025255 .0025255 .026337 -12.829 6.1193)" gradientUnits="userSpaceOnUse">
   <stop stop-color="#fff" offset="0"/>
   <stop stop-color="#e8e8e8" offset="1"/>
  </linearGradient>
 </defs>
 <g transform="translate(20.395 1.4533)">
  <rect transform="rotate(-6.792)" x="-19.95" y="-1.7226" width="14.552" height="14.552" ry="1.3229" fill="url(#linearGradient2023)" stroke-width=".26458"/>
  <path transform="matrix(.026337 -.0025255 .0025255 .026337 -12.829 6.1193)" d="m102.64 196.88c13.297 0 24-10.703 24-24v-208c0-13.297-10.703-24-24-24h-208c-13.297 0-24 10.703-24 24v208c0 13.297 10.703 24 24 24zm-40-64h-128v-128h128z" filter="url(#e)" opacity=".15" stroke-width="13.333"/>
  <path transform="matrix(.026337 -.0025255 .0025255 .026337 -12.829 6.1193)" d="m166.64 132.88c13.297 0 24-10.703 24-24v-208c0-13.297-10.703-24-24-24h-208c-13.297 0-24 10.703-24 24v40h192v128h-128v-64h-64v104c0 13.297 10.703 24 24 24z" filter="url(#d)" opacity=".15" stroke-width="13.333"/>
  <path d="m-9.6281 11.045c0.3502-0.03358 0.60506-0.3425 0.57148-0.6927l-0.5253-5.4781c-0.033582-0.3502-0.3425-0.60506-0.6927-0.57148l-5.4781 0.5253c-0.3502 0.033582-0.60506 0.3425-0.57148 0.6927l0.5253 5.4781c0.03358 0.3502 0.3425 0.60506 0.6927 0.57148zm-1.2151-1.5845-3.3711 0.32326-0.32326-3.3711 3.3711-0.32326z" fill="url(#c)" stroke-width=".35276"/>
  <path d="m-8.1042 9.1981c0.3502-0.033582 0.60506-0.3425 0.57148-0.6927l-0.5253-5.4781c-0.033582-0.3502-0.3425-0.60506-0.6927-0.57148l-5.4781 0.5253c-0.3502 0.033582-0.60506 0.3425-0.57148 0.6927l0.10102 1.0535 5.0567-0.4849 0.32326 3.3711-3.3711 0.32326-0.16163-1.6856-1.6856 0.16163 0.26265 2.739c0.03358 0.3502 0.3425 0.60506 0.6927 0.57148z" fill="url(#a)" stroke-width=".35276"/>
 </g>
</svg>
