<?xml version="1.0" encoding="UTF-8"?>
<!-- Created with Inkscape (http://www.inkscape.org/) -->
<svg width="64" height="64" version="1.1" viewBox="0 0 16.933 16.933" xmlns="http://www.w3.org/2000/svg">
 <defs>
  <linearGradient id="linearGradient1005-3-3-3" x1="5.2535" x2="9.3824" y1="15.383" y2="2.9421" gradientTransform="matrix(.99997 0 0 .99997 12.478 14.318)" gradientUnits="userSpaceOnUse">
   <stop stop-color="#0098f0" offset="0"/>
   <stop stop-color="#0087e6" offset=".36953"/>
   <stop stop-color="#00b9ff" offset="1"/>
  </linearGradient>
  <linearGradient id="linearGradient1989" x1="3.5601" x2="16.388" y1="13.475" y2=".64687" gradientTransform="matrix(.3966 0 0 .3966 17.608 19.423)" gradientUnits="userSpaceOnUse">
   <stop stop-color="#0096f0" offset="0"/>
   <stop stop-color="#00b9ff" offset="1"/>
  </linearGradient>
  <filter id="filter2043" x="-.061541" y="-.061543" width="1.1231" height="1.1231" color-interpolation-filters="sRGB">
   <feGaussianBlur stdDeviation="0.12641235"/>
  </filter>
  <linearGradient id="linearGradient1967" x1="45.906" x2="47.124" y1="-12.504" y2="-11.243" gradientTransform="matrix(1.0296 0 0 1.0296 -26.552 34.776)" gradientUnits="userSpaceOnUse">
   <stop stop-color="#ff4632" offset="0"/>
   <stop stop-color="#ff6e41" offset=".51344"/>
   <stop stop-color="#ff2800" offset="1"/>
  </linearGradient>
  <linearGradient id="linearGradient1975" x1="44.636" x2="45.2" y1="-10.874" y2="-10.319" gradientTransform="matrix(1.0296 0 0 1.0296 -26.552 34.776)" gradientUnits="userSpaceOnUse">
   <stop stop-color="#fefffe" offset="0"/>
   <stop stop-color="#fff" offset=".78351"/>
   <stop stop-color="#c1e4f9" offset="1"/>
  </linearGradient>
 </defs>
 <g transform="translate(-12.513 -14.312)">
  <path d="m28.917 22.778c0 0.95152-0.16749 1.8638-0.47463 2.7094-0.2135 0.58767-0.49437 1.1433-0.8339 1.6572-0.14222 0.21608-0.29513 0.42474-0.45745 0.62527-0.51964 0.64178-1.1372 1.2006-1.8304 1.6542-0.25529 0.16717-0.52063 0.32009-0.79534 0.45711-1.0668 0.53388-2.271 0.83419-3.5455 0.83419-1.2745 0-2.4787-0.30031-3.5455-0.83421-0.27473-0.13705-0.54039-0.28996-0.79568-0.45711-0.70205-0.45972-1.327-1.0274-1.8508-1.6798-0.16262-0.20215-0.31523-0.41274-0.45745-0.63076-0.33046-0.50538-0.6042-1.0507-0.81347-1.627-0.3071-0.84526-0.47429-1.7572-0.47429-2.7084 0-4.3837 3.5536-7.9373 7.9373-7.9373 2.2005 0 4.1916 0.89545 5.6294 2.3416 0.41434 0.4166 0.78272 0.87926 1.0962 1.3794 0.29644 0.47106 0.54426 0.97579 0.73702 1.5068 0.30718 0.84557 0.47465 1.7579 0.47465 2.7094z" fill="url(#linearGradient1005-3-3-3)" stroke-width=".031006"/>
  <g fill="#5ad7fa">
   <path d="m25.622 22.778c0 0.55646-0.09795 1.09-0.27757 1.5844-0.12485 0.34368-0.28912 0.6686-0.48768 0.96914-0.08317 0.12636-0.1726 0.2484-0.26752 0.36567-0.30389 0.37532-0.66502 0.70216-1.0705 0.96742-0.1493 0.09776-0.30447 0.1872-0.46513 0.26732-0.62386 0.31222-1.3282 0.48785-2.0735 0.48785-0.74535 0-1.4496-0.17562-2.0735-0.48786-0.16067-0.08015-0.31602-0.16957-0.46532-0.26732-0.41057-0.26885-0.77603-0.60081-1.0824-0.98236-0.0951-0.11822-0.18435-0.24137-0.26752-0.36888-0.19325-0.29556-0.35334-0.61445-0.47573-0.95147-0.17959-0.49432-0.27737-1.0276-0.27737-1.5839 0-2.5636 2.0782-4.6419 4.6418-4.6419 1.2868 0 2.4513 0.52368 3.2921 1.3694 0.24231 0.24363 0.45774 0.51421 0.6411 0.80672 0.17337 0.27548 0.31829 0.57065 0.43102 0.88116 0.17964 0.4945 0.27758 1.028 0.27758 1.5844z" stroke-width=".018133"/>
   <g stroke-width="1.0909">
    <path d="m20.961 16.257-1.3028 2.2563h2.6455z"/>
    <path d="m20.961 29.299-1.3028-2.2563h2.6455z"/>
    <path d="m27.501 22.758-2.2563-1.3028v2.6455z"/>
    <path d="m14.459 22.758 2.2563-1.3028v2.6455z"/>
   </g>
  </g>
  <path d="m24.128 22.778c0 0.37738-0.06643 0.73919-0.18824 1.0745-0.08467 0.23307-0.19607 0.45342-0.33073 0.65724-0.0564 0.0857-0.11705 0.16846-0.18143 0.24798-0.20609 0.25453-0.451 0.47618-0.72595 0.65608-0.10125 0.06629-0.20648 0.12695-0.31543 0.18129-0.42308 0.21173-0.9007 0.33085-1.4062 0.33085-0.50547 0-0.98308-0.1191-1.4062-0.33085-0.10896-0.05436-0.21432-0.115-0.31558-0.18129-0.27844-0.18232-0.52628-0.40746-0.73404-0.6662-0.06449-0.08017-0.12502-0.1637-0.18143-0.25016-0.13106-0.20044-0.23963-0.4167-0.32262-0.64527-0.1218-0.33523-0.1881-0.69692-0.1881-1.0742 0-1.7386 1.4093-3.148 3.148-3.148 0.87271 0 1.6624 0.35514 2.2326 0.92869 0.16433 0.16523 0.31043 0.34872 0.43478 0.5471 0.11757 0.18683 0.21586 0.387 0.29231 0.59758 0.12183 0.33535 0.18824 0.69718 0.18824 1.0745z" fill="url(#linearGradient1989)" stroke-width=".012297"/>
  <path class="shp40" transform="matrix(1.0296 0 0 1.0296 -26.552 34.776)" d="m45.499-12.155 1.4322 1.4322 3.4977-4.9299zm-3.4975 4.9299 4.9299-3.4977-1.4322-1.4322z" fill="#141414" filter="url(#filter2043)" opacity=".2" stroke-width=".46039"/>
  <path transform="matrix(1.0296 0 0 1.0296 -26.552 34.776)" d="m45.499-12.154-3.4975 4.9296 4.9299-3.4975-1.4322-1.4322z" fill="#141414" filter="url(#filter2043)" opacity=".2" stroke-width=".46039"/>
  <path class="shp40" d="m20.293 22.261 1.4746 1.4746 3.6012-5.0758zm-3.601 5.0758 5.0758-3.6012-1.4746-1.4746z" fill="url(#linearGradient1967)" stroke-width=".47401"/>
  <path d="m20.293 22.262-3.601 5.0755 5.0758-3.601-1.4746-1.4746z" fill="url(#linearGradient1975)" stroke-width=".47401"/>
 </g>
</svg>
