<?xml version="1.0" encoding="UTF-8"?>
<svg width="64" height="64" version="1.1" viewBox="0 0 16.933 16.933" xmlns="http://www.w3.org/2000/svg" xmlns:cc="http://creativecommons.org/ns#" xmlns:dc="http://purl.org/dc/elements/1.1/" xmlns:rdf="http://www.w3.org/1999/02/22-rdf-syntax-ns#" xmlns:xlink="http://www.w3.org/1999/xlink">
 <defs>
  <linearGradient id="linearGradient39550" x1="-54.623" x2="-54.623" y1="4.5919" y2="59.509" gradientTransform="matrix(.26458 0 0 .26458 22.658 2.606e-5)" gradientUnits="userSpaceOnUse">
   <stop stop-color="#fd4e87" offset="0"/>
   <stop stop-color="#ff7c50" offset="1"/>
  </linearGradient>
 </defs>
 <metadata>
  <rdf:RDF>
   <cc:Work rdf:about="">
    <dc:format>image/svg+xml</dc:format>
    <dc:type rdf:resource="http://purl.org/dc/dcmitype/StillImage"/>
   </cc:Work>
  </rdf:RDF>
 </metadata>
 <path d="m2.4013 1.1906c-0.67245 0-1.2139 0.54141-1.2139 1.2139v12.124c0 0.67245 0.54141 1.2139 1.2139 1.2139h12.125c0.67245 0 1.2139-0.54141 1.2139-1.2139v-12.124c0-0.67245-0.54141-1.2139-1.2139-1.2139z" fill="url(#linearGradient39550)" stroke-linecap="round" stroke-width=".52916"/>
 <path d="m15.737 8.8601s-0.01069 0.02425-0.03255 0.06718c-0.01093 0.02147-0.02482 0.04761-0.04134 0.07751s-0.03569 0.06397-0.05788 0.10077c-0.02219 0.0368-0.04699 0.07669-0.07493 0.11885-0.02794 0.04217-0.05873 0.08629-0.0925 0.13229-0.03377 0.046-0.07039 0.09381-0.11007 0.14211-0.01984 0.02415-0.04068 0.04843-0.06201 0.07286-0.02133 0.02444-0.04331 0.04885-0.06614 0.07338-0.02284 0.02453-0.04645 0.04894-0.0708 0.07338s-0.04957 0.04871-0.07545 0.07286c-0.02587 0.02415-0.05269 0.04816-0.0801 0.07183-0.0274 0.02367-0.05528 0.04728-0.08423 0.07028s-0.05889 0.04556-0.0894 0.06769c-0.0305 0.02214-0.06147 0.04403-0.09353 0.06511-0.03207 0.02108-0.06506 0.04114-0.0987 0.06098s-0.06812 0.03896-0.10335 0.05736c-0.03523 0.0184-0.07118 0.03646-0.108 0.05323-0.03682 0.01677-0.07474 0.03259-0.11317 0.04754-0.03843 0.01495-0.07726 0.02892-0.1173 0.04186-0.04004 0.01294-0.08081 0.02492-0.12247 0.03566-0.04167 0.01073-0.08434 0.02008-0.12764 0.02842-0.024 0.0046-0.04838 0.0086-0.07286 0.0124h-0.0046c-0.01831 0.0028-0.03616 0.0064-0.05478 0.0088-0.04495 0.0058-0.09086 0.0099-0.13746 0.01292-0.0466 3e-3 -0.09384 0.0047-0.14211 0.0047-0.38613 0-1.1788-4e-3 -2.081-0.0093-0.90214-0.0053-1.9655-0.01177-2.9972-0.01705-0.51586-0.0026-1.0238-0.0051-1.4996-0.0067-0.47579-0.0016-0.91945-0.0026-1.3069-0.0026-0.38742 6.6e-5 -0.71868 0.0012-0.96943 0.0036-0.12538 0.0012-0.23049 0.0028-0.31264 0.0047-0.01362 3.15e-4 -0.0228 7.16e-4 -0.03514 1e-3h-1.9001c-0.67245 0-1.2139 0.5414-1.2139 1.2139v2.9109c0 0.02102 5.056e-4 0.04178 0.00155 0.06253 0.00104 0.02075 0.00259 0.04156 0.00465 0.06201s0.00418 0.04084 0.00723 0.06098c0.00306 0.02013 0.00682 0.03964 0.010852 0.05943 0.00403 0.01979 0.00846 0.03949 0.013435 0.05891 0.00497 0.01942 0.010642 0.03885 0.016536 0.05788 0.00589 0.01903 0.012332 0.03772 0.01912 0.05633 0.00679 0.01861 0.014046 0.03713 0.021704 0.05529 0.00766 0.01816 0.015268 0.03605 0.023771 0.05374 0.0085 0.0177 0.017549 0.03499 0.026871 0.05219 0.00932 0.0172 0.019339 0.03447 0.029455 0.05116 0.010116 0.01668 0.020636 0.03295 0.031522 0.04909s0.021959 0.03197 0.033589 0.04754 0.023823 0.03101 0.036173 0.04599 0.024679 0.02957 0.037723 0.04392c0.013044 0.01436 0.026594 0.02814 0.040307 0.04186 0.013713 0.01371 0.028017 0.02726 0.042374 0.04031 0.014357 0.01304 0.028948 0.02589 0.043924 0.03824s0.029904 0.02403 0.045474 0.03566c1.092e-4 8.1e-5 4.074e-4 -8.2e-5 5.167e-4 0 0.015462 0.01155 0.031001 0.02329 0.047024 0.03411 1.159e-4 7.8e-5 4.008e-4 -7.8e-5 5.167e-4 0 0.01603 0.0108 0.032533 0.02149 0.049092 0.03152 0.016684 0.01012 0.03344 0.01962 0.050642 0.02894 0.017202 0.0093 0.034496 0.01837 0.052192 0.02687 1.376e-4 6.6e-5 3.792e-4 -6.6e-5 5.167e-4 0 0.017567 0.0084 0.035722 0.01669 0.053743 0.02429 0.018165 0.0077 0.036167 0.01491 0.054776 0.0217 1.508e-4 5.5e-5 3.662e-4 -5.5e-5 5.17e-4 0 0.018467 0.0067 0.037453 0.01328 0.056326 0.01912 0.019028 0.0059 0.037939 0.01104 0.05736 0.01602 1.611e-4 4.1e-5 3.556e-4 -4.2e-5 5.167e-4 0 0.019264 0.0049 0.038768 0.0094 0.058393 0.01343 0.01979 4e-3 0.039811 0.0078 0.059944 0.01085 0.020134 0.0031 0.040525 0.0057 0.060977 0.0078s0.040748 0.0036 0.061494 0.0047c1.72e-4 9e-6 3.45e-4 -9e-6 5.17e-4 0 0.020585 9.84e-4 0.041685 0.0015 0.062527 0.0015h12.125c0.02101 0 0.04178-5.56e-4 0.06253-0.0015 0.02074-1e-3 0.04104-0.0026 0.06149-0.0047s0.04084-0.0047 0.06098-0.0078c0.02013-0.0031 0.04015-0.0068 0.05994-0.01085 0.01979-4e-3 0.03949-0.0085 0.05891-0.01343 0.01942-5e-3 0.03885-0.01013 0.05788-0.01602 0.01903-0.0059 0.03772-0.01233 0.05633-0.01912 0.01861-0.0068 0.03713-0.01405 0.05529-0.0217 0.01816-0.0077 0.03605-0.01579 0.05374-0.02429 0.0177-0.0085 0.03499-0.01755 0.05219-0.02687 0.0172-0.0093 0.03396-0.01882 0.05064-0.02894s0.03347-0.02064 0.04961-0.03152c0.01614-0.01089 0.03197-0.02248 0.04754-0.03411s0.0305-0.02331 0.04547-0.03566c0.01498-0.01235 0.03008-0.0252 0.04444-0.03824s0.02814-0.02659 0.04186-0.04031c0.01371-0.01371 0.02726-0.0275 0.04031-0.04186 0.02609-0.02871 0.05063-0.05877 0.0739-0.08991 0.03489-0.04671 0.0666-0.09619 0.09457-0.14779 0.0093-0.0172 0.01837-0.0345 0.02687-0.05219 0.03401-0.07079 0.06123-0.14555 0.08113-0.22324 5e-3 -0.01942 0.0094-0.03912 0.01344-0.05891 4e-3 -0.01979 0.0078-0.03929 0.01085-0.05943 0.0092-0.0604 0.01395-0.12247 0.01395-0.18551v-1.5368c0-0.30699-1e-3 -0.60176-0.0026-0.88262-0.0012-0.22-0.0028-0.42376-0.0047-0.62579-5.5e-5 -5.1e-4 5.7e-5 -1e-3 0-0.0016-5.11e-4 -0.05537-9.91e-4 -0.11761-0.0015-0.17156-0.0026-0.25123 0.0098-0.48671 0.0098-0.70485 0-0.21813 0.0065-0.41899 0.0031-0.60047 0-0.36624 0.0015-0.64269 0.0015-0.83817-0.0051-0.19548-0.0088-0.30644-0.0088-0.30644z" fill="#ca0240" stroke-width=".26458"/>
 <path d="m7.8098 5.7691 0.52034-1.0902-0.47157-0.99288s-0.10512-0.29541-0.44678-0.29541h-2.5208s-0.46649 0.045698-0.38326 0.46623l2.339 4.9912s0.34603 0.65484 0.81473 0l2.0438-4.3596s0.080534-0.1781 0.16416-0.1781h1.1692s0.1177-0.00926 0.06504 0.10532c-0.05265 0.1146-1.3767 2.9571-1.3767 2.9571s-0.078981 0.20133-0.16726 0l-0.45684-1.0027-0.50331 1.0809 0.57085 1.2438s0.47963 1.0052 0.94827 0c0.46868-1.0052 2.2624-4.7985 2.2624-4.7985s0.24968-0.50591-0.32413-0.50591h-2.6954s-0.17035 0.00659-0.26946 0.21383c-0.099107 0.20752-1.7647 3.7972-1.7647 3.7972s-0.061953 0.12466-0.12777 0c-0.065816-0.12466-1.4036-2.9757-1.4036-2.9757s-0.066255-0.1221 0.1106-0.1221h1.1133s0.10066-0.018013 0.18428 0.16626c0.083624 0.18429 0.60551 1.2993 0.60551 1.2993z" fill="#fff" stroke-width=".82632"/>
 <path d="m15.261 10.017s-0.01 0.01808-0.03039 0.05008c-0.0102 0.016-0.02318 0.03549-0.0386 0.05778s-0.03332 0.04769-0.05404 0.07512c-0.02071 0.02743-0.04387 0.05717-0.06996 0.0886-0.02609 0.03144-0.05483 0.06433-0.08637 0.09862-0.03153 0.03429-0.06572 0.06993-0.10277 0.10594-0.01852 0.018-0.03798 0.0361-0.05789 0.05432s-0.04044 0.03642-0.06175 0.0547c-0.02132 0.01829-0.04337 0.03649-0.06611 0.05471-0.02273 0.01822-0.04628 0.03631-0.07044 0.05431-0.02415 0.018-0.0492 0.0359-0.07478 0.05355-0.02558 0.01764-0.05161 0.03524-0.07864 0.05239-0.02702 0.01715-0.05499 0.03396-0.08347 0.05046-0.02847 0.0165-0.05739 0.03282-0.08732 0.04854-0.02994 0.01571-0.06074 0.03067-0.09215 0.04546s-0.0636 0.02904-0.09649 0.04276-0.06645 0.02718-0.10084 0.03968c-0.03438 0.0125-0.06978 0.02429-0.10566 0.03544-0.03588 0.01114-0.07214 0.02156-0.10952 0.03121-0.03738 0.0096-0.07545 0.01857-0.11435 0.02659-0.03891 8e-3 -0.07874 0.01497-0.11917 0.02118-0.02241 0.0034-0.04517 0.0064-0.06803 0.0092h-0.0043c-0.01709 0.0021-0.03376 0.0048-0.05115 0.0065-0.04197 0.0044-0.08483 0.0074-0.12834 0.0096-0.04351 0.0023-0.08761 0.0035-0.13268 0.0035-0.36052 0-1.1006-3e-3 -1.9429-7e-3 -0.84229-0.0039-1.8351-0.0088-2.7983-0.01271-0.48163-0.0019-0.95591-0.0038-1.4001-5e-3 -0.44423-0.0012-0.85845-0.0019-1.2202-0.0019-0.36172 4.9e-5 -0.671 8.7e-4 -0.90512 0.0027-0.11706 8.7e-4 -0.2152 0.0021-0.2919 0.0035-0.012717 2.34e-4 -0.021287 5.34e-4 -0.032809 7.45e-4h-1.7741c-0.62784 0-1.1333 0.4036-1.1333 0.90489v2.0256c0 0.01567 4.721e-4 0.03115 0.00145 0.04661 9.758e-4 0.01547 0.00242 0.03098 0.00434 0.04622s0.0039 0.03045 0.00675 0.04546c0.00286 0.01501 0.00637 0.02955 0.010132 0.0443 0.00376 0.01476 0.0079 0.02944 0.012544 0.04392 0.00464 0.01448 0.00994 0.02896 0.015439 0.04315 0.0055 0.01419 0.011514 0.02812 0.017851 0.042 0.00634 0.01388 0.013114 0.02768 0.020264 0.04122s0.014255 0.02687 0.022194 0.04006c0.00793 0.0132 0.016385 0.02608 0.025089 0.03891 0.00871 0.01282 0.018056 0.0257 0.027501 0.03814 0.00945 0.01243 0.019267 0.02456 0.029431 0.03659s0.020502 0.02383 0.03136 0.03544c0.010859 0.01161 0.022243 0.02312 0.033773 0.03429s0.023042 0.02205 0.03522 0.03274c0.012179 0.01071 0.02483 0.02097 0.037633 0.03121 0.012803 0.01022 0.026158 0.02032 0.039563 0.03005 0.013405 0.0097 0.027027 0.0193 0.04101 0.02851 0.013983 0.0092 0.02792 0.01791 0.042457 0.02659 1.019e-4 6.1e-5 3.803e-4 -6e-5 4.824e-4 0 0.014436 0.0086 0.028944 0.01736 0.043904 0.02543 1.082e-4 5.8e-5 3.743e-4 -5.9e-5 4.825e-4 0 0.014966 0.0081 0.030375 0.01602 0.045835 0.0235 0.015577 0.0076 0.031221 0.01462 0.047282 0.02158 0.016061 7e-3 0.032208 0.01369 0.048729 0.02003 1.285e-4 4.9e-5 3.54e-4 -4.9e-5 4.824e-4 0 0.016402 0.0063 0.033353 0.01244 0.050178 0.0181 0.01696 0.0057 0.033767 0.01111 0.051142 0.01617 1.407e-4 4.1e-5 3.419e-4 -4.1e-5 4.827e-4 0 0.017241 5e-3 0.034968 0.0099 0.052589 0.01425 0.017765 0.0044 0.035422 0.0083 0.053555 0.01195 1.504e-4 3e-5 3.32e-4 -3.1e-5 4.824e-4 0 0.017986 0.0037 0.036196 7e-3 0.054519 0.01001 0.018477 3e-3 0.03717 0.0058 0.055967 0.0081 0.018798 0.0023 0.037837 0.0043 0.056931 0.0058 0.019096 0.0016 0.038044 0.0027 0.057414 0.0035 1.606e-4 6e-6 3.221e-4 -7e-6 4.827e-4 0 0.019219 7.34e-4 0.03892 0.0011 0.058379 0.0011h11.32c0.01961 0 0.039-4.15e-4 0.05839-0.0011 0.01936-7.45e-4 0.03832-0.0019 0.05741-0.0035s0.03813-0.0035 0.05694-0.0058c0.01879-0.0023 0.03749-5e-3 0.05596-0.0081 0.01847-3e-3 0.03687-0.0064 0.055-0.01001 0.01814-0.0037 0.03627-0.0076 0.05404-0.01195 0.01777-0.0044 0.03522-0.0092 0.05259-0.01425 0.01737-5e-3 0.03467-0.01047 0.05162-0.01617 0.01696-0.0057 0.03366-0.01177 0.05017-0.0181 0.01652-0.0064 0.03267-0.01309 0.04872-0.02003 0.01606-7e-3 0.03171-0.01403 0.04729-0.02158 0.01558-0.0076 0.03125-0.01539 0.04632-0.0235 0.01507-0.0081 0.02984-0.01676 0.04439-0.02543 0.01454-0.0087 0.02847-0.01737 0.04245-0.02659 0.01399-0.0092 0.02809-0.01878 0.04149-0.02851 0.01341-0.0097 0.02627-0.01982 0.03908-0.03005 0.0128-0.01022 0.02545-0.0205 0.03763-0.03121 0.02436-0.0214 0.04727-0.04381 0.06899-0.06702 0.03257-0.03482 0.06218-0.07171 0.0883-0.11017 0.0087-0.01282 0.01715-0.02572 0.02509-0.03891 0.03176-0.05277 0.05717-0.1085 0.07575-0.16642 0.0046-0.01448 0.0088-0.02916 0.01255-0.04392 0.0038-0.01476 0.0072-0.02929 0.01014-0.0443 0.0086-0.04502 0.01302-0.0913 0.01302-0.1383v-1.1457c0-0.22885-9.34e-4 -0.30418-0.0024-0.51355-0.0012-0.16401-0.0026-0.3159-0.0043-0.46651-5e-5 -3.8e-4 5.4e-5 -7.45e-4 0-0.0012-4.76e-4 -0.04127-9.23e-4 -0.08768-0.0014-0.12789-0.0024-0.18729 0.0092-0.36283 0.0092-0.52545 0-0.16261 0.0061-0.31234 0.0029-0.44763 0-0.27302 0.0014-0.47911 0.0014-0.62483-0.0047-0.14572-0.0082-0.22844-0.0082-0.22844z" fill="#fff" stroke-width=".22073"/>
 <g transform="translate(-52.981 .94238)">
  <path d="m56.132 11.364v2.0683l1.0398-0.43347 1.005 0.39575v-2.0424z" fill="#00aff0"/>
  <rect x="56.428" y="11.7" width=".27131" height=".72218" ry=".13229" fill="#fff" fill-rule="evenodd" style="paint-order:stroke markers fill"/>
 </g>
</svg>
