<?xml version="1.0" encoding="UTF-8"?>
<!-- Created with Inkscape (http://www.inkscape.org/) -->
<svg width="64" height="64" version="1.1" viewBox="0 0 16.933 16.933" xmlns="http://www.w3.org/2000/svg" xmlns:cc="http://creativecommons.org/ns#" xmlns:dc="http://purl.org/dc/elements/1.1/" xmlns:rdf="http://www.w3.org/1999/02/22-rdf-syntax-ns#" xmlns:xlink="http://www.w3.org/1999/xlink">
 <defs>
  <linearGradient id="linearGradient39550" x1="-54.623" x2="-54.623" y1="4.5919" y2="59.509" gradientTransform="matrix(.26458 0 0 .26458 22.658 2.6e-5)" gradientUnits="userSpaceOnUse">
   <stop stop-color="#ff539b" offset="0"/>
   <stop stop-color="#fe4784" offset="1"/>
  </linearGradient>
 </defs>
 <metadata>
  <rdf:RDF>
   <cc:Work rdf:about="">
    <dc:format>image/svg+xml</dc:format>
    <dc:type rdf:resource="http://purl.org/dc/dcmitype/StillImage"/>
   </cc:Work>
  </rdf:RDF>
 </metadata>
 <g fill="#5e4aa6" stroke-width=".26458">
  <circle cx="-330.35" cy="-328.38" r="0"/>
  <circle cx="-312.11" cy="-326.25" r="0"/>
  <circle cx="-306.02" cy="-333.07" r="0"/>
  <circle cx="-308.84" cy="-326.01" r="0"/>
 </g>
 <path d="m2.4015 1.1906c-0.67245 0-1.2139 0.54141-1.2139 1.2139v12.124c0 0.67245 0.54141 1.2139 1.2139 1.2139h12.125c0.67245 0 1.2139-0.54141 1.2139-1.2139v-12.124c0-0.67245-0.54141-1.2139-1.2139-1.2139z" fill="url(#linearGradient39550)" stroke-linecap="round" stroke-width=".52916"/>
 <path d="m15.737 8.8601s-0.01069 0.02425-0.03255 0.06718c-0.01093 0.02147-0.02482 0.04761-0.04134 0.07751s-0.03569 0.06397-0.05788 0.10077c-0.02219 0.0368-0.04699 0.07669-0.07493 0.11885-0.02794 0.04217-0.05873 0.08629-0.0925 0.13229-0.03377 0.046-0.07039 0.09381-0.11007 0.14211-0.01984 0.02415-0.04068 0.04843-0.06201 0.07286-0.02133 0.02444-0.04331 0.04885-0.06614 0.07338-0.02284 0.02453-0.04645 0.04894-0.0708 0.07338s-0.04957 0.04871-0.07545 0.07286c-0.02587 0.02415-0.05269 0.04816-0.0801 0.07183-0.0274 0.02367-0.05528 0.04728-0.08423 0.07028s-0.05889 0.04556-0.0894 0.06769c-0.0305 0.02214-0.06147 0.04403-0.09353 0.06511-0.03207 0.02108-0.06506 0.04114-0.0987 0.06098s-0.06812 0.03896-0.10335 0.05736c-0.03523 0.0184-0.07118 0.03646-0.108 0.05323-0.03682 0.01677-0.07474 0.03259-0.11317 0.04754-0.03843 0.01495-0.07726 0.02892-0.1173 0.04186-0.04004 0.01294-0.08081 0.02492-0.12247 0.03566-0.04167 0.01073-0.08434 0.02008-0.12764 0.02842-0.024 0.0046-0.04838 0.0086-0.07286 0.0124h-0.0046c-0.01831 0.0028-0.03616 0.0064-0.05478 0.0088-0.04495 0.0058-0.09086 0.0099-0.13746 0.01292-0.0466 3e-3 -0.09384 0.0047-0.14211 0.0047-0.38613 0-1.1788-4e-3 -2.081-0.0093-0.90214-0.0053-1.9655-0.01177-2.9972-0.01705-0.51586-0.0026-1.0238-0.0051-1.4996-0.0067-0.47579-0.0016-0.91945-0.0026-1.3069-0.0026-0.38742 6.6e-5 -0.71868 0.0012-0.96943 0.0036-0.12538 0.0012-0.23049 0.0028-0.31264 0.0047-0.01362 3.15e-4 -0.0228 7.16e-4 -0.03514 1e-3h-1.9001c-0.67245 0-1.2139 0.5414-1.2139 1.2139v2.9109c0 0.02102 5.06e-4 0.04178 0.0015 0.06253 1e-3 0.02075 0.0026 0.04156 0.0047 0.06201s0.0042 0.04084 0.0072 0.06098c0.0031 0.02013 0.0068 0.03964 0.01085 0.05943 4e-3 0.01979 0.0085 0.03949 0.01344 0.05891 5e-3 0.01942 0.01064 0.03885 0.01654 0.05788s0.01233 0.03772 0.01912 0.05633c0.0068 0.01861 0.01405 0.03713 0.0217 0.05529 0.0077 0.01816 0.01527 0.03605 0.02377 0.05374 0.0085 0.0177 0.01755 0.03499 0.02687 0.05219 0.0093 0.0172 0.01934 0.03447 0.02945 0.05116 0.01012 0.01668 0.02064 0.03295 0.03152 0.04909 0.01089 0.01614 0.02196 0.03197 0.03359 0.04754s0.02382 0.03101 0.03617 0.04599 0.02468 0.02957 0.03772 0.04392c0.01304 0.01436 0.02659 0.02814 0.04031 0.04186 0.01371 0.01371 0.02802 0.02726 0.04237 0.04031 0.01436 0.01304 0.02895 0.02589 0.04392 0.03824 0.01498 0.01235 0.0299 0.02403 0.04547 0.03566 1.09e-4 8.1e-5 4.07e-4 -8.2e-5 5.17e-4 0 0.01546 0.01155 0.031 0.02329 0.04702 0.03411 1.16e-4 7.8e-5 4.01e-4 -7.8e-5 5.16e-4 0 0.01603 0.0108 0.03253 0.02149 0.04909 0.03152 0.01668 0.01012 0.03344 0.01962 0.05064 0.02894 0.0172 0.0093 0.0345 0.01837 0.05219 0.02687 1.38e-4 6.6e-5 3.8e-4 -6.6e-5 5.17e-4 0 0.01757 0.0084 0.03572 0.01669 0.05374 0.02429 0.01816 0.0077 0.03617 0.01491 0.05478 0.0217 1.51e-4 5.5e-5 3.66e-4 -5.5e-5 5.17e-4 0 0.01847 0.0067 0.03745 0.01328 0.05633 0.01912 0.01903 0.0059 0.03794 0.01104 0.05736 0.01602 1.61e-4 4.1e-5 3.56e-4 -4.2e-5 5.17e-4 0 0.01926 0.0049 0.03877 0.0094 0.05839 0.01343 0.01979 4e-3 0.03981 0.0078 0.05994 0.01085 0.02013 0.0031 0.04052 0.0057 0.06098 0.0078 0.02045 0.0021 0.04075 0.0036 0.06149 0.0047 1.72e-4 9e-6 3.45e-4 -9e-6 5.17e-4 0 0.02059 9.84e-4 0.04169 0.0015 0.06253 0.0015h12.125c0.02101 0 0.04178-5.56e-4 0.06253-0.0015 0.02074-1e-3 0.04104-0.0026 0.06149-0.0047s0.04084-0.0047 0.06098-0.0078c0.02013-0.0031 0.04015-0.0068 0.05994-0.01085 0.01979-4e-3 0.03949-0.0085 0.05891-0.01343 0.01942-5e-3 0.03885-0.01013 0.05788-0.01602 0.01903-0.0059 0.03772-0.01233 0.05633-0.01912 0.01861-0.0068 0.03713-0.01405 0.05529-0.0217 0.01816-0.0077 0.03605-0.01579 0.05374-0.02429 0.0177-0.0085 0.03499-0.01755 0.05219-0.02687 0.0172-0.0093 0.03396-0.01882 0.05064-0.02894s0.03347-0.02064 0.04961-0.03152c0.01614-0.01089 0.03197-0.02248 0.04754-0.03411s0.0305-0.02331 0.04547-0.03566c0.01498-0.01235 0.03008-0.0252 0.04444-0.03824s0.02814-0.02659 0.04186-0.04031c0.01371-0.01371 0.02726-0.0275 0.04031-0.04186 0.02609-0.02871 0.05063-0.05877 0.0739-0.08991 0.03489-0.04671 0.0666-0.09619 0.09457-0.14779 0.0093-0.0172 0.01837-0.0345 0.02687-0.05219 0.03401-0.07079 0.06123-0.14555 0.08113-0.22324 5e-3 -0.01942 0.0094-0.03912 0.01344-0.05891 4e-3 -0.01979 0.0078-0.03929 0.01085-0.05943 0.0092-0.0604 0.01395-0.12247 0.01395-0.18551v-1.5368c0-0.30699-1e-3 -0.60176-0.0026-0.88262-0.0012-0.22-0.0028-0.42376-0.0047-0.62579-5.5e-5 -5.1e-4 5.7e-5 -1e-3 0-0.0016-5.11e-4 -0.05537-9.91e-4 -0.11761-0.0015-0.17156-0.0026-0.25123 0.0098-0.48671 0.0098-0.70485 0-0.21813 0.0065-0.41899 0.0031-0.60047 0-0.36624 0.0015-0.64269 0.0015-0.83817-0.0051-0.19548-0.0088-0.30644-0.0088-0.30644z" fill="#fb2766" stroke-width=".26458"/>
 <path d="m15.262 10.017s-0.01 0.01808-0.03039 0.05008c-0.0102 0.016-0.02318 0.03549-0.0386 0.05778s-0.03332 0.04769-0.05404 0.07512c-0.02071 0.02743-0.04387 0.05717-0.06996 0.0886-0.02609 0.03144-0.05483 0.06433-0.08637 0.09862-0.03153 0.03429-0.06572 0.06993-0.10277 0.10594-0.01852 0.018-0.03798 0.0361-0.05789 0.05432s-0.04044 0.03642-0.06175 0.0547c-0.02132 0.01829-0.04337 0.03649-0.06611 0.05471-0.02273 0.01822-0.04628 0.03631-0.07044 0.05431-0.02415 0.018-0.0492 0.0359-0.07478 0.05355-0.02558 0.01764-0.05161 0.03524-0.07864 0.05239-0.02702 0.01715-0.05499 0.03396-0.08347 0.05046-0.02847 0.0165-0.05739 0.03282-0.08732 0.04854-0.02994 0.01571-0.06074 0.03067-0.09215 0.04546s-0.0636 0.02904-0.09649 0.04276-0.06645 0.02718-0.10084 0.03968c-0.03438 0.0125-0.06978 0.02429-0.10566 0.03544-0.03588 0.01114-0.07214 0.02156-0.10952 0.03121-0.03738 0.0096-0.07545 0.01857-0.11435 0.02659-0.03891 8e-3 -0.07874 0.01497-0.11917 0.02118-0.02241 0.0034-0.04517 0.0064-0.06803 0.0092h-0.0043c-0.01709 0.0021-0.03376 0.0048-0.05115 0.0065-0.04197 0.0044-0.08483 0.0074-0.12834 0.0096-0.04351 0.0023-0.08761 0.0035-0.13268 0.0035-0.36052 0-1.1006-3e-3 -1.9429-7e-3 -0.84229-0.0039-1.8351-0.0088-2.7983-0.01271-0.48163-0.0019-0.95591-0.0038-1.4001-5e-3 -0.44423-0.0012-0.85845-0.0019-1.2202-0.0019-0.36172 4.9e-5 -0.671 8.7e-4 -0.90512 0.0027-0.11706 8.7e-4 -0.2152 0.0021-0.2919 0.0035-0.01272 2.34e-4 -0.02129 5.34e-4 -0.03281 7.45e-4h-1.7741c-0.62784 0-1.1333 0.4036-1.1333 0.90489v2.0256c0 0.01567 4.73e-4 0.03115 0.0014 0.04661 9.76e-4 0.01547 0.0024 0.03098 0.0043 0.04622s0.0039 0.03045 0.0068 0.04546 0.0064 0.02955 0.01013 0.0443c0.0038 0.01476 0.0079 0.02944 0.01254 0.04392 0.0046 0.01448 0.0099 0.02896 0.01544 0.04315 0.0055 0.01419 0.01151 0.02812 0.01785 0.042 0.0063 0.01388 0.01311 0.02768 0.02026 0.04122 0.0071 0.01354 0.01425 0.02687 0.02219 0.04006 0.0079 0.0132 0.01638 0.02608 0.02509 0.03891 0.0087 0.01282 0.01806 0.0257 0.0275 0.03814 0.0095 0.01243 0.01927 0.02456 0.02943 0.03659s0.0205 0.02383 0.03136 0.03544 0.02224 0.02312 0.03377 0.03429 0.02304 0.02205 0.03522 0.03274c0.01218 0.01071 0.02483 0.02097 0.03763 0.03121 0.0128 0.01022 0.02616 0.02032 0.03956 0.03005 0.0134 0.0097 0.02703 0.0193 0.04101 0.02851 0.01398 0.0092 0.02792 0.01791 0.04246 0.02659 1.02e-4 6.1e-5 3.81e-4 -6e-5 4.83e-4 0 0.01444 0.0086 0.02894 0.01736 0.0439 0.02543 1.08e-4 5.8e-5 3.74e-4 -5.9e-5 4.82e-4 0 0.01497 0.0081 0.03037 0.01602 0.04584 0.0235 0.01558 0.0076 0.03122 0.01462 0.04728 0.02158 0.01606 7e-3 0.03221 0.01369 0.04873 0.02003 1.29e-4 4.9e-5 3.54e-4 -4.9e-5 4.83e-4 0 0.0164 0.0063 0.03335 0.01244 0.05018 0.0181 0.01696 0.0057 0.03377 0.01111 0.05114 0.01617 1.4e-4 4.1e-5 3.42e-4 -4.1e-5 4.82e-4 0 0.01724 5e-3 0.03497 0.0099 0.05259 0.01425 0.01776 0.0044 0.03542 0.0083 0.05355 0.01195 1.51e-4 3e-5 3.32e-4 -3.1e-5 4.83e-4 0 0.01799 0.0037 0.0362 7e-3 0.05452 0.01001 0.01848 3e-3 0.03717 0.0058 0.05597 0.0081s0.03784 0.0043 0.05693 0.0058c0.0191 0.0016 0.03804 0.0027 0.05741 0.0035 1.6e-4 6e-6 3.22e-4 -7e-6 4.82e-4 0 0.01922 7.34e-4 0.03892 0.0011 0.05838 0.0011h11.32c0.01961 0 0.039-4.15e-4 0.05839-0.0011 0.01936-7.45e-4 0.03832-0.0019 0.05741-0.0035s0.03813-0.0035 0.05694-0.0058c0.01879-0.0023 0.03749-5e-3 0.05596-0.0081 0.01847-3e-3 0.03687-0.0064 0.055-0.01001 0.01814-0.0037 0.03627-0.0076 0.05404-0.01195 0.01777-0.0044 0.03522-0.0092 0.05259-0.01425 0.01737-5e-3 0.03467-0.01047 0.05162-0.01617 0.01696-0.0057 0.03366-0.01177 0.05017-0.0181 0.01652-0.0064 0.03267-0.01309 0.04872-0.02003 0.01606-7e-3 0.03171-0.01403 0.04729-0.02158 0.01558-0.0076 0.03125-0.01539 0.04632-0.0235 0.01507-0.0081 0.02984-0.01676 0.04439-0.02543 0.01454-0.0087 0.02847-0.01737 0.04245-0.02659 0.01399-0.0092 0.02809-0.01878 0.04149-0.02851 0.01341-0.0097 0.02627-0.01982 0.03908-0.03005 0.0128-0.01022 0.02545-0.0205 0.03763-0.03121 0.02436-0.0214 0.04727-0.04381 0.06899-0.06702 0.03257-0.03482 0.06218-0.07171 0.0883-0.11017 0.0087-0.01282 0.01715-0.02572 0.02509-0.03891 0.03176-0.05277 0.05717-0.1085 0.07575-0.16642 0.0046-0.01448 0.0088-0.02916 0.01255-0.04392 0.0038-0.01476 0.0072-0.02929 0.01014-0.0443 0.0086-0.04502 0.01302-0.0913 0.01302-0.1383v-1.1457c0-0.22885-9.34e-4 -0.30418-0.0024-0.51355-0.0012-0.16401-0.0026-0.3159-0.0043-0.46651-5e-5 -3.8e-4 5.4e-5 -7.45e-4 0-0.0012-4.76e-4 -0.04127-9.23e-4 -0.08768-0.0014-0.12789-0.0024-0.18729 0.0092-0.36283 0.0092-0.52545 0-0.16261 0.0061-0.31234 0.0029-0.44763 0-0.27302 0.0014-0.47911 0.0014-0.62483-0.0047-0.14572-0.0082-0.22844-0.0082-0.22844z" fill="#fff" stroke-width=".22073"/>
 <g transform="translate(-52.98 .94238)">
  <path d="m56.132 11.364v2.0683l1.0398-0.43347 1.005 0.39575v-2.0424z" fill="#00aff0"/>
  <rect x="56.428" y="11.7" width=".27131" height=".72218" ry=".13229" fill="#fff" fill-rule="evenodd" style="paint-order:stroke markers fill"/>
 </g>
 <path d="m5.1802 3.8011v4.9293l3.2863-2.8752 3.2863 2.8752v-4.9293" fill="none" stroke="#f9f9f9" stroke-linecap="round" stroke-linejoin="round" stroke-width=".82185"/>
</svg>
