<?xml version="1.0" encoding="UTF-8"?>
<svg width="64" height="64" version="1.1" viewBox="0 0 16.933 16.933" xmlns="http://www.w3.org/2000/svg" xmlns:cc="http://creativecommons.org/ns#" xmlns:dc="http://purl.org/dc/elements/1.1/" xmlns:rdf="http://www.w3.org/1999/02/22-rdf-syntax-ns#" xmlns:xlink="http://www.w3.org/1999/xlink">
 <defs>
  <linearGradient id="linearGradient1005" x1="2.9667" x2="16.101" y1="14.069" y2=".93425" gradientTransform="matrix(.99997 0 0 .99997 -28.522 10.842)" gradientUnits="userSpaceOnUse">
   <stop stop-color="#ff7d50" offset="0"/>
   <stop stop-color="#fa4b5a" offset=".51596"/>
   <stop stop-color="#ff509b" offset="1"/>
  </linearGradient>
 </defs>
 <metadata>
  <rdf:RDF>
   <cc:Work rdf:about="">
    <dc:format>image/svg+xml</dc:format>
    <dc:type rdf:resource="http://purl.org/dc/dcmitype/StillImage"/>
   </cc:Work>
  </rdf:RDF>
 </metadata>
 <g transform="translate(28.487 -10.835)">
  <path d="m-12.083 19.301c0 0.95152-0.16749 1.8638-0.47463 2.7094-0.2135 0.58767-0.49437 1.1433-0.8339 1.6572-0.14222 0.21607-0.29513 0.42474-0.45745 0.62527-0.51964 0.64178-1.1372 1.2006-1.8304 1.6542-0.25529 0.16717-0.52063 0.32009-0.79534 0.45711-1.0668 0.53388-2.271 0.83419-3.5455 0.83419-1.2745 0-2.4787-0.30031-3.5455-0.83421-0.27473-0.13705-0.54039-0.28996-0.79568-0.45711-0.70205-0.45972-1.327-1.0274-1.8508-1.6798-0.16262-0.20216-0.31523-0.41274-0.45745-0.63076-0.33046-0.50538-0.6042-1.0507-0.81347-1.627-0.3071-0.84526-0.47429-1.7572-0.47429-2.7084 0-4.3837 3.5536-7.9373 7.9373-7.9373 2.2005 0 4.1916 0.89545 5.6294 2.3416 0.41435 0.4166 0.78272 0.87926 1.0962 1.3794 0.29644 0.47106 0.54426 0.97579 0.73702 1.5068 0.30718 0.84557 0.47465 1.7579 0.47465 2.7094z" fill="url(#linearGradient1005)" stroke-width=".031006"/>
  <path d="m-20.888 18.646 0.68695-1.4393-0.62256-1.3108s-0.13878-0.39-0.58983-0.39h-3.3279s-0.61586 0.06033-0.50598 0.61552l3.0879 6.5894s0.45683 0.86451 1.0756 0l2.6982-5.7555s0.10632-0.23512 0.21672-0.23512h1.5436s0.15538-0.01222 0.08587 0.13904c-0.06951 0.1513-1.8175 3.9039-1.8175 3.9039s-0.10427 0.26579-0.22081 0l-0.60312-1.3238-0.66446 1.427 0.75363 1.642s0.6332 1.3271 1.2519 0c0.61875-1.3271 2.9868-6.335 2.9868-6.335s0.32962-0.6679-0.42792-0.6679h-3.5585s-0.2249 0.0087-0.35574 0.2823c-0.13084 0.27397-2.3297 5.0131-2.3297 5.0131s-0.08179 0.16458-0.16868 0c-0.08689-0.16458-1.853-3.9285-1.853-3.9285s-0.08747-0.16119 0.14601-0.16119h1.4698s0.13289-0.02378 0.24329 0.21949c0.1104 0.2433 0.79939 1.7153 0.79939 1.7153z" fill="#fff" stroke-width="1.0909"/>
 </g>
</svg>
