<?xml version="1.0" encoding="UTF-8"?>
<svg width="64" height="64" version="1.1" viewBox="0 0 16.933 16.933" xmlns="http://www.w3.org/2000/svg" xmlns:cc="http://creativecommons.org/ns#" xmlns:dc="http://purl.org/dc/elements/1.1/" xmlns:rdf="http://www.w3.org/1999/02/22-rdf-syntax-ns#" xmlns:xlink="http://www.w3.org/1999/xlink">
 <defs>
  <linearGradient id="linearGradient1159-3" x1="-184.75" x2="-170.2" y1="-1.2655" y2="-15.817" gradientTransform="translate(179.64 16.574)" gradientUnits="userSpaceOnUse">
   <stop stop-color="#6d7982" offset="0"/>
   <stop stop-color="#859094" offset="1"/>
  </linearGradient>
  <linearGradient id="linearGradient7064" x1="-177.35" x2="-177.35" y1="-1.1773" y2="-15.837" gradientTransform="matrix(.88521 0 0 .77552 159.27 13.854)" gradientUnits="userSpaceOnUse">
   <stop stop-color="#233937" offset="0"/>
   <stop stop-color="#232b2d" offset=".48448"/>
   <stop stop-color="#384140" offset="1"/>
  </linearGradient>
  <linearGradient id="linearGradient7076" x1="-177.35" x2="-177.35" y1="-1.1773" y2="-15.837" gradientTransform="matrix(.86877 0 0 .050009 156.35 14.593)" gradientUnits="userSpaceOnUse">
   <stop stop-color="#3b454b" offset="0"/>
   <stop stop-color="#2c353a" offset="1"/>
  </linearGradient>
 </defs>
 <metadata>
  <rdf:RDF>
   <cc:Work rdf:about="">
    <dc:format>image/svg+xml</dc:format>
    <dc:type rdf:resource="http://purl.org/dc/dcmitype/StillImage"/>
   </cc:Work>
  </rdf:RDF>
 </metadata>
 <g transform="translate(6.3086 .43426)">
  <rect x="-5.1181" y=".75624" width="14.552" height="14.552" ry="1.2138" fill="url(#linearGradient1159-3)"/>
  <rect x="-4.2829" y="1.5872" width="12.882" height="11.285" ry=".70721" fill="url(#linearGradient7064)" stroke="#232b2d" stroke-width=".52229"/>
  <rect x="-4.1633" y="13.802" width="12.642" height=".72773" ry=".36386" fill="url(#linearGradient7076)"/>
  <path d="m1.2319 4.2093-1.3229 3.1749h-2.9104v0.52916h3.3072l0.92602-2.2489 2.1166 5.4239 1.3229-3.1749h2.9104v-0.52916h-3.3072l-0.92602 2.2489z" opacity=".1" stroke-width=".26458"/>
  <path d="m0.96731 3.9447-1.3229 3.1749h-2.9104v0.52916h3.3072l0.92602-2.2489 2.1166 5.4239 1.3229-3.1749h2.9104v-0.52916h-3.3072l-0.92602 2.2489z" fill="#fffffe" stroke-width=".26458"/>
 </g>
</svg>
