<?xml version="1.0" encoding="UTF-8"?>
<!-- Created with Inkscape (http://www.inkscape.org/) -->
<svg width="64" height="64" version="1.1" viewBox="0 0 16.933 16.933" xmlns="http://www.w3.org/2000/svg">
 <defs>
  <linearGradient id="a-3" x1="99.036" x2="99.036" y1="11.64" y2="199.84" gradientTransform="matrix(.079377 0 0 .079377 -3.558 .97428)" gradientUnits="userSpaceOnUse">
   <stop stop-color="#ff4b00" offset="0"/>
   <stop stop-color="#f50f2d" offset="1"/>
  </linearGradient>
 </defs>
 <g transform="translate(4.087 -.44537)">
  <circle cx="4.3796" cy="8.912" r="7.9377" color="#000000" fill="url(#a-3)" fill-opacity=".85484" stroke-width=".26459"/>
  <path d="m2.3713 6.0624c-0.021019 0-0.045958 0.00285-0.073746 0.00427-0.10723 0.00712-2.1294 0.36873-2.2587 0.40507-0.13645 0.038832-0.25188 0.11828-0.27966 0.19345-0.048808 0.12932 0.091916 0.54686 0.27539 0.82795 0.31885 0.48416 0.78199 0.79197 1.7564 1.1675 0.53581 0.20592 0.64697 0.259 0.71608 0.33667 0.09619 0.10438 0.016744 0.15319-0.69043 0.45352-1.1037 0.46884-1.6017 0.86714-1.8119 1.4557-0.064127 0.17386-0.091915 0.6345-0.048807 0.74993 0.057001 0.15034 0.091915 0.14892 1.1593-0.04596 1.0723-0.19488 1.1215-0.20592 1.212-0.28822 0.072321-0.06805 0.076596-0.08194 0.10866-0.39509 0.016744-0.17813 0.057002-0.40222 0.083365-0.49413 0.064127-0.21554 0.22551-0.43962 0.40222-0.55933 0.66941-0.45102 1.9274-0.22551 2.6092 0.46634 0.25615 0.259 0.41754 0.53724 0.54686 0.94088 0.073746 0.23371 0.15034 0.33524 0.26577 0.35626 0.10723 0.02102 0.11008 0.02102 1.4753-0.22836 0.75848-0.13787 1.0723-0.20449 1.119-0.23941 0.09619-0.0709 0.09619-0.24511 0.00143-0.53439-0.16424-0.49805-0.44818-0.85858-0.97544-1.2412-0.2615-0.18917-0.58997-0.3673-1.1482-0.62346-0.53011-0.24368-0.63877-0.30888-0.63877-0.38405 0-0.061277 0.065552-0.089065 0.48558-0.21019 0.92129-0.26434 1.2804-0.6345 1.2804-1.3207 0-0.30068-0.058427-0.54401-0.15177-0.62203-0.12255-0.10581-0.2533-0.10866-0.7681-0.019595-1.6506 0.28536-1.6046 0.27539-1.6798 0.39367-0.040258 0.064127-0.038832 0.078021 0.034913 0.36339 0.043108 0.16424 0.076596 0.33809 0.076596 0.38547 0 0.10153-0.070896 0.27004-0.13787 0.33132-0.16424 0.14749-0.53724 0.2476-0.91986 0.2476-0.46207 0-0.80871-0.15177-1.155-0.50375-0.24903-0.25615-0.37728-0.47026-0.54686-0.92271-0.14892-0.39794-0.171-0.4496-0.3242-0.44817" fill="#fff" fill-opacity=".84677"/>
 </g>
</svg>
