<?xml version="1.0" encoding="UTF-8" standalone="no"?>
<svg
   xmlns:dc="http://purl.org/dc/elements/1.1/"
   xmlns:cc="http://creativecommons.org/ns#"
   xmlns:rdf="http://www.w3.org/1999/02/22-rdf-syntax-ns#"
   xmlns:svg="http://www.w3.org/2000/svg"
   xmlns="http://www.w3.org/2000/svg"
   xmlns:xlink="http://www.w3.org/1999/xlink"
   xmlns:sodipodi="http://sodipodi.sourceforge.net/DTD/sodipodi-0.dtd"
   xmlns:inkscape="http://www.inkscape.org/namespaces/inkscape"
   width="64"
   height="64"
   version="1.1"
   id="svg28"
   sodipodi:docname="xnretro.svg"
   inkscape:version="1.0.2 (e86c870879, 2021-01-15)">
  <metadata
     id="metadata34">
    <rdf:RDF>
      <cc:Work
         rdf:about="">
        <dc:format>image/svg+xml</dc:format>
        <dc:type
           rdf:resource="http://purl.org/dc/dcmitype/StillImage" />
        <dc:title></dc:title>
      </cc:Work>
    </rdf:RDF>
  </metadata>
  <defs
     id="defs32">
    <linearGradient
       inkscape:collect="always"
       id="linearGradient1216">
      <stop
         style="stop-color:#323232;stop-opacity:1;"
         offset="0"
         id="stop1212" />
      <stop
         style="stop-color:#505050;stop-opacity:1"
         offset="1"
         id="stop1214" />
    </linearGradient>
    <linearGradient
       id="linearGradient956">
      <stop
         stop-color="#7814aa"
         offset="0"
         id="stop859" />
      <stop
         stop-color="#be2382"
         offset="1"
         id="stop861" />
    </linearGradient>
    <linearGradient
       id="linearGradient1159"
       x1="-184.75"
       x2="-170.2"
       y1="-1.2655"
       y2="-15.817"
       gradientTransform="matrix(3.779602,0,0,3.779602,702.81662,64.286873)"
       gradientUnits="userSpaceOnUse">
      <stop
         stop-color="#dc3282"
         offset="0"
         id="stop864"
         style="stop-color:#4f4f4f;stop-opacity:1" />
      <stop
         stop-color="#f05a50"
         offset="1"
         id="stop866"
         style="stop-color:#323232;stop-opacity:1" />
    </linearGradient>
    <linearGradient
       id="linearGradient958"
       x1="-272.21"
       x2="-275.5"
       y1="44.527"
       y2="50.385"
       gradientTransform="translate(-6.2404)"
       gradientUnits="userSpaceOnUse"
       xlink:href="#linearGradient956" />
    <linearGradient
       id="linearGradient966"
       x1="-272.86"
       x2="-267.62"
       y1="54.907"
       y2="49.026"
       gradientTransform="translate(-6.2404)"
       gradientUnits="userSpaceOnUse">
      <stop
         stop-color="#be1e6e"
         offset="0"
         id="stop870" />
      <stop
         stop-color="#7814aa"
         offset="1"
         id="stop872" />
    </linearGradient>
    <linearGradient
       id="linearGradient974"
       x1="-277.66"
       x2="-270.88"
       y1="59.727"
       y2="58.222"
       gradientTransform="translate(-6.2404)"
       gradientUnits="userSpaceOnUse">
      <stop
         stop-color="#d23c46"
         offset="0"
         id="stop875" />
      <stop
         stop-color="#b42382"
         offset="1"
         id="stop877" />
    </linearGradient>
    <linearGradient
       id="linearGradient982"
       x1="-282.61"
       x2="-278.76"
       y1="54.154"
       y2="62.018"
       gradientTransform="translate(-6.2404)"
       gradientUnits="userSpaceOnUse">
      <stop
         stop-color="#dc3c46"
         offset="0"
         id="stop880" />
      <stop
         stop-color="#e15a46"
         offset="1"
         id="stop882" />
    </linearGradient>
    <linearGradient
       id="linearGradient990"
       x1="-286.34"
       x2="-282.53"
       y1="57.278"
       y2="49.414"
       gradientTransform="translate(-6.2404)"
       gradientUnits="userSpaceOnUse">
      <stop
         stop-color="#e15a46"
         offset="0"
         id="stop885" />
      <stop
         stop-color="#be1e5a"
         offset="1"
         id="stop887" />
    </linearGradient>
    <linearGradient
       id="linearGradient998"
       x1="-281.51"
       x2="-282.55"
       y1="43.16"
       y2="49.908"
       gradientTransform="translate(-6.2404)"
       gradientUnits="userSpaceOnUse">
      <stop
         stop-color="#821496"
         offset="0"
         id="stop890" />
      <stop
         stop-color="#c83778"
         offset="1"
         id="stop892" />
    </linearGradient>
    <filter
       id="filter1030"
       x="-.061721"
       y="-.058451"
       width="1.1234"
       height="1.1169"
       color-interpolation-filters="sRGB">
      <feGaussianBlur
         stdDeviation="0.24897588"
         id="feGaussianBlur895" />
    </filter>
    <filter
       id="filter1040"
       x="-.066213"
       y="-.054853"
       width="1.1324"
       height="1.1097"
       color-interpolation-filters="sRGB">
      <feGaussianBlur
         stdDeviation="0.2340379"
         id="feGaussianBlur898" />
    </filter>
    <filter
       id="filter1046"
       x="-.047273"
       y="-.082105"
       width="1.0945"
       height="1.1642"
       color-interpolation-filters="sRGB">
      <feGaussianBlur
         stdDeviation="0.22334751"
         id="feGaussianBlur901" />
    </filter>
    <filter
       id="filter1052"
       x="-.06168"
       y="-.058409"
       width="1.1234"
       height="1.1168"
       color-interpolation-filters="sRGB">
      <feGaussianBlur
         stdDeviation="0.24881069"
         id="feGaussianBlur904" />
    </filter>
    <filter
       id="filter1058"
       x="-.066213"
       y="-.054853"
       width="1.1324"
       height="1.1097"
       color-interpolation-filters="sRGB">
      <feGaussianBlur
         stdDeviation="0.23403799"
         id="feGaussianBlur907" />
    </filter>
    <filter
       id="filter1064"
       x="-.047273"
       y="-.082105"
       width="1.0945"
       height="1.1642"
       color-interpolation-filters="sRGB">
      <feGaussianBlur
         stdDeviation="0.22334755"
         id="feGaussianBlur910" />
    </filter>
    <linearGradient
       id="linearGradient1098"
       x1="-272.21"
       x2="-275.5"
       y1="44.527"
       y2="50.385"
       gradientTransform="matrix(3.7796,0,0,3.7796,-23.586,0)"
       gradientUnits="userSpaceOnUse"
       xlink:href="#linearGradient956" />
    <filter
       id="filter1103"
       x="-.059886"
       y="-.060125"
       width="1.1198"
       height="1.1203"
       color-interpolation-filters="sRGB">
      <feGaussianBlur
         stdDeviation="0.60007942"
         id="feGaussianBlur914" />
    </filter>
    <radialGradient
       id="radialGradient1164"
       cx="-298.14"
       cy="61.201"
       r="10.223"
       gradientTransform="matrix(1.5573094,0,0,1.5573094,421.21477,-63.309701)"
       gradientUnits="userSpaceOnUse">
      <stop
         stop-color="#962864"
         offset="0"
         id="stop917" />
      <stop
         stop-color="#780050"
         offset="1"
         id="stop919" />
    </radialGradient>
    <linearGradient
       id="linearGradient1227"
       x1="-228.54"
       x2="-228.54"
       y1="49.422"
       y2="52.342"
       gradientTransform="translate(237.02 -44.947)"
       gradientUnits="userSpaceOnUse">
      <stop
         stop-color="#fff"
         offset="0"
         id="stop922" />
      <stop
         stop-color="#fff"
         stop-opacity="0"
         offset="1"
         id="stop924" />
    </linearGradient>
    <filter
       id="filter1229"
       x="-.069096"
       y="-.1071"
       width="1.1382"
       height="1.2142"
       color-interpolation-filters="sRGB">
      <feGaussianBlur
         stdDeviation="0.1347133"
         id="feGaussianBlur927" />
    </filter>
    <filter
       id="filter1251"
       x="-.208"
       y="-.28364"
       width="1.416"
       height="1.5673"
       color-interpolation-filters="sRGB">
      <feGaussianBlur
         stdDeviation="0.069956252"
         id="feGaussianBlur930" />
    </filter>
    <filter
       id="filter1275"
       x="-.06"
       y="-.06"
       width="1.12"
       height="1.12"
       color-interpolation-filters="sRGB">
      <feGaussianBlur
         stdDeviation="0.04134033"
         id="feGaussianBlur933" />
    </filter>
    <filter
       id="filter1299"
       x="-.024"
       y="-.024"
       width="1.048"
       height="1.048"
       color-interpolation-filters="sRGB">
      <feGaussianBlur
         stdDeviation="0.18834042"
         id="feGaussianBlur936" />
    </filter>
    <filter
       id="filter1305"
       x="-.06"
       y="-.06"
       width="1.12"
       height="1.12"
       color-interpolation-filters="sRGB">
      <feGaussianBlur
         stdDeviation="0.61852427"
         id="feGaussianBlur939" />
    </filter>
    <linearGradient
       inkscape:collect="always"
       xlink:href="#linearGradient1227"
       id="linearGradient1148"
       gradientUnits="userSpaceOnUse"
       gradientTransform="translate(237.02,-44.947)"
       x1="-228.54"
       y1="49.422"
       x2="-228.54"
       y2="52.342" />
    <linearGradient
       inkscape:collect="always"
       xlink:href="#linearGradient1227"
       id="linearGradient1150"
       gradientUnits="userSpaceOnUse"
       gradientTransform="translate(237.02,-44.947)"
       x1="-228.54"
       y1="49.422"
       x2="-228.54"
       y2="52.342" />
    <linearGradient
       inkscape:collect="always"
       xlink:href="#linearGradient1216"
       id="linearGradient1218"
       x1="59.25024"
       y1="4.8554182"
       x2="4.8598809"
       y2="59.245777"
       gradientUnits="userSpaceOnUse" />
  </defs>
  <sodipodi:namedview
     pagecolor="#ffffff"
     bordercolor="#666666"
     borderopacity="1"
     objecttolerance="10"
     gridtolerance="10"
     guidetolerance="10"
     inkscape:pageopacity="0"
     inkscape:pageshadow="2"
     inkscape:window-width="1920"
     inkscape:window-height="935"
     id="namedview30"
     showgrid="false"
     inkscape:zoom="8.5626212"
     inkscape:cx="27.346852"
     inkscape:cy="36.761148"
     inkscape:window-x="0"
     inkscape:window-y="38"
     inkscape:window-maximized="1"
     inkscape:current-layer="svg28" />
  <path
     id="rect1209"
     style="fill:url(#linearGradient1218);fill-opacity:1;stroke-width:0.5;stroke-linejoin:round;paint-order:stroke fill markers"
     d="M 9.0878906 4.5 C 6.5463155 4.5 4.5 6.5463155 4.5 9.0878906 L 4.5 54.912109 C 4.5 57.453685 6.5463155 59.5 9.0878906 59.5 L 54.912109 59.5 C 57.453685 59.5 59.5 57.453685 59.5 54.912109 L 59.5 9.0878906 C 59.5 6.5463155 57.453685 4.5 54.912109 4.5 L 9.0878906 4.5 z " />
  <path
     id="rect1406"
     style="fill:#191919;fill-opacity:1;stroke-width:0.5;stroke-linejoin:round;paint-order:stroke fill markers"
     d="M 32 12.736328 A 19.263918 19.263918 0 0 0 12.736328 32 A 19.263918 19.263918 0 0 0 32 51.263672 A 19.263918 19.263918 0 0 0 51.263672 32 A 19.263918 19.263918 0 0 0 32 12.736328 z " />
  <circle
     style="fill:#f44336"
     cx="50"
     cy="14"
     r="3"
     id="circle10" />
  <g
     id="g1119"
     transform="matrix(0.825,0,0,0.825,5.6,5.6)">
    <path
       style="fill:#ffc42e"
       d="M 42.748047,15.160157 C 41.654995,15.363812 40.563396,15.599611 40,15.599611 c -4.617581,0 -9.991488,1.943644 -13.175781,5.843748 -2.718983,3.330198 -3.589733,8.317156 -3.787109,12.210938 0.196216,-1.932098 2.77873,-2.316786 4.101562,-3.402344 1.439126,-1.180992 2.703059,-5.451171 4.861329,-5.451171 0.270702,-5e-5 0.541232,0.01357 0.810547,0.04101 0.008,4.04e-4 0.01549,0.0014 0.02344,0.002 8.446455,0.436293 14.66601,6.601147 14.66601,15.156203 0,1.714482 -0.277997,3.361801 -0.777344,4.910156 0.140271,0.06235 0.27334,0.110486 0.40625,0.15625 a 19.999999,19.999999 0 0 0 0.0079,-0.0099 c 0.282137,-0.326719 0.539744,-0.66932 0.798828,-1.011719 a 19.999999,19.999999 0 0 0 0.373047,-0.490234 c 0.219018,-0.308768 0.418628,-0.629578 0.61914,-0.949218 a 19.999999,19.999999 0 0 0 0.404297,-0.660157 c 0.17516,-0.304834 0.337512,-0.616603 0.496093,-0.929688 a 19.999999,19.999999 0 0 0 0.363281,-0.751953 c 0.143876,-0.316159 0.279096,-0.635941 0.40625,-0.958984 a 19.999999,19.999999 0 0 0 0.296876,-0.808594 c 0.107471,-0.311831 0.212717,-0.624455 0.304688,-0.941406 a 19.999999,19.999999 0 0 0 0.240233,-0.947266 c 0.06782,-0.285121 0.140015,-0.569148 0.195314,-0.857421 a 19.999999,19.999999 0 0 0 0.169921,-1.123047 c 0.03342,-0.250411 0.07761,-0.497924 0.101561,-0.75 A 19.999999,19.999999 0 0 0 51.999999,32 c -0.0017,-0.42029 -0.01671,-0.84042 -0.04492,-1.259765 -1.25e-4,-0.0018 1.29e-4,-0.0039 0,-0.0058 -0.0079,-0.118828 -0.02144,-0.236981 -0.03126,-0.35547 -0.04389,-0.555947 -0.111,-1.109815 -0.201171,-1.660156 -0.02078,-0.123771 -0.0468,-0.246059 -0.07032,-0.36914 a 19.999999,19.999999 0 0 0 -0.0039,-0.02149 c -0.08536,-0.452569 -0.186337,-0.902057 -0.302736,-1.347657 -3.61e-4,-0.0014 -0.0015,-0.0024 -0.002,-0.0039 -0.05989,-0.229187 -0.123514,-0.456977 -0.191405,-0.683593 -0.112743,-0.3753 -0.236497,-0.747205 -0.371095,-1.115234 -0.1045,-0.286388 -0.214641,-0.570428 -0.33203,-0.851563 -0.134186,-0.322693 -0.276821,-0.641813 -0.427735,-0.957029 -0.111857,-0.232763 -0.22316,-0.466838 -0.34375,-0.695314 a 19.999999,19.999999 0 0 0 -0.0058,-0.01371 l -0.002,-0.002 c -0.185739,-0.348127 -0.381835,-0.690771 -0.587892,-1.027343 -0.0037,-0.006 -0.0082,-0.01157 -0.01171,-0.01758 -0.160962,-0.263881 -0.326674,-0.524743 -0.5,-0.78125 l -0.0039,-0.0058 a 19.999999,19.999999 0 0 0 -0.0039,-0.0079 c -0.202316,-0.29865 -0.414447,-0.592927 -0.632983,-0.880877 -0.202625,-0.26698 -0.41246,-0.527987 -0.628907,-0.785155 a 19.999999,19.999999 0 0 0 -0.0079,-0.0099 c -0.07158,-0.08261 -0.14386,-0.164657 -0.216797,-0.246095 -0.403365,-0.463058 -0.825608,-0.910798 -1.273439,-1.33789 -0.0057,-0.0054 -0.01186,-0.01028 -0.01758,-0.01563 a 19.999999,19.999999 0 0 0 -0.09756,-0.09165 c -0.240046,-0.225347 -0.484108,-0.447775 -0.736328,-0.662108 0.0049,-0.0049 0.0068,-0.0087 0.01171,-0.01371 a 19.999999,19.999999 0 0 0 -2.214844,-1.615234 z m 3.757812,30.015624 c -0.09711,0.109143 -0.195434,0.217225 -0.29492,0.324218 0.09949,-0.107 0.1978,-0.215071 0.29492,-0.324218 z m -1.134764,1.173826 c -0.1235,0.118129 -0.248512,0.234681 -0.375,0.34961 -0.0071,0.0153 -0.01243,0.0316 -0.01953,0.04687 0.133357,-0.130314 0.264877,-0.262496 0.394531,-0.396484 z"
       id="path12" />
    <path
       style="fill:#ff8514"
       d="m 32.81836,24.041016 c 4.03405,0.40968 5.880859,3.916457 5.880859,8.058592 5e-5,0.270703 -0.01357,0.541234 -0.04101,0.810548 -4.04e-4,0.008 -0.0014,0.01549 -0.002,0.02344 -0.436293,8.446456 -6.101147,14.666008 -14.656204,14.666008 -1.714481,0 -4.20555,-1.299479 -5.753904,-1.798826 0.05072,0.04322 -0.0207,0.255232 -0.144534,0.550779 A 19.999999,19.999999 0 0 0 32.000042,52 c 0.420289,-0.0017 0.84042,-0.01672 1.259766,-0.04492 0.0018,-1.25e-4 0.0039,1.29e-4 0.0058,0 0.118829,-0.0079 0.236982,-0.02144 0.355469,-0.03126 0.555948,-0.04389 1.109817,-0.111 1.660157,-0.201171 0.123771,-0.02078 0.24606,-0.0468 0.369139,-0.07032 a 19.999999,19.999999 0 0 0 0.02149,-0.0039 c 0.452571,-0.08536 0.902057,-0.186337 1.347657,-0.302736 0.0014,-3.61e-4 0.0024,-0.0015 0.0039,-0.002 0.229186,-0.05989 0.456977,-0.123514 0.683593,-0.191406 0.3753,-0.112742 0.747206,-0.236497 1.115234,-0.371093 0.286388,-0.1045 0.570429,-0.214642 0.851562,-0.332032 0.322693,-0.134186 0.641814,-0.276819 0.957031,-0.427734 0.232761,-0.111857 0.466837,-0.22316 0.695312,-0.34375 a 19.999999,19.999999 0 0 0 0.01372,-0.0058 l 0.002,-0.002 c 0.348174,-0.185786 0.690772,-0.381835 1.027345,-0.587892 0.006,-0.0037 0.01157,-0.0082 0.01758,-0.01171 0.263878,-0.160963 0.524743,-0.326674 0.78125,-0.5 l 0.0058,-0.0039 a 19.999999,19.999999 0 0 0 0.0079,-0.0039 c 0.298633,-0.202132 0.59291,-0.414275 0.880858,-0.632811 0.266982,-0.202626 0.527989,-0.41246 0.785157,-0.628907 a 19.999999,19.999999 0 0 0 0.0099,-0.0079 c 0.08261,-0.07158 0.164658,-0.143861 0.246093,-0.216797 0.46306,-0.403367 0.9108,-0.825609 1.33789,-1.273439 0.0054,-0.0057 0.01029,-0.01186 0.01563,-0.01758 a 19.999999,19.999999 0 0 0 0.09179,-0.09765 c 0.225348,-0.240045 0.447775,-0.484109 0.66211,-0.736327 0.507365,-1.560043 0.788876,-3.221779 0.788876,-4.951175 0,-8.560414 -6.727722,-15.530454 -15.18164,-15.958984 z M 17.253908,45.076171 c 0.130314,0.133357 0.262491,0.264875 0.396483,0.394531 -0.118128,-0.1235 -0.234679,-0.248511 -0.349608,-0.375 -0.0153,-0.0071 -0.0316,-0.01243 -0.04687,-0.01953 z"
       id="path14" />
    <path
       style="fill:#ff5757"
       d="m 18.92383,17.253907 c -0.133357,0.130314 -0.264875,0.262491 -0.394532,0.396484 0.1235,-0.118129 0.248513,-0.23468 0.375,-0.349608 0.0071,-0.0153 0.01243,-0.0316 0.01953,-0.04687 z m -1.234375,1.246094 c -0.09949,0.106986 -0.197801,0.215071 -0.294922,0.324218 0.09711,-0.109143 0.195433,-0.217225 0.294922,-0.324218 z m -0.648437,0.251953 A 19.999999,19.999999 0 0 0 12.000002,32 a 19.999999,19.999999 0 0 0 0.04492,1.259765 c 0.0079,0.120786 0.02128,0.240903 0.03125,0.361329 a 19.999999,19.999999 0 0 0 0.201174,1.660156 c 0.02199,0.130957 0.04965,0.26029 0.07421,0.390624 a 19.999999,19.999999 0 0 0 0.302734,1.347657 c 0.0602,0.230591 0.125057,0.459516 0.19336,0.6875 a 19.999999,19.999999 0 0 0 0.371093,1.115234 c 0.1045,0.286389 0.214641,0.570428 0.332031,0.851563 a 19.999999,19.999999 0 0 0 0.427734,0.95703 c 0.114001,0.237219 0.226302,0.476377 0.349609,0.708985 4.08e-4,7.71e-4 0.0015,0.0012 0.002,0.002 a 19.999999,19.999999 0 0 0 0.587891,1.027345 c 0.164376,0.27005 0.334448,0.536478 0.511719,0.798826 0.20483,0.303132 0.418907,0.602391 0.640625,0.894532 0.205143,0.2703 0.417408,0.534657 0.636719,0.794921 a 19.999999,19.999999 0 0 0 0.216797,0.246095 c 0.403364,0.463058 0.825607,0.910798 1.273437,1.33789 a 19.999999,19.999999 0 0 0 0.115229,0.107429 c 0.240044,0.225347 0.484108,0.447775 0.736328,0.66211 1.56005,0.50754 3.221751,0.789008 4.951148,0.789008 8.560414,0 15.530453,-6.727722 15.958984,-15.181641 -0.409681,4.03405 -3.816849,6.88086 -7.958984,6.88086 -0.270701,5e-5 -0.541233,-0.01357 -0.810547,-0.04101 -0.008,-4.05e-4 -0.01549,-0.0014 -0.02344,-0.002 C 22.719553,39.21986 16.400391,32.555057 16.400391,24 c 0,-1.714481 0.277998,-3.3618 0.777345,-4.910155 -0.04539,-0.125172 -0.09121,-0.220026 -0.136714,-0.337891 z"
       id="path16" />
    <path
       style="fill:#baff41"
       d="M 31.181643,39.958984 C 30.117086,39.85087 35.788175,38.606661 34.929647,38.122641 32.534853,36.772511 24.400001,35.049056 24.400001,32 c -5e-5,-0.270701 -0.38636,-0.541233 -0.358979,-0.810547 4.04e-4,-0.008 0.0014,-0.01549 0.002,-0.02344 C 24.479411,22.71955 31.444944,16.000001 40,16.000001 c 1.714482,0 3.361802,0.277997 4.910156,0.777344 -3.602518,-3.069916 -8.177046,-4.7627 -12.910155,-4.777344 -5.857929,0.0086 -11.417588,2.584985 -15.210938,7.048828 -0.507594,1.560073 -0.789061,3.221775 -0.789061,4.951171 0,8.560414 6.727723,15.530454 15.181641,15.958984 z M 46.746095,18.52344 c -0.130315,-0.133358 -0.262492,-0.264878 -0.396486,-0.394533 0.118129,0.1235 0.23468,0.248511 0.349609,0.375 0.0153,0.0071 0.0316,0.01243 0.04687,0.01953 z M 45.5,17.289062 c -0.107,-0.09949 -0.215072,-0.1978 -0.324218,-0.294919 0.109142,0.09711 0.217225,0.195432 0.324218,0.294919 z"
       id="path18" />
    <circle
       style="fill:#3f3f3f"
       cx="32"
       cy="32"
       r="9"
       id="circle20" />
    <path
       style="opacity:0.2;fill:#ffffff"
       d="M 32,12 A 20,20 0 0 0 12,32 20,20 0 0 0 12.021484,32.582031 20,20 0 0 1 32,13 20,20 0 0 1 51.978516,32.417969 20,20 0 0 0 52,32 20,20 0 0 0 32,12 Z"
       id="path22" />
  </g>
  <g
     id="g1155"
     transform="matrix(1.1666666,0,0,1.1666666,-5.3218696,-5.2104959)">
    <ellipse
       transform="matrix(2.2531548,0,0,2.5011618,12.913572,14.026044)"
       cx="8.4666004"
       cy="6.4478998"
       rx="2.3396001"
       ry="1.5094"
       fill="url(#linearGradient1227)"
       filter="url(#filter1229)"
       opacity="0.4"
       id="ellipse1142"
       style="fill:url(#linearGradient1150)" />
    <ellipse
       transform="matrix(2.2531548,0,0,2.5011618,12.913572,14.026044)"
       cx="8.4666004"
       cy="6.4478998"
       rx="2.3396001"
       ry="1.5094"
       fill="url(#linearGradient1227)"
       filter="url(#filter1229)"
       opacity="0.4"
       id="ellipse1144"
       style="fill:url(#linearGradient1148)" />
    <ellipse
       cx="8.4666004"
       cy="5.6413002"
       rx="0.40358999"
       ry="0.29596999"
       fill="#ffffff"
       filter="url(#filter1251)"
       opacity="0.7"
       id="ellipse1146"
       transform="matrix(2.2678047,0,0,2.2678047,12.789448,15.143958)" />
  </g>
</svg>
