<?xml version="1.0" encoding="UTF-8"?>
<!-- Created with Inkscape (http://www.inkscape.org/) -->
<svg width="64" height="64" version="1.1" viewBox="0 0 16.933 16.933" xmlns="http://www.w3.org/2000/svg">
 <defs>
  <linearGradient id="c-5" x1="397.28" x2="396.6" y1="552.09" y2="508.95" gradientTransform="matrix(.3608 0 0 .3608 -134.77 -182.73)" gradientUnits="userSpaceOnUse">
   <stop stop-color="#2a2c2f" offset="0"/>
   <stop stop-color="#4d5153" offset="1"/>
  </linearGradient>
  <linearGradient id="a-6" x1="397.59" x2="396.91" y1="544.15" y2="521.61" gradientTransform="matrix(.3608 0 0 .3608 -134.86 -183.84)" gradientUnits="userSpaceOnUse">
   <stop stop-color="#ff9300" offset="0"/>
   <stop stop-color="#ffd702" offset="1"/>
  </linearGradient>
  <linearGradient id="b-1" x1="399.28" x2="395.9" y1="548.41" y2="509.71" gradientTransform="matrix(.3608 0 0 .3608 -134.77 -182.73)" gradientUnits="userSpaceOnUse">
   <stop stop-color="#016ed4" offset="0"/>
   <stop stop-color="#00b1ff" offset="1"/>
  </linearGradient>
 </defs>
 <circle cx="8.4667" cy="8.4667" r="7.9375" fill="url(#c-5)" stroke-width=".30432"/>
 <path d="m9.8532 3.9162c-1.8582 0.49543-3.2871 2.1561-4.9337 3.3061 0.70176-0.28708 1.5836-0.73809 1.9434-0.76959l-1.1608 1.2872 0.89597-0.39125c-0.40054 1.1907-0.87538 2.3027-2.031 2.738l3.81 2.9306 3.9893-3.1325c-1.5582 0.0424-2.9431-0.14051-3.0913-1.9304-0.03795-0.2144 0.01736-1.7035 2.1578-2.3847-0.21602-0.14818-0.93998-0.04886-1.4512-0.05047-0.02223-0.20188 0.10256-1.0756 1.754-1.1734-0.41467-0.42598-0.93675-0.45909-1.6781-0.22732-0.07874-0.07591-0.12476-0.06783-0.20189-0.20189" fill="url(#a-6)" stroke-width=".3608"/>
 <path d="m5.9189 2.6956c-2.0709 0.96057-3.508 3.0549-3.508 5.4889 0 3.3436 2.7113 6.055 6.0566 6.055 3.3436 0 6.055-2.7113 6.055-6.055 0-2.4037-1.4023-4.4778-3.4321-5.4509l-0.06299 0.062988c1.6026 0.8992 2.6891 2.6104 2.6891 4.5788 0 2.6435-1.951 4.8202-4.492 5.186l-0.75707 1.2759-0.75707-1.2759c-2.5409-0.36582-4.492-2.5426-4.492-5.186 0-1.989 1.1088-3.7143 2.738-4.6054-0.01091-0.023813-0.02666-0.050472-0.03795-0.075911" fill="url(#b-1)" stroke-width=".3608"/>
</svg>
