<?xml version="1.0" encoding="UTF-8" standalone="no"?>
<svg
   xmlns:dc="http://purl.org/dc/elements/1.1/"
   xmlns:cc="http://creativecommons.org/ns#"
   xmlns:rdf="http://www.w3.org/1999/02/22-rdf-syntax-ns#"
   xmlns:svg="http://www.w3.org/2000/svg"
   xmlns="http://www.w3.org/2000/svg"
   xmlns:xlink="http://www.w3.org/1999/xlink"
   xmlns:sodipodi="http://sodipodi.sourceforge.net/DTD/sodipodi-0.dtd"
   xmlns:inkscape="http://www.inkscape.org/namespaces/inkscape"
   inkscape:version="1.0 (4035a4fb49, 2020-05-01)"
   sodipodi:docname="xorg.svg"
   id="svg58"
   version="1.1"
   height="64"
   width="64">
  <metadata
     id="metadata62">
    <rdf:RDF>
      <cc:Work
         rdf:about="">
        <dc:format>image/svg+xml</dc:format>
        <dc:type
           rdf:resource="http://purl.org/dc/dcmitype/StillImage" />
        <dc:title></dc:title>
      </cc:Work>
    </rdf:RDF>
  </metadata>
  <sodipodi:namedview
     inkscape:current-layer="svg58"
     inkscape:window-maximized="1"
     inkscape:window-y="36"
     inkscape:window-x="0"
     inkscape:cy="15.013762"
     inkscape:cx="19.398362"
     inkscape:zoom="4.2150193"
     showgrid="false"
     id="namedview60"
     inkscape:window-height="932"
     inkscape:window-width="1920"
     inkscape:pageshadow="2"
     inkscape:pageopacity="0"
     guidetolerance="10"
     gridtolerance="10"
     objecttolerance="10"
     borderopacity="1"
     bordercolor="#666666"
     pagecolor="#ffffff" />
  <defs
     id="defs20">
    <linearGradient
       gradientUnits="userSpaceOnUse"
       gradientTransform="matrix(1.502 0 0 1.5037 -3.9827 -3.342)"
       y2="24"
       y1="24"
       x2="36.937"
       x1="10.973"
       id="b">
      <stop
         id="stop2"
         offset="0"
         stop-color="#2a2c2f" />
      <stop
         id="stop4"
         offset="1"
         stop-color="#424649" />
    </linearGradient>
    <linearGradient
       gradientUnits="userSpaceOnUse"
       gradientTransform="matrix(.13235 0 0 .13075 -32.379 1.0873)"
       y2="269.49"
       y1="235.15"
       x2="657.65"
       x1="319.21"
       id="a">
      <stop
         id="stop7"
         offset="0"
         stop-color="#e54c18" />
      <stop
         id="stop9"
         offset="1"
         stop-color="#fec350" />
    </linearGradient>
    <filter
       color-interpolation-filters="sRGB"
       height="1.236"
       width="1.1991"
       y="-.11801"
       x="-.099574"
       id="c">
      <feGaussianBlur
         id="feGaussianBlur12"
         stdDeviation="1.9913168" />
    </filter>
    <linearGradient
       gradientUnits="userSpaceOnUse"
       gradientTransform="matrix(3.7795 0 0 3.7795 .00014309 .031541)"
       y2="1.852"
       y1="15.081"
       x2="7.9373"
       x1="7.9373"
       id="linearGradient862-3">
      <stop
         id="stop15"
         offset="0"
         stop-color="#f1efeb" />
      <stop
         id="stop17"
         offset="1"
         stop-color="#fdfcfc" />
    </linearGradient>
    <linearGradient
       gradientUnits="userSpaceOnUse"
       gradientTransform="scale(3.7796)"
       y2="1.852"
       y1="15.081"
       x2="7.9373"
       x1="7.9373"
       id="linearGradient862-3-36">
      <stop
         id="stop2-7"
         offset="0"
         stop-color="#1560ff" />
      <stop
         id="stop4-5"
         offset="1"
         stop-color="#15afff" />
    </linearGradient>
    <linearGradient
       gradientUnits="userSpaceOnUse"
       gradientTransform="matrix(0.063557,0,0,0.063557,94.615,19.296)"
       y2="1024"
       y1="4"
       x2="540"
       x1="540"
       id="e">
      <stop
         id="stop2-3"
         offset="0"
         stop-color="#c8c4b7" />
      <stop
         id="stop4-6"
         offset="1"
         stop-color="#888" />
    </linearGradient>
    <linearGradient
       gradientUnits="userSpaceOnUse"
       gradientTransform="matrix(0.063762,0,0,0.063762,94.514,19.784)"
       y2="1024"
       y1="4"
       x2="500"
       x1="500"
       id="g">
      <stop
         id="stop7-35"
         offset="0"
         stop-color="#fff" />
      <stop
         id="stop9-6"
         offset="1"
         stop-color="#e6e6e6" />
    </linearGradient>
    <linearGradient
       gradientUnits="userSpaceOnUse"
       gradientTransform="matrix(0.063762,0,0,0.063762,94.514,19.784)"
       y2="932.3"
       y1="2.8539"
       x2="555.95"
       x1="555.95"
       id="h">
      <stop
         id="stop12"
         offset="0" />
      <stop
         id="stop14"
         offset="1"
         stop-color="#666" />
    </linearGradient>
    <linearGradient
       gradientUnits="userSpaceOnUse"
       gradientTransform="matrix(3.7796,0,0,3.7796,0,-5.9484605)"
       y2="1.852"
       y1="15.081"
       x2="7.9373"
       x1="7.9373"
       id="linearGradient862-3-7">
      <stop
         id="stop17-2"
         offset="0"
         stop-color="#1560ff" />
      <stop
         id="stop19"
         offset="1"
         stop-color="#15afff" />
    </linearGradient>
    <linearGradient
       gradientUnits="userSpaceOnUse"
       gradientTransform="matrix(3.7796,0,0,3.7796,0.26679227,3.6354286)"
       y2="1.852"
       y1="15.081"
       x2="7.9373"
       x1="7.9373"
       id="linearGradient862-3-3">
      <stop
         id="stop2-6"
         offset="0"
         stop-color="#1560ff" />
      <stop
         id="stop4-7"
         offset="1"
         stop-color="#15afff" />
    </linearGradient>
    <linearGradient
       gradientUnits="userSpaceOnUse"
       gradientTransform="translate(-109.06282,-1.7736203)"
       y2="30"
       y1="60"
       x2="46"
       x1="46"
       id="linearGradient1007">
      <stop
         id="stop7-53"
         offset="0"
         stop-color="#ff425e" />
      <stop
         id="stop9-5"
         offset="1"
         stop-color="#ff6e4f" />
    </linearGradient>
    <linearGradient
       id="linearGradient934"
       inkscape:collect="always">
      <stop
         id="stop930"
         offset="0"
         style="stop-color:#f3f8fe;stop-opacity:1" />
      <stop
         id="stop932"
         offset="1"
         style="stop-color:#ceddee;stop-opacity:1" />
    </linearGradient>
    <filter
       color-interpolation-filters="sRGB"
       height="1.12"
       width="1.12"
       y="-.06"
       x="-.06"
       id="h-62">
      <feGaussianBlur
         id="feGaussianBlur2"
         stdDeviation="0.85" />
    </filter>
    <linearGradient
       gradientUnits="userSpaceOnUse"
       gradientTransform="matrix(1.0000071,0,0,1.0000071,-115.64624,-8.5943959e-7)"
       y2="49"
       y1="15"
       x2="32"
       x1="32"
       id="g-9">
      <stop
         id="stop5"
         offset="0"
         stop-color="#303030" />
      <stop
         id="stop7-3"
         offset="1"
         stop-color="#424242" />
    </linearGradient>
    <linearGradient
       gradientUnits="userSpaceOnUse"
       gradientTransform="matrix(0.99996,0,0,0.99996,21.356329,0.0083453)"
       y2="1.852"
       y1="15.081"
       x2="7.9373"
       x1="7.9373"
       id="linearGradient862-3-67">
      <stop
         id="stop10"
         offset="0"
         stop-color="#54c0cd" />
      <stop
         id="stop12-1"
         offset="1"
         stop-color="#40dd9d" />
    </linearGradient>
    <filter
       color-interpolation-filters="sRGB"
       height="1.12"
       width="1.12"
       y="-.06"
       x="-.06"
       id="h-6">
      <feGaussianBlur
         id="feGaussianBlur2-7"
         stdDeviation="0.85" />
    </filter>
    <linearGradient
       gradientUnits="userSpaceOnUse"
       gradientTransform="matrix(0.26458,0,0,0.26458,-22.458237,0)"
       y2="49"
       y1="15"
       x2="32"
       x1="32"
       id="g-5">
      <stop
         id="stop5-3"
         offset="0"
         stop-color="#303030" />
      <stop
         id="stop7-5"
         offset="1"
         stop-color="#424242" />
    </linearGradient>
    <linearGradient
       gradientUnits="userSpaceOnUse"
       gradientTransform="matrix(0.99996,0,0,0.99996,-22.458199,0.0083453)"
       y2="1.852"
       y1="15.081"
       x2="7.9373"
       x1="7.9373"
       id="linearGradient862-3-6">
      <stop
         id="stop10-2"
         offset="0"
         stop-color="#33db7f" />
      <stop
         id="stop12-9"
         offset="1"
         stop-color="#addf4f" />
    </linearGradient>
    <linearGradient
       gradientTransform="translate(88.740232,9.9986145e-5)"
       gradientUnits="userSpaceOnUse"
       y2="62.102573"
       x2="-86.14003"
       y1="2.026814"
       x1="-26.286036"
       id="linearGradient936"
       xlink:href="#linearGradient934"
       inkscape:collect="always" />
    <linearGradient
       gradientUnits="userSpaceOnUse"
       gradientTransform="matrix(3.7795 0 0 3.7795 .000143 .031541)"
       y2="1.852"
       y1="15.081"
       x2="7.9373"
       x1="7.9373"
       id="linearGradient862-3-9">
      <stop
         id="stop2-1"
         offset="0"
         stop-color="#f1efeb" />
      <stop
         id="stop4-2"
         offset="1"
         stop-color="#fdfcfc" />
    </linearGradient>
    <linearGradient
       gradientUnits="userSpaceOnUse"
       y2="17.146"
       y1="49.576"
       x2="33.201"
       x1="33.201"
       id="linearGradient859">
      <stop
         id="stop7-7"
         offset="0"
         stop-color="#306fec" />
      <stop
         id="stop9-0"
         offset="1"
         stop-color="#33a5ff" />
    </linearGradient>
    <filter
       color-interpolation-filters="sRGB"
       height="1.2079"
       width="1.2248"
       y="-.10395"
       x="-.11238"
       id="filter867">
      <feGaussianBlur
         id="feGaussianBlur12-9"
         stdDeviation="1.7324962" />
    </filter>
    <filter
       id="d"
       x="-.058883"
       y="-.061161"
       width="1.1178"
       height="1.1223"
       color-interpolation-filters="sRGB">
      <feGaussianBlur
         stdDeviation="10.562379"
         id="feGaussianBlur856" />
    </filter>
    <filter
       id="filter883"
       x="-.05999"
       y="-.06001"
       width="1.12"
       height="1.12"
       color-interpolation-filters="sRGB">
      <feGaussianBlur
         stdDeviation="0.21163584"
         id="feGaussianBlur859" />
    </filter>
    <linearGradient
       id="a-3"
       x1="32"
       x2="32"
       y1="2"
       y2="62"
       gradientTransform="translate(0.25273915,0.81328)"
       gradientUnits="userSpaceOnUse">
      <stop
         stop-color="#f5faff"
         offset="0"
         id="stop862" />
      <stop
         stop-color="#cfdef0"
         offset="1"
         id="stop864" />
    </linearGradient>
    <filter
       color-interpolation-filters="sRGB"
       height="1.12"
       width="1.12"
       y="-.06"
       x="-.06"
       id="h-62-7">
      <feGaussianBlur
         id="feGaussianBlur2-3"
         stdDeviation="0.85" />
    </filter>
    <filter
       color-interpolation-filters="sRGB"
       height="1.12"
       width="1.12"
       y="-.06"
       x="-.06"
       id="h-6-1">
      <feGaussianBlur
         id="feGaussianBlur2-7-9"
         stdDeviation="0.85" />
    </filter>
  </defs>
  <path
     d="M 52.308592,1.8829125 C 52.00422,1.8590635 51.692259,1.8655795 51.37695,1.9043955 L 5.8964882,7.507912 c -2.5225,0.3108118 -4.302999,2.592736 -3.992189,5.115235 l 5.603509,45.48047 c 0.3108,2.522498 2.5927378,4.302993 5.1152378,3.992185 l 45.480465,-5.603513 c 2.522499,-0.310797 4.302998,-2.592735 3.99219,-5.115234 L 56.492184,5.8965845 C 56.220226,3.6893976 54.439308,2.0499857 52.308592,1.8829125 Z"
     style="fill:url(#linearGradient936);fill-opacity:1;stroke-width:2;stroke-linecap:round"
     id="rect926" />
  <g
     id="g38"
     stroke-width=".66672"
     font-size="12.666px"
     transform="matrix(1.4999,0,0,1.4999,-580.81,-753.64)">
    <text
       id="text36"
       stroke-width=".66672"
       font-family="'Droid Sans'"
       y="132.19"
       x="730.88" />
  </g>
  <g
     id="g42"
     stroke-width=".66672"
     font-size="12.666px"
     transform="matrix(1.4999 0 0 1.4999 -580.81 -753.64)">
    <text
       id="text40"
       stroke-width=".66672"
       font-family="'Droid Sans'"
       y="132.19"
       x="730.88" />
  </g>
  <rect
     id="rect44"
     opacity=".40741"
     fill="#000cff"
     height="0"
     width=".067495"
     y="29.793"
     x="64.965" />
  <g
     id="g50"
     stroke-width="1.2563"
     transform="matrix(.79702 0 0 .79492 5.8997 5.6603)">
    <path
       id="path46"
       fill="url(#b)"
       d="m12.934 52.982 14.724-19.274-15.159-21.192 9.7431 0.0081 12.079 16.663-18.06 23.794h-3.327zm28.819 0.01368-11.995-16.692 18.211-23.805h3.2447l-14.784 19.364 15.068 21.132z" />
    <path
       id="path48"
       fill="url(#a)"
       d="m31.996 19.892c-1.1714 0-2.4229 0.0896-3.5496 0.19646 2.0072 2.5862 3.6726 4.7762 5.5894 7.2634-1.0758-2.2872-3.2869-4.4805-2.5225-5.6084 0.75665-1.1166 2.1508-0.92862 2.257-0.92862 2.2351 0 4.3867 0.24939 6.3981 0.71095l0.47148-0.64149c-2.6828-0.68228-5.5967-0.99221-8.6439-0.99221zm12.106 2.0872-0.43426 0.61289c6.1972 2.3975 10.389 6.9768 10.389 12.225 0 7.7281-9.0876 13.998-20.286 13.998-11.199 0-20.29-6.2703-20.29-13.998 1e-6 -4.2085 2.6961-7.9862 6.9606-10.554l-1.3111-1.9735c-6.6896 2.8022-11.13 7.7207-11.13 13.32 0 8.7123 10.75 15.78 23.996 15.78 13.247 0 24-7.0675 24-15.78 0-5.8096-4.7807-10.89-11.895-13.631z" />
  </g>
  <g
     id="g56"
     stroke-width="1.2563"
     opacity=".25"
     filter="url(#c)"
     transform="matrix(.79702 0 0 .79492 5.8997 6.7669)">
    <path
       id="path52"
       d="m12.934 52.982 14.724-19.274-15.159-21.192 9.7431 0.0081 12.079 16.663-18.06 23.794h-3.327zm28.819 0.01368-11.995-16.692 18.211-23.805h3.2447l-14.784 19.364 15.068 21.132z" />
    <path
       id="path54"
       d="m31.996 19.892c-1.1714 0-2.4229 0.0896-3.5496 0.19646 2.0072 2.5862 3.6726 4.7762 5.5894 7.2634-1.0758-2.2872-3.2869-4.4805-2.5225-5.6084 0.75665-1.1166 2.1508-0.92862 2.257-0.92862 2.2351 0 4.3867 0.24939 6.3981 0.71095l0.47148-0.64149c-2.6828-0.68228-5.5967-0.99221-8.6439-0.99221zm12.106 2.0872-0.43426 0.61289c6.1972 2.3975 10.389 6.9768 10.389 12.225 0 7.7281-9.0876 13.998-20.286 13.998-11.199 0-20.29-6.2703-20.29-13.998 1e-6 -4.2085 2.6961-7.9862 6.9606-10.554l-1.3111-1.9735c-6.6896 2.8022-11.13 7.7207-11.13 13.32 0 8.7123 10.75 15.78 23.996 15.78 13.247 0 24-7.0675 24-15.78 0-5.8096-4.7807-10.89-11.895-13.631z" />
  </g>
</svg>
