<?xml version="1.0" encoding="UTF-8"?>
<svg width="64" height="64" version="1.1" viewBox="0 0 16.933 16.933" xmlns="http://www.w3.org/2000/svg" xmlns:cc="http://creativecommons.org/ns#" xmlns:dc="http://purl.org/dc/elements/1.1/" xmlns:rdf="http://www.w3.org/1999/02/22-rdf-syntax-ns#" xmlns:xlink="http://www.w3.org/1999/xlink">
 <defs>
  <linearGradient id="a-3-3-9" x1="99.036" x2="99.036" y1="11.64" y2="199.84" gradientTransform="matrix(.079373 0 0 .079373 -17.528 15.8)" gradientUnits="userSpaceOnUse">
   <stop stop-color="#ff4b00" offset="0"/>
   <stop stop-color="#f50f2d" offset="1"/>
  </linearGradient>
  <filter id="filter971" x="-.108" y="-.108" width="1.216" height="1.216" color-interpolation-filters="sRGB">
   <feGaussianBlur stdDeviation="0.42861633"/>
  </filter>
 </defs>
 <metadata>
  <rdf:RDF>
   <cc:Work rdf:about="">
    <dc:format>image/svg+xml</dc:format>
    <dc:type rdf:resource="http://purl.org/dc/dcmitype/StillImage"/>
   </cc:Work>
  </rdf:RDF>
 </metadata>
 <g transform="translate(18.057 -15.271)">
  <circle cx="-9.5907" cy="23.737" r="7.9373" color="#000000" fill="url(#a-3-3-9)" stroke-width=".26458"/>
  <path d="m-9.6145 19.504a4.7624 4.7624 0 0 0-4.7386 4.7624 4.7624 4.7624 0 0 0 4.7624 4.7624 4.7624 4.7624 0 0 0 4.7624-4.7624 4.7624 4.7624 0 0 0-4.7624-4.7624 4.7624 4.7624 0 0 0-0.023771 0zm-1.1033 2.2913c0.09212 0.0048 0.17821 0.0352 0.25838 0.09095l2.9667 2.0443c0.09345 0.06583 0.1582 0.15268 0.1943 0.25993 0.0361 0.10726 0.0361 0.2157 0 0.324-0.03609 0.10725-0.10083 0.19412-0.19533 0.25889l-2.9657 2.0443c-0.10724 0.07327-0.22394 0.10274-0.35243 0.08681-0.12848-0.01593-0.23489-0.07235-0.3209-0.16898s-0.12971-0.20996-0.12971-0.33951v-4.088c0-0.12954 0.04369-0.2434 0.12971-0.34002 0.08602-0.09663 0.19242-0.15305 0.3209-0.16898 0.03203-0.0041 0.06334-0.0052 0.09405-0.0036z" filter="url(#filter971)" opacity=".3" stroke-linecap="round" stroke-linejoin="round" stroke-width="1.0462"/>
  <path d="m-9.6145 18.975a4.7624 4.7624 0 0 0-4.7386 4.7624 4.7624 4.7624 0 0 0 4.7624 4.7624 4.7624 4.7624 0 0 0 4.7624-4.7624 4.7624 4.7624 0 0 0-4.7624-4.7624 4.7624 4.7624 0 0 0-0.023771 0zm-1.1033 2.2913c0.09211 0.0048 0.17821 0.0352 0.25838 0.09095l2.9667 2.0443c0.093449 0.06583 0.1582 0.15268 0.1943 0.25993 0.036099 0.10726 0.036099 0.2157 0 0.324-0.036094 0.10725-0.10083 0.19412-0.19533 0.25889l-2.9657 2.0443c-0.10724 0.07327-0.22395 0.10274-0.35243 0.08682-0.12848-0.01593-0.2349-0.07235-0.3209-0.16898-0.08601-0.09663-0.1297-0.20996-0.1297-0.33951v-4.088c0-0.12955 0.0437-0.24339 0.1297-0.34002 0.08602-0.09663 0.19242-0.15305 0.3209-0.16898 0.03203-0.0041 0.06334-0.0052 0.09405-0.0036z" fill="#fff" stroke-linecap="round" stroke-width=".52916"/>
 </g>
</svg>
