<?xml version="1.0" encoding="UTF-8"?>
<svg width="64" height="64" version="1.1" xmlns="http://www.w3.org/2000/svg">
 <defs>
  <linearGradient id="linearGradient1100" x1="399.57" x2="399.57" y1="545.8" y2="517.8" gradientTransform="matrix(2.1429,0,0,2.1429,-826.36,-1107.5)" gradientUnits="userSpaceOnUse">
   <stop stop-color="#3889e9" offset="0"/>
   <stop stop-color="#5ea5fb" offset="1"/>
  </linearGradient>
  <radialGradient id="radialGradient1042" cx="12.171" cy="12.171" r="4.7624" gradientTransform="matrix(3.7796 0 0 3.7796 -73.392 2.2574e-6)" gradientUnits="userSpaceOnUse">
   <stop offset="0"/>
   <stop stop-opacity="0" offset="1"/>
  </radialGradient>
  <linearGradient id="linearGradient1033" x1="11.993" x2="11.993" y1="15.289" y2="8.3841" gradientTransform="matrix(3.7796 0 0 3.7796 -73.392 .99986)" gradientUnits="userSpaceOnUse">
   <stop stop-color="#6d1fa3" offset="0"/>
   <stop stop-color="#be4eee" offset="1"/>
  </linearGradient>
  <filter id="filter10677" x="-.17623" y="-.12609" width="1.3525" height="1.2522" color-interpolation-filters="sRGB">
   <feGaussianBlur stdDeviation="1.6811947"/>
  </filter>
  <filter id="filter23623" x="-.16362" y="-.13344" width="1.3272" height="1.2669" color-interpolation-filters="sRGB">
   <feGaussianBlur stdDeviation="0.8896271"/>
  </filter>
  <linearGradient id="linearGradient1084" x1=".49454" x2="16.438" y1="8.4665" y2="8.4665" gradientTransform="matrix(1.4364 0 0 1.4364 5.0546 8.238)" gradientUnits="userSpaceOnUse">
   <stop stop-color="#76dd38" offset="0"/>
   <stop stop-color="#42c440" offset=".48433"/>
   <stop stop-color="#14ab4b" offset="1"/>
  </linearGradient>
 </defs>
 <circle cx="32.02" cy="32.044" r="0" fill="url(#linearGradient1100)" stroke-width="1.5715"/>
 <path d="m52.308 1.883c-0.30437-0.02385-0.61634-0.01733-0.93167 0.02148l-45.48 5.6036c-2.5225 0.31082-4.3031 2.5928-3.9924 5.1153l5.6036 45.48c0.3108 2.5225 2.5928 4.3031 5.1153 3.9924l45.48-5.6036c2.5225-0.3108 4.3031-2.5928 3.9924-5.1153l-5.6036-45.48c-0.27198-2.2072-2.0529-3.8465-4.1836-4.0139z" fill="url(#linearGradient1084)" image-rendering="optimizeSpeed" stroke-linecap="round" stroke-width="2"/>
 <g transform="translate(73.391)">
  <rect x="-73.392" width="64" height="64" rx="0" ry="0" fill="none" stroke-linecap="round" stroke-linejoin="round" stroke-width="1.4464" style="paint-order:stroke fill markers"/>
  <circle cx="-41.372" cy="32.044" r="30.001" fill-opacity="0" stroke-width="1.5715"/>
  <g transform="translate(-73.392)" fill="#fff" stroke-linecap="square" stroke-width="7.5865" aria-label="y">
   <path d="m25.149 49.722h6.2816l3.5505-9.8777 8.4666-22.122h-5.7809l-5.5078 16.751-5.1892-16.751h-6.4182l8.6031 22.122z" fill="#000" filter="url(#filter10677)" opacity=".15"/>
   <path d="m25.149 48h6.2816l3.5505-9.8777 8.4666-22.122h-5.7809l-5.5078 16.751-5.1892-16.751h-6.4182l8.6031 22.122z"/>
  </g>
  <circle cx="-27.39" cy="46.002" r="18" fill="url(#radialGradient1042)" stroke-width="4.252"/>
  <circle cx="-27.39" cy="46.002" r="16" fill="url(#linearGradient1033)" stroke-width="3.7796"/>
  <g transform="translate(-73.392)" filter="url(#filter23623)" opacity=".15" stroke-linecap="square" stroke-width="3.8425" aria-label="N">
   <path d="m39.477 55.001h1.7983v-13.441l9.1297 13.441h2.121v-16h-1.7983v13.441l-9.0605-13.441h-2.1902z"/>
  </g>
  <g transform="translate(-73.392)" fill="#fff" stroke-linecap="square" stroke-width="3.8425" aria-label="N">
   <path d="m39.477 54.002h1.7983v-13.441l9.1297 13.441h2.121v-16h-1.7983v13.441l-9.0605-13.441h-2.1902z"/>
  </g>
 </g>
</svg>
