<?xml version="1.0" encoding="UTF-8"?>
<svg width="64" height="64" version="1.1" viewBox="0 0 16.933 16.933" xmlns="http://www.w3.org/2000/svg" xmlns:cc="http://creativecommons.org/ns#" xmlns:dc="http://purl.org/dc/elements/1.1/" xmlns:rdf="http://www.w3.org/1999/02/22-rdf-syntax-ns#" xmlns:xlink="http://www.w3.org/1999/xlink">
 <defs>
  <filter id="filter1066" x="-.063923" y="-.056531" width="1.1278" height="1.1131" color-interpolation-filters="sRGB">
   <feGaussianBlur stdDeviation="0.22705935"/>
  </filter>
  <filter id="filter1100" x="-.12197" y="-.11848" width="1.2439" height="1.237" color-interpolation-filters="sRGB">
   <feGaussianBlur stdDeviation="0.47586465"/>
  </filter>
  <linearGradient id="linearGradient938" x1="80.368" x2="82.141" y1="13.177" y2="14.704" gradientTransform="matrix(.96153 0 0 .96153 -52.641 12.38)" gradientUnits="userSpaceOnUse">
   <stop stop-color="#fafafa" offset="0"/>
   <stop stop-color="#90a0b3" offset="1"/>
  </linearGradient>
 </defs>
 <metadata>
  <rdf:RDF>
   <cc:Work rdf:about="">
    <dc:format>image/svg+xml</dc:format>
    <dc:type rdf:resource="http://purl.org/dc/dcmitype/StillImage"/>
   </cc:Work>
  </rdf:RDF>
 </metadata>
 <g transform="translate(-12.633 -14.072)">
  <rect transform="rotate(-6.4422)" x="11.412" y="17.502" width="13.992" height="13.992" ry="1.1671" fill="#f3f3f3" stroke-width=".96153"/>
  <path transform="matrix(1.0331 0 0 .96963 -31.848 11.007)" d="m57.818 9.8288s0.05354 3.0782-2.6636 4.5408c-2.2449 1.2084 0.9386 2.689-5.8599 5.0989 8.8505-2.5748 8.5235-9.6396 8.5235-9.6396z" fill="#141414" filter="url(#filter1066)" opacity=".3"/>
  <path transform="matrix(.83588 0 0 .91428 -21.027 11.035)" d="m57.594 9.7322c-0.15355 5.725-5.0519 8.6864-8.5234 9.6397l8.2859-0.93608c0.6682-0.07545 1.1451-0.67434 1.0697-1.3425z" fill="#9cb8d7" filter="url(#filter1100)" opacity=".2"/>
  <path transform="matrix(1.0038 0 0 .93536 -30.115 11.457)" d="m57.818 9.8288s0.05354 3.0782-2.6636 4.5408c-2.2449 1.2084 0.9386 2.689-5.8599 5.0989 8.8505-2.5748 8.5235-9.6396 8.5235-9.6396z" fill="#141414" filter="url(#filter1066)" opacity=".3"/>
  <path d="m26.293 14.669c-0.07737-0.0069-0.1567-0.0061-0.23701 3e-3l-11.585 1.3083c-0.6425 0.07255-1.1015 0.6479-1.029 1.2904l1.3083 11.585c0.07255 0.6425 0.6479 1.1011 1.2904 1.0286l3.6229-0.40893c3.3379-0.91803 8.0429-3.7657 8.1905-9.2679l0.79998 7.078-1.3078-11.585c-0.06348-0.56218-0.51228-0.98405-1.0538-1.032z" fill="#fafafa" stroke-width=".96153"/>
  <g>
   <path d="m25.606 23.794c0.33876 0.51081 0.21701 1.1485-0.41012 1.7657-0.68563 0.67551-1.8703 1.2265-3.2412 1.4805-1.3709 0.25394-2.6738 0.16374-3.5564-0.22127-0.8067-0.35216-1.1483-0.90402-1.0154-1.5017 0.11917-0.53646 0.61451-1.0738 1.3452-1.512 0.68318-0.4096 1.5569-0.72284 2.4619-0.89047 0.90498-0.16764 1.8329-0.18815 2.6175-0.05044 0.83912 0.14733 1.4941 0.47163 1.7975 0.92982" fill="#9090f8"/>
   <path d="m24.541 24.106c0.2493 0.37592 0.15971 0.84522-0.30182 1.2995-0.50458 0.49714-1.3765 0.90265-2.3853 1.0895-1.0089 0.18688-1.9678 0.1205-2.6173-0.16284-0.59369-0.25917-0.84506-0.66531-0.74726-1.1051 0.08771-0.39481 0.45224-0.79029 0.98998-1.1127 0.50278-0.30144 1.1458-0.53197 1.8118-0.65534 0.66601-0.12337 1.3489-0.13847 1.9263-0.03712 0.61754 0.10843 1.0996 0.3471 1.3229 0.68429" fill="#4e4eb0"/>
   <path d="m23.533 24.293c0.12532 0.25296 0.02537 0.55628-0.29793 0.83977-0.34253 0.30039-0.89174 0.54179-1.5111 0.65652-0.61936 0.11473-1.2185 0.08646-1.646-0.0717-0.40384-0.14919-0.60542-0.39665-0.57896-0.67734 0.0246-0.26112 0.24468-0.53216 0.60022-0.75807 0.33936-0.21586 0.78801-0.38174 1.2587-0.46893 0.47068-0.08719 0.94898-0.09302 1.3431-0.01304 0.41287 0.08357 0.71581 0.25773 0.83193 0.49278" fill="#2c2f6e"/>
   <path d="m21.722 23.157-0.94061 0.17424 0.02077-0.39614c0.01457-0.27926-0.0059-0.7835 0.23876-0.82881 0.2435-0.0451 0.40748 0.43567 0.51979 0.6883z" fill="#4e4eb0"/>
   <path d="m22.262 24.038c0.13321 0.16637 0.40881 0.51271 1.2376 0.75147l-3.7928 0.70257c0.6883-0.51979 0.82404-0.94115 0.88633-1.1449 0.19007-0.62365 0.06321-1.3847 0.58851-1.482 0.52833-0.09787 0.6696 0.66054 1.0803 1.1729z" fill="#2c2f6e"/>
   <path d="m21.659 21.208a0.77146 0.77146 0 0 1-0.61804 0.89907 0.77146 0.77146 0 0 1-0.89907-0.61804 0.77146 0.77146 0 0 1 0.61804-0.89907 0.77146 0.77146 0 0 1 0.89907 0.61804z" fill="#9090f8"/>
   <path d="m21.392 18.707a0.96432 0.96432 0 0 1-0.77255 1.1238 0.96432 0.96432 0 0 1-1.1238-0.77255 0.96432 0.96432 0 0 1 0.77255-1.1238 0.96432 0.96432 0 0 1 1.1238 0.77255z" fill="#2c2f6e"/>
  </g>
  <path d="m27.853 20.174s0.05148 2.9598-2.5612 4.3661c-2.1586 1.1619 0.9025 2.5856-5.6345 4.9029 8.5102-2.4758 8.2633-9.2351 8.2633-9.2351z" fill="url(#linearGradient938)" stroke-width=".96153"/>
 </g>
</svg>
