<?xml version="1.0" encoding="UTF-8"?>
<svg width="64" height="64" version="1.1" viewBox="0 0 16.933 16.933" xmlns="http://www.w3.org/2000/svg" xmlns:cc="http://creativecommons.org/ns#" xmlns:dc="http://purl.org/dc/elements/1.1/" xmlns:rdf="http://www.w3.org/1999/02/22-rdf-syntax-ns#">
 <metadata>
  <rdf:RDF>
   <cc:Work rdf:about="">
    <dc:format>image/svg+xml</dc:format>
    <dc:type rdf:resource="http://purl.org/dc/dcmitype/StillImage"/>
   </cc:Work>
  </rdf:RDF>
 </metadata>
 <defs>
  <linearGradient id="b" x1="399.57" x2="399.57" y1="545.8" y2="517.8" gradientTransform="matrix(.56696 0 0 .56696 -218.64 -293.15)" gradientUnits="userSpaceOnUse">
   <stop stop-color="#3889e9" offset="0"/>
   <stop stop-color="#5ea5fb" offset="1"/>
  </linearGradient>
  <linearGradient id="linearGradient1001-3" x1="32.431" x2="32.431" y1="61.873" y2="1.6692" gradientTransform="matrix(.26458 0 0 .26458 -30.421 .12632)" gradientUnits="userSpaceOnUse">
   <stop stop-color="#1d2123" offset="0"/>
   <stop stop-color="#33393e" offset="1"/>
  </linearGradient>
 </defs>
 <g transform="translate(.00013242 1.0922e-5)" fill="#5e4aa6" stroke-width=".26458">
  <circle cx="-330.35" cy="-328.37" r="0" image-rendering="optimizeSpeed"/>
  <circle cx="-330.35" cy="-328.38" r="0" image-rendering="optimizeSpeed"/>
  <circle cx="-330.35" cy="-328.38" r="0" image-rendering="optimizeSpeed"/>
  <circle cx="-352.63" cy="-336.84" r="0" image-rendering="optimizeSpeed"/>
  <circle cx="-330.35" cy="-328.37" r="0" image-rendering="optimizeSpeed"/>
  <circle cx="-305.84" cy="-328.27" r="0" image-rendering="optimizeSpeed"/>
  <circle cx="-305.84" cy="-328.28" r="0" image-rendering="optimizeSpeed"/>
  <circle cx="-305.84" cy="-328.28" r="0" image-rendering="optimizeSpeed"/>
  <circle cx="-328.12" cy="-336.74" r="0" image-rendering="optimizeSpeed"/>
  <circle cx="-305.84" cy="-328.27" r="0" image-rendering="optimizeSpeed"/>
  <circle cx="-305.03" cy="-328.69" r="0"/>
 </g>
 <circle cx="8.469" cy="8.3459" r="0" fill="url(#b)" stroke-width=".41578"/>
 <circle cx="-348.3" cy="-335.78" r="0" fill="#5e4aa6" stroke-width=".26458"/>
 <path d="m13.292 2.1617q-1.0212-0.78646-2.2341-1.2053-1.2534-0.43319-2.5934-0.43319c-4.3841 0-7.9381 3.5538-7.9381 7.9376 0 4.0105 2.9752 7.3246 6.838 7.8604 0.18842 0.02608 0.37938 0.04626 0.57114 0.05804 0.17496 0.01093 0.35078 0.0185 0.5291 0.0185 4.3833 0 7.9365-3.5538 7.9365-7.9371 0-0.34654-0.02187-0.68888-0.06477-1.0228-0.049628-0.39028-0.13038-0.76966-0.23385-1.1389q-0.3516-1.2407-1.0801-2.3088-0.72005-1.0523-1.7304-1.8286z" fill="url(#linearGradient1001-3)" stroke-width=".26385"/>
 <circle cx="8.469" cy="8.4722" r="7.9376" fill-opacity="0" stroke-width=".41578"/>
 <path d="m4.7495 1.4461c-0.79557 0.42217-1.5107 0.97545-2.1166 1.6314v3.8798l1.0588-1.0588 1.0578 1.0578z" fill="#fff" stroke-width=".26458"/>
 <path d="m9.0679 6.199c-0.88263 0-1.4519 0.015345-1.8166 0.068017-0.18263 0.026336-0.31577 0.0641-0.41874 0.12243-0.10793 0.061161-0.18463 0.16553-0.18463 0.28905 0 0.080533 0.03861 0.13963 0.10224 0.17347 0.04536 0.024159 0.09126 0.028731 0.13188 0.027208 0.07902-0.00284 0.1629-0.027642 0.25722-0.064644 0.01079-0.00424 0.08303-0.021656 0.17809-0.037436 0.09495-0.01578 0.21723-0.032648 0.35607-0.047667 0.27821-0.029928 0.62679-0.056591 0.97263-0.071392l0.85394-0.037438-0.16817 0.15987c-0.25816 0.2416-1.1077 0.89119-1.9453 1.5032-0.41874 0.30602-0.83442 0.60497-1.1804 0.84342-0.34584 0.23844-0.62827 0.42084-0.74168 0.4795-0.14697 0.07433-0.29256 0.1516-0.43847 0.22789 0.02416 0.08369 0.04177 0.17706 0.0594 0.25172 0.18231 0.0082 0.36483 0.01175 0.54735 0.01698 0.10782 0.0029 0.41737 0.03798 0.79792 0.09522 0.38065 0.05724 0.84128 0.13429 1.2891 0.21766 0.95058 0.17685 1.6651 0.28132 2.2024 0.30951 0.5369 0.02808 0.90194-0.01164 1.1605-0.14964 0.19444-0.10371 0.38139-0.31027 0.53743-0.53054 0.1553-0.21983 0.28739-0.44576 0.28686-0.6595 0-0.01513-0.0028-0.05811-0.02311-0.09522-0.0173-0.03178-0.03756-0.04723-0.0594-0.06127-0.02184-0.01393-0.04536-0.02623-0.08239-0.02721-0.0365-9.78e-4 -0.07617 0.01022-0.10224 0.02721-0.10012 0.074-0.15973 0.19632-0.21765 0.27544-0.1496 0.25313-0.29087 0.39058-0.53416 0.48298-0.24213 0.09185-0.6002 0.12929-1.1473 0.12929-0.48531 0-1.2403-0.06813-1.8891-0.15649-0.32421-0.04408-0.62341-0.0924-0.84718-0.13941h-0.0033c-0.1053-0.0222-0.20583-0.0456-0.26913-0.06465 0.0748-0.0826 0.22989-0.20971 0.44058-0.38427 1.4855-1.1672 2.7319-2.0923 4.2296-3.1734h-2.3337z" color="#000000" fill="#f1f2f2"/>
</svg>
