<?xml version="1.0" encoding="UTF-8"?>
<svg width="64" height="64" version="1.1" xmlns="http://www.w3.org/2000/svg" xmlns:cc="http://creativecommons.org/ns#" xmlns:dc="http://purl.org/dc/elements/1.1/" xmlns:rdf="http://www.w3.org/1999/02/22-rdf-syntax-ns#" xmlns:xlink="http://www.w3.org/1999/xlink">
 <metadata>
  <rdf:RDF>
   <cc:Work rdf:about="">
    <dc:format>image/svg+xml</dc:format>
    <dc:type rdf:resource="http://purl.org/dc/dcmitype/StillImage"/>
   </cc:Work>
  </rdf:RDF>
 </metadata>
 <defs>
  <filter id="filter981" x="-.084859" y="-.1485" width="1.1697" height="1.297" color-interpolation-filters="sRGB">
   <feGaussianBlur stdDeviation="1.237486"/>
  </filter>
  <linearGradient id="linearGradient936" x1="-26.286" x2="-86.14" y1="2.0268" y2="62.103" gradientTransform="translate(-67.317 .00010078)" gradientUnits="userSpaceOnUse">
   <stop stop-color="#85b6ff" offset="0"/>
   <stop stop-color="#6083f1" offset="1"/>
  </linearGradient>
  <linearGradient id="linearGradient1448" x1="32.249" x2="32.249" y1="6.6161" y2="57.581" gradientTransform="matrix(.95385 0 0 .95385 1.4769 1.4769)" gradientUnits="userSpaceOnUse">
   <stop stop-color="#e4e4e4" offset="0"/>
   <stop stop-color="#f8f8f8" offset=".4809"/>
   <stop stop-color="#bbbcbd" offset="1"/>
  </linearGradient>
  <linearGradient id="linearGradient24835" x1="30.896" x2="30.896" y1="8.3955" y2="55.391" gradientTransform="matrix(.95385 0 0 .95385 1.4769 1.4769)" gradientUnits="userSpaceOnUse">
   <stop stop-color="#5f6c9e" offset="0"/>
   <stop stop-color="#1d5ad4" offset=".50465"/>
   <stop stop-color="#7b7b9f" offset="1"/>
  </linearGradient>
  <linearGradient id="linearGradient33701" x1="50.845" x2="50.845" y1="8.8999" y2="53.677" gradientTransform="matrix(.95385 0 0 .95385 1.4769 1.4769)" gradientUnits="userSpaceOnUse">
   <stop stop-color="#1b2675" offset="0"/>
   <stop stop-color="#0b1d74" offset=".52481"/>
   <stop stop-color="#003" offset="1"/>
  </linearGradient>
  <linearGradient id="linearGradient40720" x1="41.986" x2="41.986" y1="11.073" y2="31.312" gradientTransform="matrix(.95385 0 0 .95385 1.4769 1.4769)" gradientUnits="userSpaceOnUse">
   <stop stop-color="#42508b" offset="0"/>
   <stop stop-color="#172062" offset="1"/>
  </linearGradient>
  <linearGradient id="linearGradient46237" x1="21.664" x2="21.664" y1="18.949" y2="45.084" gradientTransform="matrix(.79931 0 0 .79931 6.4281 6.4219)" gradientUnits="userSpaceOnUse">
   <stop stop-color="#4291ff" offset="0"/>
   <stop stop-color="#0f37f6" offset="1"/>
  </linearGradient>
  <linearGradient id="linearGradient50048" x1="24.608" x2="24.608" y1="46.403" y2="18.667" gradientTransform="matrix(.79931 0 0 .79931 6.4281 6.4219)" gradientUnits="userSpaceOnUse">
   <stop stop-color="#2b4ae6" offset="0"/>
   <stop stop-color="#9de4ff" offset="1"/>
  </linearGradient>
 </defs>
 <path d="m-103.75 1.8829c-0.30437-0.02385-0.61633-0.01733-0.93164 0.02148l-45.48 5.6035c-2.5225 0.31081-4.303 2.5927-3.9922 5.1152l5.6035 45.48c0.3108 2.5225 2.5927 4.303 5.1152 3.9922l45.48-5.6035c2.5225-0.3108 4.303-2.5927 3.9922-5.1152l-5.6035-45.48c-0.27196-2.2072-2.0529-3.8466-4.1836-4.0137z" fill="url(#linearGradient936)" stroke-linecap="round" stroke-width="2"/>
 <path d="m-138.89 23c-1.2003 0-2.166 0.95547-2.166 2.1426v12.143c0 3.1656 2.5765 5.7148 5.7773 5.7148h18.057c1.2003 0 2.166-0.95547 2.166-2.1426v-12.143c0-3.1656-2.5765-5.7148-5.7773-5.7148h-14.445zm31.564 0.0039c-0.42486-0.03143-0.90846 0.17568-1.3691 0.63477-1.6201 1.6144-3.5196 2.9767-4.8477 4.9062-0.54689 0.7946-0.50937 1.8466-0.51367 2.8359-2e-3 0.54283 3e-3 1.0835 0 1.6191 3e-3 0.53569-2e-3 1.0763 0 1.6191 4e-3 0.98936-0.0332 2.0413 0.51367 2.8359 1.328 1.9296 3.2276 3.2918 4.8477 4.9062 0.46068 0.45908 0.94428 0.66619 1.3691 0.63477 0.70809-0.05239 1.252-0.77105 1.252-2.1035 0-2.6086 0.0382-5.2482 0-7.8926 0.0382-2.6443 0-5.284 0-7.8926 0-1.3325-0.54386-2.0511-1.252-2.1035z" filter="url(#filter981)" opacity=".15"/>
 <path d="m-138.89 22c-1.2003 0-2.166 0.95547-2.166 2.1426v12.143c0 3.1656 2.5765 5.7148 5.7773 5.7148h18.057c1.2003 0 2.166-0.95547 2.166-2.1426v-12.143c0-3.1656-2.5765-5.7148-5.7773-5.7148h-14.445zm31.564 0.0039c-0.42486-0.03143-0.90846 0.17568-1.3691 0.63477-1.6201 1.6144-3.5196 2.9767-4.8477 4.9062-0.54689 0.7946-0.50937 1.8466-0.51367 2.8359-2e-3 0.54283 3e-3 1.0835 0 1.6191 3e-3 0.53569-2e-3 1.0763 0 1.6191 4e-3 0.98936-0.0332 2.0413 0.51367 2.8359 1.328 1.9296 3.2276 3.2918 4.8477 4.9062 0.46068 0.45908 0.94428 0.66619 1.3691 0.63477 0.70809-0.05239 1.252-0.77105 1.252-2.1035 0-2.6086 0.0382-5.2482 0-7.8926 0.0382-2.6443 0-5.284 0-7.8926 0-1.3325-0.54386-2.0511-1.252-2.1035z" fill="#fff"/>
 <g>
  <rect x="1.4769" y="6.61" width="61.046" height="50.78" ry="4.2356" fill="url(#linearGradient1448)" stroke="#8c8c8c" stroke-width=".95385"/>
  <rect x="4.7916" y="9.3667" width="54.417" height="45.266" ry="2.5002" fill="url(#linearGradient24835)" stroke-width="3.4106"/>
  <rect x="6.1566" y="10.502" width="51.687" height="42.995" ry="1.9153" fill="url(#linearGradient33701)" stroke-width="3.2395"/>
  <path d="m56.565 32h-49.131v18.535c0 1.0518 0.84843 1.8984 1.9002 1.8984h45.33c1.0518 0 1.9002-0.84657 1.9002-1.8984z" fill="#00084a" stroke-width=".95385"/>
  <path d="m7.4347 13.465v18.535h49.131v-18.535c0-1.0518-0.84844-1.8984-1.9002-1.8984h-45.33c-1.0518 0-1.9002 0.84657-1.9002 1.8984z" fill="url(#linearGradient40720)" stroke-width=".95385"/>
  <path d="m41.705 30.163-17.279-9.9741c-1.4116-0.81573-3.1782 0.20393-3.1782 1.8354v19.951c0 1.6315 1.7665 2.6511 3.1782 1.8354l17.279-9.9768c1.4116-0.81573 1.4116-2.855 0-3.6708z" fill="url(#linearGradient46237)" stroke="url(#linearGradient50048)" stroke-width=".79932" p-id="2382"/>
 </g>
</svg>
