<?xml version="1.0" encoding="UTF-8" standalone="no"?>
<svg
   sodipodi:docname="zulip.svg"
   inkscape:version="1.2.1 (9c6d41e410, 2022-07-14)"
   id="svg6"
   version="1.1"
   viewBox="0 0 16.933333 16.933333"
   height="64"
   width="64"
   inkscape:export-filename="/home/eleme/.icons/Mkos-Big-Sur/128x128/apps/sombra.png"
   inkscape:export-xdpi="96"
   inkscape:export-ydpi="96"
   xmlns:inkscape="http://www.inkscape.org/namespaces/inkscape"
   xmlns:sodipodi="http://sodipodi.sourceforge.net/DTD/sodipodi-0.dtd"
   xmlns:xlink="http://www.w3.org/1999/xlink"
   xmlns="http://www.w3.org/2000/svg"
   xmlns:svg="http://www.w3.org/2000/svg"
   xmlns:rdf="http://www.w3.org/1999/02/22-rdf-syntax-ns#"
   xmlns:cc="http://creativecommons.org/ns#"
   xmlns:dc="http://purl.org/dc/elements/1.1/">
  <metadata
     id="metadata43">
    <rdf:RDF>
      <cc:Work
         rdf:about="">
        <dc:format>image/svg+xml</dc:format>
        <dc:type
           rdf:resource="http://purl.org/dc/dcmitype/StillImage" />
      </cc:Work>
    </rdf:RDF>
  </metadata>
  <defs
     id="defs2">
    <linearGradient
       id="lgrad"
       x1="32"
       y1="32"
       x2="32"
       y2="992"
       gradientUnits="userSpaceOnUse"
       gradientTransform="translate(0,-896)">
      <stop
         offset="0%"
         stop-color="#f8f8f8"
         id="stop2" />
      <stop
         offset="100%"
         stop-color="#ccc"
         id="stop4" />
    </linearGradient>
    <radialGradient
       id="rgrad"
       x1="0%"
       y1="0%"
       x2="0%"
       y2="100%"
       fx="512"
       fy="494.39999"
       cx="512"
       cy="512"
       r="440"
       gradientUnits="userSpaceOnUse"
       gradientTransform="translate(0,-896)">
      <stop
         offset="0%"
         stop-color="#00f0ff"
         id="stop7" />
      <stop
         offset="100%"
         stop-color="#0070e0"
         id="stop9" />
    </radialGradient>
    <radialGradient
       gradientTransform="matrix(0.03024122,0,0,0.02958968,1.132043,2.8247994)"
       gradientUnits="userSpaceOnUse"
       r="440"
       cy="306.1813"
       cx="523.57568"
       fy="306.1813"
       fx="523.57568"
       y2="100%"
       x2="0%"
       y1="0%"
       x1="0%"
       id="rgrad-3">
      <stop
         style="stop-color:#03d7e4;stop-opacity:1"
         id="stop7-6"
         stop-color="#00f0ff"
         offset="0%" />
      <stop
         id="stop9-7"
         stop-color="#0070e0"
         offset="100%" />
    </radialGradient>
    <clipPath
       clipPathUnits="userSpaceOnUse"
       id="clipPath971">
      <path
         style="opacity:1;fill:#917c6f;fill-opacity:1;stroke:none;stroke-width:0.3;stroke-linecap:round;stroke-linejoin:round;stroke-miterlimit:4;stroke-dasharray:none;stroke-opacity:1"
         d="m -0.55397135,-0.27595216 c -0.027071,2e-8 -0.0485759,0.0220216 -0.0485759,0.0490926 V 33.951415 c 2e-8,0.02707 0.0215048,0.04909 0.0485759,0.04909 H 33.76073 c 0.02707,0 0.04909,-0.02201 0.04909,-0.04909 V -0.22685954 c 0,-0.027071 -0.02201,-0.0490926 -0.04909,-0.0490926 z M 8.8459717,2.5187093 H 25.034131 c 3.572997,0 6.449735,2.8762216 6.449735,6.4492187 v 16.188676 c 0,3.572997 -2.876738,6.449219 -6.449735,6.449219 H 8.8459717 c -3.5729971,0 -6.4497356,-2.876222 -6.4497356,-6.449219 V 8.967928 c 0,-3.5729971 2.8767385,-6.4492187 6.4497356,-6.4492187 z"
         id="path973"
         inkscape:connector-curvature="0" />
    </clipPath>
    <linearGradient
       inkscape:collect="always"
       id="linearGradient1075">
      <stop
         style="stop-color:#256b40;stop-opacity:1"
         offset="0"
         id="stop1071" />
      <stop
         style="stop-color:#1b412a;stop-opacity:0.95161289"
         offset="1"
         id="stop1073" />
    </linearGradient>
    <linearGradient
       inkscape:collect="always"
       id="linearGradient1083">
      <stop
         style="stop-color:#299458;stop-opacity:1;"
         offset="0"
         id="stop1079" />
      <stop
         style="stop-color:#23814d;stop-opacity:1"
         offset="1"
         id="stop1081" />
    </linearGradient>
    <linearGradient
       id="linearGradient1448"
       x1="3.9686999"
       x2="3.9686999"
       y1="16.403999"
       y2="2.6458001"
       gradientTransform="matrix(0.91669806,0,0,0.91669806,29.038822,0.7055452)"
       gradientUnits="userSpaceOnUse">
      <stop
         stop-color="#dcdcdc"
         offset="0"
         id="stop333" />
      <stop
         stop-color="#f0f0f0"
         offset="1"
         id="stop335" />
    </linearGradient>
    <filter
       id="filter1066"
       x="-0.063922505"
       y="-0.056531058"
       width="1.127845"
       height="1.1130621"
       color-interpolation-filters="sRGB">
      <feGaussianBlur
         stdDeviation="0.22705935"
         id="feGaussianBlur262" />
    </filter>
    <filter
       id="filter1100"
       x="-0.12197176"
       y="-0.11847621"
       width="1.2439435"
       height="1.2369524"
       color-interpolation-filters="sRGB">
      <feGaussianBlur
         stdDeviation="0.47586465"
         id="feGaussianBlur265" />
    </filter>
    <filter
       id="filter440"
       x="-0.063922502"
       y="-0.056531057"
       width="1.127845"
       height="1.1130621"
       color-interpolation-filters="sRGB">
      <feGaussianBlur
         stdDeviation="0.22705935"
         id="feGaussianBlur438" />
    </filter>
    <linearGradient
       id="linearGradient938"
       x1="80.367996"
       x2="82.140999"
       y1="13.177"
       y2="14.704"
       gradientTransform="matrix(0.96154894,0,0,0.96154894,-65.27507,-1.6920581)"
       gradientUnits="userSpaceOnUse">
      <stop
         stop-color="#fafafa"
         offset="0"
         id="stop268" />
      <stop
         stop-color="#90a0b3"
         offset="1"
         id="stop270" />
    </linearGradient>
    <linearGradient
       inkscape:collect="always"
       xlink:href="#linearGradient1075"
       id="linearGradient690"
       gradientUnits="userSpaceOnUse"
       gradientTransform="rotate(2.9452736,5136.1245,176.10223)"
       x1="4.9137902"
       y1="272.01874"
       x2="22.362013"
       y2="272.01874" />
    <linearGradient
       inkscape:collect="always"
       xlink:href="#linearGradient1083"
       id="linearGradient692"
       gradientUnits="userSpaceOnUse"
       gradientTransform="rotate(2.9452736,5136.1245,176.10223)"
       x1="20.046837"
       y1="272.14352"
       x2="9.4928646"
       y2="287.41202" />
  </defs>
  <sodipodi:namedview
     inkscape:window-maximized="1"
     inkscape:window-y="40"
     inkscape:window-x="0"
     inkscape:window-height="936"
     inkscape:window-width="1920"
     units="px"
     showgrid="false"
     inkscape:current-layer="layer1"
     inkscape:document-units="mm"
     inkscape:cy="27.142857"
     inkscape:cx="-43.214285"
     inkscape:zoom="2.8"
     inkscape:pageshadow="2"
     inkscape:pageopacity="0.0"
     borderopacity="1.0"
     bordercolor="#666666"
     pagecolor="#ffffff"
     id="base"
     inkscape:showpageshadow="0"
     inkscape:pagecheckerboard="0"
     inkscape:deskcolor="#d1d1d1" />
  <g
     id="layer1"
     inkscape:groupmode="layer"
     inkscape:label="Layer 1">
    <rect
       transform="rotate(-6.4421999)"
       x="0.43788633"
       y="2.1014657"
       width="13.992275"
       height="13.992275"
       ry="1.167123"
       fill="#f3f3f3"
       stroke-width="0.961549"
       id="rect277" />
    <path
       transform="matrix(1.0331204,0,0,0.9696491,-44.48166,-3.0650852)"
       d="m 57.818,9.8288 c 0,0 0.05354,3.0782 -2.6636,4.5408 -2.2449,1.2084 0.9386,2.689 -5.8599,5.0989 8.8505,-2.5748 8.5235,-9.6396 8.5235,-9.6396 z"
       fill="#141414"
       filter="url(#filter1066)"
       opacity="0.3"
       id="path279" />
    <path
       transform="matrix(0.83589647,0,0,0.91429801,-33.660447,-3.0370846)"
       d="m 57.594,9.7322 c -0.15355,5.725 -5.0519,8.6864 -8.5234,9.6397 l 8.2859,-0.93608 c 0.6682,-0.07545 1.1451,-0.67434 1.0697,-1.3425 z"
       fill="#9cb8d7"
       filter="url(#filter1100)"
       opacity="0.2"
       id="path281" />
    <path
       transform="matrix(1.0038198,0,0,0.93537843,-42.748626,-2.6150763)"
       d="m 57.818,9.8288 c 0,0 0.05354,3.0782 -2.6636,4.5408 -2.2449,1.2084 0.9386,2.689 -5.8599,5.0989 8.8505,-2.5748 8.5235,-9.6396 8.5235,-9.6396 z"
       fill="#141414"
       filter="url(#filter1066)"
       opacity="0.3"
       id="path283" />
    <path
       d="m 13.660485,0.59698698 c -0.07737,-0.0069 -0.156703,-0.0061 -0.237015,0.003 L 1.8382421,1.9083128 C 1.1957294,1.9808642 0.73672038,2.5562256 0.80922181,3.1987382 L 2.1175476,14.783966 c 0.072551,0.642513 0.6479127,1.101122 1.2904254,1.028621 L 7.0309444,15.403649 C 10.36891,14.485601 15.074003,11.637874 15.221606,6.1355661 L 16.021601,13.213706 14.713776,1.6284773 C 14.650294,1.0662862 14.201486,0.64440791 13.659955,0.59645697 Z"
       fill="#fafafa"
       stroke-width="0.961549"
       id="path285" />
    <g
       id="g688"
       transform="matrix(0.40397818,0,0,0.40397818,1.8804322,1.9113621)">
      <path
         id="path682"
         d="M 6.8068146,7.3955207 21.441053,5.7892565 24.145116,9.9805132 9.510876,11.586784 Z"
         style="fill:url(#linearGradient690);fill-opacity:1;stroke-width:0.89225"
         inkscape:connector-curvature="0" />
      <path
         id="path684"
         d="M 8.4617637,22.473242 21.441053,5.7892568 24.145116,9.9805132 11.165828,26.6645 Z"
         style="fill:url(#linearGradient692);fill-opacity:1;stroke-width:0.89225"
         inkscape:connector-curvature="0" />
      <path
         id="path686"
         style="fill:#249d5b;fill-opacity:1;stroke-width:0.89225"
         d="M 8.4617637,22.473242 23.096003,20.866971 25.800068,25.058238 11.165828,26.6645 Z"
         inkscape:connector-curvature="0" />
    </g>
    <path
       d="m 15.220516,6.1020954 c 0,0 0.05148,2.9598583 -2.561251,4.3661856 -2.158642,1.161923 0.902518,2.585651 -5.6346108,4.902997 8.5103678,-2.475849 8.2634628,-9.2352819 8.2634628,-9.2352819 z"
       fill="url(#linearGradient938)"
       stroke-width="0.961549"
       id="path303"
       style="fill:url(#linearGradient938)" />
  </g>
</svg>
